<svg width="514" height="594" viewBox="0 0 514 594" fill="none" xmlns="http://www.w3.org/2000/svg">
<g clip-path="url(#clip0_4751_298)">
<path d="M105.941 94.96C115.595 94.96 123.421 87.1339 123.421 77.48C123.421 67.8261 115.595 60 105.941 60C96.287 60 88.4609 67.8261 88.4609 77.48C88.4609 87.1339 96.287 94.96 105.941 94.96Z" fill="#221E57"/>
<path d="M407.73 94.96C417.384 94.96 425.21 87.1339 425.21 77.48C425.21 67.8261 417.384 60 407.73 60C398.076 60 390.25 67.8261 390.25 77.48C390.25 87.1339 398.076 94.96 407.73 94.96Z" fill="#221E57"/>
<path d="M286.08 65.6H227.68C225.797 65.6 223.932 65.9709 222.192 66.6915C220.452 67.4122 218.872 68.4685 217.54 69.8C216.208 71.1316 215.152 72.7125 214.431 74.4523C213.711 76.1921 213.34 78.0568 213.34 79.94V91.1C213.34 92.9831 213.711 94.8478 214.431 96.5876C215.152 98.3275 216.208 99.9083 217.54 101.24C218.872 102.571 220.452 103.628 222.192 104.348C223.932 105.069 225.797 105.44 227.68 105.44H243.68V138.61H270.08V105.44H286.08C289.884 105.44 293.532 103.929 296.223 101.24C298.914 98.5515 300.427 94.9041 300.43 91.1V79.94C300.427 76.1358 298.914 72.4884 296.223 69.7994C293.532 67.1105 289.884 65.6 286.08 65.6Z" fill="#221E57"/>
<path d="M141.227 115.852L117.334 126.867L138.786 173.4L162.679 162.385L141.227 115.852Z" fill="#221E57"/>
<path d="M208.08 113.24C207.61 112.06 207.08 110.88 206.56 109.71C202.39 100.665 196.48 92.5302 189.167 85.7695C181.853 79.0088 173.28 73.7547 163.936 70.3073C154.592 66.86 144.661 65.2868 134.709 65.6775C124.757 66.0683 114.979 68.4155 105.935 72.585C96.8898 76.7544 88.7548 82.6646 81.994 89.978C75.2333 97.2913 69.9793 105.865 66.5319 115.209C63.0846 124.553 61.5114 134.484 61.9022 144.436C62.293 154.388 64.6401 164.165 68.8096 173.21C69.3496 174.38 69.9196 175.53 70.5096 176.67L208.08 113.24Z" fill="#FAF28C"/>
<path d="M206.57 109.68C198.143 91.418 182.808 77.2507 163.937 70.2935C145.066 63.3362 124.204 64.1586 105.94 72.58C103.6 73.66 101.35 74.84 99.1699 76.12C99.1699 76.12 133.83 65.72 177.94 127.12L208.08 113.24C207.62 112.06 207.08 110.88 206.57 109.68Z" fill="#FFFACA"/>
<path d="M351.097 162.388L374.99 173.403L396.442 126.869L372.549 115.854L351.097 162.388Z" fill="#221E57"/>
<path d="M305.689 113.24C306.169 112.06 306.689 110.88 307.219 109.71C311.389 100.665 317.299 92.5302 324.612 85.7695C331.926 79.0088 340.499 73.7547 349.843 70.3073C359.187 66.86 369.118 65.2868 379.07 65.6775C389.022 66.0683 398.8 68.4155 407.844 72.585C416.889 76.7544 425.024 82.6646 431.785 89.978C438.546 97.2913 443.8 105.865 447.247 115.209C450.694 124.553 452.268 134.484 451.877 144.436C451.486 154.388 449.139 164.165 444.969 173.21C444.419 174.38 443.859 175.53 443.259 176.67L305.689 113.24Z" fill="#FAF28C"/>
<path d="M307.219 109.68C311.661 100.054 318.071 91.465 326.035 84.4679C334 77.4708 343.343 72.2205 353.461 69.0557C363.579 65.8909 374.248 64.8817 384.781 66.0933C395.313 67.3049 405.474 70.7103 414.609 76.09V76.09C414.609 76.09 379.959 65.69 335.849 127.09L305.689 113.18C306.169 112.06 306.679 110.88 307.219 109.68Z" fill="#FFFACA"/>
<path d="M151.959 139.12C156.579 136.84 161.179 134.52 165.809 132.27L179.709 125.5L193.599 118.68L207.529 111.99L206.849 113.71C200.626 98.8515 189.789 86.3881 175.939 78.16C164.498 71.3646 151.442 67.7658 138.135 67.7394C124.828 67.7131 111.758 71.26 100.289 78.01L99.1695 73.85C99.6614 73.8449 100.141 74.0033 100.533 74.3004C100.925 74.5975 101.208 75.0164 101.336 75.4914C101.464 75.9664 101.431 76.4705 101.242 76.9246C101.052 77.3787 100.717 77.7569 100.289 78C92.2074 82.7279 85.1088 88.9642 79.3794 96.37C67.7664 111.335 62.2564 130.145 63.9595 149.01C64.8489 158.415 67.4839 167.571 71.7295 176.01L69.9394 175.4L84.4295 168.99L98.9695 162.68L113.489 156.37C118.329 154.24 123.209 152.21 128.059 150.13C123.329 152.47 118.609 154.86 113.859 157.13L99.6195 164.07L85.3794 171.01L71.0795 177.91C70.7676 178.06 70.4101 178.084 70.0807 177.978C69.7513 177.872 69.4752 177.644 69.3095 177.34V177.34C59.7899 159.853 57.4721 139.34 62.8495 120.17C68.1849 100.857 80.8175 84.3731 98.0795 74.2L99.2095 78.35C98.7231 78.3476 98.2508 78.1863 97.8647 77.8905C97.4785 77.5948 97.1996 77.181 97.0704 76.712C96.9413 76.2431 96.969 75.7448 97.1494 75.2931C97.3298 74.8414 97.6529 74.461 98.0695 74.21C107.735 68.464 118.544 64.9093 129.734 63.7965C140.924 62.6838 152.221 64.0402 162.829 67.77C168.106 69.6135 173.174 72.0067 177.949 74.91C192.27 83.756 203.301 97.0458 209.359 112.75V112.8C209.48 113.115 209.475 113.464 209.344 113.775C209.214 114.087 208.969 114.335 208.659 114.47L194.519 120.68L180.339 126.84L166.169 133.01C161.449 135.1 156.689 137.09 151.959 139.12Z" fill="#231F20"/>
<path d="M128.08 150.14C129.27 151.94 130.38 153.78 131.47 155.63C132.56 157.48 133.63 159.34 134.66 161.21C135.69 163.08 136.71 164.97 137.66 166.86C138.61 168.75 139.66 170.65 140.61 172.56L137.92 171.56C145.767 167.633 153.73 163.967 161.81 160.56L160.81 163.25C159.977 161.25 159.17 159.27 158.39 157.31C157.6 155.31 156.81 153.31 156.07 151.31C155.33 149.31 154.59 147.31 153.89 145.26C153.19 143.21 152.53 141.19 151.89 139.11C153.07 140.92 154.19 142.75 155.28 144.6C156.37 146.45 157.44 148.31 158.47 150.19C159.5 152.07 160.52 153.94 161.47 155.83C162.42 157.72 163.47 159.62 164.42 161.53C164.643 161.996 164.676 162.53 164.514 163.02C164.352 163.51 164.007 163.919 163.55 164.16L163.42 164.22C155.58 168.153 147.617 171.82 139.53 175.22L139.4 175.27C138.926 175.462 138.397 175.465 137.921 175.279C137.445 175.093 137.058 174.732 136.84 174.27C136.01 172.27 135.2 170.33 134.42 168.34C133.64 166.35 132.84 164.34 132.1 162.34C131.36 160.34 130.62 158.34 129.92 156.34C129.22 154.34 128.67 152.21 128.08 150.14Z" fill="#231F20"/>
<path d="M385.719 150.14C390.579 152.22 395.449 154.26 400.289 156.38L414.819 162.68L429.349 169L443.839 175.4L442.049 176.01C450.648 159.047 452.436 139.439 447.049 121.2C444.403 112.209 440.095 103.794 434.349 96.39C428.621 88.9868 421.526 82.7509 413.449 78.02C413.027 77.7751 412.698 77.398 412.512 76.947C412.325 76.4961 412.293 75.9963 412.419 75.5251C412.546 75.0539 412.824 74.6374 413.211 74.34C413.597 74.0426 414.071 73.881 414.559 73.88L413.559 78.06C408.963 75.3849 404.104 73.19 399.059 71.51C394.042 69.8391 388.858 68.7192 383.599 68.17C373.037 67.067 362.362 68.2365 352.289 71.6C342.163 74.9831 332.878 80.4926 325.056 87.7589C317.235 95.0252 311.057 103.88 306.939 113.73L306.259 112L320.189 118.7L334.079 125.49L347.969 132.27C352.609 134.51 357.209 136.84 361.829 139.12C357.089 137.12 352.339 135.12 347.619 133.04L333.439 126.88L319.269 120.68L305.129 114.44C304.819 114.303 304.574 114.053 304.443 113.74C304.313 113.427 304.308 113.076 304.429 112.76V112.71C308.433 102.298 314.658 92.8828 322.669 85.12C326.671 81.2281 331.092 77.7906 335.849 74.87C345.422 68.9942 356.158 65.271 367.313 63.9586C378.468 62.6463 389.774 63.7762 400.449 67.27C405.751 69.0032 410.851 71.3032 415.659 74.13H415.739C416.156 74.381 416.479 74.7614 416.659 75.2131C416.84 75.6648 416.867 76.1631 416.738 76.632C416.609 77.101 416.33 77.5148 415.944 77.8105C415.558 78.1063 415.086 78.2676 414.599 78.27V78.27L415.729 74.12C426.412 80.4574 435.42 89.264 441.997 99.8012C448.574 110.338 452.529 122.299 453.529 134.68C454.708 149.471 451.561 164.286 444.469 177.32C444.304 177.621 444.029 177.848 443.702 177.954C443.375 178.06 443.02 178.037 442.709 177.89L428.429 171.03L414.189 164.09L399.949 157.14C395.169 154.86 390.459 152.48 385.719 150.14Z" fill="#231F20"/>
<path d="M361.83 139.12C361.22 141.2 360.55 143.24 359.83 145.27C359.11 147.3 358.41 149.32 357.65 151.27C356.89 153.22 356.12 155.27 355.33 157.27C354.54 159.27 353.74 161.27 352.91 163.21L351.91 160.52C359.99 163.927 367.957 167.593 375.81 171.52L373.11 172.52C374.11 170.61 375.05 168.71 376.06 166.82C377.07 164.93 378.06 163.04 379.06 161.17C380.06 159.3 381.16 157.44 382.25 155.59C383.34 153.74 384.46 151.9 385.64 150.1C385.04 152.17 384.37 154.21 383.64 156.25C382.91 158.29 382.22 160.25 381.46 162.25C380.7 164.25 379.93 166.25 379.14 168.25C378.35 170.25 377.55 172.25 376.72 174.19C376.511 174.661 376.128 175.033 375.651 175.229C375.174 175.425 374.64 175.429 374.16 175.24V175.24L374.04 175.19C365.947 171.77 357.98 168.103 350.14 164.19L350.02 164.13C349.567 163.889 349.223 163.482 349.061 162.994C348.899 162.506 348.931 161.975 349.15 161.51C350.11 159.597 351.11 157.7 352.15 155.82C353.15 153.92 354.15 152.03 355.15 150.17C356.15 148.31 357.25 146.43 358.34 144.58C359.43 142.73 360.64 140.93 361.83 139.12Z" fill="#231F20"/>
<path d="M129.86 529.91C121.3 523.77 120 509.98 126.75 496.91L150.08 451.61L197.59 485.68L162.15 522.26C151.9 532.88 138.43 536.06 129.86 529.91Z" fill="#221E57"/>
<path d="M381.79 529.91C390.35 523.77 391.65 509.98 384.9 496.91L361.59 451.64L314.08 485.68L349.52 522.26C359.75 532.88 373.23 536.06 381.79 529.91Z" fill="#221E57"/>
<path d="M256.89 514.07C364.619 514.07 451.95 426.739 451.95 319.01C451.95 211.281 364.619 123.95 256.89 123.95C149.161 123.95 61.8301 211.281 61.8301 319.01C61.8301 426.739 149.161 514.07 256.89 514.07Z" fill="#D84C53"/>
<path d="M451.95 319.01C452.383 344.703 447.684 370.225 438.13 394.08C423.54 430.197 398.492 461.131 366.199 482.913C333.907 504.696 295.843 516.334 256.89 516.334C217.938 516.334 179.874 504.696 147.581 482.913C115.289 461.131 90.2405 430.197 75.6503 394.08C66.0994 370.224 61.4044 344.703 61.8403 319.01L62.2503 328.57C62.5003 331.75 62.8303 334.93 63.1203 338.1C63.4103 341.27 63.9803 344.41 64.4103 347.57C64.8403 350.73 65.5803 353.83 66.1603 356.95C68.7899 369.398 72.6488 381.554 77.6803 393.24C87.6294 416.634 102.072 437.848 120.19 455.68C129.228 464.538 139.082 472.523 149.62 479.53C176.074 497.028 206.405 507.793 237.972 510.887C269.538 513.981 301.382 509.31 330.73 497.28C378.154 477.79 415.999 440.416 436.08 393.24C441.107 381.553 444.966 369.397 447.6 356.95C448.18 353.83 448.86 350.71 449.35 347.57C449.84 344.43 450.27 341.26 450.64 338.1C451.01 334.94 451.26 331.75 451.51 328.57L451.95 319.01Z" fill="#231F20"/>
<path d="M61.8402 319.01C61.4054 293.317 66.1003 267.796 75.6502 243.94C90.2387 207.82 115.287 176.883 147.58 155.098C179.874 133.313 217.94 121.674 256.895 121.674C295.85 121.674 333.916 133.313 366.21 155.098C398.504 176.883 423.552 207.82 438.14 243.94C447.691 267.796 452.386 293.317 451.95 319.01L451.54 309.45C451.29 306.27 450.96 303.09 450.67 299.92C450.38 296.75 449.8 293.61 449.38 290.46C448.96 287.31 448.2 284.2 447.63 281.07C439.63 243.592 420.862 209.264 393.63 182.3C384.592 173.445 374.739 165.463 364.2 158.46C337.74 140.97 307.406 130.213 275.839 127.125C244.272 124.036 212.428 128.71 183.08 140.74C135.653 160.214 97.7975 197.574 77.7001 244.74C72.6776 256.429 68.8189 268.584 66.1802 281.03C65.6102 284.16 64.9301 287.27 64.4401 290.41C63.9501 293.55 63.5102 296.72 63.1502 299.88C62.7902 303.04 62.5302 306.23 62.2802 309.41L61.8402 319.01Z" fill="#231F20"/>
<path d="M256.891 470.34C340.468 470.34 408.221 402.587 408.221 319.01C408.221 235.433 340.468 167.68 256.891 167.68C173.313 167.68 105.561 235.433 105.561 319.01C105.561 402.587 173.313 470.34 256.891 470.34Z" fill="#F8F9E3"/>
<path d="M105.571 319.01C105.079 299.049 108.602 279.193 115.931 260.62C123.381 241.922 134.483 224.896 148.588 210.537C162.693 196.178 179.518 184.773 198.081 176.99C230.851 163.203 267.421 161.357 301.413 171.773C335.405 182.19 364.662 204.209 384.081 233.99C395.05 250.763 402.494 269.591 405.961 289.33C406.341 291.79 406.791 294.23 407.091 296.7C407.391 299.17 407.661 301.64 407.861 304.11C408.061 306.58 408.121 309.11 408.211 311.55V318.98L407.831 311.56C407.621 309.1 407.341 306.64 407.101 304.18C406.861 301.72 406.391 299.29 406.101 296.85C405.811 294.41 405.161 292.01 404.701 289.58C402.6 279.97 399.556 270.591 395.611 261.58C379.902 225.213 350.585 196.438 313.931 181.41C277.394 166.497 236.467 166.497 199.931 181.41C163.278 196.445 133.963 225.223 118.251 261.59C114.306 270.601 111.261 279.98 109.161 289.59C108.701 292.01 108.161 294.43 107.761 296.86C107.361 299.29 107.021 301.74 106.761 304.19C106.501 306.64 106.241 309.11 106.021 311.57L105.571 319.01Z" fill="#231F20"/>
<path d="M408.221 319.01C408.709 339.035 405.159 358.953 397.781 377.575C390.404 396.198 379.35 413.143 365.281 427.4C345.899 447.384 321.378 461.631 294.418 468.572C267.458 475.514 239.106 474.879 212.484 466.74C185.861 458.6 162.002 443.271 143.533 422.44C125.064 401.609 112.703 376.086 107.811 348.68C107.441 346.22 106.991 343.77 106.681 341.3C106.371 338.83 106.111 336.37 105.921 333.89C105.731 331.41 105.651 328.89 105.561 326.46V319.02L105.941 326.44C106.151 328.9 106.431 331.36 106.671 333.82C106.911 336.28 107.371 338.71 107.671 341.15C107.971 343.59 108.601 346 109.061 348.42C111.17 358.027 114.214 367.406 118.151 376.42C133.859 412.787 163.177 441.563 199.831 456.59C236.367 471.503 277.294 471.503 313.831 456.59C336.567 447.21 356.696 432.468 372.502 413.624C388.308 394.78 399.32 372.392 404.601 348.37C405.061 345.95 405.601 343.54 406.001 341.1C406.401 338.66 406.751 336.22 407.001 333.77C407.251 331.32 407.521 328.85 407.731 326.39L408.221 319.01Z" fill="#231F20"/>
<path d="M383.81 326.54C387.969 326.54 391.34 323.169 391.34 319.01C391.34 314.851 387.969 311.48 383.81 311.48H355.89C351.731 311.48 348.36 314.851 348.36 319.01C348.36 323.169 351.731 326.54 355.89 326.54H383.81Z" fill="#A073B2"/>
<path d="M157.89 326.54C162.049 326.54 165.42 323.169 165.42 319.01C165.42 314.851 162.049 311.48 157.89 311.48H129.97C125.811 311.48 122.44 314.851 122.44 319.01C122.44 323.169 125.811 326.54 129.97 326.54H157.89Z" fill="#A073B2"/>
<path d="M249.36 445.92C249.36 450.079 252.731 453.45 256.89 453.45C261.049 453.45 264.42 450.079 264.42 445.92V418C264.42 413.841 261.049 410.47 256.89 410.47C252.731 410.47 249.36 413.841 249.36 418V445.92Z" fill="#A073B2"/>
<path d="M249.36 220C249.36 224.159 252.731 227.53 256.89 227.53C261.049 227.53 264.42 224.159 264.42 220V192.08C264.42 187.921 261.049 184.55 256.89 184.55C252.731 184.55 249.36 187.921 249.36 192.08V220Z" fill="#A073B2"/>
<path d="M207.659 410.482L207.667 410.487C213.874 413.927 221.695 411.685 225.136 405.478L271.004 322.73C274.445 316.523 272.202 308.702 265.995 305.261L265.986 305.256C259.779 301.816 251.958 304.058 248.517 310.265L202.65 393.013C199.209 399.22 201.452 407.041 207.659 410.482Z" fill="#221E57"/>
<path d="M220.348 247.996L220.339 248.001C214.203 251.567 212.119 259.432 215.685 265.568L248.819 322.59C252.384 328.726 260.249 330.81 266.385 327.244L266.394 327.239C272.53 323.674 274.614 315.809 271.048 309.673L237.914 252.651C234.349 246.515 226.484 244.431 220.348 247.996Z" fill="#61388A"/>
<path d="M194.4 219.16C199.033 219.16 202.79 215.404 202.79 210.77C202.79 206.136 199.033 202.38 194.4 202.38C189.766 202.38 186.01 206.136 186.01 210.77C186.01 215.404 189.766 219.16 194.4 219.16Z" fill="#A073B2"/>
<path d="M148.65 264.91C153.283 264.91 157.04 261.154 157.04 256.52C157.04 251.886 153.283 248.13 148.65 248.13C144.016 248.13 140.26 251.886 140.26 256.52C140.26 261.154 144.016 264.91 148.65 264.91Z" fill="#A073B2"/>
<path d="M148.65 389.89C153.283 389.89 157.04 386.134 157.04 381.5C157.04 376.866 153.283 373.11 148.65 373.11C144.016 373.11 140.26 376.866 140.26 381.5C140.26 386.134 144.016 389.89 148.65 389.89Z" fill="#A073B2"/>
<path d="M194.4 435.64C199.033 435.64 202.79 431.884 202.79 427.25C202.79 422.616 199.033 418.86 194.4 418.86C189.766 418.86 186.01 422.616 186.01 427.25C186.01 431.884 189.766 435.64 194.4 435.64Z" fill="#A073B2"/>
<path d="M319.38 435.64C324.014 435.64 327.77 431.884 327.77 427.25C327.77 422.616 324.014 418.86 319.38 418.86C314.747 418.86 310.99 422.616 310.99 427.25C310.99 431.884 314.747 435.64 319.38 435.64Z" fill="#A073B2"/>
<path d="M365.13 389.89C369.764 389.89 373.52 386.134 373.52 381.5C373.52 376.866 369.764 373.11 365.13 373.11C360.497 373.11 356.74 376.866 356.74 381.5C356.74 386.134 360.497 389.89 365.13 389.89Z" fill="#A073B2"/>
<path d="M365.13 264.91C369.764 264.91 373.52 261.154 373.52 256.52C373.52 251.886 369.764 248.13 365.13 248.13C360.497 248.13 356.74 251.886 356.74 256.52C356.74 261.154 360.497 264.91 365.13 264.91Z" fill="#A073B2"/>
<path d="M319.38 219.16C324.014 219.16 327.77 215.404 327.77 210.77C327.77 206.136 324.014 202.38 319.38 202.38C314.747 202.38 310.99 206.136 310.99 210.77C310.99 215.404 314.747 219.16 319.38 219.16Z" fill="#A073B2"/>
</g>
<defs>
<clipPath id="clip0_4751_298">
<rect width="393.77" height="473.02" fill="white" transform="translate(60 60)"/>
</clipPath>
</defs>
</svg>
