<svg width="502" height="502" viewBox="0 0 502 502" fill="none" xmlns="http://www.w3.org/2000/svg">
<g clip-path="url(#clip0_4970_726)">
<path d="M246.21 501.05C237.578 501.073 229.027 499.383 221.052 496.079C213.077 492.774 205.837 487.921 199.75 481.8C198.27 480.32 196.84 478.8 195.51 477.14C192.446 473.439 189.794 469.415 187.6 465.14C179.33 469.995 170.096 472.978 160.549 473.88C151.002 474.782 141.373 473.58 132.34 470.36L131.91 470.2C130.91 469.85 129.91 469.46 128.97 469.05L128.34 468.79C127.41 468.38 126.53 467.97 125.59 467.51L124.85 467.16C123.63 466.54 122.55 465.96 121.53 465.37C111.767 459.704 103.62 451.628 97.8692 441.915C92.1179 432.201 88.9541 421.175 88.68 409.89V409.83C88.68 408.22 88.68 406.59 88.76 404.95H88.37C78.8422 404.963 69.4258 402.901 60.7756 398.906C52.1254 394.912 44.449 389.081 38.28 381.82L37.99 381.47C37.33 380.69 36.66 379.85 35.99 378.99L35.55 378.41C34.98 377.64 34.41 376.84 33.83 375.97V375.92L33.41 375.3C32.67 374.16 32.02 373.12 31.41 372.09C26.7682 364.038 23.8851 355.093 22.9509 345.846C22.0167 336.599 23.0525 327.258 25.99 318.44C26.47 317 26.99 315.55 27.59 314.14C27.89 313.41 28.21 312.69 28.53 311.98C29.8899 308.99 31.471 306.105 33.26 303.35C24.9258 298.601 17.729 292.089 12.1725 284.27C6.61596 276.451 2.83374 267.513 1.09001 258.08L1.02001 257.67C0.840007 256.62 0.680026 255.55 0.540026 254.49C0.540026 254.49 0.479999 253.99 0.449999 253.77C0.339999 252.82 0.250041 251.84 0.180041 250.77C0.180041 250.46 0.180043 250.21 0.120043 249.97C0.0400432 248.6 0.00999682 247.38 0.00999682 246.19C0.00150693 234.587 3.06978 223.189 8.90203 213.159C14.7343 203.128 23.1219 194.823 33.21 189.09C33.9 188.69 34.6 188.31 35.3 187.95L35.98 187.59C31.1369 179.314 28.1587 170.08 27.2536 160.534C26.3486 150.988 27.5384 141.359 30.74 132.32L30.85 132.01C31.24 130.93 31.63 129.93 32.05 128.94L32.33 128.27C32.71 127.4 33.12 126.51 33.58 125.56C33.72 125.27 33.83 125.04 33.95 124.81C34.55 123.61 35.13 122.53 35.72 121.51C41.3689 111.73 49.4421 103.569 59.1613 97.8154C68.8805 92.0617 79.9181 88.9086 91.21 88.6602H92.65C93.82 88.6602 95 88.6602 96.18 88.7602C96.1236 79.1713 98.1604 69.6855 102.148 60.965C106.137 52.2445 111.98 44.4994 119.27 38.2702L119.58 38.0102C120.4 37.3202 121.25 36.6502 122.1 36.0102L122.67 35.5802C123.45 35.0002 124.27 34.4302 125.12 33.8502L125.81 33.3902C126.93 32.6502 127.97 32.0102 129 31.3902C143.144 23.206 159.835 20.6023 175.8 24.0902C176.8 24.3102 177.8 24.5602 178.86 24.8302C180.04 25.1402 181.25 25.5102 182.65 25.9802C187.966 27.7514 193.034 30.1945 197.73 33.2502C202.477 24.9173 208.986 17.7207 216.801 12.1626C224.616 6.60461 233.551 2.81908 242.98 1.07024L243.31 1.01024C244.43 0.810236 245.5 0.650238 246.56 0.520238L247.27 0.430242C248.27 0.320242 249.2 0.230238 250.27 0.160238H250.33L251.09 0.110242C252.45 0.0302421 253.68 -0.00976065 254.86 -0.00976065C266.878 -0.014439 278.667 3.28214 288.94 9.52024C289.83 10.0602 290.73 10.6302 291.61 11.2202C295.538 13.8845 299.168 16.9621 302.44 20.4002C303.12 21.1202 303.8 21.8702 304.44 22.6202C305.65 24.0102 306.79 25.4202 307.81 26.8102C309.929 29.6992 311.808 32.7559 313.43 35.9502C323.528 30.0502 335.015 26.944 346.71 26.9502C354.208 26.9468 361.65 28.2357 368.71 30.7602L369.01 30.8702C370.09 31.2602 371.09 31.6602 372.08 32.0702L372.74 32.3502C373.64 32.7402 374.53 33.1502 375.47 33.6102L376.2 33.9602C377.42 34.5802 378.49 35.1602 379.52 35.7502C388.34 40.7986 395.858 47.8381 401.475 56.3074C407.091 64.7766 410.651 74.4412 411.87 84.5302C412.03 85.8202 412.15 87.0302 412.23 88.2202C412.412 90.8832 412.432 93.5548 412.29 96.2202H412.68C422.208 96.206 431.625 98.2679 440.275 102.262C448.926 106.257 456.602 112.088 462.77 119.35L463.04 119.66C463.72 120.48 464.4 121.32 465.04 122.17L465.47 122.74C466.06 123.53 466.62 124.33 467.2 125.2L467.62 125.82C468.36 126.96 469.01 128 469.62 129.03C473.958 136.496 476.772 144.747 477.9 153.307C479.027 161.867 478.446 170.566 476.19 178.9C475.92 179.9 475.62 180.9 475.3 181.9C473.51 187.497 470.978 192.827 467.77 197.75C476.105 202.494 483.303 209 488.863 216.814C494.423 224.628 498.21 233.561 499.96 242.99L500.02 243.36C500.22 244.45 500.38 245.52 500.51 246.58C500.51 246.58 500.58 247.09 500.6 247.3C500.71 248.25 500.8 249.23 500.87 250.3C500.87 250.61 500.87 250.86 500.93 251.11C501.01 252.47 501.04 253.69 501.04 254.88C501.005 265.24 498.532 275.446 493.82 284.673C489.109 293.899 482.292 301.887 473.92 307.99C471.118 310.03 468.155 311.839 465.06 313.4C469.906 321.679 472.888 330.915 473.796 340.464C474.705 350.014 473.518 359.647 470.32 368.69L470.2 369C469.81 370.06 469.42 371.07 469 372.06L468.72 372.74C468.34 373.6 467.94 374.49 467.47 375.44C467.47 375.44 467.23 375.95 467.12 376.16C466.5 377.39 465.92 378.47 465.33 379.5C460.738 387.431 454.542 394.316 447.138 399.716C439.734 405.115 431.284 408.911 422.33 410.86C421.33 411.08 420.25 411.28 419.23 411.45C416.112 411.97 412.96 412.271 409.8 412.35H408.38C407.21 412.35 406.02 412.35 404.83 412.25C404.886 421.839 402.85 431.325 398.862 440.045C394.873 448.766 389.03 456.511 381.74 462.74L381.43 463C380.62 463.68 379.77 464.35 378.92 465L378.33 465.45C377.58 466.01 376.78 466.57 375.9 467.16L375.2 467.64C374.08 468.38 373.03 469.02 372.01 469.64C362.034 475.4 350.72 478.439 339.2 478.45C335.548 478.447 331.902 478.143 328.3 477.54C327.3 477.37 326.24 477.17 325.21 476.95C319.536 475.705 314.049 473.722 308.89 471.05C308.05 470.61 307.21 470.15 306.37 469.67C305.37 469.07 304.29 468.44 303.28 467.78C298.544 476.113 292.046 483.312 284.241 488.875C276.436 494.438 267.512 498.231 258.09 499.99L257.71 500.06C256.64 500.25 255.57 500.41 254.51 500.54L253.78 500.64C252.85 500.74 251.87 500.83 250.78 500.91L249.98 500.96C248.63 500.99 247.4 501.05 246.21 501.05Z" fill="#231F20"/>
<path d="M279.66 163.29H230L204.09 65.7202C204.087 59.0567 205.398 52.458 207.947 46.3013C210.496 40.1446 214.234 34.5507 218.946 29.8393C223.659 25.1279 229.253 21.3915 235.41 18.8436C241.568 16.2957 248.166 14.9863 254.83 14.9902C261.49 14.9902 268.085 16.3022 274.238 18.8513C280.391 21.4003 285.982 25.1365 290.691 29.8464C295.4 34.5563 299.135 40.1477 301.683 46.3013C304.231 52.4549 305.541 59.0501 305.54 65.7102L279.66 163.29Z" fill="#F4F0EA"/>
<path d="M254.83 14.9902C250.815 14.9918 246.813 15.4685 242.91 16.4102C253.969 19.086 263.808 25.402 270.845 34.3433C277.882 43.2846 281.708 54.332 281.71 65.7102L255.83 163.28H279.66L305.54 65.7102C305.541 59.0501 304.231 52.4549 301.683 46.3013C299.135 40.1477 295.4 34.5563 290.691 29.8464C285.982 25.1365 280.391 21.4003 274.238 18.8513C268.085 16.3022 261.49 14.9902 254.83 14.9902Z" fill="#EFCC6B"/>
<path d="M254.83 14.9902C250.815 14.9918 246.813 15.4685 242.91 16.4102C253.969 19.086 263.808 25.402 270.845 34.3433C277.882 43.2846 281.708 54.332 281.71 65.7102L255.83 163.28H279.66L305.54 65.7102C305.541 59.0501 304.231 52.4549 301.683 46.3013C299.135 40.1477 295.4 34.5563 290.691 29.8464C285.982 25.1365 280.391 21.4003 274.238 18.8513C268.085 16.3022 261.49 14.9902 254.83 14.9902Z" fill="#E5E3E5"/>
<g style="mix-blend-mode:multiply" opacity="0.58">
<path d="M302.09 78.8805L301.79 77.7305C301.79 77.7305 284.42 135.36 222.63 135.36L230.04 163.29H279.7L302.09 78.8805Z" fill="#B6BCCC"/>
</g>
<path d="M232.14 160.411L189.14 185.241L117.94 113.681C114.609 107.914 112.447 101.546 111.577 94.9432C110.707 88.34 111.146 81.63 112.869 75.1966C114.593 68.7631 117.567 62.7322 121.621 57.4483C125.676 52.1643 130.732 47.7309 136.5 44.4011C148.15 37.6825 161.991 35.8666 174.98 39.3528C187.969 42.8391 199.04 51.3419 205.76 62.9911L232.14 160.411Z" fill="#F4F0EA"/>
<path d="M136.49 44.3994C133.015 46.409 129.789 48.8225 126.88 51.5894C137.789 48.3871 149.458 48.9422 160.014 53.1656C170.569 57.389 179.401 65.036 185.09 74.8794L211.46 172.329L232.1 160.409L205.76 62.9894C202.433 57.22 198.002 52.1625 192.72 48.1058C187.437 44.0491 181.408 41.0726 174.976 39.3463C168.543 37.6201 161.834 37.1778 155.23 38.0448C148.627 38.9118 142.259 41.0711 136.49 44.3994Z" fill="#EFCC6B"/>
<path d="M136.49 44.3994C133.015 46.409 129.789 48.8225 126.88 51.5894C137.789 48.3871 149.458 48.9422 160.014 53.1656C170.569 57.389 179.401 65.036 185.09 74.8794L211.46 172.329L232.1 160.409L205.76 62.9894C202.433 57.22 198.002 52.1625 192.72 48.1058C187.437 44.0491 181.408 41.0726 174.976 39.3463C168.543 37.6201 161.834 37.1778 155.23 38.0448C148.627 38.9118 142.259 41.0711 136.49 44.3994Z" fill="#E5E3E5"/>
<g style="mix-blend-mode:multiply" opacity="0.58">
<path d="M209.32 76.1095L208.48 75.2695C208.48 75.2695 222.26 133.86 168.74 164.75L189.09 185.24L232.09 160.41L209.32 76.1095Z" fill="#B6BCCC"/>
</g>
<path d="M189.54 181.67L164.71 224.67L67.27 198.3C61.4978 194.971 56.4385 190.536 52.3813 185.25C48.3241 179.963 45.3486 173.929 43.6249 167.492C41.9012 161.055 41.4631 154.342 42.3356 147.735C43.2081 141.129 45.3742 134.759 48.71 128.99C55.4347 117.344 66.5106 108.845 79.5012 105.365C92.4917 101.884 106.333 103.706 117.98 110.43L189.54 181.67Z" fill="#F4F0EA"/>
<path d="M48.71 128.989C46.7018 132.455 45.114 136.148 43.98 139.989C51.8252 131.752 62.2117 126.391 73.4707 124.768C84.7297 123.145 96.2075 125.354 106.06 131.039L177.63 202.239L189.54 181.599L117.98 110.399C112.211 107.071 105.843 104.912 99.2398 104.045C92.6364 103.178 85.9269 103.62 79.4944 105.346C73.0619 107.073 67.0325 110.049 61.7505 114.106C56.4684 118.163 52.0373 123.22 48.71 128.989Z" fill="#EFCC6B"/>
<path d="M48.71 128.989C46.7018 132.455 45.114 136.148 43.98 139.989C51.8252 131.752 62.2117 126.391 73.4707 124.768C84.7297 123.145 96.2075 125.354 106.06 131.039L177.63 202.239L189.54 181.599L117.98 110.399C112.211 107.071 105.843 104.912 99.2398 104.045C92.6364 103.178 85.9269 103.62 79.4944 105.346C73.0619 107.073 67.0325 110.049 61.7505 114.106C56.4684 118.163 52.0373 123.22 48.71 128.989Z" fill="#E5E3E5"/>
<g style="mix-blend-mode:multiply" opacity="0.58">
<path d="M127.63 120.08L126.49 119.77C126.49 119.77 167.71 163.62 136.81 217.13L164.71 224.68L189.54 181.68L127.63 120.08Z" fill="#B6BCCC"/>
</g>
<path d="M163.29 221.39V271.05L65.71 296.93C52.2609 296.93 39.3626 291.587 29.8526 282.077C20.3427 272.567 15 259.669 15 246.22C15 232.771 20.3427 219.872 29.8526 210.362C39.3626 200.852 52.2609 195.51 65.71 195.51L163.29 221.39Z" fill="#F4F0EA"/>
<path d="M15 246.22C15.0016 250.232 15.4783 254.23 16.42 258.13C19.0957 247.073 25.4106 237.237 34.35 230.202C43.2894 223.167 54.3343 219.341 65.71 219.34L163.29 245.22V221.39L65.71 195.51C52.2609 195.51 39.3626 200.852 29.8526 210.362C20.3427 219.872 15 232.771 15 246.22Z" fill="#EFCC6B"/>
<path d="M15 246.22C15.0016 250.232 15.4783 254.23 16.42 258.13C19.0957 247.073 25.4106 237.237 34.35 230.202C43.2894 223.167 54.3343 219.341 65.71 219.34L163.29 245.22V221.39L65.71 195.51C52.2609 195.51 39.3626 200.852 29.8526 210.362C20.3427 219.872 15 232.771 15 246.22Z" fill="#E5E3E5"/>
<g style="mix-blend-mode:multiply" opacity="0.58">
<path d="M78.87 198.99L77.72 199.29C77.72 199.29 135.35 216.66 135.35 278.45L163.29 271.04V221.39L78.87 198.99Z" fill="#B6BCCC"/>
</g>
<path d="M160.41 268.91L185.24 311.91L113.67 383.11C102.022 389.832 88.1821 391.652 75.1923 388.172C62.2025 384.692 51.1267 376.195 44.4 364.55C37.6753 352.902 35.8527 339.059 39.3333 326.067C42.8139 313.074 51.3125 301.997 62.96 295.27L160.41 268.91Z" fill="#F4F0EA"/>
<path d="M44.4 364.56C46.4087 368.036 48.8222 371.262 51.59 374.17C48.3759 363.256 48.925 351.577 53.1491 341.013C57.3733 330.448 65.0269 321.61 74.88 315.92L172.32 289.55L160.41 268.91L62.96 295.28C57.1918 298.61 52.136 303.043 48.0814 308.327C44.0268 313.611 41.0528 319.642 39.3293 326.076C37.6058 332.509 37.1665 339.219 38.0365 345.822C38.9066 352.426 41.0689 358.793 44.4 364.56Z" fill="#EFCC6B"/>
<path d="M44.4 364.56C46.4087 368.036 48.8222 371.262 51.59 374.17C48.3759 363.256 48.925 351.577 53.1491 341.013C57.3733 330.448 65.0269 321.61 74.88 315.92L172.32 289.55L160.41 268.91L62.96 295.28C57.1918 298.61 52.136 303.043 48.0814 308.327C44.0268 313.611 41.0528 319.642 39.3293 326.076C37.6058 332.509 37.1665 339.219 38.0365 345.822C38.9066 352.426 41.0689 358.793 44.4 364.56Z" fill="#E5E3E5"/>
<g style="mix-blend-mode:multiply" opacity="0.58">
<path d="M76.09 291.73L75.25 292.56C75.25 292.56 133.84 278.79 164.74 332.3L185.23 311.92L160.4 268.92L76.09 291.73Z" fill="#B6BCCC"/>
</g>
<path d="M181.67 311.5L224.67 336.33L198.29 433.78C191.563 445.425 180.488 453.921 167.498 457.402C154.508 460.882 140.668 459.062 129.02 452.34C123.252 449.011 118.197 444.579 114.142 439.296C110.088 434.013 107.114 427.982 105.39 421.55C103.667 415.117 103.227 408.408 104.097 401.806C104.967 395.203 107.129 388.837 110.46 383.07L181.67 311.5Z" fill="#F4F0EA"/>
<path d="M129.03 452.34C132.499 454.342 136.191 455.929 140.03 457.07C131.782 449.23 126.41 438.845 124.778 427.583C123.146 416.322 125.348 404.839 131.03 394.98L202.23 323.42L181.59 311.5L110.39 383.07C107.062 388.841 104.905 395.212 104.041 401.818C103.177 408.424 103.623 415.135 105.354 421.568C107.085 428.001 110.067 434.03 114.13 439.31C118.192 444.59 123.255 449.018 129.03 452.34Z" fill="#EFCC6B"/>
<path d="M129.03 452.34C132.499 454.342 136.191 455.929 140.03 457.07C131.782 449.23 126.41 438.845 124.778 427.583C123.146 416.322 125.348 404.839 131.03 394.98L202.23 323.42L181.59 311.5L110.39 383.07C107.062 388.841 104.905 395.212 104.041 401.818C103.177 408.424 103.623 415.135 105.354 421.568C107.085 428.001 110.067 434.03 114.13 439.31C118.192 444.59 123.255 449.018 129.03 452.34Z" fill="#E5E3E5"/>
<g style="mix-blend-mode:multiply" opacity="0.58">
<path d="M120.09 373.41L119.78 374.56C119.78 374.56 163.63 333.34 217.15 364.23L224.7 336.33L181.7 311.5L120.09 373.41Z" fill="#B6BCCC"/>
</g>
<path d="M221.38 337.76H271.09L296.97 435.34C296.967 448.79 291.622 461.688 282.111 471.198C272.599 480.707 259.7 486.05 246.25 486.05C232.802 486.047 219.905 480.704 210.396 471.194C200.886 461.685 195.543 448.788 195.54 435.34L221.38 337.76Z" fill="#F4F0EA"/>
<path d="M246.21 486.05C250.225 486.049 254.227 485.572 258.13 484.63C247.072 481.956 237.233 475.642 230.196 466.702C223.159 457.763 219.332 446.717 219.33 435.34L245.21 337.76H221.38L195.5 435.34C195.503 448.788 200.846 461.685 210.355 471.194C219.865 480.704 232.762 486.047 246.21 486.05Z" fill="#EFCC6B"/>
<path d="M246.21 486.05C250.225 486.049 254.227 485.572 258.13 484.63C247.072 481.956 237.233 475.642 230.196 466.702C223.159 457.763 219.332 446.717 219.33 435.34L245.21 337.76H221.38L195.5 435.34C195.503 448.788 200.846 461.685 210.355 471.194C219.865 480.704 232.762 486.047 246.21 486.05Z" fill="#E5E3E5"/>
<g style="mix-blend-mode:multiply" opacity="0.58">
<path d="M198.99 422.18L199.3 423.32C199.3 423.32 216.66 365.7 278.45 365.7L271.05 337.76H221.38L198.99 422.18Z" fill="#B6BCCC"/>
</g>
<path d="M268.9 340.641L311.9 315.811L383.1 387.371C386.431 393.138 388.593 399.505 389.463 406.108C390.333 412.712 389.894 419.422 388.171 425.855C386.447 432.289 383.473 438.319 379.419 443.603C375.364 448.887 370.308 453.321 364.54 456.651C352.892 463.372 339.052 465.193 326.062 461.712C313.073 458.232 301.997 449.735 295.27 438.091L268.9 340.641Z" fill="#F4F0EA"/>
<path d="M364.55 456.65C368.028 454.644 371.254 452.231 374.16 449.46C363.247 452.67 351.571 452.119 341.009 447.895C330.447 443.671 321.611 436.02 315.92 426.17L289.54 328.73L268.9 340.64L295.28 438.09C302.007 449.735 313.083 458.232 326.072 461.712C339.062 465.193 352.902 463.372 364.55 456.65Z" fill="#EFCC6B"/>
<path d="M364.55 456.65C368.028 454.644 371.254 452.231 374.16 449.46C363.247 452.67 351.571 452.119 341.009 447.895C330.447 443.671 321.611 436.02 315.92 426.17L289.54 328.73L268.9 340.64L295.28 438.09C302.007 449.735 313.083 458.232 326.072 461.712C339.062 465.193 352.902 463.372 364.55 456.65Z" fill="#E5E3E5"/>
<g style="mix-blend-mode:multiply" opacity="0.58">
<path d="M291.72 424.989L292.56 425.839C292.56 425.839 278.78 367.239 332.3 336.349L311.91 315.859L268.91 340.689L291.72 424.989Z" fill="#B6BCCC"/>
</g>
<path d="M311.5 319.381L336.33 276.381L433.77 302.751C445.408 309.476 453.901 320.545 457.383 333.528C460.865 346.511 459.051 360.345 452.34 371.991C445.617 383.633 434.547 392.131 421.562 395.616C408.577 399.102 394.74 397.291 383.09 390.581L311.5 319.381Z" fill="#F4F0EA"/>
<path d="M452.34 371.99C454.341 368.522 455.925 364.83 457.06 360.99C449.215 369.228 438.828 374.589 427.569 376.212C416.31 377.835 404.832 375.626 394.98 369.94L323.41 298.74L311.5 319.38L383.06 390.58C394.713 397.3 408.557 399.116 421.549 395.63C434.541 392.144 445.616 383.641 452.34 371.99Z" fill="#EFCC6B"/>
<path d="M452.34 371.99C454.341 368.522 455.925 364.83 457.06 360.99C449.215 369.228 438.828 374.589 427.569 376.212C416.31 377.835 404.832 375.626 394.98 369.94L323.41 298.74L311.5 319.38L383.06 390.58C394.713 397.3 408.557 399.116 421.549 395.63C434.541 392.144 445.616 383.641 452.34 371.99Z" fill="#E5E3E5"/>
<g style="mix-blend-mode:multiply" opacity="0.58">
<path d="M373.41 380.991L374.56 381.301C374.56 381.301 333.33 337.441 364.23 283.931L336.33 276.381L311.5 319.381L373.41 380.991Z" fill="#B6BCCC"/>
</g>
<path d="M337.75 279.659V229.989L435.33 204.109C441.994 204.103 448.595 205.41 454.754 207.956C460.912 210.502 466.509 214.237 471.223 218.948C475.938 223.658 479.677 229.252 482.228 235.409C484.779 241.566 486.091 248.165 486.09 254.829C486.091 261.49 484.781 268.085 482.233 274.238C479.685 280.392 475.95 285.983 471.241 290.693C466.532 295.403 460.941 299.139 454.788 301.688C448.635 304.237 442.04 305.549 435.38 305.549L337.75 279.659Z" fill="#F4F0EA"/>
<path d="M486.09 254.83C486.088 250.818 485.612 246.82 484.67 242.92C481.994 253.976 475.679 263.812 466.74 270.848C457.801 277.883 446.756 281.708 435.38 281.71L337.8 255.83V279.66L435.38 305.55C442.04 305.55 448.635 304.238 454.788 301.689C460.941 299.14 466.532 295.404 471.241 290.694C475.95 285.984 479.685 280.392 482.233 274.239C484.781 268.085 486.091 261.49 486.09 254.83Z" fill="#EFCC6B"/>
<path d="M486.09 254.83C486.088 250.818 485.612 246.82 484.67 242.92C481.994 253.976 475.679 263.812 466.74 270.848C457.801 277.883 446.756 281.708 435.38 281.71L337.8 255.83V279.66L435.38 305.55C442.04 305.55 448.635 304.238 454.788 301.689C460.941 299.14 466.532 295.404 471.241 290.694C475.95 285.984 479.685 280.392 482.233 274.239C484.781 268.085 486.091 261.49 486.09 254.83Z" fill="#E5E3E5"/>
<g style="mix-blend-mode:multiply" opacity="0.58">
<path d="M422.17 302.05L423.32 301.75C423.32 301.75 365.69 284.38 365.69 222.59L337.75 229.99V279.65L422.17 302.05Z" fill="#B6BCCC"/>
</g>
<path d="M340.64 232.14L315.8 189.14L387.37 117.941C399.018 111.219 412.858 109.398 425.848 112.879C438.837 116.359 449.913 124.856 456.64 136.5C463.365 148.146 465.189 161.987 461.71 174.977C458.231 187.967 449.735 199.044 438.09 205.771L340.64 232.14Z" fill="#F4F0EA"/>
<path d="M456.64 136.491C454.631 133.018 452.218 129.795 449.45 126.891C452.664 137.803 452.116 149.478 447.894 160.041C443.672 170.604 436.02 179.441 426.17 185.131L328.72 211.511L340.64 232.141L438.09 205.771C443.857 202.44 448.912 198.006 452.966 192.722C457.019 187.437 459.992 181.406 461.715 174.973C463.438 168.539 463.876 161.83 463.005 155.227C462.134 148.624 459.972 142.257 456.64 136.491Z" fill="#EFCC6B"/>
<path d="M456.64 136.491C454.631 133.018 452.218 129.795 449.45 126.891C452.664 137.803 452.116 149.478 447.894 160.041C443.672 170.604 436.02 179.441 426.17 185.131L328.72 211.511L340.64 232.141L438.09 205.771C443.857 202.44 448.912 198.006 452.966 192.722C457.019 187.437 459.992 181.406 461.715 174.973C463.438 168.539 463.876 161.83 463.005 155.227C462.134 148.624 459.972 142.257 456.64 136.491Z" fill="#E5E3E5"/>
<g style="mix-blend-mode:multiply" opacity="0.58">
<path d="M424.94 209.33L425.78 208.49C425.78 208.49 367.19 222.26 336.29 168.75L315.8 189.13L340.64 232.13L424.94 209.33Z" fill="#B6BCCC"/>
</g>
<path d="M319.37 189.55L276.37 164.72L302.75 67.27C309.477 55.6253 320.552 47.1286 333.542 43.6481C346.532 40.1677 360.372 41.9884 372.02 48.71C377.788 52.0397 382.844 56.4733 386.898 61.7575C390.953 67.0417 393.926 73.073 395.649 79.5067C397.372 85.9404 397.81 92.6506 396.938 99.2537C396.067 105.857 393.903 112.224 390.57 117.99L319.37 189.55Z" fill="#F4F0EA"/>
<path d="M372.01 48.7105C368.541 46.7088 364.849 45.1212 361.01 43.9805C369.258 51.8201 374.63 62.2055 376.262 73.467C377.894 84.7284 375.692 96.2117 370.01 106.07L298.8 177.63L319.44 189.55L390.64 117.98C393.968 112.21 396.126 105.839 396.991 99.2341C397.856 92.6288 397.41 85.9178 395.68 79.4847C393.95 73.0516 390.969 67.0226 386.907 61.7421C382.846 56.4617 377.784 52.0335 372.01 48.7105Z" fill="#EFCC6B"/>
<path d="M372.01 48.7105C368.541 46.7088 364.849 45.1212 361.01 43.9805C369.258 51.8201 374.63 62.2055 376.262 73.467C377.894 84.7284 375.692 96.2117 370.01 106.07L298.8 177.63L319.44 189.55L390.64 117.98C393.968 112.21 396.126 105.839 396.991 99.2341C397.856 92.6288 397.41 85.9178 395.68 79.4847C393.95 73.0516 390.969 67.0226 386.907 61.7421C382.846 56.4617 377.784 52.0335 372.01 48.7105Z" fill="#E5E3E5"/>
<g style="mix-blend-mode:multiply" opacity="0.58">
<path d="M380.97 127.64L381.28 126.49C381.28 126.49 337.43 167.71 283.91 136.82L276.36 164.72L319.36 189.55L380.97 127.64Z" fill="#B6BCCC"/>
</g>
<path d="M250.52 350.12C305.528 350.12 350.12 305.527 350.12 250.52C350.12 195.512 305.528 150.92 250.52 150.92C195.512 150.92 150.92 195.512 150.92 250.52C150.92 305.527 195.512 350.12 250.52 350.12Z" fill="#F9C11F"/>
<path d="M308.75 169.711C322.543 188.901 329.064 212.37 327.147 235.925C325.231 259.48 315.002 281.587 298.288 298.295C281.574 315.003 259.464 325.224 235.908 327.132C212.352 329.04 188.885 322.511 169.7 308.711C178.128 320.437 189.004 330.19 201.576 337.294C214.148 344.399 228.114 348.685 242.506 349.857C256.899 351.028 271.374 349.055 284.929 344.077C298.484 339.098 310.794 331.231 321.007 321.022C331.22 310.813 339.09 298.506 344.074 284.953C349.058 271.4 351.035 256.925 349.869 242.532C348.704 228.139 344.422 214.171 337.322 201.597C330.222 189.023 320.473 178.143 308.75 169.711Z" fill="#DE8626"/>
<g style="mix-blend-mode:multiply">
<path d="M152.99 268.911L152.69 269.291C157.7 295.108 172.716 317.896 194.461 332.686C216.207 347.476 242.919 353.067 268.771 348.24C294.623 343.413 317.517 328.559 332.461 306.918C347.404 285.278 353.184 258.606 348.54 232.721C256.17 337.501 152.99 268.911 152.99 268.911Z" fill="#EF8B21"/>
</g>
<path d="M252.36 250.811C257.336 250.811 261.37 246.777 261.37 241.801C261.37 236.825 257.336 232.791 252.36 232.791C247.384 232.791 243.35 236.825 243.35 241.801C243.35 246.777 247.384 250.811 252.36 250.811Z" fill="#DE8626"/>
<path d="M210.32 198.561C215.296 198.561 219.33 194.527 219.33 189.551C219.33 184.575 215.296 180.541 210.32 180.541C205.344 180.541 201.31 184.575 201.31 189.551C201.31 194.527 205.344 198.561 210.32 198.561Z" fill="#DE8626"/>
<path d="M271.94 193.77C276.916 193.77 280.95 189.736 280.95 184.76C280.95 179.784 276.916 175.75 271.94 175.75C266.964 175.75 262.93 179.784 262.93 184.76C262.93 189.736 266.964 193.77 271.94 193.77Z" fill="#DE8626"/>
<path d="M264.25 294.8C268.497 294.8 271.94 291.357 271.94 287.11C271.94 282.863 268.497 279.42 264.25 279.42C260.003 279.42 256.56 282.863 256.56 287.11C256.56 291.357 260.003 294.8 264.25 294.8Z" fill="#DE8626"/>
<path d="M271.94 270.06C276.187 270.06 279.63 266.617 279.63 262.37C279.63 258.123 276.187 254.68 271.94 254.68C267.693 254.68 264.25 258.123 264.25 262.37C264.25 266.617 267.693 270.06 271.94 270.06Z" fill="#DE8626"/>
<path d="M311.5 288.05C315.747 288.05 319.19 284.607 319.19 280.36C319.19 276.113 315.747 272.67 311.5 272.67C307.253 272.67 303.81 276.113 303.81 280.36C303.81 284.607 307.253 288.05 311.5 288.05Z" fill="#DE8626"/>
<path d="M248.39 218.091C251.742 218.091 254.46 215.374 254.46 212.021C254.46 208.669 251.742 205.951 248.39 205.951C245.038 205.951 242.32 208.669 242.32 212.021C242.32 215.374 245.038 218.091 248.39 218.091Z" fill="#DE8626"/>
<path d="M309.92 258.531C313.272 258.531 315.99 255.813 315.99 252.461C315.99 249.108 313.272 246.391 309.92 246.391C306.568 246.391 303.85 249.108 303.85 252.461C303.85 255.813 306.568 258.531 309.92 258.531Z" fill="#DE8626"/>
<path d="M295.33 214.111C298.682 214.111 301.4 211.393 301.4 208.041C301.4 204.688 298.682 201.971 295.33 201.971C291.978 201.971 289.26 204.688 289.26 208.041C289.26 211.393 291.978 214.111 295.33 214.111Z" fill="#DE8626"/>
<path d="M198.99 228.98C202.342 228.98 205.06 226.262 205.06 222.91C205.06 219.557 202.342 216.84 198.99 216.84C195.638 216.84 192.92 219.557 192.92 222.91C192.92 226.262 195.638 228.98 198.99 228.98Z" fill="#DE8626"/>
<path d="M298.74 186.601C302.092 186.601 304.81 183.883 304.81 180.531C304.81 177.179 302.092 174.461 298.74 174.461C295.388 174.461 292.67 177.179 292.67 180.531C292.67 183.883 295.388 186.601 298.74 186.601Z" fill="#DE8626"/>
<path d="M242.32 178.56C245.672 178.56 248.39 175.842 248.39 172.49C248.39 169.138 245.672 166.42 242.32 166.42C238.968 166.42 236.25 169.138 236.25 172.49C236.25 175.842 238.968 178.56 242.32 178.56Z" fill="#DE8626"/>
<path d="M231.02 248.851C234.372 248.851 237.09 246.133 237.09 242.781C237.09 239.429 234.372 236.711 231.02 236.711C227.668 236.711 224.95 239.429 224.95 242.781C224.95 246.133 227.668 248.851 231.02 248.851Z" fill="#DE8626"/>
<path d="M198.99 287.511C202.342 287.511 205.06 284.793 205.06 281.441C205.06 278.089 202.342 275.371 198.99 275.371C195.638 275.371 192.92 278.089 192.92 281.441C192.92 284.793 195.638 287.511 198.99 287.511Z" fill="#DE8626"/>
<path d="M172.32 262.05C175.672 262.05 178.39 259.333 178.39 255.98C178.39 252.628 175.672 249.91 172.32 249.91C168.968 249.91 166.25 252.628 166.25 255.98C166.25 259.333 168.968 262.05 172.32 262.05Z" fill="#DE8626"/>
<path d="M205.07 258.071C209.08 258.071 212.33 254.82 212.33 250.811C212.33 246.801 209.08 243.551 205.07 243.551C201.06 243.551 197.81 246.801 197.81 250.811C197.81 254.82 201.06 258.071 205.07 258.071Z" fill="#DE8626"/>
<path d="M232.7 279.961C236.98 279.961 240.45 276.491 240.45 272.211C240.45 267.931 236.98 264.461 232.7 264.461C228.42 264.461 224.95 267.931 224.95 272.211C224.95 276.491 228.42 279.961 232.7 279.961Z" fill="#DE8626"/>
<path d="M276.37 221.569C280.087 221.569 283.1 218.556 283.1 214.839C283.1 211.122 280.087 208.109 276.37 208.109C272.653 208.109 269.64 211.122 269.64 214.839C269.64 218.556 272.653 221.569 276.37 221.569Z" fill="#DE8626"/>
<path d="M238.73 312.271C242.447 312.271 245.46 309.257 245.46 305.541C245.46 301.824 242.447 298.811 238.73 298.811C235.013 298.811 232 301.824 232 305.541C232 309.257 235.013 312.271 238.73 312.271Z" fill="#DE8626"/>
<path d="M311.5 224.819C315.217 224.819 318.23 221.806 318.23 218.089C318.23 214.372 315.217 211.359 311.5 211.359C307.783 211.359 304.77 214.372 304.77 218.089C304.77 221.806 307.783 224.819 311.5 224.819Z" fill="#DE8626"/>
<path d="M224.85 228.991C229.185 228.991 232.7 225.476 232.7 221.141C232.7 216.806 229.185 213.291 224.85 213.291C220.515 213.291 217 216.806 217 221.141C217 225.476 220.515 228.991 224.85 228.991Z" fill="#DE8626"/>
<path d="M178.4 222.69C182.735 222.69 186.25 219.176 186.25 214.84C186.25 210.505 182.735 206.99 178.4 206.99C174.065 206.99 170.55 210.505 170.55 214.84C170.55 219.176 174.065 222.69 178.4 222.69Z" fill="#DE8626"/>
<path d="M296.93 242.901C301.265 242.901 304.78 239.387 304.78 235.051C304.78 230.716 301.265 227.201 296.93 227.201C292.595 227.201 289.08 230.716 289.08 235.051C289.08 239.387 292.595 242.901 296.93 242.901Z" fill="#DE8626"/>
<path d="M381.519 108.05C385.7 97.8316 384.265 87.5749 378.315 85.1407C372.365 82.7065 364.153 89.0167 359.973 99.2348C355.792 109.453 357.227 119.71 363.177 122.144C369.127 124.578 377.339 118.268 381.519 108.05Z" fill="#F6FAFE"/>
<path d="M453.338 275.904C454.431 269.539 447.498 263.038 437.853 261.381C428.209 259.725 419.504 263.542 418.411 269.906C417.318 276.27 424.251 282.772 433.896 284.428C443.541 286.085 452.245 282.268 453.338 275.904Z" fill="#F6FAFE"/>
<path d="M374.16 77.7196C378.749 77.7196 382.47 73.9991 382.47 69.4096C382.47 64.8201 378.749 61.0996 374.16 61.0996C369.571 61.0996 365.85 64.8201 365.85 69.4096C365.85 73.9991 369.571 77.7196 374.16 77.7196Z" fill="#F6FAFE"/>
<path d="M443.14 172.479C447.73 172.479 451.45 168.759 451.45 164.169C451.45 159.58 447.73 155.859 443.14 155.859C438.551 155.859 434.83 159.58 434.83 164.169C434.83 168.759 438.551 172.479 443.14 172.479Z" fill="#F6FAFE"/>
<path d="M467.45 277.21C472.039 277.21 475.76 273.489 475.76 268.9C475.76 264.31 472.039 260.59 467.45 260.59C462.861 260.59 459.14 264.31 459.14 268.9C459.14 273.489 462.861 277.21 467.45 277.21Z" fill="#F6FAFE"/>
<path d="M429.24 195.391C436.985 191.76 441.128 184.259 438.493 178.639C435.858 173.018 427.442 171.406 419.697 175.038C411.951 178.669 407.808 186.17 410.443 191.79C413.078 197.411 421.494 199.023 429.24 195.391Z" fill="#F6FAFE"/>
</g>
<defs>
<clipPath id="clip0_4970_726">
<rect width="501.05" height="501.05" fill="white"/>
</clipPath>
</defs>
</svg>
