<svg width="384" height="581" viewBox="0 0 384 581" fill="none" xmlns="http://www.w3.org/2000/svg">
<g clip-path="url(#clip0_3770_751)">
<path d="M54.4902 269.85C66.1302 235.72 129.6 182.25 204.4 182.58C264.63 182.84 320.15 217.9 348.64 273.14L54.4902 269.85Z" fill="#603914"/>
<path d="M3.74073 248.35C36.6007 176.86 158.881 177.58 195.101 177.78C242.641 178.04 340.031 178.57 373.571 241.57C388.191 269 380.171 313.4 364.121 402.12C351.611 471.31 344.891 506.43 323.361 529.85C286.021 570.43 232.071 572.27 195.851 573.52C158.691 574.83 96.1507 576.94 56.6408 533.52C46.6408 522.67 38.6407 509.31 17.8007 392.7C-4.21928 269.33 -0.049274 256.63 3.74073 248.35Z" fill="#F9B03D"/>
<path d="M3.18011 248.02C9.00822 235.613 17.5524 224.677 28.1801 216.02C38.4501 207.21 50.3901 200.83 62.5301 195.3C87.0401 184.65 113.25 179.06 139.44 175.7C165.63 172.34 192.22 171.89 218.54 172.35C231.812 172.501 245.065 173.379 258.24 174.98C271.562 176.435 284.739 179.008 297.63 182.67C310.761 186.214 323.374 191.455 335.15 198.26C346.98 205.17 358.24 213.78 366.71 225.16C368.984 227.879 370.993 230.809 372.71 233.91C374.51 237 376.51 239.83 377.81 243.31C380.568 249.986 382.311 257.038 382.98 264.23C384.41 278.44 383.22 292.44 381.73 306.23C378.43 333.85 373.52 361.08 368.92 388.37C363.92 415.6 360.2 443.03 354.17 470.19C351.17 483.81 347.5 497.42 341.54 510.44C338.523 516.945 334.836 523.118 330.54 528.86C328.344 531.673 325.972 534.345 323.44 536.86C321.048 539.432 318.493 541.847 315.79 544.09C294.57 562.57 267.79 572.31 241.3 576.25C228.108 578.192 214.817 579.387 201.49 579.83C188.35 580.42 175.16 581.01 161.79 580.69C135.15 580.03 107.59 575.62 82.7901 562.27C70.272 555.4 59.0936 546.332 49.7901 535.5C44.7901 529.5 41.5701 522.28 39.0801 515.57C36.6669 508.872 34.6303 502.045 32.9801 495.12C26.1401 467.89 21.7201 440.53 17.4301 413.17C13.1401 385.81 9.21009 358.38 5.85009 330.83C4.23009 317.08 2.42012 303.33 1.31012 289.45C0.560117 282.55 0.000111729 275.64 -0.0698883 268.67C-0.139888 261.7 0.0701118 254.46 3.18011 248.02ZM4.30011 248.61C1.43011 254.73 1.43012 261.83 1.50012 268.61C1.57012 275.39 2.19011 282.35 2.99011 289.26C4.68011 302.94 6.60009 316.68 9.09009 330.26C13.9501 357.43 19.4901 384.52 25.3401 411.55C31.1901 438.58 37.1501 465.49 44.3401 491.73C46.2001 498.24 48.2001 504.73 50.5601 510.73C52.9201 516.73 55.5601 522.37 59.2701 526.73C67.6138 536.104 77.5588 543.919 88.6401 549.81C110.8 561.81 136.44 565.93 161.95 566.98C174.77 567.57 187.78 567.18 200.85 566.78C213.774 566.559 226.675 565.6 239.49 563.91C264.75 560.43 289.58 552.21 309.49 535.83C312.024 533.853 314.414 531.698 316.64 529.38C319.001 527.203 321.206 524.864 323.24 522.38C327.353 517.396 330.898 511.969 333.81 506.2C339.81 494.5 343.9 481.48 347.38 468.26C354.11 441.75 359.38 414.52 364.44 387.36C369.5 360.2 374.76 333.03 377.57 305.6C378.81 291.92 379.57 278.11 377.76 264.76C376.888 258.22 375.016 251.852 372.21 245.88C370.96 242.88 368.92 240.29 367.21 237.53C365.542 234.724 363.581 232.103 361.36 229.71C353.15 219.58 342.36 212.08 331.06 206.16C325.46 203 319.42 200.83 313.51 198.4C307.34 196.49 301.31 194.4 295.03 193.01C270.03 186.69 244.19 184.65 218.24 183.67C192.16 183.01 166.08 182.02 140.13 183.67C114.18 185.32 88.2301 189.26 63.6501 198.27C51.2448 202.752 39.6149 209.142 29.1801 217.21C18.699 225.74 10.2078 236.456 4.30011 248.61Z" fill="black"/>
<path d="M5.02923 242.56C5.77923 203.89 116.369 168.7 208.409 171.4C281.459 173.5 378.349 200.53 380.159 236.77C381.969 273.01 288.489 315.3 205.659 319.58C110.639 324.38 4.28923 280.7 5.02923 242.56Z" fill="#F9B03D"/>
<path d="M3.12098 242.5C3.29818 237.729 4.80477 233.101 7.47095 229.14C9.96646 225.27 12.9964 221.772 16.471 218.75C23.131 212.5 30.841 207.75 38.561 203.16C54.181 194.22 70.861 187.64 87.781 181.99C121.709 170.881 157.222 165.378 192.921 165.7C228.641 166.3 263.611 173.07 297.781 182.34C314.831 187.08 331.781 192.67 347.881 200.56C355.881 204.56 363.741 209.24 370.771 215.62C374.436 218.926 377.436 222.9 379.611 227.33C381.94 232.2 382.662 237.684 381.671 242.99C379.481 253.64 372.881 261.4 366.291 267.99C359.562 274.391 352.155 280.037 344.201 284.83C328.732 294.203 312.305 301.897 295.201 307.78C261.351 319.62 225.821 326.86 189.851 326.78C154.011 326.45 118.351 320.26 84.851 307.5C68.101 301.19 51.741 293.69 36.561 283.83C29.091 278.83 21.621 273.57 15.331 266.93C12.0864 263.655 9.26449 259.986 6.93097 256.01C4.3859 251.968 3.06285 247.277 3.12098 242.5ZM4.37098 242.56C4.43098 251.7 10.281 259.56 16.561 265.65C23.0561 271.652 30.3399 276.739 38.2109 280.77C53.7809 288.99 70.3309 294.85 87.2109 299.32C120.941 307.94 155.421 313.07 189.831 312.8C224.399 312.433 258.709 306.802 291.581 296.1C308.001 290.64 324.241 284.26 339.431 275.84C346.962 271.663 354.103 266.82 360.771 261.37C367.181 255.85 373.091 249.2 375.091 241.57C377.091 233.94 373.161 225.99 367.181 219.87C361.201 213.75 353.811 208.75 346.081 204.68C330.591 196.46 313.791 190.86 296.861 186.59C279.872 182.418 262.583 179.583 245.151 178.11C227.839 176.469 210.436 176.004 193.061 176.72C158.346 178.101 123.822 182.548 89.891 190.01C72.891 193.89 56.031 198.89 40.111 206.26C32.0295 209.849 24.471 214.514 17.641 220.13C10.961 225.79 4.74098 233.35 4.37098 242.56Z" fill="black"/>
<path d="M44.6904 240.98C45.2504 213.49 129.63 188.43 199.83 190.34C255.58 191.85 329.45 211.06 330.83 236.84C332.21 262.62 260.94 292.68 197.72 295.77C125.27 299.25 44.1304 268.14 44.6904 240.98Z" fill="black" stroke="black" stroke-width="2.85" stroke-miterlimit="10"/>
<path d="M345.489 20.78C349.039 104.9 325.839 144.78 307.099 164.95C302.189 170.28 297.829 173.95 253.829 209.67L188.619 262.67C188.779 242.677 190.862 222.745 194.839 203.15C201.179 172.15 206.909 143.15 227.019 118.57C244.019 97.7201 255.509 99.43 288.559 75.03C309.679 59.3377 328.797 41.1189 345.489 20.78Z" fill="#F9B03D"/>
<path d="M345.491 20.7C347.241 47.01 346.181 73.18 340.701 98.84C335.231 124.29 324.52 149.35 306.22 167.63C296.89 176.44 286.87 183.94 277.101 191.97L247.611 215.58C227.881 231.23 208.611 247.58 189.111 263.46L187.741 264.58V262.7C187.561 236.59 191.351 210.48 197.071 185.23C199.821 172.53 203.071 159.84 207.971 147.67C212.765 135.566 219.604 124.376 228.191 114.59C236.601 104.53 248.041 98.1499 258.871 92.2899C269.782 86.2889 280.282 79.5673 290.301 72.1699C310.523 57.0821 329.03 39.8223 345.491 20.7ZM345.431 21.0299C329.821 40.9609 311.731 58.8185 291.601 74.1699C281.664 81.86 271.206 88.8502 260.301 95.09C249.411 101.27 238.591 107.19 230.561 116.92C222.281 126.26 215.871 137.38 210.951 149.08C206.031 160.78 202.801 173.35 199.951 185.98C197.101 198.61 194.351 211.24 192.551 224.06C190.704 236.896 189.662 249.834 189.431 262.8L188.061 262.08C207.671 246.23 227.511 230.77 246.871 214.66L275.991 190.52C285.581 182.36 295.591 174.6 304.561 165.92C321.851 147.64 332.751 123.5 338.561 98.4399C344.491 73.0699 345.571 46.7 345.491 20.98L345.431 21.0299Z" fill="black"/>
<path d="M345.49 20.78C321.6 63.2 295.03 107.2 265.66 152.13C239.76 191.72 213.94 228.48 188.66 262.68C206.08 249 230.66 229.34 259.79 204.87C306.71 165.48 313.67 156.99 318.1 151.07C331.38 132.85 352.28 94.18 345.49 20.78Z" fill="#F49644"/>
<path d="M345.49 20.98C334.49 42.16 322.22 63.2 309.96 83.86C297.7 104.52 285.07 125.16 271.81 145.22C258.55 165.28 244.93 185.08 231.11 204.68C217.11 224.14 203.48 243.94 189.29 263.21L188.18 262.03L246.49 213.75C266.03 197.84 285.2 181.26 303.74 164.16C308.383 159.957 312.649 155.356 316.49 150.41C320.255 145.328 323.647 139.981 326.64 134.41C332.63 123.04 337.207 110.981 340.27 98.5C346.49 73.27 346.87 46.63 345.49 20.98ZM345.55 20.6499C348.55 46.8899 348.29 73.27 342.55 98.98C336.7 124.3 325.44 149.49 305.96 166.73C287.42 184.16 267.96 200.33 248.34 216.12L189.16 263.34L184.24 267.22L188.04 262.16C202.35 242.95 216.66 223.75 230.1 203.82C243.54 183.89 256.8 163.9 269.68 143.57C282.56 123.24 295.57 103.06 308.2 82.5699L345.55 20.6499Z" fill="black"/>
<path d="M64.9795 0.130127C50.4695 82.9401 68.2095 125.82 84.1495 148.51C88.3095 154.51 92.1496 158.77 131 200.6C154.59 225.99 174.31 247.23 188.63 262.6C191.081 242.724 191.623 222.659 190.25 202.68C188 171.05 186.25 141.45 169.46 114.22C155.33 91.1401 143.76 91.1401 114.2 62.0701C95.3427 43.495 78.8147 22.6957 64.9795 0.130127Z" fill="#F9B03D"/>
<path d="M64.9791 0.329956C61.4891 25.78 59.1291 52.09 61.5591 77.87C63.9891 103.65 71.6291 129.11 86.4891 149.7C94.1991 159.63 103.099 168.84 111.569 178.25L137.259 206.4C154.379 225.21 171.989 243.4 189.259 261.97L187.829 262.5C189.33 249.62 189.998 236.656 189.829 223.69C189.769 210.69 188.519 197.85 187.459 184.89C186.399 171.93 184.659 159.17 181.369 146.74C178.079 134.31 173.149 122.47 166.179 112.02C159.529 101.23 149.569 93.7299 139.609 86.0199C129.619 78.2346 120.174 69.7749 111.339 60.7C93.3913 42.6213 77.8132 22.3356 64.9791 0.329956ZM64.9091 0C78.7293 21.3616 94.794 41.1843 112.829 59.13C121.742 67.954 131.244 76.1628 141.269 83.7C151.269 91.07 161.739 99.0899 168.709 110.27C175.879 121.223 181.181 133.291 184.399 145.98C187.629 158.68 189.189 171.77 190.309 184.72C192.669 210.57 193.039 237.01 189.429 262.79L189.189 264.63L187.999 263.32C170.769 244.64 153.839 225.7 136.349 207.32L110.209 179.63C101.569 170.29 92.6691 161.34 84.5791 151.28C68.8391 130.5 61.4891 104.12 59.4391 78.1399C57.3791 51.8899 59.7391 25.78 64.9091 0Z" fill="black"/>
<path d="M64.9802 0.130127C83.0902 45.6401 103.62 93.0601 126.84 141.93C147.25 184.93 168.03 225.13 188.63 262.69C173.2 246.57 151.35 223.49 125.78 195.01C84.4502 149.1 78.6702 139.7 75.1202 133.18C64.2302 113.19 48.6102 71.8201 64.9802 0.130127Z" fill="#F49644"/>
<path d="M64.9692 0L93.9092 66.8199C103.679 88.9899 113.909 110.89 124.029 132.82C134.149 154.75 144.489 176.7 155.329 198.3C165.969 220 177.609 241.11 189.329 262.22L192.449 267.81L188.089 263.21L135.699 207.77C118.269 189.22 101.149 170.34 85.0992 150.35C68.0992 130.49 60.2692 103.92 57.7792 77.9399C55.3292 51.6999 58.4892 25.52 64.9692 0ZM64.9692 0.329956C60.1792 25.58 57.0592 51.96 59.9692 77.74C61.3284 90.5712 64.2743 103.184 68.7393 115.29C70.9623 121.277 73.6022 127.102 76.6393 132.72C79.6393 138.25 83.5492 143.25 87.4692 148.25C103.579 167.91 120.389 187.12 137.689 205.73L189.149 262.09L187.909 263.09C176.399 241.91 165.439 220.34 154.119 198.96C143.039 177.52 132.119 155.96 121.629 134.11C111.139 112.26 101.489 90.0399 91.9793 67.7C82.4693 45.36 73.1292 22.89 64.9692 0.329956Z" fill="black"/>
<path d="M136.93 424.1C151.803 424.1 163.86 412.043 163.86 397.17C163.86 382.297 151.803 370.24 136.93 370.24C122.057 370.24 110 382.297 110 397.17C110 412.043 122.057 424.1 136.93 424.1Z" fill="#F7F8E2"/>
<path d="M163.861 397.17C164.158 400.737 163.691 404.327 162.491 407.7C161.247 411.14 159.307 414.285 156.791 416.94C154.249 419.624 151.187 421.761 147.791 423.22C144.371 424.673 140.696 425.431 136.981 425.45C133.269 425.425 129.599 424.667 126.181 423.22C122.782 421.762 119.718 419.621 117.181 416.93C114.665 414.275 112.724 411.129 111.481 407.69C110.26 404.311 109.772 400.711 110.051 397.13C110.583 404.083 113.668 410.594 118.711 415.41C123.638 420.066 130.152 422.672 136.931 422.7C143.728 422.696 150.267 420.095 155.211 415.43C160.25 410.62 163.331 404.116 163.861 397.17Z" fill="#231F20"/>
<path d="M163.86 397.17C163.331 390.218 160.25 383.707 155.21 378.89C150.262 374.232 143.725 371.636 136.93 371.63C130.137 371.632 123.601 374.229 118.66 378.89C113.615 383.705 110.53 390.216 110 397.17C109.722 393.585 110.209 389.982 111.43 386.6C112.673 383.16 114.614 380.015 117.13 377.36C119.671 374.676 122.734 372.539 126.13 371.08C129.546 369.628 133.218 368.87 136.93 368.85C140.645 368.869 144.32 369.627 147.74 371.08C151.136 372.539 154.198 374.676 156.74 377.36C159.256 380.015 161.196 383.16 162.44 386.6C163.662 389.982 164.146 393.586 163.86 397.17Z" fill="#231F20"/>
<path d="M136.93 411.24C142.773 411.24 147.51 406.503 147.51 400.66C147.51 394.817 142.773 390.08 136.93 390.08C131.086 390.08 126.35 394.817 126.35 400.66C126.35 406.503 131.086 411.24 136.93 411.24Z" fill="#06080A"/>
<path d="M242.241 424.1C257.114 424.1 269.171 412.043 269.171 397.17C269.171 382.297 257.114 370.24 242.241 370.24C227.368 370.24 215.311 382.297 215.311 397.17C215.311 412.043 227.368 424.1 242.241 424.1Z" fill="#F7F8E2"/>
<path d="M269.179 397.17C269.455 400.741 268.971 404.33 267.759 407.7C266.508 411.136 264.568 414.28 262.059 416.94C259.514 419.619 256.452 421.756 253.059 423.22C249.639 424.671 245.965 425.429 242.249 425.45C238.554 425.431 234.898 424.687 231.489 423.26C228.093 421.796 225.031 419.656 222.489 416.97C219.98 414.31 218.04 411.166 216.789 407.73C215.571 404.351 215.087 400.751 215.369 397.17C215.894 404.123 218.976 410.635 224.019 415.45C228.956 420.092 235.473 422.683 242.249 422.7C249.032 422.689 255.555 420.093 260.489 415.44C265.544 410.633 268.64 404.125 269.179 397.17Z" fill="#231F20"/>
<path d="M269.181 397.17C268.64 390.213 265.545 383.702 260.491 378.89C255.546 374.234 249.013 371.637 242.221 371.63C235.425 371.633 228.887 374.23 223.941 378.89C218.895 383.703 215.813 390.216 215.291 397.17C215.009 393.586 215.493 389.983 216.711 386.6C217.962 383.164 219.902 380.02 222.411 377.36C224.956 374.681 228.018 372.544 231.411 371.08C234.831 369.629 238.505 368.871 242.221 368.85C245.936 368.871 249.611 369.629 253.031 371.08C256.424 372.544 259.485 374.681 262.031 377.36C264.54 380.02 266.48 383.164 267.731 386.6C268.958 389.981 269.453 393.584 269.181 397.17Z" fill="#231F20"/>
<path d="M242.24 411.24C248.083 411.24 252.82 406.503 252.82 400.66C252.82 394.817 248.083 390.08 242.24 390.08C236.397 390.08 231.66 394.817 231.66 400.66C231.66 406.503 236.397 411.24 242.24 411.24Z" fill="#06080A"/>
<path d="M281.74 359.7C281.74 359.7 272.74 337.77 249.74 339.46" stroke="#231F20" stroke-width="3.96" stroke-miterlimit="10" stroke-linecap="round"/>
<path d="M102.25 375.2C102.25 375.2 111.25 353.28 134.25 354.97" stroke="#231F20" stroke-width="3.96" stroke-miterlimit="10" stroke-linecap="round"/>
<path d="M169.301 438.19C169.301 438.19 202.601 427.43 224.581 453.19" stroke="#231F20" stroke-width="3.96" stroke-miterlimit="10" stroke-linecap="round"/>
<path d="M102.25 407.75C102.25 407.75 104.32 430.75 134.25 433.51" stroke="#231F20" stroke-width="2" stroke-miterlimit="10" stroke-linecap="round"/>
<path d="M276.49 407.75C276.49 407.75 274.41 430.75 244.49 433.51" stroke="#231F20" stroke-width="2" stroke-miterlimit="10" stroke-linecap="round"/>
<path d="M321.719 370.32C321.719 372.095 321.37 373.853 320.69 375.492C320.011 377.132 319.014 378.622 317.759 379.877C316.503 381.131 315.013 382.126 313.373 382.805C311.732 383.483 309.974 383.831 308.199 383.83C304.616 383.83 301.18 382.407 298.646 379.873C296.113 377.339 294.689 373.903 294.689 370.32C294.689 362.85 308.199 346.24 308.199 346.24C308.199 346.24 321.719 362.85 321.719 370.32Z" fill="#F7F8E2"/>
</g>
<defs>
<clipPath id="clip0_3770_751">
<rect width="383.61" height="580.78" fill="white"/>
</clipPath>
</defs>
</svg>
