<svg width="384" height="581" viewBox="0 0 384 581" fill="none" xmlns="http://www.w3.org/2000/svg">
<g clip-path="url(#clip0_3768_580)">
<path d="M54.5098 269.85C66.1498 235.72 129.62 182.25 204.42 182.58C264.66 182.84 320.17 217.9 348.67 273.14L54.5098 269.85Z" fill="#603914"/>
<path d="M3.74004 248.35C36.6 176.86 158.88 177.58 195.09 177.78C242.64 178.04 340.03 178.57 373.57 241.57C388.19 269 380.17 313.4 364.11 402.12C351.6 471.31 344.88 506.43 323.35 529.85C286.01 570.43 232.06 572.27 195.85 573.52C158.69 574.83 96.1501 576.94 56.6301 533.52C46.6301 522.67 38.6301 509.31 17.8001 392.7C-4.2299 269.33 -0.0599551 256.63 3.74004 248.35Z" fill="#00A880"/>
<path d="M3.18021 248.02C9.00743 235.613 17.5518 224.676 28.1802 216.02C38.4502 207.21 50.3902 200.83 62.5402 195.3C87.0502 184.65 113.25 179.06 139.44 175.7C165.63 172.34 192.22 171.89 218.54 172.35C231.815 172.501 245.071 173.379 258.25 174.98C271.569 176.436 284.742 179.009 297.63 182.67C310.764 186.216 323.38 191.457 335.16 198.26C346.98 205.17 358.24 213.78 366.71 225.16C368.98 227.882 370.989 230.811 372.71 233.91C374.51 237 376.5 239.83 377.8 243.31C380.563 249.984 382.306 257.037 382.97 264.23C384.4 278.44 383.22 292.44 381.72 306.23C378.43 333.85 373.51 361.08 368.91 388.37C363.91 415.6 360.19 443.03 354.16 470.19C351.16 483.81 347.5 497.42 341.53 510.44C338.516 516.947 334.83 523.121 330.53 528.86C328.337 531.675 325.965 534.347 323.43 536.86C321.043 539.437 318.488 541.852 315.78 544.09C294.57 562.57 267.78 572.31 241.29 576.25C228.116 578.204 214.841 579.413 201.53 579.87C188.4 580.46 175.2 581.05 161.83 580.73C135.19 580.07 107.63 575.66 82.8302 562.31C70.3109 555.442 59.1322 546.374 49.8302 535.54C44.8302 529.54 41.6101 522.32 39.1201 515.61C36.7101 508.912 34.677 502.085 33.0302 495.16C26.1802 467.93 21.7602 440.57 17.4702 413.21C13.1802 385.85 9.25017 358.42 5.89017 330.87C4.28017 317.12 2.47025 303.37 1.35025 289.49C0.60025 282.59 0.0402544 275.68 -0.0197456 268.71C-0.0797456 261.74 0.0502055 254.46 3.18021 248.02ZM4.3002 248.61C1.4302 254.73 1.43014 261.83 1.49014 268.61C1.55014 275.39 2.18014 282.35 2.99014 289.26C4.67014 302.94 6.60024 316.68 9.09024 330.26C13.9402 357.43 19.4802 384.52 25.3302 411.55C31.1802 438.58 37.1502 465.49 44.3302 491.73C46.2002 498.24 48.1902 504.73 50.5502 510.73C52.9102 516.73 55.5502 522.37 59.2602 526.73C67.6074 536.105 77.5557 543.92 88.6402 549.81C110.79 561.81 136.44 565.93 161.94 566.98C174.76 567.57 187.77 567.18 200.84 566.78C213.744 566.57 226.624 565.625 239.42 563.95C264.68 560.47 289.52 552.25 309.42 535.87C311.957 533.896 314.346 531.74 316.57 529.42C318.936 527.249 321.142 524.909 323.17 522.42C327.283 517.433 330.831 512.007 333.75 506.24C339.75 494.54 343.84 481.52 347.31 468.3C354.04 441.79 359.31 414.56 364.37 387.4C369.43 360.24 374.69 333.07 377.5 305.64C378.74 291.96 379.5 278.15 377.69 264.8C376.826 258.259 374.957 251.891 372.15 245.92C370.9 242.92 368.85 240.33 367.15 237.57C365.45 234.81 363.66 232.05 361.3 229.75C353.08 219.62 342.3 212.12 330.99 206.2C325.4 203.04 319.36 200.87 313.44 198.44C307.28 196.53 301.25 194.44 294.96 193.05C269.96 186.73 244.12 184.69 218.17 183.71C192.1 183.05 166.02 182.06 140.07 183.71C114.12 185.36 88.1702 189.3 63.5902 198.31C51.1839 202.789 39.5536 209.18 29.1201 217.25C18.6626 225.772 10.1921 236.474 4.3002 248.61Z" fill="black"/>
<path d="M3.74027 242.56C4.49027 203.89 115.07 168.7 207.11 171.4C280.11 173.5 377.05 200.53 378.86 236.77C380.67 273.01 287.2 315.3 204.37 319.58C109.34 324.38 2.99027 280.7 3.74027 242.56Z" fill="#00A880"/>
<path d="M3.11024 242.5C3.29567 237.728 4.8053 233.102 7.47022 229.14C9.9653 225.27 12.9953 221.772 16.4702 218.75C23.1302 212.5 30.8402 207.75 38.5702 203.16C54.1902 194.22 70.8602 187.64 87.7902 181.99C121.704 170.874 157.203 165.362 192.89 165.67C228.61 166.27 263.59 173.04 297.75 182.31C314.75 187.05 331.75 192.64 347.85 200.53C355.85 204.53 363.71 209.21 370.75 215.59C374.409 218.901 377.408 222.874 379.59 227.3C381.895 232.178 382.595 237.66 381.59 242.96C379.41 253.61 372.81 261.37 366.22 267.96C359.486 274.359 352.076 280.005 344.12 284.8C328.653 294.177 312.226 301.871 295.12 307.75C261.27 319.59 225.74 326.83 189.78 326.75C153.93 326.42 118.27 320.23 84.7802 307.47C68.0402 301.16 51.6801 293.66 36.4901 283.8C29.0201 278.8 21.5501 273.54 15.2701 266.9C12.0226 263.627 9.20039 259.958 6.87012 255.98C4.34399 251.943 3.03839 247.262 3.11024 242.5ZM4.36024 242.56C4.43024 251.7 10.2702 259.56 16.5602 265.65C23.0517 271.656 30.3363 276.743 38.2102 280.77C53.7702 288.99 70.3202 294.85 87.2102 299.32C120.94 307.94 155.42 313.07 189.84 312.8C224.405 312.434 258.712 306.803 291.58 296.1C308.01 290.64 324.25 284.26 339.43 275.84C346.964 271.668 354.106 266.825 360.77 261.37C367.19 255.85 373.1 249.2 375.09 241.57C377.08 233.94 373.16 225.99 367.19 219.87C361.22 213.75 353.81 208.75 346.09 204.68C330.6 196.46 313.79 190.86 296.87 186.59C279.881 182.419 262.592 179.583 245.16 178.11C227.842 176.461 210.432 175.99 193.05 176.7C158.332 178.081 123.805 182.528 89.8701 189.99C72.8701 193.87 56.0202 198.87 40.0902 206.24C32.0104 209.826 24.4546 214.492 17.6301 220.11C10.9501 225.79 4.73024 233.35 4.36024 242.56Z" fill="black"/>
<path d="M44.6806 240.98C45.2406 213.49 129.621 188.43 199.821 190.34C255.581 191.85 329.441 211.06 330.821 236.84C332.201 262.62 260.941 292.68 197.711 295.77C125.271 299.25 44.1206 268.14 44.6806 240.98Z" fill="black" stroke="black" stroke-width="2.85" stroke-miterlimit="10"/>
<path d="M345.499 20.78C349.049 104.9 325.839 144.78 307.109 164.95C302.189 170.28 297.829 173.95 253.839 209.67L188.619 262.67C188.79 242.677 190.872 222.746 194.839 203.15C201.189 172.15 206.919 143.15 227.019 118.57C244.019 97.7201 255.509 99.43 288.559 75.03C309.684 59.3401 328.806 41.121 345.499 20.78Z" fill="#00A880"/>
<path d="M345.501 20.7C347.241 47.01 346.181 73.18 340.711 98.84C335.231 124.29 324.531 149.35 306.231 167.63C296.891 176.44 286.881 183.94 277.111 191.97L247.611 215.58C227.881 231.23 208.611 247.58 189.121 263.46L187.741 264.58V262.7C187.561 236.59 191.351 210.48 197.081 185.23C199.821 172.53 203.081 159.84 207.971 147.67C212.769 135.565 219.611 124.376 228.201 114.59C236.601 104.53 248.041 98.1499 258.871 92.2899C269.784 86.2912 280.284 79.5695 290.301 72.1699C310.529 57.0849 329.039 39.8249 345.501 20.7ZM345.431 21.0299C329.821 40.9609 311.731 58.8185 291.601 74.1699C281.665 81.86 271.206 88.8502 260.301 95.09C249.411 101.27 238.591 107.19 230.561 116.92C222.281 126.26 215.871 137.38 210.961 149.08C206.051 160.78 202.811 173.35 199.961 185.98C197.111 198.61 194.351 211.24 192.551 224.06C190.703 236.895 189.664 249.834 189.441 262.8L188.071 262.08C207.671 246.23 227.521 230.77 246.881 214.66L276.001 190.52C285.581 182.36 295.601 174.6 304.561 165.92C321.861 147.64 332.751 123.5 338.561 98.4399C344.441 73.0699 345.561 46.7 345.431 20.98V21.0299Z" fill="black"/>
<path d="M345.5 20.78C321.6 63.2 295.04 107.2 265.66 152.13C239.77 191.72 213.95 228.48 188.66 262.68C206.08 249 230.66 229.34 259.79 204.87C306.71 165.48 313.67 156.99 318.1 151.07C331.37 132.85 352.28 94.18 345.5 20.78Z" fill="#188169"/>
<path d="M345.429 20.98C334.429 42.16 322.159 63.2 309.899 83.86C297.639 104.52 285.009 125.16 271.759 145.22C258.509 165.28 244.869 185.08 231.059 204.68C217.059 224.14 203.419 243.94 189.239 263.21L188.119 262.03L246.489 213.75C266.029 197.84 285.189 181.26 303.739 164.16C308.383 159.955 312.652 155.354 316.499 150.41C320.257 145.324 323.649 139.977 326.649 134.41C332.635 123.04 337.209 110.98 340.269 98.5C346.489 73.27 346.859 46.63 345.429 20.98ZM345.499 20.6499C348.499 46.8899 348.229 73.27 342.499 98.98C336.649 124.3 325.379 149.49 305.909 166.73C287.359 184.16 267.909 200.33 248.279 216.12L189.099 263.34L184.189 267.22L187.979 262.16C202.299 242.95 216.599 223.75 230.049 203.82C243.499 183.89 256.739 163.9 269.629 143.57C282.519 123.24 295.509 103.06 308.139 82.5699L345.499 20.6499Z" fill="black"/>
<path d="M64.9694 0.130127C50.4694 82.9401 68.1993 125.82 84.1393 148.51C88.3093 154.51 92.1393 158.77 130.999 200.6C154.579 225.99 174.299 247.23 188.619 262.6C191.075 242.725 191.618 222.659 190.239 202.68C187.989 171.05 186.239 141.45 169.449 114.22C155.329 91.1401 143.759 91.1401 114.189 62.0701C95.3325 43.495 78.8045 22.6957 64.9694 0.130127Z" fill="#00A880"/>
<path d="M64.9696 0.329956C61.4896 25.78 59.1195 52.09 61.5495 77.87C63.9795 103.65 71.6296 129.11 86.4396 149.69C94.1496 159.62 103.06 168.83 111.52 178.24L137.22 206.39C154.33 225.2 171.94 243.39 189.22 261.96L187.79 262.49C189.295 249.61 189.963 236.646 189.79 223.68C189.72 210.68 188.47 197.84 187.41 184.88C186.35 171.92 184.62 159.16 181.32 146.73C178.02 134.3 173.11 122.46 166.14 112.01C159.48 101.22 149.52 93.72 139.56 86.01C129.578 78.2182 120.14 69.7552 111.31 60.6799C93.3731 42.6037 77.8022 22.3252 64.9696 0.329956ZM64.9095 0C78.7262 21.3614 94.7876 41.1841 112.82 59.13C121.74 67.9379 131.245 76.1331 141.27 83.6599C151.27 91.0299 161.74 99.05 168.71 110.23C175.881 121.181 181.18 133.249 184.39 145.94C187.62 158.64 189.18 171.73 190.3 184.68C192.67 210.53 193.04 236.97 189.43 262.75L189.18 264.59L187.989 263.28C170.759 244.6 153.83 225.66 136.35 207.28L110.21 179.59C101.56 170.25 92.6596 161.3 84.5796 151.24C68.8296 130.46 61.4896 104.08 59.4296 78.1C57.3796 51.89 59.7395 25.78 64.9095 0Z" fill="black"/>
<path d="M64.9705 0.130127C83.0805 45.6401 103.62 93.0601 126.83 141.93C147.24 184.93 168.02 225.13 188.62 262.69C173.19 246.57 151.34 223.49 125.77 195.01C84.4504 149.1 78.6605 139.7 75.1105 133.18C64.2205 113.19 48.6005 71.8201 64.9705 0.130127Z" fill="#188169"/>
<path d="M64.9603 0L93.9003 66.8199C103.67 88.9899 113.9 110.89 124.03 132.82C134.16 154.75 144.5 176.63 155.33 198.27C165.97 219.97 177.6 241.08 189.33 262.19L192.44 267.78L188.09 263.18L135.69 207.74C118.26 189.19 101.15 170.31 85.0903 150.32C68.0903 130.46 60.2703 103.89 57.7803 77.9099C55.3203 51.6999 58.5003 25.52 64.9603 0ZM64.9603 0.329956C60.1703 25.58 57.0603 51.96 59.9603 77.74C61.3227 90.5716 64.2718 103.185 68.7402 115.29C70.9557 121.279 73.5923 127.103 76.6302 132.72C79.6302 138.25 83.5403 143.25 87.4603 148.25C103.58 167.91 120.324 187.07 137.69 205.73L189.14 262.09L187.9 263.09C176.39 241.91 165.44 220.34 154.11 198.96C143.04 177.52 132.11 155.96 121.62 134.11C111.13 112.26 101.4 90.05 91.9403 67.75C82.4803 45.45 73.1203 22.89 64.9603 0.329956Z" fill="black"/>
<path d="M108.961 381.11C108.961 381.11 128.901 359.75 155.251 377.55" stroke="#231F20" stroke-width="4.18" stroke-miterlimit="10" stroke-linecap="round"/>
<path d="M272.979 381.11C272.979 381.11 253.039 359.75 226.689 377.55" stroke="#231F20" stroke-width="4.18" stroke-miterlimit="10" stroke-linecap="round"/>
<path d="M139.28 448C154.208 448 166.31 435.898 166.31 420.97C166.31 406.042 154.208 393.94 139.28 393.94C124.352 393.94 112.25 406.042 112.25 420.97C112.25 435.898 124.352 448 139.28 448Z" fill="#F7F8E2"/>
<path d="M242.991 448C257.919 448 270.021 435.898 270.021 420.97C270.021 406.042 257.919 393.94 242.991 393.94C228.063 393.94 215.961 406.042 215.961 420.97C215.961 435.898 228.063 448 242.991 448Z" fill="#F7F8E2"/>
<path d="M112.251 420.97C111.962 417.372 112.45 413.753 113.681 410.36C114.927 406.905 116.875 403.746 119.401 401.08C121.943 398.39 125.005 396.243 128.401 394.77C131.835 393.319 135.522 392.561 139.251 392.54C142.98 392.558 146.669 393.319 150.101 394.78C153.498 396.246 156.561 398.39 159.101 401.08C161.624 403.75 163.574 406.908 164.831 410.36C166.052 413.756 166.54 417.372 166.261 420.97C165.731 413.99 162.635 407.453 157.571 402.62C152.61 397.935 146.044 395.327 139.221 395.33C132.402 395.337 125.843 397.944 120.881 402.62C115.838 407.462 112.765 413.998 112.251 420.97Z" fill="#231F20"/>
<path d="M166.32 420.97C166.599 424.565 166.111 428.177 164.89 431.57C163.639 435.022 161.692 438.181 159.17 440.85C156.628 443.54 153.566 445.687 150.17 447.16C146.738 448.618 143.05 449.377 139.32 449.39C135.592 449.369 131.905 448.612 128.471 447.16C125.077 445.682 122.017 443.536 119.471 440.85C116.946 438.183 114.998 435.024 113.75 431.57C112.525 428.179 112.037 424.565 112.32 420.97C112.844 427.95 115.937 434.488 121 439.32C125.967 443.995 132.529 446.602 139.351 446.61C146.174 446.604 152.738 443.993 157.7 439.31C162.734 434.466 165.803 427.936 166.32 420.97Z" fill="#231F20"/>
<path d="M139.849 438.71C149.647 438.71 157.589 430.768 157.589 420.97C157.589 411.172 149.647 403.23 139.849 403.23C130.052 403.23 122.109 411.172 122.109 420.97C122.109 430.768 130.052 438.71 139.849 438.71Z" fill="#06080A"/>
<path d="M215.95 420.97C215.666 417.372 216.153 413.755 217.38 410.36C218.63 406.907 220.577 403.748 223.1 401.08C225.645 398.393 228.706 396.247 232.1 394.77C235.534 393.317 239.221 392.56 242.95 392.54C246.679 392.56 250.367 393.322 253.8 394.78C257.194 396.251 260.256 398.394 262.8 401.08C265.32 403.75 267.267 406.908 268.52 410.36C269.746 413.755 270.233 417.372 269.95 420.97C269.419 413.992 266.327 407.457 261.27 402.62C256.307 397.937 249.742 395.329 242.92 395.33C236.098 395.336 229.536 397.943 224.57 402.62C219.531 407.464 216.461 413.999 215.95 420.97Z" fill="#231F20"/>
<path d="M270.051 420.97C270.334 424.565 269.846 428.179 268.621 431.57C267.377 435.026 265.429 438.186 262.901 440.85C260.359 443.541 257.297 445.688 253.901 447.16C250.467 448.615 246.779 449.373 243.051 449.39C239.322 449.37 235.634 448.613 232.201 447.16C228.807 445.683 225.746 443.537 223.201 440.85C220.679 438.181 218.732 435.022 217.481 431.57C216.26 428.177 215.772 424.565 216.051 420.97C216.582 427.95 219.678 434.486 224.74 439.32C229.706 443.997 236.269 446.604 243.091 446.61C249.911 446.603 256.471 443.991 261.431 439.31C266.467 434.469 269.537 427.937 270.051 420.97Z" fill="#231F20"/>
<path d="M242.99 438.71C252.788 438.71 260.73 430.768 260.73 420.97C260.73 411.172 252.788 403.23 242.99 403.23C233.192 403.23 225.25 411.172 225.25 420.97C225.25 430.768 233.192 438.71 242.99 438.71Z" fill="#06080A"/>
<path d="M224.75 454.24C224.75 454.24 226.97 498.12 189.42 498.12C151.87 498.12 157.24 454.24 157.24 454.24H224.75Z" fill="#231F20"/>
<path d="M163.449 485.38C168.119 492.55 176.039 498.12 189.449 498.12C203.449 498.12 211.949 491.99 217.069 484.32C211.409 478.42 201.749 474.53 190.749 474.53C179.049 474.53 168.929 478.9 163.449 485.38Z" fill="#ED6C6D"/>
</g>
<defs>
<clipPath id="clip0_3768_580">
<rect width="383.61" height="580.78" fill="white"/>
</clipPath>
</defs>
</svg>
