<svg width="603" height="919" viewBox="0 0 603 919" fill="none" xmlns="http://www.w3.org/2000/svg">
<g clip-path="url(#clip0_4357_581)">
<path d="M357.28 918.29C487.227 918.29 592.57 905.257 592.57 889.18C592.57 873.103 487.227 860.07 357.28 860.07C227.333 860.07 121.99 873.103 121.99 889.18C121.99 905.257 227.333 918.29 357.28 918.29Z" fill="#D0D2D3"/>
<path d="M542.41 497.73C533.95 482.06 519.24 465.33 503.2 447.93C488.45 465.24 448.83 498.93 367.7 491.54C373 512.6 379.52 532.97 385.89 551.24C420.08 554.26 499.14 554.27 542.41 497.73Z" fill="white"/>
<path d="M467.05 407.89C452.31 390.31 439.8 372.35 433.94 354.38C408.58 345.91 393.13 335.76 383.76 326.8C363.7 348.07 356.25 377.53 356.13 409.75C380.14 415.96 428.55 424.76 467.05 407.89Z" fill="white"/>
<path d="M408.56 628.95C407.71 638.15 403.93 644.44 399.02 648.74C406.02 660.35 419.02 677.47 440.16 689.2C516.28 677.89 548.05 642.49 557.93 604.12C533.35 624.92 485.73 649.45 408.56 628.95Z" fill="white"/>
<path d="M433.94 354.38C432.077 348.803 430.922 343.015 430.5 337.15C426.9 280.69 388.65 321.97 388.65 321.97C386.93 323.52 385.32 325.14 383.76 326.8C393.14 335.76 408.58 345.91 433.94 354.38Z" fill="#7A7176"/>
<path d="M503.2 447.93C491.2 434.93 478.46 421.51 467.05 407.93C428.55 424.8 380.1 416 356.13 409.79C356.04 436.21 360.86 464.46 367.7 491.58C448.83 498.88 488.45 465.24 503.2 447.93Z" fill="#7A7176"/>
<path d="M557.93 604.12C568.21 564.12 554.7 520.89 542.76 498.37L542.41 497.73C499.16 554.27 420.08 554.26 385.89 551.24C392.23 569.42 398.41 585.52 403.1 598.17C407.79 610.82 409.29 621.04 408.56 628.95C485.73 649.45 533.35 624.92 557.93 604.12Z" fill="#7A7176"/>
<path d="M369.14 657.87L396.41 692.79C411.053 692.485 425.663 691.286 440.16 689.2C419.05 677.47 406 660.35 399.02 648.74C387.29 659.03 369.14 657.87 369.14 657.87Z" fill="#7A7176"/>
<path d="M440.14 689.2C451.012 687.335 461.751 684.766 472.29 681.51C482.786 678.277 492.947 674.041 502.63 668.86C512.238 663.714 521.097 657.278 528.96 649.73C540.597 638.38 549.138 624.242 553.77 608.66C554.18 607.38 554.52 606.08 554.86 604.78C555.2 603.48 555.47 602.16 555.74 600.84L556.56 596.84C556.85 595.53 556.95 594.18 557.16 592.84C558.61 582.14 558.741 571.302 557.55 560.57C556.427 549.804 554.239 539.175 551.02 528.84C547.934 518.509 543.786 508.525 538.64 499.05C533.41 489.81 526.73 481.21 519.73 472.86C512.73 464.51 505.24 456.46 497.73 448.41C490.22 440.36 482.59 432.32 475.13 424.09C467.67 415.86 460.35 407.42 453.55 398.47C446.568 389.524 440.434 379.946 435.23 369.86C432.636 364.678 430.469 359.294 428.75 353.76C427.898 350.944 427.204 348.083 426.67 345.19C426.4 343.74 426.18 342.27 426.01 340.8C425.92 340.06 425.85 339.32 425.78 338.58L425.7 337.46L425.61 336.46L425.26 332.53L424.71 328.68C424.48 327.42 424.2 326.19 423.96 324.94C423.72 323.69 423.31 322.54 422.96 321.4C422.264 319.262 421.253 317.24 419.96 315.4C418.982 313.976 417.54 312.937 415.88 312.46C414.04 312.068 412.129 312.168 410.34 312.75C408.106 313.434 405.968 314.401 403.98 315.63C401.816 316.934 399.751 318.395 397.8 320C396.8 320.82 395.8 321.65 394.88 322.53C393.96 323.41 392.96 324.33 392.19 325.14L392.04 325.29L391.89 325.44C386.395 330.457 381.581 336.173 377.57 342.44C373.572 348.786 370.339 355.584 367.94 362.69C363.02 376.96 361.11 392.3 360.79 407.69C360.616 423.172 361.787 438.641 364.29 453.92C366.77 469.315 370.028 484.574 374.05 499.64C377.99 514.76 382.55 529.74 387.49 544.64L389.36 550.21L391.36 555.76L395.31 566.86L403.18 589.09C404.48 592.82 405.8 596.43 407.09 600.3C408.363 604.15 409.398 608.074 410.19 612.05C410.998 616.084 411.42 620.186 411.45 624.3C411.49 628.516 410.876 632.712 409.63 636.74C408.34 640.843 406.173 644.617 403.28 647.8C400.383 650.9 396.912 653.41 393.06 655.19C389.315 656.923 385.352 658.14 381.28 658.81C379.272 659.163 377.245 659.406 375.21 659.54C373.16 659.69 371.103 659.71 369.05 659.6L370.59 656.68L383.92 674.37L397.21 692.1L396.41 691.72C411.038 691.703 425.653 690.835 440.18 689.12C425.718 691.57 411.116 693.104 396.46 693.71H395.97L395.65 693.31L381.65 676.11L367.72 659.03L365.28 656.03L369.28 656.12C371.16 656.155 373.041 656.071 374.91 655.87C376.801 655.684 378.68 655.397 380.54 655.01C384.221 654.283 387.787 653.062 391.14 651.38C394.398 649.744 397.311 647.496 399.72 644.76C402.051 642.02 403.772 638.816 404.77 635.36C406.77 628.36 406.24 620.7 404.62 613.36C403.781 609.631 402.712 605.957 401.42 602.36C400.13 598.8 398.65 595.05 397.27 591.36L388.88 569.26L384.71 558.2L382.62 552.67L380.62 547.09C375.38 532.19 370.49 517.14 366.21 501.88C361.897 486.593 358.395 471.087 355.72 455.43C352.956 439.664 351.571 423.687 351.58 407.68C351.605 399.601 352.2 391.535 353.36 383.54C354.505 375.462 356.385 367.506 358.98 359.77C361.602 351.948 365.133 344.46 369.5 337.46C373.953 330.443 379.305 324.038 385.42 318.41L385.12 318.7C386.25 317.51 387.25 316.55 388.35 315.53C389.45 314.51 390.55 313.53 391.68 312.63C393.993 310.721 396.439 308.98 399 307.42C401.716 305.744 404.636 304.426 407.69 303.5C411.192 302.4 414.93 302.29 418.49 303.18C419.434 303.453 420.36 303.787 421.26 304.18C422.12 304.64 422.95 305.18 423.77 305.69C424.59 306.2 425.23 306.9 425.92 307.53C426.61 308.16 427.12 308.89 427.7 309.58C429.628 312.259 431.128 315.221 432.15 318.36C432.63 319.83 433.01 321.3 433.4 322.77C433.79 324.24 434.01 325.7 434.27 327.15L434.87 331.51L435.25 335.82L435.41 337.82C435.46 338.45 435.52 339.08 435.59 339.72C435.74 340.98 435.92 342.25 436.15 343.51C436.609 346.052 437.21 348.565 437.95 351.04C439.494 356.063 441.444 360.953 443.78 365.66C448.686 375.227 454.467 384.32 461.05 392.82C474.2 410.11 489.26 426.18 504.19 442.49C511.65 450.66 519.11 458.89 526.19 467.49C533.27 476.09 540.08 485.15 545.56 495.26C550.792 505.303 554.965 515.863 558.01 526.77C561.16 537.6 563.233 548.713 564.2 559.95C565.158 571.223 564.731 582.571 562.93 593.74C562.68 595.13 562.54 596.54 562.19 597.92L561.19 602.05C560.86 603.43 560.57 604.82 560.19 606.17C559.81 607.52 559.4 608.89 558.94 610.23C557.184 615.623 554.976 620.858 552.34 625.88C547.042 635.892 540.053 644.911 531.68 652.54C523.36 660.073 514.022 666.398 503.94 671.33C493.935 676.195 483.483 680.084 472.73 682.94C462.014 685.731 451.128 687.822 440.14 689.2Z" fill="#231F20"/>
<path d="M347.25 724.03C323.79 724.03 299.62 715.59 277 699.17C245.34 676.17 220.431 640.22 206.881 597.89C193.331 555.56 192.691 511.81 205.111 474.71C217.731 437.04 242.25 410.71 274.16 400.45C306.07 390.19 341.36 397.45 373.51 420.79C405.17 443.79 430.071 479.74 443.631 522.07C457.191 564.4 457.81 608.15 445.39 645.24C432.78 682.91 408.251 709.29 376.341 719.51C366.938 722.519 357.123 724.044 347.25 724.03ZM303.25 406.38C294.478 406.36 285.756 407.71 277.4 410.38C248.73 419.56 226.601 443.57 215.071 478.01C203.351 513.01 203.991 554.45 216.881 594.68C229.771 634.91 253.31 669.01 283.18 690.68C312.57 712.01 344.54 718.68 373.18 709.52C432.97 690.37 460.12 607.69 433.71 525.22C420.82 484.98 397.27 450.88 367.4 429.22C346.58 414.16 324.5 406.39 303.2 406.39L303.25 406.38Z" fill="#231F20"/>
<path d="M374.887 714.296C437.514 694.237 466.119 608.779 438.779 523.421C411.439 438.062 338.507 385.126 275.88 405.185C213.254 425.244 184.648 510.702 211.988 596.061C239.328 681.419 312.26 734.355 374.887 714.296Z" fill="#C9C3C7"/>
<path d="M347.25 724.03C323.79 724.03 299.62 715.59 277 699.17C245.34 676.17 220.431 640.22 206.881 597.89C193.331 555.56 192.691 511.81 205.111 474.71C217.731 437.04 242.25 410.71 274.16 400.45C306.07 390.19 341.36 397.45 373.51 420.79C405.17 443.79 430.071 479.74 443.631 522.07C457.191 564.4 457.81 608.15 445.39 645.24C432.78 682.91 408.251 709.29 376.341 719.51C366.938 722.519 357.123 724.044 347.25 724.03ZM303.25 406.38C294.478 406.36 285.756 407.71 277.4 410.38C248.73 419.56 226.601 443.57 215.071 478.01C203.351 513.01 203.991 554.45 216.881 594.68C229.771 634.91 253.31 669.01 283.18 690.68C312.57 712.01 344.54 718.68 373.18 709.52C432.97 690.37 460.12 607.69 433.71 525.22C420.82 484.98 397.27 450.88 367.4 429.22C346.58 414.16 324.5 406.39 303.2 406.39L303.25 406.38Z" fill="#231F20"/>
<path d="M374.887 714.296C437.514 694.237 466.119 608.779 438.779 523.421C411.439 438.062 338.507 385.126 275.88 405.185C213.254 425.244 184.648 510.702 211.988 596.061C239.328 681.419 312.26 734.355 374.887 714.296Z" fill="#C9C3C7"/>
<path d="M347.25 724.03C323.79 724.03 299.62 715.59 277 699.17C245.34 676.17 220.431 640.22 206.881 597.89C193.331 555.56 192.691 511.81 205.111 474.71C217.731 437.04 242.25 410.71 274.16 400.45C306.07 390.19 341.36 397.45 373.51 420.79C405.17 443.79 430.071 479.74 443.631 522.07C457.191 564.4 457.81 608.15 445.39 645.24C432.78 682.91 408.251 709.29 376.341 719.51C366.938 722.519 357.123 724.044 347.25 724.03ZM303.25 406.38C294.478 406.36 285.756 407.71 277.4 410.38C248.73 419.56 226.601 443.57 215.071 478.01C203.351 513.01 203.991 554.45 216.881 594.68C229.771 634.91 253.31 669.01 283.18 690.68C312.57 712.01 344.54 718.68 373.18 709.52C432.97 690.37 460.12 607.69 433.71 525.22C420.82 484.98 397.27 450.88 367.4 429.22C346.58 414.16 324.5 406.39 303.2 406.39L303.25 406.38Z" fill="#231F20"/>
<path d="M366.26 445.53C366.26 445.53 557.26 452.53 498.26 572.07C498.26 572.07 519.35 570.55 523.26 585.81C526.69 599.22 522.77 613.66 498.79 620.26C473.55 627.2 439.31 613.05 448.64 577.85C456.79 547.04 470.26 525.45 423.15 521.27" fill="#C9C3C7"/>
<path d="M366.26 445.53C375.71 445.577 385.15 446.134 394.54 447.2C403.969 448.206 413.341 449.688 422.62 451.64C431.958 453.556 441.159 456.092 450.16 459.23C459.288 462.338 468.079 466.358 476.4 471.23C484.946 476.145 492.628 482.428 499.14 489.83C505.758 497.514 510.369 506.718 512.56 516.62C514.585 526.487 514.517 536.67 512.36 546.51C510.241 556.096 506.953 565.385 502.57 574.17L497.98 567.35C498.49 567.35 498.78 567.35 499.17 567.29H500.24C500.95 567.29 501.65 567.29 502.35 567.35C503.75 567.43 505.15 567.57 506.55 567.79C509.428 568.207 512.243 568.979 514.93 570.09C517.84 571.282 520.484 573.039 522.71 575.26C525.025 577.595 526.726 580.467 527.66 583.62C527.77 584 527.9 584.4 527.99 584.76L528.23 585.76C528.38 586.45 528.53 587.15 528.64 587.85C528.891 589.271 529.051 590.708 529.12 592.15C529.282 595.132 528.999 598.121 528.28 601.02C527.534 603.984 526.286 606.797 524.59 609.34C522.92 611.798 520.898 613.998 518.59 615.87C514.163 619.289 509.157 621.884 503.81 623.53C502.53 623.96 501.24 624.3 499.94 624.66C498.64 625.02 497.26 625.29 495.94 625.53C487.839 626.935 479.525 626.491 471.62 624.23C466.273 622.731 461.258 620.234 456.84 616.87C452.342 613.39 448.792 608.833 446.52 603.62C444.351 598.457 443.443 592.853 443.87 587.27C444.044 584.57 444.466 581.892 445.13 579.27C445.79 576.63 446.56 574.27 447.32 571.86C448.86 567.04 450.5 562.29 451.95 557.56C453.4 552.83 454.71 548.1 454.95 543.42C455.118 541.143 454.863 538.855 454.2 536.67C453.48 534.528 452.256 532.59 450.63 531.02C447.3 527.77 442.63 525.79 437.93 524.35C433.125 522.96 428.225 521.917 423.27 521.23C428.304 521.34 433.321 521.862 438.27 522.79C440.788 523.295 443.26 524.008 445.66 524.92C448.15 525.85 450.475 527.169 452.55 528.83C454.7 530.597 456.379 532.868 457.44 535.44C458.439 537.99 458.962 540.701 458.98 543.44C458.909 548.655 458.177 553.839 456.8 558.87C455.6 563.82 454.23 568.65 453 573.47C452.4 575.86 451.75 578.35 451.32 580.61C450.886 582.89 450.631 585.2 450.56 587.52C450.396 592 451.298 596.456 453.19 600.52C455.117 604.477 458.018 607.88 461.62 610.41C468.82 615.64 478.3 617.88 487.42 617.46C489.704 617.35 491.977 617.072 494.22 616.63C495.33 616.4 496.44 616.14 497.52 615.82C498.6 615.5 499.76 615.15 500.85 614.76C505.111 613.411 509.094 611.308 512.61 608.55C515.781 606.041 518.046 602.564 519.06 598.65C519.536 596.667 519.715 594.625 519.59 592.59C519.534 591.527 519.413 590.468 519.23 589.42C519.14 588.89 519.02 588.35 518.9 587.82L518.71 587.02C518.65 586.77 518.58 586.58 518.51 586.35C518.009 584.671 517.107 583.14 515.88 581.89C514.545 580.555 512.953 579.504 511.2 578.8C509.249 577.985 507.203 577.417 505.11 577.11C504.03 576.94 502.93 576.83 501.82 576.76C501.27 576.76 500.72 576.71 500.17 576.7H499.36H498.67L490.57 576.92L494.08 569.92C498.206 561.865 501.339 553.339 503.41 544.53C505.49 535.939 505.753 527.008 504.18 518.31C503.339 514.029 501.959 509.873 500.07 505.94C498.152 501.982 495.804 498.246 493.07 494.8C487.344 487.813 480.509 481.813 472.84 477.04C465.034 472.123 456.796 467.926 448.23 464.5C439.566 461.054 430.711 458.105 421.71 455.67C403.528 450.808 384.986 447.417 366.26 445.53Z" fill="#221F1F"/>
<path d="M258.49 649.11C270.49 628.63 218.25 692.03 288.05 853.83C288.05 853.83 262.43 876.28 270.15 891.83C277.87 907.38 332.92 904.19 347.28 874.35C361.64 844.51 355.72 803.83 344.85 771.7C366.39 753.21 368.08 673.7 342.4 643.85C342.4 643.86 297.99 593.18 258.49 649.11Z" fill="#C9C3C7"/>
<path d="M254.26 664.1C253.351 668.043 252.792 672.058 252.59 676.1C252.35 680.14 252.263 684.177 252.33 688.21C252.39 692.21 252.62 696.28 252.92 700.31C253.05 702.31 253.26 704.31 253.43 706.31L254.09 712.31C256.129 728.317 259.134 744.186 263.09 759.83C264.95 767.67 267.09 775.45 269.31 783.21C270.47 787.08 271.61 790.95 272.81 794.81C274.01 798.67 275.21 802.51 276.48 806.34C281.48 821.69 286.95 836.9 292.74 851.99C293.1 852.93 293.168 853.958 292.934 854.938C292.7 855.917 292.176 856.803 291.43 857.48L291.34 857.56C290.59 858.24 289.69 859.11 288.88 859.92C288.07 860.73 287.23 861.61 286.43 862.48C284.84 864.21 283.32 866 281.9 867.84C279.098 871.323 276.815 875.193 275.12 879.33C274.398 881.118 273.976 883.014 273.87 884.94C273.792 886.538 274.137 888.128 274.87 889.55C275.665 890.805 276.799 891.81 278.14 892.45C279.94 893.386 281.852 894.088 283.83 894.54C288.229 895.538 292.743 895.938 297.25 895.73C301.884 895.562 306.489 894.935 311 893.86C320 891.73 328.71 887.86 335.28 881.98C338.54 879.109 341.192 875.613 343.08 871.7C345.101 867.481 346.732 863.086 347.95 858.57C350.355 849.309 351.554 839.777 351.52 830.21C351.515 820.488 350.669 810.785 348.99 801.21C347.377 791.526 345.128 781.959 342.26 772.57V772.42C342.117 771.951 342.108 771.452 342.233 770.979C342.359 770.505 342.614 770.076 342.97 769.74C343.28 769.44 343.73 768.96 344.11 768.53C344.49 768.1 344.89 767.62 345.27 767.15C346.03 766.15 346.78 765.22 347.48 764.21C348.902 762.18 350.195 760.062 351.35 757.87C353.688 753.425 355.578 748.759 356.99 743.94C358.428 739.072 359.432 734.085 359.99 729.04C360.591 723.946 360.831 718.817 360.71 713.69C361.459 718.811 361.793 723.984 361.71 729.16C361.611 734.382 361.052 739.586 360.04 744.71C358.978 749.881 357.383 754.928 355.28 759.77C354.217 762.221 353.001 764.602 351.64 766.9C350.96 768.06 350.25 769.2 349.46 770.31C349.07 770.86 348.66 771.41 348.24 771.96C347.82 772.51 347.41 773.01 346.83 773.63L347.49 770.81C351.021 780.269 353.904 789.958 356.12 799.81C358.301 809.77 359.613 819.902 360.04 830.09C360.248 835.243 360.121 840.403 359.66 845.54C359.199 850.757 358.357 855.935 357.14 861.03C355.867 866.16 354.13 871.164 351.95 875.98C350.784 878.553 349.345 880.993 347.66 883.26C345.993 885.513 344.11 887.6 342.04 889.49C337.982 893.166 333.415 896.238 328.48 898.61C323.663 900.94 318.611 902.747 313.41 904C308.231 905.248 302.943 905.985 297.62 906.2C292.164 906.458 286.697 905.977 281.37 904.77C278.489 904.114 275.711 903.071 273.11 901.67C271.67 900.884 270.327 899.93 269.11 898.83C267.721 897.594 266.562 896.122 265.69 894.48C264.133 891.446 263.402 888.056 263.57 884.65C263.722 881.597 264.378 878.59 265.51 875.75C267.584 870.65 270.412 865.89 273.9 861.63C275.54 859.55 277.27 857.56 279.07 855.63C279.96 854.63 280.88 853.74 281.82 852.81C282.76 851.88 283.67 851.02 284.77 850.05L283.38 855.61C277.75 840.27 272.55 824.77 267.94 809.08C263.33 793.39 259.4 777.49 256.18 761.43C254.613 753.43 253.28 745.353 252.18 737.2C251.07 729.08 250.28 720.92 249.88 712.74L249.64 706.6C249.64 704.55 249.55 702.51 249.56 700.46C249.56 696.36 249.71 692.27 249.99 688.18C250.27 684.09 250.68 680.02 251.35 675.99C251.933 671.942 252.908 667.96 254.26 664.1Z" fill="#231F20"/>
<path d="M373.5 591.46C350 594.91 428.39 570.32 552.08 695.83C552.08 695.83 582.52 680.53 594.08 693.53C605.64 706.53 581.92 756.35 548.87 758.43C515.82 760.51 480.36 739.74 454.67 717.58C429.44 730.58 355.12 702.25 337.12 667.24C337.08 667.24 306.82 607.03 373.5 591.46Z" fill="#C9C3C7"/>
<path d="M435.6 609.03C446.796 613.877 457.651 619.477 468.09 625.79C478.62 631.99 488.74 638.85 498.71 645.89C508.68 652.93 518.31 660.48 527.76 668.2C537.21 675.92 546.42 683.94 555.49 692.09L549.81 691.29C551.13 690.64 552.26 690.13 553.49 689.6C554.72 689.07 555.91 688.6 557.13 688.11C559.58 687.16 562.07 686.31 564.62 685.57C569.875 683.937 575.347 683.104 580.85 683.1C583.914 683.123 586.955 683.647 589.85 684.65C593.069 685.781 595.936 687.731 598.17 690.31C599.357 691.741 600.285 693.369 600.91 695.12C601.469 696.671 601.845 698.282 602.03 699.92C602.343 702.858 602.266 705.823 601.8 708.74C600.909 714.129 599.294 719.373 597 724.33C594.801 729.189 592.121 733.815 589 738.14C585.887 742.492 582.313 746.495 578.34 750.08C574.286 753.758 569.722 756.834 564.79 759.21C562.26 760.423 559.617 761.383 556.9 762.08C554.166 762.791 551.363 763.203 548.54 763.31C543.26 763.522 537.971 763.252 532.74 762.5C522.49 760.873 512.506 757.869 503.06 753.57C493.767 749.379 484.871 744.359 476.48 738.57C468.175 732.809 460.271 726.491 452.82 719.66L455.7 720.11C454.9 720.41 454.31 720.581 453.63 720.771C452.95 720.961 452.32 721.131 451.63 721.271C450.32 721.581 449.01 721.8 447.7 721.99C445.089 722.357 442.457 722.561 439.82 722.6C434.612 722.674 429.41 722.202 424.3 721.19C419.252 720.172 414.304 718.712 409.51 716.83C404.767 714.956 400.177 712.716 395.78 710.13C400.421 712.14 405.191 713.834 410.06 715.2C414.874 716.584 419.799 717.545 424.78 718.07C429.696 718.623 434.654 718.677 439.58 718.23C442.012 718.003 444.427 717.622 446.81 717.09C447.99 716.84 449.16 716.52 450.3 716.18C450.88 716.02 451.44 715.83 451.99 715.64C452.506 715.469 453.014 715.272 453.51 715.05C453.954 714.847 454.444 714.772 454.928 714.832C455.412 714.892 455.87 715.085 456.25 715.39L456.38 715.5C463.998 721.688 472.016 727.367 480.38 732.5C488.663 737.634 497.36 742.066 506.38 745.75C515.226 749.393 524.507 751.87 533.99 753.12C538.634 753.689 543.321 753.829 547.99 753.54C552.326 753.264 556.563 752.122 560.45 750.18C568.4 746.31 575.23 739.68 580.58 732.18C583.278 728.405 585.589 724.368 587.48 720.13C589.386 716.04 590.731 711.711 591.48 707.26C591.807 705.257 591.874 703.22 591.68 701.2C591.588 699.719 591.086 698.292 590.23 697.08C589.18 695.876 587.832 694.969 586.32 694.45C584.49 693.832 582.572 693.511 580.64 693.5C576.171 693.538 571.73 694.212 567.45 695.5C565.21 696.13 562.98 696.87 560.77 697.69C559.67 698.1 558.57 698.54 557.49 698.99C556.41 699.44 555.29 699.99 554.37 700.39L554.27 700.44C553.363 700.877 552.344 701.03 551.349 700.878C550.353 700.726 549.426 700.278 548.69 699.59C539.87 691.35 530.98 683.16 521.95 675.15C512.92 667.14 503.75 659.29 494.4 651.66C485.05 644.03 475.52 636.6 465.79 629.42C463.36 627.62 460.89 625.88 458.4 624.15C455.91 622.42 453.4 620.71 450.94 618.97C445.87 615.56 440.79 612.25 435.6 609.03Z" fill="#231F20"/>
<path d="M282.6 696.75C297.15 704.18 312.15 709.98 327.6 712.5C342.798 715.296 358.45 714.294 373.167 709.583C387.885 704.873 401.21 696.601 411.96 685.5C423.05 674.5 431.9 661.06 439.43 646.57C435.947 662.881 428.612 678.121 418.04 691.021C412.631 697.587 406.342 703.374 399.35 708.22C397.6 709.46 395.74 710.52 393.94 711.67C392.14 712.82 390.17 713.67 388.28 714.73C386.39 715.79 384.37 716.47 382.41 717.34L376.36 719.55L370.16 721.26C368.05 721.69 365.96 722.17 363.85 722.54C361.74 722.91 359.6 723.13 357.47 723.33C355.34 723.53 353.2 723.66 351.07 723.67C342.563 723.786 334.08 722.729 325.86 720.53C309.752 716.162 294.921 708.009 282.6 696.75Z" fill="#231F20"/>
<path d="M362.928 676.976C409.717 661.99 428.231 589.218 404.279 514.436C380.327 439.655 322.979 391.181 276.189 406.168C229.399 421.154 210.886 493.926 234.838 568.707C258.79 643.489 316.138 691.963 362.928 676.976Z" fill="white"/>
<path d="M432.44 213.81C405.84 218 379.16 221.18 352.44 224.12C325.72 227.06 299 229.5 272.23 231.67C245.46 233.84 218.68 235.67 191.86 237.12C165.04 238.57 138.19 239.66 111.26 239.78C137.86 235.58 164.54 232.4 191.26 229.46C217.98 226.52 244.7 224.08 271.47 221.93C298.24 219.78 325.02 217.93 351.84 216.49C378.66 215.05 405.51 213.95 432.44 213.81Z" fill="#231F20"/>
<path d="M161.37 188.31C161.37 188.31 68.0201 110.38 30.5201 140.83C-6.9799 171.28 98.8202 273.69 98.8202 273.69L161.37 188.31Z" fill="#C6BFC3"/>
<path d="M149.21 197.03C149.21 197.03 65.21 135.53 47 153.26C28.79 170.99 102.53 258.03 102.53 258.03L149.21 197.03Z" fill="#7A7176"/>
<path d="M362.45 170.2C362.45 170.2 440.38 76.8499 482.72 100.1C525.06 123.35 439.25 243.03 439.25 243.03L362.45 170.2Z" fill="#C6BFC3"/>
<path d="M161.37 188.31C150.94 180.8 140.21 173.79 129.31 167.14C123.85 163.82 118.31 160.7 112.7 157.66C107.09 154.62 101.42 151.81 95.6401 149.23C89.9099 146.651 84.0485 144.375 78.08 142.41C72.2313 140.458 66.2009 139.102 60.08 138.36C54.08 137.7 48.0802 137.82 42.7102 139.44C40.0707 140.214 37.5649 141.388 35.28 142.92C33.0985 144.316 31.2459 146.168 29.8501 148.35C27.2301 152.54 26.6901 158.04 27.5901 163.72C28.6703 169.597 30.5019 175.31 33.04 180.72C35.6391 186.356 38.5779 191.83 41.8401 197.11C45.0901 202.46 48.62 207.68 52.3 212.81C59.64 223.09 67.6101 232.99 75.8501 242.68C84.0901 252.37 92.7002 261.82 101.49 270.9L95.6801 271.4C100.93 264.58 106.16 257.74 111.5 250.92L127.71 230.37L161.37 188.31ZM161.37 188.31L147.14 209.74L132.49 231.62L117.42 253.77C112.33 261.17 107.15 268.57 101.97 275.98L99.4602 279.57L96.1601 276.47C91.3901 272 86.82 267.47 82.33 262.82C77.84 258.17 73.4101 253.46 69.1001 248.63C60.4601 239 52.2002 228.99 44.5102 218.48C36.8202 207.97 29.7002 196.92 24.2302 184.69C21.3444 178.461 19.3256 171.867 18.2302 165.09C17.6826 161.472 17.6556 157.795 18.1501 154.17C18.6821 150.312 20.047 146.617 22.1501 143.34C24.2903 140.145 27.0854 137.442 30.3501 135.41C33.4297 133.421 36.8048 131.933 40.3501 131C47.1665 129.349 54.2493 129.114 61.1601 130.31C67.7524 131.397 74.2184 133.146 80.4602 135.53C86.5974 137.821 92.5857 140.493 98.3901 143.53C109.868 149.563 120.896 156.414 131.39 164.03C136.64 167.77 141.75 171.69 146.76 175.74C151.77 179.79 156.66 183.94 161.37 188.31Z" fill="#231F20"/>
<path d="M362.45 170.2C366.31 165.06 370.38 160.07 374.6 155.2C378.82 150.33 383.13 145.54 387.6 140.93C396.553 131.561 406.172 122.852 416.38 114.87C421.547 110.845 426.961 107.148 432.59 103.8C438.306 100.339 444.356 97.4639 450.65 95.2196C457.235 92.8189 464.244 91.7978 471.24 92.2196C474.905 92.5013 478.502 93.3586 481.9 94.7597C485.478 96.1781 488.714 98.3429 491.39 101.11C494.056 103.949 496.067 107.339 497.28 111.04C498.42 114.518 499.053 118.141 499.16 121.8C499.294 128.665 498.48 135.517 496.74 142.16C493.54 155.16 488.44 167.28 482.83 179.03C477.22 190.78 470.83 202.03 464.01 213.09C460.64 218.61 457.13 224.04 453.54 229.41C449.95 234.78 446.26 240.06 442.37 245.32L439.67 248.95L436.56 245.87C430.14 239.5 423.72 233.15 417.39 226.78L398.61 207.68L380.28 188.77L362.45 170.2ZM362.45 170.2L403.07 205.59L422.69 222.9C429.16 228.66 435.53 234.46 441.91 240.23L436.11 240.78C443.11 230.27 449.9 219.39 456.29 208.42C462.68 197.45 468.75 186.26 474.13 174.83C476.84 169.13 479.37 163.36 481.62 157.52C483.879 151.739 485.79 145.829 487.34 139.82C488.875 134.038 489.655 128.082 489.66 122.1C489.54 116.36 488.02 111.04 484.66 107.38C482.894 105.488 480.742 103.997 478.35 103.01C475.829 101.911 473.155 101.206 470.42 100.92C464.85 100.28 458.91 101.24 453.14 102.92C447.247 104.742 441.552 107.15 436.14 110.11C430.637 113.135 425.297 116.446 420.14 120.03C414.92 123.59 409.83 127.39 404.87 131.37C399.91 135.35 395 139.37 390.22 143.66C380.67 152.13 371.37 160.95 362.45 170.2Z" fill="#231F20"/>
<path d="M375.98 176.6C375.98 176.6 447.68 101.06 468.72 115.27C489.76 129.48 432.8 228.27 432.8 228.27L375.98 176.6Z" fill="#7A7176"/>
<path d="M259.04 147.35C52.3901 168.35 75.3802 356.95 75.3802 356.95C111.6 489.9 287.08 458.69 287.08 458.69C287.08 458.69 465.31 458.04 477.19 320.76C477.19 320.76 466.14 131.03 259.04 147.35Z" fill="#C9C3C7"/>
<path d="M424.03 296.97C424.03 296.97 498.03 302.72 517.96 238.45C517.96 238.45 579.81 306.66 499.45 352.53C499.45 352.53 514.81 362.73 528.73 351.94C528.73 351.94 564.88 415.19 410.37 424.94L424.03 296.97Z" fill="white"/>
<path d="M499.45 352.53C501.725 353.765 504.143 354.716 506.65 355.36C509.127 356.001 511.682 356.293 514.24 356.23C514.88 356.18 515.51 356.23 516.14 356.1L518 355.82C518.62 355.7 519.22 355.51 519.82 355.36C520.13 355.27 520.43 355.22 520.73 355.11L521.6 354.76C523.916 353.852 526.076 352.587 528 351.01L529.1 350.18L529.75 351.35C533.163 357.603 534.613 364.74 533.91 371.83C533.535 375.391 532.628 378.877 531.22 382.17C530.89 383 530.44 383.77 530.05 384.58L529.44 385.78C529.23 386.17 528.97 386.53 528.74 386.91L527.3 389.17C526.79 389.9 526.22 390.58 525.68 391.29C521.181 396.735 515.766 401.354 509.68 404.94C503.755 408.557 497.496 411.598 490.99 414.02C478.099 418.762 464.786 422.265 451.23 424.48C437.78 426.87 424.23 428.24 410.64 429.33L405.48 429.74L405.99 424.48L409.12 392.48L412.43 360.48L415.75 328.48L419.26 296.48L419.77 291.88L424.39 292.21C425.39 292.28 426.65 292.32 427.8 292.34C428.95 292.36 430.17 292.34 431.36 292.34C433.75 292.34 436.14 292.14 438.52 291.95C443.291 291.532 448.034 290.828 452.72 289.84C462.056 287.977 471.06 284.724 479.43 280.19C487.728 275.692 495.06 269.607 501.01 262.28C501.79 261.4 502.45 260.43 503.15 259.48C503.85 258.53 504.59 257.62 505.15 256.6L507.03 253.6L507.51 252.86L507.92 252.07L508.76 250.51C510.989 246.301 512.869 241.916 514.38 237.4L516.55 231.3L520.63 236.01C521.7 237.24 522.55 238.36 523.46 239.55C524.37 240.74 525.2 241.93 526.04 243.13C527.71 245.55 529.27 248.03 530.75 250.56C533.714 255.629 536.217 260.954 538.23 266.47C540.284 272.002 541.723 277.743 542.52 283.59C543.328 289.465 543.292 295.425 542.41 301.29C541.442 307.115 539.587 312.757 536.91 318.02L535.91 319.97L535.4 320.97C535.22 321.28 535.01 321.59 534.82 321.89L532.45 325.58C531.61 326.76 530.66 327.87 529.78 329.02C529.32 329.59 528.88 330.17 528.42 330.72L526.93 332.3C519.014 340.624 509.695 347.492 499.4 352.59C509.01 346.53 517.94 339.32 524.98 330.59C532.097 322.082 536.58 311.685 537.88 300.67C538.96 289.79 536.76 278.79 532.52 268.67C530.386 263.597 527.841 258.708 524.91 254.05C523.44 251.72 521.91 249.44 520.27 247.23C519.45 246.13 518.62 245.03 517.76 243.97C516.9 242.91 516 241.82 515.18 240.97L521.43 239.59C519.939 244.574 518.039 249.427 515.75 254.1C513.454 258.818 510.68 263.288 507.47 267.44C500.975 275.748 492.916 282.705 483.75 287.92C474.682 293.093 464.87 296.837 454.66 299.02C449.603 300.122 444.483 300.917 439.33 301.4C436.75 301.62 434.17 301.81 431.57 301.87C430.28 301.87 428.98 301.93 427.67 301.92C426.36 301.91 425.1 301.92 423.61 301.8L428.74 297.53L425.42 329.53L421.91 361.53L418.39 393.53L414.69 425.53L410.04 420.68C423.41 419.9 436.73 418.68 449.94 416.84C463.113 415.098 476.096 412.136 488.72 407.99C494.97 405.967 501.014 403.356 506.77 400.19C512.473 397.14 517.616 393.143 521.98 388.37C522.5 387.77 523.05 387.18 523.55 386.56L524.94 384.62C525.17 384.29 525.42 383.98 525.62 383.62L526.22 382.62C526.6 381.93 527.04 381.26 527.38 380.55C528.786 377.693 529.759 374.643 530.27 371.5C531.224 365.099 530.315 358.558 527.65 352.66L529.4 353C527.187 354.586 524.737 355.811 522.14 356.63L521.14 356.94C520.81 357.03 520.48 357.07 520.14 357.15C519.47 357.27 518.81 357.42 518.14 357.51L516.14 357.65C515.474 357.685 514.806 357.685 514.14 357.65C511.492 357.512 508.877 357.003 506.37 356.14C503.916 355.244 501.589 354.03 499.45 352.53Z" fill="#231F20"/>
<path d="M122.63 324.12C122.63 324.12 50.8402 343 19.7602 283.32C19.7602 283.32 -28.91 361.48 58.35 392.25C58.35 392.25 45.0601 405.04 29.4401 396.91C29.4401 396.91 5.17014 465.59 158.93 447.59" fill="white"/>
<path d="M122.63 324.12C117.863 325.724 112.969 326.925 108 327.71C102.998 328.525 97.9464 328.999 92.8801 329.13C87.7683 329.255 82.6543 329.001 77.5801 328.37C72.445 327.755 67.3772 326.671 62.4402 325.13C52.3553 322.086 43.0025 317.004 34.9602 310.2C33.9602 309.39 32.9602 308.46 31.9602 307.55C30.9602 306.64 30.0101 305.77 29.1301 304.78C27.3036 302.874 25.5812 300.871 23.9702 298.78C23.1802 297.73 22.3001 296.73 21.5901 295.62L19.3801 292.35C18.6101 291.28 18.0001 290.12 17.3801 288.98L15.4402 285.56L23.8701 285.88C23.5901 286.33 23.2402 286.96 22.9302 287.52L21.9302 289.3C21.3102 290.49 20.7201 291.71 20.1401 292.94C18.9935 295.393 17.9268 297.89 16.9402 300.43C14.9972 305.481 13.4556 310.677 12.3301 315.97C10.1401 326.49 9.91001 337.38 12.77 347.57C14.2596 352.67 16.4938 357.522 19.4001 361.97L20.5002 363.65L21.05 364.5C21.25 364.77 21.4702 365.02 21.6802 365.29L24.2002 368.46C25.0902 369.46 26.0702 370.46 27.0002 371.46L28.4202 372.94L29.9702 374.3C38.1102 381.72 47.97 387.43 58.29 392.3C46.9898 389.663 36.3001 384.883 26.8 378.22C16.8933 371.253 9.35317 361.424 5.19017 350.05C3.20291 344.291 2.05432 338.276 1.78002 332.19C1.52377 326.161 1.95661 320.122 3.07005 314.19C4.14154 308.327 5.74487 302.573 7.86009 297C8.86009 294.23 10.05 291.49 11.3 288.79C11.95 287.46 12.61 286.12 13.3 284.79L14.3801 282.79C14.7601 282.11 15.1101 281.5 15.5701 280.74L20.02 273.52L24.02 281.06C28.304 289.433 34.0088 296.998 40.8801 303.42C47.868 309.79 55.9883 314.793 64.8201 318.17C69.2929 319.922 73.893 321.329 78.5801 322.38C83.3324 323.422 88.1452 324.167 92.9902 324.61C102.858 325.539 112.798 325.374 122.63 324.12Z" fill="#231F20"/>
<path d="M58.3499 392.25C57.4999 393.263 56.5593 394.197 55.5399 395.04C54.53 395.917 53.4572 396.719 52.3299 397.44C50.0286 398.924 47.5219 400.063 44.89 400.82C44.21 400.97 43.54 401.21 42.89 401.3L40.7899 401.62C40.0799 401.68 39.37 401.68 38.65 401.7C38.3 401.7 37.9399 401.7 37.5799 401.7L36.5101 401.6C33.6216 401.343 30.7943 400.617 28.14 399.45L32.2 397.85C32.2 398.09 32.0601 398.5 32.0001 398.85C31.9401 399.2 31.8699 399.6 31.8199 399.97C31.7099 400.72 31.6199 401.49 31.5799 402.26L31.5199 403.41V404.56C31.5199 405.32 31.5199 406.09 31.5899 406.85C31.7832 409.854 32.4097 412.815 33.45 415.64C34.4948 418.405 35.9221 421.011 37.69 423.38C38.12 423.98 38.69 424.51 39.12 425.08L39.8399 425.93C40.0799 426.21 40.37 426.45 40.63 426.72L42.2401 428.28C42.8001 428.78 43.4101 429.23 44.0001 429.7C48.9439 433.47 54.4651 436.415 60.3499 438.42C66.4314 440.579 72.688 442.208 79.0499 443.29C92.1034 445.505 105.303 446.755 118.54 447.03C131.91 447.47 145.37 447.36 158.98 447.57C145.738 450.765 132.262 452.895 118.68 453.94C104.935 455.107 91.1012 454.695 77.45 452.71C75.73 452.42 73.9999 452.21 72.2799 451.84L67.14 450.67C65.43 450.33 63.7399 449.73 62.0299 449.26L59.4901 448.48C58.6501 448.2 57.8201 447.86 56.9801 447.55C50.0852 445.124 43.6855 441.472 38.0899 436.77C37.3899 436.15 36.6801 435.56 36.0101 434.9L34.0799 432.84C33.7599 432.49 33.43 432.16 33.13 431.84L32.2601 430.7C31.7101 429.94 31.0999 429.21 30.5899 428.41C28.4966 425.228 26.911 421.739 25.89 418.07C24.8781 414.451 24.4494 410.694 24.62 406.94C24.6892 405.093 24.8999 403.254 25.2501 401.44C25.4101 400.53 25.63 399.64 25.87 398.74C25.99 398.29 26.1101 397.85 26.2601 397.39C26.4101 396.93 26.5501 396.53 26.7601 395.97L27.9901 392.79L30.8199 394.36C32.8045 395.571 34.963 396.472 37.2201 397.03L38.0699 397.26C38.3599 397.32 38.65 397.34 38.94 397.38C39.53 397.45 40.11 397.55 40.71 397.6H42.5001C43.1001 397.6 43.6999 397.52 44.3099 397.49C46.7889 397.252 49.2243 396.68 51.5499 395.79C53.9434 394.871 56.2247 393.684 58.3499 392.25Z" fill="#231F20"/>
<path d="M471.44 289.88C441.95 259.63 383.94 206.61 342.78 210.44C285.43 215.78 267.42 258.51 267.42 258.51C267.42 258.51 242.07 219.69 184.69 224.68C145.02 228.13 99.3999 286.28 74.9999 321.86C73.2599 342.86 74.9999 356.99 74.9999 356.99C111.23 489.93 286.71 458.73 286.71 458.73C286.71 458.73 464.94 458.08 476.82 320.8C476.79 320.8 476.05 308.24 471.44 289.88Z" fill="white"/>
<path d="M474.79 335.42C452.06 300.35 406.93 248.05 347.62 265.42C260.62 290.86 310.62 350.85 332.62 378.71C342.47 391.16 355.43 419.48 363.91 445.84C410.35 431.33 462.67 400.59 474.79 335.42Z" fill="#7A7176"/>
<path d="M190.48 279.55C130.16 273.2 95.2698 330.42 78.7798 369C101.61 431.83 158.28 453.32 206.69 459.62C210.34 432.27 218 402.3 225.43 388.35C242.14 357.03 280.64 289.03 190.48 279.55Z" fill="#7A7176"/>
<path d="M300.92 351.82C296.32 341.67 291.04 321.51 287.44 281.57C282.62 228.09 307.27 178.98 326.26 149.86C306.53 146.45 284.26 145.36 259.04 147.35C233.59 149.93 211.64 155.07 192.69 162.07C216.56 187.35 249.46 231.19 254.27 284.56C257.87 324.5 256.27 345.28 253.56 356.08C251.64 363.72 256.29 371.23 264.98 374.35L269.09 375.83C272.358 377.028 275.85 377.488 279.317 377.177C282.783 376.866 286.138 375.791 289.14 374.03L292.92 371.84C300.94 367.21 304.14 359.03 300.92 351.82Z" fill="#7A7176"/>
<path d="M264.54 404.26C260.496 404.306 256.557 402.967 253.38 400.463C250.204 397.959 247.98 394.443 247.08 390.5C246.973 390.122 246.944 389.726 246.995 389.337C247.046 388.948 247.176 388.573 247.377 388.235C247.577 387.897 247.844 387.604 248.162 387.373C248.48 387.142 248.842 386.979 249.225 386.893C249.608 386.806 250.005 386.799 250.391 386.871C250.777 386.943 251.144 387.093 251.47 387.312C251.796 387.53 252.074 387.813 252.288 388.143C252.501 388.473 252.645 388.843 252.71 389.23C253.384 392.159 255.133 394.729 257.61 396.43C260.088 398.132 263.114 398.842 266.09 398.42C273.01 397.79 275.66 377.22 275.28 363.51C275.249 363.119 275.298 362.726 275.423 362.354C275.549 361.983 275.749 361.641 276.011 361.349C276.273 361.057 276.591 360.822 276.947 360.657C277.303 360.493 277.689 360.402 278.081 360.391C278.473 360.38 278.863 360.449 279.228 360.594C279.592 360.739 279.923 360.956 280.201 361.233C280.479 361.51 280.697 361.84 280.843 362.204C280.989 362.568 281.06 362.958 281.05 363.35C281.23 369.93 281.4 402.83 266.61 404.16C265.9 404.23 265.21 404.26 264.54 404.26Z" fill="#231F20"/>
<path d="M295.92 401.48C281.79 401.48 276.28 370.24 275.31 363.86C275.194 363.104 275.384 362.333 275.837 361.717C276.29 361.101 276.969 360.69 277.725 360.575C278.481 360.459 279.251 360.649 279.867 361.102C280.484 361.555 280.895 362.234 281.01 362.99C283.12 376.73 289.11 395.71 295.95 395.71H296.29C299.296 395.595 302.149 394.355 304.284 392.237C306.42 390.118 307.682 387.275 307.82 384.27C307.864 383.512 308.202 382.801 308.762 382.289C309.323 381.777 310.061 381.505 310.82 381.53C311.198 381.545 311.569 381.635 311.912 381.794C312.255 381.954 312.563 382.179 312.819 382.458C313.074 382.737 313.272 383.063 313.401 383.419C313.53 383.774 313.588 384.152 313.57 384.53C313.371 388.931 311.543 393.102 308.443 396.232C305.342 399.362 301.189 401.229 296.79 401.47C296.51 401.47 296.21 401.48 295.92 401.48Z" fill="#231F20"/>
<path d="M477.19 320.76C476.379 314.284 475.214 307.858 473.7 301.51C472.24 295.157 470.513 288.887 468.52 282.7C464.6 270.343 459.611 258.351 453.61 246.86C441.71 223.95 425.3 203.46 405.04 187.86C384.648 172.372 361.048 161.643 335.97 156.46C311.02 151 284.97 150.09 259.48 152.17C233.98 154.7 208.55 160.23 184.98 170.07L180.57 171.95C179.11 172.58 177.68 173.29 176.23 173.95C173.32 175.26 170.53 176.8 167.68 178.24C162.076 181.293 156.633 184.63 151.37 188.24C146.14 191.878 141.103 195.787 136.28 199.95C131.484 204.149 126.931 208.616 122.64 213.33C114.06 222.838 106.611 233.308 100.44 244.53C94.2126 255.809 89.169 267.702 85.3902 280.02C81.5304 292.394 78.7632 305.083 77.1202 317.94C76.2602 324.38 75.6802 330.86 75.3802 337.38C75.0202 343.895 75.0202 350.425 75.3802 356.94C73.7121 343.918 73.377 330.76 74.3802 317.67C75.3108 304.504 77.4397 291.45 80.7403 278.67C84.0941 265.827 88.7865 253.373 94.7403 241.51C97.7445 235.56 101.104 229.796 104.8 224.25C108.484 218.669 112.516 213.325 116.87 208.25C121.228 203.172 125.872 198.348 130.78 193.8C135.754 189.312 140.972 185.103 146.41 181.19C151.871 177.319 157.525 173.727 163.35 170.43C166.3 168.87 169.21 167.2 172.23 165.78C173.74 165.05 175.23 164.28 176.74 163.59L181.32 161.59C182.83 160.88 184.39 160.28 185.93 159.65C187.47 159.02 189.03 158.4 190.59 157.81L195.3 156.13L197.66 155.29L200.04 154.53L204.8 153.01C206.39 152.52 208 152.09 209.6 151.63C211.2 151.17 212.8 150.7 214.42 150.31L219.26 149.12C245.113 142.645 271.817 140.239 298.41 141.99L303.41 142.3C305.07 142.4 306.73 142.6 308.41 142.74C310.09 142.88 311.72 143.04 313.41 143.24L318.36 143.88L320.84 144.2L323.31 144.61L328.24 145.43C329.89 145.72 331.52 146.08 333.15 146.43C334.78 146.78 336.42 147.09 338.04 147.51L342.91 148.71C344.53 149.11 346.13 149.61 347.74 150.05C350.97 150.91 354.12 152.05 357.31 153.05C363.631 155.252 369.836 157.775 375.9 160.61C381.947 163.485 387.829 166.693 393.52 170.22C399.161 173.823 404.593 177.742 409.79 181.96C414.98 186.166 419.9 190.695 424.52 195.52C429.158 200.315 433.499 205.387 437.52 210.71C445.501 221.313 452.346 232.726 457.94 244.76C463.471 256.738 467.896 269.197 471.16 281.98C474.483 294.668 476.504 307.662 477.19 320.76Z" fill="#231F20"/>
<path d="M75.3799 356.95C77.1499 362.04 78.8999 367.13 81.1499 372C82.1499 374.48 83.3998 376.86 84.5498 379.28C85.1498 380.47 85.7999 381.63 86.4299 382.81L87.3799 384.58L88.3799 386.3C93.7002 395.494 100.18 403.967 107.66 411.51C111.357 415.276 115.295 418.797 119.45 422.05C123.59 425.32 127.931 428.326 132.45 431.05C136.97 433.75 141.59 436.27 146.35 438.53C151.11 440.79 155.99 442.76 160.95 444.53C165.91 446.3 170.95 447.86 176.06 449.19C181.17 450.52 186.3 451.73 191.49 452.72C201.891 454.665 212.406 455.948 222.97 456.56C233.554 457.211 244.165 457.318 254.76 456.88C260.053 456.667 265.34 456.333 270.62 455.88C273.247 455.64 275.873 455.36 278.5 455.04C281.09 454.73 283.78 454.36 286.22 453.94L286.63 453.87H287.06C289.54 453.87 292.25 453.72 294.86 453.57C297.47 453.42 300.13 453.22 302.76 452.98C308.04 452.507 313.303 451.9 318.55 451.16C329.05 449.702 339.468 447.699 349.76 445.16C360.045 442.67 370.162 439.53 380.05 435.76C384.983 433.853 389.833 431.773 394.6 429.52C399.39 427.3 404.08 424.89 408.6 422.24C413.12 419.59 417.6 416.77 421.9 413.73C426.2 410.69 430.27 407.35 434.23 403.89C438.184 400.412 441.915 396.688 445.4 392.74C448.914 388.804 452.161 384.639 455.12 380.27C461.136 371.513 465.999 362.019 469.59 352.02L470.29 350.14L470.9 348.24C471.31 346.97 471.74 345.7 472.13 344.42C472.82 341.85 473.61 339.28 474.13 336.66C475.47 331.46 476.29 326.15 477.13 320.82C476.74 331.647 475.061 342.389 472.13 352.82C469.144 363.351 464.772 373.439 459.13 382.82C456.287 387.529 453.123 392.036 449.66 396.31C446.221 400.612 442.513 404.694 438.56 408.53C434.631 412.366 430.484 415.972 426.14 419.33C421.767 422.663 417.243 425.793 412.57 428.72C403.237 434.536 393.417 439.532 383.22 443.65C373.068 447.781 362.664 451.261 352.07 454.07C341.49 456.855 330.763 459.052 319.94 460.65C314.53 461.46 309.1 462.09 303.65 462.6C300.923 462.86 298.19 463.073 295.45 463.24C292.68 463.4 290.01 463.54 287.11 463.58L287.94 463.5C285.08 463.98 282.42 464.33 279.67 464.66C276.92 464.99 274.22 465.26 271.49 465.5C266.04 465.97 260.58 466.32 255.12 466.5C244.185 466.863 233.238 466.616 222.33 465.76C211.402 464.884 200.541 463.321 189.81 461.08C179.045 458.841 168.492 455.679 158.27 451.63C148.003 447.624 138.2 442.521 129.03 436.41C124.451 433.359 120.073 430.019 115.92 426.41C111.747 422.829 107.831 418.959 104.2 414.83C96.9605 406.614 90.8528 397.466 86.0398 387.63C81.2764 377.865 77.6978 367.565 75.3799 356.95Z" fill="#231F20"/>
<path d="M232.48 360.54C231.118 355.578 228.968 350.868 226.111 346.59C223.378 342.539 219.956 338.999 216 336.13C208.334 330.529 198.891 327.91 189.435 328.76C179.979 329.61 171.155 333.872 164.611 340.75C161.231 344.28 158.496 348.375 156.53 352.85C154.483 357.571 153.213 362.593 152.77 367.72C151.347 362.437 151.196 356.892 152.33 351.54C153.482 345.998 155.827 340.774 159.2 336.23C162.646 331.592 167.035 327.737 172.08 324.92C173.37 324.26 174.66 323.58 175.99 323C177.32 322.42 178.7 321.94 180.08 321.49C181.46 321.04 182.89 320.75 184.31 320.43L188.631 319.8L192.99 319.65C194.44 319.71 195.9 319.82 197.35 319.93C198.8 320.04 200.21 320.43 201.64 320.68C203.07 320.93 204.45 321.45 205.83 321.87C211.302 323.734 216.314 326.745 220.53 330.7C224.664 334.569 227.906 339.291 230.03 344.54C232.098 349.605 232.937 355.088 232.48 360.54Z" fill="#231F20"/>
<path d="M402.3 345.25C400.946 340.288 398.798 335.577 395.94 331.3C393.202 327.247 389.778 323.704 385.821 320.83C378.155 315.23 368.714 312.611 359.26 313.461C349.805 314.311 340.983 318.572 334.44 325.45C331.057 328.981 328.322 333.08 326.361 337.56C324.312 342.281 323.039 347.302 322.591 352.43C321.176 347.142 321.028 341.595 322.16 336.24C323.318 330.702 325.658 325.48 329.02 320.93C332.465 316.291 336.855 312.436 341.9 309.62C343.19 308.96 344.48 308.29 345.81 307.7C347.14 307.11 348.52 306.65 349.9 306.19C351.28 305.73 352.72 305.46 354.14 305.19L358.46 304.55L362.821 304.4C364.271 304.46 365.72 304.58 367.17 304.68C368.62 304.78 370.04 305.18 371.47 305.44C372.9 305.7 374.27 306.2 375.66 306.62C381.128 308.494 386.138 311.503 390.361 315.45C394.487 319.323 397.724 324.045 399.85 329.29C401.91 334.343 402.749 339.811 402.3 345.25Z" fill="#231F20"/>
<path d="M304.57 360.67C305.32 369 280.85 379.8 280.85 379.8C280.85 379.8 252.43 373.799 251.68 365.429C250.93 357.059 262.16 349.29 276.77 347.97C291.38 346.65 303.82 352.34 304.57 360.67Z" fill="#231F20"/>
<path d="M545.04 212.18C547.96 244.66 424.85 243.18 274.37 256.75C123.89 270.32 3.03005 293.75 0.100047 261.26C-2.82995 228.77 112.43 142.97 262.91 129.42C413.39 115.87 542.14 179.71 545.04 212.18Z" fill="#EECA6C"/>
<path d="M0.140014 261.26C-0.0312168 259.661 0.0123883 258.047 0.269896 256.46C0.553159 254.868 0.978205 253.305 1.53992 251.79C2.68262 248.763 4.1266 245.858 5.84997 243.12C9.33847 237.685 13.3328 232.592 17.7799 227.91C26.706 218.606 36.4373 210.109 46.86 202.52C67.7385 187.398 90.1081 174.451 113.62 163.88C125.32 158.5 137.253 153.656 149.42 149.35C161.586 145.043 173.894 141.213 186.34 137.86C236.315 124.483 288.219 119.805 339.78 124.03C352.64 125.09 365.433 126.66 378.16 128.74C384.52 129.766 390.853 130.936 397.16 132.25C403.467 133.563 409.74 135.023 415.98 136.63C441.004 142.825 465.328 151.567 488.57 162.72C500.18 168.329 511.273 174.952 521.72 182.51C526.932 186.327 531.773 190.626 536.18 195.35C538.36 197.738 540.296 200.337 541.96 203.11C542.779 204.503 543.475 205.965 544.04 207.48C544.579 208.995 544.915 210.576 545.04 212.18C544.469 209.052 543.19 206.097 541.3 203.54C539.47 200.968 537.386 198.586 535.08 196.43C530.451 192.106 525.429 188.222 520.08 184.83C509.385 178.042 498.135 172.171 486.45 167.28C474.812 162.274 462.915 157.894 450.81 154.16C444.75 152.3 438.68 150.51 432.56 148.88C426.44 147.25 420.29 145.75 414.11 144.38C407.93 143.01 401.73 141.75 395.5 140.65C389.27 139.55 383.04 138.46 376.77 137.58C364.25 135.78 351.677 134.476 339.05 133.67C288.527 130.238 237.779 134.804 188.68 147.2C176.413 150.24 164.273 153.77 152.26 157.79C146.26 159.79 140.32 161.95 134.39 164.15C128.46 166.35 122.57 168.69 116.74 171.15C110.91 173.61 105.11 176.15 99.39 178.87C93.67 181.59 88.01 184.42 82.39 187.33C71.1465 193.163 60.2242 199.596 49.67 206.6C39.032 213.504 28.9963 221.295 19.67 229.89C15.0192 234.181 10.7807 238.898 7.01013 243.98C5.12597 246.514 3.50104 249.231 2.16003 252.09C0.794516 254.952 0.103454 258.089 0.140014 261.26Z" fill="#221F1F"/>
<path d="M545.04 212.18C545.221 213.658 545.147 215.157 544.82 216.61C544.419 218.061 543.788 219.438 542.95 220.69C541.146 223.111 538.908 225.176 536.35 226.78C531.234 229.863 525.751 232.292 520.03 234.01C514.379 235.803 508.642 237.311 502.84 238.53C497.05 239.78 491.24 240.86 485.42 241.85C462.1 245.6 438.66 248 415.23 250.13L397.67 251.71L380.1 253.14L344.98 255.97C321.57 257.81 298.18 259.63 274.83 261.83C251.47 263.83 228.12 266.22 204.77 268.61L169.71 272.1L152.17 273.84L134.6 275.42C111.17 277.51 87.6801 279.34 64.0601 279.81C58.1601 279.88 52.2401 279.81 46.3301 279.65C40.4008 279.493 34.4832 279.035 28.6001 278.28C22.6681 277.606 16.8433 276.195 11.2603 274.08C8.45504 272.96 5.88405 271.325 3.68018 269.26C2.62948 268.178 1.75841 266.936 1.1001 265.58C0.523142 264.207 0.184942 262.746 0.100098 261.26C0.321221 262.705 0.788079 264.102 1.48022 265.39C2.21388 266.622 3.13876 267.729 4.22021 268.67C6.47512 270.464 9.0459 271.821 11.8 272.67C17.3553 274.313 23.0919 275.267 28.8801 275.51C40.5491 276.037 52.2399 275.814 63.8801 274.84C75.5401 274.04 87.2001 272.9 98.8801 271.6C110.56 270.3 122.18 268.98 133.88 267.54L151.35 265.36L168.84 263.25L203.84 259.04C227.174 256.373 250.57 253.93 274.03 251.71C297.484 249.71 320.94 247.937 344.4 246.39L379.59 244.28L414.75 242.28C426.47 241.62 438.17 240.82 449.86 240.03C461.55 239.24 473.23 238.26 484.86 236.97C496.475 235.846 508.006 233.975 519.38 231.37C525.034 230.099 530.509 228.134 535.68 225.52C538.238 224.206 540.527 222.425 542.43 220.27C543.328 219.151 544.04 217.895 544.54 216.55C544.959 215.133 545.128 213.654 545.04 212.18Z" fill="#221F1F"/>
<path d="M110.42 202.82C110.42 202.82 106.19 92.57 136.8 55.25C136.8 55.25 201.8 9.52002 254.26 4.80002C306.72 0.080018 379.64 33.3801 379.64 33.3801C379.64 33.3801 434.01 135.44 430.43 174C430.43 174 332.09 218.67 271.43 224.13C210.77 229.59 110.42 202.82 110.42 202.82Z" fill="#EECA6C"/>
<path d="M430.43 174.03C431.32 164.49 428.65 151.03 424.14 136.25C424.14 136.25 321.29 170.56 267.05 175.44C212.81 180.32 110.76 164.44 110.76 164.44C109.76 186.57 110.42 202.82 110.42 202.82C110.42 202.82 210.79 229.59 271.42 224.13C332.05 218.67 430.43 174.03 430.43 174.03Z" fill="#6874B5"/>
<path d="M379.64 33.3799C386.1 44.1799 392.13 55.2299 397.93 66.3799C403.73 77.5299 409.23 88.8997 414.29 100.47C416.843 106.236 419.29 112.066 421.63 117.96C423.94 123.85 426.06 129.84 428.04 135.89C430.034 141.99 431.703 148.192 433.04 154.47C433.41 156.05 433.66 157.67 433.95 159.28C434.24 160.89 434.41 162.54 434.6 164.18C434.79 165.82 434.84 167.53 434.94 169.18C434.985 170.036 434.985 170.894 434.94 171.75L434.85 174.36L434.76 176.85L432.25 178.01C425.91 180.95 419.61 183.72 413.25 186.46C410.07 187.82 406.9 189.19 403.7 190.51C400.5 191.83 397.32 193.17 394.1 194.43C387.68 197.02 381.21 199.43 374.74 201.93L364.98 205.47C361.73 206.66 358.43 207.74 355.16 208.88C342.04 213.33 328.79 217.46 315.28 220.88C301.77 224.3 288.11 227.28 273.98 228.47C273.11 228.55 272.23 228.69 271.35 228.73L268.71 228.85L263.42 229.08C259.89 229.32 256.42 229.19 252.9 229.16L247.64 229.09C245.9 229.09 244.16 228.91 242.42 228.81L237.2 228.47C235.46 228.35 233.72 228.27 232 228.07L221.62 227.02C218.17 226.64 214.74 226.14 211.3 225.7C209.59 225.47 207.87 225.27 206.15 225.01L201.02 224.19C197.61 223.61 194.18 223.12 190.79 222.46L180.59 220.57L170.44 218.5C167.05 217.82 163.69 216.99 160.33 216.24C156.97 215.49 153.6 214.68 150.25 213.86L145.25 212.65L140.25 211.34C136.916 210.48 133.583 209.586 130.25 208.66C123.583 206.846 116.973 204.89 110.42 202.79C137.42 208.19 164.56 212.79 191.76 216.26C205.37 217.82 218.97 219.34 232.58 219.98C246.19 220.62 259.76 220.71 273.07 219.21C276.4 218.74 279.72 218.34 283.07 217.82L293.07 215.9C294.73 215.62 296.38 215.2 298.07 214.82L303.07 213.66C304.72 213.27 306.37 212.91 308.02 212.5L312.95 211.17L317.87 209.84C319.52 209.41 321.16 208.97 322.79 208.47L332.6 205.57C335.86 204.57 339.1 203.5 342.36 202.46L347.23 200.9L352.09 199.26C365.09 194.91 377.91 190.2 390.69 185.26C403.47 180.32 416.25 175.26 428.69 169.87L426.1 173.52C426.61 168 425.92 161.96 424.95 156C423.897 149.95 422.518 143.961 420.82 138.06C419.15 132.06 417.27 126.17 415.28 120.27C413.29 114.37 411.2 108.49 408.99 102.64C404.543 90.9599 399.877 79.3465 394.99 67.7998C390.103 56.2531 384.987 44.7799 379.64 33.3799Z" fill="#221F1F"/>
<path d="M110.42 202.82C110.09 199.66 109.87 196.49 109.66 193.32C109.45 190.15 109.29 186.97 109.17 183.79C108.91 177.44 108.77 171.07 108.8 164.71C108.8 151.97 109.387 139.226 110.56 126.48C111.14 120.1 111.957 113.74 113.01 107.4C114.07 101.06 115.26 94.7099 116.89 88.3999C118.49 82.0463 120.539 75.8138 123.02 69.7497C125.535 63.4491 128.925 57.5342 133.09 52.1797L133.46 51.6997L134.04 51.2898C138.59 48.0498 143.11 45.1197 147.74 42.1897C152.37 39.2597 157.02 36.4597 161.74 33.7497C171.22 28.3397 180.89 23.2397 190.85 18.6997C195.85 16.4397 200.85 14.2297 205.98 12.2497C211.11 10.2697 216.28 8.40976 221.56 6.78976C232.171 3.39359 243.129 1.1998 254.23 0.249724C265.315 -0.383532 276.436 0.21009 287.39 2.01974C292.82 2.83974 298.18 3.93986 303.51 5.13986C308.84 6.33986 314.1 7.79978 319.32 9.30978C329.78 12.3098 340.01 15.9597 350.09 19.9297C360.155 23.9059 370.014 28.385 379.63 33.3498C359.446 25.9353 338.811 19.8095 317.85 15.0097C312.63 13.8697 307.4 12.7997 302.15 11.9397C296.9 11.0797 291.64 10.2497 286.38 9.7297C275.968 8.49207 265.455 8.33124 255.01 9.24972C249.851 9.8324 244.729 10.7073 239.67 11.8698C234.58 13.0398 229.55 14.5599 224.54 16.1499C214.508 19.5035 204.679 23.4332 195.1 27.9196C185.49 32.4096 176.01 37.2798 166.74 42.5298C162.11 45.1598 157.5 47.8298 152.95 50.6098C148.4 53.3898 143.87 56.2596 139.56 59.1596L140.51 58.2697C136.801 62.8817 133.726 67.9705 131.37 73.3999C128.89 79.0119 126.772 84.7768 125.03 90.6596C121.554 102.668 118.905 114.9 117.1 127.27C116.1 133.48 115.28 139.72 114.58 145.99C113.88 152.26 113.19 158.54 112.68 164.84C111.66 177.48 110.84 190.12 110.42 202.82Z" fill="#221F1F"/>
<path d="M110.76 164.44C137.38 165.82 163.88 167.69 190.36 169.14C196.98 169.55 203.59 169.82 210.2 170.14C216.81 170.46 223.41 170.72 230 170.83C233.29 170.92 236.59 171.03 239.87 171.02H244.8H247.26L249.71 170.96C256.26 170.87 262.71 170.66 269.1 169.96C275.49 169.26 281.96 168.21 288.41 167.05L298.1 165.23L307.79 163.23C320.7 160.47 333.61 157.51 346.52 154.47C372.33 148.38 398.14 142.03 424.14 136.17C399.39 146.09 374.14 154.58 348.58 162.17L338.98 164.98L329.33 167.64C326.123 168.54 322.897 169.393 319.65 170.2C316.4 171 313.18 171.87 309.92 172.62C296.833 175.907 283.558 178.399 270.17 180.08C256.47 181.49 243 181.08 229.62 180.43C216.24 179.78 202.94 178.54 189.69 177.02C176.44 175.5 163.22 173.73 150.07 171.62C136.92 169.51 123.79 167.32 110.76 164.44Z" fill="#221F1F"/>
<path d="M411.22 298.89C410.701 298.884 410.192 298.744 409.743 298.483C409.295 298.221 408.921 297.849 408.66 297.4C407.99 296.23 391.83 268.78 360.82 275.18C360.442 275.258 360.052 275.261 359.673 275.188C359.293 275.116 358.932 274.969 358.609 274.757C357.957 274.329 357.503 273.659 357.345 272.895C357.187 272.131 357.339 271.336 357.768 270.684C358.196 270.032 358.866 269.577 359.63 269.42C394.89 262.13 413.63 294.16 413.77 294.48C414.01 294.93 414.131 295.433 414.122 295.943C414.114 296.453 413.975 296.952 413.72 297.393C413.465 297.834 413.101 298.203 412.664 298.465C412.226 298.727 411.73 298.873 411.22 298.89Z" fill="#231F20"/>
<path d="M140.59 324.13C140.122 324.13 139.66 324.018 139.243 323.804C138.826 323.589 138.467 323.278 138.195 322.897C137.923 322.515 137.746 322.074 137.679 321.61C137.612 321.146 137.657 320.673 137.81 320.23C137.93 319.87 150.35 284.94 186.38 285.58C186.781 285.564 187.181 285.631 187.555 285.775C187.929 285.919 188.271 286.138 188.558 286.419C188.844 286.7 189.071 287.036 189.223 287.407C189.375 287.778 189.451 288.177 189.444 288.578C189.437 288.979 189.348 289.375 189.183 289.74C189.019 290.106 188.781 290.434 188.485 290.705C188.189 290.976 187.84 291.183 187.461 291.315C187.082 291.446 186.68 291.499 186.28 291.47C154.57 290.93 143.82 320.87 143.38 322.15C143.172 322.725 142.793 323.223 142.295 323.577C141.796 323.931 141.202 324.124 140.59 324.13Z" fill="#231F20"/>
<path d="M191.54 403.45C177.072 404.752 162.543 401.735 149.79 394.78C137.036 387.824 126.632 377.244 119.892 364.376C113.152 351.508 110.379 336.929 111.923 322.485C113.468 308.041 119.261 294.379 128.57 283.228C137.879 272.076 150.286 263.935 164.221 259.834C178.157 255.732 192.995 255.856 206.861 260.188C220.726 264.52 232.996 272.866 242.118 284.171C251.24 295.476 256.806 309.232 258.11 323.7C259.838 343.099 253.799 362.391 241.318 377.343C228.838 392.294 210.936 401.683 191.54 403.45ZM179.68 271.8C168.111 272.842 157.111 277.29 148.071 284.584C139.03 291.877 132.355 301.687 128.89 312.774C125.425 323.86 125.326 335.726 128.604 346.869C131.882 358.012 138.391 367.933 147.308 375.377C156.225 382.821 167.149 387.454 178.698 388.69C190.248 389.926 201.905 387.709 212.194 382.32C222.484 376.931 230.945 368.612 236.506 358.414C242.068 348.217 244.481 336.599 243.44 325.03C242.029 309.522 234.523 295.208 222.569 285.229C210.615 275.249 195.191 270.42 179.68 271.8Z" fill="#221E57"/>
<path opacity="0.37" d="M240.825 347.471C250.496 316.516 233.241 283.583 202.287 273.912C171.332 264.241 138.399 281.495 128.728 312.449C119.057 343.404 136.311 376.337 167.265 386.008C198.22 395.679 231.154 378.425 240.825 347.471Z" fill="#69A9DC"/>
<path opacity="0.44" d="M161.88 384.28L239.44 352.12C242.917 343.472 244.278 334.119 243.408 324.839C242.539 315.559 239.464 306.621 234.44 298.77L128.34 345.83C130.687 354.345 134.921 362.222 140.727 368.878C146.533 375.534 153.763 380.798 161.88 384.28Z" fill="white"/>
<path d="M370.4 387.34C355.932 388.642 341.403 385.625 328.649 378.669C315.896 371.714 305.492 361.133 298.752 348.265C292.012 335.397 289.238 320.819 290.783 306.375C292.328 291.931 298.121 278.269 307.43 267.117C316.739 255.965 329.145 247.824 343.081 243.723C357.017 239.622 371.855 239.745 385.721 244.077C399.586 248.409 411.856 256.756 420.978 268.061C430.1 279.366 435.666 293.122 436.97 307.59C438.698 326.989 432.659 346.281 420.179 361.232C407.698 376.184 389.795 385.573 370.4 387.34ZM358.55 255.7C346.983 256.742 335.985 261.19 326.946 268.483C317.907 275.776 311.233 285.585 307.769 296.67C304.306 307.756 304.207 319.619 307.486 330.761C310.765 341.902 317.274 351.822 326.19 359.264C335.107 366.706 346.029 371.337 357.578 372.571C369.126 373.805 380.781 371.587 391.068 366.197C401.356 360.807 409.814 352.488 415.373 342.291C420.933 332.094 423.343 320.477 422.3 308.91C420.886 293.406 413.38 279.097 401.429 269.122C389.477 259.146 374.057 254.319 358.55 255.7Z" fill="#221E57"/>
<path opacity="0.37" d="M419.675 331.365C429.346 300.41 412.092 267.476 381.138 257.805C350.183 248.134 317.249 265.388 307.579 296.343C297.908 327.298 315.162 360.231 346.116 369.902C377.071 379.573 410.004 362.319 419.675 331.365Z" fill="#69A9DC"/>
<path opacity="0.44" d="M340.74 368.17L418.3 336.01C421.778 327.362 423.138 318.009 422.269 308.729C421.399 299.448 418.324 290.511 413.3 282.66L307.17 329.72C309.521 338.237 313.759 346.117 319.57 352.773C325.382 359.429 332.617 364.692 340.74 368.17Z" fill="white"/>
<path d="M305.78 324.51L295 325.51C294.519 320.163 291.933 315.227 287.812 311.786C283.691 308.346 278.372 306.683 273.025 307.165C267.678 307.646 262.742 310.232 259.301 314.353C255.861 318.474 254.199 323.793 254.68 329.14L243.9 330.14C243.46 326.039 243.841 321.891 245.021 317.939C246.2 313.987 248.155 310.309 250.771 307.12C253.387 303.931 256.611 301.295 260.256 299.366C263.902 297.436 267.895 296.251 272.002 295.881C276.11 295.51 280.251 295.962 284.182 297.208C288.114 298.455 291.758 300.471 294.902 303.141C298.046 305.81 300.628 309.079 302.495 312.756C304.363 316.434 305.48 320.446 305.78 324.56V324.51Z" fill="#221E57"/>
<path d="M215.19 487.24C215.19 487.24 211.41 493.719 180.7 466.329C152.16 440.869 145.65 411.05 120.12 419.22C98.6401 426.1 116.91 467.87 141.12 500.86C168.55 538.21 216.21 567.289 216.21 567.289" fill="#C9C3C7"/>
<path d="M215.19 487.24C214.956 487.605 214.603 487.878 214.19 488.01C213.77 488.156 213.333 488.244 212.89 488.27C212.016 488.311 211.14 488.25 210.28 488.09C208.592 487.743 206.939 487.244 205.34 486.6C203.75 485.976 202.197 485.262 200.69 484.46C199.17 483.69 197.69 482.86 196.23 482.01C190.483 478.512 184.965 474.651 179.71 470.45C174.439 466.163 169.526 461.454 165.02 456.37C160.45 451.37 156.31 446.07 152.19 440.95C148.07 435.83 144.05 430.75 139.54 427.12C137.488 425.374 135.108 424.055 132.54 423.24C130.058 422.545 127.447 422.445 124.92 422.95C124.25 423.06 123.58 423.22 122.92 423.4C122.26 423.58 121.51 423.8 121.02 423.98C120.027 424.341 119.109 424.879 118.31 425.57C116.737 427.161 115.759 429.244 115.54 431.47C115.182 434.284 115.246 437.135 115.73 439.93C116.224 442.974 116.926 445.981 117.83 448.93C119.754 455.018 122.121 460.957 124.91 466.7C127.7 472.51 130.77 478.24 134.09 483.84C137.41 489.44 140.9 494.97 144.63 500.3C148.429 505.589 152.504 510.672 156.84 515.53C165.618 525.288 175.029 534.457 185.01 542.98C189.99 547.287 195.083 551.47 200.29 555.53C205.5 559.58 210.79 563.53 216.23 567.31C204.714 560.726 193.635 553.408 183.06 545.4C177.773 541.4 172.603 537.216 167.55 532.85C162.55 528.51 157.61 523.96 152.94 519.16C148.241 514.363 143.799 509.323 139.63 504.06C135.41 498.82 131.48 493.41 127.75 487.82C124.001 482.219 120.543 476.427 117.39 470.47C114.156 464.437 111.414 458.153 109.19 451.68C108.057 448.331 107.178 444.901 106.56 441.42C105.865 437.697 105.74 433.89 106.19 430.13C106.452 428.035 107.032 425.991 107.91 424.07C108.858 421.98 110.219 420.102 111.91 418.55C113.584 417.038 115.528 415.854 117.64 415.06C118.7 414.67 119.54 414.42 120.47 414.16C121.4 413.9 122.33 413.7 123.29 413.53C127.279 412.771 131.392 412.969 135.29 414.11C139.056 415.295 142.546 417.227 145.55 419.79C148.272 422.108 150.788 424.658 153.07 427.41C155.31 430.05 157.38 432.7 159.4 435.35C163.4 440.66 167.32 445.84 171.45 450.81C175.577 455.739 179.998 460.415 184.69 464.81C187.02 467.11 189.38 469.37 191.69 471.63C194 473.89 196.46 476.09 198.92 478.21C201.344 480.349 203.885 482.352 206.53 484.21C207.837 485.144 209.222 485.963 210.67 486.66C211.377 487.021 212.126 487.293 212.9 487.47C213.275 487.603 213.675 487.651 214.071 487.611C214.466 487.571 214.849 487.445 215.19 487.24Z" fill="#221F1F"/>
</g>
<defs>
<clipPath id="clip0_4357_581">
<rect width="602.21" height="918.29" fill="white"/>
</clipPath>
</defs>
</svg>
