<svg width="246" height="279" viewBox="0 0 246 279" fill="none" xmlns="http://www.w3.org/2000/svg">
<g clip-path="url(#clip0_5015_976)">
<path d="M139.7 278.463C138.778 278.463 137.868 278.248 137.044 277.834C136.22 277.42 135.504 276.819 134.954 276.078C134.403 275.338 134.034 274.48 133.875 273.571C133.716 272.663 133.772 271.729 134.038 270.846L134.361 269.783C139.089 254.069 141.97 244.566 138.959 221.059C138.656 218.695 133.782 216.201 128.621 213.573C117.131 207.718 100.185 199.07 98.0139 174.212C86.1108 173.589 76.17 169.984 68.4237 163.471C64.4731 160.137 61.1562 156.118 58.6326 151.607C58.1716 151.639 57.6909 151.654 57.2023 151.654C52.2457 151.654 48.1401 149.952 45.3229 146.852C44.1322 147.245 42.8852 147.442 41.6311 147.435C38.2386 147.435 34.8777 146.067 32.5176 144.818C30.1118 145.843 27.5315 146.395 24.9172 146.446C16.9503 146.446 12.7344 140.859 10.8392 135.729C7.72857 134.852 4.972 133.02 2.959 130.492C0.161529 126.903 -0.693475 122.198 0.555536 117.238C1.93851 111.753 5.18121 107.986 9.54684 106.599C9.37469 103.017 10.3778 99.4765 12.4034 96.5168C11.6084 94.24 11.2462 91.8345 11.3356 89.4246C11.4453 87.9334 12.116 86.5392 13.2128 85.5229C14.3095 84.5067 15.7506 83.9438 17.2458 83.9479C17.4507 83.9479 17.6398 83.9478 17.8605 83.9794C20.2004 84.2205 22.4839 84.849 24.6177 85.8391C27.1695 84.7292 30.0468 84.6264 32.6713 85.5515C34.139 84.0889 35.9782 83.0549 37.9904 82.5609C38.1649 81.9475 38.389 81.3493 38.6602 80.7721C36.7201 79.5483 35.1539 77.8145 34.1331 75.7603C30.6995 74.9083 27.5525 73.1629 25.0117 70.7012C24.4658 70.1283 24.0404 69.4515 23.761 68.7111C23.4815 67.9707 23.3536 67.1816 23.3848 66.3908C23.416 65.6 23.6058 64.8235 23.9428 64.1075C24.2798 63.3914 24.7572 62.7503 25.3466 62.2222C26.3384 61.3361 27.4109 60.5446 28.5499 59.8581C28.3325 57.7253 28.5332 55.5705 29.141 53.5145C28.5815 49.9684 28.0574 42.0883 32.7855 35.5792C34.7556 32.8566 38.2505 29.6454 44.2315 28.0024C44.2985 22.7148 45.9731 16.4894 51.4498 12.6912C51.9423 9.17392 53.3605 5.85067 55.5593 3.06159C56.0727 2.45701 56.7025 1.96194 57.4112 1.60589C58.1199 1.24983 58.8931 1.04006 59.6846 0.989094C59.8067 0.989094 59.9328 0.989094 60.055 0.989094C61.5185 0.986542 62.9308 1.52707 64.0187 2.50603C64.1881 2.66364 64.3575 2.81731 64.523 2.97885C64.9949 2.64169 65.487 2.33377 65.9966 2.05686C66.6977 1.69043 67.4653 1.4685 68.2538 1.40421C69.0423 1.33991 69.8356 1.43456 70.5868 1.68256C71.1179 1.85879 71.6218 2.1081 72.0841 2.4233C73.6859 2.74443 75.227 3.3162 76.6507 4.11753C78.3236 3.7979 80.0223 3.63173 81.7255 3.62108C85.2085 3.62108 87.8326 4.4091 89.7751 5.44534C89.8497 4.45795 90.1712 3.50512 90.7101 2.67437C91.2489 1.84363 91.9879 1.16159 92.8591 0.690894C93.7303 0.220196 94.7057 -0.0240696 95.6959 -0.0194674C96.6861 -0.0148652 97.6593 0.238458 98.5261 0.717233C101.672 2.40774 104.522 4.59807 106.966 7.20264C113.889 7.93549 120.362 10.532 125.394 14.6415C129.188 17.7306 131.97 21.5328 133.357 25.3744C136.393 26.3506 139.107 28.1333 141.209 30.5319C143.02 32.6779 144.242 35.2576 144.755 38.0181C148.412 39.0544 153.297 41.9819 155.894 50.0394C157.013 50.2723 158.097 50.6525 159.117 51.1702C158.163 48.0969 157.706 44.1647 159.448 40.3822C161.304 36.3554 164.984 33.684 170.413 32.3877C173.128 27.368 178.632 21.5761 187.438 21.5761C189.764 21.5956 192.073 21.9771 194.282 22.7069C196.39 21.1939 199.353 19.6967 202.801 19.6967C205.11 19.6967 209.105 20.4256 212.497 24.7518C215.447 25.0432 218.344 25.731 221.11 26.7967C226.969 29.1253 230.929 33.1009 232.639 38.2782C235.028 38.6698 237.309 39.554 239.337 40.8747C240.583 41.7414 241.448 43.0541 241.752 44.541C242.057 46.0278 241.777 47.5747 240.972 48.8613C244.255 52.498 246.032 57.4822 246.016 63.3569C246.016 68.286 244.723 72.6595 242.221 76.3947C242.506 78.4883 242.4 80.6167 241.906 82.6713C244.243 85.7642 246.138 90.5278 244.901 97.4466C243.841 103.357 240.791 108.109 236.146 111.237C236.465 114.999 235.718 118.774 233.991 122.131C233.601 122.82 233.076 123.423 232.449 123.904C231.821 124.386 231.104 124.737 230.338 124.937C229.852 125.065 229.351 125.13 228.849 125.13C227.766 125.13 226.705 124.833 225.779 124.271C224.439 123.459 223.192 122.502 222.06 121.418C221.467 121.82 220.845 122.178 220.2 122.49C211.3 135.492 197.107 143.652 180.011 145.595C174.239 146.658 168.427 146.749 162.494 146.749H160.279C155.705 146.749 151.568 146.796 147.565 147.309C144.609 148.885 142.47 152.431 141.78 157.013C140.992 162.375 142.415 167.691 145.382 170.378C148.069 172.08 150.606 172.32 154.074 172.647C161.225 173.325 170.126 174.172 180.941 188.1C181 188.175 181.059 188.254 181.114 188.333C189.515 200.327 193.388 213.845 197.131 226.918C197.694 228.888 198.258 230.858 198.837 232.828L198.872 232.954C201.481 242.556 204.148 251.414 206.973 260.791C207.974 264.109 208.983 267.458 210.003 270.886C210.265 271.768 210.318 272.699 210.156 273.604C209.995 274.51 209.624 275.366 209.074 276.103C208.524 276.84 207.809 277.439 206.987 277.851C206.165 278.264 205.257 278.478 204.337 278.478L139.7 278.463ZM91.5363 153.278C94.0128 153.876 96.5406 154.238 99.0856 154.357C99.3325 152.926 99.6109 151.481 99.9209 150.023C100.752 146.065 101.971 142.198 103.562 138.479C101.228 140.735 98.4084 142.425 95.3188 143.42C94.6071 146.891 93.3292 150.221 91.5363 153.278ZM109.373 127.6C109.318 127.872 109.255 128.144 109.192 128.412C110.185 127.008 111.25 125.658 112.383 124.365L112.206 124.263C111.773 123.999 111.347 123.719 110.937 123.428C110.98 124.969 110.419 126.467 109.373 127.6Z" fill="black"/>
<path d="M154.026 107.482C154.026 107.482 149.582 120.315 139.625 114.799C139.625 114.799 134.55 124.023 127.805 113.747C127.805 113.747 116.379 117.506 113.227 108.455C113.227 108.455 101.048 112.025 98.4827 101.017C95.9808 90.2876 103.664 89.0622 103.664 89.0622C103.664 89.0622 97.7538 80.6068 107.998 75.3744C107.998 75.3744 102.246 62.2696 117.088 63.0537C117.088 63.0537 123.766 50.4966 136.111 59.2396C136.111 59.2396 144.566 52.4469 147.643 62.1002C147.643 62.1002 166.28 64.9843 160.346 80.1458C160.346 80.1458 171.26 82.3326 169.05 94.6926C166.808 107.262 154.026 107.482 154.026 107.482Z" fill="#124C2D"/>
<path d="M224.034 109.208C224.034 109.208 219.59 122.037 209.633 116.513C209.633 116.513 204.558 125.733 197.813 115.457C197.813 115.457 186.386 119.22 183.234 110.166C183.234 110.166 171.055 113.739 168.49 102.727C165.988 92.0019 173.672 90.7647 173.672 90.7647C173.672 90.7647 167.761 82.3132 178.006 77.0808C178.006 77.0808 172.253 63.9721 187.096 64.7601C187.096 64.7601 193.794 52.199 206.118 60.9421C206.118 60.9421 214.574 54.1494 217.651 63.8026C217.651 63.8026 236.288 66.6868 230.354 81.8522C230.354 81.8522 241.268 84.039 239.058 96.3951C236.816 108.984 224.034 109.208 224.034 109.208Z" fill="#124C2D"/>
<path d="M82.7736 38.8302C82.7736 38.8302 85.3504 13.4796 101.603 12.9123C117.856 12.3449 128.049 23.0619 128.396 30.3157C128.396 30.3157 140.315 31.0564 139.113 43.6017C139.113 43.6017 148.609 40.7451 151.174 55.6781C151.174 55.6781 162.052 54.102 158.211 65.3668C158.211 65.3668 170.527 70.3865 162.214 76.9073C162.214 76.9073 171.903 81.5921 161.111 90.1303C161.111 90.1303 161.899 101.99 147.825 98.5109C147.825 98.5109 147.872 106.084 136.004 104.543C124.137 103.003 127.773 95.5204 127.773 95.5204C127.773 95.5204 118.833 101.245 115.756 94.1965C115.756 94.1965 109.121 103.401 100.346 96.0483C100.346 96.0483 73.8571 107.869 75.9887 82.2816C75.9887 82.2816 61.8911 79.1532 65.6342 65.4338C65.6342 65.4338 57.2457 53.1958 66.9344 45.8121C76.6231 38.4283 82.7736 38.8302 82.7736 38.8302Z" fill="#1C6A43"/>
<path d="M221.453 52.6044C221.453 52.6044 219.278 31.2175 205.571 30.7408C191.863 30.264 183.258 39.3026 182.958 45.4176C182.958 45.4176 172.903 46.0441 173.896 56.6311C173.896 56.6311 165.886 54.2198 163.723 66.8163C163.723 66.8163 154.546 65.4885 157.785 74.9881C157.785 74.9881 147.395 79.2237 154.408 84.7241C154.408 84.7241 146.233 88.6641 155.338 95.8824C155.338 95.8824 154.684 105.886 166.548 102.951C166.548 102.951 166.505 109.342 176.532 108.042C186.56 106.741 183.479 100.429 183.479 100.429C183.479 100.429 191.016 105.256 193.616 99.3142C193.616 99.3142 199.211 107.076 206.619 100.89C206.619 100.89 228.967 110.851 227.166 89.2788C227.166 89.2788 239.061 86.635 235.902 75.0629C235.902 75.0629 242.994 64.7399 234.806 58.5145C226.619 52.2892 221.453 52.6044 221.453 52.6044Z" fill="#1C6A43"/>
<path d="M221.043 97.2188C235.255 107.857 228.833 119.212 228.833 119.212C228.833 119.212 226.193 104.004 221.043 97.2188Z" fill="#124C2D"/>
<path d="M228.833 119.212C218.041 112.656 221.043 97.2188 221.043 97.2188C226.193 104.004 228.833 119.212 228.833 119.212Z" fill="#124C2D"/>
<path d="M107.486 97.2188C121.698 107.857 115.275 119.212 115.275 119.212C115.275 119.212 112.64 104.004 107.486 97.2188Z" fill="#124C2D"/>
<path d="M115.275 119.212C104.484 112.656 107.486 97.2188 107.486 97.2188C112.64 104.004 115.275 119.212 115.275 119.212Z" fill="#124C2D"/>
<path d="M222.08 78.7305C237.619 87.3278 232.816 99.4317 232.816 99.4317C232.816 99.4317 228.112 84.7391 222.08 78.7305Z" fill="#1C6A43"/>
<path d="M232.816 99.4318C221.229 94.4239 222.08 78.7227 222.08 78.7227C228.112 84.7392 232.816 99.4318 232.816 99.4318Z" fill="#1C6A43"/>
<path d="M95.6616 5.91016C111.205 14.5074 106.402 26.6193 106.402 26.6193C106.402 26.6193 101.698 11.9188 95.6616 5.91016Z" fill="#1C6A43"/>
<path d="M106.402 26.6193C94.8106 21.6114 95.6616 5.91016 95.6616 5.91016C101.698 11.9188 106.402 26.6193 106.402 26.6193Z" fill="#1C6A43"/>
<path d="M88.6483 138.714C88.6483 138.714 84.2038 151.539 74.263 146.019C74.263 146.019 69.1881 155.239 62.4427 144.963C62.4427 144.963 51.0164 148.722 47.8643 139.672C47.8643 139.672 35.6855 143.241 33.1205 132.233C30.6185 121.504 38.3017 120.278 38.3017 120.278C38.3017 120.278 32.3916 111.823 42.6358 106.59C42.6358 106.59 36.8833 93.4857 51.7256 94.2737C51.7256 94.2737 58.4238 81.7127 70.7484 90.4558C70.7484 90.4558 79.2039 83.6631 82.2811 93.3163C82.2811 93.3163 100.918 96.2005 94.984 111.362C94.984 111.362 105.898 113.549 103.688 125.909C101.45 138.49 88.6483 138.714 88.6483 138.714Z" fill="#124C2D"/>
<path d="M209.136 82.3561C208.999 84.9949 208.728 87.625 208.325 90.2363C206.954 102.057 202.021 109.326 195.003 113.384C197.687 100.823 195.098 86.8872 194.921 85.9652L190.062 86.899C190.106 87.1315 193.183 103.719 189.274 115.878C181.442 118.317 171.938 117.994 162.06 116.099C154.913 114.318 148.376 113.932 142.486 114.665C142.199 110.315 140.744 106.122 138.274 102.529C134.952 97.7422 128.589 92.2852 116.603 90.8273C114.283 84.3262 116.922 77.6516 116.954 77.5728L114.665 76.6351L116.954 77.5807L112.379 75.6895C112.226 76.0835 109.456 82.9392 111.308 90.4609C110.218 90.4372 109.086 90.4451 107.911 90.4845C105.13 90.5791 103.061 89.9487 101.576 88.5539C99.2117 86.3395 98.6088 82.4034 98.5734 81.0677V81.1071L87.8957 81.2332C87.8957 82.167 88.1755 90.5121 94.1644 96.2331C97.7381 99.6413 102.616 101.355 108.278 101.146C118.546 100.792 125.89 103.373 129.519 108.601C131.279 111.198 132.081 114.327 131.788 117.451C117.77 123.246 108.865 136.398 105.725 151.229C105.043 154.436 104.543 157.454 104.216 160.291C95.1967 160.63 87.6869 159.109 81.7334 155.748C87.1234 151.371 90.0706 144.484 90.3267 135.484C90.4315 130.084 89.7439 124.697 88.2858 119.495L83.5577 120.941C83.6325 121.186 90.3661 143.995 77.4308 152.77C64.4915 141.899 65.7366 122.384 65.7524 122.187L61.7374 121.891L57.7146 121.576C57.6397 122.541 56.0991 145.37 72.2456 158.944C79.7318 165.248 89.6333 168.4 101.82 168.4C102.443 168.4 103.077 168.4 103.715 168.372C103.471 209.168 142.939 205.461 144.842 220.311C148.081 245.638 144.684 256.091 139.72 272.556H204.337C200.46 259.523 196.733 247.62 193.171 234.491C188.837 219.763 185.322 204.633 176.276 191.717C161.524 172.726 152.635 182.336 141.816 175.098C132.245 167.08 133.979 146.576 145.874 141.568C156.745 139.992 168.195 141.808 179.137 139.74C205.634 136.82 222.828 117.975 224.251 91.4814C224.55 88.3293 224.688 85.1772 224.783 82.0251L209.136 82.3561Z" fill="#A86145"/>
<path d="M216.599 82.1909C217.564 95.3035 216.15 123.81 185.933 125.367C150.441 127.195 127.387 122.738 123.234 161.414C119.294 198.057 156.698 186.43 163.695 201.328C168.825 212.281 167.687 251.127 161.544 272.553H204.31C200.433 259.519 196.705 247.616 193.144 234.488C188.809 219.759 185.295 204.629 176.248 191.714C161.497 172.723 152.608 182.332 141.788 175.094C132.218 167.076 133.952 146.572 145.847 141.564C156.717 139.988 168.167 141.805 179.109 139.736C205.606 136.816 222.801 117.971 224.223 91.4777C224.523 88.3256 224.66 85.1736 224.755 82.0215L216.599 82.1909Z" fill="#79412D"/>
<path d="M193.144 234.488C188.809 219.759 185.295 204.629 176.248 191.714C161.497 172.723 152.608 182.332 141.788 175.094C132.218 167.076 133.952 146.572 145.847 141.564C156.717 139.988 168.167 141.805 179.109 139.736C205.606 136.816 222.801 117.971 224.223 91.4777C224.523 88.3256 224.66 85.1736 224.755 82.0215L221.441 82.0924C221.331 114.007 210.291 123.247 197.482 128.783C185.768 133.83 161.142 132.53 145.949 136.288C130.756 140.047 128.171 158.057 130.004 170.311C132.245 185.284 160.925 182.868 169.578 194.306C178.711 206.379 183.849 252.297 185.685 272.553H204.31C200.433 259.519 196.705 247.616 193.144 234.488Z" fill="#502314"/>
<path d="M77.1747 69.5346C77.1747 69.5346 73.9399 57.4464 64.4994 64.7316C64.4994 64.7316 45.6382 58.5378 50.847 78.4116C50.847 78.4116 41.4183 80.4447 43.7548 88.3328C43.7548 88.3328 35.4806 86.0397 34.9369 94.5857C34.9369 94.5857 29.0267 85.4644 22.2852 95.6456C22.2852 95.6456 11.5327 99.9403 17.0094 112.541C17.0094 112.541 8.75884 108.873 6.2884 118.679C3.81796 128.486 13.7746 131.288 15.5082 130.066C15.5082 130.066 17.1788 146.575 32.8683 138.12C32.8683 138.12 45.7051 147.312 46.9936 135.468C46.9936 135.468 53.3253 143.01 59.267 134.42C59.267 134.42 67.226 143.813 71.9462 135.996C71.9462 135.996 90.4647 143.683 91.5876 131.611C91.5876 131.611 103.491 132.072 99.0304 117.986C99.0304 117.986 106.584 118.021 103.282 108.136C103.282 108.136 107.978 88.5968 88.4355 87.1705C88.4473 87.1941 92.549 70.3502 77.1747 69.5346Z" fill="#63B446"/>
<path d="M62.3796 15.2488C62.3796 15.2488 65.7484 3.17243 75.5711 10.4537C75.5711 10.4537 95.1967 4.26383 89.7751 24.114C89.7751 24.114 99.586 26.1471 97.151 34.0273C97.151 34.0273 105.748 31.7342 106.327 40.2724C106.327 40.2724 112.482 31.1629 119.495 41.3323C119.495 41.3323 130.681 45.623 124.984 58.2077C124.984 58.2077 133.569 54.5434 136.138 64.3385C138.707 74.1336 128.337 76.9468 126.544 75.7136C126.544 75.7136 124.807 92.2107 108.483 83.7592C108.483 83.7592 95.1218 92.9436 93.7822 81.1154C93.7822 81.1154 87.1944 88.6489 81.0123 80.0674C81.0123 80.0674 72.7381 89.4487 67.817 81.6434C67.817 81.6434 48.5577 89.3227 47.3797 77.262C47.3797 77.262 34.9959 77.723 39.6334 63.6529C39.6334 63.6529 31.7769 63.6884 35.2126 53.8263C35.2126 53.8263 30.3269 34.3071 50.6578 32.8808C50.6578 32.8886 46.3828 16.0644 62.3796 15.2488Z" fill="#63B446"/>
<path d="M225.519 80.9141C225.519 80.9141 223.021 96.4106 210.567 92.1001C210.567 92.1001 206.627 103.613 196.875 93.2545C196.875 93.2545 184.609 99.8109 179.207 90.13C179.207 90.13 166.04 96.6194 160.91 84.5942C155.914 72.8763 164.428 69.9489 164.428 69.9489C164.428 69.9489 156 61.4973 166.635 53.499C166.635 53.499 157.458 39.7086 174.515 37.6598C174.515 37.6598 179.617 22.0254 195.441 29.5274C195.441 29.5274 203.715 20.1066 209.156 30.4888C209.156 30.4888 230.976 30.0632 227.245 48.5108C227.245 48.5108 240.125 48.8299 240.078 63.3453C240.039 78.1127 225.519 80.9141 225.519 80.9141Z" fill="#63B446"/>
<path d="M74.3418 66.7101C84.1079 66.7101 92.0249 58.793 92.0249 49.0269C92.0249 39.2608 84.1079 31.3438 74.3418 31.3438C64.5756 31.3438 56.6586 39.2608 56.6586 49.0269C56.6586 58.793 64.5756 66.7101 74.3418 66.7101Z" fill="#9FCC3B"/>
<path d="M57.1196 117.135C65.5649 117.135 72.4111 110.927 72.4111 103.27C72.4111 95.612 65.5649 89.4043 57.1196 89.4043C48.6743 89.4043 41.8281 95.612 41.8281 103.27C41.8281 110.927 48.6743 117.135 57.1196 117.135Z" fill="#9FCC3B"/>
<path d="M92.0249 75.457C100.47 75.457 107.316 69.2493 107.316 61.5918C107.316 53.9342 100.47 47.7266 92.0249 47.7266C83.5796 47.7266 76.7334 53.9342 76.7334 61.5918C76.7334 69.2493 83.5796 75.457 92.0249 75.457Z" fill="#9FCC3B"/>
<path d="M43.0338 126.603C49.1833 126.603 54.1685 122.082 54.1685 116.505C54.1685 110.927 49.1833 106.406 43.0338 106.406C36.8842 106.406 31.899 110.927 31.899 116.505C31.899 122.082 36.8842 126.603 43.0338 126.603Z" fill="#9FCC3B"/>
<path d="M87.1707 109.968C92.0473 109.968 96.0005 106.383 96.0005 101.961C96.0005 97.5396 92.0473 93.9551 87.1707 93.9551C82.2942 93.9551 78.341 97.5396 78.341 101.961C78.341 106.383 82.2942 109.968 87.1707 109.968Z" fill="#9FCC3B"/>
<path d="M216.213 50.712C226.619 39.2306 235.945 45.7278 235.945 45.7278C235.945 45.7278 222.521 46.7877 216.213 50.712Z" fill="#63B446"/>
<path d="M235.945 45.7285C229.377 54.5701 216.213 50.7127 216.213 50.7127C222.521 46.7884 235.945 45.7285 235.945 45.7285Z" fill="#4CA84E"/>
<path d="M159.732 90.3696C173.451 79.0891 182.943 88.0056 182.943 88.0056C182.943 88.0056 167.541 86.9772 159.732 90.3696Z" fill="#63B446"/>
<path d="M182.943 88.0059C174.01 96.9341 159.732 90.3699 159.732 90.3699C167.541 86.9775 182.943 88.0059 182.943 88.0059Z" fill="#4CA84E"/>
<path d="M171.335 98.7867C174.554 81.3163 187.564 82.0255 187.564 82.0255C187.564 82.0255 175.129 91.1586 171.335 98.7867Z" fill="#63B446"/>
<path d="M187.564 82.0254C186.497 94.6061 171.335 98.7866 171.335 98.7866C175.129 91.1585 187.564 82.0254 187.564 82.0254Z" fill="#4CA84E"/>
<path d="M63.4829 29.9599C51.568 16.7842 60.0392 6.88672 60.0392 6.88672C60.0392 6.88672 59.7201 22.3201 63.4829 29.9599Z" fill="#63B446"/>
<path d="M60.0392 6.88672C69.3772 15.3855 63.4829 29.9599 63.4829 29.9599C59.7201 22.3201 60.0392 6.88672 60.0392 6.88672Z" fill="#4CA84E"/>
<path d="M63.341 29.9997C57.1866 13.3409 68.7468 7.30078 68.7468 7.30078C68.7468 7.30078 62.6948 21.5088 63.341 29.9997Z" fill="#63B446"/>
<path d="M68.7468 7.30078C74.263 18.664 63.3568 29.9997 63.3568 29.9997C62.6948 21.5088 68.7468 7.30078 68.7468 7.30078Z" fill="#4CA84E"/>
<path d="M105.031 123.589C90.1219 120.543 90.9414 109.404 90.9414 109.404C90.9414 109.404 98.5576 120.224 105.031 123.589Z" fill="#63B446"/>
<path d="M90.9414 109.412C101.702 110.535 105.031 123.596 105.031 123.596C98.5576 120.224 90.9414 109.412 90.9414 109.412Z" fill="#4CA84E"/>
<path d="M33.68 106.402C16.2765 102.856 17.234 89.8535 17.234 89.8535C17.234 89.8535 26.1071 102.478 33.68 106.402Z" fill="#63B446"/>
<path d="M17.2182 89.8535C29.7793 91.1656 33.6642 106.402 33.6642 106.402C26.1071 102.478 17.2182 89.8535 17.2182 89.8535Z" fill="#4CA84E"/>
<path d="M52.5924 65.5469C38.2741 76.0591 29.2907 66.6225 29.2907 66.6225C29.2907 66.6225 44.598 68.5098 52.5924 65.5469Z" fill="#63B446"/>
<path d="M29.2789 66.6229C38.6799 58.1989 52.5924 65.5472 52.5924 65.5472C44.598 68.5102 29.2789 66.6229 29.2789 66.6229Z" fill="#4CA84E"/>
<path d="M113.018 50.4875C116.17 34.6562 127.805 37.4852 127.805 37.4852C127.805 37.4852 116.521 43.9706 113.018 50.4875Z" fill="#63B446"/>
<path d="M127.805 37.502C126.654 49.1174 113.018 50.5043 113.018 50.5043C116.521 43.9716 127.805 37.502 127.805 37.502Z" fill="#4CA84E"/>
<path d="M203.675 78.4874C213.442 78.4874 221.359 70.5704 221.359 60.8043C221.359 51.0381 213.442 43.1211 203.675 43.1211C193.909 43.1211 185.992 51.0381 185.992 60.8043C185.992 70.5704 193.909 78.4874 203.675 78.4874Z" fill="#9FCC3B"/>
<path d="M187.009 85.4648C194.666 85.4648 200.874 79.2571 200.874 71.5996C200.874 63.942 194.666 57.7344 187.009 57.7344C179.351 57.7344 173.144 63.942 173.144 71.5996C173.144 79.2571 179.351 85.4648 187.009 85.4648Z" fill="#9FCC3B"/>
<path d="M226.079 59.5032C227.939 59.5032 229.448 57.9949 229.448 56.1344C229.448 54.2739 227.939 52.7656 226.079 52.7656C224.218 52.7656 222.71 54.2739 222.71 56.1344C222.71 57.9949 224.218 59.5032 226.079 59.5032Z" fill="white"/>
<path d="M75.0628 18.9167C76.5273 18.9167 77.7145 17.7295 77.7145 16.265C77.7145 14.8005 76.5273 13.6133 75.0628 13.6133C73.5983 13.6133 72.4111 14.8005 72.4111 16.265C72.4111 17.7295 73.5983 18.9167 75.0628 18.9167Z" fill="white"/>
<path d="M233.518 66.8162C235.657 66.8162 237.391 64.1243 237.391 60.8036C237.391 57.4829 235.657 54.791 233.518 54.791C231.379 54.791 229.645 57.4829 229.645 60.8036C229.645 64.1243 231.379 66.8162 233.518 66.8162Z" fill="white"/>
<path d="M221.982 45.9482C223.641 44.5986 223.288 41.416 221.193 38.8398C219.098 36.2635 216.054 35.2691 214.394 36.6188C212.735 37.9684 213.088 41.151 215.183 43.7272C217.278 46.3035 220.322 47.2979 221.982 45.9482Z" fill="white"/>
<path d="M83.2937 26.6189C85.4327 26.6189 87.1668 23.927 87.1668 20.6063C87.1668 17.2857 85.4327 14.5938 83.2937 14.5938C81.1546 14.5938 79.4206 17.2857 79.4206 20.6063C79.4206 23.927 81.1546 26.6189 83.2937 26.6189Z" fill="white"/>
</g>
<defs>
<clipPath id="clip0_5015_976">
<rect width="246" height="278.466" fill="white"/>
</clipPath>
</defs>
</svg>
