<svg width="162" height="234" viewBox="0 0 162 234" fill="none" xmlns="http://www.w3.org/2000/svg">
<g filter="url(#filter0_ddd_3_822)">
<path d="M141.406 114.341C145.456 140.368 148.188 166.583 149.591 192.887L38.2881 211.842C29.766 186.843 22.9804 161.285 17.9796 135.351C17.0778 130.785 16.233 126.093 15.4453 121.276C14.4864 115.465 13.6359 109.757 12.8939 104.152C9.70821 80.6517 7.99252 56.9752 7.75684 33.2608L119.18 14.2879C125.276 35.23 131.046 58.2441 135.944 83.1931C136.697 87.063 137.433 90.9672 138.153 94.9398C139.351 101.504 140.436 107.971 141.406 114.341Z" fill="white" stroke="#010101" stroke-miterlimit="10" stroke-linecap="round"/>
<path d="M7.12332 32.6101C6.42696 28.7287 5.71919 24.8246 5 20.8976C7.24319 22.0277 9.48637 23.1921 11.6953 24.3223L18.2023 18.3975C20.8222 19.3051 23.3393 20.2126 26.062 21.103L32.9114 16.2571L43.1341 18.2263L50.8226 12.9865L60.6173 15.6406L66.3366 10.0584L75.7716 13.6201L84.0766 6.61652C87.2102 7.96928 90.3267 9.33917 93.4603 10.6748L101.782 4.16786L108.632 8.31176C110.772 6.23981 114.83 3.15757 116.954 1C118.152 4.80143 117.896 9.73301 119.094 13.5344C81.9019 19.9386 44.2643 26.1716 7.12332 32.6101Z" fill="#1F705E" stroke="#010101" stroke-miterlimit="10" stroke-linecap="round"/>
<path d="M14.9489 38.7745C16.49 44.8362 17.8085 50.9322 18.9901 57.0453C20.1716 63.1584 21.2846 69.2887 22.1408 75.4703C22.997 81.6519 23.5792 87.8506 24.4867 94.0151C25.3943 100.18 26.6101 106.258 27.8258 112.406C29.0416 118.553 30.343 124.615 31.456 130.745C32.569 136.875 33.7163 143.006 34.7095 149.153C36.6445 161.465 38.3226 173.811 39.4527 186.243C39.458 186.263 39.4585 186.285 39.4541 186.306C39.4496 186.326 39.4404 186.346 39.4271 186.362C39.4138 186.379 39.3968 186.392 39.3775 186.401C39.3581 186.41 39.337 186.414 39.3157 186.414C39.2801 186.415 39.2454 186.403 39.2173 186.381C39.1892 186.36 39.1695 186.329 39.1616 186.294C36.2164 174.17 33.8019 161.944 31.6273 149.667C30.5656 143.519 29.6752 137.355 28.7334 131.19C27.7916 125.026 27.021 118.861 26.2333 112.663C25.4456 106.464 24.6237 100.299 23.4936 94.1863C22.3634 88.0732 20.9764 81.9259 19.7606 75.8128C18.5449 69.6996 17.6373 63.5523 16.764 57.3707C15.8907 51.1891 15.1715 45.0075 14.6578 38.7745C14.6554 38.7551 14.6571 38.7355 14.6629 38.7168C14.6687 38.6982 14.6784 38.681 14.6913 38.6664C14.7043 38.6518 14.7203 38.6401 14.7381 38.6322C14.7559 38.6243 14.7753 38.6202 14.7948 38.6204C14.8804 38.6375 14.9489 38.7745 14.9489 38.7745Z" fill="#010101"/>
<path d="M59.744 199.736C62.9978 198.675 66.3077 197.795 69.6585 197.099C72.9835 196.358 76.3441 195.787 79.7271 195.387C83.1518 195.01 86.5766 194.907 90.0013 194.462C93.3792 193.98 96.7288 193.317 100.036 192.476C103.358 191.654 106.68 190.883 110.036 190.267C113.392 189.65 116.714 188.931 120.087 188.417C126.847 187.373 133.663 186.733 140.499 186.499C140.537 186.499 140.574 186.513 140.602 186.538C140.63 186.564 140.648 186.599 140.653 186.636C140.652 186.669 140.642 186.701 140.624 186.729C140.606 186.756 140.58 186.777 140.55 186.791C133.997 188.743 127.336 190.316 120.601 191.5C117.176 192.082 113.871 192.527 110.481 192.972C107.091 193.417 103.632 193.777 100.207 194.068C96.8057 194.324 93.4213 194.77 90.0698 195.404C86.6451 196.054 83.4429 197.116 80.1039 197.801C76.7648 198.486 73.3914 198.983 70.001 199.376C66.5907 199.786 63.1612 200.015 59.7268 200.061C59.7059 200.064 59.6846 200.062 59.6647 200.055C59.6447 200.049 59.6265 200.037 59.6116 200.022C59.5967 200.008 59.5854 199.989 59.5787 199.969C59.5719 199.949 59.5699 199.928 59.5727 199.907C59.5654 199.883 59.5647 199.858 59.5707 199.834C59.5767 199.81 59.5892 199.788 59.6068 199.77C59.6244 199.752 59.6465 199.74 59.6706 199.734C59.6948 199.728 59.7201 199.729 59.744 199.736Z" fill="#010101"/>
<path d="M141.406 114.341L17.9795 135.351C17.0777 130.785 16.2329 126.093 15.4452 121.276C14.4863 115.465 13.6358 109.757 12.8938 104.152L135.944 83.1931C136.697 87.063 137.451 90.9671 138.153 94.9398C139.351 101.504 140.436 107.971 141.406 114.341Z" fill="#1F705E" stroke="#010101" stroke-miterlimit="10" stroke-linecap="round"/>
<path d="M93.7857 146.944C118.375 137.988 132.108 113.639 124.437 92.5596C116.765 71.4805 90.6007 61.7372 65.9942 70.6072C41.3876 79.4772 27.6717 103.844 35.343 124.992C43.0144 146.139 69.1791 155.9 93.7857 146.944Z" fill="#F8F3B5" stroke="#010101" stroke-miterlimit="10"/>
<path d="M37.9629 212.219C38.5793 216.14 39.2129 220.062 39.8294 224C41.576 222.185 43.2883 220.358 44.9664 218.52L53.0487 221.945L59.5728 216.808L67.6894 219.103L76.6621 213.966L85.6349 216.363L94.0083 210.609L101.252 214.034L108.906 207.561L119.077 211.431C121.577 209.102 124.06 206.791 126.577 204.479C129.899 205.626 133.238 206.739 136.577 207.904C138.29 205.832 140.002 203.777 141.714 201.722C144.437 203.041 149.266 204.531 151.989 205.849C151.869 201.859 149.985 197.287 149.865 193.315C112.707 199.376 75.1552 206.003 37.9629 212.219Z" fill="#1F705E" stroke="#010101" stroke-miterlimit="10" stroke-linecap="round"/>
<path d="M140.31 105.18L140.756 107.748L136.577 109.152L135.379 109.546L135.516 112.509L135.995 123.93L135.704 123.296L133.478 117.063L131.252 110.693L117.793 110.402H116.868L117.998 110.094L131.235 106.395L130.447 91.2583L134.094 105.488L137.519 105.351L140.31 105.18Z" fill="white" stroke="#010101" stroke-width="0.5" stroke-miterlimit="10" stroke-linecap="round"/>
<path d="M117.844 116.173L119.95 124.392L128.855 124.05L120.635 126.807L120.995 135.129L118.238 127.44L110.019 127.269L118.341 124.94L117.844 116.173Z" fill="white" stroke="#010101" stroke-width="0.5" stroke-miterlimit="10" stroke-linecap="round"/>
<path d="M70.2579 180.9C69.7219 180.612 69.1441 180.41 68.5456 180.301C67.982 180.172 67.3968 180.172 66.8332 180.301C66.4929 180.354 66.1597 180.446 65.8401 180.575C65.5443 180.68 65.2753 180.85 65.0524 181.071C64.9525 181.174 64.8797 181.299 64.8409 181.437C64.802 181.574 64.7982 181.72 64.8298 181.859C64.8533 182.002 64.9106 182.137 64.997 182.253C65.0834 182.369 65.1963 182.463 65.3264 182.527C65.6426 182.662 65.9775 182.748 66.3195 182.784H67.6723C68.1632 182.784 68.6426 182.818 69.1107 182.886C69.5623 182.917 70.0068 183.015 70.4292 183.178C70.8207 183.316 71.1772 183.538 71.4737 183.828C71.7697 184.152 71.9607 184.558 72.0217 184.993C72.1439 185.578 72.0464 186.187 71.7477 186.705C71.4384 187.237 70.9958 187.68 70.4634 187.989C69.8714 188.34 69.2222 188.583 68.5456 188.708C67.6884 188.836 66.8171 188.836 65.9599 188.708C65.163 188.587 64.4125 188.256 63.7852 187.749L64.864 186.362C65.3483 186.725 65.9044 186.979 66.495 187.109C67.0856 187.239 67.6972 187.241 68.2887 187.116C68.6109 187.048 68.9262 186.95 69.2305 186.825C69.5285 186.707 69.7973 186.526 70.0182 186.294C70.1155 186.183 70.1849 186.051 70.2206 185.908C70.2564 185.765 70.2574 185.616 70.2237 185.472C70.2059 185.336 70.1521 185.207 70.0678 185.099C69.9836 184.99 69.8718 184.906 69.7442 184.856C69.4292 184.702 69.0843 184.62 68.7339 184.616C68.3059 184.616 67.8607 184.616 67.3983 184.616C66.76 184.553 66.1255 184.456 65.4976 184.325C64.9182 184.245 64.3663 184.028 63.888 183.691C63.419 183.282 63.1148 182.716 63.0318 182.099C62.9297 181.558 63.0271 180.998 63.3058 180.523C63.6286 180.005 64.076 179.575 64.6072 179.273C65.2162 178.92 65.8828 178.676 66.5764 178.554C67.0794 178.467 67.5902 178.432 68.1004 178.451C68.6329 178.457 69.1625 178.532 69.6757 178.674C70.1769 178.805 70.6479 179.032 71.0628 179.342L70.2579 180.9ZM85.2753 184.205C84.9625 184.556 84.6122 184.872 84.2308 185.147C83.7978 185.472 83.3262 185.742 82.8266 185.952C82.2767 186.19 81.7025 186.368 81.1143 186.482C80.0947 186.719 79.0345 186.719 78.0149 186.482C77.1184 186.24 76.3065 185.754 75.669 185.078C75.0464 184.407 74.6355 183.567 74.4875 182.664C74.2724 181.684 74.362 180.663 74.7443 179.736C75.1107 178.88 75.7026 178.14 76.4567 177.595C77.248 177.014 78.1617 176.622 79.1279 176.448C80.0063 176.283 80.9118 176.336 81.765 176.602C82.5666 176.847 83.288 177.302 83.854 177.921C84.4615 178.571 84.861 179.388 85.0013 180.267L85.1383 181.157L76.5765 182.732C76.7307 183.119 76.962 183.47 77.2564 183.765C77.5508 184.059 77.9021 184.29 78.2889 184.445C79.2009 184.816 80.2047 184.9 81.1657 184.684C81.846 184.583 82.4952 184.331 83.0664 183.948C83.4792 183.66 83.8634 183.333 84.2136 182.972L85.2753 184.205ZM79.4362 178.126C78.6327 178.261 77.8744 178.59 77.2272 179.085C76.9281 179.333 76.6883 179.644 76.5254 179.997C76.3624 180.35 76.2804 180.734 76.2854 181.123L82.9122 179.907V179.701C82.7959 179.292 82.5419 178.935 82.1931 178.691C81.8181 178.414 81.3846 178.227 80.9259 178.143C80.4388 178.022 79.9324 177.998 79.4362 178.075V178.126ZM98.683 181.756C98.3695 182.101 98.0192 182.412 97.6385 182.681C97.196 183.006 96.7195 183.281 96.2172 183.503C95.6714 183.748 95.0957 183.921 94.5049 184.017C93.4793 184.231 92.4177 184.202 91.4055 183.931C90.5129 183.688 89.7024 183.209 89.0596 182.544C88.4404 181.87 88.0299 181.032 87.8781 180.13C87.6599 179.178 87.7271 178.183 88.0712 177.269C88.4154 176.356 89.0212 175.564 89.813 174.992C90.6044 174.411 91.5181 174.019 92.4843 173.845C93.3621 173.671 94.2698 173.724 95.1213 173.999C95.923 174.244 96.6443 174.7 97.2104 175.318C97.8214 175.966 98.2214 176.784 98.3577 177.664L98.4947 178.554L89.9329 180.13C90.0871 180.516 90.3184 180.868 90.6128 181.162C90.9072 181.456 91.2585 181.688 91.6453 181.842C92.5593 182.205 93.5605 182.288 94.522 182.082C95.2023 181.98 95.8516 181.729 96.4227 181.345C96.8275 181.047 97.2109 180.721 97.57 180.369L98.683 181.756ZM92.8953 175.626C92.0896 175.753 91.3295 176.083 90.6863 176.585C90.3886 176.83 90.1495 177.139 89.9865 177.489C89.8235 177.838 89.7409 178.22 89.7445 178.606L96.32 177.475V177.27C96.1998 176.858 95.947 176.497 95.6008 176.242C95.2249 175.97 94.7913 175.789 94.3337 175.712C93.8641 175.591 93.3758 175.562 92.8953 175.626ZM110.481 166.705L112.981 180.403L111.08 180.763L110.807 179.239C110.604 179.604 110.344 179.934 110.036 180.215C109.694 180.561 109.309 180.86 108.889 181.106C108.41 181.359 107.897 181.538 107.365 181.636C106.446 181.814 105.497 181.755 104.608 181.465C103.772 181.181 103.031 180.672 102.467 179.993C101.884 179.277 101.5 178.421 101.354 177.51C101.167 176.596 101.232 175.649 101.543 174.77C101.827 173.935 102.344 173.198 103.032 172.647C103.748 172.05 104.612 171.659 105.532 171.516C106.289 171.353 107.071 171.353 107.827 171.516C108.447 171.647 109.031 171.91 109.539 172.287L108.563 167.013L110.481 166.705ZM107.399 179.89C108.027 179.777 108.617 179.506 109.111 179.102C109.569 178.727 109.918 178.237 110.122 177.681C110.317 177.096 110.358 176.471 110.241 175.866C110.154 175.236 109.893 174.643 109.488 174.153C109.115 173.694 108.615 173.354 108.05 173.177C107.436 172.979 106.781 172.943 106.149 173.075C105.519 173.174 104.928 173.44 104.437 173.845C103.975 174.21 103.625 174.696 103.426 175.249C103.218 175.831 103.17 176.458 103.289 177.064C103.382 177.696 103.648 178.289 104.06 178.777C104.447 179.22 104.943 179.557 105.498 179.753C106.093 179.954 106.729 180.001 107.348 179.89H107.399ZM122.553 171.328C122.021 171.032 121.442 170.83 120.841 170.729C120.276 170.613 119.693 170.613 119.129 170.729C118.795 170.788 118.468 170.879 118.153 171.003C117.852 171.108 117.582 171.284 117.365 171.516C117.261 171.616 117.185 171.741 117.146 171.88C117.107 172.018 117.105 172.165 117.142 172.304C117.162 172.444 117.217 172.576 117.3 172.69C117.384 172.803 117.494 172.894 117.622 172.955C117.939 173.105 118.282 173.192 118.632 173.212H119.985C120.466 173.212 120.947 173.246 121.423 173.314C121.874 173.347 122.319 173.445 122.742 173.605C123.133 173.733 123.486 173.957 123.769 174.256C124.08 174.572 124.279 174.981 124.334 175.421C124.452 176.006 124.354 176.614 124.06 177.133C123.745 177.671 123.297 178.119 122.759 178.434C122.17 178.789 121.519 179.027 120.841 179.136C119.991 179.281 119.122 179.281 118.272 179.136C117.443 179.015 116.662 178.672 116.012 178.143L117.108 176.756C117.576 177.084 118.097 177.327 118.649 177.475C119.281 177.613 119.935 177.613 120.567 177.475C120.892 177.418 121.208 177.32 121.509 177.184C121.802 177.066 122.07 176.892 122.296 176.671C122.396 176.557 122.468 176.423 122.506 176.277C122.545 176.132 122.549 175.979 122.519 175.832C122.492 175.699 122.435 175.574 122.352 175.467C122.269 175.36 122.162 175.274 122.04 175.215C121.713 175.079 121.365 174.999 121.012 174.975C120.601 174.975 120.156 174.975 119.677 174.975C118.992 174.975 118.324 174.975 117.707 174.804C117.091 174.732 116.503 174.509 115.995 174.153C115.531 173.742 115.233 173.176 115.156 172.561C115.046 172.02 115.143 171.457 115.43 170.986C115.754 170.472 116.201 170.048 116.731 169.753C117.339 169.396 118.006 169.153 118.7 169.033C119.225 168.934 119.759 168.894 120.293 168.914C120.826 168.91 121.357 168.985 121.868 169.136C122.372 169.26 122.844 169.487 123.255 169.804L122.553 171.328Z" fill="#010101"/>
<g filter="url(#filter1_d_3_822)">
<path d="M84.23 165.417C84.321 157.103 83.9195 148.791 83.0275 140.52C82.9154 139.485 82.7982 138.455 82.6709 137.42L82.3346 135.755C82.2174 135.17 82.0951 134.589 81.9677 133.973C81.5397 132.408 81.1389 130.836 80.7653 129.258C80.6277 128.701 80.4952 128.149 80.3526 127.569C80.2099 126.988 80.1284 126.534 80.0214 126.011C79.9144 125.489 79.7972 124.942 79.6902 124.395C79.039 122.401 78.5133 120.372 78.1158 118.317C78.0343 117.903 77.9578 117.488 77.8865 117.063C73.9989 98.6291 77.056 80.0782 79.0941 61.5273C78.5846 79.59 75.0179 97.6528 79.3845 115.93C79.4609 116.331 79.5373 116.726 79.6189 117.126C80.0198 119.09 80.5404 121.03 81.178 122.936C81.3461 123.546 81.5041 124.122 81.6875 124.693C81.8709 125.264 82.0034 125.772 82.197 126.304C82.3906 126.836 82.5027 127.417 82.6607 127.964C83.0785 129.482 83.537 130.991 84.0414 132.48C84.2096 133.07 84.3675 133.627 84.551 134.188C84.7344 134.75 84.8516 135.223 85.0095 135.741C85.1675 136.258 85.2847 136.864 85.4171 137.425C87.6247 146.974 87.9427 156.835 86.3546 166.496C86.1874 166.618 85.9902 166.696 85.7821 166.722C85.5741 166.749 85.3625 166.723 85.1678 166.648C84.9732 166.573 84.8023 166.45 84.6719 166.293C84.5414 166.135 84.4559 165.948 84.4236 165.749" fill="#674E34"/>
<path d="M84.2302 165.417C84.2273 156.073 83.6215 146.737 82.4164 137.464C81.6113 133.134 80.1898 128.765 79.3593 124.449C78.5368 121.929 77.9001 119.356 77.4537 116.75C73.5865 98.4728 76.613 79.7852 78.595 61.4784L79.614 61.5419C79.3593 70.4072 78.3555 79.214 77.9275 88.0257C77.4996 96.8374 77.6422 105.688 79.4561 114.344C79.665 115.32 79.9146 116.643 80.1083 117.595C81.3617 122.965 83.1348 128.232 84.6226 133.568C87.6818 144.297 88.2626 155.535 86.3243 166.501C86.1563 166.628 85.9561 166.711 85.7439 166.741C85.5318 166.77 85.3153 166.746 85.1162 166.669C84.9172 166.593 84.7427 166.468 84.6104 166.306C84.4781 166.145 84.3927 165.953 84.3627 165.749C84.3877 165.95 84.4712 166.14 84.6037 166.297C84.7362 166.454 84.9123 166.572 85.1117 166.638C85.3006 166.714 85.5074 166.741 85.7108 166.715C85.9141 166.689 86.1066 166.612 86.2683 166.491C87.6143 157.734 87.4075 148.821 85.6569 140.129C84.6124 134.696 82.6558 129.482 81.1579 124.156C80.5312 122.018 79.8026 119.914 79.3542 117.727C79.1453 116.75 78.8803 115.442 78.6612 114.475C74.7584 96.9936 78.0804 79.0969 78.5797 61.4979L79.5988 61.5614C77.846 77.2418 75.3596 93.0247 77.0155 108.803C77.6167 114.012 78.4422 119.274 80.0013 124.298C80.6025 127.593 81.4789 130.815 82.2686 134.061L82.9208 137.361C83.9973 146.676 84.4348 156.048 84.2302 165.417Z" fill="black"/>
<path d="M84.6075 135.794L85.3361 128.867C86.2176 120.475 87.4404 111.371 93.6718 105.434C93.7023 110.067 94.8691 114.622 95.1239 119.245C95.3786 123.868 94.5634 128.852 91.2669 132.236C89.4812 134.046 87.1262 135.246 84.5616 135.653" fill="#568A20"/>
<path d="M84.6075 135.794C85.545 124.937 85.2138 112.293 94.166 104.243C93.9724 113.153 98.4714 123.331 92.3827 131.303C91.4421 132.487 90.2672 133.481 88.9252 134.229C87.5832 134.977 86.1004 135.464 84.5616 135.663C87.564 135.086 90.2171 133.419 91.9649 131.01C97.3505 123.302 93.2183 113.924 93.1674 105.425L94.0284 105.766C86.0698 113.646 86.2991 125.591 84.6075 135.794Z" fill="black"/>
<path d="M76.2716 107.548L75.1659 100.67C73.8259 92.3365 72.1088 83.3051 65.5616 77.6764C65.7858 82.2994 64.8686 86.9079 64.8635 91.5358C64.8584 96.1638 65.9539 101.104 69.4492 104.321C71.3285 106.047 73.7466 107.134 76.3327 107.416" fill="#568A20"/>
<path d="M76.2717 107.548C74.0247 97.4478 73.6018 85.502 65.2254 78.0377L66.0661 77.6521C66.4788 86.1415 62.8664 95.7148 68.6595 103.14C70.5366 105.456 73.2746 106.988 76.3023 107.417C74.7546 107.296 73.2469 106.885 71.8655 106.205C70.4841 105.526 69.2561 104.592 68.2519 103.457C61.7352 95.7929 65.6738 85.3946 64.9961 76.5244C74.3712 84.1156 74.7278 96.7497 76.2615 107.548H76.2717Z" fill="black"/>
<path d="M84.9207 146.078L81.3185 142.468C76.9765 138.104 72.099 133.46 65.5225 132.476C67.6337 135.068 68.9899 138.071 70.9162 140.74C72.8426 143.409 75.6165 145.907 79.1879 146.565C81.1149 146.913 83.1205 146.704 84.8976 145.971" fill="#568A20"/>
<path d="M84.9207 146.078C79.2572 141.003 73.9868 134.231 65.4916 132.807L65.8769 132.293C69.691 137.07 71.3785 143.876 78.2055 146.164C80.3788 146.856 82.7769 146.793 84.8976 145.988C83.8545 146.455 82.7152 146.739 81.5451 146.824C80.375 146.909 79.1969 146.794 78.0783 146.485C70.6966 144.306 68.882 136.927 64.7288 132.009C73.9174 133.154 79.4306 140.35 84.9284 146.078H84.9207Z" fill="black"/>
<path d="M70.2646 136.92C71.8484 138.273 73.2803 139.753 74.5411 141.34C75.277 142.241 75.9628 143.305 77.0492 143.939C75.2616 143.509 74.2522 141.971 73.1465 140.81C72.0647 139.584 71.1009 138.283 70.2646 136.92Z" fill="white"/>
<path d="M65.9997 85.907C66.6823 88.6511 67.0901 91.4513 67.2175 94.2696C67.3143 95.8757 67.2175 97.6576 67.9308 99.1514C66.2698 97.4184 66.4022 94.831 66.0863 92.6488C65.8638 90.4012 65.8349 88.1397 65.9997 85.8875V85.907Z" fill="white"/>
<path d="M72.0629 47.785C73.7646 48.4977 74.9009 54.9417 74.9161 56.7236C74.9314 58.5055 74.2436 60.219 73.5608 61.8788L71.8081 66.1455C71.2171 67.5808 70.4783 69.1674 68.9752 69.7288C67.2174 70.3829 65.3322 69.3285 63.5132 68.8354C61.4446 68.2691 59.2333 68.44 57.1443 67.9616C55.0553 67.4831 52.9204 66.0088 52.9 63.9292C52.9 62.9968 53.3178 62.1131 53.5267 61.1954C53.7968 59.9798 53.7102 58.608 54.5458 57.6365C55.6208 56.3624 57.6283 56.4698 59.3403 56.4844C64.1552 56.5381 68.1549 55.0736 71.8998 52.1689L72.0629 47.785Z" fill="#FF8DAC"/>
<path d="M72.0627 47.7851C73.3008 48.5369 73.6269 50.1186 74.1007 51.3683C74.8243 54.0436 75.5783 56.9092 74.702 59.6333C74.1007 61.586 73.2142 63.6022 72.4958 65.4914C71.9608 66.8193 71.5175 68.2204 70.4577 69.2944C68.7101 71.1348 65.9383 70.1487 63.9156 69.4262C61.8928 68.7037 59.6713 68.938 57.5619 68.5279C54.3622 68.0398 51.407 65.4182 52.7929 62.1376C53.3431 60.7658 53.175 59.4526 53.7813 58.0564C54.8513 55.7522 57.8574 56.1037 59.9974 56.1037C62.8553 56.1164 65.678 55.4983 68.2464 54.2974C69.5238 53.6734 70.7456 52.9501 71.8996 52.1348L72.1035 47.7411L72.0627 47.7851ZM72.0627 47.7851L71.8946 52.1787C69.7234 54.064 67.1296 55.4469 64.313 56.2209C62.8949 56.591 61.436 56.7992 59.9668 56.8409C58.102 56.9434 55.4933 56.4894 54.5558 58.4226C54.0768 59.6088 54.1736 61.1759 53.6794 62.4159C52.2426 66.1603 56.5734 67.7517 59.7936 67.8494C61.2754 67.9111 62.7436 68.1472 64.1652 68.5523C65.9791 69.1479 68.2006 70.261 69.7699 68.7183C70.7329 67.7957 71.2118 66.4629 71.7417 65.2425C72.5009 63.3874 73.4944 61.337 74.1568 59.4868C75.1758 56.875 74.4931 54.0485 73.8766 51.4123C73.4689 50.1577 73.2244 48.5808 72.027 47.7851H72.0627Z" fill="black"/>
<path d="M72.3684 50.9776C70.8067 47.8857 69.7056 44.5991 69.0973 41.214C68.9595 40.7282 68.9972 40.2121 69.2043 39.7495C69.4452 39.4268 69.752 39.1544 70.1061 38.9488C72.6537 37.0645 73.0307 33.1492 75.8229 31.5968C78.0443 30.3666 80.8823 31.1623 83.1599 32.2949C84.0434 32.7075 84.8729 33.2188 85.631 33.818C89.2231 36.7471 89.4014 42.4979 86.5991 46.1544C83.7968 49.8109 78.7118 51.4365 74.0039 50.9825C73.4485 50.9337 72.832 50.8702 72.404 51.2071" fill="#FF8DAC"/>
<path d="M72.3688 50.9777C71.1166 48.7163 70.1289 46.3292 69.4238 43.86C69.1436 42.5663 68.5882 41.3166 68.7461 39.9546C68.8939 39.2028 69.6735 38.8513 70.1575 38.4021C70.618 37.9873 71.0174 37.5143 71.3447 36.9962C73.5611 33.0614 74.8043 29.4342 80.4854 30.7377C83.1348 31.4797 85.7792 32.7343 87.374 34.9507C89.7432 38.3045 89.4375 43.0155 86.9919 46.2423C85.3182 48.3381 82.9765 49.8533 80.3223 50.5579C78.3761 51.0867 76.3419 51.2525 74.3304 51.0461C73.6884 50.9972 72.9751 50.7824 72.4045 51.173C73.2401 50.5872 74.3763 51.0168 75.3342 50.9142C76.981 50.8955 78.6138 50.6218 80.1695 50.1039C82.6503 49.3311 84.812 47.8255 86.3448 45.803C88.4694 42.8055 88.7089 38.5242 86.5537 35.4926C85.127 33.5398 82.5795 32.3438 80.2357 31.6652C75.1406 30.4008 74.1725 33.9939 72.0121 37.416C71.6293 37.9779 71.1701 38.4885 70.6466 38.9343C70.2034 39.3492 69.5563 39.5542 69.3932 40.1157C69.2353 41.1994 69.7091 42.6054 69.9027 43.738C70.4713 46.2201 71.2957 48.6419 72.3637 50.9679L72.3688 50.9777Z" fill="black"/>
<path d="M68.6083 39.6957C67.7139 38.7013 66.6469 37.8623 65.4544 37.2158C64.2265 36.6348 62.6776 36.503 61.5312 37.2158C60.8026 37.6747 60.3083 38.4167 59.5848 38.8805C58.7747 39.4028 57.7608 39.5151 56.8436 39.8569C56.0176 40.1663 55.2764 40.6526 54.6767 41.2788C54.0771 41.905 53.6349 42.6543 53.384 43.4694C53.2586 44.0758 53.0883 44.6729 52.8745 45.2561C52.4669 46.1398 51.6466 46.7793 51.1065 47.5945C49.5219 49.9964 50.8518 53.399 53.2923 55.01C55.7329 56.621 58.897 56.8114 61.8471 56.5673C63.7637 56.4117 65.6627 56.0981 67.5231 55.63C69.4185 55.1418 71.482 54.3266 72.2055 52.5789C73.0768 50.4797 71.6094 48.2389 70.5496 46.2325C69.5096 44.2422 68.834 42.0955 68.5523 39.8861" fill="#FF8DAC"/>
<path d="M68.6083 39.6959C66.8607 37.9482 63.9157 35.7905 61.5006 37.5382C60.9911 37.9238 60.5784 38.4803 59.9975 38.9441C58.8562 39.8521 57.3124 39.8326 56.1456 40.5746C55.0257 41.2484 54.1999 42.2895 53.8222 43.5037C53.6837 44.1824 53.4912 44.8499 53.2465 45.5004C52.899 46.1264 52.4692 46.7072 51.9676 47.2286C50.6327 48.6931 50.653 50.7191 51.5651 52.3935C54.4183 57.3046 61.414 56.3771 66.3002 55.474C71.3648 54.5269 73.678 52.4179 70.9928 47.5752C69.6453 45.1896 68.8151 42.5676 68.5523 39.8668C69.0083 42.5166 69.9889 45.0585 71.4412 47.3555C72.0883 48.5418 72.7761 49.7964 72.8016 51.2609C72.6997 55.884 65.9232 56.4454 62.2954 56.9727C58.1123 57.4609 52.7675 56.8555 50.6785 52.8085C49.6085 50.9241 49.6595 48.2782 51.2492 46.6476C51.7079 46.1849 52.108 45.6721 52.4414 45.1196C52.6732 44.5075 52.8622 43.8812 53.007 43.245C53.4785 41.864 54.4582 40.6945 55.7635 39.9547C56.9659 39.2077 58.5301 39.281 59.6358 38.4901C60.1453 38.1142 60.5886 37.5674 61.2 37.1427C63.8953 35.395 66.9269 37.6797 68.6083 39.6813V39.6959Z" fill="black"/>
<path d="M72.98 52.0661C72.7471 52.543 72.6022 53.0551 72.552 53.5795C71.8353 58.2758 71.1152 62.9721 70.3917 67.6684C70.2833 68.1972 70.2558 68.7382 70.3102 69.2745C70.57 71.0955 72.6183 72.2378 74.5341 72.3745C76.0091 72.454 77.4762 72.1182 78.7545 71.4087C80.0329 70.6991 81.0666 69.6467 81.7284 68.3812C81.9121 67.863 82.2273 67.3967 82.6455 67.024C83.1598 66.7618 83.7295 66.6149 84.3116 66.5944C86.4975 66.238 88.3878 64.0119 87.6541 62.0006C87.3224 61.2495 86.8333 60.5716 86.2172 60.0088L80.4088 53.9407C79.3184 52.7935 74.1366 51.4998 72.6132 50.9677L72.98 52.0661Z" fill="#FF8DAC"/>
<path d="M72.9799 52.0661C72.7396 52.6432 72.6068 53.2562 72.5876 53.8773L72.3583 55.7324L71.9048 59.4426C71.5431 62.5035 71.0336 65.6083 70.7075 68.6594C70.7075 71.8424 75.1402 72.5258 77.6216 71.4079C78.7492 70.9612 79.7397 70.2473 80.5003 69.3331C81.1729 68.6155 81.3614 67.7026 82.0289 66.9264C82.7779 66.0672 84.0007 66.3113 84.9433 65.95C86.4718 65.3886 87.8373 63.6214 87.2055 62.069C86.8845 61.1463 85.6006 60.0089 84.9484 59.2473C83.7408 57.9634 81.606 55.6152 80.4341 54.3655C79.3743 53.2329 77.7286 52.8716 76.2714 52.2956C75.0485 51.8758 73.8104 51.5194 72.5774 51.0995L72.7455 50.9433C72.8474 51.3436 72.9239 51.7293 72.9901 52.1003L72.9799 52.0661ZM72.9799 52.0661C72.7659 51.6024 72.5672 51.1874 72.3838 50.7432C73.7034 51.1532 75.0536 51.495 76.3835 51.905C77.8814 52.4274 79.68 52.7935 80.8315 53.9749L81.5041 54.6486L82.8492 56.0009L85.5241 58.7152L86.8642 60.0772C88.5812 61.6638 88.7596 63.9534 87.0629 65.6474C86.3211 66.4159 85.3299 66.9217 84.2504 67.0826C83.6848 67.1803 83.1345 67.1656 82.7677 67.5708C82.2582 68.2738 81.9524 69.2697 81.2952 69.9531C80.4277 70.9986 79.29 71.8086 77.9949 72.3027C76.6998 72.7968 75.2924 72.9579 73.9123 72.7699C71.8743 72.4721 69.6375 70.8172 69.8362 68.6399C70.4374 64.3927 71.3138 59.9405 72.073 55.7031C72.3226 54.6486 72.4092 53.0279 72.9595 52.0759L72.9799 52.0661Z" fill="black"/>
<path d="M72.98 51.1243C75.2371 53.0086 81.6978 55.967 83.9549 57.8514C84.501 58.3441 85.1045 58.7749 85.7535 59.1353C88.0871 60.3314 91.19 59.4624 92.8867 57.5243C94.5834 55.5862 95.0369 52.8378 94.563 50.3432C94.3847 49.4205 94.0993 48.4686 94.3694 47.5703C94.5171 47.0821 94.828 46.6281 94.9502 46.1058C95.3528 44.4899 93.5745 42.9716 91.8371 42.9521C90.0997 42.9326 88.5507 43.9285 87.2209 45.0025C84.2346 47.4777 80.7733 49.3714 77.0306 50.5775L72.98 51.1243Z" fill="#FF8DAC"/>
<path d="M72.9799 51.1241C75.8943 53.1843 79.2469 54.5414 82.3142 56.4014C83.8427 57.202 85.0452 58.6812 86.7521 59.145C89.534 59.8333 92.5147 58.1393 93.549 55.6252C94.5323 53.5406 94.2929 51.2755 93.8088 49.0786C93.6934 48.4231 93.7583 47.75 93.9974 47.1259C94.2609 46.6724 94.4337 46.1757 94.5069 45.6614C94.5069 44.768 93.6713 43.899 92.6981 43.5622C91.7249 43.2253 90.5276 43.489 89.5646 43.943C87.5265 45.0023 85.7432 46.7598 83.6593 47.8484C81.5802 49.055 79.34 49.9861 76.9999 50.6164L72.9646 51.1046L72.9799 51.1241ZM72.9799 51.1241L77.0101 50.5627C80.3714 49.3372 83.4915 47.5742 86.2374 45.3489C87.5927 44.2408 89.1213 42.908 91.0116 42.6102C93.0089 42.1904 95.4698 43.5866 95.5055 45.6809C95.4698 46.8867 94.4865 47.702 94.8126 48.9517C96.1475 53.7408 94.3897 59.6234 88.4589 60.053C87.1579 60.1198 85.8754 59.735 84.8465 58.9692C81.3155 55.8156 76.6942 54.0874 72.9799 51.1241Z" fill="black"/>
<g opacity="0.54">
<path opacity="0.54" d="M71.9405 49.5471C72.9596 49.9767 73.6423 53.8431 73.6525 54.9171C73.5905 55.9872 73.3155 57.0361 72.8424 58.0073L71.7877 60.5751C71.431 61.4392 70.9877 62.3863 70.091 62.7232C69.0312 63.1186 67.9001 62.4839 66.8097 62.1861C65.5716 61.8493 64.2622 61.9518 62.9884 61.6638C61.7146 61.3758 60.4408 60.4824 60.4408 59.2473C60.5037 58.689 60.6302 58.139 60.8178 57.607C60.9809 56.8747 60.9299 56.0497 61.4191 55.4688C62.0661 54.7072 63.2686 54.7707 64.2927 54.7804C67.0512 54.8296 69.7326 53.9072 71.8284 52.1882L71.9405 49.5471Z" fill="white"/>
<path opacity="0.54" d="M72.124 51.4657C71.1861 49.611 70.5257 47.6389 70.1624 45.6076C70.0771 45.3117 70.0986 44.9969 70.2235 44.7142C70.3698 44.5185 70.5551 44.3526 70.7687 44.226C72.2972 43.0983 72.5214 40.7453 74.1977 39.8324C75.5326 39.0903 77.2548 39.5687 78.5999 40.2473C79.1292 40.4958 79.6268 40.8022 80.0826 41.1602C82.2378 42.9323 82.3448 46.3691 80.6634 48.5659C78.982 50.7628 75.9301 51.7342 73.1023 51.4609C72.7764 51.388 72.4339 51.4368 72.1444 51.5975" fill="white"/>
<path opacity="0.54" d="M69.8669 44.6946C69.3284 44.1068 68.6891 43.6115 67.9766 43.23C67.6163 43.039 67.2113 42.9388 66.7996 42.9388C66.3878 42.9388 65.9828 43.039 65.6226 43.23C65.1844 43.5034 64.8889 43.9477 64.4558 44.2064C63.9318 44.46 63.3798 44.6565 62.8101 44.7922C62.3143 44.9773 61.8695 45.2689 61.51 45.6447C61.1504 46.0205 60.8858 46.4704 60.7364 46.9597C60.6578 47.3235 60.5557 47.6822 60.4307 48.0337C60.1126 48.5243 59.7584 48.9925 59.3709 49.4348C58.4181 50.875 59.2129 52.9156 60.6752 53.8822C62.1375 54.8488 64.038 54.9659 65.8111 54.8195C66.9607 54.7263 68.0996 54.5369 69.2147 54.2532C70.356 53.9651 71.5941 53.4721 72.0272 52.4225C72.5367 51.163 71.6705 49.8205 71.0337 48.6098C70.406 47.4153 70.0008 46.1251 69.8363 44.7971" fill="white"/>
<path opacity="0.54" d="M72.5114 52.115C72.3704 52.4006 72.2841 52.7082 72.2567 53.0231L70.9625 61.4784C70.8951 61.7996 70.8762 62.1284 70.9065 62.4547C71.0695 63.5434 72.2974 64.2317 73.454 64.3098C74.3384 64.3574 75.218 64.1563 75.9847 63.7314C76.7514 63.3064 77.3718 62.676 77.7696 61.9177C77.8799 61.6054 78.071 61.3249 78.325 61.1025C78.6387 60.9405 78.9878 60.8519 79.344 60.8437C80.6535 60.6289 81.7795 59.2913 81.3464 58.0904C81.1509 57.6378 80.8574 57.2302 80.4853 56.8943L77.0002 53.2379C76.343 52.5544 73.2349 51.7733 72.3229 51.456L72.5114 52.115Z" fill="white"/>
<path opacity="0.54" d="M72.5115 51.5488C73.8668 52.6814 77.7391 54.4779 79.0995 55.591C79.4186 55.8921 79.7724 56.1574 80.1542 56.3818C81.5554 57.0994 83.4151 56.5771 84.4392 55.4054C84.9257 54.801 85.269 54.1023 85.4449 53.3578C85.6209 52.6134 85.6255 51.8411 85.4582 51.0948C85.2884 50.5572 85.2483 49.9896 85.341 49.435C85.4328 49.1372 85.6162 48.8687 85.6926 48.566C85.9321 47.5897 84.8672 46.6865 83.8227 46.6768C82.7782 46.667 81.8509 47.2626 81.056 47.907C79.263 49.3902 77.1865 50.5258 74.9419 51.251L72.5115 51.5488Z" fill="white"/>
</g>
<path d="M73.7341 52.745C73.6299 50.8715 73.3916 49.0072 73.0208 47.165C72.8934 46.5548 72.7355 45.9348 72.5979 45.2123C73.2374 45.5792 73.7647 46.1012 74.1264 46.7257C75.227 48.5466 75.2525 51.1193 73.7137 52.7303L73.7341 52.745Z" fill="#F2F2F2"/>
<path d="M72.9187 53.1061C71.594 51.3925 70.4527 49.7815 69.0464 48.1608C68.8903 48.0058 68.7765 47.8163 68.7152 47.6091C68.6592 47.243 69.1585 47.1209 69.1992 47.3602C69.0973 47.2967 69.026 47.4383 69.0719 47.4871C69.1177 47.5359 69.1024 47.4871 69.1228 47.4871C71.5838 48.0338 73.4741 50.6993 72.9187 53.1061Z" fill="#F2F2F2"/>
<path d="M71.8898 53.8482C70.1196 53.1714 68.4828 52.2106 67.0494 51.007C69.0875 50.2405 71.6656 51.7588 71.8898 53.8482Z" fill="#F2F2F2"/>
<path d="M73.1023 54.429C73.999 53.106 74.2232 51.6756 75.0232 50.3283C75.734 48.9322 76.7063 47.6729 77.8917 46.6132C77.6726 48.81 75.5327 53.9018 73.1023 54.4241V54.429Z" fill="#F2F2F2"/>
<path d="M72.3175 54.8293C70.8603 55.3175 69.77 54.7707 68.328 55.3175C68.0682 54.3411 69.2248 53.5649 70.1572 53.5795C70.6019 53.5768 71.0388 53.6916 71.4199 53.9112C71.801 54.1308 72.1116 54.4467 72.3175 54.8244V54.8293Z" fill="#F2F2F2"/>
<path d="M72.873 55.5421C73.2639 54.7096 73.8931 54.0004 74.6876 53.4966C75.4821 52.9929 76.4094 52.7153 77.3619 52.696C76.9725 53.5295 76.3437 54.2397 75.5489 54.7436C74.754 55.2476 73.826 55.5245 72.873 55.5421Z" fill="#F2F2F2"/>
<path d="M71.8645 45.2073V45.3196C71.8645 45.5138 71.945 45.7 72.0883 45.8374C72.2317 45.9747 72.4261 46.0518 72.6288 46.0518C72.8315 46.0518 73.0259 45.9747 73.1692 45.8374C73.3125 45.7 73.393 45.5138 73.393 45.3196V45.2073C73.393 45.0131 73.3125 44.8268 73.1692 44.6895C73.0259 44.5522 72.8315 44.475 72.6288 44.475C72.4261 44.475 72.2317 44.5522 72.0883 44.6895C71.945 44.8268 71.8645 45.0131 71.8645 45.2073V45.3196C71.8645 45.5138 71.945 45.7 72.0883 45.8374C72.2317 45.9747 72.4261 46.0518 72.6288 46.0518C72.8315 46.0518 73.0259 45.9747 73.1692 45.8374C73.3125 45.7 73.393 45.5138 73.393 45.3196V45.2073C73.393 45.0131 73.3125 44.8268 73.1692 44.6895C73.0259 44.5522 72.8315 44.475 72.6288 44.475C72.4261 44.475 72.2317 44.5522 72.0883 44.6895C71.945 44.8268 71.8645 45.0131 71.8645 45.2073Z" fill="black"/>
<path d="M68.2975 47.7215H68.5013C68.6039 47.7255 68.7058 47.7036 68.7968 47.658C68.8925 47.6297 68.9787 47.5774 69.0465 47.5067C69.1157 47.4401 69.1695 47.3602 69.2044 47.2724C69.2505 47.1848 69.2716 47.0871 69.2656 46.9892L69.2401 46.7939C69.2041 46.6729 69.1376 46.5623 69.0465 46.4717L68.8885 46.3546C68.7707 46.2899 68.6371 46.2562 68.5013 46.2569H68.2975C68.1947 46.2507 68.0921 46.2727 68.002 46.3204C67.9102 46.3537 67.8268 46.4053 67.7575 46.4718C67.6881 46.5383 67.6342 46.6181 67.5994 46.7061C67.5496 46.7925 67.5266 46.8907 67.5332 46.9892L67.5587 47.1845C67.5945 47.3067 67.663 47.4177 67.7574 47.5067L67.9102 47.619C68.0273 47.6861 68.1611 47.7215 68.2975 47.7215Z" fill="black"/>
<path d="M66.2796 50.3479L66.2542 50.5431C66.25 50.6415 66.2728 50.7391 66.3204 50.8263C66.352 50.9157 66.4063 50.9962 66.4783 51.0606C66.5451 51.1301 66.6293 51.1822 66.7229 51.212C66.8133 51.2592 66.9157 51.2812 67.0184 51.2754H67.2222C67.3507 51.2434 67.4673 51.1774 67.5585 51.085L67.6808 50.9386C67.747 50.8252 67.7821 50.6975 67.7827 50.5676L67.8082 50.3723C67.8098 50.2742 67.7871 50.1772 67.7419 50.0891C67.709 50.0003 67.655 49.9201 67.584 49.8548C67.4349 49.7261 67.2443 49.6503 67.0439 49.64L66.8401 49.6644C66.7124 49.6983 66.5964 49.764 66.5038 49.8548L66.3815 50.0013C66.3153 50.1147 66.2802 50.2423 66.2796 50.3723V50.3479Z" fill="black"/>
<path d="M67.2635 55.6301H67.4724C67.575 55.6341 67.6769 55.6122 67.7679 55.5666C67.8597 55.5333 67.943 55.4817 68.0124 55.4152C68.0818 55.3487 68.1357 55.2689 68.1704 55.1809C68.218 55.0937 68.2409 54.9961 68.2367 54.8978L68.2112 54.7025C68.1734 54.5812 68.1052 54.4706 68.0125 54.3803L67.8596 54.2632C67.7413 54.1997 67.608 54.1661 67.4724 54.1655H67.2635C67.1623 54.1585 67.0611 54.1806 66.9731 54.229C66.8773 54.2573 66.7912 54.3096 66.7234 54.3803C66.6514 54.4447 66.5971 54.5252 66.5655 54.6147C66.5203 54.7027 66.4976 54.7997 66.4992 54.8978L66.5298 55.0931C66.5658 55.2141 66.6323 55.3247 66.7234 55.4153L66.8814 55.5275C66.9963 55.5952 67.1286 55.6307 67.2635 55.6301Z" fill="black"/>
<path d="M69.597 51.5341V51.7342C69.5905 51.8327 69.6135 51.931 69.6633 52.0174C69.6943 52.1071 69.7487 52.1877 69.8212 52.2517C69.8871 52.3223 69.9716 52.3746 70.0658 52.4031C70.1568 52.4487 70.2587 52.4705 70.3613 52.4665H70.5651C70.6917 52.4303 70.8072 52.3649 70.9014 52.2761L71.0186 52.1297C71.0886 52.0175 71.1256 51.8893 71.1256 51.7586V51.5585C71.1149 51.3665 71.0358 51.1838 70.9014 51.041C70.8333 50.973 70.7495 50.9212 70.6568 50.8897C70.5649 50.8464 70.4637 50.8247 70.3613 50.8262L70.1575 50.8555C70.0312 50.89 69.9157 50.9537 69.8212 51.041L69.699 51.1924C69.632 51.3037 69.5969 51.43 69.597 51.5585V51.5341Z" fill="black"/>
<path d="M72.8219 48.8102C72.8219 48.8493 72.7608 48.942 72.7404 48.986C72.7218 49.058 72.7098 49.1315 72.7047 49.2056V49.2349C72.7074 49.3073 72.7176 49.3793 72.7353 49.4497L72.8168 49.6255C72.8576 49.6841 72.9034 49.7378 72.9493 49.7915L72.9748 49.8159L73.0614 49.8793L73.148 49.9428H73.1786L73.2906 49.9916L73.4129 50.0404H73.4384C73.5158 50.0553 73.5941 50.0651 73.6728 50.0697H73.6983C73.7757 50.0655 73.8525 50.0541 73.9275 50.0355L74.111 49.9574C74.1773 49.9228 74.2375 49.8783 74.2893 49.8256C74.3428 49.7752 74.3906 49.7196 74.432 49.6596V49.6304C74.4874 49.5487 74.5191 49.4543 74.5237 49.357C74.555 49.2616 74.555 49.1594 74.5237 49.0641C74.5026 48.9716 74.4569 48.8858 74.3912 48.8151C74.3366 48.7375 74.2632 48.6739 74.1772 48.6296L73.9938 48.5515C73.8603 48.5173 73.7197 48.5173 73.5862 48.5515L73.4027 48.6296C73.2909 48.6937 73.1966 48.7824 73.1276 48.8883C73.1295 48.898 73.1295 48.9079 73.1276 48.9176L73.2448 48.7712L73.3976 48.6589H73.3722L73.5505 48.5856H73.5148H73.7186H73.6677H73.8715H73.8053L73.9887 48.6638L73.9275 48.6296L74.0804 48.7419C74.0643 48.7314 74.0505 48.7182 74.0396 48.7028L74.1568 48.8493C74.1552 48.8379 74.1552 48.8264 74.1568 48.8151L74.2333 48.986C74.231 48.9763 74.231 48.9663 74.2333 48.9567L74.2587 49.1519V49.1178L74.2333 49.313C74.231 49.3017 74.231 49.2902 74.2333 49.2789L74.1568 49.4546C74.2123 49.3729 74.2439 49.2786 74.2485 49.1812C74.2788 49.0874 74.2788 48.987 74.2485 48.8932C74.2306 48.7996 74.1846 48.7131 74.1161 48.6442C74.0625 48.5628 73.9868 48.497 73.897 48.4538L73.7186 48.3806C73.5851 48.3464 73.4446 48.3464 73.311 48.3806L73.1276 48.4538C73.0133 48.5169 72.9183 48.6079 72.8525 48.7175L72.8219 48.8102Z" fill="black"/>
<path d="M77.0407 45.8761L76.8369 46.0763C76.7633 46.1394 76.7087 46.2203 76.679 46.3106C76.6354 46.3992 76.6128 46.4959 76.6128 46.5938C76.6128 46.6917 76.6354 46.7884 76.679 46.8769C76.71 46.9666 76.7644 47.0472 76.8369 47.1112L76.9898 47.2235C77.1068 47.2906 77.2406 47.326 77.377 47.326H77.5808C77.7074 47.2898 77.8229 47.2244 77.9171 47.1357L78.126 46.9355C78.1974 46.8706 78.2516 46.7902 78.2839 46.7012C78.33 46.6136 78.3511 46.5159 78.3451 46.418C78.3509 46.3217 78.3298 46.2256 78.2839 46.1398C78.2504 46.0498 78.1965 45.9681 78.126 45.9006L77.968 45.7883C77.8637 45.7086 77.7386 45.658 77.6063 45.6418L77.4076 45.6711C77.2792 45.7042 77.1618 45.7681 77.0662 45.8566L77.0407 45.8761Z" fill="black"/>
<path d="M77.9428 52.3348C77.9408 52.187 77.8987 52.0423 77.8205 51.9149C77.7851 51.8537 77.7405 51.7977 77.688 51.7489L77.5301 51.6318C77.4791 51.6318 77.3925 51.5732 77.3416 51.5585C77.2567 51.5373 77.1694 51.5258 77.0817 51.5244L76.8473 51.5537H76.8168C76.6728 51.5913 76.5413 51.6636 76.4346 51.7636C76.37 51.8158 76.3179 51.8808 76.2818 51.954C76.245 52.0173 76.2159 52.0844 76.1952 52.1541C76.1596 52.2903 76.1596 52.4329 76.1952 52.5691C76.2164 52.6402 76.2454 52.7089 76.2818 52.7741C76.2818 52.7741 76.2818 52.7741 76.2818 52.8132C76.2818 52.8522 76.3735 52.9303 76.4244 52.984C76.4815 53.0344 76.5428 53.0802 76.6079 53.1207H76.6384L76.8371 53.2037H76.8779H77.0868C77.0924 53.206 77.0985 53.2072 77.1046 53.2072C77.1108 53.2072 77.1168 53.206 77.1225 53.2037H77.3314H77.3568C77.4287 53.1795 77.4985 53.1501 77.5657 53.1158H77.6065C77.7377 53.0373 77.8476 52.9303 77.9275 52.8034C77.9621 52.7368 77.9927 52.6683 78.0192 52.5984C78.0214 52.5871 78.0214 52.5755 78.0192 52.5642C78.0385 52.4873 78.0505 52.4089 78.0549 52.3299V52.2859C78.0479 52.2072 78.036 52.129 78.0192 52.0516C77.9958 51.979 77.9651 51.9087 77.9275 51.8417C77.9284 51.8287 77.9284 51.8156 77.9275 51.8026C77.8841 51.7411 77.8364 51.6824 77.7848 51.6269C77.7292 51.5799 77.6695 51.5375 77.6065 51.5C77.5375 51.4609 77.464 51.4298 77.3874 51.4072C77.2871 51.3828 77.182 51.3828 77.0817 51.4072C76.9817 51.4118 76.8849 51.4421 76.8015 51.4951C76.7138 51.541 76.6387 51.6063 76.5824 51.6855C76.5138 51.7543 76.4678 51.8409 76.4499 51.9344L76.4193 52.1297C76.4187 52.2589 76.4557 52.3857 76.5263 52.4958L76.6435 52.6472C76.738 52.7345 76.8535 52.7982 76.9798 52.8327L76.7964 52.7595L76.8422 52.7839L76.6843 52.6667C76.7003 52.6771 76.7142 52.6904 76.725 52.7058L76.6028 52.5544C76.6168 52.5701 76.6272 52.5884 76.6333 52.6081L76.5569 52.4324C76.5591 52.4535 76.5591 52.4747 76.5569 52.4958L76.5263 52.3006C76.5314 52.3231 76.5314 52.3464 76.5263 52.3689L76.5569 52.1737C76.5581 52.1932 76.5581 52.2127 76.5569 52.2322L76.6333 52.0614L76.6079 52.1053L76.725 51.954L76.6894 51.9881L76.8473 51.8759L76.8015 51.9003L76.9849 51.827H76.9339L77.1327 51.8026C77.1126 51.8076 77.0916 51.8076 77.0715 51.8026L77.2753 51.827C77.2518 51.8321 77.2275 51.8321 77.204 51.827L77.3874 51.9003L77.3263 51.8661L77.4791 51.9784C77.4631 51.968 77.4492 51.9547 77.4384 51.9393L77.5555 52.0907C77.544 52.076 77.5354 52.0595 77.5301 52.0418L77.6065 52.2176V52.1737L77.6371 52.3689L77.6116 52.5642C77.6085 52.5563 77.6085 52.5476 77.6116 52.5398L77.5352 52.7155L77.4129 52.862L77.26 52.9743H77.2906L77.1123 53.0475H77.1581L76.9543 53.0768H77.0104L76.8066 53.0475H76.8575L76.6792 52.9743H76.7098L76.5518 52.862H76.5773L76.4601 52.7155L76.3837 52.5398V52.5691L76.3531 52.3738C76.3471 52.4717 76.3682 52.5694 76.4142 52.6569C76.4471 52.7458 76.5012 52.826 76.5722 52.8913C76.6399 52.962 76.7261 53.0143 76.8218 53.0426C76.9128 53.0882 77.0148 53.1101 77.1174 53.1061L77.3161 53.0817C77.4448 53.0467 77.5622 52.9813 77.6575 52.8913L77.7746 52.7448C77.8425 52.6318 77.8793 52.5042 77.8816 52.3738L77.9428 52.3348Z" fill="black"/>
<path d="M76.4037 45.9982V46.1983C76.3995 46.2966 76.4223 46.3943 76.4699 46.4815C76.5047 46.5694 76.5585 46.6492 76.6279 46.7157C76.6973 46.7822 76.7807 46.8338 76.8724 46.8671C76.9634 46.9127 77.0654 46.9346 77.168 46.9306H77.3718C77.4984 46.8944 77.6138 46.829 77.708 46.7402L77.8303 46.5937C77.8966 46.4803 77.9316 46.3527 77.9322 46.2227V46.0226C77.9396 45.9256 77.9165 45.8287 77.866 45.7443C77.8324 45.6552 77.7791 45.5741 77.7096 45.5066C77.6401 45.4392 77.5561 45.387 77.4635 45.3538C77.3716 45.3105 77.2703 45.2888 77.168 45.2903L76.9641 45.3196C76.8379 45.354 76.7224 45.4178 76.6279 45.5051L76.5107 45.6564C76.4401 45.7665 76.403 45.8934 76.4037 46.0226V45.9982Z" fill="black"/>
<path d="M79.818 115.676C80.1695 116.97 76.715 120.587 75.6247 121.422C74.5343 122.257 73.1586 122.652 71.8186 123.033L68.3692 124.01C67.2126 124.342 65.8929 124.654 64.8535 124.063C63.6358 123.37 63.4167 121.813 62.8817 120.553C62.2754 119.123 61.1494 117.946 60.4819 116.545C59.8144 115.144 59.7482 113.245 60.9914 112.279C61.6119 111.909 62.2732 111.606 62.9632 111.375C63.8447 110.965 64.6497 110.282 65.6229 110.297C66.9069 110.297 67.768 111.502 68.5475 112.479C70.6181 115.121 73.6301 116.942 77.0105 117.595L79.818 115.676Z" fill="#FF8DAC"/>
<path d="M79.8175 115.676C80.0366 117.366 76.633 120.944 75.2319 121.93C73.8613 122.828 72.2054 123.204 70.6717 123.707C69.7342 123.971 68.4961 124.41 67.5433 124.635C65.5664 125.186 63.8289 124.469 63.136 122.555C62.6852 121.09 61.9864 119.707 61.0674 118.459C60.3805 117.574 59.8883 116.564 59.6204 115.491C59.4717 114.91 59.4695 114.304 59.6139 113.723C59.7583 113.141 60.0452 112.601 60.4509 112.147C61.3374 111.302 62.4533 111.254 63.4213 110.648C66.2237 108.852 67.6248 110.526 69.1636 112.601C70.461 114.224 72.1266 115.543 74.0345 116.458C75.003 116.9 76.0065 117.269 77.0356 117.561L79.8379 115.652L79.8175 115.676ZM79.8175 115.676L77.0356 117.629C74.8504 117.296 72.7772 116.477 70.9825 115.237C69.674 114.274 68.5144 113.138 67.5382 111.864C66.3714 110.507 65.3575 110.399 63.8595 111.415C63.0443 111.981 61.8215 112.166 61.1183 112.811C59.0344 115.501 62.6163 118.181 63.4672 120.763C64.1397 122.897 64.6544 124.464 67.3293 123.873C68.3483 123.658 69.403 123.341 70.4424 123.077C72.4805 122.516 74.702 122.203 76.2305 120.675C77.4119 119.618 78.4524 118.424 79.3284 117.121C79.6533 116.698 79.8202 116.182 79.8022 115.657L79.8175 115.676Z" fill="black"/>
<path d="M77.9885 117.326C79.1767 115.018 80.6981 112.882 82.5079 110.98C82.7433 110.67 83.0835 110.447 83.4708 110.35C83.7816 110.339 84.0916 110.387 84.3829 110.492C86.7266 111.078 89.3099 109.472 91.5568 110.336C93.3452 111.024 94.1605 113.001 94.5171 114.812C94.6647 115.504 94.7313 116.21 94.7158 116.916C94.5528 120.334 91.1034 123.058 87.552 123.16C84.0007 123.263 80.6634 121.115 78.7578 118.239C78.5336 117.907 78.284 117.527 77.8815 117.439" fill="#FF8DAC"/>
<path d="M77.9885 117.326C78.9852 115.116 80.3025 113.052 81.9016 111.195C82.4111 110.59 83.1091 109.774 84.0211 110.038C86.2426 110.712 88.3673 109.418 90.6448 109.657C94.4713 109.994 95.847 115.515 94.9044 118.444C93.9618 121.373 90.8283 123.409 87.6438 123.502C83.9651 123.58 80.6634 121.378 78.819 118.464C78.5541 118.068 78.3655 117.571 77.8662 117.419C78.3757 117.512 78.6458 118.02 78.9464 118.396C79.8101 119.548 80.8963 120.53 82.1461 121.29C85.3917 123.38 89.8857 123.321 92.5606 120.446C93.199 119.805 93.672 119.029 93.9418 118.182C94.2117 117.334 94.2708 116.438 94.1146 115.564C93.8599 113.865 93.3198 111.888 91.7556 110.951C89.3608 109.686 86.4006 111.698 83.853 110.702C83.155 110.516 82.834 111.102 82.3245 111.571C80.6394 113.32 79.1786 115.255 77.9732 117.336L77.9885 117.326Z" fill="black"/>
<path d="M83.2108 109.984C83.4099 109.019 83.4341 108.028 83.2822 107.055C83.1985 106.569 82.9885 106.112 82.6715 105.724C82.3545 105.337 81.9406 105.032 81.4683 104.839C80.8467 104.634 80.1639 104.697 79.5423 104.502C78.8443 104.282 78.3042 103.76 77.6775 103.399C77.1053 103.073 76.4627 102.878 75.7992 102.828C75.1358 102.778 74.4693 102.875 73.851 103.111C73.4176 103.317 72.9698 103.495 72.511 103.643C71.7824 103.823 71.0079 103.643 70.2539 103.726C68.0426 103.936 66.5548 106.259 66.6873 108.383C66.8197 110.507 68.1649 112.386 69.6781 113.948C70.6604 114.96 71.7308 115.889 72.8779 116.726C74.0497 117.58 75.5121 118.371 76.9234 117.971C78.6201 117.483 79.3232 115.628 80.0824 114.1C80.8287 112.589 81.8423 111.213 83.0783 110.033" fill="#FF8DAC"/>
<path d="M83.211 109.984C83.4555 108.207 83.3944 105.561 81.2442 105.019C80.7755 104.917 80.2252 104.941 79.68 104.829C78.5795 104.609 77.8713 103.731 76.8777 103.413C75.9658 103.106 74.9686 103.125 74.0703 103.467C73.5781 103.707 73.067 103.909 72.5417 104.072C71.4565 104.311 70.4731 103.955 69.4846 104.375C67.7625 105.093 66.8708 107.177 67.2326 108.92C67.7421 111.732 70.2285 114.026 72.4449 115.881C75.2982 118.283 77.6267 118.635 79.359 114.949C80.2235 113.086 81.4773 111.413 83.0428 110.033C82.3399 110.778 81.7121 111.586 81.1678 112.445C79.5679 114.929 78.9005 119.577 74.6766 118.19C72.5978 117.39 71.0641 115.925 69.4999 114.475C67.9357 113.025 66.611 111.205 66.2288 109.081C65.8467 106.957 66.8963 104.414 69.1229 103.521C70.1419 103.071 71.3546 103.399 72.3226 103.242C72.8036 103.094 73.2734 102.915 73.7289 102.705C74.8227 102.33 76.0217 102.349 77.1019 102.759C78.1209 103.096 78.7986 104.019 79.7819 104.287C80.2405 104.409 80.801 104.404 81.3105 104.56C83.6542 105.302 83.6441 108.1 83.1498 109.984H83.211Z" fill="black"/>
<path d="M77.6063 118.176C77.2059 118.262 76.8247 118.416 76.4803 118.63L66.7995 123.912C66.4276 124.096 66.0845 124.33 65.7805 124.605C64.7615 125.582 65.0162 127.285 65.8213 128.428C66.4524 129.3 67.3364 129.977 68.3641 130.373C69.3918 130.769 70.5183 130.869 71.6043 130.659C72.0103 130.526 72.4443 130.491 72.8679 130.556C73.2608 130.728 73.6089 130.982 73.8869 131.298C75.1199 132.372 77.3567 132.406 78.2636 131.069C78.5778 130.536 78.7722 129.945 78.8343 129.336L79.9043 123.234C80.103 122.091 78.5235 118.552 78.1362 117.449L77.6063 118.176Z" fill="#FF8DAC"/>
<path d="M77.6063 118.176C76.8522 118.347 75.7822 119.152 75.0587 119.543C72.2615 121.251 69.1636 122.96 66.3664 124.63C65.2709 125.377 65.3881 126.822 65.9995 127.876C66.4577 128.606 67.1042 129.211 67.877 129.633C68.6498 130.054 69.5227 130.278 70.4119 130.283C71.1711 130.332 71.808 130.019 72.608 130.034C73.5098 130.058 73.948 130.869 74.6154 131.245C75.6345 131.83 77.2751 131.791 77.9018 130.756C78.3043 130.18 78.4113 128.911 78.5947 128.213L79.1399 125.46C79.2316 125.01 79.4762 123.834 79.5679 123.399C79.7768 122.281 79.252 121.207 78.9361 120.114L77.9884 117.463L78.2228 117.492C78.0088 117.732 77.7948 117.951 77.591 118.151L77.6063 118.176ZM77.6063 118.176C77.7948 117.8 77.9578 117.483 78.1464 117.141L78.2534 117.409C78.9361 119.182 79.8329 120.827 80.159 122.75C80.1725 123.242 80.1263 123.733 80.0214 124.215L79.8227 125.601L79.3998 128.374L79.1807 129.765C79.1625 130.172 79.0561 130.57 78.8683 130.935C78.6805 131.3 78.4154 131.624 78.0899 131.885C77.7645 132.146 77.3857 132.34 76.9779 132.453C76.57 132.566 76.142 132.597 75.7211 132.543C74.875 132.472 74.0792 132.128 73.4639 131.567C73.1531 131.303 72.9544 131.01 72.5621 130.981C71.8997 131.015 71.1405 131.303 70.4221 131.249C69.356 131.242 68.3103 130.968 67.3888 130.455C66.4673 129.941 65.7021 129.205 65.169 128.32C64.3895 127.002 64.3844 124.903 65.8875 123.98C68.8019 122.364 71.9558 120.827 74.9415 119.328C75.7211 118.996 76.7554 118.293 77.6063 118.186V118.176Z" fill="black"/>
<path d="M78.1821 117.737C78.0649 119.889 79.2011 124.908 79.0992 127.061C79.0516 127.598 79.0653 128.138 79.14 128.672C79.4813 130.542 81.4481 131.899 83.4301 131.972C85.4121 132.045 87.3126 131.02 88.6322 129.599C89.1417 129.077 89.5748 128.472 90.2525 128.213C90.6295 128.066 91.0473 128.037 91.4142 127.876C92.5962 127.359 92.7083 125.65 91.9237 124.654C91.139 123.658 89.799 123.248 88.5252 122.989C85.6154 122.437 82.8461 121.346 80.373 119.777L78.1821 117.737Z" fill="#FF8DAC"/>
<path d="M78.1823 117.737C78.2842 120.339 79.0026 122.867 79.3033 125.455C79.558 127.056 79.0078 128.931 80.3529 130.18C82.1158 132.055 85.178 131.791 87.1141 130.288C88.2962 129.541 88.8567 128.12 90.3088 127.686C90.6976 127.632 91.0727 127.51 91.4144 127.324C91.6674 127.087 91.8427 126.784 91.9187 126.453C91.9947 126.122 91.9682 125.777 91.8424 125.46C91.6948 125.112 91.4757 124.796 91.1982 124.531C90.9208 124.266 90.5906 124.057 90.2272 123.917C88.6579 123.248 86.732 123.038 85.1321 122.35C83.4318 121.713 81.8307 120.855 80.3732 119.802L78.2027 117.737H78.1823ZM78.1823 117.737L80.3936 119.758C82.7158 121.062 85.2489 121.986 87.8886 122.491C89.6821 122.818 91.9647 123.233 92.7239 125.176C92.9323 125.67 92.9761 126.213 92.8493 126.732C92.7225 127.25 92.4313 127.718 92.0156 128.071C91.2565 128.633 90.3241 128.423 89.6974 129.184C87.3638 132.187 82.7221 133.91 79.7465 130.693C79.088 129.969 78.7259 129.041 78.7275 128.081C79.0638 124.635 78.0142 121.222 78.1671 117.737H78.1823Z" fill="black"/>
<g opacity="0.54">
<path opacity="0.54" d="M78.6764 116.428C78.8853 117.204 76.8116 119.357 76.1594 119.875C75.4695 120.335 74.695 120.666 73.8767 120.851L71.803 121.442C71.1101 121.637 70.3203 121.828 69.6987 121.471C68.965 121.056 68.8326 120.119 68.5116 119.367C68.1498 118.508 67.4925 117.805 67.0696 116.96C66.6467 116.116 66.6315 114.978 67.3855 114.402C67.7594 114.179 68.1574 113.996 68.5727 113.856C69.0822 113.611 69.5917 113.201 70.1675 113.211C70.9369 113.211 71.4566 113.934 71.9202 114.519C73.1652 116.11 74.9798 117.204 77.0154 117.59L78.6764 116.428Z" fill="white"/>
<path opacity="0.54" d="M77.6065 117.405C78.3155 116.014 79.2264 114.728 80.312 113.582C80.4572 113.399 80.6614 113.267 80.8929 113.206C81.0788 113.202 81.2639 113.231 81.438 113.294C82.8443 113.646 84.3983 112.679 85.7434 113.201C86.8134 113.611 87.3026 114.798 87.5166 115.886C87.6082 116.3 87.6492 116.723 87.6388 117.146C87.542 119.186 85.4683 120.832 83.3436 120.895C81.219 120.959 79.2013 119.675 78.0651 117.966C77.9326 117.766 77.7797 117.536 77.5555 117.478" fill="white"/>
<path opacity="0.54" d="M80.7147 113.011C80.8325 112.432 80.8463 111.837 80.7555 111.253C80.707 110.961 80.582 110.686 80.3922 110.453C80.2024 110.22 79.954 110.037 79.6702 109.921C79.2983 109.804 78.8856 109.843 78.5136 109.721C78.1162 109.54 77.7403 109.319 77.3927 109.062C77.0502 108.866 76.6653 108.748 76.2677 108.717C75.8701 108.687 75.4705 108.744 75.0999 108.886C74.8399 109.011 74.5708 109.119 74.2948 109.208C73.8449 109.256 73.3919 109.273 72.9395 109.257C71.6148 109.379 70.718 110.775 70.7996 112.049C70.8811 113.323 71.6861 114.456 72.5931 115.388C73.1824 115.996 73.8251 116.555 74.5139 117.058C75.217 117.571 76.0934 118.034 76.9443 117.805C77.9633 117.517 78.3811 116.399 78.8346 115.481C79.2848 114.575 79.8931 113.75 80.6332 113.04" fill="white"/>
<path opacity="0.54" d="M77.3468 117.922C77.1051 117.972 76.8753 118.065 76.6692 118.195L70.8556 121.364C70.6307 121.476 70.4217 121.615 70.234 121.779C69.6328 122.374 69.7805 123.385 70.2595 124.073C70.6384 124.596 71.1688 125.002 71.7854 125.239C72.402 125.477 73.0778 125.537 73.7293 125.411C73.9734 125.332 74.2337 125.31 74.4885 125.347C74.7277 125.451 74.94 125.604 75.1101 125.796C75.8438 126.436 77.1889 126.46 77.7341 125.66C77.9197 125.339 78.0358 124.985 78.0754 124.62L78.7174 120.958C78.8397 120.27 77.8869 118.147 77.6576 117.483L77.3468 117.922Z" fill="white"/>
<path opacity="0.54" d="M77.693 117.658C77.6217 118.947 78.3146 121.959 78.2433 123.253C78.2127 123.578 78.2213 123.906 78.2688 124.229C78.4094 124.785 78.7382 125.28 79.2037 125.638C79.6692 125.996 80.2452 126.196 80.8418 126.206C81.4389 126.201 82.0277 126.072 82.5671 125.826C83.1065 125.581 83.5836 125.226 83.9651 124.786C84.2201 124.441 84.5527 124.156 84.9383 123.951C85.1625 123.863 85.4122 123.849 85.6313 123.751C86.3395 123.438 86.4108 122.413 85.937 121.798C85.3969 121.255 84.6762 120.91 83.8989 120.822C82.1528 120.493 80.491 119.84 79.0076 118.898L77.693 117.658Z" fill="white"/>
</g>
<path d="M77.5297 118.913C78.1666 118.186 78.9054 117.488 79.5677 116.828C80.2301 116.169 80.923 115.447 81.6669 114.803C82.2121 116.999 79.853 119.347 77.5449 118.913H77.5297Z" fill="#F2F2F2"/>
<path d="M76.9337 118.615C77.1833 117.096 77.5738 115.601 78.1005 114.148C78.1617 114.056 78.1515 113.856 78.34 113.66C78.5285 113.465 78.9157 113.709 78.7578 113.841C78.7578 113.753 78.5998 113.841 78.6355 113.87C78.6712 113.899 78.6814 113.87 78.6864 113.87C79.7717 115.418 78.8138 118.005 76.9337 118.581V118.615Z" fill="#F2F2F2"/>
<path d="M76.0017 118.381C75.5376 117.471 75.317 116.464 75.3597 115.452C75.3724 115.07 75.4253 114.691 75.5176 114.319C75.9377 114.473 76.2949 114.752 76.5367 115.115C76.8927 115.621 77.0378 116.237 76.9435 116.84C76.8492 117.444 76.5222 117.992 76.0272 118.376L76.0017 118.381Z" fill="#F2F2F2"/>
<path d="M76.2102 119.328C77.4483 119.084 78.3604 118.518 79.5883 118.352C80.796 118.103 82.0483 118.133 83.2415 118.439C82.7434 118.813 82.1884 119.111 81.5958 119.323C80.1131 119.811 77.5197 120.48 76.2102 119.323V119.328Z" fill="#F2F2F2"/>
<path d="M75.5939 119.074C75.0993 118.841 74.6631 118.507 74.315 118.098C73.994 117.727 73.9685 117.439 73.4437 117.063C73.8972 116.316 75.0538 116.575 75.5124 117.185C75.7382 117.452 75.8681 117.783 75.8828 118.126C75.8974 118.47 75.7961 118.809 75.5939 119.094V119.074Z" fill="#F2F2F2"/>
<path d="M75.4105 119.718C76.0938 119.435 76.8623 119.403 77.5685 119.63C78.2747 119.856 78.8688 120.324 79.237 120.944C78.554 121.229 77.7847 121.262 77.0779 121.036C76.3711 120.81 75.777 120.34 75.4105 119.718Z" fill="#F2F2F2"/>
<path d="M81.1321 114.29L81.0557 114.349C80.2812 114.93 81.3665 115.96 82.1358 115.384L82.2123 115.33C82.9867 114.749 81.8964 113.719 81.1321 114.29L81.0557 114.349C80.2812 114.93 81.3665 115.96 82.1358 115.384L82.2123 115.33C82.9867 114.749 81.8964 113.719 81.1321 114.29Z" fill="black"/>
<path d="M78.029 113.694L78.1258 113.812C78.1926 113.881 78.2767 113.933 78.3703 113.963C78.4607 114.01 78.5631 114.032 78.6659 114.026C78.7687 114.033 78.8712 114.011 78.9614 113.963C79.0565 113.936 79.1415 113.884 79.206 113.812L79.3282 113.665C79.3945 113.552 79.4295 113.424 79.4301 113.294L79.4047 113.099C79.3689 112.977 79.3004 112.866 79.206 112.777L79.1142 112.659C79.0465 112.589 78.9603 112.537 78.8646 112.508C78.7752 112.463 78.6751 112.441 78.5742 112.445C78.4715 112.441 78.3696 112.463 78.2786 112.508C78.1829 112.537 78.0967 112.589 78.029 112.659L77.9118 112.806C77.8433 112.918 77.8081 113.047 77.8099 113.177L77.8354 113.372C77.8713 113.493 77.9378 113.604 78.029 113.694Z" fill="black"/>
<path d="M75.5326 113.387L75.4052 113.465C75.3167 113.506 75.2424 113.57 75.1912 113.65C75.1222 113.72 75.0746 113.806 75.0536 113.899C75.0282 113.996 75.0282 114.096 75.0536 114.192C75.0582 114.29 75.0899 114.384 75.1454 114.466L75.2625 114.612C75.3565 114.704 75.4744 114.77 75.6039 114.803L75.8026 114.827C75.9383 114.827 76.0718 114.793 76.1899 114.729L76.3223 114.651C76.4075 114.604 76.4805 114.539 76.5363 114.461C76.6037 114.391 76.6511 114.305 76.6739 114.212C76.702 114.116 76.702 114.015 76.6739 113.919C76.6731 113.823 76.643 113.73 76.5873 113.65L76.465 113.499C76.3705 113.412 76.255 113.348 76.1287 113.314L75.9249 113.284C75.7885 113.284 75.6547 113.32 75.5377 113.387H75.5326Z" fill="black"/>
<path d="M72.6791 116.765L72.7709 116.877C72.8386 116.948 72.9248 117 73.0205 117.029C73.1086 117.077 73.2097 117.099 73.3109 117.092C73.4137 117.098 73.5163 117.076 73.6064 117.029C73.7016 117.002 73.7866 116.95 73.851 116.877L73.9733 116.731C74.0402 116.618 74.0753 116.49 74.0752 116.36L74.0497 116.169C74.0152 116.045 73.9466 115.932 73.851 115.842L73.7593 115.725C73.6901 115.656 73.6044 115.604 73.5096 115.574C73.4196 115.531 73.32 115.509 73.2192 115.51C73.1169 115.509 73.0156 115.531 72.9237 115.574C72.8298 115.603 72.7455 115.655 72.6791 115.725L72.5569 115.877C72.4899 115.988 72.4548 116.114 72.455 116.243L72.4804 116.438C72.5149 116.562 72.5835 116.675 72.6791 116.765Z" fill="black"/>
<path d="M76.1796 115.94L76.0573 116.028C75.9848 116.092 75.9304 116.173 75.8994 116.262C75.8522 116.35 75.8294 116.447 75.8331 116.545C75.8289 116.644 75.8518 116.741 75.8994 116.828C75.9271 116.92 75.982 117.001 76.0573 117.063L76.2102 117.18C76.3285 117.243 76.4618 117.277 76.5974 117.278L76.8012 117.253C76.9287 117.219 77.0446 117.153 77.1375 117.063L77.2598 116.975C77.3336 116.91 77.3881 116.827 77.4177 116.736C77.4647 116.65 77.4875 116.554 77.484 116.457C77.4882 116.359 77.4653 116.262 77.4177 116.174C77.39 116.083 77.3351 116.002 77.2598 115.94L77.1069 115.823C76.9895 115.757 76.8556 115.723 76.7197 115.725H76.5159C76.3884 115.759 76.2725 115.825 76.1796 115.916V115.94Z" fill="black"/>
<path d="M79.4149 116.428H79.3894L79.2977 116.467L79.2009 116.506C79.0769 116.576 78.9734 116.676 78.9003 116.794C78.8697 116.858 78.8391 116.921 78.8137 116.985C78.7963 117.055 78.7861 117.127 78.7831 117.2V117.234C78.7831 117.287 78.7831 117.375 78.8086 117.429C78.8057 117.443 78.8057 117.458 78.8086 117.473C78.8086 117.532 78.8595 117.6 78.8901 117.654L78.9512 117.732C78.9512 117.732 78.992 117.785 79.0175 117.81L79.099 117.868L79.1754 117.927C79.2376 117.958 79.3024 117.984 79.369 118.005H79.4709H79.5728C79.6482 118 79.7231 117.991 79.797 117.976C79.894 117.954 79.9835 117.909 80.0569 117.844C80.1405 117.793 80.209 117.723 80.2556 117.639C80.3102 117.557 80.3417 117.463 80.3473 117.366C80.3727 117.269 80.3727 117.169 80.3473 117.073L80.2709 116.897C80.2035 116.788 80.1089 116.698 79.9957 116.633L79.8123 116.56C79.6805 116.526 79.5416 116.526 79.4098 116.56L79.6136 116.531L79.8174 116.56H79.7919L79.9753 116.638H79.9499L80.1078 116.75H80.0823L80.2046 116.897L80.1791 116.863L80.2556 117.038C80.2532 117.021 80.2532 117.003 80.2556 116.985V117.18V117.131V117.326C80.2526 117.315 80.2526 117.304 80.2556 117.292L80.1791 117.463L80.062 117.61L79.9091 117.722L79.7257 117.795C79.8239 117.777 79.9143 117.731 79.9855 117.663C80.0702 117.614 80.1389 117.543 80.1842 117.458C80.2395 117.378 80.2712 117.286 80.276 117.19C80.3014 117.094 80.3014 116.993 80.276 116.897L80.1995 116.721C80.1337 116.612 80.0387 116.521 79.9244 116.458L79.741 116.384C79.6092 116.35 79.4702 116.35 79.3384 116.384L79.4149 116.428Z" fill="black"/>
<path d="M83.2113 117.429L82.9922 117.404C82.8894 117.399 82.787 117.421 82.6967 117.468C82.603 117.498 82.5189 117.55 82.4521 117.619C82.379 117.683 82.3246 117.764 82.2941 117.854C82.2466 117.941 82.2237 118.038 82.2279 118.137L82.2585 118.332C82.2944 118.453 82.3609 118.564 82.4521 118.654L82.61 118.767C82.725 118.834 82.8573 118.87 82.9922 118.869L83.2113 118.893C83.3141 118.9 83.4166 118.878 83.5068 118.83C83.6004 118.8 83.6846 118.748 83.7513 118.679C83.825 118.616 83.8796 118.535 83.9093 118.444C83.9569 118.357 83.9797 118.259 83.9755 118.161V117.966C83.9377 117.845 83.8695 117.734 83.7768 117.644L83.624 117.531C83.5069 117.464 83.3731 117.429 83.2367 117.429H83.2113Z" fill="black"/>
<path d="M79.9143 121.193C79.9659 121.143 80.0105 121.088 80.0468 121.027L80.0876 120.939L80.1538 120.822C80.1689 120.751 80.1791 120.679 80.1844 120.607C80.1803 120.536 80.1701 120.466 80.1538 120.397C80.1427 120.365 80.1291 120.334 80.113 120.304C80.1016 120.273 80.088 120.242 80.0723 120.212C80.0361 120.159 79.997 120.109 79.9551 120.06L79.8736 119.997L79.792 119.938L79.6086 119.86C79.5352 119.842 79.4601 119.83 79.3844 119.826L79.1755 119.855L79.0736 119.894C78.9729 119.927 78.882 119.982 78.8087 120.055C78.7628 120.109 78.717 120.163 78.6762 120.221V120.246C78.6447 120.311 78.6175 120.378 78.5947 120.446C78.5947 120.5 78.5947 120.583 78.5692 120.641C78.5668 120.651 78.5668 120.661 78.5692 120.67C78.5692 120.739 78.5692 120.812 78.5998 120.885C78.6304 120.959 78.5998 120.885 78.5998 120.91C78.5998 120.963 78.6507 121.037 78.6762 121.09L78.7424 121.168L78.8036 121.247C78.9088 121.346 79.0385 121.418 79.1806 121.456H79.2061C79.283 121.474 79.3615 121.484 79.4405 121.486H79.5526H79.6596H79.6901C79.7615 121.456 79.8328 121.432 79.899 121.398C79.9632 121.358 80.0244 121.314 80.0825 121.266L80.1079 121.242L80.2302 121.085L80.3066 120.91C80.3066 120.91 80.3066 120.885 80.3066 120.876C80.3475 120.728 80.3475 120.574 80.3066 120.426C80.2838 120.333 80.2365 120.248 80.1691 120.177C80.1187 120.095 80.0443 120.029 79.9551 119.987C79.8691 119.91 79.7606 119.861 79.6443 119.845C79.5457 119.821 79.4423 119.821 79.3437 119.845L79.1602 119.919C79.0448 119.98 78.9496 120.072 78.8851 120.182L78.8087 120.358C78.773 120.484 78.773 120.617 78.8087 120.744L78.7781 120.548C78.7832 120.561 78.7832 120.575 78.7781 120.587L78.8087 120.397V120.436L78.8851 120.26C78.8868 120.275 78.8868 120.29 78.8851 120.304L79.0074 120.153C78.9968 120.166 78.9849 120.177 78.9717 120.187L79.1246 120.075H79.0838L79.2621 120.002H79.2214H79.4252H79.3844H79.5882H79.5526L79.736 120.075H79.7003L79.8583 120.187L79.8226 120.158L79.9449 120.304C79.9346 120.292 79.926 120.279 79.9194 120.265L79.9958 120.436V120.387L80.0264 120.583C80.0213 120.567 80.0213 120.55 80.0264 120.534L79.9958 120.729V120.69L79.9194 120.861C79.9194 120.861 79.9194 120.861 79.9194 120.832L79.8022 120.983L79.6443 121.1L79.4609 121.173L79.2621 121.198L79.0583 121.173L78.8749 121.095H78.9055L78.7475 120.978L78.7781 121.007L78.6558 120.856C78.6575 120.867 78.6575 120.879 78.6558 120.89L78.5794 120.714C78.5811 120.726 78.5811 120.737 78.5794 120.749L78.5539 120.553L78.5794 120.358L78.6558 120.187L78.773 120.041C78.6992 120.106 78.6447 120.188 78.6151 120.28C78.5675 120.367 78.5446 120.465 78.5488 120.563C78.5453 120.66 78.5681 120.756 78.6151 120.841C78.6447 120.933 78.6992 121.016 78.773 121.081L78.9259 121.193C79.0438 121.258 79.1771 121.293 79.3131 121.295L79.5169 121.266C79.6432 121.232 79.7587 121.168 79.8532 121.081L79.9143 121.193Z" fill="black"/>
<path d="M82.8953 117.112L82.7679 117.204C82.6819 117.249 82.6084 117.312 82.5539 117.39C82.4882 117.461 82.4425 117.546 82.4214 117.639C82.3901 117.734 82.3901 117.836 82.4214 117.932C82.426 118.029 82.4577 118.124 82.5131 118.205L82.6303 118.352C82.7231 118.442 82.8391 118.508 82.9666 118.542L83.1704 118.566C83.306 118.566 83.4393 118.532 83.5576 118.469L83.6799 118.376C83.7659 118.332 83.8394 118.268 83.8939 118.191C83.9592 118.119 84.0063 118.034 84.0315 117.942C84.0569 117.845 84.0569 117.745 84.0315 117.649C84.0269 117.551 83.9952 117.457 83.9398 117.375L83.8175 117.229C83.7262 117.136 83.6097 117.07 83.4812 117.038L83.2774 117.014C83.1433 117.014 83.0115 117.048 82.8953 117.112Z" fill="black"/>
<path d="M88.6883 84.0525C90.2365 84.7012 91.2659 90.5497 91.2826 92.1687C91.2992 93.7877 90.6694 95.3403 90.0506 96.8476C89.5216 98.1396 88.9907 99.4334 88.458 100.729C87.9225 102.032 87.2511 103.47 85.8887 103.978C84.2933 104.576 82.5786 103.619 80.9305 103.167C79.0548 102.656 77.046 102.811 75.1482 102.369C73.2503 101.928 71.3164 100.575 71.297 98.7138C71.297 97.8631 71.6799 97.0629 71.8658 96.2309C72.1127 95.1276 72.0323 93.8781 72.7731 93.0008C73.7498 91.8444 75.5699 91.9375 77.1237 91.9561C81.4965 92.0039 85.1257 90.672 88.5218 88.0348L88.6883 84.0525Z" fill="#FF8DAC"/>
<path d="M88.6883 84.0524C90.3808 84.8632 91.5323 91.1292 91.3519 92.9103C91.1799 94.8138 90.3031 96.5684 89.6344 98.3309L88.9324 100.091C88.261 101.813 87.4452 104.124 85.22 104.376C83.8327 104.528 82.573 103.924 81.3161 103.539C80.1036 103.14 78.8189 103.058 77.5038 102.957C76.1886 102.856 74.7985 102.712 73.5971 102.101C71.5328 101.088 70.4923 99.3092 71.3413 97.1453C72.035 95.404 71.4912 92.8917 73.7275 92.0729C75.0177 91.5997 76.3828 91.8071 77.7035 91.7725C80.3125 91.7651 82.8839 91.1762 85.2144 90.0525C86.3718 89.4742 87.4747 88.8008 88.5107 88.0401L88.6883 84.0524ZM88.6883 84.0524L88.5329 88.0401C87.5335 88.8649 86.4496 89.5908 85.2977 90.2067C82.969 91.4314 80.365 92.0964 77.7091 92.1447C76.4383 92.1952 75.0899 92.0331 73.9051 92.493C72.2403 93.0911 72.3985 94.9574 72.0933 96.3663C71.8852 97.2463 71.444 98.1608 71.58 99.0381C71.7548 100.218 72.7675 101.117 73.8468 101.638C74.9262 102.159 76.2552 102.332 77.5509 102.436C78.8467 102.539 80.2174 102.643 81.477 103.066C82.6784 103.44 83.8937 104.033 85.1617 103.906C87.1844 103.658 87.8781 101.513 88.5634 99.9419L89.3015 98.198C90.0062 96.4514 90.8941 94.742 91.1383 92.8811C91.3852 91.177 90.3059 84.8313 88.6883 84.0417V84.0524Z" fill="black"/>
<path d="M88.9681 86.9554C87.5493 84.1473 86.5499 81.1618 85.9993 78.0868C85.9188 77.6323 85.855 77.1378 86.0936 76.7364C86.3183 76.4441 86.6012 76.1974 86.926 76.0106C89.2539 74.3039 89.5813 70.7495 92.1145 69.3405C94.1317 68.2213 96.7038 68.9471 98.7736 69.9733C99.5742 70.3494 100.327 70.8133 101.016 71.3556C104.276 74.0354 104.437 79.2326 101.895 82.553C99.3535 85.8734 94.7366 87.3383 90.4609 86.9368C89.9614 86.889 89.401 86.8331 89.0097 87.1362" fill="#FF8DAC"/>
<path d="M88.9691 86.9556C87.8655 84.89 86.9984 82.716 86.3832 80.4716C86.2297 79.9115 86.0937 79.3462 85.9753 78.7755C85.8699 78.1827 85.6701 77.6111 85.8061 76.9917C85.9115 76.4972 86.3388 76.1941 86.7245 75.9283C87.295 75.4894 87.7813 74.9586 88.1617 74.3598C89.1106 72.911 89.6989 71.1484 90.9946 69.883C93.3752 67.5276 97.1348 68.7159 99.6764 70.1488C103.139 71.9273 104.507 75.8034 103.627 79.363C102.862 82.8961 99.6487 85.5147 96.1582 86.501C94.8432 86.8703 93.4803 87.0591 92.11 87.0619C91.6577 87.0619 91.2027 87.0433 90.7504 86.9954C90.1678 86.9635 89.5102 86.7748 88.9997 87.1363C89.4908 86.7509 90.1761 86.9077 90.756 86.9157C91.3564 86.9556 91.9591 86.9556 92.5595 86.9157C98.7164 86.5887 104.279 82.1943 103.272 75.9097C103.103 74.7967 102.664 73.7374 101.989 72.817C101.314 71.8967 100.423 71.1412 99.3878 70.6114C97.0211 69.2822 93.5611 68.0593 91.3414 70.2153C90.0734 71.4515 89.5241 73.1396 88.5169 74.5805C88.0973 75.21 87.5657 75.7643 86.9464 76.2181C86.6107 76.4467 86.2306 76.6886 86.1418 77.0767C86.0142 77.5739 86.189 78.1614 86.2778 78.725C86.3666 79.2886 86.5108 79.8548 86.644 80.4158C87.1852 82.6671 87.9633 84.86 88.9664 86.9609L88.9691 86.9556Z" fill="black"/>
<path d="M85.5535 76.7126C84.6906 75.8566 83.8055 74.9846 82.6901 74.4609C81.5747 73.9372 80.1736 73.8175 79.1331 74.4609C78.4699 74.8756 78.0232 75.5509 77.3656 75.9735C76.6276 76.4441 75.7009 76.5504 74.8685 76.8508C74.1179 77.1317 73.4445 77.5737 72.9 78.1428C72.3555 78.712 71.9544 79.3932 71.7276 80.134C71.6117 80.684 71.4569 81.2258 71.2643 81.7557C70.8952 82.5532 70.1544 83.1381 69.6605 83.8824C68.2205 86.0597 69.4275 89.1515 71.6416 90.6136C73.8558 92.0758 76.7275 92.2459 79.4105 92.0279C81.1496 91.8852 82.8726 91.5988 84.5602 91.1719C86.2833 90.7386 88.1672 89.9916 88.8137 88.4045C89.6045 86.4984 88.2588 84.4673 87.3099 82.6356C86.3644 80.8265 85.7506 78.8752 85.4953 76.8668" fill="#FF8DAC"/>
<path d="M85.553 76.7124C84.6513 75.859 83.7245 74.9817 82.5703 74.4846C81.4604 74.0061 80.0343 73.9343 79.0493 74.684C78.5637 75.0429 78.1864 75.5427 77.662 75.9467C76.8768 76.5662 75.8835 76.6778 74.9845 77.0101C74.2699 77.2781 73.6282 77.698 73.1077 78.2382C72.5872 78.7784 72.2015 79.4247 71.9796 80.1285C71.802 80.6814 71.7493 81.3142 71.4552 81.9203C71.1407 82.4733 70.7558 82.9867 70.3093 83.4489C69.0413 84.7967 69.0496 86.7666 69.9097 88.3245C72.479 92.8439 79.0271 92.0729 83.4915 91.193C88.2083 90.2705 90.3087 88.3112 87.7921 83.8291C86.6018 81.6677 85.7223 79.3097 85.4947 76.8719C85.7697 78.6823 86.3311 80.4421 87.1595 82.0904C87.7144 83.191 88.4053 84.2305 88.8493 85.3896C90.9857 90.8553 83.7967 91.7699 79.8068 92.2404C76.0749 92.6578 71.3137 92.1633 69.4463 88.5531C68.5113 86.881 68.5363 84.5974 69.9375 83.1512C70.3599 82.7197 70.7269 82.2413 71.0306 81.7262C71.2859 81.2211 71.3414 80.6097 71.544 80.0009C71.7414 79.3904 72.0578 78.8212 72.4762 78.3234C73.0974 77.5745 73.9221 77.0042 74.8596 76.6752C75.7364 76.3694 76.7436 76.2711 77.4705 75.7128C77.9561 75.3566 78.3445 74.8541 78.8801 74.4766C79.9677 73.7057 81.4688 73.8173 82.6258 74.357C83.7828 74.8967 84.6901 75.8218 85.5475 76.7124H85.553Z" fill="black"/>
<path d="M89.5239 87.9392C89.3109 88.3709 89.1794 88.8353 89.1354 89.311C88.4825 93.5751 87.8295 97.8384 87.1765 102.101C87.0774 102.581 87.0513 103.073 87.0989 103.56C87.3375 105.214 89.1965 106.248 90.9334 106.37C92.2715 106.442 93.6023 106.138 94.7623 105.494C95.9222 104.851 96.8606 103.897 97.4621 102.749C97.6868 102.303 97.8782 101.806 98.2944 101.516C98.7106 101.226 99.2878 101.21 99.8066 101.125C101.788 100.801 103.489 98.7804 102.839 96.9567C102.59 96.2602 102.057 95.6939 101.535 95.1489L96.2634 89.622C95.2729 88.5852 90.5727 87.3942 89.1881 86.9237L89.5239 87.9392Z" fill="#FF8DAC"/>
<path d="M89.5242 87.939C89.2972 88.4602 89.1667 89.0152 89.1385 89.5793L88.911 91.2594L88.4587 94.6197C88.3033 95.8559 87.3877 101.877 87.3045 102.996C87.1824 104.695 88.8943 105.836 90.4842 106.075C91.6125 106.229 92.7632 106.086 93.8137 105.663C95.4034 105.031 96.6782 103.837 97.3736 102.329C98.0644 100.734 99.0827 101.149 100.448 100.697C101.932 100.141 103.197 98.4851 102.587 96.9458C102.268 96.0712 101.108 95.0663 100.489 94.3485C99.3796 93.1921 97.4374 91.068 96.3608 89.9302C95.8059 89.2735 94.9735 88.9838 94.1772 88.6462C92.5429 88.0028 90.8477 87.5402 89.169 86.9873L89.2633 86.9022C89.3605 87.2558 89.4465 87.604 89.5408 87.939H89.5242ZM89.5242 87.939C89.366 87.5509 89.2134 87.1893 89.0691 86.8145C90.2317 87.1813 91.422 87.4897 92.5901 87.8593C93.9497 88.3431 95.559 88.6781 96.5745 89.7361L97.1793 90.3555L98.3863 91.5944L100.8 94.0694C101.508 94.851 102.645 95.7761 103.02 96.7837C103.744 98.5675 102.351 100.506 100.623 101.157C100.084 101.391 99.4212 101.401 98.8746 101.532C98.0006 101.739 97.8702 102.677 97.4374 103.329C96.6353 104.593 95.4286 105.576 93.9968 106.131C92.8566 106.582 91.6097 106.727 90.3898 106.551C88.5836 106.285 86.6608 104.895 86.8356 102.978C87.2517 99.8941 88.2506 94.2927 88.7584 91.2381L89.0358 89.5686C89.0929 89.0036 89.2515 88.4523 89.5047 87.939H89.5242Z" fill="black"/>
<path d="M89.5209 87.0833C91.5741 88.7953 97.4341 91.4777 99.4845 93.1977C99.9797 93.6436 100.526 94.0342 101.113 94.3621C103.233 95.4467 106.049 94.6572 107.595 92.8999C109.14 91.1427 109.537 88.6464 109.115 86.3814C108.957 85.544 108.693 84.68 108.938 83.8639C109.074 83.4119 109.354 83.0105 109.468 82.5533C109.834 81.0884 108.216 79.7114 106.643 79.6928C105.07 79.6741 103.658 80.5833 102.451 81.5537C99.6926 83.7735 96.6239 85.5413 93.1834 86.6047L89.5209 87.0833Z" fill="#FF8DAC"/>
<path d="M89.5201 87.0832C92.1393 88.9866 95.1747 90.26 97.941 91.9535C99.3589 92.6952 100.405 94.0643 101.984 94.495C103.51 94.8964 105.186 94.471 106.451 93.5937C108.626 92.0625 109.292 89.2153 108.898 86.7562C108.74 85.7221 108.318 84.5896 108.773 83.5315C108.992 83.0131 109.267 82.5931 109.259 82.1385C109.22 80.6604 107.43 79.6741 105.993 79.9665C104.386 80.2324 103.124 81.2958 101.878 82.2315C101.011 82.8791 100.108 83.4816 99.173 84.0366C97.3056 85.1487 95.2921 86.0177 93.1853 86.6206L89.5201 87.0832ZM89.5201 87.0832L93.1798 86.5887C95.2332 85.8875 97.1898 84.9492 99.0065 83.7947C99.916 83.2193 100.793 82.5981 101.634 81.9338C102.48 81.2665 103.299 80.5354 104.298 80.0383C105.297 79.5412 106.542 79.2408 107.647 79.6156C108.751 79.9905 109.766 80.9448 109.775 82.1332C109.775 82.6994 109.467 83.2205 109.264 83.707C108.87 84.6613 109.309 85.6716 109.436 86.6711C109.836 89.3083 109.081 92.331 106.728 93.9579C105.341 94.9123 103.518 95.3244 101.867 94.8432C100.216 94.362 99.2229 92.9637 97.7801 92.1848C95.0665 90.4328 92.0533 89.0797 89.5145 87.0832H89.5201Z" fill="black"/>
<g opacity="0.54">
<path opacity="0.54" d="M88.5671 85.6524C89.4966 86.0432 90.1153 89.5524 90.1237 90.5227C90.132 91.493 89.7574 92.4261 89.3856 93.33L88.4284 95.6588C88.1093 96.4404 87.707 97.3044 86.8884 97.6075C85.9312 97.9664 84.9018 97.3921 83.9141 97.1236C82.7876 96.8152 81.5806 96.9083 80.4458 96.6451C79.311 96.3819 78.1456 95.5817 78.1345 94.4519C78.1345 93.9415 78.362 93.4629 78.4758 92.9631C78.6229 92.3012 78.5757 91.5515 79.0307 91.0251C79.6162 90.3313 80.6955 90.3871 81.6416 90.3977C84.2637 90.427 86.4417 89.6294 88.4783 88.045L88.5671 85.6524Z" fill="white"/>
<path opacity="0.54" d="M88.7446 87.3939C87.8929 85.7106 87.2933 83.9207 86.9633 82.077C86.8893 81.8126 86.9088 81.5321 87.0188 81.2794C87.1535 81.1058 87.321 80.9579 87.5127 80.8434C88.9 79.8199 89.1053 77.6879 90.6258 76.8425C91.8355 76.1699 93.381 76.6059 94.6212 77.2226C95.1017 77.4474 95.5533 77.7248 95.9669 78.0494C97.923 79.6445 98.0174 82.7788 96.4941 84.77C94.9708 86.7612 92.199 87.6464 89.6325 87.3992C89.3368 87.3304 89.0248 87.3732 88.7612 87.5188" fill="white"/>
<path opacity="0.54" d="M86.6975 81.2503C86.2088 80.7086 85.627 80.2509 84.9773 79.8972C84.3114 79.5835 83.4679 79.5117 82.8436 79.8972C82.4468 80.1444 82.1777 80.5511 81.7837 80.8037C81.3398 81.0855 80.7876 81.1493 80.2909 81.3354C79.8409 81.5043 79.4372 81.7696 79.1106 82.1111C78.7841 82.4525 78.5434 82.861 78.407 83.3053C78.3374 83.6352 78.2447 83.9603 78.1295 84.2783C77.9076 84.7595 77.4608 85.1077 77.1667 85.5517C76.3038 86.857 77.0252 88.7126 78.3543 89.5899C79.6833 90.4672 81.4063 90.5708 83.0156 90.4379C84.0585 90.3525 85.0917 90.1808 86.1038 89.9248C87.1387 89.659 88.2624 89.215 88.6564 88.2633C89.1309 87.1202 88.3318 85.9026 87.7547 84.8073C87.1877 83.7235 86.8189 82.5546 86.6642 81.3513" fill="white"/>
<path opacity="0.54" d="M89.0779 87.9868C88.9501 88.2453 88.8712 88.5234 88.8448 88.8083C88.4527 91.3675 88.0605 93.9258 87.6684 96.4832C87.6098 96.7712 87.594 97.0656 87.6212 97.3578C87.7655 98.3494 88.8809 98.9715 89.9241 99.0433C90.7265 99.0856 91.5243 98.9026 92.2198 98.5168C92.9152 98.131 93.478 97.5592 93.8391 96.8714C93.9381 96.5887 94.1099 96.3345 94.3386 96.1323C94.6186 95.9895 94.9288 95.9095 95.2459 95.8984C96.4362 95.7016 97.4656 94.4894 97.066 93.3968C96.8869 92.9869 96.6204 92.6175 96.2836 92.3121L93.1205 88.9944C92.524 88.3723 89.705 87.6651 88.8726 87.3754L89.0779 87.9868Z" fill="white"/>
<path opacity="0.54" d="M89.0751 87.471C90.307 88.4998 93.8224 90.1082 95.0544 91.137C95.352 91.4038 95.6796 91.6383 96.031 91.8361C97.3046 92.4848 98.9916 92.0143 99.9155 90.9589C100.839 89.9034 101.084 88.4041 100.826 87.0456C100.731 86.5458 100.576 86.0274 100.72 85.5356C100.801 85.2698 100.97 85.0252 101.039 84.7381C101.258 83.8581 100.287 83.0314 99.3439 83.0207C98.4006 83.0101 97.5515 83.5524 96.8301 84.1373C95.1995 85.4856 93.3098 86.516 91.267 87.1706L89.0751 87.471Z" fill="white"/>
</g>
<path d="M90.2094 88.5589C90.4531 86.2373 90.1016 83.8938 89.1855 81.732C91.1639 83.327 91.63 86.4826 90.2094 88.5589Z" fill="#F2F2F2"/>
<path d="M89.4651 88.8773C88.7253 87.4186 87.7692 86.0701 86.6266 84.8736C86.438 84.6769 86.241 84.4802 86.0329 84.2888C85.8925 84.1813 85.7874 84.0373 85.7304 83.874C85.6694 83.6082 86.0301 83.4833 86.0911 83.6667C86.0301 83.6135 85.9691 83.6667 85.9413 83.7039C85.9136 83.7411 85.9136 83.7677 85.9413 83.8049C86.0349 83.8757 86.1412 83.9298 86.2548 83.9644C88.1693 84.8205 89.5844 86.8329 89.4595 88.8826L89.4651 88.8773Z" fill="#F2F2F2"/>
<path d="M88.536 89.5554C87.071 88.6063 85.6864 87.7982 84.1382 86.9794C85.0681 86.8626 86.0117 87.0546 86.8119 87.5233C87.612 87.992 88.2205 88.7092 88.536 89.5554Z" fill="#F2F2F2"/>
<path d="M89.631 90.0738C90.6104 89.0263 90.9073 87.6812 91.6232 86.4742C92.2705 85.2296 93.0606 84.0579 93.9788 82.981C93.5902 84.321 93.0477 85.6156 92.3612 86.8411C91.6537 88.0108 91.0377 89.5288 89.631 90.0738Z" fill="#F2F2F2"/>
<path d="M88.9237 90.4487C87.6418 90.5284 86.4044 90.0606 85.3001 90.898C85.2751 90.1004 86.2046 89.5687 86.9648 89.5847C87.3362 89.5896 87.7024 89.669 88.0398 89.8178C88.3772 89.9666 88.6783 90.1815 88.9237 90.4487Z" fill="#F2F2F2"/>
<path d="M89.4269 91.0974C90.4268 89.8067 91.867 88.8925 93.4972 88.5133C92.4993 89.8059 91.0583 90.7207 89.4269 91.0974Z" fill="#F2F2F2"/>
<path d="M88.7876 81.7157V81.8273C88.7876 81.9331 88.8314 82.0345 88.9095 82.1093C88.9876 82.1841 89.0934 82.2261 89.2038 82.2261C89.3142 82.2261 89.42 82.1841 89.4981 82.1093C89.5761 82.0345 89.62 81.9331 89.62 81.8273V81.7157C89.62 81.6099 89.5761 81.5085 89.4981 81.4337C89.42 81.3589 89.3142 81.3169 89.2038 81.3169C89.0934 81.3169 88.9876 81.3589 88.9095 81.4337C88.8314 81.5085 88.7876 81.6099 88.7876 81.7157V81.8273C88.7876 81.9331 88.8314 82.0345 88.9095 82.1093C88.9876 82.1841 89.0934 82.2261 89.2038 82.2261C89.3142 82.2261 89.42 82.1841 89.4981 82.1093C89.5761 82.0345 89.62 81.9331 89.62 81.8273V81.7157C89.62 81.6099 89.5761 81.5085 89.4981 81.4337C89.42 81.3589 89.3142 81.3169 89.2038 81.3169C89.0934 81.3169 88.9876 81.3589 88.9095 81.4337C88.8314 81.5085 88.7876 81.6099 88.7876 81.7157Z" fill="black"/>
<path d="M85.2725 83.7307H85.4584C85.5143 83.7329 85.5698 83.721 85.6194 83.6962C85.6712 83.6817 85.7175 83.653 85.7526 83.6138C85.7921 83.5789 85.8217 83.535 85.8386 83.4861C85.8657 83.4391 85.8782 83.3856 85.8746 83.332V83.2256C85.8552 83.1591 85.8179 83.0986 85.7664 83.0502L85.6832 82.9864C85.6189 82.9515 85.5462 82.9331 85.4723 82.9332H85.2864C85.2304 82.9298 85.1746 82.9418 85.1255 82.9677C85.0742 82.9833 85.0282 83.0117 84.9923 83.0502C84.9513 83.0838 84.9214 83.1281 84.9063 83.1778C84.8792 83.2248 84.8667 83.2783 84.8702 83.332V83.4383C84.8897 83.5048 84.927 83.5653 84.9784 83.6138L85.0617 83.6749C85.1254 83.7114 85.1983 83.7307 85.2725 83.7307Z" fill="black"/>
<path d="M83.7166 86.3812L83.6972 86.5567C83.6949 86.6102 83.7073 86.6634 83.7332 86.7109C83.7494 86.7608 83.779 86.8058 83.8193 86.8411C83.8563 86.8782 83.9019 86.9064 83.9524 86.9235C84.0022 86.9476 84.0577 86.9586 84.1134 86.9554L84.2243 86.9421C84.2931 86.9234 84.356 86.8887 84.4075 86.8411L84.4741 86.7587C84.5108 86.6972 84.53 86.6275 84.5296 86.5567L84.549 86.3812C84.5525 86.3276 84.54 86.2741 84.5129 86.227C84.494 86.1791 84.4646 86.1357 84.4269 86.0995C84.3891 86.0632 84.3437 86.0351 84.2937 86.017C84.2446 85.991 84.1888 85.979 84.1328 85.9824H84.0246C83.954 86.0004 83.8898 86.0362 83.8387 86.0861L83.7749 86.1659C83.7363 86.2268 83.7162 86.2967 83.7166 86.3679V86.3812Z" fill="black"/>
<path d="M84.3356 90.9086H84.5243C84.5801 90.9108 84.6356 90.8989 84.6852 90.8741C84.7352 90.8559 84.7805 90.8278 84.8183 90.7916C84.8561 90.7554 84.8854 90.7119 84.9044 90.6641C84.9303 90.6166 84.9427 90.5634 84.9405 90.5099V90.4035C84.9199 90.3375 84.8827 90.2772 84.8322 90.2281L84.749 90.1643C84.6846 90.1297 84.612 90.1114 84.5381 90.1111H84.3495C84.2943 90.1073 84.2393 90.1193 84.1913 90.1457C84.1406 90.1632 84.0946 90.191 84.0562 90.2273C84.0179 90.2635 83.9883 90.3074 83.9693 90.3557C83.9448 90.4036 83.9324 90.4565 83.9333 90.5099L83.9499 90.6162C83.9695 90.6821 84.0057 90.7424 84.0554 90.7917L84.1414 90.8528C84.2039 90.8896 84.276 90.909 84.3495 90.9086H84.3356Z" fill="black"/>
<path d="M86.7302 87.4581V87.6389C86.7266 87.6925 86.7392 87.746 86.7663 87.7931C86.7832 87.8419 86.8128 87.8858 86.8523 87.9207C86.8882 87.9591 86.9342 87.9876 86.9855 88.0031C87.035 88.0279 87.0905 88.0398 87.1464 88.0376L87.2574 88.0244C87.3263 88.0046 87.3892 87.969 87.4405 87.9207L87.5043 87.8409C87.5425 87.7799 87.5626 87.71 87.5626 87.6389V87.4581C87.5568 87.3536 87.5137 87.2541 87.4405 87.1763C87.4034 87.1393 87.3578 87.1111 87.3073 87.0939C87.2573 87.0703 87.2021 87.0585 87.1464 87.0593L87.0354 87.0753C86.9666 87.0941 86.9038 87.1287 86.8523 87.1763L86.7857 87.2587C86.7493 87.3194 86.7301 87.3881 86.7302 87.4581Z" fill="black"/>
<path d="M89.6203 85.1186C89.6026 85.1511 89.5878 85.1848 89.5759 85.2196C89.5646 85.2623 89.5571 85.3059 89.5537 85.3499C89.5517 85.4002 89.5583 85.4505 89.5731 85.4988C89.585 85.5344 89.5999 85.5691 89.6175 85.6024C89.6161 85.6095 89.6161 85.6167 89.6175 85.6237C89.6443 85.6667 89.677 85.706 89.7146 85.7407L89.82 85.8178H89.845C89.8672 85.8311 89.8922 85.839 89.9144 85.8497C89.9366 85.8603 89.9643 85.8709 89.9893 85.8763C90.0417 85.8907 90.0957 85.8987 90.1502 85.9002H90.1752C90.2209 85.8966 90.2663 85.8904 90.3111 85.8816C90.3491 85.8697 90.3861 85.8555 90.4221 85.839C90.4596 85.8164 90.4949 85.7906 90.5276 85.7619C90.5593 85.7324 90.5872 85.6994 90.6108 85.6636L90.6274 85.637C90.6768 85.5425 90.6914 85.4348 90.6691 85.3313C90.6566 85.2807 90.6308 85.234 90.5942 85.1957C90.5645 85.1527 90.5246 85.1171 90.4776 85.092L90.3777 85.0521C90.305 85.0335 90.2285 85.0335 90.1558 85.0521L90.0559 85.092C89.9945 85.1265 89.9437 85.1761 89.9088 85.2356L89.8922 85.2622L89.956 85.1824L89.9366 85.201L90.0198 85.1372L89.9948 85.1532L90.0947 85.1133H90.0614L90.1696 85.0973H90.1225L90.2335 85.1133L90.1752 85.0973L90.2751 85.1372C90.2551 85.1292 90.2364 85.1184 90.2196 85.1053L90.3028 85.1691C90.2885 85.1581 90.2755 85.1456 90.264 85.1319L90.3278 85.2116L90.3084 85.1797L90.35 85.2754V85.2462L90.3666 85.3499C90.3651 85.3411 90.3651 85.3321 90.3666 85.3233L90.3528 85.4296V85.3977L90.3111 85.4934C90.342 85.4494 90.3584 85.3976 90.3583 85.3446C90.3737 85.2933 90.3737 85.239 90.3583 85.1877C90.3459 85.1371 90.3201 85.0904 90.2834 85.0521C90.2546 85.0085 90.2144 84.9727 90.1669 84.9485L90.067 84.9086C89.9943 84.89 89.9177 84.89 89.845 84.9086L89.7451 84.9485C89.6837 84.983 89.633 85.0325 89.5981 85.092L89.6203 85.1186Z" fill="black"/>
<path d="M93.4055 82.5107L93.2196 82.6915C93.1786 82.7251 93.1487 82.7695 93.1336 82.8191C93.1098 82.8673 93.0975 82.92 93.0975 82.9733C93.0975 83.0266 93.1098 83.0793 93.1336 83.1275C93.1505 83.1763 93.1801 83.2202 93.2196 83.2551L93.3028 83.3162C93.3665 83.3528 93.4394 83.3721 93.5137 83.3721H93.6247C93.6936 83.3523 93.7565 83.3167 93.8078 83.2684L93.9937 83.0876C94.0347 83.054 94.0646 83.0097 94.0797 82.96C94.1068 82.913 94.1193 82.8595 94.1158 82.8058C94.1198 82.753 94.1072 82.7002 94.0797 82.6543C94.0636 82.6043 94.0339 82.5594 93.9937 82.524L93.9105 82.4629C93.8469 82.426 93.7739 82.4066 93.6996 82.407L93.5914 82.423C93.5215 82.441 93.4575 82.4758 93.4055 82.524V82.5107Z" fill="black"/>
<path d="M93.7468 88.1837C93.7461 88.097 93.7222 88.0119 93.6774 87.9365C93.6547 87.9015 93.6287 87.8686 93.5997 87.8381C93.5707 87.8122 93.5391 87.789 93.5054 87.769L93.4832 87.7557C93.4499 87.7397 93.4111 87.7265 93.375 87.7132H93.3583C93.3049 87.6994 93.2499 87.6922 93.1946 87.6919C93.1392 87.6933 93.0843 87.7014 93.0309 87.7158C92.9468 87.7398 92.8697 87.7827 92.8062 87.8408C92.7649 87.8721 92.7317 87.9121 92.7091 87.9577C92.6888 87.9949 92.673 88.0342 92.6619 88.0747C92.6523 88.1131 92.6467 88.1523 92.6453 88.1917C92.6484 88.2327 92.654 88.2735 92.6619 88.314C92.6763 88.3559 92.6939 88.3968 92.7146 88.4363C92.7201 88.4474 92.7266 88.4581 92.734 88.4682C92.7603 88.5045 92.7891 88.5391 92.8201 88.5718C92.8533 88.6025 92.8896 88.6301 92.9283 88.6543L92.9588 88.6729C93.0004 88.6953 93.044 88.7139 93.0892 88.7287H93.1253H93.1419C93.1835 88.7287 93.2252 88.742 93.2696 88.7446H93.2862L93.4111 88.7287H93.4333C93.4765 88.7158 93.5183 88.6988 93.5581 88.6782L93.5942 88.6596C93.672 88.6112 93.7374 88.5467 93.7856 88.4708C93.8071 88.4314 93.8256 88.3905 93.8411 88.3485C93.8423 88.3379 93.8423 88.3272 93.8411 88.3166C93.8517 88.2703 93.8582 88.2231 93.8606 88.1757V88.1359C93.8574 88.0884 93.85 88.0412 93.8384 87.995C93.8242 87.9504 93.8065 87.9068 93.7856 87.8647C93.7577 87.8133 93.7211 87.7666 93.6774 87.7265C93.645 87.6931 93.6076 87.6644 93.5664 87.6414C93.5243 87.6175 93.4796 87.5979 93.4333 87.5829C93.3788 87.5684 93.3212 87.5684 93.2668 87.5829C93.2116 87.5858 93.158 87.6023 93.1114 87.6308C93.0646 87.6549 93.0246 87.6895 92.9949 87.7318C92.9593 87.7708 92.9336 87.8172 92.9199 87.8674L92.9061 87.9737C92.9057 88.0449 92.9258 88.1148 92.9643 88.1757L93.0282 88.2555C93.0787 88.3048 93.1419 88.3405 93.2113 88.3592L93.1114 88.3166L93.1502 88.3406L93.0642 88.2768C93.0774 88.2862 93.0887 88.298 93.0975 88.3113L93.0337 88.2289C93.044 88.2443 93.0533 88.2603 93.0615 88.2768L93.0198 88.1811C93.0283 88.1997 93.0339 88.2194 93.0365 88.2395L93.0198 88.1332C93.024 88.1543 93.024 88.1759 93.0198 88.197L93.0337 88.0907C93.0304 88.1087 93.0258 88.1264 93.0198 88.1438L93.0615 88.0481C93.0552 88.0625 93.0468 88.076 93.0365 88.088L93.1031 88.0056C93.0941 88.0181 93.0828 88.0289 93.0698 88.0375L93.1558 87.9764C93.1429 87.985 93.1289 87.9922 93.1142 87.9976L93.2141 87.9577C93.1985 87.9605 93.1825 87.9605 93.1669 87.9577H93.2779H93.2196L93.3306 87.9737L93.2668 87.9551L93.3667 87.995C93.3468 87.9879 93.3281 87.978 93.3112 87.9657L93.3944 88.0269L93.3583 87.9923L93.4222 88.0721C93.4118 88.06 93.4034 88.0466 93.3972 88.0322L93.4388 88.1279C93.4363 88.1138 93.4363 88.0994 93.4388 88.0853L93.4527 88.1917L93.4388 88.298C93.4375 88.2901 93.4375 88.282 93.4388 88.2741L93.3972 88.3698C93.4002 88.3618 93.4049 88.3546 93.4111 88.3485L93.3445 88.4283C93.3516 88.4228 93.3581 88.4165 93.3639 88.4097L93.2807 88.4735C93.2886 88.4663 93.298 88.4608 93.3084 88.4575L93.2113 88.4974H93.2529L93.1419 88.5107H93.1946L93.0837 88.4974C93.0993 88.495 93.1152 88.495 93.1308 88.4974L93.0309 88.4575L93.0615 88.4735L92.9754 88.4123C92.9841 88.4171 92.9916 88.4234 92.9976 88.4309L92.9311 88.3512L92.9449 88.3698L92.9033 88.2741C92.9046 88.2829 92.9046 88.2919 92.9033 88.3007L92.8894 88.1943C92.8874 88.2479 92.8998 88.301 92.9255 88.3485C92.9444 88.3964 92.9738 88.4399 93.0116 88.4761C93.0493 88.5123 93.0947 88.5404 93.1447 88.5586C93.1943 88.5834 93.2498 88.5953 93.3056 88.5931L93.4166 88.5772C93.4854 88.5584 93.5483 88.5237 93.5997 88.4761L93.6663 88.3964C93.7024 88.3346 93.7215 88.2651 93.7218 88.1943L93.7468 88.1837Z" fill="black"/>
<path d="M92.909 82.4335V82.6143C92.9055 82.668 92.918 82.7215 92.9451 82.7685C92.962 82.8173 92.9916 82.8613 93.0311 82.8961C93.0662 82.9354 93.1125 82.964 93.1643 82.9785C93.2139 83.0034 93.2694 83.0153 93.3252 83.0131L93.4362 82.9998C93.5052 82.9801 93.568 82.9445 93.6193 82.8961L93.6832 82.8164C93.7213 82.7553 93.7414 82.6855 93.7414 82.6143V82.4335C93.7454 82.3807 93.7329 82.3279 93.7054 82.282C93.6871 82.2335 93.658 82.1893 93.6202 82.1526C93.5823 82.1159 93.5366 82.0875 93.4862 82.0693C93.4361 82.0458 93.381 82.0339 93.3252 82.0348L93.2143 82.0507C93.1455 82.0695 93.0826 82.1042 93.0311 82.1517L92.9673 82.2342C92.9289 82.2941 92.9087 82.3632 92.909 82.4335Z" fill="black"/>
</g>
</g>
<defs>
<filter id="filter0_ddd_3_822" x="0.327026" y="0.0566711" width="161.186" height="233.016" filterUnits="userSpaceOnUse" color-interpolation-filters="sRGB">
<feFlood flood-opacity="0" result="BackgroundImageFix"/>
<feColorMatrix in="SourceAlpha" type="matrix" values="0 0 0 0 0 0 0 0 0 0 0 0 0 0 0 0 0 0 127 0" result="hardAlpha"/>
<feOffset dx="5" dy="4"/>
<feGaussianBlur stdDeviation="2"/>
<feComposite in2="hardAlpha" operator="out"/>
<feColorMatrix type="matrix" values="0 0 0 0 0 0 0 0 0 0 0 0 0 0 0 0 0 0 0.25 0"/>
<feBlend mode="normal" in2="BackgroundImageFix" result="effect1_dropShadow_3_822"/>
<feColorMatrix in="SourceAlpha" type="matrix" values="0 0 0 0 0 0 0 0 0 0 0 0 0 0 0 0 0 0 127 0" result="hardAlpha"/>
<feOffset dy="4"/>
<feGaussianBlur stdDeviation="2"/>
<feComposite in2="hardAlpha" operator="out"/>
<feColorMatrix type="matrix" values="0 0 0 0 0 0 0 0 0 0 0 0 0 0 0 0 0 0 0.25 0"/>
<feBlend mode="normal" in2="effect1_dropShadow_3_822" result="effect2_dropShadow_3_822"/>
<feColorMatrix in="SourceAlpha" type="matrix" values="0 0 0 0 0 0 0 0 0 0 0 0 0 0 0 0 0 0 127 0" result="hardAlpha"/>
<feOffset dy="4"/>
<feGaussianBlur stdDeviation="2"/>
<feComposite in2="hardAlpha" operator="out"/>
<feColorMatrix type="matrix" values="0 0 0 0 0 0 0 0 0 0 0 0 0 0 0 0 0 0 0.25 0"/>
<feBlend mode="normal" in2="effect2_dropShadow_3_822" result="effect3_dropShadow_3_822"/>
<feBlend mode="normal" in="SourceGraphic" in2="effect3_dropShadow_3_822" result="shape"/>
</filter>
<filter id="filter1_d_3_822" x="45.9528" y="30.4674" width="67.822" height="144.285" filterUnits="userSpaceOnUse" color-interpolation-filters="sRGB">
<feFlood flood-opacity="0" result="BackgroundImageFix"/>
<feColorMatrix in="SourceAlpha" type="matrix" values="0 0 0 0 0 0 0 0 0 0 0 0 0 0 0 0 0 0 127 0" result="hardAlpha"/>
<feOffset dy="4"/>
<feGaussianBlur stdDeviation="2"/>
<feComposite in2="hardAlpha" operator="out"/>
<feColorMatrix type="matrix" values="0 0 0 0 0 0 0 0 0 0 0 0 0 0 0 0 0 0 0.25 0"/>
<feBlend mode="normal" in2="BackgroundImageFix" result="effect1_dropShadow_3_822"/>
<feBlend mode="normal" in="SourceGraphic" in2="effect1_dropShadow_3_822" result="shape"/>
</filter>
</defs>
</svg>
