<svg width="482" height="595" viewBox="0 0 482 595" fill="none" xmlns="http://www.w3.org/2000/svg">
<g clip-path="url(#clip0_2079_626)">
<path d="M445.497 186.703C445.496 170.817 440.052 155.412 430.072 143.06C420.093 130.709 406.183 122.159 390.666 118.838C388.436 109.554 383.15 101.291 375.658 95.3802C368.167 89.4694 358.907 86.2546 349.369 86.2535C349.054 86.2535 348.726 86.2535 348.431 86.2535C341.526 71.3542 330.46 58.7748 316.57 50.0346C302.68 41.2944 286.559 36.7672 270.154 36.9997C253.75 37.2323 237.763 42.2147 224.126 51.3452C210.488 60.4757 199.782 73.3638 193.302 88.4528C182.735 83.2406 171.016 80.8104 159.251 81.3918C147.486 81.9733 136.063 85.547 126.06 91.7758C116.058 98.0045 107.806 106.683 102.084 116.991C96.3622 127.299 93.359 138.897 93.358 150.69C93.358 152.266 93.4158 153.828 93.5186 155.385C60.296 166.96 35.636 198.542 35.636 235.731C35.636 282.676 74.4792 320.778 121.397 320.778H121.769C122.373 327.305 124.725 333.547 128.578 338.847C132.43 344.146 137.641 348.306 143.659 350.887C149.677 353.468 156.279 354.375 162.77 353.511C169.26 352.647 175.396 350.046 180.532 345.981C191.488 352.099 203.659 355.716 216.174 356.573C228.69 357.43 241.24 355.506 252.925 350.939C257.066 359.63 264.03 366.658 272.679 370.87C281.328 375.083 291.15 376.233 300.536 374.13C309.923 372.027 318.318 366.797 324.349 359.295C330.38 351.794 333.688 342.465 333.734 332.836C345.695 332.524 357.372 329.118 367.628 322.948C377.884 316.778 386.369 308.055 392.259 297.627C395.214 298.266 398.228 298.587 401.252 298.586C424.71 298.586 442.915 279.55 442.915 256.065C442.915 244.94 439.446 234.811 432.457 227.236C440.961 215.438 445.525 201.252 445.497 186.703Z" fill="#48BEA2"/>
<path d="M291.267 375.163C302.496 375.164 313.267 370.712 321.225 362.782C329.184 354.852 333.681 344.09 333.734 332.849C345.695 332.537 357.372 329.131 367.628 322.961C377.884 316.791 386.369 308.067 392.258 297.64C395.214 298.279 398.228 298.6 401.251 298.598C424.71 298.598 442.915 279.563 442.915 256.078C442.915 244.953 439.446 234.824 432.457 227.249C439.189 217.889 443.485 206.998 444.955 195.559C446.426 184.12 445.026 172.494 440.882 161.733C436.737 150.972 429.979 141.414 421.218 133.925C412.457 126.436 401.97 121.251 390.704 118.838C388.963 111.583 385.348 104.912 380.222 99.4952C375.096 94.0779 368.639 90.1037 361.496 87.9705C368.562 101.379 373.733 117.391 367.92 129.829C367.92 129.829 441.283 171.468 376.335 240.599C376.335 240.599 389.683 265.576 369.911 281.621C369.911 281.621 369.988 320.669 302.804 331.408C302.804 331.408 300.877 352.225 261.995 363.395C269.873 370.948 280.36 375.164 291.267 375.163Z" fill="#3D9581"/>
<path d="M347.03 86.5235C343.334 79.2817 338.647 72.5914 333.104 66.6459C327.603 60.7586 321.307 55.6698 314.399 51.5271C300.643 43.2827 284.817 39.1543 268.792 39.6302C252.945 40.0835 237.557 45.0633 224.444 53.9824C211.331 62.9016 201.038 75.3883 194.779 89.9704C194.618 90.3488 194.384 90.6916 194.091 90.9792C193.797 91.2668 193.45 91.4936 193.068 91.6465C192.687 91.7995 192.279 91.8755 191.869 91.8704C191.458 91.8653 191.052 91.7791 190.675 91.6167L190.546 91.5589H190.514C185.318 89.0156 179.811 87.165 174.134 86.0541C171.298 85.5065 168.429 85.1413 165.546 84.9609C164.826 84.9094 164.107 84.8901 163.381 84.8515L161.216 84.8129L159.052 84.8644H157.966L156.887 84.9416C145.288 85.6569 134.084 89.4283 124.409 95.8739C114.687 102.354 106.819 111.259 101.58 121.71C96.3414 132.161 93.9127 143.798 94.5335 155.475V155.539C94.5636 156.06 94.4205 156.577 94.1265 157.009C93.8326 157.44 93.4042 157.762 92.9083 157.925C80.6631 162.047 69.5199 168.915 60.3282 178.003C51.1364 187.091 44.1389 198.161 39.8691 210.368C36.9958 218.617 35.3719 227.251 35.0514 235.982C34.9008 231.586 35.0876 227.185 35.6103 222.818C37.2504 209.552 42.0315 196.87 49.5558 185.828C54.5956 178.419 60.7593 171.843 67.8244 166.336C74.9188 160.786 82.8505 156.401 91.3217 153.346L89.703 155.796C89.2168 149.535 89.5341 143.237 90.6472 137.057C90.7564 136.279 90.962 135.513 91.1162 134.742C91.2703 133.97 91.4245 133.198 91.6493 132.446C92.0668 130.928 92.4587 129.398 92.9854 127.912C93.961 124.913 95.137 121.982 96.5055 119.141C97.2121 117.732 97.9058 116.311 98.7088 114.954C99.5117 113.597 100.321 112.247 101.156 110.909C102.891 108.269 104.796 105.745 106.86 103.353C107.856 102.125 108.986 101.012 110.072 99.8546L111.768 98.1954L112.622 97.3723L113.509 96.5877L115.294 95.0251L117.151 93.5524C117.761 93.0508 118.403 92.5878 119.046 92.1312C119.688 91.6746 120.33 91.2052 120.973 90.7614C131.526 83.6302 143.778 79.4254 156.482 78.5748C169.186 77.7242 181.888 80.2582 193.296 85.919L189.024 87.4882C195.763 71.8695 206.93 58.5727 221.142 49.2442C228.17 44.5848 235.848 40.9918 243.926 38.5819C251.98 36.1996 260.336 34.9953 268.734 35.0064C285.504 34.9891 301.909 39.9091 315.908 49.1542C329.733 58.2694 340.56 71.2698 347.03 86.5235Z" fill="#231F20"/>
<path d="M442.298 256.335C442.095 253.709 441.665 251.106 441.013 248.554C440.388 246.031 439.528 243.572 438.444 241.21C437.388 238.865 436.119 236.622 434.654 234.509C433.19 232.422 431.55 230.464 429.753 228.657C429.491 228.391 429.328 228.042 429.292 227.67C429.256 227.298 429.348 226.924 429.554 226.612L429.624 226.509C432.694 221.851 435.201 216.845 437.095 211.596C438.988 206.394 440.229 200.976 440.788 195.468C442.552 178.919 438.239 162.294 428.655 148.695C419.071 135.097 404.871 125.456 388.706 121.572L388.559 121.539C388.117 121.431 387.714 121.2 387.398 120.872C387.082 120.544 386.865 120.133 386.773 119.687C384.824 110.667 379.931 102.554 372.866 96.6264C369.301 93.6012 365.256 91.193 360.899 89.5011C356.449 87.7881 351.759 86.7834 346.998 86.5237L347.904 86.4336H348.803L350.615 86.3886C354.296 86.364 357.965 86.8334 361.522 87.7841C366.306 89.099 370.826 91.2334 374.883 94.0927C378.97 97.0243 382.531 100.627 385.417 104.749C388.298 108.933 390.428 113.587 391.712 118.504L389.785 116.62C401.585 118.835 412.611 124.072 421.788 131.822C433.376 141.481 441.541 154.625 445.071 169.3C448.601 183.976 447.306 199.401 441.379 213.281C439.05 218.72 436.027 223.834 432.386 228.496L432.258 226.348C434.042 228.427 435.615 230.678 436.954 233.069C439.647 237.779 441.383 242.976 442.06 248.361C442.402 251.005 442.482 253.676 442.298 256.335Z" fill="#231F20"/>
<path d="M35.0514 236.007C35.2049 241.578 35.9019 247.119 37.1326 252.554C40.1459 266.026 46.4033 278.557 55.3599 289.054C64.3164 299.552 75.7006 307.699 88.521 312.785C93.5833 314.765 98.823 316.258 104.169 317.241C109.509 318.209 114.93 318.659 120.356 318.585C120.941 318.576 121.51 318.779 121.956 319.157C122.403 319.536 122.697 320.064 122.784 320.643V320.823L123.125 323.074C123.189 323.447 123.221 323.826 123.311 324.193L123.587 325.299L123.863 326.399C123.942 326.768 124.047 327.131 124.178 327.485L124.93 329.627C125.055 329.985 125.203 330.336 125.373 330.675L125.842 331.704L126.317 332.733C126.484 333.074 126.69 333.376 126.876 333.717C127.261 334.36 127.615 335.035 128.019 335.646L129.304 337.498C132.915 342.355 137.756 346.158 143.327 348.514C146.087 349.694 149 350.478 151.979 350.842L153.091 350.996C153.457 351.048 153.836 351.035 154.208 351.054L156.456 351.151C157.96 351.137 159.462 351.031 160.953 350.836C166.896 349.997 172.503 347.571 177.185 343.813C177.656 343.435 178.229 343.206 178.831 343.154C179.432 343.102 180.036 343.231 180.564 343.524C191.146 349.387 202.887 352.849 214.955 353.664C227.023 354.478 239.122 352.626 250.394 348.238C251.145 347.949 251.977 347.952 252.725 348.248C253.473 348.543 254.083 349.108 254.435 349.832C256.345 353.81 258.885 357.451 261.957 360.617C265.067 363.768 268.682 366.376 272.652 368.334C276.616 370.298 280.892 371.556 285.287 372.051L286.932 372.237L288.589 372.302C289.694 372.372 290.799 372.334 291.903 372.302C294.113 372.194 296.311 371.908 298.475 371.446C305.013 370.019 311.084 366.957 316.121 362.547C321.159 358.137 324.999 352.522 327.284 346.225C328.805 342.017 329.623 337.587 329.706 333.112V333.029C329.718 332.354 329.994 331.712 330.474 331.239C330.955 330.766 331.602 330.501 332.275 330.501C343.82 330.331 355.122 327.167 365.08 321.318C375.124 315.456 383.496 307.11 389.394 297.081V297.036C389.572 296.732 389.843 296.493 390.166 296.354C390.49 296.215 390.849 296.184 391.192 296.264C397.147 297.637 403.33 297.688 409.307 296.412C415.333 295.109 420.991 292.473 425.867 288.695C430.8 284.888 434.826 280.032 437.654 274.476C440.514 268.857 442.094 262.672 442.279 256.367C442.444 262.744 441.189 269.077 438.604 274.907C434.537 283.85 427.567 291.153 418.829 295.628C410.09 300.103 400.097 301.488 390.473 299.556L392.303 298.733C383.386 315.106 368.386 327.302 350.55 332.682C344.641 334.468 338.527 335.49 332.359 335.723L334.928 333.112C334.985 343.366 331.528 353.328 325.132 361.337C318.739 369.398 309.799 375.044 299.779 377.35C297.289 377.921 294.755 378.284 292.205 378.437C290.921 378.475 289.636 378.527 288.351 378.437L286.424 378.366L284.497 378.16C279.403 377.604 274.443 376.168 269.839 373.916C265.228 371.673 261.024 368.673 257.403 365.041C253.796 361.393 250.811 357.179 248.564 352.566L252.598 354.154C246.562 356.545 240.273 358.239 233.854 359.202C214.461 362.162 194.637 358.54 177.539 348.913L180.943 348.643C175.356 353.004 168.7 355.78 161.672 356.681C159.929 356.888 158.174 356.989 156.418 356.983L153.791 356.842C153.354 356.842 152.911 356.842 152.474 356.746L151.189 356.553C147.743 356.077 144.379 355.125 141.194 353.723C134.742 350.91 129.171 346.401 125.071 340.675L123.613 338.501C123.157 337.755 122.759 336.977 122.328 336.218C122.123 335.833 121.898 335.46 121.686 335.061L121.166 333.865L120.645 332.662C120.461 332.267 120.303 331.862 120.17 331.447L119.354 328.958C119.212 328.538 119.101 328.108 119.02 327.672L118.725 326.386L118.442 325.1C118.346 324.675 118.313 324.238 118.249 323.813L117.915 321.241L120.375 323.479C108.92 323.436 97.5878 321.103 87.044 316.619C76.5002 312.135 66.9567 305.588 58.9727 297.364C51.0667 289.274 44.8725 279.67 40.7611 269.127C36.6496 258.585 34.7055 247.32 35.045 236.007H35.0514Z" fill="#231F20"/>
<path d="M247.183 335.183C250.847 337.208 254.851 338.546 258.996 339.132C260.96 339.396 262.946 339.47 264.924 339.35C265.419 339.312 265.901 339.247 266.389 339.196C266.874 339.158 267.357 339.092 267.834 338.997C268.788 338.839 269.732 338.624 270.661 338.354C274.353 337.343 277.801 335.593 280.797 333.209C281.157 332.894 281.504 332.566 281.863 332.264C282.236 331.969 282.586 331.647 282.91 331.299C283.553 330.598 284.253 329.948 284.837 329.202C286.055 327.729 287.118 326.134 288.011 324.444L288.101 324.27C288.357 323.793 288.741 323.398 289.21 323.127C289.678 322.857 290.213 322.723 290.754 322.74L292.372 322.791H293.991L295.616 322.688L297.241 322.514C299.424 322.22 301.574 321.723 303.665 321.029C305.815 320.31 307.894 319.395 309.876 318.296C311.935 317.145 313.901 315.833 315.754 314.373C313.303 318.723 309.697 322.309 305.335 324.733C303.111 325.993 300.737 326.968 298.269 327.633C297.627 327.794 297.023 327.942 296.393 328.084C295.764 328.225 295.109 328.302 294.466 328.411L292.539 328.63L290.612 328.72L293.355 327.016C292.411 329.204 291.201 331.267 289.751 333.157C289.394 333.635 289.008 334.09 288.595 334.521L287.381 335.807C286.98 336.246 286.551 336.658 286.096 337.042C285.653 337.44 285.191 337.82 284.741 338.212C280.981 341.17 276.543 343.142 271.83 343.948C270.667 344.147 269.494 344.276 268.316 344.334C267.73 344.37 267.142 344.37 266.556 344.334C265.971 344.334 265.387 344.334 264.809 344.276L263.074 344.045C262.497 343.98 261.924 343.879 261.359 343.743C260.255 343.515 259.167 343.215 258.103 342.842C253.821 341.357 250.039 338.704 247.183 335.183Z" fill="#231F20"/>
<path d="M325.447 168.015C324.445 179.093 322.696 190.091 320.212 200.934C319.891 202.265 319.627 203.622 319.248 204.927L318.144 208.85C317.463 211.5 316.525 213.995 315.69 216.567C315.292 217.853 314.771 219.069 314.283 220.31C313.795 221.551 313.32 222.779 312.812 223.995L311.155 227.551C310.879 228.136 310.628 228.754 310.32 229.313L309.401 231.011L308.489 232.709L308.033 233.557C307.879 233.84 307.699 234.098 307.538 234.368L305.534 237.583C304.828 238.612 304.082 239.589 303.363 240.599L302.823 241.352L302.239 242.052L301.07 243.448C298.074 247.011 294.555 250.096 290.632 252.599C286.924 254.94 282.814 256.569 278.51 257.403C276.405 257.795 274.267 257.991 272.125 257.988C271.085 257.987 270.045 257.933 269.01 257.827L268.168 257.711C268.382 240.481 269.044 223.362 270.153 206.355H221.296C223.525 241.725 224.559 273.878 224.585 304.007C223.3 303.717 222.054 303.409 220.801 303.061C217.647 302.184 214.545 301.126 211.513 299.891C208.472 298.625 205.504 297.191 202.623 295.595C196.802 292.359 191.349 288.502 186.358 284.091L184.495 282.399C183.853 281.833 183.211 281.293 182.658 280.669L179.093 277.049L178.354 276.2L180.204 273.158L180.705 272.316L181.168 271.435L182.086 269.666L182.992 267.904C183.294 267.319 183.545 266.689 183.821 266.084C184.354 264.856 184.906 263.647 185.407 262.406L186.808 258.631C188.548 253.547 189.909 248.341 190.88 243.056C191.8 237.818 192.418 232.532 192.73 227.223C193.253 216.856 192.851 206.464 191.529 196.169C190.891 191.106 190.073 186.107 189.075 181.172C188.581 178.703 188.035 176.253 187.45 173.802C187.148 172.581 186.846 171.359 186.519 170.137L186.024 168.298C185.838 167.655 185.684 167.095 185.459 166.368L181.425 168.201L175.277 172.664L175.631 174.31C175.862 175.417 176.076 176.533 176.273 177.661C176.701 179.912 177.076 182.177 177.397 184.458C178.04 189.018 178.566 193.616 178.9 198.207C179.592 207.263 179.478 216.362 178.56 225.397C178.074 229.722 177.341 234.017 176.363 238.258C175.393 242.287 174.124 246.238 172.567 250.078L171.385 252.811C170.961 253.699 170.492 254.554 170.055 255.429C169.83 255.853 169.631 256.31 169.381 256.715L168.655 257.956L167.922 259.184L167.556 259.827L167.152 260.4L166.702 261.043C166.653 260.979 166.608 260.912 166.567 260.843C164.788 257.872 162.867 254.991 161.287 251.84C160.471 250.297 159.598 248.792 158.827 247.216L156.579 242.458L155.454 240.072L154.446 237.622L152.422 232.721C152.069 231.911 151.78 231.062 151.491 230.226L150.598 227.718L148.819 222.689C147.798 219.262 146.712 215.86 145.736 212.4C144.862 208.915 143.937 205.442 143.102 201.944L140.879 191.339L121.923 194.677L123.998 206.079C124.795 209.873 125.701 213.654 126.568 217.442C127.525 221.21 128.61 224.966 129.632 228.728L131.443 234.316L132.355 237.114C132.664 238.04 132.946 238.979 133.312 239.892L135.419 245.416L136.473 248.175L137.668 250.901L140.07 256.335C140.892 258.136 141.843 259.898 142.729 261.679C144.444 265.274 146.583 268.695 148.543 272.181C149.59 273.891 150.727 275.563 151.819 277.255C152.378 278.091 152.911 278.946 153.489 279.776L155.294 282.226L157.099 284.669L158.005 285.891L158.974 287.068L162.886 291.769L167.075 296.271C167.755 297.036 168.52 297.73 169.259 298.444L171.488 300.573C177.538 306.218 184.18 311.192 191.298 315.409C194.895 317.526 198.607 319.441 202.417 321.145C206.26 322.832 210.198 324.294 214.211 325.524C217.553 326.557 220.948 327.415 224.379 328.097C223.037 405.697 214.911 470.693 203.689 544.377C232.685 560.03 261.676 560.03 290.664 544.377C279.223 454.68 268.939 366.887 268.13 281.673C269.614 281.743 271.085 281.763 272.543 281.673C276.189 281.554 279.815 281.089 283.373 280.284C290.409 278.666 297.086 275.759 303.068 271.711C308.798 267.789 313.9 263.019 318.201 257.564L319.749 255.57L320.52 254.567L321.22 253.538C322.139 252.162 323.09 250.792 323.97 249.396L326.43 245.152C326.629 244.798 326.841 244.451 327.027 244.091L327.567 243.004L328.64 240.843L329.712 238.676C330.072 237.956 330.355 237.216 330.669 236.483L332.526 232.091C333.085 230.619 333.592 229.133 334.132 227.66C334.671 226.188 335.211 224.702 335.622 223.21C336.496 220.233 337.472 217.268 338.14 214.271L339.239 209.77C339.618 208.278 339.881 206.773 340.17 205.268C342.473 193.433 343.975 181.455 344.666 169.417L325.447 168.015Z" fill="#C46C29"/>
<path d="M327.509 168.22C326.527 178.065 325.026 187.852 323.013 197.538C320.996 207.291 317.933 216.797 313.878 225.892C311.816 230.457 309.386 234.846 306.613 239.017C303.806 243.246 300.44 247.076 296.605 250.399C294.656 252.062 292.567 253.553 290.362 254.856C288.107 256.141 285.721 257.181 283.244 257.956C278.312 259.471 273.136 260.025 267.995 259.589C267.533 259.548 267.103 259.336 266.788 258.995C266.474 258.654 266.297 258.208 266.293 257.743L266.235 239.898C266.235 239.386 266.438 238.896 266.799 238.534C267.161 238.172 267.651 237.969 268.162 237.969C268.673 237.969 269.163 238.172 269.525 238.534C269.886 238.896 270.089 239.386 270.089 239.898V257.737L268.393 255.872C273.052 256.282 277.747 255.807 282.23 254.47C284.451 253.805 286.594 252.902 288.621 251.776C290.658 250.594 292.592 249.243 294.402 247.737C297.972 244.613 301.103 241.02 303.71 237.056C306.393 233.062 308.713 228.835 310.641 224.425C314.514 215.546 317.422 206.275 319.313 196.773C321.233 187.215 322.591 177.552 323.379 167.834C323.427 167.287 323.691 166.781 324.112 166.428C324.533 166.076 325.077 165.905 325.624 165.953C326.171 166.002 326.676 166.266 327.028 166.688C327.381 167.109 327.551 167.654 327.503 168.201L327.509 168.22Z" fill="#231F20"/>
<path d="M344.506 171.532C342.932 172.082 341.278 172.362 339.611 172.362C338.002 172.38 336.395 172.24 334.813 171.944C333.198 171.644 331.615 171.192 330.085 170.593C328.423 169.965 326.861 169.098 325.447 168.021C327.006 167.165 328.681 166.541 330.419 166.169C332.02 165.798 333.653 165.583 335.295 165.526C336.905 165.467 338.516 165.571 340.106 165.834C341.752 166.086 343.346 166.61 344.821 167.384C345.082 167.53 345.312 167.727 345.498 167.962C345.684 168.197 345.822 168.466 345.903 168.755C345.985 169.043 346.009 169.345 345.974 169.643C345.94 169.941 345.847 170.229 345.701 170.49C345.442 170.972 345.018 171.342 344.506 171.532Z" fill="#231F20"/>
<path d="M268.246 279.583C269.749 279.583 271.258 279.583 272.742 279.505C274.226 279.428 275.748 279.293 277.238 279.036C278.729 278.779 280.213 278.521 281.69 278.213C282.429 278.058 283.148 277.833 283.88 277.647L284.972 277.351C285.332 277.248 285.692 277.12 286.045 277.004L288.197 276.296L290.31 275.473C291.023 275.216 291.704 274.901 292.392 274.586C293.079 274.271 293.779 273.981 294.447 273.628C297.157 272.27 299.775 270.736 302.284 269.036C312.311 262.155 320.27 252.477 326.051 241.602C328.975 236.143 331.45 230.454 333.451 224.593C335.493 218.703 337.208 212.704 338.59 206.625C338.962 205.107 339.271 203.571 339.611 202.04C339.952 200.509 340.196 198.966 340.504 197.429L341.397 192.812C341.667 191.268 341.917 189.719 342.168 188.169C343.195 181.969 343.928 175.725 344.647 169.468C344.557 175.77 344.191 182.06 343.658 188.355C343.523 189.931 343.356 191.5 343.183 193.069L342.54 197.77C342.335 199.333 342.142 200.908 341.898 202.471C341.654 204.034 341.403 205.596 341.108 207.152C338.879 219.609 335.391 231.995 329.629 243.493C326.755 249.273 323.247 254.714 319.171 259.718C315.063 264.734 310.294 269.169 304.995 272.901C302.305 274.744 299.489 276.394 296.567 277.84C295.848 278.219 295.083 278.521 294.344 278.862C293.606 279.203 292.854 279.505 292.083 279.808L289.797 280.676L287.458 281.415C287.067 281.531 286.681 281.666 286.283 281.769L285.095 282.065C284.298 282.251 283.514 282.476 282.711 282.631C281.105 282.927 279.5 283.274 277.874 283.422C276.249 283.57 274.618 283.718 272.993 283.82C271.367 283.923 269.71 283.756 268.079 283.718C267.551 283.688 267.054 283.457 266.691 283.073C266.328 282.688 266.125 282.179 266.125 281.65C266.125 281.121 266.328 280.612 266.691 280.227C267.054 279.843 267.551 279.612 268.079 279.583H268.246Z" fill="#231F20"/>
<path d="M391.314 210.811C391.314 210.811 405.902 211.943 409.686 218.155C413.257 224.014 413.508 229.3 408.176 238.033C402.845 246.766 393.575 254.83 387.518 253.178C386.718 253.011 385.958 252.687 385.283 252.226C383.908 251.383 384.126 251.351 382.405 250.837C381.507 250.613 380.57 250.591 379.662 250.772C379.662 250.772 377.851 251.673 375.121 249.866C372.391 248.059 363.654 238.657 364.843 221.017C366.031 203.377 386.843 207.879 391.314 210.811Z" fill="#D84C53"/>
<path d="M409.698 218.155C406.692 213.223 396.851 211.487 392.952 210.985C397.16 212.033 401.945 213.885 403.917 217.075C407.495 222.94 407.739 228.22 402.408 236.959C397.995 244.187 390.89 250.946 385.141 252.136L385.295 252.226C385.971 252.687 386.73 253.011 387.531 253.178C393.588 254.83 402.857 246.747 408.189 238.033C413.52 229.319 413.257 224.014 409.698 218.155Z" fill="#F26B6C"/>
<path d="M391.314 210.812C394.17 210.98 397.004 211.411 399.781 212.098C402.621 212.729 405.319 213.887 407.733 215.513C408.339 215.944 408.891 216.447 409.377 217.011C409.626 217.298 409.856 217.601 410.065 217.918L410.624 218.857C411.365 220.126 411.948 221.483 412.358 222.895C412.759 224.334 412.922 225.828 412.84 227.319C412.748 228.798 412.459 230.258 411.979 231.66C411.773 232.368 411.471 233.036 411.215 233.725C410.958 234.413 410.63 235.062 410.283 235.705C409.936 236.348 409.641 236.991 409.249 237.634C408.857 238.278 408.523 238.921 408.131 239.506C406.56 241.95 404.769 244.244 402.78 246.361C400.792 248.515 398.531 250.4 396.055 251.969C394.783 252.768 393.411 253.397 391.976 253.84C390.463 254.328 388.846 254.392 387.3 254.027H387.422C387.203 253.992 386.988 253.938 386.779 253.866C386.587 253.809 386.398 253.74 386.214 253.66C385.857 253.511 385.51 253.342 385.173 253.152C384.839 252.959 384.531 252.766 384.236 252.573C383.982 252.395 383.716 252.236 383.439 252.097C382.867 251.86 382.273 251.679 381.666 251.557C381.069 251.486 380.465 251.506 379.874 251.615L380.067 251.544C379.829 251.651 379.578 251.729 379.322 251.776C379.11 251.817 378.895 251.84 378.679 251.847C378.248 251.864 377.816 251.827 377.395 251.737C376.579 251.558 375.799 251.243 375.088 250.805C374.742 250.589 374.408 250.355 374.086 250.104C373.797 249.84 373.483 249.589 373.213 249.319C372.654 248.779 372.146 248.207 371.639 247.634C369.723 245.277 368.163 242.651 367.008 239.84C365.861 237.049 365.062 234.127 364.631 231.139C364.182 228.161 364.055 225.142 364.252 222.136C364.286 220.618 364.486 219.109 364.849 217.635C365.221 216.136 365.844 214.712 366.693 213.423C367.548 212.133 368.651 211.027 369.937 210.169C371.211 209.326 372.619 208.704 374.099 208.329C377.02 207.641 380.047 207.534 383.009 208.014C384.477 208.224 385.927 208.549 387.345 208.985C388.744 209.413 390.079 210.027 391.314 210.812ZM391.314 210.812C390.019 210.11 388.637 209.585 387.203 209.249C385.781 208.886 384.334 208.628 382.874 208.477C379.982 208.125 377.049 208.343 374.241 209.12C372.865 209.524 371.563 210.147 370.386 210.966C369.237 211.784 368.261 212.822 367.515 214.021C366.777 215.228 366.243 216.549 365.935 217.931C365.623 219.332 365.465 220.764 365.466 222.201C365.346 225.103 365.527 228.01 366.006 230.876C366.454 233.735 367.255 236.528 368.389 239.191C369.518 241.832 371.012 244.302 372.827 246.528C373.296 247.062 373.765 247.589 374.279 248.072C374.523 248.322 374.793 248.528 375.05 248.76C375.31 248.963 375.582 249.15 375.866 249.319C376.41 249.661 377.01 249.905 377.639 250.039C377.932 250.103 378.232 250.129 378.531 250.117C378.679 250.117 378.821 250.117 378.955 250.072C379.06 250.047 379.163 250.017 379.264 249.982L379.392 249.93H379.463C380.251 249.769 381.061 249.738 381.859 249.84C382.252 249.898 382.639 249.993 383.015 250.123C383.387 250.232 383.752 250.365 384.107 250.522C384.459 250.696 384.799 250.896 385.122 251.12C385.411 251.306 385.707 251.493 385.976 251.647C386.248 251.809 386.532 251.951 386.824 252.072C386.966 252.129 387.107 252.187 387.248 252.232C387.364 252.268 387.482 252.298 387.602 252.322H387.685H387.724C388.97 252.609 390.271 252.551 391.488 252.155C392.786 251.761 394.025 251.197 395.175 250.477C397.527 248.993 399.685 247.222 401.598 245.204C403.549 243.183 405.311 240.988 406.859 238.644C408.436 236.329 409.73 233.833 410.714 231.21C411.709 228.631 411.905 225.812 411.279 223.12C410.931 221.776 410.42 220.48 409.756 219.262L409.249 218.342C409.072 218.058 408.876 217.785 408.664 217.525C408.237 216.991 407.748 216.509 407.206 216.091C404.923 214.436 402.353 213.219 399.626 212.503C396.905 211.72 394.125 211.155 391.314 210.812Z" fill="#231F20"/>
<path d="M391.115 218.085C391.115 218.085 394.642 207.551 390.845 199.493C390.772 199.344 390.643 199.228 390.486 199.172C389.902 198.914 389.249 198.865 388.634 199.033C388.018 199.2 387.48 199.574 387.107 200.091C387.021 200.196 386.971 200.325 386.963 200.46C386.955 200.595 386.989 200.73 387.062 200.844C387.942 202.22 390.916 207.172 390.672 210.619C390.514 212.963 389.914 215.256 388.905 217.377" fill="#C46C29"/>
<path d="M382.482 213.834C383.767 214.574 384.974 215.287 386.24 215.911C386.866 216.228 387.509 216.509 388.167 216.754C388.788 217.013 389.434 217.211 390.094 217.345C390.766 217.485 391.45 217.562 392.137 217.577C392.83 217.628 393.53 217.577 394.237 217.577C395.65 217.525 397.076 217.403 398.528 217.287C397.182 217.862 395.768 218.26 394.321 218.471C392.845 218.724 391.338 218.724 389.863 218.471C388.401 218.134 387.014 217.53 385.771 216.689C384.544 215.899 383.437 214.938 382.482 213.834Z" fill="#231F20"/>
<path d="M390.8 217.969C391.769 214.668 392.218 211.235 392.13 207.795C392.085 206.097 391.857 204.409 391.449 202.76C391.227 201.948 390.948 201.153 390.614 200.381L390.37 199.802C390.312 199.667 390.331 199.712 390.319 199.693C390.306 199.673 390.319 199.693 390.261 199.693C389.916 199.571 389.553 199.512 389.188 199.519C388.851 199.533 388.522 199.63 388.231 199.802C388.084 199.902 387.945 200.011 387.813 200.13L387.614 200.329L387.531 200.432C387.531 200.471 387.531 200.484 387.531 200.548L387.871 201.114C388.096 201.493 388.314 201.879 388.514 202.265C389.373 203.812 390.07 205.443 390.595 207.133C390.864 207.995 391.024 208.887 391.07 209.789C391.07 210.685 390.979 211.579 390.8 212.458C390.494 214.212 389.936 215.912 389.143 217.506L388.616 217.223C389.323 215.674 389.807 214.033 390.055 212.348C390.201 211.521 390.265 210.681 390.248 209.84C390.183 209.01 390.012 208.191 389.74 207.403C389.191 205.79 388.476 204.239 387.608 202.773C387.396 202.4 387.177 202.033 386.965 201.673L386.619 201.133C386.51 200.969 386.444 200.78 386.426 200.583C386.408 200.387 386.439 200.189 386.516 200.008C386.556 199.917 386.606 199.831 386.664 199.75L386.786 199.603C386.863 199.513 386.953 199.423 387.036 199.332C387.219 199.153 387.419 198.991 387.634 198.85C388.082 198.562 388.598 198.396 389.13 198.368C389.635 198.357 390.137 198.436 390.614 198.599C390.802 198.66 390.973 198.764 391.115 198.902C391.24 199.025 391.336 199.174 391.398 199.339L391.642 199.982C391.977 200.819 392.252 201.678 392.464 202.554C392.847 204.286 393.043 206.054 393.049 207.828C393.055 209.587 392.915 211.345 392.631 213.082C392.36 214.825 391.957 216.545 391.423 218.226L390.8 217.969Z" fill="#231F20"/>
<path d="M392.554 213.217C392.554 213.217 396.408 201.075 407.547 206.677C407.547 206.677 405.973 217.628 392.554 213.217Z" fill="#48BEA2"/>
<path d="M407.489 206.959C407.489 206.959 396.447 210.348 392.554 213.217C404.675 217.197 407.129 208.657 407.489 206.959Z" fill="#3D9581"/>
<path d="M392.554 213.217C392.919 211.642 393.589 210.154 394.526 208.837C395.467 207.473 396.735 206.368 398.213 205.622C398.97 205.263 399.775 205.016 400.603 204.889C401.423 204.767 402.256 204.767 403.076 204.889C404.685 205.147 406.22 205.753 407.572 206.664C406.111 206.109 404.581 205.756 403.024 205.615C401.518 205.5 400.007 205.782 398.643 206.432C397.288 207.122 396.091 208.088 395.13 209.268C394.119 210.478 393.255 211.804 392.554 213.217Z" fill="#231F20"/>
<path d="M407.547 206.677C407.424 208.299 406.857 209.857 405.908 211.178C404.929 212.534 403.567 213.564 401.997 214.136C400.429 214.634 398.771 214.781 397.14 214.567C396.344 214.438 395.56 214.258 394.789 214.072C394.019 213.885 393.286 213.525 392.554 213.217C393.35 213.326 394.121 213.474 394.886 213.622C395.65 213.77 396.44 213.776 397.205 213.84H398.354H398.926L399.491 213.757C399.858 213.693 400.243 213.68 400.609 213.59L401.688 213.275C403.102 212.764 404.359 211.895 405.337 210.754C406.333 209.553 407.084 208.168 407.547 206.677Z" fill="#231F20"/>
<path d="M407.489 206.959C405.022 208.123 402.504 209.088 399.999 210.085C398.714 210.561 397.494 211.069 396.247 211.57C395.001 212.072 393.762 212.586 392.554 213.217C393.572 212.296 394.711 211.519 395.939 210.908C397.144 210.269 398.386 209.702 399.658 209.21C400.943 208.728 402.228 208.271 403.513 207.924C404.816 207.518 406.144 207.196 407.489 206.959Z" fill="#231F20"/>
<path d="M227.013 329.814C226.722 347.82 226.053 365.826 225.009 383.832C223.964 401.838 222.523 419.8 220.686 437.716C217.088 473.574 212.078 509.246 206.727 544.821L205.153 541.663C211.641 545.147 218.488 547.913 225.574 549.914C239.704 553.936 254.677 553.918 268.798 549.863C275.875 547.852 282.73 545.127 289.257 541.728L287.715 544.769C282.3 501.124 277.084 457.426 273.095 413.581C269.106 369.736 266.344 325.762 266.029 281.705C266.054 281.171 266.281 280.666 266.666 280.295C267.05 279.924 267.562 279.715 268.096 279.71C268.63 279.705 269.145 279.905 269.536 280.269C269.927 280.633 270.164 281.133 270.198 281.666C270.776 325.556 273.834 369.395 278.112 413.105C282.39 456.815 287.934 500.397 293.644 543.978C293.721 544.565 293.62 545.161 293.356 545.691C293.091 546.22 292.675 546.658 292.16 546.949L292.096 546.988C285.293 550.864 278.049 553.906 270.519 556.049C255.271 560.379 239.117 560.362 223.878 555.997C216.356 553.838 209.101 550.838 202.25 547.052C201.698 546.753 201.252 546.29 200.974 545.727C200.696 545.164 200.598 544.528 200.695 543.908C206.168 508.39 211.301 472.834 215.02 437.156C216.883 419.313 218.382 401.435 219.516 383.524C220.651 365.612 221.384 347.687 221.713 329.749C221.726 329.045 222.018 328.374 222.524 327.885C223.031 327.396 223.711 327.129 224.414 327.142C225.118 327.154 225.788 327.446 226.276 327.954C226.765 328.461 227.032 329.141 227.019 329.846L227.013 329.814Z" fill="#231F20"/>
<path d="M121.923 195.378C124.99 210.023 129.25 224.393 134.661 238.342C137.367 245.255 140.442 252.017 143.873 258.599C147.264 265.165 151.09 271.496 155.326 277.55C159.513 283.6 164.176 289.306 169.271 294.611C174.336 299.926 179.872 304.769 185.812 309.081C191.756 313.399 198.112 317.119 204.787 320.187C211.504 323.262 218.49 325.708 225.657 327.492C226.008 327.563 226.317 327.77 226.515 328.069C226.713 328.367 226.785 328.732 226.714 329.084C226.643 329.435 226.436 329.744 226.138 329.942C225.84 330.141 225.475 330.212 225.124 330.141C217.577 328.988 210.187 326.972 203.098 324.135C195.976 321.271 189.194 317.623 182.877 313.261C176.56 308.898 170.696 303.913 165.372 298.38C160.086 292.846 155.271 286.878 150.977 280.541C146.736 274.207 142.945 267.582 139.633 260.715C136.352 253.872 133.505 246.829 131.109 239.628C126.329 225.288 123.246 210.437 121.923 195.378Z" fill="#231F20"/>
<path d="M164.229 262.052C161.034 256.637 158.129 251.055 155.525 245.332C152.956 239.621 150.639 233.808 148.575 227.892C148.074 226.413 147.547 224.94 146.995 223.474C146.487 221.995 145.935 220.535 145.389 219.062L143.834 214.625C143.352 213.133 142.909 211.635 142.472 210.123C142.036 208.612 141.702 207.094 141.361 205.57C141.021 204.046 140.719 202.503 140.481 200.959C139.963 197.867 139.654 194.743 139.556 191.609C139.549 191.288 139.655 190.974 139.856 190.724C140.056 190.473 140.339 190.3 140.653 190.237C140.968 190.173 141.295 190.222 141.577 190.376C141.859 190.529 142.078 190.777 142.196 191.075C142.774 192.535 143.262 194.014 143.712 195.493C144.162 196.972 144.611 198.451 145.029 199.937C145.446 201.423 145.851 202.902 146.217 204.394C146.583 205.885 146.975 207.371 147.316 208.895C147.656 210.419 148.016 211.885 148.318 213.397L149.301 217.898C149.66 219.39 150.014 220.895 150.412 222.4C150.81 223.905 151.273 225.345 151.748 226.811C153.694 232.634 156.001 238.33 158.653 243.866C161.297 249.383 164.389 254.674 167.897 259.686C168.186 260.161 168.283 260.729 168.169 261.274C168.056 261.819 167.739 262.3 167.284 262.62C166.829 262.94 166.269 263.075 165.719 262.996C165.168 262.918 164.668 262.634 164.319 262.2L164.229 262.052Z" fill="#231F20"/>
<path d="M187.187 165.828C187.829 168.163 188.349 170.452 188.883 172.786L190.334 179.777C191.285 184.432 191.992 189.133 192.66 193.834C193.328 198.535 193.758 203.275 194.066 207.982C194.375 212.689 194.535 217.487 194.465 222.252C194.391 231.821 193.291 241.355 191.182 250.689C190.104 255.388 188.674 259.999 186.904 264.483C186.005 266.734 185.005 268.944 183.904 271.113C183.352 272.2 182.761 273.268 182.164 274.329L180.365 277.39L180.127 274.618C180.802 275.415 181.669 276.213 182.472 277.01L184.894 279.39C185.69 280.174 186.467 280.991 187.296 281.718L188.516 282.83C188.934 283.19 189.364 283.537 189.801 283.891C193.207 286.707 196.838 289.239 200.657 291.46C204.474 293.681 208.45 295.616 212.553 297.248C216.644 298.91 220.866 300.227 225.176 301.184L221.784 304L221.566 288.714L221.437 273.435C221.437 268.335 221.334 263.242 221.341 258.149C221.347 253.055 221.341 247.956 221.341 242.863C221.33 242.342 221.525 241.839 221.885 241.464C222.245 241.088 222.739 240.871 223.258 240.859C223.778 240.848 224.281 241.044 224.656 241.404C225.031 241.764 225.248 242.259 225.259 242.779C225.503 247.866 225.696 252.959 225.901 258.052C226.107 263.145 226.274 268.232 226.454 273.325L226.968 288.599L227.398 303.878C227.419 304.25 227.365 304.623 227.24 304.974C227.115 305.325 226.921 305.647 226.67 305.922C226.418 306.197 226.115 306.419 225.776 306.575C225.438 306.731 225.072 306.818 224.7 306.83C224.485 306.84 224.269 306.823 224.058 306.778H224.013C219.374 305.815 214.823 304.466 210.408 302.746C209.297 302.328 208.205 301.865 207.125 301.377C206.046 300.888 204.986 300.373 203.914 299.859C202.841 299.344 201.813 298.766 200.766 298.219C199.719 297.672 198.711 297.036 197.696 296.431C193.671 293.927 189.881 291.065 186.371 287.878C185.941 287.48 185.491 287.087 185.086 286.676L183.802 285.428C182.934 284.611 182.164 283.737 181.361 282.888L178.971 280.367C178.181 279.525 177.384 278.74 176.601 277.795L176.524 277.698C176.219 277.326 176.039 276.867 176.01 276.387C175.981 275.906 176.105 275.429 176.363 275.023L178.239 272.046C178.83 271.068 179.408 270.116 179.96 269.087C181.061 267.09 182.067 265.034 182.979 262.92C184.804 258.681 186.307 254.311 187.476 249.847C188.671 245.356 189.58 240.793 190.199 236.188C190.85 231.57 191.245 226.92 191.381 222.258C191.523 217.59 191.465 212.908 191.214 208.239C190.964 203.571 190.463 198.902 189.84 194.265C189.217 189.629 188.375 185.005 187.347 180.439C186.368 175.88 185.161 171.372 183.731 166.934C183.656 166.71 183.626 166.472 183.642 166.236C183.659 166 183.722 165.769 183.827 165.557C183.933 165.345 184.079 165.156 184.257 165.001C184.436 164.845 184.643 164.726 184.868 164.651C185.092 164.576 185.329 164.546 185.565 164.562C185.801 164.579 186.032 164.642 186.243 164.748C186.455 164.853 186.644 165 186.799 165.179C186.955 165.357 187.073 165.565 187.148 165.79C187.162 165.802 187.175 165.815 187.187 165.828Z" fill="#231F20"/>
<path d="M165.109 259.885C167.104 256.819 168.843 253.592 170.306 250.239L171.321 247.667C171.674 246.824 171.918 245.937 172.226 245.094L172.676 243.808L173.061 242.483C173.305 241.596 173.595 240.721 173.807 239.827C174.744 236.258 175.335 232.599 175.926 228.934C176.517 225.268 176.967 221.558 177.211 217.821C177.455 214.085 177.564 210.323 177.59 206.561C177.616 202.799 177.5 199.043 177.217 195.288C176.702 187.768 175.457 180.315 173.498 173.037C173.37 172.575 173.431 172.081 173.667 171.664C173.904 171.246 174.296 170.94 174.757 170.812C175.219 170.684 175.712 170.745 176.129 170.981C176.546 171.218 176.852 171.61 176.98 172.073C176.998 172.142 177.013 172.213 177.025 172.285C178.187 179.86 179.395 187.404 180.153 195.03C180.538 198.838 180.795 202.67 180.975 206.49C181.155 210.31 181.226 214.149 181.142 217.995C181.059 221.84 180.93 225.712 180.5 229.57C180.41 230.535 180.236 231.5 180.095 232.451L179.87 233.892L179.581 235.319C179.376 236.271 179.209 237.249 178.977 238.175L178.271 241.017C177.261 244.806 175.937 248.503 174.314 252.072C172.65 255.642 170.627 259.034 168.276 262.194C167.972 262.604 167.521 262.879 167.017 262.962C166.514 263.044 165.999 262.927 165.58 262.634C165.162 262.342 164.874 261.898 164.778 261.397C164.681 260.895 164.784 260.376 165.064 259.949L165.109 259.885Z" fill="#231F20"/>
<path d="M269.293 172.812C263.776 172.805 258.343 174.163 253.478 176.764C248.612 179.366 244.463 183.131 241.401 187.725C239.546 187.357 237.659 187.172 235.768 187.172C231.075 187.169 226.452 188.315 222.303 190.512C218.155 192.709 214.606 195.89 211.968 199.775C209.33 203.661 207.682 208.135 207.168 212.805C206.654 217.475 207.29 222.201 209.021 226.568C210.751 230.936 213.523 234.813 217.094 237.861C220.666 240.909 224.929 243.036 229.51 244.055C234.092 245.074 238.853 244.955 243.378 243.708C247.903 242.461 252.054 240.124 255.469 236.901C260.024 238.965 264.982 239.982 269.981 239.878C274.979 239.774 279.891 238.55 284.356 236.298C288.821 234.046 292.725 230.822 295.784 226.862C298.842 222.902 300.976 218.307 302.029 213.415C303.082 208.522 303.029 203.455 301.871 198.586C300.714 193.716 298.483 189.168 295.341 185.274C292.199 181.381 288.227 178.241 283.715 176.084C279.203 173.928 274.266 172.81 269.267 172.812H269.293Z" fill="#48BEA2"/>
<path d="M207.042 215.95C207.239 217.329 207.512 218.696 207.858 220.046L208.115 221.043C208.185 221.379 208.284 221.708 208.41 222.027L209.104 223.956C210.131 226.431 211.471 228.763 213.093 230.895C216.266 235.033 220.525 238.207 225.394 240.065C225.985 240.297 226.602 240.458 227.205 240.657C227.507 240.747 227.803 240.856 228.111 240.933L229.036 241.126C229.678 241.242 230.263 241.435 230.893 241.499L232.768 241.718C233.079 241.761 233.393 241.778 233.706 241.769H234.65C235.275 241.802 235.901 241.802 236.526 241.769C237.774 241.71 239.015 241.553 240.239 241.3C245.136 240.331 249.661 237.997 253.291 234.567C253.754 234.131 254.335 233.842 254.962 233.736C255.588 233.631 256.232 233.714 256.812 233.975C259.105 235.023 261.52 235.783 263.999 236.239C265.234 236.484 266.482 236.65 267.738 236.734C268.379 236.785 269.022 236.802 269.665 236.786L271.56 236.728C276.679 236.473 281.661 234.987 286.084 232.393C286.649 232.084 287.194 231.738 287.715 231.358C288.248 230.991 288.814 230.663 289.321 230.258L290.831 229.024C291.075 228.811 291.351 228.625 291.582 228.38L292.282 227.692C292.745 227.236 293.227 226.786 293.683 226.316L294.967 224.811L295.61 224.059L296.181 223.255L297.338 221.628C298.782 219.354 299.967 216.925 300.871 214.387C301.787 211.776 302.432 209.078 302.798 206.336C302.849 207.037 302.9 207.738 302.939 208.445C303.004 209.15 303.022 209.859 302.99 210.567L302.875 212.702L302.843 213.236L302.759 213.77L302.592 214.831C302.136 217.699 301.298 220.494 300.1 223.139L299.091 225.069L298.577 226.046L297.974 226.972L296.753 228.818C296.31 229.409 295.828 229.975 295.366 230.554L294.659 231.416C294.428 231.705 294.152 231.95 293.895 232.22L292.308 233.795C291.775 234.31 291.171 234.76 290.606 235.242C290.04 235.734 289.444 236.19 288.82 236.605L286.944 237.847C286.632 238.057 286.306 238.247 285.968 238.413L284.972 238.946L283.97 239.467C283.642 239.65 283.3 239.809 282.949 239.943L280.842 240.785C280.14 241.066 279.422 241.303 278.69 241.493C277.964 241.699 277.232 241.911 276.5 242.091L274.258 242.483L273.134 242.676C272.761 242.728 272.382 242.74 272.003 242.773C265.902 243.365 259.752 242.341 254.171 239.802L257.698 239.216C255.433 241.332 252.874 243.106 250.099 244.483C248.711 245.168 247.272 245.744 245.795 246.207C244.327 246.681 242.824 247.036 241.299 247.268C235.214 248.213 228.985 247.313 223.416 244.683L221.411 243.615C221.075 243.44 220.751 243.242 220.441 243.023L219.504 242.38L218.566 241.737C218.264 241.512 217.981 241.261 217.686 241.03C217.114 240.548 216.517 240.085 215.977 239.57C213.82 237.522 211.97 235.171 210.485 232.593C209.064 230.038 208.033 227.285 207.427 224.426C206.873 221.636 206.743 218.778 207.042 215.95Z" fill="#231F20"/>
<path d="M359.595 128.767C354.586 128.763 349.646 129.937 345.174 132.195C341.682 129.363 337.563 127.411 333.162 126.503C328.761 125.596 324.206 125.758 319.881 126.978C315.556 128.198 311.586 130.439 308.305 133.512C305.024 136.586 302.528 140.404 301.026 144.644C299.524 148.884 299.06 153.423 299.674 157.879C300.287 162.336 301.96 166.58 304.552 170.255C307.143 173.93 310.578 176.929 314.567 179C318.556 181.071 322.983 182.153 327.477 182.156C329.919 182.155 332.35 181.838 334.71 181.211C338.132 185.422 342.562 188.698 347.59 190.732C352.617 192.767 358.077 193.494 363.461 192.845C368.845 192.197 373.977 190.195 378.379 187.025C382.781 183.856 386.31 179.622 388.637 174.718C390.964 169.815 392.013 164.402 391.686 158.983C391.359 153.564 389.667 148.316 386.767 143.729C383.868 139.141 379.855 135.364 375.104 132.747C370.353 130.131 365.017 128.762 359.595 128.767Z" fill="#48BEA2"/>
<path d="M299.31 92.9802C299.31 92.9802 312.87 87.469 319.024 91.321C324.843 94.9673 327.419 99.5846 326.558 109.784C325.698 119.983 321.002 131.346 314.848 132.575C314.057 132.785 313.232 132.838 312.42 132.729C310.814 132.587 310.994 132.465 309.208 132.774C308.308 132.974 307.464 133.372 306.735 133.938C306.735 133.938 305.508 135.558 302.239 135.166C298.969 134.774 286.977 130.272 280.18 113.945C273.384 97.6168 294.004 92.3628 299.31 92.9802Z" fill="#D84C53"/>
<path d="M319.024 91.3209C314.135 88.2599 304.564 91.1151 300.845 92.4141C305.078 91.4624 310.204 90.9672 313.377 92.9479C319.191 96.5942 321.773 101.211 320.906 111.411C320.186 119.848 316.859 129.076 312.247 132.71H312.42C313.232 132.818 314.057 132.766 314.848 132.555C321.002 131.327 325.691 119.964 326.558 109.764C327.426 99.5652 324.843 94.9672 319.024 91.3209Z" fill="#F26B6C"/>
<path d="M299.31 92.98C301.947 91.8634 304.68 90.9874 307.474 90.3627C310.289 89.6474 313.213 89.4664 316.095 89.8289C316.829 89.9429 317.547 90.1436 318.234 90.427C318.586 90.5717 318.927 90.7414 319.255 90.935L320.173 91.5202C321.404 92.3256 322.53 93.2803 323.527 94.3626C324.53 95.4663 325.344 96.7288 325.935 98.0989C326.514 99.4636 326.907 100.9 327.104 102.369C327.239 103.096 327.271 103.822 327.342 104.555C327.413 105.289 327.419 106.015 327.394 106.742C327.368 107.469 327.394 108.195 327.323 108.916C327.252 109.636 327.239 110.369 327.156 111.089C326.846 113.979 326.27 116.833 325.434 119.616C324.621 122.434 323.441 125.132 321.927 127.642C321.148 128.924 320.207 130.1 319.126 131.14C317.991 132.255 316.575 133.04 315.028 133.41L315.15 133.372C314.941 133.442 314.726 133.496 314.508 133.533C314.302 133.565 314.103 133.584 313.91 133.597C313.523 133.626 313.135 133.626 312.748 133.597C312.362 133.597 312.009 133.539 311.656 133.5C311.347 133.457 311.036 133.435 310.724 133.436C310.107 133.477 309.495 133.582 308.9 133.751C308.332 133.949 307.798 134.235 307.32 134.6L307.468 134.452C307.3 134.653 307.11 134.834 306.902 134.992C306.721 135.129 306.53 135.251 306.331 135.359C305.948 135.57 305.54 135.732 305.117 135.841C304.307 136.047 303.469 136.114 302.637 136.041C302.232 136.003 301.828 135.943 301.43 135.861C301.051 135.758 300.659 135.674 300.293 135.552C299.554 135.32 298.841 135.037 298.134 134.748C295.367 133.499 292.798 131.85 290.51 129.854C288.218 127.875 286.179 125.62 284.439 123.14C282.713 120.687 281.255 118.054 280.09 115.288C279.446 113.914 278.95 112.473 278.613 110.993C278.279 109.486 278.201 107.934 278.382 106.401C278.571 104.866 279.062 103.384 279.827 102.041C280.593 100.719 281.574 99.5339 282.731 98.5362C285.033 96.6075 287.695 95.1541 290.561 94.2598C291.968 93.7903 293.409 93.4313 294.871 93.1858C296.335 92.9201 297.828 92.8509 299.31 92.98ZM299.31 92.98C297.838 92.9333 296.367 93.0847 294.935 93.4302C293.502 93.7409 292.094 94.1557 290.721 94.6713C287.981 95.6548 285.459 97.1642 283.296 99.115C282.252 100.091 281.371 101.229 280.688 102.485C280.025 103.731 279.618 105.098 279.493 106.504C279.371 107.912 279.482 109.331 279.821 110.703C280.168 112.095 280.666 113.445 281.305 114.729C282.499 117.379 283.96 119.9 285.666 122.253C287.346 124.607 289.31 126.745 291.512 128.619C293.702 130.477 296.141 132.018 298.757 133.198C299.4 133.462 300.074 133.726 300.749 133.925C301.083 134.041 301.391 134.105 301.751 134.195C302.074 134.259 302.399 134.306 302.727 134.336C303.374 134.395 304.025 134.343 304.654 134.182C304.943 134.109 305.222 133.999 305.483 133.854C305.608 133.785 305.728 133.708 305.843 133.623C305.928 133.557 306.008 133.484 306.08 133.404L306.17 133.295L306.228 133.256C306.861 132.758 307.573 132.369 308.335 132.105C308.713 131.979 309.102 131.888 309.498 131.835C309.878 131.769 310.262 131.726 310.647 131.706C311.041 131.702 311.433 131.728 311.823 131.783C312.163 131.822 312.51 131.861 312.825 131.88C313.139 131.902 313.455 131.902 313.769 131.88C313.923 131.88 314.077 131.88 314.219 131.835C314.34 131.816 314.46 131.791 314.579 131.758H314.662H314.701C315.945 131.457 317.083 130.823 317.996 129.925C318.986 128.991 319.849 127.932 320.565 126.774C322.016 124.393 323.161 121.839 323.976 119.173C324.817 116.489 325.41 113.733 325.749 110.941C326.128 108.17 326.171 105.363 325.878 102.581C325.618 99.8307 324.537 97.2222 322.775 95.0958C321.862 94.0487 320.825 93.1178 319.685 92.3241L318.818 91.7325C318.532 91.5561 318.236 91.3972 317.932 91.2566C317.314 90.973 316.668 90.7574 316.005 90.6135C313.281 90.054 310.397 90.3241 307.615 90.8C304.793 91.3027 302.015 92.0317 299.31 92.98Z" fill="#231F20"/>
<path d="M302.38 99.5651C302.38 99.5651 300.832 88.5685 293.837 83.0637C293.772 83.0106 293.697 82.9716 293.616 82.9495C293.535 82.9273 293.451 82.9224 293.368 82.9351C292.732 82.9627 292.125 83.2096 291.65 83.6338C291.174 84.058 290.86 84.6335 290.76 85.263C290.73 85.3952 290.742 85.5335 290.795 85.6583C290.848 85.783 290.939 85.8878 291.056 85.9576C292.456 86.7936 297.344 89.8868 298.648 93.0893C299.554 95.2569 300.042 97.5762 300.087 99.9253" fill="#C46C29"/>
<path d="M292.79 99.6424C294.242 99.7453 295.668 99.8225 297.081 99.8225C297.78 99.8218 298.479 99.7853 299.175 99.7131C299.857 99.6612 300.533 99.5428 301.192 99.3594C301.854 99.1834 302.499 98.9488 303.119 98.6585C303.761 98.3884 304.404 98.0154 305.007 97.726C306.247 97.0444 307.468 96.2984 308.714 95.5396C307.776 96.6572 306.696 97.6474 305.502 98.4848C304.294 99.3715 302.942 100.044 301.507 100.472C300.048 100.826 298.537 100.907 297.049 100.71C295.585 100.562 294.15 100.202 292.79 99.6424Z" fill="#231F20"/>
<path d="M302.053 99.6102C301.44 96.2414 300.311 92.9876 298.706 89.9641C297.905 88.4652 296.944 87.0573 295.841 85.7647C295.285 85.1347 294.681 84.5478 294.036 84.0091L293.561 83.604C293.452 83.5075 293.484 83.5397 293.464 83.5268H293.432C293.073 83.5683 292.724 83.6774 292.404 83.8484C292.107 84.0104 291.855 84.2449 291.672 84.53C291.58 84.683 291.502 84.8445 291.441 85.0123C291.409 85.1024 291.377 85.186 291.351 85.276L291.319 85.4046C291.319 85.4496 291.319 85.4625 291.377 85.5075L291.936 85.8612C292.308 86.1013 292.674 86.3457 293.034 86.5943C294.494 87.5935 295.848 88.7399 297.074 90.0155C297.7 90.6679 298.241 91.3959 298.687 92.1827C299.087 92.9844 299.406 93.8247 299.637 94.6907C300.146 96.3894 300.41 98.152 300.421 99.9254H299.824C299.763 98.2218 299.462 96.5353 298.931 94.9158C298.691 94.1106 298.372 93.3308 297.98 92.5878C297.551 91.8816 297.032 91.2332 296.438 90.6586C295.23 89.4492 293.897 88.3714 292.462 87.4432C292.109 87.2052 291.749 86.9737 291.383 86.7551L290.831 86.4271C290.66 86.3295 290.515 86.1908 290.411 86.0235C290.307 85.8563 290.246 85.6657 290.233 85.4689C290.221 85.3707 290.221 85.2713 290.233 85.1731L290.278 84.9802C290.278 84.8644 290.349 84.7487 290.381 84.6265C290.465 84.3859 290.57 84.1534 290.696 83.932C290.971 83.4736 291.357 83.0929 291.82 82.8259C292.266 82.5903 292.752 82.4377 293.252 82.3757C293.448 82.3419 293.648 82.3551 293.837 82.4143C294.003 82.4709 294.154 82.5631 294.28 82.6844L294.781 83.1345C295.453 83.7304 296.08 84.3753 296.657 85.0638C297.775 86.4403 298.74 87.9346 299.535 89.5203C300.331 91.0905 300.993 92.7255 301.513 94.4077C302.046 96.0894 302.449 97.8093 302.721 99.5524L302.053 99.6102Z" fill="#231F20"/>
<path d="M301.5 94.6134C301.5 94.6134 299.573 82.0155 311.983 82.054C311.983 82.0219 315.471 92.517 301.5 94.6134Z" fill="#48BEA2"/>
<path d="M312.061 82.2986C312.061 82.2986 303.71 90.2728 301.5 94.5814C314.116 92.7165 312.497 83.977 312.061 82.2986Z" fill="#3D9581"/>
<path d="M301.5 94.6134C301.124 93.0399 301.059 91.4081 301.308 89.8096C301.534 88.1648 302.17 86.6035 303.157 85.2694C303.675 84.6125 304.285 84.0341 304.969 83.5524C305.653 83.0815 306.401 82.7132 307.191 82.4592C308.74 81.9772 310.376 81.839 311.983 82.054C310.428 82.2062 308.902 82.5741 307.448 83.1473C306.051 83.7194 304.829 84.6485 303.903 85.8418C302.992 87.0627 302.35 88.4634 302.021 89.951C301.665 91.4793 301.49 93.0442 301.5 94.6134Z" fill="#231F20"/>
<path d="M311.983 82.022C312.605 83.5263 312.794 85.1746 312.529 86.7808C312.264 88.4302 311.507 89.961 310.358 91.173C309.178 92.3224 307.762 93.2002 306.209 93.7453C305.438 93.9833 304.654 94.1762 303.877 94.3498C303.1 94.5234 302.29 94.5363 301.5 94.5878C302.258 94.3305 303.016 94.1183 303.761 93.8997C304.506 93.681 305.226 93.353 305.939 93.0637C306.279 92.8836 306.581 92.7035 306.96 92.5363C307.127 92.4463 307.301 92.3691 307.468 92.2727L307.937 91.9447C308.239 91.7196 308.579 91.5396 308.855 91.3016L309.684 90.5364C310.715 89.4556 311.449 88.1265 311.816 86.6779C312.187 85.1533 312.244 83.5692 311.983 82.022Z" fill="#231F20"/>
<path d="M312.06 82.2986C310.371 84.4465 308.553 86.4336 306.755 88.4464C305.849 89.4368 304.956 90.4464 304.063 91.4496C303.17 92.4528 302.297 93.4753 301.494 94.5814C301.99 93.3014 302.66 92.096 303.485 90.9994C304.281 89.8906 305.139 88.8278 306.054 87.8162C306.973 86.813 307.917 85.8355 308.919 84.9095C309.913 83.9768 310.962 83.1049 312.06 82.2986Z" fill="#231F20"/>
<path d="M282.358 94.755C282.358 94.755 290.33 84.8129 298.693 94.0411C298.693 94.0411 293.304 103.694 282.358 94.755Z" fill="#48BEA2"/>
<path d="M298.571 94.2855C298.571 94.2855 287.047 93.4752 282.39 94.7549C292.244 102.826 297.595 95.7324 298.571 94.2855Z" fill="#3D9581"/>
<path d="M282.358 94.7549C283.262 93.4158 284.421 92.2685 285.769 91.3787C287.135 90.4354 288.717 89.8516 290.368 89.681C291.203 89.6216 292.043 89.6823 292.861 89.861C293.667 90.0517 294.442 90.3593 295.16 90.7742C296.562 91.5916 297.768 92.7067 298.693 94.041C297.535 92.9952 296.238 92.1144 294.839 91.4237C293.474 90.7754 291.964 90.4961 290.458 90.6134C288.945 90.7697 287.481 91.2406 286.161 91.996C284.789 92.7631 283.513 93.6891 282.358 94.7549Z" fill="#231F20"/>
<path d="M298.693 94.0413C298.001 95.5122 296.913 96.7614 295.552 97.6489C294.155 98.5668 292.514 99.0398 290.844 99.0058C289.202 98.909 287.601 98.4524 286.154 97.6682C285.461 97.2567 284.786 96.8065 284.137 96.3499C283.489 95.8933 282.93 95.3017 282.358 94.7551C283.058 95.1409 283.726 95.5589 284.388 95.9705C285.049 96.3821 285.782 96.6715 286.476 97.0059C286.835 97.1345 287.195 97.2695 287.555 97.411L288.088 97.6104L288.64 97.7325C289.013 97.8033 289.373 97.9319 289.745 97.9769L290.869 98.0669C292.371 98.1009 293.856 97.7441 295.179 97.0316C296.536 96.2762 297.73 95.2599 298.693 94.0413Z" fill="#231F20"/>
<path d="M298.571 94.2856C295.847 94.485 293.156 94.4721 290.465 94.5043C289.116 94.5043 287.773 94.5043 286.431 94.5429C285.088 94.5814 283.746 94.6007 282.39 94.7551C283.67 94.2599 285.013 93.9439 286.379 93.8162C287.733 93.6513 289.095 93.5697 290.458 93.5718C291.813 93.5718 293.175 93.6104 294.531 93.7262C295.888 93.8291 297.237 94.016 298.571 94.2856Z" fill="#231F20"/>
<path d="M335.243 325.531C335.243 325.531 349.69 323.196 354.828 328.334C359.678 333.19 361.162 338.264 358.04 348.013C354.918 357.762 347.801 367.781 341.532 367.601C340.715 367.628 339.901 367.495 339.136 367.209C337.6 366.713 337.806 366.63 336.007 366.566C335.082 366.561 334.168 366.761 333.329 367.151C333.329 367.151 331.774 368.437 328.704 367.344C325.633 366.25 314.919 359.151 311.945 341.723C308.971 324.296 330.207 323.743 335.243 325.531Z" fill="#D84C53"/>
<path d="M354.829 328.334C350.743 324.251 340.78 324.887 336.843 325.325C341.179 325.325 346.292 326.006 348.938 328.656C353.794 333.511 355.272 338.585 352.15 348.334C349.581 356.392 344.255 364.643 338.943 367.151L339.117 367.209C339.882 367.495 340.696 367.628 341.513 367.601C347.782 367.781 354.893 357.762 358.021 348.013C361.149 338.264 359.678 333.196 354.829 328.334Z" fill="#F26B6C"/>
<path d="M335.243 325.531C338.063 325.033 340.923 324.792 343.786 324.81C346.688 324.747 349.577 325.225 352.304 326.219C352.986 326.498 353.632 326.857 354.231 327.286C354.54 327.506 354.834 327.747 355.111 328.007L355.876 328.785C356.897 329.842 357.782 331.024 358.509 332.302C359.238 333.603 359.748 335.015 360.019 336.482C360.291 337.943 360.364 339.433 360.237 340.913C360.237 341.653 360.07 342.373 359.98 343.1C359.89 343.826 359.73 344.54 359.543 345.241C359.357 345.942 359.203 346.656 358.991 347.35C358.779 348.045 358.58 348.739 358.349 349.427C357.398 352.173 356.196 354.826 354.758 357.35C353.338 359.914 351.586 362.28 349.548 364.386C348.5 365.462 347.317 366.398 346.028 367.17C344.674 367.999 343.119 368.443 341.532 368.456H341.66C341.432 368.479 341.202 368.479 340.973 368.456C340.773 368.443 340.573 368.419 340.376 368.385C339.993 368.329 339.616 368.245 339.245 368.135C338.872 368.025 338.538 367.916 338.198 367.794C337.909 367.685 337.613 367.595 337.312 367.524C336.7 367.427 336.08 367.392 335.462 367.421C334.864 367.487 334.281 367.648 333.734 367.897L333.907 367.781C333.7 367.942 333.473 368.076 333.233 368.18C333.025 368.275 332.811 368.353 332.59 368.411C332.172 368.533 331.741 368.6 331.306 368.611C330.47 368.631 329.638 368.507 328.845 368.244C328.455 368.121 328.073 367.973 327.702 367.8C327.361 367.614 326.995 367.447 326.668 367.247C326.025 366.861 325.383 366.424 324.741 365.961C322.321 364.124 320.184 361.94 318.401 359.479C316.628 357.037 315.165 354.385 314.045 351.582C312.91 348.805 312.077 345.914 311.559 342.958C311.24 341.479 311.081 339.97 311.084 338.457C311.095 336.922 311.364 335.4 311.881 333.955C312.411 332.502 313.223 331.169 314.27 330.032C315.307 328.91 316.528 327.975 317.88 327.267C320.548 325.903 323.457 325.077 326.443 324.836C327.921 324.698 329.406 324.672 330.888 324.759C332.367 324.822 333.832 325.081 335.243 325.531ZM335.243 325.531C333.819 325.159 332.353 324.977 330.882 324.99C329.414 324.971 327.948 325.061 326.494 325.261C323.6 325.602 320.801 326.514 318.259 327.942C317.023 328.657 315.91 329.567 314.964 330.637C314.04 331.705 313.337 332.947 312.896 334.289C312.453 335.633 312.236 337.042 312.253 338.457C312.283 339.891 312.466 341.318 312.799 342.714C313.371 345.564 314.232 348.347 315.369 351.022C316.478 353.695 317.913 356.22 319.64 358.54C321.362 360.84 323.397 362.888 325.685 364.623C326.263 365.029 326.848 365.434 327.458 365.781C327.76 365.961 328.1 366.103 328.37 366.27C328.672 366.404 328.981 366.522 329.295 366.623C329.916 366.828 330.568 366.921 331.222 366.9C331.522 366.892 331.82 366.846 332.108 366.765C332.349 366.698 332.578 366.596 332.789 366.463L332.899 366.379L332.963 366.347C333.692 366.009 334.471 365.792 335.269 365.704C335.666 365.668 336.066 365.668 336.464 365.704C336.851 365.724 337.237 365.767 337.62 365.832C338.001 365.923 338.377 366.037 338.744 366.173C339.065 366.289 339.386 366.405 339.701 366.488C340.002 366.58 340.309 366.651 340.62 366.701C340.768 366.727 340.919 366.744 341.069 366.752C341.204 366.752 341.39 366.752 341.435 366.752H341.564C342.842 366.734 344.091 366.372 345.18 365.704C346.356 365.015 347.436 364.174 348.392 363.202C350.339 361.206 352.026 358.972 353.415 356.553C354.836 354.127 356.032 351.576 356.987 348.932C357.965 346.309 358.625 343.578 358.952 340.797C359.315 338.059 358.842 335.275 357.597 332.81C356.945 331.585 356.145 330.444 355.214 329.415L354.495 328.643C354.259 328.412 354.008 328.197 353.743 328C353.198 327.585 352.608 327.233 351.983 326.952C349.458 325.794 346.594 325.408 343.774 325.248C340.927 325.117 338.075 325.212 335.243 325.531Z" fill="#231F20"/>
<path d="M336.759 332.637C336.759 332.637 337.71 321.569 332.121 314.63C332.015 314.501 331.863 314.418 331.697 314.399C331.07 314.286 330.423 314.392 329.866 314.7C329.308 315.008 328.872 315.499 328.633 316.09C328.575 316.212 328.556 316.348 328.579 316.481C328.602 316.613 328.666 316.736 328.762 316.83C329.944 317.962 334.016 322.071 334.543 325.479C334.937 327.797 334.894 330.168 334.415 332.47" fill="#C46C29"/>
<path d="M327.368 330.553C328.762 330.984 330.136 331.383 331.511 331.691C332.205 331.839 332.886 331.981 333.579 332.058C334.255 332.159 334.939 332.193 335.622 332.161C336.307 332.143 336.989 332.059 337.658 331.91C338.346 331.794 339.02 331.601 339.707 331.428C341.069 331.042 342.425 330.592 343.806 330.141C342.635 331.021 341.355 331.744 339.996 332.289C338.624 332.883 337.159 333.233 335.667 333.325C334.165 333.341 332.674 333.079 331.267 332.553C329.879 332.076 328.566 331.402 327.368 330.553Z" fill="#231F20"/>
<path d="M336.431 332.611C336.592 329.181 336.221 325.747 335.333 322.431C334.889 320.791 334.269 319.204 333.483 317.698C333.077 316.961 332.62 316.254 332.115 315.582L331.742 315.074C331.652 314.958 331.678 314.997 331.665 314.984C331.652 314.971 331.665 314.984 331.601 314.984C331.239 314.951 330.874 314.981 330.522 315.074C330.197 315.163 329.901 315.333 329.661 315.569C329.536 315.698 329.422 315.838 329.321 315.987C329.276 316.071 329.224 316.141 329.179 316.232L329.121 316.347C329.117 316.367 329.118 316.388 329.125 316.407C329.132 316.427 329.144 316.444 329.16 316.457L329.629 316.926C329.937 317.241 330.233 317.569 330.528 317.891C331.732 319.187 332.796 320.608 333.701 322.129C334.168 322.901 334.533 323.731 334.787 324.598C335 325.469 335.125 326.358 335.16 327.254C335.273 329.024 335.135 330.802 334.748 332.534L334.17 332.386C334.495 330.713 334.579 329.002 334.421 327.305C334.368 326.469 334.232 325.639 334.016 324.829C333.759 324.035 333.4 323.276 332.95 322.572C332.037 321.136 330.977 319.798 329.789 318.579C329.494 318.27 329.192 317.936 328.89 317.666L328.428 317.222C328.281 317.09 328.169 316.923 328.104 316.736C328.039 316.549 328.022 316.349 328.055 316.154C328.072 316.056 328.103 315.961 328.145 315.871L328.229 315.698C328.282 315.587 328.342 315.48 328.408 315.376C328.541 315.157 328.696 314.952 328.871 314.765C329.239 314.379 329.702 314.095 330.213 313.942C330.701 313.813 331.208 313.772 331.71 313.82C331.906 313.83 332.096 313.889 332.263 313.994C332.414 314.085 332.543 314.207 332.642 314.354L333.033 314.907C333.552 315.636 334.017 316.401 334.427 317.196C335.209 318.787 335.816 320.458 336.239 322.18C336.66 323.89 336.939 325.633 337.074 327.389C337.209 329.142 337.209 330.903 337.074 332.656L336.431 332.611Z" fill="#231F20"/>
<path d="M337.016 327.582C337.016 327.582 337.922 314.868 350.043 317.691C350.043 317.691 351.096 328.694 337.016 327.582Z" fill="#48BEA2"/>
<path d="M350.056 317.981C350.056 317.981 340.125 323.878 337.016 327.582C349.735 328.592 350.107 319.691 350.056 317.981Z" fill="#3D9581"/>
<path d="M337.016 327.582C337.003 325.966 337.304 324.363 337.902 322.862C338.491 321.308 339.461 319.928 340.722 318.849C341.374 318.319 342.099 317.886 342.874 317.563C343.646 317.259 344.457 317.071 345.283 317.003C346.898 316.865 348.523 317.085 350.043 317.646C348.494 317.445 346.924 317.461 345.379 317.691C343.89 317.937 342.49 318.569 341.32 319.524C340.162 320.513 339.225 321.736 338.57 323.112C337.876 324.535 337.354 326.035 337.016 327.582Z" fill="#231F20"/>
<path d="M350.043 317.691C350.309 319.296 350.124 320.944 349.51 322.45C348.882 323.999 347.8 325.322 346.407 326.244C345.003 327.099 343.429 327.635 341.795 327.813C340.992 327.878 340.183 327.884 339.386 327.884C338.59 327.884 337.8 327.711 337.016 327.582C337.813 327.498 338.596 327.46 339.38 327.421C340.164 327.383 340.922 327.209 341.679 327.093L342.797 326.804C342.983 326.759 343.17 326.72 343.35 326.669L343.876 326.45C344.223 326.302 344.596 326.199 344.923 326.019L345.9 325.46C347.154 324.632 348.17 323.49 348.848 322.148C349.537 320.756 349.944 319.241 350.043 317.691Z" fill="#231F20"/>
<path d="M350.056 317.981C347.93 319.691 345.714 321.196 343.51 322.778C342.405 323.543 341.313 324.328 340.215 325.106C339.117 325.884 338.044 326.682 337.003 327.582C337.775 326.446 338.697 325.42 339.746 324.534C340.769 323.634 341.841 322.793 342.958 322.013C344.075 321.241 345.219 320.495 346.401 319.82C347.58 319.131 348.8 318.517 350.056 317.981Z" fill="#231F20"/>
<path d="M318.323 323.46C318.323 323.46 328.312 315.563 334.382 326.424C334.402 326.424 326.989 334.624 318.323 323.46Z" fill="#48BEA2"/>
<path d="M334.202 326.63C334.202 326.63 323.148 323.261 318.323 323.46C326.147 333.543 332.956 327.833 334.202 326.63Z" fill="#3D9581"/>
<path d="M318.323 323.46C319.505 322.359 320.891 321.5 322.402 320.933C323.944 320.313 325.616 320.092 327.265 320.289C328.091 320.417 328.894 320.664 329.648 321.023C330.395 321.386 331.083 321.858 331.691 322.424C332.872 323.536 333.797 324.893 334.402 326.399C333.504 325.119 332.434 323.97 331.222 322.984C330.035 322.048 328.625 321.438 327.13 321.215C325.621 321.023 324.088 321.155 322.634 321.601C321.128 322.047 319.681 322.671 318.323 323.46Z" fill="#231F20"/>
<path d="M334.402 326.424C333.401 327.701 332.067 328.676 330.548 329.241C328.979 329.82 327.274 329.911 325.653 329.505C324.076 329.042 322.62 328.238 321.387 327.151C320.797 326.598 320.244 326.006 319.711 325.415C319.178 324.823 318.767 324.129 318.336 323.486C318.934 324.026 319.486 324.579 320.045 325.125C320.604 325.672 321.24 326.122 321.844 326.605L322.801 327.248L323.282 327.569L323.796 327.814C324.137 327.968 324.439 328.174 324.818 328.296L325.884 328.637C327.342 329.008 328.872 328.992 330.323 328.592C331.812 328.147 333.199 327.411 334.402 326.424Z" fill="#231F20"/>
<path d="M334.196 326.63C331.505 326.212 328.877 325.601 326.244 325.029C324.959 324.72 323.616 324.444 322.306 324.161C320.996 323.878 319.679 323.614 318.323 323.46C319.681 323.27 321.058 323.27 322.415 323.46C323.772 323.593 325.119 323.808 326.449 324.103C327.773 324.412 329.089 324.746 330.38 325.171C331.682 325.577 332.956 326.064 334.196 326.63Z" fill="#231F20"/>
<path d="M299.387 154.041C300.211 158.149 301.779 162.072 304.012 165.616C305.078 167.291 306.304 168.859 307.673 170.298C308.02 170.645 308.386 170.973 308.733 171.307C309.075 171.655 309.437 171.981 309.819 172.285C310.554 172.915 311.326 173.502 312.131 174.04C315.28 176.214 318.838 177.721 322.589 178.471C323.064 178.535 323.533 178.593 324.002 178.677C324.466 178.769 324.936 178.829 325.409 178.857C326.359 178.889 327.336 179.005 328.261 178.979C330.17 178.957 332.073 178.742 333.939 178.336L334.132 178.297C334.661 178.184 335.212 178.221 335.721 178.404C336.231 178.587 336.679 178.909 337.016 179.333L338.018 180.619L339.078 181.847L340.202 183.024L341.384 184.156C343.023 185.636 344.795 186.962 346.677 188.117C348.614 189.295 350.654 190.291 352.773 191.095C354.993 191.909 357.274 192.548 359.595 193.005C354.694 193.935 349.632 193.49 344.968 191.719C342.571 190.84 340.295 189.658 338.198 188.201C337.671 187.834 337.157 187.449 336.643 187.063C336.13 186.677 335.654 186.233 335.16 185.815L333.753 184.49L332.43 183.063L335.506 184.059C333.218 184.76 330.851 185.173 328.46 185.288C327.865 185.326 327.269 185.326 326.674 185.288L324.888 185.211C324.292 185.183 323.697 185.116 323.109 185.011C322.518 184.928 321.933 184.825 321.343 184.735C316.658 183.769 312.288 181.652 308.624 178.574C307.72 177.814 306.862 177 306.054 176.137C305.65 175.711 305.27 175.262 304.918 174.793C304.558 174.336 304.185 173.886 303.832 173.417L302.888 171.944C302.566 171.459 302.272 170.957 302.008 170.439C301.467 169.418 300.992 168.364 300.588 167.282C298.967 163.065 298.551 158.48 299.387 154.041Z" fill="#231F20"/>
<path d="M78.3525 254.56C79.1435 257.931 80.5433 261.128 82.4828 263.994C83.4107 265.347 84.4669 266.607 85.6368 267.756C86.7992 268.867 88.0663 269.861 89.4202 270.727C92.0725 272.436 95.0452 273.585 98.1563 274.103C98.5417 274.148 98.9335 274.181 99.3254 274.239C99.7122 274.301 100.103 274.338 100.494 274.348C101.278 274.348 102.062 274.419 102.852 274.348C104.428 274.276 105.993 274.044 107.522 273.653L107.682 273.615C108.117 273.509 108.572 273.525 108.997 273.663C109.422 273.8 109.801 274.053 110.091 274.393L110.952 275.415L111.858 276.406L112.821 277.345L113.83 278.245C115.227 279.426 116.732 280.473 118.326 281.37C119.965 282.292 121.685 283.06 123.465 283.666C125.31 284.297 127.202 284.776 129.124 285.1C127.149 285.56 125.117 285.733 123.093 285.615C121.023 285.494 118.978 285.103 117.009 284.451C115.007 283.787 113.096 282.871 111.325 281.724C110.881 281.435 110.445 281.132 110.008 280.824L108.755 279.84L107.554 278.779L106.423 277.64L108.993 278.38C107.123 279.018 105.181 279.42 103.212 279.576C102.229 279.673 101.246 279.576 100.257 279.576C99.7646 279.572 99.2732 279.535 98.7858 279.467C98.2976 279.415 97.8094 279.345 97.3148 279.28C93.4223 278.612 89.7575 276.983 86.6517 274.541C85.8856 273.942 85.1563 273.298 84.4677 272.612C84.1223 272.27 83.7963 271.909 83.4913 271.531C83.1766 271.165 82.849 270.798 82.5535 270.425L81.7377 269.229C81.4552 268.842 81.1998 268.436 80.9733 268.014C80.4861 267.187 80.0568 266.327 79.6886 265.441C78.2491 262.007 77.7867 258.241 78.3525 254.56Z" fill="#231F20"/>
<path d="M94.1995 233.101C94.1995 233.101 80.5623 226.946 74.1323 230.651C68.0492 234.149 65.2421 238.76 65.7367 249.21C66.2313 259.66 70.5801 271.441 76.8174 272.927C77.6169 273.174 78.4572 273.261 79.2904 273.184C80.9349 273.1 80.755 272.965 82.5536 273.351C83.4666 273.592 84.3153 274.031 85.0395 274.637C85.0395 274.637 86.2214 276.335 89.536 276.058C92.8505 275.782 105.306 271.647 112.866 255.242C120.427 238.837 99.6402 232.67 94.1995 233.101Z" fill="#D84C53"/>
<path d="M74.1323 230.651C79.2711 227.705 88.9065 230.985 92.6514 232.458C88.3669 231.326 83.151 230.618 79.8364 232.528C73.7597 236.027 70.9462 240.638 71.4408 251.088C71.8519 259.731 74.8967 269.28 79.4703 273.171H79.2904C78.4572 273.248 77.6169 273.161 76.8173 272.914C70.5801 271.428 66.2249 259.647 65.7367 249.197C65.2485 238.747 68.0492 234.162 74.1323 230.651Z" fill="#F26B6C"/>
<path d="M94.1995 233.101C91.4881 232.024 88.6958 231.164 85.8488 230.528C83.0225 229.937 80.0676 229.551 77.2927 230.02C76.6024 230.128 75.9275 230.318 75.2821 230.586C74.9641 230.715 74.6551 230.866 74.3571 231.036L73.4514 231.609C72.2574 232.372 71.1633 233.281 70.1947 234.316C68.3105 236.432 67.1083 239.068 66.7452 241.879C66.3423 244.714 66.2798 247.588 66.5589 250.438C66.7962 253.301 67.2973 256.137 68.0556 258.907C68.791 261.664 69.87 264.317 71.2674 266.804C71.9443 268.013 72.778 269.127 73.7469 270.116C74.6423 271.069 75.7789 271.76 77.0357 272.116H77.0743H77.1642C77.2028 272.116 77.389 272.181 77.5239 272.206C77.6744 272.238 77.8267 272.259 77.98 272.271C78.302 272.306 78.6261 272.319 78.95 272.309C79.2711 272.309 79.6244 272.309 79.9713 272.258C80.3701 272.214 80.7717 272.201 81.1725 272.219C81.5677 272.254 81.9603 272.315 82.348 272.399C82.7491 272.466 83.1427 272.572 83.5235 272.714C84.2895 273.014 85.0013 273.438 85.6304 273.968L85.6883 274.013L85.7718 274.129C85.8464 274.211 85.9258 274.288 86.0094 274.361C86.1224 274.451 86.2403 274.535 86.3627 274.611C86.6268 274.768 86.9095 274.892 87.2042 274.978C87.8292 275.162 88.4805 275.241 89.1313 275.21C89.4668 275.192 89.8013 275.158 90.1334 275.107C90.4802 275.023 90.8207 274.965 91.1675 274.869C91.8613 274.689 92.5422 274.444 93.2231 274.226C95.9429 273.125 98.4945 271.646 100.803 269.833C103.124 268.005 105.21 265.897 107.014 263.557C108.846 261.216 110.432 258.692 111.749 256.026C112.45 254.738 113.01 253.378 113.419 251.969C113.818 250.58 113.987 249.135 113.92 247.692C113.84 246.25 113.475 244.838 112.847 243.538C112.2 242.23 111.345 241.035 110.316 240.001C108.185 237.919 105.667 236.276 102.903 235.165C101.521 234.582 100.098 234.102 98.6446 233.731C97.1985 233.319 95.7029 233.107 94.1995 233.101ZM94.1995 233.101C95.7082 233.023 97.2205 233.148 98.6959 233.474C100.181 233.789 101.639 234.219 103.058 234.76C105.95 235.783 108.612 237.37 110.888 239.429C112.035 240.489 112.993 241.737 113.721 243.12C114.441 244.521 114.877 246.051 115.005 247.621C115.131 249.194 114.99 250.777 114.588 252.303C114.187 253.801 113.627 255.252 112.918 256.631C112.577 257.313 112.275 258.007 111.903 258.689L110.759 260.676C110.4 261.319 109.937 261.962 109.52 262.605L108.877 263.557C108.665 263.872 108.415 264.168 108.184 264.477C106.322 266.942 104.165 269.169 101.76 271.107C99.3474 273.058 96.6615 274.644 93.7884 275.814C93.0561 276.084 92.3174 276.348 91.553 276.554C91.174 276.663 90.7693 276.734 90.3839 276.824C89.9716 276.894 89.5554 276.939 89.1377 276.959C88.2877 277.003 87.4364 276.903 86.6197 276.663C86.1896 276.535 85.7774 276.354 85.3928 276.123C85.1949 276.004 85.006 275.87 84.8275 275.724C84.6178 275.558 84.43 275.365 84.2687 275.152L84.41 275.312C83.9362 274.919 83.4027 274.605 82.8298 274.38C82.2279 274.187 81.6081 274.056 80.9798 273.988C80.6625 273.978 80.345 273.988 80.0291 274.02C79.663 274.02 79.3032 274.071 78.905 274.078C78.5103 274.086 78.1155 274.069 77.7231 274.026C77.5239 274.026 77.3248 273.975 77.1192 273.936C76.8879 273.891 76.6603 273.829 76.4383 273.75L76.5604 273.788C74.9955 273.353 73.5787 272.5 72.4622 271.319C71.3945 270.214 70.4747 268.976 69.7257 267.634C68.2716 265.015 67.17 262.215 66.4497 259.306C65.7038 256.433 65.2243 253.496 65.0173 250.535C64.9595 249.789 64.9402 249.049 64.9273 248.309C64.9145 247.57 64.9273 246.824 64.9273 246.084C64.9273 245.345 65.0237 244.599 65.0622 243.853C65.1008 243.107 65.2292 242.367 65.3898 241.628C65.6488 240.135 66.1068 238.684 66.7516 237.313C67.4076 235.936 68.2866 234.678 69.3532 233.589C70.4124 232.523 71.599 231.593 72.8861 230.818L73.8497 230.252C74.191 230.072 74.5428 229.913 74.9031 229.776C75.619 229.514 76.3625 229.335 77.1192 229.242C80.119 228.876 83.0675 229.409 85.9002 230.123C88.7512 230.861 91.5291 231.858 94.1995 233.101Z" fill="#231F20"/>
<path d="M90.8142 239.705C90.8142 239.705 92.8184 228.535 100.167 223.178C100.236 223.128 100.313 223.092 100.396 223.072C100.479 223.052 100.565 223.049 100.649 223.062C101.296 223.119 101.904 223.397 102.372 223.848C102.84 224.3 103.138 224.899 103.218 225.545C103.245 225.68 103.228 225.821 103.169 225.946C103.11 226.071 103.012 226.174 102.89 226.239C101.426 227.043 96.3128 230.014 94.861 233.229C93.8558 235.409 93.2696 237.758 93.1331 240.155" fill="#C46C29"/>
<path d="M100.629 240.149C99.2225 240.665 97.7498 240.979 96.255 241.081C94.7284 241.224 93.1887 241.082 91.7135 240.663C90.2646 240.172 88.9109 239.434 87.7117 238.483C86.5098 237.583 85.4301 236.531 84.4999 235.352C85.7396 236.175 86.9537 236.985 88.1998 237.725C88.8422 238.078 89.446 238.451 90.0884 238.747C90.7054 239.069 91.3504 239.333 92.0154 239.538C92.681 239.749 93.3649 239.898 94.0581 239.982C94.7676 240.08 95.4815 240.142 96.1972 240.168C97.681 240.226 99.1392 240.2 100.629 240.149Z" fill="#231F20"/>
<path d="M90.4802 239.647C90.824 237.884 91.3007 236.149 91.9063 234.458C92.5028 232.761 93.2398 231.118 94.1095 229.544C94.9832 227.954 96.0278 226.464 97.225 225.101C97.842 224.427 98.5053 223.798 99.2099 223.217L99.743 222.779C99.8758 222.66 100.034 222.572 100.205 222.522C100.402 222.475 100.607 222.475 100.803 222.522C101.312 222.609 101.801 222.785 102.248 223.043C102.71 223.333 103.09 223.736 103.353 224.213C103.473 224.444 103.572 224.685 103.649 224.934C103.681 225.056 103.719 225.178 103.738 225.3L103.777 225.5C103.793 225.6 103.793 225.702 103.777 225.802C103.757 226.002 103.688 226.194 103.576 226.362C103.464 226.529 103.312 226.666 103.135 226.76L102.557 227.069C102.178 227.281 101.799 227.506 101.426 227.712C99.9288 228.597 98.5274 229.636 97.2442 230.811C96.6165 231.384 96.062 232.032 95.5934 232.741C95.1659 233.483 94.8109 234.265 94.5335 235.075C93.9311 236.708 93.5613 238.419 93.4351 240.155H92.7927C92.872 238.344 93.2094 236.553 93.7948 234.837C94.0669 233.962 94.424 233.115 94.8611 232.31C95.347 231.526 95.9273 230.804 96.589 230.162C97.8914 228.907 99.3184 227.789 100.848 226.824C101.227 226.58 101.606 226.342 101.991 226.117L102.576 225.776C102.646 225.737 102.64 225.718 102.646 225.68C102.653 225.641 102.646 225.68 102.646 225.68V225.545C102.646 225.448 102.595 225.358 102.569 225.268C102.511 225.095 102.438 224.927 102.351 224.766C102.176 224.469 101.929 224.221 101.632 224.046C101.309 223.863 100.957 223.736 100.591 223.673C100.507 223.673 100.552 223.673 100.52 223.673L100.424 223.744L99.9229 224.143C99.2401 224.67 98.596 225.246 97.9958 225.866C96.8207 227.144 95.787 228.546 94.9125 230.046C94.0235 231.554 93.2648 233.135 92.645 234.773C92.0088 236.405 91.4998 238.084 91.1226 239.795L90.4802 239.647Z" fill="#231F20"/>
<path d="M91.8998 234.644C91.8998 234.644 94.3857 221.86 81.6735 221.416C81.6735 221.416 77.7102 232.001 91.8998 234.644Z" fill="#48BEA2"/>
<path d="M81.5836 221.699C81.5836 221.699 89.825 230.162 91.8998 234.644C79.0848 232.233 81.0761 223.397 81.5836 221.699Z" fill="#3D9581"/>
<path d="M91.8998 234.644C91.9703 233.043 91.8517 231.439 91.5465 229.866C91.2654 228.335 90.6657 226.88 89.7864 225.596C88.8834 224.344 87.6702 223.349 86.2663 222.709C84.8012 222.072 83.2559 221.639 81.6735 221.423C83.3253 221.268 84.991 221.474 86.5554 222.027C87.3517 222.315 88.1007 222.721 88.7779 223.23C89.4592 223.748 90.0609 224.363 90.5637 225.056C91.5226 226.455 92.1126 228.074 92.2788 229.763C92.4745 231.399 92.3457 233.058 91.8998 234.644Z" fill="#231F20"/>
<path d="M81.6736 221.416C81.3621 222.976 81.3621 224.583 81.6736 226.143C81.9809 227.65 82.6837 229.049 83.7098 230.194C84.7703 231.333 86.0367 232.26 87.4419 232.927C88.8942 233.615 90.3975 234.189 91.9384 234.644C90.303 234.553 88.6923 234.203 87.1657 233.609C85.5907 233.012 84.1733 232.062 83.0225 230.831C81.8827 229.555 81.1647 227.958 80.967 226.258C80.7514 224.61 80.996 222.934 81.6736 221.416Z" fill="#231F20"/>
<path d="M81.5836 221.699C82.6686 222.573 83.6983 223.514 84.6669 224.516C85.6561 225.493 86.594 226.529 87.4804 227.59C88.3771 228.659 89.2134 229.777 89.9856 230.94C90.7846 232.091 91.4222 233.346 91.8806 234.67C91.1097 233.512 90.2426 232.451 89.3818 231.377C88.521 230.303 87.641 229.255 86.7481 228.201C85.0138 226.053 83.228 223.956 81.5836 221.699Z" fill="#231F20"/>
<path d="M192.968 146.008C187.838 146.004 182.783 147.233 178.226 149.592C173.67 151.951 169.746 155.371 166.786 159.564C163.107 155.839 158.575 153.071 153.583 151.501C148.591 149.932 143.291 149.609 138.146 150.56C133.001 151.511 128.166 153.708 124.063 156.959C119.96 160.21 116.714 164.416 114.607 169.211H114.183C109.107 169.209 104.119 170.534 99.711 173.054C95.3031 175.574 91.6285 179.202 89.0501 183.58C86.4718 187.957 85.0791 192.932 85.0096 198.013C84.9401 203.094 86.1962 208.106 88.6539 212.552C91.1115 216.998 94.6856 220.726 99.0229 223.365C103.36 226.005 108.31 227.466 113.385 227.604C118.459 227.742 123.481 226.552 127.955 224.152C132.429 221.751 136.2 218.224 138.895 213.918C144.816 214.858 150.881 214.12 156.405 211.788C161.929 209.456 166.691 205.622 170.152 200.722C173.865 204.502 178.456 207.304 183.513 208.879C188.571 210.453 193.939 210.751 199.14 209.746C204.34 208.74 209.212 206.463 213.32 203.117C217.429 199.77 220.647 195.458 222.688 190.565C224.729 185.672 225.529 180.35 225.018 175.072C224.507 169.794 222.7 164.725 219.758 160.315C216.816 155.906 212.831 152.294 208.156 149.8C203.482 147.306 198.265 146.008 192.968 146.021V146.008Z" fill="#48BEA2"/>
<path d="M85.0138 198.374C85.3279 201.464 86.0739 204.495 87.2299 207.377C87.5447 208.078 87.8723 208.779 88.1742 209.468L89.2983 211.455C89.6708 212.098 90.1462 212.709 90.583 213.339C91.0072 213.961 91.4729 214.554 91.9769 215.114L92.6963 215.969C92.9533 216.246 93.2295 216.496 93.4993 216.76L94.2958 217.545C94.4307 217.673 94.5592 217.808 94.6941 217.93L95.1309 218.284C95.7218 218.741 96.2743 219.236 96.8652 219.68L98.7024 220.914C101.202 222.436 103.918 223.57 106.757 224.278C110.931 225.323 115.295 225.353 119.483 224.366C123.671 223.38 127.562 221.404 130.833 218.606C132.963 216.761 134.802 214.603 136.287 212.207C136.609 211.697 137.073 211.291 137.621 211.038C138.17 210.786 138.779 210.698 139.376 210.786C140.708 210.982 142.052 211.085 143.397 211.094C144.739 211.088 146.079 211.011 147.412 210.863C152.759 210.174 157.816 208.038 162.039 204.683C164.136 203.004 166.006 201.059 167.601 198.895L167.633 198.844C168.12 198.18 168.849 197.736 169.662 197.61C170.475 197.483 171.304 197.684 171.969 198.169C172.106 198.27 172.235 198.382 172.355 198.503C173.365 199.521 174.438 200.474 175.567 201.358C178.972 204.016 182.919 205.893 187.129 206.857C188.54 207.161 189.969 207.376 191.407 207.5C192.857 207.59 194.311 207.603 195.762 207.538C198.681 207.33 201.559 206.731 204.318 205.757C207.093 204.715 209.716 203.305 212.117 201.564C214.515 199.741 216.674 197.622 218.54 195.255C220.353 192.781 221.845 190.087 222.979 187.236C224.05 184.29 224.755 181.223 225.079 178.104C225.32 181.308 225.091 184.53 224.398 187.667C223.626 190.851 222.394 193.905 220.743 196.735C219.01 199.583 216.882 202.17 214.423 204.419C209.341 208.956 202.992 211.825 196.231 212.638C194.524 212.818 192.809 212.904 191.092 212.895C189.369 212.839 187.651 212.658 185.953 212.355C179.11 211.111 172.807 207.814 167.878 202.902L172.631 202.509C170.758 205.197 168.518 207.609 165.976 209.673C163.435 211.748 160.61 213.448 157.587 214.721C151.519 217.281 144.846 218.053 138.355 216.947L141.47 215.532C137.699 221.402 132.103 225.868 125.546 228.239C119.072 230.566 112.009 230.675 105.466 228.548C102.275 227.489 99.2736 225.926 96.5762 223.918C93.9325 221.913 91.6439 219.478 89.8057 216.715C86.1648 211.328 84.4739 204.856 85.0138 198.374Z" fill="#231F20"/>
<path d="M149.076 150.831C149.076 150.831 162.565 145.115 168.764 148.902C174.635 152.458 177.282 157.037 176.569 167.249C175.856 177.461 171.327 188.889 165.192 190.207C164.406 190.43 163.583 190.496 162.771 190.4C161.159 190.284 161.338 190.156 159.559 190.49C158.661 190.707 157.822 191.117 157.099 191.693C157.099 191.693 155.898 193.333 152.647 192.979C149.397 192.625 137.34 188.297 130.274 172.079C123.208 155.86 143.764 150.291 149.076 150.831Z" fill="#D84C53"/>
<path d="M168.764 148.883C163.831 145.893 154.305 148.883 150.605 150.24C154.818 149.224 159.944 148.651 163.137 150.594C169.008 154.15 171.655 158.729 170.942 168.941C170.351 177.384 167.152 186.664 162.591 190.368H162.771C163.583 190.464 164.406 190.398 165.192 190.175C171.327 188.857 175.849 177.429 176.569 167.217C177.288 157.005 174.635 152.439 168.764 148.883Z" fill="#F26B6C"/>
<path d="M149.076 150.832C151.696 149.674 154.416 148.757 157.202 148.092C160.006 147.344 162.925 147.126 165.809 147.449C166.546 147.551 167.269 147.741 167.961 148.015C168.314 148.158 168.657 148.323 168.989 148.51L169.914 149.082C171.156 149.861 172.297 150.789 173.312 151.848C174.328 152.937 175.159 154.187 175.772 155.545C176.375 156.902 176.79 158.334 177.005 159.803C177.147 160.523 177.192 161.256 177.275 161.983C177.359 162.709 177.371 163.442 177.359 164.169C177.346 164.896 177.359 165.622 177.32 166.349C177.282 167.076 177.256 167.796 177.185 168.523C176.915 171.414 176.382 174.275 175.592 177.069C174.818 179.898 173.678 182.613 172.201 185.146C171.44 186.444 170.511 187.635 169.438 188.69C168.318 189.818 166.913 190.621 165.372 191.011L165.494 190.979C165.284 191.048 165.069 191.104 164.852 191.146L164.255 191.223C163.87 191.246 163.483 191.246 163.098 191.223C162.713 191.223 162.36 191.172 162 191.14C161.693 191.1 161.384 191.083 161.075 191.088C160.457 191.137 159.845 191.251 159.251 191.429C158.685 191.636 158.156 191.931 157.683 192.304L157.831 192.149C157.667 192.353 157.479 192.536 157.272 192.696C157.092 192.835 156.904 192.962 156.707 193.075C156.327 193.292 155.921 193.461 155.499 193.577C154.692 193.793 153.853 193.871 153.02 193.809C152.613 193.777 152.207 193.723 151.806 193.648C151.433 193.551 151.041 193.474 150.669 193.358C149.924 193.14 149.211 192.863 148.498 192.58C145.707 191.377 143.11 189.766 140.789 187.802C138.49 185.851 136.438 183.624 134.681 181.172C132.921 178.742 131.425 176.131 130.216 173.384C129.552 172.019 129.037 170.585 128.681 169.108C128.324 167.607 128.222 166.057 128.379 164.523C128.547 162.984 129.017 161.494 129.76 160.137C130.506 158.804 131.47 157.607 132.612 156.594C134.888 154.633 137.527 153.141 140.378 152.201C141.78 151.713 143.216 151.333 144.676 151.063C146.125 150.788 147.605 150.711 149.076 150.832ZM149.076 150.832C147.606 150.804 146.139 150.975 144.714 151.34C143.287 151.666 141.885 152.096 140.52 152.626C137.79 153.652 135.289 155.205 133.158 157.198C132.124 158.186 131.256 159.334 130.589 160.6C129.943 161.857 129.554 163.23 129.445 164.639C129.344 166.05 129.477 167.469 129.837 168.838C130.206 170.225 130.723 171.568 131.379 172.844C132.622 175.474 134.129 177.972 135.875 180.297C137.589 182.627 139.582 184.738 141.811 186.58C144.024 188.412 146.483 189.925 149.114 191.076C149.757 191.333 150.444 191.584 151.112 191.776C151.452 191.879 151.787 191.944 152.121 192.027C152.443 192.09 152.769 192.133 153.097 192.156C153.745 192.204 154.396 192.143 155.024 191.976C155.313 191.895 155.592 191.778 155.853 191.629C155.976 191.56 156.094 191.483 156.206 191.397C156.296 191.32 156.431 191.185 156.444 191.172L156.527 191.063L156.585 191.024C157.212 190.518 157.917 190.119 158.673 189.841C159.049 189.712 159.436 189.617 159.829 189.558C160.21 189.482 160.597 189.433 160.985 189.41C161.378 189.401 161.771 189.42 162.161 189.468C162.495 189.506 162.848 189.539 163.163 189.551C163.477 189.571 163.792 189.571 164.107 189.551C164.261 189.551 164.409 189.551 164.557 189.5C164.676 189.479 164.794 189.451 164.91 189.416H164.993H165.032C166.272 189.097 167.402 188.445 168.301 187.532C169.272 186.575 170.112 185.494 170.8 184.317C172.214 181.914 173.321 179.343 174.095 176.664C174.898 173.97 175.453 171.208 175.753 168.413C176.086 165.637 176.086 162.83 175.753 160.053C175.452 157.307 174.333 154.714 172.541 152.613C171.616 151.579 170.567 150.664 169.419 149.886L168.539 149.307C168.252 149.135 167.954 148.982 167.646 148.851C167.029 148.575 166.383 148.373 165.719 148.246C162.93 147.829 160.088 147.934 157.336 148.555C154.526 149.091 151.764 149.852 149.076 150.832Z" fill="#231F20"/>
<path d="M152.243 157.372C152.243 157.372 150.534 146.394 143.455 140.992C143.321 140.892 143.153 140.848 142.986 140.87C142.352 140.912 141.752 141.169 141.284 141.599C140.817 142.03 140.511 142.608 140.417 143.237C140.389 143.369 140.404 143.507 140.46 143.631C140.515 143.754 140.608 143.857 140.725 143.925C142.138 144.741 147.072 147.783 148.433 150.947C149.371 153.1 149.894 155.41 149.975 157.757" fill="#C46C29"/>
<path d="M142.627 157.584C144.085 157.667 145.511 157.725 146.918 157.7C147.617 157.69 148.316 157.645 149.012 157.565C150.377 157.424 151.708 157.046 152.943 156.446C153.585 156.176 154.195 155.803 154.818 155.487C156.052 154.793 157.259 154.028 158.493 153.25C157.558 154.385 156.478 155.392 155.281 156.246C154.086 157.148 152.745 157.837 151.318 158.285C149.866 158.662 148.356 158.766 146.866 158.594C145.412 158.461 143.984 158.121 142.627 157.584Z" fill="#231F20"/>
<path d="M151.915 157.417C151.261 154.039 150.084 150.785 148.427 147.771C147.605 146.282 146.625 144.887 145.504 143.61C144.935 142.993 144.324 142.417 143.674 141.886L143.192 141.481L143.095 141.41H143.031C142.67 141.458 142.322 141.574 142.004 141.751C141.709 141.916 141.462 142.153 141.284 142.439C141.192 142.594 141.117 142.758 141.059 142.928C141.025 143.014 140.997 143.102 140.976 143.192L140.944 143.32C140.944 143.359 140.944 143.378 141.001 143.417L141.567 143.764C141.946 143.996 142.312 144.24 142.678 144.484C144.151 145.462 145.52 146.589 146.763 147.848C147.401 148.488 147.953 149.208 148.408 149.989C148.822 150.785 149.153 151.621 149.397 152.484C149.931 154.175 150.221 155.933 150.258 157.706H149.66C149.573 156.006 149.249 154.326 148.697 152.716C148.445 151.914 148.116 151.139 147.714 150.401C147.27 149.696 146.741 149.048 146.14 148.472C144.912 147.293 143.564 146.245 142.119 145.346C141.759 145.115 141.393 144.89 141.027 144.703L140.475 144.382C140.296 144.29 140.143 144.155 140.031 143.988C139.919 143.822 139.85 143.63 139.832 143.43C139.82 143.332 139.82 143.232 139.832 143.134L139.871 142.947C139.871 142.825 139.935 142.71 139.967 142.587C140.049 142.345 140.152 142.11 140.276 141.886C140.539 141.422 140.92 141.036 141.38 140.767C141.823 140.524 142.306 140.363 142.806 140.292C142.99 140.255 143.179 140.263 143.359 140.314C143.539 140.366 143.704 140.459 143.841 140.587L144.348 141.031C145.033 141.616 145.677 142.248 146.275 142.922C147.414 144.281 148.403 145.76 149.224 147.333C150.04 148.893 150.723 150.52 151.266 152.195C151.825 153.861 152.254 155.569 152.551 157.301L151.915 157.417Z" fill="#231F20"/>
<path d="M151.292 152.394C151.292 152.394 149.146 139.828 161.57 139.68C161.589 139.68 165.231 150.124 151.292 152.394Z" fill="#48BEA2"/>
<path d="M161.672 139.957C161.672 139.957 153.425 148.06 151.292 152.394C163.882 150.343 162.129 141.629 161.672 139.957Z" fill="#3D9581"/>
<path d="M151.292 152.394C150.889 150.828 150.8 149.198 151.029 147.597C151.231 145.949 151.845 144.378 152.814 143.031C153.324 142.366 153.925 141.777 154.6 141.282C155.277 140.804 156.019 140.427 156.803 140.163C158.345 139.659 159.978 139.494 161.589 139.68C160.044 139.863 158.532 140.254 157.092 140.844C155.702 141.437 154.49 142.384 153.579 143.59C152.692 144.829 152.073 146.24 151.761 147.732C151.423 149.262 151.265 150.827 151.292 152.394Z" fill="#231F20"/>
<path d="M161.589 139.68C162.239 141.174 162.462 142.82 162.231 144.433C161.988 146.087 161.251 147.629 160.118 148.857C158.958 150.025 157.554 150.921 156.007 151.481C155.242 151.732 154.465 151.938 153.688 152.124C152.911 152.311 152.101 152.336 151.318 152.394C152.069 152.13 152.821 151.905 153.572 151.68C154.324 151.455 155.018 151.108 155.731 150.806C156.065 150.619 156.405 150.439 156.746 150.266C156.913 150.175 157.086 150.092 157.247 149.995L157.709 149.661C158.011 149.436 158.351 149.249 158.628 149.018L159.437 148.24C160.459 147.135 161.177 145.783 161.518 144.317C161.85 142.792 161.874 141.215 161.589 139.68Z" fill="#231F20"/>
<path d="M161.672 139.957C160.015 142.131 158.223 144.143 156.457 146.182C155.557 147.192 154.684 148.208 153.81 149.23C152.936 150.253 152.069 151.275 151.292 152.394C151.764 151.108 152.413 149.894 153.219 148.787C153.997 147.666 154.84 146.593 155.744 145.571C156.643 144.555 157.574 143.565 158.563 142.626C159.544 141.673 160.582 140.782 161.672 139.957Z" fill="#231F20"/>
<path d="M182.446 127.661C182.585 128.649 182.78 129.628 183.031 130.594C183.166 131.07 183.243 131.558 183.423 132.015L183.924 133.391C184.664 135.159 185.632 136.824 186.801 138.343C187.959 139.821 189.302 141.144 190.797 142.278C192.285 143.362 193.906 144.248 195.621 144.915C196.045 145.082 196.488 145.198 196.906 145.339C197.124 145.41 197.336 145.487 197.548 145.545L198.19 145.68C198.633 145.757 199.07 145.899 199.52 145.944L200.862 146.105C201.311 146.142 201.761 146.157 202.211 146.15C202.661 146.15 203.111 146.182 203.56 146.15C204.454 146.106 205.343 145.994 206.22 145.815C209.73 145.116 212.973 143.442 215.579 140.986C215.911 140.672 216.329 140.464 216.78 140.389C217.23 140.313 217.693 140.373 218.11 140.561C219.748 141.316 221.475 141.862 223.249 142.188C225.029 142.533 226.847 142.648 228.657 142.529C232.327 142.348 235.899 141.283 239.07 139.423C239.474 139.198 239.864 138.949 240.239 138.677C240.624 138.414 241.029 138.176 241.389 137.893C242.129 137.322 242.839 136.713 243.515 136.066C243.849 135.738 244.196 135.423 244.523 135.076L245.435 134.002L245.904 133.462L246.309 132.883L247.138 131.713C249.226 128.399 250.563 124.667 251.056 120.78C251.507 124.896 250.841 129.057 249.129 132.825L248.467 134.214L248.101 134.915L247.671 135.558L246.797 136.877C246.476 137.301 246.155 137.706 245.802 138.118C245.125 138.943 244.393 139.721 243.611 140.446C243.226 140.819 242.795 141.134 242.384 141.481C241.98 141.838 241.551 142.165 241.1 142.458C237.54 144.971 233.381 146.498 229.043 146.883C224.669 147.308 220.26 146.574 216.26 144.754L218.784 144.336C217.161 145.852 215.326 147.124 213.337 148.111C210.362 149.574 207.095 150.345 203.78 150.366C200.465 150.388 197.188 149.658 194.195 148.233C192.254 147.278 190.458 146.05 188.863 144.587C187.3 143.137 185.957 141.467 184.874 139.629C183.854 137.8 183.115 135.827 182.684 133.777C182.293 131.762 182.213 129.7 182.446 127.661Z" fill="#231F20"/>
</g>
<defs>
<clipPath id="clip0_2079_626">
<rect width="412" height="524.277" fill="white" transform="translate(35 35)"/>
</clipPath>
</defs>
</svg>
