<svg width="382" height="394" viewBox="0 0 382 394" fill="none" xmlns="http://www.w3.org/2000/svg">
<g clip-path="url(#clip0_4970_813)">
<path d="M167.98 394.04C165.919 394.061 163.865 393.789 161.88 393.23C156.323 391.613 151.136 388.926 146.61 385.32C144.95 385.504 143.281 385.598 141.61 385.6C137.529 385.608 133.466 385.046 129.54 383.93C116.54 380.22 97.09 354.81 87.88 329.55C87.5667 328.697 87.2667 327.847 86.98 327C86.98 327 86.98 326.9 86.98 326.86C86.71 326.04 86.44 325.22 86.18 324.4V324.28C85.92 323.44 85.66 322.6 85.42 321.75V321.64C85.16 320.73 84.93 319.89 84.71 319.04C84.71 319.04 84.71 318.83 84.71 318.81C84.49 317.99 84.29 317.16 84.1 316.33L84.01 315.94C83.84 315.2 83.66 314.37 83.49 313.54L83.42 313.14C83.26 312.36 83.11 311.55 82.96 310.74L82.86 310.1C82.74 309.37 82.62 308.63 82.51 307.89L82.45 307.45C82.33 306.58 82.23 305.79 82.14 305L81.97 303.36C81.97 302.93 81.89 302.51 81.86 302.08C81.86 301.9 81.81 301.42 81.81 301.4C81.75 300.64 81.7 299.88 81.66 299.12C81.66 298.93 81.59 296.97 81.59 296.97C81.59 296.69 81.59 296.4 81.59 296.12C81.59 295.84 81.59 295.39 81.59 295.39V294.23C81.59 293.87 81.59 293.5 81.59 293.14V291.85C81.59 291.26 81.59 290.67 81.66 290.08C81.66 289.85 81.66 289.59 81.66 289.33C81.66 289.33 81.66 289.07 81.66 289.03C59.19 285.03 41.12 272.33 29.16 261.41C19.7 252.77 1.69002 232.87 1.25002 219.41C1.07814 213.635 2.02907 207.882 4.05003 202.47C1.66444 197.208 0.322962 191.533 0.100028 185.76C-0.389972 172.26 17.76 145.89 38.94 129.34L39.04 129.26C39.72 128.73 40.4 128.21 41.1 127.69L41.18 127.63C41.88 127.11 42.6 126.63 43.32 126.08L43.47 125.97C44.17 125.47 44.88 124.97 45.59 124.51L45.79 124.37C46.5 123.9 47.21 123.43 47.93 122.97L48.21 122.8C48.85 122.39 49.58 121.93 50.32 121.49L50.61 121.32C51.3 120.91 52.03 120.48 52.77 120.06L53.09 119.88C53.83 119.47 54.55 119.07 55.29 118.69L55.65 118.5C56.39 118.11 57.11 117.74 57.85 117.38L58.29 117.17C59.03 116.81 59.75 116.46 60.48 116.17L61.96 115.52L63.18 115L63.72 114.78C64.49 114.46 65.2 114.18 65.92 113.9L68.05 113.13L68.74 112.88L70.53 112.3L71.61 111.96L72.76 111.62C73.34 111.45 73.93 111.28 74.52 111.13L75.28 110.93L75.61 110.85C73.14 92.2801 76.61 71.8501 85.92 51.6701C91.2 40.2201 104.47 17.3701 116.92 12.8801C121.717 11.1248 126.782 10.2114 131.89 10.1801C132.54 10.1801 133.18 10.1801 133.79 10.1801C138.062 6.27974 143.051 3.24682 148.48 1.25005C151.124 0.365565 153.903 -0.0440753 156.69 0.0400608C169.89 0.0400608 193.89 7.13007 214.12 20.7701H214.18C214.92 21.2601 215.65 21.7701 216.38 22.2801L216.5 22.37C217.17 22.84 217.88 23.3701 218.59 23.8901L218.72 23.9901C219.42 24.5101 220.11 24.9901 220.8 25.5701L220.98 25.7201C221.647 26.2401 222.313 26.77 222.98 27.31L223.25 27.5301C223.84 28.0201 224.5 28.5301 225.15 29.1401L225.38 29.3501C226.01 29.8901 226.64 30.4501 227.26 31.0301L227.56 31.31C228.14 31.84 228.74 32.4101 229.34 32.9901L229.64 33.2801C230.24 33.8701 230.81 34.4401 231.38 35.0301L231.73 35.4C232.3 35.99 232.85 36.56 233.39 37.15L234.55 38.4501L235.32 39.34L235.8 39.9C236.24 40.43 236.73 41.0101 237.21 41.6101L238.58 43.3601L239.05 43.9701C239.19 44.1601 239.86 45.0701 240.05 45.3201L240.16 45.4701C240.39 45.7801 240.62 46.0901 240.84 46.4101L241.51 47.4101C241.863 47.9167 242.197 48.4267 242.51 48.9401L242.94 49.6101L243.09 49.8601C255.89 43.7501 270.89 40.5401 287.13 40.5401C310.13 40.5401 340.48 47.9401 349.04 58.9601C352.579 63.5269 355.191 68.7412 356.73 74.3101C361.749 77.1596 366.165 80.9605 369.73 85.5001C378.06 96.1401 378.87 128.13 371.47 153.98V154.09C371.23 154.917 370.98 155.747 370.72 156.58V156.72C370.47 157.51 370.2 158.35 369.92 159.19V159.31C369.64 160.14 369.36 160.97 369.06 161.79C369.06 161.85 369.06 161.92 368.98 161.98V161.89C368.65 162.78 368.34 163.6 367.98 164.42L367.86 164.72C367.58 165.43 367.26 166.22 366.92 167.01L366.78 167.33C366.46 168.07 366.13 168.84 365.78 169.61L365.63 169.92C365.27 170.71 364.92 171.45 364.55 172.19L364.35 172.6C363.99 173.32 363.62 174.05 363.24 174.76C363.19 174.87 363.1 175.03 363.01 175.2C362.63 175.92 362.24 176.62 361.85 177.31L360.96 178.84C360.76 179.17 360.57 179.51 360.36 179.84C360.15 180.17 359.98 180.46 359.98 180.46C359.6 181.07 359.19 181.72 358.77 182.37L357.59 184.13L357.09 184.85L355.96 186.41L355.33 187.26L354.54 188.26L353.46 189.62L352.83 190.37L352.74 190.49C365.65 204.06 374.84 222.64 379.18 244.43C381.64 256.8 384.33 283.08 376.9 294.03C373.645 298.803 369.495 302.898 364.68 306.09C363.517 311.75 361.265 317.129 358.05 321.93C350.51 333.14 320.33 343.8 293.46 344.75H293.39L290.75 344.81H287.83L285.24 344.75H285.03L282.46 344.63H282.18C281.36 344.58 280.5 344.52 279.64 344.44H279.31C278.5 344.37 277.67 344.28 276.83 344.19H276.44C275.63 344.09 274.81 343.99 273.99 343.87L273.54 343.8C272.74 343.68 271.94 343.56 271.14 343.42L270.66 343.33C269.85 343.19 269.06 343.04 268.28 342.88L266.66 342.53L265.42 342.25L264.85 342.11C264.02 341.91 263.28 341.72 262.54 341.52L260.41 340.91L259.67 340.69L257.83 340.04L256.77 339.69L255.61 339.27L253.94 338.66L253.2 338.36L252.94 338.26C243.12 356.52 227.66 369.04 215.06 376.9C196.17 388.65 177.41 394.04 167.98 394.04Z" fill="#231F20"/>
<path d="M201.16 195.669C201.16 195.669 161.04 196.749 111.27 148.929C61.5 101.109 112.02 30.4591 121.92 26.9291C127.615 24.9154 133.786 24.6748 139.62 26.2391C143.085 21.2976 147.966 17.5218 153.62 15.4091C163.51 11.7991 247.62 33.5591 240.1 102.179C232.58 170.799 201.16 195.669 201.16 195.669Z" fill="#E62C35"/>
<path d="M240.11 102.14C243.83 68.0397 224.95 45.5197 203.79 31.9297C203.79 31.9297 235.25 138.52 140.58 172.72C175.89 196.35 201.16 195.67 201.16 195.67C201.16 195.67 232.62 170.76 240.11 102.14Z" fill="#E95C6C"/>
<path d="M167.68 187.46C188.11 196.02 201.16 195.67 201.16 195.67C201.16 195.67 232.62 170.76 240.11 102.14C242.89 76.7103 233.11 57.7203 219.11 44.0703C219.11 44.0703 257.83 140.75 167.68 187.46Z" fill="#CC4558"/>
<path d="M201.16 195.67C201.16 195.67 189.8 234.16 128.93 266.67C68.06 299.18 16.49 229.35 16.16 218.83C16.0081 212.808 17.6851 206.88 20.97 201.83C17.3294 197.005 15.2374 191.189 14.97 185.15C14.59 174.64 61.27 101.39 124.22 129.72C187.17 158.05 201.16 195.67 201.16 195.67Z" fill="#E62C35"/>
<path d="M124.25 129.72C92.97 115.65 65.71 126.65 46.25 142.57C46.25 142.57 157.34 145.57 160.62 246.19C194 219.91 201.16 195.67 201.16 195.67C201.16 195.67 187.19 158.04 124.25 129.72Z" fill="#E95C6C"/>
<path d="M183 224.971C197.46 208.181 201.16 195.671 201.16 195.671C201.16 195.671 187.19 158.041 124.25 129.721C100.92 119.221 79.83 122.721 62.54 131.721C62.54 131.721 166.44 124.801 183 224.971Z" fill="#CC4558"/>
<path d="M201.16 195.67C201.16 195.67 234.25 218.37 246.41 286.32C258.57 354.27 176.16 381.72 166.06 378.79C160.269 377.073 155.133 373.642 151.33 368.95C145.618 370.908 139.446 371.086 133.63 369.46C123.51 366.58 68.28 299.55 114.63 248.46C160.98 197.37 201.16 195.67 201.16 195.67Z" fill="#E62C35"/>
<path d="M114.67 248.44C91.67 273.83 93.67 303.16 102.79 326.59C102.79 326.59 139.99 221.86 236.68 249.84C222 209.97 201.16 195.67 201.16 195.67C201.16 195.67 161.06 197.32 114.67 248.44Z" fill="#E95C6C"/>
<path d="M223.42 222.04C211.89 203.04 201.16 195.67 201.16 195.67C201.16 195.67 161.06 197.32 114.67 248.44C97.48 267.38 94.25 288.51 97.5 307.75C97.5 307.75 123.03 206.79 223.42 222.04Z" fill="#CC4558"/>
<path d="M201.16 195.669C201.16 195.669 232.97 171.209 301.35 180.669C369.73 190.129 370.35 276.949 364.47 285.669C361.055 290.661 356.204 294.497 350.56 296.669C350.657 302.712 348.913 308.641 345.56 313.669C339.69 322.409 258.88 354.229 224.56 294.309C190.24 234.389 201.16 195.669 201.16 195.669Z" fill="#E62C35"/>
<path d="M224.62 294.229C241.62 323.999 270.17 331.119 295.27 329.679C295.27 329.679 207.17 261.939 263.65 178.619C221.2 180.269 201.16 195.669 201.16 195.669C201.16 195.669 190.34 234.309 224.62 294.229Z" fill="#E95C6C"/>
<path d="M233.07 182.631C211.51 187.721 201.16 195.631 201.16 195.631C201.16 195.631 190.34 234.271 224.62 294.191C237.32 316.391 256.42 325.991 275.72 328.841C275.72 328.841 187.59 273.411 233.07 182.631Z" fill="#CC4558"/>
<path d="M201.16 195.67C201.16 195.67 187.73 157.85 217.83 95.7297C247.93 33.6097 330.74 59.8397 337.19 68.1597C340.869 72.9475 343.007 78.7399 343.32 84.7698C349.092 86.5488 354.189 90.0354 357.94 94.7698C364.43 103.06 369.72 189.77 302.15 203.83C234.58 217.89 201.16 195.67 201.16 195.67Z" fill="#E62C35"/>
<path d="M302.15 203.811C335.72 196.811 351.31 171.891 357.69 147.571C357.69 147.571 266.04 210.431 204.26 130.971C192.7 171.851 201.16 195.671 201.16 195.671C201.16 195.671 234.57 217.901 302.15 203.811Z" fill="#E95C6C"/>
<path d="M198.62 161.289C196.8 183.369 201.16 195.669 201.16 195.669C201.16 195.669 234.57 217.899 302.16 203.809C327.16 198.589 342.23 183.399 350.91 165.919C350.91 165.919 270.89 232.599 198.62 161.289Z" fill="#CC4558"/>
<path d="M214.58 154.18C196.2 121.36 182.75 122.28 175.47 124.93C168.19 127.58 157.28 135.49 164.24 172.46C171.2 209.43 188.4 241.21 214.24 231.81C240.08 222.41 232.97 187.04 214.58 154.18Z" fill="#FAF28C"/>
<path d="M160.41 162.32C162.868 162.32 164.86 160.328 164.86 157.87C164.86 155.412 162.868 153.42 160.41 153.42C157.952 153.42 155.96 155.412 155.96 157.87C155.96 160.328 157.952 162.32 160.41 162.32Z" fill="#F8A33E"/>
<path d="M168.66 134.47C171.118 134.47 173.11 132.478 173.11 130.02C173.11 127.563 171.118 125.57 168.66 125.57C166.202 125.57 164.21 127.563 164.21 130.02C164.21 132.478 166.202 134.47 168.66 134.47Z" fill="#F8A33E"/>
<path d="M173.37 146.589C176.264 146.589 178.61 144.243 178.61 141.349C178.61 138.455 176.264 136.109 173.37 136.109C170.476 136.109 168.13 138.455 168.13 141.349C168.13 144.243 170.476 146.589 173.37 146.589Z" fill="#F8A33E"/>
<path d="M208.28 150.371C210.738 150.371 212.73 148.378 212.73 145.921C212.73 143.463 210.738 141.471 208.28 141.471C205.822 141.471 203.83 143.463 203.83 145.921C203.83 148.378 205.822 150.371 208.28 150.371Z" fill="#F8A33E"/>
<path d="M191.79 145.6C193.64 145.6 195.14 144.101 195.14 142.25C195.14 140.4 193.64 138.9 191.79 138.9C189.94 138.9 188.44 140.4 188.44 142.25C188.44 144.101 189.94 145.6 191.79 145.6Z" fill="#F8A33E"/>
<path d="M215.24 158.61C217.09 158.61 218.59 157.11 218.59 155.26C218.59 153.41 217.09 151.91 215.24 151.91C213.39 151.91 211.89 153.41 211.89 155.26C211.89 157.11 213.39 158.61 215.24 158.61Z" fill="#F8A33E"/>
<path d="M178.62 155.309C180.47 155.309 181.97 153.81 181.97 151.959C181.97 150.109 180.47 148.609 178.62 148.609C176.77 148.609 175.27 150.109 175.27 151.959C175.27 153.81 176.77 155.309 178.62 155.309Z" fill="#F8A33E"/>
<path d="M165.95 175.211C168.408 175.211 170.4 173.218 170.4 170.761C170.4 168.303 168.408 166.311 165.95 166.311C163.492 166.311 161.5 168.303 161.5 170.761C161.5 173.218 163.492 175.211 165.95 175.211Z" fill="#F8A33E"/>
<path d="M197.22 124.559C195.841 125.062 194.644 125.963 193.779 127.149C192.915 128.334 192.423 129.75 192.366 131.216C192.309 132.683 192.69 134.133 193.46 135.381C194.23 136.63 195.354 137.622 196.69 138.229C195.56 166.389 213.37 207.819 214.2 209.719L218.45 207.869C218.25 207.419 200.37 165.819 201.31 138.709C201.633 138.644 201.951 138.554 202.26 138.439C203.199 138.133 204.068 137.641 204.814 136.993C205.559 136.345 206.167 135.553 206.602 134.666C207.036 133.778 207.287 132.812 207.341 131.826C207.395 130.839 207.25 129.851 206.915 128.922C206.58 127.992 206.062 127.139 205.392 126.414C204.721 125.688 203.911 125.104 203.011 124.698C202.11 124.291 201.137 124.069 200.149 124.045C199.162 124.021 198.179 124.196 197.26 124.559H197.22Z" fill="#F8A33E"/>
<path d="M162.77 133.901C162.1 132.061 160.728 130.563 158.954 129.734C157.181 128.905 155.151 128.814 153.31 129.481C151.47 130.152 149.971 131.527 149.143 133.302C148.314 135.077 148.223 137.108 148.89 138.951C149.525 140.692 150.791 142.132 152.438 142.982C154.086 143.832 155.993 144.032 157.78 143.541C164.15 153.561 177.54 176.491 190.89 211.041L195.22 209.371C181.72 174.451 168.13 151.191 161.64 140.971C162.415 139.986 162.925 138.819 163.123 137.582C163.32 136.345 163.199 135.078 162.77 133.901Z" fill="#F8A33E"/>
<path d="M185.07 129.04C186.812 128.865 188.436 128.076 189.651 126.815C190.867 125.555 191.595 123.903 191.706 122.155C191.817 120.408 191.304 118.677 190.258 117.273C189.212 115.868 187.701 114.881 185.995 114.487C184.288 114.092 182.498 114.317 180.941 115.12C179.385 115.923 178.165 117.253 177.498 118.872C176.831 120.491 176.76 122.295 177.299 123.961C177.838 125.627 178.951 127.048 180.44 127.97C180.33 156.85 197.21 200.04 198.01 202.04L202.33 200.34C202.13 199.88 185.4 157.04 185.07 129.04Z" fill="#F8A33E"/>
<path d="M273.313 98.4519C286.275 93.7443 294.353 83.237 291.355 74.9831C288.357 66.7293 275.419 63.8545 262.457 68.5621C249.495 73.2697 241.417 83.777 244.415 92.0308C247.412 100.285 260.35 103.159 273.313 98.4519Z" fill="white"/>
<path d="M210.671 62.3713C214.865 54.6564 208.443 43.0626 196.328 36.476C184.212 29.8894 170.99 30.8041 166.796 38.5191C162.601 46.234 169.023 57.8278 181.139 64.4144C193.255 71.0011 206.477 70.0863 210.671 62.3713Z" fill="white"/>
<path d="M306.87 92.1099C310.857 92.1099 314.09 88.8774 314.09 84.8899C314.09 80.9024 310.857 77.6699 306.87 77.6699C302.882 77.6699 299.65 80.9024 299.65 84.8899C299.65 88.8774 302.882 92.1099 306.87 92.1099Z" fill="white"/>
<path d="M154.39 57.0904C158.377 57.0904 161.61 53.8579 161.61 49.8704C161.61 45.8829 158.377 42.6504 154.39 42.6504C150.402 42.6504 147.17 45.8829 147.17 49.8704C147.17 53.8579 150.402 57.0904 154.39 57.0904Z" fill="white"/>
</g>
<defs>
<clipPath id="clip0_4970_813">
<rect width="381.73" height="394" fill="white"/>
</clipPath>
</defs>
</svg>
