<svg width="623" height="964" viewBox="0 0 623 964" fill="none" xmlns="http://www.w3.org/2000/svg">
<g clip-path="url(#clip0_4342_832)">
<path d="M84.2805 629.75C72.9305 622.75 67.7505 610.84 77.9305 588.75C88.5305 565.75 104.54 576.24 104.54 576.24C95.9305 566.58 98.3905 555 112.971 534.73C127.551 514.46 137.41 526.34 137.41 526.34C133.54 513.54 140.33 503.48 161.29 490.69C180.02 479.28 186.17 500.14 187.29 504.69C186.64 501.15 185.42 487.2 202.74 473.26C222.74 457.12 254.521 469.26 254.521 469.26L275.761 481.42L300.211 482.73C300.211 482.73 333.47 489.73 341.55 514.17C348.55 535.28 339.931 546.33 337.461 548.95C340.871 545.7 357.361 531.52 366.891 551.27C377.561 573.38 377.801 585.52 367.601 594.18C367.601 594.18 382.341 589.54 383.601 614.48C384.861 639.42 380.601 650.48 368.141 653.92C368.141 653.92 387.271 653.84 383.701 678.92C380.281 702.99 369.461 710.18 356.131 709.92C358.961 710.23 364.711 711.82 366.011 719.5C367.741 729.8 366.011 740.81 337.271 758.66C270.331 800.24 192.271 764.66 192.271 764.66C192.271 764.66 104.591 756.21 73.7205 680.94C60.8805 649.64 63.7805 640.16 70.8305 632.45C76.0405 626.68 81.7305 628.47 84.2805 629.75Z" fill="#7D5A53"/>
<path d="M187.271 504.73C187.475 501.03 188.388 497.405 189.961 494.05C191.442 490.846 193.386 487.878 195.73 485.24C198.05 482.607 200.63 480.215 203.43 478.1C204.14 477.57 204.831 477.01 205.531 476.51C206.231 476.01 206.89 475.57 207.62 475.17C208.332 474.725 209.066 474.318 209.82 473.95C210.54 473.56 211.32 473.26 212.07 472.95C218.19 470.41 225.07 469.53 232.13 469.65C233.89 469.65 235.66 469.78 237.44 469.91C239.22 470.04 240.991 470.27 242.781 470.5C244.571 470.73 246.34 471.05 248.12 471.38C249 471.55 249.89 471.73 250.76 471.93C251.63 472.13 252.56 472.33 253.31 472.52L252.841 472.3C254.691 473.17 256.57 473.99 258.44 474.82C260.31 475.65 262.22 476.44 264.12 477.22C267.94 478.77 271.791 480.22 275.771 481.5C272.671 478.71 269.45 476.13 266.18 473.62C264.55 472.37 262.9 471.15 261.24 469.93C259.58 468.71 257.92 467.53 256.24 466.38L255.8 466.18C253.965 465.337 252.085 464.593 250.17 463.95C248.29 463.283 246.384 462.72 244.451 462.26C240.558 461.279 236.585 460.65 232.581 460.38C228.491 460.093 224.383 460.261 220.331 460.88C218.263 461.219 216.22 461.687 214.211 462.28C213.211 462.57 212.211 462.97 211.211 463.28C210.211 463.59 209.21 464.07 208.29 464.56C207.328 465.014 206.393 465.525 205.49 466.09C203.652 467.183 201.915 468.438 200.3 469.84C199.53 470.53 198.821 471.23 198.081 471.93C195.141 474.766 192.591 477.981 190.5 481.49C188.396 485.014 186.971 488.901 186.3 492.95C185.573 496.893 185.908 500.959 187.271 504.73Z" fill="#221E20"/>
<path d="M137.41 526.35C137.293 523.021 137.858 519.703 139.07 516.6C140.29 513.822 142.035 511.306 144.21 509.19C148.54 504.83 154 501.19 159.53 497.5C160.9 496.56 162.33 495.68 163.73 494.76C164.922 493.973 166.176 493.284 167.48 492.7C168.641 492.174 169.864 491.797 171.12 491.58C172.267 491.395 173.439 491.435 174.57 491.7C176.89 492.2 179.29 494 181.42 496.37C183.637 498.96 185.597 501.76 187.27 504.73C187.444 501.045 186.824 497.365 185.45 493.94C184.701 492.101 183.691 490.38 182.45 488.83C181.094 487.124 179.389 485.726 177.45 484.73C175.382 483.694 173.103 483.15 170.79 483.14C168.603 483.118 166.427 483.456 164.35 484.14C162.432 484.79 160.584 485.628 158.83 486.64C157.32 487.58 155.83 488.48 154.29 489.46C151.264 491.445 148.386 493.647 145.68 496.05C142.858 498.555 140.376 501.419 138.3 504.57C136.102 507.867 134.796 511.678 134.51 515.63C134.301 519.422 135.318 523.181 137.41 526.35Z" fill="#221E20"/>
<path d="M104.54 576.25C103.208 573.496 102.459 570.497 102.34 567.44C102.361 564.696 102.904 561.981 103.94 559.44C104.41 558.14 105.06 556.85 105.64 555.56C106.22 554.27 106.95 552.99 107.73 551.72C109.17 549.15 110.73 546.6 112.43 544.04C113.27 542.76 114.05 541.46 114.93 540.19C115.81 538.92 116.62 537.53 117.44 536.4L118.67 534.59C118.865 534.287 119.078 533.996 119.31 533.72L119.96 532.88C120.4 532.33 120.81 531.71 121.28 531.22L122.66 529.67C124.406 527.724 126.589 526.219 129.03 525.28C130.327 524.898 131.685 524.772 133.03 524.91C134.572 525.112 136.061 525.604 137.42 526.36C136.671 524.773 135.507 523.418 134.05 522.44C132.449 521.399 130.621 520.761 128.72 520.58C126.785 520.458 124.845 520.717 123.01 521.34C122.103 521.614 121.226 521.976 120.39 522.42C119.555 522.822 118.747 523.276 117.97 523.78L115.77 525.36C115.04 525.91 114.46 526.53 113.77 527.12C112.488 528.29 111.295 529.554 110.2 530.9C109.01 532.22 108.15 533.51 107.14 534.82C106.13 536.13 105.28 537.52 104.36 538.87C103.44 540.22 102.64 541.7 101.82 543.14C101 544.58 100.23 546.14 99.6 547.69C98.1252 550.862 97.1148 554.23 96.6 557.69C96.0266 561.334 96.4198 565.065 97.74 568.51C99.0913 571.769 101.482 574.49 104.54 576.25Z" fill="#221E20"/>
<path d="M84.28 629.75C82.0647 627.35 80.1875 624.658 78.7001 621.75C77.4444 619.14 76.7268 616.303 76.5901 613.41C76.2901 607.79 77.9301 601.96 80.0601 596.16C82.1901 590.36 84.55 584.57 88.28 580.57C90.1085 578.518 92.4796 577.024 95.1201 576.26C98.2121 575.483 101.448 575.483 104.54 576.26C101.989 573.554 98.5266 571.887 94.8201 571.58C92.8305 571.409 90.8264 571.609 88.91 572.17C86.9765 572.735 85.149 573.613 83.5001 574.77C81.8798 575.874 80.4049 577.177 79.1101 578.65C77.8471 580.054 76.7094 581.567 75.7101 583.17C75.2101 583.95 74.7101 584.76 74.3301 585.57L73.6901 586.78L73.1201 587.98C72.4101 589.59 71.6701 591.18 71.1201 592.87C69.8375 596.278 68.9646 599.826 68.52 603.44L68.29 606.23C68.29 607.23 68.29 608.13 68.29 609.07C68.3922 610.998 68.7041 612.909 69.2201 614.77C70.2233 618.501 72.213 621.893 74.9801 624.59C77.586 627.079 80.7886 628.856 84.28 629.75Z" fill="#221E20"/>
<path d="M192.221 764.64C183.399 762.64 174.743 759.966 166.331 756.64C158.004 753.399 149.917 749.573 142.131 745.19C126.681 736.573 112.728 725.514 100.811 712.44C94.911 705.89 89.5597 698.867 84.8107 691.44C82.4173 687.74 80.1774 683.937 78.0907 680.03C75.9607 676.14 73.9807 672.17 72.2107 668.16C70.4088 664.22 68.9403 660.136 67.8207 655.95C66.6898 651.946 66.4072 647.75 66.9907 643.63C67.3452 641.606 68.0204 639.652 68.9907 637.84C69.4798 636.888 70.0309 635.97 70.6406 635.09C71.2606 634.21 71.9207 633.29 72.5807 632.52C73.9256 630.922 75.737 629.786 77.7606 629.27C79.9314 628.786 82.1968 628.957 84.2706 629.76C82.3008 628.411 79.958 627.711 77.5707 627.76C75.0682 627.944 72.685 628.902 70.7507 630.5C69.8163 631.263 68.9312 632.085 68.1007 632.96C67.2567 633.833 66.4684 634.758 65.7407 635.73C64.2504 637.75 63.0925 639.995 62.3107 642.38C61.5676 644.781 61.1406 647.269 61.0406 649.78C60.9755 652.231 61.1126 654.682 61.4507 657.11C62.1743 661.826 63.3532 666.461 64.9707 670.95C66.5232 675.378 68.3159 679.718 70.3407 683.95C72.3407 688.16 74.5507 692.29 76.9707 696.3C91.5114 720.581 113.039 739.91 138.741 751.76C147.161 755.654 155.93 758.745 164.931 760.99C169.4 762.113 173.927 762.994 178.491 763.63C183.035 764.311 187.625 764.649 192.221 764.64Z" fill="#221E20"/>
<path d="M356.09 709.95C358.265 710.405 360.258 711.49 361.82 713.07C363.236 714.604 364.141 716.54 364.41 718.61C364.55 719.61 364.6 720.75 364.67 721.85C364.725 722.929 364.725 724.011 364.67 725.09C364.581 727.175 364.205 729.238 363.55 731.22C362.921 733.157 362.015 734.992 360.86 736.67C359.699 738.385 358.358 739.97 356.86 741.4C353.768 744.328 350.345 746.885 346.66 749.02C342.894 751.246 339 753.249 335 755.02C330.93 756.84 326.83 758.58 322.68 760.18C318.53 761.78 314.36 763.31 310.14 764.68C305.92 766.05 301.67 767.31 297.38 768.43C280.239 772.963 262.545 775.057 244.82 774.65C235.905 774.446 227.021 773.536 218.25 771.93C209.361 770.378 200.65 767.936 192.25 764.64C196.032 767.264 200.049 769.53 204.25 771.41C208.443 773.34 212.752 775.009 217.15 776.41C226.004 779.232 235.126 781.128 244.37 782.07C262.978 783.897 281.762 782.39 299.84 777.62C308.843 775.286 317.658 772.277 326.21 768.62C330.46 766.76 334.67 764.82 338.79 762.69C343.006 760.558 347.063 758.125 350.93 755.41C354.918 752.651 358.528 749.384 361.67 745.69C364.96 741.877 367.219 737.284 368.23 732.35C368.665 729.911 368.752 727.423 368.49 724.96C368.369 723.771 368.186 722.589 367.94 721.42C367.705 720.244 367.404 719.082 367.04 717.94C366.291 715.547 364.812 713.449 362.81 711.94C360.834 710.589 358.483 709.893 356.09 709.95Z" fill="#221E20"/>
<path d="M368.1 654C371.123 655.019 373.842 656.779 376.01 659.12C377.82 661.191 379.006 663.732 379.43 666.45C380.43 671.84 379.18 677.85 377.86 684.02C376.54 690.19 374.7 695.82 371.4 700.38C369.719 702.737 367.575 704.727 365.1 706.23C362.282 707.866 359.254 709.111 356.1 709.93C359.522 711.085 363.184 711.333 366.73 710.65C370.52 709.893 374.035 708.124 376.9 705.53C378.342 704.248 379.64 702.813 380.77 701.25C381.3 700.47 381.85 699.69 382.35 698.88L383.67 696.41C385.252 693.132 386.44 689.678 387.21 686.12C387.62 684.38 387.88 682.64 388.13 680.9L388.31 679.59L388.43 678.22C388.52 677.31 388.56 676.38 388.57 675.45C388.58 674.52 388.57 673.58 388.5 672.65C388.439 671.698 388.329 670.75 388.17 669.81C387.874 667.873 387.344 665.979 386.59 664.17C385.823 662.307 384.763 660.578 383.45 659.05C382.14 657.546 380.568 656.292 378.81 655.35C375.527 653.601 371.715 653.121 368.1 654Z" fill="#221E20"/>
<path d="M367.58 594.26C369.133 594.357 370.653 594.747 372.06 595.41C373.264 596.021 374.337 596.86 375.22 597.88C376.772 599.996 377.8 602.45 378.22 605.04L378.54 607.04C378.66 607.72 378.67 608.46 378.75 609.16C378.9 610.55 378.92 612.02 378.95 613.48C378.98 614.94 378.95 616.48 378.95 618.03C378.95 619.58 378.95 621.09 378.95 622.62C378.95 625.62 378.95 628.69 378.72 631.62C378.72 632.35 378.72 633.1 378.58 633.82C378.44 634.54 378.44 635.25 378.38 635.98C378.18 637.38 378.02 638.81 377.7 640.16C377.198 642.856 376.179 645.43 374.7 647.74C372.941 650.247 370.684 652.365 368.07 653.96C371.588 654.142 375.067 653.15 377.96 651.14C380.945 648.967 383.304 646.045 384.8 642.67C386.248 639.492 387.238 636.126 387.74 632.67C388.06 630.99 388.15 629.33 388.34 627.67C388.53 626.01 388.49 624.35 388.51 622.67C388.53 620.99 388.51 619.38 388.37 617.76L388.2 615.32C388.2 614.53 388.06 613.67 387.93 612.81L387.56 610.26C387.418 609.396 387.224 608.541 386.98 607.7C386.73 606.84 386.59 606 386.26 605.15L385.26 602.63C385.095 602.201 384.894 601.786 384.66 601.39L383.97 600.17C383.515 599.343 382.976 598.565 382.36 597.85C381.157 596.331 379.669 595.06 377.98 594.11C376.288 593.229 374.407 592.773 372.5 592.78C370.756 592.816 369.055 593.328 367.58 594.26Z" fill="#221E20"/>
<path d="M337.44 549.03C340.458 547.443 343.623 546.154 346.89 545.18C349.96 544.33 352.96 544.18 355.18 544.97C356.286 545.359 357.305 545.961 358.18 546.74C359.113 547.608 359.932 548.589 360.62 549.66C361.382 550.864 362.051 552.125 362.62 553.43C363.28 554.97 364.02 556.43 364.62 558.01C367.26 564.1 369.86 570.14 371.12 576.15C371.799 579.103 371.901 582.159 371.42 585.15C370.756 588.419 369.432 591.519 367.531 594.26C371.008 592.748 373.908 590.157 375.8 586.87C377.712 583.396 378.687 579.485 378.63 575.52C378.593 571.747 378.061 567.995 377.05 564.36C376.08 560.871 374.853 557.459 373.38 554.15C372.65 552.52 371.871 550.93 371.091 549.33C370.171 547.524 369.072 545.816 367.81 544.23C366.449 542.519 364.814 541.046 362.971 539.87C361.022 538.622 358.811 537.842 356.51 537.59C354.334 537.362 352.135 537.604 350.06 538.3C348.195 538.927 346.431 539.82 344.82 540.95C341.812 543.086 339.296 545.841 337.44 549.03Z" fill="#221E20"/>
<path d="M275.74 481.5C279.74 482.6 283.81 483.5 287.85 484.21C289.85 484.6 291.9 484.94 293.93 485.28C295.96 485.62 297.93 485.94 300 486.21L299.49 486.14C300.22 486.39 301.13 486.7 301.95 487.02C302.77 487.34 303.64 487.66 304.47 488.02C306.14 488.71 307.8 489.42 309.47 490.18C311.14 490.94 312.7 491.76 314.27 492.59C315.84 493.42 317.37 494.33 318.88 495.25C324.88 498.97 330.16 503.46 333.88 508.92C334.33 509.61 334.81 510.29 335.21 511.01C335.643 511.715 336.037 512.443 336.39 513.19C336.584 513.554 336.757 513.927 336.91 514.31L337.41 515.44C337.72 516.24 338.01 517.09 338.31 517.91C339.517 521.207 340.385 524.618 340.9 528.09C341.444 531.577 341.467 535.126 340.97 538.62C340.471 542.29 339.272 545.831 337.44 549.05C340.648 546.648 343.158 543.434 344.71 539.74C346.346 535.973 347.262 531.934 347.41 527.83C347.561 523.745 347.164 519.659 346.23 515.68C345.99 514.68 345.78 513.68 345.5 512.68C345.22 511.68 344.9 510.68 344.5 509.68C344.1 508.68 343.7 507.68 343.21 506.75C342.752 505.789 342.241 504.855 341.68 503.95C339.471 500.354 336.745 497.103 333.59 494.3C330.527 491.583 327.173 489.212 323.59 487.23C320.077 485.285 316.396 483.662 312.59 482.38C310.71 481.713 308.804 481.15 306.87 480.69C304.912 480.194 302.929 479.8 300.93 479.51L300.46 479.44H300.41C298.41 479.44 296.31 479.61 294.27 479.71C292.23 479.81 290.17 479.95 288.12 480.12C283.97 480.43 279.82 480.84 275.74 481.5Z" fill="#221E20"/>
<path d="M277.24 963.75C147.293 963.75 41.9503 950.717 41.9503 934.64C41.9503 918.563 147.293 905.53 277.24 905.53C407.187 905.53 512.53 918.563 512.53 934.64C512.53 950.717 407.187 963.75 277.24 963.75Z" fill="#D0D2D3"/>
<path d="M175.98 753.95C175.98 753.95 170.04 779.06 193.09 817.14C193.331 817.537 193.686 817.851 194.109 818.042C194.533 818.232 195.004 818.289 195.46 818.206C195.917 818.122 196.337 817.902 196.666 817.574C196.994 817.246 197.216 816.827 197.3 816.37C199.73 802.78 206.41 769.44 215.08 758.56L175.98 753.95Z" fill="#49BEA2"/>
<path d="M176.74 749.01C176.74 749.01 170.79 774.12 193.85 812.2C194.088 812.598 194.443 812.914 194.866 813.106C195.289 813.297 195.76 813.355 196.217 813.271C196.673 813.187 197.093 812.966 197.421 812.637C197.749 812.308 197.968 811.887 198.05 811.43C200.49 797.84 207.17 764.5 215.84 753.62L176.74 749.01Z" stroke="#231F20" stroke-width="6" stroke-miterlimit="10"/>
<path d="M195.088 765.902C130.464 746.833 94.7796 674.765 115.385 604.934C135.99 535.103 205.082 493.952 269.707 513.021C334.331 532.09 370.015 604.158 349.409 673.989C328.804 743.82 259.712 784.971 195.088 765.902Z" fill="#F5E099"/>
<path d="M201.5 518.86C173.29 535.07 148.74 560.72 138.93 593.97C118.33 663.8 165.57 739.28 218.65 754.97C239.17 760.97 263.81 759.08 287.5 750.41C257.43 767.93 222.61 774.12 195.16 766.02C142.08 750.36 94.84 674.89 115.44 605.02C127.91 562.77 164.15 532.8 201.5 518.86Z" fill="#F0CC6D"/>
<path d="M369.261 431.61C340.341 477.61 329.691 463.99 301.091 549.61C301.091 549.61 295.341 563.55 256.741 552.17C218.141 540.79 220.881 525.95 220.881 525.95C243.331 438.51 227.021 444.14 227.671 389.84L298.461 410.73L369.261 431.61Z" fill="#49BEA2"/>
<path d="M232.581 447.53C231.581 430.15 227.331 418.12 227.671 389.84L298.461 410.73L369.261 431.61C354.181 455.61 344.071 463.36 333.791 477.45C313.481 478.62 294.281 477.62 279.791 473.34C265.301 469.06 248.821 459.5 232.581 447.53Z" fill="#3D9480"/>
<path d="M227.671 389.84C238.858 395.129 250.309 399.839 261.981 403.95C273.581 408.123 285.281 411.94 297.081 415.4C308.881 418.86 320.777 422.007 332.771 424.84C344.808 427.725 356.988 429.978 369.261 431.59C358.076 426.29 346.624 421.573 334.951 417.46C323.357 413.287 311.657 409.47 299.851 406.01C288.044 402.55 276.144 399.407 264.151 396.58C252.114 393.712 239.938 391.462 227.671 389.84Z" fill="#231F20"/>
<path d="M369.261 431.61C364.611 437.77 360.041 443.93 354.961 449.61C353.731 451.07 352.421 452.47 351.151 453.89C349.881 455.31 348.601 456.73 347.271 458.13C344.671 460.93 341.991 463.69 339.371 466.55C334.038 472.31 329.192 478.501 324.881 485.06C322.881 488.4 320.711 491.74 318.941 495.22C318.031 496.95 317.071 498.67 316.201 500.41L313.661 505.68C311.911 509.18 310.431 512.77 308.861 516.33C307.291 519.89 305.861 523.5 304.471 527.11L302.341 532.52C301.641 534.33 301.021 536.12 300.341 537.93L298.401 543.33L297.401 546.04L296.911 547.39L296.791 547.73L296.731 547.89C296.731 547.89 296.731 547.97 296.731 547.89C296.753 547.821 296.78 547.755 296.811 547.69V547.61L296.751 547.68C296.434 548.054 296.075 548.389 295.681 548.68C295.149 549.058 294.587 549.393 294.001 549.68C293.353 549.999 292.685 550.276 292.001 550.51C291.271 550.74 290.491 550.9 289.741 551.12C286.377 551.697 282.954 551.858 279.551 551.6C265.002 550.131 250.852 545.974 237.821 539.34C234.815 537.721 232.027 535.728 229.521 533.41C229.011 532.83 228.441 532.26 227.961 531.68C227.507 531.112 227.093 530.514 226.721 529.89C226.088 528.919 225.681 527.819 225.531 526.67C225.529 526.64 225.529 526.61 225.531 526.58C225.531 526.58 225.531 526.58 225.531 526.68C225.535 526.746 225.535 526.813 225.531 526.88C225.531 526.99 225.531 526.95 225.531 526.88V526.71L225.611 526.36L225.821 524.95L226.471 522.15L227.771 516.55C228.201 514.68 228.661 512.84 229.051 510.94L230.201 505.24C230.961 501.44 231.771 497.65 232.371 493.8C232.971 489.95 233.681 486.14 234.111 482.26L234.841 476.45C235.051 474.51 235.181 472.55 235.351 470.6C235.751 466.71 235.791 462.76 235.891 458.84C235.836 451 235.144 443.177 233.821 435.45C233.171 431.63 232.411 427.85 231.751 424.08C231.391 422.2 231.081 420.31 230.751 418.43C230.421 416.55 230.111 414.65 229.871 412.76C228.721 405.19 228.221 397.53 227.651 389.84L227.311 395.61C227.201 397.54 227.061 399.47 227.061 401.4V407.2C227.061 409.13 227.161 411.06 227.211 413C227.481 420.74 228.401 428.47 229.051 436.07C229.809 443.575 229.97 451.129 229.531 458.66C229.141 462.41 228.961 466.16 228.371 469.9C228.111 471.77 227.901 473.64 227.601 475.51L226.601 481.11C226.001 484.84 225.131 488.55 224.351 492.27C223.571 495.99 222.701 499.7 221.821 503.41L220.491 508.97L219.051 514.56L217.601 520.17L216.871 522.97L216.511 524.37L216.421 524.72L216.371 524.89C216.371 524.89 216.301 525.27 216.271 525.48C216.241 525.69 216.271 525.73 216.271 525.76V525.93V526.28C216.271 526.52 216.271 526.73 216.271 526.91C216.387 529.61 217.181 532.238 218.581 534.55C219.175 535.596 219.844 536.598 220.581 537.55C221.311 538.45 222.081 539.27 222.841 540.13C225.92 543.105 229.368 545.673 233.101 547.77C247.372 555.326 263.014 559.944 279.101 561.35C283.376 561.613 287.668 561.327 291.871 560.5C292.971 560.19 294.061 559.92 295.161 559.56C296.29 559.161 297.389 558.683 298.451 558.13C300.875 556.938 302.965 555.161 304.531 552.96C304.654 552.79 304.768 552.613 304.871 552.43L305.041 552.13L305.121 551.98L305.251 551.73C305.342 551.553 305.419 551.369 305.481 551.18L305.541 551.01L305.651 550.67L306.111 549.29L307.021 546.55L308.841 541.05L310.671 535.57L312.571 530.18C313.841 526.59 315.091 522.98 316.491 519.45C317.891 515.92 319.131 512.31 320.661 508.85L322.861 503.61C323.631 501.88 324.461 500.19 325.261 498.48C326.801 495.02 328.681 491.78 330.391 488.42C334.112 481.854 338.348 475.594 343.061 469.7C347.731 463.7 352.701 457.7 357.131 451.33C358.221 449.73 359.341 448.15 360.411 446.54L363.511 441.64C364.561 440.02 365.511 438.33 366.451 436.64L369.261 431.61Z" fill="#231F20"/>
<path d="M285.14 455.11C324.72 466.79 399.14 454.11 436.02 439.44C492.15 417.31 495.95 395.11 495.95 395.11C545.38 203.95 373.46 155.74 373.46 155.74C373.46 155.74 202.91 102.89 140.66 290.3C140.66 290.3 132 313.07 166.93 360.06C190.61 391.95 245.56 443.44 285.14 455.11Z" fill="#49BEA2"/>
<path d="M140.661 290.3C139.89 292.593 139.446 294.983 139.341 297.4C139.219 299.824 139.273 302.253 139.501 304.67C139.651 305.87 139.741 307.09 139.951 308.29L140.601 311.87C140.831 313.07 141.171 314.23 141.451 315.42C141.731 316.61 142.021 317.79 142.451 318.94C145.42 328.208 149.372 337.133 154.241 345.56L158.001 351.81C158.611 352.86 159.291 353.86 160.001 354.87L162.001 357.87C164.641 361.94 167.531 365.87 170.501 369.72C173.471 373.57 176.551 377.31 179.731 380.96C182.911 384.61 186.141 388.22 189.471 391.74C196.084 398.82 202.977 405.62 210.151 412.14C217.321 418.66 224.721 424.95 232.421 430.9C236.261 433.88 240.201 436.747 244.241 439.5C248.281 442.253 252.411 444.893 256.631 447.42C260.851 449.933 265.221 452.243 269.741 454.35C278.819 458.741 288.554 461.619 298.561 462.87C303.487 463.57 308.407 464.023 313.321 464.23C318.234 464.437 323.134 464.483 328.021 464.37C332.911 464.27 337.781 464.04 342.631 463.64C352.331 462.87 361.971 461.64 371.541 460.09C381.111 458.54 390.601 456.58 400.001 454.2C404.701 453.04 409.381 451.74 414.001 450.37C418.621 449 423.281 447.51 427.841 445.82C432.401 444.13 436.951 442.29 441.331 440.26C443.531 439.26 445.761 438.31 447.941 437.26L454.441 433.98C463.075 429.49 471.242 424.154 478.821 418.05C480.731 416.56 482.451 414.81 484.241 413.18C485.965 411.464 487.6 409.662 489.141 407.78L490.281 406.36L491.331 404.87C491.671 404.36 492.041 403.87 492.331 403.36L493.261 401.8C494.523 399.732 495.438 397.473 495.971 395.11C495.178 397.361 494.049 399.478 492.621 401.39L491.561 402.82C491.201 403.29 490.801 403.73 490.421 404.18L489.261 405.53L488.011 406.8C486.401 408.53 484.571 410.06 482.811 411.62C481.051 413.18 479.141 414.62 477.141 415.9C469.319 421.249 461.012 425.852 452.331 429.65L445.811 432.48C443.631 433.42 441.391 434.21 439.181 435.08C434.761 436.85 430.321 438.37 425.801 439.75C416.801 442.51 407.561 444.84 398.271 446.75C379.719 450.664 360.905 453.214 341.981 454.38C332.595 454.985 323.183 455.045 313.791 454.56C309.131 454.33 304.491 453.9 299.931 453.23C295.414 452.595 290.947 451.65 286.561 450.4C282.2 449.075 277.939 447.441 273.811 445.51C269.621 443.59 265.511 441.41 261.471 439.07C253.35 434.33 245.504 429.135 237.971 423.51C222.773 412.162 208.382 399.772 194.901 386.43C188.121 379.763 181.631 372.846 175.431 365.68C172.331 362.09 169.341 358.45 166.541 354.62L164.401 351.78C163.691 350.84 162.961 349.89 162.321 348.9L158.321 343.04C153.045 335.179 148.582 326.803 145.001 318.04C144.511 316.95 144.171 315.83 143.781 314.71C143.391 313.59 142.971 312.48 142.661 311.34L141.731 307.92C141.421 306.77 141.251 305.6 140.991 304.44C140.101 299.83 139.631 295 140.661 290.3Z" fill="#231F20"/>
<path d="M495.951 395.11L498.531 386.11C499.291 383.11 500.091 380.04 500.811 376.99C502.181 370.87 503.421 364.71 504.371 358.49L505.071 353.83C505.311 352.27 505.451 350.7 505.631 349.14C505.811 347.58 506.011 346.01 506.141 344.44L506.511 339.73L506.691 337.37L506.821 334.95L507.031 330.22L507.101 325.48C507.101 323.9 507.101 322.32 507.101 320.74L506.981 315.99C506.921 314.41 506.781 312.83 506.691 311.25C506.541 308.08 506.131 304.93 505.841 301.77C505.031 295.48 504.031 289.19 502.611 282.98C501.189 276.762 499.42 270.629 497.311 264.61C495.136 258.592 492.636 252.696 489.821 246.95C478.661 223.87 461.821 203.75 441.961 187.61C432.011 179.568 421.351 172.449 410.111 166.34C404.511 163.273 398.781 160.45 392.921 157.87C387.026 155.245 380.982 152.968 374.821 151.05C371.631 150.05 368.501 149.39 365.361 148.71C362.221 148.03 359.061 147.46 355.901 146.95C349.587 145.943 343.254 145.203 336.901 144.73C324.146 143.773 311.331 143.967 298.611 145.31C285.868 146.696 273.3 149.376 261.101 153.31C248.888 157.225 237.175 162.555 226.201 169.19C220.732 172.49 215.444 176.082 210.361 179.95C205.325 183.863 200.511 188.053 195.941 192.5C191.371 196.95 187.121 201.69 183.031 206.5C181.031 208.99 179.031 211.42 177.171 213.99C176.231 215.27 175.261 216.53 174.351 217.82L171.671 221.74C170.761 223.03 169.931 224.38 169.081 225.74L166.561 229.74L164.181 233.83L162.981 235.83L161.861 237.91L159.611 242.07C158.871 243.46 158.201 244.89 157.491 246.29C156.781 247.69 156.061 249.1 155.411 250.53L153.471 254.84C150.901 260.57 148.601 266.42 146.471 272.3C145.421 275.3 144.471 278.24 143.471 281.2L140.741 290.2L144.191 281.47C145.421 278.6 146.611 275.72 147.881 272.86C149.151 270 150.421 267.17 151.801 264.37C153.181 261.57 154.491 258.76 156.001 256.03C161.699 245.005 168.277 234.458 175.671 224.49C179.341 219.49 183.291 214.77 187.361 210.15C191.431 205.53 195.841 201.22 200.361 197.15C204.881 193.08 209.681 189.15 214.631 185.57C219.596 182.001 224.75 178.703 230.071 175.69C235.385 172.702 240.871 170.031 246.501 167.69C252.113 165.305 257.848 163.219 263.681 161.44C275.376 157.911 287.402 155.586 299.571 154.5C311.75 153.358 324.006 153.271 336.201 154.24C342.291 154.72 348.371 155.46 354.391 156.47C366.378 158.277 378.061 161.723 389.111 166.71C394.717 169.13 400.217 171.797 405.611 174.71C416.372 180.526 426.619 187.247 436.241 194.8C445.865 202.322 454.7 210.802 462.611 220.11C466.528 224.776 470.2 229.642 473.611 234.69C477.066 239.724 480.218 244.96 483.051 250.37C485.879 255.787 488.416 261.352 490.651 267.04C492.851 272.76 494.711 278.6 496.361 284.51C498.011 290.42 499.201 296.51 500.241 302.51C501.281 308.51 501.901 314.73 502.241 320.9C503.971 345.67 501.141 370.65 495.951 395.11Z" fill="#231F20"/>
<path d="M202.01 324.22C214.46 350.06 237.49 350.52 258.57 358.48C279.65 366.44 300.51 400.77 305.2 402.15C309.89 403.53 346.04 386.04 368.07 390.79C390.1 395.54 409.68 407.65 434.16 392.71" stroke="#231F20" stroke-width="5.89" stroke-miterlimit="10" stroke-linecap="round"/>
<path d="M306.02 399.37C306.02 399.37 334.45 340.16 332.29 295.37" stroke="#231F20" stroke-width="5.89" stroke-miterlimit="10" stroke-linecap="round"/>
<path d="M330.27 362.43C330.528 362.502 330.793 362.542 331.06 362.55H331.34C331.453 362.557 331.567 362.557 331.68 362.55C331.822 362.532 331.962 362.505 332.1 362.47L332.69 362.3C333.04 362.18 333.34 362.06 333.62 361.94C334.2 361.7 334.71 361.45 335.23 361.2C336.23 360.69 337.23 360.2 338.17 359.62C340.07 358.55 341.92 357.42 343.75 356.29C344.233 355.989 344.583 355.515 344.728 354.965C344.873 354.414 344.802 353.829 344.53 353.33C344.258 352.83 343.805 352.453 343.264 352.277C342.723 352.1 342.135 352.137 341.62 352.38C339.71 353.28 337.8 354.17 335.89 354.98C334.89 355.39 333.98 355.77 333.04 356.11C332.58 356.28 332.11 356.45 331.68 356.57L331.1 356.71C331.041 356.72 330.98 356.72 330.92 356.71H331.06H331.24C331.475 356.706 331.708 356.743 331.93 356.82C331.195 356.645 330.422 356.758 329.768 357.136C329.114 357.514 328.631 358.129 328.417 358.853C328.203 359.577 328.274 360.356 328.617 361.029C328.96 361.702 329.548 362.217 330.26 362.47L330.27 362.43Z" fill="#231F20"/>
<path d="M307.09 349.45C307.319 349.503 307.536 349.598 307.73 349.73L307.88 349.83L307.99 349.92L307.85 349.8L307.44 349.36C307.15 349.03 306.85 348.64 306.55 348.24C305.95 347.45 305.35 346.61 304.77 345.75C303.61 344.03 302.48 342.24 301.37 340.45C301.066 339.977 300.594 339.636 300.049 339.495C299.503 339.355 298.925 339.427 298.431 339.695C297.936 339.963 297.561 340.409 297.381 340.942C297.201 341.475 297.229 342.057 297.46 342.57C298.38 344.52 299.32 346.47 300.34 348.41C300.84 349.41 301.34 350.35 301.95 351.33C302.24 351.82 302.54 352.33 302.89 352.82C303.07 353.08 303.25 353.34 303.48 353.62C303.71 353.9 303.73 353.92 303.89 354.09L304.19 354.39C304.19 354.39 304.37 354.53 304.46 354.6L304.53 354.66L304.69 354.76C304.917 354.904 305.162 355.015 305.42 355.09C305.791 355.199 306.18 355.234 306.564 355.193C306.949 355.151 307.321 355.035 307.661 354.85C308 354.664 308.3 354.414 308.542 354.113C308.785 353.812 308.966 353.466 309.075 353.095C309.184 352.724 309.219 352.335 309.178 351.951C309.136 351.566 309.02 351.194 308.834 350.854C308.649 350.515 308.399 350.216 308.098 349.973C307.797 349.73 307.451 349.549 307.08 349.44L307.09 349.45Z" fill="#231F20"/>
<path d="M307.779 188.201C304.648 182.448 309.679 173.663 319.017 168.581C328.355 163.498 338.463 164.041 341.595 169.795C344.726 175.548 339.695 184.332 330.357 189.414C321.019 194.497 310.911 193.954 307.779 188.201Z" fill="#3D9480"/>
<path d="M304.676 217.551C301.608 213.612 304.129 206.518 310.307 201.705C316.485 196.892 323.981 196.183 327.049 200.122C330.117 204.061 327.596 211.155 321.418 215.968C315.24 220.781 307.745 221.49 304.676 217.551Z" fill="#3D9480"/>
<path d="M476.101 288.782C473.858 281.279 475.916 274.037 480.699 272.607C485.483 271.176 491.18 276.099 493.423 283.602C495.667 291.105 493.609 298.347 488.825 299.778C484.042 301.208 478.345 296.285 476.101 288.782Z" fill="#3D9480"/>
<path d="M281.788 203.808C280.154 200.152 283.468 195.115 289.191 192.556C294.913 189.998 300.877 190.887 302.511 194.542C304.146 198.197 300.832 203.235 295.109 205.793C289.387 208.352 283.423 207.463 281.788 203.808Z" fill="#3D9480"/>
<path d="M96.4305 155.82C87.2006 187.1 208.211 209.77 353.131 252.52C498.051 295.27 611.981 341.95 621.211 310.64C630.441 279.33 534.211 172.64 389.301 129.9C244.391 87.1601 105.651 124.55 96.4305 155.82Z" fill="#EFCB6C"/>
<path d="M621.21 310.64C621.691 309.103 621.963 307.509 622.02 305.9C622.061 304.287 621.95 302.673 621.69 301.08C621.163 297.888 620.319 294.755 619.17 291.73C616.807 285.719 613.885 279.944 610.44 274.48C603.512 263.606 595.631 253.369 586.89 243.89C569.384 224.956 549.982 207.867 528.99 192.89C518.57 185.33 507.814 178.247 496.72 171.64C485.627 165.033 474.31 158.867 462.77 153.14C416.373 130.224 366.376 115.472 314.97 109.53C302.15 108.05 289.297 107.083 276.41 106.63C269.97 106.39 263.52 106.31 257.08 106.35C250.64 106.39 244.2 106.63 237.77 106.96C212.019 108.142 186.456 111.955 161.48 118.34C148.993 121.564 136.815 125.887 125.09 131.26C119.234 133.984 113.646 137.252 108.4 141.02C105.792 142.933 103.383 145.104 101.21 147.5C100.133 148.704 99.163 149.999 98.3102 151.37C97.4917 152.754 96.8596 154.24 96.4302 155.79C97.6003 152.834 99.4341 150.185 101.79 148.05C104.087 145.884 106.597 143.954 109.28 142.29C114.672 138.954 120.363 136.128 126.28 133.85C138.097 129.29 150.276 125.734 162.69 123.22C175.085 120.587 187.614 118.624 200.22 117.34C206.52 116.7 212.82 116.13 219.14 115.73C225.46 115.33 231.78 115.06 238.14 114.93C244.5 114.8 250.8 114.78 257.14 114.93C263.48 115.08 269.79 115.23 276.14 115.59C288.767 116.257 301.354 117.44 313.9 119.14C364.115 125.671 412.986 140.082 458.71 161.84C470.057 167.247 481.227 173.09 492.22 179.37C497.72 182.49 503.12 185.79 508.51 189.11C513.9 192.43 519.2 195.87 524.44 199.42C529.68 202.97 534.86 206.62 539.94 210.42C545.02 214.22 550.02 218.08 554.94 222.04C564.827 229.966 574.284 238.415 583.27 247.35C592.331 256.204 600.63 265.805 608.08 276.05C611.797 281.168 615.027 286.622 617.73 292.34C619.083 295.192 620.142 298.174 620.89 301.24C621.713 304.308 621.822 307.523 621.21 310.64Z" fill="#221F1F"/>
<path d="M96.4299 155.82C95.9598 157.231 95.7365 158.713 95.7699 160.2C95.8727 161.7 96.2101 163.174 96.7699 164.57C98.0631 167.3 99.8536 169.765 102.05 171.84C106.38 176.02 111.48 179.18 116.63 182.13C121.78 185.08 127.19 187.56 132.63 189.92C138.07 192.28 143.55 194.48 149.06 196.58C171.2 204.83 193.72 211.78 216.27 218.45L233.19 223.45L250.19 228.29L284.04 237.95C306.64 244.34 329.22 250.7 351.69 257.43C374.2 263.99 396.63 270.88 419.07 277.79L452.76 288.08L469.63 293.22L486.54 298.22C509.11 304.86 531.79 311.22 554.86 316.33C560.63 317.56 566.44 318.69 572.28 319.65C578.12 320.61 583.99 321.4 589.93 321.78C595.87 322.16 601.86 322.21 607.76 321.05C610.73 320.499 613.572 319.4 616.14 317.81C617.38 316.951 618.477 315.901 619.39 314.7C620.218 313.479 620.833 312.126 621.21 310.7C620.712 312.071 619.981 313.346 619.05 314.47C618.088 315.536 616.964 316.444 615.72 317.16C613.156 318.461 610.372 319.275 607.51 319.56C601.738 320.079 595.925 319.888 590.2 318.99C578.667 317.229 567.259 314.724 556.05 311.49C544.76 308.43 533.56 305.02 522.39 301.49C511.22 297.96 500.05 294.36 488.91 290.67L472.2 285.11L455.47 279.61L421.97 268.61C399.59 261.41 377.123 254.433 354.57 247.68C331.97 241.12 309.303 234.786 286.57 228.68L252.48 219.68L218.39 210.82C207.03 207.87 195.71 204.82 184.39 201.74C173.07 198.66 161.82 195.43 150.68 191.88C139.51 188.502 128.568 184.413 117.92 179.64C112.628 177.278 107.645 174.279 103.08 170.71C100.83 168.92 98.9341 166.726 97.49 164.24C96.8284 162.964 96.3759 161.589 96.1499 160.17C95.9922 158.714 96.087 157.243 96.4299 155.82Z" fill="#221F1F"/>
<path d="M524.471 231.73C524.471 231.73 550.201 124.44 527.471 81.8498C527.471 81.8498 472.661 24.2798 422.161 9.37976C371.661 -5.52024 293.61 12.8597 293.61 12.8597C293.61 12.8597 220.311 102.3 216.271 140.86C216.271 140.86 303.97 203.92 362.38 221.16C420.79 238.4 524.471 231.73 524.471 231.73Z" fill="#EFCB6C"/>
<path d="M216.29 140.81C217.29 131.28 222.53 118.63 229.85 105C229.85 105 324 158.78 376.24 174.19C428.48 189.6 531.65 194.03 531.65 194.03C528.26 215.91 524.47 231.73 524.47 231.73C524.47 231.73 420.8 238.34 362.4 221.11C304 203.88 216.29 140.81 216.29 140.81Z" fill="#A873AC"/>
<path d="M293.62 12.8599C285.18 22.1899 277.11 31.8599 269.23 41.6599C261.35 51.4599 253.74 61.5399 246.51 71.8899C242.877 77.0499 239.337 82.2866 235.89 87.5999C232.47 92.9299 229.22 98.3799 226.09 103.94C222.926 109.527 220.062 115.278 217.51 121.17C216.84 122.64 216.27 124.17 215.68 125.7C215.09 127.23 214.59 128.81 214.08 130.39C213.57 131.97 213.19 133.62 212.77 135.25C212.556 136.08 212.389 136.921 212.27 137.77L211.85 140.35L211.45 142.81L213.68 144.44C219.32 148.56 224.96 152.51 230.68 156.44C233.53 158.44 236.38 160.36 239.25 162.28C242.12 164.2 244.99 166.14 247.9 168.01C253.69 171.8 259.55 175.48 265.41 179.15L274.3 184.53C277.25 186.34 280.3 188.04 283.25 189.8C295.25 196.74 307.44 203.38 320.03 209.35C332.62 215.32 345.42 220.95 359.03 224.88C359.88 225.14 360.7 225.45 361.56 225.65L364.13 226.29L369.27 227.55C372.68 228.48 376.14 229.03 379.58 229.69L384.74 230.69C386.46 231 388.19 231.2 389.92 231.43L395.1 232.12C396.83 232.35 398.55 232.61 400.29 232.75L410.66 233.75C414.12 234.06 417.58 234.23 421.04 234.48C422.77 234.59 424.5 234.73 426.23 234.81L431.42 235.01C434.88 235.11 438.33 235.3 441.79 235.32L452.16 235.46H462.53C465.98 235.46 469.43 235.3 472.88 235.22C476.33 235.14 479.78 235.01 483.23 234.86L488.4 234.65L493.57 234.36C497.01 234.16 500.45 233.94 503.89 233.68C510.77 233.213 517.637 232.59 524.49 231.81C496.93 231.81 469.43 231.02 442.09 229.09C428.44 227.96 414.8 226.79 401.32 224.75C387.84 222.71 374.53 220.14 361.77 216.07C358.6 214.96 355.42 213.91 352.26 212.75L342.89 208.92C341.31 208.32 339.78 207.58 338.23 206.92L333.6 204.82C332.06 204.11 330.5 203.43 328.97 202.7L324.4 200.43L319.83 198.17C318.3 197.43 316.77 196.67 315.27 195.86L306.27 191.1C303.27 189.49 300.27 187.79 297.27 186.1L292.79 183.62L288.32 180.95C276.47 174.15 264.78 167.01 253.2 159.7C241.62 152.39 230.08 144.92 218.9 137.16L220.73 141.25C221.31 135.73 223.17 129.94 225.29 124.25C227.501 118.546 230.014 112.965 232.82 107.53C235.62 102.01 238.63 96.5299 241.74 91.1799C244.85 85.8299 248.04 80.4199 251.35 75.1199C258.017 64.5332 264.884 54.0565 271.95 43.6899C279.017 33.3232 286.24 23.0465 293.62 12.8599Z" fill="#221F1F"/>
<path d="M524.471 231.73C525.411 228.73 526.251 225.63 527.071 222.56C527.891 219.49 528.681 216.4 529.421 213.31C530.921 207.13 532.301 200.92 533.521 194.67C536.021 182.177 537.937 169.563 539.271 156.83C539.937 150.47 540.384 144.077 540.611 137.65C540.811 131.22 540.891 124.77 540.521 118.28C540.193 111.739 539.404 105.23 538.161 98.8C536.924 92.1279 534.76 85.6618 531.731 79.59L531.451 79.05L530.971 78.54C527.131 74.47 523.281 70.71 519.311 66.93C515.341 63.15 511.311 59.49 507.221 55.93C498.991 48.77 490.501 41.88 481.631 35.47C477.181 32.28 472.691 29.13 468.051 26.19C463.411 23.25 458.701 20.41 453.841 17.78C444.1 12.3658 433.782 8.06214 423.081 4.94999C412.335 2.16024 401.316 0.563913 390.221 0.189981C384.731 -0.060019 379.221 -0.0399849 373.801 0.100015C368.381 0.240015 362.901 0.630015 357.481 1.10002C346.631 2.00002 335.881 3.57997 325.221 5.48997C314.561 7.39997 304.001 9.82997 293.621 12.87C314.875 9.54725 336.317 7.57 357.821 6.94999C363.161 6.84999 368.501 6.83 373.821 7.02C379.141 7.21 384.461 7.40997 389.721 7.92997C400.171 8.75992 410.508 10.6599 420.571 13.6C425.516 15.1817 430.367 17.0447 435.101 19.18C439.871 21.32 444.501 23.79 449.101 26.34C458.282 31.5913 467.154 37.3675 475.671 43.64C484.217 49.9267 492.534 56.5533 500.621 63.52C504.621 67 508.621 70.52 512.561 74.14C516.501 77.76 520.361 81.47 524.021 85.14L523.261 84.09C525.998 89.3352 528.016 94.9256 529.261 100.71C530.593 106.723 531.535 112.816 532.081 118.95C533.14 131.408 533.344 143.924 532.691 156.41C532.461 162.69 532.031 168.98 531.501 175.26C530.971 181.54 530.411 187.84 529.671 194.12C528.211 206.63 526.541 219.2 524.471 231.73Z" fill="#221F1F"/>
<path d="M531.65 194.03C505.27 190.16 478.91 186.81 452.65 183.03C446.08 182.13 439.54 181.11 432.99 180.16C426.44 179.21 419.92 178.16 413.44 176.97C410.19 176.41 406.94 175.87 403.72 175.22L398.88 174.29L396.46 173.83L394.08 173.29C387.726 172.008 381.441 170.402 375.25 168.48C369.12 166.59 362.99 164.25 356.89 161.85L347.75 158.17L338.64 154.29C326.52 149.06 314.44 143.63 302.38 138.12C278.25 127.12 254.19 115.82 229.83 104.98C252.17 119.56 275.28 132.83 298.83 145.32L307.72 149.95L316.66 154.45C319.627 155.957 322.627 157.423 325.66 158.85C328.66 160.28 331.66 161.76 334.72 163.14C346.911 168.924 359.44 173.963 372.24 178.23C385.4 182.3 398.69 184.52 411.94 186.51C425.19 188.5 438.47 189.88 451.77 190.98C465.07 192.08 478.36 192.98 491.68 193.45C505 193.92 518.31 194.3 531.65 194.03Z" fill="#221F1F"/>
<path d="M468.521 260.55C468.521 260.55 463.68 225.69 429.93 219.68" stroke="#231F20" stroke-width="5.89" stroke-miterlimit="10" stroke-linecap="round"/>
<path d="M220.24 228.95C220.24 228.95 243.24 202.31 274.83 215.58" stroke="#231F20" stroke-width="5.89" stroke-miterlimit="10" stroke-linecap="round"/>
<path d="M241.196 604.549C218.662 597.9 201.219 589.718 202.235 586.275C203.251 582.832 222.341 585.431 244.875 592.08C267.409 598.729 284.852 606.911 283.836 610.354C282.82 613.797 263.73 611.198 241.196 604.549Z" fill="#F7A33F"/>
<path d="M212.261 702.631C189.728 695.982 172.284 687.801 173.3 684.358C174.316 680.915 193.407 683.514 215.94 690.163C238.474 696.812 255.918 704.993 254.902 708.436C253.886 711.879 234.795 709.28 212.261 702.631Z" fill="#F7A33F"/>
<path d="M225.712 657.013C194.539 647.815 170.091 637.567 171.107 634.124C172.123 630.68 198.218 635.346 229.391 644.544C260.564 653.743 285.011 663.991 283.995 667.434C282.979 670.877 256.885 666.211 225.712 657.013Z" fill="#F7A33F"/>
<path d="M453.21 398.33C453.21 398.33 429.48 402.19 432.59 383.79" stroke="#231F20" stroke-width="5.89" stroke-miterlimit="10" stroke-linecap="round"/>
<path d="M182.96 318.6C182.96 318.6 200.8 334.73 208.17 317.6" stroke="#231F20" stroke-width="5.89" stroke-miterlimit="10" stroke-linecap="round"/>
<path d="M269.82 365C269.82 365 256.34 413.29 295.76 424.92C335.18 436.55 351.37 390.52 351.37 390.52L302.7 401.41L269.82 365Z" fill="#231F20"/>
<path d="M273.19 407.58C277.474 404.873 282.29 403.119 287.311 402.437C292.332 401.754 297.442 402.159 302.293 403.625C307.144 405.09 311.623 407.581 315.427 410.929C319.231 414.277 322.271 418.404 324.34 423.03C316.65 426.81 307.19 428.29 295.77 424.92C284.35 421.55 277.34 415.07 273.19 407.58Z" fill="#F16C6C"/>
<path d="M284.471 740.95C283.017 739.854 281.347 739.08 279.571 738.68C277.788 738.265 275.96 738.084 274.131 738.14C270.461 738.252 266.85 739.095 263.511 740.62C260.076 742.118 257.079 744.465 254.801 747.44C253.668 748.951 252.842 750.671 252.371 752.5C251.91 754.284 251.91 756.156 252.371 757.94C253.037 754.693 254.705 751.738 257.141 749.49C259.499 747.315 262.202 745.547 265.141 744.26C268.114 742.911 271.23 741.905 274.431 741.26C277.726 740.51 281.135 740.405 284.471 740.95Z" fill="#231F20"/>
<path d="M252.41 757.95C252.32 762.2 264.93 792.3 256.28 813.79C247.63 835.28 229.48 859.54 224.81 876.66C220.68 891.78 224.56 921.66 261.6 932.56C298.64 943.46 315.6 925.56 319.6 918.29C323.6 911.02 323.41 904.5 315.25 895.49C307.09 886.48 295.45 877.02 303.25 858.88C311.05 840.74 315.25 830.55 308.56 802.14C301.87 773.73 294.56 745.72 284.56 740.96C274.56 736.2 251.96 743.83 252.41 757.95Z" fill="#49BEA2"/>
<path d="M252.411 757.95C252.473 759.146 252.64 760.334 252.911 761.5L253.68 765.01C254.2 767.34 254.681 769.67 255.161 772.01C256.125 776.649 256.82 781.34 257.24 786.06L257.4 787.82L257.48 789.58C257.48 790.75 257.631 791.92 257.59 793.09V796.58L257.32 800.05C256.883 804.582 255.753 809.02 253.971 813.21C249.961 821.753 245.443 830.048 240.44 838.05C237.97 842.11 235.5 846.21 233.08 850.36C230.66 854.51 228.26 858.73 226.08 863.13C223.75 867.636 221.884 872.367 220.51 877.25C219.337 882.376 219.039 887.664 219.63 892.89C220.195 898.114 221.589 903.215 223.76 908C225.973 912.785 228.952 917.176 232.58 921C236.189 924.78 240.329 928.014 244.87 930.6C249.307 933.131 254 935.182 258.87 936.72C260.08 937.15 261.29 937.45 262.51 937.72L266.15 938.66C267.36 939.01 268.62 939.18 269.86 939.42L273.601 940.08C274.861 940.26 276.141 940.34 277.411 940.47C278.681 940.63 279.96 940.721 281.24 940.74H285.101C285.748 940.758 286.396 940.731 287.04 940.66L288.99 940.51C299.32 939.71 309.88 935.71 317.76 928.17C319.777 926.244 321.553 924.082 323.05 921.73C323.43 921.09 323.83 920.44 324.12 919.83C324.41 919.22 324.74 918.58 325.02 917.91C325.616 916.534 326.078 915.104 326.4 913.64C327.079 910.526 326.952 907.291 326.031 904.24C325.165 901.462 323.832 898.851 322.09 896.52C320.539 894.435 318.845 892.46 317.02 890.61C315.35 888.86 313.731 887.19 312.221 885.51C310.771 883.905 309.434 882.2 308.221 880.41C307.135 878.737 306.268 876.932 305.64 875.04C304.564 871.217 304.633 867.163 305.84 863.38L306.84 860.38L308.18 857.04C309.08 854.8 309.96 852.53 310.79 850.22C312.54 845.505 313.8 840.623 314.55 835.65C315.236 830.654 315.303 825.592 314.75 820.58C314.201 815.703 313.357 810.864 312.221 806.09C311.071 801.34 309.84 796.76 308.57 792.09C305.95 782.88 303.27 773.65 299.86 764.64C298.185 760.117 296.211 755.711 293.95 751.45C292.795 749.318 291.456 747.291 289.95 745.39C288.507 743.439 286.609 741.87 284.42 740.82C286.427 742.081 288.112 743.793 289.34 745.82C290.605 747.811 291.699 749.905 292.61 752.08C294.455 756.44 296.012 760.916 297.27 765.48C299.87 774.6 301.96 783.88 303.88 793.21C304.88 797.86 305.88 802.57 306.7 807.21C307.527 811.782 308.071 816.401 308.33 821.04C308.585 825.551 308.323 830.078 307.55 834.53C306.695 838.987 305.382 843.343 303.63 847.53C302.76 849.67 301.83 851.82 300.87 853.98L299.411 857.23C298.921 858.46 298.41 859.69 297.96 860.94C297.51 862.19 297.18 863.53 296.96 864.94C296.692 866.309 296.525 867.696 296.46 869.09C296.46 869.79 296.4 870.5 296.4 871.21L296.58 873.34C296.636 874.051 296.746 874.756 296.911 875.45C297.071 876.14 297.17 876.86 297.39 877.53C300.63 888.73 309.91 895.28 314.46 901.93C315.552 903.453 316.393 905.141 316.95 906.93C317.408 908.475 317.453 910.112 317.08 911.68C316.87 912.544 316.583 913.387 316.221 914.2C315.839 915.073 315.391 915.915 314.88 916.72C313.778 918.375 312.486 919.895 311.031 921.25C305.031 926.93 296.721 930.25 288.031 930.82L286.4 930.96C285.86 931.027 285.315 931.053 284.77 931.04H281.471C280.364 931.026 279.259 930.952 278.161 930.82C277.061 930.71 275.951 930.65 274.851 930.5L271.54 929.92C270.43 929.71 269.32 929.58 268.23 929.26L264.94 928.42C263.84 928.14 262.74 927.89 261.68 927.53C257.432 926.253 253.332 924.526 249.45 922.38C245.664 920.268 242.182 917.65 239.101 914.6C237.609 913.064 236.228 911.423 234.971 909.69C233.738 907.943 232.642 906.104 231.69 904.19C229.813 900.306 228.567 896.147 228 891.87C227.427 887.598 227.552 883.261 228.37 879.03C229.431 874.675 230.926 870.437 232.83 866.38C236.64 857.92 241.43 849.65 245.89 841.19C250.35 832.73 254.89 824.13 258.29 815C259.939 810.261 260.847 805.296 260.98 800.28V796.59L260.82 792.95C260.82 791.73 260.56 790.53 260.43 789.32L260.19 787.51L259.88 785.72C259.046 780.972 257.934 776.277 256.55 771.66C255.884 769.373 255.157 767.093 254.37 764.82L253.26 761.41C252.873 760.285 252.588 759.127 252.411 757.95Z" fill="#231F20"/>
<path d="M321.13 914.84C320.703 916.036 320.181 917.197 319.57 918.31C317.498 921.821 314.744 924.882 311.47 927.31C308.52 922.6 305.1 915.24 308.35 909.98C311.6 904.72 317.35 910.15 321.13 914.84Z" fill="#131429"/>
<path d="M291.11 935.51C290.78 927.67 291.11 914.08 297.02 912.61C303.23 911.07 306.76 923.14 308.19 929.61C302.968 932.74 297.151 934.749 291.11 935.51Z" fill="#131429"/>
<path d="M279.94 917.03C286.44 916.49 288.34 928.38 288.94 935.76C282.781 936.3 276.576 935.963 270.51 934.76C271.9 926.69 274.68 917.46 279.94 917.03Z" fill="#131429"/>
<path d="M261.601 932.58C258.689 931.721 255.834 930.683 253.051 929.47C254.781 924.73 257.751 919.67 262.641 918.72C269.641 917.36 268.431 928.18 267.261 934.05C265.431 933.63 263.551 933.16 261.601 932.58Z" fill="#131429"/>
<path d="M276.82 821.82C276.82 821.82 272.59 835.62 284.95 841.32C297.31 847.02 302.25 834.69 300.1 830.08C297.95 825.47 292 825.34 288.81 828.25" stroke="#1F705F" stroke-width="3" stroke-miterlimit="10" stroke-linecap="round"/>
<path d="M130.55 695.57C133.636 696.921 136.434 698.852 138.79 701.26C141.125 703.539 143.195 706.075 144.96 708.82C146.73 711.497 148.038 714.451 148.83 717.56C149.656 720.768 149.453 724.154 148.25 727.24C149.625 726.011 150.658 724.447 151.25 722.7C151.853 720.909 152.098 719.016 151.97 717.13C151.668 713.396 150.422 709.801 148.35 706.68C146.376 703.581 143.803 700.909 140.78 698.82C139.274 697.779 137.636 696.942 135.91 696.33C134.198 695.696 132.37 695.437 130.55 695.57Z" fill="#231F20"/>
<path d="M148.25 727.24C146.02 730.86 119.09 749.24 114.7 772.04C110.31 794.84 112.37 825.04 107 841.93C102.26 856.87 82.8004 879.83 45.7604 868.93C8.72038 858.03 4.20044 833.7 4.82043 825.47C5.44043 817.24 9.11043 811.83 20.8204 808.69C32.5304 805.55 47.4704 803.93 50.8204 784.47C54.1704 765.01 56.1404 754.19 77.1404 733.94C98.1404 713.69 119.53 694.15 130.53 695.59C141.53 697.03 156.31 715.61 148.25 727.24Z" fill="#49BEA2"/>
<path d="M148.25 727.24C147.453 728.125 146.576 728.935 145.63 729.66L142.82 731.95C140.96 733.44 139.11 734.95 137.27 736.51C133.604 739.636 130.124 742.975 126.85 746.51L125.61 747.85L124.43 749.24C123.66 750.18 122.84 751.08 122.14 752.08L119.96 755.08L117.96 758.2C115.358 762.484 113.429 767.141 112.24 772.01C110.18 781.56 109.24 791.2 108.44 800.74C107.64 810.28 107.12 819.81 105.72 828.99C105.124 833.417 104.082 837.773 102.61 841.99C101.001 845.991 98.7552 849.706 95.96 852.99C93.1603 856.272 89.8555 859.087 86.17 861.33C84.3331 862.427 82.414 863.38 80.43 864.18C78.4306 864.949 76.3787 865.574 74.29 866.05C70.0486 866.943 65.7052 867.253 61.3801 866.97C56.954 866.664 52.5728 865.889 48.31 864.66C47.23 864.39 46.16 864 45.09 863.66L41.8701 862.58C40.7801 862.25 39.7801 861.76 38.7401 861.33L35.64 860.02C34.64 859.55 33.64 859.02 32.64 858.49C31.6414 858.013 30.673 857.475 29.7401 856.88L26.96 855.11C26.4962 854.823 26.052 854.505 25.6301 854.16L24.34 853.16C17.43 847.94 12.2299 840.7 10.2599 832.66C9.77086 830.734 9.51248 828.757 9.49005 826.77C9.49297 825.818 9.57323 824.868 9.73004 823.93C9.86134 823.047 10.0791 822.18 10.3801 821.34C10.9158 819.822 11.8397 818.47 13.06 817.42C14.5009 816.224 16.1207 815.263 17.86 814.57C25.29 811.46 36.64 810.99 45.45 803.35C45.99 802.9 46.45 802.35 46.98 801.86C47.4973 801.367 47.9722 800.832 48.4 800.26L49.71 798.57C50.1 797.98 50.45 797.37 50.81 796.76C51.5169 795.558 52.132 794.305 52.65 793.01C53.17 791.73 53.51 790.43 53.93 789.13C54.35 787.83 54.46 786.53 54.72 785.23L55.2599 781.7C55.6199 779.37 56 777.06 56.44 774.78C57.2356 770.329 58.4889 765.973 60.18 761.78C61.9532 757.621 64.1907 753.676 66.85 750.02C69.5903 746.27 72.5557 742.69 75.73 739.3C78.92 735.89 82.32 732.49 85.66 729.11C92.34 722.32 99.13 715.66 106.27 709.41C109.805 706.258 113.543 703.342 117.46 700.68C119.407 699.347 121.465 698.182 123.61 697.2C125.742 696.159 128.087 695.628 130.46 695.65C128.051 695.35 125.606 695.635 123.33 696.48C121.042 697.269 118.824 698.249 116.7 699.41C112.485 701.763 108.433 704.395 104.57 707.29C96.82 713 89.57 719.29 82.36 725.62C78.7701 728.81 75.25 731.99 71.72 735.35C68.1677 738.741 64.8281 742.348 61.72 746.15C58.5375 750.057 55.8505 754.343 53.72 758.91C51.6485 763.494 50.0535 768.279 48.96 773.19C48.41 775.59 47.96 777.97 47.45 780.34L46.7599 783.87L46.0001 786.96C44.9634 790.793 42.8209 794.236 39.84 796.86C38.2882 798.107 36.5846 799.152 34.77 799.97C32.7831 800.813 30.7419 801.521 28.66 802.09C26.48 802.68 24.21 803.21 21.86 803.76C19.3223 804.329 16.8264 805.07 14.39 805.98C11.662 806.991 9.12584 808.459 6.88995 810.32C4.45973 812.383 2.5975 815.034 1.48004 818.02C0.953308 819.422 0.564758 820.872 0.320007 822.35C0.190002 823.06 0.0999756 823.76 0.0299683 824.45C-0.0400391 825.14 -0.0700378 825.89 -0.100037 826.63C-0.114609 829.421 0.204391 832.204 0.850037 834.92C3.37004 845.52 10.07 854.61 18.32 860.92L19.8701 862.11C20.373 862.516 20.9007 862.89 21.45 863.23L24.72 865.3C25.8082 865.973 26.9296 866.59 28.08 867.15C29.22 867.73 30.34 868.35 31.4901 868.89L34.9901 870.36C36.16 870.84 37.31 871.36 38.5099 871.74L42.09 872.93C43.28 873.33 44.46 873.73 45.7 874.03C50.6377 875.389 55.7064 876.217 60.82 876.5C66.0362 876.794 71.2674 876.329 76.35 875.12C78.9046 874.476 81.4081 873.643 83.84 872.63C86.2637 871.587 88.6039 870.36 90.84 868.96C95.265 866.121 99.208 862.593 102.52 858.51C105.849 854.442 108.465 849.84 110.26 844.9C111.769 840.053 112.774 835.063 113.26 830.01C113.8 825.12 114.09 820.29 114.26 815.48C114.43 810.67 114.63 805.9 114.76 801.14C114.894 791.706 115.602 782.288 116.88 772.94C117.652 768.454 119.109 764.113 121.2 760.07L122.86 757.01L124.72 754.01C125.32 753.01 126.07 752.1 126.72 751.13L127.72 749.69L128.81 748.3C131.727 744.564 134.856 740.998 138.18 737.62C139.84 735.92 141.507 734.23 143.18 732.55L145.72 730.02C146.653 729.179 147.501 728.248 148.25 727.24Z" fill="#231F20"/>
<path d="M5.39039 821.7C5.10229 822.933 4.91176 824.187 4.82045 825.45C4.64609 829.538 5.29567 833.619 6.73048 837.45C11.7305 835.1 18.6305 830.77 18.7305 824.6C18.8305 818.43 11.1204 819.81 5.39039 821.7Z" fill="#131429"/>
<path d="M19.3798 855.35C23.9198 848.95 31.0398 837.35 26.8498 832.91C22.4698 828.25 12.9497 836.47 8.26972 841.09C10.941 846.564 14.725 851.421 19.3798 855.35Z" fill="#131429"/>
<path d="M38.8199 845.89C33.6599 841.89 25.6098 850.89 21.1398 856.76C26.0162 860.542 31.4028 863.616 37.1398 865.89C40.3098 858.37 42.9799 849.11 38.8199 845.89Z" fill="#131429"/>
<path d="M45.7603 868.95C48.6728 869.799 51.6353 870.467 54.6304 870.95C55.7404 866.04 56.0003 860.18 52.4103 856.73C47.2403 851.73 42.4103 861.52 40.2003 867.09C41.9703 867.71 43.8203 868.33 45.7603 868.95Z" fill="#131429"/>
<path d="M93.0498 767.6C93.0498 767.6 89.1098 781.48 75.6398 779.55C62.1698 777.62 64.7098 764.6 69.0198 761.9C73.3298 759.2 78.3999 762.31 79.4899 766.49" stroke="#1F705F" stroke-width="3" stroke-miterlimit="10" stroke-linecap="round"/>
<path d="M259.64 632.52C259.64 632.52 267 626.61 254.33 620.21C241.66 613.81 230.48 609.04 230.48 609.04L227.16 624.62C227.16 624.62 250.82 637.71 259.64 632.52Z" fill="#131429"/>
<path d="M247.46 660.22C247.46 660.22 256.46 657.28 246.82 646.83C237.18 636.38 228.42 627.95 228.42 627.95L219.83 641.36C219.83 641.36 237.35 661.95 247.46 660.22Z" fill="#131429"/>
<path d="M212.33 670.75C212.33 670.75 221.47 673.1 219.01 659.12C216.55 645.14 213.66 633.33 213.66 633.33L199.2 640C199.2 640 202.88 666.77 212.33 670.75Z" fill="#131429"/>
<path d="M249.39 590.27C249.39 590.27 247.87 580.96 236.06 588.82C224.25 596.68 214.58 604.07 214.58 604.07L226.5 614.64C226.5 614.64 249.54 600.53 249.39 590.27Z" fill="#131429"/>
<path d="M234.721 642.76C234.721 642.76 254.811 617.26 233.831 592.62C212.851 567.98 177.011 537.46 164.431 533.82C151.851 530.18 135.771 536.46 131.491 541.54C127.211 546.62 113.601 555.4 132.201 580.74C150.801 606.08 178.381 642.74 194.301 649.67C210.221 656.6 227.381 651.35 234.721 642.76Z" fill="#49BEA2"/>
<path d="M194.3 649.67C201.724 653.72 210.335 655.037 218.63 653.39C222.877 652.61 226.944 651.058 230.63 648.81C231.551 648.22 232.436 647.575 233.28 646.88L234.53 645.81C234.94 645.42 235.32 645 235.72 644.59L236.31 643.96L236.84 643.26C237.16 642.81 237.46 642.37 237.76 641.92C238.35 641.03 238.89 640.12 239.42 639.2C241.46 635.464 243.012 631.481 244.04 627.35C245.03 623.19 245.321 618.895 244.9 614.64C244.68 612.525 244.272 610.433 243.68 608.39C243.059 606.372 242.267 604.412 241.31 602.53C239.403 598.836 236.892 595.486 233.88 592.62C238.54 599.36 241.61 607.01 241.79 614.85C241.88 622.708 239.853 630.446 235.92 637.25C235.45 638.11 234.92 638.96 234.44 639.78C234.18 640.19 233.91 640.59 233.64 640.98L233.26 641.51L232.81 641.99C231.534 643.365 230.109 644.592 228.56 645.65C225.315 647.782 221.745 649.373 217.99 650.36C210.189 652.394 201.969 652.155 194.3 649.67Z" fill="#231F20"/>
<path d="M233.82 592.62C227.046 583.884 219.743 575.571 211.95 567.73C204.16 559.842 195.955 552.375 187.37 545.36C183.042 541.794 178.5 538.494 173.77 535.48C172.55 534.74 171.37 533.97 170.03 533.32L168.03 532.32L165.85 531.47C162.971 530.525 159.97 530.002 156.94 529.92C153.986 529.848 151.032 530.096 148.13 530.66C145.24 531.193 142.408 532 139.67 533.07C136.829 534.125 134.139 535.551 131.67 537.31C130.999 537.818 130.364 538.372 129.77 538.97C129.06 539.69 128.77 540.05 128.34 540.51C127.41 541.51 126.41 542.51 125.42 543.61C123.314 545.958 121.702 548.706 120.68 551.69C120.56 552.08 120.42 552.46 120.31 552.84L120.08 554.03C119.897 554.815 119.787 555.615 119.75 556.42C119.75 557.21 119.65 558.01 119.67 558.8L119.88 561.14C119.955 561.906 120.092 562.665 120.29 563.41C120.47 564.15 120.61 564.91 120.82 565.63L121.56 567.75C121.784 568.456 122.051 569.147 122.36 569.82C123 571.14 123.58 572.5 124.28 573.82L126.48 577.55C129.71 582.36 133.06 586.62 136.4 591.04C139.74 595.46 143.14 599.78 146.61 604.04C153.52 612.67 160.68 621.11 168.32 629.14C172.17 633.14 176.11 637.03 180.32 640.63C184.53 644.23 189.04 647.63 194.2 649.69C191.784 648.384 189.52 646.815 187.45 645.01C185.36 643.25 183.36 641.37 181.45 639.41C177.62 635.51 173.98 631.41 170.45 627.18C166.92 622.95 163.51 618.69 160.18 614.33C156.85 609.97 153.51 605.61 150.26 601.18L140.56 587.86C137.36 583.41 134.03 578.86 131.23 574.5L129.3 571.07C128.68 569.93 128.2 568.74 127.64 567.58C127.376 567.003 127.152 566.408 126.97 565.8L126.36 564.01C126.19 563.42 126.09 562.82 125.95 562.22C125.795 561.633 125.691 561.034 125.64 560.43L125.49 558.65C125.49 558.06 125.55 557.49 125.57 556.91C125.588 556.335 125.672 555.765 125.82 555.21L125.98 554.37C126.06 554.1 126.16 553.84 126.26 553.57C127.056 551.347 128.29 549.306 129.89 547.57C130.69 546.62 131.64 545.67 132.61 544.63C133.376 543.689 134.237 542.831 135.18 542.07C137.205 540.622 139.406 539.439 141.73 538.55C146.505 536.648 151.591 535.651 156.73 535.61C159.213 535.615 161.682 535.979 164.06 536.69L165.74 537.29L167.47 538.13C168.63 538.65 169.78 539.36 170.93 540.01C172.08 540.66 173.21 541.4 174.35 542.13L176.05 543.22L177.72 544.37C179.98 545.87 182.17 547.49 184.38 549.09C188.754 552.356 193.05 555.736 197.27 559.23C201.53 562.68 205.67 566.23 209.8 569.9C218.127 577.133 226.134 584.706 233.82 592.62Z" fill="#231F20"/>
<path d="M462.151 711.36C462.151 711.36 470.821 707.62 460.311 698.07C449.801 688.52 440.311 680.96 440.311 680.96L432.961 695.09C432.961 695.09 452.241 714 462.151 711.36Z" fill="#131429"/>
<path d="M428.68 705.03C428.68 705.03 448.97 679.68 428.17 654.89C407.37 630.1 371.77 599.29 359.17 595.55C346.57 591.81 330.5 597.97 326.17 603.02C321.84 608.07 308.17 616.74 326.59 642.23C345.01 667.72 372.29 704.61 388.16 711.63C404.03 718.65 421.27 713.56 428.68 705.03Z" fill="#49BEA2"/>
<path d="M388.211 711.63C395.603 715.737 404.203 717.121 412.511 715.54C416.752 714.785 420.819 713.26 424.511 711.04C425.439 710.463 426.331 709.828 427.181 709.14L428.441 708.07C428.851 707.69 429.241 707.27 429.641 706.87L430.241 706.24L430.771 705.54C431.091 705.1 431.401 704.66 431.691 704.22C432.291 703.33 432.841 702.42 433.381 701.5C435.452 697.782 437.035 693.813 438.091 689.69C439.122 685.541 439.46 681.25 439.091 676.99C438.885 674.872 438.49 672.777 437.911 670.73C437.309 668.707 436.533 666.739 435.591 664.85C433.716 661.127 431.228 657.746 428.231 654.85C432.841 661.61 435.851 669.29 435.971 677.14C436.012 684.993 433.939 692.713 429.971 699.49C429.491 700.34 428.971 701.19 428.461 702C428.201 702.413 427.931 702.813 427.651 703.2L427.271 703.73L426.811 704.21C425.527 705.572 424.094 706.786 422.541 707.83C419.282 709.937 415.702 711.501 411.941 712.46C404.114 714.455 395.879 714.167 388.211 711.63Z" fill="#231F20"/>
<path d="M428.17 654.89C421.472 646.096 414.234 637.727 406.5 629.83C398.767 621.884 390.619 614.354 382.09 607.27C377.789 603.667 373.274 600.327 368.57 597.27C367.35 596.52 366.17 595.74 364.84 595.08L362.89 594.08L360.71 593.21C357.839 592.237 354.84 591.691 351.81 591.59C348.858 591.501 345.905 591.725 343 592.26C340.11 592.774 337.274 593.557 334.53 594.6C331.691 595.64 329.002 597.049 326.53 598.79C325.855 599.29 325.217 599.838 324.62 600.43C323.9 601.15 323.62 601.5 323.17 601.96C322.24 602.96 321.23 603.9 320.23 605.04C318.112 607.359 316.48 610.079 315.43 613.04C315.31 613.43 315.17 613.81 315.05 614.19L314.81 615.38C314.624 616.162 314.507 616.958 314.46 617.76C314.46 618.55 314.35 619.36 314.36 620.14L314.56 622.48C314.628 623.246 314.759 624.005 314.95 624.75C315.12 625.5 315.26 626.26 315.46 626.98L316.19 629.1C316.41 629.812 316.674 630.51 316.98 631.19C317.6 632.51 318.17 633.88 318.86 635.19L321.02 638.95C324.21 643.78 327.53 648.07 330.84 652.51C334.15 656.95 337.52 661.3 340.96 665.63C347.79 674.31 354.89 682.81 362.46 690.9C366.28 694.9 370.2 698.9 374.4 702.48C378.6 706.06 383.06 709.56 388.21 711.64C385.805 710.313 383.554 708.723 381.5 706.9C379.42 705.13 377.44 703.24 375.5 701.27C371.7 697.33 368.09 693.2 364.63 688.95C361.17 684.7 357.76 680.4 354.46 676.02C351.16 671.64 347.86 667.25 344.65 662.8L335.05 649.4C331.88 644.93 328.58 640.4 325.82 635.97L323.91 632.53C323.3 631.38 322.83 630.19 322.28 629.02C322.023 628.441 321.803 627.846 321.62 627.24L321.02 625.45C320.86 624.85 320.77 624.25 320.63 623.65C320.477 623.063 320.377 622.464 320.33 621.86L320.19 620.08C320.19 619.49 320.26 618.92 320.29 618.34C320.315 617.765 320.402 617.195 320.55 616.64L320.72 615.81C320.8 615.54 320.91 615.27 321 615C321.813 612.771 323.068 610.73 324.69 609C325.49 608 326.45 607.11 327.42 606.08C328.196 605.149 329.064 604.298 330.01 603.54C332.046 602.107 334.257 600.941 336.59 600.07C341.371 598.204 346.458 597.248 351.59 597.25C354.072 597.27 356.538 597.651 358.91 598.38L360.59 599L362.31 599.85C363.47 600.38 364.61 601.09 365.76 601.76C366.91 602.43 368.03 603.17 369.16 603.9L370.85 605L372.52 606.17C374.76 607.68 376.94 609.32 379.14 610.94C383.48 614.273 387.75 617.683 391.95 621.17C396.19 624.65 400.3 628.29 404.4 631.94C412.627 639.28 420.55 646.93 428.17 654.89Z" fill="#231F20"/>
<path d="M433.29 718.24C433.29 718.24 441.42 714.82 430.57 700.67C419.72 686.52 411.23 691.18 409.71 692.54C408.19 693.9 407.33 699.17 414.71 707.99C422.09 716.81 430.88 719.53 433.29 718.24Z" fill="#131429"/>
<path d="M417.13 666.65C417.13 666.65 426.8 656.55 436.55 664.53C451.14 676.53 431.46 696.63 423.14 691.34C414.82 686.05 423.91 677.99 423.91 677.99C423.91 677.99 411.66 675.95 417.13 666.65Z" fill="#131429"/>
<path d="M415.22 725.83C415.22 725.83 423.13 724.71 417.3 710.69C411.47 696.67 402.94 698.69 401.3 699.55C399.66 700.41 397.57 704.55 401.74 713.42C405.91 722.29 412.82 726.4 415.22 725.83Z" fill="#131429"/>
<path d="M375.931 314.78C373.498 319.684 372.261 325.095 372.321 330.57C372.366 336.229 373.639 341.81 376.051 346.93C378.526 352.155 382.081 356.797 386.481 360.55C387.611 361.45 388.751 362.36 389.941 363.19C391.131 364.02 392.391 364.76 393.651 365.47C394.911 366.18 396.271 366.75 397.601 367.34L401.711 368.8L405.961 369.8C407.391 370.02 408.841 370.2 410.291 370.37C411.741 370.54 413.191 370.45 414.651 370.48C416.111 370.51 417.541 370.27 418.981 370.13C424.711 369.363 430.215 367.394 435.131 364.35C439.927 361.356 444.021 357.362 447.131 352.64C450.148 348.075 452.049 342.865 452.681 337.43C450.369 342.034 447.33 346.234 443.681 349.87C440.199 353.317 436.137 356.123 431.681 358.16C423.065 362.144 413.294 362.859 404.19 360.171C395.086 357.483 387.271 351.575 382.201 343.55C379.579 339.425 377.701 334.873 376.651 330.1C375.588 325.065 375.345 319.892 375.931 314.78Z" fill="#231F20"/>
<path d="M212.38 266.54C209.952 271.443 208.715 276.849 208.77 282.32C208.815 287.98 210.091 293.563 212.51 298.68C214.976 303.909 218.528 308.552 222.93 312.3C224.07 313.2 225.2 314.11 226.39 314.95C227.58 315.79 228.84 316.51 230.11 317.23C231.38 317.95 232.73 318.5 234.11 319.09L238.22 320.56L242.46 321.56C243.9 321.79 245.35 321.96 246.79 322.14C248.23 322.32 249.7 322.21 251.15 322.24C252.6 322.27 254.05 322.03 255.49 321.89C261.218 321.127 266.719 319.157 271.63 316.11C276.43 313.121 280.524 309.126 283.63 304.4C286.652 299.839 288.55 294.626 289.17 289.19C286.862 293.796 283.823 297.997 280.17 301.63C276.689 305.078 272.626 307.884 268.17 309.92C259.554 313.911 249.779 314.63 240.672 311.941C231.564 309.253 223.747 303.341 218.68 295.31C216.059 291.185 214.18 286.633 213.13 281.86C212.056 276.827 211.803 271.654 212.38 266.54Z" fill="#231F20"/>
</g>
<defs>
<clipPath id="clip0_4342_832">
<rect width="622.03" height="963.75" fill="white" transform="matrix(-1 0 0 1 622.03 0)"/>
</clipPath>
</defs>
</svg>
