<svg width="753" height="675" viewBox="0 0 753 675" fill="none" xmlns="http://www.w3.org/2000/svg">
<g clip-path="url(#clip0_3131_344)">
<path d="M171.8 661.76C154.35 658.94 140.96 655.81 130.87 652.19C103.87 642.51 98.1798 626.33 98.1798 614.45C98.1798 607.3 100.52 593.79 116.18 583.71C121.752 580.281 127.736 577.573 133.99 575.65C130.791 568.391 128.566 560.742 127.37 552.9L127.19 551.58C127.06 550.67 126.88 549.43 126.75 547.96C126.75 547.87 126.47 544.51 126.47 544.51C126.47 543.95 126.4 543.38 126.38 542.81L126.31 539.66C126.31 538.05 126.31 536.76 126.36 535.83V535.2C126.36 534.96 126.36 534.72 126.36 534.49C126.599 528.939 127.234 523.411 128.26 517.95C129.979 508.517 132.941 499.354 137.07 490.7C131.79 491.13 126.49 491.36 121.35 491.36C105.452 491.462 89.6317 489.129 74.4401 484.44H74.3302C62.3146 480.698 51.0184 474.95 40.9201 467.44C35.5685 463.357 30.6553 458.729 26.2599 453.63C22.2111 449.039 18.5329 444.133 15.2599 438.96C8.05982 427.659 3.22922 415.014 1.06022 401.79C-1.13416 387.872 -0.0799513 373.634 4.1403 360.19C6.27499 353.445 9.19472 346.974 12.84 340.91C16.6492 334.536 21.2827 328.692 26.6203 323.53L26.7199 323.44C33.275 317.013 41.1124 312.042 49.7199 308.85C52.7239 307.76 55.8247 306.956 58.9801 306.45C60.6792 306.17 62.3913 305.976 64.11 305.87C64.62 305.87 65.11 305.82 65.63 305.81H67.8302C68.4902 305.81 69.1202 305.86 69.7502 305.9C72.3708 306.03 74.98 306.334 77.5602 306.81C78.4102 306.97 79.2603 307.15 80.1003 307.35C83.9585 305.076 88.1341 303.391 92.4899 302.35C95.2254 301.702 98.013 301.297 100.82 301.14C101.61 301.09 102.48 301.07 103.34 301.07C105.491 301.071 107.64 301.221 109.77 301.52H110.01C116.012 302.432 121.773 304.526 126.96 307.68L127.25 307.85C134.277 312.308 140.156 318.358 144.41 325.51C144.452 325.57 144.489 325.634 144.52 325.7C145.762 327.742 146.9 329.844 147.93 332C150.756 331.945 153.559 331.477 156.25 330.61C158.559 329.845 160.781 328.84 162.88 327.61C165.867 322.064 169.126 316.624 172.66 311.29C169.318 306.404 166.279 301.318 163.56 296.06C156.787 282.783 152.108 268.538 149.69 253.83C149.69 253.62 149.62 253.4 149.59 253.19C149.59 253.19 148.85 248.04 148.81 247.78C148.62 246.48 148.33 244.55 148.19 242.29L147.86 238.24V237.8C147.86 237.55 147.86 237.31 147.8 237.06C147.69 235.75 147.52 233.8 147.53 231.47C147.53 230.63 147.53 229.79 147.53 228.96C147.53 226.96 147.46 224.62 147.53 222.19C147.53 221.91 147.53 221.63 147.53 221.35L147.91 213.13L148.05 204.34C148.05 203.81 148.05 203.28 148.12 202.75L148.75 193.48C148.75 193.05 148.82 192.63 148.87 192.2C149.11 190 149.4 187.8 149.69 185.6C149.82 184.6 149.96 183.6 150.09 182.54C150.14 182.11 150.21 181.67 150.28 181.24C150.48 180.1 150.68 178.95 150.89 177.8C145.472 170.8 140.913 163.176 137.31 155.09C131.434 141.726 128.273 127.327 128.01 112.73C127.878 105.434 128.461 98.1427 129.75 90.9602C131.072 83.7079 133.126 76.6082 135.88 69.7702C141.373 56.1635 149.471 43.7611 159.72 33.2602C170.066 22.7492 182.389 14.3887 195.98 8.66023C209.607 2.98271 224.218 0.0402226 238.98 0.000236511H239.1C253.86 0.0280649 268.47 2.95692 282.1 8.62024C290.985 12.3712 299.353 17.2442 307 23.1202C330.025 17.8043 353.59 15.1834 377.22 15.3102C380.08 15.3102 383 15.3102 385.9 15.4102H386.31C408.136 16.1405 429.829 19.106 451.05 24.2602C459.071 17.8848 467.922 12.63 477.36 8.64024C490.988 2.96839 505.599 0.0293915 520.36 -0.00976562H520.48C535.225 0.0286117 549.818 2.96424 563.43 8.63023C577.044 14.3623 589.388 22.7333 599.75 33.2602C609.99 43.7527 618.082 56.1448 623.57 69.7402C626.329 76.5741 628.386 83.6705 629.71 90.9202C630.994 98.0798 631.577 105.348 631.45 112.62C631.194 127.272 628.022 141.727 622.12 155.14C618.543 163.166 614.021 170.736 608.65 177.69C609.12 180.17 609.54 182.63 609.9 185.09C609.9 185.37 609.98 185.65 610.01 185.92C610.14 186.92 610.26 187.92 610.39 188.97C610.66 191.16 610.92 193.34 611.16 195.53C611.16 195.96 611.24 196.4 611.27 196.84C611.33 197.84 611.41 198.84 611.48 199.9C611.63 202.12 611.78 204.34 611.89 206.56C611.89 206.99 611.89 207.41 611.89 207.84L611.95 217.13C611.95 217.657 611.95 218.187 611.95 218.72L611.54 227.51L611.41 235.74C611.41 236.02 611.41 236.31 611.41 236.59C611.3 239.01 611.12 241.29 610.96 243.3C610.9 244.14 610.83 244.98 610.77 245.83C610.64 248.16 610.35 250.1 610.15 251.41C610.15 251.65 610.07 251.9 610.04 252.14L609.41 256.59C609.12 258.85 608.72 260.76 608.41 262.06L607.3 267.38C607.3 267.59 607.21 267.79 607.16 268C603.849 282.519 598.303 296.435 590.72 309.25C588.507 312.95 586.12 316.564 583.56 320.09C584.61 321.84 585.62 323.61 586.61 325.39C589.705 327.63 593.12 329.39 596.74 330.61C599.415 331.472 602.201 331.937 605.01 331.99C606.07 329.77 607.21 327.68 608.42 325.68L608.53 325.5C612.787 318.351 618.666 312.301 625.69 307.84L625.98 307.67C631.183 304.511 636.961 302.417 642.98 301.51H643.21C645.344 301.211 647.496 301.061 649.65 301.06C650.51 301.06 651.37 301.06 652.22 301.13C655.034 301.292 657.829 301.704 660.57 302.36C664.901 303.411 669.052 305.096 672.89 307.36C673.72 307.16 674.57 306.98 675.41 306.82C677.971 306.348 680.56 306.044 683.16 305.91L685.16 305.82H687.36C687.86 305.82 688.36 305.82 688.87 305.88C690.592 305.986 692.308 306.179 694.01 306.46C697.161 306.972 700.258 307.776 703.26 308.86C711.869 312.049 719.707 317.021 726.26 323.45L726.36 323.54C731.682 328.686 736.305 334.51 740.11 340.86C743.77 346.941 746.7 353.433 748.84 360.2C753.059 373.637 754.116 387.867 751.93 401.78C749.758 415.01 744.924 427.662 737.72 438.97C734.453 444.15 730.774 449.06 726.72 453.65C722.297 458.754 717.353 463.382 711.97 467.46C701.881 474.945 690.598 480.669 678.6 484.39H678.49C663.299 489.079 647.478 491.413 631.58 491.31C625.72 491.31 619.66 491.02 613.58 490.44H613.53C617.714 499.18 620.714 508.438 622.45 517.97C623.464 523.409 624.092 528.913 624.33 534.44C624.33 534.67 624.33 535.78 624.33 535.78C624.33 536.71 624.41 538 624.33 539.53L624.26 542.76C624.26 543.33 624.26 543.9 624.17 544.46C624.17 544.46 623.9 547.82 623.89 547.91C623.76 549.38 623.58 550.62 623.45 551.53L623.27 552.85C621.563 564.057 617.76 574.842 612.06 584.64C625.45 593.88 628.67 605.44 628.67 614.4C628.67 623.72 624.8 640.87 598.84 651.07C589.96 654.56 578.22 657.6 562.97 660.35C551.37 662.45 464.45 673.77 375.28 674.19C282.09 674.67 186.36 664.11 171.8 661.76Z" fill="white"/>
<path d="M363.46 643.57C493.407 643.57 598.75 630.537 598.75 614.46C598.75 598.383 493.407 585.35 363.46 585.35C233.513 585.35 128.17 598.383 128.17 614.46C128.17 630.537 233.513 643.57 363.46 643.57Z" fill="#D0D2D3"/>
<path d="M375.35 612.98C489.248 612.98 581.58 529.862 581.58 427.33C581.58 324.799 489.248 241.68 375.35 241.68C261.452 241.68 169.12 324.799 169.12 427.33C169.12 529.862 261.452 612.98 375.35 612.98Z" fill="white"/>
<path d="M375.36 379.26C472.24 379.26 553.5 418.66 575.63 471.77C579.599 457.286 581.617 442.338 581.63 427.32C581.63 324.79 489.3 241.67 375.4 241.67C261.5 241.67 169.17 324.79 169.17 427.32C169.178 442.338 171.196 457.287 175.17 471.77C197.22 418.66 278.48 379.26 375.36 379.26Z" fill="#454445"/>
<path d="M169.13 427.32L169.04 417.68L169.51 408.03C169.86 404.83 170.18 401.62 170.59 398.41C171 395.2 171.59 392.03 172.22 388.86C174.82 376.133 178.87 363.745 184.29 351.94C189.764 340.097 196.489 328.873 204.35 318.46C212.246 308.04 221.182 298.45 231.02 289.84C250.792 272.576 273.617 259.163 298.32 250.29C323.035 241.463 349.076 236.922 375.32 236.86C401.563 236.92 427.604 241.458 452.32 250.28C464.656 254.762 476.564 260.344 487.9 266.96L492.13 269.45C493.54 270.28 494.88 271.22 496.26 272.1L500.37 274.78C501.73 275.68 503.04 276.67 504.37 277.63L508.37 280.52C509.68 281.52 510.93 282.52 512.21 283.52L516.04 286.59C517.29 287.64 518.5 288.75 519.73 289.82C529.559 298.44 538.488 308.036 546.38 318.46C554.237 328.865 560.961 340.078 566.44 351.91C571.851 363.718 575.897 376.105 578.5 388.83C579.11 392.01 579.58 395.21 580.13 398.39C580.68 401.57 580.85 404.81 581.21 408.01L581.69 417.66L581.59 427.3C580.598 401.73 573.985 376.694 562.22 353.97C556.429 342.717 549.464 332.107 541.44 322.32C533.479 312.554 524.59 303.582 514.9 295.53C513.68 294.53 512.5 293.53 511.26 292.53L507.49 289.68C506.23 288.74 505 287.76 503.71 286.86L499.81 284.19C498.51 283.32 497.24 282.37 495.91 281.53L491.91 279.03C490.57 278.2 489.26 277.32 487.91 276.55L483.81 274.23C472.833 268.082 461.327 262.932 449.43 258.84C425.633 250.586 400.617 246.397 375.43 246.45C350.243 246.399 325.228 250.584 301.43 258.83C289.533 262.922 278.027 268.072 267.05 274.22L262.94 276.54C261.58 277.32 260.27 278.19 258.94 279.02L254.94 281.53C253.62 282.37 252.35 283.3 251.04 284.18L247.15 286.85C245.86 287.75 244.63 288.73 243.37 289.67L239.6 292.52C238.36 293.52 237.17 294.52 235.96 295.52C226.254 303.579 217.349 312.558 209.37 322.33C201.352 332.119 194.39 342.728 188.6 353.98C176.791 376.695 170.142 401.738 169.13 427.32Z" fill="#231F20"/>
<path d="M239.04 189.37C281.698 189.37 316.28 154.789 316.28 112.13C316.28 69.4717 281.698 34.8901 239.04 34.8901C196.381 34.8901 161.8 69.4717 161.8 112.13C161.8 154.789 196.381 189.37 239.04 189.37Z" fill="#454445"/>
<path d="M239.05 189.37C233.964 189.626 228.866 189.371 223.83 188.61C218.762 187.813 213.784 186.517 208.97 184.74C199.231 181.112 190.314 175.577 182.74 168.46C175.116 161.223 168.999 152.55 164.74 142.94C160.466 133.231 158.178 122.766 158.01 112.16C157.919 106.841 158.344 101.526 159.28 96.2898C160.245 91.0421 161.739 85.9058 163.74 80.9598C167.745 71.007 173.668 61.9385 181.17 54.2698C188.723 46.5966 197.724 40.4988 207.65 36.3298C217.603 32.1803 228.278 30.0393 239.06 30.0298C249.842 30.038 260.516 32.1755 270.47 36.3198C280.373 40.4917 289.355 46.5781 296.9 54.2298C304.403 61.9007 310.328 70.9685 314.34 80.9198C316.328 85.8732 317.819 91.0117 318.79 96.2598C319.727 101.496 320.152 106.811 320.06 112.13C319.89 122.738 317.605 133.205 313.34 142.92C309.075 152.526 302.958 161.198 295.34 168.44C287.766 175.564 278.85 181.108 269.11 184.75C264.294 186.527 259.313 187.82 254.24 188.61C249.208 189.371 244.113 189.626 239.03 189.37C249.06 188.84 258.899 186.421 268.03 182.24C277.022 178.101 285.128 172.26 291.9 165.04C305.383 150.758 312.74 131.767 312.4 112.13C312.3 107.33 311.734 102.551 310.71 97.8598C309.715 93.1807 308.269 88.6093 306.391 84.2098C302.613 75.4294 297.154 67.4732 290.32 60.7898C276.623 47.3346 258.191 39.7938 238.99 39.7898C229.487 39.7703 220.073 41.6152 211.28 45.2198C202.47 48.8321 194.442 54.116 187.641 60.7798C180.805 67.4651 175.345 75.4251 171.57 84.2098C167.809 93.0491 165.773 102.526 165.57 112.13C165.23 131.77 172.587 150.764 186.07 165.05C192.844 172.273 200.953 178.114 209.95 182.25C219.113 186.44 228.987 188.856 239.05 189.37Z" fill="#231F20"/>
<path d="M520.36 189.37C563.019 189.37 597.6 154.789 597.6 112.13C597.6 69.4717 563.019 34.8901 520.36 34.8901C477.702 34.8901 443.12 69.4717 443.12 112.13C443.12 154.789 477.702 189.37 520.36 189.37Z" fill="#454445"/>
<path d="M520.36 189.37C530.406 188.85 540.263 186.434 549.41 182.25C558.407 178.114 566.517 172.273 573.29 165.05C586.773 150.765 594.131 131.77 593.79 112.13C593.592 102.526 591.555 93.048 587.79 84.21C584.023 75.4238 578.566 67.4631 571.73 60.78C564.928 54.1162 556.901 48.8324 548.09 45.22C539.297 41.6154 529.883 39.7706 520.38 39.79C501.18 39.794 482.748 47.3348 469.05 60.79C462.214 67.4709 456.754 75.4278 452.98 84.21C451.102 88.6095 449.655 93.181 448.66 97.86C447.631 102.55 447.065 107.33 446.97 112.13C446.63 131.767 453.988 150.758 467.47 165.04C474.238 172.265 482.345 178.106 491.34 182.24C500.471 186.423 510.311 188.842 520.34 189.37C515.258 189.626 510.162 189.371 505.13 188.61C500.057 187.822 495.076 186.529 490.26 184.75C480.528 181.114 471.618 175.577 464.05 168.46C456.432 161.218 450.315 152.547 446.05 142.94C441.782 133.226 439.494 122.759 439.32 112.15C439.227 106.831 439.656 101.515 440.6 96.28C441.568 91.0309 443.058 85.8918 445.05 80.94C449.059 70.9867 454.984 61.9182 462.49 54.25C470.047 46.5821 479.047 40.4851 488.97 36.31C498.923 32.1647 509.598 30.0271 520.38 30.02C531.163 30.0295 541.838 32.1706 551.79 36.32C561.716 40.4914 570.716 46.5889 578.27 54.26C585.773 61.9287 591.695 70.9973 595.7 80.95C597.703 85.8948 599.194 91.0316 600.15 96.28C601.095 101.515 601.523 106.831 601.43 112.15C601.262 122.756 598.974 133.222 594.7 142.93C590.438 152.539 584.321 161.211 576.7 168.45C569.128 175.576 560.211 181.121 550.47 184.76C545.656 186.536 540.679 187.832 535.61 188.63C530.564 189.387 525.455 189.635 520.36 189.37Z" fill="#231F20"/>
<path d="M580.84 418.51C582.069 445.267 577.728 471.988 568.09 496.98C563.145 509.517 556.83 521.47 549.26 532.62C541.647 543.796 532.805 554.083 522.9 563.29C517.947 567.892 512.757 572.231 507.35 576.29C501.92 580.342 496.283 584.107 490.46 587.57C478.807 594.496 466.514 600.283 453.75 604.85C428.136 613.784 401.177 618.249 374.05 618.05C346.892 617.966 319.968 613.025 294.55 603.46C281.896 598.587 269.743 592.502 258.26 585.29C252.528 581.686 246.987 577.788 241.66 573.61C236.349 569.412 231.263 564.94 226.42 560.21C216.717 550.796 208.063 540.359 200.61 529.08C193.206 517.832 187.027 505.823 182.18 493.26C172.687 468.219 168.403 441.504 169.59 414.75C170.73 441.22 176.17 467.42 186.81 491.35C197.305 515.284 212.659 536.775 231.9 554.46C236.684 558.842 241.69 562.974 246.9 566.84C252.09 570.72 257.46 574.36 263 577.7C274.094 584.403 285.817 590.006 298 594.43C322.387 603.362 348.159 607.918 374.13 607.89C400.115 608.202 425.964 604.108 450.58 595.78C462.836 591.621 474.664 586.293 485.9 579.87C491.52 576.66 496.97 573.15 502.25 569.4C507.542 565.668 512.636 561.663 517.51 557.4C527.269 548.82 536.079 539.219 543.79 528.76C551.554 518.278 558.147 506.978 563.45 495.06C568.824 483.084 572.955 470.589 575.78 457.77C577.22 451.35 578.33 444.85 579.16 438.3C579.99 431.75 580.54 425.13 580.84 418.51Z" fill="#231F20"/>
<path d="M260.641 376.13L202.561 331.57C192.491 351.69 160.691 371.2 122.501 360.48C119.731 349.24 113.99 334.48 103.03 335C90.1604 335.61 88.4305 353.42 90.4605 368.1C87.7605 370.4 78.1705 375.24 75.9205 369.61C73.7605 364.18 76.1204 364.34 80.0504 362.18C85.5104 359.18 85.2905 341.39 68.1705 340.62C48.0605 338.62 11.8606 388.3 55.2706 433.95C98.6806 479.6 233.101 457.38 260.641 376.13Z" fill="#454445"/>
<path d="M200.6 333.82C198.691 337.037 196.506 340.081 194.07 342.92C191.64 345.799 188.999 348.493 186.17 350.98C180.478 356.072 173.962 360.161 166.9 363.07C163.326 364.538 159.619 365.66 155.83 366.42C152.01 367.155 148.13 367.536 144.24 367.56C136.448 367.545 128.711 366.248 121.34 363.72L119.66 363.15L119.16 361.3C117.63 355.57 115.64 349.88 112.66 345.3C111.366 343.158 109.597 341.341 107.49 339.99C106.602 339.47 105.62 339.13 104.6 338.99C104.091 338.94 103.579 338.94 103.07 338.99C102.547 339.037 102.028 339.127 101.52 339.26C100.544 339.557 99.6365 340.046 98.8517 340.699C98.0669 341.351 97.42 342.154 96.9499 343.06C95.7266 345.331 94.9241 347.804 94.5802 350.36C93.8169 356.054 93.8975 361.83 94.82 367.5L95.1598 369.9L93.32 371.45C92.2535 372.331 91.1052 373.108 89.8903 373.77C88.7661 374.406 87.5962 374.957 86.3903 375.42C85.0998 375.932 83.7591 376.307 82.3903 376.54C80.6452 376.865 78.8485 376.783 77.1403 376.3C76.0391 375.963 75.0183 375.405 74.1403 374.66C73.2583 373.903 72.54 372.974 72.0299 371.93C71.9299 371.71 71.7899 371.42 71.7199 371.24L71.5402 370.78C71.4202 370.47 71.3001 370.15 71.1901 369.78C70.9211 368.981 70.7335 368.157 70.63 367.32C70.4526 365.96 70.6495 364.577 71.1999 363.32C71.535 362.6 71.9882 361.941 72.5402 361.37C72.9571 360.948 73.4158 360.569 73.9098 360.24C74.536 359.833 75.1875 359.465 75.86 359.14L77.2502 358.45L77.84 358.13L77.7599 358.18C77.7599 358.18 77.76 358.13 77.88 357.99C78.1336 357.537 78.3064 357.043 78.3903 356.53C78.6582 355.122 78.5965 353.67 78.2101 352.29C77.8471 350.91 77.15 349.641 76.1803 348.595C75.2107 347.548 73.9981 346.757 72.6501 346.29C71.9071 346.012 71.1407 345.801 70.36 345.66C69.4833 345.514 68.5983 345.424 67.7101 345.39H67.11H66.6003C66.2378 345.41 65.877 345.453 65.5202 345.52C64.7388 345.648 63.9718 345.853 63.2301 346.13C59.8517 347.494 56.7886 349.536 54.2301 352.13C48.6663 357.724 44.5478 364.588 42.2301 372.13C39.7966 379.703 39.1532 387.737 40.3503 395.6C41.6158 403.544 44.4983 411.145 48.82 417.93C50.9849 421.398 53.4226 424.689 56.11 427.77C58.7033 430.857 61.5977 433.677 64.7502 436.19C71.25 441.148 78.5431 444.969 86.32 447.49C94.2506 450.114 102.453 451.832 110.77 452.61C119.169 453.482 127.626 453.629 136.05 453.05C144.522 452.499 152.939 451.305 161.23 449.48C165.37 448.55 169.5 447.53 173.59 446.34C177.68 445.15 181.71 443.79 185.7 442.34C193.664 439.334 201.376 435.695 208.76 431.46C216.198 427.263 223.229 422.382 229.76 416.88C243.059 405.849 253.622 391.888 260.62 376.09C255.03 392.55 244.81 407.4 232.04 419.43C225.602 425.43 218.618 430.816 211.18 435.52C207.48 437.91 203.63 440.06 199.72 442.09C195.81 444.12 191.83 446 187.72 447.7C179.585 451.133 171.202 453.941 162.64 456.1C154.056 458.249 145.32 459.747 136.51 460.58C118.9 462.25 100.76 461.26 83.4499 455.79C74.6608 453.09 66.3911 448.925 58.9899 443.47C55.3011 440.649 51.9165 437.452 48.8903 433.93C45.856 430.488 43.1003 426.81 40.6501 422.93C35.5888 415.071 32.1859 406.261 30.6501 397.04C29.1762 387.705 29.8846 378.155 32.7199 369.14C34.1403 364.643 36.0874 360.33 38.5202 356.29C40.9576 352.193 43.9268 348.437 47.3503 345.12C50.9107 341.566 55.18 338.803 59.88 337.01C61.1772 336.546 62.517 336.211 63.88 336.01C64.5916 335.892 65.3094 335.815 66.0299 335.78H67.1403C67.5003 335.78 67.8303 335.78 68.1403 335.83C69.415 335.89 70.6842 336.033 71.9401 336.26C73.3039 336.51 74.6426 336.881 75.9401 337.37C78.6648 338.405 81.1099 340.062 83.0802 342.21C85.0431 344.388 86.4554 347.004 87.1999 349.84C87.9594 352.661 88.045 355.62 87.4499 358.48C87.1059 360.095 86.4761 361.636 85.59 363.03C85.0408 363.88 84.3665 364.641 83.59 365.29C83.1471 365.665 82.672 365.999 82.1701 366.29L81.3302 366.72L79.7902 367.46C79.3402 367.67 78.9803 367.86 78.8903 367.92C78.8003 367.98 78.8902 367.92 79.0002 367.8C79.1757 367.616 79.3177 367.403 79.4201 367.17C79.552 366.918 79.6143 366.634 79.6003 366.35C79.6325 366.588 79.6857 366.822 79.7599 367.05C79.7599 367.22 79.8799 367.41 79.9499 367.61L80.0602 367.91C80.0602 367.98 80.0602 367.91 80.0602 367.96C80.0602 368.01 79.6901 367.62 79.7101 367.7C80.1025 367.783 80.5077 367.783 80.9001 367.7C81.6652 367.582 82.4161 367.384 83.1403 367.11C83.9635 366.804 84.7652 366.443 85.5402 366.03C86.2391 365.667 86.9078 365.249 87.5402 364.78L86.0402 368.72C85.0976 362.153 85.1444 355.483 86.1798 348.93C86.7492 345.357 87.9733 341.919 89.7902 338.79C90.8433 337.054 92.1979 335.52 93.7902 334.26C95.461 332.947 97.3947 332.009 99.4601 331.51C100.446 331.279 101.449 331.131 102.46 331.07C103.496 331.017 104.534 331.064 105.56 331.21C107.608 331.528 109.572 332.249 111.34 333.33C114.441 335.368 117.018 338.109 118.86 341.33C120.571 344.201 121.981 347.24 123.07 350.4C124.143 353.443 125.041 356.544 125.76 359.69L123.58 357.27C126.899 358.55 130.3 359.606 133.76 360.43C137.215 361.245 140.735 361.757 144.28 361.96C151.421 362.333 158.571 361.404 165.38 359.22C172.284 356.922 178.781 353.547 184.63 349.22C187.599 347.044 190.418 344.673 193.07 342.12C195.792 339.553 198.31 336.778 200.6 333.82Z" fill="#231F20"/>
<path d="M492.32 376.13L550.4 331.57C560.48 351.69 592.27 371.2 630.46 360.48C633.23 349.24 638.97 334.48 649.94 335C662.8 335.61 664.53 353.42 662.5 368.1C665.2 370.4 674.8 375.24 677.04 369.61C679.21 364.18 676.84 364.34 672.92 362.18C667.45 359.18 667.68 341.39 684.79 340.62C704.91 338.62 741.1 388.3 697.7 433.95C654.3 479.6 519.9 457.38 492.32 376.13Z" fill="#454445"/>
<path d="M552.36 333.82C554.627 336.755 557.114 339.513 559.8 342.07C562.454 344.62 565.274 346.992 568.24 349.17C574.094 353.497 580.594 356.872 587.5 359.17C594.31 361.354 601.459 362.283 608.6 361.91C612.145 361.705 615.665 361.193 619.12 360.38C622.577 359.554 625.975 358.499 629.29 357.22L627.12 359.64C627.831 356.493 628.726 353.391 629.8 350.35C630.889 347.19 632.3 344.151 634.01 341.28C635.853 338.059 638.429 335.318 641.53 333.28C643.299 332.2 645.263 331.48 647.31 331.16C648.337 331.014 649.375 330.967 650.41 331.02C651.421 331.081 652.425 331.228 653.41 331.46C655.477 331.957 657.411 332.895 659.08 334.21C660.673 335.47 662.027 337.004 663.08 338.74C664.897 341.869 666.121 345.307 666.69 348.88C667.726 355.432 667.773 362.103 666.83 368.67L665.33 364.73C665.962 365.201 666.631 365.619 667.33 365.98C668.101 366.395 668.9 366.756 669.72 367.06C670.445 367.333 671.196 367.53 671.96 367.65C672.353 367.733 672.758 367.733 673.15 367.65C673.15 367.57 672.75 367.93 672.8 367.91C672.85 367.89 672.8 367.91 672.8 367.86L672.91 367.56C672.97 367.36 673.04 367.17 673.09 367C673.17 366.773 673.224 366.538 673.25 366.3C673.239 366.585 673.304 366.869 673.44 367.12C673.54 367.352 673.679 367.565 673.85 367.75C673.96 367.87 674.01 367.89 673.96 367.87C673.91 367.85 673.51 367.62 673.06 367.41L671.53 366.67L670.68 366.24C670.178 365.949 669.703 365.614 669.26 365.24C668.487 364.589 667.813 363.827 667.26 362.98C666.377 361.586 665.75 360.045 665.41 358.43C664.81 355.571 664.896 352.61 665.66 349.79C666.401 346.955 667.811 344.338 669.771 342.16C671.741 340.012 674.186 338.355 676.91 337.32C678.208 336.831 679.547 336.46 680.91 336.21C682.166 335.984 683.436 335.84 684.71 335.78C685.06 335.78 685.39 335.73 685.71 335.73H686.82C687.541 335.765 688.259 335.842 688.97 335.96C690.333 336.163 691.673 336.497 692.97 336.96C697.669 338.755 701.938 341.518 705.5 345.07C708.918 348.39 711.884 352.145 714.32 356.24C716.753 360.28 718.7 364.593 720.12 369.09C722.961 378.104 723.669 387.655 722.19 396.99C720.659 406.212 717.256 415.023 712.19 422.88C709.74 426.759 706.985 430.438 703.95 433.88C700.93 437.404 697.548 440.602 693.86 443.42C686.456 448.875 678.183 453.04 669.39 455.74C652.09 461.21 633.95 462.2 616.33 460.53C607.52 459.697 598.785 458.199 590.2 456.05C581.642 453.893 573.261 451.084 565.13 447.65C561.06 445.95 557.07 444.06 553.13 442.04C549.19 440.02 545.37 437.86 541.67 435.47C534.268 430.785 527.315 425.425 520.9 419.46C508.12 407.46 497.901 392.58 492.311 376.12C499.315 391.914 509.877 405.874 523.17 416.91C529.702 422.412 536.732 427.293 544.17 431.49C551.583 435.71 559.321 439.332 567.31 442.32C571.31 443.81 575.31 445.17 579.42 446.32C583.53 447.47 587.64 448.53 591.79 449.46C600.078 451.286 608.492 452.479 616.96 453.03C625.384 453.609 633.842 453.462 642.24 452.59C650.558 451.814 658.76 450.096 666.69 447.47C674.469 444.947 681.766 441.126 688.271 436.17C691.417 433.654 694.308 430.834 696.9 427.75C699.588 424.669 702.026 421.378 704.19 417.91C708.512 411.125 711.395 403.524 712.66 395.58C713.857 387.716 713.214 379.683 710.78 372.11C708.463 364.568 704.344 357.704 698.78 352.11C696.224 349.513 693.16 347.471 689.78 346.11C689.035 345.834 688.265 345.63 687.48 345.5C687.124 345.433 686.763 345.389 686.4 345.37H685.89H685.3C684.409 345.404 683.521 345.494 682.64 345.64C681.86 345.781 681.093 345.992 680.35 346.27C679.003 346.738 677.792 347.53 676.822 348.577C675.853 349.623 675.155 350.891 674.79 352.27C674.404 353.65 674.342 355.102 674.61 356.51C674.699 357.021 674.871 357.515 675.12 357.97L675.25 358.16C675.25 358.16 675.17 358.1 675.16 358.11L675.76 358.43L677.14 359.12C677.83 359.443 678.498 359.811 679.14 360.22C679.636 360.546 680.096 360.925 680.51 361.35C681.066 361.92 681.522 362.579 681.86 363.3C682.408 364.557 682.602 365.94 682.42 367.3C682.317 368.137 682.129 368.961 681.86 369.76C681.75 370.11 681.63 370.43 681.51 370.76L681.33 371.22C681.26 371.4 681.131 371.69 681.021 371.91C680.514 372.954 679.8 373.883 678.92 374.64C678.04 375.382 677.02 375.94 675.92 376.28C674.216 376.763 672.422 376.845 670.68 376.52C669.312 376.285 667.972 375.91 666.68 375.4C665.475 374.935 664.306 374.384 663.18 373.75C661.967 373.086 660.819 372.309 659.75 371.43L657.91 369.88L658.25 367.48C659.173 361.809 659.254 356.034 658.49 350.34C658.151 347.783 657.348 345.309 656.12 343.04C655.652 342.133 655.006 341.329 654.221 340.677C653.436 340.024 652.528 339.535 651.55 339.24C651.042 339.105 650.524 339.015 650 338.97C649.492 338.92 648.979 338.92 648.47 338.97C647.451 339.11 646.469 339.45 645.58 339.97C643.474 341.319 641.708 343.136 640.42 345.28C637.42 349.9 635.42 355.59 633.91 361.28L633.42 363.13L631.73 363.7C624.36 366.229 616.623 367.527 608.83 367.54C604.943 367.517 601.067 367.135 597.25 366.4C593.458 365.641 589.748 364.519 586.17 363.05C579.106 360.139 572.587 356.051 566.89 350.96C564.063 348.47 561.423 345.776 558.99 342.9C556.524 340.069 554.306 337.031 552.36 333.82Z" fill="#231F20"/>
<path d="M581.5 226.6C578.3 329.83 486.81 363.8 375.36 360.34C263.91 356.88 174.7 317.34 177.9 214.08C181.1 110.82 267.07 46.64 384.98 50.3C502.89 53.96 584.7 123.36 581.5 226.6Z" fill="white"/>
<path d="M177.9 214.08L178.05 204.8L178.68 195.53C179.03 192.45 179.461 189.38 179.851 186.29C180.241 183.2 180.97 180.18 181.53 177.11C184.15 164.873 188.254 153.002 193.75 141.76C199.329 130.477 206.267 119.918 214.41 110.32C222.611 100.719 231.904 92.1073 242.101 84.6598C243.341 83.6598 244.67 82.8298 245.97 81.9298L249.88 79.2598C252.51 77.5298 255.24 75.9398 257.88 74.2598C260.52 72.5798 263.42 71.2598 266.19 69.7198C268.96 68.1798 271.87 66.9798 274.71 65.6098C286.208 60.433 298.132 56.264 310.351 53.1498C334.781 46.9398 360.04 44.7898 385.09 45.3798C410.09 46.3798 435.2 50.0598 459.2 57.7498C471.203 61.6158 482.847 66.5176 494 72.3998C496.76 73.9498 499.52 75.4598 502.25 77.0398C504.98 78.6198 507.641 80.3298 510.25 82.0398C512.86 83.7498 515.45 85.6198 517.97 87.5198L521.71 90.4298C522.94 91.4298 524.22 92.3298 525.39 93.4298C535.089 101.499 543.815 110.671 551.39 120.76C558.965 130.852 565.276 141.834 570.18 153.46C574.969 165.025 578.327 177.131 580.18 189.51C580.55 192.6 580.96 195.69 581.29 198.77C581.62 201.85 581.73 204.97 581.88 208.07L581.94 217.36L581.51 226.63L581.18 217.38L580.41 208.17C580.04 205.12 579.6 202.08 579.2 199.04C578.8 196 578.07 193.04 577.51 190.04C574.98 178.092 571.046 166.484 565.79 155.46C555.296 133.541 539.841 114.368 520.65 99.4598C519.51 98.4598 518.25 97.6398 517.04 96.7398L513.39 94.0698C510.92 92.3398 508.39 90.7398 505.84 89.0698C503.29 87.3998 500.671 85.9598 498.081 84.4098C495.491 82.8598 492.761 81.5598 490.081 80.1198C479.276 74.683 468.02 70.1929 456.44 66.6998C433.18 59.7122 409.09 55.8681 384.811 55.2698C360.54 54.3767 336.258 56.7309 312.61 62.2698C300.843 65.0018 289.333 68.7457 278.21 73.4598C275.47 74.7298 272.71 75.9498 269.98 77.2398C267.25 78.5298 264.61 79.9898 261.98 81.4098C259.35 82.8298 256.72 84.4098 254.15 85.9298L250.331 88.3698C249.071 89.1998 247.761 89.9598 246.561 90.8698C226.483 104.565 209.868 122.744 198.03 143.97C192.108 154.652 187.463 165.993 184.19 177.76C183.45 180.76 182.66 183.69 181.95 186.68C181.24 189.67 180.74 192.68 180.18 195.68L178.84 204.82L177.9 214.08Z" fill="#231F20"/>
<path d="M581.5 226.6L581.37 235.3C581.24 238.2 580.96 241.09 580.76 244C580.69 245.45 580.4 246.88 580.22 248.33L579.6 252.66C579.43 254.11 579.08 255.53 578.79 256.96L577.89 261.26C575.264 272.757 570.879 283.781 564.89 293.94C558.761 304.122 551.121 313.314 542.23 321.2C533.314 329.061 523.414 335.73 512.78 341.04L508.78 342.98C507.45 343.62 506.13 344.31 504.78 344.86L500.7 346.61C499.34 347.2 497.99 347.79 496.59 348.29C491.08 350.43 485.47 352.29 479.81 353.95C468.496 357.217 456.982 359.745 445.34 361.52C433.738 363.235 422.056 364.36 410.34 364.89C398.64 365.45 386.93 365.53 375.25 365.23C363.57 364.93 351.88 364.01 340.25 362.72C328.58 361.47 316.982 359.624 305.5 357.19C293.989 354.697 282.652 351.46 271.56 347.5C266.02 345.5 260.56 343.28 255.16 340.81C253.81 340.23 252.49 339.55 251.16 338.89L247.16 336.89C245.82 336.25 244.55 335.48 243.26 334.76L239.39 332.57C229.105 326.608 219.635 319.337 211.22 310.94C202.828 302.523 195.773 292.871 190.3 282.32C184.932 271.81 181.222 260.534 179.3 248.89L178.68 244.55C178.48 243.1 178.21 241.67 178.14 240.21L177.79 235.85C177.69 234.39 177.5 232.95 177.52 231.49C177.52 228.57 177.4 225.67 177.45 222.77L177.86 214.08L178.22 222.75C178.4 225.64 178.74 228.51 179 231.37C179.09 232.81 179.38 234.23 179.57 235.66L180.22 239.92C180.4 241.35 180.76 242.74 181.05 244.15L181.96 248.35C182.22 249.76 182.7 251.12 183.07 252.5L184.24 256.63C185.08 259.35 186.12 262.02 187.05 264.71C188.16 267.33 189.28 269.95 190.47 272.52L192.47 276.3C193.14 277.55 193.74 278.84 194.52 280.03C200.211 289.808 207.345 298.671 215.68 306.32C223.992 313.978 233.231 320.566 243.18 325.93L246.94 327.93C248.2 328.58 249.43 329.28 250.73 329.84L254.58 331.63C255.86 332.23 257.14 332.84 258.46 333.35L262.39 334.98C263.69 335.54 265 336.08 266.34 336.55L270.34 338.03C271.67 338.53 273 339.03 274.34 339.44C285.14 343.053 296.163 345.962 307.34 348.15C329.816 352.49 352.615 354.945 375.5 355.49C398.376 356.369 421.286 355.336 443.99 352.4C466.57 349.4 488.86 343.76 509.41 334.24C519.672 329.501 529.302 323.502 538.08 316.38C546.869 309.253 554.538 300.846 560.83 291.44C561.68 290.3 562.35 289.05 563.1 287.85L565.3 284.2C566.64 281.7 567.91 279.15 569.19 276.61C570.28 273.98 571.48 271.38 572.5 268.71L573.92 264.71C574.37 263.35 574.92 262.02 575.28 260.63L576.45 256.49C576.83 255.11 577.28 253.74 577.54 252.33L578.45 248.11C578.73 246.7 579.1 245.3 579.29 243.87C579.72 241.03 580.24 238.18 580.6 235.31L581.5 226.6Z" fill="#231F20"/>
<path d="M378.78 268.22L389.52 263.15C390.632 262.628 391.536 261.746 392.084 260.647C392.633 259.547 392.795 258.295 392.544 257.093C392.293 255.89 391.644 254.807 390.702 254.019C389.759 253.231 388.579 252.784 387.351 252.75L366.21 252.09C364.986 252.055 363.785 252.433 362.8 253.162C361.816 253.891 361.105 254.93 360.781 256.112C360.457 257.293 360.539 258.549 361.014 259.679C361.489 260.808 362.329 261.745 363.4 262.34L373.81 268.07C374.568 268.487 375.413 268.719 376.277 268.745C377.141 268.771 377.999 268.591 378.78 268.22Z" fill="#06080A"/>
<path d="M345.23 284.87C345.23 284.87 346.51 297.76 360.23 298.19C373.11 298.59 376.51 262.03 376.51 262.03" stroke="#231F20" stroke-width="5.77" stroke-linecap="round" stroke-linejoin="round"/>
<path d="M406.26 286.76C406.26 286.76 404.18 299.55 390.49 299.13C377.61 298.73 376.49 262.03 376.49 262.03" stroke="#231F20" stroke-width="5.77" stroke-linecap="round" stroke-linejoin="round"/>
<path d="M396.46 196.26C393.401 182.127 395.999 167.359 403.699 155.12C414.909 137.73 439.169 122.3 490.699 151.74C577.479 201.32 540.42 250.47 521.18 256.1C503.17 261.35 411.58 269.81 396.46 196.26Z" fill="#454445"/>
<path d="M356.52 196.2C359.445 182.632 357.161 168.461 350.12 156.5C339.31 138.57 315.12 121.5 262.27 151.74C175.48 201.32 212.54 250.47 231.79 256.1C249.8 261.35 341.43 269.81 356.52 196.2Z" fill="#454445"/>
<path d="M330.121 194.07C331.065 199.46 330.722 204.997 329.121 210.23C327.471 215.644 324.67 220.638 320.91 224.87C317.058 229.178 312.338 232.624 307.061 234.98C305.711 235.52 304.37 236.07 302.99 236.53C301.61 236.99 300.2 237.34 298.78 237.67C297.36 238 295.91 238.15 294.47 238.34L290.11 238.58L285.751 238.34C284.311 238.15 282.881 237.91 281.441 237.66C280.001 237.41 278.631 236.91 277.231 236.53C275.831 236.15 274.51 235.53 273.17 234.97C267.893 232.614 263.173 229.168 259.32 224.86C255.559 220.63 252.758 215.635 251.11 210.22C249.509 204.99 249.167 199.457 250.11 194.07C251.019 199.135 252.737 204.021 255.2 208.54C257.558 212.821 260.648 216.656 264.331 219.87C271.475 226.117 280.64 229.566 290.13 229.58C299.611 229.548 308.761 226.097 315.9 219.86C319.585 216.646 322.679 212.811 325.041 208.53C327.497 204.013 329.213 199.131 330.121 194.07Z" fill="#231F20"/>
<path d="M500.63 194.07C501.579 199.46 501.237 204.998 499.63 210.23C497.984 215.646 495.183 220.641 491.42 224.87C487.57 229.181 482.85 232.627 477.57 234.98C476.23 235.52 474.88 236.07 473.51 236.53C472.14 236.99 470.71 237.34 469.29 237.67C467.87 238 466.42 238.15 464.98 238.34L460.62 238.58L456.27 238.34C454.83 238.15 453.39 237.91 451.96 237.66C450.53 237.41 449.14 236.91 447.74 236.53C446.34 236.15 445.02 235.53 443.68 234.97C438.402 232.614 433.683 229.168 429.83 224.86C426.072 220.627 423.272 215.634 421.62 210.22C420.019 204.991 419.676 199.457 420.62 194.07C421.526 199.135 423.241 204.021 425.7 208.54C428.058 212.821 431.148 216.656 434.83 219.87C441.977 226.114 451.14 229.563 460.63 229.58C470.12 229.552 479.281 226.1 486.43 219.86C490.115 216.648 493.206 212.813 495.56 208.53C498.018 204.014 499.729 199.131 500.63 194.07Z" fill="#231F20"/>
<path opacity="0.55" d="M268.68 282.23C287.673 282.23 303.07 278.362 303.07 273.59C303.07 268.818 287.673 264.95 268.68 264.95C249.687 264.95 234.29 268.818 234.29 273.59C234.29 278.362 249.687 282.23 268.68 282.23Z" fill="#ED6C6D"/>
<path opacity="0.55" d="M484.27 282.23C503.263 282.23 518.66 278.362 518.66 273.59C518.66 268.818 503.263 264.95 484.27 264.95C465.277 264.95 449.88 268.818 449.88 273.59C449.88 278.362 465.277 282.23 484.27 282.23Z" fill="#ED6C6D"/>
<path d="M386.28 526.36C386.28 526.36 478.97 410.43 565.28 479.69C629.42 531.17 560.21 605.02 510.84 620.21C461.47 635.4 349.67 651.06 303.22 632.87C262.29 616.87 255.54 572.94 291.41 561.55C326.12 550.52 355.17 536.46 386.28 526.36Z" fill="#454445"/>
<path d="M386.28 526.36C397.952 511.731 411.315 498.536 426.09 487.05C433.502 481.274 441.338 476.063 449.53 471.46C457.766 466.787 466.449 462.951 475.45 460.01C484.543 457.033 494.001 455.32 503.56 454.92C513.205 454.528 522.849 455.679 532.13 458.33C536.775 459.638 541.309 461.31 545.69 463.33C550.055 465.379 554.278 467.717 558.33 470.33C562.371 472.939 566.251 475.787 569.95 478.86C573.696 481.979 577.171 485.407 580.34 489.11C586.895 496.642 591.545 505.637 593.9 515.34C596.043 525.146 595.762 535.327 593.08 545C591.817 549.754 590.124 554.383 588.02 558.83C585.958 563.24 583.578 567.494 580.9 571.56C575.557 579.612 569.343 587.05 562.37 593.74C555.443 600.43 547.87 606.416 539.76 611.61C531.608 616.92 522.827 621.196 513.62 624.34C508.99 625.81 504.5 627.08 499.91 628.27C495.32 629.46 490.76 630.57 486.17 631.61C476.99 633.69 467.77 635.5 458.52 637.11C440.007 640.263 421.381 642.597 402.641 644.11C393.281 644.86 383.89 645.39 374.47 645.61C365.05 645.83 355.61 645.79 346.15 645.2C336.621 644.679 327.14 643.483 317.78 641.62C308.39 639.62 298.841 636.48 290.371 631.3C281.901 626.12 274.37 619.06 269.45 610.08C266.95 605.566 265.287 600.636 264.54 595.53C263.78 590.297 264.27 584.958 265.97 579.95C266.824 577.434 268.005 575.04 269.48 572.83C270.209 571.734 271.011 570.688 271.88 569.7C272.32 569.21 272.73 568.7 273.2 568.23L274.621 566.88C278.441 563.444 282.903 560.796 287.75 559.09C290.19 558.21 292.34 557.56 294.55 556.87C296.76 556.18 298.95 555.45 301.15 554.72C305.54 553.26 309.93 551.77 314.3 550.21C331.8 544.04 349.11 537.13 366.7 530.8C375.5 527.66 384.39 524.69 393.38 522.06C402.37 519.43 411.38 516.67 420.84 515.69C425.542 515.211 430.275 515.13 434.99 515.45C439.68 515.72 444.33 516.19 448.99 516.76C458.26 517.92 467.47 519.28 476.7 520.6C467.42 519.77 458.131 518.9 448.851 518.23C444.211 517.89 439.57 517.61 434.95 517.55C430.352 517.445 425.753 517.723 421.2 518.38C412.2 519.75 403.37 522.77 394.54 525.68C385.71 528.59 377.06 531.86 368.42 535.3C351.14 542.13 334.02 549.5 316.55 556.24C312.19 557.92 307.81 559.58 303.38 561.14C301.17 561.92 298.97 562.71 296.74 563.45L293.4 564.57L292.57 564.86L291.81 565.14L290.3 565.7C286.353 567.163 282.736 569.396 279.66 572.27C276.694 575.032 274.487 578.51 273.25 582.37C272.03 586.248 271.746 590.361 272.42 594.37C273.116 598.491 274.552 602.452 276.66 606.06C280.83 613.44 287.37 619.5 294.83 623.94C302.519 628.302 310.896 631.318 319.601 632.86C328.546 634.522 337.599 635.545 346.69 635.92C365.1 636.675 383.54 636.221 401.891 634.56C420.301 633 438.671 630.56 456.891 627.44C465.997 625.893 475.06 624.127 484.08 622.14C488.58 621.14 493.08 620.14 497.52 618.93C501.96 617.72 506.43 616.55 510.69 615.21C519.141 612.355 527.203 608.458 534.69 603.61C542.296 598.762 549.428 593.208 555.99 587.02C562.557 580.881 568.425 574.036 573.49 566.61C578.534 559.316 582.366 551.256 584.84 542.74C587.269 534.4 587.643 525.596 585.93 517.08C584.047 508.554 580.132 500.609 574.52 493.92C568.746 487.063 562.01 481.077 554.52 476.15C547.065 471.093 538.926 467.127 530.35 464.37C521.751 461.644 512.77 460.317 503.75 460.44C494.654 460.579 485.619 461.948 476.891 464.51C459.271 469.51 442.89 478.51 427.76 489.18C420.202 494.566 412.957 500.379 406.06 506.59C399.069 512.769 392.463 519.372 386.28 526.36Z" fill="#231F20"/>
<path d="M366.68 526.36C366.68 526.36 273.99 410.43 187.68 479.69C123.53 531.17 192.74 605.02 242.11 620.21C291.48 635.4 403.281 651.06 449.731 632.87C490.661 616.87 497.41 572.94 461.55 561.55C426.84 550.52 397.79 536.46 366.68 526.36Z" fill="#454445"/>
<path d="M366.68 526.36C360.518 519.382 353.932 512.789 346.96 506.62C340.065 500.407 332.82 494.594 325.26 489.21C310.17 478.54 293.75 469.51 276.13 464.54C267.401 461.978 258.366 460.609 249.27 460.47C240.25 460.347 231.269 461.674 222.67 464.4C214.096 467.155 205.96 471.122 198.51 476.18C191.017 481.102 184.279 487.088 178.51 493.95C172.899 500.641 168.982 508.585 167.09 517.11C165.382 525.626 165.756 534.429 168.18 542.77C170.662 551.283 174.494 559.342 179.53 566.64C184.595 574.069 190.468 580.914 197.04 587.05C203.599 593.238 210.727 598.792 218.33 603.64C225.818 608.488 233.88 612.384 242.33 615.24C246.58 616.58 251.06 617.83 255.5 618.96C259.94 620.09 264.43 621.16 268.93 622.17C277.93 624.17 286.997 625.937 296.13 627.47C314.34 630.62 332.71 633.03 351.13 634.59C369.48 636.251 387.92 636.705 406.33 635.95C415.421 635.575 424.474 634.553 433.42 632.89C442.124 631.348 450.501 628.332 458.19 623.97C465.65 619.53 472.19 613.47 476.36 606.09C478.477 602.486 479.914 598.523 480.6 594.4C481.273 590.391 480.992 586.28 479.78 582.4C478.536 578.541 476.326 575.064 473.36 572.3C470.286 569.429 466.673 567.196 462.73 565.73L461.22 565.17L460.45 564.89L459.62 564.6L456.28 563.48C454.06 562.74 451.85 561.95 449.64 561.17C445.22 559.61 440.83 557.95 436.47 556.27C419 549.53 401.88 542.16 384.6 535.33C375.97 531.89 367.29 528.64 358.48 525.71C349.67 522.78 340.86 519.78 331.82 518.41C327.268 517.752 322.668 517.474 318.07 517.58C313.45 517.64 308.81 517.92 304.17 518.26C294.89 518.93 285.61 519.8 276.32 520.63C285.55 519.31 294.77 517.95 304.03 516.79C308.66 516.22 313.32 515.79 318.03 515.48C322.748 515.16 327.485 515.241 332.19 515.72C341.67 516.72 350.7 519.51 359.65 522.09C368.6 524.67 377.53 527.69 386.32 530.83C403.91 537.16 421.22 544.07 438.73 550.24C443.1 551.8 447.48 553.29 451.88 554.75C454.07 555.48 456.27 556.21 458.48 556.9C460.69 557.59 462.83 558.24 465.27 559.12C470.117 560.826 474.579 563.474 478.4 566.91L479.82 568.26C480.29 568.72 480.7 569.26 481.14 569.73C482.01 570.721 482.815 571.766 483.55 572.86C485.022 575.072 486.202 577.465 487.06 579.98C488.753 584.989 489.239 590.327 488.48 595.56C487.743 600.669 486.079 605.599 483.57 610.11C478.67 619.11 471.09 626.11 462.66 631.33C454.23 636.55 444.66 639.69 435.24 641.65C425.88 643.513 416.4 644.71 406.87 645.23C397.42 645.82 387.97 645.86 378.55 645.64C369.13 645.42 359.75 644.89 350.38 644.14C331.653 642.633 313.027 640.3 294.5 637.14C285.25 635.53 276.04 633.72 266.85 631.64C262.27 630.64 257.68 629.52 253.12 628.3C248.56 627.08 244.03 625.84 239.41 624.37C230.199 621.228 221.415 616.952 213.26 611.64C205.152 606.449 197.581 600.462 190.66 593.77C183.681 587.083 177.464 579.644 172.12 571.59C169.435 567.527 167.052 563.272 164.99 558.86C162.878 554.417 161.184 549.787 159.93 545.03C157.244 535.358 156.962 525.176 159.11 515.37C161.458 505.658 166.104 496.651 172.66 489.11C175.825 485.408 179.298 481.979 183.04 478.86C186.743 475.787 190.626 472.939 194.67 470.33C198.719 467.717 202.938 465.379 207.3 463.33C211.682 461.31 216.216 459.638 220.86 458.33C230.144 455.679 239.793 454.528 249.44 454.92C258.999 455.321 268.457 457.034 277.55 460.01C286.539 462.956 295.212 466.792 303.44 471.46C311.638 476.064 319.48 481.275 326.9 487.05C341.668 498.535 355.021 511.73 366.68 526.36Z" fill="#231F20"/>
</g>
<defs>
<clipPath id="clip0_3131_344">
<rect width="752.96" height="674.26" fill="white"/>
</clipPath>
</defs>
</svg>
