<svg width="403" height="368" viewBox="0 0 403 368" fill="none" xmlns="http://www.w3.org/2000/svg">
<g clip-path="url(#clip0_4970_863)">
<path d="M120.76 367.399C117.432 367.4 114.199 366.294 111.568 364.256C108.938 362.217 107.06 359.362 106.23 356.139C105.82 354.549 96.5502 317.859 100.59 277.509H99.7902C91.7902 277.509 83.37 277.079 74.64 276.229C72.46 276.017 70.3531 275.331 68.4669 274.217C66.5807 273.104 64.9611 271.591 63.722 269.785C62.483 267.979 61.6547 265.923 61.295 263.763C60.9353 261.602 61.053 259.389 61.64 257.279C61.73 256.939 63.19 251.759 66.18 243.989C47.09 236.479 27.0001 225.239 6.26012 210.419C4.47691 209.145 2.99435 207.497 1.91686 205.589C0.839372 203.68 0.193222 201.559 0.0235484 199.374C-0.146125 197.189 0.164963 194.994 0.934925 192.943C1.70489 190.891 2.9149 189.033 4.48009 187.499C5.61009 186.389 31.0801 161.639 66.2401 144.929C62.5601 138.439 59.03 131.469 55.67 124.089C54.7624 122.094 54.3031 119.925 54.3241 117.734C54.3451 115.542 54.846 113.382 55.7916 111.405C56.7372 109.428 58.1046 107.682 59.7975 106.29C61.4903 104.898 63.4676 103.895 65.5902 103.349C72.8364 101.614 80.1841 100.335 87.5902 99.5192C84.3202 78.8492 83.9301 55.3093 86.4601 29.2893C86.672 27.1093 87.3587 25.0021 88.472 23.1159C89.5853 21.2297 91.0983 19.6103 92.9044 18.3713C94.7105 17.1323 96.7659 16.3037 98.9264 15.944C101.087 15.5844 103.3 15.7022 105.41 16.2893C127.721 23.0562 148.991 32.8688 168.62 45.4494C171.494 40.8694 174.59 36.2491 177.91 31.5891C179.184 29.8046 180.834 28.3215 182.743 27.2434C184.652 26.1653 186.774 25.5186 188.96 25.3493C189.34 25.3493 189.73 25.3493 190.12 25.3493C192.115 25.3496 194.089 25.7475 195.928 26.5202C197.767 27.2929 199.434 28.4248 200.83 29.8493C201.09 30.1193 205.22 34.3394 210.83 41.4094C227.83 26.6994 249.62 13.2794 275.77 1.40938C277.765 0.501792 279.934 0.0422044 282.126 0.0631875C284.317 0.0841705 286.477 0.584856 288.454 1.53047C290.431 2.47609 292.177 3.84346 293.569 5.53633C294.961 7.2292 295.965 9.20673 296.51 11.3293C296.92 12.9193 306.22 49.7291 302.13 90.1691C307.63 90.3591 313.32 90.739 319.13 91.299C321.316 91.5095 323.428 92.1973 325.319 93.3137C327.21 94.43 328.832 95.9479 330.072 97.76C331.312 99.5721 332.139 101.634 332.495 103.801C332.85 105.968 332.726 108.186 332.13 110.299C332.05 110.569 330.94 114.519 328.69 120.629C350.14 128.009 372.86 140.219 396.47 157.079C398.253 158.353 399.736 160.002 400.813 161.91C401.891 163.818 402.537 165.939 402.707 168.124C402.877 170.309 402.565 172.504 401.796 174.556C401.026 176.607 399.815 178.466 398.25 179.999C397.05 181.179 368.37 208.999 329.78 225.609L329.29 225.819C332.337 231.386 335.274 237.273 338.1 243.479C339.008 245.474 339.467 247.643 339.446 249.835C339.425 252.026 338.924 254.186 337.979 256.163C337.033 258.14 335.666 259.886 333.973 261.278C332.28 262.67 330.303 263.674 328.18 264.219C327.96 264.279 325.1 265.009 320.35 265.899C324.13 287.369 324.7 312.019 322.04 339.439C321.83 341.625 321.142 343.737 320.026 345.628C318.909 347.519 317.392 349.141 315.579 350.381C313.767 351.621 311.705 352.448 309.538 352.803C307.372 353.159 305.154 353.035 303.04 352.439C301.42 351.989 262.95 341.089 229.33 315.959L228.96 315.689C225.067 322.356 220.67 329.119 215.77 335.979C214.502 337.758 212.86 339.237 210.96 340.315C209.06 341.393 206.947 342.043 204.77 342.219C204.38 342.219 203.99 342.269 203.61 342.269C201.615 342.269 199.641 341.871 197.802 341.098C195.963 340.326 194.296 339.194 192.9 337.769C192.72 337.579 190.21 335.019 186.49 330.609C170.34 343.559 150.37 355.479 126.9 366.159C124.963 367 122.871 367.423 120.76 367.399Z" fill="#231F20"/>
<path d="M196.93 183.729L190.17 40.3086C114.24 146.609 196.93 183.729 196.93 183.729Z" fill="#66BE64"/>
<path d="M190.17 40.3086L196.93 183.729C277.12 128.999 190.17 40.3086 190.17 40.3086Z" fill="#4CA84E"/>
<g style="mix-blend-mode:multiply" opacity="0.58">
<path d="M196.93 183.729C238.13 155.599 235.21 118.52 222.63 89.0996C222.63 89.0996 223.52 159.609 160.77 140.729C169.54 171.429 196.93 183.729 196.93 183.729Z" fill="#B6BCCC"/>
</g>
<path d="M196.93 183.729L69.3401 117.879C123.43 236.779 196.93 183.729 196.93 183.729Z" fill="#66BE64"/>
<path d="M69.3401 117.878L196.93 183.728C189.61 86.9083 69.3401 117.878 69.3401 117.878Z" fill="#4CA84E"/>
<g style="mix-blend-mode:multiply" opacity="0.58">
<path d="M196.93 183.728C193.17 133.988 159.59 117.978 127.83 114.168C127.83 114.168 189.34 148.648 141.61 193.548C172.59 201.298 196.93 183.728 196.93 183.728Z" fill="#B6BCCC"/>
</g>
<path d="M196.93 183.729L76.1101 261.298C206.13 273.908 196.93 183.729 196.93 183.729Z" fill="#66BE64"/>
<path d="M76.1101 261.298L196.93 183.728C109.42 141.668 76.1101 261.298 76.1101 261.298Z" fill="#4CA84E"/>
<g style="mix-blend-mode:multiply" opacity="0.58">
<path d="M196.93 183.729C151.93 162.119 121.32 183.189 102.14 208.789C102.14 208.789 162.75 172.789 177.77 236.549C199.98 213.599 196.93 183.729 196.93 183.729Z" fill="#B6BCCC"/>
</g>
<path d="M196.93 183.729L203.7 327.159C279.63 220.859 196.93 183.729 196.93 183.729Z" fill="#66BE64"/>
<path d="M203.7 327.159L196.93 183.729C116.76 238.489 203.7 327.159 203.7 327.159Z" fill="#4CA84E"/>
<g style="mix-blend-mode:multiply" opacity="0.58">
<path d="M196.93 183.729C155.74 211.859 158.66 248.948 171.24 278.358C171.24 278.358 170.35 207.849 233.1 226.729C224.32 195.999 196.93 183.729 196.93 183.729Z" fill="#B6BCCC"/>
</g>
<path d="M196.93 183.729L324.52 249.589C270.43 130.679 196.93 183.729 196.93 183.729Z" fill="#66BE64"/>
<path d="M324.52 249.588L196.93 183.729C204.26 280.549 324.52 249.588 324.52 249.588Z" fill="#4CA84E"/>
<g style="mix-blend-mode:multiply" opacity="0.58">
<path d="M196.93 183.729C200.7 233.469 234.27 249.489 266.03 253.299C266.03 253.299 204.52 218.81 252.25 173.91C221.28 166.16 196.93 183.729 196.93 183.729Z" fill="#B6BCCC"/>
</g>
<path d="M196.93 183.728L317.76 106.158C187.76 93.5483 196.93 183.728 196.93 183.728Z" fill="#66BE64"/>
<path d="M317.76 106.16L196.93 183.73C284.44 225.79 317.76 106.16 317.76 106.16Z" fill="#4CA84E"/>
<g style="mix-blend-mode:multiply" opacity="0.58">
<path d="M196.93 183.73C241.93 205.34 272.55 184.27 291.73 158.67C291.73 158.67 231.11 194.67 216.09 130.91C193.89 153.86 196.93 183.73 196.93 183.73Z" fill="#B6BCCC"/>
</g>
<path d="M203.25 189.338L101.44 30.7383C84.8899 201.408 203.25 189.338 203.25 189.338Z" fill="#F0EBCE"/>
<path d="M101.44 30.7383L203.25 189.338C258.46 74.4679 101.44 30.7383 101.44 30.7383Z" fill="#FBFCFC"/>
<g style="mix-blend-mode:multiply" opacity="0.58">
<path d="M203.25 189.34C231.62 130.34 203.96 90.0802 170.36 64.9102C170.36 64.9102 217.64 144.47 133.92 164.19C164.05 193.33 203.25 189.34 203.25 189.34Z" fill="#B6BCCC"/>
</g>
<path d="M203.25 189.34L15 198.21C154.52 297.88 203.25 189.34 203.25 189.34Z" fill="#F0EBCE"/>
<path d="M15 198.208L203.25 189.338C131.38 84.0878 15 198.208 15 198.208Z" fill="#FBFCFC"/>
<g style="mix-blend-mode:multiply" opacity="0.58">
<path d="M203.25 189.339C166.33 135.259 117.65 139.099 79.05 155.609C79.05 155.609 171.6 154.439 146.81 236.809C187.11 225.289 203.25 189.339 203.25 189.339Z" fill="#B6BCCC"/>
</g>
<path d="M207.22 184.918L120.76 352.398C276.85 281.398 207.22 184.918 207.22 184.918Z" fill="#F0EBCE"/>
<path d="M120.76 352.398L207.2 184.918C80.14 194.538 120.76 352.398 120.76 352.398Z" fill="#FBFCFC"/>
<g style="mix-blend-mode:multiply" opacity="0.58">
<path d="M207.22 184.918C141.93 189.868 120.91 233.918 115.9 275.628C115.9 275.628 161.16 194.888 220.1 257.538C230.28 216.878 207.22 184.918 207.22 184.918Z" fill="#B6BCCC"/>
</g>
<path d="M205.38 179.289L307.19 337.879C323.76 167.219 205.38 179.289 205.38 179.289Z" fill="#F0EBCE"/>
<path d="M307.19 337.879L205.38 179.289C150.17 294.149 307.19 337.879 307.19 337.879Z" fill="#FBFCFC"/>
<g style="mix-blend-mode:multiply" opacity="0.58">
<path d="M205.38 179.289C177.01 238.289 204.67 278.539 238.27 303.709C238.27 303.709 190.99 224.139 274.71 204.419C244.58 175.289 205.38 179.289 205.38 179.289Z" fill="#B6BCCC"/>
</g>
<path d="M199.57 178.059L387.83 169.179C248.3 69.519 199.57 178.059 199.57 178.059Z" fill="#F0EBCE"/>
<path d="M387.83 169.18L199.57 178.06C271.44 283.31 387.83 169.18 387.83 169.18Z" fill="#FBFCFC"/>
<g style="mix-blend-mode:multiply" opacity="0.58">
<path d="M199.57 178.06C236.5 232.13 285.18 228.3 323.78 211.79C323.78 211.79 231.23 212.96 256.02 130.6C215.76 142.11 199.57 178.06 199.57 178.06Z" fill="#B6BCCC"/>
</g>
<path d="M195.61 182.47L282.05 15C125.97 86 195.61 182.47 195.61 182.47Z" fill="#F0EBCE"/>
<path d="M282.05 15L195.61 182.47C322.69 172.85 282.05 15 282.05 15Z" fill="#FBFCFC"/>
<g style="mix-blend-mode:multiply" opacity="0.58">
<path d="M195.61 182.47C260.9 177.53 281.92 133.47 286.92 91.7695C286.92 91.7695 241.66 172.5 182.72 109.85C172.55 150.52 195.61 182.47 195.61 182.47Z" fill="#B6BCCC"/>
</g>
<g style="mix-blend-mode:multiply" opacity="0.58">
<path d="M201.01 198.508C208.471 198.508 214.52 192.46 214.52 184.998C214.52 177.537 208.471 171.488 201.01 171.488C193.549 171.488 187.5 177.537 187.5 184.998C187.5 192.46 193.549 198.508 201.01 198.508Z" fill="#B6BCCC"/>
</g>
<path d="M202.27 187.91L195.99 185.91L199.13 186.91L195.99 185.91C195.99 185.81 199.32 175.15 198.4 158.02C197.56 142.22 192.84 117.489 175.2 89.4395L180.77 85.9395C199.27 115.339 204.16 141.37 205 158.04C205.92 176.26 202.42 187.44 202.27 187.91Z" fill="#66BE64"/>
<path d="M176.97 96.0896C181.869 96.0896 185.84 92.1184 185.84 87.2196C185.84 82.3208 181.869 78.3496 176.97 78.3496C172.071 78.3496 168.1 82.3208 168.1 87.2196C168.1 92.1184 172.071 96.0896 176.97 96.0896Z" fill="#F1594B"/>
<path d="M195.69 186.75L200.14 191.61L197.92 189.18L200.14 191.62C200.22 191.54 208.52 184.09 224.47 177.77C239.18 171.93 263.61 165.87 296.47 170.18L297.32 163.65C262.88 159.13 237.18 165.579 221.69 171.779C204.76 178.559 196.06 186.42 195.69 186.75Z" fill="#66BE64"/>
<path d="M297.74 176.519C302.639 176.519 306.61 172.548 306.61 167.649C306.61 162.751 302.639 158.779 297.74 158.779C292.841 158.779 288.87 162.751 288.87 167.649C288.87 172.548 292.841 176.519 297.74 176.519Z" fill="#F1594B"/>
<path d="M199.93 191.198L195.76 186.108C205.94 177.748 213.83 157.408 218.56 127.268C220.81 112.604 222.172 97.8169 222.64 82.9883L229.23 83.1182C228.753 98.2211 227.367 113.282 225.08 128.218C220.02 160.468 211.56 181.658 199.93 191.198Z" fill="#66BE64"/>
<path d="M224.48 91.7888C229.379 91.7888 233.35 87.8176 233.35 82.9188C233.35 78.0201 229.379 74.0488 224.48 74.0488C219.581 74.0488 215.61 78.0201 215.61 82.9188C215.61 87.8176 219.581 91.7888 224.48 91.7888Z" fill="#F1594B"/>
<path d="M200.91 181.608L199.86 175.108C212.86 172.998 228.44 158.718 244.86 133.798C252.859 121.535 260.016 108.742 266.28 95.5078L272.28 98.248C265.881 111.761 258.577 124.827 250.42 137.358C232.68 164.278 216.03 179.158 200.91 181.608Z" fill="#66BE64"/>
<path d="M267.96 107.709C272.859 107.709 276.83 103.738 276.83 98.8387C276.83 93.94 272.859 89.9688 267.96 89.9688C263.061 89.9688 259.09 93.94 259.09 98.8387C259.09 103.738 263.061 107.709 267.96 107.709Z" fill="#F1594B"/>
</g>
<defs>
<clipPath id="clip0_4970_863">
<rect width="402.83" height="367.4" fill="white"/>
</clipPath>
</defs>
</svg>
