<svg width="384" height="581" viewBox="0 0 384 581" fill="none" xmlns="http://www.w3.org/2000/svg">
<g clip-path="url(#clip0_3770_806)">
<path d="M54.5195 269.85C66.1495 235.72 129.62 182.25 204.42 182.58C264.66 182.84 320.17 217.9 348.67 273.14L54.5195 269.85Z" fill="#603914"/>
<path d="M3.74007 248.35C36.6001 176.86 158.85 177.58 195.1 177.78C242.64 178.04 340.03 178.57 373.57 241.57C388.19 269 380.17 313.4 364.11 402.12C351.6 471.31 344.85 506.43 323.35 529.85C286.01 570.43 232.06 572.27 195.85 573.52C158.69 574.83 96.1501 576.94 56.6301 533.52C46.6301 522.67 38.6301 509.31 17.8001 392.7C-4.22994 269.33 -0.0599344 256.66 3.74007 248.35Z" fill="#77A6D8"/>
<path d="M3.18001 248.02C9.00723 235.613 17.5516 224.676 28.18 216.02C38.45 207.21 50.4 200.83 62.54 195.3C87.05 184.65 113.25 179.06 139.45 175.7C165.65 172.34 192.22 171.89 218.55 172.35C231.821 172.501 245.075 173.379 258.25 174.98C271.575 176.433 284.755 179.002 297.65 182.66C310.78 186.208 323.392 191.448 335.17 198.25C346.99 205.16 358.26 213.77 366.72 225.15C369.09 227.72 370.83 230.87 372.72 233.9C374.61 236.93 376.51 239.82 377.82 243.3C380.573 249.978 382.316 257.028 382.99 264.22C384.42 278.43 383.23 292.43 381.74 306.22C378.44 333.84 373.52 361.07 368.92 388.36C363.92 415.59 360.2 443.02 354.17 470.18C351.17 483.8 347.51 497.41 341.54 510.43C338.526 516.937 334.839 523.111 330.54 528.85C328.35 531.665 325.982 534.337 323.45 536.85C321.057 539.424 318.498 541.84 315.79 544.08C294.58 562.56 267.79 572.3 241.3 576.24C228.129 578.194 214.858 579.402 201.55 579.86C188.41 580.45 175.22 581.04 161.84 580.72C135.2 580.06 107.64 575.65 82.84 562.3C70.323 555.429 59.1448 546.361 49.84 535.53C44.84 529.48 41.62 522.31 39.13 515.6C36.7246 508.901 34.6914 502.074 33.04 495.15C26.19 467.92 21.77 440.56 17.48 413.15C13.19 385.74 9.26001 358.36 5.90001 330.81C4.29001 317.06 2.48001 303.31 1.37001 289.43C0.563205 282.534 0.105943 275.602 0 268.66C0 261.77 0.060008 254.46 3.18001 248.02ZM4.3 248.61C1.43 254.73 1.43001 261.83 1.49001 268.61C1.55001 275.39 2.18001 282.35 2.99001 289.26C4.67001 302.94 6.60001 316.68 9.09001 330.26C13.94 357.43 19.48 384.52 25.33 411.55C31.18 438.58 37.15 465.49 44.33 491.73C46.2 498.24 48.19 504.73 50.56 510.73C52.93 516.73 55.56 522.37 59.27 526.73C67.6115 536.107 77.5569 543.922 88.64 549.81C110.79 561.81 136.44 565.93 161.94 566.98C174.76 567.57 187.78 567.18 200.84 566.78C213.743 566.57 226.624 565.625 239.42 563.95C264.68 560.47 289.52 552.25 309.42 535.87C311.957 533.896 314.346 531.74 316.57 529.42C318.936 527.249 321.142 524.909 323.17 522.42C327.318 517.435 330.9 512.005 333.85 506.23C339.85 494.53 343.94 481.51 347.41 468.29C354.14 441.78 359.41 414.55 364.47 387.39C369.53 360.23 374.74 333.06 377.55 305.66C378.79 291.98 379.55 278.17 377.74 264.82C376.876 258.279 375.007 251.911 372.2 245.94C370.95 242.99 368.9 240.35 367.2 237.59C365.5 234.83 363.71 232.07 361.35 229.77C353.14 219.64 342.35 212.14 331.04 206.22C325.45 203.06 319.41 200.89 313.49 198.46C307.33 196.55 301.3 194.46 295.01 193.07C270.06 186.75 244.17 184.71 218.22 183.73C192.15 183.07 166.07 182.08 140.12 183.73C114.17 185.38 88.22 189.32 63.64 198.33C51.2347 202.812 39.6048 209.202 29.17 217.27C18.6909 225.795 10.2027 236.509 4.3 248.66V248.61Z" fill="black"/>
<path d="M5.02923 242.56C5.77923 203.89 116.359 168.7 208.399 171.4C281.449 173.5 378.339 200.53 380.149 236.77C381.959 273.01 288.489 315.3 205.659 319.58C110.629 324.38 4.28923 280.71 5.02923 242.56Z" fill="#77A6D8"/>
<path d="M3.11078 242.5C3.29622 237.728 4.80587 233.103 7.47078 229.14C9.96327 225.268 12.9936 221.769 16.4708 218.75C23.1208 212.5 30.8408 207.75 38.5608 203.16C54.2108 194.22 70.8508 187.66 87.8508 181.99C121.751 170.875 157.236 165.36 192.911 165.66C228.631 166.26 263.611 173.03 297.771 182.3C314.821 187.04 331.771 192.63 347.871 200.52C355.871 204.52 363.731 209.2 370.771 215.58C374.432 218.889 377.432 222.863 379.611 227.29C381.915 232.168 382.615 237.65 381.611 242.95C379.431 253.6 372.831 261.36 366.241 268C359.509 274.401 352.098 280.048 344.141 284.84C328.673 294.216 312.246 301.91 295.141 307.79C261.301 319.66 225.771 326.88 189.851 326.75C154.001 326.42 118.341 320.23 84.8508 307.47C68.1108 301.16 51.7508 293.66 36.5608 283.8C29.0908 278.8 21.6208 273.54 15.3408 266.9C12.0933 263.627 9.27105 259.958 6.94079 255.98C4.39004 251.951 3.05987 247.269 3.11078 242.5ZM4.36078 242.56C4.43078 251.7 10.2808 259.56 16.5608 265.65C23.0523 271.656 30.3369 276.743 38.2108 280.77C53.7708 288.99 70.3208 294.85 87.2108 299.32C120.941 307.94 155.421 313.07 189.841 312.8C224.406 312.434 258.713 306.803 291.581 296.1C308.011 290.64 324.251 284.26 339.431 275.84C346.966 271.665 354.111 266.822 360.781 261.37C367.191 255.85 373.101 249.2 375.091 241.57C377.081 233.94 373.161 225.99 367.191 219.87C361.221 213.75 353.811 208.75 346.091 204.68C330.601 196.46 313.791 190.86 296.871 186.59C279.882 182.419 262.592 179.583 245.161 178.11C227.849 176.469 210.446 176.005 193.071 176.72C158.34 178.098 123.798 182.546 89.8508 190.01C72.8508 193.89 56.0008 198.89 40.0708 206.26C31.9922 209.848 24.4369 214.514 17.6108 220.13C10.9508 225.79 4.73078 233.35 4.36078 242.56Z" fill="black"/>
<path d="M44.6806 240.98C45.2406 213.49 129.621 188.43 199.821 190.34C255.581 191.85 329.441 211.06 330.821 236.84C332.201 262.62 260.931 292.66 197.701 295.77C125.271 299.25 44.1206 268.14 44.6806 240.98Z" fill="black" stroke="black" stroke-width="2.85" stroke-miterlimit="10"/>
<path d="M345.499 20.78C349.049 104.9 325.839 144.78 307.109 164.95C302.189 170.28 297.839 173.95 253.839 209.67L188.619 262.67C188.794 242.68 190.88 222.753 194.849 203.16C201.199 172.16 206.929 143.16 227.029 118.58C244.079 97.73 255.529 99.44 288.569 75.04C309.691 59.3464 328.81 41.1239 345.499 20.78Z" fill="#77A6D8"/>
<path d="M345.501 20.6599C347.251 46.9699 346.19 73.1399 340.71 98.7999C335.23 124.25 324.53 149.31 306.23 167.59C296.89 176.4 286.88 183.9 277.11 191.93L247.611 215.54C227.881 231.19 208.61 247.54 189.12 263.42L187.741 264.54V262.66C187.561 236.55 191.361 210.44 197.081 185.19C199.821 172.49 203.08 159.8 207.97 147.63C212.772 135.527 219.615 124.338 228.2 114.55C236.6 104.49 248.05 98.1099 258.87 92.2499C269.784 86.2512 280.284 79.5295 290.3 72.1299C310.529 57.0449 329.039 39.7849 345.501 20.6599ZM345.441 20.9899C329.831 40.9209 311.741 58.7784 291.61 74.1299C281.673 81.8178 271.214 88.8079 260.31 95.0499C249.41 101.23 238.59 107.15 230.56 116.88C222.29 126.22 215.88 137.34 210.96 149.04C206.04 160.74 202.81 173.31 199.96 185.94C197.11 198.57 194.351 211.2 192.551 224.02C190.707 236.856 189.669 249.794 189.44 262.76L188.07 262.04C207.67 246.19 227.52 230.73 246.88 214.62L276 190.48C285.59 182.32 295.6 174.56 304.56 165.88C321.86 147.6 332.751 123.46 338.561 98.3999C344.441 73.0699 345.561 46.6599 345.441 20.9799V20.9899Z" fill="black"/>
<path d="M345.499 20.78C321.599 63.2 295.039 107.2 265.669 152.13C239.769 191.72 213.949 228.48 188.619 262.68C206.039 249 230.619 229.34 259.749 204.87C306.669 165.48 313.639 156.99 318.059 151.07C331.369 132.85 352.279 94.18 345.499 20.78Z" fill="#418AC9"/>
<path d="M345.439 20.9799C334.439 42.1599 322.159 63.1999 309.909 83.8599C297.659 104.52 285.009 125.16 271.759 145.22C258.509 165.28 244.849 185.08 231.059 204.66C217.059 224.12 203.429 243.92 189.239 263.19L188.119 262.01L246.489 213.73C266.029 197.82 285.199 181.24 303.739 164.14C308.383 159.935 312.652 155.334 316.499 150.39C320.261 145.306 323.653 139.959 326.649 134.39C332.64 123.021 337.214 110.961 340.269 98.4799C346.489 73.2699 346.849 46.6599 345.439 20.9799ZM345.499 20.6499C348.499 46.8899 348.229 73.2699 342.499 98.9799C336.649 124.3 325.379 149.49 305.909 166.73C287.359 184.16 267.909 200.33 248.289 216.12L189.109 263.34L184.189 267.22L187.979 262.16C202.299 242.95 216.599 223.75 230.049 203.82C243.499 183.89 256.739 163.9 269.629 143.57C282.519 123.24 295.509 103.06 308.139 82.5699L345.499 20.6499Z" fill="black"/>
<path d="M64.9698 0.129883C50.4698 82.9399 68.2099 125.82 84.1399 148.51C88.3099 154.51 92.1398 158.77 131 200.6C154.59 225.99 174.31 247.23 188.62 262.6C191.077 242.718 191.62 222.646 190.24 202.66C188 171.03 186.19 141.43 169.45 114.2C155.33 91.1199 143.76 91.1199 114.19 62.0499C95.3343 43.481 78.8063 22.6884 64.9698 0.129883Z" fill="#77A6D8"/>
<path d="M64.9696 0.329956C61.4896 25.78 59.1196 52.09 61.5496 77.87C63.9796 103.65 71.6296 129.11 86.4396 149.69C94.1596 159.62 103.06 168.83 111.52 178.24L137.22 206.39C154.33 225.2 171.94 243.39 189.22 261.96L187.79 262.49C189.311 249.604 189.999 236.634 189.85 223.66C189.78 210.71 188.53 197.82 187.48 184.86C186.43 171.9 184.68 159.14 181.38 146.71C178.08 134.28 173.17 122.44 166.2 111.99C159.54 101.2 149.58 93.7 139.62 85.99C129.625 78.1996 120.173 69.7366 111.33 60.66C93.3875 42.5911 77.8098 22.3193 64.9696 0.329956ZM64.9096 0C78.7329 21.3649 94.8045 41.1879 112.85 59.1299C121.758 67.9395 131.253 76.1349 141.27 83.66C151.22 91.03 161.74 99.05 168.71 110.23C175.881 121.181 181.18 133.249 184.39 145.94C187.63 158.64 189.18 171.73 190.31 184.68C192.67 210.53 193.04 236.97 189.43 262.75L189.18 264.59L188 263.28C170.77 244.6 153.83 225.66 136.35 207.28L110.21 179.66C101.56 170.32 92.6596 161.37 84.5796 151.31C68.8296 130.53 61.4895 104.15 59.4295 78.17C57.3795 51.89 59.7396 25.78 64.9096 0Z" fill="black"/>
<path d="M64.9699 0.129883C83.0799 45.6599 103.62 93.0599 126.85 141.93C147.26 184.93 168.04 225.13 188.64 262.69C173.21 246.57 151.36 223.49 125.79 195.01C84.4699 149.1 78.6799 139.7 75.1299 133.18C64.2199 113.19 48.5999 71.8199 64.9699 0.129883Z" fill="#418AC9"/>
<path d="M64.9603 0L93.9003 66.8199C103.67 88.9899 113.9 110.89 124.03 132.82C134.16 154.75 144.5 176.63 155.33 198.27C165.97 219.97 177.6 241.08 189.33 262.19L192.45 267.78L188.09 263.18L135.69 207.74C118.26 189.19 101.15 170.31 85.1003 150.32C68.1003 130.46 60.2703 103.89 57.7803 77.91C55.3203 51.66 58.5003 25.52 64.9603 0ZM64.9603 0.329956C60.1703 25.58 57.0603 51.96 59.9603 77.74C61.3227 90.5716 64.2719 103.185 68.7403 115.29C70.9557 121.279 73.5923 127.103 76.6303 132.72C79.6303 138.25 83.5403 143.25 87.4603 148.25C103.58 167.91 120.324 187.07 137.69 205.73L189.14 262.09L187.9 263.09C176.39 241.91 165.44 220.34 154.11 198.96C143.04 177.52 132.11 155.96 121.62 134.11C111.13 112.26 101.41 90.05 91.9403 67.75C82.4703 45.45 73.1203 22.89 64.9603 0.329956Z" fill="black"/>
<path d="M136.93 424.1C151.803 424.1 163.86 412.043 163.86 397.17C163.86 382.297 151.803 370.24 136.93 370.24C122.057 370.24 110 382.297 110 397.17C110 412.043 122.057 424.1 136.93 424.1Z" fill="#F7F8E2"/>
<path d="M163.85 397.17C164.133 400.751 163.648 404.351 162.43 407.73C161.182 411.17 159.242 414.318 156.73 416.98C154.185 419.659 151.123 421.796 147.73 423.26C144.31 424.711 140.636 425.469 136.92 425.49C133.205 425.465 129.532 424.707 126.11 423.26C122.715 421.796 119.652 419.656 117.11 416.97C114.601 414.31 112.662 411.166 111.41 407.73C110.192 404.351 109.708 400.751 109.99 397.17C110.517 404.122 113.598 410.634 118.64 415.45C123.588 420.107 130.125 422.703 136.92 422.71C143.714 422.704 150.25 420.103 155.19 415.44C160.233 410.627 163.317 404.12 163.85 397.17Z" fill="#231F20"/>
<path d="M163.85 397.17C163.317 390.217 160.233 383.706 155.19 378.89C150.243 374.247 143.714 371.662 136.93 371.66C130.134 371.663 123.596 374.259 118.65 378.92C113.604 383.733 110.522 390.246 110 397.2C109.718 393.616 110.202 390.013 111.42 386.63C112.671 383.194 114.611 380.05 117.12 377.39C119.665 374.71 122.727 372.574 126.12 371.11C129.54 369.658 133.214 368.9 136.93 368.88C140.645 368.9 144.32 369.658 147.74 371.11C151.135 372.57 154.197 374.707 156.74 377.39C159.249 380.05 161.188 383.194 162.44 386.63C163.65 390.004 164.13 393.596 163.85 397.17Z" fill="#231F20"/>
<path d="M136.93 425.42C146.689 425.42 154.6 417.509 154.6 407.75C154.6 397.991 146.689 390.08 136.93 390.08C127.171 390.08 119.26 397.991 119.26 407.75C119.26 417.509 127.171 425.42 136.93 425.42Z" fill="#06080A"/>
<path d="M242.241 424.1C257.114 424.1 269.171 412.043 269.171 397.17C269.171 382.297 257.114 370.24 242.241 370.24C227.368 370.24 215.311 382.297 215.311 397.17C215.311 412.043 227.368 424.1 242.241 424.1Z" fill="#F7F8E2"/>
<path d="M269.171 397.17C269.458 400.751 268.974 404.352 267.751 407.73C266.51 411.174 264.569 414.323 262.051 416.98C259.509 419.664 256.447 421.801 253.051 423.26C249.631 424.713 245.956 425.471 242.241 425.49C238.529 425.465 234.859 424.707 231.441 423.26C228.041 421.802 224.978 419.661 222.441 416.97C219.925 414.315 217.984 411.17 216.741 407.73C215.519 404.351 215.032 400.752 215.311 397.17C215.846 404.122 218.93 410.632 223.971 415.45C228.915 420.106 235.449 422.703 242.241 422.71C249.038 422.706 255.577 420.105 260.521 415.44C265.564 410.629 268.646 404.12 269.171 397.17Z" fill="#231F20"/>
<path d="M269.17 397.17C268.645 390.217 265.564 383.705 260.52 378.89C255.568 374.243 249.031 371.657 242.24 371.66C235.447 371.662 228.912 374.259 223.97 378.92C218.926 383.735 215.841 390.246 215.31 397.2C215.032 393.615 215.52 390.012 216.74 386.63C217.984 383.19 219.924 380.045 222.44 377.39C224.982 374.706 228.044 372.569 231.44 371.11C234.857 369.658 238.528 368.9 242.24 368.88C245.956 368.899 249.631 369.657 253.05 371.11C256.449 372.565 259.512 374.703 262.05 377.39C264.566 380.045 266.507 383.19 267.75 386.63C268.968 390.002 269.453 393.596 269.17 397.17Z" fill="#231F20"/>
<path d="M242.24 425.42C251.999 425.42 259.91 417.509 259.91 407.75C259.91 397.991 251.999 390.08 242.24 390.08C232.481 390.08 224.57 397.991 224.57 407.75C224.57 417.509 232.481 425.42 242.24 425.42Z" fill="#06080A"/>
<path d="M169.301 438.19C169.301 438.19 187.901 413.63 209.881 439.39" stroke="#231F20" stroke-width="3.96" stroke-miterlimit="10" stroke-linecap="round"/>
<path d="M226.711 356.42C226.711 356.42 269.941 355.05 291.281 384.06" stroke="#231F20" stroke-width="4.36" stroke-miterlimit="10" stroke-linecap="round"/>
<path d="M151.55 356.42C151.55 356.42 108.32 355.05 86.9805 384.06" stroke="#231F20" stroke-width="4.36" stroke-miterlimit="10" stroke-linecap="round"/>
</g>
<defs>
<clipPath id="clip0_3770_806">
<rect width="383.61" height="580.78" fill="white"/>
</clipPath>
</defs>
</svg>
