<svg width="1265" height="488" viewBox="0 0 1265 488" fill="none" xmlns="http://www.w3.org/2000/svg">
<g clip-path="url(#clip0_6699_654)">
<path d="M1224.57 223.67V223.54C1224.08 219.22 1223.44 214.89 1222.66 210.67C1222.66 210.633 1222.66 210.596 1222.66 210.56C1222.28 208.56 1221.86 206.48 1221.41 204.47C1221.41 204.47 1221.41 204.31 1221.36 204.23C1220.89 202.13 1220.36 200.05 1219.86 198.03L1219.79 197.79C1219.33 196.01 1218.79 194.16 1218.25 192.28L1217.99 191.39C1217.37 189.39 1216.78 187.51 1216.18 185.73L1216.02 185.29C1215.48 183.71 1214.9 182.09 1214.23 180.29L1213.72 178.94C1212.98 177.01 1212.34 175.4 1211.72 173.94C1211.72 173.85 1211.65 173.77 1211.61 173.69C1211.1 172.47 1210.61 171.25 1210.03 170.04L1209.54 168.98C1209.13 168.08 1208.72 167.19 1208.28 166.26L1207.8 165.26C1207.23 164.07 1206.65 162.9 1206.05 161.73V161.68C1205.45 160.51 1204.84 159.35 1204.2 158.18L1203.67 157.18C1203.19 156.3 1202.67 155.43 1202.21 154.57L1201.67 153.57C1200.35 151.28 1198.97 149 1197.54 146.76L1196.97 145.87C1196.41 145.01 1195.85 144.15 1195.28 143.29L1194.73 142.47C1193.25 140.29 1191.73 138.1 1190.09 135.94L1189.53 135.2C1188.89 134.34 1188.23 133.48 1187.53 132.6L1187.01 131.94C1185.36 129.84 1183.63 127.75 1181.89 125.73L1181.34 125.09C1180.59 124.24 1179.84 123.39 1179.08 122.55L1178.61 122.02C1176.79 120.02 1174.89 118.02 1173 116.13L1172.48 115.62C1171.69 114.83 1170.89 114.05 1170.14 113.33L1169.52 112.73C1167.52 110.84 1165.52 108.96 1163.38 107.14L1162.97 106.79C1161.97 105.97 1161.06 105.15 1160.09 104.35L1159.79 104.11C1159.19 103.61 1158.58 103.11 1158.02 102.67L1157.68 102.39C1156.27 101.27 1154.89 100.19 1153.55 99.1898L1152.85 98.66C1151.79 97.87 1150.71 97.0897 1149.69 96.3597L1149.45 96.18C1147.14 94.55 1144.76 92.94 1142.37 91.41L1142.12 91.2396C1140.96 90.4996 1139.79 89.7699 1138.61 89.0599L1138.52 88.9998C1136.09 87.5198 1133.57 86.0698 1130.99 84.6698L1130.83 84.5799C1129.6 83.9199 1128.37 83.2697 1127.12 82.6297H1127.05C1124.5 81.3197 1121.85 80.0499 1119.26 78.8699L1119.01 78.7596C1117.71 78.1696 1116.39 77.5999 1115.07 77.0399C1092.8 67.6304 1068.87 62.8044 1044.7 62.8499C944.88 62.8499 863.7 144.06 863.7 243.85C863.653 268.792 868.795 293.472 878.8 316.32C882.282 324.266 886.33 331.952 890.91 339.32L890.99 339.45C892.91 342.53 894.9 345.53 896.9 348.35L897.79 349.59L898.18 350.12C898.77 350.94 899.37 351.75 899.99 352.58L900.27 352.95C901.17 354.14 902.09 355.31 903.02 356.49L904.02 357.78C904.67 358.58 905.33 359.38 906.02 360.16L907.02 361.33C907.92 362.39 908.84 363.43 909.76 364.46L910.3 365.07C910.95 365.79 911.62 366.51 912.3 367.22L912.66 367.61C913.32 368.31 913.98 369.01 914.66 369.74L914.95 370.04C915.72 370.83 916.49 371.61 917.26 372.37L917.99 373.09C918.99 374.02 919.89 374.93 920.87 375.86L921.87 376.81C922.53 377.41 923.19 378.02 923.87 378.6L925.56 380.1C926.56 381.01 927.65 381.9 928.67 382.76L929.32 383.3L930.48 384.3L932.21 385.69L933.34 386.59L934.65 387.59C935.51 388.26 936.38 388.91 937.26 389.59L939.26 391.04L941.11 392.35L941.77 392.81L942.51 393.31L944.22 394.48L945.64 395.41L953.83 382.84L945.72 395.46L946.65 396.07C947.23 396.45 947.81 396.81 948.4 397.18L948.86 397.47L950.18 398.3L951.93 399.35L953.51 400.29L955.17 401.29L957.33 402.5L959.61 403.74L961.61 404.8L963.25 405.64L964.54 406.29L966.72 407.35L969.52 408.66L969.8 408.79L971.27 409.44L973.55 410.44L974.61 410.89L975.23 411.15L977.35 412.01L978.74 412.57L980.74 413.34L982.18 413.89L984.98 414.89L987.39 415.71L989.39 416.37L991.14 416.93C992.36 417.31 993.59 417.67 994.81 418.02L995.97 418.34L998.76 419.1L1000.65 419.59L1003.06 420.17L1004.01 420.39L1005.27 420.67C1005.27 420.67 1007.45 421.15 1007.87 421.23L1009.3 421.52L1011.01 421.86L1013.22 422.25C1014.22 422.42 1015.13 422.58 1016.09 422.73L1017.26 422.92C1018.59 423.12 1019.92 423.3 1021.26 423.48L1022.7 423.66L1025.51 423.97L1027.65 424.19H1027.97L1030.42 424.4H1030.82L1032.29 424.5L1033.66 424.59L1034.93 424.66L1036.13 424.72L1038.55 424.82L1040.47 424.87C1041.86 424.87 1043.26 424.92 1044.66 424.92C1046.48 424.92 1048.38 424.92 1050.49 424.82L1051.7 424.77H1052.2C1053.58 424.72 1054.97 424.65 1056.35 424.56L1058.2 424.43C1059.57 424.33 1060.93 424.21 1062.3 424.08L1063.98 423.91C1065.48 423.75 1066.98 423.57 1068.43 423.38H1068.56L1069.35 423.29L1069.84 423.21C1114.44 416.997 1155.1 394.333 1183.84 359.67L1184.12 359.34C1187.12 355.77 1189.97 351.98 1192.72 348.08C1195.05 344.77 1197.29 341.36 1199.37 337.93L1199.42 337.85C1200.48 336.11 1201.51 334.36 1202.42 332.69L1202.53 332.48C1203.53 330.76 1204.43 329.03 1205.28 327.4C1205.34 327.29 1205.4 327.18 1205.45 327.07C1206.3 325.43 1207.15 323.72 1207.98 321.98L1208.34 321.22C1209.16 319.49 1209.9 317.88 1210.6 316.27L1210.73 315.98C1211.42 314.39 1212.11 312.72 1212.83 310.91C1212.99 310.51 1213.15 310.11 1213.29 309.74C1214.06 307.74 1214.68 306.11 1215.24 304.54L1215.31 304.32C1221.78 286.024 1225.26 266.804 1225.61 247.4C1225.61 246.24 1225.61 245.09 1225.61 243.92C1225.64 237.156 1225.29 230.395 1224.57 223.67Z" fill="#231F20"/>
<path d="M1210.7 243.9C1210.7 244.96 1210.7 246.01 1210.7 247.06C1210.39 264.936 1207.18 282.643 1201.19 299.49C1194.69 317.784 1185.02 334.793 1172.63 349.74C1157.07 368.586 1137.53 383.755 1115.41 394.159C1093.3 404.564 1069.15 409.946 1044.71 409.92C1000.68 409.92 958.461 392.431 927.33 361.3C896.199 330.169 878.71 287.946 878.71 243.92C878.71 199.894 896.199 157.671 927.33 126.54C958.461 95.409 1000.68 77.9199 1044.71 77.9199C1077.4 77.9149 1109.36 87.5554 1136.59 105.634C1163.82 123.712 1185.12 149.425 1197.8 179.55C1206.35 199.924 1210.74 221.804 1210.7 243.9Z" fill="#51A898"/>
<path d="M1197.75 179.5C1180.89 139.561 1149.12 107.77 1109.19 90.8799C1116.14 100.69 1122.01 111.229 1126.68 122.31C1135.26 142.696 1139.66 164.594 1139.63 186.71C1139.63 187.77 1139.63 188.82 1139.63 189.87C1139.31 207.745 1136.1 225.45 1130.12 242.3C1123.62 260.594 1113.95 277.603 1101.56 292.55C1086 311.395 1066.46 326.563 1044.34 336.967C1022.22 347.372 998.081 352.755 973.64 352.73C951.48 352.757 929.54 348.337 909.12 339.73C924.444 361.436 944.76 379.143 968.357 391.358C991.953 403.573 1018.14 409.939 1044.71 409.92C1069.15 409.946 1093.3 404.564 1115.41 394.159C1137.53 383.755 1157.07 368.586 1172.63 349.74C1185.02 334.793 1194.69 317.784 1201.19 299.49C1207.18 282.643 1210.39 264.936 1210.7 247.06C1210.7 246.01 1210.7 244.96 1210.7 243.9C1210.73 221.784 1206.33 199.886 1197.75 179.5Z" fill="#3A9180"/>
<path d="M1169.89 134.88C1161.18 124.869 1151.3 115.935 1140.46 108.27C1064.38 78.4304 994.29 145.97 994.29 145.97L1044.66 160.47C1092.32 115.21 1146.27 126.56 1169.89 134.88Z" fill="#71C8B7"/>
<path d="M1144.73 111.4C1143.32 110.334 1141.9 109.29 1140.46 108.27C1064.38 78.4304 994.29 145.97 994.29 145.97L1003.81 148.71L1020.47 146.53C1020.47 146.53 1076 93.7803 1144.73 111.4Z" fill="#B7E1D9"/>
<path d="M1004.76 140.14C967.76 137.64 910.25 161.8 894.85 209.27C884.446 242.049 883.62 277.118 892.47 310.35C905.403 339.952 926.689 365.14 953.721 382.827C980.752 400.514 1012.36 409.934 1044.66 409.93C1052.24 409.933 1059.81 409.421 1067.32 408.4C929.46 396.4 912.8 291.26 912.32 256.88C911.8 221.88 930.13 166.08 999.75 165.08C1068.82 164.08 1086.31 204.42 1081.94 243.9C1077.87 280.58 1047.76 298.41 1008.94 296.66C983.55 295.52 968.27 277.91 969.16 250.76C970.03 224.1 992.83 212.38 1008.1 212.38C1024.72 212.38 1033.98 220.94 1032.98 236.77C1031.72 256.86 1017.25 258.63 1017.25 258.63C1017.25 258.63 1042.14 265.63 1047.55 235.72C1053.04 205.4 1033.55 196.37 1014.82 193.04C996.09 189.71 957.77 191.04 945.69 243.91C933.61 296.78 982.34 322.97 1008.99 321.72C1035.64 320.47 1089.78 318.51 1100.99 243.91C1112.2 169.31 1041.84 142.64 1004.76 140.14Z" fill="#71C8B7"/>
<path d="M1046.27 213.41C1041.14 200.41 1027.79 195.34 1014.78 193.03C996.04 189.7 957.73 191.03 945.65 243.9C942.59 257.31 943.44 269 946.85 278.97C954.4 239.25 958.18 234.51 967.85 220.58C995.02 181.37 1046.27 213.41 1046.27 213.41Z" fill="#B7E1D9"/>
<path d="M1004.76 140.14C967.76 137.64 910.25 161.8 894.85 209.27C888.271 229.819 885.489 251.394 886.64 272.94C888.64 258.13 907.24 169.84 975.22 155.94C1048.78 140.94 1096.62 199.02 1097.16 199.67C1081.55 158.3 1033.26 142.06 1004.76 140.14Z" fill="#B7E1D9"/>
<path d="M1210.7 243.9C1210.7 244.96 1210.7 246.01 1210.7 247.06C1194.44 259.95 1170.5 273 1146.83 264.24C1105.18 248.84 1106.83 216.76 1108.51 197.73C1110.19 178.7 1127.67 158.46 1151.82 168.46C1175.97 178.46 1160.1 197.86 1160.1 197.86C1160.1 197.86 1160.1 179.49 1140.96 182.77C1117.68 186.77 1125.04 226.05 1145.54 232.28C1167.78 239.03 1197.78 237.2 1197.78 179.5C1206.35 199.888 1210.74 221.786 1210.7 243.9Z" fill="#71C8B7"/>
<path d="M1197.75 179.5C1197.75 237.2 1167.75 239.03 1145.51 232.28C1140.78 230.71 1136.65 227.691 1133.73 223.65C1133.73 223.65 1139.73 250.91 1181.78 241.34C1192.49 238.971 1202.21 233.388 1209.66 225.34C1207.92 209.566 1203.91 194.127 1197.75 179.5Z" fill="#B7E1D9"/>
<path d="M1201.16 299.49C1194.66 317.784 1184.99 334.793 1172.6 349.74C1149.4 366 1121.82 364.59 1103.35 348.23C1086.91 333.68 1086.74 319.67 1088.92 303.23C1091.1 286.79 1107.82 268.86 1125.64 270.74C1144.56 272.74 1151.19 279.74 1149.85 297.11C1148.2 318.49 1126.08 315.31 1126.08 315.31C1126.08 315.31 1139.32 306.37 1136.82 292.81C1134.32 279.25 1109.96 281.67 1107.82 303.01C1105.56 325.89 1116.42 333.96 1139.29 336.72C1159.05 339.09 1184.21 317.29 1201.16 299.49Z" fill="#71C8B7"/>
<path d="M1139.3 336.701C1121.47 334.551 1110.94 329.17 1108.24 316.07L1107.83 315.92C1107.83 315.92 1106.55 338.1 1139.58 343.92C1154.21 346.5 1168.78 343.521 1180.49 339.411C1189.16 327.107 1196.12 313.676 1201.16 299.49C1184.21 317.29 1159.05 339.091 1139.3 336.701Z" fill="#B7E1D9"/>
<path d="M1015.83 392.016C1019.85 384.276 1012.3 372.396 998.975 365.484C985.651 358.571 971.593 359.242 967.577 366.983C963.561 374.724 971.108 386.603 984.433 393.516C997.757 400.429 1011.81 399.757 1015.83 392.016Z" fill="white"/>
<path d="M1029.93 388.58C1033.92 388.58 1037.16 385.343 1037.16 381.35C1037.16 377.357 1033.92 374.12 1029.93 374.12C1025.94 374.12 1022.7 377.357 1022.7 381.35C1022.7 385.343 1025.94 388.58 1029.93 388.58Z" fill="white"/>
<path d="M971.377 122.729C980.541 117.438 985.953 109.656 983.465 105.346C980.977 101.037 971.531 101.832 962.367 107.123C953.203 112.414 947.791 120.197 950.279 124.506C952.767 128.816 962.213 128.02 971.377 122.729Z" fill="white"/>
<path d="M995.02 114.24C998.444 114.24 1001.22 111.464 1001.22 108.04C1001.22 104.616 998.444 101.84 995.02 101.84C991.596 101.84 988.82 104.616 988.82 108.04C988.82 111.464 991.596 114.24 995.02 114.24Z" fill="white"/>
<path d="M1189.09 314.274C1194.91 301.65 1195.26 289.402 1189.87 286.915C1184.48 284.429 1175.39 292.646 1169.57 305.269C1163.75 317.892 1163.4 330.141 1168.79 332.627C1174.18 335.114 1183.27 326.897 1189.09 314.274Z" fill="white"/>
<path d="M472.57 313.58C472.57 312.38 472.52 311.19 472.48 309.98C472.39 307.55 472.24 305.04 472.04 302.54C471.77 299.08 471.39 295.63 470.91 292.3C470.72 290.93 470.5 289.57 470.28 288.21C469.96 286.35 469.61 284.46 469.28 282.62C469 281.24 468.7 279.88 468.39 278.53C467.39 274.03 466.1 269.53 464.67 265.21C464.32 264.13 463.95 263.05 463.57 261.97C460.174 252.342 455.738 243.115 450.34 234.45C449.58 233.23 448.75 231.97 447.75 230.45C442.963 223.368 437.472 216.787 431.36 210.81C429.75 209.25 428.07 207.7 426.36 206.22C424.65 204.74 422.88 203.27 421.1 201.89C420.04 201.07 418.92 200.23 417.57 199.26C415.41 197.71 413.17 196.2 410.88 194.78C409.36 193.83 408.06 193.05 406.8 192.33C405.8 191.76 404.8 191.21 403.8 190.66C398.875 188.046 393.78 185.764 388.55 183.83L386.76 183.18C383.98 182.18 381.11 181.3 378.23 180.51L376.52 180.04C366.926 177.552 357.101 176.067 347.2 175.61C345.28 175.52 343.34 175.48 341.44 175.48C335.571 175.473 329.709 175.925 323.91 176.83C322.68 177.03 321.46 177.24 320.25 177.48C310.982 179.287 301.994 182.314 293.52 186.48C292.52 186.98 291.52 187.48 290.52 188.02C288.57 189.02 286.61 190.17 284.7 191.32C281.94 193 279.18 194.83 276.5 196.76C274.79 198 273.07 199.31 271.38 200.67C270.54 201.34 269.72 202.01 268.91 202.67C267.32 204 265.73 205.4 264.17 206.83C259.244 211.392 254.602 216.251 250.27 221.38C250.41 220.7 250.57 220.03 250.7 219.38C250.77 219 250.84 218.62 250.9 218.25C251.717 213.628 252.132 208.944 252.14 204.25C252.14 186.36 249.54 159.99 237.14 136.03C224.54 111.66 197.72 82.6201 141.54 82.6201H140.94C135.94 82.6201 130.68 82.8901 125.35 83.3701C105.47 85.1601 87.9401 89.3701 73.2401 95.8901C72.2401 96.3401 71.2401 96.79 70.2401 97.25C62.1942 101.044 54.6775 105.872 47.8801 111.61C47.1901 112.2 46.5201 112.79 45.8801 113.4C42.703 116.276 39.7447 119.384 37.03 122.7C34.541 125.747 32.2689 128.965 30.2301 132.33C29.4701 133.58 28.73 134.88 28.04 136.17C27.7 136.82 27.36 137.47 27.04 138.11C26.41 139.36 25.8101 140.65 25.2501 141.92C24.4501 143.74 23.71 145.62 23.04 147.48C22.62 148.67 22.2201 149.88 21.8501 151.08C19.2677 159.483 18.0193 168.24 18.1501 177.03C18.1501 177.61 18.1501 178.21 18.2101 178.78C18.2801 180.59 18.4101 182.44 18.5801 184.27C18.6401 184.88 18.7 185.5 18.78 186.15C18.92 187.39 19.0801 188.66 19.2701 189.92C19.6301 192.32 20.0801 194.77 20.6101 197.2C20.9601 198.78 21.35 200.38 21.78 201.96C22.65 205.18 23.67 208.36 24.78 211.39C25.27 212.7 25.7801 214.02 26.3701 215.34C27.5101 218.02 28.7801 220.65 30.1301 223.14C30.8301 224.44 31.5701 225.73 32.3301 226.99C33.0901 228.25 34.1301 229.85 35.1501 231.33C35.7701 232.22 36.4001 233.11 37.0601 233.99C38.8163 236.322 40.6921 238.562 42.6801 240.7C43.2001 241.27 43.74 241.83 44.28 242.38C45.22 243.38 46.0401 244.13 46.8401 244.87C48.0101 245.96 49.2401 247.03 50.4901 248.06C51.7401 249.09 53.0601 250.06 54.3901 251.06C60.7302 255.612 67.6912 259.228 75.0601 261.8C66.8801 262.24 58.3467 262.46 49.4601 262.46C22.7301 262.46 2.78009 260.37 2.22009 260.31C1.66009 260.25 1.13009 260.23 0.590088 260.23H0.0500488V291.05C13.7 295.96 52.6701 308.31 99.2501 308.31C117.429 308.389 135.554 306.325 153.25 302.16C179.34 295.89 198.54 286.71 212.69 276.44C212.26 277.02 211.85 277.55 211.47 278.02C210.47 279.25 209.4 280.55 208.31 281.9C199.98 292.28 190.54 304.03 168.13 314.04C139.94 326.63 97.6701 333.04 42.5101 333.04C39.0202 333.041 35.6398 334.259 32.9512 336.484C30.2625 338.709 28.4338 341.802 27.78 345.23C27.1251 348.659 27.6868 352.209 29.3679 355.268C31.0491 358.327 33.7446 360.704 36.9901 361.99C38.4501 362.56 73.25 376.13 117.66 376.13C170.34 376.13 214.41 357.06 246.24 320.74C245.99 322.11 245.77 323.51 245.58 324.91C245.45 325.84 245.34 326.79 245.23 327.74C244.813 331.673 244.596 335.625 244.58 339.58C244.58 342.65 244.66 345.82 244.87 349.01C245.281 355.399 246.286 361.737 247.87 367.94C248.12 368.94 248.39 369.94 248.67 370.88C250.034 375.591 251.773 380.186 253.87 384.62C254.28 385.49 254.71 386.34 255.14 387.19L255.57 387.98C255.35 387.86 255.13 387.73 254.9 387.62C241.894 380.839 227.796 376.4 213.25 374.51H213.1C211.2 374.27 209.24 374.05 207.1 373.84L206.5 373.78C204.7 373.61 202.85 373.47 200.84 373.34H199.98C198.2 373.24 196.37 373.16 194.52 373.11H193.6C192.2 373.11 190.81 373.06 189.42 373.06H187.42C185.5 373.06 183.73 373.13 182.03 373.2H181.42C179.42 373.29 177.59 373.4 175.84 373.53H175.69C173.97 373.66 172.2 373.82 170.28 374.02L169.74 374.08C168.09 374.26 166.39 374.47 164.57 374.72L163.78 374.83C162.17 375.05 160.5 375.31 158.78 375.6L157.92 375.74C156.29 376.03 154.67 376.33 153.05 376.66L152.27 376.82C150.64 377.15 149.02 377.5 147.4 377.88L146.85 378.01C145.06 378.43 143.43 378.84 141.85 379.27H141.75C140.11 379.71 138.49 380.16 136.92 380.62L136.45 380.76C134.883 381.22 133.34 381.697 131.82 382.19L131.14 382.41C129.65 382.9 128.14 383.41 126.73 383.91L125.99 384.17C124.53 384.69 123.09 385.22 121.67 385.76L121.02 386.01C119.57 386.57 118.13 387.14 116.72 387.72L116.25 387.91C114.77 388.53 113.25 389.15 111.85 389.79H111.77C110.31 390.43 108.87 391.09 107.41 391.79L107.17 391.9C105.78 392.55 104.41 393.22 103.08 393.9L102.59 394.14C101.27 394.8 99.9701 395.46 98.6801 396.14L98.17 396.4C96.89 397.08 95.63 397.76 94.42 398.4L93.9401 398.66C92.6701 399.37 91.4101 400.08 90.1401 400.81L89.92 400.94C87.38 402.42 84.8301 403.94 82.3501 405.54L82.2401 405.6C81.0301 406.37 79.8501 407.14 78.6801 407.91L78.4501 408.06C77.3101 408.81 76.1901 409.57 75.0901 410.33L74.8201 410.51C73.7201 411.27 72.6301 412.03 71.6101 412.76C71.6101 412.76 71.3601 412.93 71.3601 412.94C70.2801 413.71 69.21 414.49 68.17 415.26C62.3 419.62 56.6401 424.26 51.3801 428.95C48.5954 431.451 46.8461 434.902 46.4761 438.627C46.106 442.352 47.1419 446.08 49.3801 449.08C50.7773 450.943 52.589 452.455 54.6719 453.497C56.7547 454.538 59.0514 455.08 61.3801 455.08C64.1401 455.084 66.8471 454.322 69.2001 452.88C92.0701 438.88 121.2 432.64 146.07 429.99C145.21 430.53 144.37 431.08 143.54 431.65C140.555 433.705 137.743 435.999 135.13 438.51C131.252 442.252 127.829 446.437 124.93 450.98C124.59 451.52 124.25 452.06 123.93 452.61C123.48 453.35 123.06 454.09 122.65 454.82C122.24 455.55 121.87 456.25 121.5 456.96C121.13 457.67 120.76 458.42 120.41 459.16C119.74 460.57 119.09 462.06 118.47 463.58C118.11 464.473 117.777 465.363 117.47 466.25C115.758 470.968 114.46 475.827 113.59 480.77L113.51 481.27C113.143 483.443 112.857 485.593 112.65 487.72H167.22C168.3 480.18 171.46 474.79 176.79 471.32C180.354 469.082 184.384 467.693 188.57 467.26C188.885 467.267 189.2 467.244 189.51 467.19H190.09C192.52 467.19 195.94 467.79 197.57 469.47C199.57 471.47 199.7 475.96 199.62 478.47C199.629 479.846 199.41 481.215 198.97 482.52C198.314 482.667 197.642 482.731 196.97 482.71C194.658 482.653 192.368 482.241 190.18 481.49C188.497 480.845 186.712 480.506 184.91 480.49C182.698 480.491 180.514 480.981 178.514 481.925C176.514 482.869 174.747 484.243 173.34 485.95C172.876 486.511 172.454 487.106 172.08 487.73H309.34C309.55 486.08 309.72 484.42 309.85 482.73V482.42C310.245 477.204 310.245 471.966 309.85 466.75C309.07 456.59 305.07 442.16 296.62 427.75C298.08 428.52 299.55 429.27 301.06 429.97C302.57 430.67 303.84 431.25 305.26 431.85C306.68 432.45 308.04 433 309.45 433.54L311.53 434.31C313.53 435.05 315.65 435.74 317.73 436.38L320.34 437.14C323.96 438.14 327.64 439.02 331.28 439.71C333.28 440.1 335.34 440.43 337.28 440.71C338.44 440.86 339.57 441 340.66 441.12H341.05C344.339 441.471 347.643 441.651 350.95 441.66C363.898 441.738 376.803 440.158 389.35 436.96C390.35 436.69 391.35 436.42 392.4 436.13L394.91 435.38C399.937 433.822 404.854 431.931 409.63 429.72C412.03 428.61 414.41 427.4 416.71 426.12C418.26 425.26 419.81 424.35 421.3 423.42C426.237 420.338 430.901 416.839 435.24 412.96C436.39 411.96 437.39 410.96 438.31 410.11C442.328 406.205 446.008 401.966 449.31 397.44C449.88 396.67 450.43 395.89 450.97 395.1C457.231 385.911 462.103 375.849 465.43 365.24C466.43 362.24 467.3 359.01 468.08 355.82C469.374 350.391 470.375 344.896 471.08 339.36C471.41 336.77 471.69 334.18 471.9 331.67C472.429 325.655 472.652 319.618 472.57 313.58ZM185.35 196.05C181.29 164.23 161.74 156.59 150.46 154.88C149.89 154.79 149.32 154.71 148.74 154.65C146.941 154.448 145.131 154.348 143.32 154.35C137.405 154.409 131.527 155.301 125.86 157L125.14 157.21C122.98 157.85 120.81 158.6 118.7 159.44L118.01 159.71C116.54 160.31 115.11 160.93 113.78 161.57C102.88 166.75 103.78 175.91 104.25 178.57C104.914 181.987 106.745 185.067 109.431 187.282C112.117 189.497 115.489 190.709 118.97 190.71C131.11 190.71 131.83 195.21 132.31 198.18C132.95 202.18 132.54 205.61 131.25 207.13C129.74 208.9 125.53 209.96 119.98 209.96C109.57 209.96 101.87 207.49 97.1101 202.62C92.0401 197.44 89.6101 188.82 89.8701 176.99C90.1101 166.46 94.9401 158.53 104.64 152.75C110.02 149.633 115.89 147.451 122 146.3C122.75 146.23 125.14 146.05 128.6 146.05C156.47 146.05 189.99 155.37 191.43 199.77C191.79 210.94 188.66 220.28 181.87 228.23C185.32 219.72 187.01 209.12 185.35 196.05ZM318.74 318.72C322.09 315.34 326.61 314.63 329.82 314.63C330.639 314.628 331.458 314.681 332.27 314.79C332.936 314.99 333.625 315.097 334.32 315.11H335.08C339.81 315.44 345.35 318.54 345.35 331.26C345.351 334.585 346.456 337.815 348.493 340.443C350.529 343.072 353.381 344.949 356.6 345.78C357.825 346.097 359.085 346.258 360.35 346.26C363.029 346.259 365.659 345.54 367.966 344.179C370.273 342.818 372.173 340.864 373.47 338.52C374.522 336.573 375.467 334.57 376.3 332.52C376.46 332.13 376.63 331.72 376.8 331.29C377.42 329.73 378 328.13 378.52 326.52C378.94 325.21 379.31 323.96 379.64 322.74C379.84 321.98 380.03 321.21 380.22 320.39L380.34 319.88C380.5 319.16 380.65 318.43 380.79 317.69L380.87 317.26C381.02 316.45 381.15 315.63 381.26 314.85L381.32 314.43C381.51 313.01 381.65 311.59 381.74 310.21C381.81 309.11 381.84 308.01 381.85 306.94C381.86 305.87 381.85 304.74 381.75 303.65C381.75 303.08 381.66 302.5 381.61 301.97C381.49 300.79 381.34 299.63 381.14 298.53C380.509 294.863 379.389 291.299 377.81 287.93C377.243 286.726 376.615 285.551 375.93 284.41C374.876 282.651 373.682 280.979 372.36 279.41C365.54 271.25 355.42 265.67 342.26 262.83C334.999 261.247 327.591 260.439 320.16 260.42C318.71 260.42 317.25 260.42 315.83 260.52C314.41 260.62 312.83 260.69 311.42 260.82C308.491 261.097 305.577 261.52 302.69 262.09C301.96 262.23 301.24 262.39 300.53 262.55L298.8 262.96C317.58 249.84 330.8 249.24 333.04 249.24H333.09C333.305 249.272 333.522 249.289 333.74 249.29H334.42C346.052 249.762 357.375 253.175 367.33 259.21C387.82 271.81 398.68 294.86 399.63 327.7C400.04 341.92 396.63 352.59 389.1 360.3C375.6 374.19 352.64 374.59 350.1 374.59C345.96 374.2 312.3 370.23 312.1 344.23C311.93 332.05 314.25 323.21 318.74 318.72Z" fill="#231F20"/>
<path d="M235.08 479.84C234.984 482.544 234.506 485.221 233.66 487.79H212.84C213.867 484.962 214.408 481.979 214.44 478.97C215.44 449.29 187.8 452.34 187.8 452.34C187.8 452.34 155.52 453.42 151.95 487.79H127.56C129.81 468.13 142.02 434.97 186.97 433.79C230.94 432.62 235.22 466.45 235.08 479.84Z" fill="#51A898"/>
<path d="M294.21 487.79H257C258.042 482.744 258.438 477.586 258.18 472.44C255.93 418.68 203.37 414.11 203.37 414.11C203.37 414.11 117 406.01 61.25 440.11C63.45 438.11 65.8499 436.11 68.4199 433.98L69.61 432.98L70.83 431.98L72.0699 430.98L73.34 429.98C74.2 429.32 75.07 428.65 75.95 427.98L77.2999 426.98L78.6599 425.98C79.5799 425.31 80.52 424.64 81.47 423.98C82.47 423.32 83.37 422.65 84.35 421.98C86.8766 420.26 89.5133 418.547 92.26 416.84L93.62 416.01L95.25 415.01C96.88 414.01 98.56 413.06 100.25 412.11L101.96 411.11L103.7 410.17L105.46 409.24L107.24 408.32L109.04 407.411L110.86 406.51L112.71 405.621C115.183 404.447 117.71 403.31 120.29 402.21C121.58 401.66 122.89 401.131 124.21 400.601C130.296 398.172 136.504 396.063 142.81 394.28L144.89 393.701L147.23 393.09L149.35 392.57L151.05 392.161L152.85 391.76L155.52 391.19L157.83 390.74C158.65 390.58 159.48 390.43 160.31 390.29C162.18 389.96 164.08 389.66 165.99 389.4C166.67 389.3 167.35 389.201 167.99 389.121L170.18 388.851L171.51 388.701C173.043 388.541 174.583 388.4 176.13 388.28C176.72 388.23 177.32 388.18 177.92 388.15L179.05 388.07L181.21 387.951L183.91 387.84L185.72 387.79C194.202 387.607 202.687 388.065 211.1 389.161C277.37 398.361 293.63 451.38 294.88 467.77C295.398 474.448 295.173 481.162 294.21 487.79Z" fill="#51A898"/>
<path d="M235.08 479.84C234.984 482.544 234.506 485.221 233.66 487.79H222.35C223.321 484.476 223.954 481.072 224.24 477.63C227.67 441.21 189.84 443.21 184.84 444.11C180.28 444.94 143.05 446.79 139.03 487.79H127.61C129.86 468.13 142.07 434.97 187.02 433.79C230.94 432.62 235.22 466.45 235.08 479.84Z" fill="#B7E1D9"/>
<path d="M294.21 487.79H278.77C278.77 487.3 278.77 486.79 278.77 486.31C278.77 420.79 237.59 401.94 203.28 399.12C196.7 398.58 184.28 399.18 169.37 401.12C158.77 402.49 146.86 404.54 134.78 407.32C110.2 412.98 84.9001 421.69 68.3701 434.05L69.5601 433.05L70.78 432.05L72.0201 431.05L73.29 430.05C74.15 429.39 75.0201 428.72 75.9001 428.05L77.2501 427.05L78.6101 426.05C79.5301 425.38 80.47 424.71 81.42 424.05L84.3 422.05C86.8267 420.33 89.4634 418.617 92.2101 416.91L93.5701 416.08L95.2001 415.08C96.8301 414.08 98.5001 413.14 100.2 412.18L101.91 411.18L103.65 410.24L105.41 409.31L107.19 408.39L108.99 407.48L110.81 406.58L112.66 405.69C115.133 404.517 117.66 403.38 120.24 402.28C121.53 401.73 122.84 401.2 124.16 400.67C130.246 398.242 136.455 396.132 142.76 394.35L144.84 393.77L147.18 393.16L149.3 392.64L151 392.23L152.8 391.83L155.47 391.26L157.78 390.81C158.6 390.65 159.43 390.5 160.26 390.36C162.13 390.03 164.03 389.73 165.94 389.47C166.62 389.37 167.3 389.27 167.94 389.19L170.13 388.92L171.46 388.77C172.993 388.61 174.533 388.47 176.08 388.35C176.67 388.3 177.27 388.25 177.87 388.22L179 388.14L181.16 388.02L183.86 387.91L185.67 387.86C194.152 387.676 202.637 388.134 211.05 389.23C277.32 398.43 293.58 451.45 294.83 467.84C295.359 474.492 295.152 481.183 294.21 487.79Z" fill="#B7E1D9"/>
<path d="M118.97 175.73C126.51 175.73 144.1 176.98 147.12 195.84C149.12 208.4 145.83 224.98 119.98 224.98C94.1301 224.98 74.0801 212.22 74.8801 176.68C75.7501 137.54 120.12 131.44 120.12 131.44C120.12 131.44 203.91 121.96 206.42 199.3C209.62 297.82 0.550049 275.25 0.550049 275.25C0.550049 275.25 74.6401 305.68 149.74 287.61C224.84 269.54 237.04 226.74 237.04 204.27C237.04 181.8 233.04 88.7404 126.6 98.3304C37.0701 106.4 32.7401 162.91 33.0701 176.67C33.8301 208.92 53.36 257.15 118.79 251.93C118.79 251.93 177.04 249.52 170.47 197.93C164.53 151.34 118.97 175.73 118.97 175.73Z" fill="#51A898"/>
<path d="M149.74 287.61C224.85 269.55 237.04 226.74 237.04 204.27C237.04 181.8 233.04 88.7404 126.6 98.3304C37.0701 106.4 32.7401 162.91 33.0701 176.67C33.8301 208.92 53.36 257.15 118.79 251.93C118.79 251.93 177.04 249.52 170.47 197.93C164.53 151.32 118.97 175.71 118.97 175.71C118.97 175.71 156.1 165.34 159.5 198.39C162.9 231.44 123.32 238.61 118.79 238.61C114.26 238.61 64.9901 241.83 57.5901 186.05C50.1901 130.27 112.43 116.13 125.68 115.22C136.44 114.48 211.85 104.27 223.94 186.51C237.04 275.62 92.48 302.26 0.550049 275.23C0.550049 275.21 74.6401 305.68 149.74 287.61Z" fill="#B7E1D9"/>
<path d="M42.51 348.041C42.51 348.041 173.67 399.941 245.76 297.041C292.32 230.611 334.21 234.22 334.21 234.22C334.21 234.22 411.9 232.75 414.62 327.22C416.48 391.72 349.29 389.541 349.29 389.541C349.29 389.541 297.36 385.931 297.02 344.311C296.6 292.041 335.22 300.081 335.22 300.081C335.22 300.081 360.35 300.08 360.35 331.24C360.35 331.24 384.71 287.32 339.1 277.47C298.88 268.79 255.82 286.401 259.83 348.041C263.84 409.681 323.56 426.74 350.98 426.74C402.16 426.74 450.9 402.27 456.98 330.49C463.06 258.71 422.56 194.301 346.4 190.641C270.24 186.981 240.33 266.641 223.01 287.641C205.69 308.641 182.35 348.041 42.51 348.041Z" fill="#51A898"/>
<path d="M158.13 345.101C204.74 328.201 223.48 310.831 260.04 253.711C296.6 196.591 349.15 211.21 364.69 217.15C380.23 223.09 433.69 246.851 433.24 333.681C432.79 420.511 351.44 409.541 345.95 409.541C340.46 409.541 277.95 405.44 279.23 328.65C280.15 273.81 378.86 273.36 360.35 331.24C360.35 331.24 384.71 287.32 339.1 277.47C298.88 268.79 255.82 286.401 259.83 348.041C263.84 409.681 323.56 426.74 350.98 426.74C402.16 426.74 450.9 402.27 456.98 330.49C463.06 258.71 422.56 194.301 346.4 190.641C270.24 186.981 240.33 266.641 223.01 287.641C205.69 308.641 182.34 348.07 42.5 348.07C42.51 348.04 115.07 360.721 158.13 345.101Z" fill="#B7E1D9"/>
<path d="M235.08 479.84C234.984 482.544 234.506 485.221 233.66 487.79H212.84C213.867 484.962 214.408 481.979 214.44 478.97C215.44 449.29 187.8 452.34 187.8 452.34C187.8 452.34 155.52 453.42 151.95 487.79H127.56C129.81 468.13 142.02 434.97 186.97 433.79C230.94 432.62 235.22 466.45 235.08 479.84Z" fill="#476FB6"/>
<path d="M294.21 487.79H257C258.042 482.744 258.438 477.586 258.18 472.44C255.93 418.68 203.37 414.11 203.37 414.11C203.37 414.11 117 406.01 61.25 440.11C63.45 438.11 65.8499 436.11 68.4199 433.98L69.61 432.98L70.83 431.98L72.0699 430.98L73.34 429.98C74.2 429.32 75.07 428.65 75.95 427.98L77.2999 426.98L78.6599 425.98C79.5799 425.31 80.52 424.64 81.47 423.98C82.47 423.32 83.37 422.65 84.35 421.98C86.8766 420.26 89.5133 418.547 92.26 416.84L93.62 416.01L95.25 415.01C96.88 414.01 98.56 413.06 100.25 412.11L101.96 411.11L103.7 410.17L105.46 409.24L107.24 408.32L109.04 407.411L110.86 406.51L112.71 405.621C115.183 404.447 117.71 403.31 120.29 402.21C121.58 401.66 122.89 401.131 124.21 400.601C130.296 398.172 136.504 396.063 142.81 394.28L144.89 393.701L147.23 393.09L149.35 392.57L151.05 392.161L152.85 391.76L155.52 391.19L157.83 390.74C158.65 390.58 159.48 390.43 160.31 390.29C162.18 389.96 164.08 389.66 165.99 389.4C166.67 389.3 167.35 389.201 167.99 389.121L170.18 388.851L171.51 388.701C173.043 388.541 174.583 388.4 176.13 388.28C176.72 388.23 177.32 388.18 177.92 388.15L179.05 388.07L181.21 387.951L183.91 387.84L185.72 387.79C194.202 387.607 202.687 388.065 211.1 389.161C277.37 398.361 293.63 451.38 294.88 467.77C295.398 474.448 295.173 481.162 294.21 487.79Z" fill="#476FB6"/>
<path d="M235.08 479.84C234.984 482.544 234.506 485.221 233.66 487.79H222.35C223.321 484.476 223.954 481.072 224.24 477.63C227.67 441.21 189.84 443.21 184.84 444.11C180.28 444.94 143.05 446.79 139.03 487.79H127.61C129.86 468.13 142.07 434.97 187.02 433.79C230.94 432.62 235.22 466.45 235.08 479.84Z" fill="#A3BEE4"/>
<path d="M294.21 487.79H278.77C278.77 487.3 278.77 486.79 278.77 486.31C278.77 420.79 237.59 401.94 203.28 399.12C196.7 398.58 184.28 399.18 169.37 401.12C158.77 402.49 146.86 404.54 134.78 407.32C110.2 412.98 84.9001 421.69 68.3701 434.05L69.5601 433.05L70.78 432.05L72.0201 431.05L73.29 430.05C74.15 429.39 75.0201 428.72 75.9001 428.05L77.2501 427.05L78.6101 426.05C79.5301 425.38 80.47 424.71 81.42 424.05L84.3 422.05C86.8267 420.33 89.4634 418.617 92.2101 416.91L93.5701 416.08L95.2001 415.08C96.8301 414.08 98.5001 413.14 100.2 412.18L101.91 411.18L103.65 410.24L105.41 409.31L107.19 408.39L108.99 407.48L110.81 406.58L112.66 405.69C115.133 404.517 117.66 403.38 120.24 402.28C121.53 401.73 122.84 401.2 124.16 400.67C130.246 398.242 136.455 396.132 142.76 394.35L144.84 393.77L147.18 393.16L149.3 392.64L151 392.23L152.8 391.83L155.47 391.26L157.78 390.81C158.6 390.65 159.43 390.5 160.26 390.36C162.13 390.03 164.03 389.73 165.94 389.47C166.62 389.37 167.3 389.27 167.94 389.19L170.13 388.92L171.46 388.77C172.993 388.61 174.533 388.47 176.08 388.35C176.67 388.3 177.27 388.25 177.87 388.22L179 388.14L181.16 388.02L183.86 387.91L185.67 387.86C194.152 387.676 202.637 388.134 211.05 389.23C277.32 398.43 293.58 451.45 294.83 467.84C295.359 474.492 295.152 481.183 294.21 487.79Z" fill="#A3BEE4"/>
<path d="M118.97 175.73C126.51 175.73 144.1 176.98 147.12 195.84C149.12 208.4 145.83 224.98 119.98 224.98C94.1301 224.98 74.0801 212.22 74.8801 176.68C75.7501 137.54 120.12 131.44 120.12 131.44C120.12 131.44 203.91 121.96 206.42 199.3C209.62 297.82 0.550049 275.25 0.550049 275.25C0.550049 275.25 74.6401 305.68 149.74 287.61C224.84 269.54 237.04 226.74 237.04 204.27C237.04 181.8 233.04 88.7404 126.6 98.3304C37.0701 106.4 32.7401 162.91 33.0701 176.67C33.8301 208.92 53.36 257.15 118.79 251.93C118.79 251.93 177.04 249.52 170.47 197.93C164.53 151.34 118.97 175.73 118.97 175.73Z" fill="#476FB6"/>
<path d="M149.74 287.61C224.85 269.55 237.04 226.74 237.04 204.27C237.04 181.8 233.04 88.7404 126.6 98.3304C37.0701 106.4 32.7401 162.91 33.0701 176.67C33.8301 208.92 53.36 257.15 118.79 251.93C118.79 251.93 177.04 249.52 170.47 197.93C164.53 151.32 118.97 175.71 118.97 175.71C118.97 175.71 156.1 165.34 159.5 198.39C162.9 231.44 123.32 238.61 118.79 238.61C114.26 238.61 64.9901 241.83 57.5901 186.05C50.1901 130.27 112.43 116.13 125.68 115.22C136.44 114.48 211.85 104.27 223.94 186.51C237.04 275.62 92.48 302.26 0.550049 275.23C0.550049 275.21 74.6401 305.68 149.74 287.61Z" fill="#A3BEE4"/>
<path d="M42.51 348.041C42.51 348.041 173.67 399.941 245.76 297.041C292.32 230.611 334.21 234.22 334.21 234.22C334.21 234.22 411.9 232.75 414.62 327.22C416.48 391.72 349.29 389.541 349.29 389.541C349.29 389.541 297.36 385.931 297.02 344.311C296.6 292.041 335.22 300.081 335.22 300.081C335.22 300.081 360.35 300.08 360.35 331.24C360.35 331.24 384.71 287.32 339.1 277.47C298.88 268.79 255.82 286.401 259.83 348.041C263.84 409.681 323.56 426.74 350.98 426.74C402.16 426.74 450.9 402.27 456.98 330.49C463.06 258.71 422.56 194.301 346.4 190.641C270.24 186.981 240.33 266.641 223.01 287.641C205.69 308.641 182.35 348.041 42.51 348.041Z" fill="#476FB6"/>
<path d="M158.13 345.101C204.74 328.201 223.48 310.831 260.04 253.711C296.6 196.591 349.15 211.21 364.69 217.15C380.23 223.09 433.69 246.851 433.24 333.681C432.79 420.511 351.44 409.541 345.95 409.541C340.46 409.541 277.95 405.44 279.23 328.65C280.15 273.81 378.86 273.36 360.35 331.24C360.35 331.24 384.71 287.32 339.1 277.47C298.88 268.79 255.82 286.401 259.83 348.041C263.84 409.681 323.56 426.74 350.98 426.74C402.16 426.74 450.9 402.27 456.98 330.49C463.06 258.71 422.56 194.301 346.4 190.641C270.24 186.981 240.33 266.641 223.01 287.641C205.69 308.641 182.34 348.07 42.5 348.07C42.51 348.04 115.07 360.721 158.13 345.101Z" fill="#A3BEE4"/>
<path d="M439.18 340.99C445.741 340.99 451.06 329.756 451.06 315.9C451.06 302.043 445.741 290.81 439.18 290.81C432.619 290.81 427.3 302.043 427.3 315.9C427.3 329.756 432.619 340.99 439.18 340.99Z" fill="white"/>
<path d="M426.38 287.06C430.417 287.06 433.69 283.788 433.69 279.75C433.69 275.713 430.417 272.44 426.38 272.44C422.343 272.44 419.07 275.713 419.07 279.75C419.07 283.788 422.343 287.06 426.38 287.06Z" fill="white"/>
<path d="M153.384 410.441C163.117 408.983 170.522 404.564 169.924 400.571C169.326 396.579 160.951 394.524 151.218 395.982C141.485 397.44 134.079 401.859 134.677 405.851C135.275 409.844 143.651 411.899 153.384 410.441Z" fill="white"/>
<path d="M50.42 198.41C57.5665 198.41 63.36 187.974 63.36 175.1C63.36 162.226 57.5665 151.79 50.42 151.79C43.2734 151.79 37.48 162.226 37.48 175.1C37.48 187.974 43.2734 198.41 50.42 198.41Z" fill="white"/>
<path d="M63.5301 151.79C66.8107 151.79 69.4701 149.131 69.4701 145.85C69.4701 142.57 66.8107 139.91 63.5301 139.91C60.2495 139.91 57.5901 142.57 57.5901 145.85C57.5901 149.131 60.2495 151.79 63.5301 151.79Z" fill="white"/>
<path d="M115.757 287.493C129.596 286.299 140.591 282.749 140.316 279.563C140.042 276.377 128.6 274.762 114.762 275.956C100.923 277.15 89.9276 280.7 90.2024 283.886C90.4772 287.072 101.918 288.687 115.757 287.493Z" fill="white"/>
<path d="M533.3 0C528.38 13.58 528 25.9999 532.17 37.1099C536.1 47.5399 544.05 56.2498 555.17 62.2998C560.373 65.1458 565.942 67.2658 571.72 68.6001C574.29 69.1764 576.967 69.0657 579.481 68.2793C581.994 67.4929 584.257 66.0584 586.04 64.1201C587.584 62.4442 588.726 60.4386 589.38 58.2554C590.033 56.0721 590.18 53.7686 589.81 51.52C589.439 49.2699 588.56 47.1342 587.24 45.2749C585.919 43.4156 584.192 41.8817 582.19 40.79C580.947 39.8897 579.895 38.7516 579.096 37.4419C578.296 36.1322 577.763 34.677 577.53 33.1602C577 29.2502 578.35 24.1597 581.44 18.4897C582.07 17.3197 582.8 16.0899 583.59 14.8599C588.39 7.36986 593.95 3.85984 601.59 3.33984H601.86H602.28C614.91 2.88984 629.68 10.95 635.28 13.98C649.72 21.85 683.28 43.8101 683.38 77.5801C683.38 78.4801 683.38 79.4799 683.28 80.6299C683.28 81.2899 683.2 81.9599 683.14 82.6299C682.892 85.1901 682.482 87.7318 681.91 90.2397C681.45 92.2397 680.91 94.1099 680.35 95.9399C679.79 97.7699 679.15 99.4502 678.44 101.2C676.401 106.155 673.96 110.934 671.14 115.49C668.537 119.765 665.667 123.873 662.55 127.79C640.93 154.69 612.92 161.65 576.91 149.07C567.42 145.644 558.225 141.447 549.42 136.52L545.33 134.26L542.33 132.62C536.7 129.55 526.85 121.07 515.97 111.22C523.28 115.93 529.13 119.22 532.44 121.06C547.23 129.13 580.58 140.21 611.76 130.6C631.04 124.66 646.37 111.49 656.1 92.5098C665.23 74.6998 667.2 58.6001 661.94 44.6401C658.01 34.2201 650.07 25.51 638.94 19.46C633.686 16.5864 628.059 14.4531 622.22 13.1201C614.9 11.5601 607.22 15.45 604.63 22.52C603.355 25.8187 603.318 29.4676 604.526 32.7915C605.734 36.1155 608.105 38.8896 611.2 40.6001L611.76 40.8901C613.152 41.8538 614.312 43.1141 615.158 44.5806C616.004 46.047 616.513 47.6829 616.65 49.3701C616.65 49.6601 616.65 49.9598 616.65 50.2598C616.65 50.2598 616.65 50.3401 616.65 50.3901C616.65 54.0301 615.29 58.3898 612.65 63.2598C612 64.4498 611.28 65.6699 610.49 66.8999C603.66 77.5699 592.18 86.0198 558.81 67.8198C546.04 60.8198 515.86 41.4799 511.3 11.8799C511.13 10.7799 511 9.77988 510.92 8.87988C510.92 8.73988 510.92 8.60019 510.92 8.4502C510.695 5.6614 510.695 2.85862 510.92 0.0698242H426.64C430.5 19.4398 439.81 38.6202 454.51 57.2002L453.94 56.7598C448.523 52.6096 442.845 48.8122 436.94 45.3901C436.35 45.0501 435.75 44.7201 435.16 44.3901C433.27 43.3901 431.36 42.3897 429.48 41.4897C428.26 40.9197 427.03 40.3601 425.8 39.8301C387.8 23.6201 358.45 38.4298 347.21 59.0498C342.072 68.7367 340.575 79.9443 342.99 90.6401C344.272 96.5857 346.825 102.183 350.474 107.049C354.123 111.915 358.782 115.934 364.13 118.83C379.38 127.15 394.81 128.32 406.46 122.06L406.95 121.79C407.865 121.275 408.753 120.715 409.61 120.11C411.497 118.774 413.219 117.22 414.74 115.48C415.31 114.82 415.82 114.19 416.28 113.56C417.013 112.536 417.68 111.467 418.28 110.36C419.347 108.4 419.964 106.227 420.085 103.999C420.206 101.771 419.829 99.5438 418.98 97.48C417.673 94.2962 415.311 91.6586 412.29 90.0098C411.38 89.5155 410.422 89.1167 409.43 88.8198C404.529 87.4499 399.773 85.6047 395.23 83.3101L394.99 83.1802C398.3 83.0402 404.99 84.0901 415.48 89.8301C423.93 94.4301 442.74 118.17 457.86 137.24C477.92 162.54 498.67 188.71 516.72 201.89C522.506 206.099 528.563 209.924 534.85 213.34C569.62 232.34 610.69 240.1 647.52 234.74C679.79 230.05 724.52 212.94 754.43 158.11C778.68 113.64 773.5 67.5799 739.52 24.6299L740.1 25.0801L741.17 25.8799C742.15 26.6132 743.12 27.3231 744.08 28.0098C748.259 31.0538 752.599 33.8716 757.08 36.4502C757.67 36.7802 758.25 37.1102 758.84 37.4502C762.923 39.6858 767.149 41.65 771.49 43.3301C807.9 57.3301 836.06 42.5198 846.81 22.7998C850.541 15.8194 852.373 7.98091 852.12 0.0698242L533.3 0Z" fill="#231F20"/>
<path d="M642.76 85.6201C617.68 134.53 559.76 118.84 539.62 107.85C524.71 99.7201 455.76 59.3 441.98 0H495.84C492.98 47.25 540.15 74.6902 551.64 80.9502C564.79 88.1202 595.72 104.04 616.89 82.8101C619.251 80.4231 621.346 77.7879 623.14 74.9502C624.32 73.1002 625.37 71.3101 626.27 69.5801C627.667 66.9636 628.841 64.2337 629.78 61.4199L630.02 60.6499C630.18 60.1499 630.32 59.6502 630.45 59.1602C630.51 58.9102 630.58 58.6602 630.64 58.4102C630.77 57.9302 630.87 57.41 630.97 56.98C633.8 43.31 627.53 34.86 623.07 30.75C622.7 30.41 622.34 30.0998 622 29.8198C621.096 29.0754 620.133 28.4065 619.12 27.8198C621.08 28.2098 666.98 38.3801 642.76 85.6201Z" fill="#FEE955"/>
<path d="M833.7 15.5498C825.13 31.2798 799.7 43.3201 764.54 23.3501C755.21 18.0501 744.34 9.62 733.08 0H764.36C766.507 1.94824 768.853 3.66453 771.36 5.12012C793.94 17.4301 809.07 15.22 814.36 5.54004C815.335 3.81947 816.011 1.9463 816.36 0H837.14C837.406 5.3978 836.218 10.7678 833.7 15.5498Z" fill="#FEE955"/>
<path d="M632.44 83.9199C605.84 129.83 539.86 95.4302 539.86 95.4302C539.86 95.4302 474.58 62.86 475.38 0H495.84C492.98 47.25 540.15 74.6902 551.64 80.9502C564.79 88.1202 595.72 104.04 616.89 82.8101C619.242 80.4181 621.334 77.7835 623.13 74.9502C624.32 73.1002 625.36 71.3101 626.27 69.5801C627.659 66.9596 628.833 64.2305 629.78 61.4199L630.02 60.6499C630.18 60.1499 630.32 59.6502 630.45 59.1602C630.51 58.9102 630.58 58.6602 630.64 58.4102C630.77 57.9302 630.87 57.41 630.97 56.98C633.8 43.31 627.53 34.86 623.07 30.75C622.7 30.41 622.34 30.0998 622 29.8198C621.096 29.0754 620.133 28.4065 619.12 27.8198C620.95 28.2098 658.42 39.0899 632.44 83.9199Z" fill="#FEE000"/>
<path d="M833.7 15.5498C825.13 31.2798 799.7 43.3201 764.54 23.3501C755.21 18.0501 744.34 9.62 733.08 0H748.19C759.19 9.36 770.51 16.8398 782.35 20.5098C817.62 31.4298 824.46 6.58984 824.46 6.58984C824.853 4.4166 824.971 2.20265 824.81 0H837.18C837.434 5.40145 836.232 10.7717 833.7 15.5498Z" fill="#FEE000"/>
<path d="M549.48 0H576.14C574.206 2.09522 572.466 4.36114 570.94 6.77002C550.06 39.38 573.94 53.3399 574.94 53.9399C573.09 53.5599 529.68 43.91 549.48 0Z" fill="#FEE955"/>
<path d="M741.34 150.88C689.02 246.88 579.46 229.05 525.63 189.72C493.29 166.1 445.3 88.9101 422.72 76.6001C400.14 64.2901 385.01 66.5002 379.72 76.1802C374.43 85.8602 377.33 94.7501 405.16 103.12C400.54 111.59 387.46 114.4 371.33 105.6C356.01 97.2501 353.81 78.2599 360.4 66.1699C368.98 50.4399 394.4 38.3999 429.56 58.3599C462.34 76.9699 514.09 134.27 535.14 145.74C556.19 157.21 633.83 205.05 683.9 123.29C728.51 50.44 656.9 8.68002 642.43 0.77002L641.02 0H693.52C731.84 30.63 777.49 84.5699 741.34 150.88Z" fill="#FEE955"/>
<path d="M560.43 0H576.14C574.206 2.09522 572.466 4.36114 570.94 6.77002C550.06 39.38 573.94 53.3399 574.94 53.9399C573.18 53.4699 536.93 42.99 560.43 0Z" fill="#FEE000"/>
<path d="M703.84 134.21C651.68 231.31 544.06 169.92 528.69 161.89C524.474 159.604 520.483 156.925 516.77 153.89C508.77 147.54 500.49 139.19 491.92 130.06C467.5 104.06 440.77 71.65 411.73 61.21C373.92 47.61 369.62 75.1299 369.62 75.1299C369.62 75.1299 362.74 106.93 405.14 103.13C400.52 111.6 387.44 114.41 371.31 105.61C355.99 97.2599 353.79 78.2702 360.38 66.1802C368.96 50.4502 394.38 38.4101 429.54 58.3701C462.32 76.9801 514.07 134.28 535.12 145.75C556.17 157.22 633.81 205.06 683.88 123.3C728.49 50.4498 656.88 8.68979 642.41 0.779785L641 0.00976562H674.95C701.61 21.0998 740.31 66.33 703.84 134.21Z" fill="#FEE000"/>
<path d="M748.894 116.624C752.055 101.724 749.459 88.5499 743.095 87.1995C736.73 85.8491 729.008 96.8332 725.847 111.734C722.685 126.634 725.281 139.808 731.645 141.158C738.009 142.508 745.732 131.524 748.894 116.624Z" fill="white"/>
<path d="M718.38 156.95C722.649 156.95 726.11 153.489 726.11 149.22C726.11 144.951 722.649 141.49 718.38 141.49C714.111 141.49 710.65 144.951 710.65 149.22C710.65 153.489 714.111 156.95 718.38 156.95Z" fill="white"/>
<path d="M516.326 161.393C519.561 158.432 515.958 149.228 508.277 140.835C500.597 132.442 491.748 128.037 488.513 130.997C485.278 133.958 488.882 143.162 496.562 151.555C504.242 159.949 513.091 164.353 516.326 161.393Z" fill="white"/>
<path d="M829.35 412.95C828.93 412.31 828.49 411.67 828.03 411.04C827.78 410.68 827.52 410.33 827.25 409.98C826.98 409.63 826.64 409.16 826.32 408.76C825.87 408.18 825.41 407.6 824.93 407.03C824.45 406.46 824.04 406.03 823.59 405.46C823.14 404.89 822.86 404.63 822.48 404.22C822.1 403.81 821.63 403.28 821.19 402.82L819.86 401.44C819.7 401.27 819.54 401.11 819.37 400.95C818.64 400.22 817.9 399.49 817.15 398.78C816.4 398.07 815.7 397.42 814.96 396.78L814.87 396.7L813.71 395.7C813.317 395.347 812.927 395.014 812.54 394.7L811.54 393.81L811.28 393.59C810.65 393.06 810.01 392.54 809.38 392.03L809.07 391.78C808.297 391.16 807.527 390.55 806.76 389.95C806.53 389.76 806.29 389.58 806.05 389.4C804.62 388.3 803.19 387.23 801.77 386.21C800.83 385.53 799.89 384.87 798.96 384.21C796.48 382.49 794.07 380.9 791.81 379.46C790.957 378.907 790.127 378.387 789.32 377.9C786.64 376.24 784.22 374.83 782.2 373.69L781.2 373.13C780.32 372.64 779.54 372.22 778.87 371.86L778.24 371.52L778.11 371.45C781.11 367.91 787.53 359.02 787.38 347.21C787.202 340.412 785.055 333.812 781.2 328.21C780.59 327.28 779.93 326.35 779.2 325.43C778.88 325.01 778.56 324.6 778.2 324.19L778.1 324.07C777.8 323.7 777.49 323.32 777.17 322.95C776.85 322.58 776.5 322.18 776.17 321.8C775.84 321.42 775.65 321.22 775.37 320.93C775.09 320.64 774.81 320.33 774.52 320.04C774.23 319.75 773.93 319.44 773.63 319.15L772.72 318.27L771.78 317.39C755.32 302.31 740.11 302.27 730.25 304.88C724.323 306.486 718.791 309.299 714 313.14C708.679 306.905 702.579 301.38 695.85 296.7C680.04 285.7 663.32 281.95 647.52 285.7C629.27 290.06 617.1 302.85 612.33 322.7C610.361 331.261 609.704 340.072 610.38 348.83C601.688 346.599 592.679 345.865 583.74 346.66C568.16 347.93 545.07 354.38 523.59 377.84C522.68 378.84 521.8 379.84 520.95 380.84L520.52 381.35C519.82 382.19 519.14 383.04 518.52 383.88L517.75 384.88C517.22 385.57 516.75 386.27 516.21 386.97C515.9 387.39 515.6 387.82 515.3 388.26C515 388.7 514.71 389.12 514.42 389.56L513.67 390.7C513.32 391.25 512.98 391.8 512.67 392.35C512.36 392.9 512 393.46 511.67 394.02L511.59 394.15C511.3 394.66 511 395.15 510.72 395.7C510.147 396.727 509.607 397.767 509.1 398.82C508.88 399.25 508.67 399.69 508.47 400.12C508.27 400.55 508.1 400.9 507.93 401.29C507.48 402.29 507.07 403.29 506.67 404.29C502.539 414.459 500.89 425.466 501.86 436.4C502.974 448.29 506.913 459.741 513.35 469.8C514.24 471.19 515.15 472.51 516.06 473.73L516.92 474.87C517.01 474.99 517.1 475.11 517.2 475.22C517.3 475.33 517.59 475.72 517.79 475.96C517.99 476.2 518.28 476.56 518.53 476.85L519.19 477.62C519.95 478.48 520.69 479.28 521.42 480L522.12 480.68C522.53 481.07 522.93 481.44 523.32 481.77C523.45 481.89 523.57 482 523.7 482.1L524.25 482.55L524.78 482.97C525.96 483.87 527.44 485.14 529.15 486.62L530.69 487.94H822.77C823.02 487.63 823.26 487.31 823.5 486.94L824.21 485.94C824.67 485.28 825.13 484.61 825.58 483.94C825.8 483.6 826.02 483.26 826.23 482.94C826.44 482.62 826.66 482.25 826.87 481.94C827.19 481.42 827.5 480.89 827.8 480.35C827.95 480.11 828.08 479.86 828.22 479.61C828.36 479.36 828.48 479.15 828.6 478.91C828.634 478.852 828.664 478.792 828.69 478.73L829.26 477.63C829.43 477.28 829.61 476.94 829.78 476.58C829.95 476.22 830.23 475.67 830.43 475.21C830.72 474.58 831.01 473.94 831.29 473.29C831.29 473.23 831.29 473.18 831.36 473.12C831.68 472.35 831.99 471.57 832.29 470.79L832.52 470.17C832.72 469.65 832.9 469.17 833.08 468.61C833.26 468.05 833.4 467.68 833.55 467.21C833.7 466.74 833.81 466.41 833.93 466C834.11 465.41 834.29 464.81 834.45 464.21C834.61 463.61 834.78 463 834.93 462.39C835.08 461.78 835.17 461.45 835.27 460.97C835.48 460.08 835.67 459.19 835.84 458.28L835.96 457.63C836.087 456.963 836.207 456.273 836.32 455.56C836.37 455.26 836.41 454.97 836.45 454.68C836.64 453.39 836.8 452.08 836.92 450.77C838.2 436.21 835.41 422.1 829.35 412.95Z" fill="#F58873"/>
<path d="M726.84 447.66C713.37 472.42 732.84 486.94 732.84 486.94C732.84 486.94 733.12 487.26 733.66 487.79H716.19C708.19 474.35 701.59 453.79 718.57 434.66C742.89 407.28 764.57 432.25 765.23 432.99C764.58 432.72 740.16 423.21 726.84 447.66Z" fill="#F06044"/>
<path d="M836.84 450.61C836.72 451.92 836.56 453.231 836.37 454.521C836.37 454.811 836.29 455.1 836.24 455.4C836.133 456.1 836.013 456.79 835.88 457.47L835.76 458.121C835.59 459.031 835.4 459.921 835.19 460.811C835.09 461.291 834.97 461.76 834.85 462.23C834.73 462.7 834.54 463.44 834.37 464.05C834.2 464.66 834.03 465.25 833.85 465.84C833.73 466.25 833.6 466.65 833.47 467.05C833.34 467.45 833.16 467.991 833 468.451C832.84 468.911 832.64 469.45 832.44 470.01L832.21 470.63C831.91 471.41 831.6 472.19 831.28 472.96C831.28 473.02 831.28 473.07 831.21 473.13C830.93 473.78 830.64 474.42 830.35 475.05C830.15 475.51 829.93 475.97 829.7 476.42C829.47 476.87 829.35 477.12 829.18 477.47L828.61 478.57C828.584 478.632 828.554 478.693 828.52 478.75C828.4 478.99 828.27 479.221 828.14 479.451C828.01 479.681 827.87 479.95 827.72 480.19C827.42 480.73 827.11 481.26 826.79 481.78C826.58 482.13 826.37 482.48 826.15 482.78C825.93 483.08 825.72 483.46 825.5 483.78C825.05 484.46 824.59 485.13 824.13 485.78L823.42 486.78C823.18 487.11 822.94 487.43 822.69 487.78H788.39C793.711 482.606 798.382 476.803 802.3 470.5C806.098 464.681 809.041 458.346 811.04 451.69C824.31 406.37 779.45 372.36 778.23 371.44L778.86 371.78C779.53 372.14 780.31 372.56 781.19 373.05L782.19 373.61C784.19 374.75 786.63 376.16 789.31 377.82L791.8 379.38C794.06 380.82 796.47 382.38 798.95 384.13C799.88 384.78 800.82 385.44 801.76 386.13C803.18 387.13 804.61 388.22 806.04 389.32C806.28 389.5 806.52 389.681 806.75 389.871C807.517 390.471 808.287 391.081 809.06 391.701L809.37 391.951C810 392.461 810.64 392.95 811.27 393.51L811.53 393.73L812.53 394.621C812.923 394.947 813.314 395.281 813.7 395.621L814.86 396.621L814.95 396.701C815.69 397.371 816.42 398.051 817.14 398.701C817.86 399.351 818.63 400.141 819.36 400.871C819.53 401.031 819.69 401.19 819.85 401.36L821.18 402.74C821.62 403.2 822.05 403.671 822.47 404.141C822.89 404.611 823.22 404.96 823.58 405.38C823.94 405.8 824.48 406.381 824.92 406.951C825.36 407.521 825.86 408.101 826.31 408.681C826.63 409.081 826.94 409.49 827.24 409.9C827.54 410.31 827.77 410.6 828.02 410.96C828.48 411.59 828.92 412.231 829.34 412.871C835.41 422.101 838.2 436.21 836.84 450.61Z" fill="#F06044"/>
<path d="M513.26 469.65C517.86 473.76 528.69 482.651 541.34 487.791H530.6L529.06 486.47C527.35 484.99 525.87 483.72 524.69 482.82L524.16 482.4L523.61 481.951C523.48 481.851 523.36 481.741 523.23 481.621C522.84 481.291 522.44 480.92 522.03 480.53L521.33 479.851C520.6 479.131 519.86 478.33 519.1 477.47L518.44 476.701C518.19 476.411 517.94 476.111 517.7 475.811C517.46 475.511 517.3 475.32 517.11 475.07C516.92 474.82 516.92 474.84 516.83 474.72L515.97 473.581C515.06 472.361 514.15 471.04 513.26 469.65Z" fill="#F06044"/>
<path d="M604.66 487.791H574.54C575.23 487.401 575.91 486.981 576.59 486.521C619.11 457.891 588.49 420.73 588.49 420.73C597.121 424.327 604.503 430.381 609.72 438.141C624.69 456.731 611.68 478.501 604.66 487.791Z" fill="#F06044"/>
<path d="M771.75 317.28C755.29 302.2 740.08 302.16 730.22 304.78C724.29 306.378 718.756 309.191 713.97 313.04C708.649 306.805 702.549 301.28 695.82 296.6C680.01 285.6 663.29 281.84 647.49 285.6C629.24 289.97 617.07 302.76 612.3 322.6C610.331 331.158 609.674 339.964 610.35 348.72C601.656 346.498 592.649 345.765 583.71 346.55C568.13 347.83 545.04 354.28 523.55 377.74C516.335 385.437 510.576 394.378 506.55 404.13C506.55 404.13 572.12 330.44 619.27 365.45C619.27 365.45 633.83 261.14 721.13 331.18C721.13 331.18 744.07 299.76 781.13 328.1C778.462 324.12 775.311 320.486 771.75 317.28Z" fill="#F8AFA4"/>
<path d="M527.611 421.746C529.93 411.269 527.312 401.78 521.763 400.552C516.214 399.323 509.836 406.821 507.517 417.299C505.198 427.776 507.817 437.265 513.366 438.493C518.914 439.721 525.292 432.223 527.611 421.746Z" fill="white"/>
<path d="M782.15 487.79C781.67 481.55 785.07 472.791 791.61 464.951C797.7 457.631 805.02 452.861 811.03 451.701C814.34 451.071 817.25 451.53 819.33 453.26C825.19 458.15 822.33 471.261 812.86 482.641C811.34 484.471 809.693 486.192 807.93 487.79H782.15Z" fill="white"/>
<path d="M525.5 456.72C529.372 456.72 532.51 453.582 532.51 449.71C532.51 445.839 529.372 442.7 525.5 442.7C521.628 442.7 518.49 445.839 518.49 449.71C518.49 453.582 521.628 456.72 525.5 456.72Z" fill="white"/>
<path d="M694.603 312.575C695.532 305.595 686.717 298.663 674.913 297.092C663.11 295.522 652.789 299.907 651.86 306.887C650.931 313.867 659.746 320.799 671.55 322.369C683.353 323.94 693.674 319.555 694.603 312.575Z" fill="white"/>
<path d="M782.15 487.791H508.2C506.171 485.506 504.281 483.101 502.54 480.59L502.11 479.96C501.76 479.46 501.42 478.961 501.11 478.431C500.96 478.191 500.81 477.97 500.66 477.74L500.54 477.541C492.902 465.485 488.215 451.798 486.86 437.59C484.86 415.49 491.59 394.03 506.31 374.99L506.4 374.88C507.33 373.68 508.29 372.48 509.28 371.3L509.45 371.11C510.45 369.93 511.45 368.77 512.52 367.61C535.74 342.26 560.89 334.11 578.99 331.96C580.2 331.82 581.37 331.7 582.52 331.61C585.22 331.38 587.96 331.271 590.67 331.271C592.4 331.271 594.07 331.27 595.67 331.4C596.09 327.259 596.785 323.15 597.75 319.101C598.371 316.504 599.126 313.94 600.01 311.42C607.37 290.32 622.76 276.101 644.01 271.021C649.098 269.808 654.31 269.194 659.54 269.19C674.64 269.19 690.15 274.411 704.38 284.271C708.6 287.212 712.609 290.443 716.38 293.94C717.85 293.24 719.38 292.57 721.08 291.94C722.78 291.31 724.5 290.761 726.35 290.271C730.846 289.072 735.478 288.464 740.13 288.46C754.75 288.46 769.18 294.601 781.86 306.201C782.59 306.871 783.29 307.541 783.98 308.201L784.72 308.931L785.97 310.22C786.26 310.52 786.55 310.82 786.83 311.13C787.11 311.44 787.51 311.88 787.83 312.26C788.43 312.927 789.01 313.594 789.57 314.26C789.69 314.41 789.82 314.56 789.94 314.72C797.94 324.72 802.15 335.45 802.3 346.86C802.371 353.39 801.134 359.867 798.66 365.911L800.27 366.911C800.41 367.011 800.56 367.1 800.71 367.19L802.24 368.19L802.93 368.65C804.58 369.73 806.27 370.87 807.98 372.07L808.74 372.61L810.35 373.75L810.83 374.101C811.83 374.821 812.83 375.56 813.83 376.32L814.77 377.03L816.25 378.17L817.33 379.03C818.07 379.62 818.81 380.21 819.54 380.82C819.97 381.17 820.39 381.511 820.81 381.871L822.07 382.94L823.44 384.13L824.68 385.23C825.36 385.84 826.03 386.461 826.68 387.081L827.68 388.021C828.2 388.521 828.68 389.02 829.23 389.53L830.08 390.371C830.82 391.111 831.54 391.87 832.26 392.63L832.94 393.371C833.5 393.981 834.06 394.59 834.6 395.21L835.27 395.97C835.98 396.8 836.68 397.64 837.36 398.48L837.71 398.931C838.3 399.671 838.87 400.411 839.42 401.161L839.96 401.891C840.6 402.781 841.24 403.68 841.84 404.59C843.364 406.921 844.701 409.369 845.84 411.911C849.962 421.376 852.1 431.586 852.12 441.911C852.12 444.111 852.07 446.327 851.97 448.561C851.91 449.681 851.82 450.801 851.71 451.931C850.571 464.501 846.785 476.688 840.6 487.69H782.1L782.15 487.791Z" fill="#231F20"/>
<path d="M829.35 412.95C828.93 412.31 828.49 411.67 828.03 411.04C827.78 410.68 827.52 410.33 827.25 409.98C826.98 409.63 826.64 409.16 826.32 408.76C825.87 408.18 825.41 407.6 824.93 407.03C824.45 406.46 824.04 406.03 823.59 405.46C823.14 404.89 822.86 404.63 822.48 404.22C822.1 403.81 821.63 403.28 821.19 402.82L819.86 401.44C819.7 401.27 819.54 401.11 819.37 400.95C818.64 400.22 817.9 399.49 817.15 398.78C816.4 398.07 815.7 397.42 814.96 396.78L814.87 396.7L813.71 395.7C813.317 395.347 812.927 395.014 812.54 394.7L811.54 393.81L811.28 393.59C810.65 393.06 810.01 392.54 809.38 392.03L809.07 391.78C808.297 391.16 807.527 390.55 806.76 389.95C806.53 389.76 806.29 389.58 806.05 389.4C804.62 388.3 803.19 387.23 801.77 386.21C800.83 385.53 799.89 384.87 798.96 384.21C796.48 382.49 794.07 380.9 791.81 379.46C790.957 378.907 790.127 378.387 789.32 377.9C786.64 376.24 784.22 374.83 782.2 373.69L781.2 373.13C780.32 372.64 779.54 372.22 778.87 371.86L778.24 371.52L778.11 371.45C781.11 367.91 787.53 359.02 787.38 347.21C787.202 340.412 785.055 333.812 781.2 328.21C780.59 327.28 779.93 326.35 779.2 325.43C778.88 325.01 778.56 324.6 778.2 324.19L778.1 324.07C777.8 323.7 777.49 323.32 777.17 322.95C776.85 322.58 776.5 322.18 776.17 321.8C775.84 321.42 775.65 321.22 775.37 320.93C775.09 320.64 774.81 320.33 774.52 320.04C774.23 319.75 773.93 319.44 773.63 319.15L772.72 318.27L771.78 317.39C755.32 302.31 740.11 302.27 730.25 304.88C724.323 306.486 718.791 309.299 714 313.14C708.679 306.905 702.579 301.38 695.85 296.7C680.04 285.7 663.32 281.95 647.52 285.7C629.27 290.06 617.1 302.85 612.33 322.7C610.361 331.261 609.704 340.072 610.38 348.83C601.688 346.599 592.679 345.865 583.74 346.66C568.16 347.93 545.07 354.38 523.59 377.84C522.68 378.84 521.8 379.84 520.95 380.84L520.52 381.35C519.82 382.19 519.14 383.04 518.52 383.88L517.75 384.88C517.22 385.57 516.75 386.27 516.21 386.97C515.9 387.39 515.6 387.82 515.3 388.26C515 388.7 514.71 389.12 514.42 389.56L513.67 390.7C513.32 391.25 512.98 391.8 512.67 392.35C512.36 392.9 512 393.46 511.67 394.02L511.59 394.15C511.3 394.66 511 395.15 510.72 395.7C510.147 396.727 509.607 397.767 509.1 398.82C508.88 399.25 508.67 399.69 508.47 400.12C508.27 400.55 508.1 400.9 507.93 401.29C507.48 402.29 507.07 403.29 506.67 404.29C502.539 414.459 500.89 425.466 501.86 436.4C502.974 448.29 506.913 459.741 513.35 469.8C514.24 471.19 515.15 472.51 516.06 473.73L516.92 474.87C517.01 474.99 517.1 475.11 517.2 475.22C517.3 475.33 517.59 475.72 517.79 475.96C517.99 476.2 518.28 476.56 518.53 476.85L519.19 477.62C519.95 478.48 520.69 479.28 521.42 480L522.12 480.68C522.53 481.07 522.93 481.44 523.32 481.77C523.45 481.89 523.57 482 523.7 482.1L524.25 482.55L524.78 482.97C525.96 483.87 527.44 485.14 529.15 486.62L530.69 487.94H822.77C823.02 487.63 823.26 487.31 823.5 486.94L824.21 485.94C824.67 485.28 825.13 484.61 825.58 483.94C825.8 483.6 826.02 483.26 826.23 482.94C826.44 482.62 826.66 482.25 826.87 481.94C827.19 481.42 827.5 480.89 827.8 480.35C827.95 480.11 828.08 479.86 828.22 479.61C828.36 479.36 828.48 479.15 828.6 478.91C828.634 478.852 828.664 478.792 828.69 478.73L829.26 477.63C829.43 477.28 829.61 476.94 829.78 476.58C829.95 476.22 830.23 475.67 830.43 475.21C830.72 474.58 831.01 473.94 831.29 473.29C831.29 473.23 831.29 473.18 831.36 473.12C831.68 472.35 831.99 471.57 832.29 470.79L832.52 470.17C832.72 469.65 832.9 469.17 833.08 468.61C833.26 468.05 833.4 467.68 833.55 467.21C833.7 466.74 833.81 466.41 833.93 466C834.11 465.41 834.29 464.81 834.45 464.21C834.61 463.61 834.78 463 834.93 462.39C835.08 461.78 835.17 461.45 835.27 460.97C835.48 460.08 835.67 459.19 835.84 458.28L835.96 457.63C836.087 456.963 836.207 456.273 836.32 455.56C836.37 455.26 836.41 454.97 836.45 454.68C836.64 453.39 836.8 452.08 836.92 450.77C838.2 436.21 835.41 422.1 829.35 412.95Z" fill="#F58873"/>
<path d="M726.84 447.66C713.37 472.42 732.84 486.94 732.84 486.94C732.84 486.94 733.12 487.26 733.66 487.79H716.19C708.19 474.35 701.59 453.79 718.57 434.66C742.89 407.28 764.57 432.25 765.23 432.99C764.58 432.72 740.16 423.21 726.84 447.66Z" fill="#F06044"/>
<path d="M836.84 450.61C836.72 451.92 836.56 453.231 836.37 454.521C836.37 454.811 836.29 455.1 836.24 455.4C836.133 456.1 836.013 456.79 835.88 457.47L835.76 458.121C835.59 459.031 835.4 459.921 835.19 460.811C835.09 461.291 834.97 461.76 834.85 462.23C834.73 462.7 834.54 463.44 834.37 464.05C834.2 464.66 834.03 465.25 833.85 465.84C833.73 466.25 833.6 466.65 833.47 467.05C833.34 467.45 833.16 467.991 833 468.451C832.84 468.911 832.64 469.45 832.44 470.01L832.21 470.63C831.91 471.41 831.6 472.19 831.28 472.96C831.28 473.02 831.28 473.07 831.21 473.13C830.93 473.78 830.64 474.42 830.35 475.05C830.15 475.51 829.93 475.97 829.7 476.42C829.47 476.87 829.35 477.12 829.18 477.47L828.61 478.57C828.584 478.632 828.554 478.693 828.52 478.75C828.4 478.99 828.27 479.221 828.14 479.451C828.01 479.681 827.87 479.95 827.72 480.19C827.42 480.73 827.11 481.26 826.79 481.78C826.58 482.13 826.37 482.48 826.15 482.78C825.93 483.08 825.72 483.46 825.5 483.78C825.05 484.46 824.59 485.13 824.13 485.78L823.42 486.78C823.18 487.11 822.94 487.43 822.69 487.78H788.39C793.711 482.606 798.382 476.803 802.3 470.5C806.098 464.681 809.041 458.346 811.04 451.69C824.31 406.37 779.45 372.36 778.23 371.44L778.86 371.78C779.53 372.14 780.31 372.56 781.19 373.05L782.19 373.61C784.19 374.75 786.63 376.16 789.31 377.82L791.8 379.38C794.06 380.82 796.47 382.38 798.95 384.13C799.88 384.78 800.82 385.44 801.76 386.13C803.18 387.13 804.61 388.22 806.04 389.32C806.28 389.5 806.52 389.681 806.75 389.871C807.517 390.471 808.287 391.081 809.06 391.701L809.37 391.951C810 392.461 810.64 392.95 811.27 393.51L811.53 393.73L812.53 394.621C812.923 394.947 813.314 395.281 813.7 395.621L814.86 396.621L814.95 396.701C815.69 397.371 816.42 398.051 817.14 398.701C817.86 399.351 818.63 400.141 819.36 400.871C819.53 401.031 819.69 401.19 819.85 401.36L821.18 402.74C821.62 403.2 822.05 403.671 822.47 404.141C822.89 404.611 823.22 404.96 823.58 405.38C823.94 405.8 824.48 406.381 824.92 406.951C825.36 407.521 825.86 408.101 826.31 408.681C826.63 409.081 826.94 409.49 827.24 409.9C827.54 410.31 827.77 410.6 828.02 410.96C828.48 411.59 828.92 412.231 829.34 412.871C835.41 422.101 838.2 436.21 836.84 450.61Z" fill="#F06044"/>
<path d="M513.26 469.65C517.86 473.76 528.69 482.651 541.34 487.791H530.6L529.06 486.47C527.35 484.99 525.87 483.72 524.69 482.82L524.16 482.4L523.61 481.951C523.48 481.851 523.36 481.741 523.23 481.621C522.84 481.291 522.44 480.92 522.03 480.53L521.33 479.851C520.6 479.131 519.86 478.33 519.1 477.47L518.44 476.701C518.19 476.411 517.94 476.111 517.7 475.811C517.46 475.511 517.3 475.32 517.11 475.07C516.92 474.82 516.92 474.84 516.83 474.72L515.97 473.581C515.06 472.361 514.15 471.04 513.26 469.65Z" fill="#F06044"/>
<path d="M604.66 487.791H574.54C575.23 487.401 575.91 486.981 576.59 486.521C619.11 457.891 588.49 420.73 588.49 420.73C597.121 424.327 604.503 430.381 609.72 438.141C624.69 456.731 611.68 478.501 604.66 487.791Z" fill="#F06044"/>
<path d="M771.75 317.28C755.29 302.2 740.08 302.16 730.22 304.78C724.29 306.378 718.756 309.191 713.97 313.04C708.649 306.805 702.549 301.28 695.82 296.6C680.01 285.6 663.29 281.84 647.49 285.6C629.24 289.97 617.07 302.76 612.3 322.6C610.331 331.158 609.674 339.964 610.35 348.72C601.656 346.498 592.649 345.765 583.71 346.55C568.13 347.83 545.04 354.28 523.55 377.74C516.335 385.437 510.576 394.378 506.55 404.13C506.55 404.13 572.12 330.44 619.27 365.45C619.27 365.45 633.83 261.14 721.13 331.18C721.13 331.18 744.07 299.76 781.13 328.1C778.462 324.12 775.311 320.486 771.75 317.28Z" fill="#F8AFA4"/>
<path d="M527.611 421.746C529.93 411.269 527.312 401.78 521.763 400.552C516.214 399.323 509.836 406.821 507.517 417.299C505.198 427.776 507.817 437.265 513.366 438.493C518.914 439.721 525.292 432.223 527.611 421.746Z" fill="white"/>
<path d="M782.15 487.79C781.67 481.55 785.07 472.791 791.61 464.951C797.7 457.631 805.02 452.861 811.03 451.701C814.34 451.071 817.25 451.53 819.33 453.26C825.19 458.15 822.33 471.261 812.86 482.641C811.34 484.471 809.693 486.192 807.93 487.79H782.15Z" fill="white"/>
<path d="M525.5 456.72C529.372 456.72 532.51 453.582 532.51 449.71C532.51 445.839 529.372 442.7 525.5 442.7C521.628 442.7 518.49 445.839 518.49 449.71C518.49 453.582 521.628 456.72 525.5 456.72Z" fill="white"/>
<path d="M694.603 312.575C695.532 305.595 686.717 298.663 674.913 297.092C663.11 295.522 652.789 299.907 651.86 306.887C650.931 313.867 659.746 320.799 671.55 322.369C683.353 323.94 693.674 319.555 694.603 312.575Z" fill="white"/>
</g>
<defs>
<clipPath id="clip0_6699_654">
<rect width="1264.21" height="487.79" fill="white"/>
</clipPath>
</defs>
</svg>
