<svg width="301" height="427" viewBox="0 0 301 427" fill="none" xmlns="http://www.w3.org/2000/svg">
<g clip-path="url(#clip0_4838_2025)">
<path d="M184.341 426.837C243.406 426.837 291.288 414.304 291.288 398.843C291.288 383.381 243.406 370.848 184.341 370.848C125.276 370.848 77.3947 383.381 77.3947 398.843C77.3947 414.304 125.276 426.837 184.341 426.837Z" fill="#A7A9AC"/>
<path d="M285.293 209.399C271.824 173.602 249.88 147.725 220.078 132.518C195.559 120.01 171.847 118.151 159.892 118.151C157.278 118.151 155.147 118.238 153.565 118.337C149.907 115.408 142.39 110.431 132.958 109.828C131.52 107.387 129.959 104.967 128.274 102.569C137.958 101.148 147.233 97.6977 155.49 92.4429C163.748 87.1882 170.802 80.2479 176.19 72.077C182.92 61.908 186.861 50.15 187.619 37.9794C188.331 26.1935 186.053 14.4188 180.999 3.74803C180.493 2.68241 179.706 1.77519 178.723 1.1245C177.739 0.473815 176.596 0.10439 175.418 0.0561818C174.482 0.0173658 173.529 0.000112223 172.593 0.000112223C161.07 -0.0205887 149.722 2.82291 139.57 8.27487C129.419 13.7268 120.781 21.6163 114.434 31.234C107.728 41.3696 103.791 53.083 103.013 65.2109C102.793 68.733 102.841 72.2668 103.156 75.7818C91.2693 65.9613 77.1533 57.1501 60.9628 49.4732C60.0966 49.0605 59.149 48.8468 58.1895 48.8478C57.4549 48.8481 56.7256 48.9735 56.0331 49.2187C54.4178 49.7954 53.0977 50.9899 52.3628 52.5396L45.6994 66.5651C45.334 67.333 45.1236 68.1654 45.0802 69.0147C45.0368 69.864 45.1612 70.7135 45.4464 71.5147C45.7316 72.3158 46.1721 73.0529 46.7424 73.6837C47.3127 74.3145 48.0018 74.8267 48.7703 75.1909C59.085 80.0108 68.9254 85.7866 78.1625 92.4424C74.9977 91.9958 71.8056 91.771 68.6095 91.7696C60.2381 91.771 51.9359 93.2862 44.1037 96.242C32.6892 100.533 22.6004 107.745 14.8451 117.155C7.3565 126.282 2.29346 137.151 0.125269 148.756C-0.0910408 149.916 0.0139796 151.113 0.429045 152.217C0.844111 153.322 1.5534 154.292 2.48008 155.022C14.7929 164.707 29.9956 169.986 45.6607 170.018C54.0324 170.015 62.3345 168.499 70.1664 165.541C72.4215 164.691 74.6312 163.725 76.7867 162.647C74.4448 165.761 72.1029 169.147 69.8386 172.817C61.3596 186.438 55.5639 201.554 52.764 217.352C49.3137 236.889 50.5644 257.501 56.4343 278.595C56.647 279.36 56.8641 280.123 57.0855 280.885L57.1588 281.139C57.3658 281.83 57.5742 282.518 57.7841 283.205L57.9222 283.658L58.306 284.87L58.7373 286.164C58.8753 286.595 59.0176 287.027 59.1686 287.432L59.5998 288.644C59.768 289.14 59.9449 289.64 60.1217 290.136L60.4667 291.115C60.7543 291.938 61.0576 292.763 61.3768 293.591C73.4529 325.717 89.1043 351.034 107.874 368.846C109.168 370.084 110.535 371.318 111.902 372.508C112.601 373.12 113.317 373.728 114.02 374.319L114.555 374.751C115.21 375.291 115.867 375.822 116.526 376.342C120.283 379.316 124.223 382.053 128.321 384.536L128.955 384.92C131.112 386.214 133.354 387.439 135.541 388.543L135.619 388.582C150.102 395.897 166.11 399.681 182.336 399.627C196.616 399.627 211.292 396.832 225.973 391.312L226.047 391.282L227.526 390.717L228.872 390.182L229.691 389.85L230.912 389.345L231.27 389.194L232.089 388.845L232.835 388.522L233.211 388.358L234.379 387.832L234.923 387.586L236.04 387.068L236.432 386.883L237.549 386.348L238.058 386.102C238.55 385.861 239.037 385.619 239.516 385.373L239.908 385.175L241.129 384.545L241.465 384.368C242.061 384.053 242.656 383.739 243.273 383.398L243.367 383.346C243.76 383.13 244.157 382.915 244.532 382.699L244.739 382.583C245.149 382.354 245.554 382.121 245.981 381.871L246.335 381.664C246.805 381.392 247.275 381.112 247.754 380.823L248.827 380.168C249.526 379.736 250.221 379.305 250.915 378.852L251.402 378.537H251.437L252.489 377.839H252.515C254.771 376.333 256.983 374.738 259.088 373.094L259.118 373.073C259.916 372.452 260.727 371.805 261.529 371.149L261.568 371.119C281.265 354.942 293.66 333.679 298.408 307.923C303.592 279.527 299.198 246.373 285.293 209.399Z" fill="#231F20"/>
<path d="M122.249 142.218C122.249 142.114 121.127 131.811 112.023 117.833C103.522 104.778 86.1455 85.7706 51.526 69.3429L58.1894 55.3174C132.802 90.7434 137.546 138.854 137.719 140.885L122.244 142.153L122.249 142.218Z" fill="#63B446"/>
<path d="M151.391 125.004C151.391 125.004 138.409 111.919 123.003 117.716C107.598 123.512 106.45 141.907 106.45 141.907C106.45 141.907 30.5955 193.506 67.3887 291.348C104.182 389.19 168.103 406.191 223.631 385.304C279.16 364.417 316.039 309.514 279.246 211.676C242.453 113.838 151.391 125.004 151.391 125.004Z" fill="#DDC637"/>
<path d="M152.279 138.271C152.279 138.271 141.368 127.277 128.42 132.147C115.473 137.016 114.511 152.477 114.511 152.477C114.511 152.477 50.7584 195.844 81.6817 278.069C112.605 360.294 166.322 374.586 212.996 357.037C259.67 339.488 290.654 293.34 259.73 211.111C228.807 128.882 152.279 138.271 152.279 138.271Z" fill="#EDD946"/>
<path d="M293.065 299.689L274.739 280.877C116.685 348.77 70.7398 250.139 70.7398 250.139L58.2023 254.378C59.535 265.859 62.4289 278.181 67.3801 291.348C104.178 389.186 168.094 406.192 223.623 385.304C259.536 371.801 287.635 344.06 293.065 299.689Z" fill="#DDC637"/>
<path d="M289.131 318.601C120.994 390.121 61.5578 271.215 60.8721 269.835C62.5572 277.147 64.7343 284.337 67.3888 291.356C104.186 389.194 168.103 406.2 223.632 385.312C254.132 373.831 279.005 352.086 289.131 318.601Z" fill="#CEB42E"/>
<path d="M175.202 196.24C164.299 182.719 175.413 162.397 193.45 163.113C193.847 163.113 194.252 163.148 194.658 163.174C224.024 164.937 248.745 206.475 255.064 228.018C261.382 249.561 241.262 261.11 217.943 241.978C203.344 229.997 186.075 209.722 175.202 196.24Z" fill="#FAF28C"/>
<path d="M134.263 273.04C136.06 269.615 133.064 264.502 127.571 261.621C122.079 258.739 116.169 259.18 114.372 262.606C112.575 266.032 115.571 271.144 121.064 274.026C126.557 276.907 132.466 276.466 134.263 273.04Z" fill="#FAF28C"/>
<path d="M186.604 182.678C191.369 174.644 187.162 163.346 177.208 157.443C167.255 151.541 155.324 153.269 150.559 161.303C145.795 169.337 150.002 180.635 159.955 186.537C169.909 192.44 181.84 190.712 186.604 182.678Z" fill="#F6FAFE"/>
<path d="M211.721 190.279C215.861 188.722 218.019 184.273 216.541 180.343C215.063 176.412 210.508 174.488 206.368 176.045C202.228 177.602 200.07 182.051 201.548 185.981C203.026 189.912 207.581 191.836 211.721 190.279Z" fill="#F6FAFE"/>
<path d="M119.829 34.814C113.822 43.8923 110.263 54.3695 109.499 65.2286C108.735 76.0878 110.792 86.96 115.469 96.79L175.155 6.51284C164.275 6.05917 153.463 8.42675 143.769 13.3857C134.075 18.3447 125.828 25.7264 119.829 34.814Z" fill="#9FCC3B"/>
<path d="M175.155 6.52148L115.469 96.7901C126.347 97.2447 137.159 94.8784 146.853 89.921C156.547 84.9636 164.795 77.5835 170.794 68.4976C176.802 59.4193 180.36 48.942 181.124 38.0829C181.888 27.2238 179.832 16.3515 175.155 6.52148Z" fill="#63B446"/>
<path d="M46.3635 102.31C36.1706 106.137 27.1407 112.535 20.1504 120.883C13.1602 129.23 8.44732 139.243 6.46936 149.95L107.766 111.854C99.2225 105.104 89.0789 100.678 78.3201 99.0061C67.5612 97.3338 56.5527 98.4718 46.3635 102.31Z" fill="#9FCC3B"/>
<path d="M107.766 111.854L6.47791 149.95C15.0218 156.699 25.1654 161.125 35.9241 162.797C46.6827 164.469 57.6911 163.332 67.8804 159.495C78.0715 155.666 87.0994 149.267 94.088 140.92C101.077 132.572 105.788 122.56 107.766 111.854Z" fill="#63B446"/>
</g>
<defs>
<clipPath id="clip0_4838_2025">
<rect width="300.496" height="426.837" fill="white"/>
</clipPath>
</defs>
</svg>
