<svg width="403" height="402" viewBox="0 0 403 402" fill="none" xmlns="http://www.w3.org/2000/svg">
<g clip-path="url(#clip0_4970_328)">
<path d="M390.79 58.84L388.07 50.4199L379.39 52.09C341.458 59.386 305.776 75.5072 275.23 99.1499C273.34 94.3699 271.32 89.6199 269.11 84.9299L263.11 72.12L262.77 72.46C249.256 47.4009 231.492 24.8794 210.27 5.8999L203.68 0L197.03 5.82996C174.813 25.2589 156.277 48.5303 142.31 74.5299L141.94 74.1499L135.85 87.1499C133.723 91.7299 131.747 96.3532 129.92 101.02C98.8567 76.3314 62.284 59.5203 23.32 52.0199L14.63 50.35L11.92 58.7699C3.88601 83.6412 -0.134381 109.634 0.00997928 135.77C0.162251 161.863 4.46263 187.767 12.75 212.51C16.774 224.465 21.7119 236.093 27.52 247.29L27.9 248.05C28.68 249.54 29.48 251.05 30.29 252.48C30.53 252.92 30.75 253.36 30.99 253.79C32.05 255.69 33.1333 257.58 34.24 259.46C51.4776 288.556 74.5293 313.785 101.955 333.572C129.382 353.358 160.593 367.278 193.64 374.46C197.79 375.71 202.64 376.02 209.09 374.46C221.132 371.844 232.959 368.32 244.47 363.92C283.897 348.933 318.808 324.06 345.85 291.69C347.24 290.02 348.6 288.34 349.95 286.63C352.617 283.223 355.223 279.733 357.77 276.16C361.537 270.827 365.103 265.313 368.47 259.62C369.583 257.74 370.67 255.85 371.73 253.95L372.44 252.62C373.26 251.14 374.07 249.62 374.85 248.16L375.2 247.46C381.033 236.24 385.998 224.589 390.05 212.61C406.712 162.748 406.971 108.86 390.79 58.84Z" fill="#231F20"/>
<path d="M282.287 190.45C282.832 92.8794 217.5 13.3379 203.615 13.3379C186.5 19.4999 123.514 91.9896 122.969 189.56C122.424 287.131 201.641 366.672 201.641 366.672C201.641 366.672 281.742 288.021 282.287 190.45Z" fill="#D91F26"/>
<path d="M222.76 136.98C213.901 151.923 206.721 167.8 201.35 184.32C195.97 167.803 188.791 151.928 179.94 136.98C170.169 120.43 158.416 105.134 144.94 91.4302C130.616 122.173 123.128 155.655 122.99 189.57C122.683 234.939 135.535 279.425 159.99 317.64C173.388 322.863 187.231 326.863 201.35 329.59C216.168 326.734 230.681 322.471 244.69 316.86C269.045 279.187 282.087 235.32 282.27 190.46C282.506 155.466 274.914 120.862 260.05 89.1802C245.616 103.444 233.083 119.51 222.76 136.98Z" fill="#951B1E"/>
<path d="M360.5 253.5C410.262 169.588 382.548 61.6629 382.548 61.6629C382.548 61.6629 273.7 89.0604 223.939 172.972C174.177 256.885 202.345 365.535 202.345 365.535C208 365.535 310.738 337.412 360.5 253.5Z" fill="#F16465"/>
<path d="M359.87 254.52C376.915 225.778 387.64 193.734 391.332 160.522C395.024 127.311 391.597 93.6938 381.28 61.9102C381.28 61.9102 399.9 244.09 201.35 366C234.175 359.744 265.291 346.566 292.624 327.344C319.958 308.121 342.882 283.296 359.87 254.52Z" fill="#D91F26"/>
<path opacity="0.62" d="M190.64 274.36C305.52 318.19 379.39 211.08 380.52 209.42C375.234 225.135 368.313 240.251 359.87 254.52C342.882 283.296 319.958 308.121 292.624 327.344C265.291 346.566 234.175 359.744 201.35 366C191.801 336.452 188.162 305.313 190.64 274.36Z" fill="#7C131A"/>
<path d="M201.392 365.996C211 335 229.676 257.358 179.993 173.382C130.31 89.4066 21.4745 61.8929 21.4745 61.8929C9.5 95.5 -6.80909 170.531 42.8738 254.507C92.5567 338.482 185.5 365.996 201.392 365.996Z" fill="#F1594B"/>
<path d="M42.83 254.52C25.7828 225.779 15.056 193.735 11.3643 160.523C7.6725 127.311 11.1005 93.6934 21.42 61.9102C21.42 61.9102 2.79997 244.09 201.35 366C168.525 359.744 137.409 346.566 110.076 327.344C82.7422 308.121 59.818 283.296 42.83 254.52Z" fill="#D91F26"/>
<path d="M350.09 127.74C357.242 127.74 363.04 121.942 363.04 114.79C363.04 107.638 357.242 101.84 350.09 101.84C342.938 101.84 337.14 107.638 337.14 114.79C337.14 121.942 342.938 127.74 350.09 127.74Z" fill="#F6FAFE"/>
<path opacity="0.62" d="M212.05 274.36C97.17 318.19 23.3 211.08 22.17 209.42C27.4513 225.136 34.3728 240.253 42.82 254.52C59.8091 283.297 82.7348 308.123 110.07 327.346C137.406 346.568 168.523 359.745 201.35 366C210.895 336.451 214.531 305.313 212.05 274.36Z" fill="#951B1E"/>
<path d="M315.423 151.772C329.218 140.991 334.268 124.406 326.705 114.728C319.141 105.051 301.827 105.945 288.033 116.726C274.239 127.507 269.188 144.092 276.752 153.77C284.315 163.448 301.629 162.553 315.423 151.772Z" fill="#F6FAFE"/>
<path d="M179.52 309.69C175.582 309.69 171.791 308.192 168.918 305.499C166.045 302.806 164.304 299.12 164.05 295.19C164.05 294.45 159.74 233.51 136.53 196.99C135.438 195.272 134.695 193.357 134.344 191.352C133.992 189.347 134.039 187.293 134.482 185.306C134.925 183.32 135.755 181.44 136.925 179.775C138.095 178.109 139.582 176.691 141.3 175.6C143.018 174.507 144.934 173.763 146.939 173.411C148.944 173.059 150.999 173.105 152.986 173.547C154.973 173.989 156.854 174.818 158.521 175.987C160.187 177.156 161.608 178.642 162.7 180.36C190.25 223.69 194.82 290.37 195.05 293.19C195.184 295.228 194.915 297.272 194.257 299.205C193.599 301.138 192.566 302.923 191.217 304.456C189.868 305.989 188.229 307.24 186.395 308.138C184.562 309.037 182.568 309.564 180.53 309.69C180.19 309.69 179.86 309.69 179.52 309.69Z" fill="#F16465"/>
</g>
<defs>
<clipPath id="clip0_4970_328">
<rect width="402.69" height="401.28" fill="white"/>
</clipPath>
</defs>
</svg>
