<svg width="241" height="240" viewBox="0 0 241 240" fill="none" xmlns="http://www.w3.org/2000/svg">
<g clip-path="url(#clip0_4970_328)">
<path d="M230.883 37.3116L229.297 32.4016L224.235 33.3754C202.116 37.63 181.309 47.0308 163.496 60.8177C162.394 58.0303 161.216 55.2604 159.927 52.5255L156.429 45.0556L156.23 45.2539C148.35 30.6411 137.991 17.508 125.616 6.44043L121.773 3L117.895 6.39965C104.94 17.7293 94.1308 31.2997 85.986 46.4609L85.7702 46.2393L82.2189 53.8201C80.9788 56.4908 79.8261 59.1868 78.7609 61.9081C60.6468 47.5114 39.3201 37.7083 16.5988 33.3346L11.5314 32.3608L9.9511 37.2707C5.26622 51.774 2.92179 66.9311 3.00597 82.172C3.09477 97.3881 5.60246 112.493 10.4351 126.922C12.7817 133.893 15.6611 140.674 19.048 147.203L19.2696 147.646C19.7244 148.515 20.1909 149.396 20.6633 150.23C20.8032 150.486 20.9315 150.743 21.0715 150.994C21.6896 152.101 22.3213 153.204 22.9667 154.3C33.0185 171.267 46.4607 185.979 62.4538 197.517C78.4469 209.055 96.6473 217.172 115.918 221.36C118.338 222.089 121.166 222.27 124.928 221.36C131.95 219.835 138.847 217.78 145.559 215.214C168.55 206.475 188.908 191.97 204.677 173.094C205.488 172.12 206.281 171.141 207.068 170.144C208.623 168.157 210.143 166.122 211.628 164.038C213.824 160.928 215.904 157.713 217.868 154.393C218.517 153.297 219.15 152.195 219.769 151.087L220.183 150.311C220.661 149.448 221.133 148.562 221.588 147.71L221.792 147.302C225.194 140.759 228.089 133.965 230.452 126.98V126.98C240.168 97.9037 240.319 66.4802 230.883 37.3116V37.3116Z" fill="#231F20"/>
<path d="M167.611 114.058C167.929 57.161 129.832 10.7776 121.735 10.7776C111.754 14.3709 75.0254 56.6421 74.7076 113.539C74.3898 170.436 120.584 216.819 120.584 216.819C120.584 216.819 167.293 170.954 167.611 114.058Z" fill="#D91F26"/>
<path d="M132.899 82.8777C127.733 91.5916 123.546 100.85 120.414 110.483C117.277 100.852 113.09 91.5941 107.929 82.8777C102.231 73.2268 95.3775 64.3069 87.5194 56.316C79.1668 74.2429 74.7999 93.7676 74.7196 113.545C74.5404 140.001 82.0348 165.942 96.2956 188.227C104.108 191.272 112.181 193.605 120.414 195.195C129.055 193.529 137.518 191.044 145.687 187.772C159.889 165.803 167.495 140.223 167.601 114.064C167.739 93.6574 163.312 73.4784 154.644 55.0039C146.227 63.3214 138.918 72.69 132.899 82.8777Z" fill="#951B1E"/>
<path d="M213.22 150.824C242.238 101.893 226.077 38.9578 226.077 38.9578C226.077 38.9578 162.604 54.9342 133.586 103.866C104.568 152.798 120.994 216.156 120.994 216.156C124.292 216.156 184.202 199.756 213.22 150.824Z" fill="#F16465"/>
<path d="M212.852 151.419C222.792 134.658 229.046 115.973 231.199 96.6057C233.352 77.2389 231.353 57.6357 225.337 39.1016C225.337 39.1016 236.195 145.337 120.414 216.427C139.555 212.779 157.7 205.094 173.639 193.885C189.578 182.676 202.946 168.199 212.852 151.419V151.419Z" fill="#D91F26"/>
<path opacity="0.62" d="M114.169 162.989C181.159 188.548 224.235 126.088 224.894 125.12C221.812 134.284 217.776 143.099 212.852 151.419C202.946 168.199 189.578 182.676 173.639 193.885C157.7 205.095 139.556 212.779 120.414 216.427C114.846 199.197 112.724 181.039 114.169 162.989V162.989Z" fill="#7C131A"/>
<path d="M120.439 216.425C126.041 198.35 136.932 153.074 107.96 104.105C78.9883 55.1361 15.5225 39.0919 15.5225 39.0919C8.53977 58.6894 -0.970608 102.442 28.0012 151.412C56.973 200.381 111.171 216.425 120.439 216.425Z" fill="#F1594B"/>
<path d="M27.9756 151.419C18.0348 134.659 11.7797 115.973 9.62689 96.606C7.4741 77.239 9.4731 57.6355 15.4907 39.1016C15.4907 39.1016 4.63276 145.337 120.414 216.427C101.273 212.779 83.128 205.094 67.1889 193.885C51.2498 182.676 37.8819 168.199 27.9756 151.419V151.419Z" fill="#D91F26"/>
<path d="M207.149 77.4894C211.32 77.4894 214.701 74.1084 214.701 69.9378C214.701 65.7672 211.32 62.3862 207.149 62.3862C202.979 62.3862 199.598 65.7672 199.598 69.9378C199.598 74.1084 202.979 77.4894 207.149 77.4894Z" fill="#F6FAFE"/>
<path opacity="0.62" d="M126.654 162.989C59.6632 188.548 16.587 126.088 15.9281 125.12C19.0078 134.285 23.044 143.1 27.9698 151.419C37.8767 168.2 51.2455 182.677 67.1857 193.887C83.1259 205.096 101.272 212.78 120.414 216.427C125.98 199.196 128.1 181.038 126.654 162.989V162.989Z" fill="#951B1E"/>
<path d="M186.934 91.5035C194.978 85.2167 197.923 75.5453 193.513 69.9019C189.102 64.2585 179.005 64.7802 170.962 71.067C162.918 77.3538 159.973 87.0251 164.383 92.6684C168.794 98.3118 178.89 97.7903 186.934 91.5035Z" fill="#F6FAFE"/>
<path d="M107.684 183.591C105.388 183.591 103.177 182.717 101.502 181.147C99.8262 179.577 98.8113 177.427 98.6631 175.136C98.6631 174.704 96.1498 139.168 82.6153 117.872C81.9784 116.87 81.5451 115.753 81.3403 114.584C81.1354 113.415 81.1629 112.217 81.4212 111.059C81.6795 109.9 82.1636 108.804 82.8458 107.833C83.5279 106.862 84.3948 106.035 85.3968 105.399C86.3984 104.761 87.5157 104.328 88.685 104.122C89.8542 103.917 91.0525 103.944 92.2113 104.201C93.3701 104.459 94.4668 104.943 95.4388 105.624C96.4107 106.306 97.2389 107.173 97.8759 108.174C113.941 133.441 116.606 172.325 116.74 173.969C116.819 175.158 116.661 176.35 116.278 177.477C115.894 178.604 115.292 179.645 114.505 180.539C113.718 181.433 112.763 182.163 111.694 182.686C110.624 183.21 109.462 183.518 108.273 183.591C108.075 183.591 107.882 183.591 107.684 183.591Z" fill="#F16465"/>
</g>
<defs>
<clipPath id="clip0_4970_328">
<rect width="234.822" height="234" fill="white" transform="translate(3 3)"/>
</clipPath>
</defs>
</svg>
