<svg width="201" height="470" viewBox="0 0 201 470" fill="none" xmlns="http://www.w3.org/2000/svg">
<g clip-path="url(#clip0_2055_374)">
<path d="M185.28 4.53795C184.931 3.40688 184.21 2.42697 183.233 1.75702C182.257 1.08707 181.084 0.766341 179.903 0.846821C177.731 1.04223 175.56 2.46802 175.828 7.36058C176.19 14.5981 176.016 64.0158 175.9 79.6488C175.883 82.0477 174.918 84.3424 173.215 86.032C171.511 87.7215 169.209 88.6687 166.81 88.6667C165.612 88.6705 164.426 88.4375 163.319 87.9809C162.211 87.5243 161.205 86.8533 160.358 86.0064C159.511 85.1595 158.84 84.1535 158.384 83.0462C157.927 81.939 157.694 80.7524 157.698 79.5547V9.82134C157.628 7.2085 156.541 4.72624 154.668 2.90301C152.795 1.07978 150.284 0.0595703 147.671 0.0595703C145.057 0.0595703 142.546 1.07978 140.673 2.90301C138.8 4.72624 137.713 7.2085 137.643 9.82134V79.5547C137.648 80.7485 137.417 81.9314 136.965 83.0362C136.512 84.1409 135.847 85.1456 135.006 85.9931C133.308 87.7047 131 88.6716 128.589 88.6812C127.395 88.686 126.212 88.4555 125.107 88.0031C124.003 87.5506 122.998 86.885 122.15 86.0443C120.439 84.3463 119.472 82.038 119.462 79.6271C119.354 63.9941 119.173 14.5908 119.542 7.33887C119.781 2.44631 117.653 1.02052 115.467 0.82511C114.286 0.74463 113.112 1.06536 112.136 1.73531C111.16 2.40526 110.439 3.38517 110.09 4.51624C96.5773 46.5662 93.3132 80.9515 98.4663 105.4C104.98 136.311 123.197 151.669 130.015 154.745C131.875 155.585 131.158 165.478 131.158 165.478L127.301 268.707L147.696 261.889L168.098 268.707L164.212 165.478C164.212 165.478 163.488 155.585 165.348 154.745C172.173 151.669 190.39 136.311 196.904 105.4C202.049 80.9515 198.785 46.5662 185.28 4.53795Z" fill="#9EB1B6"/>
<path d="M155.389 268.7H168.098L155.389 264.451V268.7Z" fill="#969695"/>
<path d="M165.348 154.745C172.173 151.669 190.39 136.311 196.904 105.4C202.049 80.9516 198.785 46.5662 185.28 4.51628C184.931 3.38521 184.21 2.4053 183.234 1.73535C182.257 1.0654 181.084 0.744669 179.903 0.825149C179.729 0.825149 179.555 0.868579 179.382 0.897529C184.202 27.4809 206.884 105.451 155.389 156.453V264.451L168.098 268.707L164.212 165.478C164.212 165.478 163.488 155.585 165.348 154.745Z" fill="#80A5AD"/>
<path d="M115.496 0.82509C114.763 0.788699 114.03 0.912259 113.349 1.1872C112.668 1.46213 112.054 1.88188 111.552 2.41735C111.058 2.94154 110.674 3.55919 110.423 4.23396C110.198 4.91429 110.017 5.68146 109.815 6.35454C109.033 9.24955 108.186 12.0505 107.484 14.9238L106.377 19.2156C105.993 20.6631 105.653 22.1106 105.335 23.5581L104.321 27.9006L103.402 32.2431C102.186 38.0331 101.173 43.8231 100.297 49.6638C99.9066 52.5588 99.4796 55.4972 99.2045 58.4212C98.9295 61.3451 98.6617 64.2763 98.4808 67.2075C98.1623 73.0699 97.9814 78.9323 98.2203 84.7657C98.4454 90.581 99.0961 96.372 100.167 102.092C100.667 104.944 101.463 107.73 102.172 110.531L103.496 114.649C103.699 115.373 103.945 116.017 104.22 116.69L104.987 118.71C107.062 124.038 109.689 129.134 112.826 133.916L114.012 135.703L115.286 137.426C115.721 137.99 116.126 138.584 116.582 139.127L117.942 140.77L118.623 141.587L119.347 142.369L120.794 143.932L122.307 145.38L123.067 146.104L123.855 146.827C125.858 148.675 128.074 150.276 130.456 151.597L131.281 152.009L131.484 152.118C131.587 152.169 131.686 152.227 131.781 152.292C131.957 152.4 132.122 152.526 132.273 152.668C132.403 152.784 132.526 152.907 132.642 153.037C132.732 153.144 132.816 153.255 132.895 153.37C132.968 153.471 133.047 153.587 133.105 153.688L133.257 153.963C133.358 154.152 133.423 154.311 133.489 154.463C133.692 154.978 133.847 155.511 133.952 156.055C134.046 156.533 134.111 156.974 134.162 157.401C134.332 159.002 134.405 160.612 134.379 162.221L133.235 197.852L132.685 215.598L132.063 233.344L130.804 268.808L126.186 265.349L146.581 258.509L147.703 258.133L148.818 258.509L169.206 265.363L164.61 268.808C163.799 245.735 162.945 222.669 162.272 199.589L161.179 164.972C161.107 163.459 161.092 161.961 161.136 160.419C161.136 159.652 161.194 158.87 161.273 158.06C161.344 157.178 161.489 156.304 161.708 155.447C161.86 154.821 162.103 154.221 162.431 153.667C162.758 153.12 163.209 152.659 163.749 152.321L164.038 152.161L164.19 152.082L164.291 152.031L164.494 151.93L165.305 151.532L166.13 151.032C166.687 150.721 167.23 150.309 167.78 149.954L168.598 149.375L169.394 148.745C170.479 147.942 171.486 147.001 172.52 146.104C173.555 145.206 174.518 144.207 175.415 143.165L176.82 141.638L178.151 140.039C179.07 138.989 179.874 137.867 180.713 136.738C183.999 132.204 186.787 127.329 189.029 122.198L189.898 120.28L190.658 118.312C191.143 116.994 191.714 115.706 192.105 114.353L193.393 110.321L194.443 106.218C195.748 100.703 196.612 95.093 197.027 89.4411L197.294 85.1782L197.396 80.9009C197.461 79.4534 197.396 78.0058 197.396 76.6162C197.396 75.2266 197.396 73.7574 197.309 72.3244L197.128 68.0398L196.81 63.748L196.65 61.5767L196.419 59.4055L195.963 55.1281L195.391 50.858L195.102 48.6867L194.761 46.5589L194.081 42.296C193.849 40.8485 193.567 39.4661 193.307 38.0548C192.286 32.3806 190.998 26.7643 189.688 21.148C189.029 18.3399 188.24 15.5607 187.575 12.7597L185.28 4.53793L188.096 12.7308C188.95 15.4883 189.862 18.2313 190.687 21.0033L191.888 25.1721L192.489 27.2637L193.032 29.3626C193.755 32.1635 194.479 34.9572 195.145 37.787C196.52 43.4178 197.591 49.121 198.561 54.8458L199.183 59.1883L199.495 61.3596L199.748 63.5308L200.233 67.8734L200.588 72.2159C201.456 83.7959 201.13 95.6437 198.735 107.231C196.408 118.912 191.745 130.002 185.027 139.836C184.158 141.052 183.319 142.289 182.356 143.455L180.959 145.213L179.411 146.856C178.441 148 177.333 149.027 176.291 150.128C175.249 151.228 174.084 152.205 172.875 153.16L171.985 153.884C171.681 154.123 171.362 154.347 171.051 154.608C170.422 155.071 169.799 155.527 169.104 155.939L168.084 156.576L166.969 157.162L166.687 157.314L166.542 157.387C166.542 157.387 166.499 157.387 166.586 157.387C166.644 157.36 166.699 157.328 166.752 157.293C166.991 157.156 167.195 156.965 167.346 156.735C167.418 156.598 167.346 156.779 167.295 156.967C167.181 157.516 167.108 158.072 167.078 158.632C167.027 159.261 167.006 159.92 167.006 160.593C167.006 161.946 167.049 163.336 167.136 164.704L168.677 199.335C169.749 222.416 170.631 245.518 171.572 268.606L171.768 273.672L166.977 272.087L146.567 265.312H148.803L128.393 272.101L123.573 273.708L123.776 268.642L125.223 233.127L125.947 215.366L126.729 197.606L128.307 162.229C128.35 160.877 128.311 159.523 128.191 158.176C128.153 157.864 128.097 157.555 128.024 157.249C127.993 157.066 127.949 156.884 127.894 156.706L127.952 156.801L128.046 156.909C128.096 156.972 128.152 157.03 128.212 157.083C128.263 157.083 128.372 157.213 128.488 157.293L128.668 157.387C128.726 157.423 128.813 157.452 128.755 157.423L127.597 156.822C124.821 155.222 122.249 153.29 119.94 151.068L119.079 150.28L118.261 149.455L116.64 147.79L115.105 146.053L114.345 145.192L113.622 144.287L112.174 142.478C111.696 141.877 111.277 141.233 110.821 140.617L109.496 138.736L108.266 136.796C105.027 131.619 102.344 126.115 100.261 120.374L99.4941 118.203C99.2335 117.479 98.9874 116.755 98.7703 116.032L97.6268 111.696C96.9682 108.736 96.2299 105.798 95.7957 102.794C94.8745 96.8378 94.3907 90.8218 94.3482 84.7946C94.3148 78.8052 94.6047 72.8183 95.2167 66.8601C96.4837 55.0125 98.6368 43.2766 101.658 31.751L102.78 27.4085L104.003 23.1238C104.799 20.265 105.682 17.4279 106.58 14.6053C107.477 11.7827 108.454 8.98176 109.402 6.16637C109.648 5.44262 109.851 4.77677 110.126 4.06026C110.43 3.3585 110.873 2.72572 111.429 2.20022C111.977 1.68211 112.628 1.2851 113.339 1.03498C114.035 0.810289 114.771 0.738683 115.496 0.82509Z" fill="#231F20"/>
<path d="M147.696 466.45C129.016 466.45 113.868 453.51 113.868 437.544L122.741 270.574C123.182 259.573 133.742 250.859 146.625 250.859H148.796C161.671 250.859 172.224 259.544 172.68 270.574L181.56 437.544C181.531 453.51 166.383 466.45 147.696 466.45Z" fill="#F26B6C"/>
<path d="M172.651 270.574C172.31 262.048 165.891 254.898 157.025 252.111C158.345 254.537 159.088 257.234 159.196 259.993L168.069 426.962C168.069 442.928 152.921 455.912 134.241 455.912C128.957 455.929 123.726 454.855 118.876 452.757C124.84 460.993 135.522 466.508 147.667 466.508C166.354 466.508 181.502 453.567 181.502 437.601L172.651 270.574Z" fill="#D84C53"/>
<path d="M147.696 287.973C151.941 287.973 155.382 284.532 155.382 280.287C155.382 276.042 151.941 272.601 147.696 272.601C143.451 272.601 140.01 276.042 140.01 280.287C140.01 284.532 143.451 287.973 147.696 287.973Z" fill="#9EB1B6"/>
<path d="M152.328 273.382C152.926 274.94 153 276.651 152.538 278.255C152.077 279.859 151.106 281.269 149.772 282.271C148.438 283.274 146.814 283.815 145.145 283.812C143.476 283.809 141.854 283.263 140.523 282.255C140.947 283.37 141.623 284.37 142.5 285.178C143.376 285.985 144.428 286.578 145.573 286.909C146.718 287.24 147.924 287.301 149.096 287.086C150.268 286.87 151.374 286.386 152.327 285.67C153.28 284.954 154.053 284.026 154.585 282.96C155.117 281.893 155.395 280.718 155.395 279.526C155.395 278.334 155.118 277.159 154.586 276.093C154.053 275.026 153.28 274.099 152.328 273.382Z" fill="#80A5AD"/>
<path d="M147.696 272.601C149.803 272.604 151.833 273.394 153.388 274.816C154.944 276.238 155.913 278.188 156.106 280.287C156.203 281.41 156.077 282.541 155.737 283.616C155.368 284.718 154.782 285.734 154.014 286.605C153.253 287.467 152.323 288.164 151.282 288.653C150.241 289.142 149.11 289.412 147.961 289.448C146.811 289.484 145.667 289.283 144.597 288.86C143.528 288.436 142.557 287.798 141.743 286.985C140.93 286.171 140.292 285.2 139.868 284.131C139.445 283.062 139.244 281.917 139.28 280.767C139.316 279.618 139.586 278.487 140.075 277.446C140.564 276.405 141.261 275.475 142.123 274.714C143.66 273.352 145.642 272.6 147.696 272.601ZM147.696 272.601C146.695 272.602 145.706 272.816 144.794 273.228C143.882 273.639 143.068 274.24 142.405 274.989C141.524 276.002 140.953 277.248 140.761 278.576C140.568 279.905 140.763 281.262 141.321 282.483C141.879 283.704 142.777 284.739 143.907 285.464C145.038 286.188 146.353 286.572 147.696 286.569C149.423 286.569 151.089 285.931 152.375 284.779C153.661 283.626 154.477 282.04 154.665 280.323C154.766 279.372 154.669 278.411 154.381 277.5C154.094 276.588 153.621 275.746 152.994 275.025C152.333 274.268 151.52 273.66 150.606 273.242C149.692 272.824 148.7 272.605 147.696 272.601Z" fill="#231F20"/>
<path d="M185.28 4.53778C184.865 3.59282 184.196 2.78123 183.348 2.19282C182.542 1.6397 181.582 1.35365 180.605 1.37499C179.696 1.36855 178.814 1.68389 178.115 2.2652C177.499 2.87158 177.111 3.67151 177.015 4.53055C176.896 5.4749 176.896 6.43052 177.015 7.37488C177.116 8.43879 177.21 9.50271 177.283 10.5521L177.724 16.8705C178.187 25.2877 178.578 33.6904 178.824 42.1004C179.07 50.5104 179.23 58.9204 179.324 67.3304L179.367 73.6342V76.7898V79.1565C179.367 79.4315 179.367 79.6414 179.367 80.0467C179.266 82.9917 178.135 85.8079 176.171 88.0047C174.207 90.2015 171.535 91.6395 168.619 92.0682C167.175 92.2726 165.707 92.231 164.277 91.9451C162.122 91.4992 160.121 90.4989 158.471 89.043C156.821 87.5872 155.579 85.7262 154.868 83.6437C154.642 82.9519 154.472 82.2427 154.362 81.5231C154.301 81.1638 154.263 80.8013 154.246 80.4375V79.8947C154.246 79.7137 154.246 79.5256 154.246 79.417V76.2615L154.325 69.9576C154.456 61.5524 154.649 53.1473 154.904 44.7421C155.158 36.3394 155.548 27.9366 155.947 19.5339L156.316 13.23L156.497 10.0745C156.597 8.83113 156.446 7.58031 156.052 6.39679C155.658 5.21326 155.029 4.12133 154.204 3.18627C153.378 2.25121 152.372 1.49223 151.247 0.954687C150.121 0.417149 148.899 0.112093 147.652 0.0577629C149.828 -0.122425 152.005 0.400147 153.862 1.54869C155.806 2.75367 157.312 4.54942 158.161 6.67284C158.58 7.76142 158.825 8.9095 158.885 10.0745L159.066 13.23L159.435 19.5339C159.833 27.9366 160.231 36.3394 160.477 44.7421C160.723 53.1449 160.926 61.5549 161.056 69.9576L161.136 76.2615V79.417C161.13 79.5182 161.13 79.6197 161.136 79.721V79.9671C161.137 80.1304 161.156 80.293 161.194 80.452C161.213 80.6116 161.247 80.7691 161.295 80.9224C161.332 81.08 161.381 81.2348 161.44 81.3856C161.875 82.6039 162.718 83.6339 163.827 84.3003C164.936 84.9666 166.241 85.2282 167.521 85.0405C168.801 84.8528 169.976 84.2274 170.846 83.2707C171.717 82.314 172.229 81.0852 172.296 79.7934L172.513 67.3014C172.68 58.8987 172.882 50.4959 173.165 42.0932C173.447 33.6905 173.816 25.2949 174.156 16.8994L174.453 10.61C174.496 9.55337 174.525 8.51841 174.547 7.49068C174.535 6.3332 174.691 5.18015 175.01 4.06735C175.34 2.84887 176.081 1.78229 177.109 1.0493C177.625 0.697071 178.205 0.451038 178.817 0.325547C179.397 0.218368 179.99 0.201285 180.576 0.27489C181.703 0.416219 182.759 0.901212 183.601 1.66393C184.442 2.42664 185.029 3.43007 185.28 4.53778Z" fill="#231F20"/>
<path d="M147.696 0.0363374C145.761 0.20761 143.92 0.949802 142.407 2.16876C140.894 3.38772 139.778 5.02852 139.199 6.88302C138.95 7.74784 138.842 8.64725 138.881 9.54642C138.881 10.4801 138.996 11.5512 139.047 12.5427L139.416 18.6295C139.814 26.7427 140.212 34.856 140.458 42.962C140.704 51.068 140.907 59.1885 141.037 67.3017L141.175 79.4679C141.197 82.3022 140.264 85.0614 138.527 87.3012C136.79 89.541 134.35 91.131 131.6 91.8151C128.839 92.4907 125.931 92.2127 123.349 91.0262C120.771 89.8439 118.669 87.8235 117.385 85.2941C116.747 84.0385 116.331 82.682 116.155 81.2846C116.108 80.9389 116.079 80.591 116.068 80.2424V79.7213V77.7961L116.111 71.7093C116.198 63.5889 116.362 55.4732 116.603 47.3624C116.842 39.2419 117.233 31.1287 117.66 23.0154C117.935 18.9552 118.16 14.8949 118.521 10.8347C118.608 9.82144 118.702 8.80095 118.818 7.78047C118.956 6.82197 118.995 5.85188 118.934 4.88546C118.896 3.93666 118.579 3.02017 118.022 2.25101C117.386 1.49199 116.496 0.990316 115.518 0.839701C116.579 0.809051 117.612 1.17851 118.413 1.87467C119.196 2.64656 119.736 3.62998 119.969 4.70453C120.198 5.74086 120.314 6.79881 120.316 7.86008C120.316 8.85885 120.403 9.87211 120.461 10.8854L121.112 23.0371C121.482 31.1504 121.88 39.2564 122.147 47.3624C122.415 55.4684 122.64 63.5816 122.806 71.6876L122.922 77.7671V79.287V79.6489V79.8805C122.924 80.0385 122.941 80.196 122.972 80.3509C123.057 80.9707 123.256 81.5695 123.559 82.1169C124.138 83.23 125.077 84.1149 126.222 84.6283C126.79 84.8775 127.393 85.0362 128.01 85.0987C128.632 85.15 129.257 85.0987 129.863 84.9467C131.078 84.6551 132.158 83.9582 132.924 82.9709C133.315 82.4877 133.616 81.9387 133.814 81.3497C134.011 80.7465 134.113 80.1167 134.118 79.4824L134.263 67.3162C134.393 59.2029 134.56 51.0897 134.835 42.9764C135.11 34.8632 135.479 26.7572 135.884 18.644L136.246 12.5572C136.318 11.5295 136.355 10.5741 136.449 9.48128C136.539 8.34597 136.831 7.2358 137.31 6.20269C137.756 5.18968 138.368 4.25783 139.119 3.44521C139.842 2.63817 140.687 1.94947 141.624 1.40423C142.544 0.876959 143.536 0.486853 144.569 0.246231C145.595 0.0204016 146.649 -0.0503535 147.696 0.0363374Z" fill="#231F20"/>
<path d="M148.781 250.859C154.13 250.664 159.417 252.051 163.98 254.847C166.267 256.302 168.272 258.158 169.9 260.326C171.556 262.527 172.723 265.056 173.324 267.744C173.482 268.418 173.593 269.103 173.657 269.792C173.758 270.516 173.794 271.131 173.852 271.79L174.156 275.713L174.757 283.558L175.958 299.263L178.209 330.674C178.933 341.14 179.613 351.62 180.323 362.092L181.365 377.798L182.306 393.517L184.231 424.95L184.687 432.803L184.911 436.733C184.952 437.456 184.94 438.182 184.875 438.904C184.824 439.664 184.817 440.445 184.708 441.191C184.509 442.66 184.197 444.112 183.775 445.533C183.55 446.257 183.384 446.981 183.094 447.654L182.226 449.702C181.928 450.379 181.587 451.037 181.205 451.671L180.655 452.633C180.487 452.963 180.291 453.278 180.069 453.574L178.788 455.434L178.47 455.883L178.115 456.296L177.391 457.121C175.47 459.314 173.282 461.26 170.878 462.911C169.688 463.731 168.45 464.48 167.172 465.154L165.254 466.153L163.264 466.978C161.936 467.537 160.578 468.021 159.196 468.426C158.511 468.633 157.815 468.805 157.112 468.939L155.013 469.395L152.892 469.685C152.169 469.765 151.445 469.895 150.765 469.909L148.593 470.003C148.239 470.003 147.87 470.047 147.522 470.04L146.451 469.996C140.706 469.838 135.054 468.508 129.841 466.088L128.024 465.038L127.069 464.539L126.157 463.953L124.333 462.78C123.747 462.361 123.182 461.897 122.611 461.456C121.468 460.557 120.38 459.59 119.354 458.561C118.833 458.047 118.377 457.468 117.906 456.925C117.406 456.389 116.945 455.818 116.524 455.217L115.25 453.415C114.845 452.807 114.526 452.141 114.143 451.504C113.426 450.205 112.8 448.858 112.268 447.473C112.022 446.749 111.827 446.026 111.61 445.345L111.298 444.274C111.212 443.912 111.161 443.55 111.089 443.174L110.705 441.003C110.64 440.279 110.604 439.476 110.56 438.716L110.51 437.572C110.51 437.217 110.51 436.906 110.553 436.573L110.662 434.612L110.886 430.682L111.349 422.822L113.274 391.39L114.244 375.677L115.236 359.899C115.959 349.427 116.589 338.954 117.349 328.481L119.6 297.07L120.787 281.394L121.388 273.549L121.532 271.587L121.612 270.603L121.735 269.575L121.865 268.54C121.909 268.2 122.017 267.867 122.09 267.527C122.226 266.848 122.42 266.183 122.669 265.537C123.595 262.946 125.041 260.572 126.917 258.56C128.761 256.582 130.93 254.935 133.329 253.689C135.707 252.481 138.255 251.642 140.885 251.199C143.491 250.786 146.135 250.672 148.767 250.859C146.152 250.85 143.544 251.139 140.994 251.72C138.477 252.317 136.066 253.293 133.843 254.615C129.45 257.235 125.882 261.332 124.529 266.123C124.341 266.713 124.203 267.319 124.116 267.932C124.047 268.233 123.996 268.537 123.964 268.844L123.899 269.771L123.841 270.697V271.681L123.783 273.65L123.544 281.51L123.074 297.237L121.981 328.684C121.626 339.164 121.163 349.673 120.758 360.116L120.114 375.822L119.39 391.534L117.942 422.952L117.624 430.827L117.429 434.749L117.327 436.718C117.327 437.037 117.291 437.384 117.284 437.688L117.349 438.506L117.45 440.141L117.762 441.806C117.812 442.088 117.848 442.371 117.914 442.638L118.167 443.456C118.341 443.992 118.478 444.542 118.673 445.077C119.084 446.14 119.568 447.172 120.121 448.168C120.41 448.66 120.657 449.174 120.982 449.615L121.988 451.019C122.323 451.491 122.69 451.939 123.088 452.358C123.479 452.785 123.812 453.249 124.254 453.647C125.079 454.474 125.957 455.247 126.881 455.963C127.351 456.317 127.8 456.686 128.278 457.027L129.769 457.975L130.492 458.452L131.281 458.85L132.852 459.668C137.197 461.648 141.901 462.722 146.675 462.824L147.573 462.867C147.87 462.867 148.166 462.867 148.463 462.867L150.258 462.795C150.854 462.767 151.449 462.707 152.038 462.614L153.812 462.39L155.556 462.013C156.142 461.907 156.722 461.766 157.293 461.593C158.438 461.279 159.565 460.897 160.665 460.45L162.308 459.784L163.886 458.966C164.93 458.421 165.943 457.816 166.919 457.157C168.855 455.841 170.62 454.29 172.173 452.539L172.752 451.888L173.042 451.562L173.288 451.208L174.294 449.803C174.47 449.577 174.625 449.335 174.757 449.08L175.177 448.356C175.478 447.871 175.747 447.365 175.98 446.843L176.653 445.273C176.857 444.744 177.034 444.206 177.181 443.659C177.505 442.574 177.747 441.466 177.905 440.344C177.999 439.794 177.985 439.251 178.035 438.708C178.084 438.123 178.084 437.535 178.035 436.95L177.84 433.027L177.464 425.174L176.016 393.749L175.292 378.036L174.663 362.324C174.257 351.844 173.802 341.371 173.44 330.891L172.347 299.444L171.884 283.717L171.645 275.857L171.536 271.927C171.536 271.269 171.536 270.603 171.457 270.002C171.442 269.38 171.377 268.761 171.261 268.149C170.851 265.677 169.918 263.321 168.525 261.238C167.107 259.116 165.32 257.265 163.249 255.773C159.011 252.756 153.981 251.047 148.781 250.859Z" fill="#231F20"/>
<path d="M43.8087 270.95C43.8087 270.95 43.8086 258.647 50.9231 255.752C58.0376 252.857 74.1772 251.482 73.4607 231.086C72.7442 210.691 65.6225 59.3258 37.1646 9.5245C37.1646 9.5245 32.1345 0.0361328 27.0828 0.0361328C19.9032 0.0361328 17.7753 11.8115 17.7753 16.791C17.7753 21.7704 3.85038 241.074 11.913 270.95H43.8087Z" fill="#9EB1B6"/>
<path d="M73.4607 231.108C72.7369 210.713 65.6225 59.3258 37.1646 9.5245C37.1646 9.5245 32.1345 0.0361328 27.0828 0.0361328H26.786C32.0839 14.3664 45.2996 54.4043 51.1547 111.407C56.3729 161.961 58.631 221.663 59.5357 252.864C66.5416 250.143 73.9456 245.076 73.4607 231.108Z" fill="#80A5AD"/>
<path d="M27.0828 0.0362627C25.6463 0.0838391 24.2717 0.631665 23.1962 1.58509C22.1559 2.54271 21.3148 3.69621 20.721 4.97948C19.5551 7.56608 18.8216 10.3265 18.5497 13.1506C18.3962 14.5564 18.3333 15.9707 18.3616 17.3846L18.2458 21.7271L17.9708 30.3325L16.791 64.7468L15.5969 99.1467L14.4895 133.547C14.1325 145.011 13.8237 156.475 13.5631 167.939C13.3026 179.403 13.0758 190.863 12.8828 202.317C12.7332 213.777 12.7332 225.219 12.8828 236.645L13.071 245.2C13.194 248.037 13.2374 250.895 13.4328 253.711L13.6861 257.945L14.048 262.135C14.1638 263.532 14.3954 264.864 14.5619 266.232C14.6053 266.565 14.6343 266.955 14.7066 267.238L14.9021 268.179L15.2929 270.068L11.9274 267.491H27.8499H43.7725L40.2333 271.023C40.2333 270.473 40.2333 270.097 40.2912 269.648C40.3491 269.199 40.3564 268.787 40.407 268.367C40.4939 267.513 40.6169 266.666 40.7689 265.819C41.0863 264.088 41.5711 262.391 42.2164 260.753C42.9154 258.932 43.927 257.247 45.2055 255.774C45.9163 254.964 46.7345 254.255 47.6373 253.667C48.5161 253.114 49.456 252.665 50.4382 252.328C52.0522 251.757 53.5359 251.33 54.9544 250.881C56.373 250.432 57.7336 249.969 59.0146 249.433C61.4634 248.499 63.7004 247.084 65.5935 245.272C67.3503 243.487 68.6102 241.274 69.2485 238.852C69.5981 237.576 69.8283 236.27 69.936 234.951C70.0084 234.278 70.0157 233.583 70.0446 232.896V231.332V230.761C69.8275 224.659 69.5452 218.529 69.2557 212.414C68.0398 187.922 66.2353 163.466 63.8421 139.047C62.6479 126.845 61.2004 114.671 59.6154 102.519C58.0303 90.3676 56.1124 78.2665 53.8254 66.2377C51.6349 54.1907 48.7348 42.2836 45.1404 30.5785L43.7363 26.236L42.1657 21.8935C41.6663 20.446 41.0439 19.0492 40.4577 17.6451C39.8714 16.241 39.2997 14.808 38.5904 13.4546C37.8811 12.1012 37.2587 10.6971 36.5639 9.34369C35.8441 8.00284 35.0391 6.7095 34.1538 5.47163C33.2795 4.22304 32.2671 3.07711 31.1358 2.05553C30.04 0.975827 28.612 0.297499 27.0828 0.130354C28.6427 0.214902 30.1288 0.821589 31.3022 1.85287C32.5105 2.82716 33.6054 3.93422 34.5663 5.15318C35.5426 6.35872 36.4372 7.62811 37.2442 8.95287C38.0259 10.2918 38.7641 11.638 39.5313 12.9842C40.2985 14.3303 40.9353 15.7272 41.6157 17.1168C42.296 18.5064 42.9763 19.896 43.5481 21.329L45.343 25.6064L46.9642 29.9489L47.7748 32.1201L48.4985 34.2914L49.946 38.6918C50.8435 41.6374 51.7482 44.5976 52.5805 47.565C54.2162 53.5142 55.7578 59.4924 57.1112 65.5067C62.5321 89.5787 66.2739 113.998 69.2195 138.425C70.667 150.656 72.0132 162.902 73.0626 175.169C74.1121 187.437 75.0747 199.719 75.8418 212.008C76.2327 218.16 76.5656 224.312 76.8117 230.486C77.026 233.908 76.6987 237.342 75.8418 240.662C74.8976 244.206 73.0555 247.446 70.4933 250.07C67.9659 252.551 64.9656 254.498 61.6708 255.795C60.1147 256.447 58.5659 256.975 57.0605 257.46C55.5551 257.945 54.0859 258.379 52.8049 258.842C52.3294 258.995 51.8747 259.207 51.4515 259.472C51.0667 259.725 50.7206 260.032 50.4237 260.384C49.6997 261.245 49.1293 262.224 48.7374 263.279C48.2725 264.497 47.9283 265.757 47.7097 267.042C47.5939 267.708 47.4998 268.381 47.4346 269.062C47.3984 269.402 47.3695 269.735 47.3478 270.075C47.3261 270.415 47.3116 270.799 47.3116 270.994V274.533H27.8572L11.9347 274.497H9.10481L8.56924 271.928L8.08432 269.597L7.85271 268.432C7.7731 268.048 7.74416 267.708 7.68626 267.31C7.51256 265.863 7.27372 264.328 7.15792 262.866L6.7888 258.48L6.54997 254.138C6.36903 251.243 6.33283 248.348 6.22427 245.453L6.07229 236.768C5.93478 225.231 6.1881 213.731 6.46312 202.238C6.73815 190.745 7.15067 179.259 7.59939 167.78C8.04812 156.301 8.67055 144.83 9.2785 133.366L10.2194 116.169L11.2905 98.9802C12.0143 87.516 12.738 76.059 13.5921 64.6093C14.4461 53.1596 15.2494 41.7098 16.1831 30.2673L16.8634 21.6909L17.1746 17.4135C17.2253 16.7332 17.2325 15.966 17.3121 15.2423C17.3917 14.5185 17.4786 13.7948 17.6016 13.071C18.0446 10.1875 18.9617 7.39714 20.3157 4.81302C20.9985 3.52088 21.9338 2.37893 23.066 1.45482C24.1988 0.528576 25.6195 0.0268583 27.0828 0.0362627Z" fill="#231F20"/>
<path d="M31.2225 254.854C37.8528 254.85 44.2161 257.466 48.9268 262.132C53.6374 266.798 56.3137 273.136 56.3729 279.766C56.6334 308.535 57.625 373.202 58.1388 384.247C58.9132 400.893 63.5308 405.872 73.5764 421.39C83.6221 436.907 73.5764 461.558 55.3162 465.213C37.056 468.868 3.28577 467.319 3.28577 419.472C3.28577 403.621 4.91422 317.336 6.10117 279.209C6.30425 272.681 9.0399 266.489 13.7288 261.943C18.4178 257.397 24.6918 254.855 31.2225 254.854Z" fill="#F26B6C"/>
<path d="M73.5693 421.418C63.5236 405.894 58.9061 400.878 58.1316 384.268C57.6178 373.224 56.6262 308.556 56.3657 279.787C56.3267 275.046 54.9467 270.412 52.3853 266.421C49.8239 262.43 46.1855 259.246 41.8907 257.235C46.0595 264.473 50.9159 279.447 50.1632 309.7C48.8676 361.441 43.7724 396.463 50.2428 403.788C56.7131 411.112 65.0941 424.103 60.3753 438.282C56.0328 451.193 45.1765 465.856 8.51855 446.612C18.709 467.782 41.4926 468.013 55.3452 465.241C73.5692 461.557 83.6077 436.914 73.5693 421.418Z" fill="#D84C53"/>
<path d="M31.2226 254.854C33.8486 254.803 36.4685 255.127 39.0029 255.817C41.5548 256.553 43.9768 257.681 46.1825 259.161C46.7181 259.551 47.2971 259.884 47.8037 260.34L49.3236 261.643C50.2944 262.568 51.1966 263.562 52.0232 264.618C53.6998 266.742 55.0287 269.119 55.9604 271.66C56.8815 274.22 57.4134 276.903 57.5382 279.621L57.806 287.452L58.356 303.1L60.397 365.689C60.5779 370.893 60.7516 376.119 60.9832 381.301C61.0556 382.582 61.099 383.885 61.2004 385.129L61.3379 387.011L61.5405 388.864C61.83 391.292 62.3141 393.693 62.988 396.044C64.327 400.654 66.7153 404.91 69.5018 409.209C70.8914 411.38 72.3389 413.551 73.7936 415.722L75.9649 418.994C76.3195 419.508 76.6886 420.166 77.0939 420.803C77.4992 421.44 77.8177 422.113 78.1506 422.772C80.6273 428.129 81.5068 434.087 80.6837 439.932C79.9185 445.67 77.8163 451.149 74.5463 455.927C71.2309 460.817 66.5919 464.663 61.1714 467.015C60.4835 467.314 59.7805 467.577 59.0653 467.803L57.9941 468.144L56.9085 468.411C56.5466 468.498 56.1848 468.6 55.8229 468.665L54.8096 468.853C54.1365 468.99 53.4562 469.084 52.7759 469.193C50.051 469.608 47.3024 469.85 44.5469 469.917C38.9334 470.107 33.3268 469.374 27.9513 467.746C22.4246 466.045 17.3746 463.07 13.2084 459.061C11.1391 457.057 9.32118 454.809 7.7948 452.366L7.21579 451.461L6.69469 450.527C6.36176 449.905 5.97095 449.29 5.68869 448.653C5.10969 447.365 4.45832 446.098 4.00236 444.774C2.06015 439.593 0.842405 434.169 0.383604 428.656C0.253329 427.302 0.202663 425.949 0.108575 424.596C0.0144875 423.242 0.0506785 421.889 0.0217285 420.543C0.0217285 417.857 0.06515 415.266 0.108575 412.646L0.448739 396.977L0.839548 381.315L1.33172 365.661C1.67912 355.224 1.99756 344.795 2.4101 334.358L3.71284 303.063L4.4945 287.416L4.90704 279.592C5.04558 276.877 5.57451 274.195 6.47757 271.631C8.36496 266.549 11.7906 262.182 16.2772 259.139C18.4773 257.65 20.9009 256.521 23.4568 255.795C25.9904 255.102 28.6108 254.778 31.2371 254.833C28.6425 254.944 26.0778 255.432 23.6232 256.28C21.1993 257.147 18.9295 258.395 16.8996 259.979C12.8453 263.074 9.85334 267.354 8.33762 272.224C7.65246 274.638 7.29939 277.134 7.28817 279.643L7.22303 287.524L7.1579 303.172L6.8322 365.791L6.7526 381.446L6.62233 397.093L6.5572 412.733C6.5572 415.324 6.55719 417.959 6.59337 420.492C6.64404 421.744 6.64405 423.011 6.73813 424.263C6.83222 425.515 6.91183 426.76 7.04934 428.004C7.53421 432.898 8.65335 437.708 10.3786 442.313C10.7694 443.456 11.3412 444.484 11.8261 445.599C12.0939 446.134 12.3979 446.641 12.6801 447.162L13.1144 447.944L13.5993 448.667C14.8463 450.65 16.3341 452.471 18.0286 454.088C18.8668 454.894 19.7487 455.653 20.6703 456.361L22.1178 457.352C22.5955 457.693 23.1166 457.96 23.6088 458.264C25.6561 459.428 27.823 460.367 30.0718 461.065C34.7134 462.443 39.5493 463.052 44.3876 462.867C46.8494 462.815 49.3054 462.607 51.7409 462.245C52.3489 462.151 52.9641 462.064 53.572 461.948L54.4767 461.782C54.7807 461.724 55.0268 461.652 55.309 461.594L56.1124 461.398L56.9085 461.145C57.4418 460.982 57.9661 460.791 58.4791 460.573C62.6854 458.738 66.2843 455.746 68.8576 451.946C71.5348 448.088 73.27 443.656 73.9239 439.005C74.5874 434.451 73.9605 429.803 72.1145 425.587C71.854 425.095 71.6513 424.567 71.3473 424.089C71.0434 423.611 70.8045 423.141 70.4209 422.569L68.3148 419.29C66.9107 417.119 65.4777 414.905 64.0664 412.654C62.6551 410.403 61.2872 408.051 60.0568 405.568C58.8031 403.055 57.7925 400.428 57.0388 397.723C55.5479 392.287 55.2005 386.743 55.0991 381.482C54.9978 376.22 54.9689 371.016 54.9254 365.791C54.8603 355.347 54.7807 344.911 54.8096 334.467L54.9254 303.157L55.0991 287.496L55.2005 279.672C55.2007 277.17 54.8424 274.682 54.1366 272.282C53.4042 269.867 52.29 267.585 50.8363 265.522C50.1115 264.48 49.3133 263.491 48.4479 262.562L47.0655 261.245C46.6168 260.789 46.074 260.442 45.618 260.029C43.5822 258.453 41.3139 257.203 38.8944 256.324C36.4213 255.467 33.8373 254.972 31.2226 254.854Z" fill="#231F20"/>
<path d="M32.2069 288.234C36.4518 288.234 39.8931 284.793 39.8931 280.548C39.8931 276.303 36.4518 272.861 32.2069 272.861C27.9619 272.861 24.5206 276.303 24.5206 280.548C24.5206 284.793 27.9619 288.234 32.2069 288.234Z" fill="#9EB1B6"/>
<path d="M36.8317 274.417C37.4322 275.975 37.5083 277.687 37.0483 279.293C36.5883 280.898 35.6173 282.31 34.2827 283.314C32.948 284.318 31.3224 284.86 29.6522 284.857C27.982 284.854 26.3583 284.306 25.0273 283.297C25.4519 284.41 26.1294 285.409 27.0062 286.215C27.8829 287.022 28.9351 287.613 30.0796 287.943C31.2241 288.273 32.4296 288.332 33.601 288.116C34.7724 287.901 35.8776 287.416 36.8294 286.7C37.7812 285.984 38.5536 285.056 39.0856 283.99C39.6176 282.925 39.8946 281.75 39.8948 280.559C39.8951 279.368 39.6185 278.193 39.0869 277.127C38.5553 276.061 37.7833 275.133 36.8317 274.417Z" fill="#80A5AD"/>
<path d="M32.2069 272.861C33.5402 272.857 34.8554 273.169 36.0444 273.772C37.2335 274.375 38.2624 275.252 39.0467 276.33C39.8309 277.408 40.3481 278.657 40.5556 279.974C40.7632 281.291 40.6552 282.639 40.2406 283.906C39.8764 285.008 39.2929 286.024 38.5253 286.895C37.5933 287.949 36.4122 288.753 35.0897 289.233C33.7672 289.713 32.3455 289.855 30.9543 289.644C29.5631 289.434 28.2467 288.879 27.1254 288.029C26.004 287.179 25.1134 286.062 24.5348 284.779C23.9562 283.497 23.708 282.09 23.8129 280.687C23.9178 279.284 24.3724 277.929 25.1353 276.747C25.8983 275.565 26.9451 274.592 28.1804 273.919C29.4156 273.245 30.7999 272.892 32.2069 272.89V272.861ZM32.2069 272.861C31.2051 272.861 30.2147 273.074 29.3013 273.486C28.388 273.898 27.5726 274.499 26.9091 275.25C26.0274 276.263 25.4564 277.509 25.2644 278.839C25.0723 280.169 25.2675 281.525 25.8263 282.747C26.3852 283.969 27.2842 285.003 28.4158 285.727C29.5474 286.451 30.8635 286.834 32.2069 286.83C33.9339 286.829 35.6 286.192 36.886 285.039C38.1721 283.887 38.9877 282.3 39.1767 280.584C39.277 279.633 39.1803 278.672 38.8926 277.761C38.605 276.849 38.1325 276.007 37.5048 275.286C36.8446 274.529 36.0307 273.921 35.1172 273.503C34.2037 273.085 33.2116 272.866 32.2069 272.861Z" fill="#231F20"/>
</g>
<defs>
<clipPath id="clip0_2055_374">
<rect width="201" height="469.989" fill="white"/>
</clipPath>
</defs>
</svg>
