<svg width="542" height="670" viewBox="0 0 542 670" fill="none" xmlns="http://www.w3.org/2000/svg">
<g clip-path="url(#clip0_3181_375)">
<path d="M483.504 437.96C491.381 433.102 494.983 424.83 487.911 409.507C480.562 393.545 469.444 400.818 469.444 400.818C475.419 394.114 473.712 386.085 463.594 372.011C453.475 357.937 446.633 366.195 446.633 366.195C449.318 357.312 444.606 350.324 430.061 341.455C417.062 333.53 412.794 348.006 412.017 351.171C412.468 348.721 413.315 339.04 401.295 329.359C387.415 318.165 365.361 326.583 365.361 326.583L350.62 335.029L333.659 335.938C333.659 335.938 310.571 340.796 304.963 357.75C300.105 372.4 306.088 380.075 307.802 381.893C305.435 379.631 293.991 369.79 287.378 383.503C279.973 398.847 279.813 407.272 286.885 413.275C286.885 413.275 276.656 410.062 275.781 427.37C274.907 444.678 277.863 452.353 286.51 454.741C286.51 454.741 273.241 454.685 275.712 472.055C278.092 488.76 285.594 493.742 294.852 493.569C292.881 493.784 288.891 494.88 287.988 500.217C286.788 507.365 287.988 515.006 307.94 527.394C354.389 556.242 408.568 531.558 408.568 531.558C408.568 531.558 469.416 525.693 490.846 473.457C499.75 451.743 497.738 445.164 492.845 439.806C489.222 435.823 485.281 437.065 483.504 437.96Z" fill="#7C5952"/>
<path d="M412.031 351.191C411.889 348.626 411.255 346.113 410.164 343.787C409.139 341.56 407.789 339.497 406.16 337.666C404.55 335.839 402.759 334.179 400.816 332.711C400.33 332.35 399.845 331.961 399.359 331.614C398.873 331.267 398.415 330.962 397.908 330.684C397.423 330.381 396.92 330.105 396.403 329.858C395.903 329.588 395.368 329.373 394.841 329.164C390.594 327.402 385.819 326.791 380.92 326.867C379.698 326.904 378.47 326.967 377.235 327.055C376.006 327.159 374.771 327.305 373.529 327.464C372.287 327.624 371.058 327.846 369.83 328.068C369.212 328.186 368.602 328.318 367.991 328.45C367.38 328.582 366.749 328.734 366.221 328.866L366.554 328.706C365.27 329.317 363.959 329.879 362.661 330.462C361.363 331.045 360.045 331.586 358.719 332.121C356.068 333.197 353.396 334.203 350.634 335.098C352.786 333.155 355.02 331.364 357.289 329.629C358.421 328.755 359.573 327.915 360.718 327.069C361.863 326.222 363.022 325.403 364.188 324.598L364.493 324.459C365.766 323.872 367.07 323.355 368.4 322.912C369.705 322.449 371.028 322.058 372.37 321.739C375.07 321.053 377.827 320.614 380.607 320.427C383.448 320.231 386.301 320.349 389.116 320.781C390.548 321.014 391.965 321.339 393.356 321.753C394.05 321.954 394.744 322.225 395.438 322.447C396.132 322.669 396.826 322.995 397.464 323.335C398.142 323.64 398.803 323.983 399.442 324.362C400.081 324.723 400.691 325.153 401.295 325.577C401.899 326 402.461 326.5 403.037 326.965C403.613 327.43 404.064 327.936 404.577 328.422C406.621 330.387 408.391 332.618 409.838 335.056C411.298 337.502 412.287 340.199 412.753 343.009C413.245 345.752 412.996 348.577 412.031 351.191Z" fill="#221E20"/>
<path d="M446.633 366.202C446.714 363.89 446.322 361.585 445.481 359.429C444.634 357.503 443.423 355.759 441.914 354.294C438.916 351.261 435.127 348.742 431.282 346.174C430.331 345.529 429.339 344.918 428.368 344.279C427.54 343.732 426.67 343.252 425.765 342.843C424.962 342.478 424.115 342.216 423.246 342.066C422.447 341.94 421.632 341.971 420.845 342.156C419.242 342.503 417.569 343.745 416.091 345.397C414.557 347.195 413.197 349.135 412.031 351.192C411.911 348.634 412.342 346.08 413.294 343.703C413.814 342.427 414.515 341.233 415.376 340.157C416.326 338.969 417.521 338.001 418.881 337.319C420.315 336.597 421.897 336.217 423.503 336.208C425.02 336.197 426.53 336.431 427.972 336.902C429.302 337.359 430.585 337.942 431.803 338.644C432.851 339.29 433.885 339.914 434.953 340.594C437.052 341.974 439.049 343.502 440.929 345.168C442.884 346.909 444.606 348.897 446.05 351.081C447.574 353.37 448.48 356.014 448.681 358.756C448.815 361.394 448.097 364.004 446.633 366.202Z" fill="#221E20"/>
<path d="M469.444 400.825C470.368 398.914 470.888 396.832 470.971 394.711C470.957 392.807 470.58 390.922 469.861 389.159C469.541 388.25 469.09 387.362 468.681 386.467C468.271 385.571 467.772 384.676 467.237 383.795C466.231 382.018 465.114 380.241 463.969 378.472C463.386 377.584 462.844 376.674 462.234 375.793C461.623 374.912 461.061 373.954 460.492 373.163L459.638 371.907C459.502 371.697 459.354 371.495 459.194 371.303L458.743 370.72C458.438 370.345 458.153 369.915 457.827 369.568L456.869 368.499C455.656 367.149 454.141 366.103 452.448 365.446C451.548 365.183 450.605 365.098 449.673 365.196C448.602 365.334 447.568 365.676 446.626 366.202C447.146 365.097 447.957 364.154 448.972 363.475C450.081 362.755 451.347 362.314 452.664 362.191C454.009 362.106 455.357 362.286 456.633 362.718C457.26 362.907 457.866 363.156 458.445 363.461C459.023 363.745 459.583 364.062 460.124 364.412L461.651 365.508C462.157 365.883 462.567 366.32 463.039 366.723C463.931 367.537 464.761 368.416 465.523 369.353C466.342 370.269 466.911 371.164 467.647 372.066C468.382 372.969 468.93 373.94 469.569 374.884C470.207 375.828 470.763 376.848 471.339 377.847C471.915 378.847 472.435 379.888 472.879 380.998C473.898 383.201 474.599 385.538 474.961 387.938C475.362 390.467 475.089 393.057 474.17 395.447C473.232 397.712 471.57 399.603 469.444 400.825Z" fill="#221E20"/>
<path d="M483.504 437.96C485.04 436.293 486.343 434.425 487.377 432.408C488.25 430.598 488.749 428.629 488.841 426.621C489.049 422.72 487.911 418.674 486.433 414.649C484.955 410.624 483.317 406.599 480.728 403.83C479.462 402.403 477.816 401.365 475.982 400.839C473.836 400.3 471.59 400.3 469.444 400.839C471.217 398.964 473.618 397.808 476.19 397.591C477.57 397.476 478.961 397.614 480.291 398.001C481.631 398.398 482.898 399.007 484.046 399.805C485.169 400.573 486.192 401.478 487.092 402.498C487.971 403.473 488.761 404.525 489.452 405.641C489.799 406.178 490.118 406.731 490.41 407.3L490.854 408.147L491.249 408.973C491.749 410.09 492.262 411.2 492.672 412.373C493.561 414.736 494.167 417.196 494.476 419.701L494.643 421.638C494.643 422.297 494.643 422.956 494.608 423.616C494.536 424.951 494.322 426.274 493.97 427.564C493.272 430.155 491.889 432.509 489.965 434.379C488.153 436.105 485.928 437.338 483.504 437.96Z" fill="#221E20"/>
<path d="M408.596 531.564C414.721 530.179 420.73 528.323 426.57 526.013C432.346 523.761 437.956 521.104 443.357 518.06C454.08 512.081 463.764 504.406 472.033 495.332C476.126 490.797 479.839 485.935 483.136 480.793C484.797 478.225 486.352 475.585 487.8 472.874C489.278 470.175 490.652 467.413 491.881 464.637C493.123 461.897 494.133 459.058 494.899 456.149C495.684 453.373 495.88 450.463 495.475 447.606C495.229 446.2 494.761 444.841 494.087 443.581C493.748 442.923 493.365 442.288 492.942 441.68C492.512 441.069 492.054 440.424 491.596 439.896C490.664 438.785 489.406 437.994 488.001 437.634C486.494 437.301 484.922 437.422 483.483 437.981C484.851 437.04 486.481 436.555 488.14 436.593C489.875 436.718 491.528 437.382 492.866 438.494C493.516 439.022 494.131 439.592 494.705 440.202C495.291 440.807 495.838 441.449 496.343 442.124C497.378 443.522 498.182 445.078 498.723 446.732C499.239 448.398 499.535 450.125 499.605 451.867C499.653 453.568 499.558 455.27 499.32 456.954C498.824 460.229 498.006 463.446 496.877 466.559C495.8 469.632 494.555 472.643 493.15 475.581C491.762 478.502 490.229 481.369 488.549 484.152C478.46 501.001 463.519 514.413 445.682 522.633C439.842 525.339 433.759 527.486 427.514 529.045C424.41 529.824 421.266 530.436 418.096 530.877C414.951 531.344 411.775 531.574 408.596 531.564Z" fill="#221E20"/>
<path d="M294.88 493.604C293.369 493.916 291.983 494.667 290.896 495.762C289.912 496.828 289.284 498.174 289.099 499.613C289.002 500.307 288.967 501.099 288.926 501.855C288.887 502.606 288.887 503.359 288.926 504.11C288.986 505.555 289.248 506.985 289.703 508.358C290.138 509.705 290.767 510.981 291.57 512.147C292.378 513.333 293.308 514.431 294.346 515.422C296.491 517.455 298.867 519.229 301.424 520.71C304.037 522.257 306.739 523.647 309.516 524.874C312.34 526.144 315.186 527.352 318.066 528.462C320.946 529.573 323.847 530.628 326.768 531.585C329.69 532.543 332.653 533.404 335.624 534.188C347.523 537.339 359.806 538.804 372.113 538.539C378.302 538.394 384.47 537.762 390.559 536.651C396.728 535.569 402.773 533.872 408.603 531.585C405.978 533.405 403.19 534.978 400.275 536.284C397.362 537.621 394.37 538.78 391.316 539.753C385.17 541.706 378.84 543.022 372.425 543.681C359.512 544.946 346.477 543.9 333.93 540.593C327.683 538.97 321.566 536.882 315.63 534.347C312.681 533.063 309.759 531.71 306.9 530.239C303.977 528.754 301.164 527.064 298.482 525.18C295.711 523.27 293.203 521.004 291.021 518.441C288.738 515.795 287.171 512.608 286.469 509.184C286.167 507.491 286.107 505.764 286.289 504.055C286.372 503.228 286.5 502.405 286.67 501.591C286.834 500.775 287.043 499.969 287.295 499.176C287.814 497.516 288.841 496.06 290.23 495.012C291.595 494.068 293.221 493.576 294.88 493.604Z" fill="#221E20"/>
<path d="M286.539 454.789C284.443 455.498 282.557 456.717 281.049 458.335C279.791 459.773 278.97 461.54 278.683 463.429C277.989 467.17 278.849 471.334 279.772 475.615C280.695 479.897 281.958 483.811 284.248 486.969C285.416 488.605 286.904 489.989 288.62 491.036C290.577 492.17 292.678 493.034 294.866 493.604C292.489 494.403 289.946 494.575 287.482 494.103C284.854 493.572 282.417 492.345 280.424 490.55C279.424 489.658 278.523 488.66 277.739 487.573C277.371 487.031 276.996 486.49 276.642 485.935L275.726 484.221C274.629 481.945 273.805 479.548 273.269 477.08C272.985 475.865 272.811 474.658 272.631 473.45L272.506 472.541L272.423 471.59C272.361 470.966 272.333 470.32 272.333 469.675C272.333 469.029 272.333 468.377 272.374 467.732C272.416 467.086 272.492 466.42 272.603 465.761C272.808 464.416 273.176 463.102 273.7 461.847C274.244 460.554 274.991 459.357 275.914 458.301C276.819 457.253 277.911 456.382 279.134 455.733C281.402 454.518 284.038 454.181 286.539 454.789Z" fill="#221E20"/>
<path d="M286.899 413.324C285.824 413.391 284.771 413.662 283.797 414.122C282.962 414.548 282.217 415.133 281.604 415.843C280.529 417.31 279.815 419.01 279.522 420.805L279.3 422.227C279.217 422.692 279.21 423.213 279.161 423.692C279.05 424.656 279.043 425.683 279.016 426.69C278.988 427.696 279.016 428.772 279.016 429.847C279.016 430.923 279.016 431.978 279.016 433.04C279.016 435.122 279.05 437.245 279.175 439.285C279.21 439.792 279.21 440.319 279.272 440.812C279.335 441.305 279.369 441.811 279.411 442.318C279.557 443.29 279.661 444.282 279.883 445.212C280.238 447.084 280.944 448.871 281.965 450.479C283.187 452.218 284.753 453.687 286.566 454.796C284.125 454.917 281.713 454.229 279.702 452.839C277.633 451.328 275.998 449.298 274.962 446.954C273.952 444.75 273.262 442.413 272.915 440.014C272.693 438.841 272.631 437.689 272.499 436.544C272.367 435.399 272.395 434.24 272.381 433.074C272.367 431.908 272.381 430.791 272.478 429.667L272.596 427.974C272.596 427.418 272.693 426.828 272.79 426.232L273.047 424.462C273.142 423.859 273.276 423.263 273.45 422.678C273.616 422.088 273.713 421.506 273.943 420.916L274.636 419.16C274.752 418.861 274.894 418.573 275.06 418.299L275.532 417.46C275.847 416.886 276.222 416.346 276.649 415.85C277.483 414.793 278.516 413.909 279.689 413.247C280.864 412.64 282.168 412.324 283.492 412.324C284.696 412.348 285.873 412.693 286.899 413.324Z" fill="#221E20"/>
<path d="M307.837 381.963C305.743 380.863 303.549 379.966 301.285 379.284C299.148 378.701 297.066 378.59 295.525 379.145C294.758 379.415 294.051 379.832 293.443 380.373C292.796 380.975 292.228 381.656 291.75 382.4C291.221 383.235 290.757 384.11 290.362 385.016C289.904 386.078 289.39 387.133 288.974 388.195C287.142 392.421 285.338 396.613 284.463 400.784C283.996 402.833 283.925 404.953 284.255 407.029C284.717 409.296 285.635 411.445 286.955 413.345C284.541 412.298 282.529 410.502 281.216 408.223C279.889 405.812 279.214 403.097 279.258 400.346C279.278 397.728 279.645 395.124 280.348 392.601C281.025 390.181 281.876 387.813 282.895 385.516C283.402 384.378 283.95 383.281 284.484 382.171C285.125 380.92 285.888 379.734 286.76 378.632C287.707 377.444 288.841 376.419 290.119 375.599C291.437 374.76 292.925 374.226 294.475 374.038C296.026 373.849 297.599 374.01 299.078 374.509C300.383 374.946 301.618 375.57 302.743 376.362C304.819 377.846 306.556 379.755 307.837 381.963Z" fill="#221E20"/>
<path d="M350.634 335.077C347.858 335.834 345.034 336.465 342.23 336.958C340.842 337.229 339.42 337.464 338.018 337.7C336.616 337.936 335.207 338.152 333.798 338.339L334.159 338.297C333.646 338.464 333.021 338.686 332.445 338.908C331.869 339.13 331.279 339.345 330.696 339.602C329.537 340.081 328.385 340.58 327.226 341.108C326.067 341.635 324.985 342.197 323.895 342.773C322.806 343.349 321.744 343.988 320.703 344.619C316.539 347.208 312.868 350.324 310.258 354.113C309.946 354.592 309.613 355.064 309.335 355.564C309.058 356.063 308.773 356.556 308.516 357.069C308.381 357.321 308.263 357.58 308.163 357.847L307.808 358.638C307.593 359.193 307.392 359.783 307.184 360.352C306.349 362.641 305.747 365.007 305.387 367.417C305.009 369.835 304.993 372.295 305.338 374.717C305.699 377.27 306.547 379.73 307.836 381.963C305.608 380.295 303.866 378.062 302.791 375.495C301.654 372.881 301.019 370.078 300.917 367.229C300.813 364.395 301.088 361.559 301.736 358.797C301.903 358.104 302.055 357.41 302.243 356.716C302.43 356.022 302.659 355.293 302.937 354.634C303.214 353.974 303.492 353.246 303.832 352.6C304.15 351.93 304.507 351.279 304.901 350.65C306.428 348.154 308.318 345.9 310.508 343.96C312.632 342.071 314.959 340.426 317.448 339.054C319.884 337.7 322.439 336.573 325.082 335.688C326.386 335.225 327.707 334.834 329.044 334.515C330.398 334.175 331.695 333.911 333.173 333.689L333.5 333.641C334.922 333.675 336.345 333.759 337.768 333.821C339.19 333.884 340.606 333.995 342.035 334.113C344.922 334.328 347.775 334.619 350.634 335.077Z" fill="#221E20"/>
<path d="M349.601 669.75C439.781 669.75 512.888 660.705 512.888 649.548C512.888 638.391 439.781 629.346 349.601 629.346C259.42 629.346 186.313 638.391 186.313 649.548C186.313 660.705 259.42 669.75 349.601 669.75Z" fill="#D0D2D3"/>
<path d="M419.866 524.146C419.866 524.146 423.988 541.578 407.992 568.005C407.825 568.281 407.578 568.499 407.285 568.631C406.991 568.763 406.664 568.803 406.347 568.745C406.03 568.687 405.738 568.534 405.51 568.306C405.282 568.079 405.129 567.788 405.07 567.471C403.384 558.04 398.748 534.902 392.731 527.352L419.866 524.146Z" fill="#48BDA1"/>
<path d="M419.339 520.717C419.339 520.717 423.468 538.15 407.465 564.57C407.3 564.846 407.054 565.066 406.761 565.199C406.468 565.332 406.142 565.373 405.825 565.315C405.508 565.258 405.217 565.106 404.989 564.878C404.761 564.651 404.608 564.359 404.55 564.043C402.857 554.605 398.221 531.474 392.204 523.924L419.339 520.717Z" stroke="#231F20" stroke-width="6" stroke-miterlimit="10"/>
<path d="M406.574 532.221C451.422 518.987 476.187 468.974 461.887 420.512C447.587 372.051 399.638 343.493 354.79 356.726C309.942 369.96 285.178 419.973 299.478 468.435C313.778 516.896 361.726 545.454 406.574 532.221Z" fill="#F5E099"/>
<path d="M402.156 361.004C421.74 372.254 438.77 390.047 445.578 413.129C459.874 461.59 427.09 513.965 390.261 524.86C376.013 529.066 358.921 527.72 342.473 521.696C363.348 533.855 387.512 538.15 406.562 532.529C443.392 521.668 476.176 469.286 461.88 420.798C453.233 391.477 428.076 370.679 402.156 361.004Z" fill="#EFCB6B"/>
<path d="M285.733 300.454C305.803 332.378 313.194 322.926 333.042 382.344C333.042 382.344 337.033 392.018 363.82 384.114C390.608 376.209 388.713 365.918 388.713 365.918C373.134 305.243 384.453 309.15 383.995 271.467L334.902 285.957L285.733 300.454Z" fill="#48BDA1"/>
<path d="M380.587 311.496C381.281 299.434 384.23 291.093 383.994 271.467L334.902 285.957L285.768 300.454C296.233 317.11 303.256 322.481 310.383 332.267C324.478 333.072 337.803 332.378 347.858 329.407C357.914 326.437 369.303 319.81 380.587 311.496Z" fill="#3D9480"/>
<path d="M383.995 271.467C376.231 275.14 368.284 278.411 360.184 281.266C352.134 284.157 344.014 286.808 335.825 289.219C327.636 291.629 319.38 293.813 311.057 295.77C302.703 297.77 294.25 299.334 285.733 300.454C293.495 296.774 301.443 293.499 309.544 290.642C317.594 287.745 325.714 285.099 333.903 282.702C342.092 280.306 350.35 278.124 358.678 276.158C367.031 274.163 375.481 272.597 383.995 271.467Z" fill="#231F20"/>
<path d="M285.733 300.454C288.96 304.722 292.139 308.997 295.658 312.946C296.511 313.966 297.42 314.931 298.301 315.923C299.183 316.916 300.078 317.894 300.994 318.859C302.799 320.809 304.665 322.724 306.483 324.709C310.178 328.709 313.541 333.003 316.539 337.548C317.927 339.873 319.426 342.184 320.655 344.606C321.286 345.806 321.952 346.993 322.556 348.207L324.319 351.865C325.533 354.294 326.567 356.778 327.65 359.249C328.732 361.719 329.732 364.231 330.704 366.737L332.182 370.491C332.661 371.74 333.091 372.989 333.57 374.239L334.916 377.993L335.61 379.867L335.943 380.804L336.026 381.04L336.068 381.158C336.068 381.158 336.068 381.206 336.068 381.158C336.047 381.115 336.028 381.071 336.013 381.026L335.978 380.963L336.019 381.012C336.241 381.27 336.49 381.502 336.762 381.706C337.128 381.973 337.518 382.206 337.928 382.4C338.377 382.625 338.84 382.82 339.316 382.983C339.822 383.135 340.364 383.253 340.884 383.399C343.218 383.806 345.594 383.918 347.956 383.732C353.018 383.275 358.019 382.291 362.877 380.797C367.767 379.419 372.498 377.53 376.992 375.162C379.076 374.035 381.011 372.652 382.752 371.046C383.106 370.637 383.502 370.248 383.842 369.839C384.154 369.444 384.439 369.029 384.695 368.597C385.133 367.925 385.415 367.164 385.521 366.369C385.523 366.348 385.523 366.327 385.521 366.306C385.521 366.306 385.521 366.306 385.521 366.369C385.518 366.417 385.518 366.466 385.521 366.515C385.521 366.584 385.521 366.556 385.521 366.515V366.39L385.466 366.147L385.236 365.175L384.785 363.239L383.883 359.353C383.592 358.055 383.266 356.771 382.995 355.459L382.197 351.504C381.669 348.867 381.107 346.236 380.691 343.565C380.275 340.893 379.782 338.249 379.484 335.549L378.977 331.524C378.831 330.136 378.741 328.811 378.623 327.464C378.345 324.765 378.318 322.023 378.248 319.303C378.303 313.857 378.797 308.424 379.726 303.057C380.177 300.399 380.705 297.783 381.163 295.166C381.413 293.855 381.628 292.55 381.857 291.238C382.086 289.927 382.294 288.622 382.461 287.303C383.259 282.057 383.606 276.741 384.001 271.404L384.244 275.409C384.314 276.748 384.411 278.08 384.411 279.427V283.445C384.411 284.791 384.341 286.131 384.307 287.477C384.126 292.848 383.481 298.206 383.037 303.48C382.505 308.691 382.391 313.935 382.697 319.164C382.974 321.767 383.092 324.362 383.502 326.958C383.682 328.262 383.828 329.56 384.036 330.851L384.73 334.737C385.146 337.326 385.75 339.907 386.291 342.489C386.833 345.071 387.436 347.645 388.054 350.213L388.97 354.072L389.97 357.958L390.976 361.844L391.482 363.787L391.732 364.759L391.795 365.009L391.829 365.127C391.861 365.262 391.884 365.398 391.899 365.536C391.899 365.64 391.899 365.703 391.899 365.73V365.848V366.084C391.899 366.251 391.899 366.397 391.899 366.528C391.818 368.402 391.267 370.226 390.296 371.83C389.886 372.558 389.422 373.254 388.908 373.912C388.408 374.544 387.867 375.113 387.339 375.703C385.204 377.771 382.811 379.556 380.219 381.012C370.315 386.256 359.46 389.46 348.296 390.436C345.331 390.616 342.355 390.416 339.441 389.839C338.677 389.631 337.914 389.444 337.151 389.187C336.368 388.915 335.607 388.583 334.874 388.195C333.189 387.372 331.736 386.141 330.648 384.614C330.579 384.509 330.495 384.385 330.412 384.239L330.294 384.038L330.238 383.933L330.148 383.76C330.086 383.621 329.975 383.358 329.989 383.378L329.947 383.26L329.871 383.017L329.552 382.067L328.92 380.158L327.657 376.348L326.387 372.545L325.068 368.805C324.187 366.306 323.32 363.808 322.348 361.358C321.376 358.909 320.516 356.403 319.461 354.002L317.927 350.366C317.4 349.165 316.817 347.992 316.262 346.805C315.193 344.404 313.888 342.156 312.701 339.817C310.121 335.262 307.181 330.92 303.909 326.833C300.668 322.669 297.219 318.505 294.151 314.084C293.388 312.967 292.611 311.877 291.875 310.76L289.717 307.36C289.023 306.235 288.329 305.056 287.677 303.89L285.733 300.454Z" fill="#231F20"/>
<path d="M344.111 316.763C316.643 324.869 264.997 316.069 239.403 305.888C200.45 290.53 197.813 275.124 197.813 275.124C163.488 142.442 282.853 109.006 282.853 109.006C282.853 109.006 401.212 72.3285 444.412 202.381C444.412 202.381 450.422 218.183 426.181 250.8C409.713 272.903 371.579 308.657 344.111 316.763Z" fill="#48BDA1"/>
<path d="M444.378 202.381C444.912 203.972 445.221 205.631 445.294 207.308C445.378 208.99 445.341 210.676 445.183 212.353C445.086 213.193 445.023 214.04 444.87 214.866L444.419 217.357C444.267 218.19 444.024 218.995 443.829 219.814C443.635 220.633 443.434 221.465 443.135 222.257C441.079 228.693 438.336 234.889 434.953 240.737L432.351 245.068C431.928 245.803 431.449 246.497 430.963 247.191L429.575 249.273C427.743 252.091 425.737 254.825 423.683 257.497C421.629 260.169 419.478 262.757 417.271 265.29C415.064 267.823 412.822 270.336 410.511 272.778C405.927 277.683 401.143 282.402 396.16 286.936C391.191 291.46 386.055 295.826 380.705 299.948C378.04 302.025 375.306 304.017 372.502 305.923C369.698 307.829 366.832 309.659 363.904 311.412C360.955 313.17 357.918 314.775 354.806 316.222C351.645 317.714 348.382 318.978 345.041 320.004C341.684 320.957 338.263 321.671 334.805 322.141C331.383 322.627 327.969 322.933 324.562 323.078C321.154 323.224 317.747 323.266 314.36 323.182C310.973 323.099 307.594 322.946 304.228 322.669C297.489 322.141 290.806 321.281 284.165 320.205C277.524 319.129 270.931 317.769 264.407 316.125C261.146 315.32 257.898 314.417 254.692 313.467C251.485 312.516 248.258 311.475 245.087 310.302C241.915 309.129 238.765 307.859 235.725 306.444C234.198 305.75 232.651 305.056 231.138 304.362L226.634 302.085C220.648 298.97 214.985 295.269 209.728 291.037C208.403 290.003 207.209 288.782 205.967 287.657C204.725 286.533 203.601 285.242 202.567 283.91L201.775 282.924L201.047 281.883C200.811 281.536 200.561 281.189 200.353 280.843L199.707 279.753C198.831 278.321 198.196 276.755 197.827 275.117C198.376 276.679 199.163 278.146 200.158 279.468L200.887 280.468C201.137 280.794 201.422 281.092 201.685 281.412L202.483 282.348L203.351 283.223C204.468 284.43 205.738 285.485 206.96 286.575C208.181 287.664 209.513 288.657 210.894 289.538C216.321 293.255 222.086 296.452 228.112 299.087L232.637 301.051C234.15 301.697 235.704 302.252 237.238 302.856C240.305 304.077 243.387 305.139 246.523 306.097C252.769 308.012 259.189 309.629 265.629 310.954C278.505 313.664 291.561 315.433 304.693 316.249C311.207 316.662 317.738 316.704 324.256 316.374C327.49 316.215 330.71 315.916 333.875 315.451C337.009 315.011 340.11 314.355 343.154 313.487C346.179 312.566 349.136 311.432 352.002 310.094C354.91 308.754 357.762 307.248 360.565 305.625C366.201 302.336 371.646 298.731 376.874 294.826C387.424 286.952 397.412 278.351 406.764 269.086C411.469 264.471 415.98 259.655 420.282 254.686C422.434 252.202 424.502 249.676 426.445 247.018L427.93 245.047C428.423 244.353 428.93 243.735 429.374 243.048L432.15 238.981C435.81 233.526 438.908 227.713 441.394 221.632C441.734 220.882 441.97 220.098 442.24 219.328C442.511 218.558 442.802 217.78 443.018 216.989L443.663 214.609C443.878 213.818 443.996 213.006 444.176 212.201C444.766 208.995 445.092 205.643 444.378 202.381Z" fill="#231F20"/>
<path d="M197.813 275.124L196.022 268.878C195.495 266.796 194.94 264.666 194.44 262.542C193.489 258.295 192.629 254.027 191.97 249.711L191.484 246.47C191.317 245.394 191.227 244.304 191.095 243.222C190.963 242.139 190.831 241.05 190.741 239.96L190.484 236.691L190.36 235.054L190.283 233.409L190.137 230.126L190.089 226.837C190.089 225.74 190.089 224.644 190.089 223.547L190.179 220.258C190.221 219.154 190.311 218.058 190.374 216.961C190.485 214.769 190.762 212.582 190.97 210.389C191.525 206.017 192.226 201.659 193.205 197.35C194.192 193.033 195.42 188.774 196.883 184.594C198.381 180.418 200.1 176.325 202.032 172.332C209.777 156.308 221.464 142.345 235.246 131.151C242.154 125.571 249.552 120.629 257.35 116.383C261.236 114.259 265.215 112.3 269.286 110.505C273.378 108.684 277.572 107.102 281.847 105.765C284.061 105.112 286.226 104.613 288.405 104.148C290.584 103.683 292.777 103.28 294.97 102.926C299.349 102.232 303.763 101.712 308.156 101.386C317.007 100.719 325.901 100.852 334.729 101.781C343.572 102.742 352.294 104.603 360.76 107.333C369.239 110.044 377.371 113.743 384.987 118.354C392.588 122.929 399.633 128.372 405.98 134.572C409.144 137.66 412.101 140.943 414.939 144.288C416.327 146.023 417.715 147.702 418.999 149.493C419.651 150.381 420.324 151.248 420.956 152.151L422.816 154.864C423.447 155.766 424.03 156.696 424.613 157.64L426.362 160.416L428.014 163.261L428.847 164.649L429.624 166.093L431.185 168.98C431.699 169.944 432.164 170.93 432.656 171.908C433.149 172.887 433.649 173.851 434.1 174.851L435.446 177.835C437.23 181.818 438.826 185.878 440.339 189.959C441.068 192.041 441.727 194.081 442.421 196.135L444.315 202.381L441.921 196.329C441.067 194.338 440.242 192.332 439.36 190.354C438.479 188.376 437.598 186.399 436.64 184.462C435.682 182.526 434.773 180.562 433.725 178.668C429.773 171.017 425.208 163.7 420.074 156.786C417.535 153.316 414.786 150.034 411.962 146.835C409.137 143.635 406.084 140.637 402.906 137.813C399.727 134.988 396.438 132.261 393.002 129.783C389.558 127.304 385.981 125.015 382.287 122.927C378.6 120.851 374.793 118.997 370.885 117.375C366.991 115.719 363.011 114.271 358.962 113.038C350.846 110.578 342.501 108.95 334.055 108.18C325.605 107.395 317.103 107.334 308.642 107.999C304.409 108.339 300.189 108.853 296.011 109.554C291.866 110.227 287.763 111.135 283.721 112.274C279.707 113.507 275.768 114.971 271.923 116.66C268.032 118.34 264.215 120.19 260.472 122.212C253.003 126.246 245.892 130.91 239.216 136.154C232.537 141.374 226.405 147.259 220.915 153.719C218.195 156.953 215.647 160.328 213.282 163.83C210.886 167.324 208.701 170.958 206.737 174.712C204.768 178.472 203.005 182.336 201.456 186.288C199.929 190.25 198.646 194.31 197.494 198.411C196.342 202.513 195.523 206.739 194.801 210.903C194.079 215.067 193.649 219.384 193.413 223.665C192.247 240.807 194.218 258.149 197.813 275.124Z" fill="#231F20"/>
<path d="M227.474 277.359C227.474 277.359 243.948 280.037 241.783 267.268" stroke="#231F20" stroke-width="5.89" stroke-miterlimit="10" stroke-linecap="round"/>
<path d="M401.802 225.928C393.162 243.853 377.179 244.179 362.55 249.704C347.921 255.228 333.451 279.045 330.19 280.01C326.928 280.974 301.848 268.823 286.566 272.119C271.285 275.416 257.683 283.82 240.694 273.459" stroke="#231F20" stroke-width="5.89" stroke-miterlimit="10" stroke-linecap="round"/>
<path d="M415.022 222.027C415.022 222.027 402.642 233.221 397.527 221.333" stroke="#231F20" stroke-width="5.89" stroke-miterlimit="10" stroke-linecap="round"/>
<path d="M329.621 278.08C329.621 278.08 309.891 236.99 311.39 205.906" stroke="#231F20" stroke-width="5.89" stroke-miterlimit="10" stroke-linecap="round"/>
<path d="M312.792 252.438C312.615 252.497 312.43 252.525 312.243 252.521H312.049H311.813L311.522 252.466L311.112 252.341C310.893 252.271 310.678 252.19 310.467 252.098C310.064 251.931 309.71 251.758 309.356 251.577C308.662 251.23 307.968 250.883 307.316 250.488C305.991 249.738 304.707 248.961 303.437 248.17C303.114 247.956 302.883 247.628 302.79 247.252C302.696 246.876 302.748 246.478 302.933 246.138C303.119 245.798 303.426 245.54 303.793 245.415C304.16 245.29 304.56 245.307 304.915 245.463C306.24 246.095 307.566 246.706 308.898 247.275C309.557 247.552 310.224 247.823 310.869 248.059C311.196 248.177 311.515 248.288 311.813 248.371C311.945 248.415 312.079 248.449 312.216 248.475H312.347H312.125C311.964 248.483 311.803 248.509 311.647 248.552C312.156 248.43 312.693 248.509 313.147 248.771C313.6 249.034 313.936 249.46 314.085 249.963C314.233 250.465 314.183 251.006 313.945 251.473C313.707 251.94 313.3 252.297 312.806 252.473L312.792 252.438Z" fill="#231F20"/>
<path d="M328.878 243.43C328.719 243.47 328.569 243.538 328.434 243.631L328.33 243.7C328.3 243.716 328.274 243.737 328.253 243.763L328.351 243.68C328.434 243.603 328.531 243.492 328.635 243.374C328.836 243.145 329.051 242.868 329.253 242.597C329.669 242.049 330.086 241.459 330.488 240.862C331.293 239.668 332.077 238.433 332.848 237.191C333.062 236.868 333.389 236.637 333.766 236.544C334.142 236.451 334.539 236.502 334.879 236.688C335.22 236.873 335.478 237.18 335.602 237.547C335.727 237.914 335.71 238.314 335.554 238.669C334.916 240.057 334.263 241.369 333.562 242.715C333.208 243.409 332.868 244.061 332.438 244.741C332.237 245.081 332.028 245.435 331.786 245.782C331.661 245.956 331.536 246.136 331.376 246.338C331.217 246.539 331.21 246.546 331.099 246.664L330.884 246.865L330.703 247.018H330.648L330.544 247.087C330.388 247.19 330.217 247.267 330.037 247.316C329.527 247.438 328.99 247.359 328.537 247.097C328.083 246.834 327.747 246.408 327.599 245.905C327.45 245.402 327.5 244.862 327.738 244.395C327.976 243.928 328.384 243.57 328.878 243.395V243.43Z" fill="#231F20"/>
<path d="M328.211 131.394C330.384 127.401 326.893 121.305 320.412 117.778C313.932 114.251 306.917 114.628 304.744 118.62C302.571 122.613 306.062 128.709 312.543 132.236C319.023 135.764 326.038 135.386 328.211 131.394Z" fill="#3D9480"/>
<path d="M330.365 151.714C332.495 148.981 330.745 144.057 326.458 140.717C322.171 137.377 316.969 136.886 314.839 139.619C312.71 142.352 314.46 147.276 318.747 150.616C323.034 153.956 328.236 154.447 330.365 151.714Z" fill="#3D9480"/>
<path d="M211.809 201.436C213.367 196.229 211.938 191.203 208.618 190.21C205.299 189.217 201.345 192.633 199.788 197.84C198.231 203.047 199.66 208.073 202.979 209.066C206.299 210.059 210.252 206.642 211.809 201.436Z" fill="#3D9480"/>
<path d="M346.575 142.45C347.709 139.913 345.409 136.418 341.438 134.642C337.466 132.866 333.328 133.483 332.193 136.02C331.059 138.557 333.359 142.053 337.33 143.828C341.302 145.604 345.441 144.987 346.575 142.45Z" fill="#3D9480"/>
<path d="M475.086 109.061C481.484 130.769 397.506 146.495 296.934 176.162C196.362 205.83 117.297 238.204 110.891 216.497C104.486 194.789 171.268 120.727 271.833 91.0662C372.398 61.4054 468.674 87.3534 475.086 109.061Z" fill="#EECA6C"/>
<path d="M110.884 216.496C110.551 215.432 110.362 214.328 110.322 213.214C110.302 212.092 110.378 210.971 110.551 209.862C110.917 207.648 111.505 205.476 112.307 203.38C113.94 199.205 115.967 195.194 118.358 191.402C123.168 183.857 128.637 176.752 134.702 170.173C146.852 157.035 160.316 145.175 174.883 134.78C182.114 129.529 189.579 124.611 197.278 120.026C204.977 115.441 212.842 111.164 220.873 107.194C253.074 91.2953 287.771 81.0554 323.444 76.9227C332.341 75.9003 341.261 75.2318 350.204 74.9172C354.673 74.7507 359.149 74.6951 363.618 74.7229C368.088 74.7506 372.557 74.9102 377.019 75.1462C394.891 75.9628 412.631 78.6092 429.963 83.0437C438.628 85.2817 447.079 88.2798 455.217 92.0031C459.271 93.9052 463.135 96.187 466.758 98.8179C468.57 100.143 470.242 101.65 471.748 103.315C472.499 104.147 473.172 105.046 473.76 106.001C474.332 106.96 474.773 107.992 475.072 109.068C474.259 107.017 472.987 105.179 471.352 103.697C469.758 102.191 468.014 100.852 466.148 99.6993C462.422 97.3818 458.486 95.4206 454.392 93.842C446.189 90.6759 437.734 88.2059 429.116 86.4581C420.515 84.6378 411.824 83.2757 403.079 82.3775C398.706 81.9334 394.327 81.5447 389.941 81.2601C385.555 80.9756 381.169 80.8022 376.756 80.705C372.342 80.6078 367.97 80.6009 363.57 80.705C359.17 80.8091 354.791 80.9063 350.384 81.1561C341.622 81.6188 332.887 82.4399 324.179 83.6197C289.33 88.1502 255.414 98.1533 223.684 113.26C215.75 117.003 207.968 121.053 200.339 125.411C196.522 127.583 192.774 129.867 189.04 132.178C185.307 134.489 181.615 136.869 177.978 139.333C174.342 141.796 170.747 144.329 167.222 146.966C163.696 149.604 160.226 152.289 156.812 155.037C149.951 160.534 143.391 166.395 137.158 172.595C130.866 178.74 125.105 185.405 119.934 192.519C117.357 196.073 115.115 199.857 113.237 203.824C112.3 205.804 111.565 207.873 111.044 210.001C110.497 212.126 110.442 214.347 110.884 216.496Z" fill="#221F1F"/>
<path d="M475.086 109.061C475.407 110.041 475.56 111.069 475.537 112.101C475.468 113.142 475.234 114.166 474.843 115.133C473.946 117.026 472.703 118.735 471.179 120.172C468.117 122.964 464.718 125.363 461.061 127.313C457.453 129.3 453.747 131.104 449.957 132.719C446.189 134.364 442.386 135.89 438.555 137.348C423.19 143.073 407.569 147.889 391.912 152.525L380.17 155.995L368.407 159.354L344.895 166.051C329.218 170.485 313.541 174.906 297.954 179.57C282.326 184.122 266.76 188.904 251.194 193.706L227.807 200.847L216.106 204.407L204.364 207.877C188.701 212.478 172.961 216.899 156.958 220.445C152.947 221.299 148.922 222.083 144.869 222.749C140.816 223.415 136.735 223.964 132.62 224.22C128.488 224.569 124.329 224.399 120.239 223.714C118.177 223.335 116.205 222.572 114.424 221.465C113.565 220.871 112.806 220.145 112.175 219.314C111.599 218.467 111.17 217.528 110.905 216.538C111.249 217.493 111.757 218.38 112.404 219.161C113.072 219.899 113.852 220.527 114.715 221.021C116.494 221.928 118.426 222.493 120.413 222.687C124.418 223.053 128.453 222.923 132.426 222.298C140.431 221.07 148.349 219.331 156.132 217.093C163.96 214.963 171.74 212.603 179.484 210.153C187.229 207.704 194.988 205.205 202.719 202.638L214.316 198.786L225.926 194.969L249.174 187.335C264.706 182.339 280.297 177.497 295.949 172.81C311.633 168.258 327.363 163.862 343.14 159.625L366.797 153.379L390.455 147.223C398.339 145.183 406.195 143.059 414.05 140.922C421.906 138.784 429.714 136.55 437.445 134.086C445.198 131.744 452.792 128.904 460.18 125.585C463.854 123.952 467.313 121.873 470.478 119.394C472.04 118.153 473.356 116.63 474.358 114.904C474.816 114.018 475.13 113.065 475.288 112.08C475.395 111.069 475.327 110.048 475.086 109.061Z" fill="#221F1F"/>
<path d="M178.021 161.734C178.021 161.734 160.164 87.2839 175.939 57.7272C175.939 57.7272 213.976 17.7676 249.022 7.43425C284.068 -2.89914 338.233 9.84938 338.233 9.84938C338.233 9.84938 389.095 71.9122 391.899 98.6791C391.899 98.6791 331.037 142.442 290.508 154.399C249.979 166.356 178.021 161.734 178.021 161.734Z" fill="#EECA6C"/>
<path d="M391.892 98.6445C391.198 92.0309 387.561 83.252 382.481 73.7861C382.481 73.7861 317.143 111.108 280.896 121.803C244.649 132.497 173.037 135.599 173.037 135.599C175.39 150.79 178.02 161.762 178.02 161.762C178.02 161.762 249.965 166.349 290.501 154.392C331.036 142.435 391.892 98.6445 391.892 98.6445Z" fill="#A873AD"/>
<path d="M338.226 9.84937C344.083 16.3173 349.691 23.035 355.153 29.836C360.614 36.637 365.902 43.6254 370.92 50.8081C373.437 54.3983 375.893 58.0348 378.29 61.7176C380.663 65.4096 382.926 69.1987 385.091 73.0503C387.285 76.9281 389.273 80.9195 391.045 85.0076C391.51 86.0277 391.906 87.0895 392.315 88.1583C392.725 89.227 393.072 90.3096 393.426 91.4061C393.78 92.5025 394.043 93.6477 394.335 94.7789C394.484 95.3571 394.6 95.9432 394.682 96.5346L394.973 98.3182L395.251 100.025L393.703 101.157C389.789 104.016 385.875 106.757 381.905 109.484C379.928 110.872 377.957 112.205 375.958 113.537C373.959 114.87 371.974 116.216 369.955 117.507C365.937 120.137 361.87 122.691 357.803 125.245L351.641 128.978C349.559 130.227 347.477 131.407 345.395 132.629C337.067 137.445 328.608 142.053 319.877 146.203C311.147 150.353 302.257 154.253 292.812 156.98C292.222 157.154 291.653 157.369 291.056 157.515L289.273 157.952L285.706 158.833C283.339 159.472 280.945 159.86 278.558 160.319L274.97 161.012C273.776 161.221 272.575 161.359 271.375 161.526L267.78 162.005C266.579 162.158 265.386 162.338 264.185 162.435L256.982 163.129C254.581 163.344 252.179 163.462 249.778 163.636C248.578 163.712 247.377 163.802 246.176 163.865L242.575 164.004C240.173 164.066 237.779 164.205 235.378 164.212L228.182 164.309H220.985C218.591 164.309 216.196 164.205 213.802 164.149C211.408 164.094 209.014 164.004 206.619 163.899L203.032 163.754L199.444 163.546C197.056 163.414 194.669 163.254 192.282 163.081C187.507 162.757 182.742 162.322 177.986 161.776C197.112 161.776 216.196 161.228 235.17 159.895C244.65 159.111 254.109 158.299 263.464 156.876C272.818 155.454 282.055 153.684 290.918 150.86C293.111 150.082 295.317 149.354 297.51 148.556L304.02 145.898C305.109 145.481 306.178 144.968 307.247 144.51L310.46 143.045C311.536 142.559 312.611 142.088 313.673 141.581L316.845 140.006L320.023 138.43C321.078 137.917 322.14 137.396 323.181 136.834L329.461 133.524C331.543 132.413 333.625 131.234 335.707 130.054L338.816 128.326L341.897 126.549C350.128 121.83 358.234 116.875 366.27 111.795C374.307 106.715 382.315 101.545 390.074 96.153L388.804 98.9913C388.401 95.1605 387.11 91.1493 385.639 87.1936C384.1 83.2186 382.348 79.329 380.392 75.5416C378.449 71.7178 376.367 67.9079 374.202 64.1951C372.037 60.4823 369.83 56.7278 367.533 53.0497C362.907 45.7074 358.144 38.4391 353.244 31.2448C348.345 24.0505 343.339 16.9187 338.226 9.84937Z" fill="#221F1F"/>
<path d="M178.02 161.734C177.375 159.652 176.785 157.501 176.216 155.371C175.647 153.24 175.105 151.103 174.585 148.958C173.551 144.669 172.586 140.353 171.74 136.015C170.005 127.354 168.675 118.603 167.749 109.762C167.287 105.348 166.976 100.909 166.819 96.4445C166.68 91.9822 166.632 87.5061 166.882 83.009C167.109 78.4676 167.657 73.9479 168.519 69.4833C169.381 64.8561 170.883 60.3716 172.982 56.1589L173.176 55.7841L173.509 55.4302C176.174 52.6057 178.846 49.9894 181.601 47.3731C184.356 44.7568 187.153 42.2099 189.991 39.7393C195.703 34.7704 201.595 30.0236 207.757 25.5404C210.838 23.3266 213.954 21.1475 217.174 19.1003C220.394 17.053 223.67 15.089 227.036 13.2708C233.798 9.5189 240.958 6.53479 248.383 4.37398C255.84 2.44084 263.488 1.33536 271.187 1.07757C274.997 0.90407 278.821 0.917966 282.589 1.00818C286.358 1.0984 290.147 1.38293 293.908 1.70217C301.438 2.31981 308.898 3.41623 316.296 4.74867C323.687 6.0885 331.006 7.79784 338.226 9.87026C323.481 7.56473 308.604 6.19944 293.686 5.7827C289.98 5.7133 286.274 5.69252 282.582 5.82438C278.89 5.95624 275.205 6.102 271.548 6.46287C264.295 7.03612 257.121 8.35464 250.139 10.3977C246.706 11.4953 243.34 12.7883 240.055 14.2702C236.745 15.7553 233.532 17.4694 230.339 19.2321C223.967 22.8787 217.811 26.8897 211.9 31.2449C205.964 35.6124 200.193 40.2112 194.585 45.0413C191.81 47.4564 189.034 49.8992 186.299 52.4114C183.565 54.9236 180.886 57.4913 178.346 60.0452L178.874 59.3512C176.975 62.9943 175.574 66.876 174.71 70.8921C173.783 75.0464 173.125 79.256 172.739 83.4949C172.004 92.1382 171.862 100.822 172.316 109.484C172.475 113.85 172.774 118.208 173.141 122.573C173.509 126.938 173.905 131.303 174.411 135.661C175.425 144.322 176.583 153.039 178.02 161.734Z" fill="#221F1F"/>
<path d="M173.037 135.599C191.344 132.92 209.638 130.595 227.862 127.965C232.421 127.341 236.96 126.633 241.506 125.974C246.051 125.314 250.576 124.586 255.073 123.76C257.329 123.364 259.584 122.996 261.818 122.545L265.177 121.9L266.857 121.574L268.515 121.206C272.922 120.313 277.281 119.199 281.576 117.868C285.83 116.549 290.084 114.932 294.318 113.267L300.667 110.706L306.983 108.02C315.394 104.384 323.784 100.641 332.154 96.7915C348.892 89.1577 365.59 81.3157 382.495 73.793C366.991 83.9112 350.954 93.1204 334.61 101.788L328.455 105.001L322.25 108.124C320.192 109.17 318.11 110.19 316.005 111.185C313.923 112.17 311.841 113.204 309.71 114.155C301.251 118.169 292.555 121.666 283.672 124.627C274.539 127.452 265.316 128.999 256.121 130.373C246.926 131.747 237.709 132.719 228.479 133.482C219.249 134.246 210.027 134.87 200.79 135.19C191.553 135.509 182.295 135.766 173.037 135.599Z" fill="#221F1F"/>
<path d="M212.31 207.829C212.31 207.829 215.676 183.643 239.091 179.472" stroke="#231F20" stroke-width="5.89" stroke-miterlimit="10" stroke-linecap="round"/>
<path d="M395.202 153.878C395.202 153.878 379.24 135.384 357.317 144.593" stroke="#231F20" stroke-width="5.89" stroke-miterlimit="10" stroke-linecap="round"/>
<path d="M374.574 420.245C390.212 415.631 402.318 409.953 401.613 407.564C400.908 405.174 387.659 406.978 372.021 411.592C356.383 416.207 344.278 421.884 344.983 424.274C345.688 426.663 358.936 424.859 374.574 420.245Z" fill="#F7A23E"/>
<path d="M394.661 488.311C410.299 483.696 422.405 478.019 421.7 475.629C420.995 473.24 407.746 475.044 392.108 479.658C376.47 484.272 364.365 489.95 365.07 492.339C365.775 494.729 379.023 492.925 394.661 488.311Z" fill="#F7A23E"/>
<path d="M385.322 456.654C406.956 450.271 423.922 443.159 423.217 440.769C422.512 438.38 404.402 441.618 382.769 448.001C361.135 454.385 344.169 461.497 344.874 463.886C345.579 466.275 363.688 463.038 385.322 456.654Z" fill="#F7A23E"/>
<path d="M256.711 257.4C272.05 257.4 284.484 244.965 284.484 229.627C284.484 214.288 272.05 201.854 256.711 201.854C241.372 201.854 228.938 214.288 228.938 229.627C228.938 244.965 241.372 257.4 256.711 257.4Z" fill="#F7F8E2"/>
<path d="M283.346 221.771C284.673 225.23 285.245 228.933 285.026 232.632C284.795 236.397 283.794 240.075 282.083 243.437C280.352 246.832 277.948 249.84 275.018 252.278C272.07 254.728 268.654 256.55 264.978 257.635C261.301 258.72 257.442 259.043 253.637 258.586C249.852 258.128 246.199 256.905 242.901 254.992C239.642 253.097 236.807 250.553 234.573 247.517C232.379 244.53 230.848 241.109 230.083 237.483C232.629 244.203 237.574 249.743 243.963 253.035C250.212 256.208 257.438 256.871 264.161 254.888C270.883 252.905 276.593 248.425 280.119 242.368C283.701 236.136 284.851 228.799 283.346 221.771Z" fill="#231F20"/>
<path d="M283.346 221.771C280.799 215.051 275.855 209.511 269.467 206.219C263.218 203.046 255.992 202.383 249.271 204.365C242.549 206.347 236.839 210.823 233.31 216.878C229.732 223.114 228.586 230.452 230.09 237.483C228.765 234.02 228.195 230.315 228.418 226.615C228.643 222.852 229.642 219.176 231.353 215.816C233.087 212.421 235.493 209.413 238.425 206.975C241.372 204.526 244.787 202.703 248.462 201.617C252.137 200.531 255.994 200.206 259.799 200.66C263.585 201.115 267.238 202.338 270.535 204.255C273.794 206.149 276.629 208.693 278.863 211.729C281.055 214.719 282.584 218.143 283.346 221.771Z" fill="#231F20"/>
<path d="M257.627 251.459C267.688 251.459 275.844 243.303 275.844 233.242C275.844 223.181 267.688 215.025 257.627 215.025C247.566 215.025 239.41 223.181 239.41 233.242C239.41 243.303 247.566 251.459 257.627 251.459Z" fill="#040809"/>
<path d="M370.212 223.922C385.55 223.922 397.985 211.488 397.985 196.149C397.985 180.81 385.55 168.376 370.212 168.376C354.873 168.376 342.438 180.81 342.438 196.149C342.438 211.488 354.873 223.922 370.212 223.922Z" fill="#F7F8E2"/>
<path d="M396.847 188.286C398.168 191.749 398.738 195.454 398.519 199.154C398.295 202.918 397.293 206.595 395.577 209.952C393.848 213.351 391.444 216.362 388.512 218.801C385.563 221.247 382.146 223.068 378.47 224.151C374.794 225.235 370.935 225.558 367.13 225.102C363.346 224.646 359.693 223.425 356.395 221.514C353.134 219.62 350.299 217.073 348.067 214.033C345.873 211.045 344.34 207.624 343.57 203.998C346.12 210.718 351.063 216.259 357.449 219.557C363.7 222.726 370.926 223.386 377.648 221.402C384.369 219.418 390.078 214.939 393.606 208.883C397.189 202.652 398.343 195.317 396.847 188.286Z" fill="#231F20"/>
<path d="M396.847 188.286C394.295 181.568 389.352 176.03 382.967 172.734C376.718 169.561 369.491 168.898 362.769 170.881C356.046 172.864 350.337 177.343 346.811 183.4C343.228 189.632 342.078 196.969 343.584 203.998C342.263 200.537 341.693 196.835 341.911 193.137C342.142 189.372 343.144 185.694 344.854 182.332C346.583 178.935 348.987 175.926 351.918 173.49C354.866 171.041 358.283 169.218 361.959 168.133C365.635 167.049 369.494 166.725 373.3 167.182C377.085 167.639 380.737 168.86 384.036 170.77C387.295 172.667 390.13 175.213 392.363 178.251C394.55 181.242 396.078 184.662 396.847 188.286Z" fill="#231F20"/>
<path d="M371.121 217.982C381.182 217.982 389.338 209.826 389.338 199.765C389.338 189.704 381.182 181.548 371.121 181.548C361.06 181.548 352.904 189.704 352.904 199.765C352.904 209.826 361.06 217.982 371.121 217.982Z" fill="#040809"/>
<path d="M354.743 254.221C354.743 254.221 364.091 287.734 336.734 295.805C309.377 303.876 298.148 271.932 298.148 271.932L331.925 279.496L354.743 254.221Z" fill="#231F20"/>
<path d="M352.404 283.778C349.431 281.9 346.089 280.682 342.604 280.209C339.119 279.735 335.574 280.016 332.207 281.033C328.841 282.05 325.732 283.779 323.092 286.102C320.452 288.426 318.343 291.29 316.907 294.5C322.243 297.123 328.809 298.143 336.734 295.805C344.659 293.466 349.524 288.969 352.404 283.778Z" fill="#F16B6C"/>
<path d="M344.576 515.145C345.584 514.385 346.744 513.85 347.977 513.576C349.213 513.283 350.482 513.155 351.752 513.195C354.301 513.274 356.81 513.861 359.129 514.923C361.508 515.964 363.585 517.589 365.167 519.649C365.956 520.699 366.529 521.894 366.853 523.167C367.176 524.402 367.176 525.7 366.853 526.935C366.387 524.684 365.23 522.634 363.543 521.071C361.906 519.562 360.03 518.335 357.991 517.442C355.929 516.503 353.766 515.804 351.544 515.36C349.256 514.843 346.891 514.77 344.576 515.145Z" fill="#231F20"/>
<path d="M366.825 526.936C366.888 529.892 358.137 550.774 364.14 565.688C370.143 580.601 382.738 597.437 385.979 609.325C388.845 619.818 386.153 640.554 360.448 648.119C334.743 655.683 322.973 643.261 320.197 638.209C317.421 633.156 317.56 628.646 323.216 622.386C328.872 616.126 336.956 609.575 331.543 596.979C326.13 584.383 323.216 577.319 327.858 557.61C332.501 537.901 337.574 518.448 344.514 515.145C351.454 511.841 367.138 517.123 366.825 526.936Z" fill="#48BDA1"/>
<path d="M366.825 526.935C366.783 527.768 366.667 528.594 366.478 529.406L365.944 531.842C365.583 533.461 365.241 535.08 364.917 536.7C364.248 539.919 363.766 543.175 363.473 546.45L363.362 547.672L363.314 548.893C363.314 549.712 363.203 550.524 363.238 551.329V553.758L363.425 556.159C363.728 559.304 364.512 562.385 365.75 565.292C368.536 571.219 371.676 576.973 375.153 582.523C376.874 585.35 378.579 588.2 380.268 591.073C381.954 593.953 383.606 596.882 385.126 599.929C386.748 603.053 388.043 606.337 388.991 609.727C389.804 613.288 390.013 616.959 389.609 620.588C389.212 624.212 388.242 627.749 386.736 631.067C385.964 632.727 385.064 634.323 384.043 635.842C383.01 637.352 381.864 638.781 380.615 640.117C378.109 642.736 375.236 644.978 372.086 646.772C369.007 648.531 365.75 649.957 362.37 651.026C361.537 651.318 360.691 651.526 359.851 651.72L357.318 652.373C356.485 652.616 355.604 652.734 354.743 652.893L352.148 653.351C351.273 653.476 350.385 653.539 349.504 653.629C348.622 653.719 347.748 653.837 346.853 653.816H344.167C343.717 653.825 343.268 653.807 342.821 653.761L341.433 653.65C334.264 653.094 326.935 650.318 321.467 645.093C320.069 643.752 318.836 642.25 317.796 640.617C317.526 640.19 317.278 639.75 317.053 639.298C316.831 638.877 316.623 638.433 316.428 637.966C316.017 637.012 315.697 636.022 315.471 635.009C314.999 632.846 315.088 630.598 315.728 628.479C316.328 626.553 317.253 624.744 318.462 623.128C319.537 621.678 320.712 620.305 321.98 619.02C323.139 617.812 324.264 616.647 325.311 615.488C326.318 614.373 327.245 613.191 328.087 611.948C328.841 610.787 329.442 609.535 329.878 608.222C330.625 605.569 330.577 602.755 329.739 600.13L329.045 598.048L328.115 595.73C327.498 594.175 326.887 592.6 326.304 590.99C325.092 587.718 324.22 584.329 323.701 580.879C323.222 577.412 323.175 573.899 323.563 570.42C323.941 567.036 324.525 563.678 325.311 560.365C326.11 557.075 326.963 553.897 327.851 550.684C329.662 544.285 331.522 537.88 333.889 531.634C335.053 528.493 336.423 525.433 337.991 522.473C338.794 520.995 339.723 519.588 340.766 518.268C341.772 516.917 343.088 515.829 344.604 515.096C343.215 515.973 342.048 517.161 341.196 518.566C340.313 519.948 339.551 521.404 338.92 522.917C337.64 525.943 336.56 529.05 335.686 532.217C333.882 538.546 332.432 544.986 331.099 551.461C330.405 554.688 329.711 557.95 329.142 561.177C328.572 564.35 328.194 567.555 328.011 570.774C327.834 573.905 328.016 577.046 328.552 580.136C329.147 583.229 330.058 586.252 331.273 589.158C331.876 590.65 332.522 592.142 333.188 593.634L334.208 595.896C334.541 596.75 334.902 597.604 335.215 598.464C335.527 599.325 335.749 600.269 335.909 601.24C336.098 602.19 336.214 603.153 336.256 604.12C336.256 604.613 336.297 605.099 336.297 605.591L336.172 607.07C336.134 607.565 336.058 608.057 335.943 608.541C335.832 609.02 335.763 609.519 335.61 609.984C333.362 617.757 326.922 622.302 323.764 626.917C323.007 627.975 322.424 629.146 322.036 630.387C321.722 631.46 321.691 632.596 321.946 633.684C322.09 634.287 322.292 634.875 322.549 635.44C322.81 636.047 323.121 636.632 323.479 637.188C324.242 638.337 325.136 639.392 326.144 640.332C330.308 644.267 336.082 646.536 342.106 646.974L343.23 647.071C343.605 647.115 343.983 647.131 344.361 647.119H346.651C347.419 647.107 348.186 647.054 348.949 646.96C349.712 646.883 350.482 646.842 351.245 646.738L353.55 646.335C354.321 646.227 355.086 646.074 355.84 645.877L358.123 645.301C358.886 645.107 359.657 644.926 360.385 644.676C363.334 643.794 366.179 642.598 368.873 641.109C371.502 639.643 373.918 637.824 376.055 635.703C378.157 633.595 379.897 631.154 381.205 628.479C382.504 625.782 383.368 622.896 383.766 619.929C384.156 616.949 384.06 613.926 383.481 610.977C382.741 607.955 381.702 605.014 380.379 602.198C377.735 596.32 374.411 590.587 371.316 584.709C368.22 578.831 365.104 572.877 362.71 566.534C361.569 563.247 360.939 559.804 360.843 556.326V553.765L360.996 551.225C360.996 550.378 361.169 549.538 361.26 548.706L361.426 547.45L361.641 546.207C362.219 542.912 362.991 539.654 363.952 536.45C364.438 534.854 364.942 533.269 365.465 531.696L366.235 529.337C366.504 528.556 366.701 527.752 366.825 526.935Z" fill="#231F20"/>
<path d="M319.134 635.807C319.435 636.634 319.797 637.436 320.217 638.209C321.653 640.647 323.564 642.771 325.838 644.454C327.92 641.193 330.259 636.085 328.004 632.435C325.748 628.784 321.764 632.546 319.134 635.807Z" fill="#0F1028"/>
<path d="M339.968 650.145C340.197 644.711 339.968 635.28 335.866 634.26C331.557 633.191 329.107 641.567 328.115 646.023C331.734 648.21 335.772 649.614 339.968 650.145Z" fill="#0F1028"/>
<path d="M347.72 637.348C343.209 636.98 341.89 645.225 341.509 650.353C345.781 650.724 350.085 650.491 354.292 649.659C353.3 644.031 351.37 637.626 347.72 637.348Z" fill="#0F1028"/>
<path d="M360.448 648.119C362.468 647.523 364.45 646.802 366.381 645.96C365.181 642.671 363.126 639.159 359.733 638.5C354.875 637.556 355.708 645.065 356.52 649.139C357.804 648.847 359.094 648.514 360.448 648.119Z" fill="#0F1028"/>
<path d="M349.85 571.253C349.85 571.253 352.786 580.83 344.208 584.779C335.63 588.728 332.202 580.178 333.701 576.985C335.2 573.793 339.322 573.689 341.529 575.715" stroke="#1D6F5E" stroke-width="3" stroke-miterlimit="10" stroke-linecap="round"/>
<path d="M451.394 483.638C449.254 484.575 447.313 485.913 445.675 487.58C444.055 489.164 442.618 490.926 441.394 492.833C440.17 494.69 439.262 496.738 438.708 498.892C438.138 501.12 438.279 503.471 439.11 505.616C438.155 504.762 437.437 503.674 437.028 502.459C436.609 501.215 436.44 499.902 436.529 498.593C436.739 496.002 437.604 493.507 439.041 491.341C440.415 489.196 442.2 487.344 444.294 485.893C445.339 485.168 446.476 484.585 447.674 484.158C448.862 483.72 450.131 483.543 451.394 483.638Z" fill="#231F20"/>
<path d="M439.11 505.616C440.658 508.129 459.347 520.919 462.4 536.7C465.454 552.481 464.01 573.481 467.737 585.202C471.027 595.57 484.531 611.511 510.244 603.94C535.956 596.369 539.085 579.498 538.648 573.786C538.211 568.075 535.678 564.32 527.544 562.134C519.411 559.948 509.05 558.831 506.725 545.333C504.4 531.835 503.026 524.312 488.452 510.259C473.879 496.206 459.035 482.653 451.401 483.652C443.767 484.651 433.524 497.538 439.11 505.616Z" fill="#48BDA1"/>
<path d="M439.11 505.616C439.666 506.227 440.274 506.787 440.928 507.289L442.858 508.857C444.156 509.898 445.432 510.939 446.709 512.029C449.258 514.196 451.675 516.514 453.948 518.969L454.801 519.892L455.62 520.856C456.155 521.55 456.724 522.133 457.216 522.827L458.722 524.909L460.11 527.067C461.916 530.043 463.257 533.277 464.087 536.658C465.516 543.286 466.169 549.976 466.717 556.596C467.265 563.217 467.633 569.83 468.605 576.201C469.021 579.273 469.744 582.295 470.763 585.223C471.879 588.001 473.441 590.58 475.385 592.857C478.279 596.296 481.982 598.963 486.162 600.616C487.546 601.156 488.968 601.592 490.416 601.92C493.362 602.54 496.379 602.755 499.382 602.559C502.452 602.347 505.491 601.807 508.446 600.949C509.195 600.761 509.938 600.498 510.681 600.255L512.915 599.505C513.656 599.258 514.384 598.97 515.094 598.645L517.239 597.736C517.933 597.402 518.627 597.042 519.321 596.674C520.011 596.337 520.683 595.964 521.333 595.556L523.262 594.328C523.587 594.132 523.895 593.912 524.185 593.669L525.081 592.975C529.876 589.352 533.485 584.321 534.852 578.748C535.191 577.412 535.37 576.039 535.386 574.661C535.384 573.998 535.329 573.337 535.22 572.683C535.127 572.074 534.978 571.474 534.775 570.892C534.403 569.837 533.759 568.899 532.909 568.172C531.912 567.338 530.787 566.67 529.578 566.194C524.421 564.036 516.545 563.71 510.438 558.408C510.056 558.095 509.744 557.714 509.369 557.374C509.013 557.028 508.684 556.657 508.384 556.263L507.474 555.09C507.211 554.674 506.968 554.251 506.711 553.834C506.224 552.997 505.8 552.125 505.441 551.225C505.08 550.343 504.837 549.434 504.553 548.539C504.268 547.644 504.178 546.728 503.998 545.826L503.623 543.383C503.373 541.766 503.109 540.156 502.804 538.58C502.25 535.492 501.381 532.469 500.209 529.559C498.976 526.676 497.423 523.94 495.579 521.404C493.68 518.798 491.622 516.311 489.417 513.958C487.203 511.592 484.844 509.232 482.526 506.886C477.89 502.174 473.178 497.552 468.223 493.215C465.77 491.03 463.175 489.008 460.457 487.163C459.109 486.235 457.683 485.425 456.196 484.741C454.713 484.021 453.084 483.655 451.435 483.673C453.107 483.458 454.806 483.655 456.383 484.249C457.975 484.793 459.517 485.473 460.991 486.282C463.913 487.914 466.723 489.739 469.403 491.744C474.788 495.706 479.812 500.071 484.823 504.464C487.307 506.685 489.75 508.892 492.207 511.224C494.672 513.577 496.99 516.08 499.147 518.719C501.359 521.428 503.224 524.402 504.698 527.574C506.14 530.754 507.247 534.075 508.002 537.484C508.391 539.15 508.731 540.801 509.057 542.439L509.529 544.889L510.056 547.033C510.772 549.695 512.259 552.085 514.331 553.904C515.407 554.77 516.59 555.495 517.85 556.062C519.229 556.652 520.649 557.146 522.097 557.54C523.603 557.943 525.178 558.31 526.816 558.699C528.575 559.091 530.305 559.605 531.993 560.24C533.886 560.941 535.646 561.96 537.198 563.252C538.884 564.684 540.177 566.523 540.952 568.595C541.318 569.566 541.587 570.57 541.757 571.593C541.847 572.093 541.917 572.579 541.958 573.058C542 573.536 542.028 574.05 542.049 574.564C542.063 576.501 541.842 578.433 541.389 580.317C539.64 587.673 534.991 593.988 529.265 598.36L528.197 599.179C527.846 599.461 527.477 599.721 527.093 599.956L524.824 601.393C524.07 601.863 523.291 602.294 522.492 602.684C521.708 603.079 520.924 603.516 520.126 603.884L517.697 604.911C516.885 605.238 516.087 605.605 515.254 605.862L512.769 606.688C511.944 606.966 511.125 607.25 510.264 607.451C506.838 608.397 503.32 608.974 499.771 609.172C496.141 609.374 492.501 609.047 488.966 608.201C487.193 607.754 485.456 607.176 483.768 606.473C482.085 605.748 480.461 604.894 478.91 603.919C475.842 601.951 473.108 599.505 470.811 596.674C468.497 593.85 466.678 590.654 465.433 587.222C464.386 583.86 463.688 580.4 463.351 576.895C462.969 573.502 462.768 570.143 462.657 566.812C462.546 563.481 462.393 560.156 462.303 556.86C462.209 550.311 461.72 543.773 460.839 537.283C460.295 534.171 459.282 531.159 457.834 528.351L456.689 526.269L455.391 524.187C454.975 523.493 454.454 522.862 454.003 522.182L453.309 521.189L452.56 520.218C450.533 517.627 448.359 515.155 446.05 512.813C444.898 511.629 443.742 510.456 442.58 509.294L440.81 507.539C440.186 506.951 439.617 506.308 439.11 505.616Z" fill="#231F20"/>
<path d="M538.239 571.163C538.439 572.021 538.571 572.894 538.634 573.772C538.756 576.609 538.305 579.441 537.309 582.1C533.839 580.469 529.05 577.471 528.981 573.183C528.911 568.894 534.276 569.851 538.239 571.163Z" fill="#0F1028"/>
<path d="M528.523 594.515C525.379 590.074 520.431 582.024 523.339 578.942C526.378 575.709 532.985 581.413 536.24 584.619C534.381 588.417 531.753 591.786 528.523 594.515Z" fill="#0F1028"/>
<path d="M515.074 587.951C518.655 585.175 524.241 591.42 527.343 595.501C523.957 598.123 520.219 600.256 516.239 601.837C514.019 596.618 512.166 590.192 515.074 587.951Z" fill="#0F1028"/>
<path d="M510.243 603.926C508.222 604.514 506.166 604.978 504.088 605.314C503.31 601.899 503.13 597.833 505.621 595.439C509.209 591.969 512.561 598.77 514.095 602.628C512.867 603.1 511.59 603.53 510.243 603.926Z" fill="#0F1028"/>
<path d="M477.418 533.619C477.418 533.619 480.152 543.258 489.5 541.946C498.848 540.635 497.086 531.537 494.095 529.691C491.103 527.845 487.585 529.982 486.828 532.876" stroke="#1D6F5E" stroke-width="3" stroke-miterlimit="10" stroke-linecap="round"/>
<path d="M237.349 353.745C237.349 353.745 239.715 347.631 246.613 354.668C253.512 361.705 259.008 368.104 259.008 368.104L249.396 373.572C249.396 373.572 235.781 360.685 237.349 353.745Z" fill="#0F1028"/>
<path d="M221.588 367.618C221.588 367.618 221.651 361.067 230.61 365.224C239.569 369.381 246.933 373.44 246.933 373.44L239.826 381.963C239.826 381.963 222.56 374.669 221.588 367.618Z" fill="#0F1028"/>
<path d="M221.998 393.066C221.998 393.066 218.528 387.514 228.292 386.21C238.057 384.905 246.468 384.329 246.468 384.329L245.08 395.301C245.08 395.301 226.641 398.479 221.998 393.066Z" fill="#0F1028"/>
<path d="M235.815 372.379C235.815 372.379 248.466 353.732 269.161 362.441C289.855 371.15 317.58 388.444 322.597 396.002C327.615 403.559 326.865 415.51 324.402 419.41C321.938 423.31 318.996 434.15 298.322 427.169C277.648 420.187 247.599 409.646 239.694 400.561C231.79 391.477 231.672 379.034 235.815 372.379Z" fill="#48BDA1"/>
<path d="M239.729 400.561C235.492 396.502 232.813 391.084 232.158 385.252C231.793 382.288 231.972 379.283 232.686 376.383C232.873 375.65 233.105 374.929 233.38 374.225L233.824 373.17C233.997 372.823 234.191 372.476 234.379 372.136L234.67 371.608L235.031 371.109C235.253 370.81 235.482 370.512 235.725 370.227C236.19 369.651 236.683 369.096 237.183 368.555C239.219 366.413 241.526 364.547 244.046 363.003C246.606 361.472 249.401 360.375 252.318 359.755C253.765 359.458 255.235 359.29 256.711 359.256C261.081 359.202 265.388 360.296 269.203 362.427C263.776 360.761 258.064 360.345 252.839 361.858C247.621 363.449 242.928 366.414 239.251 370.443C238.786 370.935 238.328 371.435 237.898 371.955C237.682 372.212 237.467 372.476 237.266 372.74L236.995 373.1L236.773 373.503C236.133 374.634 235.621 375.833 235.246 377.077C234.516 379.671 234.213 382.366 234.351 385.058C234.633 390.632 236.499 396.01 239.729 400.561Z" fill="#231F20"/>
<path d="M269.161 362.441C276.366 365.081 283.401 368.166 290.224 371.678C297.075 375.175 303.735 379.034 310.176 383.24C313.444 385.36 316.579 387.677 319.565 390.179C320.314 390.832 321.071 391.456 321.779 392.199L322.861 393.288L323.882 394.551C325.112 396.251 326.087 398.121 326.776 400.103C327.456 402.041 327.921 404.047 328.164 406.085C328.417 408.106 328.48 410.146 328.351 412.179C328.241 414.276 327.858 416.35 327.213 418.348C327.022 418.899 326.79 419.435 326.519 419.951C326.186 420.569 326.019 420.846 325.825 421.221C325.374 422.033 324.936 422.908 324.381 423.803C323.273 425.699 321.793 427.351 320.03 428.661C319.801 428.82 319.579 428.994 319.336 429.146L318.593 429.549C318.114 429.826 317.61 430.058 317.088 430.243C316.567 430.43 316.054 430.646 315.526 430.798L313.937 431.145C313.416 431.259 312.887 431.328 312.354 431.353C311.827 431.353 311.293 431.457 310.766 431.471L309.211 431.423C308.696 431.422 308.181 431.389 307.67 431.325C306.664 431.18 305.644 431.09 304.658 430.895L301.73 430.201C297.871 429.07 294.346 427.745 290.723 426.461C287.1 425.177 283.526 423.844 279.952 422.45C272.797 419.674 265.705 416.724 258.793 413.365C255.323 411.651 251.937 409.895 248.668 407.813C245.399 405.731 242.193 403.525 239.764 400.534C241.133 401.855 242.646 403.019 244.275 404.003C245.878 405.017 247.537 405.947 249.237 406.779C252.624 408.494 256.1 410.034 259.647 411.457C263.193 412.88 266.718 414.233 270.299 415.558C273.88 416.884 277.468 418.133 281.077 419.354L291.931 422.97C295.539 424.157 299.218 425.413 302.729 426.336L305.394 426.898C306.282 427.071 307.17 427.134 308.059 427.266C308.494 427.314 308.932 427.335 309.37 427.328L310.682 427.363C311.112 427.363 311.529 427.287 311.959 427.252C312.38 427.235 312.798 427.18 313.208 427.085L314.416 426.815C314.804 426.697 315.165 426.53 315.547 426.391C315.922 426.259 316.28 426.084 316.616 425.871L317.143 425.593C317.303 425.475 317.455 425.35 317.615 425.239C318.919 424.239 320.014 422.992 320.835 421.568C321.293 420.874 321.723 420.014 322.223 419.153C322.686 418.448 323.074 417.697 323.382 416.912C323.913 415.27 324.233 413.568 324.333 411.846C324.589 408.285 324.18 404.708 323.125 401.297C322.601 399.657 321.844 398.1 320.877 396.675L320.12 395.69L319.204 394.718C318.614 394.024 317.906 393.448 317.233 392.83C316.56 392.213 315.845 391.609 315.151 391.012L314.076 390.117L312.958 389.249C311.494 388.077 309.96 386.959 308.441 385.842C305.359 383.635 302.22 381.5 299.023 379.437C295.852 377.355 292.597 375.363 289.342 373.392C282.735 369.515 276.008 365.865 269.161 362.441Z" fill="#231F20"/>
<path d="M516.163 358.097C516.163 358.097 516.024 351.545 507.141 355.806C498.258 360.067 490.909 364.204 490.909 364.204L498.078 372.629C498.078 372.629 515.275 365.161 516.163 358.097Z" fill="#0F1028"/>
<path d="M526.254 376.515C526.254 376.515 528.426 370.338 518.62 371.199C508.814 372.059 500.465 373.35 500.465 373.35L504.213 383.76C504.213 383.76 522.929 382.816 526.254 376.515Z" fill="#0F1028"/>
<path d="M517.176 400.298C517.176 400.298 522.339 396.259 513.609 391.699C504.879 387.14 497.162 383.732 497.162 383.732L494.712 394.517C494.712 394.517 510.993 403.809 517.176 400.298Z" fill="#0F1028"/>
<path d="M488.584 345.876C488.584 345.876 482.817 342.773 482.144 352.6C481.471 362.427 481.45 370.866 481.45 370.866L492.311 368.784C492.311 368.784 494.289 350.123 488.584 345.876Z" fill="#0F1028"/>
<path d="M511.25 376.14C511.25 376.14 505.698 354.294 483.296 355.418C460.895 356.542 428.909 363.343 421.58 368.722C414.252 374.1 410.914 385.599 411.899 390.11C412.885 394.621 411.955 405.808 433.767 406.301C455.579 406.793 487.426 407.14 497.953 401.297C508.481 395.454 512.874 383.809 511.25 376.14Z" fill="#48BDA1"/>
<path d="M497.988 401.297C502.595 398.134 506.206 393.724 508.397 388.583C509.44 386.099 510.073 383.463 510.271 380.776C510.344 379.479 510.272 378.178 510.056 376.897L509.979 376.439L509.855 376.008C509.751 375.689 509.646 375.377 509.528 375.058C509.299 374.426 509.043 373.794 508.765 373.177C506.688 368.133 503.288 363.743 498.925 360.47C494.539 357.25 489.021 355.702 483.352 355.418C489.152 354.412 495.119 355.568 500.125 358.666C502.643 360.238 504.883 362.217 506.752 364.523C508.594 366.831 510.127 369.369 511.312 372.073C511.597 372.767 511.874 373.461 512.11 374.155C512.235 374.509 512.346 374.849 512.457 375.224L512.624 375.807L512.721 376.404C512.776 376.792 512.846 377.181 512.888 377.57L512.943 378.715C512.967 379.474 512.946 380.234 512.88 380.991C512.564 383.957 511.708 386.841 510.354 389.499C507.743 394.76 503.366 398.936 497.988 401.297Z" fill="#231F20"/>
<path d="M483.296 355.418C475.69 356.297 468.147 357.453 460.665 358.888C456.932 359.63 453.198 360.38 449.499 361.268C445.8 362.156 442.115 363.052 438.465 364.044C436.654 364.578 434.835 365.106 433.052 365.709L431.712 366.147L430.394 366.619C429.513 366.931 428.624 367.236 427.784 367.604C426.945 367.972 426.064 368.298 425.286 368.708L424.092 369.304L423.044 369.998C421.651 371.007 420.41 372.211 419.36 373.572C417.202 376.416 415.594 379.639 414.62 383.073C414.127 384.729 413.847 386.44 413.787 388.167C413.809 389.009 413.918 389.846 414.113 390.665C414.266 391.637 414.391 392.56 414.578 393.399C414.857 395.02 415.459 396.568 416.348 397.952C416.459 398.112 416.563 398.285 416.674 398.445L417.069 398.889C417.316 399.2 417.592 399.486 417.895 399.742C418.207 399.999 418.492 400.277 418.818 400.52L419.866 401.214C420.219 401.439 420.59 401.634 420.976 401.797C421.365 401.97 421.74 402.171 422.136 402.331L423.385 402.747C423.794 402.906 424.214 403.036 424.641 403.136C425.515 403.316 426.376 403.559 427.264 403.705L429.971 404.087C433.579 404.413 437.466 404.482 441.269 404.607L452.699 404.906C456.515 404.989 460.332 405.01 464.128 405.01C467.924 405.01 471.762 404.961 475.544 404.795C479.327 404.628 483.136 404.399 486.912 403.941C488.798 403.723 490.671 403.41 492.526 403.004C494.394 402.633 496.214 402.053 497.953 401.276C494.65 403.254 490.847 404.26 487.099 405.079C483.352 405.898 479.514 406.405 475.697 406.835C468.063 407.64 460.367 408.008 452.705 408.153C448.865 408.246 445.032 408.278 441.206 408.251C437.368 408.251 433.572 408.251 429.589 408.008L426.612 407.647C425.612 407.487 424.62 407.23 423.628 407.022C423.123 406.91 422.627 406.763 422.142 406.585L420.664 406.099C420.178 405.912 419.7 405.669 419.221 405.447C418.729 405.254 418.253 405.022 417.798 404.753L416.41 403.878C415.966 403.559 415.557 403.185 415.126 402.824C414.702 402.465 414.311 402.068 413.96 401.637L413.405 401.005C413.239 400.783 413.086 400.547 412.926 400.311C411.715 398.488 410.884 396.44 410.484 394.288C410.268 393.261 410.15 392.289 410.012 391.373C409.935 390.943 409.873 390.63 409.776 389.929C409.692 389.353 409.655 388.77 409.665 388.188C409.738 386.09 410.086 384.011 410.699 382.004C411.271 380.048 412.026 378.149 412.954 376.334C413.874 374.501 414.986 372.77 416.271 371.171C417.6 369.541 419.157 368.111 420.893 366.924L422.281 366.084L423.669 365.439C424.574 365.009 425.5 364.626 426.445 364.294C430.104 362.969 433.84 361.866 437.632 360.99C445.121 359.236 452.699 357.881 460.332 356.931C467.949 355.955 475.618 355.45 483.296 355.418Z" fill="#231F20"/>
<path d="M62.7153 242.521C80.1551 249.71 97.2686 257.518 114.292 265.519C131.315 273.521 148.186 281.828 164.953 290.315C181.719 298.803 198.396 307.505 214.919 316.465C231.443 325.424 247.877 334.612 263.984 344.418C246.544 337.249 229.424 329.435 212.407 321.434C195.391 313.432 178.513 305.125 161.747 296.631C144.98 288.136 128.311 279.427 111.78 270.474C95.2494 261.522 78.8227 252.32 62.7153 242.521Z" fill="#221F1F"/>
<path d="M263.989 344.44L62.6987 242.541L-0.0209255 366.436L201.27 468.335L263.989 344.44Z" fill="#FCFBE9"/>
<path d="M112.973 354.988L62.7153 242.521L264.005 344.418L143.613 370.498C130.358 373.371 118.511 367.389 112.973 354.988Z" fill="#FCFBE9"/>
<path d="M264.005 344.418C260.091 355.411 255.538 366.077 250.819 376.647C246.1 387.216 241.041 397.64 235.822 407.966C230.603 418.293 225.156 428.508 219.465 438.599C213.775 448.689 207.848 458.655 201.304 468.315C205.211 457.322 209.756 446.656 214.489 436.086C219.222 425.517 224.26 415.093 229.493 404.767C234.726 394.44 240.167 384.232 245.857 374.141C251.548 364.051 257.467 354.085 264.005 344.418Z" fill="#221F1F"/>
<path d="M0 366.417C3.91406 355.432 8.46658 344.758 13.1857 334.189C17.9047 323.62 22.9638 313.196 28.1825 302.87C33.4013 292.543 38.8492 282.328 44.5399 272.237C50.2305 262.147 56.1571 252.181 62.7013 242.521C58.7942 253.513 54.2486 264.187 49.5157 274.756C44.7827 285.326 39.7443 295.749 34.5117 306.069C29.2791 316.388 23.8382 326.611 18.1476 336.694C12.4569 346.778 6.53731 356.757 0 366.417Z" fill="#221F1F"/>
<path d="M201.29 468.315C183.85 461.132 166.736 453.318 149.713 445.316C132.689 437.315 115.819 429.015 99.052 420.527C82.2854 412.04 65.609 403.33 49.0853 394.378C32.5616 385.426 16.1283 376.223 0.0209961 366.417C17.4608 373.593 34.5812 381.401 51.5976 389.409C68.6141 397.418 85.4917 405.711 102.258 414.205C119.025 422.699 135.694 431.409 152.225 440.361C168.756 449.314 185.175 458.516 201.29 468.315Z" fill="#221F1F"/>
<path d="M264.004 344.418C241.207 350.858 218.257 356.612 195.259 362.129C183.773 364.905 172.246 367.59 160.726 370.221L152.072 372.178L147.749 373.142L145.584 373.628L144.501 373.871C144.133 373.954 143.71 374.024 143.314 374.1C140.057 374.736 136.722 374.869 133.425 374.495C126.662 373.738 120.398 370.567 115.784 365.564C113.526 363.131 111.654 360.367 110.232 357.368C110.058 357 109.864 356.612 109.711 356.271L109.267 355.258L108.379 353.225L106.596 349.165L103.049 341.039C98.3442 330.194 93.6945 319.322 89.1003 308.421C79.9675 286.61 70.9943 264.701 62.729 242.493C73.7356 263.479 84.0552 284.764 94.2151 306.124C99.3043 316.807 104.303 327.522 109.212 338.27L112.897 346.334L114.736 350.366L115.652 352.385L116.11 353.398C116.263 353.725 116.415 353.988 116.561 354.294C118.681 359.046 122.372 362.923 127.014 365.274C131.656 367.624 136.966 368.305 142.051 367.202C142.384 367.146 142.683 367.105 143.044 367.028L144.126 366.806L146.298 366.348L150.636 365.446L159.318 363.642C170.9 361.268 182.49 358.922 194.107 356.702C217.314 352.253 240.59 347.992 264.004 344.418Z" fill="#221F1F"/>
<path d="M244.441 360.408C244.215 359.744 244.166 359.032 244.298 358.343C244.431 357.654 244.741 357.012 245.198 356.48C246.35 355.224 248.716 354.398 253.435 357.68C257.599 360.588 261.403 363.406 264.081 365.439C266.163 367.035 267.086 370.991 265.081 372.656L262.936 374.482C261.486 375.717 258.557 375.002 257.023 373.885C253.054 371.019 245.933 365.307 244.441 360.408Z" fill="#0F1028"/>
</g>
<defs>
<clipPath id="clip0_3181_375">
<rect width="542" height="668.825" fill="white" transform="translate(0 0.924805)"/>
</clipPath>
</defs>
</svg>
