<svg width="663" height="697" viewBox="0 0 663 697" fill="none" xmlns="http://www.w3.org/2000/svg">
<g clip-path="url(#clip0_4922_316)">
<path d="M362.911 619.41C360.691 619.41 358.281 619.41 355.541 619.32H354.071C351.671 619.26 349.281 619.17 346.991 619.05L345.681 618.98C343.281 618.85 341.081 618.71 338.941 618.55L338.221 618.5C336.001 618.33 333.691 618.13 331.131 617.88L329.601 617.72C327.121 617.46 324.841 617.2 322.651 616.92L321.571 616.78C319.431 616.51 317.311 616.21 315.191 615.89L314.001 615.71C311.831 615.38 309.611 615.01 307.231 614.59L305.651 614.31C303.131 613.85 300.911 613.43 298.861 613.01L298.101 612.85C296.001 612.41 293.917 611.956 291.851 611.49L290.371 611.15C288.231 610.65 286.051 610.15 283.891 609.57L282.291 609.15C280.241 608.62 278.181 608.06 276.131 607.49L275.431 607.29C273.501 606.74 271.431 606.12 269.091 605.4L267.391 604.88C265.317 604.213 263.257 603.546 261.211 602.88L259.631 602.34C257.824 601.72 256.031 601.09 254.251 600.45L252.941 599.97C250.941 599.24 248.941 598.48 246.941 597.7C246.301 597.46 245.681 597.21 245.061 596.96C243.107 596.193 241.164 595.4 239.231 594.58L237.671 593.91C236.061 593.23 234.461 592.52 232.861 591.81L231.121 591.03C229.251 590.18 227.401 589.32 225.561 588.43C224.891 588.12 224.231 587.8 223.561 587.43C221.851 586.6 220.141 585.75 218.451 584.89L216.581 583.89C215.101 583.123 213.624 582.343 212.151 581.55L210.151 580.47C208.424 579.516 206.711 578.556 205.011 577.59C204.381 577.23 203.751 576.87 203.131 576.5L202.921 576.38C201.561 575.6 200.211 574.79 198.851 573.98L196.461 572.53C195.061 571.67 193.664 570.796 192.271 569.91L190.071 568.51C188.481 567.51 186.911 566.45 185.351 565.4L183.741 564.3L183.211 563.94C182.071 563.17 180.941 562.38 179.821 561.59L179.641 561.47C178.911 560.95 178.171 560.47 177.451 559.91C176.051 558.91 174.661 557.91 173.281 556.91L170.981 555.19C169.711 554.19 168.441 553.25 167.181 552.27C166.291 551.58 165.401 550.87 164.501 550.16L161.591 547.81L161.291 547.57L159.351 545.98C157.971 544.83 156.621 543.69 155.281 542.54L152.951 540.54C152.011 539.71 151.071 538.88 150.141 538.04C149.051 537.04 147.971 536.04 146.881 535.04C146.031 534.26 145.181 533.46 144.331 532.66L142.031 530.48C140.784 529.28 139.551 528.076 138.331 526.87L136.171 524.7L136.061 524.59C135.291 523.8 134.531 523.03 133.781 522.25C132.661 521.096 131.557 519.936 130.471 518.77C129.691 517.95 128.921 517.12 128.151 516.29C127.381 515.46 126.631 514.63 125.891 513.8C124.961 512.8 124.041 511.73 123.121 510.68C122.201 509.63 121.281 508.57 120.371 507.5C119.711 506.73 119.061 505.96 118.371 505.18C117.351 503.973 116.351 502.753 115.371 501.52L113.121 498.72L111.001 496.02C110.331 495.15 109.651 494.27 109.001 493.38C108.001 492.05 107.001 490.71 106.001 489.38L104.241 486.92L102.241 484.16L102.181 484.079C64.2543 430.418 43.9537 366.291 44.0905 300.579C44.0905 298.579 44.0905 296.58 44.1505 294.67C44.1505 294.23 44.2005 292.79 44.2005 292.79C44.2005 291.44 44.2705 290.08 44.3205 288.73C44.3205 288.02 44.3705 287.32 44.4005 286.62C44.4605 285.28 44.5205 283.97 44.6005 282.62C44.6005 282.62 44.6805 281.14 44.7105 280.62C44.8105 279.06 44.9205 277.5 45.0305 275.95L45.1205 274.8C45.2805 272.8 45.4505 270.91 45.6405 268.99C45.6405 268.65 45.8005 267.41 45.8005 267.41C45.9505 266 46.1005 264.59 46.2605 263.19C46.3405 262.5 46.4305 261.83 46.5105 261.19C46.6705 259.92 46.8305 258.64 47.0105 257.38L47.2905 255.38C47.4805 254 47.6905 252.63 47.9005 251.27C47.9005 251.27 48.0905 250.02 48.1505 249.64C48.4605 247.76 48.7705 245.87 49.1505 244L49.3405 243C49.6305 241.44 49.9105 239.92 50.2105 238.4L50.6105 236.47C50.8605 235.22 51.1205 233.98 51.3905 232.74C51.5505 232.01 51.7005 231.35 51.8505 230.68C52.1305 229.43 52.4205 228.18 52.7105 226.93L53.1505 225.1C53.5572 223.413 53.9772 221.746 54.4105 220.1L54.5405 219.61C55.0105 217.81 55.5405 216 56.0105 214.2C56.1305 213.77 56.5305 212.41 56.5305 212.41C56.8805 211.2 57.2405 209.97 57.6005 208.75C57.8105 208.07 58.0105 207.4 58.2205 206.75C58.5805 205.57 58.9505 204.4 59.3305 203.23C59.3305 203.23 59.7905 201.78 59.9605 201.23C60.3905 199.92 60.8305 198.59 61.2905 197.23L61.7905 195.92C62.4005 194.16 63.0205 192.43 63.6605 190.7C63.7905 190.32 64.2505 189.12 64.2505 189.12C64.7005 187.91 65.1705 186.68 65.6405 185.45L66.4005 183.53C66.8605 182.37 67.3005 181.27 67.7505 180.17C68.0205 179.5 68.3005 178.83 68.5705 178.17C69.0405 177.04 69.5705 175.88 70.0305 174.73L70.7605 173.02C71.5005 171.36 72.2439 169.693 72.9905 168.02L73.5305 166.88C74.1205 165.59 74.7405 164.28 75.3605 162.98L76.2605 161.12C76.7805 160.07 77.2605 159.01 77.8205 157.97L78.8205 155.97C79.3405 154.97 79.8805 153.91 80.4205 152.88L81.4205 151.04C82.1105 149.74 82.8105 148.46 83.5105 147.19C83.5105 147.19 83.9505 146.37 84.0905 146.13C84.9405 144.6 85.8205 143.04 86.7205 141.48L87.7205 139.73C88.3105 138.73 88.9005 137.73 89.5005 136.73L90.6905 134.73C91.2605 133.79 91.8505 132.84 92.4405 131.9L93.6305 130C94.2905 129 94.9505 127.94 95.6305 126.92L96.6305 125.35C97.6305 123.89 98.6305 122.42 99.5805 120.96L100.681 119.38C101.361 118.38 102.041 117.38 102.681 116.45L103.831 114.84L104.021 114.57L105.931 111.95L107.331 110.05C107.991 109.17 108.671 108.28 109.331 107.39L109.621 107L110.621 105.65C111.621 104.36 112.621 103.05 113.681 101.75L114.871 100.29C115.671 99.2895 116.481 98.2895 117.301 97.2895L118.811 95.4895C119.481 94.6995 120.161 93.8895 120.861 93.0795C121.381 92.4695 121.911 91.8495 122.441 91.2495L124.531 88.8795L124.891 88.4795C125.291 88.0195 125.691 87.5695 126.101 87.1195C126.921 86.2095 127.751 85.3095 128.581 84.4095L129.921 82.9495C131.074 81.7295 132.227 80.5162 133.381 79.3095L134.471 78.1995L134.981 77.6795C135.731 76.9095 136.471 76.1595 137.221 75.4095C137.801 74.8195 138.391 74.2395 138.991 73.6495L141.151 71.5395L141.341 71.3595L142.931 69.8195L145.301 67.5895L145.781 67.1495C146.161 66.7895 146.551 66.4195 146.941 66.0695C148.201 64.8995 149.481 63.7495 150.761 62.5995L151.911 61.5995L152.421 61.1595C153.231 60.4395 154.051 59.7195 154.871 59.0195L156.651 57.4995L156.781 57.3895C157.541 56.7395 158.301 56.0995 159.071 55.4695C159.841 54.8395 160.381 54.3695 161.071 53.8395C161.761 53.3095 162.651 52.5595 163.441 51.9195L163.941 51.5095L165.341 50.3995L168.491 47.9395L170.921 46.0895C171.861 45.3795 172.811 44.6595 173.771 43.9595L175.541 42.6695L175.801 42.4795C176.591 41.8995 177.411 41.3095 178.231 40.7295C179.051 40.1495 179.621 39.7295 180.331 39.2495L182.771 37.5595L182.871 37.4895L184.871 36.1295C185.791 35.4995 186.721 34.8895 187.641 34.2795C208.413 20.6043 230.714 9.40808 254.091 0.919526C255.733 0.326577 257.465 0.0220952 259.211 0.0195325C261.635 0.0185233 264.024 0.605244 266.172 1.72943C268.32 2.85362 270.164 4.48177 271.545 6.47443C272.926 8.46708 273.804 10.7648 274.102 13.1709C274.401 15.5769 274.112 18.0196 273.261 20.2895C261.088 52.7225 254.875 87.0877 254.921 121.73C254.921 239.92 325.791 345.06 435.351 389.46C437.351 390.28 439.451 391.099 441.561 391.889L441.731 391.96C443.731 392.699 445.731 393.45 447.841 394.19L448.201 394.31C450.201 395 452.201 395.68 454.201 396.31L454.781 396.5C456.671 397.11 458.641 397.72 460.631 398.32L461.461 398.57C463.341 399.13 465.241 399.67 467.141 400.19L468.211 400.48C470.044 400.973 471.884 401.45 473.731 401.91L475.051 402.24C476.831 402.666 478.614 403.083 480.401 403.49L481.991 403.84C483.711 404.21 485.421 404.58 487.151 404.92L489.021 405.28C490.671 405.59 492.311 405.9 493.961 406.19L495.391 406.42L496.141 406.55C497.72 406.81 499.281 407.07 500.861 407.3L502.421 407.52L503.361 407.65C504.851 407.859 506.361 408.07 507.821 408.25L509.681 408.47L511.231 408.639C512.441 408.78 513.651 408.92 514.871 409.04L517.071 409.24L519.071 409.41C520.071 409.5 520.981 409.59 521.941 409.66L524.601 409.829L526.891 409.97C527.63 409.97 528.381 410.07 529.121 410.1C530.341 410.16 531.571 410.21 532.791 410.25L534.861 410.32L536.381 410.38C538.841 410.44 541.301 410.47 543.681 410.47C577.294 410.513 610.654 404.668 642.251 393.2C644.946 392.219 647.866 392.032 650.664 392.66C653.463 393.289 656.022 394.706 658.04 396.744C660.057 398.783 661.448 401.357 662.047 404.162C662.646 406.967 662.429 409.885 661.421 412.57C651.977 437.723 639.387 461.579 623.951 483.57L622.791 485.3C622.191 486.14 621.581 486.99 620.961 487.84L619.671 489.6C619.061 490.43 618.431 491.28 617.801 492.11C617.461 492.57 616.531 493.79 616.531 493.79C614.961 495.79 613.531 497.73 612.041 499.54L611.661 500.02C611.121 500.699 610.551 501.389 609.981 502.09L609.681 502.46L608.301 504.13C607.651 504.92 606.981 505.71 606.301 506.5L604.861 508.18L602.861 510.53L601.401 512.17C600.067 513.71 598.69 515.233 597.271 516.74C597.271 516.74 596.391 517.74 596.131 517.97C595.541 518.61 594.911 519.27 594.291 519.97L593.841 520.44L592.471 521.88L590.371 524.03L588.731 525.69L586.621 527.79L585.171 529.2L584.911 529.45C583.691 530.64 582.451 531.82 581.211 532.99L580.691 533.47L579.331 534.76L577.631 536.3L577.181 536.71L575.361 538.36L573.191 540.28L571.271 541.92L569.101 543.78C568.57 544.23 568.041 544.68 567.501 545.12L567.111 545.45C566.011 546.36 564.93 547.26 563.831 548.15C562.951 548.87 562.101 549.56 561.241 550.24L559.101 551.92L556.991 553.55C556.271 554.11 555.541 554.67 554.801 555.22L552.661 556.82L550.481 558.43L548.411 559.92L548.121 560.13L545.371 562.13L542.061 564.42L540.461 565.49L539.961 565.83C539.161 566.36 538.361 566.9 537.551 567.42C536.741 567.94 536.101 568.42 535.371 568.84L532.951 570.39L532.561 570.64L530.791 571.74C529.871 572.32 528.94 572.88 528.01 573.45L527.661 573.66L525.791 574.7C524.481 575.48 523.161 576.26 521.791 577.02L520.171 577.94L519.741 578.19L517.041 579.7C516.331 580.1 515.601 580.49 514.871 580.89C513.981 581.38 513.071 581.89 512.161 582.34C511.471 582.71 510.771 583.09 510.061 583.45C508.991 584.02 507.901 584.57 506.811 585.12L505.121 585.98C503.621 586.733 502.104 587.473 500.571 588.2L498.571 589.13L495.571 590.54L493.451 591.54L490.451 592.88L488.451 593.76C487.201 594.3 485.951 594.82 484.701 595.33C484.701 595.33 483.701 595.77 483.381 595.88C481.761 596.55 480.111 597.2 478.461 597.88C478.021 598.06 476.581 598.6 476.581 598.6L473.26 599.85L471.201 600.6L467.891 601.78L465.891 602.46L461.681 603.86L460.681 604.2C458.951 604.76 457.221 605.29 455.491 605.82L453.651 606.36L450.101 607.36L448.101 607.93L444.551 608.93L442.651 609.43C441.091 609.83 439.521 610.22 437.951 610.6L437.251 610.77C435.437 611.203 433.63 611.616 431.831 612.01L430.041 612.4C428.791 612.66 427.53 612.93 426.26 613.18L424.26 613.58C423 613.83 421.751 614.06 420.491 614.29L418.641 614.63C416.931 614.93 415.231 615.21 413.531 615.49L413.031 615.57C411.191 615.856 409.334 616.13 407.461 616.39L405.681 616.63C404.371 616.81 403.061 616.98 401.741 617.14L399.741 617.38C398.421 617.53 397.111 617.67 395.741 617.8L393.931 617.99C392.081 618.17 390.241 618.33 388.391 618.48H388.131C386.301 618.63 384.381 618.75 382.461 618.87L380.671 618.97L376.671 619.17L374.671 619.25C373.337 619.303 371.987 619.343 370.621 619.37H368.791C366.791 619.39 364.861 619.41 362.911 619.41Z" fill="#231F20"/>
<path d="M543.709 425.5C375.929 425.5 239.919 289.5 239.919 121.71C239.882 85.2696 246.417 49.1212 259.209 15C142.499 57.39 59.1191 169.26 59.1191 300.62C59.1191 468.4 195.119 604.41 362.909 604.41C493.129 604.41 604.199 522.41 647.399 407.33C614.16 419.387 579.068 425.536 543.709 425.5Z" fill="#F8F18C"/>
<path d="M448.219 521.259C280.449 521.259 144.439 385.259 144.439 217.479C144.339 156.144 162.897 96.2293 197.649 45.6895C114.269 99.8495 59.1191 193.789 59.1191 300.619C59.1191 468.399 195.119 604.409 362.909 604.409C466.909 604.409 558.699 552.129 613.449 472.409C564.277 504.376 506.868 521.349 448.219 521.259Z" fill="#EADB81"/>
<path d="M150.089 332.119C150.764 335.996 150.514 339.977 149.359 343.739C148.177 347.634 146.164 351.227 143.459 354.269C140.678 357.373 137.27 359.851 133.459 361.539C132.459 361.929 131.519 362.319 130.539 362.659C129.559 362.999 128.539 363.239 127.539 363.469C126.539 363.699 125.469 363.819 124.439 363.949L121.299 364.129C117.103 364.118 112.955 363.232 109.119 361.529C105.324 359.84 101.932 357.361 99.1694 354.259C96.4634 351.22 94.4473 347.631 93.2593 343.739C92.1145 339.975 91.8645 335.996 92.5293 332.119C93.7201 339.296 97.3426 345.846 102.789 350.669C107.919 355.174 114.512 357.659 121.339 357.659C128.166 357.659 134.76 355.174 139.889 350.669C145.306 345.831 148.905 339.285 150.089 332.119Z" fill="#231F20"/>
<path d="M272.69 332.119C273.368 335.995 273.121 339.976 271.97 343.739C270.784 347.635 268.768 351.227 266.06 354.269C263.292 357.366 259.902 359.843 256.11 361.539C255.11 361.929 254.17 362.319 253.18 362.659C252.19 362.999 251.18 363.239 250.18 363.469C249.18 363.699 248.12 363.819 247.08 363.949L243.95 364.129C239.754 364.119 235.605 363.233 231.77 361.529C227.959 359.842 224.55 357.364 221.77 354.259C219.063 351.223 217.049 347.633 215.87 343.739C214.72 339.976 214.47 335.996 215.14 332.119C216.316 339.292 219.925 345.842 225.36 350.669C230.49 355.174 237.083 357.659 243.91 357.659C250.737 357.659 257.331 355.174 262.46 350.669C267.893 345.839 271.503 339.291 272.69 332.119Z" fill="#231F20"/>
<path d="M99.6406 314.72C99.6406 314.72 119.811 293.1 146.481 311.11" stroke="#231F20" stroke-width="4.23" stroke-miterlimit="10" stroke-linecap="round"/>
<path d="M265.6 314.72C265.6 314.72 245.42 293.1 218.76 311.11" stroke="#231F20" stroke-width="4.23" stroke-miterlimit="10" stroke-linecap="round"/>
<path d="M215.03 375.51C215.03 375.51 217.32 420.58 178.75 420.58C140.18 420.58 145.75 375.51 145.75 375.51H215.03Z" fill="#231F20"/>
<path d="M152.08 407.5C156.87 414.86 165.01 420.58 178.75 420.58C193.16 420.58 201.87 414.28 207.12 406.4C201.31 400.35 191.38 396.35 180.12 396.35C168.14 396.35 157.71 400.83 152.08 407.5Z" fill="#F16C6C"/>
<g style="mix-blend-mode:multiply" opacity="0.51">
<path d="M429.719 403.37C429.719 403.37 369.559 545.37 114.539 475.53C169.539 553.53 260.279 604.4 362.929 604.4C493.149 604.4 604.219 522.4 647.419 407.32C576.841 432.832 499.332 431.407 429.739 403.32L429.719 403.37Z" fill="#F0CC6D"/>
</g>
<path d="M176.433 176.481C181.322 146.63 174.38 120.646 160.929 118.443C147.478 116.24 132.61 138.654 127.722 168.505C122.834 198.356 129.775 224.34 143.227 226.543C156.678 228.746 171.545 206.332 176.433 176.481Z" fill="white"/>
<path d="M195.409 241.559C205.56 241.559 213.789 233.33 213.789 223.179C213.789 213.028 205.56 204.799 195.409 204.799C185.258 204.799 177.029 213.028 177.029 223.179C177.029 233.33 185.258 241.559 195.409 241.559Z" fill="white"/>
<path d="M517.012 469.485C518.135 459.346 500.64 449.088 477.937 446.574C455.233 444.059 435.918 450.24 434.795 460.379C433.672 470.517 451.167 480.775 473.87 483.289C496.574 485.804 515.889 479.623 517.012 469.485Z" fill="white"/>
<path d="M151.79 616.599L92.2999 604.139L79.8399 544.649C79.7057 544.003 79.353 543.423 78.8412 543.007C78.3293 542.591 77.6897 542.363 77.0299 542.363C76.3701 542.363 75.7304 542.591 75.2186 543.007C74.7068 543.423 74.3541 544.003 74.2199 544.649L61.7899 604.139L2.29988 616.599C1.65387 616.734 1.07383 617.086 0.657425 617.598C0.241015 618.11 0.0136719 618.75 0.0136719 619.409C0.0136719 620.069 0.241015 620.709 0.657425 621.221C1.07383 621.733 1.65387 622.085 2.29988 622.219L61.7899 634.68L74.2499 694.169C74.3841 694.816 74.7368 695.396 75.2486 695.812C75.7604 696.228 76.4001 696.456 77.0599 696.456C77.7197 696.456 78.3593 696.228 78.8712 695.812C79.383 695.396 79.7357 694.816 79.8699 694.169L92.3299 634.68L151.79 622.219C152.436 622.085 153.016 621.733 153.432 621.221C153.849 620.709 154.076 620.069 154.076 619.409C154.076 618.75 153.849 618.11 153.432 617.598C153.016 617.086 152.436 616.734 151.79 616.599Z" fill="#FDF7B8"/>
<path d="M411.34 183.979L364.44 174.149L354.62 127.249C354.511 126.741 354.232 126.285 353.828 125.958C353.423 125.631 352.919 125.453 352.4 125.453C351.88 125.453 351.376 125.631 350.972 125.958C350.568 126.285 350.288 126.741 350.18 127.249L340.36 174.149L293.46 183.979C292.949 184.083 292.489 184.36 292.159 184.764C291.829 185.167 291.648 185.673 291.648 186.194C291.648 186.716 291.829 187.221 292.159 187.625C292.489 188.029 292.949 188.306 293.46 188.409L340.36 198.229L350.18 245.139C350.288 245.648 350.568 246.103 350.972 246.43C351.376 246.757 351.88 246.935 352.4 246.935C352.919 246.935 353.423 246.757 353.828 246.43C354.232 246.103 354.511 245.648 354.62 245.139L364.44 198.229L411.34 188.409C411.851 188.306 412.31 188.029 412.64 187.625C412.971 187.221 413.151 186.716 413.151 186.194C413.151 185.673 412.971 185.167 412.64 184.764C412.31 184.36 411.851 184.083 411.34 183.979Z" fill="#FDF7B8"/>
</g>
<defs>
<clipPath id="clip0_4922_316">
<rect width="662.41" height="696.45" fill="white"/>
</clipPath>
</defs>
</svg>
