<svg width="524" height="642" viewBox="0 0 524 642" fill="none" xmlns="http://www.w3.org/2000/svg">
<g clip-path="url(#clip0_4894_380)">
<path d="M261.98 641.77C255.134 641.772 248.314 640.916 241.68 639.22C226.178 635.23 212.206 626.737 201.527 614.812C190.848 602.888 183.942 588.066 181.68 572.22L177.31 571.82L175.41 571.64L168.5 570.94L167.09 570.78C164.62 570.52 162.09 570.24 159.64 569.95L158.75 569.85C156.09 569.53 153.42 569.21 150.75 568.85L150.32 568.79C147.514 568.43 144.7 568.056 141.88 567.67H141.78C135.99 566.87 130.1 566 124.26 565.07L120.8 564.51C118.52 564.14 116.27 563.77 114.03 563.38L113.73 563.33C110.43 562.77 107.13 562.18 103.82 561.58L101.16 561.09C98.5704 560.61 95.9904 560.09 93.4004 559.62L92.9504 559.53C87.9504 558.53 82.8004 557.53 77.6904 556.4L75.8704 556.01C73.6371 555.53 71.4138 555.04 69.2004 554.54C65.9904 553.82 62.7704 553.09 59.5504 552.33C51.276 550.442 43.2633 547.551 35.6904 543.72L35.5404 543.64C34.8204 543.273 34.1104 542.893 33.4104 542.5L32.9804 542.26C32.3804 541.93 31.7904 541.59 31.2004 541.26L30.5504 540.87C30.0404 540.57 29.5504 540.28 29.1404 540L28.9804 539.9L28.1604 539.38L27.9804 539.25C15.2804 530.92 6.47044 519.74 2.47044 506.89C2.47044 506.89 2.31043 506.4 2.24043 506.17C2.11043 505.72 1.98045 505.24 1.85045 504.75C1.72045 504.26 1.68043 504.14 1.61043 503.87C1.54043 503.6 1.48043 503.32 1.42043 503.04C0.433675 498.753 -0.0628234 494.368 -0.0595543 489.97C-0.0595543 464.76 10.1904 452.49 21.8504 441.48C22.1482 441.129 22.4653 440.795 22.8004 440.48L24.7104 438.72C26.5004 437.08 28.3504 435.38 30.1804 433.62C38.6404 425.41 47.4904 414.98 54.6404 394.62L54.9204 393.79C57.8287 385.143 60.1178 376.301 61.7704 367.33C63.8204 356.89 66.2904 341.9 69.1504 324.55C77.4504 274.18 87.7804 211.49 99.3704 186.97C118.897 145.586 153.426 113.173 195.96 96.2997C191.441 85.7877 189.603 74.3178 190.611 62.92C191.62 51.5221 195.443 40.5532 201.739 30.9982C208.034 21.4432 216.604 13.6014 226.679 8.17685C236.754 2.75234 248.018 -0.0849688 259.46 -0.080317C270.794 -0.132688 281.967 2.60436 291.993 7.88949C302.019 13.1746 310.591 20.8455 316.952 30.2256C323.313 39.6057 327.269 50.407 328.47 61.677C329.672 72.9469 328.082 84.3394 323.84 94.8497C368.163 111.282 404.336 144.342 424.68 187.01C430.61 199.57 436.57 222.26 443.45 258.47C443.446 258.506 443.446 258.543 443.45 258.58C444.164 262.346 444.867 266.153 445.56 270L446.3 274.09L446.98 277.92C446.98 277.92 447.63 281.63 447.64 281.67C448.55 286.86 449.43 292.04 450.3 297.17C450.296 297.189 450.296 297.21 450.3 297.23C452.01 307.42 453.61 317.23 455.16 326.73C455.85 330.94 457.77 342.59 457.77 342.59L459.25 351.48L460.25 357.48L461.25 363.21L461.63 365.29L462.02 367.29C462.26 368.57 462.52 369.83 462.77 371.07L463.22 373.14C463.33 373.65 463.44 374.14 463.56 374.67C463.68 375.2 463.81 375.78 463.94 376.33L464.36 378.08C464.54 378.85 464.74 379.6 464.93 380.35L465.18 381.35C465.4 382.18 465.62 383.03 465.85 383.86L466.01 384.43C466.26 385.31 466.51 386.19 466.77 387.06C466.77 387.06 466.85 387.33 466.86 387.35C467.13 388.27 467.41 389.17 467.69 390.06C467.693 390.103 467.693 390.146 467.69 390.19C467.96 391.05 468.23 391.85 468.49 392.63L468.56 392.84C477.26 418.47 488.31 428.73 498.98 438.65L501.21 440.73L502.77 442.21C504.58 443.94 506.05 445.41 507.41 446.86L507.49 446.95C509.11 448.67 510.55 450.36 511.86 452.04C512.424 452.606 512.939 453.218 513.4 453.87C513.78 454.396 514.15 454.936 514.51 455.49C514.62 455.65 514.75 455.85 514.87 456.06C515.11 456.42 515.35 456.8 515.58 457.18L516.02 457.91L516.56 458.91L517.03 459.75L517.57 460.75L517.97 461.57C518.15 461.93 518.3 462.25 518.45 462.57L518.86 463.49C519.03 463.87 519.16 464.19 519.29 464.49L519.37 464.69C519.48 464.97 519.6 465.25 519.71 465.54C519.82 465.83 519.93 466.12 520.04 466.42V466.58C520.26 467.16 520.46 467.76 520.66 468.37L520.72 468.54C520.83 468.87 520.93 469.19 521.03 469.54C521.13 469.89 521.22 470.18 521.31 470.54L521.42 470.94C521.5 471.21 521.57 471.47 521.64 471.74C521.71 472.01 521.79 472.36 521.87 472.74C521.87 472.74 522.1 473.68 522.16 473.96C522.22 474.24 522.33 474.79 522.42 475.23L522.6 476.23C522.69 476.69 522.76 477.12 522.83 477.56L522.98 478.56C523.04 479.01 523.11 479.47 523.16 479.93C523.21 480.39 523.24 480.6 523.28 480.93C523.32 481.26 523.38 481.87 523.43 482.37C523.43 482.61 523.51 483.45 523.51 483.45C523.51 483.9 523.59 484.36 523.61 484.82C523.61 484.91 523.61 485.14 523.61 485.16C523.61 485.88 523.68 486.61 523.71 487.35C523.71 488.25 523.71 489.15 523.71 490.06C523.71 491.15 523.71 492.24 523.62 493.3C522.81 508.51 516.19 522.17 504.47 532.79C503.77 533.43 503.05 534.05 502.32 534.66C492.98 542.44 480.72 548.38 466.86 551.83C465.95 552.06 465.02 552.28 464.1 552.48C460.914 553.186 457.717 553.883 454.51 554.57L451.63 555.2L449.69 555.6L442.69 557.04L439.54 557.68C437.147 558.153 434.757 558.613 432.37 559.06L430.29 559.46L422.78 560.85L420.34 561.28C416.82 561.913 413.3 562.52 409.78 563.1L403.4 564.1L399.4 564.74C396.51 565.19 393.64 565.63 390.76 566.05H390.68L382.09 567.27H381.93L373.53 568.38L373.11 568.44C370.41 568.78 367.74 569.11 365.11 569.44L364.3 569.54C361.78 569.84 359.27 570.123 356.77 570.39L355.46 570.54L348.37 571.27L346.69 571.44C345.31 571.57 343.92 571.71 342.53 571.83C339.814 591.234 330.17 609.001 315.378 621.851C300.586 634.7 281.644 641.765 262.05 641.74L261.98 641.77ZM259.52 54.0697C255.813 54.0468 252.227 55.3874 249.444 57.8366C246.662 60.2857 244.876 63.6724 244.428 67.3523C243.98 71.0322 244.9 74.7485 247.013 77.7941C249.127 80.8397 252.286 83.002 255.89 83.8697C257.98 83.7997 259.99 83.7697 261.98 83.7697H263.59C267.157 82.83 270.256 80.6177 272.303 77.5501C274.35 74.4825 275.204 70.7718 274.703 67.1179C274.203 63.4641 272.382 60.1198 269.585 57.7161C266.788 55.3123 263.208 54.0153 259.52 54.0697Z" fill="#231F20"/>
<path fill-rule="evenodd" clip-rule="evenodd" d="M261.98 98.7695C196.42 98.7695 139.35 137.72 112.98 193.46C98.4102 224.28 84.3602 330.4 76.5602 370.21C59.3902 460.409 14.9902 441.539 14.9902 490.009C14.9902 516.329 37.3602 531.73 62.9902 537.79C195.5 569.13 328.35 567.57 460.99 537.79C486.66 532.08 508.86 516.329 508.86 490.009C508.86 441.539 464.63 460.409 447.29 370.21C439.65 330.4 425.61 224.28 411.04 193.46C384.6 137.72 327.68 98.7695 261.98 98.7695Z" fill="#F0CC6D"/>
<path fill-rule="evenodd" clip-rule="evenodd" d="M375.521 247.26C384.111 335.1 389.52 469.01 436.82 542.92C444.914 541.32 453.004 539.61 461.09 537.79C486.76 532.08 508.961 516.329 508.961 490.009C508.961 441.539 464.73 460.409 447.391 370.21C439.751 330.4 425.711 224.28 411.141 193.46C384.601 137.72 327.68 98.7695 261.98 98.7695C261.98 98.7695 365.111 140.85 375.521 247.26Z" fill="#FAF28E"/>
<path fill-rule="evenodd" clip-rule="evenodd" d="M454.5 397.739C326.15 425.609 197.8 426.999 69.5003 397.909C59.0903 428.909 44.5003 441.019 33.0703 451.579C41.4003 457.979 51.8103 462.309 63.0703 464.909C195.58 496.239 328.43 494.689 461.07 464.909C471.895 462.714 482.124 458.227 491.07 451.749C479.63 441.019 465.07 428.899 454.48 397.749L454.5 397.739Z" fill="#F68622"/>
<path fill-rule="evenodd" clip-rule="evenodd" d="M454.84 524.29C322.16 554.07 189.3 555.62 56.84 524.29C40.18 520.29 24.92 512.52 16.25 500.23C21.25 520.31 40.88 532.6 63.08 537.79C106.759 548.127 151.182 555.014 195.94 558.39C239.937 561.652 284.12 561.538 328.1 558.05C372.856 554.444 417.3 547.674 461.1 537.79C486.77 532.08 508.97 516.33 508.97 490.01C508.97 477.37 506.02 469.24 501.34 462.66C502.274 467.159 502.723 471.745 502.68 476.34C502.68 502.82 480.48 518.58 454.81 524.34L454.84 524.29Z" fill="#EDB36F"/>
<path fill-rule="evenodd" clip-rule="evenodd" d="M328.06 558.05C328.202 558.906 328.258 559.773 328.23 560.64C328.016 578.047 320.951 594.669 308.566 606.902C296.181 619.136 279.474 625.996 262.065 625.996C244.657 625.996 227.95 619.136 215.565 606.902C203.18 594.669 196.114 578.047 195.9 560.64V558.39C239.898 561.652 284.08 561.538 328.06 558.05Z" fill="#F68622"/>
<path fill-rule="evenodd" clip-rule="evenodd" d="M328.23 560.64C328.259 559.773 328.202 558.906 328.06 558.05C320.347 558.65 312.64 559.15 304.94 559.55C303.04 583.27 294.35 616.24 261.94 626.77C270.636 626.784 279.25 625.085 287.289 621.768C295.327 618.452 302.634 613.584 308.79 607.443C314.947 601.301 319.832 594.007 323.168 585.976C326.504 577.945 328.224 569.336 328.23 560.64Z" fill="#D66F28"/>
<path fill-rule="evenodd" clip-rule="evenodd" d="M259.52 15C270.216 15.004 280.67 18.178 289.562 24.121C298.454 30.064 305.385 38.5094 309.479 48.39C313.574 58.2705 314.647 69.143 312.565 79.6336C310.482 90.1242 305.337 99.7621 297.78 107.33C290.222 114.897 280.59 120.055 270.103 122.151C259.615 124.247 248.741 123.187 238.855 119.106C228.969 115.024 220.515 108.104 214.56 99.2197C208.606 90.3353 205.418 79.8853 205.4 69.19C205.408 54.8325 211.111 41.0642 221.256 30.9054C231.402 20.7465 245.163 15.0265 259.52 15ZM259.52 39.07C265.475 39.0819 271.292 40.8584 276.238 44.1753C281.183 47.4921 285.034 52.2003 287.305 57.7051C289.575 63.2098 290.163 69.2641 288.994 75.1028C287.825 80.9416 284.952 86.3028 280.737 90.5092C276.522 94.7155 271.156 97.5782 265.314 98.7356C259.473 99.8929 253.42 99.2929 247.92 97.0115C242.42 94.73 237.719 90.8694 234.412 85.9175C231.105 80.9656 229.34 75.1446 229.34 69.19C229.364 61.1986 232.553 53.5422 238.21 47.897C243.866 42.2519 251.529 39.0779 259.52 39.07Z" fill="#F68622"/>
<g style="mix-blend-mode:multiply">
<path fill-rule="evenodd" clip-rule="evenodd" d="M508.841 485.85C508.836 485.796 508.836 485.743 508.841 485.69C508.231 475.49 505.461 468.49 501.341 462.69L501.401 463.02C498.361 458.933 494.909 455.17 491.101 451.79C479.661 441.06 465.101 428.94 454.511 397.79C451.52 388.785 449.148 379.587 447.411 370.26C442.971 347.1 436.351 301.48 428.731 261.31C455.021 526.09 133.731 544.58 100.471 545.79L104.031 546.47L106.501 546.92C109.834 547.52 113.167 548.106 116.501 548.68C118.801 549.07 121.091 549.46 123.391 549.83L126.731 550.37C149.771 554.016 172.847 556.706 195.961 558.44V560.69C196.175 578.097 203.24 594.718 215.625 606.952C228.01 619.186 244.717 626.046 262.126 626.046C279.534 626.046 296.241 619.186 308.626 606.952C321.012 594.718 328.077 578.097 328.291 560.69C328.319 559.823 328.262 558.955 328.121 558.1C351.161 556.3 374.194 553.59 397.221 549.97L401.041 549.37C403.131 549.04 405.211 548.69 407.301 548.37C410.841 547.783 414.377 547.173 417.911 546.54L420.101 546.15C422.671 545.69 425.241 545.21 427.811 544.73L428.361 544.62C431.201 544.086 434.041 543.543 436.881 542.99L441.881 541.99L443.141 541.73L445.231 541.3C446.481 541.04 447.741 540.8 448.991 540.53C449.911 540.34 450.821 540.13 451.741 539.93C454.891 539.26 458.051 538.58 461.201 537.87C486.871 532.16 509.071 516.41 509.071 490.09C509.071 489.33 509.071 488.58 509.071 487.84C509.071 487.1 508.871 486.45 508.841 485.85Z" fill="#F0CC6D"/>
</g>
<path d="M229.45 290.21C230.115 294.096 229.851 298.085 228.68 301.85C227.501 305.744 225.488 309.334 222.78 312.37C220.002 315.477 216.593 317.956 212.78 319.64C211.78 320.03 210.84 320.43 209.86 320.76C208.88 321.09 207.86 321.34 206.86 321.58C205.86 321.82 204.79 321.92 203.76 322.06L200.62 322.24C196.424 322.229 192.276 321.343 188.44 319.64C184.647 317.947 181.256 315.469 178.49 312.37C175.823 309.319 173.842 305.732 172.68 301.85C171.535 298.09 171.285 294.114 171.95 290.24C173.13 297.412 176.738 303.961 182.17 308.79C187.298 313.299 193.892 315.786 200.72 315.786C207.548 315.786 214.143 313.299 219.27 308.79C224.688 303.942 228.28 297.385 229.45 290.21Z" fill="#231F20"/>
<path d="M352.051 290.21C352.728 294.086 352.482 298.067 351.331 301.83C350.147 305.724 348.13 309.313 345.421 312.35C342.641 315.456 339.232 317.934 335.421 319.62C334.421 320.01 333.481 320.41 332.491 320.74C331.501 321.07 330.491 321.32 329.491 321.56C328.491 321.8 327.431 321.9 326.391 322.04L323.261 322.22C319.064 322.21 314.916 321.324 311.081 319.62C307.272 317.929 303.864 315.452 301.081 312.35C298.376 309.308 296.363 305.715 295.181 301.82C294.031 298.061 293.781 294.084 294.451 290.21C295.627 297.383 299.235 303.933 304.671 308.76C309.798 313.269 316.392 315.756 323.221 315.756C330.049 315.756 336.643 313.269 341.771 308.76C347.223 303.938 350.852 297.389 352.051 290.21Z" fill="#231F20"/>
<path d="M179 272.85C179 272.85 199.17 251.23 225.84 269.25" stroke="#231F20" stroke-width="4.23" stroke-miterlimit="10" stroke-linecap="round"/>
<path d="M344.96 272.85C344.96 272.85 324.78 251.23 298.12 269.25" stroke="#231F20" stroke-width="4.23" stroke-miterlimit="10" stroke-linecap="round"/>
<path d="M294.391 333.6C294.391 333.6 296.681 378.66 258.111 378.66C219.541 378.66 225.111 333.6 225.111 333.6H294.391Z" fill="#231F20"/>
<path d="M231.44 365.58C236.23 372.94 244.37 378.66 258.11 378.66C272.52 378.66 281.23 372.37 286.48 364.49C280.67 358.43 270.74 354.43 259.48 354.43C247.49 354.43 237.07 358.92 231.44 365.58Z" fill="#F16C6C"/>
<path d="M377.443 244.151C390.508 238.194 393.054 215.718 383.128 193.949C373.203 172.179 354.565 159.361 341.5 165.318C328.434 171.275 325.889 193.752 335.814 215.521C345.739 237.29 364.377 250.108 377.443 244.151Z" fill="white"/>
<path d="M314.52 179.79C320.96 179.79 326.18 174.569 326.18 168.13C326.18 161.69 320.96 156.47 314.52 156.47C308.081 156.47 302.86 161.69 302.86 168.13C302.86 174.569 308.081 179.79 314.52 179.79Z" fill="white"/>
</g>
<defs>
<clipPath id="clip0_4894_380">
<rect width="523.96" height="641.77" fill="white"/>
</clipPath>
</defs>
</svg>
