<svg width="790" height="386" viewBox="0 0 790 386" fill="none" xmlns="http://www.w3.org/2000/svg">
<g clip-path="url(#clip0_1645_98)">
<path d="M334.524 211.652C341.163 193.23 377.338 164.374 420.046 164.587C436.875 164.66 453.378 169.23 467.846 177.823C482.315 186.417 494.223 198.721 502.337 213.462L334.524 211.652Z" fill="#603913"/>
<path d="M305.555 200.081C324.264 161.498 394.059 161.853 414.685 161.96C441.808 161.96 497.366 162.421 516.501 196.389C524.844 211.19 520.264 235.149 511.105 283.066C504.005 320.406 500.135 339.324 487.852 351.96C466.552 373.86 435.772 374.89 415.111 375.564C393.81 376.238 358.31 377.41 335.66 353.984C330.157 348.127 325.4 340.744 313.543 277.99C300.976 211.403 303.354 204.553 305.555 200.081Z" fill="#3E9581"/>
<path d="M305.307 199.904C308.665 193.138 313.521 187.226 319.507 182.618C325.496 178.01 332.09 174.248 339.104 171.437C353.184 165.928 367.944 162.347 382.983 160.789C397.963 159.141 413.04 158.536 428.104 158.979C435.662 159.045 443.211 159.519 450.718 160.399C458.307 161.169 465.822 162.546 473.19 164.516C480.614 166.436 487.769 169.274 494.491 172.963C501.403 176.532 507.515 181.472 512.454 187.481C513.812 188.915 515.003 190.499 516.004 192.201C517.126 193.802 518.1 195.501 518.915 197.277C520.499 200.856 521.494 204.668 521.862 208.564C522.462 216.128 522.224 223.734 521.152 231.245C519.27 246.153 516.466 260.847 513.839 275.577C511.212 290.307 508.869 305.073 505.39 319.768C503.823 327.246 501.442 334.53 498.289 341.49C496.568 345.025 494.461 348.358 492.006 351.429C490.749 352.933 489.397 354.355 487.959 355.688C486.597 357.091 485.138 358.396 483.592 359.592C471.259 369.185 456.518 375.191 440.991 376.949C433.458 378.001 425.873 378.653 418.271 378.901C410.815 379.221 403.254 379.54 395.621 379.363C380.049 379.47 364.652 376.074 350.57 369.424C343.5 365.749 337.131 360.859 331.755 354.978C329.129 351.807 327.075 348.204 325.684 344.33C324.303 340.717 323.118 337.032 322.134 333.291C318.229 318.632 315.744 303.866 313.295 289.065C310.845 274.264 308.608 259.498 306.656 244.626C305.733 237.208 304.739 229.79 304.064 222.3C303.745 218.751 303.461 214.847 303.39 211.084C303.129 207.258 303.786 203.425 305.307 199.904ZM305.946 200.223C304.573 203.595 304.013 207.243 304.313 210.871C304.313 214.421 304.739 218.325 305.2 222.017C306.123 229.435 307.259 236.818 308.75 244.129C311.52 258.824 314.679 273.412 318.016 288C321.353 302.588 324.761 317.106 328.666 331.268C329.731 334.817 330.903 338.367 332.217 341.526C333.366 344.712 335.073 347.668 337.258 350.257C342.07 355.368 347.742 359.597 354.014 362.751C367.124 368.814 381.389 371.974 395.834 372.015C403.147 372.335 410.567 372.015 418.022 372.015C425.38 371.885 432.727 371.376 440.033 370.489C454.452 369.057 468.233 363.827 479.971 355.333C481.426 354.249 482.803 353.063 484.089 351.784C485.416 350.68 486.673 349.494 487.852 348.234C490.167 345.545 492.19 342.618 493.887 339.502C497.2 332.976 499.795 326.109 501.627 319.022C505.496 304.825 508.514 290.024 511.389 275.364C514.265 260.705 517.282 246.046 518.844 231.245C519.749 223.926 519.749 216.523 518.844 209.203C518.367 205.66 517.311 202.218 515.72 199.016C514.889 197.436 513.927 195.929 512.845 194.508C511.883 192.988 510.765 191.572 509.508 190.285C504.69 184.898 498.833 180.54 492.29 177.471C489.038 175.879 485.696 174.48 482.279 173.283C478.729 172.254 475.178 171.118 471.628 170.372C457.232 167.228 442.555 165.539 427.82 165.332C412.945 164.977 398.071 164.445 383.267 165.332C368.469 165.955 353.826 168.594 339.743 173.176C332.719 175.572 326.1 179.018 320.111 183.399C314.122 187.824 309.247 193.585 305.875 200.223H305.946Z" fill="#231F20"/>
<path d="M305.52 196.922C305.946 176.086 369.066 157.097 421.537 158.517C463.215 159.688 518.489 174.276 519.519 193.798C520.548 213.32 467.262 236.178 420.117 238.485C365.658 241.112 305.094 217.508 305.52 196.922Z" fill="#3E9581"/>
<path d="M305.307 196.921C305.436 194.365 306.298 191.901 307.792 189.822C309.25 187.721 310.981 185.823 312.94 184.179C316.823 180.936 321.049 178.127 325.543 175.802C334.519 171.11 343.922 167.283 353.624 164.373C373.039 158.376 393.265 155.419 413.585 155.606C433.808 156.233 453.887 159.247 473.404 164.586C483.201 167.013 492.765 170.303 501.982 174.418C506.582 176.523 510.88 179.232 514.762 182.475C516.844 184.227 518.558 186.374 519.803 188.793C521.144 191.406 521.557 194.398 520.975 197.276C519.502 202.564 516.441 207.272 512.206 210.764C508.342 214.234 504.117 217.28 499.603 219.851C490.719 224.936 481.333 229.087 471.593 232.238C452.339 238.815 432.156 242.266 411.81 242.46C391.395 242.35 371.142 238.835 351.884 232.061C342.29 228.778 333.069 224.495 324.371 219.283C320.001 216.697 315.93 213.638 312.23 210.161C310.384 208.399 308.774 206.407 307.437 204.233C306.057 202.043 305.319 199.51 305.307 196.921V196.921ZM306.017 196.921C306.284 199.369 307.052 201.735 308.274 203.872C309.495 206.009 311.144 207.872 313.117 209.344C316.759 212.61 320.818 215.379 325.188 217.579C334.109 221.92 343.478 225.277 353.127 227.588C372.267 232.328 391.914 234.712 411.632 234.687C431.323 234.502 450.884 231.477 469.711 225.707C479.112 222.938 488.248 219.339 497.012 214.952C501.283 212.702 505.346 210.077 509.153 207.108C512.879 204.455 515.723 200.746 517.318 196.46C517.69 194.286 517.471 192.052 516.684 189.992C515.897 187.931 514.571 186.12 512.845 184.747C509.267 181.41 505.195 178.645 500.775 176.548C491.814 172.25 482.393 168.988 472.694 166.822C462.986 164.572 453.125 163.041 443.192 162.243C433.326 161.357 423.412 161.108 413.514 161.498C393.718 162.215 374.017 164.59 354.618 168.597C344.884 170.573 335.371 173.51 326.217 177.364C321.643 179.289 317.336 181.794 313.401 184.818C311.374 186.21 309.659 188.007 308.363 190.097C307.067 192.187 306.22 194.523 305.875 196.957L306.017 196.921Z" fill="#231F20"/>
<path d="M386.781 305.711C394.408 305.711 400.591 299.529 400.591 291.904C400.591 284.278 394.408 278.097 386.781 278.097C379.154 278.097 372.972 284.278 372.972 291.904C372.972 299.529 379.154 305.711 386.781 305.711Z" fill="white"/>
<path d="M400.662 292.259C400.593 295.978 399.181 299.546 396.686 302.304C395.38 303.697 393.784 304.787 392.012 305.498C390.24 306.209 388.333 306.524 386.426 306.422C382.677 306.106 379.178 304.41 376.607 301.662C374.036 298.915 372.576 295.311 372.51 291.549C372.468 289.644 372.819 287.75 373.539 285.986C374.26 284.221 375.336 282.623 376.699 281.292C378.071 279.939 379.704 278.879 381.498 278.178C383.292 277.476 385.211 277.147 387.137 277.21C389.062 277.243 390.958 277.688 392.697 278.514C394.436 279.341 395.978 280.53 397.219 282.002C399.59 284.881 400.816 288.533 400.662 292.259ZM400.662 292.259C400.68 290.484 400.322 288.726 399.612 287.099C398.903 285.472 397.857 284.013 396.544 282.818C393.938 280.396 390.517 279.041 386.959 279.02C383.533 278.99 380.222 280.258 377.693 282.569C375.144 284.94 373.585 288.185 373.327 291.656C373.202 293.419 373.454 295.189 374.066 296.847C374.678 298.506 375.636 300.015 376.877 301.275C378.117 302.504 379.593 303.471 381.215 304.118C382.838 304.764 384.574 305.077 386.32 305.037C389.785 304.987 393.124 303.732 395.763 301.488C397.173 300.376 398.325 298.973 399.14 297.374C399.955 295.774 400.414 294.017 400.485 292.224L400.662 292.259Z" fill="#231F20"/>
<path d="M387.456 305.215C392.279 305.215 396.189 301.305 396.189 296.483C396.189 291.661 392.279 287.751 387.456 287.751C382.633 287.751 378.723 291.661 378.723 296.483C378.723 301.305 382.633 305.215 387.456 305.215Z" fill="#231F20" stroke="#231F20" stroke-width="0.75" stroke-miterlimit="10"/>
<path d="M369.847 269.259C373.498 267.259 377.5 265.981 381.634 265.496C385.92 265.01 390.26 265.36 394.414 266.526" stroke="#231F20" stroke-miterlimit="10" stroke-linecap="round"/>
<path d="M438.4 263.224C442.496 262.514 446.69 262.599 450.754 263.473C454.977 264.376 458.982 266.101 462.54 268.549" stroke="#231F20" stroke-miterlimit="10" stroke-linecap="round"/>
<path d="M407.265 311.106C407.097 310.18 407.115 309.23 407.318 308.311C407.52 307.392 407.904 306.523 408.445 305.753C408.987 304.984 409.677 304.329 410.474 303.829C411.27 303.328 412.159 302.99 413.088 302.836C414.113 302.817 415.131 303.014 416.076 303.414C417.02 303.815 417.87 304.409 418.569 305.159C419.269 305.908 419.803 306.797 420.137 307.767C420.471 308.736 420.597 309.765 420.507 310.787" stroke="#231F20" stroke-miterlimit="10" stroke-linecap="round"/>
<path d="M442.553 305.889C450.18 305.889 456.363 299.707 456.363 292.082C456.363 284.456 450.18 278.274 442.553 278.274C434.926 278.274 428.744 284.456 428.744 292.082C428.744 299.707 434.926 305.889 442.553 305.889Z" fill="white"/>
<path d="M456.47 292.401C456.38 296.133 454.957 299.709 452.458 302.482C451.153 303.876 449.558 304.967 447.785 305.679C446.012 306.39 444.105 306.704 442.198 306.599C438.451 306.275 434.957 304.577 432.387 301.831C429.818 299.085 428.356 295.486 428.282 291.727C428.238 289.821 428.587 287.927 429.308 286.162C430.029 284.397 431.106 282.799 432.471 281.469C433.865 280.083 435.531 279.002 437.364 278.293C439.197 277.584 441.158 277.264 443.121 277.352C445.039 277.396 446.926 277.847 448.657 278.673C450.389 279.498 451.926 280.681 453.168 282.143C455.465 285.055 456.637 288.696 456.47 292.401ZM456.257 292.401C456.29 290.624 455.939 288.86 455.229 287.231C454.518 285.601 453.464 284.145 452.138 282.96C449.608 280.624 446.315 279.287 442.873 279.197C439.456 279.163 436.155 280.432 433.642 282.747C431.091 285.105 429.52 288.335 429.24 291.798C429.12 293.566 429.374 295.34 429.985 297.004C430.597 298.667 431.553 300.183 432.79 301.452C434.029 302.687 435.503 303.659 437.126 304.311C438.748 304.964 440.485 305.283 442.234 305.25C445.708 305.196 449.057 303.942 451.712 301.701C453.092 300.567 454.212 299.15 454.996 297.545C455.78 295.941 456.21 294.186 456.257 292.401Z" fill="#231F20"/>
<path d="M443.263 305.357C448.086 305.357 451.996 301.447 451.996 296.625C451.996 291.803 448.086 287.894 443.263 287.894C438.44 287.894 434.53 291.803 434.53 296.625C434.53 301.447 438.44 305.357 443.263 305.357Z" fill="#231F20" stroke="#231F20" stroke-width="0.75" stroke-miterlimit="10"/>
<path d="M580.19 218.183C586.829 199.761 623.039 170.904 665.711 171.082C682.551 171.165 699.062 175.751 713.531 184.364C728.001 192.977 739.902 205.303 748.002 220.064L580.19 218.183Z" fill="#603913"/>
<path d="M551.221 206.575C569.966 168.029 639.689 168.383 660.351 168.49C687.473 168.49 743.032 168.916 762.203 202.919C770.545 217.72 765.93 241.679 756.771 289.561C749.671 326.901 745.801 345.855 733.518 358.491C712.217 380.391 681.438 381.384 660.777 382.059C639.476 382.769 603.975 383.94 581.361 360.478C575.717 354.622 571.066 347.416 559.209 284.485C546.713 217.898 549.056 211.048 551.221 206.575Z" fill="#FAF28A"/>
<path d="M550.902 206.434C554.26 199.668 559.116 193.756 565.102 189.148C571.095 184.548 577.688 180.786 584.699 177.968C598.774 172.443 613.536 168.861 628.578 167.319C643.561 165.707 658.635 165.102 673.699 165.509C681.225 165.509 688.775 165.982 696.349 166.929C703.924 167.732 711.425 169.121 718.785 171.082C726.207 172.991 733.362 175.817 740.086 179.494C746.993 183.085 753.113 188.021 758.085 194.011C759.362 195.469 760.492 197.051 761.457 198.732C762.571 200.337 763.545 202.035 764.368 203.807C765.97 207.393 766.966 211.219 767.315 215.13C767.986 222.686 767.819 230.292 766.818 237.811C764.936 252.719 762.132 267.413 759.505 282.143C756.878 296.873 754.535 311.639 751.055 326.298C749.499 333.779 747.118 341.065 743.955 348.021C742.243 351.56 740.135 354.894 737.672 357.959C736.415 359.475 735.063 360.909 733.625 362.254C732.254 363.647 730.796 364.951 729.258 366.158C716.918 375.74 702.18 381.744 686.657 383.515C679.135 384.556 671.562 385.195 663.972 385.432C656.481 385.751 648.92 386.106 641.287 385.893C625.715 385.997 610.319 382.601 596.236 375.955C589.172 372.301 582.814 367.421 577.456 361.544C574.818 358.376 572.752 354.773 571.35 350.896C569.979 347.279 568.794 343.595 567.8 339.857C563.895 325.162 561.41 310.397 558.96 295.631C556.511 280.865 554.274 266.029 552.357 251.192C551.399 243.738 550.405 236.32 549.766 228.866C549.411 225.317 549.127 221.377 549.056 217.615C548.784 213.795 549.417 209.964 550.902 206.434V206.434ZM551.541 206.753C550.16 210.123 549.612 213.776 549.943 217.402C549.943 221.129 550.334 224.856 550.795 228.547C551.754 235.93 552.854 243.313 554.345 250.66C557.114 265.319 560.274 279.943 563.611 294.495C566.948 309.048 570.356 323.636 574.474 337.763C575.539 341.312 576.675 344.862 578.024 348.021C579.168 351.162 580.849 354.081 582.995 356.646C587.816 361.747 593.486 365.974 599.751 369.14C612.878 375.19 627.152 378.349 641.606 378.404C648.92 378.723 656.304 378.404 663.794 378.404C671.153 378.29 678.501 377.781 685.805 376.877C700.216 375.481 713.992 370.261 725.708 361.757C727.155 360.663 728.53 359.477 729.826 358.207C731.159 357.034 732.416 355.778 733.589 354.445C735.903 351.768 737.926 348.853 739.624 345.749C742.947 339.226 745.542 332.358 747.363 325.269C751.233 311.071 754.251 296.27 757.126 281.611C760.002 266.952 763.019 252.257 764.617 237.492C765.486 230.158 765.486 222.748 764.617 215.414C764.1 211.875 763.034 208.438 761.457 205.227C760.633 203.654 759.671 202.157 758.582 200.755C757.632 199.226 756.512 197.809 755.245 196.531C750.394 191.177 744.514 186.856 737.956 183.824C734.713 182.222 731.369 180.835 727.944 179.671C724.394 178.642 720.844 177.506 717.294 176.725C702.892 173.614 688.219 171.926 673.486 171.685C658.611 171.33 643.737 170.798 628.933 171.685C614.095 172.307 599.413 174.97 585.302 179.6C578.279 181.996 571.66 185.442 565.67 189.823C559.699 194.282 554.859 200.081 551.541 206.753V206.753Z" fill="#231F20"/>
<path d="M551.186 203.452C551.612 182.617 614.732 163.627 667.202 165.047C708.88 166.183 764.155 180.771 765.185 200.328C766.214 219.886 712.927 242.673 665.64 244.909C611.466 247.642 550.76 224.039 551.186 203.452Z" fill="#FAF28A"/>
<path d="M550.831 203.452C550.961 200.897 551.824 198.433 553.316 196.354C554.775 194.264 556.506 192.378 558.463 190.746C562.354 187.503 566.579 184.683 571.066 182.333C580.056 177.652 589.47 173.837 599.183 170.94C618.584 164.932 638.798 161.962 659.108 162.137C679.333 162.776 699.412 165.802 718.927 171.153C728.736 173.597 738.311 176.899 747.541 181.02C752.242 183.129 756.636 185.863 760.605 189.148C762.643 190.846 764.352 192.903 765.646 195.218C766.962 197.827 767.362 200.802 766.782 203.665C765.323 208.969 762.26 213.692 758.013 217.189C754.188 220.69 749.998 223.772 745.517 226.382C736.649 231.464 727.273 235.604 717.542 238.734C698.19 245.358 677.894 248.81 657.44 248.956C637.025 248.875 616.769 245.372 597.514 238.592C587.935 235.272 578.717 230.991 570.001 225.814C565.637 223.236 561.576 220.176 557.895 216.692C556.029 214.94 554.405 212.946 553.067 210.764C551.65 208.585 550.875 206.051 550.831 203.452V203.452ZM551.541 203.452C551.807 205.905 552.575 208.276 553.796 210.419C555.017 212.562 556.666 214.432 558.641 215.911C562.374 219.174 566.529 221.92 570.995 224.075C579.858 228.482 589.18 231.898 598.792 234.261C617.95 238.969 637.605 241.352 657.333 241.36C677.016 241.18 696.567 238.143 715.377 232.345C724.784 229.519 733.92 225.86 742.677 221.413C746.951 219.162 751.025 216.549 754.854 213.604C758.57 210.949 761.402 207.239 762.984 202.956C763.367 200.781 763.153 198.544 762.366 196.481C761.578 194.419 760.246 192.608 758.51 191.242C754.945 187.907 750.885 185.141 746.476 183.043C737.511 178.718 728.076 175.443 718.359 173.282C708.605 171.022 698.697 169.491 688.716 168.704C678.849 167.817 668.936 167.568 659.037 167.958C639.253 168.675 619.564 171.05 600.177 175.057C590.452 177.069 580.942 180.004 571.776 183.824C567.215 185.767 562.92 188.284 558.996 191.313C556.982 192.712 555.28 194.513 553.997 196.602C552.713 198.692 551.877 201.024 551.541 203.452V203.452Z" fill="#231F20"/>
<path d="M574.581 202.635C574.9 187.799 623.039 174.24 663.084 175.305C694.858 176.121 737.033 186.486 737.814 200.399C738.595 214.313 697.946 230.711 661.877 232.167C620.554 234.048 574.261 217.259 574.581 202.635Z" fill="#231F20" stroke="#231F20" stroke-width="3" stroke-miterlimit="10"/>
<path d="M632.447 312.243C640.074 312.243 646.257 306.061 646.257 298.436C646.257 290.81 640.074 284.628 632.447 284.628C624.82 284.628 618.637 290.81 618.637 298.436C618.637 306.061 624.82 312.243 632.447 312.243Z" fill="white"/>
<path d="M646.328 298.755C646.259 302.473 644.847 306.041 642.352 308.8C641.047 310.194 639.452 311.285 637.679 311.997C635.906 312.708 633.999 313.022 632.092 312.917C628.363 312.596 624.883 310.912 622.316 308.189C619.749 305.465 618.275 301.892 618.176 298.151C618.132 296.246 618.481 294.351 619.202 292.586C619.923 290.821 620.999 289.224 622.365 287.894C623.738 286.53 625.375 285.461 627.176 284.753C628.977 284.045 630.903 283.713 632.838 283.776C634.756 283.821 636.642 284.271 638.374 285.097C640.105 285.923 641.643 287.106 642.884 288.568C645.233 291.432 646.457 295.053 646.328 298.755V298.755ZM646.15 298.755C646.175 296.979 645.82 295.218 645.11 293.59C644.4 291.962 643.351 290.504 642.032 289.313C639.502 286.977 636.209 285.64 632.767 285.551C629.34 285.521 626.03 286.789 623.501 289.1C620.96 291.462 619.401 294.693 619.134 298.151C619.014 299.92 619.267 301.694 619.879 303.357C620.491 305.021 621.447 306.537 622.684 307.806C623.936 309.005 625.419 309.939 627.042 310.549C628.665 311.159 630.395 311.433 632.128 311.355C635.596 311.326 638.942 310.069 641.571 307.806C642.925 306.704 644.03 305.327 644.813 303.767C645.597 302.207 646.04 300.499 646.115 298.755H646.15Z" fill="#231F20"/>
<path d="M632.625 303.759C637.448 303.759 641.358 299.85 641.358 295.027C641.358 290.205 637.448 286.296 632.625 286.296C627.802 286.296 623.892 290.205 623.892 295.027C623.892 299.85 627.802 303.759 632.625 303.759Z" fill="#231F20" stroke="#231F20" stroke-width="0.75" stroke-miterlimit="10"/>
<path d="M610.792 281.221C616.293 274.697 624.129 270.582 632.624 269.756" stroke="#231F20" stroke-miterlimit="10" stroke-linecap="round"/>
<path d="M684.42 267.91C692.997 267.76 701.292 270.97 707.531 276.855" stroke="#231F20" stroke-miterlimit="10" stroke-linecap="round"/>
<path d="M688.255 312.385C695.882 312.385 702.064 306.203 702.064 298.578C702.064 290.952 695.882 284.771 688.255 284.771C680.628 284.771 674.445 290.952 674.445 298.578C674.445 306.203 680.628 312.385 688.255 312.385Z" fill="white"/>
<path d="M702.135 298.932C702.076 302.659 700.648 306.234 698.124 308.977C696.823 310.38 695.23 311.479 693.457 312.197C691.684 312.914 689.774 313.233 687.864 313.13C684.114 312.798 680.619 311.092 678.05 308.34C675.482 305.589 674.02 301.985 673.948 298.222C673.936 296.303 674.315 294.401 675.059 292.632C675.804 290.863 676.899 289.264 678.28 287.93C679.66 286.596 681.297 285.556 683.09 284.873C684.884 284.189 686.798 283.876 688.716 283.953C690.634 283.998 692.521 284.448 694.252 285.274C695.984 286.1 697.521 287.283 698.763 288.745C701.069 291.628 702.265 295.242 702.135 298.932V298.932ZM701.958 298.932C701.975 297.154 701.614 295.392 700.898 293.764C700.182 292.136 699.127 290.679 697.804 289.49C695.278 287.166 692.005 285.819 688.574 285.692C685.143 285.646 681.824 286.909 679.291 289.224C676.758 291.538 675.203 294.73 674.942 298.151C674.815 299.915 675.066 301.685 675.678 303.344C676.29 305.002 677.249 306.512 678.492 307.77C679.726 309.008 681.2 309.98 682.824 310.627C684.448 311.274 686.187 311.582 687.935 311.532C691.407 311.464 694.751 310.212 697.414 307.983C698.753 306.868 699.847 305.488 700.629 303.931C701.411 302.374 701.863 300.672 701.958 298.932V298.932Z" fill="#231F20"/>
<path d="M688.254 303.759C693.078 303.759 696.988 299.85 696.988 295.027C696.988 290.205 693.078 286.296 688.254 286.296C683.431 286.296 679.521 290.205 679.521 295.027C679.521 299.85 683.431 303.759 688.254 303.759Z" fill="#231F20" stroke="#231F20" stroke-width="0.75" stroke-miterlimit="10"/>
<path d="M89.2843 215.663C95.852 197.206 132.134 168.385 174.806 168.562C191.635 168.632 208.14 173.2 222.61 181.794C237.079 190.388 248.986 202.694 257.097 217.438L89.2843 215.663Z" fill="#603913"/>
<path d="M60.3512 204.056C79.0957 165.473 148.819 165.864 169.481 165.97C196.603 165.97 252.162 166.396 271.333 200.364C279.675 215.201 275.096 239.124 265.901 287.041C258.801 324.381 254.931 343.3 242.648 355.936C221.348 377.835 190.568 378.865 169.907 379.539C149.245 380.214 113.105 381.385 90.4914 357.959C84.8468 352.102 80.1962 344.897 68.3389 281.966C55.7716 215.378 58.1502 208.528 60.3512 204.056Z" fill="#F26B6C"/>
<path d="M59.9964 203.878C63.3679 197.121 68.222 191.212 74.1967 186.593C80.1986 182.005 86.7897 178.244 93.7931 175.412C107.873 169.903 122.633 166.321 137.672 164.764C152.653 163.115 167.729 162.511 182.794 162.953C190.364 163.021 197.924 163.495 205.443 164.373C213.021 165.159 220.523 166.548 227.88 168.526C235.307 170.419 242.464 173.246 249.18 176.938C256.186 180.548 262.374 185.563 267.357 191.668C268.704 193.111 269.894 194.694 270.907 196.389C272.026 197.997 273.012 199.695 273.853 201.465C275.426 205.046 276.409 208.857 276.764 212.752C277.383 220.315 277.145 227.923 276.054 235.433C274.173 250.34 271.368 265.07 268.741 279.765C266.114 294.46 263.771 309.261 260.292 323.955C258.725 331.433 256.344 338.718 253.192 345.678C251.484 349.22 249.376 352.554 246.908 355.616C245.66 357.129 244.308 358.552 242.861 359.875C241.509 361.288 240.049 362.593 238.495 363.78C226.161 373.372 211.42 379.378 195.894 381.137C188.372 382.189 180.799 382.841 173.209 383.089C165.718 383.408 158.156 383.728 150.523 383.55C134.952 383.654 119.555 380.258 105.473 373.612C98.4 369.957 92.0395 365.064 86.693 359.166C84.0546 355.998 81.9883 352.394 80.5868 348.517C79.1891 344.91 78.0037 341.224 77.0368 337.479C73.0962 322.819 70.6111 308.054 68.1616 293.253C65.712 278.452 63.3689 263.438 61.4519 248.459C60.4934 241.041 59.4993 233.622 58.8603 226.133C58.5053 222.406 58.2213 218.679 58.1858 214.917C57.9137 211.146 58.534 207.365 59.9964 203.878V203.878ZM60.6354 204.198C59.2768 207.573 58.7296 211.22 59.0378 214.846C59.0378 218.395 59.4283 222.264 59.8899 225.956C60.8484 233.374 61.9489 240.757 63.4399 248.069C66.2445 262.763 69.4041 277.387 72.7057 291.939C76.0072 306.492 79.4508 321.045 83.5689 335.207C84.6339 338.756 85.77 342.306 87.119 345.465C88.27 348.603 89.9511 351.52 92.0891 354.09C96.9187 359.188 102.601 363.404 108.881 366.548C121.989 372.619 136.256 375.779 150.701 375.812C158.014 376.132 165.398 375.812 172.889 375.812C180.247 375.681 187.594 375.172 194.9 374.286C209.313 372.876 223.088 367.644 234.802 359.13C236.25 358.036 237.625 356.851 238.921 355.581C242.818 352.087 246.064 347.929 248.506 343.3C251.858 336.84 254.489 330.032 256.351 322.997C260.221 308.799 263.239 293.998 266.114 279.339C268.99 264.68 272.007 250.021 273.605 235.22C274.474 227.898 274.474 220.499 273.605 213.178C273.093 209.637 272.027 206.2 270.445 202.991C269.614 201.411 268.652 199.903 267.57 198.483C266.611 196.961 265.492 195.545 264.233 194.259C259.386 188.925 253.52 184.616 246.979 181.588C243.716 179.995 240.361 178.597 236.933 177.4C233.382 176.37 229.832 175.234 226.282 174.489C211.883 171.36 197.208 169.672 182.474 169.449C167.599 169.094 152.725 168.561 137.921 169.449C123.097 170.073 108.429 172.724 94.3257 177.329C87.288 179.716 80.6559 183.163 74.6582 187.551C68.7678 191.95 63.9696 197.646 60.6354 204.198Z" fill="#231F20"/>
<path d="M60.3514 200.932C60.7774 180.061 123.898 161.072 176.368 162.527C218.046 163.663 273.321 178.251 274.35 197.773C275.38 217.295 222.093 240.153 174.948 242.46C120.703 245.087 59.8544 221.519 60.3514 200.932Z" fill="#F26B6C"/>
<path d="M59.9254 200.897C60.0522 198.335 60.9286 195.867 62.446 193.798C63.8444 191.683 65.529 189.772 67.4516 188.119C71.325 184.853 75.5523 182.031 80.0544 179.707C89.0426 175.014 98.4573 171.187 108.171 168.278C127.574 162.281 147.789 159.324 168.096 159.511C188.321 160.135 208.4 163.149 227.915 168.491C237.723 170.924 247.298 174.213 256.529 178.323C261.297 180.429 265.763 183.162 269.806 186.451C271.878 188.226 273.59 190.383 274.847 192.804C276.163 195.413 276.563 198.388 275.984 201.252C274.524 206.545 271.461 211.257 267.215 214.74C263.359 218.221 259.133 221.268 254.612 223.826C245.737 228.905 236.363 233.056 226.637 236.214C207.281 242.821 186.987 246.273 166.534 246.436C146.082 246.363 125.788 242.847 106.503 236.036C96.8974 232.754 87.6638 228.471 78.9539 223.258C74.5816 220.693 70.5195 217.632 66.8481 214.136C64.9741 212.401 63.36 210.405 62.0555 208.209C60.6614 206.025 59.9222 203.488 59.9254 200.897ZM60.6354 200.897C60.9105 203.342 61.6821 205.705 62.9031 207.841C64.124 209.978 65.7684 211.842 67.7356 213.32C71.4675 216.594 75.6228 219.352 80.0899 221.519C89.0116 225.861 98.38 229.217 108.029 231.529C127.174 236.328 146.833 238.772 166.57 238.805C186.249 238.622 205.799 235.597 224.614 229.825C234.023 227.005 243.159 223.346 251.914 218.893C256.197 216.642 260.271 214.017 264.091 211.048C267.814 208.402 270.649 204.689 272.22 200.4C272.6 198.226 272.384 195.99 271.597 193.928C270.81 191.866 269.479 190.055 267.747 188.687C264.149 185.342 260.053 182.576 255.606 180.488C246.634 176.18 237.201 172.905 227.489 170.727C217.793 168.488 207.944 166.969 198.024 166.184C188.146 165.286 178.221 165.025 168.309 165.403C148.525 166.12 128.836 168.495 109.449 172.502C99.7162 174.48 90.2029 177.417 81.0484 181.269C76.4734 183.184 72.1752 185.703 68.2681 188.758C66.2173 190.143 64.4788 191.942 63.1644 194.038C61.8499 196.135 60.9885 198.483 60.6354 200.933V200.897Z" fill="#231F20"/>
<path d="M83.6752 200.081C83.9947 185.244 132.134 171.685 172.179 172.75C204.13 173.567 246.127 183.966 246.731 197.845C247.334 211.723 206.863 228.015 170.794 229.789C129.649 231.529 83.3557 214.74 83.6752 200.081Z" fill="#231F20" stroke="#231F20" stroke-width="3" stroke-miterlimit="10"/>
<path d="M141.542 309.687C149.169 309.687 155.352 303.505 155.352 295.88C155.352 288.254 149.169 282.072 141.542 282.072C133.915 282.072 127.732 288.254 127.732 295.88C127.732 303.505 133.915 309.687 141.542 309.687Z" fill="white"/>
<path d="M155.423 296.234C155.353 299.953 153.941 303.521 151.446 306.279C150.141 307.674 148.546 308.765 146.774 309.476C145.001 310.188 143.094 310.502 141.187 310.397C137.44 310.073 133.945 308.375 131.376 305.629C128.806 302.883 127.344 299.284 127.27 295.524C127.219 293.627 127.555 291.739 128.256 289.976C128.958 288.212 130.012 286.61 131.353 285.267C132.75 283.887 134.417 282.812 136.25 282.11C138.083 281.407 140.042 281.092 142.003 281.185C143.922 281.223 145.811 281.67 147.544 282.496C149.276 283.323 150.813 284.509 152.05 285.976C154.396 288.866 155.596 292.517 155.423 296.234V296.234ZM155.245 296.234C155.274 294.452 154.922 292.685 154.212 291.05C153.501 289.416 152.45 287.952 151.127 286.757C148.625 284.466 145.393 283.134 142.003 282.995C138.587 282.96 135.286 284.23 132.773 286.544C130.202 288.903 128.628 292.152 128.371 295.631C128.246 297.394 128.498 299.164 129.11 300.822C129.722 302.481 130.681 303.99 131.921 305.25C134.429 307.617 137.774 308.894 141.222 308.799C144.697 308.746 148.046 307.491 150.701 305.25C152.049 304.15 153.15 302.779 153.933 301.226C154.716 299.673 155.163 297.972 155.245 296.234Z" fill="#231F20"/>
<path d="M138.702 302.092C143.525 302.092 147.435 298.182 147.435 293.36C147.435 288.538 143.525 284.628 138.702 284.628C133.878 284.628 129.969 288.538 129.969 293.36C129.969 298.182 133.878 302.092 138.702 302.092Z" fill="#231F20" stroke="#231F20" stroke-width="0.75" stroke-miterlimit="10"/>
<path d="M124.608 273.305C128.272 271.377 132.274 270.172 136.394 269.755C140.678 269.239 145.022 269.577 149.174 270.749" stroke="#231F20" stroke-miterlimit="10" stroke-linecap="round"/>
<path d="M193.16 267.2C197.256 266.49 201.45 266.574 205.514 267.448C209.738 268.352 213.742 270.076 217.3 272.524" stroke="#231F20" stroke-miterlimit="10" stroke-linecap="round"/>
<path d="M162.026 306.776C161.784 307.761 161.767 308.787 161.975 309.779C162.183 310.771 162.61 311.704 163.227 312.509C163.843 313.314 164.632 313.971 165.535 314.431C166.439 314.891 167.434 315.142 168.448 315.167C169.462 315.191 170.468 314.988 171.393 314.572C172.317 314.156 173.137 313.539 173.791 312.764C174.446 311.99 174.918 311.078 175.173 310.097C175.429 309.116 175.461 308.09 175.267 307.095" stroke="#231F20" stroke-miterlimit="10" stroke-linecap="round"/>
<path d="M197.349 309.865C204.976 309.865 211.159 303.683 211.159 296.058C211.159 288.432 204.976 282.25 197.349 282.25C189.722 282.25 183.539 288.432 183.539 296.058C183.539 303.683 189.722 309.865 197.349 309.865Z" fill="white"/>
<path d="M211.23 296.377C211.172 300.115 209.745 303.702 207.218 306.457C205.921 307.853 204.333 308.946 202.566 309.657C200.798 310.369 198.896 310.682 196.994 310.575C193.243 310.252 189.745 308.555 187.17 305.81C184.594 303.065 183.124 299.465 183.042 295.703C183.017 293.799 183.375 291.91 184.094 290.148C184.814 288.386 185.881 286.787 187.231 285.445C188.604 284.081 190.241 283.013 192.042 282.305C193.843 281.597 195.77 281.264 197.704 281.327C199.622 281.37 201.51 281.819 203.242 282.645C204.973 283.471 206.51 284.655 207.751 286.119C210.105 289.009 211.341 292.651 211.23 296.377V296.377ZM211.23 296.377C211.252 294.598 210.892 292.835 210.176 291.206C209.46 289.578 208.403 288.121 207.076 286.936C204.555 284.607 201.276 283.271 197.846 283.173C194.393 283.111 191.049 284.383 188.51 286.723C185.971 289.063 184.432 292.292 184.214 295.738C184.093 297.501 184.348 299.269 184.959 300.927C185.571 302.585 186.527 304.095 187.764 305.357C189.013 306.584 190.495 307.549 192.123 308.196C193.751 308.842 195.491 309.156 197.242 309.119C200.705 309.058 204.04 307.804 206.686 305.57C208.013 304.425 209.087 303.017 209.838 301.434C210.59 299.851 211.004 298.129 211.052 296.377H211.23Z" fill="#231F20"/>
<path d="M194.473 302.268C199.297 302.268 203.207 298.359 203.207 293.537C203.207 288.714 199.297 284.805 194.473 284.805C189.65 284.805 185.74 288.714 185.74 293.537C185.74 298.359 189.65 302.268 194.473 302.268Z" fill="#231F20" stroke="#231F20" stroke-width="0.75" stroke-miterlimit="10"/>
<path d="M452.529 308.8C451.642 308.8 449.512 315.402 449.583 318.312C449.654 321.223 452.281 322.43 453.807 320.442C455.334 318.454 453.488 308.8 452.529 308.8Z" fill="#0070B4"/>
<path d="M453.984 312.598C453.562 313.731 453.381 314.94 453.452 316.147C453.452 316.963 453.7 317.993 453.097 318.49C452.493 318.987 452.564 318.703 452.28 319.093C452.013 319.432 451.841 319.837 451.783 320.264C451.783 320.69 451.57 321.045 451.251 321.152C451.677 321.295 452.138 321.295 452.565 321.152C452.869 321.046 453.147 320.876 453.381 320.655C453.683 320.395 453.936 320.082 454.127 319.732C454.327 319.26 454.435 318.754 454.446 318.241C454.501 317.307 454.501 316.371 454.446 315.437C454.41 314.727 454.162 313.733 453.984 312.598Z" fill="#004C7F"/>
<path d="M451.038 312.774C450.505 313.91 450.505 314.194 450.541 314.265C450.576 314.336 450.931 314.265 451.073 313.768C451.159 313.615 451.201 313.442 451.195 313.266C451.188 313.091 451.134 312.921 451.038 312.774V312.774Z" fill="white"/>
<path d="M661.558 320.193C665.656 320.193 668.978 316.872 668.978 312.775C668.978 308.678 665.656 305.356 661.558 305.356C657.46 305.356 654.138 308.678 654.138 312.775C654.138 316.872 657.46 320.193 661.558 320.193Z" fill="#231F20" stroke="#231F20" stroke-width="0.75" stroke-miterlimit="10"/>
<path d="M71.4985 208.137C65.6763 194.827 99.1891 179.742 100.503 144.248C100.68 140.237 101.497 117.52 85.6988 105.204C71.747 94.1652 49.204 94.5557 29.146 106.872C34.6486 96.2239 49.0265 72.0168 77.3561 59.3099C136.572 32.6892 195.254 83.446 197.81 85.5756C237.287 120.679 256.884 184.25 235.974 206.859C227.809 215.698 218.791 212.539 159.931 213.426C97.6271 214.349 75.9361 218.324 71.4985 208.137Z" fill="#ED1C24"/>
<path d="M71.1789 208.28C70.5999 206.495 70.4556 204.597 70.7582 202.745C71.0608 200.893 71.8014 199.14 72.9185 197.632C74.9311 194.545 77.1117 191.571 79.4506 188.723C84.115 183.131 88.2508 177.118 91.8049 170.763C95.205 164.438 97.4188 157.546 98.3371 150.424C99.1202 143.301 98.6638 136.096 96.988 129.128C95.4907 122.4 92.3155 116.161 87.7578 110.99C83.1282 106.074 77.088 102.713 70.4689 101.371C57.1206 98.4609 42.7428 102.223 30.6015 109.145L21.8683 114.22L26.5899 105.489C36.5959 86.3559 52.2005 70.7295 71.3209 60.695C90.4931 51.0622 112.336 48.1137 133.376 52.3184C154.357 56.542 174.224 65.1015 191.704 77.4483C193.87 78.9745 196.035 80.5363 198.165 82.24C200.295 83.9437 202.248 85.7894 204.236 87.5996C208.059 91.3148 211.663 95.2495 215.028 99.3837C221.881 107.622 227.832 116.57 232.779 126.075C237.846 135.575 241.835 145.611 244.671 155.997C247.773 166.574 248.774 177.655 247.618 188.616C246.942 194.383 245.067 199.944 242.115 204.944C240.524 207.555 238.494 209.872 236.116 211.794C233.589 213.765 230.634 215.115 227.489 215.734C222.056 216.608 216.554 216.988 211.052 216.87C205.727 216.87 200.402 216.87 195.219 216.692C174.273 216.302 153.292 215.698 132.311 215.698H100.822C95.568 215.698 90.1719 215.698 85.0598 215.06C82.4012 214.846 79.7784 214.31 77.2496 213.462C75.9196 213.096 74.6864 212.442 73.6373 211.547C72.5882 210.651 71.7489 209.536 71.1789 208.28V208.28ZM71.818 207.996C72.3783 209.134 73.1798 210.137 74.1669 210.933C75.154 211.73 76.3028 212.303 77.5336 212.61C79.9977 213.401 82.5488 213.89 85.1308 214.066C90.3574 214.35 95.5955 214.35 100.822 214.066C111.472 213.711 121.768 212.894 132.276 212.291C153.257 210.978 174.309 209.877 195.325 209.735L211.017 209.522C216.012 209.554 221.001 209.15 225.927 208.316C227.95 207.943 229.858 207.105 231.501 205.867C233.181 204.435 234.61 202.731 235.725 200.826C238.136 196.756 239.649 192.218 240.163 187.516C241.223 177.555 240.441 167.485 237.855 157.807C235.369 147.885 231.798 138.268 227.205 129.128C222.547 119.951 217.006 111.25 210.662 103.146C204.278 95.0376 196.854 87.8055 188.58 81.6366C172.183 68.7914 153.17 59.6928 132.879 54.9804C122.709 52.8073 112.249 52.3276 101.923 53.5607C91.6294 54.9346 81.6838 58.221 72.599 63.2506C54.7112 73.6824 40.4316 89.3214 31.6665 108.08L27.6549 104.353C40.639 95.646 56.5276 92.3949 71.889 95.3019C79.716 96.9904 86.7884 101.161 92.0534 107.192C97.0596 113.222 100.336 120.496 101.532 128.241C102.81 135.711 102.81 143.344 101.532 150.815C100.138 158.187 97.3936 165.239 93.438 171.615C89.495 177.876 85.0549 183.811 80.1607 189.362C77.7785 192.11 75.5843 195.015 73.593 198.058C72.5279 199.454 71.8113 201.084 71.5025 202.812C71.1938 204.541 71.302 206.318 71.818 207.996V207.996Z" fill="#231F20"/>
<path d="M62.6082 191.501C48.2787 197.156 31.6565 211.177 33.5671 225.389C34.3465 229.4 36.1139 233.152 38.7093 236.308C41.3048 239.463 44.6464 241.921 48.4316 243.46C57.1057 246.899 61.0797 241.588 75.4474 243.842C85.8029 245.485 85.7647 248.58 93.5599 248.618C104.565 248.618 106.17 242.543 117.328 241.435C128.486 240.327 129.594 245.638 142.815 246.631C155.234 247.586 156.572 243.116 170.099 242.123C191.153 240.595 193.675 251.025 209.037 248.121C225.621 245.027 228.334 231.808 241.861 232.839C252.369 233.68 253.554 241.856 263.374 242.696C277.895 243.919 297.994 227.949 297.23 210.337C296.58 194.672 279.691 183.861 267.119 180.307C242.854 173.431 232.728 192.953 205.254 187.681C184.466 183.631 183.74 170.947 165.742 170.565C146.025 170.183 143.962 185.35 119.086 191.119C92.9103 197.27 84.5801 182.867 62.6082 191.501Z" fill="white"/>
<path d="M62.7232 191.844C56.872 194.262 51.432 197.575 46.5978 201.662C41.7196 205.6 37.9637 210.752 35.7074 216.601C31.0455 228.444 42.318 241.052 53.0174 242.16C56.0091 242.119 58.9852 241.722 61.8826 240.975C65.2231 240.382 68.6226 240.19 72.0088 240.402C75.4343 240.576 78.8302 241.127 82.1349 242.045C83.7612 242.549 85.3561 243.148 86.9114 243.841C88.1296 244.396 89.4137 244.794 90.7326 245.025C93.4128 245.37 96.1338 245.215 98.7572 244.567C101.587 243.559 104.313 242.28 106.896 240.746C110.123 239.194 113.607 238.249 117.175 237.957C120.806 237.604 124.471 238.047 127.913 239.256C131.276 240.44 133.798 241.778 136.663 242.542C139.532 243.33 142.48 243.792 145.452 243.917C148.387 244.088 151.33 243.778 154.165 243C157.266 242.053 160.417 241.275 163.603 240.67C170.161 239.593 176.863 239.761 183.359 241.166C189.893 242.542 195.434 246.324 201.395 247.088C204.389 247.494 207.431 247.351 210.374 246.668C213.37 245.989 216.235 244.828 218.857 243.229C224.169 240.135 228.258 234.824 234.907 232.417C238.201 231.387 241.714 231.268 245.071 232.074C248.39 232.898 251.467 234.495 254.051 236.735C256.242 238.621 258.869 239.934 261.693 240.555C264.556 241.003 267.483 240.794 270.253 239.944C275.898 238.226 281.012 235.096 285.111 230.851C289.21 226.606 292.158 221.385 293.677 215.684C294.207 212.964 294.175 210.165 293.584 207.458C292.992 204.751 291.854 202.194 290.238 199.943C286.802 195.2 282.35 191.284 277.207 188.482C272.106 185.531 266.469 183.622 260.623 182.866C254.829 182.307 248.984 183.145 243.581 185.311C237.549 187.812 231.342 189.867 225.01 191.462C218.221 192.914 211.202 192.914 204.413 191.462C197.653 190.195 191.25 187.471 185.651 183.477C180.187 179.427 175.984 175.836 170.596 174.843C165.061 173.628 159.288 174.135 154.05 176.294C148.891 178.587 143.847 182.827 138.077 186.113C132.314 189.379 126.053 191.676 119.544 192.914C113.128 194.224 106.531 194.392 100.056 193.41C93.6367 192.493 87.561 190.392 81.3325 189.59C75.0386 188.757 68.6361 189.532 62.7232 191.844ZM62.4558 191.156C68.4299 188.666 74.9347 187.72 81.3707 188.405C87.8285 188.978 93.9807 190.965 100.247 191.309C112.685 192.14 125.041 188.763 135.326 181.72C140.379 177.586 145.674 173.759 151.184 170.258C154.352 168.593 157.796 167.519 161.348 167.087C164.871 166.661 168.437 166.751 171.933 167.354C175.509 168.016 178.938 169.309 182.059 171.175C185.078 173.009 187.6 174.995 190.084 176.753C194.839 180.125 200.28 182.408 206.018 183.439C211.738 184.645 217.647 184.645 223.366 183.439C229.371 181.908 235.289 180.059 241.097 177.899C247.637 175.486 254.654 174.649 261.579 175.454C268.342 176.474 274.836 178.824 280.685 182.369C286.738 185.758 291.898 190.538 295.74 196.314C297.745 199.327 299.118 202.716 299.775 206.275C300.432 209.835 300.359 213.49 299.561 217.021C297.82 223.788 294.078 229.873 288.824 234.481C286.358 236.79 283.61 238.78 280.646 240.402C277.692 242.134 274.499 243.422 271.17 244.223C267.782 245.102 264.237 245.18 260.814 244.452C257.463 243.515 254.393 241.77 251.873 239.371C249.71 237.303 247.093 235.772 244.23 234.901C241.389 234.137 238.397 234.137 235.556 234.901C229.977 236.696 225.621 241.892 219.927 245.14C214.196 248.628 207.51 250.219 200.821 249.686C193.981 248.884 188.441 245.293 182.441 244.376C176.369 243.431 170.172 243.638 164.176 244.987C161.196 245.636 158.406 246.744 155.234 247.776C151.955 248.859 148.524 249.414 145.07 249.419C141.679 249.454 138.296 249.108 134.982 248.387C131.818 247.593 128.705 246.611 125.658 245.445C120.273 243.93 114.514 244.503 109.533 247.05C106.601 248.741 103.502 250.124 100.286 251.176C98.508 251.685 96.6703 251.955 94.8213 251.978C92.9927 252.071 91.1595 251.956 89.357 251.635C87.5182 251.299 85.7322 250.721 84.0455 249.915C82.7198 249.279 81.354 248.731 79.9568 248.272C77.155 247.343 74.2586 246.728 71.3209 246.439C68.361 246.133 65.3775 246.133 62.4175 246.439C59.0735 247.003 55.6745 247.169 52.2914 246.935C48.8768 246.269 45.6357 244.908 42.7697 242.936C39.9036 240.964 37.4737 238.424 35.6309 235.474C33.7202 232.634 32.491 229.392 32.039 225.999C31.7224 222.609 32.2611 219.194 33.6057 216.066C36.3746 210.04 40.6038 204.8 45.91 200.822C50.917 196.8 56.4929 193.543 62.4558 191.156V191.156Z" fill="#231F20"/>
<path d="M29.0394 135.446C44.0188 135.446 56.162 123.305 56.162 108.328C56.162 93.3514 44.0188 81.2104 29.0394 81.2104C14.06 81.2104 1.91675 93.3514 1.91675 108.328C1.91675 123.305 14.06 135.446 29.0394 135.446Z" fill="white"/>
<path d="M56.4817 110.032C56.1391 117.495 53.3581 124.639 48.565 130.37C45.954 133.276 42.6944 135.526 39.0508 136.937C35.3197 138.306 31.3217 138.792 27.371 138.356C19.7071 137.226 12.7691 133.199 7.98755 127.105C3.0772 121.327 0.26255 114.06 -0.000136643 106.482C-0.0973405 102.568 0.637134 98.6772 2.15479 95.0673C3.67245 91.4574 5.93875 88.2105 8.80407 85.5409C11.728 82.7431 15.199 80.58 18.9989 79.1873C22.7989 77.7946 26.8458 77.2025 30.8856 77.4482C34.9268 77.8088 38.8463 79.0183 42.3879 80.9976C45.859 82.8519 48.84 85.5039 51.0856 88.7354C55.2193 95.0295 57.1196 102.529 56.4817 110.032V110.032ZM55.7717 110.032C55.9038 106.59 55.2314 103.165 53.8078 100.029C52.3842 96.893 50.2487 94.1319 47.571 91.9653C42.7397 87.9098 36.7229 85.5309 30.4241 85.1859C24.2093 84.8473 18.0889 86.8196 13.2417 90.723C8.31001 94.812 4.99931 100.526 3.90495 106.837C3.36162 110.19 3.59431 113.623 4.58515 116.872C5.57598 120.121 7.29859 123.099 9.62059 125.578C11.9865 127.891 14.8007 129.695 17.89 130.879C20.9793 132.063 24.2783 132.603 27.584 132.464C33.9766 132.364 40.208 130.443 45.5474 126.927C48.454 125.106 50.893 122.629 52.6686 119.695C54.4443 116.761 55.5071 113.451 55.7717 110.032V110.032Z" fill="#231F20"/>
<path d="M738.417 195.217C708.715 135.421 678.965 75.6136 649.168 15.7939C624.104 83.3513 599.017 150.968 573.906 218.644L738.417 195.217Z" fill="#ED1C24"/>
<path d="M738.169 195.218L714.028 149.963C706.076 135.056 698.301 120.325 690.775 105.631C683.249 90.9362 675.758 76.2771 668.729 61.476L647.89 16.4338H650.553C643.843 33.1871 637.595 50.0823 631.524 67.0841C625.454 84.0858 619.631 101.123 613.774 118.196C607.916 135.269 601.952 152.27 596.023 169.237L577.456 220.064L573.374 214.989C586.84 213.048 600.307 211.226 613.774 209.523C627.229 207.748 640.861 206.257 654.493 204.624L738.169 195.218ZM738.808 195.538L698.834 202.637L657.901 209.735C644.127 212.007 630.317 214.421 616.33 216.55C602.342 218.68 588.426 220.845 574.439 222.762L568.013 223.259L570.285 217.331L589.598 166.823C596.012 149.999 602.579 133.21 609.301 116.457C615.975 99.7033 622.791 82.9855 629.181 66.1257C635.571 49.266 641.961 32.4062 647.819 15.3689L648.884 12.21L650.482 15.227L674.303 60.0562C682.148 75.1413 689.639 90.4038 696.917 105.631C704.194 120.858 711.401 136.014 718.217 151.028L738.808 195.538Z" fill="#231F20"/>
<path d="M759.738 172.548C774.386 177.349 791.891 191.179 791.212 207.102C790.716 211.689 789.235 216.064 786.903 219.831C784.571 223.599 781.46 226.642 777.851 228.687C769.527 233.366 765.133 227.908 751.093 231.888C740.912 234.761 741.197 238.167 733.445 239.029C722.621 240.219 720.477 233.448 709.295 233.448C707.301 233.437 705.311 233.685 703.365 234.186C693.148 236.977 691.969 246.744 685.038 250.601C672.392 257.865 659.817 234.515 644.42 241.573C639.704 243.748 635.489 247.77 626.272 249.781C623.811 250.313 621.297 250.438 618.805 250.15C602.086 248.385 598.335 234.022 585.01 236.649C574.65 238.659 574.292 247.852 564.432 249.781C550.143 252.653 528.887 237.018 528.279 217.402C527.743 200.002 543.677 186.254 555.859 181.043C579.401 170.947 591.19 191.507 617.841 182.848C638.168 176.2 637.882 162.083 655.709 159.826C675.25 157.364 678.501 173.984 703.651 177.801C730.123 182.028 737.268 165.202 759.738 172.548Z" fill="white"/>
<path d="M759.846 172.179C766.023 174.214 771.891 177.328 777.244 181.413C782.805 185.358 787.374 190.904 790.497 197.5C791.979 201.033 792.609 204.959 792.319 208.867C791.863 212.769 790.641 216.502 788.747 219.783C786.937 223.1 784.612 226.008 781.888 228.36C779.09 230.896 775.766 232.551 772.242 233.161C768.67 233.654 765.455 233.161 762.454 233.161C759.458 233.233 756.478 233.66 753.558 234.433C750.668 235.142 747.862 236.245 745.199 237.717L740.948 240.22C739.256 241.176 737.45 241.84 735.589 242.19C732.035 242.929 728.386 242.817 724.872 241.861C721.299 240.794 718.441 238.989 715.762 238.127C710.469 236.157 704.717 236.628 699.721 239.44C697.316 241.254 695.201 243.53 693.47 246.17C691.309 249.597 688.384 252.291 685.003 253.967C681.447 255.378 677.568 255.276 674.071 253.68C670.976 252.335 667.998 250.659 665.176 248.674C659.71 245.185 654.101 241.492 648.278 242.436C647.547 242.511 646.827 242.69 646.135 242.969C645.419 243.179 644.715 243.439 644.027 243.749C642.634 244.447 641.24 245.308 639.811 246.088C636.908 247.817 633.854 249.192 630.702 250.192C627.549 251.341 624.256 251.896 620.949 251.833C617.656 251.712 614.396 251.048 611.268 249.864C604.873 247.689 599.8 242.395 594.334 239.604C591.611 238.289 588.625 237.866 585.706 238.38C582.787 238.894 580.048 240.326 577.794 242.518C575.496 245.203 572.984 247.635 570.292 249.782C567.193 251.757 563.688 252.736 560.146 252.613C553.327 252.352 546.707 249.907 541.033 245.555C538.163 243.437 535.556 240.883 533.281 237.963C530.905 235.028 528.973 231.657 527.565 227.991C526.104 224.188 525.371 220.07 525.414 215.915C525.457 211.759 526.276 207.663 527.815 203.902C530.935 196.776 535.536 190.645 541.212 186.05C546.673 181.333 552.852 177.826 559.431 175.709C566.196 173.863 573.244 173.863 580.009 175.709C586.546 177.268 592.476 179.566 598.371 180.428C604.205 181.37 610.144 180.965 615.84 179.238C621.569 177.722 626.928 174.749 631.523 170.538C633.917 168.445 636.239 165.942 638.99 163.562C641.824 161.013 645.046 159.093 648.492 157.898C651.877 156.801 655.372 156.221 658.888 156.175C662.442 156.214 665.966 156.921 669.32 158.268C675.22 161.454 680.905 165.144 686.325 169.307C697.298 176.152 709.93 178.648 722.264 176.406C728.515 175.38 734.481 172.549 740.805 171.236C747.122 169.734 753.665 170.058 759.846 172.179V172.179ZM759.846 172.959C753.756 170.919 747.313 170.693 741.126 172.303C734.982 173.903 729.123 176.858 722.764 178.499C716.401 180.224 709.827 180.682 703.33 179.853C696.759 179.097 690.339 177.115 684.324 173.985C678.872 170.531 673.255 167.435 667.498 164.711C661.973 163.013 656.135 163.212 650.707 165.285C645.42 167.173 641.49 172.015 636.203 177.022C630.832 182.022 624.579 185.62 617.877 187.569C611.219 189.63 604.265 190.104 597.442 188.964C591.07 187.664 584.762 185.979 578.544 183.916C572.88 182.272 566.961 182.159 561.253 183.588C555.442 185.356 549.967 188.348 545.106 192.411C540.211 196.135 536.158 201.142 533.281 207.02C532.01 209.858 531.292 212.98 531.175 216.168C531.057 219.357 531.544 222.536 532.602 225.487C533.698 228.49 535.219 231.263 537.103 233.695C538.99 236.346 541.19 238.681 543.641 240.63C548.442 244.739 554.145 247.226 560.11 247.812C562.976 248.103 565.857 247.478 568.434 246.006C570.975 244.072 573.365 241.889 575.579 239.481C578.307 237.034 581.571 235.5 585.01 235.049C588.424 234.496 591.904 235.065 595.049 236.691C597.962 238.335 600.757 240.243 603.408 242.395C606.037 244.463 608.882 246.145 611.875 247.401C617.743 249.721 624.119 249.721 629.987 247.401C632.966 246.392 635.84 245.016 638.561 243.298C639.954 242.436 641.348 241.533 642.848 240.712C643.623 240.303 644.423 239.96 645.242 239.686C646.055 239.359 646.892 239.111 647.742 238.948C651.159 238.284 654.668 238.652 657.924 240.015C661.032 241.238 664.053 242.734 666.962 244.488C672.535 247.689 678.501 250.972 683.11 248.591C685.584 247.175 687.681 245.02 689.183 242.354C691.168 239.009 693.676 236.115 696.578 233.818C699.735 231.641 703.299 230.361 706.974 230.084C710.581 229.735 714.214 230.152 717.691 231.315C721.263 232.464 723.978 234.228 726.586 234.926C729.256 235.653 732.024 235.764 734.732 235.254C735.968 235.043 737.171 234.629 738.304 234.023C739.554 233.367 741.019 232.382 742.591 231.561C745.742 230.017 749.039 228.901 752.415 228.237C755.745 227.506 759.14 227.245 762.525 227.457C765.883 227.457 769.063 228.278 771.814 228.114C774.69 227.639 777.447 226.477 779.909 224.703C782.37 222.929 784.48 220.582 786.103 217.813C787.877 215.064 789.098 211.896 789.676 208.539C790.12 205.124 789.75 201.635 788.604 198.444C785.956 191.908 781.759 186.361 776.493 182.439C771.361 178.267 765.681 175.067 759.667 172.959H759.846Z" fill="#231F20"/>
<path d="M647.647 47.441C660.053 46.6519 669.489 36.2589 668.724 24.2274C667.958 12.1959 657.281 3.08209 644.875 3.87113C632.47 4.66017 623.034 15.0532 623.799 27.0847C624.565 39.1162 635.242 48.23 647.647 47.441Z" fill="white"/>
<path d="M624.104 25.0229C624.005 27.875 624.693 30.6994 626.092 33.1866C627.476 35.5177 629.354 37.5169 631.595 39.0431C635.807 41.9797 640.69 43.8105 645.795 44.3673C648.434 44.7963 651.132 44.684 653.726 44.0372C656.32 43.3904 658.755 42.2226 660.883 40.6049C662.998 38.8538 664.654 36.6129 665.705 34.0767C666.757 31.5405 667.174 28.7859 666.918 26.0522C666.395 20.9847 664.049 16.2798 660.315 12.8129C656.616 9.57907 651.913 7.72319 647.002 7.55974C641.997 7.43337 637.063 8.76526 632.802 11.3931C630.33 12.7596 628.24 14.7224 626.721 17.1029C625.202 19.4835 624.302 22.2061 624.104 25.0229V25.0229ZM623.394 25.0229C623.479 18.8301 625.585 12.8346 629.394 7.95018C631.565 5.37869 634.289 3.33109 637.363 1.96044C640.436 0.58979 643.78 -0.0684401 647.144 0.0349573C650.529 0.0975668 653.865 0.85083 656.948 2.24854C660.031 3.64625 662.795 5.65894 665.072 8.16314C667.338 10.6066 669.046 13.5132 670.078 16.6818C671.022 19.7956 671.288 23.0754 670.859 26.3007C669.944 32.5387 666.941 38.2821 662.339 42.5926C657.893 47.199 651.926 50.0366 645.547 50.5788C642.234 50.697 638.94 50.0407 635.926 48.6621C632.925 47.2088 630.328 45.0389 628.364 42.3441C624.814 37.2232 623.066 31.0679 623.394 24.8454V25.0229Z" fill="#231F20"/>
<path d="M395.657 180.026C396.367 191.846 397.112 203.666 397.822 215.521L424.59 214.811C424.235 201.678 423.844 188.545 423.489 175.412L395.657 180.026Z" fill="#754C29"/>
<path d="M395.799 180.134C396.225 183.293 396.722 186.381 397.041 189.362C397.361 192.344 397.822 195.29 398.106 198.165C398.766 203.88 399.11 209.627 399.136 215.379L397.787 214.173C402.26 214.173 406.733 214.563 411.171 214.528C415.608 214.492 420.117 214.279 424.554 213.924L423.738 214.776C423.205 208.21 422.637 201.643 422.353 195.077C422.069 188.51 421.643 181.944 421.679 175.377L423.809 177.117C419.336 177.791 414.827 178.252 410.212 178.785L395.799 180.134ZM395.515 179.921C399.739 178.785 404.283 177.685 408.934 176.584C413.585 175.484 418.377 174.455 423.134 173.532L425.122 173.177V175.271C425.513 181.837 425.513 188.404 425.548 195.006C425.584 201.608 425.548 208.139 425.229 214.705V215.592H424.412C419.975 215.592 415.502 215.592 411.029 215.592C406.555 215.592 402.118 216.338 397.68 216.693H396.509V215.379C395.812 209.322 395.433 203.232 395.373 197.135C395.373 194.118 395.373 191.172 395.373 188.262C395.373 185.351 395.408 182.654 395.515 179.921Z" fill="#231F20"/>
<path d="M408.508 120.681L350.748 193.408L457.251 191.74L408.508 120.681Z" fill="#006838"/>
<path d="M408.508 120.928C398.852 134.771 389.941 147.584 380.888 159.759C376.344 165.828 371.871 171.862 367.078 177.506C362.286 183.15 357.174 188.758 352.097 194.472L350.713 191.633C368.471 192.318 386.255 191.915 403.964 190.426C412.839 189.752 421.714 189.219 430.554 188.9L457.109 187.941L454.091 193.833C446.139 182.475 438.79 170.904 431.406 158.836L408.508 120.928ZM408.508 120.218L421.146 136.404C425.477 141.941 429.879 147.62 434.282 153.441C443.086 165.083 452.032 177.258 460.197 189.61L464.138 195.537H457.038H430.447C421.572 195.537 412.697 195.253 403.822 194.863C386.078 193.925 368.294 194.091 350.571 195.36L347.021 195.644L349.257 192.485C353.801 186.06 358.381 179.494 363.173 173.034C367.966 166.574 373.149 160.469 378.226 154.399C388.556 141.976 398.887 130.654 408.508 120.218Z" fill="#231F20"/>
<path d="M411.171 74.2886L361.221 137.291L453.168 135.836L411.171 74.2886Z" fill="#006838"/>
<path d="M411.17 74.5375C402.828 86.7475 395.195 97.8572 387.456 108.435C383.586 113.688 379.752 119.083 375.599 123.768C371.445 128.453 367.007 133.352 362.57 138.25L361.185 135.41C376.575 136.17 392 135.803 407.336 134.31C415.004 133.706 422.637 133.174 430.305 132.855L453.31 131.967L450.257 137.824C443.405 128.098 437.157 118.124 430.838 107.689L411.17 74.5375ZM411.17 73.8276L422.176 87.5994C425.939 92.3556 429.808 97.2184 433.678 102.223C441.382 112.268 449.121 122.845 456.292 133.6L460.233 139.528H453.132H430.128C422.46 139.528 414.791 139.173 407.123 138.782C391.751 137.793 376.327 137.912 360.972 139.137L357.422 139.492L359.659 136.298C363.564 130.689 367.469 124.939 371.622 119.296C375.776 113.652 380.285 108.364 384.722 103.11C393.846 92.6041 402.863 82.7012 411.17 73.9341V73.8276Z" fill="#231F20"/>
<path d="M412.342 62.7536L423.738 56.7905L421.537 69.462L430.767 78.4065L418.022 80.2522L412.342 91.7879L406.662 80.2522L393.953 78.4065L403.147 69.462L400.982 56.7905L412.342 62.7536Z" fill="#FFF200"/>
<path d="M412.342 62.5753L423.312 56.0089L424.803 55.0861L424.59 56.9318L423.134 69.7097L422.673 68.2899L431.512 77.6604L433.003 79.2576L430.909 79.4706L418.128 80.7839L418.519 80.4999L413.3 92.284L412.448 94.2362L411.383 92.284L405.242 80.9969L406.413 81.8842L393.704 80.1095L390.154 79.6481L392.568 77.2345L401.727 68.2189L401.23 69.7807L400.023 56.7898L399.775 54.7666L401.408 55.7604L412.342 62.5753ZM412.342 62.9303L400.52 57.6416L401.94 56.6123L404.887 69.1418L405.1 70.0291L404.39 70.7035L395.124 79.6126L394.165 76.7375L406.875 78.6897H407.762L408.082 79.3996L413.3 91.1837H411.383L417.56 79.8965V79.6481H417.809L430.447 77.3055L429.879 79.1157L420.294 70.5261L419.655 69.9227V69.1063L422.531 56.5768L423.809 57.4997L412.342 62.9303Z" fill="#231F20"/>
</g>
<defs>
<clipPath id="clip0_1645_98">
<rect width="790" height="386" fill="white"/>
</clipPath>
</defs>
</svg>
