<svg width="230" height="321" viewBox="0 0 230 321" fill="none" xmlns="http://www.w3.org/2000/svg">
<g clip-path="url(#clip0_5042_1039)">
<path d="M122.139 320.03C121.209 320.03 120.269 319.94 119.269 319.84C118.949 319.84 118.629 319.76 118.269 319.71C117.689 319.64 117.06 319.54 116.42 319.43L115.42 319.23H115.32C114.76 319.11 114.21 318.98 113.66 318.84L112.53 318.52C112.04 318.38 111.53 318.21 110.96 318.03L109.889 317.66L108.29 317.05H108.19L107.33 316.7C106.75 316.45 106.19 316.19 105.63 315.92L104.84 315.54C103.98 315.11 103.199 314.7 102.429 314.26L102.28 314.18L101.099 313.49C98.0194 314.93 95.7401 315.91 95.5701 315.98C92.8626 317.139 89.8737 317.475 86.9763 316.947C84.079 316.419 81.4013 315.049 79.2771 313.009C77.1529 310.969 75.6761 308.349 75.031 305.476C74.386 302.602 74.6017 299.602 75.6502 296.85C76.254 295.301 77.036 293.828 77.9802 292.46L77.1599 291.46L75.9197 289.9L75.4197 289.26C63.0397 294.33 59.9295 294.44 57.7195 294.52H57.1795C54.2864 294.514 51.4572 293.672 49.032 292.095C46.6068 290.517 44.6889 288.272 43.5105 285.63C42.3321 282.988 41.9435 280.061 42.3904 277.203C42.8373 274.345 44.1013 271.676 46.0301 269.52C46.3101 269.21 50.6401 264.4 56.0301 259.06L55.0301 257.19L53.5398 254.34C46.5398 253.73 44.2095 252.92 42.2195 252.03C39.7274 250.915 37.5869 249.14 36.0291 246.898C34.4712 244.655 33.5556 242.03 33.3797 239.306C33.2037 236.581 33.7745 233.86 35.031 231.436C36.2876 229.012 38.1816 226.977 40.5095 225.55C40.2395 224.87 39.9797 224.19 39.7097 223.5C37.9597 218.97 36.2797 214.35 34.7097 209.75C29.3297 209.66 24.71 209.32 24.49 209.31C21.5525 209.094 18.743 208.018 16.4129 206.217C14.0828 204.415 12.3346 201.967 11.3865 199.178C10.4384 196.39 10.3326 193.384 11.0818 190.535C11.831 187.687 13.402 185.122 15.5994 183.16C16.8594 182.04 18.6 180.52 25.7 177.53C25.51 176.68 25.3302 175.83 25.1502 174.99C16.3102 169.79 7.25931 163.15 6.01931 162.23C3.65363 160.481 1.85499 158.075 0.846461 155.311C-0.16207 152.547 -0.335746 149.548 0.347437 146.686C1.03062 143.824 2.54097 141.227 4.68923 139.216C6.8375 137.206 9.52876 135.872 12.4295 135.38C13.6421 135.177 14.87 135.08 16.0994 135.09C17.5128 135.089 18.9256 135.169 20.3299 135.33C20.3299 134.33 20.3299 133.28 20.3299 132.27C20.3299 131.65 20.3299 131.03 20.3299 130.41C14.3299 127.01 8.87002 123.41 7.99002 122.83C5.49773 121.165 3.56096 118.791 2.43045 116.015C1.29993 113.239 1.02736 110.188 1.64724 107.256C2.26712 104.323 3.7508 101.643 5.90798 99.5624C8.06517 97.4813 10.7968 96.0943 13.7498 95.5801C14.9888 95.372 16.2435 95.2716 17.4998 95.2801C20.3068 95.3174 23.1074 95.5581 25.8797 96.0001C28.4579 87.8495 31.9079 80.0007 36.1697 72.5901C35.6497 72.2001 35.1701 71.8201 34.7801 71.4401C32.5951 69.4686 31.0382 66.898 30.3035 64.0483C29.5688 61.1986 29.6889 58.1957 30.6482 55.4136C31.6076 52.6314 33.364 50.1929 35.699 48.4017C38.034 46.6106 40.8444 45.5458 43.7801 45.3401C44.0801 45.3401 50.5098 44.8801 58.0398 44.7901C59.5698 43.3301 61.1395 41.9101 62.7195 40.5501C63.8195 39.6101 64.9399 38.6801 66.0799 37.7801C65.4171 35.5424 65.2859 33.181 65.6961 30.8836C66.1063 28.5861 67.0469 26.4161 68.4431 24.5461C69.8393 22.6761 71.6519 21.1576 73.7381 20.1115C75.8242 19.0654 78.126 18.5205 80.4597 18.5201C81.3722 18.5194 82.2824 18.6031 83.1795 18.7701C85.3495 19.1701 87.6702 19.9501 91.9002 22.2301L92.3797 22.0301L94.1394 21.3201C94.1394 17.6801 94.3096 14.8901 94.3396 14.3201C94.4875 11.3819 95.4961 8.55206 97.24 6.18272C98.9839 3.81338 101.386 2.00916 104.147 0.994549C106.909 -0.0200656 109.908 -0.200285 112.771 0.47636C115.634 1.15301 118.235 2.65662 120.25 4.80009C121.81 6.45009 123.519 8.70009 126.769 16.2101C127.549 16.2101 128.41 16.1601 129.34 16.1601H129.639C135.711 16.205 141.755 16.984 147.639 18.4801C152.939 15.4801 158.039 13.0401 158.809 12.6801C161.471 11.4198 164.445 10.9707 167.36 11.3889C170.275 11.807 173.002 13.074 175.202 15.0317C177.402 16.9895 178.977 19.5514 179.73 22.3981C180.484 25.2448 180.383 28.2504 179.44 31.0401C179.052 32.1748 178.564 33.2725 177.98 34.3201C184.78 40.2835 190.554 47.324 195.07 55.1601C198.169 54.5251 201.318 54.167 204.48 54.0901C205.545 54.0873 206.607 54.1642 207.66 54.3201C210.501 54.7601 213.155 56.0072 215.307 57.913C217.46 59.8188 219.02 62.303 219.801 65.0698C220.581 67.8366 220.55 70.7695 219.712 73.5193C218.873 76.2691 217.262 78.7199 215.07 80.5801C214.85 80.7701 211.7 83.4301 207.5 86.5801C208.26 89.6601 208.94 92.8301 209.5 96.0601C210.03 98.9301 210.5 101.92 210.91 104.96C211.1 106.33 211.28 107.82 211.45 109.45C216.83 110.45 219.51 111.45 221.62 112.59C224.21 113.988 226.331 116.116 227.72 118.711C229.11 121.305 229.705 124.251 229.432 127.182C229.16 130.112 228.031 132.898 226.186 135.191C224.342 137.485 221.863 139.185 219.059 140.08C218.879 140.14 216.49 140.91 212.98 141.92C212.98 142.42 212.98 144.8 212.98 144.84C212.98 146.32 212.98 147.84 212.91 149.26C212.91 149.26 212.86 151.26 212.84 151.9C215.661 152.28 218.412 153.065 221.01 154.23C223.663 155.504 225.882 157.53 227.392 160.056C228.902 162.582 229.636 165.497 229.502 168.437C229.367 171.377 228.372 174.212 226.637 176.59C224.903 178.968 222.508 180.784 219.75 181.81C219.49 181.91 215.53 183.38 210.23 185.11C210.23 185.24 209.99 187.01 209.99 187.01C209.85 188.01 209.72 188.94 209.58 189.89L209.41 191.12C209.21 192.43 209.01 193.75 208.79 195.12C208.79 195.12 208.599 196.26 208.599 196.29C208.449 197.23 208.29 198.16 208.13 199.08L207.87 200.52C207.71 201.38 207.56 202.21 207.41 203.03C207.31 203.54 207.21 204.03 207.12 204.56C207.03 205.09 206.91 205.63 206.8 206.17C208.848 207.921 210.388 210.191 211.256 212.741C212.124 215.292 212.289 218.03 211.733 220.667C211.178 223.303 209.922 225.742 208.098 227.725C206.275 229.709 203.951 231.165 201.37 231.94L200.28 232.23C199.99 233.23 199.69 234.15 199.38 235.1C199.38 235.1 199.32 235.29 199.3 235.37C201.64 238.86 203.3 241.65 203.44 241.83C204.82 244.105 205.57 246.705 205.613 249.365C205.657 252.025 204.992 254.648 203.687 256.967C202.383 259.285 200.485 261.215 198.188 262.558C195.892 263.901 193.28 264.609 190.62 264.61H190.38C189.101 266.191 187.516 267.497 185.72 268.45C185.72 268.45 185.06 269.69 185.04 269.74L184.23 271.25L183.58 272.43C183.3 272.95 183 273.43 182.71 273.99L181.99 275.24L181.12 276.71L181.04 276.85C183.053 278.91 184.43 281.505 185.008 284.327C185.585 287.148 185.338 290.076 184.296 292.761C183.254 295.445 181.461 297.774 179.132 299.467C176.802 301.16 174.035 302.147 171.16 302.31C170.847 302.31 170.513 302.31 170.16 302.31C167.558 302.252 164.976 301.831 162.49 301.06L162.19 301.37C161.59 301.96 160.99 302.53 160.4 303.08L159.61 303.8L158.48 304.8L157.63 305.52L156.63 306.34L155.63 307.13C155.26 307.43 154.88 307.72 154.5 308.01L153.67 308.65L152.32 309.65L152.179 309.74C151.099 310.51 149.989 311.25 148.889 311.93L148.179 312.37C147.419 312.83 146.65 313.27 145.87 313.7L145.28 314.02C144.28 314.54 143.28 315.02 142.38 315.48L142.019 315.64L141.519 315.86C140.839 316.16 140.15 316.45 139.47 316.72L138.54 317.08C137.72 317.39 136.88 317.68 136.07 317.94L135.44 318.14C134.44 318.43 133.44 318.71 132.44 318.95L131.73 319.11H131.61C130.82 319.29 130.01 319.44 129.21 319.57H129.11L128.3 319.7C127.15 319.86 126.1 319.97 125.11 320.04C124.36 320.04 123.58 320.12 122.82 320.12L122.139 320.03Z" fill="#231F20"/>
<path d="M124.231 31.4003C124.231 31.4003 193.16 20.8803 197.76 125.14C202.36 229.4 160.991 302.53 124.231 305.02C87.4708 307.51 35.2302 201.53 35.3802 132.23C35.4802 65.4103 95.4608 26.7903 124.231 31.4003Z" fill="#66BE64"/>
<path d="M143.28 297.72C173.82 276.55 201.57 211.53 197.76 125.14C193.16 20.8801 124.23 31.4001 124.23 31.4001C124.23 31.4001 186.84 145.45 143.28 297.72Z" fill="#4CA84E"/>
<path d="M35.3801 132.23C35.2701 201.53 87.4606 307.52 124.231 305.02C130.531 304.6 136.96 302.09 143.28 297.72C55.0904 171.49 124.231 31.4003 124.231 31.4003C95.4606 26.7903 35.4801 65.4103 35.3801 132.23Z" fill="#4CA84E"/>
<g style="mix-blend-mode:multiply">
<path d="M198.07 135.751V134.121C198.07 133.121 198.07 132.121 198 131.061C198 130.581 198 130.111 198 129.641C197.95 128.141 197.9 126.641 197.83 125.141C197.65 120.951 197.35 116.971 196.96 113.141C154.76 221.981 48.5905 203.141 48.4805 203.141L48.5996 203.541C50.2263 208.421 51.967 213.254 53.8203 218.041C58.7296 230.783 64.5098 243.172 71.1201 255.121C87.2401 284.001 106.28 304.711 122.56 305.121C123.15 305.121 123.72 305.121 124.3 305.121C125.01 305.121 125.71 304.991 126.42 304.891L127.03 304.801C127.58 304.711 128.13 304.611 128.68 304.491L129.22 304.371C129.93 304.201 130.64 304.011 131.36 303.801L131.69 303.691C132.3 303.491 132.91 303.281 133.53 303.051L134.12 302.821C134.73 302.581 135.33 302.331 135.94 302.051L136.29 301.901C137.02 301.561 137.74 301.201 138.46 300.811L138.9 300.571L140.67 299.571L141.2 299.241C142.09 298.691 142.97 298.101 143.86 297.471C144.22 297.221 144.57 296.961 144.93 296.691C145.29 296.421 145.39 296.351 145.61 296.171L146.52 295.471L147.23 294.891L148.11 294.151L148.81 293.551L149.81 292.701L150.43 292.141C150.92 291.681 151.43 291.211 151.91 290.721L152.46 290.171C152.8 289.841 153.13 289.501 153.46 289.171L154.12 288.471C154.42 288.161 154.71 287.841 155 287.531L155.68 286.771C155.973 286.451 156.263 286.117 156.55 285.771L157.21 285.011C157.53 284.641 157.84 284.251 158.21 283.871C158.58 283.491 158.58 283.431 158.76 283.201C159.24 282.611 159.76 282.001 160.19 281.391L160.73 280.681L161.67 279.431L162.3 278.561L163.14 277.381L163.77 276.471C164.06 276.061 164.34 275.651 164.62 275.231C164.9 274.811 165.02 274.641 165.22 274.331C165.54 273.841 165.87 273.331 166.22 272.831C166.37 272.601 166.52 272.371 166.66 272.141C167.12 271.421 167.57 270.691 168.02 269.951L168.53 269.081L169.4 267.611C169.59 267.271 169.78 266.931 169.98 266.611C170.18 266.291 170.51 265.671 170.77 265.191C171.03 264.711 171.16 264.501 171.35 264.191C171.54 263.881 171.88 263.191 172.15 262.691C172.33 262.361 172.51 262.031 172.68 261.691L173.68 259.761C173.78 259.551 173.89 259.341 174 259.131C174.42 258.291 174.83 257.431 175.24 256.571C175.4 256.251 175.55 255.911 175.71 255.571C175.98 255.011 176.24 254.441 176.5 253.871C176.68 253.491 176.85 253.111 177.02 252.731C177.27 252.181 177.51 251.621 177.75 251.071L178.26 249.911L179.01 248.121L179.46 247.061C179.8 246.211 180.15 245.351 180.46 244.491L180.73 243.811C181.06 242.961 181.38 242.111 181.73 241.251L182.13 240.141C182.37 239.501 182.61 238.851 182.84 238.201L183.28 236.971L183.94 235.061L184.36 233.811C184.59 233.121 184.82 232.421 185.04 231.731L185.4 230.631C185.73 229.631 186.06 228.531 186.4 227.461C186.47 227.241 186.53 227.021 186.6 226.801C186.86 225.931 187.12 225.051 187.37 224.171C187.49 223.761 187.6 223.351 187.72 222.941C187.92 222.231 188.12 221.521 188.31 220.801L188.67 219.451C188.86 218.751 189.05 218.031 189.23 217.321C189.34 216.881 189.46 216.441 189.57 216.001C189.77 215.201 189.96 214.401 190.15 213.591L190.42 212.511C190.69 211.351 190.96 210.191 191.22 209.021L191.4 208.161C191.6 207.251 191.8 206.341 191.99 205.431L192.26 204.101C192.42 203.321 192.57 202.541 192.72 201.751C192.82 201.281 192.91 200.801 193 200.321C193.15 199.541 193.29 198.751 193.43 197.951C193.52 197.491 193.6 197.041 193.68 196.581C193.84 195.651 194 194.721 194.15 193.791C194.21 193.461 194.26 193.141 194.32 192.791C194.52 191.531 194.71 190.271 194.9 189.001L195.05 188.001C195.18 187.051 195.32 186.101 195.45 185.141L195.63 183.711C195.74 182.881 195.85 182.041 195.95 181.191C196.01 180.681 196.08 180.191 196.13 179.671C196.23 178.811 196.33 177.951 196.42 177.091C196.48 176.611 196.53 176.141 196.58 175.661C196.69 174.601 196.79 173.541 196.89 172.481C196.89 172.191 196.95 171.911 196.97 171.631C197.09 170.281 197.21 168.931 197.31 167.631L197.4 166.421L197.61 163.491L197.7 161.951C197.76 161.061 197.81 160.161 197.86 159.261C197.86 158.731 197.91 158.201 197.94 157.671L198.06 154.861L198.12 153.421C198.12 152.181 198.2 150.941 198.23 149.691C198.23 149.501 198.23 149.321 198.23 149.141C198.23 147.711 198.29 146.281 198.3 144.841C198.3 144.391 198.3 143.941 198.3 143.491C198.3 142.491 198.3 141.491 198.3 140.491C198.3 139.951 198.3 139.411 198.3 138.871L198.07 135.751Z" fill="#4CA84E"/>
</g>
<path d="M185.389 164.41C185.389 164.41 210.27 165.61 214.63 167.7C214.63 167.7 191.8 176.19 183.15 176.07C183.15 176.03 180.899 170.97 185.389 164.41Z" fill="#FAF28C"/>
<path d="M167.75 182.75C167.75 182.75 189.4 191.3 192.66 194.45C192.66 194.45 171.72 195.45 164.12 192.76C164.09 192.76 161.91 187.14 167.75 182.75Z" fill="#FAF28C"/>
<path d="M167.093 94.5924C173.037 93.7084 176.734 85.4546 175.351 76.157C173.968 66.8594 168.029 60.0388 162.085 60.9228C156.142 61.8068 152.445 70.0607 153.828 79.3583C155.211 88.6559 161.15 95.4764 167.093 94.5924Z" fill="white"/>
<path d="M149.75 91.7204C149.75 91.7204 172.089 85.1603 176.589 85.6403C176.589 85.6403 160.71 99.3204 153.04 101.85C153 101.85 147.83 98.7504 149.75 91.7204Z" fill="#FAF28C"/>
<path d="M68.5303 240.03C68.5303 240.03 51.4302 239.64 48.4102 238.28C48.4102 238.28 63.9204 232.06 69.8604 232C69.8604 232.03 72.2503 237.4 68.5303 240.03Z" fill="#FAF28C"/>
<path d="M79.9004 196.22C79.9004 196.22 62.8103 195.82 59.7803 194.47C59.7803 194.47 75.2905 188.24 81.2305 188.18C81.2305 188.18 84.2504 193.61 79.9004 196.22Z" fill="#FAF28C"/>
<path d="M173.59 238.839C173.59 238.839 187.49 248.779 190.73 249.509C190.73 249.509 182.05 235.229 177.34 231.609C177.34 231.609 171.05 233.249 173.59 238.839Z" fill="#FAF28C"/>
<path d="M120.14 179.75L107.8 180.49C107.8 180.49 113.33 186.49 119.56 188.69C119.56 188.69 124.96 185.44 120.14 179.75Z" fill="#FAF28C"/>
<path d="M80.25 153.961L67.9199 154.701C67.9199 154.701 73.4399 160.701 79.6699 162.901C79.6699 162.901 85.07 159.651 80.25 153.961Z" fill="#FAF28C"/>
<path d="M158.64 254.23C158.64 254.23 175.64 256.05 178.82 255.09C178.82 255.09 164.23 246.92 158.36 246.09C158.36 246.09 156.29 249.31 158.64 254.23Z" fill="#FAF28C"/>
<path d="M67.8496 98.6699C67.8496 98.6699 54.1996 100.14 51.8496 101.43C51.8496 101.43 64.6804 105.36 69.4404 105.01C69.4504 105.03 72.7496 99.4999 67.8496 98.6699Z" fill="#FAF28C"/>
<path d="M154.81 282.791C154.81 282.791 167.81 287.381 170.42 287.231C170.42 287.231 160.56 278.141 156.12 276.391C156.12 276.391 150.8 279.951 154.81 282.791Z" fill="#FAF28C"/>
<path d="M44.3096 186.52C44.3096 186.52 28.1399 192.07 25.6699 194.28C25.6699 194.28 42.3398 195.51 48.0098 193.78C48.0098 193.78 50.1796 186.52 44.3096 186.52Z" fill="#FAF28C"/>
<path d="M162.48 56.9708C165.219 56.9708 167.44 54.7501 167.44 52.0108C167.44 49.2714 165.219 47.0508 162.48 47.0508C159.741 47.0508 157.52 49.2714 157.52 52.0108C157.52 54.7501 159.741 56.9708 162.48 56.9708Z" fill="white"/>
<path d="M84.6699 268.821C84.6699 268.821 62.0702 279.301 57.2402 279.481C57.2402 279.481 73.5202 261.361 81.2402 257.481C81.2402 257.461 85.5899 260.931 84.6699 268.821Z" fill="#FAF28C"/>
<path d="M39.5098 113.481C39.5098 113.481 20.1996 109.621 16.3896 110.291C16.3896 110.291 31.9303 120.671 38.5703 122.221C38.5703 122.221 41.4498 119.031 39.5098 113.481Z" fill="#FAF28C"/>
<path d="M44.0098 155.03C44.0098 155.03 19.7598 149.3 15.0098 150.11C15.0098 150.11 34.6002 164.58 42.9502 166.85C42.9402 166.84 46.5098 162.56 44.0098 155.03Z" fill="#FAF28C"/>
<path d="M185.58 121.08C185.58 121.08 210.38 123.45 214.58 125.75C214.58 125.75 191.38 133.15 182.74 132.62C182.75 132.62 180.75 127.43 185.58 121.08Z" fill="#FAF28C"/>
<path d="M72.0098 71.6806C72.0098 71.6806 48.4804 63.4706 44.9004 60.2306C44.9004 60.2306 69.2 58.5606 77.46 61.1306C77.46 61.1306 78.1698 66.6606 72.0098 71.6806Z" fill="#FAF28C"/>
<path d="M154.17 147.66C154.17 147.66 174.92 153.93 178.17 156.66C178.17 156.66 159.561 159.77 152.281 157.84C151.36 156.189 151.044 154.268 151.389 152.409C151.734 150.551 152.718 148.871 154.17 147.66Z" fill="#FAF28C"/>
<path d="M180.27 73.6895C180.27 73.6895 201.27 68.4395 205.45 69.0795C205.45 69.0795 191.07 81.2895 183.83 83.3695C182.205 82.4209 180.96 80.9358 180.311 79.1693C179.661 77.4029 179.646 75.4653 180.27 73.6895Z" fill="#FAF28C"/>
<path d="M98.1104 43.4297C98.1104 43.4297 83.8098 34.0497 80.5498 33.4297C80.5498 33.4297 89.7896 47.3597 94.6396 50.7797C94.6396 50.7997 97.9404 48.8797 98.1104 43.4297Z" fill="#FAF28C"/>
<path d="M102.75 286.689C102.75 286.689 90.93 299.049 89.75 302.149C89.75 302.149 105.12 295.58 109.37 291.43C109.34 291.43 108.05 287.829 102.75 286.689Z" fill="#FAF28C"/>
<path d="M117.62 33.45C117.62 33.45 111.68 17.45 109.41 15C109.41 15 108.58 31.7 110.41 37.33C110.46 37.33 114.26 37.75 117.62 33.45Z" fill="#FAF28C"/>
<path d="M176.969 216.621C176.969 216.621 193.97 218.431 197.15 217.471C197.15 217.471 182.57 209.301 176.69 208.471C176.69 208.471 174.629 211.691 176.969 216.621Z" fill="#FAF28C"/>
<path d="M126.13 145.359C126.13 145.359 136.27 142.279 137.96 141.779C137.96 141.779 131.2 137.239 124.62 136.529C124.62 136.529 120.12 140.949 126.13 145.359Z" fill="#FAF28C"/>
<path d="M99.5801 64.7902L87.5801 61.9102C87.5801 61.9102 91.1204 69.2401 96.4404 73.1801C96.4204 73.1801 101.8 71.6302 99.5801 64.7902Z" fill="#FAF28C"/>
<path d="M128.43 225.89C128.43 225.89 145.431 227.71 148.611 226.75C148.611 226.75 134.02 218.58 128.14 217.75C128.14 217.75 126.08 220.97 128.43 225.89Z" fill="#FAF28C"/>
<path d="M127.55 69.6707C127.55 69.6707 142.04 60.6006 143.95 57.8906C143.95 57.8906 127.44 60.4606 122.3 63.4406C122.3 63.4406 122.66 67.2407 127.55 69.6707Z" fill="#FAF28C"/>
<path d="M152.93 42.1199C152.93 42.1199 164.26 29.3199 165.32 26.1699C165.32 26.1699 150.21 33.3299 146.13 37.6399C146.13 37.6399 147.56 41.1899 152.93 42.1199Z" fill="#FAF28C"/>
<path d="M88.9199 216.029C88.9199 216.029 75.2599 217.499 72.9199 218.789C72.9199 218.789 85.74 222.719 90.5 222.369C90.51 222.369 93.7499 216.859 88.9199 216.029Z" fill="#FAF28C"/>
<path d="M112.37 116.869C112.37 116.869 100.54 109.869 97.9004 109.529C97.9004 109.529 105.84 120.339 109.9 122.899C109.87 122.899 115.75 120.419 112.37 116.869Z" fill="#FAF28C"/>
<path d="M101.63 264.6C101.63 264.6 95.3699 276.82 95.1699 279.48C95.1699 279.48 105.49 270.91 107.8 266.74C107.8 266.74 104.98 261.03 101.63 264.6Z" fill="#FAF28C"/>
</g>
<defs>
<clipPath id="clip0_5042_1039">
<rect width="229.64" height="320.07" fill="white"/>
</clipPath>
</defs>
</svg>
