<svg width="384" height="581" viewBox="0 0 384 581" fill="none" xmlns="http://www.w3.org/2000/svg">
<g clip-path="url(#clip0_3768_667)">
<path d="M54.5195 269.85C66.1495 235.72 129.62 182.25 204.42 182.58C264.66 182.84 320.17 217.9 348.67 273.14L54.5195 269.85Z" fill="#603914"/>
<path d="M3.77954 248.35C36.6395 176.86 158.92 177.58 195.13 177.78C242.68 178.04 340.07 178.57 373.61 241.57C388.23 269 380.21 313.4 364.15 402.12C351.64 471.31 344.92 506.43 323.39 529.85C286.05 570.43 232.1 572.27 195.89 573.52C158.73 574.83 96.1895 576.94 56.6695 533.52C46.6695 522.67 38.6695 509.31 17.8395 392.7C-4.22046 269.33 -0.0604572 256.63 3.77954 248.35Z" fill="#8A6FAF"/>
<path d="M3.18002 248.02C9.00724 235.613 17.5516 224.676 28.18 216.02C38.45 207.21 50.39 200.83 62.54 195.3C87.05 184.65 113.25 179.06 139.45 175.7C165.65 172.34 192.22 171.89 218.54 172.35C231.815 172.501 245.071 173.379 258.25 174.98C271.572 176.437 284.748 179.01 297.64 182.67C310.77 186.218 323.382 191.458 335.16 198.26C346.98 205.17 358.25 213.78 366.71 225.16C368.98 227.882 370.989 230.811 372.71 233.91C374.51 237 376.5 239.83 377.81 243.31C380.563 249.988 382.306 257.038 382.98 264.23C384.41 278.44 383.22 292.44 381.73 306.23C378.43 333.85 373.51 361.08 368.91 388.37C363.91 415.6 360.19 443.03 354.16 470.19C351.11 483.81 347.5 497.42 341.53 510.44C338.516 516.947 334.829 523.121 330.53 528.86C328.336 531.675 325.965 534.347 323.43 536.86C321.043 539.437 318.487 541.852 315.78 544.09C294.57 562.57 267.78 572.31 241.29 576.25C228.115 578.204 214.841 579.413 201.53 579.87C188.4 580.46 175.2 581.05 161.83 580.73C135.19 580.07 107.63 575.66 82.83 562.31C70.313 555.439 59.1349 546.371 49.83 535.54C44.83 529.54 41.61 522.32 39.12 515.61C36.7146 508.911 34.6815 502.084 33.03 495.16C26.18 467.93 21.76 440.57 17.47 413.21C13.18 385.85 9.25002 358.42 5.89002 330.87C4.28002 317.12 2.47003 303.37 1.35003 289.49C0.600031 282.59 0.0400202 275.68 -0.0199798 268.71C-0.0799798 261.74 0.0600173 254.46 3.18002 248.02ZM4.30003 248.61C1.43003 254.73 1.43003 261.83 1.49003 268.61C1.55003 275.39 2.18003 282.35 2.99003 289.26C4.67003 302.94 6.60002 316.68 9.09002 330.26C13.94 357.43 19.48 384.52 25.33 411.55C31.18 438.58 37.15 465.49 44.33 491.73C46.2 498.24 48.19 504.73 50.55 510.73C52.91 516.73 55.55 522.37 59.27 526.73C67.6115 536.107 77.5569 543.922 88.64 549.81C110.79 561.81 136.44 565.93 161.94 566.98C174.76 567.57 187.77 567.18 200.84 566.78C213.743 566.57 226.624 565.625 239.42 563.95C264.68 560.47 289.52 552.25 309.42 535.87C311.957 533.896 314.346 531.74 316.57 529.42C318.936 527.249 321.142 524.909 323.17 522.42C327.294 517.432 330.852 512.002 333.78 506.23C339.78 494.53 343.87 481.51 347.34 468.29C354.07 441.78 359.34 414.55 364.4 387.39C369.46 360.23 374.72 333.06 377.53 305.63C378.77 291.95 379.53 278.14 377.72 264.79C376.856 258.249 374.987 251.881 372.18 245.91C370.93 242.91 368.88 240.32 367.18 237.56C365.48 234.8 363.69 232.04 361.33 229.74C353.11 219.61 342.33 212.11 331.02 206.19C325.43 203.03 319.39 200.86 313.47 198.43C307.31 196.52 301.28 194.43 294.99 193.04C270.02 186.7 244.13 184.7 218.18 183.7C192.11 183.04 166.03 182.05 140.08 183.7C114.13 185.35 88.18 189.29 63.6 198.3C51.1937 202.779 39.5635 209.17 29.13 217.24C18.6678 225.764 10.1936 236.47 4.30003 248.61Z" fill="black"/>
<path d="M5.02923 242.56C5.77923 203.89 116.359 168.7 208.399 171.4C281.449 173.5 378.339 200.53 380.149 236.77C381.959 273.01 288.489 315.3 205.659 319.58C110.629 324.38 4.28923 280.7 5.02923 242.56Z" fill="#8A6FAF"/>
<path d="M3.11045 242.5C3.29588 237.728 4.80553 233.102 7.47045 229.14C9.96293 225.268 12.9932 221.769 16.4704 218.75C23.1204 212.5 30.8404 207.75 38.5604 203.16C54.1804 194.22 70.8604 187.64 87.7804 181.99C121.705 170.881 157.215 165.379 192.91 165.7C228.63 166.3 263.61 173.07 297.77 182.34C314.82 187.08 331.77 192.67 347.87 200.56C355.87 204.56 363.73 209.24 370.77 215.62C374.429 218.931 377.428 222.904 379.61 227.33C381.915 232.208 382.615 237.69 381.61 242.99C379.43 253.64 372.83 261.4 366.24 267.99C359.507 274.389 352.096 280.035 344.14 284.83C328.672 294.206 312.246 301.9 295.14 307.78C261.28 319.62 225.75 326.86 189.79 326.78C153.94 326.45 118.28 320.26 84.7904 307.5C68.0504 301.19 51.6904 293.69 36.5004 283.83C29.0304 278.83 21.5604 273.57 15.2804 266.93C12.0329 263.657 9.21072 259.988 6.88045 256.01C4.34522 251.965 3.03579 247.273 3.11045 242.5ZM4.36045 242.56C4.43045 251.7 10.2804 259.56 16.5604 265.65C23.052 271.656 30.3365 276.743 38.2104 280.77C53.7704 288.99 70.3204 294.85 87.2104 299.32C120.94 307.94 155.42 313.07 189.84 312.8C224.405 312.434 258.712 306.803 291.58 296.1C308.01 290.64 324.25 284.26 339.43 275.84C346.966 271.665 354.111 266.822 360.78 261.37C367.19 255.85 373.1 249.2 375.09 241.57C377.08 233.94 373.16 225.99 367.19 219.87C361.22 213.75 353.78 208.75 346.06 204.7C330.57 196.48 313.76 190.88 296.84 186.61C279.851 182.439 262.562 179.603 245.13 178.13C227.819 176.476 210.416 175.998 193.04 176.7C158.323 178.081 123.795 182.528 89.8604 189.99C72.8604 193.87 56.0104 198.87 40.0804 206.24C32.0006 209.826 24.445 214.492 17.6204 220.11C10.9504 225.79 4.78045 233.35 4.36045 242.56Z" fill="black"/>
<path d="M44.6806 240.98C45.2406 213.49 129.621 188.43 199.821 190.34C255.581 191.85 329.441 211.06 330.821 236.84C332.201 262.62 260.931 292.7 197.701 295.77C125.271 299.25 44.1206 268.14 44.6806 240.98Z" fill="black" stroke="black" stroke-width="2.85" stroke-miterlimit="10"/>
<path d="M345.499 20.78C349.049 104.9 325.839 144.78 307.109 164.95C302.189 170.28 297.839 173.95 253.839 209.67L188.619 262.67C188.79 242.677 190.872 222.746 194.839 203.15C201.189 172.15 206.919 143.15 227.019 118.57C244.019 97.7201 255.509 99.43 288.559 75.03C309.684 59.3401 328.806 41.121 345.499 20.78Z" fill="#8A6FAF"/>
<path d="M345.501 20.7C347.251 47.01 346.191 73.18 340.711 98.84C335.231 124.29 324.531 149.35 306.231 167.63C296.891 176.44 286.881 183.94 277.111 191.97L247.611 215.58C227.881 231.23 208.611 247.58 189.121 263.46L187.741 264.58V262.7C187.561 236.59 191.351 210.48 197.081 185.23C199.821 172.53 203.081 159.84 207.971 147.67C212.772 135.567 219.615 124.378 228.201 114.59C236.601 104.53 248.041 98.1499 258.871 92.2899C269.784 86.2912 280.284 79.5695 290.301 72.1699C310.529 57.0849 329.039 39.8249 345.501 20.7ZM345.431 21.0299C329.827 40.963 311.74 58.8209 291.611 74.1699C281.669 81.8578 271.208 88.8479 260.301 95.09C249.411 101.27 238.591 107.19 230.561 116.92C222.291 126.26 215.871 137.38 210.961 149.08C206.051 160.78 202.811 173.35 199.961 185.98C197.111 198.61 194.351 211.24 192.551 224.06C190.707 236.896 189.669 249.834 189.441 262.8L188.071 262.08C207.671 246.23 227.521 230.77 246.881 214.66L276.001 190.52C285.591 182.36 295.601 174.6 304.561 165.92C321.861 147.64 332.751 123.5 338.561 98.4399C344.441 73.0699 345.561 46.7 345.431 20.98V21.0299Z" fill="black"/>
<path d="M345.499 20.78C321.599 63.2 295.039 107.2 265.659 152.13C239.779 191.7 213.949 228.48 188.619 262.7C206.039 249.02 230.619 229.36 259.749 204.89C306.669 165.5 313.639 157.01 318.059 151.09C331.369 132.85 352.279 94.18 345.499 20.78Z" fill="#7558A1"/>
<path d="M345.431 20.98C334.431 42.16 322.161 63.2 309.901 83.86C297.641 104.52 285.011 125.16 271.761 145.22C258.511 165.28 244.881 185.08 231.061 204.7C217.061 224.16 203.421 243.96 189.241 263.23L188.121 262.05L246.491 213.77C266.031 197.86 285.201 181.28 303.741 164.18C308.384 159.975 312.654 155.374 316.501 150.43C320.262 145.346 323.654 139.999 326.651 134.43C332.641 123.061 337.215 111.001 340.271 98.5199C346.491 73.2699 346.861 46.63 345.431 20.98ZM345.501 20.6499C348.501 46.8899 348.231 73.27 342.451 98.98C336.601 124.3 325.331 149.49 305.861 166.73C287.311 184.16 267.861 200.33 248.241 216.12L189.061 263.34L184.141 267.22L187.931 262.16C202.251 242.95 216.551 223.75 230.001 203.82C243.451 183.89 256.691 163.9 269.581 143.57C282.471 123.24 295.461 103.06 308.091 82.5699L345.501 20.6499Z" fill="black"/>
<path d="M64.9698 0.130127C50.4698 82.9401 68.2098 125.82 84.1398 148.51C88.3098 154.51 92.1398 158.77 131 200.6C154.59 225.99 174.31 247.23 188.62 262.6C191.075 242.731 191.617 222.673 190.24 202.7C188 171.07 186.19 141.47 169.45 114.24C155.33 91.1601 143.76 91.1601 114.19 62.0901C95.3317 43.5088 78.8036 22.7027 64.9698 0.130127Z" fill="#8A6FAF"/>
<path d="M64.9701 0.329956C61.4901 25.78 59.1201 52.09 61.5501 77.87C63.9801 103.65 71.6301 129.11 86.4401 149.69C94.1601 159.62 103.06 168.83 111.52 178.24L137.22 206.39C154.33 225.2 171.94 243.39 189.22 261.96L187.78 262.49C189.285 249.617 189.953 236.66 189.78 223.7C189.71 210.7 188.46 197.86 187.4 184.9C186.34 171.94 184.61 159.18 181.31 146.75C178.01 134.32 173.1 122.48 166.13 112.03C159.47 101.24 149.51 93.7399 139.55 86.0299C129.579 78.237 120.151 69.7742 111.33 60.7C93.3853 42.6187 77.8075 22.3333 64.9701 0.329956ZM64.9101 0C78.7271 21.3639 94.792 41.1869 112.83 59.13C121.743 67.954 131.245 76.1628 141.27 83.7C151.27 91.07 161.74 99.0899 168.71 110.27C175.881 121.221 181.18 133.289 184.39 145.98C187.62 158.68 189.18 171.77 190.3 184.72C192.67 210.57 193.04 237.01 189.43 262.79L189.18 264.63L188 263.32C170.77 244.64 153.83 225.7 136.35 207.32L110.21 179.63C101.56 170.29 92.6601 161.34 84.5801 151.28C68.8301 130.5 61.4901 104.12 59.4301 78.1399C57.3801 51.8899 59.7801 25.78 64.9101 0Z" fill="black"/>
<path d="M64.9705 0.130127C83.0805 45.6401 103.62 93.0601 126.83 141.93C147.24 184.93 168.02 225.13 188.62 262.69C173.19 246.57 151.34 223.49 125.77 195.01C84.4505 149.1 78.6605 139.7 75.1105 133.18C64.2205 113.19 48.6005 71.8201 64.9705 0.130127Z" fill="#7558A1"/>
<path d="M64.9603 0L93.9003 66.8199C103.67 88.9899 113.9 110.89 124.03 132.82C134.16 154.75 144.5 176.63 155.33 198.27C165.97 219.97 177.6 241.08 189.33 262.19L192.44 267.78L188.09 263.18L135.69 207.74C118.26 189.19 101.15 170.31 85.1003 150.32C68.1003 130.46 60.2703 103.89 57.7803 77.9099C55.3203 51.6999 58.5003 25.52 64.9603 0ZM64.9603 0.329956C60.1703 25.58 57.0603 51.96 59.9603 77.74C61.3227 90.5716 64.2719 103.185 68.7403 115.29C70.9557 121.279 73.5923 127.103 76.6303 132.72C79.6303 138.25 83.5403 143.25 87.4603 148.25C103.6 167.883 120.354 187.033 137.72 205.7L189.17 262.06L187.93 263.06C176.42 241.88 165.47 220.31 154.14 198.93C143.07 177.49 132.14 155.93 121.65 134.08C111.16 112.23 101.44 90.02 91.9703 67.72C82.5003 45.42 73.1203 22.89 64.9603 0.329956Z" fill="black"/>
<path d="M136.93 424.1C151.803 424.1 163.86 412.043 163.86 397.17C163.86 382.297 151.803 370.24 136.93 370.24C122.057 370.24 110 382.297 110 397.17C110 412.043 122.057 424.1 136.93 424.1Z" fill="#F7F8E2"/>
<path d="M163.86 397.17C164.136 400.741 163.652 404.33 162.44 407.7C161.189 411.136 159.249 414.28 156.74 416.94C154.195 419.619 151.133 421.756 147.74 423.22C144.32 424.671 140.645 425.429 136.93 425.45C133.215 425.425 129.542 424.667 126.12 423.22C122.724 421.756 119.662 419.615 117.12 416.93C114.611 414.27 112.671 411.126 111.42 407.69C110.202 404.311 109.718 400.711 110 397.13C110.525 404.083 113.607 410.595 118.65 415.41C123.593 420.078 130.131 422.685 136.93 422.7C143.724 422.694 150.259 420.093 155.2 415.43C160.242 410.621 163.327 404.117 163.86 397.17Z" fill="#231F20"/>
<path d="M163.86 397.17C163.327 390.217 160.243 383.706 155.2 378.89C150.255 374.234 143.722 371.637 136.93 371.63C130.134 371.633 123.596 374.23 118.65 378.89C113.604 383.703 110.522 390.216 110 397.17C109.718 393.586 110.202 389.983 111.42 386.6C112.671 383.164 114.611 380.02 117.12 377.36C119.665 374.681 122.727 372.544 126.12 371.08C129.54 369.629 133.214 368.871 136.93 368.85C140.659 368.865 144.347 369.623 147.78 371.08C151.173 372.544 154.234 374.681 156.78 377.36C159.289 380.02 161.228 383.164 162.48 386.6C163.684 389.986 164.154 393.589 163.86 397.17Z" fill="#231F20"/>
<path d="M136.93 425.42C146.689 425.42 154.6 417.509 154.6 407.75C154.6 397.991 146.689 390.08 136.93 390.08C127.171 390.08 119.26 397.991 119.26 407.75C119.26 417.509 127.171 425.42 136.93 425.42Z" fill="#06080A"/>
<path d="M242.241 424.1C257.114 424.1 269.171 412.043 269.171 397.17C269.171 382.297 257.114 370.24 242.241 370.24C227.368 370.24 215.311 382.297 215.311 397.17C215.311 412.043 227.368 424.1 242.241 424.1Z" fill="#F7F8E2"/>
<path d="M269.17 397.17C269.46 400.739 268.986 404.329 267.78 407.7C266.536 411.14 264.596 414.285 262.08 416.94C259.538 419.624 256.476 421.761 253.08 423.22C249.66 424.673 245.985 425.431 242.27 425.45C238.558 425.425 234.888 424.667 231.47 423.22C228.071 421.762 225.007 419.621 222.47 416.93C219.959 414.277 218.021 411.135 216.78 407.7C215.558 404.322 215.071 400.722 215.35 397.14C215.882 404.093 218.967 410.604 224.01 415.42C228.941 420.074 235.459 422.677 242.24 422.7C249.037 422.696 255.576 420.095 260.52 415.43C265.559 410.62 268.64 404.116 269.17 397.17Z" fill="#231F20"/>
<path d="M269.169 397.17C268.64 390.218 265.56 383.707 260.519 378.89C255.572 374.232 249.034 371.636 242.239 371.63C235.446 371.632 228.911 374.229 223.969 378.89C218.925 383.705 215.84 390.216 215.309 397.17C215.044 393.582 215.545 389.979 216.779 386.6C218.023 383.16 219.963 380.015 222.479 377.36C225.021 374.676 228.083 372.539 231.479 371.08C234.896 369.628 238.567 368.87 242.279 368.85C245.995 368.869 249.67 369.627 253.089 371.08C256.485 372.539 259.548 374.676 262.089 377.36C264.602 380.016 266.539 383.161 267.779 386.6C268.991 389.984 269.465 393.588 269.169 397.17Z" fill="#231F20"/>
<path d="M242.24 425.42C251.999 425.42 259.91 417.509 259.91 407.75C259.91 397.991 251.999 390.08 242.24 390.08C232.481 390.08 224.57 397.991 224.57 407.75C224.57 417.509 232.481 425.42 242.24 425.42Z" fill="#06080A"/>
<path d="M265.31 367.98C265.31 367.98 243.47 377.15 228.4 359.7" stroke="#231F20" stroke-width="3.96" stroke-miterlimit="10" stroke-linecap="round"/>
<path d="M113.869 367.98C113.869 367.98 135.699 377.15 150.779 359.7" stroke="#231F20" stroke-width="3.96" stroke-miterlimit="10" stroke-linecap="round"/>
<path d="M167.929 454.49C167.929 454.49 166.569 427.7 189.509 427.7C212.449 427.7 209.159 454.5 209.159 454.5C209.159 454.5 199.909 447.81 189.159 447.81C178.409 447.81 167.929 454.49 167.929 454.49Z" fill="#231F20"/>
</g>
<defs>
<clipPath id="clip0_3768_667">
<rect width="383.61" height="580.78" fill="white"/>
</clipPath>
</defs>
</svg>
