<svg width="921" height="379" viewBox="0 0 921 379" fill="none" xmlns="http://www.w3.org/2000/svg">
<g clip-path="url(#clip0_4861_615)">
<g clip-path="url(#clip1_4861_615)">
<path d="M832.231 317.864C827.161 308.467 818.34 298.446 808.728 288.011C799.889 298.386 776.153 318.577 727.53 314.148C730.712 326.776 734.619 338.984 738.437 349.934C758.919 351.744 806.313 351.75 832.231 317.864Z" fill="white"/>
<path d="M787.071 264.021C778.239 253.478 770.742 242.72 767.23 231.945C752.027 226.868 742.775 220.791 737.154 215.421C725.139 228.169 720.675 245.825 720.603 265.165C734.967 268.851 763.982 274.125 787.071 264.021Z" fill="white"/>
<path d="M767.23 231.945C766.118 228.604 765.43 225.136 765.181 221.624C763.024 187.786 740.096 212.52 740.096 212.52C739.072 213.455 738.101 214.426 737.166 215.421C742.775 220.791 752.027 226.868 767.23 231.945Z" fill="#7A7176"/>
<path d="M808.728 288.011C801.537 280.22 793.909 272.183 787.071 264.038C764 274.143 734.937 268.869 720.603 265.153C720.543 280.981 723.437 297.918 727.53 314.166C776.153 318.553 799.889 298.386 808.728 288.011Z" fill="#7A7176"/>
<path d="M841.525 381.644C847.691 357.671 839.589 331.762 832.44 318.265L832.231 317.882C806.313 351.768 758.919 351.762 738.437 349.952C742.23 360.842 745.939 370.497 748.75 378.072C751.596 385.75 752.459 391.779 752.021 396.526C798.265 408.788 826.795 394.092 841.525 381.644Z" fill="#7A7176"/>
<path d="M770.958 432.587C777.473 431.472 783.909 429.932 790.223 427.979C796.512 426.047 802.599 423.51 808.399 420.403C814.159 417.32 819.468 413.46 824.177 408.932C828.824 404.413 832.66 399.13 835.52 393.314C836.944 390.42 838.125 387.413 839.05 384.324C839.29 383.557 839.5 382.777 839.697 381.998C839.895 381.219 840.063 380.428 840.231 379.637L840.716 377.27C840.896 376.484 840.956 375.675 841.082 374.872C841.947 368.459 842.026 361.964 841.315 355.532C840.636 349.078 839.325 342.707 837.402 336.509C835.549 330.319 833.063 324.336 829.984 318.655C826.849 313.123 822.846 307.963 818.652 302.965C814.457 297.966 809.963 293.136 805.468 288.311C800.974 283.487 796.396 278.668 791.925 273.729C787.455 268.791 783.068 263.739 778.988 258.381C774.803 253.017 771.128 247.274 768.009 241.228C766.457 238.122 765.161 234.895 764.132 231.579C763.621 229.893 763.205 228.18 762.886 226.448C762.724 225.579 762.592 224.698 762.484 223.811C762.436 223.374 762.388 222.925 762.352 222.481L762.298 221.816L762.251 221.216L762.035 218.861L761.705 216.554C761.573 215.799 761.406 215.055 761.256 214.312C761.106 213.569 760.872 212.874 760.657 212.185C760.238 210.904 759.632 209.692 758.859 208.589C758.275 207.733 757.41 207.11 756.414 206.827C755.314 206.588 754.17 206.648 753.1 207C751.759 207.408 750.476 207.986 749.283 208.721C747.992 209.508 746.756 210.383 745.586 211.339C744.986 211.831 744.387 212.334 743.836 212.856C743.284 213.377 742.685 213.941 742.218 214.426L742.134 214.516L742.038 214.6C738.748 217.61 735.864 221.035 733.457 224.788C731.066 228.594 729.129 232.668 727.686 236.925C724.738 245.477 723.593 254.671 723.401 263.894C723.302 273.175 724.006 282.448 725.505 291.607C726.988 300.833 728.94 309.976 731.353 319.003C733.714 328.065 736.447 337.049 739.401 345.973L740.522 349.311L741.72 352.637L744.117 359.29L748.827 372.607C749.606 374.848 750.404 377.006 751.171 379.325C751.936 381.633 752.557 383.987 753.028 386.373C753.517 388.79 753.772 391.249 753.789 393.715C753.811 396.24 753.441 398.753 752.693 401.165C751.921 403.625 750.624 405.888 748.893 407.799C747.153 409.653 745.074 411.156 742.769 412.228C740.522 413.264 738.145 413.994 735.704 414.398C734.502 414.609 733.29 414.755 732.072 414.835C730.844 414.925 729.611 414.937 728.381 414.871L729.298 413.121L737.292 423.723L745.256 434.349L744.77 434.122C753.538 434.11 762.298 433.587 771.006 432.558C762.337 434.026 753.585 434.945 744.8 435.308H744.513L744.315 435.063L735.926 424.76L727.572 414.434L726.11 412.636L728.507 412.69C729.633 412.709 730.76 412.661 731.881 412.546C733.012 412.435 734.136 412.263 735.249 412.031C737.454 411.594 739.59 410.862 741.6 409.855C743.554 408.874 745.302 407.527 746.748 405.887C748.137 404.244 749.158 402.323 749.744 400.254C750.943 396.058 750.625 391.467 749.654 387.068C749.154 384.833 748.513 382.631 747.737 380.476C746.97 378.336 746.083 376.095 745.256 373.883L740.228 360.644L737.723 354.015L736.477 350.701L735.279 347.357C732.132 338.427 729.202 329.407 726.643 320.261C724.058 311.099 721.958 301.806 720.351 292.422C718.701 282.973 717.871 273.398 717.87 263.805C717.891 258.963 718.248 254.129 718.937 249.337C719.628 244.496 720.755 239.728 722.305 235.091C723.878 230.401 725.996 225.911 728.615 221.714C731.283 217.508 734.49 213.669 738.155 210.297L737.975 210.476C738.652 209.763 739.252 209.188 739.911 208.577C740.57 207.965 741.229 207.378 741.906 206.832C743.294 205.69 744.759 204.647 746.293 203.71C747.918 202.707 749.666 201.919 751.494 201.367C753.592 200.708 755.831 200.64 757.966 201.169C758.531 201.333 759.086 201.533 759.626 201.768C760.141 202.044 760.645 202.368 761.13 202.667C761.615 202.967 762.005 203.399 762.424 203.776C762.844 204.154 763.143 204.591 763.491 205.005C764.64 206.611 765.538 208.383 766.152 210.261C766.445 211.148 766.667 212.029 766.907 212.91C767.146 213.791 767.272 214.66 767.428 215.535L767.788 218.142L768.009 220.731L768.105 221.929C768.105 222.313 768.177 222.691 768.219 223.068C768.303 223.83 768.417 224.585 768.555 225.346C768.83 226.869 769.19 228.376 769.633 229.859C770.556 232.868 771.725 235.797 773.127 238.615C776.06 244.352 779.525 249.802 783.476 254.893C791.35 265.261 800.381 274.892 809.321 284.667C813.798 289.558 818.268 294.496 822.505 299.65C826.742 304.805 830.834 310.241 834.118 316.3C837.25 322.318 839.75 328.645 841.579 335.179C843.463 341.672 844.706 348.334 845.288 355.07C845.862 361.825 845.607 368.624 844.527 375.316C844.377 376.155 844.287 377 844.084 377.821L843.484 380.302C843.293 381.129 843.119 381.956 842.885 382.771C842.651 383.586 842.418 384.401 842.142 385.204C841.085 388.433 839.762 391.568 838.187 394.578C835.013 400.58 830.824 405.988 825.807 410.562C820.817 415.072 815.222 418.863 809.184 421.823C803.186 424.739 796.92 427.069 790.475 428.782C784.059 430.476 777.54 431.747 770.958 432.587V432.587Z" fill="#231F20"/>
<path d="M715.282 453.498C701.217 453.498 686.734 448.44 673.179 438.599C654.206 424.814 639.285 403.268 631.159 377.893C623.034 352.517 622.662 326.303 630.105 304.073C637.661 281.497 652.355 265.716 671.453 259.561C690.551 253.406 711.716 257.764 730.982 271.752C749.954 285.536 764.875 307.082 773.001 332.458C781.127 357.833 781.499 384.042 774.056 406.277C766.499 428.854 751.806 444.634 732.678 450.783C727.055 452.585 721.186 453.501 715.282 453.498V453.498ZM688.831 263.133C683.59 263.126 678.38 263.934 673.388 265.531C637.565 277.008 621.296 326.56 637.122 375.993C652.948 425.425 694.979 456.303 730.802 444.826C747.977 439.33 761.244 424.934 768.153 404.293C775.176 383.317 774.793 358.481 767.069 334.37C753.472 291.907 720.549 263.133 688.831 263.133Z" fill="#231F20"/>
<path d="M731.909 447.637C769.438 435.615 786.58 384.398 770.197 333.24C753.813 282.082 710.109 250.356 672.58 262.378C635.051 274.4 617.909 325.617 634.293 376.775C650.676 427.933 694.381 459.659 731.909 447.637Z" fill="#C9C3C7"/>
<path d="M715.282 453.498C701.217 453.498 686.734 448.44 673.179 438.599C654.206 424.814 639.285 403.268 631.159 377.893C623.034 352.517 622.662 326.303 630.105 304.073C637.661 281.497 652.355 265.716 671.453 259.561C690.551 253.406 711.716 257.764 730.982 271.752C749.954 285.536 764.875 307.082 773.001 332.458C781.127 357.833 781.499 384.042 774.056 406.277C766.499 428.854 751.806 444.634 732.678 450.783C727.055 452.585 721.186 453.501 715.282 453.498V453.498ZM688.831 263.133C683.59 263.126 678.38 263.934 673.388 265.531C637.565 277.008 621.296 326.56 637.122 375.993C652.948 425.425 694.979 456.303 730.802 444.826C747.977 439.33 761.244 424.934 768.153 404.293C775.176 383.317 774.793 358.481 767.069 334.37C753.472 291.907 720.549 263.133 688.831 263.133Z" fill="#231F20"/>
<path d="M731.909 447.637C769.438 435.615 786.58 384.398 770.197 333.24C753.813 282.082 710.109 250.356 672.58 262.378C635.051 274.4 617.909 325.617 634.293 376.775C650.676 427.933 694.381 459.659 731.909 447.637Z" fill="#C9C3C7"/>
<path d="M715.282 453.498C701.217 453.498 686.734 448.44 673.179 438.599C654.206 424.814 639.285 403.268 631.159 377.893C623.034 352.517 622.662 326.303 630.105 304.073C637.661 281.497 652.355 265.716 671.453 259.561C690.551 253.406 711.716 257.764 730.982 271.752C749.954 285.536 764.875 307.082 773.001 332.458C781.127 357.833 781.499 384.042 774.056 406.277C766.499 428.854 751.806 444.634 732.678 450.783C727.055 452.585 721.186 453.501 715.282 453.498V453.498ZM688.831 263.133C683.59 263.126 678.38 263.934 673.388 265.531C637.565 277.008 621.296 326.56 637.122 375.993C652.948 425.425 694.979 456.303 730.802 444.826C747.977 439.33 761.244 424.934 768.153 404.293C775.176 383.317 774.793 358.481 767.069 334.37C753.472 291.907 720.549 263.133 688.831 263.133Z" fill="#231F20"/>
<path d="M724.745 425.275C752.783 416.293 763.878 372.679 749.524 327.861C735.171 283.042 700.806 253.991 672.767 262.973C644.728 271.954 633.634 315.568 647.987 360.387C662.341 405.206 696.706 434.257 724.745 425.275Z" fill="white"/>
<path d="M766.325 147.703C750.385 150.214 734.397 152.12 718.386 153.882C702.374 155.644 686.362 157.1 670.326 158.401C654.29 159.701 638.236 160.798 622.165 161.673C606.093 162.548 589.997 163.195 573.865 163.267C589.799 160.744 605.793 158.838 621.805 157.082C637.817 155.326 653.829 153.858 669.865 152.563C685.9 151.269 701.96 150.166 718.032 149.303C734.104 148.44 750.2 147.781 766.325 147.703Z" fill="#231F20"/>
<path d="M603.888 132.42C603.888 132.42 547.948 85.7146 525.476 103.964C503.004 122.214 566.411 183.591 566.411 183.591L603.888 132.42Z" fill="#C6BFC3"/>
<path d="M596.601 137.64C596.601 137.64 546.264 100.775 535.358 111.402C524.451 122.028 568.628 174.181 568.628 174.181L596.601 137.64Z" fill="#7A7176"/>
<path d="M724.39 121.566C724.39 121.566 771.089 65.6129 796.456 79.5533C821.822 93.4937 770.412 165.215 770.412 165.215L724.39 121.566Z" fill="#C6BFC3"/>
<path d="M603.888 132.42C597.644 127.919 591.214 123.712 584.676 119.732C581.404 117.742 578.084 115.872 574.722 114.05C571.361 112.228 567.963 110.538 564.505 108.998C561.071 107.452 557.559 106.085 553.983 104.905C550.477 103.746 546.863 102.943 543.196 102.507C539.601 102.106 536.005 102.178 532.793 103.149C531.212 103.615 529.711 104.318 528.341 105.234C527.036 106.074 525.927 107.184 525.087 108.489C523.517 111 523.187 114.302 523.733 117.7C524.38 121.222 525.476 124.646 526.993 127.889C528.554 131.265 530.315 134.545 532.266 137.712C534.219 140.918 536.329 144.047 538.534 147.121C542.933 153.282 547.709 159.216 552.646 165.017C557.584 170.819 562.75 176.488 568.011 181.936L564.535 182.23C567.675 178.149 570.815 174.049 574.015 169.956L583.723 157.646L603.888 132.42ZM603.888 132.42L595.349 145.263L586.57 158.377L577.539 171.646C574.489 176.087 571.379 180.516 568.281 184.957L566.776 187.109L564.799 185.257C561.935 182.572 559.202 179.863 556.505 177.07C553.809 174.277 551.16 171.466 548.583 168.571C543.406 162.794 538.456 156.801 533.842 150.502C529.228 144.203 524.973 137.574 521.689 130.25C519.958 126.518 518.748 122.565 518.094 118.503C517.766 116.333 517.749 114.127 518.046 111.953C518.363 109.642 519.181 107.429 520.443 105.468C521.729 103.553 523.406 101.931 525.363 100.709C527.21 99.5221 529.232 98.6323 531.355 98.0724C535.438 97.0842 539.68 96.9413 543.819 97.6528C547.77 98.3059 551.644 99.3541 555.385 100.781C559.063 102.152 562.652 103.754 566.129 105.576C573.008 109.188 579.617 113.292 585.905 117.856C589.057 120.098 592.119 122.453 595.121 124.874C598.123 127.296 601.065 129.795 603.888 132.42Z" fill="#231F20"/>
<path d="M724.39 121.566C726.697 118.48 729.142 115.495 731.665 112.576C734.188 109.658 736.777 106.793 739.455 104.024C744.822 98.4126 750.586 93.195 756.702 88.4115C759.795 85.9954 763.04 83.7795 766.415 81.777C769.839 79.702 773.463 77.977 777.232 76.6286C781.181 75.1926 785.382 74.5807 789.576 74.8306C791.771 74.9958 793.925 75.5097 795.958 76.3529C798.103 77.2027 800.043 78.498 801.651 80.1528C803.244 81.858 804.448 83.8883 805.181 86.104C805.86 88.1913 806.239 90.3647 806.307 92.5588C806.382 96.6733 805.894 100.779 804.857 104.761C802.933 112.552 799.877 119.816 796.516 126.858C793.154 133.9 789.325 140.643 785.244 147.235C783.224 150.55 781.115 153.828 778.964 157.023C776.812 160.217 774.607 163.405 772.27 166.552L770.652 168.733L768.794 166.887C764.947 163.07 761.094 159.264 757.307 155.44L746.047 143.993L735.069 132.66L724.39 121.566ZM724.39 121.566L748.732 142.771L760.483 153.151C764.36 156.603 768.183 160.073 772.006 163.531L768.531 163.867C772.725 157.562 776.788 151.047 780.624 144.473C784.459 137.898 788.084 131.192 791.314 124.341C792.932 120.925 794.454 117.467 795.796 113.961C797.156 110.5 798.302 106.959 799.23 103.359C800.147 99.8929 800.614 96.3237 800.62 92.7387C800.549 89.2986 799.632 86.11 797.624 83.9165C796.567 82.7817 795.277 81.8883 793.843 81.2974C792.332 80.6395 790.729 80.2151 789.091 80.0387C785.592 79.7531 782.071 80.171 778.736 81.2675C775.204 82.3572 771.791 83.8009 768.549 85.5766C765.241 87.3762 762.031 89.3487 758.931 91.4859C755.803 93.6195 752.753 95.8972 749.774 98.2825C746.796 100.668 743.86 103.107 741.001 105.648C735.308 110.749 729.729 116.022 724.39 121.566Z" fill="#231F20"/>
<path d="M732.492 125.396C732.492 125.396 775.464 80.1285 788.066 88.639C800.668 97.1494 766.547 156.363 766.547 156.363L732.492 125.396Z" fill="#7A7176"/>
<path d="M662.416 107.866C538.588 120.452 552.359 233.491 552.359 233.491C574.069 313.165 679.219 294.466 679.219 294.466C679.219 294.466 786.023 294.077 793.148 211.801C793.148 211.801 786.502 98.1086 662.416 107.866Z" fill="#C9C3C7"/>
<path d="M761.292 197.543C761.292 197.543 805.636 200.989 817.573 162.464C817.573 162.464 854.637 203.351 806.481 230.836C806.481 230.836 815.686 236.955 824.027 230.488C824.027 230.488 845.69 268.39 753.106 274.239L761.292 197.543Z" fill="white"/>
<path d="M806.481 230.836C807.845 231.58 809.297 232.151 810.802 232.538C812.286 232.923 813.817 233.096 815.35 233.053C815.728 233.053 816.111 233.053 816.483 232.981L817.603 232.813C817.969 232.735 818.328 232.628 818.694 232.538C818.873 232.484 819.059 232.448 819.233 232.382L819.754 232.178C821.145 231.633 822.441 230.873 823.596 229.925L824.249 229.433L824.644 230.135C826.691 233.882 827.558 238.16 827.131 242.409C826.905 244.543 826.364 246.631 825.525 248.606C825.322 249.097 825.058 249.565 824.824 250.05L824.459 250.763C824.333 251.003 824.177 251.219 824.039 251.446L823.176 252.801C822.864 253.239 822.523 253.646 822.199 254.072C819.502 257.334 816.258 260.102 812.611 262.252C809.06 264.419 805.31 266.242 801.412 267.694C793.675 270.649 785.645 272.537 777.585 273.963C769.526 275.39 761.406 276.217 753.256 276.864L750.17 277.116L750.476 273.963L752.345 254.785L754.335 235.606L756.318 216.428L758.428 197.249L758.727 194.499L761.502 194.696C762.101 194.738 762.85 194.762 763.545 194.768C764.24 194.774 764.965 194.768 765.679 194.768C767.105 194.768 768.537 194.648 769.969 194.534C772.826 194.285 775.666 193.862 778.472 193.27C784.068 192.151 789.465 190.201 794.484 187.486C799.453 184.788 803.845 181.141 807.41 176.752C807.878 176.225 808.279 175.644 808.698 175.074C809.118 174.505 809.561 173.954 809.897 173.348L811.029 171.55L811.311 171.101L811.563 170.633L812.06 169.692C813.402 167.173 814.529 164.544 815.428 161.835L816.734 158.179L819.173 161.008C819.814 161.745 820.33 162.416 820.875 163.13C821.42 163.843 821.918 164.556 822.421 165.275C823.416 166.726 824.357 168.21 825.244 169.728C827.017 172.768 828.517 175.958 829.726 179.263C830.957 182.579 831.82 186.02 832.297 189.524C832.78 193.043 832.755 196.614 832.225 200.126C831.647 203.619 830.537 207.002 828.935 210.159L828.336 211.327L828.03 211.927C827.922 212.119 827.796 212.298 827.677 212.484L826.256 214.69C825.759 215.403 825.19 216.068 824.656 216.757C824.387 217.099 824.123 217.441 823.847 217.776L822.955 218.723C818.211 223.714 812.624 227.829 806.451 230.878C812.21 227.246 817.567 222.93 821.786 217.692C826.047 212.591 828.733 206.361 829.516 199.761C830.163 193.24 828.839 186.653 826.304 180.582C825.021 177.544 823.496 174.614 821.744 171.82C820.863 170.423 819.946 169.057 818.963 167.726C818.472 167.067 817.975 166.414 817.46 165.778C816.944 165.143 816.405 164.49 815.907 163.981L819.653 163.148C818.764 166.139 817.626 169.05 816.249 171.85C814.878 174.68 813.214 177.36 811.287 179.845C807.396 184.825 802.567 188.995 797.073 192.119C791.637 195.215 785.757 197.458 779.641 198.772C776.61 199.432 773.543 199.908 770.454 200.198C768.914 200.33 767.368 200.444 765.81 200.48C765.031 200.48 764.252 200.516 763.467 200.51C762.682 200.504 761.933 200.51 761.04 200.432L764.108 197.879L762.125 217.057L760.016 236.236L757.912 255.414L755.689 274.593L752.909 271.686C760.914 271.218 768.902 270.487 776.818 269.384C784.713 268.342 792.493 266.564 800.057 264.074C803.793 262.865 807.405 261.302 810.844 259.406C814.264 257.579 817.348 255.184 819.964 252.322C820.276 251.956 820.605 251.608 820.899 251.237L821.732 250.074C821.87 249.876 822.02 249.691 822.146 249.475L822.499 248.876C822.727 248.462 822.996 248.06 823.194 247.629C824.917 244.177 825.544 240.281 824.992 236.463C824.735 234.545 824.196 232.675 823.392 230.914L824.441 231.123C823.114 232.072 821.646 232.805 820.09 233.293L819.491 233.479C819.299 233.538 819.095 233.563 818.892 233.605C818.496 233.677 818.101 233.766 817.693 233.82L816.495 233.91C816.095 233.931 815.695 233.931 815.296 233.91C813.709 233.827 812.142 233.523 810.64 233.005C809.164 232.468 807.766 231.739 806.481 230.836V230.836Z" fill="#231F20"/>
<path d="M580.673 213.833C580.673 213.833 537.659 225.148 519.028 189.374C519.028 189.374 489.863 236.223 542.159 254.665C542.159 254.665 534.195 262.324 524.829 257.452C524.829 257.452 510.291 298.62 602.432 287.832" fill="white"/>
<path d="M580.673 213.833C577.816 214.795 574.883 215.515 571.906 215.984C568.91 216.473 565.885 216.757 562.851 216.835C559.788 216.909 556.723 216.755 553.683 216.374C550.606 216.008 547.569 215.36 544.61 214.438C538.568 212.61 532.964 209.565 528.143 205.49C527.514 204.999 526.944 204.447 526.345 203.902C525.746 203.357 525.147 202.835 524.649 202.242C523.556 201.098 522.524 199.898 521.557 198.646C521.084 198.011 520.55 197.417 520.125 196.752L518.807 194.792C518.345 194.151 517.98 193.45 517.608 192.772L516.446 190.723L521.491 190.914C521.33 191.184 521.12 191.562 520.928 191.897L520.365 192.958C519.993 193.677 519.64 194.409 519.292 195.14C518.597 196.614 517.962 198.136 517.374 199.629C516.208 202.657 515.285 205.774 514.612 208.948C513.3 215.253 513.162 221.774 514.87 227.881C515.765 230.939 517.103 233.848 518.843 236.517L519.508 237.524L519.837 238.028C519.951 238.196 520.083 238.345 520.209 238.507L521.725 240.407C522.258 241.006 522.84 241.606 523.403 242.205L524.254 243.092L525.183 243.901C530.061 248.354 535.969 251.776 542.153 254.689C535.382 253.108 528.976 250.244 523.283 246.25C517.343 242.078 512.824 236.186 510.333 229.367C509.142 225.916 508.454 222.311 508.29 218.663C508.138 215.05 508.395 211.431 509.057 207.875C509.703 204.364 510.663 200.918 511.927 197.579C512.562 195.913 513.24 194.271 513.995 192.658C514.378 191.855 514.774 191.058 515.193 190.261L515.834 189.063C516.068 188.661 516.272 188.295 516.554 187.864L519.214 183.537L521.611 188.056C524.174 193.073 527.591 197.605 531.708 201.451C535.909 205.27 540.787 208.27 546.09 210.297C548.77 211.347 551.527 212.191 554.336 212.82C557.184 213.445 560.068 213.891 562.971 214.156C568.866 214.696 574.802 214.587 580.673 213.833V213.833Z" fill="#231F20"/>
<path d="M542.159 254.647C541.645 255.25 541.082 255.809 540.475 256.319C538.623 257.923 536.443 259.103 534.087 259.777C533.693 259.896 533.293 259.994 532.889 260.071L531.63 260.263C531.211 260.299 530.785 260.292 530.354 260.31C530.138 260.31 529.923 260.31 529.707 260.31L529.066 260.257C527.338 260.097 525.646 259.662 524.056 258.968L526.489 258.009C526.489 258.153 526.399 258.399 526.363 258.608C526.327 258.818 526.291 259.052 526.255 259.28C526.195 259.729 526.141 260.191 526.117 260.646L526.075 261.335V262.031C526.075 262.486 526.075 262.948 526.111 263.403C526.336 266.993 527.609 270.437 529.773 273.31C530.03 273.67 530.372 273.987 530.63 274.329L531.055 274.838C531.205 275 531.373 275.15 531.535 275.312L532.493 276.247C532.829 276.54 533.2 276.81 533.548 277.098C536.512 279.358 539.823 281.123 543.352 282.324C546.996 283.611 550.743 284.588 554.552 285.243C562.374 286.57 570.283 287.319 578.216 287.484C586.234 287.748 594.3 287.682 602.455 287.808C594.518 289.723 586.441 290.999 578.3 291.625C570.063 292.322 561.773 292.075 553.593 290.888C552.562 290.708 551.525 290.589 550.501 290.367L547.421 289.666C546.39 289.462 545.377 289.102 544.358 288.821L542.836 288.353C542.333 288.185 541.836 287.975 541.332 287.79C537.197 286.342 533.36 284.155 530.006 281.335C529.593 280.963 529.161 280.604 528.76 280.214L527.603 278.98C527.418 278.77 527.214 278.572 527.034 278.35L526.519 277.673C526.183 277.212 525.824 276.78 525.518 276.295C524.263 274.39 523.312 272.301 522.702 270.104C521.82 266.854 521.687 263.446 522.312 260.137C522.416 259.589 522.542 259.05 522.69 258.519C522.762 258.249 522.833 257.979 522.923 257.709C523.013 257.44 523.091 257.194 523.223 256.852L523.954 254.947L525.656 255.894C526.845 256.62 528.138 257.159 529.491 257.494L530 257.625C530.174 257.667 530.348 257.674 530.522 257.704C530.869 257.746 531.223 257.805 531.576 257.829H532.649C533.011 257.831 533.374 257.81 533.734 257.769C535.222 257.626 536.683 257.281 538.078 256.745C539.514 256.202 540.883 255.499 542.159 254.647V254.647Z" fill="#231F20"/>
<path d="M789.696 193.294C772.03 175.158 737.262 143.388 712.603 145.683C678.236 148.883 667.444 174.487 667.444 174.487C667.444 174.487 652.253 151.227 617.868 154.217C594.096 156.285 566.752 191.13 552.131 212.46C551.094 225.046 552.131 233.509 552.131 233.509C573.835 313.189 678.991 294.49 678.991 294.49C678.991 294.49 785.795 294.095 792.92 211.819C792.369 205.564 791.29 199.367 789.696 193.294V193.294Z" fill="white"/>
<path d="M791.704 220.581C778.083 199.569 751.039 168.224 715.497 178.628C663.363 193.881 693.325 229.835 706.509 246.532C712.411 253.994 720.178 270.961 725.253 286.759C753.094 278.069 784.441 259.645 791.704 220.581Z" fill="#7A7176"/>
<path d="M621.362 187.103C585.221 183.297 564.313 217.591 554.426 240.713C568.107 278.368 602.066 291.248 631.081 295.018C633.269 278.626 637.859 260.664 642.311 252.304C652.289 233.521 675.36 192.79 621.362 187.103Z" fill="#7A7176"/>
<path d="M687.519 230.41C684.762 224.333 681.592 212.25 679.441 188.313C676.552 156.255 691.324 126.828 702.704 109.376C690.874 107.332 677.535 106.679 662.416 107.865C647.171 109.418 634.018 112.492 622.662 116.688C636.966 131.845 656.681 158.113 659.558 190.099C661.715 214.072 660.756 226.491 659.132 232.969C657.988 237.548 660.774 242.049 665.976 243.919L668.445 244.8C670.404 245.523 672.499 245.802 674.579 245.615C676.66 245.429 678.672 244.782 680.471 243.721L682.737 242.409C687.525 239.64 689.466 234.713 687.519 230.41Z" fill="#7A7176"/>
<path d="M793.148 211.801C792.659 207.92 791.961 204.069 791.057 200.264C790.178 196.46 789.143 192.702 787.952 188.99C785.604 181.583 782.612 174.396 779.012 167.511C771.887 153.78 762.047 141.5 749.912 132.15C737.69 122.872 723.549 116.444 708.522 113.337C693.571 110.065 677.961 109.519 662.68 110.766C647.405 112.282 632.16 115.561 618.042 121.494L615.399 122.621C614.518 122.998 613.667 123.424 612.799 123.82C611.049 124.605 609.377 125.528 607.669 126.391C604.316 128.214 601.056 130.204 597.901 132.354C594.766 134.535 591.748 136.88 588.859 139.378C580.176 146.941 572.904 155.985 567.382 166.09C563.646 172.848 560.623 179.977 558.363 187.36C556.051 194.779 554.391 202.385 553.401 210.093C552.886 213.952 552.544 217.842 552.365 221.738C552.152 225.644 552.152 229.56 552.365 233.466C551.375 225.661 551.184 217.775 551.795 209.931C552.35 202.04 553.624 194.217 555.6 186.557C557.613 178.861 560.425 171.397 563.99 164.286C565.776 160.72 567.777 157.265 569.982 153.942C572.192 150.597 574.61 147.394 577.221 144.352C579.833 141.307 582.616 138.414 585.557 135.686C588.537 133 591.662 130.479 594.917 128.135C598.19 125.815 601.578 123.663 605.068 121.686C606.866 120.745 608.58 119.75 610.396 118.899C611.294 118.462 612.193 118 613.098 117.587L615.837 116.388C616.748 115.962 617.676 115.603 618.605 115.225C619.534 114.848 620.457 114.476 621.398 114.122L624.22 113.109L625.629 112.606L627.055 112.151L629.913 111.246C630.866 110.952 631.831 110.694 632.79 110.419C633.748 110.143 634.701 109.861 635.672 109.627L638.578 108.908C654.071 105.033 670.073 103.594 686.009 104.641L689.005 104.827C690 104.881 690.988 105.007 692.001 105.091C693.014 105.174 693.99 105.27 694.997 105.39L697.993 105.774L699.48 105.966L700.954 106.211L703.914 106.697C704.897 106.877 705.874 107.086 706.856 107.296C707.839 107.506 708.816 107.692 709.787 107.943L712.699 108.656C713.67 108.902 714.629 109.196 715.593 109.466C717.529 109.981 719.423 110.664 721.328 111.264C725.116 112.582 728.834 114.092 732.468 115.789C736.094 117.514 739.621 119.438 743.033 121.554C746.415 123.711 749.67 126.061 752.783 128.59C755.893 131.111 758.841 133.825 761.61 136.717C764.39 139.587 766.992 142.625 769.4 145.815C774.183 152.171 778.284 159.013 781.636 166.228C784.952 173.405 787.605 180.869 789.564 188.529C791.544 196.145 792.745 203.942 793.148 211.801V211.801Z" fill="#231F20"/>
<path d="M552.358 233.491C553.419 236.541 554.474 239.586 555.816 242.511C556.415 243.997 557.17 245.423 557.853 246.868C558.219 247.581 558.608 248.282 558.986 248.989L559.549 250.044L560.149 251.075C563.334 256.587 567.215 261.667 571.696 266.19C573.911 268.448 576.273 270.557 578.767 272.501C581.246 274.464 583.848 276.266 586.557 277.895C589.26 279.513 592.035 281.017 594.881 282.372C597.727 283.726 600.664 284.907 603.636 285.968C606.608 287.029 609.628 287.964 612.685 288.761C615.741 289.558 618.827 290.283 621.937 290.87C628.17 292.038 634.471 292.809 640.801 293.178C647.142 293.568 653.498 293.632 659.845 293.37C663.041 293.246 666.209 293.046 669.349 292.77C670.947 292.626 672.523 292.459 674.077 292.267C675.629 292.075 677.241 291.859 678.704 291.608L678.949 291.566H679.207C680.687 291.566 682.311 291.476 683.875 291.386C685.439 291.296 687.033 291.176 688.615 291.032C691.775 290.753 694.929 290.389 698.077 289.942C704.368 289.062 710.611 287.861 716.78 286.346C722.943 284.849 729.005 282.966 734.931 280.706C737.885 279.567 740.792 278.309 743.65 276.972C746.508 275.636 749.325 274.191 752.039 272.609C754.754 271.027 757.433 269.33 760.003 267.502C762.574 265.675 765.025 263.685 767.392 261.605C769.767 259.526 772.004 257.296 774.092 254.929C776.196 252.568 778.142 250.072 779.916 247.455C783.516 242.205 786.428 236.515 788.581 230.524L789.001 229.397L789.373 228.258C789.612 227.497 789.876 226.736 790.103 225.969C790.523 224.423 790.997 222.889 791.332 221.319C792.135 218.202 792.626 215.019 793.13 211.825C792.896 218.314 791.89 224.752 790.134 231.003C788.348 237.317 785.728 243.363 782.343 248.983C780.641 251.805 778.747 254.506 776.674 257.068C774.616 259.65 772.395 262.096 770.023 264.392C767.655 266.696 765.156 268.862 762.538 270.877C759.92 272.879 757.199 274.754 754.406 276.504C748.813 279.989 742.928 282.983 736.818 285.452C730.731 287.922 724.494 290.008 718.146 291.697C711.806 293.367 705.378 294.684 698.892 295.641C695.656 296.12 692.402 296.51 689.131 296.81C687.501 296.962 685.865 297.089 684.223 297.193C682.563 297.289 680.963 297.373 679.219 297.397L679.722 297.349C678.002 297.637 676.415 297.841 674.767 298.038C673.119 298.236 671.501 298.404 669.865 298.542C666.599 298.823 663.327 299.039 660.049 299.141C653.498 299.359 646.94 299.211 640.406 298.698C633.857 298.173 627.349 297.236 620.918 295.893C614.467 294.551 608.144 292.656 602.018 290.229C595.864 287.828 589.988 284.769 584.49 281.107C581.749 279.277 579.127 277.276 576.64 275.114C574.14 272.965 571.792 270.646 569.611 268.174C565.279 263.245 561.62 257.763 558.728 251.872C555.884 246.019 553.746 239.849 552.358 233.491Z" fill="#231F20"/>
<path d="M646.53 235.642C645.721 232.657 644.431 229.823 642.713 227.252C641.077 224.822 639.026 222.7 636.654 220.983C632.063 217.623 626.405 216.051 620.739 216.559C615.073 217.068 609.785 219.622 605.865 223.745C603.839 225.863 602.2 228.319 601.023 231.003C599.797 233.834 599.035 236.843 598.764 239.915C597.916 236.748 597.828 233.426 598.506 230.218C599.198 226.899 600.6 223.768 602.617 221.042C604.68 218.259 607.311 215.947 610.336 214.258C611.109 213.863 611.882 213.461 612.679 213.107C613.476 212.754 614.303 212.478 615.13 212.208C615.956 211.939 616.819 211.765 617.67 211.573L620.259 211.189L622.872 211.1C623.741 211.136 624.61 211.208 625.479 211.268C626.347 211.328 627.198 211.567 628.055 211.723C628.912 211.879 629.733 212.179 630.566 212.43C633.842 213.555 636.843 215.359 639.375 217.722C641.848 220.044 643.788 222.874 645.062 226.017C646.305 229.064 646.809 232.363 646.53 235.642V235.642Z" fill="#231F20"/>
<path d="M748.27 226.472C747.454 223.499 746.165 220.676 744.453 218.112C742.817 215.683 740.766 213.561 738.395 211.843C733.8 208.486 728.142 206.916 722.475 207.426C716.809 207.935 711.521 210.489 707.599 214.612C705.573 216.729 703.934 219.185 702.757 221.87C701.53 224.697 700.769 227.705 700.504 230.776C699.654 227.609 699.564 224.286 700.24 221.078C700.933 217.758 702.337 214.627 704.357 211.903C706.422 209.123 709.052 206.813 712.076 205.125C712.849 204.729 713.622 204.321 714.419 203.974C715.216 203.626 716.043 203.344 716.87 203.069C717.697 202.793 718.56 202.625 719.41 202.433L721.993 202.056L724.606 201.966C725.475 202.002 726.35 202.074 727.219 202.134C728.087 202.194 728.938 202.433 729.789 202.583C730.64 202.733 731.473 203.045 732.3 203.296C735.581 204.415 738.585 206.219 741.115 208.589C743.587 210.91 745.527 213.74 746.802 216.883C748.041 219.919 748.544 223.205 748.27 226.472Z" fill="#231F20"/>
<path d="M689.706 235.72C690.155 240.706 675.492 247.179 675.492 247.179C675.492 247.179 658.461 243.583 658.011 238.573C657.562 233.562 664.292 228.9 673.041 228.108C681.79 227.317 689.256 230.728 689.706 235.72Z" fill="#231F20"/>
<path d="M699.593 248.792L677.421 250.59C676.524 247.33 675.883 244.006 675.504 240.647C675.5 240.625 675.5 240.602 675.504 240.581C675.504 240.521 675.504 240.461 675.462 240.401C675.451 240.35 675.437 240.3 675.42 240.251C675.42 240.191 675.366 240.137 675.342 240.077C675.318 240.017 675.3 239.993 675.276 239.957C675.241 239.896 675.201 239.838 675.156 239.784L675.084 239.7C675.03 239.636 674.97 239.578 674.904 239.526L674.856 239.484C674.78 239.426 674.7 239.374 674.617 239.328H674.581C674.497 239.284 674.408 239.247 674.317 239.22H674.263C674.181 239.194 674.097 239.178 674.012 239.172H673.91H673.82H673.694C673.664 239.169 673.634 239.169 673.604 239.172H673.544C673.479 239.18 673.415 239.194 673.352 239.214L673.209 239.256C673.149 239.256 673.095 239.304 673.035 239.328L672.903 239.4L672.759 239.502C672.717 239.531 672.677 239.563 672.639 239.598C672.591 239.64 672.555 239.682 672.513 239.724L672.418 239.843C672.382 239.891 672.352 239.94 672.322 239.987C672.292 240.035 672.268 240.083 672.244 240.131C672.218 240.181 672.196 240.234 672.178 240.287C672.178 240.341 672.142 240.389 672.124 240.449C672.106 240.509 672.124 240.551 672.094 240.605C672.091 240.667 672.091 240.729 672.094 240.79C672.094 240.79 672.094 240.832 672.094 240.856C672.04 244.303 671.709 247.741 671.105 251.135L648.933 252.933C648.933 252.933 647.555 286.19 675.731 283.918C703.908 281.647 699.593 248.792 699.593 248.792Z" fill="#231F20"/>
<path d="M655.477 275.869C659.414 280.969 665.694 284.667 675.731 283.858C686.266 283.007 692.253 277.895 695.626 271.83C691.024 267.748 683.534 265.411 675.288 266.076C666.551 266.777 659.198 270.673 655.477 275.869Z" fill="#F16B6C"/>
<path d="M833.801 146.708C835.556 166.174 761.783 165.287 671.609 173.42C581.434 181.553 509.003 195.595 507.253 176.123C505.503 156.651 574.561 105.229 664.735 97.1079C754.91 88.987 832.051 127.26 833.801 146.708Z" fill="#EECA6C"/>
<path d="M507.253 176.141C507.151 175.183 507.177 174.215 507.331 173.264C507.497 172.31 507.752 171.373 508.092 170.465C508.772 168.65 509.636 166.909 510.669 165.269C512.76 162.012 515.153 158.96 517.818 156.153C523.167 150.575 529.001 145.483 535.25 140.936C547.757 131.87 561.16 124.11 575.25 117.778C582.269 114.554 589.422 111.651 596.709 109.07C603.996 106.489 611.37 104.194 618.833 102.184C648.788 94.1649 679.899 91.3591 710.805 93.8892C718.504 94.5285 726.17 95.4694 733.804 96.712C737.616 97.3313 741.411 98.0324 745.19 98.8155C748.969 99.5986 752.729 100.476 756.468 101.447C771.461 105.161 786.035 110.4 799.961 117.083C806.923 120.44 813.573 124.41 819.833 128.944C822.955 131.23 825.854 133.807 828.491 136.639C829.802 138.069 830.964 139.627 831.961 141.29C832.453 142.124 832.87 143.001 833.208 143.909C833.534 144.816 833.736 145.764 833.807 146.726C833.47 144.85 832.703 143.077 831.566 141.548C830.47 140.003 829.222 138.573 827.838 137.28C825.066 134.689 822.056 132.364 818.85 130.334C812.438 126.266 805.694 122.745 798.691 119.81C791.718 116.808 784.589 114.185 777.334 111.953C773.738 110.838 770.065 109.765 766.404 108.783C762.742 107.8 759.051 106.913 755.347 106.086C751.644 105.258 747.929 104.515 744.195 103.856C740.462 103.197 736.723 102.543 732.972 102.01C725.469 100.931 717.932 100.15 710.362 99.6665C680.096 97.6123 649.694 100.341 620.277 107.752C612.922 109.578 605.648 111.693 598.453 114.098C594.857 115.297 591.292 116.592 587.738 117.916C584.184 119.241 580.661 120.637 577.161 122.111C573.662 123.586 570.198 125.108 566.77 126.744C563.343 128.38 559.945 130.064 556.583 131.815C549.844 135.311 543.296 139.166 536.97 143.364C530.606 147.505 524.603 152.174 519.022 157.322C516.237 159.891 513.699 162.717 511.442 165.761C510.312 167.281 509.338 168.911 508.536 170.627C507.69 172.342 507.251 174.229 507.253 176.141V176.141Z" fill="#221F1F"/>
<path d="M833.8 146.708C833.911 147.592 833.869 148.488 833.675 149.357C833.432 150.227 833.052 151.053 832.548 151.802C831.471 153.256 830.132 154.496 828.599 155.458C825.561 157.406 822.187 158.665 818.819 159.791C815.451 160.918 811.976 161.745 808.512 162.494C805.049 163.243 801.567 163.897 798.079 164.484C784.105 166.738 770.053 168.176 756.018 169.453L745.489 170.399L734.961 171.256L713.915 172.946C699.893 174.055 685.87 175.146 671.884 176.465C657.88 177.663 643.893 179.096 629.895 180.522L608.885 182.62L598.374 183.657L587.852 184.61C573.811 185.862 559.729 186.953 545.581 187.235C542.039 187.283 538.498 187.265 534.956 187.145C531.415 187.025 527.861 186.797 524.331 186.324C520.775 185.917 517.282 185.069 513.934 183.8C512.254 183.129 510.713 182.149 509.392 180.912C508.764 180.264 508.244 179.519 507.852 178.706C507.503 177.887 507.3 177.013 507.253 176.123C507.383 176.987 507.661 177.822 508.074 178.592C508.516 179.333 509.072 179.998 509.722 180.564C511.072 181.639 512.61 182.452 514.258 182.961C517.589 183.945 521.029 184.514 524.499 184.657C531.492 184.979 538.498 184.847 545.473 184.262C552.466 183.783 559.453 183.093 566.447 182.32C573.44 181.547 580.409 180.75 587.39 179.887L597.859 178.58L608.34 177.316L629.313 174.787C643.296 173.188 657.316 171.726 671.375 170.399C685.429 169.201 699.485 168.138 713.544 167.211L734.631 165.946L755.707 164.748C762.724 164.352 769.735 163.873 776.746 163.399C783.757 162.926 790.744 162.338 797.72 161.559C804.682 160.888 811.594 159.769 818.412 158.209C821.799 157.444 825.079 156.266 828.18 154.703C829.712 153.916 831.084 152.848 832.224 151.556C832.76 150.882 833.187 150.128 833.489 149.321C833.744 148.475 833.849 147.591 833.8 146.708V146.708Z" fill="#221F1F"/>
<path d="M573.356 141.116C573.356 141.116 570.821 75.0406 589.17 52.6737C589.17 52.6737 628.121 25.2663 659.558 22.4375C690.994 19.6086 734.691 39.5663 734.691 39.5663C734.691 39.5663 767.272 100.728 765.127 123.838C765.127 123.838 706.191 150.616 669.847 153.888C633.503 157.16 573.356 141.116 573.356 141.116Z" fill="#EECA6C"/>
<path d="M765.127 123.838C765.654 118.12 764.06 110.053 761.358 101.201C761.358 101.201 699.725 121.764 667.216 124.689C634.707 127.613 573.56 118.096 573.56 118.096C572.961 131.359 573.356 141.098 573.356 141.098C573.356 141.098 633.502 157.142 669.835 153.87C706.167 150.598 765.127 123.838 765.127 123.838Z" fill="#6874B5"/>
<path d="M743.166 30.1143C747.037 36.587 750.645 43.2096 754.126 49.8921C757.608 56.5746 760.892 63.3889 763.93 70.3231C765.46 73.7792 766.924 77.2713 768.323 80.7993C769.713 84.3353 770.983 87.9196 772.164 91.5515C773.362 95.2067 774.362 98.9237 775.16 102.687C775.382 103.628 775.531 104.605 775.699 105.57C775.867 106.535 775.975 107.517 776.089 108.506C776.203 109.495 776.239 110.508 776.292 111.503C776.322 112.016 776.322 112.53 776.292 113.043L776.233 114.607L776.179 116.1L774.675 116.795C770.881 118.557 767.106 120.217 763.289 121.859C761.383 122.675 759.478 123.495 757.566 124.287C755.654 125.078 753.737 125.881 751.807 126.636C747.966 128.182 744.089 129.633 740.212 131.131L734.363 133.253C732.416 133.966 730.438 134.607 728.479 135.29C720.617 137.963 712.67 140.439 704.575 142.482C696.479 144.526 688.293 146.318 679.832 147.025C679.304 147.079 678.783 147.163 678.256 147.187L676.668 147.253L673.504 147.397C671.388 147.541 669.309 147.463 667.194 147.445L664.048 147.403C662.999 147.403 661.962 147.295 660.92 147.229L657.791 147.031C656.749 146.959 655.706 146.911 654.669 146.785L648.455 146.186C646.388 145.964 644.332 145.659 642.271 145.401C641.24 145.263 640.21 145.137 639.185 144.987L636.111 144.496C634.067 144.148 632.012 143.855 629.974 143.459L623.868 142.321L617.78 141.086C615.754 140.672 613.741 140.181 611.721 139.731C609.702 139.282 607.694 138.796 605.681 138.305L602.685 137.574L599.688 136.795C597.691 136.275 595.693 135.74 593.696 135.188C589.701 134.102 585.74 132.929 581.813 131.67C597.993 134.907 614.262 137.664 630.556 139.737C638.711 140.678 646.867 141.589 655.023 141.967C663.179 142.344 671.31 142.404 679.286 141.511C681.276 141.23 683.271 140.984 685.279 140.678L691.235 139.521C692.236 139.36 693.219 139.102 694.232 138.88L697.228 138.185C698.217 137.951 699.211 137.736 700.194 137.484L703.148 136.687L706.103 135.896C707.085 135.638 708.074 135.374 709.051 135.074L714.924 133.336C716.883 132.737 718.825 132.09 720.772 131.473L723.697 130.538L726.609 129.555C734.399 126.948 742.076 124.119 749.74 121.164C757.404 118.209 765.057 115.171 772.511 111.94L770.953 114.128C771.265 110.814 770.845 107.2 770.264 103.622C769.631 99.9968 768.807 96.4079 767.795 92.8699C766.794 89.3039 765.668 85.75 764.469 82.2139C763.271 78.6779 762.024 75.1476 760.706 71.6476C758.033 64.6474 755.247 57.6715 752.287 50.7612C749.326 43.851 746.294 36.9706 743.166 30.1143Z" fill="#221F1F"/>
<path d="M573.356 141.116C573.164 139.216 573.033 137.317 572.907 135.417C572.781 133.517 572.685 131.611 572.613 129.711C572.457 125.899 572.368 122.087 572.392 118.27C572.392 110.638 572.743 103.001 573.446 95.3574C573.794 91.5377 574.283 87.7262 574.914 83.9225C575.55 80.1227 576.263 76.323 577.24 72.5352C578.199 68.7302 579.425 64.9971 580.907 61.3637C582.418 57.5879 584.449 54.0416 586.941 50.8274L587.169 50.5456L587.511 50.3001C590.243 48.3583 592.952 46.5962 595.726 44.8462C598.501 43.0961 601.287 41.4059 604.116 39.7817C609.791 36.5394 615.585 33.4889 621.554 30.762C624.55 29.4075 627.546 28.089 630.626 26.9023C633.706 25.7156 636.799 24.6009 639.963 23.63C646.321 21.5915 652.888 20.2745 659.54 19.7042C666.181 19.3305 672.842 19.6863 679.405 20.7651C682.665 21.2625 685.877 21.922 689.071 22.6412C692.265 23.3604 695.411 24.2352 698.545 25.1342C704.813 26.9322 710.943 29.1256 716.984 31.505C723.024 33.8843 728.969 36.5456 734.686 39.5482C722.59 35.1061 710.224 31.4346 697.664 28.5563C694.536 27.8671 691.402 27.2259 688.25 26.7165C685.098 26.2071 681.958 25.7035 678.8 25.3859C672.562 24.6501 666.265 24.5537 660.007 25.0982C656.916 25.4519 653.847 25.9783 650.815 26.6746C647.765 27.3759 644.751 28.2807 641.748 29.2396C635.737 31.2485 629.846 33.6038 624.107 36.2937C618.342 38.9827 612.677 41.9014 607.112 45.0498C604.331 46.6201 601.569 48.2205 598.848 49.8866C596.128 51.5527 593.407 53.2787 590.818 55.0107L591.388 54.4834C589.167 57.2477 587.327 60.2974 585.917 63.5512C584.428 66.9135 583.159 70.3688 582.117 73.8954C580.033 81.0921 578.443 88.4232 577.359 95.837C576.76 99.5529 576.275 103.299 575.849 107.056C575.424 110.814 575.016 114.578 574.717 118.354C574.105 125.923 573.614 133.523 573.356 141.116Z" fill="#221F1F"/>
<path d="M573.56 118.114C589.518 118.941 605.398 120.062 621.266 120.931C625.227 121.171 629.194 121.338 633.149 121.53C637.104 121.722 641.065 121.884 645.014 121.95C646.991 121.997 648.963 122.063 650.934 122.063H653.883H655.357L656.825 122.027C660.708 122.024 664.588 121.824 668.45 121.428C672.28 121.033 676.151 120.379 680.016 119.684L685.829 118.587L691.629 117.389C699.371 115.729 707.108 113.961 714.838 112.133C730.311 108.489 745.771 104.683 761.358 101.171C746.52 107.116 731.395 112.204 716.079 116.783L710.326 118.462L704.543 120.062C702.613 120.595 700.684 121.11 698.736 121.59C696.789 122.069 694.865 122.597 692.912 123.046C685.069 125.015 677.114 126.506 669.091 127.511C660.876 128.363 652.804 128.111 644.792 127.721C636.78 127.331 628.798 126.588 620.858 125.678C612.918 124.767 605.002 123.706 597.116 122.447C589.23 121.188 581.368 119.84 573.56 118.114Z" fill="#221F1F"/>
<path d="M753.61 198.688C753.299 198.688 752.994 198.606 752.726 198.45C752.457 198.294 752.235 198.07 752.081 197.801V197.801C751.674 197.099 741.99 180.642 723.414 184.483C722.965 184.555 722.506 184.451 722.132 184.193C721.758 183.935 721.497 183.542 721.405 183.097C721.312 182.653 721.395 182.189 721.635 181.803C721.875 181.417 722.254 181.139 722.695 181.025C743.824 176.662 755.054 195.859 755.144 196.051C755.297 196.319 755.377 196.623 755.376 196.932C755.375 197.241 755.293 197.545 755.137 197.812C754.982 198.079 754.759 198.301 754.491 198.454C754.223 198.608 753.919 198.688 753.61 198.688V198.688Z" fill="#231F20"/>
<path d="M591.441 213.833C591.163 213.825 590.889 213.753 590.643 213.622C590.397 213.491 590.185 213.304 590.023 213.077C589.861 212.85 589.755 212.588 589.712 212.313C589.669 212.037 589.691 211.755 589.775 211.489C589.847 211.28 597.182 190.723 618.299 190.723H618.899C619.13 190.727 619.358 190.776 619.571 190.868C619.783 190.961 619.975 191.094 620.136 191.26C620.297 191.426 620.423 191.623 620.508 191.838C620.593 192.053 620.635 192.283 620.631 192.515C620.627 192.746 620.577 192.974 620.485 193.187C620.393 193.399 620.26 193.591 620.093 193.752C619.927 193.913 619.731 194.039 619.515 194.124C619.3 194.209 619.07 194.251 618.839 194.247C599.849 193.941 593.389 211.873 593.125 212.64C593.001 212.988 592.773 213.289 592.471 213.502C592.17 213.715 591.81 213.831 591.441 213.833V213.833Z" fill="#231F20"/>
<path d="M621.961 261.353C613.29 262.135 604.583 260.328 596.94 256.16C589.297 251.992 583.061 245.651 579.021 237.939C574.981 230.226 573.319 221.489 574.244 212.831C575.169 204.174 578.641 195.986 584.219 189.302C589.798 182.618 597.233 177.738 605.584 175.28C613.936 172.822 622.828 172.897 631.137 175.493C639.447 178.09 646.799 183.093 652.265 189.87C657.732 196.646 661.066 204.891 661.847 213.563C662.879 225.187 659.259 236.746 651.782 245.705C644.305 254.664 633.581 260.291 621.961 261.353ZM614.854 182.458C607.922 183.082 601.332 185.748 595.915 190.118C590.499 194.489 586.5 200.367 584.424 207.011C582.348 213.654 582.288 220.764 584.252 227.442C586.217 234.119 590.117 240.064 595.459 244.524C600.802 248.985 607.347 251.761 614.267 252.501C621.186 253.242 628.17 251.913 634.335 248.684C640.5 245.455 645.57 240.469 648.902 234.359C652.234 228.248 653.679 221.286 653.056 214.354C652.207 205.065 647.71 196.491 640.552 190.512C633.393 184.533 624.156 181.637 614.866 182.458H614.854Z" fill="#221E57"/>
<path opacity="0.37" d="M637.73 245.135C643.561 226.671 633.321 206.976 614.859 201.145C596.397 195.314 576.704 205.555 570.874 224.02C565.044 242.484 575.284 262.18 593.746 268.01C612.208 273.841 631.9 263.6 637.73 245.135Z" fill="#69A9DC"/>
<path opacity="0.44" d="M604.193 249.864L650.677 230.596C652.757 225.411 653.57 219.805 653.049 214.243C652.528 208.681 650.688 203.324 647.681 198.616L584.077 226.826C585.487 231.93 588.028 236.65 591.51 240.638C594.992 244.626 599.327 247.779 604.193 249.864V249.864Z" fill="white"/>
<path d="M729.154 251.698C720.484 252.48 711.776 250.673 704.133 246.505C696.49 242.337 690.254 235.996 686.214 228.284C682.175 220.571 680.512 211.834 681.437 203.176C682.363 194.519 685.834 186.33 691.413 179.646C696.991 172.962 704.426 168.083 712.778 165.625C721.129 163.167 730.022 163.242 738.331 165.838C746.64 168.435 753.993 173.438 759.459 180.215C764.925 186.991 768.259 195.236 769.04 203.908C770.072 215.532 766.453 227.091 758.976 236.05C751.499 245.009 740.774 250.636 729.154 251.698ZM722.035 172.803C715.102 173.427 708.51 176.094 703.093 180.465C697.675 184.836 693.676 190.716 691.6 197.361C689.523 204.006 689.464 211.117 691.429 217.796C693.394 224.475 697.295 230.42 702.639 234.881C707.983 239.343 714.53 242.119 721.451 242.859C728.373 243.598 735.358 242.269 741.524 239.038C747.69 235.807 752.759 230.82 756.091 224.708C759.423 218.596 760.868 211.632 760.243 204.699C759.394 195.406 754.895 186.83 747.733 180.851C740.57 174.871 731.328 171.977 722.035 172.803V172.803Z" fill="#221E57"/>
<path opacity="0.37" d="M758.72 218.065C764.516 199.513 754.176 179.775 735.627 173.979C717.077 168.183 697.342 178.523 691.547 197.075C685.752 215.627 696.091 235.365 714.64 241.161C733.19 246.957 752.925 236.617 758.72 218.065Z" fill="#69A9DC"/>
<path opacity="0.44" d="M711.381 240.203L757.858 220.929C759.942 215.746 760.757 210.14 760.236 204.578C759.715 199.016 757.873 193.66 754.862 188.955L691.258 217.159C692.669 222.263 695.211 226.985 698.694 230.974C702.178 234.963 706.513 238.117 711.381 240.203V240.203Z" fill="white"/>
<path d="M690.425 214.049L683.971 214.648C683.856 213.039 683.422 211.47 682.694 210.031C681.966 208.592 680.958 207.313 679.73 206.268C678.502 205.223 677.078 204.433 675.541 203.945C674.004 203.457 672.385 203.279 670.779 203.424C669.173 203.569 667.612 204.032 666.187 204.787C664.762 205.542 663.502 206.573 662.48 207.821C661.458 209.068 660.695 210.507 660.236 212.052C659.776 213.598 659.629 215.22 659.803 216.824L653.344 217.423C652.993 212.554 654.567 207.742 657.728 204.023C660.889 200.304 665.384 197.975 670.245 197.537C675.106 197.1 679.944 198.588 683.718 201.683C687.493 204.778 689.901 209.231 690.425 214.085V214.049Z" fill="#221E57"/>
<path d="M636.145 311.571C636.145 311.571 633.88 315.461 615.477 299.045C598.369 283.786 594.504 265.914 579.175 270.811C566.303 274.928 577.251 299.968 591.759 319.734C608.19 342.125 636.75 359.553 636.75 359.553" fill="#C9C3C7"/>
<path d="M636.145 311.571C636.004 311.791 635.793 311.956 635.546 312.039C635.293 312.121 635.032 312.172 634.767 312.188C634.243 312.218 633.718 312.184 633.203 312.087C632.188 311.88 631.195 311.579 630.236 311.188C629.284 310.815 628.354 310.389 627.45 309.911C626.545 309.45 625.652 308.946 624.777 308.443C621.338 306.342 618.034 304.028 614.884 301.514C611.724 298.945 608.778 296.123 606.075 293.076C603.342 290.079 600.855 286.903 598.386 283.834C595.917 280.766 593.509 277.721 590.806 275.546C589.579 274.496 588.152 273.705 586.611 273.22C585.124 272.804 583.559 272.744 582.045 273.046C581.643 273.112 581.242 273.202 580.846 273.31C580.451 273.418 580.002 273.556 579.708 273.664C579.111 273.875 578.559 274.198 578.084 274.617C577.136 275.566 576.549 276.816 576.424 278.153C576.207 279.837 576.244 281.544 576.532 283.217C576.83 285.042 577.253 286.844 577.796 288.611C578.948 292.257 580.364 295.815 582.033 299.255C583.711 302.743 585.545 306.169 587.534 309.534C589.512 312.89 591.621 316.204 593.85 319.398C596.128 322.565 598.571 325.609 601.167 328.52C606.428 334.372 612.069 339.869 618.054 344.978C621.038 347.559 624.09 350.066 627.21 352.499C630.332 354.927 633.502 357.294 636.756 359.559C629.858 355.61 623.221 351.222 616.885 346.422C613.689 344.025 610.591 341.52 607.591 338.906C604.565 336.299 601.628 333.573 598.836 330.696C596.019 327.821 593.354 324.8 590.854 321.646C588.331 318.511 585.97 315.269 583.735 311.919C581.491 308.561 579.421 305.09 577.533 301.52C575.594 297.905 573.95 294.139 572.619 290.259C571.935 288.253 571.408 286.197 571.043 284.11C570.625 281.879 570.548 279.598 570.815 277.344C570.975 276.088 571.323 274.864 571.846 273.712C572.415 272.459 573.23 271.334 574.243 270.403C575.247 269.495 576.414 268.785 577.683 268.312C578.238 268.102 578.804 267.922 579.378 267.772C579.933 267.618 580.495 267.492 581.062 267.395C583.453 266.942 585.916 267.059 588.253 267.736C590.507 268.45 592.595 269.608 594.395 271.141C596.03 272.531 597.54 274.061 598.908 275.713C600.244 277.29 601.491 278.884 602.695 280.472C605.092 283.654 607.441 286.759 609.886 289.732C612.363 292.685 615.014 295.487 617.826 298.122C619.216 299.501 620.631 300.855 622.021 302.21C623.411 303.564 624.879 304.877 626.359 306.147C627.808 307.443 629.331 308.654 630.92 309.773C631.699 310.337 632.527 310.83 633.394 311.248C633.821 311.462 634.272 311.625 634.737 311.733C634.968 311.816 635.216 311.844 635.46 311.816C635.704 311.788 635.938 311.704 636.145 311.571Z" fill="#221F1F"/>
<path d="M741.547 290.654C741.547 290.654 745.358 293.052 754.065 269.978C762.155 248.528 757.337 230.883 773.163 228.132C786.478 225.819 788.366 253.082 784.662 277.325C780.468 304.78 763.227 333.458 763.227 333.458" fill="#C9C3C7"/>
<path d="M741.547 290.655C741.783 290.673 742.021 290.639 742.244 290.557C742.466 290.474 742.668 290.344 742.835 290.175C743.196 289.864 743.52 289.512 743.8 289.126C744.371 288.353 744.877 287.533 745.31 286.675C746.198 284.945 746.986 283.166 747.671 281.347C748.396 279.549 749.067 277.697 749.69 275.845C750.314 273.993 750.943 272.135 751.536 270.265C752.809 266.625 753.86 262.91 754.682 259.142C755.497 255.36 756.138 251.518 756.791 247.587C757.121 245.621 757.487 243.631 757.942 241.593C758.391 239.497 759.021 237.444 759.824 235.456C760.708 233.263 762.024 231.269 763.695 229.595C765.448 227.905 767.578 226.656 769.909 225.951C770.458 225.775 771.016 225.627 771.581 225.508C772.158 225.374 772.743 225.27 773.331 225.196C774.674 225.034 776.035 225.124 777.346 225.46C778.671 225.807 779.912 226.419 780.995 227.258C781.992 228.036 782.866 228.959 783.59 229.997C784.872 231.872 785.862 233.931 786.526 236.104C787.166 238.121 787.649 240.185 787.97 242.277C788.588 246.332 788.879 250.431 788.839 254.533C788.814 258.574 788.584 262.61 788.15 266.627C787.719 270.631 787.131 274.598 786.352 278.548C785.597 282.501 784.635 286.412 783.47 290.265C782.325 294.106 780.989 297.882 779.515 301.592C778.041 305.302 776.459 308.964 774.757 312.566C771.365 319.755 767.514 326.717 763.227 333.411C765.067 329.898 766.781 326.327 768.417 322.731C770.053 319.135 771.605 315.491 773.049 311.823C775.987 304.525 778.439 297.041 780.39 289.42C781.346 285.637 782.1 281.806 782.649 277.943C783.152 274.077 783.482 270.151 783.68 266.274C783.877 262.396 783.925 258.482 783.8 254.617C783.675 250.797 783.274 246.992 782.601 243.23C782.263 241.417 781.802 239.629 781.223 237.878C780.702 236.261 779.945 234.73 778.976 233.335C778.243 232.212 777.144 231.377 775.866 230.973C775.25 230.825 774.612 230.793 773.984 230.877C773.672 230.919 773.217 231.003 772.815 231.093C772.41 231.182 772.01 231.293 771.617 231.423C770.134 231.854 768.775 232.63 767.65 233.688C766.519 234.834 765.626 236.192 765.025 237.686C763.641 240.862 762.916 244.704 762.149 248.54C761.382 252.376 760.651 256.373 759.62 260.293C758.635 264.246 757.33 268.112 755.719 271.854C754.093 275.543 752.235 279.126 750.158 282.582C749.612 283.433 749.061 284.284 748.468 285.117C747.89 285.952 747.264 286.752 746.592 287.514C745.923 288.304 745.183 289.03 744.381 289.684C743.97 290.01 743.521 290.285 743.045 290.505C742.801 290.608 742.545 290.683 742.284 290.726C742.037 290.785 741.778 290.76 741.547 290.655V290.655Z" fill="#221F1F"/>
<path d="M906.753 247.179C906.754 248.9 906.245 250.582 905.29 252.013C904.335 253.444 902.977 254.559 901.388 255.218C899.799 255.877 898.05 256.05 896.363 255.715C894.676 255.379 893.126 254.551 891.91 253.334C890.693 252.118 889.865 250.568 889.53 248.88C889.194 247.193 889.367 245.444 890.026 243.855C890.685 242.265 891.8 240.907 893.231 239.952C894.662 238.997 896.344 238.488 898.064 238.489C900.368 238.489 902.578 239.404 904.208 241.034C905.837 242.664 906.753 244.874 906.753 247.179V247.179Z" fill="#F26B6C"/>
<path d="M488.584 92.1624C488.584 93.8826 488.074 95.5643 487.118 96.9945C486.163 98.4247 484.804 99.5394 483.215 100.197C481.626 100.855 479.877 101.027 478.19 100.691C476.504 100.355 474.954 99.5264 473.738 98.3096C472.523 97.0928 471.695 95.5426 471.36 93.8553C471.025 92.168 471.198 90.4193 471.857 88.8304C472.516 87.2415 473.632 85.8838 475.063 84.9289C476.493 83.9741 478.175 83.4651 479.895 83.4663C482.2 83.4679 484.41 84.3848 486.039 86.0155C487.669 87.6462 488.584 89.8571 488.584 92.1624V92.1624Z" fill="#EDD946"/>
<path d="M834.757 84.3548C834.757 86.0748 834.247 87.7562 833.292 89.1863C832.336 90.6164 830.978 91.731 829.389 92.3892C827.8 93.0474 826.052 93.2196 824.365 92.8841C822.679 92.5486 821.13 91.7202 819.914 90.5041C818.697 89.2879 817.869 87.7384 817.534 86.0515C817.198 84.3646 817.37 82.6159 818.029 81.0269C818.687 79.4379 819.801 78.0798 821.231 77.1242C822.661 76.1687 824.342 75.6587 826.062 75.6587C827.203 75.6587 828.334 75.8836 829.389 76.3206C830.444 76.7577 831.403 77.398 832.21 78.2055C833.017 79.0131 833.658 79.9718 834.095 81.0269C834.532 82.082 834.757 83.2128 834.757 84.3548V84.3548Z" fill="#EDD946"/>
<path d="M934.93 121.968C934.93 123.688 934.42 125.369 933.464 126.8C932.508 128.23 931.15 129.345 929.561 130.003C927.972 130.661 926.223 130.833 924.536 130.497C922.849 130.161 921.3 129.332 920.084 128.115C918.869 126.898 918.041 125.348 917.706 123.661C917.371 121.973 917.544 120.225 918.203 118.636C918.862 117.047 919.978 115.689 921.408 114.734C922.839 113.779 924.521 113.27 926.241 113.271C927.382 113.271 928.513 113.497 929.567 113.934C930.622 114.371 931.58 115.011 932.387 115.819C933.194 116.627 933.834 117.585 934.27 118.64C934.706 119.695 934.931 120.826 934.93 121.968V121.968Z" fill="#EDD946"/>
<path d="M570.572 325.084C570.573 326.805 570.065 328.486 569.11 329.917C568.155 331.348 566.798 332.464 565.209 333.123C563.62 333.782 561.872 333.955 560.185 333.62C558.498 333.285 556.948 332.458 555.731 331.242C554.514 330.026 553.686 328.476 553.35 326.789C553.014 325.102 553.186 323.353 553.844 321.764C554.501 320.174 555.616 318.816 557.046 317.86C558.476 316.904 560.157 316.394 561.877 316.394C563.019 316.393 564.149 316.618 565.204 317.054C566.259 317.49 567.218 318.13 568.025 318.937C568.833 319.744 569.473 320.703 569.91 321.757C570.347 322.812 570.572 323.943 570.572 325.084V325.084Z" fill="#F26B6C"/>
<path d="M546.26 57.9169C551.063 57.9169 554.956 54.0235 554.956 49.2207C554.956 44.4179 551.063 40.5244 546.26 40.5244C541.458 40.5244 537.565 44.4179 537.565 49.2207C537.565 54.0235 541.458 57.9169 546.26 57.9169Z" fill="#61388A"/>
<path d="M873.627 86.0199C878.429 86.0199 882.322 82.1265 882.322 77.3237C882.322 72.5209 878.429 68.6274 873.627 68.6274C868.825 68.6274 864.932 72.5209 864.932 77.3237C864.932 82.1265 868.825 86.0199 873.627 86.0199Z" fill="#61388A"/>
<path d="M413.992 298.086C418.795 298.086 422.688 294.193 422.688 289.39C422.688 284.587 418.795 280.694 413.992 280.694C409.19 280.694 405.297 284.587 405.297 289.39C405.297 294.193 409.19 298.086 413.992 298.086Z" fill="#48BEA2"/>
<path d="M845.861 164.096L845.202 161.465C845.387 161.417 864.12 156.556 868.261 145.631C869.18 143.162 869.312 140.47 868.638 137.923C862.047 142.232 853.657 143.815 845.621 139.302C839.467 135.844 836.315 131.199 836.974 126.56C837.573 122.545 840.953 119.248 845.645 118.169C851.608 116.785 860.489 118.985 867.542 129.329C868.456 130.675 869.257 132.094 869.939 133.572C871.176 132.5 872.321 131.325 873.36 130.06C880.084 121.873 883.146 109.257 874.834 99.5423L876.896 97.7803C886.178 108.628 882.655 123.012 875.458 131.78C874.116 133.414 872.61 134.906 870.963 136.233C872.086 139.612 872.018 143.273 870.771 146.608C866.151 158.846 846.688 163.892 845.861 164.096ZM849.013 120.495C848.088 120.492 847.165 120.594 846.262 120.801C842.667 121.634 840.072 124.049 839.671 126.938C839.179 130.414 841.834 134.058 846.963 136.934C854.568 141.202 862.065 139.272 867.769 135.286C867.101 133.728 866.277 132.24 865.312 130.845C860.105 123.174 853.879 120.495 849.013 120.495Z" fill="#D84C53"/>
<path d="M501.083 296.153C492.094 296.153 483.837 290.819 478.881 284.292C477.6 282.612 476.496 280.804 475.585 278.898C472.039 279.211 468.492 278.299 465.536 276.315C454.695 268.961 454.288 248.86 454.276 248.009L456.99 247.967C456.99 248.159 457.392 267.511 467.064 274.068C469.257 275.52 471.841 276.269 474.471 276.213C471.804 268.794 472.205 260.277 478.45 253.499C483.244 248.309 488.481 246.307 492.831 248.033C496.601 249.519 499.022 253.594 498.998 258.413C498.968 264.538 494.767 272.671 483.082 277.136C481.561 277.726 479.993 278.187 478.396 278.515C479.15 279.968 480.028 281.354 481.02 282.656C487.432 291.089 498.998 296.986 510.383 291.148L511.624 293.546C508.371 295.25 504.755 296.144 501.083 296.153V296.153ZM489.608 250.142C486.779 250.142 483.549 251.94 480.421 255.339C474.513 261.751 474.65 269.501 477.221 275.967C478.891 275.674 480.529 275.219 482.111 274.607C492.514 270.627 496.253 263.627 496.277 258.425C496.277 254.733 494.551 251.653 491.831 250.586C491.125 250.297 490.37 250.146 489.608 250.142V250.142Z" fill="#F8A33E"/>
<path d="M838.461 244.728L838.407 242.019C838.593 242.019 857.307 241.509 863.695 231.992C865.889 228.72 866.374 224.674 865.151 219.933C855.492 221.917 844.028 219.604 837.778 211.663C833.242 205.891 834.099 202.073 835.015 200.317C836.454 197.561 839.851 196.056 844.07 196.29C851.171 196.686 861.352 202.062 866.686 215.894C866.787 216.158 866.889 216.428 866.985 216.691C868.471 216.247 869.912 215.663 871.288 214.947C876.369 212.286 879.539 208.306 880.612 203.452C876.016 203.026 871.36 200.066 866.716 194.606C859.525 186.167 856.642 178.939 858.793 174.786C859.836 172.772 861.957 171.747 864.6 171.987C870.443 172.515 878.545 178.981 882.518 191.927C883.417 194.726 883.822 197.661 883.716 200.599C894.646 198.406 901.214 178.322 901.28 178.118L903.863 178.951C903.581 179.838 896.738 200.761 884.237 203.26C883.956 203.314 883.674 203.362 883.387 203.398C882.278 209.301 878.593 214.186 872.564 217.35C871.031 218.143 869.426 218.787 867.77 219.274C869.196 224.782 868.579 229.559 865.931 233.508C858.77 244.2 839.288 244.71 838.461 244.728ZM843.195 198.975C840.409 198.975 838.281 199.922 837.418 201.57C836.358 203.608 837.245 206.599 839.905 209.961C845.448 217.003 855.659 219.059 864.337 217.332C864.283 217.171 864.217 217.003 864.157 216.841C859.597 205.028 850.71 199.353 843.92 198.975C843.675 198.981 843.435 198.975 843.195 198.975ZM863.845 174.666C863.319 174.618 862.791 174.722 862.322 174.964C861.852 175.206 861.462 175.576 861.197 176.033C859.968 178.43 861.31 184.076 868.777 192.85C872.972 197.782 877.076 200.431 880.983 200.755C881.118 198.036 880.761 195.316 879.929 192.724C876.076 180.174 868.507 175.062 864.349 174.69C864.193 174.678 864.049 174.666 863.845 174.666Z" fill="#48BEA2"/>
<path d="M384 179.671L386.397 178.424C386.487 178.598 395.152 195.206 406.508 196.752C410.409 197.285 414.256 195.949 417.977 192.766C411.985 184.975 408.989 173.636 413.393 164.538C416.587 157.945 420.392 157.028 422.382 157.076C425.492 157.16 428.332 159.552 429.974 163.447C432.731 169.998 432.371 181.511 422.286 192.377C422.094 192.587 421.896 192.79 421.687 192.976C422.743 194.113 423.901 195.152 425.144 196.08C429.765 199.479 434.732 200.576 439.568 199.407C437.932 195.092 438.549 189.608 441.414 183.039C445.842 172.851 451.062 167.109 455.742 167.217C458.013 167.277 459.859 168.733 460.806 171.208C462.897 176.698 460.644 186.791 450.756 196.068C448.631 198.098 446.169 199.742 443.481 200.929C450.253 209.793 471.178 206.881 471.388 206.851L471.778 209.536C470.855 209.667 449.054 212.7 441.324 202.571C441.15 202.338 440.982 202.104 440.821 201.864C435.032 203.458 429.003 202.283 423.538 198.268C422.159 197.245 420.881 196.094 419.721 194.828C415.395 198.532 410.834 200.072 406.124 199.425C393.39 197.693 384.378 180.414 384 179.671ZM427.182 163.843C425.983 161.337 424.186 159.839 422.316 159.791C420.021 159.731 417.726 161.835 415.85 165.719C411.955 173.786 414.592 183.86 419.949 190.891L420.308 190.507C428.926 181.229 430.118 170.729 427.499 164.478C427.386 164.28 427.284 164.088 427.206 163.855L427.182 163.843ZM458.085 171.73C457.901 171.231 457.577 170.797 457.151 170.478C456.726 170.159 456.218 169.969 455.688 169.932C453.015 169.872 448.497 173.564 443.913 184.124C441.318 190.063 440.737 194.912 442.163 198.562C444.666 197.49 446.955 195.973 448.916 194.085C458.504 185.095 459.769 176.069 458.283 172.179C458.229 172.054 458.163 171.88 458.085 171.742V171.73Z" fill="#69A9DC"/>
</g>
</g>
<rect x="36.0645" y="231.722" width="349.283" height="164.113" rx="82.0567" transform="rotate(-37.9451 36.0645 231.722)" fill="#D55A5A"/>
<path d="M170.701 269.005C168.621 270.632 166.892 271.489 165.514 271.577C164.098 271.617 162.908 271.215 161.943 270.371C160.977 269.526 160.07 268.56 159.22 267.473L130.444 230.679C129.631 229.639 128.949 228.573 128.399 227.48C127.849 226.387 127.783 225.182 128.2 223.865C128.665 222.511 129.961 221.003 132.087 219.34C134.167 217.713 135.788 216.864 136.951 216.793C138.114 216.721 139.316 216.847 140.559 217.17L176.912 227.129L160.999 206.783C160.186 205.743 159.505 204.677 158.954 203.583C158.451 202.453 158.409 201.23 158.826 199.913C159.244 198.597 160.516 197.107 162.643 195.443C164.817 193.743 166.588 192.891 167.956 192.887C169.335 192.799 170.507 193.178 171.472 194.023C172.437 194.867 173.345 195.833 174.195 196.92L202.804 233.501C203.617 234.541 204.317 235.631 204.904 236.772C205.492 237.912 205.595 239.164 205.214 240.528C204.797 241.845 203.501 243.353 201.327 245.054C199.72 246.31 198.38 247.13 197.308 247.511C196.32 247.903 195.246 247.943 194.088 247.63L156.764 237.745L172.178 257.453C172.991 258.493 173.691 259.583 174.278 260.723C174.865 261.864 174.969 263.116 174.588 264.48C174.171 265.797 172.875 267.305 170.701 269.005ZM218.974 231.252C216.847 232.916 215.095 233.791 213.716 233.879C212.301 233.92 211.11 233.518 210.145 232.673C209.143 231.781 208.235 230.815 207.422 229.776L178.757 193.123C176.835 190.666 175.996 188.618 176.239 186.981C176.492 185.259 177.871 183.419 180.376 181.46L206.323 161.168C207.41 160.318 208.5 159.617 209.594 159.067C210.734 158.48 211.962 158.395 213.279 158.813C214.643 159.193 216.175 160.471 217.876 162.645C219.539 164.771 220.391 166.543 220.431 167.958C220.519 169.337 220.141 170.508 219.296 171.474C218.452 172.439 217.486 173.347 216.399 174.197L196.832 189.499L201.766 195.809L214.882 185.552C215.969 184.702 217.012 184.038 218.01 183.562C218.972 183.039 220.008 182.952 221.12 183.301C222.231 183.651 223.526 184.771 225.004 186.661C226.409 188.457 227.165 189.96 227.274 191.171C227.345 192.333 226.988 193.337 226.201 194.181C225.413 195.025 224.476 195.872 223.389 196.722L210.416 206.868L215.35 213.178L234.988 197.82C236.075 196.97 237.165 196.27 238.258 195.719C239.398 195.132 240.627 195.047 241.944 195.465C243.308 195.845 244.84 197.123 246.54 199.297C248.203 201.424 249.055 203.195 249.096 204.61C249.184 205.989 248.805 207.161 247.961 208.126C247.116 209.091 246.15 209.999 245.063 210.849L218.974 231.252ZM273.049 188.848C271.537 190.031 270.115 190.648 268.784 190.698C267.452 190.749 266.321 190.568 265.388 190.155C264.418 189.694 263.794 189.383 263.515 189.221L222.145 162.619C219.588 160.811 218.102 159.154 217.687 157.65C217.283 156.062 217.996 153.905 219.825 151.18C221.025 149.403 222.14 148.15 223.17 147.421C224.199 146.692 225.341 146.447 226.594 146.686C227.847 146.925 229.362 147.644 231.138 148.845L255.366 164.63L244.602 138.887C244.374 138.303 244.13 137.504 243.869 136.489C243.656 135.437 243.753 134.295 244.16 133.062C244.53 131.783 245.519 130.514 247.126 129.258C248.922 127.853 250.504 127.149 251.872 127.145C253.287 127.105 254.456 127.333 255.379 127.831C256.301 128.328 256.981 128.71 257.418 128.978L279.865 145.699L270.272 118.24C269.572 116.273 269.233 114.672 269.256 113.435C269.29 112.114 269.789 111 270.755 110.092C271.721 109.184 273.229 108.386 275.28 107.696C277.462 106.98 279.184 106.699 280.448 106.854C281.674 106.961 282.675 107.511 283.452 108.503C284.275 109.459 285.06 110.901 285.808 112.831L301.727 159.336C301.854 159.694 302.006 160.375 302.182 161.38C302.406 162.347 302.332 163.471 301.962 164.751C301.592 166.03 300.603 167.299 298.996 168.555C297.389 169.812 295.86 170.437 294.407 170.431C292.918 170.377 291.688 170.119 290.719 169.659C289.713 169.151 289.13 168.845 288.972 168.74L265.231 152.116L275.589 179.093C275.726 179.366 275.92 180.052 276.17 181.151C276.384 182.203 276.318 183.435 275.975 184.846C275.679 186.22 274.703 187.554 273.049 188.848ZM314.908 128.233C312.781 129.897 311.047 130.796 309.705 130.931C308.364 131.066 307.266 130.782 306.412 130.079C305.52 129.329 304.705 128.482 303.966 127.536L287.61 106.623C286.87 105.677 286.244 104.682 285.731 103.636C285.218 102.59 285.188 101.432 285.643 100.163C286.06 98.8463 287.356 97.3378 289.53 95.6375C291.704 93.9372 293.457 93.0616 294.788 93.0107C296.13 92.8756 297.265 93.2067 298.193 94.0041C299.084 94.7543 299.899 95.602 300.639 96.5472L316.995 117.461C317.734 118.406 318.36 119.402 318.873 120.448C319.35 121.446 319.361 122.58 318.906 123.85C318.415 125.072 317.082 126.533 314.908 128.233ZM328.547 145.673C325.806 147.817 323.58 148.72 321.869 148.383C320.12 147.998 318.285 146.577 316.363 144.119C315.55 143.079 314.831 141.966 314.207 140.778C313.63 139.553 313.556 138.241 313.984 136.84C314.374 135.392 315.704 133.78 317.973 132.006C320.761 129.825 322.988 128.922 324.651 129.297C326.315 129.671 328.127 131.111 330.086 133.616C330.899 134.656 331.618 135.769 332.242 136.957C332.866 138.144 332.983 139.462 332.592 140.911C332.164 142.312 330.816 143.899 328.547 145.673Z" fill="white"/>
<defs>
<clipPath id="clip0_4861_615">
<rect width="889.087" height="343" fill="white" transform="translate(31 17)"/>
</clipPath>
<clipPath id="clip1_4861_615">
<rect width="557" height="717" fill="white" transform="translate(384 -87)"/>
</clipPath>
</defs>
</svg>
