<svg width="384" height="581" viewBox="0 0 384 581" fill="none" xmlns="http://www.w3.org/2000/svg">
<g clip-path="url(#clip0_3768_607)">
<path d="M54.5195 269.85C66.1595 235.72 129.63 182.25 204.43 182.58C264.67 182.84 320.18 217.9 348.67 273.14L54.5195 269.85Z" fill="#603914"/>
<path d="M3.7401 248.35C36.6001 176.86 158.88 177.58 195.1 177.78C242.65 178.04 340.04 178.57 373.57 241.57C388.2 269 380.17 313.4 364.12 402.12C351.61 471.31 344.89 506.43 323.36 529.85C286.02 570.43 232.07 572.27 195.85 573.52C158.69 574.83 96.1501 576.94 56.6401 533.52C46.6401 522.67 38.6402 509.31 17.8102 392.7C-4.21983 269.33 -0.0499012 256.63 3.7401 248.35Z" fill="#C4CED9"/>
<path d="M3.1801 248.02C9.01142 235.615 17.5551 224.679 28.1801 216.02C38.4501 207.21 50.3901 200.83 62.5301 195.3C87.0401 184.65 113.25 179.06 139.44 175.7C165.63 172.34 192.22 171.89 218.54 172.35C231.812 172.501 245.065 173.379 258.24 174.98C271.562 176.435 284.739 179.008 297.63 182.67C310.761 186.214 323.374 191.455 335.15 198.26C346.98 205.17 358.24 213.78 366.71 225.16C368.984 227.879 370.993 230.809 372.71 233.91C374.52 237 376.51 239.83 377.81 243.31C380.568 249.986 382.311 257.038 382.98 264.23C384.41 278.44 383.23 292.44 381.73 306.23C378.44 333.85 373.52 361.08 368.92 388.37C363.92 415.6 360.2 443.03 354.17 470.19C351.17 483.81 347.51 497.42 341.54 510.44C338.522 516.945 334.836 523.118 330.54 528.86C328.344 531.673 325.972 534.345 323.44 536.86C321.048 539.432 318.493 541.847 315.79 544.09C294.58 562.57 267.79 572.31 241.3 576.25C228.125 578.204 214.851 579.412 201.54 579.87C188.4 580.46 175.21 581.05 161.84 580.73C135.2 580.07 107.64 575.66 82.8401 562.31C70.322 555.44 59.1436 546.372 49.8401 535.54C44.8401 529.54 41.6201 522.32 39.1301 515.61C36.7168 508.912 34.6803 502.085 33.0301 495.16C26.1901 467.93 21.7701 440.57 17.4801 413.21C13.1901 385.85 9.26007 358.42 5.90007 330.87C4.29007 317.12 2.47003 303.37 1.36003 289.49C0.610029 282.59 0.0501467 275.68 -0.0198533 268.71C-0.0898533 261.74 0.0700979 254.46 3.1801 248.02ZM4.3101 248.61C1.4401 254.73 1.44004 261.83 1.50004 268.61C1.56004 275.39 2.19003 282.35 2.99003 289.26C4.68003 302.94 6.61014 316.68 9.10014 330.26C13.9501 357.43 19.4901 384.52 25.3401 411.55C31.1901 438.58 37.1601 465.49 44.3401 491.73C46.2101 498.24 48.2001 504.73 50.5601 510.73C52.9201 516.73 55.5601 522.37 59.2701 526.73C67.6261 536.093 77.5812 543.894 88.6701 549.77C110.83 561.77 136.47 565.89 161.98 566.94C174.8 567.53 187.81 567.14 200.88 566.74C213.783 566.529 226.664 565.585 239.46 563.91C264.72 560.43 289.56 552.21 309.46 535.83C311.994 533.853 314.384 531.698 316.61 529.38C318.973 527.206 321.179 524.867 323.21 522.38C327.323 517.393 330.871 511.967 333.79 506.2C339.79 494.5 343.87 481.48 347.35 468.26C354.08 441.75 359.35 414.52 364.41 387.36C369.47 360.2 374.73 333.03 377.54 305.6C378.78 291.92 379.54 278.11 377.73 264.76C376.861 258.22 374.992 251.853 372.19 245.88C370.94 242.88 368.89 240.29 367.19 237.53C365.522 234.724 363.561 232.103 361.34 229.71C353.13 219.58 342.34 212.08 331.04 206.16C325.44 203 319.4 200.83 313.49 198.4C307.32 196.49 301.29 194.4 295.01 193.01C270.06 186.69 244.17 184.65 218.22 183.67C192.14 183.01 166.07 182.02 140.12 183.67C114.17 185.32 88.2201 189.26 63.6301 198.27C51.2248 202.752 39.5949 209.142 29.1601 217.21C18.6864 225.74 10.205 236.457 4.3101 248.61Z" fill="black"/>
<path d="M5.02923 242.56C5.78923 203.89 116.369 168.7 208.409 171.4C281.409 173.5 378.349 200.53 380.159 236.77C381.969 273.01 288.489 315.3 205.659 319.58C110.669 324.38 4.28923 280.7 5.02923 242.56Z" fill="#C4CED9"/>
<path d="M3.11902 242.5C3.29623 237.729 4.80294 233.101 7.46912 229.14C9.96463 225.27 12.9946 221.772 16.4691 218.75C23.1291 212.5 30.8391 207.75 38.5591 203.16C54.1791 194.22 70.8591 187.64 87.7791 181.99C121.707 170.881 157.22 165.379 192.919 165.7C228.639 166.3 263.619 173.07 297.779 182.34C314.779 187.08 331.779 192.67 347.879 200.56C355.879 204.56 363.739 209.24 370.769 215.62C374.434 218.926 377.434 222.9 379.609 227.33C381.939 232.2 382.66 237.684 381.669 242.99C379.489 253.64 372.879 261.4 366.289 267.99C359.561 274.391 352.153 280.037 344.199 284.83C328.73 294.203 312.303 301.897 295.199 307.78C261.349 319.62 225.819 326.86 189.849 326.78C154.009 326.45 118.349 320.26 84.8491 307.5C68.0991 301.19 51.7391 293.69 36.5591 283.83C29.0891 278.83 21.6191 273.57 15.3391 266.93C12.0884 263.658 9.26281 259.989 6.92908 256.01C4.38401 251.968 3.0609 247.276 3.11902 242.5ZM4.36902 242.56C4.42902 251.7 10.2791 259.56 16.5691 265.65C23.0589 271.654 30.3398 276.741 38.2091 280.77C53.7791 288.99 70.3291 294.85 87.2091 299.32C120.939 307.94 155.419 313.07 189.829 312.8C224.397 312.433 258.707 306.802 291.579 296.1C307.999 290.64 324.249 284.26 339.429 275.84C346.96 271.663 354.101 266.82 360.769 261.37C367.179 255.85 373.089 249.2 375.089 241.57C377.089 233.94 373.159 225.99 367.179 219.87C361.199 213.75 353.809 208.75 346.089 204.68C330.589 196.46 313.789 190.86 296.869 186.59C279.88 182.419 262.59 179.584 245.159 178.11C227.847 176.469 210.444 176.005 193.069 176.72C158.351 178.101 123.824 182.548 89.889 190.01C72.889 193.89 56.039 198.89 40.109 206.26C32.0276 209.849 24.469 214.514 17.639 220.13C10.959 225.79 4.73902 233.35 4.36902 242.56Z" fill="black"/>
<path d="M44.6706 240.98C45.2306 213.49 129.611 188.43 199.811 190.34C255.561 191.85 329.431 211.06 330.811 236.84C332.191 262.62 260.941 292.7 197.671 295.77C125.271 299.25 44.1306 268.14 44.6706 240.98Z" fill="black" stroke="black" stroke-width="2.85" stroke-miterlimit="10"/>
<path d="M345.5 20.78C349.05 104.9 325.85 144.78 307.11 164.95C302.2 170.28 297.84 173.95 253.85 209.67L188.67 262.7C188.83 242.707 190.913 222.775 194.89 203.18C201.23 172.18 206.97 143.18 227.07 118.6C244.07 97.7501 255.56 99.4601 288.61 75.0601C309.719 59.3587 328.825 41.1295 345.5 20.78Z" fill="#C4CED9"/>
<path d="M345.5 20.7C347.25 47.01 346.19 73.18 340.71 98.84C335.24 124.29 324.53 149.35 306.23 167.63C296.9 176.44 286.89 183.94 277.12 191.97L247.62 215.58C227.89 231.23 208.62 247.58 189.12 263.46L187.75 264.58V262.7C187.57 236.59 191.36 210.48 197.08 185.23C199.83 172.53 203.08 159.84 207.98 147.67C212.775 135.566 219.614 124.376 228.2 114.59C236.61 104.53 248.05 98.1499 258.88 92.2899C269.792 86.2889 280.292 79.5673 290.31 72.1699C310.533 57.0821 329.04 39.8223 345.5 20.7ZM345.44 21.0299C329.83 40.9609 311.741 58.8185 291.61 74.1699C281.674 81.86 271.216 88.8502 260.31 95.09C249.42 101.27 238.6 107.19 230.57 116.92C222.29 126.26 215.88 137.38 210.96 149.08C206.04 160.78 202.82 173.35 199.96 185.98C197.1 198.61 194.36 211.24 192.56 224.06C190.714 236.896 189.672 249.834 189.44 262.8L188.08 262.08C207.68 246.23 227.53 230.77 246.88 214.66L276 190.52C285.59 182.36 295.61 174.6 304.57 165.92C321.86 147.64 332.76 123.5 338.57 98.4399C344.44 73.0699 345.57 46.7 345.44 20.98V21.0299Z" fill="black"/>
<path d="M345.5 20.78C321.61 63.2 295.04 107.2 265.67 152.13C239.78 191.72 213.95 228.48 188.67 262.68C206.09 249 230.67 229.34 259.8 204.87C306.72 165.48 313.68 156.99 318.11 151.07C331.38 132.85 352.29 94.18 345.5 20.78Z" fill="#96A5B2"/>
<path d="M345.441 20.98C334.441 42.16 322.171 63.2 309.911 83.86C297.651 104.52 285.021 125.16 271.761 145.22C258.501 165.28 244.881 185.08 231.061 204.68C217.061 224.14 203.431 243.94 189.241 263.21L188.131 262.03L246.491 213.75C266.031 197.84 285.201 181.26 303.741 164.16C308.291 159.82 312.841 155.41 316.501 150.41C320.265 145.328 323.658 139.981 326.651 134.41C332.64 123.04 337.217 110.981 340.281 98.5C346.501 73.27 346.871 46.63 345.441 20.98ZM345.501 20.6499C348.501 46.8899 348.241 73.27 342.451 98.98C336.601 124.3 325.341 149.49 305.861 166.73C287.321 184.16 267.861 200.33 248.241 216.12L189.061 263.34L184.141 267.22L187.941 262.16C202.251 242.95 216.561 223.75 230.011 203.82C243.461 183.89 256.701 163.9 269.581 143.57C282.461 123.24 295.471 103.06 308.101 82.5699L345.501 20.6499Z" fill="black"/>
<path d="M64.9795 0.130127C50.4695 82.9401 68.2095 125.82 84.1495 148.51C88.3095 154.51 92.1496 158.77 131 200.6C154.59 225.99 174.31 247.23 188.63 262.6C191.081 242.724 191.623 222.659 190.25 202.68C188 171.05 186.2 141.45 169.46 114.22C155.33 91.1401 143.76 91.1401 114.2 62.0701C95.3427 43.495 78.8147 22.6957 64.9795 0.130127Z" fill="#C4CED9"/>
<path d="M64.9796 0.329956C61.4896 25.78 59.1296 52.09 61.5596 77.87C63.9896 103.65 71.6296 129.11 86.4496 149.69C94.1596 159.62 103.06 168.83 111.53 178.24L137.22 206.39C154.34 225.2 171.95 243.39 189.22 261.96L187.79 262.49C189.29 249.61 189.958 236.646 189.79 223.68C189.73 210.68 188.48 197.84 187.42 184.88C186.36 171.92 184.62 159.16 181.33 146.73C178.04 134.3 173.11 122.46 166.14 112.01C159.49 101.22 149.53 93.72 139.57 86.01C129.596 78.2239 120.164 69.7676 111.34 60.7C93.3917 42.6213 77.8137 22.3356 64.9796 0.329956ZM64.9196 0C78.7331 21.3637 94.7946 41.1867 112.83 59.13C121.745 67.9516 131.247 76.1602 141.27 83.7C151.22 91.07 161.74 99.0899 168.72 110.27C175.882 121.226 181.18 133.293 184.4 145.98C187.63 158.68 189.19 171.77 190.31 184.72C192.67 210.57 193.05 237.01 189.43 262.79L189.19 264.63L188 263.32C170.77 244.64 153.84 225.7 136.36 207.32L110.22 179.63C101.57 170.29 92.6695 161.34 84.5795 151.28C68.8395 130.5 61.4896 104.12 59.4396 78.1399C57.3796 51.8899 59.7496 25.78 64.9196 0Z" fill="black"/>
<path d="M64.9802 0.130127C83.0902 45.6401 103.62 93.0601 126.84 141.93C147.25 184.93 168.03 225.13 188.63 262.69C173.2 246.57 151.35 223.49 125.78 195.01C84.4602 149.1 78.6702 139.7 75.1202 133.18C64.2302 113.19 48.6102 71.8201 64.9802 0.130127Z" fill="#96A5B2"/>
<path d="M64.9695 0L93.9095 66.8199C103.679 88.9899 113.909 110.89 124.029 132.82C134.149 154.75 144.499 176.63 155.329 198.27C165.969 219.97 177.609 241.08 189.329 262.19L192.439 267.78L188.089 263.18L135.69 207.74C118.26 189.19 101.139 170.31 85.0895 150.32C68.0895 130.46 60.2595 103.89 57.7695 77.9099C55.3295 51.6999 58.5095 25.52 64.9695 0ZM64.9695 0.329956C60.1795 25.58 57.0695 51.96 59.9695 77.74C61.3287 90.5712 64.2745 103.184 68.7395 115.29C70.9732 121.271 73.623 127.089 76.6695 132.7C79.6695 138.23 83.5795 143.23 87.4995 148.23C103.61 167.89 120.419 187.1 137.719 205.71L189.179 262.07L187.939 263.07C176.429 241.89 165.469 220.32 154.149 198.94C143.069 177.5 132.149 155.94 121.659 134.09C111.169 112.24 101.439 90.03 91.9795 67.73C82.5195 45.43 73.1295 22.89 64.9695 0.329956Z" fill="black"/>
<path d="M161.09 465.16L214.64 457.12" stroke="#231F20" stroke-width="4.18" stroke-miterlimit="10" stroke-linecap="round"/>
<path d="M110.6 381.11C110.6 381.11 130.54 359.75 156.89 377.55" stroke="#231F20" stroke-width="4.18" stroke-miterlimit="10" stroke-linecap="round"/>
<path d="M274.671 381.11C274.671 381.11 254.731 359.75 228.381 377.55" stroke="#231F20" stroke-width="4.18" stroke-miterlimit="10" stroke-linecap="round"/>
<path d="M140.921 448C155.849 448 167.951 435.898 167.951 420.97C167.951 406.042 155.849 393.94 140.921 393.94C125.992 393.94 113.891 406.042 113.891 420.97C113.891 435.898 125.992 448 140.921 448Z" fill="#F7F8E2"/>
<path d="M244.62 448C259.548 448 271.65 435.898 271.65 420.97C271.65 406.042 259.548 393.94 244.62 393.94C229.692 393.94 217.59 406.042 217.59 420.97C217.59 435.898 229.692 448 244.62 448Z" fill="#F7F8E2"/>
<path d="M113.889 420.97C113.602 417.373 114.086 413.755 115.309 410.36C116.563 406.907 118.513 403.748 121.039 401.08C123.582 398.39 126.643 396.243 130.039 394.77C133.473 393.317 137.161 392.56 140.889 392.54C144.619 392.558 148.307 393.319 151.739 394.78C155.136 396.246 158.199 398.39 160.739 401.08C163.263 403.747 165.21 406.906 166.459 410.36C167.69 413.753 168.178 417.372 167.889 420.97C167.367 413.99 164.274 407.451 159.209 402.62C154.248 397.935 147.682 395.327 140.859 395.33C134.038 395.336 127.475 397.943 122.509 402.62C117.474 407.466 114.404 414 113.889 420.97Z" fill="#231F20"/>
<path d="M167.949 420.97C168.236 424.564 167.752 428.178 166.529 431.57C165.278 435.022 163.331 438.181 160.809 440.85C158.267 443.54 155.205 445.687 151.809 447.16C148.377 448.618 144.689 449.377 140.959 449.39C137.231 449.37 133.543 448.613 130.109 447.16C126.714 445.687 123.652 443.54 121.109 440.85C118.581 438.186 116.633 435.026 115.389 431.57C114.159 428.18 113.671 424.565 113.959 420.97C114.483 427.95 117.576 434.488 122.639 439.32C127.605 443.997 134.168 446.604 140.989 446.61C147.813 446.604 154.377 443.993 159.339 439.31C164.37 434.465 167.436 427.935 167.949 420.97Z" fill="#231F20"/>
<path d="M141.48 438.71C151.278 438.71 159.22 430.768 159.22 420.97C159.22 411.172 151.278 403.23 141.48 403.23C131.683 403.23 123.74 411.172 123.74 420.97C123.74 430.768 131.683 438.71 141.48 438.71Z" fill="#06080A"/>
<path d="M217.59 420.97C217.306 417.372 217.794 413.755 219.02 410.36C220.27 406.907 222.218 403.748 224.74 401.08C227.285 398.392 230.346 396.246 233.74 394.77C237.2 393.309 240.915 392.551 244.67 392.54C248.4 392.558 252.088 393.319 255.52 394.78C258.916 396.249 261.977 398.393 264.52 401.08C267.038 403.752 268.984 406.91 270.24 410.36C271.462 413.756 271.949 417.372 271.67 420.97C271.14 413.99 268.045 407.453 262.98 402.62C258.029 397.945 251.48 395.337 244.67 395.33C237.852 395.339 231.294 397.946 226.33 402.62C221.247 407.445 218.134 413.983 217.59 420.97Z" fill="#231F20"/>
<path d="M271.67 420.97C271.953 424.565 271.466 428.179 270.24 431.57C268.992 435.024 267.045 438.183 264.52 440.85C261.976 443.539 258.915 445.685 255.52 447.16C252.087 448.615 248.399 449.373 244.67 449.39C240.945 449.369 237.261 448.611 233.83 447.16C230.436 445.683 227.375 443.537 224.83 440.85C222.308 438.181 220.361 435.022 219.11 431.57C217.884 428.179 217.397 424.565 217.68 420.97C218.212 427.95 221.307 434.486 226.37 439.32C231.323 443.985 237.866 446.591 244.67 446.61C251.493 446.604 258.057 443.993 263.02 439.31C268.067 434.473 271.148 427.941 271.67 420.97Z" fill="#231F20"/>
<path d="M244.621 438.71C254.418 438.71 262.361 430.768 262.361 420.97C262.361 411.172 254.418 403.23 244.621 403.23C234.823 403.23 226.881 411.172 226.881 420.97C226.881 430.768 234.823 438.71 244.621 438.71Z" fill="#06080A"/>
</g>
<defs>
<clipPath id="clip0_3768_607">
<rect width="383.61" height="580.78" fill="white"/>
</clipPath>
</defs>
</svg>
