<svg width="209" height="290" viewBox="0 0 209 290" fill="none" xmlns="http://www.w3.org/2000/svg">
<g clip-path="url(#clip0_4754_595)">
<path d="M110.631 289.857C163.766 289.857 206.84 280.826 206.84 269.686C206.84 258.545 163.766 249.514 110.631 249.514C57.4965 249.514 14.4224 258.545 14.4224 269.686C14.4224 280.826 57.4965 289.857 110.631 289.857Z" fill="#A7A9AC"/>
<path d="M60.8565 0.988356C54.1055 3.51525 47.9792 7.46881 42.8955 12.5792C37.8117 17.6897 33.8904 23.8367 31.3989 30.6008C28.9074 37.3649 27.9045 44.5868 28.4586 51.7739C29.0126 58.9609 31.1107 65.9438 34.6095 72.2461C32.3478 71.7529 30.06 71.3877 27.7572 71.1522L23.1206 70.6799L20.9142 92.3214L25.5539 92.7937C32.8594 93.5334 39.8254 96.2494 45.7037 100.65C36.2192 107.968 22.5737 120.116 12.6324 135.726L11.9643 136.791L11.8617 136.959C11.6411 137.317 11.4204 137.68 11.1998 138.047L11.1128 138.193C10.889 138.566 10.6715 138.939 10.4508 139.318L10.3483 139.495C10.137 139.865 9.92255 140.241 9.71123 140.62L9.48748 141.021C9.32277 141.332 9.15807 141.624 8.99337 141.931L8.87839 142.149C8.6795 142.519 8.48683 142.892 8.29415 143.265L8.17296 143.498C7.98339 143.871 7.79694 144.243 7.61048 144.62L7.48928 144.865C7.30489 145.238 7.12465 145.614 6.94855 145.993L6.83046 146.242C6.65333 146.618 6.4793 147 6.31149 147.379L6.19651 147.631C6.02559 148.016 5.85778 148.398 5.69618 148.784L5.58741 149.039C5.42271 149.427 5.26111 149.819 5.10262 150.207L5.00318 150.456C4.84366 150.849 4.68828 151.247 4.53704 151.649L4.45003 151.882C4.29465 152.286 4.13926 152.693 3.99942 153.103L3.92173 153.324C3.77567 153.737 3.62961 154.154 3.48977 154.567L3.42451 154.769C3.28467 155.195 3.14482 155.624 3.0112 156.056L2.95837 156.223C2.82474 156.665 2.69111 157.109 2.5668 157.544L2.52641 157.69C2.39589 158.141 2.27158 158.594 2.14728 159.064L2.12242 159.166C2.00122 159.62 1.88935 160.077 1.77436 160.552L1.75261 160.636C1.64384 161.099 1.53818 161.568 1.44185 162.041L1.41388 162.178C1.31443 162.634 1.22432 163.11 1.13419 163.557L1.10001 163.728C1.0161 164.182 0.935305 164.636 0.860722 165.089L0.826538 165.291C0.755063 165.742 0.686694 166.196 0.621434 166.646L0.590361 166.87C0.528208 167.318 0.47227 167.768 0.419441 168.228L0.391468 168.458C0.341746 168.906 0.295136 169.356 0.254737 169.81L0.232981 170.052C0.19569 170.506 0.161505 170.96 0.130429 171.41L0.11489 171.659C0.0869216 172.116 0.0651709 172.573 0.0496328 173.033V173.275C0.0496328 173.738 0.0216623 174.207 0.0185547 174.658V174.9C0.0185547 175.366 0.0185547 175.832 0.0185547 176.305V176.532C0.0185547 177.004 0.0434155 177.464 0.0620612 177.958V178.166C0.0838146 178.651 0.111784 179.136 0.145968 179.627V179.81C0.18326 180.304 0.226768 180.798 0.273382 181.296L0.292027 181.454C0.341749 181.961 0.397687 182.47 0.462947 182.983L0.478486 183.095C0.546854 183.619 0.621432 184.144 0.702231 184.671V184.736C0.770598 185.162 0.842077 185.587 0.919768 186.016L0.985025 186.383C1.07825 186.893 1.18391 187.427 1.29579 187.996L1.31443 188.089C1.42631 188.609 1.5444 189.127 1.6687 189.643L1.85205 190.382C1.93285 190.693 2.01365 191.004 2.10377 191.349L2.15038 191.514C2.28712 192.017 2.43318 192.523 2.58234 193.03L2.64449 193.235C2.78434 193.698 2.9335 194.167 3.08267 194.624L3.19454 194.963C3.36236 195.46 3.53639 195.961 3.71663 196.464L3.79742 196.688C3.89998 196.971 4.00563 197.253 4.10819 197.558C4.10819 197.558 4.27911 198.005 4.35058 198.179L4.44381 198.419C4.51839 198.611 4.59608 198.801 4.66756 198.978L4.72971 199.133C4.83848 199.394 4.94724 199.659 5.04047 199.913L5.14302 200.156C5.3502 200.653 5.57084 201.155 5.80495 201.663L5.97898 202.042C6.18719 202.49 6.3985 202.94 6.61915 203.391L6.73413 203.624C6.98274 204.13 7.23756 204.64 7.50171 205.144L7.61048 205.358C7.77207 205.669 7.92124 205.98 8.10459 206.29L8.54587 207.092C8.6795 207.334 8.81624 207.577 8.9654 207.838L9.03687 207.965L9.43776 208.658L9.85729 209.367C10.0686 209.721 10.283 210.072 10.5099 210.439L10.8207 210.933C11.0858 211.347 11.3541 211.762 11.6255 212.176L11.7529 212.369C12.0357 212.801 12.3278 213.233 12.6169 213.658L12.8189 213.951C13.0892 214.348 13.3689 214.746 13.6517 215.141L14.0588 215.709C14.3012 216.045 14.5467 216.381 14.7891 216.704L14.8419 216.775C14.9849 216.968 15.1278 217.158 15.2677 217.338L15.3702 217.475C15.5194 217.677 15.681 217.875 15.8301 218.077L15.9917 218.289C16.1968 218.553 16.405 218.817 16.6133 219.075L16.75 219.249L17.2192 219.833C17.4865 220.163 17.7538 220.492 18.0272 220.822L18.1857 221.011C18.6021 221.518 19.031 222.021 19.4723 222.531L19.6867 222.779C20.0596 223.208 20.4387 223.637 20.8272 224.075L21.2529 224.544C21.5637 224.892 21.8745 225.237 22.1852 225.573L22.9435 226.322C23.1548 226.549 23.3692 226.773 23.5837 226.996L23.8323 227.254C24.0218 227.453 24.2145 227.652 24.4165 227.857L25.1126 228.566L25.3115 228.765L26.1754 229.625L26.7192 230.157C27.1336 230.571 27.5583 230.979 27.9934 231.381L28.3694 231.735C28.8324 232.174 29.3017 232.609 29.7709 233.041L30.1221 233.351C30.5168 233.712 30.9176 234.069 31.3279 234.436L32.083 235.104C32.3938 235.381 32.7045 235.657 33.0401 235.937L33.3509 236.204C33.3509 236.204 33.7642 236.562 33.9165 236.689L34.1806 236.916L34.9078 237.537L35.0228 237.634L36.0421 238.479L36.8439 239.132C37.3007 239.505 37.7606 239.874 38.2143 240.235L38.783 240.685C39.3486 241.13 39.9173 241.574 40.4984 242.022C62.721 259.098 82.6098 269.925 99.6613 274.201C100.594 274.434 101.507 274.649 102.405 274.838C109.674 276.392 116.573 276.759 122.916 275.923C123.96 275.786 125.007 275.612 126.023 275.41C128.909 274.838 131.733 273.986 134.454 272.868C135.023 272.635 135.592 272.386 136.145 272.131C136.698 271.877 137.232 271.619 137.773 271.342C138.314 271.066 138.827 270.792 139.327 270.506C139.582 270.363 139.834 270.22 140.082 270.074C140.576 269.785 141.07 269.484 141.552 269.176C142.946 268.289 144.294 267.333 145.592 266.311C145.999 266 146.416 265.652 146.835 265.307C147.034 265.139 147.233 264.971 147.426 264.804C148.526 263.871 149.629 262.827 150.71 261.74C151.35 261.093 152.003 260.41 152.646 259.707C154.756 257.401 156.556 255.136 158.001 253.315L158.333 252.895C158.868 252.221 159.309 251.671 159.716 251.177C160.338 250.437 160.788 249.934 161.167 249.545C161.258 249.455 161.348 249.371 161.432 249.297C161.515 249.222 161.559 249.188 161.593 249.163L162.355 248.834L162.867 248.287L163.023 248.2L163.175 248.122L163.333 248.047L163.535 247.957L163.846 247.833C164.02 247.761 164.204 247.693 164.381 247.625L164.71 247.507L165.083 247.376C165.938 247.065 166.948 246.755 168.026 246.419C177.106 243.557 192.3 238.765 201.52 222.018C207.716 210.768 210.094 195.783 208.587 177.495V177.442C208.546 176.933 208.5 176.42 208.45 175.888C207.269 163.212 204.242 148.663 199.456 132.64C189.624 99.7175 173.241 78.8778 150.766 70.6643C117.897 58.6658 81.2922 77.1903 64.2655 87.7967C62.2306 85.9456 60.0878 84.2168 57.8483 82.6194C65.5793 78.0535 71.9442 71.4976 76.2796 63.6349C81.7686 53.6536 83.6999 42.1022 81.7561 30.8783C79.8123 19.6543 74.109 9.42509 65.5832 1.87092L63.4762 0.00634766L60.8565 0.988356Z" fill="#231F20"/>
<path d="M159.608 244.936C151.071 248.631 132.991 307.266 43.3421 238.326C-51.6237 165.297 58.1623 97.5294 58.1623 97.5294C58.1623 97.5294 160.673 19.1925 194.963 133.994C227.332 242.342 166.106 238.283 159.608 244.936Z" fill="#D91F26"/>
<path d="M155.133 239.588C147.28 242.988 130.641 296.942 48.1526 233.503C-39.2337 166.314 61.7889 103.947 61.7889 103.947C61.7889 103.947 156.115 31.8654 187.666 137.49C217.453 237.202 161.115 233.466 155.133 239.588Z" fill="#F1594B"/>
<path d="M190.935 186.541C137.285 223.46 63.8647 209.898 26.943 156.251C22.9883 150.508 19.5473 144.428 16.6599 138.081C-0.149219 164.375 -5.6466 200.647 43.342 238.327C132.991 307.266 151.071 248.632 159.607 244.937C165.111 239.306 209.842 241.347 203.782 176.33C199.74 180.025 195.447 183.437 190.935 186.541Z" fill="#D91F26"/>
<path d="M148.277 102.138C148.939 94.403 140.556 87.3699 129.554 86.4286C118.551 85.4872 109.096 90.9942 108.434 98.7288C107.772 106.463 116.155 113.496 127.158 114.438C138.16 115.379 147.616 109.872 148.277 102.138Z" fill="#F6FAFE"/>
<path d="M160.475 122.496C164.506 122.496 167.774 119.228 167.774 115.196C167.774 111.165 164.506 107.896 160.475 107.896C156.443 107.896 153.175 111.165 153.175 115.196C153.175 119.228 156.443 122.496 160.475 122.496Z" fill="#F6FAFE"/>
<path d="M24.7177 144.093C26.8048 141.989 27.3102 139.106 25.8466 137.654C24.383 136.203 21.5045 136.732 19.4174 138.837C17.3303 140.942 16.8249 143.825 18.2886 145.276C19.7522 146.727 22.6306 146.198 24.7177 144.093Z" fill="#F6FAFE"/>
<path d="M91.3113 95.8638C93.0298 98.3499 88.704 108.13 79.5023 116.433C77.7988 117.971 75.9967 119.396 74.1075 120.7C72.5202 121.79 70.8738 122.791 69.1757 123.699C57.7956 129.802 46.5398 130.461 44.7685 127.888C42.9412 125.234 49.8681 117.226 60.6453 109.205C61.8386 108.313 63.0817 107.421 64.3744 106.538C66.6275 104.985 68.8525 103.568 71.003 102.287C81.1276 96.2584 89.6301 93.4336 91.3113 95.8638Z" fill="#D91F26"/>
<path d="M91.1901 100.047C86.2707 100.69 77.24 104.997 67.7835 111.508C58.327 118.018 51.0738 124.911 48.7151 129.274C54.3088 129.625 64.6479 127.207 74.1075 120.697C83.5671 114.187 89.515 105.404 91.1901 100.047Z" fill="#951B1E"/>
<path d="M33.7582 39.6998C32.3302 47.4138 32.921 55.366 35.4731 62.7844C38.0252 70.2027 42.4519 76.8352 48.3236 82.038L62.485 5.35742C55.1426 8.11998 48.6391 12.7338 43.6057 18.7511C38.5723 24.7684 35.1801 31.9848 33.7582 39.6998Z" fill="#9FCC3B"/>
<path d="M62.4849 5.35742L48.3235 82.038C55.6642 79.2727 62.166 74.6579 67.1989 68.641C72.2317 62.624 75.6248 55.409 77.0494 47.6952C78.474 39.9813 77.8818 32.0303 75.33 24.6126C72.7783 17.195 68.3537 10.5623 62.4849 5.35742Z" fill="#63B446"/>
<path d="M66.9568 31.5112C68.9065 31.5112 70.487 29.9307 70.487 27.9809C70.487 26.0312 68.9065 24.4507 66.9568 24.4507C65.0071 24.4507 63.4265 26.0312 63.4265 27.9809C63.4265 29.9307 65.0071 31.5112 66.9568 31.5112Z" fill="#F6FAFE"/>
<path d="M79.5023 116.433C77.7988 117.971 75.9967 119.397 74.1075 120.7C72.5202 121.79 70.8737 122.791 69.1757 123.699C66.8637 118.585 64.009 113.734 60.6608 109.23L60.6453 109.205C51.2074 96.6127 39.5601 89.5305 26.0264 88.1569L27.2943 75.7886C44.324 77.5195 59.3929 86.6248 70.8756 102.119C70.916 102.175 70.9564 102.234 70.9999 102.287C74.2581 106.734 77.104 111.469 79.5023 116.433Z" fill="#63B446"/>
<path d="M8.9749 153.1C-0.363499 177.395 3.11394 207.387 43.3421 238.327C132.991 307.266 151.071 248.632 159.608 244.937C12.6015 253.016 8.9749 153.1 8.9749 153.1Z" fill="#951B1E"/>
<path d="M176.246 155.251C183.508 173.896 188.204 218.363 169.946 221.682C169.946 221.682 152.746 225.815 155.518 210.805C157.361 200.808 149.595 181.33 144.19 169.421C142.906 166.59 142.687 163.39 143.573 160.41C144.459 157.43 146.391 154.869 149.014 153.199L156.161 148.659C157.867 147.574 159.792 146.881 161.798 146.63C163.804 146.379 165.841 146.575 167.762 147.206C169.683 147.836 171.44 148.885 172.907 150.276C174.374 151.667 175.514 153.366 176.246 155.251Z" fill="#F16465"/>
<path d="M114.646 127.512C81.4663 157.687 58.0597 163.026 44.2184 162.15C36.6606 161.671 32.4312 153.225 36.6171 146.922L36.8253 146.612C37.8541 145.07 39.2605 143.818 40.9105 142.975C42.5605 142.132 44.3991 141.726 46.2507 141.795C54.6413 142.074 72.42 138.376 101.097 112.244C102.107 111.324 103.292 110.616 104.58 110.162C105.869 109.708 107.236 109.517 108.6 109.602C109.964 109.687 111.297 110.045 112.52 110.654C113.742 111.264 114.83 112.113 115.719 113.152C119.348 117.372 118.758 123.77 114.646 127.512Z" fill="#F16465"/>
<path d="M31.1163 163.246C35.2074 157.072 35.0318 149.753 30.724 146.898C26.4163 144.044 19.6077 146.735 15.5165 152.909C11.4254 159.082 11.601 166.401 15.9088 169.256C20.2165 172.111 27.0252 169.42 31.1163 163.246Z" fill="#F6FAFE"/>
<path d="M110.631 289.857C163.766 289.857 206.84 280.826 206.84 269.686C206.84 258.545 163.766 249.514 110.631 249.514C57.4965 249.514 14.4224 258.545 14.4224 269.686C14.4224 280.826 57.4965 289.857 110.631 289.857Z" fill="#A7A9AC"/>
<path d="M60.8565 0.988356C54.1055 3.51525 47.9792 7.46881 42.8955 12.5792C37.8117 17.6897 33.8904 23.8367 31.3989 30.6008C28.9074 37.3649 27.9045 44.5868 28.4586 51.7739C29.0126 58.9609 31.1107 65.9438 34.6095 72.2461C32.3478 71.7529 30.06 71.3877 27.7572 71.1522L23.1206 70.6799L20.9142 92.3214L25.5539 92.7937C32.8594 93.5334 39.8254 96.2494 45.7037 100.65C36.2192 107.968 22.5737 120.116 12.6324 135.726L11.9643 136.791L11.8617 136.959C11.6411 137.317 11.4204 137.68 11.1998 138.047L11.1128 138.193C10.889 138.566 10.6715 138.939 10.4508 139.318L10.3483 139.495C10.137 139.865 9.92255 140.241 9.71123 140.62L9.48748 141.021C9.32277 141.332 9.15807 141.624 8.99337 141.931L8.87839 142.149C8.6795 142.519 8.48683 142.892 8.29415 143.265L8.17296 143.498C7.98339 143.871 7.79694 144.243 7.61048 144.62L7.48928 144.865C7.30489 145.238 7.12465 145.614 6.94855 145.993L6.83046 146.242C6.65333 146.618 6.4793 147 6.31149 147.379L6.19651 147.631C6.02559 148.016 5.85778 148.398 5.69618 148.784L5.58741 149.039C5.42271 149.427 5.26111 149.819 5.10262 150.207L5.00318 150.456C4.84366 150.849 4.68828 151.247 4.53704 151.649L4.45003 151.882C4.29465 152.286 4.13926 152.693 3.99942 153.103L3.92173 153.324C3.77567 153.737 3.62961 154.154 3.48977 154.567L3.42451 154.769C3.28467 155.195 3.14482 155.624 3.0112 156.056L2.95837 156.223C2.82474 156.665 2.69111 157.109 2.5668 157.544L2.52641 157.69C2.39589 158.141 2.27158 158.594 2.14728 159.064L2.12242 159.166C2.00122 159.62 1.88935 160.077 1.77436 160.552L1.75261 160.636C1.64384 161.099 1.53818 161.568 1.44185 162.041L1.41388 162.178C1.31443 162.634 1.22432 163.11 1.13419 163.557L1.10001 163.728C1.0161 164.182 0.935305 164.636 0.860722 165.089L0.826538 165.291C0.755063 165.742 0.686694 166.196 0.621434 166.646L0.590361 166.87C0.528208 167.318 0.47227 167.768 0.419441 168.228L0.391468 168.458C0.341746 168.906 0.295136 169.356 0.254737 169.81L0.232981 170.052C0.19569 170.506 0.161505 170.96 0.130429 171.41L0.11489 171.659C0.0869216 172.116 0.0651709 172.573 0.0496328 173.033V173.275C0.0496328 173.738 0.0216623 174.207 0.0185547 174.658V174.9C0.0185547 175.366 0.0185547 175.832 0.0185547 176.305V176.532C0.0185547 177.004 0.0434155 177.464 0.0620612 177.958V178.166C0.0838146 178.651 0.111784 179.136 0.145968 179.627V179.81C0.18326 180.304 0.226768 180.798 0.273382 181.296L0.292027 181.454C0.341749 181.961 0.397687 182.47 0.462947 182.983L0.478486 183.095C0.546854 183.619 0.621432 184.144 0.702231 184.671V184.736C0.770598 185.162 0.842077 185.587 0.919768 186.016L0.985025 186.383C1.07825 186.893 1.18391 187.427 1.29579 187.996L1.31443 188.089C1.42631 188.609 1.5444 189.127 1.6687 189.643L1.85205 190.382C1.93285 190.693 2.01365 191.004 2.10377 191.349L2.15038 191.514C2.28712 192.017 2.43318 192.523 2.58234 193.03L2.64449 193.235C2.78434 193.698 2.9335 194.167 3.08267 194.624L3.19454 194.963C3.36236 195.46 3.53639 195.961 3.71663 196.464L3.79742 196.688C3.89998 196.971 4.00563 197.253 4.10819 197.558C4.10819 197.558 4.27911 198.005 4.35058 198.179L4.44381 198.419C4.51839 198.611 4.59608 198.801 4.66756 198.978L4.72971 199.133C4.83848 199.394 4.94724 199.659 5.04047 199.913L5.14302 200.156C5.3502 200.653 5.57084 201.155 5.80495 201.663L5.97898 202.042C6.18719 202.49 6.3985 202.94 6.61915 203.391L6.73413 203.624C6.98274 204.13 7.23756 204.64 7.50171 205.144L7.61048 205.358C7.77207 205.669 7.92124 205.98 8.10459 206.29L8.54587 207.092C8.6795 207.334 8.81624 207.577 8.9654 207.838L9.03687 207.965L9.43776 208.658L9.85729 209.367C10.0686 209.721 10.283 210.072 10.5099 210.439L10.8207 210.933C11.0858 211.347 11.3541 211.762 11.6255 212.176L11.7529 212.369C12.0357 212.801 12.3278 213.233 12.6169 213.658L12.8189 213.951C13.0892 214.348 13.3689 214.746 13.6517 215.141L14.0588 215.709C14.3012 216.045 14.5467 216.381 14.7891 216.704L14.8419 216.775C14.9849 216.968 15.1278 217.158 15.2677 217.338L15.3702 217.475C15.5194 217.677 15.681 217.875 15.8301 218.077L15.9917 218.289C16.1968 218.553 16.405 218.817 16.6133 219.075L16.75 219.249L17.2192 219.833C17.4865 220.163 17.7538 220.492 18.0272 220.822L18.1857 221.011C18.6021 221.518 19.031 222.021 19.4723 222.531L19.6867 222.779C20.0596 223.208 20.4387 223.637 20.8272 224.075L21.2529 224.544C21.5637 224.892 21.8745 225.237 22.1852 225.573L22.9435 226.322C23.1548 226.549 23.3692 226.773 23.5837 226.996L23.8323 227.254C24.0218 227.453 24.2145 227.652 24.4165 227.857L25.1126 228.566L25.3115 228.765L26.1754 229.625L26.7192 230.157C27.1336 230.571 27.5583 230.979 27.9934 231.381L28.3694 231.735C28.8324 232.174 29.3017 232.609 29.7709 233.041L30.1221 233.351C30.5168 233.712 30.9176 234.069 31.3279 234.436L32.083 235.104C32.3938 235.381 32.7045 235.657 33.0401 235.937L33.3509 236.204C33.3509 236.204 33.7642 236.562 33.9165 236.689L34.1806 236.916L34.9078 237.537L35.0228 237.634L36.0421 238.479L36.8439 239.132C37.3007 239.505 37.7606 239.874 38.2143 240.235L38.783 240.685C39.3486 241.13 39.9173 241.574 40.4984 242.022C62.721 259.098 82.6098 269.925 99.6613 274.201C100.594 274.434 101.507 274.649 102.405 274.838C109.674 276.392 116.573 276.759 122.916 275.923C123.96 275.786 125.007 275.612 126.023 275.41C128.909 274.838 131.733 273.986 134.454 272.868C135.023 272.635 135.592 272.386 136.145 272.131C136.698 271.877 137.232 271.619 137.773 271.342C138.314 271.066 138.827 270.792 139.327 270.506C139.582 270.363 139.834 270.22 140.082 270.074C140.576 269.785 141.07 269.484 141.552 269.176C142.946 268.289 144.294 267.333 145.592 266.311C145.999 266 146.416 265.652 146.835 265.307C147.034 265.139 147.233 264.971 147.426 264.804C148.526 263.871 149.629 262.827 150.71 261.74C151.35 261.093 152.003 260.41 152.646 259.707C154.756 257.401 156.556 255.136 158.001 253.315L158.333 252.895C158.868 252.221 159.309 251.671 159.716 251.177C160.338 250.437 160.788 249.934 161.167 249.545C161.258 249.455 161.348 249.371 161.432 249.297C161.515 249.222 161.559 249.188 161.593 249.163L162.355 248.834L162.867 248.287L163.023 248.2L163.175 248.122L163.333 248.047L163.535 247.957L163.846 247.833C164.02 247.761 164.204 247.693 164.381 247.625L164.71 247.507L165.083 247.376C165.938 247.065 166.948 246.755 168.026 246.419C177.106 243.557 192.3 238.765 201.52 222.018C207.716 210.768 210.094 195.783 208.587 177.495V177.442C208.546 176.933 208.5 176.42 208.45 175.888C207.269 163.212 204.242 148.663 199.456 132.64C189.624 99.7175 173.241 78.8778 150.766 70.6643C117.897 58.6658 81.2922 77.1903 64.2655 87.7967C62.2306 85.9456 60.0878 84.2168 57.8483 82.6194C65.5793 78.0535 71.9442 71.4976 76.2796 63.6349C81.7686 53.6536 83.6999 42.1022 81.7561 30.8783C79.8123 19.6543 74.109 9.42509 65.5832 1.87092L63.4762 0.00634766L60.8565 0.988356Z" fill="#231F20"/>
<path d="M159.608 244.936C151.071 248.631 132.991 307.266 43.3421 238.326C-51.6237 165.297 58.1623 97.5294 58.1623 97.5294C58.1623 97.5294 160.673 19.1925 194.963 133.994C227.332 242.342 166.106 238.283 159.608 244.936Z" fill="#D91F26"/>
<path d="M155.133 239.588C147.28 242.988 130.641 296.942 48.1526 233.503C-39.2337 166.314 61.7889 103.947 61.7889 103.947C61.7889 103.947 156.115 31.8654 187.666 137.49C217.453 237.202 161.115 233.466 155.133 239.588Z" fill="#F1594B"/>
<path d="M190.935 186.541C137.285 223.46 63.8647 209.898 26.943 156.251C22.9883 150.508 19.5473 144.428 16.6599 138.081C-0.149219 164.375 -5.6466 200.647 43.342 238.327C132.991 307.266 151.071 248.632 159.607 244.937C165.111 239.306 209.842 241.347 203.782 176.33C199.74 180.025 195.447 183.437 190.935 186.541Z" fill="#D91F26"/>
<path d="M148.277 102.138C148.939 94.403 140.556 87.3699 129.554 86.4286C118.551 85.4872 109.096 90.9942 108.434 98.7288C107.772 106.463 116.155 113.496 127.158 114.438C138.16 115.379 147.616 109.872 148.277 102.138Z" fill="#F6FAFE"/>
<path d="M160.475 122.496C164.506 122.496 167.774 119.228 167.774 115.196C167.774 111.165 164.506 107.896 160.475 107.896C156.443 107.896 153.175 111.165 153.175 115.196C153.175 119.228 156.443 122.496 160.475 122.496Z" fill="#F6FAFE"/>
<path d="M24.7177 144.093C26.8048 141.989 27.3102 139.106 25.8466 137.654C24.383 136.203 21.5045 136.732 19.4174 138.837C17.3303 140.942 16.8249 143.825 18.2886 145.276C19.7522 146.727 22.6306 146.198 24.7177 144.093Z" fill="#F6FAFE"/>
<path d="M91.3113 95.8638C93.0298 98.3499 88.704 108.13 79.5023 116.433C77.7988 117.971 75.9967 119.396 74.1075 120.7C72.5202 121.79 70.8738 122.791 69.1757 123.699C57.7956 129.802 46.5398 130.461 44.7685 127.888C42.9412 125.234 49.8681 117.226 60.6453 109.205C61.8386 108.313 63.0817 107.421 64.3744 106.538C66.6275 104.985 68.8525 103.568 71.003 102.287C81.1276 96.2584 89.6301 93.4336 91.3113 95.8638Z" fill="#D91F26"/>
<path d="M91.1901 100.047C86.2707 100.69 77.24 104.997 67.7835 111.508C58.327 118.018 51.0738 124.911 48.7151 129.274C54.3088 129.625 64.6479 127.207 74.1075 120.697C83.5671 114.187 89.515 105.404 91.1901 100.047Z" fill="#951B1E"/>
<path d="M33.7582 39.6998C32.3302 47.4138 32.921 55.366 35.4731 62.7844C38.0252 70.2027 42.4519 76.8352 48.3236 82.038L62.485 5.35742C55.1426 8.11998 48.6391 12.7338 43.6057 18.7511C38.5723 24.7684 35.1801 31.9848 33.7582 39.6998Z" fill="#9FCC3B"/>
<path d="M62.4849 5.35742L48.3235 82.038C55.6642 79.2727 62.166 74.6579 67.1989 68.641C72.2317 62.624 75.6248 55.409 77.0494 47.6952C78.474 39.9813 77.8818 32.0303 75.33 24.6126C72.7783 17.195 68.3537 10.5623 62.4849 5.35742Z" fill="#63B446"/>
<path d="M66.9568 31.5112C68.9065 31.5112 70.487 29.9307 70.487 27.9809C70.487 26.0312 68.9065 24.4507 66.9568 24.4507C65.0071 24.4507 63.4265 26.0312 63.4265 27.9809C63.4265 29.9307 65.0071 31.5112 66.9568 31.5112Z" fill="#F6FAFE"/>
<path d="M79.5023 116.433C77.7988 117.971 75.9967 119.397 74.1075 120.7C72.5202 121.79 70.8737 122.791 69.1757 123.699C66.8637 118.585 64.009 113.734 60.6608 109.23L60.6453 109.205C51.2074 96.6127 39.5601 89.5305 26.0264 88.1569L27.2943 75.7886C44.324 77.5195 59.3929 86.6248 70.8756 102.119C70.916 102.175 70.9564 102.234 70.9999 102.287C74.2581 106.734 77.104 111.469 79.5023 116.433Z" fill="#63B446"/>
<path d="M8.9749 153.1C-0.363499 177.395 3.11394 207.387 43.3421 238.327C132.991 307.266 151.071 248.632 159.608 244.937C12.6015 253.016 8.9749 153.1 8.9749 153.1Z" fill="#951B1E"/>
<path d="M176.246 155.251C183.508 173.896 188.204 218.363 169.946 221.682C169.946 221.682 152.746 225.815 155.518 210.805C157.361 200.808 149.595 181.33 144.19 169.421C142.906 166.59 142.687 163.39 143.573 160.41C144.459 157.43 146.391 154.869 149.014 153.199L156.161 148.659C157.867 147.574 159.792 146.881 161.798 146.63C163.804 146.379 165.841 146.575 167.762 147.206C169.683 147.836 171.44 148.885 172.907 150.276C174.374 151.667 175.514 153.366 176.246 155.251Z" fill="#F16465"/>
<path d="M114.646 127.512C81.4663 157.687 58.0597 163.026 44.2184 162.15C36.6606 161.671 32.4312 153.225 36.6171 146.922L36.8253 146.612C37.8541 145.07 39.2605 143.818 40.9105 142.975C42.5605 142.132 44.3991 141.726 46.2507 141.795C54.6413 142.074 72.42 138.376 101.097 112.244C102.107 111.324 103.292 110.616 104.58 110.162C105.869 109.708 107.236 109.517 108.6 109.602C109.964 109.687 111.297 110.045 112.52 110.654C113.742 111.264 114.83 112.113 115.719 113.152C119.348 117.372 118.758 123.77 114.646 127.512Z" fill="#F16465"/>
<path d="M31.1163 163.246C35.2074 157.072 35.0318 149.753 30.724 146.898C26.4163 144.044 19.6077 146.735 15.5165 152.909C11.4254 159.082 11.601 166.401 15.9088 169.256C20.2165 172.111 27.0252 169.42 31.1163 163.246Z" fill="#F6FAFE"/>
<path d="M159.608 244.936C151.071 248.631 132.991 307.266 43.3421 238.326C-51.6237 165.297 58.1623 97.5294 58.1623 97.5294C58.1623 97.5294 160.673 19.1925 194.963 133.994C227.332 242.342 166.106 238.283 159.608 244.936Z" fill="#D91F26"/>
<path d="M155.133 239.588C147.28 242.988 130.641 296.942 48.1526 233.503C-39.2337 166.314 61.7889 103.947 61.7889 103.947C61.7889 103.947 156.115 31.8654 187.666 137.49C217.453 237.202 161.115 233.466 155.133 239.588Z" fill="#F1594B"/>
<path d="M190.935 186.541C137.285 223.46 63.8647 209.898 26.943 156.251C22.9883 150.508 19.5473 144.428 16.6599 138.081C-0.149219 164.375 -5.6466 200.647 43.342 238.327C132.991 307.266 151.071 248.632 159.607 244.937C165.111 239.306 209.842 241.347 203.782 176.33C199.74 180.025 195.447 183.437 190.935 186.541Z" fill="#D91F26"/>
<path d="M148.277 102.138C148.939 94.403 140.556 87.3699 129.554 86.4286C118.551 85.4872 109.096 90.9942 108.434 98.7288C107.772 106.463 116.155 113.496 127.158 114.438C138.16 115.379 147.616 109.872 148.277 102.138Z" fill="#F6FAFE"/>
<path d="M160.475 122.496C164.506 122.496 167.774 119.228 167.774 115.196C167.774 111.165 164.506 107.896 160.475 107.896C156.443 107.896 153.175 111.165 153.175 115.196C153.175 119.228 156.443 122.496 160.475 122.496Z" fill="#F6FAFE"/>
<path d="M24.7177 144.093C26.8048 141.989 27.3102 139.106 25.8466 137.654C24.383 136.203 21.5045 136.732 19.4174 138.837C17.3303 140.942 16.8249 143.825 18.2886 145.276C19.7522 146.727 22.6306 146.198 24.7177 144.093Z" fill="#F6FAFE"/>
<path d="M91.3113 95.8638C93.0298 98.3499 88.704 108.13 79.5023 116.433C77.7988 117.971 75.9967 119.396 74.1075 120.7C72.5202 121.79 70.8738 122.791 69.1757 123.699C57.7956 129.802 46.5398 130.461 44.7685 127.888C42.9412 125.234 49.8681 117.226 60.6453 109.205C61.8386 108.313 63.0817 107.421 64.3744 106.538C66.6275 104.985 68.8525 103.568 71.003 102.287C81.1276 96.2584 89.6301 93.4336 91.3113 95.8638Z" fill="#D91F26"/>
<path d="M91.1901 100.047C86.2707 100.69 77.24 104.997 67.7835 111.508C58.327 118.018 51.0738 124.911 48.7151 129.274C54.3088 129.625 64.6479 127.207 74.1075 120.697C83.5671 114.187 89.515 105.404 91.1901 100.047Z" fill="#951B1E"/>
<path d="M33.7582 39.6998C32.3302 47.4138 32.921 55.366 35.4731 62.7844C38.0252 70.2027 42.4519 76.8352 48.3236 82.038L62.485 5.35742C55.1426 8.11998 48.6391 12.7338 43.6057 18.7511C38.5723 24.7684 35.1801 31.9848 33.7582 39.6998Z" fill="#9FCC3B"/>
<path d="M62.4849 5.35742L48.3235 82.038C55.6642 79.2727 62.166 74.6579 67.1989 68.641C72.2317 62.624 75.6248 55.409 77.0494 47.6952C78.474 39.9813 77.8818 32.0303 75.33 24.6126C72.7783 17.195 68.3537 10.5623 62.4849 5.35742Z" fill="#63B446"/>
<path d="M66.9568 31.5112C68.9065 31.5112 70.487 29.9307 70.487 27.9809C70.487 26.0312 68.9065 24.4507 66.9568 24.4507C65.0071 24.4507 63.4265 26.0312 63.4265 27.9809C63.4265 29.9307 65.0071 31.5112 66.9568 31.5112Z" fill="#F6FAFE"/>
<path d="M79.5023 116.433C77.7988 117.971 75.9967 119.397 74.1075 120.7C72.5202 121.79 70.8737 122.791 69.1757 123.699C66.8637 118.585 64.009 113.734 60.6608 109.23L60.6453 109.205C51.2074 96.6127 39.5601 89.5305 26.0264 88.1569L27.2943 75.7886C44.324 77.5195 59.3929 86.6248 70.8756 102.119C70.916 102.175 70.9564 102.234 70.9999 102.287C74.2581 106.734 77.104 111.469 79.5023 116.433Z" fill="#63B446"/>
<path d="M8.9749 153.1C-0.363499 177.395 3.11394 207.387 43.3421 238.327C132.991 307.266 151.071 248.632 159.608 244.937C12.6015 253.016 8.9749 153.1 8.9749 153.1Z" fill="#951B1E"/>
<path d="M176.246 155.251C183.508 173.896 188.204 218.363 169.946 221.682C169.946 221.682 152.746 225.815 155.518 210.805C157.361 200.808 149.595 181.33 144.19 169.421C142.906 166.59 142.687 163.39 143.573 160.41C144.459 157.43 146.391 154.869 149.014 153.199L156.161 148.659C157.867 147.574 159.792 146.881 161.798 146.63C163.804 146.379 165.841 146.575 167.762 147.206C169.683 147.836 171.44 148.885 172.907 150.276C174.374 151.667 175.514 153.366 176.246 155.251Z" fill="#F16465"/>
<path d="M114.646 127.512C81.4663 157.687 58.0597 163.026 44.2184 162.15C36.6606 161.671 32.4312 153.225 36.6171 146.922L36.8253 146.612C37.8541 145.07 39.2605 143.818 40.9105 142.975C42.5605 142.132 44.3991 141.726 46.2507 141.795C54.6413 142.074 72.42 138.376 101.097 112.244C102.107 111.324 103.292 110.616 104.58 110.162C105.869 109.708 107.236 109.517 108.6 109.602C109.964 109.687 111.297 110.045 112.52 110.654C113.742 111.264 114.83 112.113 115.719 113.152C119.348 117.372 118.758 123.77 114.646 127.512Z" fill="#F16465"/>
<path d="M31.1163 163.246C35.2074 157.072 35.0318 149.753 30.724 146.898C26.4163 144.044 19.6077 146.735 15.5165 152.909C11.4254 159.082 11.601 166.401 15.9088 169.256C20.2165 172.111 27.0252 169.42 31.1163 163.246Z" fill="#F6FAFE"/>
</g>
<defs>
<clipPath id="clip0_4754_595">
<rect width="209" height="289.857" fill="white"/>
</clipPath>
</defs>
</svg>
