<svg width="626" height="966" viewBox="0 0 626 966" fill="none" xmlns="http://www.w3.org/2000/svg">
<g clip-path="url(#clip0_4342_660)">
<path d="M84.2902 631.93C72.9402 624.93 67.7603 613.02 77.9402 590.93C88.5302 567.98 104.55 578.42 104.55 578.42C95.9402 568.76 98.4003 557.18 112.98 536.91C127.56 516.64 137.42 528.52 137.42 528.52C133.55 515.72 140.34 505.66 161.3 492.87C180.03 481.46 186.18 502.32 187.3 506.87C186.65 503.33 185.43 489.38 202.75 475.44C222.75 459.3 254.53 471.44 254.53 471.44L275.77 483.6L300.22 484.92C300.22 484.92 333.48 491.92 341.56 516.35C348.56 537.46 339.94 548.51 337.47 551.13C340.88 547.88 357.37 533.7 366.9 553.45C377.57 575.56 377.81 587.7 367.61 596.36C367.61 596.36 382.35 591.72 383.61 616.66C384.87 641.6 380.61 652.66 368.15 656.1C368.15 656.1 387.28 656.02 383.71 681.05C380.29 705.12 369.47 712.31 356.13 712.05C358.97 712.36 364.72 713.95 366.02 721.63C367.75 731.93 366.02 742.94 337.27 760.79C270.34 802.37 192.27 766.79 192.27 766.79C192.27 766.79 104.59 758.34 73.7203 683.07C60.8803 651.77 63.7803 642.29 70.8303 634.58C76.0503 628.86 81.7402 630.65 84.2902 631.93Z" fill="#7D5A53"/>
<path d="M187.28 506.91C187.485 503.211 188.398 499.585 189.97 496.23C191.451 493.026 193.395 490.058 195.74 487.42C198.06 484.787 200.64 482.395 203.44 480.28C204.14 479.75 204.84 479.19 205.54 478.69C206.24 478.19 206.9 477.75 207.63 477.35C208.332 476.916 209.057 476.519 209.8 476.16C210.52 475.77 211.29 475.47 212.05 475.16C218.17 472.62 225.05 471.74 232.11 471.86C233.87 471.86 235.64 472 237.42 472.12C239.2 472.24 240.97 472.48 242.76 472.71C244.55 472.94 246.32 473.26 248.09 473.59C248.98 473.76 249.86 473.94 250.74 474.14C251.62 474.34 252.53 474.54 253.29 474.73L252.82 474.51C254.67 475.38 256.55 476.2 258.42 477.03C260.29 477.86 262.19 478.66 264.1 479.43C267.92 480.98 271.77 482.43 275.75 483.71C272.65 480.92 269.43 478.34 266.16 475.83C264.53 474.58 262.88 473.36 261.22 472.15C259.56 470.94 257.9 469.74 256.22 468.59L255.78 468.39C253.942 467.552 252.063 466.808 250.15 466.16C248.27 465.493 246.363 464.933 244.43 464.48C240.539 463.491 236.566 462.858 232.56 462.59C228.47 462.302 224.361 462.473 220.31 463.1C218.242 463.431 216.198 463.895 214.19 464.49C213.19 464.79 212.19 465.18 211.19 465.49C210.19 465.8 209.19 466.28 208.27 466.77C207.307 467.23 206.369 467.741 205.46 468.3C204.54 468.83 203.66 469.44 202.79 470.06C201.92 470.68 201.11 471.38 200.28 472.06C199.45 472.74 198.8 473.45 198.06 474.15C195.117 476.983 192.568 480.199 190.48 483.71C188.374 487.237 186.949 491.127 186.28 495.18C185.57 499.11 185.915 503.157 187.28 506.91Z" fill="#221E20"/>
<path d="M137.42 528.53C137.304 525.201 137.869 521.883 139.08 518.78C140.298 516.003 142.043 513.49 144.22 511.38C148.55 507.01 154 503.38 159.54 499.68C160.91 498.74 162.34 497.86 163.74 496.94C164.932 496.153 166.186 495.464 167.49 494.88C168.647 494.353 169.867 493.977 171.12 493.76C172.27 493.579 173.445 493.62 174.58 493.88C176.89 494.38 179.3 496.18 181.43 498.55C183.644 501.142 185.603 503.942 187.28 506.91C187.454 503.224 186.833 499.544 185.46 496.12C184.711 494.281 183.7 492.56 182.46 491.01C181.103 489.303 179.399 487.906 177.46 486.91C175.39 485.878 173.112 485.334 170.8 485.32C168.613 485.298 166.437 485.636 164.36 486.32C162.444 486.974 160.595 487.811 158.84 488.82C157.33 489.76 155.84 490.66 154.3 491.64C151.273 493.624 148.396 495.827 145.69 498.23C142.867 500.734 140.386 503.599 138.31 506.75C136.112 510.047 134.806 513.858 134.52 517.81C134.311 521.602 135.328 525.36 137.42 528.53Z" fill="#221E20"/>
<path d="M104.55 578.43C103.218 575.676 102.469 572.677 102.35 569.62C102.371 566.876 102.914 564.161 103.95 561.62C104.41 560.32 105.06 559.03 105.65 557.74C106.24 556.45 106.96 555.17 107.74 553.9C109.18 551.34 110.74 548.78 112.44 546.22C113.28 544.94 114.06 543.64 114.94 542.37C115.82 541.1 116.63 539.71 117.45 538.58L118.68 536.77C118.874 536.467 119.088 536.176 119.32 535.9L119.97 535.06C120.41 534.51 120.82 533.89 121.29 533.4L122.67 531.85C124.416 529.904 126.599 528.399 129.04 527.46C130.336 527.078 131.695 526.952 133.04 527.09C134.581 527.292 136.071 527.784 137.43 528.54C136.681 526.953 135.517 525.598 134.06 524.62C132.456 523.585 130.629 522.947 128.73 522.76C126.795 522.638 124.855 522.896 123.02 523.52C122.113 523.794 121.236 524.155 120.4 524.6C119.565 525.001 118.757 525.456 117.98 525.96L115.78 527.55C115.05 528.09 114.47 528.71 113.78 529.3C112.496 530.467 111.302 531.731 110.21 533.08C109.02 534.4 108.21 535.69 107.15 537C106.09 538.31 105.29 539.7 104.37 541C103.45 542.3 102.65 543.83 101.83 545.27C101.01 546.71 100.24 548.27 99.6097 549.82C98.1362 552.992 97.1259 556.36 96.6097 559.82C96.0326 563.464 96.4258 567.196 97.7498 570.64C99.0917 573.918 101.483 576.658 104.55 578.43Z" fill="#221E20"/>
<path d="M84.2898 631.93C82.0745 629.53 80.1972 626.838 78.7098 623.93C77.4495 621.321 76.7317 618.484 76.5999 615.59C76.2999 609.97 77.9398 604.15 80.0698 598.35C82.1998 592.55 84.5598 586.75 88.2898 582.75C90.1174 580.699 92.4892 579.208 95.1299 578.45C98.2212 577.668 101.459 577.668 104.55 578.45C101.998 575.744 98.5363 574.077 94.8298 573.77C92.8403 573.599 90.8362 573.799 88.9198 574.36C86.9863 574.925 85.1588 575.803 83.5099 576.96C81.8896 578.064 80.4146 579.368 79.1199 580.84C77.8569 582.245 76.7192 583.757 75.7198 585.36C75.2198 586.14 74.7198 586.95 74.3398 587.76L73.6998 588.97L73.1299 590.17C72.4099 591.78 71.6799 593.37 71.1299 595.06C69.8473 598.468 68.9745 602.016 68.5299 605.63L68.2998 608.42C68.2998 609.42 68.2998 610.32 68.2998 611.26C68.4019 613.188 68.7138 615.099 69.2299 616.96C70.233 620.691 72.2228 624.083 74.9899 626.78C77.5969 629.266 80.7994 631.039 84.2898 631.93Z" fill="#221E20"/>
<path d="M192.23 766.82C183.407 764.814 174.748 762.139 166.33 758.82C158.007 755.576 149.923 751.746 142.141 747.36C126.691 738.743 112.737 727.684 100.82 714.61C94.9208 708.06 89.5695 701.036 84.8204 693.61C82.4271 689.91 80.1871 686.107 78.1005 682.2C75.9705 678.31 73.9905 674.34 72.2205 670.33C70.4301 666.386 68.975 662.298 67.8705 658.11C66.7396 654.106 66.4568 649.909 67.0404 645.79C67.3949 643.766 68.0701 641.811 69.0404 640C69.5274 639.05 70.0787 638.134 70.6904 637.26C71.3104 636.37 71.9705 635.45 72.6305 634.68C73.9754 633.082 75.7868 631.946 77.8104 631.43C79.9812 630.946 82.2466 631.117 84.3204 631.92C82.3506 630.57 80.0078 629.871 77.6205 629.92C75.1176 630.102 72.7336 631.06 70.8004 632.66C69.8684 633.426 68.9836 634.247 68.1505 635.12C67.3065 635.993 66.5181 636.918 65.7904 637.89C64.3001 639.91 63.1423 642.155 62.3605 644.54C61.6174 646.941 61.1904 649.429 61.0905 651.94C61.0253 654.39 61.1624 656.842 61.5005 659.27C62.2147 663.988 63.3938 668.624 65.0205 673.11C66.5731 677.537 68.3657 681.877 70.3905 686.11C72.3905 690.32 74.6005 694.45 77.0205 698.46C91.5612 722.741 113.089 742.069 138.79 753.92C147.21 757.817 155.979 760.911 164.98 763.16C169.451 764.275 173.977 765.152 178.54 765.79C183.072 766.475 187.648 766.82 192.23 766.82Z" fill="#221E20"/>
<path d="M356.09 712.09C358.269 712.542 360.266 713.628 361.83 715.21C363.248 716.747 364.153 718.686 364.42 720.76C364.56 721.76 364.61 722.9 364.67 723.99C364.73 725.069 364.73 726.151 364.67 727.23C364.582 729.315 364.205 731.378 363.55 733.36C362.923 735.298 362.016 737.133 360.86 738.81C359.699 740.525 358.358 742.11 356.86 743.54C353.766 746.466 350.343 749.023 346.66 751.16C342.893 753.384 339 755.387 335 757.16C330.93 758.98 326.83 760.72 322.68 762.32C318.53 763.92 314.35 765.45 310.14 766.82C305.93 768.19 301.67 769.45 297.38 770.57C280.236 775.122 262.535 777.233 244.8 776.84C235.886 776.636 227.001 775.727 218.23 774.12C209.341 772.57 200.63 770.127 192.23 766.83C196.013 769.452 200.03 771.719 204.23 773.6C208.428 775.528 212.739 777.198 217.14 778.6C225.994 781.421 235.116 783.321 244.36 784.27C262.968 786.089 281.752 784.579 299.83 779.81C308.833 777.476 317.648 774.467 326.2 770.81C330.45 768.95 334.66 767.01 338.78 764.89C342.992 762.753 347.046 760.317 350.91 757.6C354.901 754.845 358.515 751.581 361.66 747.89C364.949 744.072 367.207 739.476 368.22 734.54C368.655 732.101 368.743 729.613 368.48 727.15C368.359 725.961 368.176 724.78 367.93 723.61C367.695 722.434 367.394 721.273 367.03 720.13C366.282 717.737 364.802 715.639 362.8 714.13C360.83 712.769 358.485 712.055 356.09 712.09Z" fill="#221E20"/>
<path d="M368.11 656.18C371.131 657.202 373.85 658.962 376.02 661.3C377.83 663.371 379.016 665.913 379.44 668.63C380.44 674.02 379.19 680.03 377.86 686.2C376.49 692.2 374.71 698 371.41 702.56C369.726 704.915 367.583 706.905 365.11 708.41C362.291 710.045 359.263 711.29 356.11 712.11C359.535 713.265 363.2 713.513 366.75 712.83C370.54 712.074 374.055 710.304 376.92 707.71C378.359 706.426 379.656 704.991 380.79 703.43C381.32 702.65 381.87 701.87 382.37 701.06L383.69 698.59C385.272 695.312 386.46 691.858 387.23 688.3C387.64 686.56 387.9 684.82 388.15 683.08L388.33 681.77L388.45 680.4C388.54 679.49 388.58 678.56 388.59 677.64C388.6 676.72 388.54 675.76 388.52 674.83C388.5 673.9 388.35 672.94 388.19 671.99C387.895 670.056 387.365 668.165 386.61 666.36C385.845 664.496 384.784 662.767 383.47 661.24C382.163 659.73 380.59 658.473 378.83 657.53C375.543 655.78 371.728 655.299 368.11 656.18Z" fill="#221E20"/>
<path d="M367.59 596.44C369.142 596.537 370.662 596.927 372.07 597.59C373.272 598.203 374.344 599.042 375.23 600.06C376.782 602.176 377.81 604.63 378.23 607.22L378.55 609.22C378.67 609.9 378.68 610.64 378.76 611.34C378.91 612.73 378.92 614.2 378.96 615.66C379 617.12 378.96 618.66 378.96 620.21C378.96 621.76 378.96 623.27 378.96 624.8C378.96 627.8 378.96 630.87 378.73 633.8C378.73 634.53 378.73 635.28 378.59 636C378.45 636.72 378.45 637.43 378.39 638.16C378.19 639.56 378.03 640.99 377.71 642.34C377.201 645.038 376.183 647.614 374.71 649.93C372.948 652.432 370.691 654.546 368.08 656.14C371.598 656.323 375.077 655.33 377.97 653.32C380.956 651.151 383.313 648.229 384.8 644.85C386.255 641.675 387.249 638.307 387.75 634.85C388.07 633.16 388.16 631.5 388.35 629.85C388.54 628.2 388.5 626.53 388.52 624.85C388.54 623.17 388.52 621.55 388.38 619.93L388.21 617.49C388.162 616.649 388.069 615.811 387.93 614.98L387.57 612.43C387.423 611.567 387.23 610.712 386.99 609.87C386.74 609.02 386.6 608.17 386.27 607.32L385.27 604.8C385.104 604.371 384.904 603.956 384.67 603.56L383.98 602.34C383.525 601.513 382.986 600.735 382.37 600.02C381.165 598.502 379.678 597.232 377.99 596.28C376.298 595.4 374.417 594.943 372.51 594.95C370.764 594.988 369.063 595.503 367.59 596.44Z" fill="#221E20"/>
<path d="M337.45 551.21C340.468 549.623 343.633 548.333 346.9 547.36C349.97 546.51 352.97 546.31 355.19 547.15C356.296 547.539 357.315 548.14 358.19 548.92C359.12 549.79 359.94 550.77 360.63 551.84C361.392 553.044 362.061 554.304 362.63 555.61C363.29 557.15 364.03 558.66 364.63 560.2C367.27 566.29 369.87 572.32 371.13 578.33C371.808 581.283 371.909 584.339 371.43 587.33C370.764 590.596 369.44 593.692 367.54 596.43C371.018 594.917 373.918 592.326 375.81 589.04C377.72 585.569 378.696 581.661 378.64 577.7C378.603 573.924 378.072 570.168 377.06 566.53C376.085 563.042 374.859 559.63 373.39 556.32C372.66 554.69 371.87 553.1 371.1 551.5C370.178 549.696 369.079 547.988 367.82 546.4C366.459 544.689 364.824 543.215 362.98 542.04C361.084 540.826 358.939 540.055 356.704 539.783C354.47 539.511 352.202 539.746 350.07 540.47C348.19 541.099 346.412 541.999 344.79 543.14C341.798 545.277 339.295 548.029 337.45 551.21Z" fill="#221E20"/>
<path d="M275.75 483.68C279.75 484.78 283.82 485.63 287.86 486.4C289.86 486.78 291.86 487.13 293.93 487.47C296 487.81 297.93 488.12 300.01 488.39L299.5 488.32C300.23 488.57 301.14 488.89 301.96 489.2C302.78 489.51 303.65 489.84 304.48 490.2C306.15 490.89 307.81 491.61 309.48 492.36C311.15 493.11 312.71 493.94 314.28 494.77C315.85 495.6 317.38 496.51 318.88 497.43C324.757 500.92 329.861 505.572 333.88 511.1C334.33 511.79 334.81 512.47 335.21 513.19C335.61 513.91 336.02 514.63 336.39 515.37C336.584 515.734 336.757 516.107 336.91 516.49L337.41 517.62C337.72 518.42 338.01 519.27 338.31 520.09C339.516 523.387 340.383 526.798 340.9 530.27C341.444 533.757 341.467 537.306 340.97 540.8C340.471 544.47 339.272 548.01 337.44 551.23C340.648 548.828 343.158 545.614 344.71 541.92C346.347 538.154 347.263 534.114 347.41 530.01C347.561 525.925 347.164 521.839 346.23 517.86C345.99 516.86 345.78 515.86 345.5 514.86C345.217 513.844 344.883 512.843 344.5 511.86C344.1 510.86 343.7 509.86 343.21 508.93C342.754 507.965 342.243 507.027 341.68 506.12C339.471 502.524 336.745 499.273 333.59 496.47C330.524 493.756 327.171 491.386 323.59 489.4C320.077 487.457 316.395 485.833 312.59 484.55C310.7 483.9 308.8 483.34 306.87 482.87C304.913 482.366 302.93 481.969 300.93 481.68L300.45 481.61C298.45 481.61 296.35 481.78 294.3 481.88C292.25 481.98 290.21 482.13 288.15 482.29C283.98 482.61 279.87 483.02 275.75 483.68Z" fill="#221E20"/>
<path d="M277.24 965.93C147.293 965.93 41.9503 952.897 41.9503 936.82C41.9503 920.743 147.293 907.71 277.24 907.71C407.187 907.71 512.53 920.743 512.53 936.82C512.53 952.897 407.187 965.93 277.24 965.93Z" fill="#D0D2D3"/>
<path d="M175.99 756.09C175.99 756.09 170.05 781.2 193.1 819.28C193.34 819.677 193.696 819.991 194.119 820.181C194.542 820.372 195.014 820.429 195.47 820.345C195.927 820.262 196.347 820.042 196.676 819.714C197.004 819.386 197.225 818.966 197.31 818.51C199.74 804.92 206.42 771.58 215.09 760.7L175.99 756.09Z" fill="#49BEA2"/>
<path d="M176.751 751.19C176.751 751.19 170.801 776.3 193.861 814.38C194.099 814.778 194.454 815.094 194.877 815.285C195.3 815.476 195.771 815.534 196.227 815.45C196.684 815.367 197.104 815.146 197.432 814.817C197.759 814.488 197.979 814.067 198.061 813.61C200.501 800.02 207.181 766.68 215.851 755.8L176.751 751.19Z" stroke="#231F20" stroke-width="6" stroke-miterlimit="10"/>
<path d="M195.009 768.053C130.385 748.984 94.7005 676.916 115.306 607.085C135.911 537.254 205.003 496.103 269.627 515.172C334.251 534.241 369.936 606.309 349.33 676.14C328.725 745.971 259.633 787.122 195.009 768.053Z" fill="#F5E099"/>
<path d="M201.51 521.09C173.3 537.3 148.75 562.95 138.94 596.2C118.34 666.04 165.58 741.51 218.66 757.2C239.18 763.2 263.82 761.32 287.51 752.64C257.44 770.16 222.61 776.35 195.16 768.25C142.09 752.59 94.8498 677.12 115.45 607.25C127.91 564.95 164.16 534.98 201.51 521.09Z" fill="#F0CC6D"/>
<path d="M241.117 606.71C218.583 600.061 201.139 591.88 202.155 588.436C203.171 584.993 222.262 587.592 244.796 594.241C267.33 600.891 284.773 609.072 283.757 612.515C282.741 615.958 263.65 613.359 241.117 606.71Z" fill="#F7A33F"/>
<path d="M212.182 704.783C189.648 698.134 172.205 689.952 173.221 686.509C174.237 683.066 193.328 685.665 215.861 692.314C238.395 698.963 255.839 707.145 254.823 710.588C253.807 714.031 234.716 711.432 212.182 704.783Z" fill="#F7A33F"/>
<path d="M225.642 659.164C194.469 649.966 170.022 639.718 171.038 636.275C172.054 632.832 198.148 637.497 229.322 646.696C260.495 655.894 284.942 666.142 283.926 669.585C282.91 673.028 256.816 668.363 225.642 659.164Z" fill="#F7A33F"/>
<path d="M284.48 743.16C283.027 742.064 281.357 741.29 279.58 740.89C277.798 740.476 275.969 740.294 274.14 740.35C270.471 740.461 266.86 741.304 263.52 742.83C260.086 744.328 257.088 746.675 254.81 749.65C253.675 751.164 252.85 752.887 252.38 754.72C251.915 756.5 251.915 758.37 252.38 760.15C253.049 756.905 254.717 753.95 257.15 751.7C259.508 749.525 262.212 747.757 265.15 746.47C268.124 745.122 271.24 744.115 274.44 743.47C277.737 742.725 281.145 742.62 284.48 743.16Z" fill="#231F20"/>
<path d="M252.42 760.15C252.33 764.4 264.94 794.5 256.29 815.99C247.64 837.48 229.49 861.74 224.82 878.86C220.69 893.98 224.57 923.86 261.61 934.76C298.65 945.66 315.61 927.76 319.61 920.49C323.61 913.22 323.41 906.7 315.26 897.69C307.11 888.68 295.46 879.22 303.26 861.08C311.06 842.94 315.26 832.75 308.57 804.34C301.88 775.93 294.57 747.92 284.57 743.16C274.57 738.4 251.97 746.01 252.42 760.15Z" fill="#49BEA2"/>
<path d="M252.42 760.15C252.482 761.346 252.649 762.534 252.92 763.7L253.69 767.21C254.21 769.54 254.69 771.87 255.17 774.21C256.135 778.849 256.83 783.54 257.25 788.26L257.41 790.02L257.49 791.78C257.49 792.95 257.64 794.12 257.6 795.29V798.78L257.33 802.25C256.893 806.782 255.763 811.22 253.98 815.41C249.971 823.953 245.453 832.248 240.45 840.25C237.98 844.31 235.51 848.41 233.08 852.56C230.65 856.71 228.27 860.93 226.08 865.33C223.746 869.834 221.879 874.565 220.51 879.45C219.338 884.577 219.038 889.864 219.62 895.09C220.192 900.314 221.589 905.414 223.76 910.2C224.872 912.591 226.17 914.891 227.64 917.08C229.129 919.252 230.781 921.308 232.58 923.23C236.189 927.01 240.329 930.244 244.87 932.83C249.307 935.361 254 937.413 258.87 938.95C260.08 939.38 261.29 939.68 262.51 939.95L266.15 940.89C267.35 941.24 268.62 941.41 269.86 941.65L273.6 942.31C274.86 942.49 276.14 942.57 277.41 942.7C278.681 942.861 279.96 942.951 281.24 942.97H285.1C285.748 942.98 286.396 942.95 287.04 942.88L289.04 942.73C299.37 941.93 309.93 937.93 317.81 930.39C319.827 928.464 321.603 926.302 323.1 923.95C323.48 923.31 323.88 922.66 324.17 922.05C324.46 921.44 324.79 920.8 325.07 920.13C325.666 918.754 326.128 917.324 326.45 915.86C327.129 912.746 327.002 909.511 326.08 906.46C325.214 903.682 323.882 901.071 322.14 898.74C320.589 896.655 318.895 894.681 317.07 892.83C315.4 891.08 313.78 889.41 312.27 887.73C310.816 886.129 309.479 884.424 308.27 882.63C307.183 880.958 306.316 879.153 305.69 877.26C304.613 873.441 304.683 869.39 305.89 865.61L306.89 862.61L308.23 859.27C309.13 857.03 310.01 854.77 310.84 852.45C312.591 847.736 313.848 842.854 314.59 837.88C315.284 832.885 315.355 827.823 314.8 822.81C314.246 817.934 313.402 813.095 312.27 808.32C311.12 803.57 309.89 798.99 308.62 794.32C306 785.1 303.32 775.87 299.91 766.86C298.235 762.337 296.261 757.931 294 753.67C292.844 751.538 291.506 749.511 290 747.61C288.554 745.662 286.656 744.094 284.47 743.04C286.473 744.307 288.156 746.018 289.39 748.04C290.655 750.031 291.749 752.125 292.66 754.3C294.505 758.66 296.061 763.136 297.32 767.7C299.92 776.83 302.01 786.11 303.93 795.43C304.93 800.09 305.93 804.79 306.75 809.38C307.572 813.953 308.116 818.572 308.38 823.21C308.635 827.722 308.373 832.248 307.6 836.7C306.745 841.157 305.431 845.513 303.68 849.7C302.81 851.84 301.88 853.99 300.92 856.15L299.46 859.4C298.97 860.63 298.46 861.86 298 863.11C297.54 864.36 297.23 865.71 297 867.06C296.732 868.429 296.565 869.816 296.5 871.21C296.5 871.91 296.44 872.62 296.44 873.33L296.62 875.46C296.676 876.171 296.786 876.876 296.95 877.57C297.11 878.27 297.21 878.98 297.43 879.66C300.67 890.85 309.95 897.41 314.5 904.05C315.592 905.573 316.433 907.261 316.99 909.05C317.443 910.596 317.488 912.232 317.12 913.8C316.914 914.667 316.623 915.511 316.25 916.32C315.876 917.197 315.428 918.04 314.91 918.84C313.811 920.495 312.523 922.015 311.07 923.37C305.07 929.05 296.75 932.37 288.07 932.94L286.45 933.08C285.91 933.147 285.365 933.174 284.82 933.16H281.52C280.414 933.151 279.308 933.078 278.21 932.94C277.11 932.83 276 932.77 274.9 932.62L271.59 932.04C270.48 931.83 269.37 931.7 268.28 931.38L264.99 930.54C263.89 930.26 262.78 930.01 261.73 929.65C257.482 928.373 253.382 926.647 249.5 924.5C245.714 922.388 242.232 919.771 239.15 916.72C237.653 915.192 236.273 913.554 235.02 911.82C233.788 910.07 232.691 908.228 231.74 906.31C229.863 902.426 228.617 898.267 228.05 893.99C227.477 889.718 227.602 885.382 228.42 881.15C229.481 876.795 230.975 872.557 232.88 868.5C236.69 860.04 241.48 851.78 245.94 843.31C250.4 834.84 254.94 826.31 258.34 817.12C259.988 812.384 260.896 807.423 261.03 802.41V798.72L260.81 795.05C260.81 793.83 260.55 792.63 260.42 791.42L260.18 789.61L259.87 787.82C259.035 783.073 257.923 778.378 256.54 773.76C255.84 771.467 255.114 769.187 254.36 766.92L253.25 763.51C252.874 762.417 252.596 761.293 252.42 760.15Z" fill="#231F20"/>
<path d="M321.141 917.02C320.709 918.215 320.188 919.375 319.581 920.49C317.509 924.001 314.755 927.062 311.481 929.49C308.481 924.78 305.111 917.42 308.361 912.17C311.611 906.92 317.351 912.33 321.141 917.02Z" fill="#131429"/>
<path d="M291.12 937.69C290.79 929.85 291.12 916.26 297.03 914.79C303.24 913.25 306.77 925.32 308.2 931.79C302.979 934.924 297.162 936.934 291.12 937.69Z" fill="#131429"/>
<path d="M279.95 919.21C286.45 918.68 288.35 930.56 288.95 937.94C282.79 938.475 276.586 938.138 270.52 936.94C271.91 928.87 274.69 919.64 279.95 919.21Z" fill="#131429"/>
<path d="M261.611 934.76C258.699 933.901 255.843 932.863 253.061 931.65C254.791 926.92 257.75 921.85 262.65 920.91C269.65 919.54 268.44 930.36 267.27 936.23C265.44 935.81 263.561 935.34 261.611 934.76Z" fill="#131429"/>
<path d="M276.88 824.01C276.88 824.01 272.65 837.8 285.01 843.5C297.37 849.2 302.31 836.87 300.15 832.26C297.99 827.65 292.06 827.52 288.87 830.43" stroke="#1F705F" stroke-width="3" stroke-miterlimit="10" stroke-linecap="round"/>
<path d="M130.56 697.75C133.647 699.1 136.444 701.032 138.8 703.44C141.138 705.72 143.208 708.26 144.97 711.01C146.742 713.682 148.05 716.633 148.84 719.74C149.667 722.948 149.464 726.334 148.26 729.42C149.635 728.19 150.668 726.627 151.26 724.88C151.864 723.089 152.109 721.196 151.98 719.31C151.677 715.577 150.431 711.981 148.36 708.86C146.384 705.763 143.811 703.091 140.79 701C139.282 699.962 137.645 699.125 135.92 698.51C134.209 697.876 132.381 697.617 130.56 697.75Z" fill="#231F20"/>
<path d="M148.26 729.42C146.03 733.05 119.1 751.47 114.7 774.22C110.3 796.97 112.38 827.22 107.01 844.11C102.27 859.05 82.8104 882.02 45.7704 871.11C8.73035 860.2 4.20029 835.89 4.83029 827.66C5.4603 819.43 9.11029 814.01 20.8303 810.87C32.5503 807.73 47.4803 806.11 50.8303 786.65C54.1803 767.19 56.1604 756.37 77.1604 736.12C98.1604 715.87 119.55 696.33 130.55 697.77C141.55 699.21 156.35 717.79 148.26 729.42Z" fill="#49BEA2"/>
<path d="M148.26 729.42C147.463 730.306 146.586 731.116 145.64 731.84L142.86 734.1C141 735.59 139.15 737.1 137.31 738.66C133.642 741.789 130.16 745.128 126.88 748.66L125.65 750L124.47 751.39C123.7 752.33 122.88 753.23 122.18 754.23L120 757.23L118 760.35C115.398 764.634 113.469 769.291 112.28 774.16C110.21 783.71 109.28 793.35 108.48 802.89C107.68 812.43 107.16 821.96 105.76 831.14C105.167 835.584 104.125 839.957 102.65 844.19C101.042 848.194 98.792 851.909 95.9897 855.19C93.1912 858.472 89.8902 861.291 86.2097 863.54C84.3705 864.63 82.4517 865.579 80.4697 866.38C78.4719 867.154 76.4196 867.779 74.3297 868.25C70.085 869.144 65.7383 869.453 61.4098 869.17C56.9871 868.863 52.6093 868.089 48.3497 866.86C47.2697 866.59 46.1998 866.2 45.1298 865.86L41.9098 864.78C40.8458 864.417 39.8011 864 38.7798 863.53L35.6797 862.22C34.6797 861.75 33.6797 861.22 32.6797 860.69C31.6833 860.212 30.7152 859.678 29.7798 859.09L26.9998 857.31C26.5328 857.009 26.0882 856.675 25.6697 856.31L24.3798 855.31C17.4698 850.1 12.2697 842.85 10.2997 834.81C9.81059 832.884 9.55222 830.907 9.52979 828.92C9.5327 827.969 9.61296 827.019 9.76978 826.08C9.90108 825.197 10.1187 824.33 10.4197 823.49C10.9579 821.973 11.8815 820.622 13.0997 819.57C14.5406 818.375 16.1604 817.413 17.8998 816.72C25.3298 813.61 36.6797 813.15 45.4797 805.5C46.0297 805.06 46.4798 804.5 47.0198 804.01C47.5345 803.518 48.0092 802.987 48.4397 802.42L49.7498 800.72C50.1298 800.13 50.4897 799.52 50.8497 798.91C51.5534 797.708 52.1651 796.454 52.6797 795.16C53.2097 793.88 53.5497 792.58 53.9597 791.28C54.3697 789.98 54.4998 788.68 54.7598 787.38L55.2997 783.85C55.6597 781.52 56.0397 779.21 56.4797 776.94C57.2761 772.49 58.5294 768.133 60.2197 763.94C61.9929 759.781 64.2305 755.836 66.8898 752.18C69.63 748.43 72.5955 744.85 75.7698 741.46C78.9598 738.05 82.3597 734.65 85.6997 731.27C92.3797 724.48 99.1697 717.82 106.31 711.57C109.844 708.418 113.583 705.502 117.5 702.84C119.447 701.507 121.504 700.343 123.65 699.36C125.782 698.319 128.127 697.789 130.5 697.81C128.091 697.51 125.645 697.795 123.37 698.64C121.081 699.429 118.864 700.409 116.74 701.57C112.525 703.923 108.473 706.556 104.61 709.45C96.8497 715.16 89.6098 721.45 82.3998 727.78C78.8098 730.97 75.2898 734.15 71.7498 737.51C68.2023 740.906 64.8629 744.512 61.7498 748.31C58.5637 752.218 55.8764 756.508 53.7498 761.08C51.6768 765.66 50.0817 770.442 48.9897 775.35C48.4297 777.75 47.9897 780.13 47.4797 782.5L46.7897 786.03L46.0298 789.12C44.9931 792.953 42.8507 796.396 39.8698 799.02C38.3189 800.268 36.615 801.313 34.7997 802.13C32.8145 802.977 30.773 803.686 28.6897 804.25C26.5097 804.84 24.2398 805.37 21.8898 805.92C19.3517 806.487 16.8557 807.229 14.4197 808.14C11.6917 809.151 9.15556 810.619 6.91968 812.48C4.49174 814.546 2.62999 817.196 1.50977 820.18C0.984299 821.583 0.595779 823.033 0.349731 824.51C0.219727 825.22 0.11969 825.92 0.0596924 826.61C-0.000305176 827.3 -0.0403137 828.05 -0.0703125 828.79C-0.0848846 831.581 0.234116 834.364 0.879761 837.08C3.39977 847.68 10.0997 856.77 18.3497 863.08L19.8998 864.27C20.4027 864.676 20.9304 865.05 21.4797 865.39L24.7498 867.46C25.8379 868.133 26.9593 868.75 28.1097 869.31C29.2397 869.89 30.3698 870.51 31.5198 871.05L35.0198 872.52C36.1898 873 37.3397 873.52 38.5397 873.9L42.1198 875.09C43.3098 875.49 44.4897 875.89 45.7297 876.19C50.6681 877.548 55.7363 878.379 60.8497 878.67C66.0663 878.955 71.2967 878.487 76.3798 877.28C78.9344 876.636 81.4379 875.803 83.8698 874.79C86.2943 873.749 88.6346 872.522 90.8698 871.12C95.2948 868.281 99.2377 864.753 102.55 860.67C105.878 856.602 108.495 852 110.29 847.06C111.804 842.214 112.809 837.224 113.29 832.17C113.84 827.29 114.13 822.45 114.29 817.65C114.45 812.85 114.66 808.06 114.79 803.31C114.924 793.872 115.632 784.452 116.91 775.1C117.683 770.614 119.14 766.274 121.23 762.23L122.88 759.17L124.75 756.22C125.35 755.22 126.1 754.3 126.75 753.33L127.75 751.89L128.84 750.5C131.754 746.765 134.883 743.203 138.21 739.83C139.87 738.117 141.536 736.423 143.21 734.75L145.75 732.23C146.675 731.376 147.515 730.435 148.26 729.42Z" fill="#231F20"/>
<path d="M5.35047 823.88C5.0616 825.116 4.87106 826.374 4.78053 827.64C4.61235 831.711 5.26172 835.774 6.69044 839.59C11.6904 837.24 18.5904 832.91 18.6904 826.74C18.7904 820.57 11.1305 821.99 5.35047 823.88Z" fill="#131429"/>
<path d="M19.3505 857.53C23.8905 851.13 31.0105 839.53 26.8205 835.09C22.4405 830.43 12.9205 838.65 8.23054 843.27C10.9099 848.742 14.6965 853.598 19.3505 857.53Z" fill="#131429"/>
<path d="M38.8 848.09C33.64 844.09 25.59 853.09 21.1201 858.96C25.994 862.746 31.3812 865.82 37.1201 868.09C40.3501 860.55 42.99 851.29 38.8 848.09Z" fill="#131429"/>
<path d="M45.7702 871.09C48.6815 871.944 51.6441 872.612 54.6402 873.09C55.7502 868.18 56.0101 862.32 52.4201 858.87C47.2501 853.87 42.4201 863.67 40.2101 869.23C41.9801 869.89 43.8202 870.51 45.7702 871.09Z" fill="#131429"/>
<path d="M93.0605 769.78C93.0605 769.78 89.1206 783.66 75.6506 781.73C62.1806 779.8 64.7206 766.78 69.0306 764.08C73.3406 761.38 78.4106 764.49 79.5006 768.67" stroke="#1F705F" stroke-width="3" stroke-miterlimit="10" stroke-linecap="round"/>
<path d="M457.13 507.32C457.13 507.32 456.13 497.94 443.9 505.16C431.67 512.38 421.64 519.23 421.64 519.23L432.97 530.43C432.97 530.43 456.73 517.57 457.13 507.32Z" fill="#131429"/>
<path d="M441.2 537.43C441.2 537.43 422.97 510.57 393.15 523.12C363.33 535.67 323.38 560.58 316.15 571.47C308.92 582.36 310.001 599.58 313.551 605.21C317.101 610.84 321.341 626.44 351.131 616.39C380.921 606.34 424.22 591.14 435.61 578.05C447 564.96 447.17 547.03 441.2 537.43Z" fill="#49BEA2"/>
<path d="M435.561 578.09C441.665 572.239 445.525 564.433 446.471 556.03C447.002 551.759 446.744 547.428 445.711 543.25C445.44 542.194 445.106 541.156 444.711 540.14L444.07 538.62C443.82 538.12 443.541 537.62 443.271 537.12L442.851 536.36L442.341 535.65C442.011 535.21 441.681 534.79 441.341 534.37C440.671 533.54 439.961 532.75 439.241 531.96C436.307 528.874 432.982 526.184 429.351 523.96C425.687 521.756 421.683 520.178 417.501 519.29C409.191 517.597 400.549 518.945 393.151 523.09C400.981 520.68 409.201 520.09 416.731 522.27C424.266 524.564 431.044 528.848 436.351 534.67C437.021 535.38 437.681 536.1 438.301 536.85C438.611 537.22 438.921 537.59 439.211 537.97L439.601 538.49L439.921 539.07C440.844 540.703 441.582 542.433 442.121 544.23C443.172 547.965 443.611 551.845 443.421 555.72C442.987 563.774 440.26 571.535 435.561 578.09Z" fill="#231F20"/>
<path d="M393.15 523.09C382.772 526.893 372.639 531.335 362.81 536.39C352.934 541.444 343.334 547.018 334.05 553.09C329.343 556.148 324.825 559.488 320.52 563.09C319.44 564.03 318.35 564.92 317.33 566L315.77 567.56L314.3 569.38C312.527 571.829 311.122 574.524 310.13 577.38C309.156 580.173 308.485 583.063 308.13 586C307.765 588.915 307.675 591.858 307.86 594.79C308.019 597.808 308.57 600.794 309.5 603.67C309.775 604.464 310.109 605.236 310.5 605.98C310.98 606.88 311.22 607.28 311.5 607.82C312.15 608.99 312.79 610.25 313.58 611.53C315.174 614.264 317.307 616.645 319.85 618.53L320.85 619.24L321.92 619.82C322.611 620.219 323.337 620.553 324.09 620.82C324.84 621.08 325.58 621.39 326.34 621.61L328.63 622.12C329.384 622.281 330.15 622.378 330.92 622.41C331.68 622.47 332.44 622.56 333.2 622.58L335.44 622.51C336.182 622.512 336.923 622.469 337.66 622.38C339.11 622.17 340.58 622.03 342 621.75L346.22 620.75C351.78 619.13 356.86 617.22 362.08 615.37C367.3 613.52 372.45 611.59 377.6 609.58C387.91 605.58 398.13 601.34 408.09 596.49C413.09 594.03 417.97 591.49 422.68 588.49C427.39 585.49 432.01 582.3 435.51 578C433.535 579.902 431.355 581.579 429.01 583C426.696 584.453 424.309 585.788 421.86 587C416.98 589.47 411.97 591.7 406.86 593.75C401.75 595.8 396.66 597.75 391.5 599.65C386.34 601.55 381.17 603.37 375.97 605.12L360.34 610.34C355.13 612.04 349.83 613.86 344.78 615.19L340.93 616C339.65 616.24 338.37 616.34 337.09 616.52C336.463 616.598 335.831 616.631 335.2 616.62L333.31 616.67C332.69 616.67 332.09 616.55 331.47 616.51C330.863 616.483 330.261 616.399 329.67 616.26L327.93 615.87C327.37 615.7 326.85 615.46 326.3 615.27C325.762 615.073 325.246 614.821 324.76 614.52L324.01 614.11C323.77 613.95 323.55 613.77 323.32 613.6C321.436 612.166 319.861 610.367 318.69 608.31C318.02 607.31 317.4 606.07 316.69 604.83C316.024 603.817 315.464 602.738 315.02 601.61C314.254 599.241 313.793 596.785 313.65 594.3C313.28 589.172 313.87 584.021 315.39 579.11C316.143 576.745 317.234 574.502 318.63 572.45L319.72 571.03L321.04 569.63C321.89 568.63 322.91 567.8 323.88 566.9C324.85 566 325.88 565.15 326.88 564.29L328.44 563L330.04 561.75C332.15 560.05 334.36 558.45 336.55 556.83C340.99 553.656 345.513 550.583 350.12 547.61C354.69 544.61 359.38 541.74 364.12 538.9C373.606 533.3 383.283 528.03 393.15 523.09Z" fill="#231F20"/>
<path d="M455.19 536.93C455.19 536.93 454.32 528.16 437.6 534.34C420.88 540.52 422.82 550.01 423.67 551.87C424.52 553.73 429.3 556.1 439.91 551.65C450.52 547.2 455.71 539.61 455.19 536.93Z" fill="#131429"/>
<path d="M401.13 537.14C401.13 537.14 394.33 524.91 404.84 517.96C420.57 507.55 434 532.29 426.49 538.68C418.98 545.07 413.96 534.01 413.96 534.01C413.96 534.01 408.35 545.09 401.13 537.14Z" fill="#131429"/>
<path d="M457.11 556.43C457.11 556.43 458.37 548.55 443.25 549.98C428.13 551.41 427.6 560.17 427.88 561.98C428.16 563.79 431.55 566.98 441.26 565.66C450.97 564.34 456.94 558.91 457.11 556.43Z" fill="#131429"/>
<path d="M257.64 643.86C257.64 643.86 265.28 638.32 252.94 631.3C240.6 624.28 229.67 618.97 229.67 618.97L225.58 634.37C225.58 634.37 248.55 648.61 257.64 643.86Z" fill="#131429"/>
<path d="M244.11 670.93C244.11 670.93 253.21 668.43 244.11 657.52C235.01 646.61 226.66 637.79 226.66 637.79L217.42 650.79C217.42 650.79 233.93 672.17 244.11 670.93Z" fill="#131429"/>
<path d="M208.5 679.71C208.5 679.71 217.5 682.51 215.75 668.43C214 654.35 211.68 642.43 211.68 642.43L196.9 648.38C196.9 648.38 199.26 675.27 208.5 679.71Z" fill="#131429"/>
<path d="M249.48 601.16C249.48 601.16 248.48 591.78 236.24 599.06C224 606.34 214.04 613.23 214.04 613.23L225.42 624.37C225.42 624.37 249.12 611.41 249.48 601.16Z" fill="#131429"/>
<path d="M232.24 652.86C232.24 652.86 253.57 628.38 233.82 602.74C214.07 577.1 179.82 544.84 167.4 540.58C154.98 536.32 138.65 541.81 134.12 546.68C129.59 551.55 115.58 559.63 132.9 585.87C150.22 612.11 175.97 650.1 191.53 657.77C207.09 665.44 224.49 661.09 232.24 652.86Z" fill="#49BEA2"/>
<path d="M191.53 657.77C198.746 662.183 207.282 663.925 215.65 662.69C219.914 662.109 224.035 660.753 227.81 658.69C228.759 658.145 229.674 657.544 230.55 656.89L231.86 655.89C232.28 655.52 232.69 655.12 233.1 654.74L233.73 654.14L234.29 653.46C234.63 653.03 234.95 652.61 235.29 652.17C235.92 651.31 236.51 650.43 237.08 649.53C239.308 645.905 241.056 642.005 242.28 637.93C243.473 633.821 243.977 629.543 243.77 625.27C243.648 623.148 243.344 621.04 242.86 618.97C242.337 616.915 241.641 614.908 240.78 612.97C239.058 609.185 236.712 605.717 233.84 602.71C238.17 609.71 240.84 617.46 240.65 625.31C240.338 633.164 237.921 640.79 233.65 647.39C233.13 648.22 232.6 649.05 232.04 649.84C231.76 650.23 231.47 650.62 231.18 651L230.78 651.51L230.3 651.97C228.961 653.279 227.479 654.433 225.88 655.41C222.534 657.381 218.89 658.796 215.09 659.6C207.222 661.239 199.051 660.604 191.53 657.77Z" fill="#231F20"/>
<path d="M233.82 602.74C227.491 593.677 220.608 585.014 213.21 576.8C205.818 568.539 197.99 560.678 189.76 553.25C185.616 549.473 181.244 545.954 176.67 542.71C175.49 541.91 174.34 541.08 173.04 540.37L171.13 539.27L168.99 538.27C166.164 537.177 163.192 536.503 160.17 536.27C157.221 536.052 154.257 536.156 151.33 536.58C148.419 536.971 145.553 537.64 142.77 538.58C139.887 539.501 137.137 540.795 134.59 542.43C133.886 542.899 133.217 543.421 132.59 543.99C131.84 544.68 131.52 544.99 131.08 545.45C130.08 546.37 129.08 547.31 128.01 548.45C125.791 550.693 124.047 553.359 122.88 556.29C122.74 556.67 122.59 557.04 122.45 557.42L122.16 558.6C121.94 559.371 121.792 560.161 121.72 560.96C121.65 561.75 121.54 562.55 121.52 563.34L121.62 565.68C121.656 566.45 121.753 567.215 121.91 567.97C122.05 568.72 122.16 569.48 122.33 570.22L122.97 572.37C123.161 573.087 123.395 573.791 123.67 574.48C124.24 575.83 124.75 577.22 125.38 578.48L127.38 582.31C130.38 587.31 133.51 591.7 136.63 596.31C139.75 600.92 142.93 605.38 146.19 609.84C152.66 618.84 159.39 627.58 166.62 635.98C170.27 640.15 174.02 644.25 178.07 648.05C182.12 651.85 186.43 655.49 191.48 657.78C189.135 656.36 186.955 654.683 184.98 652.78C182.976 650.917 181.067 648.955 179.26 646.9C175.62 642.81 172.19 638.53 168.91 634.14C165.63 629.75 162.4 625.32 159.28 620.8C156.16 616.28 153.06 611.8 150.03 607.18L141.03 593.39C138.03 588.79 134.95 584.13 132.37 579.59L130.6 576.07C130.04 574.9 129.6 573.69 129.12 572.5C128.885 571.911 128.691 571.306 128.54 570.69L128.01 568.88C127.88 568.27 127.81 567.67 127.7 567.06C127.57 566.468 127.493 565.865 127.47 565.26L127.41 563.48C127.41 562.89 127.53 562.32 127.57 561.74C127.624 561.169 127.738 560.606 127.91 560.06L128.11 559.23C128.21 558.96 128.32 558.7 128.43 558.44C129.33 556.25 130.667 554.266 132.36 552.61C133.2 551.7 134.19 550.79 135.21 549.81C136.023 548.908 136.928 548.094 137.91 547.38C140.001 546.031 142.256 544.955 144.62 544.18C149.488 542.517 154.622 541.774 159.76 541.99C162.24 542.113 164.689 542.595 167.03 543.42L168.68 544.11L170.37 545.03C171.5 545.61 172.61 546.37 173.73 547.03C174.85 547.69 175.94 548.53 177.03 549.31L178.68 550.49L180.29 551.72C182.47 553.33 184.59 555.05 186.71 556.72C190.91 560.2 195.04 563.8 199.09 567.48C203.14 571.16 207.09 574.94 211.09 578.76C218.957 586.466 226.534 594.46 233.82 602.74Z" fill="#231F20"/>
<path d="M155.73 307.41C155.73 307.41 243.98 438.86 214.62 518.41C214.62 518.41 253.11 584.92 305 551.07C305 551.07 338.82 509.44 298.35 436.57L155.73 307.41Z" fill="#49BEA2"/>
<path d="M308.93 459.01C269.24 437.01 213.59 389.75 173.38 334.11L172.38 335.11C179.38 347.6 187.64 363.52 195.38 381.22C216.48 416.04 254.38 465.56 317.97 511.82C318.98 497.71 317.11 480 308.93 459.01Z" fill="#3D9480"/>
<path d="M155.73 307.41C165.49 323.48 174.26 340.11 182.37 357.01C186.37 365.47 190.22 374.01 193.76 382.7C197.3 391.39 200.64 400.09 203.61 408.94C209.45 426.65 214.19 444.77 216.17 463.15C217.191 472.284 217.388 481.491 216.76 490.66C216.115 499.705 214.216 508.617 211.12 517.14C210.931 517.653 210.857 518.202 210.906 518.747C210.954 519.291 211.123 519.819 211.4 520.29C212.67 522.45 213.92 524.34 215.27 526.29C216.62 528.24 217.99 530.09 219.44 531.92C222.322 535.614 225.428 539.127 228.74 542.44C235.425 549.241 243.199 554.879 251.74 559.12C256.134 561.215 260.769 562.759 265.54 563.72C266.75 563.91 267.94 564.21 269.17 564.31L272.84 564.65C275.299 564.753 277.761 564.687 280.21 564.45L282.04 564.28C282.66 564.23 283.25 564.08 283.86 563.98C285.06 563.75 286.28 563.55 287.47 563.28C289.845 562.686 292.183 561.951 294.47 561.08C298.964 559.335 303.264 557.127 307.3 554.49C307.647 554.281 307.952 554.01 308.2 553.69C308.51 553.3 308.69 553.05 308.91 552.74C309.13 552.43 309.32 552.16 309.51 551.88C309.91 551.3 310.26 550.73 310.63 550.15C311.33 548.99 312 547.82 312.63 546.64C313.875 544.289 314.983 541.868 315.95 539.39C317.889 534.472 319.362 529.383 320.35 524.19C322.331 513.901 322.726 503.369 321.52 492.96C320.318 482.663 317.908 472.544 314.34 462.81C310.845 453.152 306.53 443.811 301.44 434.89C301.262 434.569 301.032 434.278 300.76 434.03C288.58 423.15 276.27 412.39 263.98 401.63C251.69 390.87 239.33 380.29 227.11 369.78C214.89 359.27 202.81 348.94 190.91 338.53C184.97 333.357 179.074 328.18 173.22 323L155.73 307.41ZM155.73 307.41L173.95 324.16C179.95 329.727 185.934 335.313 191.9 340.92C203.78 352.04 215.48 363.28 227.01 374.27C238.54 385.26 250.01 396.27 261.46 407.01C272.91 417.75 284.4 428.55 295.99 439.19L295.28 438.3C300.043 446.941 304.058 455.974 307.28 465.3C310.497 474.528 312.647 484.093 313.69 493.81C314.765 503.428 314.36 513.154 312.49 522.65C311.562 527.347 310.196 531.947 308.41 536.39C307.531 538.591 306.529 540.741 305.41 542.83C304.86 543.83 304.28 544.88 303.67 545.83C303.36 546.31 303.05 546.83 302.73 547.27C302.58 547.5 302.42 547.73 302.26 547.95L301.84 548.52L302.77 547.67C299.203 549.964 295.418 551.9 291.47 553.45C289.51 554.212 287.507 554.856 285.47 555.38C284.47 555.61 283.47 555.77 282.47 555.98C281.96 556.06 281.47 556.2 280.94 556.25L279.39 556.39C277.331 556.6 275.259 556.67 273.19 556.6L270.1 556.32C269.1 556.24 268.1 555.99 267.02 555.83C262.903 555.014 258.901 553.701 255.1 551.92C247.362 548.093 240.316 543.003 234.25 536.86C231.128 533.794 228.186 530.548 225.44 527.14C224.05 525.44 222.74 523.69 221.44 521.91C220.14 520.13 218.9 518.28 217.85 516.55L218.12 519.71C221.335 510.498 223.25 500.882 223.81 491.14C224.357 481.535 223.968 471.9 222.65 462.37C221.371 452.927 219.49 443.574 217.02 434.37C215.79 429.78 214.49 425.21 213.02 420.7C211.55 416.19 210.02 411.7 208.36 407.28C205.06 398.4 201.454 389.66 197.54 381.06C193.63 372.47 189.42 364.06 185.02 355.69C180.62 347.32 175.94 339.17 171.08 331.1C166.22 323.03 161.12 315.09 155.73 307.41Z" fill="#231F20"/>
<path d="M233.8 173.01C230.702 168.907 233.404 161.644 239.835 156.789C246.266 151.934 253.991 151.325 257.089 155.429C260.187 159.533 257.485 166.795 251.054 171.65C244.623 176.505 236.898 177.114 233.8 173.01Z" fill="#3D9480"/>
<path d="M301.35 134.18C301.35 134.18 431.02 140.06 481.19 208.93C531.36 277.8 565.93 355.57 563.86 378.51C561.79 401.45 468.49 508.23 361.14 484.93C302.45 468.22 201.3 409.35 150.33 335.49C146.835 330.399 145.262 324.233 145.89 318.09C146.67 310.2 148.12 298.09 150.6 284.75C154.95 261.35 182.35 155.29 301.35 134.18Z" fill="#49BEA2"/>
<path d="M145.891 318.09C147.371 307.32 149.291 296.63 151.531 286.03C152.641 280.76 154.101 275.56 155.711 270.42C157.321 265.28 159.131 260.21 161.111 255.2C163.091 250.19 165.291 245.29 167.681 240.48C168.851 238.06 170.101 235.69 171.331 233.31L173.271 229.79C173.911 228.61 174.571 227.44 175.271 226.3C180.666 217.069 186.824 208.305 193.681 200.1C207.224 183.664 223.746 169.93 242.381 159.62C251.647 154.474 261.352 150.161 271.381 146.73C281.467 143.435 291.768 140.839 302.211 138.96L301.141 139.03C305.001 139.25 309.071 139.62 313.041 140.03C317.011 140.44 321.041 140.93 325.041 141.48C333.041 142.58 340.971 143.913 348.831 145.48C364.589 148.56 380.126 152.679 395.341 157.81C410.465 162.88 425.02 169.513 438.771 177.6C445.59 181.598 452.08 186.133 458.181 191.16C464.278 196.112 469.848 201.682 474.801 207.78L476.641 210.06C477.251 210.83 477.871 211.58 478.461 212.41L482.051 217.3C484.421 220.58 486.811 223.84 489.121 227.16C493.787 233.767 498.324 240.47 502.731 247.27C511.531 260.86 519.981 274.71 527.891 288.86C535.801 303.01 543.271 317.43 549.831 332.26C553.141 339.66 556.241 347.16 558.831 354.83C560.121 358.67 561.371 362.53 562.311 366.48C563.35 370.395 563.878 374.429 563.881 378.48C564.189 374.394 563.96 370.286 563.201 366.26C562.526 362.215 561.635 358.209 560.531 354.26C558.371 346.36 555.741 338.61 552.841 330.96C546.944 315.698 540.269 300.748 532.841 286.17C525.431 271.58 517.531 257.23 508.961 243.28C504.707 236.293 500.317 229.383 495.791 222.55C493.551 219.12 491.231 215.74 488.921 212.35L485.381 207.35C484.811 206.52 484.161 205.68 483.511 204.84L481.571 202.33C476.362 195.688 470.485 189.599 464.031 184.16C457.656 178.715 450.858 173.786 443.701 169.42C436.606 165.044 429.238 161.129 421.641 157.7C414.081 154.27 406.391 151.13 398.561 148.44C382.955 143.005 366.968 138.734 350.731 135.66C342.637 134.1 334.504 132.767 326.331 131.66C322.251 131.11 318.151 130.66 314.051 130.24C309.951 129.82 305.871 129.48 301.601 129.24H301.051L300.531 129.34C289.6 131.381 278.842 134.256 268.351 137.94C257.865 141.751 247.738 146.486 238.091 152.09C218.855 163.334 201.953 178.161 188.301 195.77C174.865 213.278 164.393 232.871 157.301 253.77C153.697 264.125 151.02 274.781 149.301 285.61C147.631 296.4 146.581 307.24 145.891 318.09Z" fill="#231F20"/>
<path d="M563.86 378.51C563.295 381.18 562.305 383.742 560.93 386.1C559.621 388.485 558.175 390.792 556.6 393.01C553.482 397.469 550.102 401.739 546.48 405.8C539.276 413.94 531.51 421.565 523.24 428.62C515.04 435.721 506.392 442.287 497.35 448.28C488.385 454.28 479.031 459.678 469.35 464.44C464.51 466.79 459.59 468.96 454.6 470.91C449.61 472.86 444.6 474.68 439.45 476.23C429.253 479.362 418.773 481.482 408.16 482.56C397.612 483.647 386.977 483.593 376.44 482.4L372.51 481.88C371.19 481.71 369.89 481.47 368.59 481.26C367.29 481.05 366.02 480.8 364.76 480.55C363.492 480.338 362.24 480.045 361.01 479.67L357.28 478.54L353.47 477.28C350.92 476.47 348.4 475.5 345.87 474.61C335.76 470.9 325.87 466.61 316.03 461.99C306.19 457.37 296.61 452.39 287.11 447.14C277.61 441.89 268.28 436.34 259.11 430.49C256.82 429.03 254.54 427.57 252.29 426.05C250.04 424.53 247.76 423.05 245.52 421.5C241.01 418.5 236.58 415.34 232.17 412.16L225.61 407.33L219.13 402.33L212.76 397.26L206.45 392.09C198.09 385.143 190.024 377.853 182.25 370.22C174.444 362.621 167.024 354.634 160.02 346.29C158.3 344.18 156.48 342.13 154.85 339.95L152.34 336.71C151.5 335.63 150.64 334.57 149.94 333.46C147 328.877 145.573 323.487 145.86 318.05C145.03 323.599 145.997 329.269 148.62 334.23C149.295 335.451 150.033 336.636 150.83 337.78L153.1 341.22C154.58 343.55 156.24 345.74 157.81 348.01C164.29 356.936 171.261 365.496 178.69 373.65C186.13 381.8 193.98 389.58 202.1 397.06C210.22 404.54 218.74 411.6 227.43 418.41C231.79 421.8 236.19 425.14 240.66 428.41C242.88 430.06 245.17 431.61 247.43 433.19C249.69 434.77 251.98 436.33 254.28 437.86C263.46 444.013 272.834 449.87 282.4 455.43C301.575 466.612 321.643 476.185 342.4 484.05C345.03 484.97 347.64 485.95 350.31 486.79L354.31 488.09L358.45 489.33C359.84 489.756 361.257 490.09 362.69 490.33C364.12 490.62 365.56 490.91 366.94 491.11C368.32 491.31 369.74 491.59 371.14 491.76L375.36 492.28C381.008 492.859 386.683 493.133 392.36 493.1C398.013 493.076 403.66 492.715 409.27 492.02C420.45 490.646 431.467 488.17 442.16 484.63C452.795 481.139 463.101 476.719 472.96 471.42C492.567 460.913 510.62 447.734 526.6 432.26C530.6 428.4 534.434 424.4 538.1 420.26C541.8 416.16 545.36 411.93 548.68 407.51C552.033 403.119 555.118 398.531 557.92 393.77C559.31 391.382 560.565 388.918 561.68 386.39C562.837 383.902 563.574 381.239 563.86 378.51Z" fill="#231F20"/>
<path d="M348.99 386.65C326.247 386.65 307.81 368.213 307.81 345.47C307.81 322.727 326.247 304.29 348.99 304.29C371.733 304.29 390.17 322.727 390.17 345.47C390.17 368.213 371.733 386.65 348.99 386.65Z" fill="#F7F7E2"/>
<path d="M389.78 351.09C387.52 361.509 381.486 370.723 372.84 376.96C364.374 382.992 353.922 385.557 343.626 384.131C333.329 382.705 323.968 377.395 317.46 369.29C310.835 360.938 307.533 350.431 308.19 339.79C307.015 345.158 306.995 350.714 308.13 356.09C309.3 361.562 311.58 366.735 314.83 371.29C318.118 375.886 322.306 379.765 327.14 382.69C332.003 385.636 337.415 387.559 343.047 388.339C348.678 389.12 354.41 388.742 359.89 387.23C365.357 385.733 370.461 383.137 374.89 379.6C379.256 376.105 382.854 371.748 385.46 366.8C388.001 361.93 389.474 356.574 389.78 351.09Z" fill="#231F20"/>
<path d="M389.78 351.09C390.958 345.72 390.982 340.16 389.85 334.78C388.68 329.311 386.4 324.141 383.15 319.59C379.866 314.989 375.677 311.106 370.84 308.18C365.976 305.238 360.563 303.319 354.932 302.54C349.301 301.761 343.57 302.139 338.09 303.65C332.622 305.145 327.518 307.741 323.09 311.28C318.725 314.775 315.126 319.132 312.52 324.08C309.963 328.947 308.47 334.302 308.14 339.79C310.4 329.368 316.433 320.151 325.08 313.91C333.548 307.884 344 305.323 354.295 306.751C364.59 308.178 373.95 313.487 380.46 321.59C387.103 329.935 390.423 340.443 389.78 351.09Z" fill="#231F20"/>
<path d="M363.05 379.71C348.128 379.71 336.03 367.613 336.03 352.69C336.03 337.767 348.128 325.67 363.05 325.67C377.973 325.67 390.07 337.767 390.07 352.69C390.07 367.613 377.973 379.71 363.05 379.71Z" fill="#080C0D"/>
<path d="M501.25 407.73C478.507 407.73 460.07 389.293 460.07 366.55C460.07 343.807 478.507 325.37 501.25 325.37C523.993 325.37 542.43 343.807 542.43 366.55C542.43 389.293 523.993 407.73 501.25 407.73Z" fill="#F7F7E2"/>
<path d="M542.04 372.2C539.787 382.627 533.752 391.85 525.1 398.09C516.634 404.118 506.184 406.682 495.889 405.258C485.594 403.834 476.232 398.53 469.72 390.43C463.094 382.074 459.793 371.563 460.45 360.92C459.27 366.29 459.25 371.851 460.39 377.23C461.56 382.698 463.84 387.869 467.09 392.42C470.362 397.009 474.533 400.884 479.35 403.81C486.66 408.241 495.155 410.322 503.686 409.769C512.217 409.216 520.373 406.058 527.05 400.72C531.41 397.216 535.007 392.856 537.62 387.91C540.196 383.048 541.703 377.692 542.04 372.2Z" fill="#231F20"/>
<path d="M542.04 372.2C543.22 366.833 543.24 361.276 542.1 355.9C540.938 350.427 538.661 345.253 535.41 340.7C532.119 336.101 527.927 332.219 523.09 329.29C518.228 326.348 512.816 324.429 507.187 323.65C501.558 322.871 495.828 323.248 490.35 324.76C484.884 326.259 479.78 328.855 475.35 332.39C470.984 335.889 467.386 340.249 464.78 345.2C462.223 350.064 460.73 355.415 460.4 360.9C462.66 350.479 468.698 341.263 477.35 335.03C485.814 328.999 496.265 326.434 506.559 327.86C516.854 329.286 526.214 334.595 532.72 342.7C539.367 351.043 542.687 361.553 542.04 372.2Z" fill="#231F20"/>
<path d="M515.31 400.8C500.387 400.8 488.29 388.702 488.29 373.78C488.29 358.857 500.387 346.76 515.31 346.76C530.233 346.76 542.33 358.857 542.33 373.78C542.33 388.702 530.233 400.8 515.31 400.8Z" fill="#080C0D"/>
<path d="M425.519 225.09C418.916 216.366 417.919 205.998 423.292 201.932C428.664 197.865 438.372 201.641 444.975 210.365C451.577 219.089 452.574 229.457 447.202 233.524C441.829 237.59 432.121 233.814 425.519 225.09Z" fill="#3D9480"/>
<path d="M462.198 268.621C458.445 261.49 459.091 253.769 463.641 251.374C468.191 248.979 474.922 252.818 478.675 259.948C482.428 267.079 481.782 274.8 477.232 277.195C472.682 279.59 465.951 275.751 462.198 268.621Z" fill="#3D9480"/>
<path d="M471.26 247.181C466.978 242.357 466.005 236.229 469.086 233.494C472.168 230.759 478.137 232.453 482.419 237.278C486.701 242.102 487.674 248.23 484.592 250.965C481.511 253.7 475.542 252.006 471.26 247.181Z" fill="#3D9480"/>
<path d="M271.53 373.5C271.53 373.5 282.97 402.64 316.12 402.8C349.27 402.96 390.27 426.34 409.23 441.13C409.23 441.13 430.86 429.74 446.65 435.48C462.44 441.22 481.72 443.73 493.87 436.8" stroke="#231F20" stroke-width="6.06" stroke-linecap="round" stroke-linejoin="round"/>
<path d="M409.23 441.09C457.23 413.47 449.43 342.39 449.43 342.39" stroke="#231F20" stroke-width="6.06" stroke-miterlimit="10" stroke-linecap="round"/>
<path d="M251.28 367.23C251.28 367.23 271.9 380.91 276.78 362.34" stroke="#231F20" stroke-width="6.06" stroke-miterlimit="10" stroke-linecap="round"/>
<path d="M506.351 438.54C506.351 438.54 489.201 444.04 489.561 424.83" stroke="#231F20" stroke-width="6.06" stroke-miterlimit="10" stroke-linecap="round"/>
<path d="M423.88 407.28C424.122 407.306 424.358 407.37 424.58 407.47L424.75 407.55L424.87 407.62C424.87 407.62 424.92 407.62 424.87 407.62C424.814 407.588 424.76 407.551 424.71 407.51C424.54 407.393 424.376 407.266 424.22 407.13C423.87 406.83 423.5 406.48 423.14 406.13C422.41 405.41 421.67 404.65 420.95 403.86C419.5 402.29 418.08 400.64 416.68 398.99C416.304 398.534 415.767 398.241 415.18 398.172C414.593 398.103 414.002 398.263 413.531 398.619C413.06 398.976 412.745 399.501 412.651 400.084C412.558 400.667 412.693 401.264 413.03 401.75C414.26 403.59 415.52 405.42 416.85 407.24C417.51 408.15 418.2 409.06 418.94 409.97C419.31 410.42 419.69 410.88 420.13 411.34C420.357 411.596 420.597 411.84 420.85 412.07C421.002 412.219 421.162 412.359 421.33 412.49L421.69 412.74L421.99 412.92H422.07L422.25 413C422.501 413.112 422.767 413.186 423.04 413.22C423.434 413.275 423.835 413.251 424.219 413.151C424.604 413.05 424.966 412.875 425.283 412.635C425.6 412.395 425.867 412.095 426.068 411.752C426.269 411.408 426.4 411.029 426.455 410.635C426.509 410.241 426.486 409.84 426.385 409.456C426.285 409.071 426.11 408.71 425.87 408.392C425.63 408.075 425.329 407.808 424.986 407.607C424.643 407.406 424.264 407.275 423.87 407.22L423.88 407.28Z" fill="#231F20"/>
<path d="M444.57 416.26C444.845 416.302 445.125 416.302 445.4 416.26H445.59H445.68L446.02 416.17L446.43 416.02C446.626 415.943 446.817 415.853 447 415.75C447.34 415.58 447.63 415.42 447.9 415.25C448.45 414.92 448.9 414.58 449.42 414.25C450.37 413.57 451.28 412.89 452.17 412.19C453.94 410.8 455.65 409.38 457.34 407.94C457.824 407.573 458.142 407.028 458.225 406.426C458.307 405.824 458.147 405.214 457.78 404.73C457.413 404.246 456.868 403.927 456.266 403.845C455.664 403.762 455.054 403.922 454.57 404.29C452.77 405.5 450.96 406.7 449.14 407.82C448.23 408.38 447.32 408.92 446.42 409.41C445.97 409.65 445.52 409.89 445.1 410.08C444.89 410.18 444.69 410.26 444.53 410.32L444.35 410.37H444.49H444.67C444.909 410.338 445.151 410.338 445.39 410.37C444.594 410.26 443.788 410.47 443.147 410.955C442.507 411.44 442.085 412.159 441.975 412.955C441.865 413.75 442.075 414.557 442.56 415.198C443.045 415.838 443.764 416.26 444.56 416.37L444.57 416.26Z" fill="#231F20"/>
<path d="M625.89 236.21C625.66 268.42 548.81 266.32 399.58 265.21C250.35 264.1 85.2703 264.42 85.5103 232.21C85.7503 200 207.26 126.69 356.51 127.79C505.76 128.89 626.13 204.01 625.89 236.21Z" fill="#F0CC6D"/>
<path d="M85.5101 232.23C85.8218 229.102 86.8482 226.088 88.5101 223.42C90.1019 220.733 91.9612 218.213 94.06 215.9C98.2527 211.269 102.87 207.041 107.85 203.27C117.825 195.724 128.419 189.033 139.52 183.27C150.564 177.398 161.913 172.121 173.52 167.46C179.32 165.134 185.163 162.903 191.05 160.77C196.937 158.637 202.867 156.66 208.84 154.84C214.84 152.99 220.84 151.25 226.84 149.66C232.84 148.07 238.93 146.49 245.02 145.11C257.2 142.324 269.473 140.017 281.84 138.19C331.293 130.721 381.615 131.099 430.95 139.31C443.27 141.31 455.507 143.797 467.66 146.77C473.73 148.24 479.76 149.88 485.77 151.58C491.78 153.28 497.77 155.09 503.71 157.03C509.65 158.97 515.56 161.03 521.42 163.22C527.28 165.41 533.07 167.76 538.84 170.17C550.386 174.989 561.663 180.43 572.62 186.47C583.637 192.403 594.134 199.254 604 206.95C608.926 210.794 613.48 215.093 617.6 219.79C619.668 222.128 621.491 224.671 623.04 227.38C624.652 230.074 625.623 233.102 625.88 236.23C625.92 234.641 625.749 233.054 625.37 231.51C624.957 229.969 624.412 228.467 623.74 227.02C622.368 224.137 620.714 221.397 618.8 218.84C614.915 213.777 610.562 209.09 605.8 204.84C596.256 196.404 585.982 188.832 575.1 182.21C553.324 169.018 530.253 158.091 506.25 149.6C500.25 147.44 494.223 145.403 488.17 143.49C482.117 141.577 476 139.82 469.82 138.22C457.52 134.96 445.097 132.19 432.55 129.91C382.256 120.816 330.772 120.441 280.35 128.8C267.783 130.893 255.317 133.48 242.95 136.56C230.583 139.64 218.383 143.244 206.35 147.37C182.227 155.509 158.999 166.094 137.03 178.96C126.063 185.421 115.689 192.84 106.03 201.13C101.212 205.308 96.7986 209.932 92.85 214.94C90.8925 217.467 89.1939 220.184 87.7801 223.05C87.0789 224.484 86.5131 225.981 86.09 227.52C85.6835 229.056 85.4884 230.641 85.5101 232.23Z" fill="#231F20"/>
<path d="M625.89 236.21C625.786 237.66 625.528 239.095 625.12 240.49C624.679 241.852 624.068 243.152 623.3 244.36C621.703 246.706 619.636 248.695 617.23 250.2C612.44 253.26 606.91 255.01 601.34 256.33C590.15 258.98 578.54 259.82 566.99 260.56C555.44 261.3 543.78 261.36 532.15 261.5C520.52 261.64 508.87 261.5 497.21 261.38C450.61 260.85 403.87 260.01 357.21 259.99L287.21 259.63L252.21 259.21C240.556 259.05 228.89 258.803 217.21 258.47C205.57 258.09 193.93 257.72 182.3 257.11C170.67 256.5 159.07 255.67 147.5 254.58C135.936 253.541 124.443 251.828 113.08 249.45C107.42 248.263 101.893 246.514 96.5797 244.23C93.9364 243.1 91.4814 241.572 89.2996 239.7C88.229 238.743 87.3207 237.618 86.6097 236.37C85.9088 235.099 85.515 233.681 85.4597 232.23C85.3954 233.709 85.6797 235.182 86.2896 236.53C86.9193 237.885 87.7748 239.123 88.8196 240.19C90.9264 242.288 93.3409 244.051 95.9797 245.42C101.233 248.13 106.756 250.278 112.46 251.83C123.787 254.959 135.309 257.334 146.95 258.94C158.55 260.71 170.21 261.94 181.87 263.05C193.53 264.16 205.21 265.05 216.87 265.71C240.203 267.104 263.566 268.07 286.96 268.61L322.01 269.4L357.01 269.83L392.01 270.18C403.68 270.31 415.35 270.29 427.01 270.36L444.52 270.42H453.28L462.04 270.36C473.726 270.28 485.416 270.147 497.11 269.96C508.8 269.74 520.5 269.32 532.21 268.77C543.92 268.22 555.62 267.34 567.31 266.05C570.23 265.73 573.15 265.36 576.07 264.96C578.99 264.56 581.89 264.06 584.79 263.54C590.622 262.516 596.386 261.137 602.05 259.41C607.68 257.58 613.3 255.27 618.05 251.61C620.462 249.781 622.454 247.455 623.89 244.79C624.566 243.457 625.067 242.042 625.38 240.58C625.713 239.147 625.884 237.681 625.89 236.21Z" fill="#231F20"/>
<path d="M199.55 185.35C199.55 185.35 205.96 76.5699 239.63 42.8199C239.63 42.8199 307.93 4.09983 359.93 4.47983C411.93 4.85983 480.45 44.5999 480.45 44.5999C480.45 44.5999 524.11 150.09 516.89 187.69C516.89 187.69 415.94 222.18 355.79 221.69C295.64 221.2 199.55 185.35 199.55 185.35Z" fill="#F0CC6D"/>
<path d="M516.89 187.69C518.68 178.39 517.35 164.94 514.33 149.95C514.33 149.95 446.02 171.63 392.23 171.24C338.44 170.85 203.57 147.66 203.57 147.66C200.5 169.32 199.57 185.35 199.57 185.35C199.57 185.35 336.01 212.09 396.15 212.58C456.29 213.07 516.89 187.69 516.89 187.69Z" fill="#AA73AE"/>
<path d="M480.45 44.6001C484.49 56.3401 488.367 68.1202 492.08 79.9402C495.83 91.7502 499.29 103.63 502.54 115.54C504.15 121.54 505.66 127.48 507.03 133.47C508.4 139.46 509.73 145.47 510.79 151.47C511.881 157.425 512.662 163.433 513.13 169.47C513.52 175.47 513.63 181.47 512.56 186.81L515.19 183.57C509.19 185.93 502.79 188.1 496.49 190.11C490.19 192.12 483.76 193.94 477.36 195.68C470.96 197.42 464.49 198.96 458 200.35C451.51 201.74 445 203 438.48 204.04C425.46 206.169 412.301 207.342 399.11 207.55C392.54 207.63 385.94 207.43 379.29 207.02C372.64 206.61 366 206.2 359.35 205.6C332.73 203.18 306.09 199.8 279.47 196.28L199.55 185.28C212.61 188.57 225.73 191.56 238.89 194.4L258.66 198.54L278.49 202.37C291.71 204.92 305 207.14 318.31 209.27C331.62 211.4 345 213.2 358.44 214.72C371.956 216.384 385.553 217.292 399.17 217.44C412.874 217.354 426.55 216.184 440.07 213.94C446.81 212.847 453.503 211.557 460.15 210.07C466.797 208.583 473.393 206.917 479.94 205.07C486.49 203.24 492.94 201.15 499.41 198.96C505.88 196.77 512.17 194.42 518.6 191.73L520.82 190.79L521.23 188.49C521.776 185.165 522.03 181.799 521.99 178.43C521.963 175.192 521.762 171.957 521.39 168.74C520.647 162.44 519.582 156.182 518.2 149.99C516.867 143.843 515.337 137.763 513.61 131.75C511.883 125.737 510.04 119.77 508.08 113.85C504.21 102 499.83 90.34 495.26 78.78C490.69 67.22 485.76 55.8301 480.45 44.6001Z" fill="#231F20"/>
<path d="M199.55 185.35C201.19 172.91 203.21 160.56 205.43 148.27C206.53 142.12 207.82 136.01 209.09 129.92C210.36 123.83 211.79 117.76 213.37 111.75C216.327 99.7642 220.105 87.9964 224.68 76.5301C226.95 70.9121 229.582 65.4474 232.56 60.1702C235.397 55.0593 238.904 50.3508 242.99 46.1702L241.99 46.9503C246.51 44.5203 251.27 42.1201 255.99 39.8301C260.71 37.5401 265.51 35.3503 270.32 33.2103C279.94 28.9436 289.7 25.0635 299.6 21.5701C309.447 18.0784 319.487 15.1569 329.67 12.8201C334.74 11.7301 339.83 10.7301 344.95 10.0701C350.035 9.40899 355.153 9.03519 360.28 8.95026C370.637 9.05752 380.956 10.2134 391.08 12.4002C396.2 13.4002 401.29 14.7402 406.36 16.1202C411.43 17.5002 416.48 19.0202 421.5 20.6502C441.656 27.3907 461.362 35.4069 480.5 44.6502C471.521 38.8542 462.256 33.5141 452.74 28.6502C443.22 23.7802 433.51 19.2101 423.51 15.2601C418.51 13.2601 413.51 11.3602 408.37 9.6402C403.23 7.9202 398.07 6.39013 392.81 5.07013C371.583 -0.982865 349.168 -1.55391 327.66 3.41022C322.31 4.50022 317.04 5.8501 311.81 7.2901C306.58 8.7301 301.44 10.4302 296.32 12.1702C286.09 15.6902 276.1 19.7702 266.32 24.1702C261.4 26.3802 256.55 28.7202 251.73 31.1702C246.91 33.6202 242.18 36.0501 237.39 38.8001L236.79 39.1502L236.37 39.5801C231.766 44.4483 227.868 49.9385 224.79 55.8902C221.773 61.6128 219.164 67.5408 216.98 73.6302C214.77 79.6302 212.98 85.7802 211.35 91.9102C209.72 98.0402 208.29 104.22 207.11 110.43C204.71 122.837 202.913 135.307 201.72 147.84C201.07 154.09 200.6 160.36 200.25 166.64C200.07 169.77 199.91 172.91 199.82 176.05C199.73 179.19 199.54 182.21 199.55 185.35Z" fill="#231F20"/>
<path d="M203.57 147.66C229.11 153.86 254.89 158.84 280.75 163.29C306.61 167.74 332.61 171.46 358.83 174.08L368.69 174.94C371.97 175.25 375.3 175.41 378.6 175.63C381.9 175.85 385.26 175.93 388.6 176.01C391.94 176.09 395.32 176.01 398.68 175.89C405.41 175.58 412.04 174.89 418.63 174.04C425.22 173.19 431.74 172.09 438.23 170.84C451.23 168.35 464.03 165.31 476.72 161.84C489.41 158.37 501.98 154.52 514.32 149.96C501.4 152.35 488.54 154.84 475.64 156.96C462.74 159.08 449.86 161.28 436.97 162.96C424.18 164.762 411.301 165.867 398.39 166.27C395.21 166.27 392.04 166.39 388.83 166.17C385.62 165.95 382.45 165.93 379.21 165.63C375.97 165.33 372.76 165.22 369.52 164.89L359.8 163.99C333.86 161.4 307.87 158.29 281.8 155.41C255.73 152.53 229.77 149.74 203.57 147.66Z" fill="#231F20"/>
<path d="M557.84 322.35C557.84 322.35 547.57 287.62 512.31 286.67" stroke="#231F20" stroke-width="6.06" stroke-miterlimit="10" stroke-linecap="round"/>
<path d="M291.46 304.24C291.46 304.24 310.78 273.6 344.97 282.24" stroke="#231F20" stroke-width="6.06" stroke-miterlimit="10" stroke-linecap="round"/>
<path d="M336.03 406.09C336.03 406.09 314.64 466.86 389.78 472.23C389.78 472.23 383.781 436.06 402.311 436.06C402.351 436.09 367.59 410.28 336.03 406.09Z" fill="#231F20"/>
<path d="M372.42 449.66C372.427 456.211 370.661 462.641 367.31 468.27C330.96 457.1 331.73 427.17 334.24 413.27C334.83 413.27 335.43 413.27 336.03 413.27C345.68 413.273 354.935 417.108 361.759 423.931C368.582 430.755 372.417 440.01 372.42 449.66Z" fill="#F16C6C"/>
</g>
<defs>
<clipPath id="clip0_4342_660">
<rect width="625.91" height="965.93" fill="white" transform="matrix(-1 0 0 1 625.91 0)"/>
</clipPath>
</defs>
</svg>
