<svg width="515" height="502" viewBox="0 0 515 502" fill="none" xmlns="http://www.w3.org/2000/svg">
<g clip-path="url(#clip0_2584_282)">
<path d="M377.076 310.314C381.007 304.254 386.744 299.375 393.597 296.264C397.073 294.668 400.772 293.527 404.587 292.872C405.545 292.714 406.516 292.592 407.48 292.465C408.445 292.337 409.448 292.319 410.4 292.246L413.333 292.203C414.501 292.22 415.66 292.4 416.771 292.738C418.947 293.424 420.905 294.603 422.466 296.167C423.909 297.597 425.128 299.207 426.087 300.952C427.876 304.239 429.183 307.733 429.972 311.342C432.923 325.359 432.085 339.835 427.531 353.479C426.331 356.99 424.628 360.336 422.466 363.426C421.311 365.066 419.913 366.548 418.312 367.827C416.578 369.227 414.494 370.205 412.25 370.672C411.106 370.897 409.931 370.962 408.766 370.867L405.853 370.527C404.888 370.356 403.931 370.204 402.973 370.022C402.015 369.84 401.083 369.578 400.145 369.329C396.441 368.292 392.909 366.789 389.647 364.86C383.191 361.086 378.05 355.662 374.845 349.242C379.045 354.791 384.686 359.27 391.248 362.264C394.43 363.713 397.796 364.785 401.267 365.456C402.126 365.614 402.999 365.724 403.891 365.876C404.784 366.028 405.63 366.052 406.516 366.149L409.14 366.265C409.825 366.271 410.508 366.187 411.167 366.015C413.753 365.359 415.996 363.146 417.729 360.544C419.403 357.775 420.701 354.824 421.593 351.759C422.594 348.6 423.366 345.383 423.903 342.129C424.459 338.848 424.831 335.542 425.018 332.225C425.221 328.909 425.234 325.584 425.057 322.267C424.903 318.977 424.509 315.701 423.876 312.46C423.304 309.319 422.312 306.256 420.924 303.341C419.533 300.563 417.558 298.137 415.058 297.225C414.427 296.992 413.765 296.841 413.09 296.775L410.465 296.635C409.593 296.635 408.714 296.635 407.841 296.635C406.968 296.635 406.089 296.72 405.217 296.793C401.687 297.113 398.215 297.845 394.883 298.97C388.013 301.306 381.889 305.207 377.076 310.314Z" fill="#231F20"/>
<path d="M413.306 294.471C406.322 294.082 399.343 295.325 393.013 298.087C386.682 300.849 381.202 305.041 377.076 310.278L290.909 301.42L368.448 236.903L378.388 228.635C390.238 218.774 366.29 176.162 324.896 133.447C283.502 90.7315 240.343 64.0908 228.493 73.958L218.56 82.2262L215.935 84.427L168.794 123.634L66.4275 208.785L56.4875 217.053C44.6381 226.939 68.6058 269.581 109.98 312.266C151.354 354.951 194.533 381.616 206.389 371.755L216.322 363.486L218.12 361.991L374.812 349.266C378.305 354.886 383.267 359.601 389.242 362.978C395.216 366.355 402.012 368.286 409.002 368.593C431.861 369.736 436.165 295.608 413.306 294.471Z" fill="#F26B6C"/>
<path d="M374.812 322.875L274.946 314.704L376.151 230.495C369.144 233.383 352.642 233.991 320.709 218.385L157.24 353.68C180.263 370.198 199.172 377.798 206.389 371.755L211.913 367.152L216.322 363.505L218.12 362.009L374.812 349.266C378.306 354.886 383.268 359.601 389.242 362.979C395.216 366.358 402.011 368.29 409.002 368.599C412.329 368.763 415.261 367.323 417.774 364.757C381.419 368.07 374.812 322.875 374.812 322.875Z" fill="#D84C53"/>
<path d="M428.324 332.128C429.513 311.659 424.237 294.754 416.541 294.371C408.845 293.987 401.642 310.269 400.453 330.738C399.265 351.207 404.54 368.111 412.237 368.495C419.933 368.879 427.135 352.597 428.324 332.128Z" fill="#FAF28C"/>
<path d="M412.217 368.484C411.228 368.591 410.227 368.441 409.324 368.052C408.403 367.649 407.553 367.118 406.804 366.478C405.36 365.187 404.14 363.696 403.189 362.058C401.33 358.856 399.942 355.437 399.062 351.893C395.694 337.836 396.541 323.192 401.509 309.549C402.792 306.102 404.569 302.83 406.791 299.821C407.929 298.289 409.317 296.929 410.905 295.79C411.722 295.236 412.627 294.804 413.588 294.508C414.533 294.208 415.549 294.16 416.521 294.368C415.612 294.487 414.752 294.819 414.021 295.334C413.324 295.824 412.702 296.398 412.171 297.043C411.122 298.366 410.256 299.806 409.593 301.329C408.242 304.423 407.195 307.624 406.463 310.892C403.573 324.1 402.786 337.629 404.127 351.048C404.459 354.367 405.118 357.652 406.096 360.86C406.581 362.439 407.276 363.956 408.162 365.377C408.62 366.071 409.176 366.705 409.816 367.262C410.488 367.856 411.316 368.277 412.217 368.484Z" fill="#231F20"/>
<path d="M357.325 211.814C365.861 204.712 347.698 173.069 316.757 141.138C285.815 109.206 253.812 89.0775 245.276 96.1796C236.74 103.282 254.903 134.925 285.844 166.856C316.786 198.788 348.789 218.916 357.325 211.814Z" fill="#231F20"/>
<path d="M206.389 371.755L210.634 368.223C142.832 337.302 88.2892 277.6 60.7326 213.54L56.481 217.078C44.6382 226.939 68.6059 269.581 109.98 312.266C151.354 354.951 194.533 381.616 206.389 371.755Z" fill="#FAF28C"/>
<path d="M335.997 263.903L316.491 256.261L309.083 233.462L285.424 224.197L278.01 201.404L254.351 192.133L246.943 169.341L223.284 160.075L215.876 137.283L192.217 128.018L186.109 109.226L179.377 114.831L185.485 133.617L209.145 142.888L216.552 165.675L240.211 174.946L247.619 197.738L271.278 207.004L278.686 229.796L302.352 239.067L309.759 261.86L329.265 269.502L335.997 263.903Z" fill="#FAF28C"/>
<path d="M313.781 282.391L294.275 274.749L286.861 251.95L263.202 242.685L255.794 219.893L232.128 210.621L224.721 187.829L201.061 178.564L193.654 155.771L169.995 146.506L163.886 127.714L157.155 133.319L163.263 152.105L186.922 161.377L194.33 184.163L217.989 193.434L225.397 216.227L249.056 225.492L256.47 248.284L280.129 257.556L287.537 280.348L307.043 287.99L313.781 282.391Z" fill="#FAF28C"/>
<path d="M228.493 73.958L216.231 84.7067C216.193 84.7418 216.149 84.7697 216.1 84.7888C216.051 84.8078 215.998 84.8176 215.945 84.8176C215.892 84.8176 215.839 84.8078 215.79 84.7888C215.741 84.7697 215.697 84.7418 215.66 84.7067H216.244C187.624 109.633 158.729 134.322 129.821 158.963L86.3274 195.805L64.4724 214.16L59.0201 218.744L58.6789 219.035L58.5149 219.175L58.4165 219.266C58.282 219.384 58.1591 219.512 58.0491 219.649C57.7933 219.927 57.5732 220.231 57.393 220.555C57.0149 221.315 56.767 222.126 56.6581 222.957C56.4272 224.928 56.5202 226.92 56.9337 228.866C57.3446 230.968 57.9102 233.042 58.6264 235.073C60.1202 239.261 61.9334 243.344 64.0525 247.293C66.1586 251.3 68.4812 255.227 70.9416 259.088C75.8756 266.809 81.3344 274.287 87.1016 281.534C98.6976 296.055 111.341 309.833 124.946 322.771C131.748 329.256 138.799 335.478 146.099 341.436C153.341 347.421 160.947 353.017 168.879 358.197C172.82 360.752 176.9 363.118 181.102 365.286C183.189 366.356 185.315 367.347 187.467 368.229C189.583 369.109 191.765 369.846 193.995 370.435C196.066 371.005 198.219 371.28 200.379 371.25C201.303 371.223 202.215 371.05 203.076 370.739C203.458 370.602 203.822 370.422 204.158 370.204C204.244 370.156 204.316 370.089 204.394 370.034C204.473 369.979 204.526 369.949 204.663 369.84L205.32 369.274L216.375 360.252H216.414C216.809 359.925 217.31 359.729 217.838 359.693C230.908 358.763 243.971 357.772 257.047 356.89L296.269 354.203L335.505 351.656L355.129 350.44L374.753 349.297L355.208 351.333L335.656 353.297L296.545 357.115L257.415 360.763C244.378 361.979 231.321 363.134 218.278 364.319L219.741 363.711L208.935 372.934L208.279 373.542C208.14 373.666 207.993 373.781 207.839 373.889C207.682 374.01 207.524 374.138 207.353 374.253C206.692 374.696 205.979 375.069 205.228 375.366C203.811 375.914 202.305 376.239 200.773 376.327C198.018 376.431 195.262 376.128 192.611 375.427C190.106 374.796 187.655 373.998 185.275 373.038C182.92 372.107 180.643 371.074 178.426 369.998C174.016 367.784 169.732 365.361 165.592 362.739C149.084 352.264 134.289 339.971 120.439 326.906C113.488 320.364 106.791 313.618 100.348 306.667C93.912 299.705 87.7118 292.55 81.879 285.127C76 277.715 70.5256 270.035 65.4762 262.115C62.9633 258.127 60.5751 254.066 58.3902 249.877C56.1583 245.666 54.2508 241.315 52.6821 236.855C51.8838 234.557 51.2676 232.208 50.8384 229.827C50.3452 227.292 50.2744 224.702 50.6285 222.148C50.8445 220.72 51.3052 219.332 51.9932 218.038C52.3733 217.345 52.8354 216.692 53.371 216.093C53.6381 215.779 53.9321 215.487 54.2502 215.217L54.4798 215.011L54.6504 214.871L54.9981 214.585L60.5029 210.056L82.5416 191.933L126.731 155.814C156.256 131.817 185.833 107.846 215.673 84.1596C215.713 84.128 215.759 84.1041 215.809 84.0892C215.859 84.0742 215.912 84.0686 215.965 84.0725C216.017 84.0765 216.068 84.09 216.115 84.1122C216.162 84.1344 216.203 84.165 216.237 84.2021L215.66 84.1717L228.493 73.958Z" fill="#231F20"/>
<path d="M378.388 228.635C379.233 227.788 379.87 226.782 380.258 225.686C380.623 224.603 380.818 223.477 380.836 222.343C380.867 220.065 380.558 217.794 379.917 215.594C378.637 211.164 376.878 206.864 374.668 202.76C372.536 198.608 370.141 194.565 367.582 190.601C365.023 186.637 362.366 182.74 359.565 178.922C348.249 163.69 335.851 149.172 322.455 135.465C309.18 121.66 294.933 108.684 279.808 96.6226C276.009 93.6375 272.105 90.7679 268.136 87.9896C264.166 85.2112 260.092 82.5666 255.866 80.159C251.7 77.6804 247.275 75.5968 242.659 73.9396C240.37 73.1102 237.967 72.5802 235.52 72.365C234.3 72.2574 233.069 72.3148 231.866 72.5352C230.649 72.7789 229.501 73.2597 228.5 73.9457C229.411 73.1063 230.514 72.4683 231.728 72.0793C232.958 71.7072 234.24 71.5024 235.533 71.4713C238.118 71.4315 240.695 71.7282 243.19 72.3529C245.677 72.9419 248.113 73.6998 250.48 74.6205C252.855 75.5082 255.171 76.5113 257.448 77.5813C266.446 81.9998 275.009 87.1427 283.036 92.9505C287.069 95.7877 291.005 98.7464 294.846 101.827C298.71 104.867 302.45 108.04 306.151 111.256C309.851 114.472 313.433 117.786 316.976 121.142C320.519 124.498 323.957 127.945 327.35 131.428C330.742 134.912 334.042 138.475 337.27 142.092C340.498 145.709 343.66 149.387 346.718 153.126C352.865 160.597 358.585 168.361 363.855 176.387C369.235 184.397 373.845 192.83 377.634 201.587C378.533 203.8 379.359 206.043 380.061 208.323C380.797 210.6 381.35 212.925 381.715 215.278C382.116 217.644 382.16 220.05 381.846 222.428C381.662 223.617 381.295 224.776 380.757 225.869C380.205 226.946 379.395 227.892 378.388 228.635Z" fill="#231F20"/>
<path d="M226.473 75.6421C224.681 77.4173 223.947 79.7823 223.671 82.0986C223.427 84.4427 223.476 86.805 223.815 89.1388C224.503 93.8237 225.681 98.4355 227.332 102.909C228.924 107.41 230.777 111.828 232.883 116.144C234.989 120.461 237.213 124.729 239.654 128.911C249.453 145.566 261.279 161.126 274.9 175.287C288.466 189.479 303.799 202.132 320.578 212.98C324.784 215.673 329.108 218.19 333.53 220.567C337.935 222.963 342.487 225.117 347.164 227.018C351.796 228.982 356.633 230.504 361.598 231.559C364.075 232.085 366.61 232.339 369.15 232.313C371.663 232.259 374.261 231.784 376.368 230.325C375.429 231.183 374.313 231.855 373.087 232.301C371.852 232.753 370.564 233.067 369.249 233.237C366.616 233.529 363.955 233.529 361.323 233.237C356.092 232.611 350.948 231.464 345.983 229.815C341.034 228.177 336.195 226.268 331.49 224.1C326.785 221.941 322.232 219.516 317.764 216.974C315.537 215.69 313.335 214.37 311.157 213.017C308.985 211.655 306.853 210.238 304.74 208.803C300.508 205.934 296.42 202.882 292.425 199.733C288.429 196.583 284.551 193.276 280.838 189.884C277.124 186.491 273.476 182.923 270.032 179.287C263.069 172.015 256.64 164.32 250.788 156.251C244.918 148.202 239.697 139.763 235.166 131.003C230.55 122.265 226.911 113.112 224.307 103.687C223.704 101.316 223.172 98.9269 222.779 96.5194C222.363 94.1053 222.124 91.6679 222.064 89.2239C221.968 86.7765 222.188 84.3273 222.72 81.9284C223.003 80.728 223.444 79.5642 224.032 78.463C224.62 77.3728 225.452 76.4112 226.473 75.6421Z" fill="#231F20"/>
<path d="M378.388 228.635C376.709 230.301 374.996 231.93 373.29 233.572L368.14 238.436C364.663 241.64 361.211 244.88 357.708 248.053C350.709 254.417 343.641 260.711 336.502 266.937C329.364 273.162 322.175 279.333 314.936 285.449L304.038 294.568C300.377 297.608 296.742 300.648 293.061 303.627L291.264 298.447C298.441 299.238 305.613 300.068 312.777 300.94C319.942 301.815 327.1 302.715 334.252 303.694C341.403 304.673 348.555 305.658 355.694 306.77C359.263 307.317 362.832 307.846 366.395 308.448C369.957 309.05 373.52 309.628 377.076 310.272C373.454 310.187 369.859 310.053 366.217 309.889C362.576 309.725 359 309.542 355.379 309.348C348.161 308.983 340.944 308.497 333.727 307.992C326.51 307.488 319.293 306.91 312.121 306.308C304.95 305.706 297.739 305.05 290.548 304.363C290.13 304.322 289.724 304.206 289.354 304.021C288.985 303.835 288.658 303.584 288.393 303.281C288.128 302.979 287.93 302.631 287.81 302.257C287.69 301.883 287.651 301.492 287.694 301.104C287.771 300.383 288.133 299.714 288.711 299.225L288.757 299.183C292.366 296.143 296.02 293.103 299.649 290.063L310.619 280.999C317.954 274.988 325.344 269.026 332.789 263.113C340.233 257.199 347.746 251.363 355.326 245.603C359.112 242.716 362.957 239.883 366.769 237.025L372.549 232.8C374.484 231.408 376.42 230.009 378.388 228.635Z" fill="#231F20"/>
<path d="M78.1918 200.31L47.7417 168.891C40.8386 161.746 37.2332 152.378 37.6993 142.797C38.1655 133.216 42.6659 124.187 50.235 117.646L111.345 47.4451L111.844 47.0256C119.644 40.5549 129.894 37.2137 140.348 37.7345C150.802 38.2554 160.607 42.5956 167.613 49.8039L208.443 91.9355C209.184 92.6992 209.755 93.5906 210.124 94.5589C210.494 95.5272 210.653 96.5533 210.595 97.5788C210.536 98.6043 210.26 99.609 209.782 100.536C209.304 101.462 208.634 102.293 207.81 102.979C206.986 103.666 206.023 104.195 204.979 104.537C203.934 104.879 202.826 105.027 201.719 104.973C200.613 104.919 199.528 104.663 198.528 104.22C197.528 103.777 196.632 103.156 195.891 102.392L155.062 60.2608C151.118 56.2048 145.625 53.7303 139.747 53.3615C133.869 52.9927 128.066 54.7585 123.568 58.285L62.5501 128.425L62.0449 128.845C57.5835 132.567 54.8971 137.777 54.5748 143.331C54.2526 148.886 56.3208 154.333 60.3259 158.477L90.776 189.89C91.5323 190.651 92.118 191.543 92.4992 192.515C92.8805 193.487 93.0496 194.52 92.9968 195.553C92.944 196.586 92.6703 197.599 92.1916 198.533C91.713 199.468 91.0388 200.305 90.2083 200.996C89.3779 201.687 88.4076 202.218 87.3537 202.559C86.2999 202.9 85.1835 203.043 84.0693 202.981C82.9551 202.919 81.8653 202.653 80.8632 202.197C79.861 201.742 78.9663 201.107 78.2312 200.329L78.1918 200.31Z" fill="#D84C53"/>
<path d="M90.7365 189.872C91.7178 190.812 92.4383 191.96 92.8361 193.215C93.2141 194.503 93.2524 195.857 92.9476 197.161C92.6244 198.492 91.9479 199.727 90.9793 200.754C89.4542 202.335 87.3469 203.332 85.0702 203.549C82.7934 203.766 80.5113 203.188 78.6707 201.927C78.3579 201.716 78.0619 201.485 77.7849 201.234C77.4831 200.979 77.2469 200.748 77.0107 200.517L75.5738 199.119L72.7001 196.322L61.2116 185.111L49.8018 173.852L46.9543 171.031C46.4753 170.569 46.0029 170.101 45.5109 169.578L44.776 168.818L44.0871 168.028C38.5151 161.566 35.3419 153.611 35.0393 145.345C34.8159 139.808 35.871 134.292 38.134 129.164C40.397 124.035 43.8157 119.414 48.1615 115.609L47.8663 115.901L55.4116 107.055L63.0159 98.2521L78.2311 80.6577C83.2831 74.7788 88.4139 68.9545 93.525 63.1181L108.865 45.6089C108.963 45.4997 109.068 45.3962 109.18 45.2988C109.731 44.8246 110.426 44.2957 111.056 43.7972C111.686 43.2986 112.368 42.8366 113.064 42.3624C114.441 41.4558 115.874 40.6235 117.355 39.8697C120.314 38.3616 123.457 37.1879 126.718 36.374C133.24 34.7534 140.085 34.5888 146.69 35.8937C149.968 36.5495 153.149 37.5702 156.164 38.9335C159.166 40.3021 161.984 41.9915 164.562 43.9674C165.218 44.4538 165.815 44.9827 166.438 45.4934C167.062 46.0041 167.633 46.5634 168.197 47.1349C169.365 48.2839 170.349 49.36 171.379 50.4604L177.54 57.0324C185.689 65.8539 193.897 74.6207 201.973 83.503L208.049 90.1419L208.803 90.9748L209.184 91.4004L209.584 91.8807C210.096 92.535 210.505 93.2535 210.798 94.0146C211.096 94.7667 211.273 95.5554 211.323 96.3553C211.384 97.1456 211.322 97.94 211.139 98.7141C210.783 100.254 209.969 101.671 208.79 102.806C207.627 103.914 206.148 104.694 204.526 105.055C203.734 105.237 202.919 105.31 202.105 105.274C200.909 105.225 199.737 104.942 198.667 104.446C197.596 103.949 196.651 103.25 195.891 102.392C196.988 103.415 198.365 104.14 199.874 104.49C200.614 104.658 201.376 104.728 202.137 104.696C202.89 104.676 203.635 104.553 204.349 104.332C205.756 103.895 207.01 103.114 207.977 102.07C208.912 101.039 209.517 99.786 209.722 98.4527C209.827 97.7997 209.827 97.1359 209.722 96.4829C209.532 95.1903 208.955 93.9729 208.056 92.9689L207.714 92.6102L207.314 92.2211L206.501 91.4308L200.025 85.1202C191.364 76.7303 182.835 68.231 174.246 59.7804L167.856 53.3968C166.793 52.339 165.71 51.2386 164.7 50.3023C164.188 49.816 163.624 49.3721 163.092 48.904C162.561 48.4359 161.977 48.0225 161.4 47.6091C159.083 45.9486 156.566 44.5429 153.9 43.4202C151.231 42.3305 148.441 41.515 145.581 40.9884C142.724 40.4764 139.814 40.2723 136.907 40.3804C134.007 40.5012 131.133 40.94 128.345 41.6875C125.582 42.4383 122.927 43.4957 120.439 44.8368C119.189 45.5015 117.982 46.2322 116.823 47.0254C116.259 47.4449 115.675 47.834 115.124 48.2413C114.573 48.6487 114.055 49.0803 113.458 49.591L113.805 49.2506L98.5836 66.8449C93.5119 72.7117 88.4533 78.5846 83.3225 84.4088L67.9498 101.942L60.2668 110.691L52.5509 119.415L52.5116 119.458C52.4354 119.547 52.352 119.63 52.2622 119.707C48.4487 122.931 45.4164 126.868 43.3654 131.258C41.3143 135.674 40.2689 140.434 40.2948 145.241C40.3346 152.548 42.8983 159.652 47.6104 165.511C49.126 167.426 51.055 169.371 52.8593 171.329L63.7179 183.056L74.5109 194.839L77.2075 197.781L78.5197 199.258C78.7494 199.508 78.9725 199.757 79.1759 199.952C79.376 200.171 79.5954 200.374 79.832 200.559C80.7986 201.313 81.952 201.833 83.1888 202.072C84.4255 202.31 85.7069 202.261 86.918 201.927C88.173 201.574 89.3153 200.94 90.2452 200.083C91.1751 199.226 91.8642 198.17 92.2521 197.009C92.6432 195.811 92.7153 194.542 92.4621 193.313C92.1858 192.056 91.5947 190.877 90.7365 189.872Z" fill="#231F20"/>
<path d="M195.891 102.392C190.179 97.1761 184.534 91.9071 178.957 86.5855L170.592 78.5969L162.299 70.5475C159.53 67.8725 156.774 65.1812 154.032 62.4738C153.336 61.7564 152.719 61.2214 152.063 60.6499C151.738 60.3669 151.394 60.103 151.033 59.8596C150.693 59.595 150.335 59.3494 149.964 59.1239L148.835 58.4613C148.468 58.2302 148.048 58.0782 147.661 57.8837C146.87 57.5141 146.055 57.1912 145.22 56.917C141.868 55.8704 138.281 55.6443 134.808 56.2604C131.373 56.874 128.173 58.3145 125.53 60.4371L125.924 60.0602C120.92 65.9614 115.89 71.8384 110.833 77.691C105.762 83.5457 100.703 89.4185 95.5918 95.2428C90.4807 101.067 85.3499 106.891 80.2192 112.728C75.0884 118.564 69.9182 124.279 64.7087 130.048L64.6497 130.115C64.575 130.202 64.4915 130.281 64.4003 130.352L63.9148 130.742L63.508 131.106L62.701 131.824C62.4276 132.06 62.1753 132.316 61.9465 132.59L61.2116 133.38C60.7655 133.933 60.3325 134.505 59.8994 135.082L59.3483 135.994C59.1499 136.289 58.9766 136.598 58.83 136.918C57.5487 139.476 56.888 142.263 56.8944 145.083C56.9413 147.935 57.6624 150.743 59.0071 153.309C59.3316 153.959 59.7088 154.585 60.1356 155.181L60.4374 155.644C60.5424 155.796 60.6671 155.935 60.7852 156.075L61.4872 156.938C61.7037 157.224 61.999 157.546 62.268 157.832L63.0947 158.738L64.7415 160.562C69.1571 165.377 73.4743 170.289 77.8637 175.153C82.2531 180.017 86.4981 184.941 90.7366 189.908C85.8617 185.476 81.0721 180.971 76.3022 176.466C71.5323 171.961 66.7427 167.389 62.0449 162.805L60.2734 161.091L59.4205 160.234C59.1252 159.942 58.83 159.674 58.5282 159.334L57.6227 158.361C57.4718 158.191 57.3144 158.033 57.17 157.863L56.7698 157.334C56.2138 156.641 55.7096 155.914 55.2607 155.157C53.4081 152.118 52.3414 148.721 52.1442 145.235C51.9605 141.719 52.6169 138.209 54.0666 134.955C54.2358 134.538 54.4331 134.132 54.6571 133.739L55.3132 132.553C55.7987 131.795 56.3105 131.05 56.8485 130.316C57.4521 129.629 57.9967 128.893 58.6659 128.261L59.6698 127.313L60.175 126.838L60.6408 126.437L60.3325 126.741C65.3058 120.816 70.3097 114.91 75.3443 109.025C80.3788 103.14 85.4352 97.2632 90.5135 91.3944C95.5787 85.5337 100.696 79.7094 105.801 73.8791C110.905 68.0488 116.056 62.2488 121.226 56.4672L121.292 56.3942C121.393 56.2838 121.505 56.1821 121.626 56.0902C125.116 53.4161 129.313 51.6541 133.784 50.9861C138.255 50.3181 142.837 50.7684 147.057 52.2905C148.09 52.677 149.096 53.1238 150.069 53.628C150.548 53.8955 151.059 54.1143 151.506 54.4183L152.877 55.2999C153.332 55.6031 153.77 55.9278 154.189 56.2726C154.596 56.6191 155.049 56.9231 155.422 57.3061C156.184 58.0478 156.977 58.8078 157.588 59.4887C160.212 62.2975 162.784 65.1306 165.363 67.9697L173.111 76.4812L180.781 85.0473C185.868 90.7865 190.905 96.5681 195.891 102.392Z" fill="#231F20"/>
<path d="M451.84 386.023C451.84 388.336 450.848 390.553 449.084 392.188C447.32 393.823 444.926 394.741 442.431 394.741C439.936 394.741 437.543 393.823 435.778 392.188C434.014 390.553 433.022 388.336 433.022 386.023C433.022 381.208 442.431 371.171 442.431 371.171C442.431 371.171 451.84 381.208 451.84 386.023Z" fill="#69A9DC"/>
<path d="M430.484 409.521C430.426 411.297 429.625 412.983 428.248 414.221C426.872 415.459 425.03 416.151 423.112 416.151C421.194 416.151 419.352 415.459 417.976 414.221C416.6 412.983 415.798 411.297 415.741 409.521C415.741 405.752 423.115 397.891 423.115 397.891C423.115 397.891 430.484 405.764 430.484 409.521Z" fill="#69A9DC"/>
<path d="M466.733 432.952C466.665 435.446 465.549 437.816 463.621 439.558C461.694 441.299 459.108 442.274 456.416 442.274C453.724 442.274 451.138 441.299 449.211 439.558C447.283 437.816 446.167 435.446 446.099 432.952C446.099 427.669 456.413 416.665 456.413 416.665C456.413 416.665 466.733 427.651 466.733 432.952Z" fill="#69A9DC"/>
<path d="M424.808 439.475C427.754 439.475 430.142 437.262 430.142 434.533C430.142 431.803 427.754 429.59 424.808 429.59C421.862 429.59 419.474 431.803 419.474 434.533C419.474 437.262 421.862 439.475 424.808 439.475Z" fill="#69A9DC"/>
<path d="M424.467 366.83C428.554 366.83 431.868 363.76 431.868 359.973C431.868 356.185 428.554 353.115 424.467 353.115C420.379 353.115 417.066 356.185 417.066 359.973C417.066 363.76 420.379 366.83 424.467 366.83Z" fill="#69A9DC"/>
<path d="M442.431 353.492C445.377 353.492 447.765 351.279 447.765 348.549C447.765 345.819 445.377 343.606 442.431 343.606C439.485 343.606 437.097 345.819 437.097 348.549C437.097 351.279 439.485 353.492 442.431 353.492Z" fill="#69A9DC"/>
<path d="M465.028 404.627C467.974 404.627 470.362 402.414 470.362 399.684C470.362 396.955 467.974 394.742 465.028 394.742C462.082 394.742 459.693 396.955 459.693 399.684C459.693 402.414 462.082 404.627 465.028 404.627Z" fill="#69A9DC"/>
<path d="M459.693 410.409C463.426 410.409 466.451 407.605 466.451 404.147C466.451 400.688 463.426 397.885 459.693 397.885C455.961 397.885 452.936 400.688 452.936 404.147C452.936 407.605 455.961 410.409 459.693 410.409Z" fill="#69A9DC"/>
<path d="M429.151 371.171C431.739 371.171 433.836 369.227 433.836 366.83C433.836 364.433 431.739 362.489 429.151 362.489C426.564 362.489 424.467 364.433 424.467 366.83C424.467 369.227 426.564 371.171 429.151 371.171Z" fill="#69A9DC"/>
<path d="M445.088 407.278C446.955 407.278 448.467 405.876 448.467 404.147C448.467 402.418 446.955 401.016 445.088 401.016C443.222 401.016 441.709 402.418 441.709 404.147C441.709 405.876 443.222 407.278 445.088 407.278Z" fill="#69A9DC"/>
<path d="M435.247 425.322C437.113 425.322 438.626 423.92 438.626 422.191C438.626 420.462 437.113 419.06 435.247 419.06C433.381 419.06 431.868 420.462 431.868 422.191C431.868 423.92 433.381 425.322 435.247 425.322Z" fill="#69A9DC"/>
<path d="M459.792 374.302C461.658 374.302 463.171 372.9 463.171 371.171C463.171 369.442 461.658 368.04 459.792 368.04C457.926 368.04 456.413 369.442 456.413 371.171C456.413 372.9 457.926 374.302 459.792 374.302Z" fill="#69A9DC"/>
<path d="M471.785 413.54C473.652 413.54 475.164 412.138 475.164 410.409C475.164 408.68 473.652 407.278 471.785 407.278C469.919 407.278 468.406 408.68 468.406 410.409C468.406 412.138 469.919 413.54 471.785 413.54Z" fill="#69A9DC"/>
<path d="M475.427 435.633C477.949 435.633 479.993 433.739 479.993 431.402C479.993 429.065 477.949 427.17 475.427 427.17C472.905 427.17 470.86 429.065 470.86 431.402C470.86 433.739 472.905 435.633 475.427 435.633Z" fill="#69A9DC"/>
<path d="M441.591 466.384C443.458 466.384 444.97 464.982 444.97 463.253C444.97 461.523 443.458 460.122 441.591 460.122C439.725 460.122 438.212 461.523 438.212 463.253C438.212 464.982 439.725 466.384 441.591 466.384Z" fill="#69A9DC"/>
<path d="M446.952 464.262C450.514 464.262 453.401 461.586 453.401 458.286C453.401 454.985 450.514 452.309 446.952 452.309C443.39 452.309 440.502 454.985 440.502 458.286C440.502 461.586 443.39 464.262 446.952 464.262Z" fill="#69A9DC"/>
</g>
<defs>
<clipPath id="clip0_2584_282">
<rect width="445" height="431.378" fill="white" transform="translate(35 35)"/>
</clipPath>
</defs>
</svg>
