<svg width="349" height="477" viewBox="0 0 349 477" fill="none" xmlns="http://www.w3.org/2000/svg">
<path d="M222.778 476.22C292.488 476.22 349 459.829 349 439.611C349 419.392 292.488 403.002 222.778 403.002C153.067 403.002 96.5559 419.392 96.5559 439.611C96.5559 459.829 153.067 476.22 222.778 476.22Z" fill="#A7A9AC"/>
<path d="M339.57 180.388C331.341 148.342 315.245 105.01 270.007 84.825C281.712 72.3063 289.146 56.3991 291.241 39.3895C291.429 37.8578 291.193 36.304 290.561 34.8964C289.929 33.4887 288.924 32.2808 287.654 31.4034C283.496 28.5418 279.079 26.074 274.462 24.032L274.079 23.8628C272.032 22.9716 269.905 22.1708 267.751 21.4094C266.459 20.9695 265.106 20.5521 263.73 20.1573C261.513 19.5313 259.268 18.9955 257.018 18.5556C256.905 16.215 256.685 13.8857 256.364 11.5846C256.153 10.0562 255.528 8.61449 254.557 7.41561C253.586 6.21673 252.305 5.30631 250.854 4.78283C234.367 -1.16299 216.391 -1.57627 199.648 3.60548C182.905 8.78723 168.306 19.282 158.06 33.5015L151.399 7.55771C151.123 6.4815 150.637 5.47023 149.97 4.58166C149.303 3.69309 148.467 2.9446 147.511 2.37897C146.555 1.81334 145.497 1.44169 144.397 1.28513C143.297 1.12857 142.176 1.19019 141.1 1.46654L117.74 7.46745C116.663 7.74364 115.652 8.22912 114.764 8.89616C113.875 9.56321 113.127 10.3987 112.561 11.355C111.995 12.3114 111.624 13.3698 111.467 14.4697C111.31 15.5697 111.372 16.6898 111.648 17.766L117.367 40.0212C101.996 34.1117 85.1833 33.0519 69.1914 36.9843C53.1995 40.9167 38.7957 49.6528 27.9178 62.017C26.8988 63.1748 26.2156 64.5891 25.9423 66.107C25.6689 67.6249 25.8158 69.1887 26.3668 70.6292C26.8293 71.8418 27.3312 73.0544 27.8614 74.2557C26.3442 75.2822 24.8722 76.3538 23.4904 77.431C22.6557 78.0853 21.7985 78.7677 20.9807 79.4727C12.6121 86.5412 5.7758 95.2449 0.891171 105.05C0.201903 106.43 -0.0967767 107.973 0.0274847 109.511C0.151746 111.048 0.694217 112.523 1.59616 113.775C11.4881 127.454 25.4016 137.706 41.3972 143.103L40.7825 143.926C39.7335 145.347 38.7014 146.814 37.7426 148.263L37.5903 148.494C36.6371 149.944 35.7122 151.433 34.8436 152.916L34.7309 153.102C33.8736 154.58 33.0389 156.086 32.2718 157.614L32.1929 157.772C31.4315 159.267 30.6983 160.789 30.0328 162.284L29.9595 162.448C29.6248 163.2 29.3033 163.952 28.995 164.704C28.6735 165.471 28.369 166.243 28.087 166.96L28.0193 167.14C27.7429 167.873 27.4553 168.606 27.2128 169.34L27.179 169.424L26.756 170.648V170.704C26.6375 171.049 26.5247 171.398 26.4119 171.748C26.4119 171.748 26.4119 171.793 26.4119 171.816C26.1751 172.554 25.9438 173.293 25.7295 174.015L25.6844 174.179C25.2407 175.683 24.8252 177.217 24.438 178.781L24.4041 178.928C24.0431 180.422 23.7104 181.945 23.4114 183.439L23.372 183.643C23.09 185.12 22.808 186.632 22.605 188.154V188.369C22.3907 189.83 22.1989 191.33 22.041 192.836V193.044C21.8887 194.494 21.7646 195.983 21.6687 197.443V197.669C21.5785 199.113 21.5165 200.591 21.477 202.051V202.26C21.477 202.959 21.4769 203.664 21.4431 204.364V204.426C21.4431 205.153 21.4431 205.881 21.4431 206.62V206.772C21.4431 207.454 21.4431 208.142 21.4826 208.819V208.966C21.4826 209.682 21.5277 210.393 21.5559 211.109V211.222C21.5898 211.899 21.6236 212.564 21.6631 213.23V213.427C21.7026 214.126 21.7533 214.826 21.8041 215.52C21.8021 215.548 21.8021 215.576 21.8041 215.604C21.8548 216.264 21.9056 216.924 21.9677 217.584V217.843C22.0861 219.174 22.2271 220.533 22.3794 221.881L22.4132 222.175C22.5655 223.466 22.7347 224.797 22.9264 226.123L22.9659 226.399C23.0336 226.867 23.1803 227.86 23.1859 227.888C23.3043 228.677 23.4284 229.461 23.5524 230.245C23.5524 230.245 23.6089 230.573 23.6145 230.595C23.7555 231.475 23.9078 232.349 24.0601 233.218L24.3195 234.628C24.3929 235.039 24.6636 236.438 24.6692 236.466C24.7876 237.075 24.906 237.679 25.0301 238.288L25.0922 238.604C25.1994 239.168 25.3121 239.681 25.4137 240.166L25.8423 242.168L26.1637 243.618L26.6883 245.924L27.0943 247.656L27.8332 250.73L28.431 253.138L28.8202 254.695L30.1286 259.821C33.6874 273.667 44.3131 291.839 52.6038 304.653L53.5852 306.159C58.0971 313.017 63.0321 320.118 68.3223 327.258C69.3375 328.623 70.3622 329.99 71.3962 331.358C72.3155 332.571 73.2517 333.789 74.2161 335.007C74.8704 335.853 75.5303 336.699 76.1958 337.551C77.2749 338.931 78.3671 340.315 79.4725 341.702C80.578 343.089 81.706 344.475 82.8565 345.859C85.1125 348.645 87.4531 351.442 89.7767 354.178C95.7776 361.239 101.965 368.142 108.174 374.707L110.086 376.715C115.963 382.851 121.93 388.739 127.79 394.199C128.461 394.825 129.132 395.451 129.803 396.065C138.948 404.555 148.565 412.522 158.607 419.928C159.3 420.436 159.994 420.932 160.693 421.434C164.929 424.468 169.153 427.294 173.254 429.832C173.947 430.266 174.647 430.695 175.346 431.118C195.216 443.103 213.348 449.166 229.236 449.166C230.634 449.166 232.056 449.12 233.404 449.025C236.761 448.8 240.091 448.27 243.353 447.44C243.917 447.299 244.481 447.146 245.045 446.977L245.862 446.729C246.133 446.645 246.426 446.566 246.669 446.475L247.661 446.137C247.87 446.069 248.084 445.996 248.321 445.906L249.359 445.517L249.889 445.308L250.504 445.06L251.102 444.817L251.508 444.637C251.739 444.541 251.965 444.439 252.162 444.349L252.292 444.293L252.749 444.084L253.736 443.616L254.446 443.266L254.835 443.069L255.275 442.843L256.121 442.392L256.55 442.166L256.804 442.025L257.746 441.49L258.135 441.264L258.389 441.117L259.19 440.632L260.047 440.102L260.109 440.063L260.865 439.572L261.254 439.313L261.553 439.115C261.694 439.025 262.449 438.5 262.557 438.427L263.025 438.1L263.724 437.598C264.051 437.361 264.384 437.119 264.711 436.871L265.619 436.177L266.815 435.235L267.311 434.829L268.247 434.056L268.766 433.605L269.731 432.77L270.295 432.257C270.582 432.003 270.859 431.744 271.163 431.467L271.332 431.309L271.767 430.903C272.015 430.672 272.263 430.435 272.517 430.187L273.199 429.533L274.158 428.569L274.885 427.83L275.929 426.736L276.594 426.025L277.299 425.252L278.016 424.451L278.653 423.729L278.704 423.667L279.268 423.036C279.527 422.731 279.792 422.427 280.063 422.1L280.593 421.473C280.999 420.977 281.411 420.481 281.817 419.973L282.381 419.246L283.075 418.36L283.712 417.531L284.242 416.837L284.981 415.85L285.415 415.253L286.222 414.125L286.893 413.177C287.192 412.76 287.485 412.337 287.795 411.885L288.545 410.791L289.014 410.098L289.735 409.009C289.961 408.671 290.181 408.327 290.384 408.017C290.587 407.706 290.728 407.453 290.92 407.176L291.568 406.161L292.025 405.428C292.826 404.148 293.633 402.811 294.422 401.48L294.834 400.786C295.065 400.391 295.291 399.991 295.522 399.59L295.928 398.88L296.611 397.667L296.988 396.99C296.988 396.99 297.496 396.077 297.71 395.676L297.834 395.451C298.398 394.419 298.962 393.381 299.498 392.326L299.656 392.027C299.899 391.559 300.147 391.08 300.406 390.566L300.688 390.002C300.919 389.534 301.156 389.072 301.393 388.598L301.686 388.034C301.923 387.549 302.166 387.064 302.414 386.545L302.572 386.229C303.401 384.537 304.23 382.766 305.025 381.041L305.178 380.714C305.42 380.15 305.668 379.636 305.905 379.106L306.12 378.638C306.362 378.074 306.599 377.555 306.836 377.019L306.994 376.658C308.076 374.205 309.148 371.667 310.192 369.107L310.293 368.853C310.541 368.249 310.784 367.646 311.026 367.042L311.133 366.76C312.431 363.512 313.711 360.139 314.957 356.704L315.019 356.535C315.262 355.875 315.499 355.215 315.736 354.55C326.361 324.709 334.669 289.296 339.141 254.83C343.202 222.507 343.439 195.334 339.57 180.388Z" fill="#231F20"/>
<path d="M67.2056 69.152C79.5905 68.1473 92.0248 70.3618 103.301 75.5806C114.578 80.7993 124.313 88.8451 131.563 98.9366L8.45996 108.869C13.9985 97.7467 22.3179 88.2452 32.6109 81.2864C42.9039 74.3275 54.8209 70.1476 67.2056 69.152Z" fill="#9FCC3B"/>
<path d="M8.45996 108.84L131.563 98.9082C126.022 110.028 117.701 119.528 107.408 126.487C97.1155 133.446 85.1995 137.628 72.8153 138.627C60.4311 139.626 47.9989 137.409 36.7236 132.19C25.4483 126.971 15.7125 118.928 8.45996 108.84Z" fill="#63B446"/>
<g style="mix-blend-mode:multiply">
<path d="M72.7388 138.71C106.733 135.969 133.036 118.19 131.489 98.9991C129.942 79.8084 101.129 66.4735 67.1351 69.2146C33.1409 71.9556 6.83755 89.7348 8.38497 108.925C9.93238 128.116 38.7446 141.451 72.7388 138.71Z" fill="#4CA84E"/>
</g>
<path d="M212.226 31.8774C200.889 36.9649 191.061 44.897 183.695 54.9037C176.329 64.9104 171.675 76.6516 170.186 88.9875L282.843 38.3633C272.63 31.2862 260.761 26.9698 248.387 25.8333C236.014 24.6969 223.557 26.779 212.226 31.8774Z" fill="#9FCC3B"/>
<path d="M282.843 38.3633L170.186 88.9875C180.401 96.0589 192.27 100.372 204.642 101.508C217.014 102.644 229.47 100.565 240.803 95.4728C252.136 90.3803 261.961 82.4469 269.326 72.4413C276.692 62.4357 281.348 50.6972 282.843 38.3633Z" fill="#63B446"/>
<g style="mix-blend-mode:multiply">
<path d="M240.827 95.3996C271.935 81.4194 290.754 55.8502 282.862 38.2892C274.97 20.7282 243.354 17.8254 212.247 31.8057C181.139 45.7859 162.32 71.3552 170.212 88.9161C178.104 106.477 209.72 109.38 240.827 95.3996Z" fill="#4CA84E"/>
</g>
<path d="M143.242 9.55308L119.884 15.5547L141.819 100.923L165.176 94.9213L143.242 9.55308Z" fill="#63B446"/>
<path d="M151.641 90.9608C5.08171 128.602 26.4346 211.611 38.2785 257.779C50.3254 304.681 171.173 457.32 241.147 439.346C311.122 421.371 343.439 229.388 331.387 182.492C319.52 136.317 289.121 55.6435 151.641 90.9608Z" fill="#F1594B"/>
<path d="M159.255 120.617C37.6523 151.851 55.3392 220.726 65.1809 259.038C75.1749 297.953 175.448 424.604 233.511 409.692C291.574 394.78 318.392 235.48 308.392 196.564C298.556 158.263 273.334 91.3114 159.255 120.617Z" fill="#D91F26"/>
<path d="M241.13 439.346C269.742 432.014 292.059 395.547 307.62 351.82C163.716 366.219 93.2002 207.387 67.3128 128.822C15.7017 169.932 29.5252 223.822 38.2615 257.78C50.3084 304.681 171.156 457.321 241.13 439.346Z" fill="#D91F26"/>
<path d="M126.27 324.644C136.105 322.117 141.284 309.195 137.837 295.782C134.391 282.369 123.624 273.544 113.789 276.071C103.954 278.598 98.7755 291.52 102.222 304.933C105.668 318.346 116.435 327.171 126.27 324.644Z" fill="#F1594B"/>
<path d="M124.433 317.492C130.319 315.98 133.119 307.082 130.687 297.618C128.255 288.154 121.513 281.708 115.627 283.221C109.741 284.733 106.941 293.631 109.372 303.095C111.804 312.559 118.547 319.005 124.433 317.492Z" fill="#FAF28C"/>
<path d="M258.668 416.774C268.503 414.247 273.682 401.325 270.236 387.912C266.79 374.5 256.023 365.675 246.188 368.202C236.353 370.729 231.174 383.651 234.62 397.064C238.067 410.477 248.833 419.301 258.668 416.774Z" fill="#F1594B"/>
<path d="M256.831 409.623C262.717 408.111 265.517 399.213 263.085 389.749C260.654 380.285 253.911 373.839 248.025 375.352C242.139 376.864 239.339 385.762 241.771 395.226C244.202 404.69 250.945 411.136 256.831 409.623Z" fill="#FAF28C"/>
<path opacity="0.62" d="M281.834 405.513C128.298 398.925 34.8041 173.508 34.759 173.406C24.4323 203.935 32.5031 235.248 38.2615 257.78C50.3084 304.682 171.156 457.321 241.13 439.347C256.55 435.382 270.12 422.968 281.834 405.513Z" fill="#951B1E"/>
<path d="M290.076 207.857C300.752 206.779 308.103 192.995 306.494 177.071C304.886 161.147 294.927 149.112 284.251 150.19C273.576 151.268 266.225 165.052 267.834 180.976C269.442 196.9 279.4 208.935 290.076 207.857Z" fill="#F1594B"/>
<path d="M288.236 168.542C296.918 162.146 296.222 146.462 286.681 133.512C277.14 120.562 262.368 115.249 253.686 121.645C245.004 128.041 245.7 143.725 255.241 156.675C264.782 169.625 279.554 174.938 288.236 168.542Z" fill="#F6FAFE"/>
<path d="M220.883 127.311C228.365 127.311 234.43 121.246 234.43 113.764C234.43 106.282 228.365 100.217 220.883 100.217C213.401 100.217 207.336 106.282 207.336 113.764C207.336 121.246 213.401 127.311 220.883 127.311Z" fill="#F6FAFE"/>
<path d="M230.217 161.675C236.603 161.675 241.779 156.498 241.779 150.113C241.779 143.727 236.603 138.551 230.217 138.551C223.832 138.551 218.655 143.727 218.655 150.113C218.655 156.498 223.832 161.675 230.217 161.675Z" fill="#F6FAFE"/>
<path d="M178.065 24.5229C168.406 32.345 160.934 42.5317 156.374 54.0939C151.814 65.6562 150.322 78.201 152.042 90.5103L247.989 12.7354C236.306 8.50758 223.728 7.37122 211.477 9.43652C199.225 11.5018 187.716 16.6987 178.065 24.5229Z" fill="#9FCC3B"/>
<path d="M247.989 12.7188L152.042 90.4936C163.727 94.7147 176.305 95.8457 188.556 93.7772C200.807 91.7087 212.315 86.5108 221.967 78.6871C231.619 70.8635 239.086 60.6794 243.645 49.1217C248.204 37.564 249.7 25.0246 247.989 12.7188Z" fill="#63B446"/>
<path d="M101.226 44.2628C113.455 46.4592 124.909 51.7812 134.474 59.7119C144.04 67.6425 151.391 77.9122 155.815 89.5234L34.2683 67.6178C42.4682 58.2822 52.9429 51.2256 64.6751 47.1333C76.4074 43.0411 88.9986 42.0522 101.226 44.2628Z" fill="#9FCC3B"/>
<path d="M34.2683 67.6172L155.815 89.5227C147.611 98.8531 137.136 105.906 125.405 109.998C113.674 114.09 101.085 115.082 88.8584 112.879C76.6313 110.675 65.1807 105.35 55.6165 97.4204C46.0522 89.4906 38.6986 79.2245 34.2683 67.6172Z" fill="#63B446"/>
<path d="M228.993 45.8639C232.08 45.8639 234.582 43.3616 234.582 40.2747C234.582 37.1879 232.08 34.6855 228.993 34.6855C225.906 34.6855 223.404 37.1879 223.404 40.2747C223.404 43.3616 225.906 45.8639 228.993 45.8639Z" fill="#F6FAFE"/>
<path d="M209.878 403.416C215.764 401.904 218.564 393.006 216.132 383.542C213.701 374.078 206.958 367.632 201.072 369.144C195.186 370.657 192.386 379.555 194.818 389.019C197.249 398.483 203.992 404.929 209.878 403.416Z" fill="#951B1E"/>
<path d="M170.879 319.809C176.765 318.297 179.565 309.398 177.133 299.935C174.701 290.471 167.959 284.025 162.073 285.537C156.187 287.049 153.387 295.947 155.818 305.411C158.25 314.875 164.993 321.321 170.879 319.809Z" fill="#951B1E"/>
<path d="M79.0456 268.438C84.9315 266.925 87.7318 258.027 85.3001 248.564C82.8684 239.1 76.1257 232.654 70.2398 234.166C64.3539 235.678 61.5537 244.576 63.9853 254.04C66.417 263.504 73.1597 269.95 79.0456 268.438Z" fill="#D91F26"/>
<path d="M161.447 371.008C167.333 369.496 170.133 360.598 167.702 351.134C165.27 341.67 158.527 335.224 152.641 336.736C146.756 338.249 143.955 347.147 146.387 356.611C148.819 366.074 155.561 372.52 161.447 371.008Z" fill="#D91F26"/>
<path d="M260.368 313.619C266.254 312.107 269.054 303.209 266.622 293.745C264.191 284.281 257.448 277.835 251.562 279.348C245.676 280.86 242.876 289.758 245.308 299.222C247.739 308.686 254.482 315.132 260.368 313.619Z" fill="#951B1E"/>
<path d="M218.359 269.705C224.244 268.193 227.045 259.295 224.613 249.831C222.181 240.367 215.439 233.921 209.553 235.434C203.667 236.946 200.867 245.844 203.298 255.308C205.73 264.772 212.473 271.218 218.359 269.705Z" fill="#951B1E"/>
<path d="M282.044 268.942C291.879 266.415 297.058 253.493 293.612 240.08C290.165 226.667 279.399 217.843 269.564 220.37C259.729 222.897 254.55 235.819 257.996 249.232C261.442 262.645 272.209 271.469 282.044 268.942Z" fill="#F1594B"/>
<path d="M280.207 261.793C286.093 260.281 288.893 251.383 286.461 241.919C284.03 232.455 277.287 226.009 271.401 227.521C265.515 229.034 262.715 237.932 265.146 247.396C267.578 256.86 274.321 263.306 280.207 261.793Z" fill="#FAF28C"/>
<path d="M204.346 199.835C214.181 197.308 219.36 184.386 215.914 170.973C212.467 157.56 201.701 148.735 191.866 151.262C182.031 153.789 176.852 166.711 180.298 180.124C183.745 193.537 194.511 202.362 204.346 199.835Z" fill="#F1594B"/>
<path d="M202.509 192.686C208.395 191.173 211.195 182.275 208.763 172.812C206.332 163.348 199.589 156.902 193.703 158.414C187.817 159.926 185.017 168.824 187.448 178.288C189.88 187.752 196.623 194.198 202.509 192.686Z" fill="#FAF28C"/>
<path d="M229.49 347.44C239.325 344.913 244.504 331.991 241.057 318.579C237.611 305.166 226.844 296.341 217.01 298.868C207.175 301.395 201.995 314.317 205.442 327.73C208.888 341.143 219.655 349.967 229.49 347.44Z" fill="#F1594B"/>
<path d="M227.653 340.291C233.539 338.779 236.339 329.881 233.907 320.417C231.475 310.953 224.733 304.507 218.847 306.019C212.961 307.532 210.161 316.43 212.592 325.894C215.024 335.358 221.767 341.804 227.653 340.291Z" fill="#FAF28C"/>
<path d="M147.593 258.87C157.428 256.343 162.607 243.421 159.161 230.008C155.715 216.595 144.948 207.77 135.113 210.297C125.278 212.824 120.099 225.746 123.545 239.159C126.992 252.572 137.758 261.397 147.593 258.87Z" fill="#F1594B"/>
<path d="M148.737 252.076C154.631 250.557 157.43 241.642 154.987 232.164C152.544 222.686 145.785 216.234 139.89 217.753C133.996 219.272 131.197 228.187 133.64 237.666C136.083 247.144 142.842 253.596 148.737 252.076Z" fill="#FAF28C"/>
<path d="M91.7642 232.453C97.6501 230.941 100.45 222.043 98.0186 212.579C95.5869 203.115 88.8442 196.669 82.9583 198.182C77.0724 199.694 74.2722 208.592 76.7038 218.056C79.1355 227.52 85.8783 233.966 91.7642 232.453Z" fill="#951B1E"/>
<path d="M139.835 175.6C145.721 174.088 148.521 165.19 146.09 155.726C143.658 146.262 136.915 139.816 131.029 141.328C125.143 142.84 122.343 151.738 124.775 161.202C127.206 170.666 133.949 177.112 139.835 175.6Z" fill="#951B1E"/>
<path d="M256.241 204.645C262.127 203.132 264.927 194.234 262.496 184.771C260.064 175.307 253.321 168.861 247.435 170.373C241.549 171.885 238.749 180.783 241.181 190.247C243.613 199.711 250.355 206.157 256.241 204.645Z" fill="#951B1E"/>
</svg>
