<svg width="460" height="460" viewBox="0 0 460 460" fill="none" xmlns="http://www.w3.org/2000/svg">
<g clip-path="url(#clip0_4984_762)">
<path d="M229.6 459.21C228.66 459.21 227.73 459.21 226.8 459.14L225.95 459.09L223.95 458.94L223.11 458.86C222.18 458.76 221.28 458.65 220.39 458.51C211.235 457.094 202.523 453.611 194.915 448.327C187.307 443.042 181.003 436.094 176.48 428.01C175 428.88 173.48 429.7 171.95 430.45C168.448 432.155 164.791 433.522 161.03 434.53C159.15 435.03 157.23 435.45 155.32 435.77C153.41 436.09 151.44 436.33 149.51 436.46C148.51 436.53 147.51 436.58 146.57 436.6H145.21C143.7 436.6 142.21 436.6 140.68 436.43C131.561 435.758 122.715 433.023 114.81 428.43C113.7 427.78 112.55 427.06 111.29 426.22L110.48 425.66C109.22 424.79 108.15 424 107.18 423.22L107.1 423.15C99.9016 417.345 94.1177 409.979 90.1851 401.609C86.2525 393.24 84.2742 384.086 84.3997 374.84H83.5496C72.8572 374.824 62.3561 372.004 53.0945 366.661C43.8329 361.318 36.135 353.638 30.7695 344.39C30.2995 343.57 29.8597 342.75 29.4297 341.93L29.0696 341.21C28.7396 340.56 28.4497 339.95 28.1697 339.33L27.8196 338.58C27.4496 337.73 27.0898 336.89 26.7598 336.05C23.4102 327.415 22.071 318.13 22.8438 308.9C23.6165 299.671 26.4809 290.738 31.2197 282.78C21.7511 277.495 13.8658 269.778 8.37892 260.425C2.89204 251.072 0.00278888 240.424 0.00977828 229.58C0.00977828 228.64 0.00960249 227.71 0.0796025 226.77C0.0796025 226.53 0.129651 225.93 0.129651 225.93C0.129651 225.25 0.219554 224.58 0.279554 223.93L0.359632 223.1C0.459632 222.18 0.569729 221.28 0.709729 220.39C2.12506 211.239 5.60501 202.53 10.886 194.924C16.167 187.318 23.1104 181.014 31.1897 176.49C25.6328 167.178 22.6639 156.551 22.5901 145.707C22.5163 134.863 25.34 124.197 30.7695 114.81C31.4195 113.69 32.1197 112.57 32.9797 111.29L33.5396 110.47C34.4096 109.22 35.2097 108.15 35.9797 107.17C41.6767 100.027 48.9144 94.2646 57.1519 90.313C65.3893 86.3614 74.4133 84.3232 83.5496 84.3501H84.3496C84.2513 75.7977 85.9549 67.3201 89.3496 59.4697C90.1196 57.6797 90.9797 55.8997 91.9197 54.1997C92.3897 53.3297 92.9197 52.4797 93.3897 51.6597C94.4197 49.9711 95.5346 48.3358 96.7298 46.7598C97.929 45.17 99.2071 43.6413 100.56 42.1797C104.724 37.6741 109.545 33.824 114.86 30.7598C115.68 30.2898 116.5 29.8399 117.32 29.4199L118.1 29.02C118.68 28.74 119.28 28.4397 119.9 28.1597L120.66 27.8101C121.52 27.4301 122.36 27.08 123.2 26.75C131.835 23.3867 141.122 22.035 150.358 22.7974C159.593 23.5598 168.533 26.4162 176.5 31.1499C180.68 23.7005 186.375 17.2109 193.22 12.1001C194.78 10.9301 196.42 9.82983 198.08 8.81983C204.914 4.6664 212.504 1.9066 220.41 0.699713C221.41 0.549713 222.41 0.420065 223.41 0.310065C225.477 0.102601 227.552 -0.000921639 229.63 6.18134e-06C230.58 6.18134e-06 231.53 -0.000169598 232.46 0.0698304H233.22L235.3 0.229987L236.14 0.310065C237.07 0.410065 237.97 0.519909 238.86 0.649909C248.015 2.0671 256.728 5.55101 264.336 10.8374C271.944 16.1238 278.248 23.0736 282.77 31.1597C291.825 25.7578 302.128 22.7981 312.67 22.5698H314.03C315.54 22.5698 317.03 22.6298 318.57 22.7398C319.52 22.8098 320.52 22.9098 321.51 23.0298C326.497 23.6508 331.388 24.8903 336.07 26.7197C337.02 27.0897 337.98 27.4897 338.91 27.9097C340.8 28.759 342.645 29.7037 344.44 30.7398C345.54 31.3798 346.67 32.0797 347.96 32.9497L348.81 33.5298C350.05 34.3998 351.09 35.1697 352.08 35.9497C359.3 41.7552 365.103 49.1295 369.048 57.5122C372.993 65.8949 374.977 75.0662 374.85 84.3301H375.7C380.071 84.3281 384.429 84.7974 388.7 85.73C390.59 86.14 392.49 86.6498 394.34 87.2398C396.19 87.8298 398.02 88.5098 399.81 89.2398C401.6 89.9698 403.37 90.8698 405.08 91.7998C405.93 92.2698 406.79 92.7998 407.63 93.2798C409.3 94.2798 410.94 95.4299 412.51 96.6099C414.08 97.7899 415.63 99.09 417.09 100.44C421.599 104.607 425.453 109.431 428.52 114.75C428.99 115.56 429.43 116.39 429.86 117.22C429.97 117.42 430.24 117.96 430.24 117.96C430.54 118.57 430.84 119.18 431.12 119.8C431.12 119.8 431.39 120.38 431.48 120.59C431.84 121.4 432.2 122.24 432.53 123.08C435.881 131.717 437.221 141.003 436.448 150.234C435.675 159.466 432.81 168.401 428.07 176.36C435.541 180.541 442.049 186.248 447.17 193.11C448.344 194.67 449.439 196.289 450.45 197.96C454.61 204.796 457.373 212.389 458.58 220.3C458.73 221.3 458.86 222.3 458.97 223.3C459.17 225.36 459.28 227.45 459.28 229.51C459.28 230.45 459.28 231.39 459.21 232.32C459.21 232.55 459.16 233.15 459.16 233.15C459.12 233.817 459.07 234.483 459.01 235.15C459.01 235.15 458.95 235.75 458.93 235.98C458.83 236.91 458.72 237.81 458.58 238.7C457.163 247.854 453.681 256.566 448.396 264.174C443.112 271.782 436.164 278.087 428.08 282.61C433.48 291.663 436.44 301.961 436.67 312.5C436.67 314.5 436.67 316.45 436.52 318.4C436.44 319.4 436.34 320.4 436.22 321.4C435.602 326.387 434.366 331.278 432.54 335.96C432.17 336.91 431.77 337.87 431.35 338.79C430.504 340.682 429.56 342.528 428.52 344.32C427.88 345.43 427.18 346.54 426.31 347.84L425.74 348.68C424.9 349.89 424.16 350.89 423.41 351.83L423.3 351.97C417.604 359.113 410.366 364.875 402.128 368.825C393.89 372.775 384.866 374.811 375.73 374.78H374.93C374.93 375.5 374.93 376.22 374.93 376.95C374.93 378.89 374.75 380.86 374.52 382.79C374.4 383.79 374.26 384.73 374.1 385.69C372.469 395.373 368.532 404.52 362.62 412.36C362.03 413.15 361.41 413.93 360.78 414.68C359.495 416.221 358.134 417.697 356.7 419.1C353.035 422.691 348.933 425.805 344.49 428.37C343.67 428.84 342.85 429.28 342.03 429.71L341.27 430.09C340.67 430.39 340.06 430.68 339.45 430.96L338.7 431.31C337.83 431.69 337 432.05 336.16 432.37C327.523 435.735 318.234 437.088 308.997 436.325C299.759 435.563 290.817 432.705 282.85 427.97C281.063 431.149 278.995 434.161 276.67 436.97C274.189 439.973 271.43 442.736 268.43 445.22C257.526 454.226 243.822 459.146 229.68 459.13L229.6 459.21Z" fill="#231F20"/>
<path d="M229.601 15C217.429 15.0027 205.757 19.8396 197.151 28.4473C188.545 37.0549 183.711 48.7282 183.711 60.8999L211.711 166.36H247.521L275.521 60.8999C275.521 54.8705 274.333 48.9002 272.025 43.3301C269.717 37.7599 266.334 32.699 262.07 28.4365C257.806 24.1741 252.743 20.7938 247.172 18.4883C241.601 16.1828 235.63 14.9974 229.601 15Z" fill="#FAF28D"/>
<path d="M236.57 15.52C234.252 15.1727 231.913 14.9988 229.57 15C217.398 15.0027 205.726 19.8396 197.12 28.4473C188.514 37.0549 183.68 48.7282 183.68 60.8999L211.68 166.36H225.61L197.61 60.8999C197.612 49.9289 201.542 39.3212 208.688 30.9971C215.835 22.673 225.725 17.1829 236.57 15.52Z" fill="#EFCC6B"/>
<path d="M43.7504 122.3C37.6665 132.843 36.0185 145.371 39.1688 157.129C42.3192 168.886 50.01 178.912 60.5502 185.001L165.88 213.481L183.78 182.481L106.45 105.481C95.9049 99.3983 83.3756 97.7536 71.6176 100.908C59.8596 104.062 49.8357 111.757 43.7504 122.3Z" fill="#FAF28D"/>
<path d="M47.6904 116.529C43.5553 121.693 40.5846 127.69 38.9814 134.108C37.3782 140.526 37.1804 147.215 38.4016 153.717C39.6227 160.219 42.2339 166.38 46.0566 171.779C49.8794 177.178 54.8233 181.688 60.5503 185L165.88 213.479L172.88 201.419L67.5503 172.929C58.0486 167.45 50.8226 158.751 47.1797 148.406C43.5368 138.06 43.7179 126.753 47.6904 116.529Z" fill="#EFCC6B"/>
<path d="M43.7497 336.879C46.7628 342.1 50.7747 346.676 55.5564 350.347C60.3381 354.017 65.7956 356.71 71.6179 358.271C77.4402 359.831 83.5131 360.23 89.4895 359.444C95.4659 358.658 101.229 356.703 106.45 353.689L183.78 276.689L165.88 245.689L60.5495 274.179C55.3286 277.192 50.7523 281.204 47.0823 285.986C43.4122 290.768 40.7203 296.226 39.1601 302.049C37.6 307.871 37.2025 313.945 37.99 319.921C38.7774 325.897 40.7347 331.66 43.7497 336.879Z" fill="#FAF28D"/>
<path d="M40.7197 330.611C41.565 332.781 42.5676 334.887 43.7197 336.911C49.8084 347.451 59.8336 355.142 71.5913 358.292C83.349 361.443 95.8767 359.795 106.42 353.711L183.75 276.711L176.75 264.641L99.4097 341.641C89.9191 347.104 78.7883 348.995 68.0261 346.972C57.264 344.95 47.5794 339.147 40.7197 330.611Z" fill="#EFCC6B"/>
<path d="M229.599 444.209C241.773 444.209 253.448 439.374 262.056 430.766C270.664 422.158 275.5 410.483 275.5 398.31L247.5 292.85H211.689L183.689 398.31C183.689 404.338 184.877 410.307 187.184 415.877C189.492 421.446 192.873 426.507 197.137 430.769C201.4 435.031 206.461 438.412 212.031 440.718C217.601 443.024 223.571 444.211 229.599 444.209Z" fill="#FAF28D"/>
<path d="M222.641 443.679C229.18 444.682 235.859 444.26 242.221 442.441C248.582 440.622 254.475 437.449 259.495 433.14C264.516 428.831 268.545 423.487 271.308 417.476C274.07 411.464 275.501 404.926 275.501 398.31L247.501 292.85H233.561L261.561 398.31C261.561 409.274 257.637 419.876 250.499 428.198C243.36 436.52 233.478 442.012 222.641 443.679Z" fill="#EFCC6B"/>
<path d="M415.46 336.879C418.473 331.66 420.429 325.898 421.216 319.923C422.002 313.948 421.604 307.876 420.044 302.055C418.484 296.233 415.793 290.776 412.124 285.995C408.454 281.214 403.879 277.202 398.66 274.189L293.33 245.699L275.43 276.699L352.76 353.699C357.981 356.712 363.745 358.667 369.721 359.453C375.698 360.238 381.771 359.838 387.594 358.276C393.416 356.714 398.873 354.021 403.655 350.35C408.436 346.678 412.447 342.101 415.46 336.879Z" fill="#FAF28D"/>
<path d="M411.52 342.671C412.976 340.849 414.293 338.92 415.46 336.901C418.474 331.682 420.43 325.92 421.216 319.944C422.003 313.969 421.605 307.898 420.045 302.076C418.485 296.255 415.793 290.798 412.124 286.017C408.455 281.235 403.88 277.224 398.66 274.211L293.33 245.721L286.33 257.791L391.66 286.271C401.16 291.751 408.385 300.451 412.028 310.795C415.671 321.14 415.49 332.447 411.52 342.671Z" fill="#EFCC6B"/>
<path d="M415.46 122.299C409.371 111.759 399.346 104.068 387.588 100.918C375.83 97.7675 363.303 99.4155 352.76 105.499L275.43 182.499L293.33 213.499L398.66 185.019C403.881 182.005 408.458 177.991 412.128 173.207C415.798 168.423 418.49 162.963 420.051 157.139C421.611 151.315 422.008 145.24 421.22 139.263C420.433 133.285 418.475 127.52 415.46 122.299Z" fill="#FAF28D"/>
<path d="M418.491 128.6C417.648 126.428 416.645 124.322 415.491 122.299C409.402 111.759 399.377 104.068 387.619 100.918C375.861 97.7675 363.334 99.4155 352.791 105.499L275.461 182.499L282.461 194.569L359.801 117.569C369.291 112.104 380.422 110.212 391.185 112.235C401.948 114.257 411.633 120.062 418.491 128.6Z" fill="#EFCC6B"/>
<path d="M122.3 43.75C111.76 49.8387 104.069 59.8639 100.919 71.6216C97.7685 83.3793 99.4165 95.9067 105.5 106.45L182.5 183.78L213.5 165.88L185.02 60.5498C182.006 55.3272 177.993 50.7497 173.209 47.0786C168.426 43.4076 162.966 40.7149 157.141 39.1548C151.316 37.5946 145.242 37.1974 139.264 37.9859C133.285 38.7743 127.521 40.7331 122.3 43.75Z" fill="#F8A33E" stroke="#F8A33E" stroke-width="0.56" stroke-miterlimit="10"/>
<path d="M128.6 40.7207C126.429 41.564 124.323 42.5667 122.3 43.7207C111.76 49.8094 104.069 59.8351 100.919 71.5928C97.7685 83.3505 99.4165 95.8779 105.5 106.421L182.5 183.751L194.56 176.751L117.56 99.4209C112.096 89.9283 110.205 78.7948 112.229 68.0303C114.254 57.2658 120.06 47.5794 128.6 40.7207Z" fill="#F68621"/>
<path d="M15 229.6C15 241.773 19.8357 253.448 28.4436 262.056C37.0515 270.664 48.7265 275.5 60.8999 275.5L166.36 247.5V211.699L60.8999 183.699C48.7265 183.699 37.0515 188.535 28.4436 197.143C19.8357 205.751 15 217.426 15 229.6Z" fill="#F8A33E" stroke="#F8A33E" stroke-width="0.56" stroke-miterlimit="10"/>
<path d="M15.5298 222.641C14.5265 229.18 14.9489 235.86 16.7681 242.221C18.5872 248.582 21.7602 254.475 26.0693 259.496C30.3785 264.516 35.722 268.546 41.7339 271.308C47.7457 274.071 54.2837 275.501 60.8999 275.501L166.36 247.501V233.571L60.8999 261.571C49.934 261.571 39.3303 257.646 31.0081 250.505C22.6858 243.364 17.195 233.479 15.5298 222.641Z" fill="#F68621"/>
<path d="M122.3 415.46C132.842 421.547 145.37 423.196 157.129 420.045C168.887 416.895 178.913 409.202 185 398.66L213.48 293.33L182.48 275.43L105.48 352.76C99.3975 363.305 97.7525 375.835 100.907 387.593C104.061 399.351 111.756 409.375 122.3 415.46Z" fill="#F8A33E" stroke="#F8A33E" stroke-width="0.56" stroke-miterlimit="10"/>
<path d="M116.53 411.52C118.355 412.972 120.284 414.289 122.3 415.46C132.843 421.547 145.371 423.196 157.13 420.045C168.888 416.895 178.914 409.202 185 398.66L213.48 293.33L201.42 286.33L172.94 391.66C167.458 401.161 158.757 408.386 148.411 412.029C138.064 415.671 126.755 415.491 116.53 411.52Z" fill="#F68621"/>
<path d="M336.911 415.46C347.451 409.371 355.142 399.346 358.292 387.588C361.443 375.831 359.795 363.303 353.711 352.76L276.711 275.43L245.711 293.33L274.201 398.66C277.215 403.881 281.228 408.458 286.01 412.128C290.793 415.798 296.252 418.49 302.076 420.05C307.899 421.61 313.973 422.008 319.95 421.22C325.927 420.433 331.69 418.475 336.911 415.46Z" fill="#F8A33E" stroke="#F8A33E" stroke-width="0.56" stroke-miterlimit="10"/>
<path d="M330.61 418.48C336.778 416.082 342.354 412.379 346.956 407.624C351.558 402.868 355.077 397.174 357.271 390.931C359.466 384.688 360.284 378.044 359.669 371.456C359.054 364.867 357.022 358.489 353.71 352.76L276.71 275.43L264.65 282.43L341.65 359.76C347.121 369.254 349.014 380.393 346.99 391.162C344.965 401.931 339.155 411.62 330.61 418.48Z" fill="#F68621"/>
<path d="M444.21 229.6C444.21 217.426 439.374 205.751 430.766 197.143C422.158 188.535 410.483 183.699 398.31 183.699L292.85 211.699V247.5L398.31 275.5C410.483 275.5 422.158 270.664 430.766 262.056C439.374 253.448 444.21 241.773 444.21 229.6Z" fill="#F8A33E" stroke="#F8A33E" stroke-width="0.56" stroke-miterlimit="10"/>
<path d="M443.68 236.569C444.683 230.029 444.26 223.349 442.441 216.988C440.622 210.626 437.45 204.733 433.141 199.711C428.832 194.69 423.488 190.66 417.476 187.896C411.464 185.132 404.926 183.701 398.31 183.699L292.85 211.699V225.629L398.31 197.629C409.277 197.629 419.882 201.556 428.205 208.699C436.527 215.842 442.017 225.729 443.68 236.569Z" fill="#F68621"/>
<path d="M336.911 43.751C326.368 37.6645 313.84 36.015 302.081 39.1656C290.323 42.3162 280.298 50.0086 274.211 60.5509L245.721 165.881L276.721 183.781L353.721 106.451C359.804 95.9065 361.45 83.378 358.298 71.6202C355.146 59.8623 347.453 49.8381 336.911 43.751Z" fill="#F8A33E" stroke="#F8A33E" stroke-width="0.56" stroke-miterlimit="10"/>
<path d="M342.681 47.6896C337.517 43.5545 331.521 40.5838 325.102 38.9806C318.684 37.3774 311.995 37.1794 305.493 38.4005C298.992 39.6217 292.83 42.2331 287.431 46.0558C282.032 49.8785 277.522 54.8225 274.211 60.5494L245.721 165.88L257.791 172.88L286.271 67.5597C291.746 58.0525 300.447 50.821 310.795 47.1759C321.143 43.5308 332.455 43.7131 342.681 47.6896Z" fill="#F68621"/>
<path d="M229.6 326.79C283.271 326.79 326.78 283.281 326.78 229.61C326.78 175.939 283.271 132.43 229.6 132.43C175.929 132.43 132.42 175.939 132.42 229.61C132.42 283.281 175.929 326.79 229.6 326.79Z" fill="#F8A33E" stroke="#F8A33E" stroke-width="0.56" stroke-miterlimit="10"/>
<path d="M281.14 147.18C295.187 165.191 302.443 187.575 301.632 210.402C300.821 233.229 291.996 255.042 276.706 272.011C261.416 288.98 240.637 300.022 218.018 303.198C195.398 306.374 172.382 301.482 153.01 289.38C161.74 300.574 172.817 309.719 185.461 316.173C198.105 322.627 212.01 326.232 226.197 326.736C240.384 327.24 254.509 324.63 267.579 319.089C280.649 313.549 292.346 305.213 301.849 294.667C311.352 284.12 318.429 271.62 322.583 258.045C326.737 244.471 327.866 230.151 325.892 216.093C323.918 202.035 318.888 188.58 311.157 176.674C303.425 164.769 293.179 154.701 281.14 147.18Z" fill="#F68621"/>
<path d="M197.299 215.161C206.605 215.161 214.149 207.617 214.149 198.311C214.149 189.005 206.605 181.461 197.299 181.461C187.993 181.461 180.449 189.005 180.449 198.311C180.449 207.617 187.993 215.161 197.299 215.161Z" fill="#070B0C"/>
<path d="M192.811 201.319C197.146 201.319 200.661 197.805 200.661 193.469C200.661 189.134 197.146 185.619 192.811 185.619C188.475 185.619 184.961 189.134 184.961 193.469C184.961 197.805 188.475 201.319 192.811 201.319Z" fill="white"/>
<path d="M261.911 215.161C271.217 215.161 278.761 207.617 278.761 198.311C278.761 189.005 271.217 181.461 261.911 181.461C252.605 181.461 245.061 189.005 245.061 198.311C245.061 207.617 252.605 215.161 261.911 215.161Z" fill="#070B0C"/>
<path d="M257.42 201.319C261.756 201.319 265.27 197.805 265.27 193.469C265.27 189.134 261.756 185.619 257.42 185.619C253.085 185.619 249.57 189.134 249.57 193.469C249.57 197.805 253.085 201.319 257.42 201.319Z" fill="white"/>
<path d="M179 175.59C179 175.59 191.31 162.41 207.57 173.39" stroke="#231F20" stroke-width="2.58" stroke-miterlimit="10" stroke-linecap="round"/>
<path d="M280.211 175.59C280.211 175.59 267.901 162.41 251.641 173.39" stroke="#231F20" stroke-width="2.58" stroke-miterlimit="10" stroke-linecap="round"/>
<path d="M220.24 213.791C220.24 213.791 220.69 221.791 228.87 221.791C237.05 221.791 236.87 213.791 236.87 213.791" stroke="#231F20" stroke-width="2.58" stroke-miterlimit="10" stroke-linecap="round"/>
<path d="M365.477 136.02C373.79 132.683 378.518 124.967 376.037 118.786C373.556 112.605 364.805 110.299 356.492 113.636C348.179 116.973 343.451 124.689 345.932 130.87C348.413 137.051 357.164 139.357 365.477 136.02Z" fill="white"/>
<path d="M385.409 132.42C388.513 132.42 391.029 129.904 391.029 126.8C391.029 123.696 388.513 121.18 385.409 121.18C382.305 121.18 379.789 123.696 379.789 126.8C379.789 129.904 382.305 132.42 385.409 132.42Z" fill="white"/>
<path d="M210.164 82.7678C216.727 81.6284 220.804 73.5496 219.272 64.7236C217.739 55.8976 211.177 49.6666 204.615 50.806C198.052 51.9455 193.975 60.0238 195.507 68.8498C197.04 77.6758 203.602 83.9072 210.164 82.7678Z" fill="white"/>
<path d="M214.35 48.8904C217.454 48.8904 219.97 46.3742 219.97 43.2704C219.97 40.1665 217.454 37.6504 214.35 37.6504C211.247 37.6504 208.73 40.1665 208.73 43.2704C208.73 46.3742 211.247 48.8904 214.35 48.8904Z" fill="white"/>
<path d="M295.21 72.1508C300.761 72.1508 305.26 67.6512 305.26 62.1008C305.26 56.5503 300.761 52.0508 295.21 52.0508C289.66 52.0508 285.16 56.5503 285.16 62.1008C285.16 67.6512 289.66 72.1508 295.21 72.1508Z" fill="white"/>
</g>
<defs>
<clipPath id="clip0_4984_762">
<rect width="459.21" height="459.21" fill="white"/>
</clipPath>
</defs>
</svg>
