<svg width="700" height="716" viewBox="0 0 700 716" fill="none" xmlns="http://www.w3.org/2000/svg">
<g clip-path="url(#clip0_4625_368)">
<path d="M350 715.732C498.782 715.732 619.394 697.975 619.394 676.071C619.394 654.166 498.782 636.41 350 636.41C201.218 636.41 80.606 654.166 80.606 676.071C80.606 697.975 201.218 715.732 350 715.732Z" fill="#BCBEC0"/>
<path d="M350 5.44971C330.805 5.44971 312.395 13.0744 298.821 26.6468C285.247 40.2192 277.62 58.6275 277.618 77.823L321.768 244.117H378.232L422.382 77.823C422.382 68.318 420.51 58.9061 416.872 50.1248C413.235 41.3435 407.903 33.3647 401.182 26.6441C394.46 19.9235 386.481 14.5927 377.699 10.9562C368.917 7.31961 359.505 5.44851 350 5.44971V5.44971Z" fill="#FAF28D"/>
<path d="M360.983 6.27858C350.671 4.70486 340.141 5.37679 330.113 8.24844C320.085 11.1201 310.795 16.1237 302.88 22.917C294.964 29.7104 288.609 38.1333 284.249 47.6095C279.889 57.0858 277.627 67.392 277.618 77.8231L321.768 244.117H343.734L299.593 77.8231C299.594 60.5313 305.785 43.8111 317.046 30.6882C328.306 17.5652 343.892 8.90641 360.983 6.27858V6.27858Z" fill="#EFCC6B"/>
<path d="M177.277 51.7314C169.044 56.4825 161.829 62.8088 156.042 70.349C150.255 77.8891 146.011 86.4954 143.55 95.6763C141.09 104.857 140.463 114.433 141.704 123.856C142.945 133.28 146.031 142.366 150.784 150.597L272.162 272.54L321.058 244.308L276.142 78.2237C271.39 69.9924 265.063 62.7777 257.523 56.9916C249.983 51.2055 241.377 46.9612 232.196 44.5012C223.016 42.0412 213.44 41.4135 204.017 42.6541C194.594 43.8946 185.508 46.9791 177.277 51.7314V51.7314Z" fill="#F8A33E"/>
<path d="M187.204 46.9595C177.485 50.7497 168.7 56.5949 161.449 64.095C154.199 71.5951 148.654 80.5731 145.195 90.4145C141.736 100.256 140.443 110.729 141.407 121.116C142.37 131.503 145.566 141.559 150.776 150.597L272.154 272.54L291.178 261.557L169.809 139.614C161.163 124.638 158.163 107.062 161.354 90.0667C164.545 73.0711 173.714 57.7795 187.204 46.9595V46.9595Z" fill="#F68621"/>
<path d="M50.8262 178.173C41.2309 194.797 38.6315 214.551 43.5996 233.092C48.5677 251.632 60.6965 267.44 77.3184 277.039L243.412 321.954L271.643 273.059L149.701 151.681C133.075 142.085 113.32 139.485 94.7779 144.453C76.2361 149.422 60.4266 161.55 50.8262 178.173V178.173Z" fill="#FAF28D"/>
<path d="M57.0645 169.075C54.7728 171.954 52.6969 174.998 50.8535 178.182C41.2583 194.806 38.6588 214.561 43.6269 233.101C48.595 251.641 60.7238 267.449 77.3458 277.048L243.439 321.963L254.422 302.939L88.3106 258.014C73.3391 249.364 61.9582 235.641 56.227 219.328C50.4958 203.014 50.7929 185.188 57.0645 169.075V169.075Z" fill="#EFCC6B"/>
<path d="M4.55372 350.896C4.56338 370.085 12.1924 388.485 25.7637 402.052C39.335 415.618 57.7379 423.24 76.927 423.242L243.221 379.092V322.628L76.927 278.487C67.4197 278.487 58.0056 280.36 49.2225 283.999C40.4394 287.639 32.4594 292.973 25.7385 299.697C19.0175 306.421 13.6873 314.404 10.0524 323.189C6.4174 331.974 4.54893 341.389 4.55372 350.896Z" fill="#F8A33E"/>
<path d="M5.38217 339.913C3.81422 350.222 4.4905 360.748 7.36479 370.772C10.2391 380.795 15.2436 390.08 22.0364 397.992C28.8291 405.904 37.2499 412.255 46.7232 416.613C56.1966 420.971 66.4991 423.232 76.9267 423.242L243.22 379.091V357.162L76.9267 401.303C59.6349 401.302 42.9147 395.111 29.7917 383.85C16.6688 372.59 8.00999 357.004 5.38217 339.913V339.913Z" fill="#F68621"/>
<path d="M50.8262 523.62C60.4249 540.244 76.2344 552.375 94.7769 557.343C113.319 562.311 133.076 559.71 149.701 550.112L271.634 428.706L243.403 379.811L77.3184 424.754C60.6965 434.353 48.5677 450.161 43.5996 468.701C38.6315 487.241 41.2309 506.996 50.8262 523.62V523.62Z" fill="#FAF28D"/>
<path d="M46.0542 513.693C49.8455 523.412 55.6916 532.197 63.1925 539.448C70.6935 546.698 79.6723 552.243 89.5144 555.702C99.3566 559.161 109.83 560.453 120.218 559.49C130.605 558.527 140.663 555.331 149.701 550.121L271.634 428.706L260.651 409.682L138.718 531.087C123.741 539.734 106.163 542.734 89.1661 539.543C72.169 536.353 56.8757 527.183 46.0542 513.693V513.693Z" fill="#EFCC6B"/>
<path d="M177.277 650.061C193.897 659.661 213.649 662.266 232.19 657.303C250.731 652.34 266.541 640.215 276.142 623.596L321.058 457.485L272.162 429.253L150.784 551.196C146.031 559.426 142.945 568.513 141.704 577.936C140.463 587.36 141.09 596.935 143.55 606.116C146.011 615.297 150.255 623.903 156.042 631.444C161.829 638.984 169.044 645.31 177.277 650.061V650.061Z" fill="#F8A33E"/>
<path d="M168.17 643.859C176.315 650.373 185.77 655.053 195.889 657.578C206.008 660.103 216.553 660.414 226.803 658.49C237.054 656.567 246.768 652.453 255.283 646.431C263.799 640.409 270.914 632.62 276.142 623.596L321.058 457.484L302.043 446.501L257.118 612.586C248.471 627.563 234.748 638.95 218.432 644.686C202.117 650.422 184.288 650.129 168.17 643.859V643.859Z" fill="#F68621"/>
<path d="M350 696.343C369.194 696.343 387.603 688.718 401.176 675.145C414.748 661.572 422.373 643.164 422.373 623.969L378.222 457.676H321.759L277.608 623.969C277.61 633.475 279.483 642.887 283.122 651.668C286.76 660.45 292.093 668.428 298.815 675.149C305.537 681.869 313.517 687.2 322.3 690.836C331.082 694.473 340.494 696.344 350 696.343Z" fill="#FAF28D"/>
<path d="M339.017 695.541C349.328 697.115 359.858 696.443 369.886 693.572C379.913 690.7 389.202 685.696 397.118 678.903C405.033 672.109 411.387 663.686 415.746 654.21C420.105 644.734 422.366 634.428 422.373 623.997L378.223 457.703H356.257L400.398 623.969C400.404 641.265 394.217 657.99 382.958 671.119C371.698 684.247 356.111 692.911 339.017 695.541V695.541Z" fill="#EFCC6B"/>
<path d="M522.723 650.061C539.345 640.462 551.474 624.655 556.442 606.114C561.41 587.574 558.811 567.82 549.215 551.196L427.837 429.253L378.942 457.485L423.858 623.596C428.611 631.826 434.939 639.039 442.48 644.823C450.021 650.607 458.628 654.849 467.809 657.307C476.989 659.764 486.564 660.389 495.987 659.146C505.409 657.903 514.494 654.816 522.723 650.061V650.061Z" fill="#F8A33E"/>
<path d="M512.796 654.842C516.22 653.499 519.539 651.901 522.723 650.061C539.345 640.462 551.474 624.655 556.442 606.114C561.41 587.574 558.811 567.82 549.215 551.196L427.837 429.253L408.804 440.245L530.191 562.179C538.834 577.157 541.832 594.733 538.641 611.729C535.451 628.725 526.283 644.019 512.796 654.842Z" fill="#F68621"/>
<path d="M649.165 523.62C653.917 515.388 657.001 506.302 658.242 496.879C659.483 487.456 658.855 477.881 656.395 468.7C653.935 459.519 649.69 450.913 643.904 443.373C638.118 435.833 630.904 429.506 622.672 424.754L456.588 379.838L428.356 428.706L550.299 550.112C558.53 554.864 567.617 557.949 577.04 559.189C586.463 560.43 596.038 559.802 605.219 557.342C614.399 554.882 623.005 550.638 630.546 544.852C638.086 539.065 644.413 531.851 649.165 523.62Z" fill="#FAF28D"/>
<path d="M642.954 532.717C649.473 524.574 654.156 515.119 656.683 504.999C659.21 494.879 659.522 484.332 657.596 474.08C655.67 463.829 651.553 454.114 645.525 445.6C639.498 437.087 631.702 429.976 622.673 424.754L456.588 379.838L445.596 398.863L611.68 443.779C626.657 452.424 638.043 466.146 643.78 482.459C649.516 498.773 649.223 516.601 642.954 532.717V532.717Z" fill="#EFCC6B"/>
<path d="M695.465 350.896C695.465 331.702 687.84 313.293 674.267 299.721C660.695 286.148 642.286 278.523 623.092 278.523L456.798 322.665V379.128L623.073 423.242C642.266 423.245 660.673 415.625 674.248 402.058C687.824 388.491 695.455 370.088 695.465 350.896V350.896Z" fill="#F8A33E"/>
<path d="M694.618 361.879C696.191 351.568 695.52 341.038 692.648 331.011C689.776 320.983 684.772 311.694 677.979 303.779C671.185 295.864 662.762 289.509 653.286 285.15C643.81 280.791 633.504 278.531 623.073 278.523L456.779 322.665V344.64L623.073 300.489C640.365 300.49 657.085 306.682 670.208 317.942C683.331 329.202 691.99 344.788 694.618 361.879V361.879Z" fill="#F68621"/>
<path d="M649.165 178.173C639.566 161.551 623.758 149.422 605.218 144.454C586.677 139.486 566.923 142.085 550.299 151.681L428.356 273.059L456.588 321.954L622.672 277.038C630.904 272.286 638.118 265.96 643.904 258.419C649.69 250.879 653.935 242.273 656.395 233.093C658.855 223.912 659.483 214.337 658.242 204.914C657.001 195.49 653.917 186.404 649.165 178.173V178.173Z" fill="#FAF28D"/>
<path d="M653.937 188.1C652.597 184.676 651.002 181.358 649.165 178.173C639.566 161.551 623.758 149.422 605.218 144.454C586.677 139.486 566.923 142.085 550.299 151.681L428.356 273.059L439.339 292.101L561.282 170.705C576.258 162.061 593.834 159.062 610.829 162.253C627.824 165.443 643.116 174.612 653.937 188.1V188.1Z" fill="#EFCC6B"/>
<path d="M522.723 51.7314C514.492 46.9791 505.406 43.8946 495.982 42.6541C486.559 41.4135 476.984 42.0412 467.803 44.5012C458.623 46.9612 450.017 51.2055 442.477 56.9916C434.936 62.7777 428.61 69.9924 423.858 78.2237L378.942 244.308L427.837 272.54L549.215 150.597C558.811 133.973 561.41 114.219 556.442 95.6783C551.474 77.138 539.345 61.3301 522.723 51.7314V51.7314Z" fill="#F8A33E"/>
<path d="M531.821 57.9423C523.678 51.4232 514.223 46.7399 504.103 44.2128C493.982 41.6857 483.436 41.3744 473.184 43.3003C462.932 45.2261 453.217 49.3436 444.704 55.3711C436.191 61.3986 429.08 69.1938 423.858 78.2236L378.942 244.308L397.966 255.291L442.882 89.2066C451.529 74.2319 465.251 62.8472 481.565 57.1126C497.878 51.3779 515.706 51.6723 531.821 57.9423V57.9423Z" fill="#F68621"/>
<path d="M378.223 244.117C381.328 230.11 384.598 216.14 387.83 202.17C391.063 188.2 394.415 174.248 397.848 160.323C401.282 146.399 404.606 132.447 408.112 118.54C411.618 104.634 415.015 90.7094 418.585 76.8213L418.448 77.823C418.361 68.8481 416.504 59.9785 412.984 51.7224C409.463 43.5062 404.392 36.0451 398.048 29.7472C385.264 17.0619 367.983 9.94361 349.973 9.94361C331.962 9.94361 314.682 17.0619 301.897 29.7472C295.553 36.0484 290.482 43.5124 286.961 51.7315C283.449 59.9869 281.592 68.8519 281.497 77.823L281.37 76.8213C283.155 83.7608 284.909 90.7125 286.634 97.6763L291.834 118.54C295.34 132.447 298.709 146.39 302.097 160.323C305.485 174.257 308.782 188.218 312.115 202.161C315.448 216.104 318.617 230.11 321.714 244.117C317.452 230.456 313.344 216.677 309.237 202.926C305.13 189.174 301.105 175.414 297.179 161.626C293.254 147.838 289.22 134.068 285.34 120.262L279.512 99.5523C277.563 92.6583 275.623 85.7552 273.738 78.8339C273.657 78.537 273.614 78.231 273.611 77.9232V77.8413C273.555 67.7923 275.48 57.8307 279.275 48.5258C283.038 39.1818 288.637 30.6874 295.741 23.5454C302.851 16.3862 311.307 10.7044 320.622 6.8272C329.938 2.94995 339.928 0.953857 350.018 0.953857C360.108 0.953857 370.099 2.94995 379.414 6.8272C388.729 10.7044 397.186 16.3862 404.296 23.5454C411.389 30.6889 416.981 39.1793 420.743 48.5167C424.505 57.8223 426.399 67.7771 426.317 77.8139V77.8777C426.313 78.1854 426.27 78.4914 426.189 78.7884C422.41 92.6128 418.448 106.401 414.587 120.207C410.725 134.013 406.737 147.792 402.748 161.58C398.759 175.368 394.715 189.111 390.69 202.88C386.665 216.65 382.485 230.42 378.223 244.117Z" fill="#231F20"/>
<path d="M321.058 244.308C316.732 230.648 312.561 216.905 308.399 203.172C304.237 189.438 300.139 175.705 296.15 161.926C292.161 148.147 288.063 134.414 284.147 120.617C280.231 106.82 276.206 93.0591 272.308 79.2438L272.7 80.1545C268.143 72.4256 262.109 65.6701 254.941 60.2739C247.782 54.9196 239.66 50.9929 231.017 48.7081C213.602 44.1108 195.075 46.5847 179.476 55.5904C163.876 64.596 152.47 79.4032 147.743 96.7839C145.403 105.412 144.744 114.409 145.803 123.285C146.891 132.19 149.723 140.793 154.136 148.603L153.526 147.801C158.541 152.919 163.534 158.062 168.507 163.229L183.451 178.71C193.469 189.001 203.323 199.392 213.231 209.765C223.14 220.138 233.011 230.593 242.847 241.002C252.683 251.412 262.454 261.948 272.144 272.54C261.598 262.804 251.198 252.96 240.743 243.106C230.288 233.252 219.943 223.344 209.652 213.363C199.361 203.381 188.979 193.482 178.734 183.446L163.352 168.429C158.216 163.426 153.098 158.408 147.998 153.375C147.776 153.152 147.58 152.905 147.415 152.637V152.564C142.32 143.914 138.978 134.346 137.579 124.405C136.172 114.433 136.775 104.279 139.355 94.5436C141.933 84.7885 146.416 75.6398 152.544 67.6243C158.673 59.6089 166.327 52.885 175.065 47.84C183.803 42.795 193.453 39.5285 203.459 38.2286C213.465 36.9287 223.629 37.6211 233.367 40.2659C243.083 42.9088 252.174 47.4665 260.105 53.6714C268 59.8575 274.603 67.5343 279.539 76.2658V76.3205C279.699 76.6061 279.819 76.9126 279.894 77.2312C283.537 91.092 286.998 105.007 290.559 118.905C294.119 132.802 297.553 146.718 301.023 160.633C304.492 174.549 307.825 188.5 311.222 202.434C314.619 216.368 317.889 230.311 321.058 244.308Z" fill="#231F20"/>
<path d="M271.634 273.059C261.052 263.345 250.546 253.579 240.115 243.762C229.697 233.908 219.224 224.1 208.878 214.173C198.533 204.246 188.114 194.384 177.832 184.393C167.551 174.403 157.169 164.503 146.932 154.458L147.734 155.078C139.923 150.665 131.321 147.831 122.416 146.736C113.539 145.68 104.542 146.342 95.915 148.685C78.5262 153.412 63.7126 164.824 54.706 180.431C45.6994 196.039 43.231 214.575 47.8391 231.995C50.1278 240.637 54.0542 248.758 59.405 255.92C64.8045 263.084 71.5594 269.118 79.2856 273.678L78.3749 273.287C85.2841 275.199 92.1811 277.154 99.066 279.151L119.748 285.08C133.536 288.996 147.297 293.049 161.057 297.074C174.818 301.099 188.56 305.27 202.303 309.332C216.045 313.394 229.751 317.665 243.439 321.991C229.442 318.831 215.481 315.516 201.547 312.201C187.613 308.886 173.652 305.489 159.746 301.992C145.839 298.495 131.906 295.107 118.018 291.537L97.1353 286.2C90.1897 284.434 83.2471 282.646 76.3076 280.836C75.9913 280.758 75.6855 280.642 75.3969 280.49L75.3331 280.445C66.5938 275.501 58.9133 268.885 52.7296 260.974C46.5227 253.042 41.9676 243.948 39.3332 234.227C36.6836 224.489 35.988 214.324 37.2863 204.316C38.5847 194.309 41.8514 184.658 46.8981 175.919C51.9448 167.18 58.6715 159.527 66.6905 153.401C74.7094 147.274 83.8619 142.796 93.62 140.224C103.376 137.637 113.553 137.037 123.546 138.458C133.485 139.857 143.052 143.196 151.704 148.284H151.759C152.032 148.445 152.283 148.641 152.506 148.867C162.596 159.058 172.541 169.376 182.559 179.63C192.577 189.885 202.531 200.221 212.484 210.539C222.438 220.858 232.32 231.267 242.228 241.631C252.136 251.994 261.899 262.522 271.634 273.059Z" fill="#231F20"/>
<path d="M243.221 322.665C229.205 319.568 215.235 316.29 201.265 313.066C187.294 309.842 173.343 306.472 159.418 303.048C145.493 299.624 131.551 296.291 117.644 292.784C103.738 289.278 89.8041 285.881 75.9159 282.311L76.9268 282.439C67.9523 282.53 59.0835 284.386 50.8262 287.903C42.6067 291.42 35.14 296.484 28.8328 302.82C16.143 315.603 9.02173 332.884 9.02173 350.896C9.02173 368.908 16.143 386.189 28.8328 398.972C35.1323 405.314 42.5929 410.384 50.808 413.907C59.0667 417.419 67.9346 419.276 76.9086 419.372L75.8977 419.499C82.8373 417.714 89.7889 415.96 96.7527 414.235L117.626 409.026C131.523 405.52 145.466 402.159 159.4 398.763C173.333 395.366 187.294 392.087 201.246 388.745C215.198 385.403 229.187 382.261 243.221 379.128C229.514 383.39 215.772 387.497 202.03 391.604C188.287 395.712 174.545 399.737 160.729 403.662C146.914 407.587 133.172 411.622 119.356 415.501L98.6561 421.33C91.753 423.279 84.8499 425.218 77.9377 427.104C77.6406 427.184 77.3347 427.227 77.027 427.231H76.9541C66.915 427.316 56.9572 425.425 47.6478 421.667C38.3083 417.9 29.8176 412.302 22.6765 405.201C15.5173 398.091 9.83555 389.635 5.9583 380.319C2.08106 371.004 0.0849609 361.014 0.0849609 350.924C0.0849609 340.834 2.08106 330.843 5.9583 321.528C9.83555 312.212 15.5173 303.756 22.6765 296.646C29.8233 289.553 38.3167 283.96 47.6569 280.199C56.9625 276.437 66.9173 274.543 76.9541 274.625H77.0179C77.3257 274.635 77.6314 274.681 77.9286 274.762C91.7621 278.541 105.541 282.503 119.356 286.364C133.172 290.225 146.941 294.214 160.72 298.203C174.499 302.192 188.26 306.236 202.02 310.261C215.781 314.286 229.514 318.412 243.221 322.665Z" fill="#231F20"/>
<path d="M243.412 379.838C229.751 384.164 216 388.335 202.276 392.497C188.551 396.659 174.8 400.757 161.03 404.746C147.26 408.735 133.509 412.833 119.712 416.749C105.914 420.665 92.1538 424.69 78.3476 428.588L79.2583 428.196C71.5272 432.753 64.7688 438.788 59.3686 445.955C54.0142 453.114 50.0876 461.236 47.8027 469.879C43.2033 487.296 45.6773 505.825 54.6852 521.425C63.6931 537.025 78.5039 548.43 95.8876 553.154C104.515 555.493 113.513 556.152 122.389 555.093C131.293 553.998 139.895 551.164 147.706 546.751L146.896 547.371C152.014 542.356 157.156 537.362 162.323 532.39L177.805 517.445C188.096 507.427 198.487 497.574 208.851 487.665C219.215 477.757 229.688 467.867 240.115 458.031C250.543 448.195 261.061 438.424 271.644 428.734C261.917 439.28 252.063 449.68 242.21 460.135C232.356 470.59 222.457 480.935 212.475 491.226C202.494 501.517 192.586 511.899 182.55 522.19L167.532 537.544C162.53 542.681 157.509 547.799 152.469 552.899C152.247 553.121 151.999 553.316 151.732 553.481H151.668C143.031 558.582 133.476 561.936 123.546 563.353C113.57 564.746 103.416 564.127 93.6837 561.532C83.9295 558.953 74.7817 554.47 66.7673 548.341C58.7528 542.211 52.03 534.558 46.9859 525.819C41.9418 517.081 38.676 507.432 37.3767 497.426C36.0774 487.421 36.7702 477.257 39.4152 467.52C42.0553 457.805 46.6099 448.714 52.8116 440.782C58.9964 432.876 66.673 426.261 75.406 421.312H75.4606C75.7494 421.156 76.0549 421.034 76.3713 420.947C90.2413 417.305 104.157 413.853 118.045 410.292C131.933 406.731 145.858 403.298 159.773 399.828C173.689 396.358 187.641 393.025 201.574 389.619C215.508 386.213 229.414 382.999 243.412 379.838Z" fill="#231F20"/>
<path d="M272.163 429.253C262.473 439.844 252.665 450.317 242.865 460.781C233.066 471.245 223.203 481.673 213.268 492.018C203.332 502.364 193.478 512.782 183.488 523.064C173.498 533.346 163.616 543.728 153.599 553.964L154.218 553.154C149.798 560.965 146.964 569.571 145.876 578.48C144.816 587.357 145.478 596.355 147.825 604.982C152.552 622.362 163.959 637.169 179.558 646.175C195.157 655.181 213.684 657.655 231.099 653.057C239.738 650.769 247.857 646.842 255.014 641.491C262.179 636.092 268.213 629.337 272.773 621.611L272.381 622.522C274.306 615.606 276.264 608.709 278.255 601.83L284.175 581.149C288.091 567.361 292.153 553.6 296.178 539.839C300.203 526.079 304.374 512.336 308.427 498.594C312.479 484.851 316.769 471.145 321.095 457.457C317.934 471.455 314.62 485.416 311.295 499.349C307.971 513.283 304.584 527.244 301.096 541.151C297.608 555.057 294.211 568.991 290.641 582.879L285.331 603.725C283.577 610.67 281.792 617.613 279.976 624.552C279.895 624.869 279.776 625.175 279.621 625.463V625.527C274.676 634.263 268.06 641.94 260.151 648.121C252.22 654.333 243.126 658.891 233.403 661.527C223.666 664.172 213.501 664.864 203.494 663.563C193.488 662.263 183.838 658.995 175.099 653.949C166.361 648.903 158.707 642.179 152.579 634.162C146.451 626.146 141.969 616.996 139.392 607.24C136.824 597.506 136.223 587.357 137.625 577.387C139.024 567.447 142.366 557.879 147.461 549.229V549.174C147.627 548.899 147.826 548.645 148.053 548.418C158.243 538.337 168.562 528.383 178.807 518.365C189.052 508.347 199.398 498.402 209.716 488.448C220.034 478.494 230.444 468.613 240.816 458.705C251.189 448.797 261.617 438.997 272.163 429.253Z" fill="#231F20"/>
<path d="M321.768 457.676C318.672 471.691 315.393 485.662 312.16 499.632C308.927 513.602 305.576 527.554 302.143 541.524C298.709 555.494 295.385 569.391 291.879 583.298C288.373 597.204 284.985 611.138 281.406 625.026L281.543 624.015C281.634 632.989 283.491 641.858 287.007 650.116C290.528 658.332 295.599 665.793 301.942 672.091C314.727 684.781 332.009 691.903 350.023 691.903C368.036 691.903 385.319 684.781 398.103 672.091C404.439 665.788 409.506 658.328 413.03 650.116C416.55 641.86 418.407 632.99 418.494 624.015L418.63 625.026C416.809 618.086 415.054 611.135 413.366 604.171L408.157 583.298C404.651 569.4 401.291 555.458 397.894 541.524C394.497 527.59 391.209 513.629 387.876 499.632C384.543 485.634 381.365 471.691 378.268 457.676C382.539 471.382 386.647 485.124 390.745 498.867C394.843 512.609 398.877 526.379 402.812 540.167C406.746 553.955 410.762 567.725 414.651 581.54L420.479 602.24C422.434 609.143 424.359 616.049 426.253 622.959C426.332 623.256 426.378 623.562 426.389 623.869V623.951C426.474 633.99 424.584 643.948 420.825 653.258C417.035 662.607 411.409 671.102 404.278 678.238C397.167 685.397 388.711 691.079 379.396 694.956C370.08 698.833 360.09 700.83 350 700.83C339.91 700.83 329.92 698.833 320.604 694.956C311.289 691.079 302.833 685.397 295.722 678.238C288.631 671.093 283.039 662.603 279.275 653.267C275.516 643.961 273.626 634.006 273.711 623.969V623.906C273.718 623.598 273.76 623.293 273.838 622.995C277.627 609.162 281.579 595.374 285.441 581.567C289.302 567.761 293.291 553.982 297.28 540.203C301.268 526.424 305.276 512.636 309.328 498.83C313.381 485.024 317.524 471.382 321.768 457.676Z" fill="#231F20"/>
<path d="M378.942 457.484C383.259 471.145 387.43 484.896 391.592 498.621C395.753 512.345 399.852 526.097 403.84 539.866C407.829 553.636 411.927 567.388 415.843 581.185C419.759 594.982 423.794 608.733 427.637 622.549L427.245 621.638C431.816 629.357 437.856 636.105 445.022 641.5C452.184 646.855 460.31 650.782 468.955 653.066C486.371 657.663 504.898 655.188 520.496 646.18C536.093 637.172 547.497 622.363 552.221 604.981C554.563 596.354 555.225 587.357 554.17 578.48C553.075 569.576 550.24 560.973 545.828 553.162L546.447 553.973C541.42 548.855 536.423 543.712 531.457 538.546L516.512 523.064C506.494 512.773 496.641 502.382 486.732 492.018C476.824 481.654 466.997 471.2 457.144 460.781C447.29 450.363 437.536 439.835 427.856 429.244C438.392 438.979 448.802 448.833 459.247 458.687C469.693 468.54 480.048 478.44 490.348 488.421C500.648 498.402 511.021 508.311 521.257 518.346L536.657 533.355C541.805 538.358 546.926 543.379 552.02 548.418C552.242 548.638 552.435 548.886 552.594 549.155V549.219C557.687 557.873 561.029 567.444 562.43 577.387C563.848 587.358 563.253 597.512 560.681 607.249C558.103 617.004 553.62 626.153 547.492 634.168C541.363 642.184 533.709 648.907 524.971 653.953C516.233 658.998 506.583 662.264 496.577 663.564C486.571 664.864 476.407 664.171 466.67 661.527C456.951 658.889 447.859 654.331 439.931 648.121C432.011 641.947 425.386 634.272 420.433 625.536V625.481C420.281 625.192 420.161 624.887 420.078 624.57C416.435 610.7 412.975 596.785 409.414 582.897C405.853 569.009 402.42 555.084 398.959 541.169C395.498 527.253 392.147 513.301 388.75 499.368C385.353 485.434 382.102 471.509 378.942 457.484Z" fill="#231F20"/>
<path d="M428.356 428.706C438.939 438.396 449.412 448.195 459.885 458.004C470.358 467.812 480.767 477.666 491.113 487.601C501.458 497.537 511.877 507.391 522.168 517.381C532.458 527.372 542.822 537.271 553.059 547.307L552.257 546.688C560.067 551.11 568.674 553.945 577.584 555.03C586.461 556.089 595.459 555.428 604.085 553.081C621.466 548.353 636.273 536.947 645.278 521.348C654.284 505.749 656.758 487.222 652.161 469.806C649.869 461.167 645.939 453.049 640.586 445.891C635.19 438.724 628.434 432.689 620.705 428.133L621.616 428.524C614.713 426.6 607.816 424.642 600.925 422.65L580.252 416.731C566.455 412.815 552.703 408.753 538.934 404.728C525.164 400.702 511.44 396.531 497.688 392.479C483.936 388.426 470.239 384.137 456.561 379.811C470.558 382.971 484.51 386.286 498.453 389.61C512.396 392.934 526.339 396.322 540.245 399.81C554.151 403.298 568.094 406.695 581.982 410.265L602.819 415.574C609.777 417.329 616.722 419.114 623.656 420.929C623.959 421.008 624.25 421.127 624.521 421.284H624.594C633.336 426.251 641.016 432.889 647.197 440.819C653.403 448.752 657.957 457.846 660.594 467.566C663.239 477.303 663.931 487.467 662.631 497.473C661.331 507.479 658.065 517.129 653.02 525.868C647.975 534.606 641.251 542.26 633.235 548.388C625.22 554.517 616.071 558.999 606.316 561.578C596.579 564.147 586.426 564.744 576.454 563.335C566.524 561.925 556.968 558.574 548.332 553.472H548.286C548.01 553.308 547.756 553.109 547.531 552.88C537.449 542.69 527.495 532.371 517.477 522.126C507.46 511.881 497.497 501.562 487.534 491.226C477.571 480.89 467.708 470.498 457.772 460.126C447.836 449.753 438.092 439.28 428.356 428.706Z" fill="#231F20"/>
<path d="M456.779 379.128C470.786 382.224 484.756 385.503 498.726 388.736C512.696 391.969 526.648 395.32 540.573 398.753C554.497 402.187 568.449 405.511 582.356 409.017C596.262 412.523 610.187 415.911 624.075 419.481L623.073 419.353C632.047 419.262 640.916 417.405 649.174 413.889C657.39 410.368 664.851 405.297 671.149 398.954C683.826 386.163 690.938 368.882 690.938 350.873C690.938 332.864 683.826 315.584 671.149 302.793C664.843 296.457 657.38 291.39 649.165 287.867C640.912 284.345 632.045 282.488 623.073 282.403L624.075 282.266C617.135 284.087 610.184 285.842 603.22 287.53L582.356 292.739C568.449 296.245 554.506 299.606 540.573 303.003C526.639 306.399 512.678 309.687 498.726 313.02C484.774 316.353 470.786 319.532 456.779 322.628C470.44 318.357 484.219 314.25 497.97 310.152C511.722 306.053 525.473 302.019 539.27 298.085C553.068 294.151 566.828 290.134 580.634 286.246L601.344 280.417C608.235 278.493 615.141 276.595 622.062 274.725C622.359 274.641 622.665 274.596 622.973 274.589H623.055C633.091 274.504 643.046 276.394 652.352 280.153C661.704 283.928 670.204 289.539 677.351 296.655C684.516 303.761 690.204 312.217 694.085 321.532C697.967 330.848 699.965 340.841 699.965 350.933C699.965 361.025 697.967 371.017 694.085 380.333C690.204 389.649 684.516 398.104 677.351 405.21C670.208 412.306 661.717 417.901 652.379 421.667C643.073 425.425 633.118 427.316 623.082 427.231H623.018C622.711 427.223 622.406 427.18 622.108 427.104C608.274 423.315 594.495 419.363 580.689 415.501C566.883 411.64 553.104 407.651 539.316 403.662C525.528 399.673 511.786 395.63 498.016 391.604C484.246 387.579 470.522 383.39 456.779 379.128Z" fill="#231F20"/>
<path d="M456.588 321.954C470.249 317.628 483.991 313.467 497.725 309.305C511.458 305.143 525.191 301.045 538.97 297.056C552.749 293.067 566.483 288.969 580.28 285.053C594.077 281.137 607.837 277.102 621.653 273.259L620.742 273.651C628.469 269.087 635.223 263.051 640.623 255.883C645.965 248.734 649.882 240.624 652.161 231.995C656.756 214.581 654.28 196.057 645.275 180.46C636.27 164.863 621.464 153.457 604.085 148.73C595.458 146.388 586.461 145.726 577.584 146.781C568.677 147.877 560.072 150.712 552.257 155.123L553.068 154.504C547.95 159.531 542.807 164.528 537.641 169.494L522.159 184.439C511.877 194.456 501.486 204.31 491.113 214.209C480.74 224.109 470.294 233.944 459.876 243.807C449.458 253.67 438.93 263.415 428.348 273.095C438.062 262.561 447.873 252.098 457.781 241.703C467.69 231.331 477.544 220.903 487.525 210.603C497.506 200.303 507.405 189.93 517.441 179.694L532.45 164.258C537.452 159.115 542.47 153.994 547.504 148.894C547.724 148.672 547.972 148.479 548.241 148.32L548.314 148.275C556.965 143.184 566.533 139.845 576.473 138.448C586.445 137.037 596.599 137.638 606.335 140.215C616.09 142.793 625.239 147.276 633.254 153.404C641.269 159.533 647.993 167.187 653.038 175.925C658.083 184.663 661.35 194.313 662.65 204.319C663.95 214.325 663.257 224.489 660.612 234.227C657.967 243.944 653.406 253.035 647.198 260.965C641.017 268.875 633.339 275.491 624.603 280.435H624.549C624.261 280.592 623.955 280.711 623.638 280.791C609.768 284.433 595.853 287.894 581.964 291.455C568.076 295.016 554.152 298.449 540.236 301.91C526.321 305.37 512.414 308.758 498.49 312.137C484.565 315.516 470.586 318.794 456.588 321.954Z" fill="#231F20"/>
<path d="M427.837 272.54C437.518 261.957 447.326 251.484 457.135 241.011C466.943 230.538 476.797 220.12 486.723 209.783C496.65 199.447 506.513 189.019 516.503 178.728C526.493 168.438 536.393 158.074 546.438 147.838L545.818 148.639C550.233 140.825 553.067 132.22 554.161 123.312C555.216 114.435 554.554 105.438 552.212 96.811C547.484 79.4303 536.078 64.6232 520.479 55.6175C504.88 46.6118 486.353 44.138 468.937 48.7352C460.299 51.0282 452.18 54.9576 445.022 60.3102C437.854 65.7064 431.82 72.4619 427.264 80.1908L427.655 79.2801C425.731 86.1832 423.776 93.0802 421.79 99.9712L415.88 120.617C411.964 134.414 407.911 148.165 403.886 161.935C399.861 175.705 395.69 189.429 391.628 203.181C387.566 216.932 383.295 230.629 378.969 244.308C382.129 230.31 385.444 216.359 388.759 202.416C392.074 188.473 395.471 174.53 398.968 160.624C402.465 146.717 405.862 132.729 409.396 118.868L414.696 98.0223C416.451 91.0767 418.239 84.1341 420.06 77.1946C420.14 76.8931 420.256 76.6026 420.406 76.3294V76.2565C425.352 67.5215 431.968 59.8443 439.877 53.6621C447.808 47.4552 456.903 42.9001 466.624 40.2657C476.364 37.614 486.533 36.9164 496.544 38.213C506.555 39.5096 516.211 42.7747 524.954 47.8202C533.698 52.8658 541.356 59.5919 547.488 67.611C553.619 75.63 558.103 84.7833 560.681 94.5434C563.258 104.28 563.859 114.433 562.448 124.405C561.045 134.344 557.707 143.911 552.621 152.564V152.61C552.461 152.886 552.265 153.14 552.039 153.365C541.848 163.447 531.53 173.401 521.275 183.419C511.021 193.436 500.684 203.381 490.366 213.344C480.048 223.307 469.611 233.188 459.229 243.097C448.847 253.005 438.374 262.804 427.837 272.54Z" fill="#231F20"/>
<path d="M350 509.076C437.36 509.076 508.18 438.256 508.18 350.896C508.18 263.536 437.36 192.717 350 192.717C262.64 192.717 191.821 263.536 191.821 350.896C191.821 438.256 262.64 509.076 350 509.076Z" fill="#F8A33E" stroke="#F8A33E" stroke-miterlimit="10"/>
<path d="M350 509.076C437.36 509.076 508.18 438.256 508.18 350.896C508.18 263.536 437.36 192.717 350 192.717C262.64 192.717 191.821 263.536 191.821 350.896C191.821 438.256 262.64 509.076 350 509.076Z" stroke="#F8A33E" stroke-miterlimit="10"/>
<path d="M433.83 216.75C456.702 246.064 468.516 282.499 467.199 319.656C465.882 356.814 451.517 392.32 426.627 419.942C401.738 447.563 367.913 465.533 331.093 470.699C294.272 475.864 256.809 467.893 225.28 448.186C239.49 466.4 257.518 481.28 278.096 491.78C298.673 502.28 321.301 508.145 344.388 508.964C367.475 509.782 390.461 505.534 411.73 496.517C432.999 487.5 452.035 473.934 467.5 456.772C482.964 439.611 494.482 419.27 501.244 397.18C508.005 375.09 509.846 351.787 506.637 328.91C503.428 306.032 495.246 284.135 482.668 264.758C470.09 245.381 453.42 228.995 433.83 216.75V216.75Z" fill="#F68621"/>
<path d="M191.848 350.896C190.915 329.965 194.31 309.066 201.82 289.506C211.44 264.693 227.147 242.698 247.495 225.545C267.843 208.393 292.179 196.634 318.262 191.351C339.206 187.119 360.785 187.119 381.729 191.351C392.171 193.461 402.374 196.619 412.182 200.777C421.965 204.947 431.314 210.069 440.095 216.067C442.281 217.579 444.394 219.173 446.552 220.721C448.711 222.269 450.705 224.018 452.763 225.684C454.821 227.351 456.716 229.218 458.692 230.975L464.356 236.549C479.099 251.74 490.617 269.757 498.216 289.515C505.72 309.076 509.109 329.975 508.17 350.905C507.254 330.294 502.475 310.038 494.082 291.191C489.945 281.875 484.906 272.986 479.037 264.653C473.214 256.342 466.615 248.603 459.329 241.539L453.738 236.403C451.798 234.791 449.876 233.152 447.918 231.549C445.96 229.946 443.92 228.462 441.889 226.996C439.859 225.529 437.764 224.09 435.651 222.697C427.208 217.179 418.243 212.503 408.886 208.736C371.108 193.479 328.883 193.479 291.105 208.736C281.742 212.501 272.774 217.18 264.33 222.706C262.227 224.09 260.187 225.566 258.101 226.996C256.016 228.425 254.094 230.074 252.072 231.549C250.051 233.024 248.193 234.782 246.244 236.403L240.652 241.539C233.381 248.611 226.798 256.356 220.99 264.671C215.109 272.999 210.055 281.881 205.9 291.191C197.526 310.04 192.759 330.291 191.848 350.896V350.896Z" fill="#231F20"/>
<path d="M508.17 350.896C509.105 371.836 505.714 392.743 498.207 412.314C494.407 422.139 489.645 431.565 483.991 440.454C478.292 449.368 471.711 457.685 464.347 465.28C442.009 488.351 413.204 504.109 381.729 510.478C360.785 514.716 339.205 514.716 318.262 510.478C307.822 508.364 297.62 505.209 287.808 501.061C278.028 496.889 268.681 491.765 259.904 485.762C257.719 484.259 255.597 482.656 253.448 481.108C251.298 479.56 249.295 477.811 247.227 476.145C245.16 474.478 243.275 472.62 241.299 470.854L235.634 465.289C220.897 450.091 209.383 432.072 201.784 412.314C194.279 392.744 190.896 371.834 191.848 350.896C192.769 371.498 197.548 391.744 205.936 410.583C210.079 419.895 215.121 428.78 220.99 437.112C226.813 445.426 233.412 453.168 240.698 460.235L246.289 465.362C248.238 466.983 250.16 468.622 252.118 470.216C254.076 471.81 256.107 473.312 258.147 474.77C260.187 476.227 262.272 477.684 264.376 479.068C272.809 484.599 281.764 489.287 291.114 493.066C328.888 508.329 371.112 508.329 408.886 493.066C418.245 489.294 427.213 484.615 435.66 479.095C437.764 477.702 439.813 476.227 441.899 474.797C443.984 473.367 445.897 471.719 447.927 470.243C449.958 468.768 451.807 467.01 453.756 465.398L459.338 460.262C466.622 453.193 473.221 445.451 479.046 437.139C484.916 428.806 489.955 419.918 494.091 410.602C502.484 391.758 507.26 371.504 508.17 350.896V350.896Z" fill="#231F20"/>
<path d="M297.425 327.391C312.575 327.391 324.856 315.11 324.856 299.961C324.856 284.811 312.575 272.531 297.425 272.531C282.276 272.531 269.995 284.811 269.995 299.961C269.995 315.11 282.276 327.391 297.425 327.391Z" fill="#070B0C"/>
<path d="M290.112 304.87C297.174 304.87 302.899 299.145 302.899 292.083C302.899 285.022 297.174 279.297 290.112 279.297C283.051 279.297 277.326 285.022 277.326 292.083C277.326 299.145 283.051 304.87 290.112 304.87Z" fill="white"/>
<path d="M402.575 327.391C417.724 327.391 430.005 315.11 430.005 299.961C430.005 284.811 417.724 272.531 402.575 272.531C387.425 272.531 375.145 284.811 375.145 299.961C375.145 315.11 387.425 327.391 402.575 327.391Z" fill="#070B0C"/>
<path d="M395.262 304.87C402.323 304.87 408.048 299.145 408.048 292.083C408.048 285.022 402.323 279.297 395.262 279.297C388.2 279.297 382.476 285.022 382.476 292.083C382.476 299.145 388.2 304.87 395.262 304.87Z" fill="white"/>
<path d="M267.636 262.959C267.636 262.959 287.672 241.503 314.082 259.389" stroke="#231F20" stroke-width="4.61" stroke-miterlimit="10" stroke-linecap="round"/>
<path d="M432.355 262.959C432.355 262.959 412.319 241.503 385.863 259.389" stroke="#231F20" stroke-width="4.61" stroke-miterlimit="10" stroke-linecap="round"/>
<path d="M334.746 325.169C334.746 325.169 335.483 338.192 348.807 338.192C362.13 338.192 361.802 325.169 361.802 325.169" stroke="#231F20" stroke-width="4.61" stroke-miterlimit="10" stroke-linecap="round"/>
</g>
<defs>
<clipPath id="clip0_4625_368">
<rect width="700" height="714.835" fill="white" transform="translate(0 0.89624)"/>
</clipPath>
</defs>
</svg>
