<svg width="439" height="439" viewBox="0 0 439 439" fill="none" xmlns="http://www.w3.org/2000/svg">
<g clip-path="url(#clip0_2056_431)">
<path d="M241.958 137.488H197.036L173.628 49.2272C173.628 23.8952 194.168 3.35547 219.5 3.35547C244.832 3.35547 265.372 23.8952 265.372 49.2272L241.958 137.488Z" fill="#FAF28C"/>
<path d="M241.958 137.487L219.792 138.346C212.296 138.651 204.684 138.864 197.042 139.101L195.843 139.138L195.483 137.902L189.095 115.98C186.946 108.678 184.912 101.341 182.829 94.0271C180.759 86.7015 178.652 79.3881 176.649 72.0503L170.571 50.0431L170.468 49.6777L170.462 49.2271C170.389 42.8149 171.625 36.3662 174.067 30.4046C176.496 24.443 180.132 18.9686 184.687 14.4076C189.236 9.85274 194.68 6.16863 200.653 3.71458C206.615 1.24836 213.07 -0.00606738 219.506 2.20639e-05C225.943 0.0304693 232.379 1.33361 238.31 3.83028C244.248 6.32695 249.637 10.0415 254.125 14.6086C258.613 19.1818 262.187 24.6318 264.568 30.5629C266.973 36.4819 268.082 42.8941 267.996 49.2332L267.99 49.6168L267.911 49.903C265.786 57.3443 263.716 64.8039 261.529 72.1904L255.038 94.2707L248.492 116.059L241.958 137.487ZM241.958 137.487L247.134 114.786L252.292 92.4438L257.504 70.394C259.222 63.0684 261.054 55.8158 262.833 48.5511L262.747 49.221C262.559 37.8764 257.803 26.7997 249.746 18.9686C241.733 11.1072 230.656 6.60098 219.494 6.7045C213.916 6.71668 208.369 7.81887 203.235 9.96235C198.108 12.0997 193.382 15.2297 189.443 19.1635C185.503 23.0973 182.324 27.7922 180.162 32.9256C178.001 38.059 176.874 43.6187 176.795 49.2149L176.691 48.3989L182.318 70.5219C184.218 77.8901 186.008 85.2887 187.841 92.6752C189.656 100.068 191.525 107.442 193.279 114.853L198.595 137.061L197.036 135.862C204.362 136.099 211.724 136.312 219.202 136.617L241.958 137.487Z" fill="black"/>
<path d="M197.943 137.244L159.038 159.702L94.6359 94.9713C81.9699 73.0311 89.4843 44.977 111.425 32.311C133.365 19.6449 161.419 27.1593 174.085 49.0996L197.943 137.244Z" fill="#F68620"/>
<path d="M197.943 137.244L179.176 149.07C172.837 153.077 166.351 157.071 159.848 161.096L158.831 161.73L157.899 160.841L141.403 145.051C135.892 139.802 130.466 134.467 124.998 129.169C119.548 123.859 114.061 118.58 108.654 113.227L92.389 97.2121L92.121 96.9441L91.8957 96.5605C88.6257 91.0435 86.47 84.8383 85.6114 78.4566C84.7345 72.0749 85.1425 65.5226 86.805 59.2931C88.4674 53.0697 91.3416 47.1569 95.2815 42.0478C99.2091 36.9327 104.172 32.6153 109.75 29.4061C115.34 26.2153 121.563 24.1205 127.951 23.3228C134.339 22.5129 140.861 23.0366 147.036 24.7477C153.21 26.4649 159.026 29.4001 164.056 33.3399C169.098 37.2676 173.269 42.261 176.356 47.7963L176.545 48.1312L176.618 48.4235C178.5 55.9318 180.436 63.4279 182.239 70.9118L187.658 93.2783L192.883 115.42L197.943 137.244ZM197.943 137.244L191.081 114.993L184.376 93.0652L177.866 71.3624C175.693 64.1586 173.653 56.9609 171.558 49.7814L171.82 50.4086C165.986 40.6777 156.328 33.4617 145.44 30.7093C134.571 27.9081 122.727 29.5462 113.111 35.2155C108.289 38.0166 104.032 41.7494 100.658 46.1704C97.2849 50.5852 94.7578 55.6577 93.3146 61.0347C91.8714 66.4117 91.4634 72.0688 92.1576 77.5919C92.8518 83.1211 94.6542 88.4981 97.3884 93.3818L96.8891 92.7302L112.825 109.08C118.153 114.512 123.402 120.023 128.688 125.504C133.955 130.996 139.259 136.452 144.484 141.988L160.189 158.563L158.24 158.301C164.701 154.843 171.186 151.347 177.812 147.87L197.943 137.244Z" fill="black"/>
<path d="M159.702 159.038L137.244 197.944L49.1052 174.085C27.1649 161.419 19.6506 133.365 32.3166 111.425C44.9826 89.4845 73.0367 81.9701 94.9769 94.6362L159.702 159.038Z" fill="#FAF28C"/>
<path d="M159.702 159.038L149.362 178.664C145.879 185.308 142.255 192.006 138.638 198.747L138.072 199.801L136.824 199.496L114.646 194.071C107.247 192.28 99.879 190.374 92.4986 188.523C85.1243 186.654 77.7317 184.821 70.3756 182.884L48.2771 177.148L47.9117 177.051L47.522 176.831C41.9319 173.689 36.9629 169.396 33.0291 164.299C29.077 159.215 26.1541 153.332 24.4856 147.109C22.8171 140.891 22.3482 134.333 23.2068 127.933C24.0533 121.539 26.1907 115.316 29.4181 109.75C32.6637 104.19 37.0055 99.2641 42.1389 95.379C47.2662 91.4879 53.1791 88.6745 59.3781 87.073C65.5832 85.4776 72.0929 85.1061 78.4137 86.0013C84.7467 86.8781 90.8483 89.1191 96.2923 92.3708L96.6211 92.5657L96.8282 92.7788C102.211 98.3385 107.631 103.862 112.941 109.446L128.816 126.106L144.417 142.67L159.702 159.038ZM159.702 159.038L142.633 143.205L125.869 127.568L109.379 112.028C103.898 106.876 98.5271 101.663 93.1258 96.4934L93.6617 96.9075C83.742 91.4026 71.7701 89.9777 60.9614 93.0407C50.1465 96.0488 40.7079 103.393 35.2152 113.105C32.4384 117.94 30.6177 123.299 29.9113 128.816C29.1988 134.327 29.5459 139.984 30.983 145.361C32.4201 150.738 34.8986 155.841 38.2599 160.28C41.6274 164.719 45.8778 168.477 50.6824 171.339L49.9334 171.028L71.9102 177.221C79.2419 179.261 86.5431 181.405 93.8565 183.511C101.164 185.637 108.489 187.707 115.779 189.893L137.67 196.397L135.855 197.146C139.722 190.916 143.589 184.65 147.59 178.323L159.702 159.038Z" fill="black"/>
<path d="M137.487 197.036V241.958L49.227 265.372C23.8949 265.372 3.35522 244.832 3.35522 219.5C3.35522 194.168 23.8949 173.628 49.227 173.628L137.487 197.036Z" fill="#F68620"/>
<path d="M137.487 197.036L138.346 219.202C138.651 226.698 138.864 234.31 139.101 241.952L139.138 243.151L137.902 243.511L115.98 249.899C108.678 252.048 101.341 254.082 94.0271 256.165C86.7015 258.235 79.3881 260.342 72.0503 262.345L50.0431 268.423L49.6777 268.526L49.2271 268.532C42.8149 268.605 36.3662 267.369 30.4046 264.927C24.443 262.498 18.9686 258.862 14.4076 254.307C9.85274 249.759 6.16863 244.315 3.71458 238.341C1.24836 232.379 -0.00606738 225.924 2.20639e-05 219.488C0.0304693 213.051 1.33361 206.615 3.83028 200.684C6.32695 194.747 10.0415 189.357 14.6086 184.869C19.1818 180.382 24.6318 176.807 30.5629 174.426C36.4819 172.021 42.8941 170.912 49.2332 170.998L49.6168 171.004L49.903 171.083C57.3443 173.208 64.8039 175.279 72.1904 177.465L94.2707 183.956L116.059 190.502L137.487 197.036ZM137.487 197.036L114.786 191.86L92.4438 186.702L70.394 181.49C63.0684 179.773 55.8158 177.94 48.5511 176.162L49.221 176.247C37.8764 176.436 26.7997 181.191 18.9686 189.248C11.1072 197.261 6.60098 208.338 6.7045 219.5C6.71668 225.072 7.81887 230.626 9.96235 235.759C12.0997 240.886 15.2297 245.612 19.1635 249.551C23.0973 253.491 27.7922 256.67 32.9256 258.832C38.059 260.994 43.6187 262.12 49.2149 262.199L48.405 262.303L70.5279 256.676C77.8962 254.776 85.2948 252.986 92.6813 251.153C100.074 249.338 107.448 247.469 114.859 245.715L137.067 240.399L135.868 241.958C136.105 234.632 136.318 227.27 136.623 219.792L137.487 197.036Z" fill="black"/>
<path d="M137.244 241.057L159.702 279.962L94.9708 344.358C73.0306 357.024 44.9765 349.51 32.3105 327.569C19.6445 305.629 27.1588 277.575 49.0991 264.909L137.244 241.057Z" fill="#FAF28C"/>
<path d="M137.244 241.057L149.07 259.824C153.076 266.163 157.071 272.649 161.096 279.152L161.729 280.169L160.84 281.101L145.05 297.597C139.801 303.108 134.467 308.534 129.169 314.002C123.859 319.452 118.58 324.939 113.227 330.346L97.2118 346.611L96.9439 346.879L96.5603 347.104C91.0432 350.374 84.8381 352.53 78.4564 353.389C72.0746 354.265 65.5224 353.857 59.2929 352.195C53.0695 350.533 47.1566 347.658 42.0476 343.718C36.9325 339.791 32.615 334.828 29.4059 329.25C26.215 323.66 24.1203 317.436 23.3226 311.049C22.5127 304.661 23.0363 298.139 24.7475 291.964C26.4647 285.79 29.3998 279.974 33.3397 274.944C37.2674 269.902 42.2607 265.731 47.796 262.644L48.1309 262.455L48.4232 262.382C55.9315 260.5 63.4276 258.564 70.9115 256.761L93.278 251.342L115.419 246.117L137.244 241.057ZM137.244 241.057L114.993 247.919L93.0649 254.624L71.3622 261.134C64.1583 263.307 56.9606 265.347 49.7812 267.442L50.4084 267.18C40.6775 273.014 33.4615 282.672 30.709 293.56C27.9079 304.429 29.546 316.273 35.2152 325.889C38.0164 330.711 41.7492 334.968 46.1701 338.342C50.585 341.715 55.6575 344.242 61.0345 345.685C66.4114 347.129 72.0685 347.537 77.5917 346.842C83.1209 346.148 88.4978 344.346 93.3816 341.612L92.73 342.111L109.08 326.175C114.512 320.847 120.023 315.597 125.503 310.312C130.996 305.044 136.452 299.741 141.987 294.516L158.563 278.811L158.301 280.76C154.842 274.299 151.347 267.814 147.87 261.188L137.244 241.057Z" fill="black"/>
<path d="M159.038 279.292L197.944 301.75L174.085 389.888C161.419 411.829 133.365 419.343 111.425 406.677C89.4845 394.011 81.9701 365.957 94.6362 344.017L159.038 279.292Z" fill="#F68620"/>
<path d="M159.038 279.292L178.664 289.632C185.308 293.115 192.006 296.738 198.747 300.355L199.801 300.922L199.496 302.17L194.071 324.348C192.28 331.746 190.374 339.115 188.523 346.495C186.654 353.869 184.821 361.262 182.884 368.618L177.148 390.717L177.051 391.082L176.831 391.472C173.689 397.062 169.396 402.031 164.299 405.965C159.215 409.917 153.332 412.84 147.109 414.508C140.891 416.177 134.333 416.645 127.933 415.787C121.539 414.94 115.316 412.803 109.75 409.576C104.19 406.33 99.2641 401.988 95.379 396.855C91.4879 391.727 88.6745 385.815 87.073 379.616C85.4776 373.41 85.1061 366.901 86.0013 360.58C86.8781 354.247 89.1191 348.145 92.3708 342.701L92.5657 342.373L92.7788 342.165C98.3385 336.782 103.862 331.363 109.446 326.053L126.106 310.178L142.67 294.576L159.038 279.292ZM159.038 279.292L143.205 296.361L127.568 313.125L112.028 329.615C106.876 335.096 101.663 340.467 96.4934 345.868L96.9075 345.332C91.4026 355.252 89.9777 367.224 93.0407 378.032C96.0488 388.847 103.393 398.286 113.105 403.778C117.94 406.555 123.299 408.376 128.816 409.082C134.327 409.795 139.984 409.448 145.361 408.011C150.738 406.574 155.841 404.095 160.28 400.734C164.719 397.366 168.477 393.116 171.339 388.311L171.022 389.066L177.215 367.09C179.255 359.758 181.405 352.457 183.505 345.143C185.631 337.836 187.701 330.51 189.887 323.221L196.391 301.33L197.14 303.144C190.91 299.278 184.644 295.411 178.317 291.41L159.038 279.292Z" fill="black"/>
<path d="M197.036 301.513H241.958L265.366 389.773C265.366 415.105 244.826 435.645 219.494 435.645C194.162 435.645 173.622 415.105 173.622 389.773L197.036 301.513Z" fill="#FAF28C"/>
<path d="M197.036 301.513L219.202 300.654C226.698 300.35 234.31 300.137 241.952 299.905L243.151 299.869L243.511 301.105L249.899 323.027C252.048 330.328 254.082 337.666 256.165 344.979C258.235 352.305 260.342 359.618 262.345 366.956L268.423 388.963L268.526 389.329L268.532 389.779C268.605 396.191 267.369 402.64 264.927 408.602C262.498 414.563 258.862 420.038 254.307 424.599C249.759 429.154 244.315 432.838 238.341 435.292C232.379 437.758 225.924 439.012 219.488 439.006C213.051 438.976 206.615 437.673 200.684 435.176C194.747 432.679 189.357 428.965 184.869 424.398C180.382 419.825 176.807 414.375 174.426 408.443C172.021 402.524 170.912 396.112 170.998 389.773L171.004 389.39L171.083 389.103C173.208 381.662 175.279 374.202 177.465 366.816L183.956 344.736L190.502 322.948L197.036 301.513ZM197.036 301.513L191.86 324.214L186.702 346.556L181.49 368.606C179.773 375.932 177.94 383.184 176.162 390.449L176.247 389.779C176.436 401.124 181.191 412.201 189.248 420.032C197.261 427.893 208.338 432.399 219.5 432.296C225.078 432.284 230.626 431.181 235.759 429.038C240.886 426.9 245.612 423.771 249.551 419.837C253.491 415.903 256.67 411.208 258.832 406.075C260.994 400.941 262.12 395.382 262.199 389.785L262.303 390.601L256.676 368.478C254.776 361.11 252.986 353.711 251.153 346.325C249.338 338.932 247.469 331.558 245.715 324.147L240.399 301.939L241.958 303.139C234.632 302.901 227.27 302.688 219.792 302.384L197.036 301.513Z" fill="black"/>
<path d="M241.057 301.756L279.962 279.298L344.364 344.029C357.03 365.969 349.516 394.023 327.575 406.689C305.635 419.356 277.581 411.841 264.915 389.901L241.057 301.756Z" fill="#F68620"/>
<path d="M241.057 301.756L259.824 289.93C266.163 285.924 272.649 281.929 279.152 277.904L280.169 277.271L281.101 278.16L297.597 293.949C303.108 299.199 308.534 304.533 314.002 309.831C319.452 315.141 324.939 320.42 330.346 325.773L346.611 341.788L346.879 342.056L347.104 342.44C350.374 347.957 352.53 354.162 353.389 360.544C354.265 366.925 353.857 373.478 352.195 379.707C350.533 385.93 347.658 391.843 343.718 396.952C339.791 402.068 334.828 406.385 329.25 409.594C323.66 412.785 317.436 414.88 311.049 415.677C304.661 416.487 298.139 415.964 291.964 414.253C285.79 412.535 279.974 409.6 274.944 405.66C269.902 401.733 265.731 396.739 262.644 391.21L262.455 390.875L262.382 390.583C260.5 383.075 258.564 375.578 256.761 368.095L251.342 345.728L246.117 323.587L241.057 301.756ZM241.057 301.756L247.919 324.007L254.624 345.935L261.134 367.638C263.307 374.842 265.347 382.039 267.442 389.219L267.18 388.592C273.014 398.323 282.672 405.538 293.56 408.291C304.429 411.092 316.273 409.454 325.889 403.785C330.711 400.984 334.968 397.251 338.342 392.83C341.715 388.415 344.242 383.342 345.685 377.966C347.129 372.589 347.537 366.931 346.842 361.408C346.148 355.879 344.346 350.502 341.612 345.618L342.111 346.27L326.175 329.92C320.847 324.488 315.597 318.977 310.312 313.497C305.044 308.004 299.741 302.548 294.516 297.012L278.811 280.437L280.76 280.699C274.299 284.158 267.814 287.653 261.188 291.13L241.057 301.756Z" fill="black"/>
<path d="M279.292 279.956L301.75 241.051L389.889 264.909C411.829 277.575 419.343 305.629 406.677 327.57C394.011 349.51 365.957 357.024 344.017 344.358L279.292 279.956Z" fill="#FAF28C"/>
<path d="M279.292 279.956L289.632 260.33C293.115 253.686 296.738 246.988 300.356 240.247L300.922 239.193L302.17 239.498L324.348 244.924C331.747 246.714 339.115 248.62 346.495 250.471C353.87 252.34 361.262 254.173 368.618 256.11L390.717 261.846L391.082 261.944L391.472 262.163C397.062 265.305 402.031 269.598 405.965 274.695C409.917 279.779 412.84 285.662 414.508 291.885C416.177 298.103 416.646 304.661 415.787 311.061C414.941 317.455 412.803 323.678 409.576 329.244C406.33 334.804 401.988 339.73 396.855 343.615C391.728 347.506 385.815 350.32 379.616 351.921C373.411 353.517 366.901 353.888 360.58 352.993C354.247 352.116 348.146 349.875 342.702 346.623L342.373 346.428L342.166 346.215C336.783 340.656 331.363 335.133 326.053 329.549L310.178 312.888L294.577 296.325L279.292 279.956ZM279.292 279.956L296.361 295.789L313.125 311.426L329.615 326.967C335.096 332.118 340.467 337.331 345.868 342.501L345.332 342.087C355.252 347.592 367.224 349.016 378.033 345.953C388.847 342.945 398.286 335.601 403.779 325.889C406.555 321.054 408.376 315.695 409.083 310.178C409.795 304.667 409.448 299.01 408.011 293.633C406.574 288.256 404.095 283.153 400.734 278.714C397.367 274.275 393.116 270.517 388.312 267.655L389.067 267.972L367.09 261.779C359.758 259.739 352.457 257.596 345.143 255.489C337.836 253.363 330.511 251.293 323.221 249.107L301.33 242.603L303.145 241.854C299.278 248.084 295.411 254.35 291.41 260.677L279.292 279.956Z" fill="black"/>
<path d="M301.513 241.958V197.036L389.773 173.628C415.105 173.628 435.645 194.168 435.645 219.5C435.645 244.832 415.105 265.371 389.773 265.371L301.513 241.958Z" fill="#F68620"/>
<path d="M301.513 241.958L300.654 219.792C300.349 212.296 300.136 204.684 299.905 197.042L299.868 195.842L301.105 195.483L323.027 189.095C330.328 186.946 337.659 184.912 344.979 182.829C352.305 180.759 359.618 178.652 366.956 176.648L388.963 170.571L389.328 170.468L389.779 170.462C396.191 170.388 402.64 171.625 408.601 174.067C414.563 176.496 420.037 180.132 424.598 184.687C429.153 189.235 432.837 194.679 435.292 200.653C437.758 206.615 439.012 213.069 439.006 219.506C438.976 225.942 437.672 232.379 435.176 238.31C432.679 244.247 428.965 249.636 424.397 254.124C419.824 258.612 414.374 262.187 408.443 264.568C402.524 266.973 396.112 268.081 389.773 267.996L389.389 267.99L389.103 267.911C381.662 265.786 374.202 263.715 366.816 261.529L344.735 255.038L322.947 248.492L301.513 241.958ZM301.513 241.958L324.214 247.134L346.556 252.291L368.606 257.504C375.932 259.221 383.184 261.054 390.449 262.832L389.779 262.747C401.124 262.558 412.2 257.802 420.031 249.746C427.893 241.732 432.399 230.656 432.295 219.494C432.283 213.922 431.181 208.368 429.038 203.235C426.9 198.108 423.77 193.382 419.837 189.442C415.903 185.502 411.208 182.324 406.074 180.162C400.941 178 395.381 176.874 389.785 176.795L390.595 176.691L368.472 182.318C361.104 184.218 353.705 186.008 346.319 187.841C338.926 189.655 331.552 191.525 324.141 193.279L301.933 198.595L303.132 197.036C302.895 204.361 302.682 211.724 302.377 219.201L301.513 241.958Z" fill="black"/>
<path d="M301.756 197.944L279.298 159.038L344.029 94.6362C365.969 81.9701 394.023 89.4845 406.689 111.425C419.356 133.365 411.841 161.419 389.901 174.085L301.756 197.944Z" fill="#FAF28C"/>
<path d="M301.756 197.944L289.93 179.176C285.924 172.837 281.929 166.352 277.904 159.848L277.271 158.831L278.16 157.899L293.949 141.403C299.199 135.892 304.533 130.466 309.831 124.998C315.141 119.548 320.42 114.062 325.773 108.654L341.788 92.3892L342.056 92.1213L342.44 91.896C347.957 88.6259 354.162 86.4703 360.544 85.6117C366.925 84.7348 373.478 85.1428 379.707 86.8052C385.93 88.4676 391.843 91.3418 396.952 95.2817C402.068 99.2094 406.385 104.172 409.594 109.75C412.785 115.34 414.88 121.564 415.677 127.952C416.487 134.339 415.964 140.861 414.253 147.036C412.535 153.211 409.6 159.026 405.66 164.056C401.733 169.098 396.739 173.269 391.204 176.357L390.869 176.545L390.577 176.618C383.068 178.5 375.572 180.436 368.088 182.239L345.722 187.659L323.581 192.883L301.756 197.944ZM301.756 197.944L324.007 191.081L345.935 184.376L367.638 177.867C374.842 175.693 382.039 173.653 389.219 171.558L388.592 171.82C398.323 165.986 405.538 156.328 408.291 145.44C411.092 134.571 409.454 122.727 403.785 113.112C400.984 108.289 397.251 104.032 392.83 100.659C388.415 97.2851 383.342 94.758 377.966 93.3148C372.589 91.8716 366.931 91.4636 361.408 92.1578C355.879 92.852 350.502 94.6545 345.618 97.3886L346.27 96.8893L329.92 112.825C324.488 118.154 318.977 123.403 313.497 128.688C308.004 133.956 302.548 139.26 297.012 144.484L280.437 160.189L280.699 158.24C284.158 164.701 287.653 171.187 291.13 177.812L301.756 197.944Z" fill="black"/>
<path d="M279.956 159.702L241.051 137.244L264.909 49.1054C277.575 27.1652 305.629 19.6508 327.57 32.3168C349.51 44.9829 357.024 73.0369 344.358 94.9772L279.956 159.702Z" fill="#F68620"/>
<path d="M279.956 159.702L260.33 149.362C253.686 145.879 246.988 142.256 240.247 138.639L239.193 138.072L239.498 136.824L244.924 114.646C246.714 107.247 248.62 99.8792 250.471 92.4988C252.34 85.1245 254.173 77.7319 256.11 70.3759L261.846 48.2773L261.944 47.9119L262.163 47.5222C265.305 41.9321 269.598 36.9631 274.695 33.0293C279.779 29.0773 285.662 26.1544 291.885 24.4858C298.103 22.8173 304.661 22.3485 311.061 23.2071C317.455 24.0535 323.678 26.1909 329.244 29.4183C334.804 32.664 339.73 37.0057 343.615 42.1391C347.506 47.2665 350.32 53.1793 351.921 59.3784C353.517 65.5835 353.888 72.0931 352.993 78.4139C352.116 84.747 349.875 90.8486 346.623 96.2925L346.428 96.6214L346.215 96.8284C340.656 102.211 335.133 107.631 329.549 112.941L312.888 128.816L296.325 144.417L279.956 159.702ZM279.956 159.702L295.789 142.633L311.426 125.869L326.967 109.379C332.118 103.898 337.331 98.5274 342.501 93.126L342.087 93.6619C347.592 83.7422 349.016 71.7704 345.953 60.9616C342.945 50.1468 335.601 40.7081 325.889 35.2154C321.054 32.4387 315.695 30.6179 310.178 29.9115C304.667 29.1991 299.01 29.5462 293.633 30.9833C288.256 32.4204 283.153 34.8988 278.714 38.2602C274.275 41.6276 270.517 45.8781 267.655 50.6826L267.972 49.9275L261.779 71.9043C259.739 79.236 257.59 86.5373 255.489 93.8507C253.363 101.158 251.293 108.484 249.107 115.773L242.603 137.664L241.854 135.85C248.084 139.716 254.35 143.583 260.677 147.584L279.956 159.702Z" fill="black"/>
<path d="M219.5 319.331C274.635 319.331 319.33 274.635 319.33 219.5C319.33 164.365 274.635 119.67 219.5 119.67C164.365 119.67 119.67 164.365 119.67 219.5C119.67 274.635 164.365 319.331 219.5 319.331Z" fill="#F8A33E"/>
<path d="M277.459 138.212C289.133 154.556 296.002 174.56 296.002 196.171C296.002 251.305 251.305 296.002 196.171 296.002C174.56 296.002 154.55 289.133 138.212 277.459C156.316 302.803 185.978 319.33 219.5 319.33C274.634 319.33 319.33 274.634 319.33 219.5C319.33 185.977 302.804 156.316 277.459 138.212Z" fill="#F68620"/>
<path d="M119.67 219.5C118.701 206.42 120.711 193.023 125.278 180.473C129.875 167.922 137.158 156.273 146.481 146.481C155.804 136.684 167.192 128.786 179.705 123.433C185.965 120.747 192.511 118.732 199.186 117.356C205.872 116.01 212.686 115.328 219.5 115.31C226.314 115.34 233.134 116.004 239.814 117.362C246.488 118.744 253.034 120.754 259.288 123.445C271.808 128.798 283.189 136.702 292.506 146.494C301.823 156.285 309.112 167.935 313.71 180.479C318.283 193.029 320.286 206.426 319.33 219.506C318.362 206.444 315.232 193.705 309.77 182.117C304.368 170.51 296.83 160.03 287.671 151.335C283.092 146.987 278.111 143.09 272.825 139.686C267.527 136.306 261.943 133.395 256.122 131.081C250.306 128.767 244.284 126.971 238.14 125.814C232.002 124.633 225.754 124.03 219.5 124.042C213.246 124.036 206.992 124.626 200.86 125.82C194.716 126.977 188.693 128.767 182.878 131.087C177.056 133.401 171.472 136.318 166.181 139.698C164.859 140.55 163.581 141.464 162.277 142.341C161.005 143.26 159.769 144.234 158.502 145.172L154.848 148.168L151.341 151.347C142.182 160.043 134.644 170.523 129.242 182.123C123.774 193.705 120.644 206.438 119.67 219.5Z" fill="black"/>
<path d="M319.33 219.5C320.298 232.58 318.289 245.977 313.722 258.527C309.124 271.078 301.841 282.727 292.518 292.519C283.195 302.317 271.808 310.215 259.294 315.567C253.034 318.253 246.488 320.268 239.814 321.645C233.128 322.99 226.314 323.672 219.5 323.691C212.686 323.66 205.866 322.996 199.186 321.638C192.511 320.256 185.965 318.247 179.711 315.555C167.192 310.202 155.81 302.298 146.494 292.507C137.177 282.715 129.888 271.066 125.29 258.521C120.717 245.971 118.714 232.574 119.67 219.494C120.638 232.556 123.768 245.295 129.23 256.883C134.631 268.49 142.17 278.97 151.329 287.665C155.908 292.013 160.889 295.911 166.175 299.315C171.472 302.694 177.056 305.605 182.878 307.919C188.693 310.233 194.716 312.029 200.86 313.186C206.998 314.368 213.246 314.97 219.5 314.958C225.754 314.964 232.008 314.374 238.14 313.18C244.284 312.023 250.306 310.233 256.122 307.913C261.943 305.599 267.527 302.682 272.819 299.302C274.14 298.45 275.419 297.536 276.722 296.66C277.995 295.74 279.231 294.766 280.498 293.828L284.151 290.832L287.659 287.653C296.818 278.958 304.356 268.478 309.758 256.877C315.226 245.295 318.35 232.562 319.33 219.5Z" fill="black"/>
<path d="M170.194 164.811C170.194 164.811 182.683 151.432 199.186 162.582" stroke="black" stroke-width="4.3033" stroke-miterlimit="10" stroke-linecap="round"/>
<path d="M272.923 164.811C272.923 164.811 260.433 151.432 243.931 162.582" stroke="black" stroke-width="4.3033" stroke-miterlimit="10" stroke-linecap="round"/>
<path d="M189.187 206.706C198.539 206.706 206.121 199.124 206.121 189.771C206.121 180.418 198.539 172.836 189.187 172.836C179.834 172.836 172.252 180.418 172.252 189.771C172.252 199.124 179.834 206.706 189.187 206.706Z" fill="#F8F9E3"/>
<path d="M254.137 206.706C263.489 206.706 271.071 199.124 271.071 189.771C271.071 180.418 263.489 172.836 254.137 172.836C244.784 172.836 237.202 180.418 237.202 189.771C237.202 199.124 244.784 206.706 254.137 206.706Z" fill="#F8F9E3"/>
<path d="M172.252 189.771C172.063 187.555 172.386 185.271 173.147 183.128C173.92 180.99 175.144 178.987 176.728 177.318C178.305 175.632 180.26 174.298 182.385 173.366C184.522 172.453 186.854 171.984 189.181 171.966C191.507 171.984 193.839 172.447 195.976 173.366C198.102 174.298 200.056 175.632 201.633 177.318C203.223 178.993 204.441 180.99 205.214 183.128C205.975 185.271 206.298 187.549 206.109 189.771C205.756 185.332 203.783 181.197 200.671 178.281C197.572 175.358 193.394 173.689 189.181 173.713C184.967 173.689 180.789 175.358 177.69 178.281C174.584 181.197 172.611 185.332 172.252 189.771Z" fill="black"/>
<path d="M206.115 189.771C206.304 191.988 205.981 194.272 205.22 196.415C204.447 198.552 203.223 200.556 201.633 202.224C200.056 203.911 198.102 205.245 195.976 206.176C193.839 207.09 191.507 207.559 189.181 207.577C186.854 207.559 184.522 207.096 182.385 206.176C180.26 205.245 178.305 203.911 176.728 202.224C175.138 200.55 173.92 198.552 173.147 196.415C172.386 194.272 172.063 191.994 172.252 189.771C172.605 194.211 174.578 198.345 177.69 201.262C180.789 204.185 184.967 205.854 189.181 205.829C193.394 205.854 197.572 204.185 200.671 201.262C203.783 198.339 205.762 194.205 206.115 189.771Z" fill="black"/>
<path d="M212.047 203.588C212.047 203.588 212.503 211.712 220.815 211.712C229.128 211.712 228.914 203.588 228.914 203.588" stroke="black" stroke-width="4.3033" stroke-miterlimit="10" stroke-linecap="round"/>
<path d="M192.073 205.506C198.208 205.506 203.18 200.533 203.18 194.399C203.18 188.265 198.208 183.292 192.073 183.292C185.939 183.292 180.966 188.265 180.966 194.399C180.966 200.533 185.939 205.506 192.073 205.506Z" fill="#040809"/>
<path d="M237.202 189.771C237.013 187.555 237.336 185.271 238.097 183.128C238.871 180.99 240.095 178.987 241.684 177.318C243.261 175.632 245.216 174.298 247.341 173.366C249.478 172.453 251.811 171.984 254.137 171.966C256.463 171.984 258.795 172.447 260.933 173.366C263.058 174.298 265.013 175.632 266.59 177.318C268.179 178.993 269.397 180.99 270.17 183.128C270.932 185.271 271.254 187.549 271.066 189.771C270.712 185.332 268.739 181.197 265.628 178.281C262.528 175.358 258.351 173.689 254.137 173.713C249.923 173.689 245.746 175.358 242.646 178.281C239.534 181.197 237.561 185.332 237.202 189.771Z" fill="black"/>
<path d="M271.065 189.771C271.254 191.988 270.931 194.272 270.17 196.415C269.397 198.552 268.173 200.556 266.59 202.224C265.012 203.911 263.058 205.245 260.932 206.176C258.795 207.09 256.463 207.559 254.137 207.577C251.81 207.559 249.478 207.096 247.341 206.176C245.216 205.245 243.261 203.911 241.684 202.224C240.094 200.55 238.877 198.552 238.103 196.415C237.342 194.272 237.019 191.994 237.208 189.771C237.561 194.211 239.534 198.345 242.646 201.262C245.745 204.185 249.923 205.854 254.137 205.829C258.351 205.854 262.528 204.185 265.627 201.262C268.739 198.339 270.712 194.205 271.065 189.771Z" fill="black"/>
<path d="M258.424 205.506C264.558 205.506 269.531 200.533 269.531 194.399C269.531 188.265 264.558 183.292 258.424 183.292C252.289 183.292 247.317 188.265 247.317 194.399C247.317 200.533 252.289 205.506 258.424 205.506Z" fill="#040809"/>
</g>
<defs>
<clipPath id="clip0_2056_431">
<rect width="439" height="439" fill="white"/>
</clipPath>
</defs>
</svg>
