<svg width="375" height="375" viewBox="0 0 375 375" fill="none" xmlns="http://www.w3.org/2000/svg">
<g clip-path="url(#clip0_2056_431)">
<path d="M204.126 126.784H170.87L153.54 61.4436C153.54 42.6898 168.746 27.4839 187.5 27.4839C206.254 27.4839 221.46 42.6898 221.46 61.4436L204.126 126.784Z" fill="#FAF28C"/>
<path d="M204.126 126.785L187.716 127.42C182.167 127.646 176.532 127.803 170.874 127.979L169.986 128.006L169.72 127.091L164.991 110.862C163.4 105.457 161.894 100.024 160.352 94.61C158.819 89.1868 157.26 83.7725 155.776 78.3402L151.277 62.0478L151.201 61.7773L151.196 61.4437C151.142 56.6967 152.057 51.9226 153.865 47.5091C155.664 43.0956 158.355 39.0428 161.727 35.6662C165.095 32.2942 169.125 29.5668 173.547 27.75C177.961 25.9242 182.739 24.9955 187.505 25C192.27 25.0226 197.035 25.9873 201.426 27.8356C205.821 29.684 209.811 32.4339 213.133 35.815C216.456 39.2006 219.102 43.2354 220.865 47.6263C222.645 52.0082 223.466 56.7553 223.403 61.4482L223.398 61.7323L223.34 61.9441C221.766 67.4531 220.234 72.9755 218.615 78.4439L213.81 94.7904L208.963 110.92L204.126 126.785ZM204.126 126.785L207.958 109.978L211.776 93.4379L215.635 77.114C216.907 71.6907 218.264 66.3215 219.58 60.9433L219.517 61.4392C219.377 53.0406 215.856 44.8403 209.892 39.0428C203.959 33.2228 195.759 29.8868 187.496 29.9635C183.366 29.9725 179.259 30.7885 175.459 32.3753C171.663 33.9577 168.165 36.2748 165.248 39.1871C162.331 42.0993 159.978 45.5751 158.378 49.3755C156.777 53.1758 155.943 57.2917 155.885 61.4347L155.808 60.8306L159.973 77.2087C161.38 82.6635 162.705 88.1409 164.062 93.6092C165.406 99.0821 166.79 104.541 168.088 110.028L172.024 126.469L170.87 125.581C176.293 125.757 181.743 125.914 187.279 126.14L204.126 126.785Z" fill="black"/>
<path d="M171.541 126.604L142.739 143.23L95.0608 95.3088C85.6838 79.066 91.2469 58.297 107.49 48.9201C123.732 39.5432 144.501 45.1062 153.878 61.349L171.541 126.604Z" fill="#F68620"/>
<path d="M171.541 126.604L157.647 135.359C152.954 138.325 148.153 141.282 143.338 144.262L142.586 144.731L141.896 144.073L129.683 132.383C125.603 128.497 121.587 124.548 117.538 120.626C113.504 116.695 109.442 112.787 105.439 108.824L93.3974 96.9676L93.199 96.7692L93.0322 96.4852C90.6113 92.4008 89.0155 87.8071 88.3798 83.0825C87.7306 78.358 88.0327 73.5073 89.2634 68.8955C90.4941 64.2882 92.622 59.9108 95.5387 56.1284C98.4465 52.3416 102.121 49.1454 106.25 46.7696C110.388 44.4073 114.996 42.8565 119.725 42.266C124.454 41.6664 129.282 42.0541 133.853 43.3209C138.425 44.5921 142.73 46.7651 146.454 49.6818C150.186 52.5896 153.274 56.2862 155.56 60.3841L155.7 60.6321L155.754 60.8485C157.147 66.407 158.58 71.9565 159.915 77.497L163.927 94.0553L167.795 110.447L171.541 126.604ZM171.541 126.604L166.461 110.131L161.497 93.8975L156.678 77.8306C155.069 72.4975 153.558 67.1689 152.008 61.8538L152.201 62.3181C147.883 55.1141 140.733 49.772 132.672 47.7343C124.625 45.6606 115.857 46.8733 108.739 51.0703C105.168 53.1441 102.017 55.9075 99.5194 59.1804C97.0219 62.4488 95.151 66.2041 94.0826 70.1848C93.0142 74.1655 92.7121 78.3535 93.226 82.4424C93.74 86.5358 95.0744 90.5164 97.0985 94.132L96.7289 93.6496L108.527 105.754C112.471 109.775 116.357 113.855 120.27 117.912C124.17 121.979 128.096 126.018 131.964 130.116L143.591 142.387L142.148 142.193C146.931 139.632 151.733 137.045 156.637 134.471L171.541 126.604Z" fill="black"/>
<path d="M143.23 142.739L126.604 171.541L61.3537 153.878C45.1109 144.501 39.5479 123.732 48.9248 107.49C58.3017 91.2469 79.0706 85.6838 95.3134 95.0608L143.23 142.739Z" fill="#FAF28C"/>
<path d="M143.23 142.739L135.575 157.268C132.997 162.187 130.314 167.146 127.637 172.136L127.217 172.916L126.293 172.691L109.875 168.674C104.397 167.348 98.9424 165.937 93.4785 164.567C88.0192 163.183 82.5463 161.826 77.1005 160.392L60.7405 156.146L60.47 156.074L60.1815 155.911C56.043 153.585 52.3644 150.407 49.4521 146.634C46.5264 142.869 44.3625 138.514 43.1272 133.907C41.892 129.304 41.5449 124.449 42.1805 119.711C42.8072 114.978 44.3895 110.37 46.7788 106.25C49.1816 102.134 52.3959 98.4868 56.1963 95.6106C59.9921 92.7299 64.3695 90.6472 68.9588 89.4615C73.5526 88.2804 78.3718 88.0054 83.0512 88.6681C87.7397 89.3173 92.2568 90.9763 96.2871 93.3836L96.5305 93.5279L96.6838 93.6856C100.669 97.8016 104.681 101.89 108.612 106.024L120.365 118.359L131.915 130.621L143.23 142.739ZM143.23 142.739L130.594 131.017L118.183 119.441L105.975 107.936C101.918 104.122 97.9416 100.263 93.9429 96.4356L94.3396 96.7422C86.9958 92.6668 78.1329 91.6119 70.1309 93.8795C62.1245 96.1065 55.1369 101.543 51.0706 108.734C49.0148 112.313 47.6669 116.28 47.144 120.365C46.6165 124.445 46.8735 128.633 47.9374 132.613C49.0013 136.594 50.8361 140.372 53.3246 143.658C55.8176 146.945 58.9643 149.726 62.5212 151.845L61.9667 151.615L78.2365 156.2C83.6643 157.71 89.0696 159.297 94.4838 160.857C99.8936 162.43 105.317 163.963 110.713 165.581L126.92 170.396L125.576 170.95C128.439 166.339 131.302 161.7 134.264 157.016L143.23 142.739Z" fill="black"/>
<path d="M126.784 170.869V204.126L61.4436 221.46C42.6898 221.46 27.4839 206.254 27.4839 187.5C27.4839 168.746 42.6898 153.54 61.4436 153.54L126.784 170.869Z" fill="#F68620"/>
<path d="M126.785 170.869L127.42 187.279C127.646 192.829 127.803 198.464 127.979 204.121L128.006 205.01L127.091 205.276L110.862 210.005C105.457 211.596 100.024 213.102 94.61 214.643C89.1868 216.176 83.7725 217.736 78.3402 219.219L62.0478 223.718L61.7773 223.795L61.4437 223.799C56.6967 223.854 51.9226 222.938 47.5091 221.131C43.0956 219.332 39.0428 216.641 35.6662 213.268C32.2942 209.901 29.5668 205.871 27.75 201.448C25.9242 197.035 24.9955 192.256 25 187.491C25.0226 182.726 25.9873 177.961 27.8356 173.57C29.684 169.174 32.4339 165.185 35.815 161.862C39.2006 158.54 43.2354 155.893 47.6263 154.131C52.0082 152.35 56.7553 151.53 61.4482 151.593L61.7323 151.597L61.9441 151.656C67.4531 153.229 72.9755 154.762 78.4439 156.38L94.7904 161.186L110.92 166.032L126.785 170.869ZM126.785 170.869L109.978 167.038L93.4379 163.219L77.114 159.36C71.6907 158.089 66.3215 156.732 60.9433 155.416L61.4392 155.479C53.0406 155.618 44.8403 159.139 39.0428 165.104C33.2228 171.036 29.8868 179.237 29.9635 187.5C29.9725 191.625 30.7885 195.736 32.3753 199.537C33.9577 203.333 36.2748 206.831 39.1871 209.748C42.0993 212.664 45.5751 215.018 49.3755 216.618C53.1758 218.218 57.2917 219.052 61.4347 219.111L60.8351 219.188L77.2132 215.022C82.668 213.616 88.1454 212.29 93.6137 210.933C99.0866 209.59 104.546 208.206 110.032 206.907L126.473 202.972L125.585 204.126C125.761 198.703 125.919 193.252 126.144 187.716L126.785 170.869Z" fill="black"/>
<path d="M126.604 203.459L143.23 232.261L95.3088 279.935C79.066 289.312 58.297 283.749 48.9201 267.506C39.5432 251.263 45.1062 230.494 61.349 221.117L126.604 203.459Z" fill="#FAF28C"/>
<path d="M126.604 203.459L135.359 217.353C138.325 222.046 141.283 226.847 144.263 231.662L144.731 232.415L144.073 233.104L132.384 245.317C128.498 249.397 124.549 253.414 120.626 257.462C116.695 261.497 112.787 265.558 108.824 269.562L96.9678 281.603L96.7695 281.801L96.4855 281.968C92.4011 284.389 87.8073 285.985 83.0828 286.62C78.3583 287.27 73.5075 286.968 68.8957 285.737C64.2884 284.506 59.911 282.378 56.1287 279.461C52.3419 276.554 49.1456 272.88 46.7698 268.75C44.4076 264.612 42.8568 260.004 42.2662 255.275C41.6666 250.546 42.0543 245.718 43.3211 241.147C44.5924 236.576 46.7653 232.27 49.6821 228.547C52.5898 224.814 56.2865 221.726 60.3844 219.44L60.6323 219.301L60.8487 219.246C66.4072 217.853 71.9567 216.42 77.4972 215.085L94.0556 211.073L110.447 207.205L126.604 203.459ZM126.604 203.459L110.132 208.54L93.8978 213.503L77.8308 218.322C72.4977 219.932 67.1691 221.442 61.854 222.993L62.3183 222.799C55.1144 227.118 49.7722 234.268 47.7346 242.328C45.6608 250.375 46.8735 259.143 51.0706 266.262C53.1443 269.832 55.9078 272.983 59.1807 275.481C62.4491 277.978 66.2044 279.849 70.185 280.918C74.1657 281.986 78.3538 282.288 82.4426 281.774C86.536 281.26 90.5167 279.926 94.1322 277.902L93.6498 278.271L105.754 266.474C109.775 262.529 113.855 258.643 117.913 254.73C121.979 250.83 126.018 246.904 130.116 243.036L142.387 231.409L142.193 232.852C139.633 228.069 137.045 223.268 134.471 218.363L126.604 203.459Z" fill="black"/>
<path d="M142.739 231.765L171.541 248.391L153.878 313.642C144.501 329.885 123.732 335.448 107.49 326.071C91.2469 316.694 85.6838 295.925 95.0608 279.682L142.739 231.765Z" fill="#F68620"/>
<path d="M142.739 231.765L157.269 239.42C162.187 241.999 167.146 244.681 172.136 247.359L172.916 247.778L172.691 248.702L168.674 265.121C167.349 270.598 165.938 276.053 164.567 281.517C163.183 286.976 161.826 292.449 160.393 297.895L156.146 314.255L156.074 314.525L155.912 314.814C153.585 318.952 150.407 322.631 146.634 325.543C142.87 328.469 138.515 330.633 133.907 331.868C129.305 333.103 124.449 333.45 119.711 332.815C114.978 332.188 110.37 330.606 106.25 328.217C102.134 325.814 98.487 322.599 95.6109 318.799C92.7302 315.003 90.6474 310.626 89.4618 306.037C88.2806 301.443 88.0056 296.624 88.6683 291.944C89.3175 287.256 90.9765 282.739 93.3838 278.708L93.5281 278.465L93.6859 278.312C97.8018 274.326 101.891 270.314 106.025 266.383L118.359 254.63L130.621 243.081L142.739 231.765ZM142.739 231.765L131.018 244.401L119.441 256.812L107.936 269.02C104.122 273.078 100.263 277.054 96.4358 281.053L96.7424 280.656C92.667 288 91.6121 296.863 93.8797 304.864C96.1067 312.871 101.544 319.858 108.734 323.925C112.313 325.981 116.281 327.328 120.365 327.851C124.445 328.379 128.633 328.122 132.614 327.058C136.594 325.994 140.372 324.159 143.658 321.671C146.945 319.178 149.726 316.031 151.845 312.474L151.611 313.033L156.196 296.763C157.706 291.336 159.297 285.93 160.853 280.516C162.426 275.106 163.959 269.683 165.577 264.287L170.392 248.08L170.946 249.423C166.334 246.561 161.696 243.698 157.012 240.736L142.739 231.765Z" fill="black"/>
<path d="M170.869 248.215H204.126L221.455 313.556C221.455 332.31 206.249 347.516 187.495 347.516C168.742 347.516 153.536 332.31 153.536 313.556L170.869 248.215Z" fill="#FAF28C"/>
<path d="M170.869 248.215L187.279 247.58C192.829 247.354 198.464 247.196 204.121 247.025L205.01 246.998L205.276 247.913L210.005 264.142C211.596 269.548 213.102 274.98 214.643 280.394C216.176 285.818 217.736 291.232 219.219 296.664L223.718 312.956L223.795 313.227L223.799 313.561C223.854 318.308 222.938 323.082 221.131 327.495C219.332 331.909 216.641 335.961 213.268 339.338C209.901 342.71 205.871 345.438 201.448 347.254C197.035 349.08 192.256 350.009 187.491 350.004C182.726 349.982 177.961 349.017 173.57 347.169C169.174 345.32 165.185 342.57 161.862 339.189C158.54 335.804 155.893 331.769 154.131 327.378C152.35 322.996 151.53 318.249 151.593 313.556L151.597 313.272L151.656 313.06C153.229 307.551 154.762 302.029 156.38 296.56L161.186 280.214L166.032 264.084L170.869 248.215ZM170.869 248.215L167.038 265.022L163.219 281.562L159.36 297.886C158.089 303.309 156.732 308.678 155.416 314.056L155.479 313.561C155.618 321.959 159.139 330.16 165.104 335.957C171.036 341.777 179.237 345.113 187.5 345.036C191.629 345.027 195.736 344.211 199.537 342.624C203.333 341.042 206.831 338.725 209.748 335.813C212.664 332.9 215.018 329.425 216.618 325.624C218.218 321.824 219.052 317.708 219.111 313.565L219.188 314.169L215.022 297.791C213.616 292.336 212.29 286.859 210.933 281.391C209.59 275.918 208.206 270.458 206.907 264.972L202.972 248.531L204.126 249.419C198.703 249.243 193.252 249.085 187.716 248.86L170.869 248.215Z" fill="black"/>
<path d="M203.459 248.396L232.261 231.77L279.939 279.691C289.316 295.934 283.753 316.703 267.51 326.08C251.267 335.457 230.499 329.893 221.122 313.651L203.459 248.396Z" fill="#F68620"/>
<path d="M203.459 248.396L217.353 239.641C222.046 236.675 226.847 233.717 231.662 230.737L232.414 230.269L233.104 230.927L245.317 242.616C249.397 246.502 253.413 250.451 257.462 254.374C261.496 258.305 265.558 262.213 269.561 266.176L281.603 278.032L281.801 278.231L281.968 278.515C284.389 282.599 285.985 287.193 286.62 291.917C287.269 296.642 286.967 301.492 285.737 306.104C284.506 310.712 282.378 315.089 279.461 318.871C276.554 322.658 272.879 325.854 268.75 328.23C264.611 330.592 260.004 332.143 255.275 332.734C250.546 333.333 245.718 332.946 241.147 331.679C236.575 330.408 232.27 328.235 228.546 325.318C224.814 322.41 221.726 318.714 219.44 314.62L219.3 314.372L219.246 314.156C217.853 308.597 216.42 303.048 215.085 297.507L211.073 280.949L207.205 264.557L203.459 248.396ZM203.459 248.396L208.539 264.868L213.503 281.102L218.322 297.169C219.931 302.502 221.442 307.831 222.992 313.146L222.799 312.682C227.117 319.886 234.267 325.228 242.328 327.265C250.375 329.339 259.143 328.127 266.261 323.929C269.832 321.856 272.983 319.092 275.481 315.819C277.978 312.551 279.849 308.796 280.917 304.815C281.986 300.834 282.288 296.646 281.774 292.557C281.26 288.464 279.926 284.483 277.901 280.868L278.271 281.35L266.473 269.246C262.529 265.225 258.643 261.145 254.73 257.087C250.83 253.021 246.904 248.982 243.036 244.884L231.409 232.613L232.852 232.807C228.069 235.367 223.267 237.955 218.363 240.529L203.459 248.396Z" fill="black"/>
<path d="M231.765 232.257L248.391 203.454L313.642 221.117C329.885 230.494 335.448 251.263 326.071 267.506C316.694 283.748 295.925 289.311 279.682 279.934L231.765 232.257Z" fill="#FAF28C"/>
<path d="M231.765 232.257L239.42 217.727C241.999 212.808 244.681 207.85 247.359 202.859L247.778 202.079L248.702 202.305L265.121 206.321C270.598 207.647 276.053 209.058 281.517 210.428C286.976 211.812 292.449 213.169 297.895 214.603L314.255 218.849L314.526 218.921L314.814 219.084C318.953 221.41 322.631 224.588 325.543 228.362C328.469 232.126 330.633 236.481 331.868 241.088C333.104 245.691 333.451 250.546 332.815 255.284C332.188 260.018 330.606 264.625 328.217 268.745C325.814 272.861 322.6 276.508 318.799 279.385C315.003 282.265 310.626 284.348 306.037 285.534C301.443 286.715 296.624 286.99 291.944 286.327C287.256 285.678 282.739 284.019 278.709 281.612L278.465 281.467L278.312 281.309C274.327 277.194 270.314 273.105 266.383 268.971L254.631 256.636L243.081 244.374L231.765 232.257ZM231.765 232.257L244.402 243.978L256.813 255.555L269.021 267.059C273.078 270.873 277.054 274.732 281.053 278.56L280.656 278.253C288 282.328 296.863 283.383 304.865 281.116C312.871 278.889 319.859 273.452 323.925 266.261C325.981 262.682 327.329 258.715 327.852 254.63C328.379 250.551 328.122 246.362 327.058 242.382C325.994 238.401 324.159 234.623 321.671 231.337C319.178 228.05 316.031 225.269 312.474 223.15L313.033 223.385L296.764 218.8C291.336 217.29 285.931 215.703 280.516 214.143C275.107 212.57 269.683 211.037 264.287 209.418L248.08 204.604L249.424 204.049C246.561 208.661 243.698 213.3 240.737 217.984L231.765 232.257Z" fill="black"/>
<path d="M248.216 204.126V170.87L313.556 153.541C332.31 153.541 347.516 168.746 347.516 187.5C347.516 206.254 332.31 221.46 313.556 221.46L248.216 204.126Z" fill="#F68620"/>
<path d="M248.215 204.126L247.58 187.716C247.354 182.167 247.197 176.532 247.025 170.874L246.998 169.986L247.913 169.72L264.143 164.991C269.548 163.4 274.976 161.894 280.395 160.352C285.818 158.819 291.232 157.26 296.664 155.776L312.957 151.277L313.227 151.201L313.561 151.196C318.308 151.142 323.082 152.057 327.495 153.865C331.909 155.664 335.962 158.355 339.338 161.727C342.71 165.095 345.438 169.125 347.255 173.547C349.08 177.961 350.009 182.739 350.005 187.505C349.982 192.27 349.017 197.035 347.169 201.426C345.321 205.821 342.571 209.811 339.19 213.133C335.804 216.456 331.769 219.102 327.378 220.865C322.996 222.645 318.249 223.466 313.556 223.403L313.272 223.398L313.06 223.34C307.551 221.766 302.029 220.234 296.561 218.615L280.214 213.81L264.084 208.963L248.215 204.126ZM248.215 204.126L265.022 207.958L281.562 211.776L297.886 215.635C303.309 216.907 308.679 218.264 314.057 219.58L313.561 219.517C321.959 219.377 330.16 215.856 335.957 209.892C341.777 203.959 345.113 195.759 345.037 187.496C345.028 183.371 344.212 179.259 342.625 175.459C341.042 171.663 338.725 168.165 335.813 165.248C332.901 162.331 329.425 159.978 325.625 158.378C321.824 156.777 317.708 155.943 313.565 155.885L314.165 155.808L297.787 159.973C292.332 161.38 286.855 162.705 281.386 164.062C275.913 165.406 270.454 166.79 264.968 168.088L248.527 172.024L249.415 170.87C249.239 176.293 249.081 181.743 248.856 187.279L248.215 204.126Z" fill="black"/>
<path d="M248.396 171.541L231.77 142.739L279.691 95.0608C295.934 85.6838 316.703 91.2469 326.08 107.49C335.457 123.732 329.894 144.501 313.651 153.878L248.396 171.541Z" fill="#FAF28C"/>
<path d="M248.396 171.541L239.641 157.647C236.675 152.954 233.717 148.153 230.737 143.338L230.269 142.585L230.927 141.896L242.616 129.683C246.502 125.603 250.451 121.586 254.374 117.538C258.305 113.503 262.213 109.442 266.176 105.438L278.032 93.3971L278.231 93.1988L278.515 93.032C282.599 90.6111 287.193 89.0152 291.917 88.3796C296.642 87.7304 301.492 88.0324 306.104 89.2632C310.712 90.4939 315.089 92.6217 318.871 95.5385C322.658 98.4462 325.854 102.12 328.23 106.25C330.592 110.388 332.143 114.996 332.734 119.725C333.333 124.454 332.946 129.282 331.679 133.853C330.408 138.424 328.235 142.73 325.318 146.453C322.41 150.186 318.714 153.274 314.616 155.56L314.368 155.699L314.151 155.754C308.593 157.147 303.043 158.58 297.503 159.915L280.944 163.927L264.553 167.795L248.396 171.541ZM248.396 171.541L264.868 166.46L281.102 161.497L297.169 156.678C302.502 155.068 307.831 153.558 313.146 152.007L312.682 152.201C319.886 147.882 325.228 140.732 327.265 132.672C329.339 124.625 328.127 115.857 323.929 108.738C321.856 105.168 319.092 102.017 315.819 99.5192C312.551 97.0217 308.796 95.1508 304.815 94.0824C300.834 93.0139 296.646 92.7119 292.557 93.2258C288.464 93.7397 284.483 95.0741 280.868 97.0983L281.35 96.7286L269.246 108.526C265.225 112.471 261.145 116.357 257.087 120.27C253.021 124.17 248.982 128.096 244.884 131.964L232.613 143.591L232.807 142.148C235.367 146.931 237.955 151.732 240.529 156.637L248.396 171.541Z" fill="black"/>
<path d="M232.257 143.23L203.454 126.604L221.117 61.3534C230.494 45.1106 251.263 39.5476 267.506 48.9245C283.749 58.3014 289.312 79.0704 279.935 95.3132L232.257 143.23Z" fill="#F68620"/>
<path d="M232.257 143.23L217.727 135.575C212.809 132.997 207.85 130.314 202.859 127.636L202.079 127.217L202.305 126.293L206.321 109.874C207.647 104.397 209.058 98.9421 210.428 93.4783C211.812 88.0189 213.169 82.5461 214.603 77.1002L218.85 60.7402L218.922 60.4698L219.084 60.1812C221.41 56.0428 224.588 52.3641 228.362 49.4519C232.126 46.5261 236.481 44.3622 241.088 43.127C245.691 41.8918 250.546 41.5446 255.284 42.1803C260.018 42.8069 264.625 44.3893 268.746 46.7786C272.861 49.1814 276.509 52.3957 279.385 56.1961C282.265 59.9919 284.348 64.3693 285.534 68.9586C286.715 73.5523 286.99 78.3715 286.327 83.051C285.678 87.7394 284.019 92.2566 281.612 96.2868L281.468 96.5303L281.31 96.6836C277.194 100.669 273.105 104.681 268.971 108.612L256.637 120.365L244.375 131.915L232.257 143.23ZM232.257 143.23L243.978 130.594L255.555 118.183L267.06 105.975C270.873 101.917 274.732 97.9413 278.56 93.9426L278.253 94.3393C282.329 86.9956 283.383 78.1326 281.116 70.1307C278.889 62.1242 273.452 55.1366 266.262 51.0703C262.682 49.0146 258.715 47.6667 254.631 47.1437C250.551 46.6163 246.363 46.8732 242.382 47.9372C238.401 49.0011 234.624 50.8359 231.337 53.3244C228.051 55.8174 225.269 58.964 223.15 62.521L223.385 61.9619L218.8 78.2318C217.29 83.6596 215.698 89.0648 214.143 94.4791C212.57 99.8888 211.037 105.312 209.419 110.708L204.604 126.915L204.049 125.572C208.661 128.434 213.3 131.297 217.984 134.259L232.257 143.23Z" fill="black"/>
<path d="M187.5 261.406C228.317 261.406 261.406 228.317 261.406 187.5C261.406 146.683 228.317 113.594 187.5 113.594C146.683 113.594 113.594 146.683 113.594 187.5C113.594 228.317 146.683 261.406 187.5 261.406Z" fill="#F8A33E"/>
<path d="M230.408 127.321C239.05 139.421 244.136 154.23 244.136 170.229C244.136 211.046 211.046 244.135 170.229 244.135C154.23 244.135 139.416 239.05 127.321 230.408C140.724 249.171 162.683 261.406 187.5 261.406C228.317 261.406 261.406 228.316 261.406 187.5C261.406 162.683 249.171 140.723 230.408 127.321Z" fill="#F68620"/>
<path d="M113.594 187.5C112.877 177.816 114.365 167.898 117.746 158.607C121.149 149.316 126.541 140.692 133.443 133.443C140.345 126.189 148.775 120.342 158.039 116.38C162.674 114.391 167.52 112.899 172.461 111.88C177.411 110.884 182.455 110.379 187.5 110.366C192.544 110.388 197.594 110.88 202.539 111.885C207.48 112.908 212.326 114.396 216.956 116.389C226.225 120.351 234.65 126.203 241.548 133.452C248.445 140.701 253.841 149.325 257.245 158.612C260.631 167.903 262.114 177.821 261.406 187.504C260.689 177.834 258.372 168.403 254.328 159.824C250.33 151.232 244.749 143.473 237.968 137.036C234.578 133.817 230.891 130.932 226.978 128.412C223.055 125.91 218.922 123.755 214.612 122.042C210.307 120.329 205.848 118.999 201.299 118.142C196.755 117.268 192.13 116.821 187.5 116.83C182.87 116.826 178.24 117.263 173.701 118.147C169.152 119.003 164.693 120.329 160.388 122.046C156.078 123.759 151.944 125.919 148.027 128.421C147.048 129.052 146.102 129.728 145.137 130.377C144.195 131.058 143.28 131.779 142.342 132.474L139.637 134.692L137.04 137.045C130.26 143.482 124.679 151.241 120.68 159.829C116.632 168.403 114.315 177.83 113.594 187.5Z" fill="black"/>
<path d="M261.406 187.5C262.123 197.184 260.635 207.101 257.254 216.393C253.851 225.684 248.459 234.308 241.557 241.557C234.655 248.811 226.225 254.658 216.961 258.62C212.326 260.608 207.48 262.101 202.539 263.119C197.589 264.116 192.544 264.621 187.5 264.634C182.455 264.612 177.406 264.12 172.461 263.115C167.52 262.092 162.674 260.604 158.044 258.611C148.775 254.649 140.349 248.797 133.452 241.548C126.554 234.299 121.158 225.675 117.755 216.388C114.369 207.097 112.886 197.179 113.594 187.496C114.31 197.166 116.628 206.597 120.671 215.176C124.67 223.768 130.251 231.526 137.031 237.964C140.421 241.183 144.109 244.068 148.022 246.588C151.944 249.09 156.078 251.245 160.388 252.958C164.693 254.671 169.152 256.001 173.701 256.858C178.245 257.732 182.87 258.179 187.5 258.17C192.13 258.174 196.76 257.737 201.299 256.853C205.848 255.997 210.307 254.671 214.612 252.954C218.922 251.241 223.055 249.081 226.973 246.579C227.951 245.948 228.898 245.272 229.863 244.623C230.805 243.942 231.72 243.221 232.658 242.526L235.363 240.308L237.959 237.955C244.74 231.517 250.321 223.759 254.319 215.171C258.368 206.597 260.68 197.17 261.406 187.5Z" fill="black"/>
<path d="M150.998 147.012C150.998 147.012 160.244 137.108 172.461 145.362" stroke="black" stroke-width="4.3033" stroke-miterlimit="10" stroke-linecap="round"/>
<path d="M227.05 147.012C227.05 147.012 217.804 137.108 205.587 145.362" stroke="black" stroke-width="4.3033" stroke-miterlimit="10" stroke-linecap="round"/>
<path d="M165.059 178.028C171.983 178.028 177.596 172.415 177.596 165.491C177.596 158.567 171.983 152.954 165.059 152.954C158.135 152.954 152.521 158.567 152.521 165.491C152.521 172.415 158.135 178.028 165.059 178.028Z" fill="#F8F9E3"/>
<path d="M213.142 178.028C220.066 178.028 225.679 172.415 225.679 165.491C225.679 158.567 220.066 152.954 213.142 152.954C206.218 152.954 200.605 158.567 200.605 165.491C200.605 172.415 206.218 178.028 213.142 178.028Z" fill="#F8F9E3"/>
<path d="M152.521 165.491C152.382 163.85 152.621 162.16 153.184 160.573C153.757 158.991 154.663 157.507 155.835 156.272C157.003 155.023 158.45 154.036 160.023 153.346C161.605 152.67 163.332 152.323 165.054 152.31C166.776 152.323 168.503 152.666 170.085 153.346C171.658 154.036 173.106 155.023 174.273 156.272C175.45 157.512 176.351 158.991 176.924 160.573C177.487 162.16 177.726 163.846 177.587 165.491C177.325 162.205 175.865 159.144 173.561 156.985C171.266 154.821 168.174 153.585 165.054 153.603C161.934 153.585 158.842 154.821 156.547 156.985C154.248 159.144 152.787 162.205 152.521 165.491Z" fill="black"/>
<path d="M177.591 165.491C177.731 167.132 177.492 168.823 176.928 170.41C176.356 171.992 175.45 173.475 174.273 174.71C173.106 175.959 171.658 176.946 170.085 177.636C168.503 178.312 166.776 178.659 165.054 178.673C163.332 178.659 161.605 178.317 160.023 177.636C158.45 176.946 157.003 175.959 155.835 174.71C154.658 173.471 153.757 171.992 153.184 170.41C152.621 168.823 152.382 167.137 152.521 165.491C152.783 168.778 154.244 171.839 156.547 173.998C158.842 176.162 161.934 177.397 165.054 177.379C168.174 177.397 171.266 176.162 173.561 173.998C175.865 171.834 177.33 168.773 177.591 165.491Z" fill="black"/>
<path d="M181.982 175.72C181.982 175.72 182.32 181.734 188.474 181.734C194.627 181.734 194.469 175.72 194.469 175.72" stroke="black" stroke-width="4.3033" stroke-miterlimit="10" stroke-linecap="round"/>
<path d="M167.195 177.14C171.737 177.14 175.418 173.459 175.418 168.918C175.418 164.376 171.737 160.695 167.195 160.695C162.654 160.695 158.973 164.376 158.973 168.918C158.973 173.459 162.654 177.14 167.195 177.14Z" fill="#040809"/>
<path d="M200.605 165.491C200.465 163.85 200.704 162.16 201.268 160.573C201.84 158.991 202.747 157.507 203.923 156.272C205.091 155.023 206.538 154.036 208.111 153.346C209.694 152.67 211.42 152.323 213.142 152.31C214.864 152.323 216.591 152.666 218.173 153.346C219.747 154.036 221.194 155.023 222.361 156.272C223.538 157.512 224.44 158.991 225.012 160.573C225.576 162.16 225.815 163.846 225.675 165.491C225.413 162.205 223.953 159.144 221.649 156.985C219.355 154.821 216.262 153.585 213.142 153.603C210.023 153.585 206.93 154.821 204.635 156.985C202.332 159.144 200.871 162.205 200.605 165.491Z" fill="black"/>
<path d="M225.675 165.491C225.815 167.132 225.576 168.823 225.012 170.41C224.44 171.992 223.533 173.475 222.361 174.71C221.194 175.959 219.747 176.946 218.173 177.636C216.591 178.312 214.864 178.659 213.142 178.673C211.42 178.659 209.693 178.317 208.111 177.636C206.538 176.946 205.091 175.959 203.923 174.71C202.746 173.471 201.845 171.992 201.272 170.41C200.709 168.823 200.47 167.137 200.61 165.491C200.871 168.778 202.332 171.839 204.635 173.998C206.93 176.162 210.023 177.397 213.142 177.379C216.262 177.397 219.354 176.162 221.649 173.998C223.953 171.834 225.413 168.773 225.675 165.491Z" fill="black"/>
<path d="M216.316 177.14C220.857 177.14 224.539 173.459 224.539 168.918C224.539 164.376 220.857 160.695 216.316 160.695C211.775 160.695 208.093 164.376 208.093 168.918C208.093 173.459 211.775 177.14 216.316 177.14Z" fill="#040809"/>
</g>
<defs>
<clipPath id="clip0_2056_431">
<rect width="325" height="325" fill="white" transform="translate(25 25)"/>
</clipPath>
</defs>
</svg>
