<svg width="259" height="290" viewBox="0 0 259 290" fill="none" xmlns="http://www.w3.org/2000/svg">
<g clip-path="url(#clip0_4809_1627)">
<path d="M124.058 289.69C182.559 289.69 229.982 279.747 229.982 267.481C229.982 255.216 182.559 245.272 124.058 245.272C65.5576 245.272 18.1337 255.216 18.1337 267.481C18.1337 279.747 65.5576 289.69 124.058 289.69Z" fill="#A7A9AC"/>
<path d="M245.526 75.463C244.726 74.5597 226.069 53.7916 202.888 54.0585C196.637 50.3248 189.834 47.6031 182.733 45.9941C191.82 43.0551 201.667 40.3659 201.773 40.3351C201.879 40.3043 201.961 40.2803 202.05 40.2495C203.014 39.9266 203.86 39.3248 204.481 38.5204C205.102 37.716 205.471 36.7453 205.54 35.7312C205.609 34.7172 205.375 33.7055 204.868 32.8245C204.361 31.9435 203.604 31.2327 202.693 30.7824C193.835 26.4098 175.356 26.6767 172.851 26.7451C167.99 26.7239 163.159 27.5077 158.553 29.0648C151.69 31.3572 144.909 35.3808 138.367 41.0399C133.055 41.072 127.755 41.5158 122.512 42.3674C125.249 33.0816 130.039 25.1575 136.731 18.7355C137.218 18.2691 137.608 17.7115 137.879 17.0944C138.15 16.4773 138.297 15.8128 138.311 15.139C138.326 14.4651 138.207 13.795 137.962 13.1669C137.718 12.5389 137.352 11.9652 136.885 11.4786L127.418 1.58382C126.953 1.09624 126.395 0.705554 125.778 0.434269C125.161 0.162983 124.496 0.0164513 123.822 0.00311171C122.463 -0.0257649 121.147 0.486152 120.165 1.42643C107.098 13.9421 98.9517 30.8508 96.5294 50.4591C89.1252 54.0131 82.1991 58.4872 75.9152 63.7754C72.2885 65.38 56.4643 72.7532 40.103 86.1379C33.0479 89.4225 27.8747 92.0228 27.6523 92.1357C26.9973 92.4652 26.4206 92.9313 25.9608 93.5026C25.5011 94.0738 25.1692 94.7369 24.9873 95.4472C24.8054 96.1576 24.7778 96.8986 24.9065 97.6205C25.0351 98.3423 25.3169 99.0283 25.7329 99.6321C16.1152 110.095 9.12523 121.293 4.86211 133.063L4.7971 133.083C4.01484 133.345 3.30705 133.791 2.73368 134.383C2.16032 134.976 1.73828 135.699 1.50329 136.489C1.26831 137.28 1.22731 138.115 1.38377 138.925C1.54022 139.735 1.88953 140.495 2.4021 141.141C0.999101 146.77 0.203066 152.532 0.0276147 158.33V158.597C0.0276147 159.011 0.00708355 159.429 0.00366211 159.843V160.209C0.00366211 160.623 0.00366211 161.04 0.00366211 161.454V161.714C0.0207693 163.042 0.0686689 164.403 0.147362 165.751L0.171315 166.203C0.195265 166.586 0.22606 166.966 0.253431 167.353C0.253431 167.541 0.284221 167.729 0.297906 167.914C0.332121 168.29 0.362915 168.663 0.400551 169.043L0.458714 169.604C0.585308 170.843 0.746119 172.105 0.927455 173.368L0.947983 173.501C0.975355 173.696 1.00615 173.894 1.03352 174.086L1.19775 175.092C1.24223 175.359 1.2867 175.622 1.3346 175.889C1.39277 176.231 1.45093 176.546 1.51252 176.878C1.55358 177.107 1.72465 177.976 1.72465 177.976C1.76913 178.209 1.81361 178.442 1.86493 178.66C1.97441 179.205 2.09416 179.749 2.20707 180.296C2.25155 180.494 2.29603 180.693 2.34393 180.891L2.42604 181.233C2.50131 181.545 2.57317 181.856 2.65186 182.171C2.73055 182.486 2.79556 182.746 2.87083 183.043C2.9461 183.341 3.04533 183.728 3.13428 184.07C3.20956 184.354 3.28825 184.638 3.36694 184.925C3.46958 185.291 3.57223 185.664 3.67829 186.03L3.73988 186.246C3.79462 186.431 3.84594 186.612 3.90068 186.793C4.0786 187.395 4.24283 188.001 4.45496 188.61L4.62945 189.154C4.77657 189.609 4.9237 190.064 5.07766 190.523C5.14609 190.728 5.21794 190.933 5.28979 191.139L5.33427 191.269C5.47113 191.672 5.61141 192.073 5.75511 192.473C5.84749 192.726 5.93644 192.983 6.03225 193.236C6.18621 193.664 6.34702 194.091 6.51124 194.529C6.51124 194.529 6.70284 195.039 6.76101 195.183C7.00735 195.821 7.26054 196.465 7.52057 197.112L7.63006 197.372C7.86272 197.94 8.0988 198.512 8.34172 199.083C8.40673 199.237 8.63254 199.767 8.63254 199.767C8.82414 200.216 9.02258 200.66 9.22103 201.109C9.32709 201.348 9.43658 201.584 9.54264 201.824C9.75135 202.286 9.9669 202.747 10.179 203.192L10.4801 203.835C10.7949 204.499 11.1176 205.164 11.4484 205.83V205.864C19.9404 222.972 31.4056 236.712 45.5225 246.679C57.7028 255.273 71.9805 261.158 87.9484 264.166C88.4753 264.265 89.0056 264.361 89.5359 264.453C93.2995 265.11 97.1555 265.616 101.042 265.962C101.627 266.013 102.209 266.061 102.794 266.106C107.269 266.448 111.912 266.588 116.6 266.53C117.164 266.53 117.729 266.53 118.29 266.499C119.949 266.462 121.643 266.4 123.323 266.311C124.229 266.263 125.167 266.208 126.207 266.137L126.963 266.085C128.332 265.983 129.748 265.866 131.134 265.743C134.928 265.384 138.812 264.895 142.671 264.292C143.998 264.087 145.357 263.861 146.712 263.608L147.112 263.54C150.722 262.893 154.376 262.144 157.972 261.305L158.204 261.251C162.608 260.224 166.991 259.047 171.206 257.775L171.295 257.747C172.321 257.439 173.348 257.118 174.34 256.796H174.364C175.069 256.57 175.732 256.348 176.417 256.112C181.456 254.428 186.041 252.639 188.682 251.322L189.025 251.147L189.367 250.969L190.15 250.555L190.561 250.333L191.341 249.902L192.104 249.471L192.86 249.029L193.284 248.78L194.369 248.129L195.573 247.39L196.237 246.973C197.39 246.248 198.574 245.478 199.761 244.681L200.401 244.246L201.085 243.777C212.027 236.305 232.282 220.313 245.413 197.359C252.332 185.271 256.458 172.68 257.679 159.932C259.106 145.028 256.578 129.768 250.152 114.574C244.729 101.747 238.519 90.5173 231.584 81.0434C236.446 82.4564 239.874 83.6847 239.939 83.7053C241.009 84.0851 242.174 84.0998 243.253 83.7469C244.331 83.394 245.263 82.6935 245.901 81.755C246.539 80.8164 246.848 79.6928 246.78 78.5599C246.711 77.427 246.269 76.3488 245.523 75.4938L245.526 75.463Z" fill="#231F20"/>
<path d="M166.44 50.038C166.44 50.038 119.189 33.6596 78.6522 68.1717C78.6522 68.1717 -28.7469 113.201 16.0603 203.548C60.8675 293.894 173.666 253.056 186.428 246.726C199.19 240.397 277.096 191.467 245.427 116.561C213.758 41.6555 166.44 50.038 166.44 50.038Z" fill="#E9382C"/>
<path d="M161.02 60.8942C161.02 60.8942 119.651 46.5549 84.1675 76.7799C84.1675 76.7799 -9.8708 116.205 29.3663 195.312C68.6034 274.419 167.36 238.662 178.541 233.119C189.722 227.577 257.919 184.737 230.205 119.151C202.491 53.5654 161.02 60.8942 161.02 60.8942Z" fill="#F1594B"/>
<path d="M234.855 166.223C92.2113 210.212 36.5547 152.164 23.7927 135.088C17.8086 151.631 17.6341 171.697 29.356 195.305C68.5897 274.412 167.35 238.655 178.531 233.112C186.739 229.044 225.757 204.82 234.855 166.223Z" fill="#E9382C"/>
<path d="M5.3888 154.536C4.19814 169.046 7.0482 185.384 16.0603 203.559C60.8812 293.909 173.666 253.067 186.428 246.737C192.155 243.897 210.993 232.48 227.163 213.991C67.3579 257.268 19.5296 192.275 5.3888 154.536Z" fill="#911A1D"/>
<path d="M160.712 122.34C117.91 146.974 91.486 147.183 76.8012 142.971C68.7847 140.672 66.2323 130.592 72.2198 124.793L72.5175 124.506C73.9906 123.09 75.8023 122.077 77.7793 121.562C79.7562 121.048 81.8321 121.049 83.8083 121.567C92.7519 123.842 112.757 124.071 149.763 102.728C151.066 101.98 152.506 101.5 153.997 101.318C155.488 101.136 157.001 101.255 158.445 101.668C159.89 102.081 161.237 102.779 162.407 103.722C163.576 104.664 164.545 105.832 165.256 107.156C168.16 112.548 166.019 119.291 160.712 122.34Z" fill="#F16465"/>
<path d="M214.688 104.071C216.394 95.6965 208.119 86.9408 196.205 84.5148C184.292 82.0889 173.252 86.9114 171.547 95.2862C169.841 103.661 178.116 112.417 190.03 114.843C201.943 117.269 212.983 112.446 214.688 104.071Z" fill="#F6FAFE"/>
<path d="M53.9405 163.999C56.0587 156.088 53.3012 148.477 47.7815 146.999C42.2618 145.521 36.07 150.736 33.9517 158.647C31.8335 166.558 34.591 174.169 40.1107 175.647C45.6304 177.125 51.8222 171.91 53.9405 163.999Z" fill="#F6FAFE"/>
<g style="mix-blend-mode:multiply" opacity="0.78">
<path d="M210.973 66.1159C206.935 65.4525 202.809 65.5394 198.803 66.3725C175.017 71.4191 139.092 91.26 139.092 91.26C139.092 91.26 162.258 57.0011 169.101 53.0699C170.624 52.1974 173.122 51.1573 176.091 50.0727C170.111 49.3884 166.439 50.0385 166.439 50.0385C166.439 50.0385 160.031 47.8214 149.921 46.7402C126.046 63.1016 111.854 97.7197 111.854 97.7197C111.854 97.7197 91.3252 82.354 77.2049 84.684C64.8877 86.7369 32.1308 103.201 32.1308 103.201C60.2927 95.9713 71.1147 95.8276 71.1147 95.8276L91.0378 105.507C86.0991 108.497 80.8904 111.018 75.4805 113.034C69.9172 115.07 63.0299 126.436 43.7021 135.646C27.6419 143.3 8.60498 144.443 8.60498 144.443C8.60498 144.443 30.468 157.896 49.8368 149.062C70.6665 139.564 90.3672 124.065 90.3672 124.065C90.3672 124.065 97.7643 122.594 117.896 124.958C138.028 127.322 162.067 152.398 162.067 152.398C164.26 140.693 137.09 108.918 137.09 108.918C137.09 108.918 192.401 84.2426 203.162 79.4013C207.877 77.28 216.266 78.1593 224.207 79.8153C220.25 74.831 215.818 70.2429 210.973 66.1159Z" fill="#911A1D"/>
</g>
<path d="M109.685 91.2393C109.685 91.2393 134.162 31.5147 172.892 31.8773C172.892 31.8773 192.326 31.3881 200.421 35.3843C200.421 35.3843 173.775 42.6514 166.932 46.5793C160.089 50.5071 136.919 84.7694 136.919 84.7694C136.919 84.7694 172.844 64.925 196.634 59.8818C220.423 54.8386 241.684 78.864 241.684 78.864C241.684 78.864 211.75 68.0693 200.989 72.9107C190.229 77.752 134.918 102.427 134.918 102.427C134.918 102.427 162.091 134.202 159.894 145.907C159.894 145.907 135.852 120.831 115.723 118.467C95.5951 116.103 88.1945 117.574 88.1945 117.574C88.1945 117.574 68.4939 133.073 47.6607 142.571C28.292 151.405 6.43237 137.952 6.43237 137.952C6.43237 137.952 25.4658 136.82 41.5261 129.166C60.8572 119.955 67.7412 108.589 73.3079 106.554C78.7178 104.537 83.9265 102.017 88.8652 99.0265L68.9421 89.3473C68.9421 89.3473 58.1167 89.491 29.9548 96.7205C29.9548 96.7205 62.6945 80.2394 75.0323 78.2036C89.1628 75.8736 109.685 91.2393 109.685 91.2393Z" fill="#63B446"/>
<g style="mix-blend-mode:multiply">
<path d="M131.01 86.8463C132.163 90.2951 125.221 98.4142 114.502 101.996C103.783 105.579 93.354 103.269 92.1976 99.8204C91.0411 96.3716 98.7976 90.668 109.517 87.0858C120.236 83.5035 129.857 83.4009 131.01 86.8463Z" fill="#4CA84E"/>
</g>
<g style="mix-blend-mode:multiply">
<path d="M94.5071 102.044C98.3699 104.046 106.352 104.73 114.502 102.003C122.652 99.2761 128.615 93.9318 130.501 90.0109C126.86 88.6799 119.347 89.3916 111.197 92.1151C103.047 94.8385 96.6147 98.7903 94.5071 102.044Z" fill="#4CA84E"/>
</g>
<path d="M106.718 100.292C106.506 99.6931 101.477 85.4086 100.922 66.7275C100.173 41.4294 108.056 20.1309 123.712 5.1416L133.18 15.0261C120.294 27.3673 114.04 44.5019 114.591 65.9509C115.019 82.5517 119.566 95.5805 119.61 95.7174L106.718 100.292Z" fill="#63B446"/>
<path d="M228.374 140.121C230.376 162.073 221.816 210.538 201.489 208.492C201.489 208.492 182.031 207.629 189.531 192.592C194.523 182.588 192.237 159.603 190.147 145.342C189.651 141.956 190.393 138.504 192.238 135.621C194.083 132.738 196.906 130.617 200.189 129.648L209.122 127.017C211.259 126.387 213.509 126.239 215.71 126.584C217.911 126.929 220.008 127.758 221.85 129.012C223.692 130.265 225.233 131.912 226.361 133.833C227.489 135.754 228.177 137.902 228.374 140.121Z" fill="#F16465"/>
<path d="M218.411 125.074C222.85 125.074 226.448 121.476 226.448 117.037C226.448 112.598 222.85 109 218.411 109C213.973 109 210.374 112.598 210.374 117.037C210.374 121.476 213.973 125.074 218.411 125.074Z" fill="#F6FAFE"/>
<path d="M34.3946 123.53C35.8389 120.604 35.3601 117.417 33.3251 116.413C31.29 115.409 28.4694 116.967 27.0251 119.893C25.5807 122.819 26.0595 126.006 28.0945 127.01C30.1296 128.015 32.9502 126.457 34.3946 123.53Z" fill="#F6FAFE"/>
</g>
<defs>
<clipPath id="clip0_4809_1627">
<rect width="258.066" height="289.69" fill="white"/>
</clipPath>
</defs>
</svg>
