<svg width="295" height="297" viewBox="0 0 295 297" fill="none" xmlns="http://www.w3.org/2000/svg">
<g clip-path="url(#clip0_4970_879)">
<path d="M122.76 296.54C120.254 296.54 117.788 295.912 115.587 294.714C113.386 293.516 111.52 291.785 110.16 289.68C108.88 287.68 106.67 284.26 102.64 265.68C97.7332 265.447 92.8299 265.027 87.9299 264.42C79.84 274.35 68.58 285.09 65.46 288.02C65.0883 288.374 64.6978 288.708 64.2901 289.02C62.064 290.786 59.3823 291.883 56.5569 292.184C53.7315 292.485 50.8786 291.978 48.3306 290.72C45.7825 289.463 43.644 287.508 42.1638 285.082C40.6837 282.657 39.9229 279.861 39.97 277.02C39.97 274.69 40.3601 271.65 42.7901 264.46C42.5094 263.788 42.2788 263.096 42.1001 262.39C41.4401 259.83 41.1 256.52 41.47 249.57C35.2289 245.85 29.63 241.146 24.8899 235.64L24.78 235.51L24.0901 234.68L23.3799 233.78C21.4252 231.328 19.7859 228.64 18.5 225.78L18.3899 225.52C8.21991 207.59 2.20002 188.9 0.500017 169.98V169.69C0.39335 168.443 0.303331 167.203 0.229998 165.97V165.69C-0.0467715 160.693 -0.0233278 155.684 0.300066 150.69V150.17C0.380066 149.08 0.470085 148.02 0.570085 146.96L0.669939 146.03C0.769939 145.03 0.890037 143.97 1.02004 142.96L1.13991 142.06C1.30991 140.81 1.48997 139.57 1.69997 138.33C1.80997 137.67 1.93007 136.99 2.05007 136.33L2.10988 135.97L2.35011 134.7C2.58011 133.55 2.83011 132.38 3.09011 131.22L3.28005 130.38C19.21 61.38 88.0699 15.08 142.38 15.08C151.888 15.0103 161.345 16.4863 170.38 19.4501C178.08 11.4501 185.97 4.30003 186.38 3.91003C188.567 1.95118 191.281 0.677422 194.186 0.246454C197.09 -0.184513 200.057 0.246392 202.719 1.48571C205.38 2.72503 207.62 4.71829 209.159 7.21838C210.699 9.71846 211.471 12.6154 211.38 15.5502C211.29 18.1502 211.15 22.2699 203.07 41.3199C204.25 42.6599 205.37 44.0301 206.45 45.4501C207.94 47.3801 209.36 49.3901 210.7 51.4501C219.77 49.4501 227.57 48.24 228.03 48.17C228.807 48.0476 229.593 47.9841 230.38 47.9801C232.71 47.9796 235.008 48.5219 237.092 49.5638C239.175 50.6058 240.988 52.1188 242.385 53.983C243.783 55.8472 244.727 58.0114 245.142 60.3038C245.558 62.5962 245.434 64.9539 244.78 67.1901L245.23 67.39C247.899 68.6326 250.143 70.6332 251.683 73.1422C253.223 75.6512 253.99 78.5579 253.89 81.5001C253.81 83.9401 253.66 88.18 245.66 107.09C249.081 110.392 252.198 113.997 254.97 117.86C264.97 117.09 275.05 117.02 278.58 117.02H279.28C282.217 117.038 285.084 117.917 287.525 119.549C289.967 121.181 291.876 123.493 293.015 126.2C294.155 128.907 294.474 131.889 293.935 134.776C293.395 137.663 292.02 140.328 289.98 142.44C287.69 144.81 284.03 147.75 268.83 154.84C270.143 165.718 269.301 176.748 266.35 187.3C275.52 195.22 284.15 204.05 284.63 204.54C286.687 206.65 288.077 209.32 288.626 212.215C289.175 215.11 288.859 218.103 287.718 220.82C286.576 223.537 284.66 225.857 282.208 227.491C279.756 229.126 276.877 230.002 273.93 230.01C271.46 230.01 266.74 230.01 245.7 221.88C241.564 226.035 237.092 229.841 232.33 233.26C235.8 243.95 238.39 254.44 238.54 255.04C239.242 257.901 239.087 260.906 238.092 263.679C237.098 266.452 235.309 268.87 232.949 270.633C230.589 272.396 227.762 273.425 224.821 273.592C221.879 273.758 218.954 273.055 216.41 271.57C213.32 269.77 209.41 266.73 197.26 251.52C193.72 252.86 190.13 254.1 186.52 255.24C187.12 265.76 187.04 275.4 187.03 275.96C187.002 278.903 186.109 281.773 184.462 284.212C182.815 286.651 180.487 288.552 177.768 289.678C175.048 290.804 172.058 291.105 169.169 290.543C166.28 289.982 163.62 288.582 161.52 286.52C159.79 284.81 156.78 281.86 148.41 263.52C146.05 263.813 143.717 264.08 141.41 264.32C139.71 274.83 137.5 284.41 137.41 284.97C136.644 288.271 134.783 291.216 132.13 293.324C129.477 295.432 126.189 296.58 122.8 296.58L122.76 296.54Z" fill="#231F20"/>
<path d="M238.98 80.9492C238.82 85.5892 231.11 103.289 227.48 111.389C235.765 117.155 242.565 124.805 247.32 133.709C260.32 131.869 279.27 131.979 279.27 131.979C276.27 135.109 260.75 142.119 252.06 145.929C252.619 147.988 253.069 150.074 253.41 152.179C255.97 167.889 253.81 181.089 248.62 192.179C259.29 199.909 273.96 214.969 273.96 214.969C268.96 214.969 248.61 206.899 241.48 203.969C234.22 213.529 224.57 221.099 214.25 227.109C219.31 239.229 224.05 258.559 224.05 258.559C219.89 256.129 207.27 239.909 202.14 233.269C191.955 237.81 181.387 241.438 170.56 244.109C172.3 257.109 172.12 275.749 172.12 275.749C168.83 272.529 161.12 255.189 157.58 246.929C152.51 247.859 149.44 248.209 149.44 248.209C141.87 249.209 134.79 249.909 128.14 250.339C127.01 263.399 122.8 281.519 122.8 281.519C120.36 277.739 116.72 259.899 114.99 250.809C103.675 251.031 92.366 250.157 81.2199 248.199C75.0599 258.529 55.01 277.249 55.01 277.249C55.09 272.169 63.95 251.349 66.83 244.609C38.89 235.609 32.4299 220.009 32.4299 220.009C29.2399 110.009 151.54 73.1793 215.88 104.489C224.15 94.2793 238.98 80.9492 238.98 80.9492Z" fill="#4CA84D"/>
<path d="M148.2 230.08C148.2 230.08 237.41 219.96 227.2 157.08C215.48 85.1998 56.1999 99.5799 59.3599 208.64C59.3299 208.69 72.41 240.24 148.2 230.08Z" fill="#F15B4B"/>
<g style="mix-blend-mode:multiply">
<g style="mix-blend-mode:multiply">
<path d="M209.34 130.689C220.85 137.099 237.07 150.109 237.07 150.109C232.36 150.719 212.87 145.699 204.58 143.449C200.042 153.028 194.332 162.008 187.58 170.179C195.08 180.949 203.34 197.179 203.34 197.179C199.29 195.939 186.54 185.859 179.06 179.859C172.174 187.163 164.76 193.951 156.88 200.169C162.19 212.169 167.26 233.169 167.26 233.169C163.15 230.789 151.07 215.169 145.78 208.269C138.08 213.599 130.78 218.159 123.97 222.019C123.71 230.019 121.08 242.509 119.15 250.639C117.61 250.699 116.15 250.759 114.62 250.729C113.04 244.079 111.49 235.029 110.51 228.989C97.51 235.139 86.27 238.629 76.76 240.389C76.1136 242.527 75.3388 244.624 74.4399 246.669C70.1161 245.627 65.864 244.308 61.7099 242.719L61.8301 241.899C61.0701 241.899 60.3301 241.899 59.6001 241.899C37.7001 232.799 32.3598 219.949 32.3598 219.949C29.2998 112.569 145.95 74.9491 211.36 102.419C212.742 111.878 212.053 121.523 209.34 130.689Z" fill="#4CA84E"/>
</g>
</g>
<path d="M136.74 30.3301C120.32 48.4301 93.5201 82.2501 82.2601 120.84C73.2601 151.67 74.2001 185.52 98.2601 216.84C52.1401 235.36 31.7901 218.7 31.7901 218.7C-22.3799 124.19 65.6401 34.8601 136.74 30.3301Z" fill="#4CA84D"/>
<path d="M196.43 15C196.28 19.51 189 36.32 185.25 44.71C188.698 47.6274 191.819 50.9099 194.56 54.5C197.95 58.8911 200.857 63.6352 203.23 68.6499C215.4 65.3299 230.42 62.95 230.42 62.95C228.1 66.27 215.5 74.8099 207.42 80.1299C210.211 91.3476 209.949 103.108 206.66 114.19C218.17 120.61 234.39 133.62 234.39 133.62C229.67 134.22 210.19 129.2 201.9 126.96C197.362 136.537 191.652 145.512 184.9 153.68C192.4 164.45 200.67 180.73 200.67 180.73C196.61 179.49 183.86 169.41 176.39 163.41C169.494 170.707 162.081 177.498 154.21 183.73C159.5 195.73 164.58 216.73 164.58 216.73C160.48 214.34 148.39 198.73 143.11 191.83C135.396 197.163 128.12 201.743 121.28 205.57C120.89 218.26 114.52 242.22 114.52 242.22C112.3 238.54 109.39 221.94 107.87 212.54C94.8698 218.7 83.6398 222.18 74.1198 223.95C70.7298 235.66 56.6999 258.56 56.6999 258.56C55.5099 253.95 58.0299 233.92 59.1899 225.42C40.4699 225.6 31.8798 218.55 31.8798 218.55C-32.5402 106.11 104.19 1.06982 174.41 37.3198C182.73 27.3698 196.43 15 196.43 15Z" fill="#67BE65"/>
<path d="M140.35 107.19C139.74 92.4 148.27 80.0298 159.41 79.5698C170.55 79.1098 180.07 90.73 180.68 105.52C181.29 120.31 172.76 132.68 161.62 133.14C150.48 133.6 140.98 122.01 140.35 107.19Z" fill="white"/>
<path d="M178.16 76.5998C178.083 74.5458 178.616 72.515 179.692 70.7638C180.768 69.0126 182.339 67.6197 184.206 66.7607C186.073 65.9016 188.153 65.6149 190.183 65.9372C192.213 66.2594 194.102 67.1759 195.611 68.571C197.121 69.966 198.183 71.7772 198.664 73.7755C199.145 75.7739 199.023 77.8697 198.313 79.7987C197.604 81.7278 196.338 83.4035 194.677 84.6139C193.016 85.8244 191.034 86.5153 188.98 86.5998C187.612 86.656 186.247 86.4419 184.962 85.9694C183.678 85.4969 182.499 84.7754 181.494 83.8463C180.489 82.9173 179.677 81.7988 179.105 80.5553C178.532 79.3118 178.211 77.9676 178.16 76.5998Z" fill="white"/>
<path d="M136.73 30.3398C135.58 31.3398 34.5301 124.29 98.2501 216.81C90.4403 220.009 82.3346 222.43 74.0501 224.04C70.6601 235.75 56.62 258.65 56.62 258.65C55.43 254.04 57.95 234.01 59.11 225.51C40.4 225.69 31.8102 218.64 31.8102 218.64C-22.3798 124.19 65.6401 34.8798 136.73 30.3398Z" fill="#4CA84D"/>
<g style="mix-blend-mode:multiply">
<path d="M98.8799 40.0508C4.01994 103.431 59.1199 225.571 59.1199 225.571C40.3999 225.751 31.8101 218.7 31.8101 218.7C-12.9399 140.66 39.2699 66.1908 98.8799 40.0508Z" fill="#4CA84E"/>
</g>
<path d="M54.98 277.291L74.48 246.811L66.8001 244.65L54.98 277.291Z" fill="#4CA84D"/>
</g>
<defs>
<clipPath id="clip0_4970_879">
<rect width="294.23" height="296.54" fill="white"/>
</clipPath>
</defs>
</svg>
