<svg width="564" height="540" viewBox="0 0 564 540" fill="none" xmlns="http://www.w3.org/2000/svg">
<g clip-path="url(#clip0_2097_270)">
<path d="M47.8795 348.012C64.055 317.347 116.929 381.566 101.474 481.618C101.474 481.608 31.6905 378.658 47.8795 348.012Z" fill="#1D6F5E"/>
<path d="M47.8795 348.012C48.6621 346.379 49.597 344.918 50.6563 343.675C51.7426 342.433 52.9522 341.448 54.2419 340.756C56.8745 339.474 59.6776 339.158 62.4105 339.836C65.1279 340.496 67.7661 341.738 70.2422 343.525C72.7118 345.279 75.0556 347.399 77.2381 349.852C81.5915 354.747 85.4716 360.504 88.7699 366.963C92.0545 373.404 94.8738 380.339 97.1812 387.653C99.4548 394.969 101.26 402.586 102.573 410.402C103.861 418.215 104.673 426.183 104.999 434.211C105.634 450.192 104.442 466.217 101.474 481.608C103.382 466.057 103.867 450.195 102.917 434.451C102.4 426.652 101.463 418.928 100.113 411.352C98.773 403.793 96.9682 396.432 94.7211 389.363C92.5223 382.27 89.8417 375.528 86.721 369.242C83.6281 362.942 80.0041 357.255 75.9373 352.32C73.9074 349.872 71.7277 347.71 69.4266 345.863C67.1476 343.987 64.6985 342.607 62.1544 341.765C59.6173 340.881 56.9748 340.901 54.4441 341.825C51.8935 342.886 49.6102 345.038 47.8795 348.012Z" fill="#231F20"/>
<path d="M101.474 481.608C94.6903 472.535 88.2186 462.961 82.084 452.922C78.9837 447.924 76.0182 442.797 73.0527 437.619C70.0872 432.442 67.2969 427.074 64.5336 421.627C59.1013 410.712 53.9454 399.368 49.9554 387.024C47.884 380.889 46.3592 374.381 45.4195 367.663C44.9618 364.264 44.8731 360.778 45.1567 357.338C45.3071 355.62 45.6108 353.94 46.0598 352.34C46.5198 350.776 47.133 349.321 47.8796 348.022C46.6386 350.824 45.9543 354.087 45.9048 357.438C45.8334 360.749 46.1062 364.056 46.7136 367.243C47.2818 370.457 48.0164 373.602 48.9108 376.649C49.8094 379.707 50.7844 382.706 51.8358 385.644C52.9007 388.643 54.033 391.492 55.2057 394.36C56.3785 397.229 57.5984 400.037 58.852 402.826C61.3592 408.423 63.9787 413.904 66.7106 419.268C69.4065 424.686 72.1968 429.983 75.041 435.26C77.8852 440.538 80.7765 445.705 83.6747 450.903C89.5068 461.225 95.4401 471.46 101.474 481.608Z" fill="#231F20"/>
<path d="M55.7516 348.352C57.4055 349.962 58.9943 351.714 60.5099 353.6C62.0398 355.469 63.5024 357.448 64.9447 359.467C67.8073 363.563 70.5078 367.902 73.0324 372.461C78.0818 381.589 82.4816 391.467 86.1616 401.936C87.0917 404.535 87.9341 407.214 88.8036 409.863C89.673 412.511 90.4413 415.24 91.149 417.999C92.623 423.442 93.9097 428.994 95.0042 434.631C97.1924 445.924 98.4884 457.557 98.8661 469.294C96.6083 458.079 94.2493 447.095 91.486 436.37C90.0572 431.032 88.6351 425.715 87.0243 420.518C85.4135 415.32 83.7757 410.143 81.9694 405.095C78.4001 394.96 74.4255 385.151 70.0669 375.719C67.8877 370.981 65.6097 366.317 63.2328 361.726C60.8469 357.188 58.3936 352.67 55.7516 348.352Z" fill="#231F20"/>
<path d="M12.4484 409.003C19.5185 371.491 84.8945 400.947 96.3522 502.168C96.3522 502.168 5.3649 446.505 12.4484 409.003Z" fill="#1D6F5E"/>
<path d="M12.4484 409.003C12.75 407.048 13.238 405.167 13.8974 403.416C14.5808 401.656 15.4449 400.064 16.4586 398.698C18.5613 396.021 21.0707 394.142 23.7712 393.221C26.4537 392.301 29.2122 391.964 31.9601 392.221C34.6918 392.448 37.4013 393.081 40.0479 394.11C45.3314 396.175 50.3996 399.303 55.1113 403.406C59.804 407.503 64.1933 412.321 68.2067 417.779C72.1988 423.254 75.8321 429.278 79.0578 435.77C82.2568 442.262 85.056 449.166 87.4219 456.4C92.1164 470.801 95.1357 486.275 96.3521 502.168C94.1208 486.717 90.4935 471.782 85.5685 457.77C83.087 450.85 80.2336 444.239 77.0359 437.999C73.8546 431.765 70.297 425.974 66.4072 420.697C62.5431 415.391 58.3247 410.683 53.8173 406.644C49.3391 402.571 44.5284 399.363 39.5019 397.099C36.9965 395.984 34.4266 395.218 31.8253 394.81C29.2354 394.369 26.6163 394.48 24.0476 395.14C21.4741 395.752 19.0364 397.267 16.9371 399.558C14.8465 401.982 13.285 405.268 12.4484 409.003Z" fill="#231F20"/>
<path d="M96.3522 502.168C87.7471 497.616 79.3026 492.422 71.051 486.606C66.906 483.757 62.8284 480.689 58.7711 477.61C54.7137 474.531 50.7305 471.123 46.7877 467.675C38.9493 460.678 31.2861 453.092 24.4048 443.936C20.9062 439.424 17.8182 434.257 15.2185 428.564C13.9256 425.677 12.9476 422.506 12.3204 419.168C12.0225 417.498 11.8708 415.778 11.8688 414.051C11.8923 412.351 12.0877 410.666 12.4484 409.053C12.0228 412.345 12.2259 415.748 13.0348 418.878C13.825 421.977 14.9296 424.879 16.3103 427.484C17.6638 430.13 19.1508 432.619 20.7586 434.931C22.3626 437.263 24.0364 439.488 25.7797 441.607C27.5253 443.716 29.3114 445.755 31.1244 447.754C32.9374 449.753 34.8043 451.653 36.678 453.522C40.4298 457.273 44.249 460.858 48.1356 464.276C52.0178 467.755 55.9673 471.073 59.9438 474.272C63.9203 477.47 67.9304 480.689 71.9474 483.847C80.0419 490.094 88.1768 496.161 96.3522 502.168Z" fill="#231F20"/>
<path d="M19.8082 404.865C21.7516 405.416 23.6713 406.137 25.5573 407.024C27.4512 407.884 29.3114 408.883 31.1648 409.933C34.8521 412.096 38.4526 414.573 41.9485 417.349C48.963 422.926 55.5695 429.565 61.6624 437.16C63.1991 439.039 64.6616 441.038 66.1511 442.997C67.6406 444.956 69.0425 446.995 70.4107 449.184C73.1852 453.404 75.8105 457.834 78.276 462.457C83.2059 471.653 87.3971 481.669 90.7649 492.303C85.7976 483.217 80.7899 474.402 75.4722 466.046C72.7763 461.918 70.0804 457.81 67.2699 453.921C64.4594 450.033 61.6017 446.165 58.6362 442.517C52.7268 435.158 46.5264 428.329 40.0681 422.067C36.833 418.908 33.5305 415.91 30.1606 413.071C26.7907 410.232 23.3668 407.384 19.8082 404.865Z" fill="#231F20"/>
<path d="M509.616 358.038C493.441 327.372 440.567 391.591 456.022 491.643C456.022 491.603 525.805 388.703 509.616 358.038Z" fill="#1D6F5E"/>
<path d="M509.617 358.038C507.881 355.055 505.591 352.899 503.032 351.841C500.501 350.915 497.858 350.897 495.321 351.791C492.777 352.628 490.327 354.008 488.049 355.889C485.747 357.732 483.567 359.894 481.539 362.346C477.474 367.283 473.85 372.97 470.755 379.267C467.634 385.55 464.954 392.288 462.755 399.378C460.512 406.45 458.707 413.81 457.363 421.367C456.013 428.946 455.077 436.674 454.566 444.476C453.618 460.211 454.107 476.063 456.022 491.603C453.052 476.212 451.856 460.188 452.483 444.206C452.809 436.181 453.621 428.217 454.91 420.408C456.22 412.586 458.025 404.966 460.301 397.649C462.604 390.33 465.424 383.395 468.713 376.959C472.009 370.5 475.886 364.742 480.238 359.847C482.428 357.402 484.781 355.295 487.261 353.56C489.736 351.767 492.374 350.521 495.092 349.862C497.826 349.187 500.629 349.506 503.261 350.791C504.55 351.48 505.76 352.461 506.847 353.7C507.902 354.947 508.834 356.407 509.617 358.038V358.038Z" fill="#231F20"/>
<path d="M456.022 491.603C462.04 481.418 467.992 471.213 473.842 460.878C476.74 455.681 479.658 450.513 482.475 445.226C485.293 439.938 488.11 434.671 490.806 429.233C493.502 423.796 496.157 418.378 498.658 412.791C499.911 409.999 501.127 407.174 502.304 404.315C503.47 401.447 504.595 398.548 505.674 395.609C506.752 392.671 507.696 389.612 508.599 386.614C509.492 383.566 510.229 380.421 510.803 377.208C511.404 374.022 511.676 370.72 511.612 367.413C511.557 364.059 510.87 360.794 509.63 357.988C510.38 359.288 510.996 360.746 511.457 362.315C511.901 363.916 512.202 365.596 512.353 367.313C512.636 370.753 512.549 374.238 512.097 377.638C511.155 384.369 509.628 390.891 507.554 397.039C503.564 409.393 498.415 420.727 492.976 431.652C490.213 437.069 487.389 442.407 484.457 447.644C481.525 452.882 478.533 457.969 475.432 462.957C469.245 472.952 462.836 482.608 456.022 491.603Z" fill="#231F20"/>
<path d="M501.744 358.387C499.102 362.725 496.649 367.223 494.27 371.781C491.891 376.339 489.62 381.007 487.443 385.774C483.086 395.218 479.111 405.037 475.54 415.18C473.734 420.238 472.062 425.385 470.492 430.603C468.922 435.82 467.452 441.128 466.03 446.465C463.26 457.19 460.901 468.165 458.616 479.389C458.988 467.652 460.282 456.019 462.472 444.726C463.577 439.054 464.877 433.469 466.367 427.994C467.041 425.235 467.924 422.567 468.713 419.858C469.501 417.149 470.425 414.53 471.361 411.922C475.039 401.455 479.437 391.581 484.484 382.456C487.01 377.899 489.711 373.561 492.572 369.462C494.014 367.463 495.476 365.464 497.006 363.605C498.516 361.73 500.098 359.988 501.744 358.387V358.387Z" fill="#231F20"/>
<path d="M551.093 442.107C552.798 403.236 484.531 398.908 451.108 488.785C451.108 488.785 549.395 480.968 551.093 442.107Z" fill="#1D6F5E"/>
<path d="M551.093 442.107C551.141 438.166 550.403 434.292 548.97 430.972C547.497 427.786 545.536 425.162 543.248 423.316C540.973 421.43 538.526 420.04 535.983 419.188C533.436 418.294 530.839 417.752 528.225 417.569C522.977 417.244 517.722 417.916 512.589 419.568C507.437 421.164 502.408 423.532 497.579 426.634C492.731 429.703 488.082 433.42 483.689 437.739C479.277 442.055 475.107 446.891 471.22 452.202C463.435 462.996 456.669 475.302 451.108 488.785C455.797 474.373 462.096 461.24 469.737 449.943C473.595 444.292 477.789 439.167 482.266 434.631C486.762 430.102 491.534 426.21 496.521 423.006C501.528 419.826 506.746 417.437 512.09 415.88C517.449 414.313 522.928 413.838 528.373 414.47C531.112 414.8 533.822 415.536 536.461 416.669C539.112 417.785 541.64 419.468 543.963 421.667C546.303 423.868 548.25 426.875 549.638 430.433C550.284 432.223 550.739 434.152 550.985 436.15C551.215 438.117 551.252 440.124 551.093 442.107V442.107Z" fill="#231F20"/>
<path d="M451.108 488.785C460.167 487.135 469.198 485.406 478.196 483.477C482.698 482.478 487.193 481.478 491.675 480.339C496.157 479.199 500.619 478.03 505.06 476.661C509.502 475.291 513.923 473.852 518.304 472.163C520.488 471.323 522.672 470.424 524.828 469.444C526.985 468.465 529.128 467.445 531.245 466.266C533.361 465.086 535.443 463.847 537.472 462.437C539.506 461.053 541.466 459.442 543.336 457.62C545.217 455.835 546.906 453.638 548.343 451.103C549.81 448.546 550.763 445.429 551.093 442.107C551.069 443.807 550.873 445.491 550.514 447.105C550.127 448.735 549.599 450.284 548.943 451.713C547.607 454.557 545.976 457.07 544.111 459.159C540.377 463.259 536.299 466.619 531.979 469.154C523.46 474.422 514.523 477.78 505.566 480.559C501.07 481.868 496.562 483.047 492.039 484.047C487.517 485.047 482.974 485.886 478.432 486.536C469.355 487.963 460.236 488.713 451.108 488.785V488.785Z" fill="#231F20"/>
<path d="M545.075 434.631C541.152 435.25 537.304 436.18 533.475 437.229C529.647 438.279 525.866 439.508 522.112 440.898C514.618 443.635 507.24 447.032 500.019 451.073C496.407 453.072 492.848 455.251 489.33 457.58C485.812 459.909 482.334 462.427 478.876 464.996C471.995 470.264 465.302 476.121 458.583 482.258C464.134 473.889 470.325 466.509 477.03 460.268C480.391 457.123 483.86 454.237 487.422 451.623C489.188 450.263 491.021 449.114 492.814 447.874C494.607 446.635 496.481 445.585 498.348 444.566C505.792 440.399 513.508 437.384 521.371 435.57C525.293 434.669 529.247 434.105 533.213 433.881C535.194 433.801 537.176 433.761 539.15 433.881C541.133 433.955 543.112 434.205 545.075 434.631V434.631Z" fill="#231F20"/>
<path d="M296.935 535.012C297.34 529.444 296.95 523.812 295.79 518.483C294.631 513.153 292.727 508.245 290.204 504.079C287.68 499.912 284.594 496.581 281.145 494.3C277.696 492.02 273.961 490.842 270.185 490.844C269.579 490.844 268.979 490.844 268.386 490.933C262.984 477.143 254.387 466.732 244.195 461.641C234.004 456.55 222.912 457.124 212.984 463.257C210.541 453.883 206.667 445.475 201.665 438.693C196.664 431.911 190.672 426.939 184.158 424.166C183.729 409.941 179.746 396.462 172.983 386.354C166.221 376.246 157.164 370.232 147.576 369.483C137.988 368.735 128.555 373.306 121.114 382.305C113.674 391.305 108.758 404.089 107.325 418.169C102.317 417.192 97.2246 417.932 92.4399 420.332C87.6552 422.732 83.3054 426.727 79.725 432.01C76.1447 437.294 73.4293 443.725 71.7877 450.809C70.146 457.893 69.6219 465.441 70.2557 472.872H70.067C64.0912 472.864 58.1914 474.859 52.8088 478.709C47.4261 482.558 42.6997 488.162 38.983 495.101C34.882 492.385 30.388 491.234 25.9102 491.752C21.4324 492.27 17.1131 494.441 13.3456 498.067C9.57811 501.693 6.48212 506.659 4.33955 512.513C2.19698 518.367 1.07589 524.923 1.07837 531.584C1.07837 532.743 1.1323 533.883 1.1997 535.022L296.935 535.012Z" fill="#48BEA2"/>
<path d="M38.9493 495.112C34.6535 492.447 29.9633 491.489 25.3417 492.333C23.0643 492.768 20.8334 493.631 18.703 494.902C17.6425 495.529 16.6093 496.253 15.6094 497.071C15.1107 497.47 14.6389 497.96 14.1536 498.4C13.6646 498.831 13.1962 499.312 12.7517 499.839L11.4038 501.389C10.9724 501.938 10.5748 502.538 10.1569 503.108L9.53686 503.967C9.33466 504.267 9.15943 504.597 8.97072 504.907L7.85191 506.806C7.51492 507.476 7.17793 508.165 6.86115 508.805L6.36241 509.805C6.21413 510.164 6.07934 510.524 5.93781 510.894L5.08185 513.053L4.40787 515.332L4.05066 516.471L3.78106 517.661L3.2284 520.02L2.83749 522.448L2.64878 523.658C2.59486 524.068 2.5679 524.487 2.52746 524.897L2.30505 527.366C2.25788 528.186 2.26461 529.025 2.23765 529.845C2.2019 531.512 2.23792 533.182 2.34549 534.843L1.22668 533.313L38.1877 532.464L75.1555 531.794L112.123 531.244L149.091 530.764L223.027 530.195L296.962 530.005L293.593 534.453C293.941 529.396 293.547 524.288 292.437 519.479C291.327 514.67 289.528 510.275 287.163 506.596C284.798 502.889 281.903 500.017 278.691 498.19C275.468 496.371 272.024 495.578 268.581 495.861H268.541C267.936 495.897 267.335 495.69 266.803 495.263C266.27 494.835 265.825 494.203 265.514 493.432C263.023 487.108 259.794 481.49 255.978 476.84C255.061 475.631 254.016 474.641 253.039 473.532C251.988 472.532 251.017 471.533 249.878 470.683C247.727 468.902 245.471 467.413 243.138 466.236L241.379 465.416C240.793 465.116 240.186 464.966 239.586 464.736C238.4 464.246 237.174 463.997 235.96 463.677C233.517 463.154 231.049 462.93 228.58 463.007C223.628 463.215 218.742 464.749 214.157 467.535H214.123C213.747 467.765 213.344 467.884 212.937 467.883C212.53 467.882 212.128 467.762 211.752 467.53C211.376 467.298 211.035 466.958 210.748 466.53C210.461 466.102 210.234 465.594 210.08 465.036V464.916C207.832 456.167 204.251 448.308 199.615 441.953C194.979 435.598 189.414 430.919 183.356 428.284V428.284C182.78 428.033 182.271 427.522 181.9 426.821C181.529 426.12 181.315 425.265 181.287 424.376C181.086 417.862 180.093 411.455 178.355 405.465C175.717 396.391 171.432 388.581 165.977 382.905C160.522 377.23 154.112 373.912 147.46 373.32C138.423 372.501 129.5 376.671 122.413 385.028C115.326 393.384 110.575 405.336 109.077 418.578V418.638C109.006 419.301 108.761 419.894 108.396 420.291C108.032 420.688 107.577 420.855 107.129 420.757C102.381 419.748 97.5401 420.36 92.9756 422.547C88.3551 424.733 84.1368 428.471 80.6487 433.469C77.1607 438.466 74.4967 444.59 72.864 451.363L72.527 452.622L72.2844 453.931L71.7924 456.54L71.6711 457.19L71.5969 457.86L71.4419 459.199L71.1252 461.878C71.051 463.677 70.9364 465.486 70.8893 467.305C70.8825 469.124 70.9432 470.943 71.0712 472.752V472.752C71.0824 472.9 71.0738 473.049 71.046 473.191C71.0181 473.333 70.9714 473.466 70.9087 473.581C70.8461 473.696 70.7686 473.792 70.6808 473.862C70.593 473.933 70.4966 473.977 70.3972 473.992H70.2962C64.3403 473.781 58.4291 475.567 53.0037 479.217C47.5783 482.867 42.7786 488.287 38.9628 495.072C42.6305 487.941 47.3376 482.132 52.7322 478.08C55.4401 476.031 58.3019 474.464 61.2581 473.412C64.2233 472.349 67.2594 471.783 70.3096 471.723L69.5413 473.002C69.3579 471.114 69.2454 469.212 69.2043 467.305C69.2043 465.396 69.2717 463.487 69.3122 461.568L69.5683 458.719L69.6963 457.3L69.757 456.58L69.8715 455.881L70.3164 453.082L70.5455 451.673L70.8623 450.313C72.489 442.965 75.212 436.255 78.8287 430.683C82.5237 425.128 87.0129 420.875 91.9646 418.239C96.9582 415.583 102.301 414.694 107.567 415.64L105.613 417.829C106.305 410.523 107.905 403.47 110.331 397.029C115.302 383.946 123.37 374.065 132.972 369.297C142.574 364.53 153.027 365.215 162.308 371.221C169.317 375.766 175.338 383.107 179.7 392.427C184.063 401.746 186.595 412.678 187.016 424.006L184.927 420.088C191.897 422.999 198.318 428.263 203.687 435.468C209.056 442.673 213.228 451.623 215.876 461.618L211.792 459.029C217.052 455.734 222.672 453.878 228.378 453.552C231.227 453.411 234.079 453.622 236.904 454.181C238.313 454.541 239.728 454.841 241.11 455.381C241.784 455.651 242.505 455.841 243.186 456.17L245.207 457.11C247.915 458.455 250.535 460.164 253.032 462.217C254.313 463.217 255.479 464.406 256.699 465.506C257.845 466.765 259.044 467.925 260.123 469.324C264.56 474.685 268.316 481.177 271.216 488.495L268.15 486.076C272.547 485.685 276.95 486.68 281.07 488.995C285.193 491.323 288.914 494.987 291.961 499.719C295.016 504.441 297.345 510.088 298.789 516.271C300.236 522.461 300.738 529.05 300.258 535.562C300.164 536.778 299.772 537.9 299.158 538.716C298.543 539.533 297.747 539.986 296.922 539.99L222.986 539.79L149.051 539.22L112.083 538.741L75.1151 538.191L38.1608 537.581L1.19973 536.742H1.11884C0.845152 536.737 0.583424 536.574 0.388629 536.289C0.193833 536.004 0.0811234 535.618 0.074171 535.212C-0.0100752 533.422 -0.0100752 531.625 0.074171 529.835C0.11461 528.935 0.134837 528.046 0.208975 527.156L0.519 524.497C0.572919 524.058 0.613361 523.618 0.680759 523.178L0.916646 521.889L1.40191 519.3L2.07589 516.801L2.40615 515.562L2.81054 514.362L3.62605 511.974L4.58985 509.725C4.7516 509.345 4.90662 508.965 5.07511 508.595L5.62103 507.546C5.99172 506.846 6.34893 506.136 6.7331 505.447L7.95975 503.518C8.16868 503.198 8.36413 502.858 8.58654 502.518L9.26052 501.648C9.71883 501.069 10.1502 500.459 10.6085 499.919L12.0575 498.37C12.5353 497.845 13.0375 497.371 13.5605 496.951C14.0795 496.521 14.5782 496.041 15.1107 495.651C16.1733 494.877 17.2699 494.209 18.393 493.652C20.6249 492.497 22.9458 491.762 25.3013 491.463C29.987 490.903 34.6903 492.161 38.9493 495.112V495.112Z" fill="#231F20"/>
<path d="M562.389 535.012C562.794 529.444 562.404 523.812 561.244 518.483C560.084 513.153 558.181 508.245 555.657 504.079C553.134 499.912 550.047 496.581 546.598 494.3C543.149 492.02 539.415 490.842 535.639 490.844C535.032 490.844 534.432 490.844 533.839 490.933C528.438 477.143 519.841 466.732 509.649 461.641C499.458 456.55 488.366 457.124 478.438 463.257C475.995 453.883 472.12 445.475 467.119 438.693C462.118 431.911 456.126 426.939 449.612 424.166C449.183 409.941 445.2 396.462 438.437 386.354C431.675 376.246 422.618 370.232 413.029 369.483C403.441 368.735 394.008 373.306 386.568 382.305C379.127 391.305 374.212 404.089 372.778 418.169C367.771 417.192 362.678 417.932 357.894 420.332C353.109 422.732 348.759 426.727 345.179 432.01C341.598 437.294 338.883 443.725 337.241 450.809C335.6 457.893 335.076 465.441 335.709 472.872H335.453C329.478 472.864 323.578 474.859 318.195 478.709C312.812 482.558 308.086 488.162 304.369 495.101C300.271 492.407 295.785 491.273 291.316 491.802C286.848 492.331 282.539 494.505 278.781 498.129C275.023 501.753 271.934 506.71 269.795 512.552C267.656 518.395 266.535 524.936 266.532 531.584C266.532 532.743 266.586 533.883 266.653 535.022L562.389 535.012Z" fill="#48BEA2"/>
<path d="M535.639 490.844C534.942 490.911 534.248 490.648 533.657 490.094C533.355 489.812 533.088 489.453 532.869 489.034L532.249 487.815C531.838 487.015 531.44 486.206 531.022 485.426L529.674 483.147C527.887 480.174 525.929 477.435 523.824 474.961C519.64 470.086 514.901 466.363 509.832 463.966C507.328 462.784 504.753 461.964 502.142 461.518L501.172 461.318C500.848 461.268 500.498 461.248 500.194 461.208L498.24 461.008C496.932 461.008 495.631 460.938 494.331 461.068C489.146 461.501 484.058 463.33 479.314 466.465C478.758 466.832 478.125 466.856 477.557 466.532C476.988 466.208 476.529 465.562 476.281 464.736V464.656L476.241 464.506C473.818 455.749 470.057 447.944 465.255 441.707C462.874 438.633 460.276 435.952 457.504 433.711C454.73 431.479 451.79 429.735 448.743 428.514C448.141 428.271 447.607 427.754 447.214 427.037C446.821 426.32 446.589 425.438 446.552 424.515V424.386C446.136 414.697 443.941 405.362 440.205 397.39C436.469 389.418 431.334 383.113 425.356 379.157C419.387 375.253 412.811 373.848 406.341 375.094C399.872 376.339 393.756 380.189 388.657 386.224C385.254 390.256 382.366 395.162 380.131 400.707C377.893 406.286 376.375 412.434 375.656 418.838V418.938C375.532 420.042 375.122 421.03 374.514 421.692C373.906 422.355 373.148 422.64 372.401 422.486C370.129 421.99 367.826 421.903 365.54 422.227L364.677 422.307C364.387 422.307 364.111 422.436 363.821 422.486L362.123 422.886C361.55 422.996 361.004 423.286 360.445 423.476C359.885 423.666 359.312 423.846 358.773 424.146C357.674 424.675 356.596 425.296 355.545 426.005L353.968 427.084L352.465 428.364L351.703 429.003C351.46 429.243 351.231 429.493 350.989 429.743L349.56 431.222C349.095 431.742 348.663 432.322 348.212 432.871C347.752 433.408 347.316 433.985 346.904 434.601C343.48 439.397 340.832 445.282 339.16 451.812C337.49 458.446 336.836 465.548 337.246 472.602V472.762C337.28 473.344 337.157 473.921 336.904 474.369C336.652 474.817 336.29 475.098 335.898 475.151H335.709C332.815 474.98 329.918 475.285 327.069 476.061C318.283 478.47 310.296 485.178 304.383 495.112C309.761 483.975 317.603 475.988 326.543 472.542C329.556 471.392 332.647 470.745 335.757 470.613L334.227 473.162C333.797 469.298 333.692 465.37 333.917 461.468C334.009 459.506 334.189 457.556 334.456 455.631C334.591 454.631 334.692 453.691 334.86 452.732L335.426 449.893L335.716 448.474L336.087 447.095L336.835 444.336C337.111 443.436 337.428 442.567 337.731 441.677C338.018 440.78 338.34 439.909 338.695 439.068L339.767 436.55C340.11 435.69 340.555 434.94 340.953 434.131C341.351 433.321 341.742 432.522 342.213 431.802L343.561 429.603C344.02 428.87 344.506 428.176 345.017 427.524C345.516 426.864 346.001 426.165 346.52 425.525L348.131 423.716L348.94 422.816L349.796 422.007L351.514 420.407C352.114 419.938 352.721 419.488 353.321 419.028C354.534 418.127 355.781 417.326 357.054 416.629C357.681 416.239 358.348 416.02 358.995 415.71C359.642 415.4 360.289 415.09 360.963 414.9L362.985 414.31C363.322 414.22 363.659 414.091 363.996 414.041L365.007 413.881C367.72 413.376 370.464 413.376 373.176 413.881L369.914 417.519C371.389 402.278 376.655 388.406 384.676 378.63C392.697 368.854 402.894 363.88 413.262 364.687C423.631 365.494 433.42 372.022 440.708 382.989C447.995 393.957 452.253 408.569 452.645 423.956L450.455 419.848C457.385 422.889 463.733 428.313 468.982 435.68C474.184 443.001 478.173 452.009 480.635 461.997L477.542 459.998C482.871 456.915 488.543 455.339 494.263 455.351C499.927 455.33 505.543 456.907 510.809 459.998C516.019 463.018 520.793 467.482 524.875 473.152L526.365 475.291C526.843 476.041 527.302 476.81 527.774 477.56C528.245 478.31 528.677 479.099 529.121 479.899C529.566 480.698 529.998 481.468 530.375 482.318L531.555 484.826C531.932 485.676 532.276 486.556 532.633 487.415C532.929 488.299 533.326 489.1 533.806 489.784C534.328 490.411 534.968 490.781 535.639 490.844V490.844Z" fill="#231F20"/>
<path d="M304.403 495.112C297.929 491.292 290.704 491.378 284.271 495.351C283.23 495.987 282.217 496.722 281.238 497.55C280.746 497.95 280.288 498.45 279.816 498.9C279.344 499.33 278.894 499.811 278.468 500.339L277.161 501.888C276.736 502.438 276.345 503.038 275.941 503.598L275.341 504.457C275.146 504.757 274.97 505.087 274.788 505.397L273.703 507.266C273.373 507.935 273.029 508.615 272.74 509.265L272.261 510.264C272.119 510.614 271.985 510.974 271.85 511.334L271.028 513.473L270.354 515.712L270.017 516.831L269.754 517.991L269.235 520.309L268.871 522.688L268.689 523.878C268.642 524.278 268.621 524.677 268.581 525.077L268.379 527.496C268.338 528.296 268.345 529.115 268.325 529.925C268.297 531.54 268.34 533.156 268.453 534.763L266.674 532.324C278.994 531.924 291.314 531.484 303.642 531.244L322.122 530.814L340.603 530.535C352.93 530.365 365.25 530.145 377.57 530.135C389.891 530.125 402.218 529.975 414.538 530.005L451.506 530.185L488.474 530.675C500.794 530.844 513.121 531.224 525.442 531.484C531.602 531.624 537.762 531.874 543.922 532.064C550.082 532.254 556.249 532.434 562.409 532.714L560.886 534.713C561.382 529.446 561.116 524.082 560.104 518.98C558.511 511.096 555.301 504.143 550.919 499.09C546.538 494.036 541.204 491.133 535.659 490.784C539.467 490.541 543.266 491.513 546.8 493.632C550.404 495.82 553.656 499.109 556.346 503.285C559.035 507.461 561.101 512.431 562.409 517.871C563.736 523.42 564.256 529.324 563.933 535.192C563.896 535.726 563.73 536.222 563.466 536.589C563.203 536.956 562.858 537.17 562.497 537.191H562.409C556.249 537.471 550.089 537.631 543.922 537.851C537.755 538.071 531.602 538.281 525.442 538.421C513.121 538.681 500.794 539.061 488.474 539.23L451.506 539.72L414.538 539.9C402.218 539.9 389.897 539.81 377.57 539.77C365.243 539.73 352.93 539.54 340.603 539.37L322.136 539.18L303.655 538.751C291.328 538.511 279.008 538.071 266.687 537.671H266.539C266.108 537.661 265.696 537.403 265.391 536.952C265.085 536.501 264.91 535.892 264.901 535.252C264.817 533.419 264.817 531.579 264.901 529.745C264.948 528.825 264.969 527.906 265.049 527.006L265.38 524.298C265.434 523.848 265.481 523.398 265.548 522.948L265.804 521.629L266.316 519L266.99 516.451L267.334 515.182L267.759 513.973L268.601 511.544L269.592 509.255C269.761 508.885 269.922 508.495 270.098 508.125L270.664 507.056C271.041 506.346 271.412 505.627 271.803 504.937L273.063 502.938C273.279 502.618 273.481 502.278 273.737 501.938L274.411 501.059C274.876 500.479 275.321 499.869 275.799 499.32L277.289 497.77C277.779 497.249 278.292 496.778 278.826 496.361C279.358 495.941 279.87 495.461 280.416 495.082C283.655 492.759 287.16 491.362 290.748 490.964C295.467 490.537 300.178 491.968 304.403 495.112Z" fill="#231F20"/>
<path d="M69.7637 266.092L93.4541 58.8416H466.765L492.39 266.092H305.252H69.7637Z" fill="#3F2C7B" stroke="#2A3593" stroke-width="2.11" stroke-miterlimit="10"/>
<path d="M201.533 76.0535L92.9688 238.125H72.9583L69.7637 266.092H305.252H492.39L488.932 238.125H310.091L201.533 76.0535Z" fill="#221E57"/>
<path d="M463.86 535.012H96.3589V266.092L201.81 110.407L306.823 266.092H463.86V535.012Z" fill="#F26B6C"/>
<path d="M94.5055 266.092C92.4431 266.452 90.3807 266.801 88.3184 267.091C86.256 267.381 84.1936 267.681 82.1312 267.911C78.0065 268.411 73.884 268.83 69.7637 269.17C69.5066 269.193 69.2489 269.141 69.0055 269.016C68.762 268.892 68.5374 268.697 68.3447 268.444C68.1519 268.19 67.9947 267.883 67.882 267.539C67.7693 267.196 67.7033 266.823 67.6879 266.442C67.6776 266.275 67.6776 266.108 67.6879 265.942V265.602C70.4983 230.769 74.1446 196.155 78.33 161.652C80.4598 144.4 82.7491 127.205 85.1979 110.067C87.6781 92.9251 90.3336 75.8234 93.4541 58.8416C92.6319 76.4031 91.3378 93.8247 89.8685 111.246C88.3993 128.668 86.7008 145.98 84.8474 163.281C81.1337 197.885 76.8877 232.348 71.7991 266.602L69.7772 263.033C73.902 263.386 78.0245 263.806 82.1447 264.293C84.2071 264.522 86.2695 264.842 88.3319 265.112C90.3942 265.382 92.4431 265.712 94.5055 266.092Z" fill="#231F20"/>
<path d="M466.765 58.8118C468.144 67.3676 469.479 75.9302 470.768 84.4994C472.116 93.0653 473.336 101.651 474.603 110.237C475.87 118.823 477.097 127.409 478.317 136.005C479.537 144.6 480.784 153.186 481.943 161.792C484.295 179.004 486.661 196.206 488.925 213.447L492.295 239.305L495.618 265.172C495.78 266.446 495.595 267.763 495.104 268.834C494.612 269.906 493.854 270.645 492.996 270.89C492.802 270.939 492.606 270.969 492.41 270.98H492.356L468.969 271.07L445.575 270.98C429.979 270.9 414.383 270.53 398.787 270.29L375.4 269.63C367.602 269.43 359.804 269.041 352.006 268.761C336.41 268.071 320.815 267.321 305.219 266.072C320.815 264.833 336.41 264.073 352.006 263.383C359.804 263.103 367.602 262.714 375.4 262.514L398.787 261.854C414.383 261.614 429.979 261.244 445.575 261.164L468.969 261.074L492.356 261.164L489.101 266.962L486.014 241.024L483.015 215.037C480.993 197.745 479.099 180.403 477.178 163.062C476.201 154.406 475.324 145.72 474.401 137.074C473.478 128.428 472.561 119.722 471.705 111.027C470.849 102.331 469.946 93.655 469.131 84.9492C468.315 76.2434 467.52 67.5676 466.765 58.8118Z" fill="#231F20"/>
<path d="M201.817 110.417C211.07 122.631 220.135 135.145 229.2 147.649C238.265 160.153 247.236 172.807 256.16 185.551C265.083 198.294 273.946 211.068 282.816 223.872C291.685 236.676 300.454 249.62 309.222 262.573L306.843 261.114C319.932 261.114 333.018 261.177 346.102 261.304L365.735 261.664C372.28 261.774 378.817 261.894 385.362 262.124L404.995 262.753L424.621 263.583C437.71 264.293 450.798 264.942 463.88 266.092C450.798 267.241 437.71 267.891 424.621 268.601L404.995 269.44L385.362 270.06C378.817 270.29 372.28 270.41 365.735 270.52L346.102 270.879C333.018 271.019 319.932 271.086 306.843 271.079C305.956 271.074 305.105 270.549 304.477 269.62C295.724 256.62 287.008 243.569 278.327 230.469C269.693 217.325 261.019 204.242 252.48 190.958C243.94 177.674 235.388 164.391 226.909 150.977C218.43 137.564 210.053 124.14 201.817 110.417Z" fill="#231F20"/>
<path d="M93.4541 58.8116C124.565 56.7426 155.676 55.6631 186.787 54.9334L198.447 54.6436L210.113 54.4437L233.446 54.0938L280.113 53.824L326.772 54.0839L350.106 54.4337L361.772 54.6236L373.439 54.9135C404.543 55.6431 435.654 56.7326 466.765 58.8116C435.654 60.8906 404.543 61.98 373.439 62.7097L361.772 63.0096L350.106 63.1895L326.772 63.5493L280.113 63.8092L233.446 63.5293L210.113 63.1795L198.447 62.9896L186.787 62.6997C155.662 61.99 124.565 60.9106 93.4541 58.8116Z" fill="#231F20"/>
<path d="M96.3522 266.092C104.157 251.649 112.433 237.915 120.851 224.402C129.269 210.888 137.917 197.685 146.705 184.711C155.494 171.737 164.438 159.003 173.577 146.549C182.716 134.095 192.03 121.911 201.81 110.417C194.012 124.86 185.735 138.603 177.311 152.117C168.886 165.63 160.245 178.824 151.457 191.798C142.668 204.771 133.718 217.495 124.578 229.949C115.439 242.403 106.132 254.587 96.3522 266.092Z" fill="#231F20"/>
<path d="M414.538 13.6633H383.104V84.6591H414.538V13.6633Z" fill="#221E57"/>
<path d="M414.538 13.6633C414.862 19.5805 415.122 25.4976 415.32 31.4148C415.549 37.3319 415.697 43.2491 415.859 49.1662C416.021 55.0834 416.109 61.0005 416.23 66.9077L416.452 84.6591C416.461 85.3971 416.273 86.1102 415.928 86.6423C415.583 87.1744 415.11 87.482 414.612 87.4978H414.538C411.923 87.5677 409.301 87.5577 406.68 87.5877L398.821 87.6577C393.584 87.6577 388.347 87.6577 383.11 87.5078H383.05C382.802 87.5026 382.557 87.425 382.33 87.2795C382.102 87.134 381.896 86.9235 381.723 86.6599C381.551 86.3963 381.414 86.0848 381.323 85.7432C381.231 85.4016 381.186 85.0367 381.19 84.6691L381.405 66.9177L381.776 49.1762C381.945 43.2591 382.093 37.3419 382.322 31.4248C382.551 25.5076 382.787 19.5905 383.11 13.6733C383.429 19.5905 383.69 25.5076 383.892 31.4248C384.121 37.3419 384.27 43.2591 384.438 49.1762L384.816 66.9077L385.031 84.6591L383.11 81.8005C388.347 81.6906 393.584 81.6506 398.821 81.6406L406.68 81.7106C409.301 81.7106 411.923 81.7106 414.538 81.8005L412.624 84.6391L412.847 66.8877C412.975 60.9805 413.069 55.0634 413.217 49.1462C413.366 43.2291 413.527 37.3119 413.756 31.3948C413.986 25.4776 414.221 19.5805 414.538 13.6633Z" fill="#231F20"/>
<path d="M383.11 13.6635C385.674 12.5115 388.305 11.725 390.969 11.3146C393.576 10.884 396.198 10.6671 398.821 10.6649C401.447 10.6585 404.07 10.8721 406.68 11.3046C409.344 11.7136 411.976 12.5036 414.538 13.6635C411.977 14.8282 409.345 15.6182 406.68 16.0224C404.071 16.4599 401.447 16.6735 398.821 16.662C396.198 16.6649 393.576 16.448 390.969 16.0124C388.305 15.6068 385.673 14.8202 383.11 13.6635Z" fill="#231F20"/>
<path d="M465.208 266.092L465.963 534.962C465.967 535.771 465.757 536.549 465.38 537.132C465.002 537.714 464.486 538.055 463.941 538.081H463.894C448.581 538.451 433.268 538.621 417.955 538.901L372.024 539.41C356.711 539.62 341.398 539.63 326.085 539.72L280.147 539.96H234.208C218.895 539.96 203.582 539.96 188.27 539.85L142.297 539.58C126.985 539.36 111.672 539.25 96.359 538.941H96.2983C95.9578 538.935 95.6214 538.831 95.3083 538.632C94.9952 538.434 94.7116 538.146 94.4737 537.785C94.2358 537.423 94.0482 536.996 93.9219 536.527C93.7955 536.058 93.7327 535.557 93.7372 535.052L95.4895 266.182C95.4895 265.84 95.5811 265.512 95.7442 265.27C95.9072 265.028 96.1284 264.893 96.359 264.893C96.5895 264.893 96.8107 265.028 96.9737 265.27C97.1368 265.512 97.2284 265.84 97.2284 266.182L98.9807 535.052L96.3522 531.124C111.665 530.824 126.978 530.704 142.291 530.495L188.229 530.165C203.542 530.015 218.855 530.095 234.168 530.055H280.106L326.045 530.285C341.357 530.375 356.67 530.385 371.983 530.595L417.915 531.104C433.228 531.384 448.54 531.564 463.853 531.924L461.757 535.042L462.512 266.172C462.512 265.642 462.654 265.133 462.907 264.758C463.16 264.383 463.503 264.173 463.86 264.173C464.218 264.173 464.56 264.383 464.813 264.758C465.066 265.133 465.208 265.642 465.208 266.172V266.092Z" fill="#231F20"/>
<path d="M444.187 302.664H372.381V409.153H444.187V302.664Z" fill="#3F2C7B"/>
<path d="M372.387 302.694C378.366 302.035 384.351 301.645 390.336 301.235C396.32 300.825 402.305 300.565 408.29 300.365C414.275 300.166 420.26 300.026 426.238 299.866L444.193 299.696C444.729 299.696 445.244 300.012 445.623 300.574C446.002 301.136 446.215 301.899 446.215 302.694C446.215 311.57 446.179 320.446 446.107 329.322C445.993 338.197 445.959 347.073 445.77 355.939C445.582 364.804 445.42 373.69 445.184 382.566C444.948 391.442 444.645 400.317 444.193 409.193C443.742 400.317 443.479 391.442 443.203 382.566C442.926 373.69 442.751 364.814 442.616 355.939C442.481 347.063 442.394 338.197 442.279 329.322C442.165 320.446 442.178 311.57 442.171 302.694L444.193 305.693L426.238 305.523C420.26 305.363 414.275 305.303 408.29 305.023C402.305 304.743 396.32 304.503 390.336 304.164C384.351 303.824 378.366 303.324 372.387 302.694Z" fill="#231F20"/>
<path d="M444.193 409.163C438.208 409.823 432.223 410.212 426.239 410.622C420.254 411.032 414.275 411.292 408.29 411.492C402.305 411.692 396.321 411.832 390.336 411.992L372.387 412.152C371.851 412.152 371.337 411.836 370.958 411.273C370.579 410.711 370.366 409.948 370.366 409.153C370.366 400.277 370.366 391.402 370.473 382.526C370.581 373.65 370.622 364.774 370.804 355.899C370.986 347.023 371.161 338.157 371.39 329.281C371.619 320.406 371.936 311.53 372.387 302.654C372.832 311.53 373.102 320.406 373.378 329.281C373.655 338.157 373.83 347.033 373.965 355.899C374.099 364.764 374.187 373.65 374.302 382.526C374.416 391.402 374.403 400.277 374.403 409.153L372.381 406.154L390.329 406.314C396.314 406.484 402.299 406.544 408.284 406.814C414.269 407.084 420.254 407.344 426.232 407.684C432.21 408.024 438.208 408.493 444.193 409.163Z" fill="#231F20"/>
<path d="M437.258 315.208H380.381V399.558H437.258V315.208Z" fill="#F8F9E3"/>
<path d="M377.543 309.691V402.196H439.92V309.691H377.543ZM434.36 317.937V351.381H411.809V317.907L434.36 317.937ZM405.655 317.937V351.381H383.104V317.907L405.655 317.937ZM383.104 393.9V360.476H405.655V393.92L383.104 393.9ZM411.809 393.9V360.476H434.36V393.92L411.809 393.9Z" fill="#221E57"/>
<path d="M358.045 302.664H286.239V409.153H358.045V302.664Z" fill="#3F2C7B"/>
<path d="M286.239 302.694C292.224 302.035 298.209 301.645 304.194 301.235C310.179 300.825 316.157 300.565 322.142 300.365C328.127 300.166 334.112 300.026 340.097 299.866L358.045 299.696C358.581 299.696 359.096 300.012 359.475 300.574C359.854 301.136 360.067 301.899 360.067 302.694C360.067 311.57 360.067 320.446 359.966 329.322C359.865 338.197 359.811 347.073 359.629 355.939C359.447 364.804 359.272 373.69 359.043 382.566C358.814 391.442 358.497 400.317 358.045 409.193C357.6 400.317 357.371 391.442 357.054 382.566C356.738 373.69 356.61 364.814 356.468 355.939C356.327 347.063 356.246 338.197 356.131 329.322C356.017 320.446 356.037 311.57 356.03 302.694L358.052 305.693L340.104 305.523C334.119 305.363 328.134 305.303 322.149 305.023C316.164 304.743 310.186 304.503 304.201 304.164C298.216 303.824 292.224 303.324 286.239 302.694Z" fill="#231F20"/>
<path d="M358.045 409.163C352.067 409.823 346.082 410.212 340.097 410.622C334.112 411.032 328.127 411.292 322.142 411.492C316.157 411.692 310.179 411.832 304.194 411.992L286.239 412.152C285.703 412.152 285.189 411.836 284.81 411.273C284.43 410.711 284.217 409.948 284.217 409.153C284.217 400.277 284.253 391.402 284.325 382.526C284.44 373.65 284.474 364.774 284.662 355.899C284.851 347.023 285.013 338.157 285.249 329.281C285.485 320.406 285.788 311.53 286.239 302.654C286.691 311.53 286.954 320.406 287.23 329.281C287.506 338.157 287.682 347.033 287.816 355.899C287.951 364.764 288.039 373.65 288.153 382.526C288.268 391.402 288.255 400.277 288.261 409.153L286.239 406.154L304.194 406.314C310.179 406.484 316.157 406.544 322.142 406.814C328.127 407.084 334.112 407.344 340.097 407.684C346.082 408.024 352.067 408.493 358.045 409.163Z" fill="#231F20"/>
<path d="M351.117 315.208H294.24V399.558H351.117V315.208Z" fill="#F8F9E3"/>
<path d="M291.395 309.691V402.196H353.813V309.691H291.395ZM348.218 317.937V351.381H325.667V317.907L348.218 317.937ZM319.507 317.937V351.381H296.956V317.907L319.507 317.937ZM296.956 393.9V360.476H319.507V393.92L296.956 393.9ZM325.667 393.9V360.476H348.218V393.92L325.667 393.9Z" fill="#221E57"/>
<path d="M453.225 409.153H277.208V420.987H453.225V409.153Z" fill="#D84C53"/>
<path d="M277.208 409.163C291.874 408.163 306.546 407.644 321.212 407.264C335.878 406.884 350.55 406.734 365.216 406.684C372.549 406.684 379.882 406.734 387.222 406.754C394.561 406.774 401.888 406.954 409.22 407.054C423.886 407.394 438.559 407.844 453.225 408.653C453.268 408.654 453.31 408.668 453.349 408.694C453.389 408.72 453.424 408.758 453.454 408.804C453.483 408.851 453.506 408.906 453.521 408.965C453.536 409.025 453.543 409.089 453.541 409.153C453.454 413.091 453.312 417.039 453.204 420.977C453.09 417.039 452.955 413.091 452.867 409.153L453.204 409.653C438.539 410.462 423.866 410.912 409.2 411.252C401.867 411.352 394.534 411.512 387.202 411.562C379.869 411.612 372.529 411.672 365.196 411.622C350.53 411.622 335.858 411.442 321.192 411.042C306.526 410.642 291.874 410.152 277.208 409.163Z" fill="#231F20"/>
<path d="M453.225 420.987C438.559 421.987 423.886 422.507 409.22 422.886C394.555 423.266 379.882 423.416 365.216 423.466C357.883 423.466 350.551 423.416 343.218 423.396C335.885 423.376 328.545 423.196 321.212 423.096C306.546 422.757 291.874 422.307 277.208 421.497C277.165 421.496 277.122 421.482 277.083 421.456C277.044 421.43 277.008 421.393 276.979 421.346C276.949 421.3 276.926 421.245 276.911 421.185C276.896 421.125 276.889 421.061 276.891 420.997C276.979 417.059 277.12 413.111 277.228 409.173C277.343 413.111 277.478 417.059 277.565 420.997L277.228 420.498C291.894 419.688 306.567 419.238 321.232 418.898C328.565 418.798 335.898 418.639 343.238 418.589C350.577 418.539 357.904 418.479 365.237 418.529C379.902 418.529 394.575 418.708 409.241 419.108C423.906 419.508 438.559 419.998 453.225 420.987Z" fill="#231F20"/>
<path d="M272.376 511.344H130.691V535.012H272.376V511.344Z" fill="#221E57"/>
<path d="M130.725 511.344C142.533 510.104 154.314 509.455 166.143 509.015C172.047 508.745 177.951 508.675 183.855 508.515L201.567 508.355C213.375 508.355 225.181 508.572 236.985 509.005C248.793 509.445 260.574 510.104 272.409 511.344C260.601 512.593 248.82 513.253 236.985 513.693C225.15 514.132 213.396 514.362 201.567 514.342L183.855 514.182C177.951 514.013 172.047 513.953 166.143 513.683C154.314 513.243 142.5 512.593 130.725 511.344Z" fill="#231F20"/>
<path d="M272.376 511.344C272.497 515.342 272.645 519.24 272.746 523.178L273.056 535.013C273.057 535.266 272.992 535.51 272.876 535.696C272.76 535.881 272.6 535.994 272.43 536.012H272.376C266.472 536.342 260.567 536.572 254.663 536.822L236.951 537.391L219.246 537.771L201.534 537.991H183.821C177.917 537.901 172.013 537.901 166.109 537.731C154.308 537.471 142.52 537.042 130.691 536.142H130.624C130.429 536.126 130.246 535.999 130.114 535.786C129.982 535.573 129.911 535.292 129.916 535.003L130.516 511.334C130.516 511.265 130.535 511.199 130.568 511.15C130.6 511.101 130.645 511.074 130.691 511.074C130.738 511.074 130.783 511.101 130.815 511.15C130.848 511.199 130.867 511.265 130.867 511.334L131.46 535.003L130.725 533.873C142.533 532.973 154.314 532.544 166.143 532.284C172.047 532.104 177.951 532.104 183.855 532.014H201.567L219.279 532.234L236.985 532.614L254.697 533.183C260.601 533.443 266.505 533.663 272.409 534.003L271.735 535.003L272.045 523.168C272.099 519.24 272.261 515.292 272.376 511.344Z" fill="#231F20"/>
<path d="M241.13 309.651H162.085V496.241H241.13V309.651Z" fill="#F8F9E3"/>
<path d="M151.484 294.778V511.344H251.583V294.778H151.484ZM166.446 315.218H193.527V490.914H166.446V315.218ZM236.54 490.914H208.543V315.218H236.587L236.54 490.914Z" fill="#D84C53"/>
<path d="M151.484 294.778C151.76 312.829 151.922 330.871 152.111 348.922C152.299 366.973 152.441 385.015 152.576 403.066L152.886 457.21L153.068 511.344L151.484 508.995L201.534 508.855L251.583 508.985L250.02 511.344L250.202 457.21L250.512 403.066C250.646 385.015 250.768 366.963 250.977 348.922C251.186 330.881 251.327 312.829 251.61 294.778C251.887 312.829 252.048 330.871 252.237 348.922C252.426 366.973 252.567 385.015 252.709 403.066L253.012 457.21L253.201 511.344C253.202 511.652 253.162 511.958 253.083 512.244C253.004 512.529 252.888 512.789 252.742 513.008C252.595 513.227 252.421 513.401 252.229 513.52C252.037 513.639 251.832 513.701 251.624 513.703V513.703L201.574 513.843L151.524 513.703C151.317 513.701 151.112 513.64 150.921 513.521C150.73 513.402 150.557 513.229 150.411 513.011C150.265 512.793 150.15 512.534 150.071 512.25C149.993 511.965 149.953 511.661 149.954 511.354V511.354L150.136 457.22L150.446 403.076C150.581 385.025 150.702 366.973 150.911 348.932C151.12 330.891 151.207 312.829 151.484 294.778Z" fill="#231F20"/>
<path d="M251.583 294.778C243.239 295.778 234.896 296.357 226.558 296.717C218.221 297.077 209.871 297.267 201.534 297.277C193.196 297.287 184.853 297.127 176.509 296.727C168.165 296.327 159.828 295.818 151.484 294.778C159.828 293.779 168.165 293.189 176.509 292.829C184.853 292.469 193.19 292.279 201.534 292.279C209.877 292.279 218.215 292.439 226.558 292.839C234.902 293.239 243.239 293.699 251.583 294.778Z" fill="#231F20"/>
<path d="M166.446 315.218L179.852 314.729C184.367 314.549 188.937 314.379 193.527 314.259C193.612 314.251 193.698 314.268 193.778 314.311C193.859 314.353 193.933 314.419 193.996 314.505C194.059 314.591 194.11 314.695 194.145 314.811C194.18 314.926 194.199 315.051 194.201 315.178V315.178C194.403 329.821 194.531 344.454 194.686 359.097L194.996 403.026L195.171 446.945L195.239 490.874C195.239 491.534 195.062 492.167 194.747 492.634C194.432 493.1 194.005 493.363 193.56 493.363V493.363L166.446 493.322C166.233 493.324 166.021 493.262 165.823 493.142C165.626 493.021 165.447 492.844 165.296 492.62C165.145 492.396 165.025 492.13 164.944 491.837C164.862 491.544 164.821 491.23 164.822 490.914C164.822 476.121 164.943 461.348 165.011 446.575C165.078 431.802 165.253 417.089 165.368 402.396L165.873 358.557L166.446 315.218ZM166.446 315.218L167.026 359.717L167.524 403.696C167.646 418.289 167.814 432.852 167.882 447.365C167.949 461.878 168.07 476.351 168.077 490.884L166.446 488.495L193.527 488.415L191.842 490.914L191.909 446.985L192.084 403.066L192.394 359.137C192.549 344.494 192.677 329.861 192.88 315.218L193.554 316.218C189.119 316.108 184.657 315.928 180.148 315.758L166.446 315.218Z" fill="#231F20"/>
<path d="M236.587 315.218C236.879 329.878 237.104 344.517 237.261 359.137C237.463 373.78 237.578 388.423 237.733 403.066L238.023 446.985L238.191 490.914C238.193 491.228 238.153 491.54 238.073 491.832C237.993 492.123 237.876 492.388 237.727 492.612C237.578 492.836 237.4 493.014 237.205 493.136C237.009 493.258 236.799 493.321 236.587 493.322V493.322L208.543 493.402C208.322 493.404 208.104 493.341 207.9 493.217C207.696 493.093 207.511 492.911 207.354 492.68C207.198 492.45 207.073 492.177 206.988 491.875C206.903 491.574 206.859 491.25 206.858 490.924V490.924L206.919 446.995L207.094 403.076L207.397 359.147C207.552 344.504 207.673 329.871 207.882 315.228C207.891 314.972 207.966 314.73 208.091 314.553C208.217 314.377 208.383 314.278 208.556 314.279L222.582 314.718L236.601 315.268L222.582 315.808L208.556 316.248L209.23 315.248C209.433 329.891 209.554 344.524 209.709 359.167L210.012 403.096L210.187 447.015L210.248 490.944L208.563 488.445L236.607 488.535L234.99 490.944L235.158 447.015L235.448 403.096C235.603 388.453 235.718 373.81 235.92 359.167C236.122 344.524 236.304 329.861 236.587 315.218Z" fill="#231F20"/>
<path d="M72.9584 238.125L82.967 237.656L92.9756 237.206L92.5307 237.476L105.747 216.736L119.018 196.036C127.868 182.232 136.791 168.549 145.667 154.796L172.458 113.765L179.157 103.51L185.897 93.3051L199.377 72.895C199.656 72.4715 199.989 72.1337 200.356 71.901C200.723 71.6682 201.118 71.5451 201.517 71.5386C201.916 71.5321 202.313 71.6424 202.683 71.8631C203.054 72.0838 203.391 72.4107 203.677 72.825V72.825V72.875L217.352 92.9853L230.959 113.176L258.168 153.596L285.255 194.197L298.789 214.507L312.268 234.897L310.065 233.538L332.42 233.787C339.875 233.854 347.327 233.961 354.776 234.107L377.132 234.517L388.307 234.727L399.488 235.017L421.844 235.587L444.193 236.296C459.102 236.776 474.006 237.392 488.905 238.145C474.006 238.885 459.102 239.498 444.193 239.985L421.885 240.724L399.529 241.294L388.347 241.584L377.173 241.784L354.817 242.203C347.363 242.363 339.915 242.443 332.461 242.523L310.105 242.773C309.704 242.779 309.306 242.666 308.934 242.441C308.563 242.217 308.225 241.884 307.941 241.464L307.901 241.414L294.239 221.284L280.639 201.073L253.437 160.643L226.356 119.982L212.829 99.6621L199.35 79.2519H203.697L190.035 99.3622L183.195 109.417L176.327 119.413L148.835 159.393C139.622 172.657 130.456 185.981 121.202 199.184L107.338 219.035L93.4137 238.775C93.3595 238.854 93.2952 238.916 93.2245 238.957C93.1539 238.998 93.0784 239.018 93.0025 239.015L82.9939 238.565L72.9584 238.125Z" fill="#231F20"/>
<path d="M417.854 1.73926H379.795C378.153 1.73926 376.822 3.71273 376.822 6.14714V18.3113C376.822 20.7457 378.153 22.7192 379.795 22.7192H417.854C419.496 22.7192 420.826 20.7457 420.826 18.3113V6.14714C420.826 3.71273 419.496 1.73926 417.854 1.73926Z" fill="#3F2C7B" stroke="#2A3593" stroke-width="1.58" stroke-miterlimit="10"/>
<path d="M417.841 25.1079L410.892 25.3977C408.58 25.5177 406.262 25.6176 403.943 25.6676C399.313 25.8375 394.676 25.6676 390.046 25.5776L383.097 25.3577L381.358 25.2978H380.489H380.098C379.956 25.2978 379.828 25.2978 379.565 25.2978C378.66 25.205 377.794 24.7183 377.075 23.8986C376.355 23.079 375.815 21.9629 375.522 20.69C375.373 20.0701 375.293 19.4186 375.286 18.7609C375.286 18.3911 375.286 18.2112 375.286 17.9913V17.3516L375.34 14.7728L375.447 9.61533L375.495 7.04657V6.39688V6.00707C375.495 5.85714 375.495 5.69722 375.495 5.54729C375.552 4.93756 375.665 4.34234 375.832 3.77814C376.169 2.6667 376.718 1.72603 377.411 1.07234C378.105 0.418649 378.912 0.0805805 379.734 0.0999056C389.001 0.529699 398.268 0.749601 407.536 0.639654C409.854 0.639654 412.166 0.519711 414.484 0.419759L416.223 0.349785H417.093H417.524C417.665 0.349785 417.8 0.349785 418.016 0.349785C418.816 0.393163 419.59 0.782446 420.242 1.46971C420.895 2.15698 421.398 3.11225 421.689 4.21793C421.839 4.77699 421.93 5.36697 421.959 5.96709C421.959 6.30693 421.959 6.49683 421.959 6.70673V7.35642L422.026 9.93518L422.134 15.0827L422.181 17.6615V18.3011V18.711C422.188 18.8707 422.188 19.031 422.181 19.1907C422.137 19.8343 422.035 20.4663 421.878 21.0698C421.531 22.2403 420.968 23.241 420.254 23.9558C419.539 24.6706 418.702 25.0701 417.841 25.1079V25.1079ZM417.841 20.3302C418.118 20.3502 418.393 20.2504 418.632 20.0427C418.871 19.8351 419.065 19.5286 419.189 19.1607C419.245 18.968 419.288 18.767 419.317 18.561V18.3911V17.5115L419.371 14.9328L419.478 9.78524L419.546 7.20648V6.5568V6.00707C419.55 5.7502 419.527 5.49394 419.478 5.24744C419.372 4.72933 419.165 4.26917 418.883 3.92434C418.602 3.57952 418.258 3.3653 417.895 3.30837C417.821 3.30837 417.665 3.30837 417.517 3.30837H417.086H416.216L414.478 3.23839C412.159 3.13844 409.847 3.03849 407.529 3.0185C398.262 2.89856 388.994 3.11846 379.727 3.55825C379.384 3.58219 379.053 3.75368 378.774 4.05181C378.495 4.34995 378.281 4.76187 378.157 5.23743C378.106 5.47084 378.074 5.71246 378.062 5.95709V6.38689V7.03657L378.11 9.60534L378.217 14.7628L378.271 17.3416V17.9813C378.265 18.1544 378.265 18.3279 378.271 18.5011C378.286 18.7049 378.322 18.9041 378.379 19.0908C378.484 19.4468 378.656 19.7498 378.875 19.9628C379.094 20.1759 379.351 20.2896 379.613 20.2902L382.982 20.1603L389.931 19.9404C394.561 19.8404 399.198 19.6905 403.829 19.8604C406.147 19.9104 408.466 20.0103 410.777 20.1203L417.841 20.3302Z" fill="#231F20"/>
</g>
<defs>
<clipPath id="clip0_2097_270">
<rect width="564" height="540" fill="white"/>
</clipPath>
</defs>
</svg>
