<svg width="551" height="904" viewBox="0 0 551 904" fill="none" xmlns="http://www.w3.org/2000/svg">
<g clip-path="url(#clip0_4352_380)">
<path d="M275.26 903.76C405.207 903.76 510.55 890.727 510.55 874.65C510.55 858.573 405.207 845.54 275.26 845.54C145.313 845.54 39.9702 858.573 39.9702 874.65C39.9702 890.727 145.313 903.76 275.26 903.76Z" fill="#D0D2D3"/>
<path d="M171.84 184.58C171.84 184.58 85.8398 98.58 45.7698 125.58C5.69982 152.58 101.88 264.03 101.88 264.03L171.84 184.58Z" fill="#C6BFC3"/>
<path d="M158.94 192.13C158.94 192.13 80.7502 123.33 61.0702 139.36C41.3902 155.39 106.98 248.67 106.98 248.67L158.94 192.13Z" fill="#7A7176"/>
<path d="M373.7 184.58C373.7 184.58 459.7 98.58 499.76 125.58C539.82 152.58 443.7 264.01 443.7 264.01L373.7 184.58Z" fill="#C6BFC3"/>
<path d="M171.84 184.58C162.13 176.17 152.07 168.22 141.84 160.58C136.7 156.79 131.44 153.18 126.15 149.65C120.86 146.12 115.44 142.81 109.92 139.73C104.448 136.642 98.8166 133.845 93.0499 131.35C87.402 128.891 81.523 127.002 75.4999 125.71C69.5899 124.51 63.5999 124.09 58.0999 125.22C55.4041 125.762 52.805 126.706 50.3898 128.02C48.0981 129.221 46.0899 130.899 44.4999 132.94C41.4999 136.88 40.4999 142.32 40.8699 148.05C41.4138 154.006 42.7212 159.868 44.76 165.49C46.8474 171.335 49.2851 177.048 52.0599 182.6C54.8199 188.22 57.8599 193.74 61.0599 199.17C67.4399 210.07 74.4899 220.65 81.8299 231.03C89.1699 241.41 96.9099 251.6 104.83 261.44H98.9999C104.84 255.12 110.67 248.78 116.6 242.44L134.6 223.44L171.84 184.58ZM171.84 184.58L155.7 204.65L139.16 225.13L122.16 245.84C116.43 252.76 110.6 259.66 104.78 266.58L101.97 269.93L98.9699 266.55C94.6199 261.66 90.4799 256.75 86.4199 251.71C82.3599 246.67 78.4198 241.59 74.5198 236.39C66.7798 226.02 59.4499 215.32 52.7299 204.16C46.0099 193 39.9199 181.35 35.5599 168.68C33.2381 162.222 31.8148 155.476 31.3299 148.63C31.1125 144.972 31.4156 141.303 32.2299 137.73C33.0799 133.949 34.7672 130.407 37.1677 127.364C39.5681 124.322 42.6205 121.857 46.0999 120.15C49.3525 118.443 52.8565 117.264 56.4799 116.66C63.4141 115.621 70.488 116.022 77.26 117.84C83.7291 119.513 90.0138 121.831 96.0198 124.76C101.927 127.593 107.652 130.793 113.16 134.34C124.04 141.373 134.4 149.18 144.16 157.7C149.06 161.9 153.79 166.27 158.42 170.75C163.05 175.23 167.54 179.8 171.84 184.58Z" fill="#231F20"/>
<path d="M373.7 184.58C378 179.8 382.5 175.2 387.13 170.74C391.76 166.28 396.5 161.89 401.4 157.69C411.158 149.167 421.518 141.36 432.4 134.33C437.907 130.78 443.632 127.581 449.54 124.75C455.543 121.821 461.824 119.503 468.29 117.83C475.062 116.012 482.136 115.611 489.07 116.65C492.697 117.254 496.204 118.432 499.46 120.14C502.94 121.844 505.992 124.309 508.391 127.352C510.79 130.395 512.475 133.938 513.32 137.72C514.138 141.292 514.444 144.962 514.23 148.62C513.737 155.465 512.311 162.211 509.99 168.67C505.63 181.34 499.47 192.95 492.82 204.15C486.17 215.35 478.77 226.01 471.03 236.38C467.18 241.58 463.19 246.67 459.13 251.7C455.07 256.73 450.93 261.65 446.58 266.54L443.58 269.92L440.76 266.57C434.94 259.65 429.11 252.75 423.38 245.83L406.38 225.12L389.83 204.65L373.7 184.58ZM373.7 184.58L410.98 223.47L428.98 242.47C434.91 248.78 440.74 255.12 446.57 261.47H440.74C448.68 251.63 456.4 241.41 463.74 231.06C471.08 220.71 478.13 210.06 484.52 199.2C487.72 193.77 490.76 188.25 493.52 182.63C496.292 177.078 498.726 171.364 500.81 165.52C502.847 159.896 504.158 154.035 504.71 148.08C505.1 142.35 504.06 136.91 501.08 132.97C499.486 130.928 497.475 129.251 495.18 128.05C492.765 126.735 490.166 125.792 487.47 125.25C481.98 124.12 475.98 124.54 470.08 125.74C464.056 127.029 458.177 128.918 452.53 131.38C446.761 133.877 441.127 136.674 435.65 139.76C430.13 142.84 424.72 146.17 419.42 149.68C414.12 153.19 408.87 156.82 403.73 160.61C393.5 168.22 383.45 176.13 373.7 184.58Z" fill="#231F20"/>
<path d="M386.63 192.13C386.63 192.13 464.82 123.33 484.5 139.36C504.18 155.39 438.59 248.67 438.59 248.67L386.63 192.13Z" fill="#7A7176"/>
<path d="M502.75 574.58C499.47 557.07 490.56 536.65 480.59 515.19C461.27 527.19 413.28 547.13 338.24 515.39C336.88 537.07 336.87 558.46 337.36 577.8C369 591.13 444.32 615.23 502.75 574.58Z" fill="white"/>
<path d="M458.38 466.04C449.71 444.79 443.27 423.88 443.17 404.97C421.6 389.17 409.98 374.8 403.78 363.4C378.2 377.55 362.12 403.33 352.18 433.98C373.11 447.2 416.57 470.35 458.38 466.04Z" fill="white"/>
<path d="M335.25 658.72C331.64 667.23 326.12 672.07 320.13 674.66C323.24 687.85 330.44 708.13 346.97 725.74C422.91 738.19 463.97 714.16 485.08 680.63C455.32 692.95 402.5 701.78 335.25 658.72Z" fill="white"/>
<path d="M443.17 404.97C443.101 399.093 443.773 393.23 445.17 387.52C458.95 332.65 409.93 360.29 409.93 360.29C407.83 361.29 405.79 362.29 403.8 363.4C409.98 374.8 421.6 389.13 443.17 404.97Z" fill="#7A7176"/>
<path d="M480.59 515.19C473.13 499.13 465.09 482.48 458.38 466.04C416.57 470.35 373.11 447.2 352.18 433.98C344.03 459.11 340 487.49 338.24 515.39C413.28 547.13 461.27 527.13 480.59 515.19Z" fill="#7A7176"/>
<path d="M485.08 680.63C507.08 645.63 507.38 600.38 502.89 575.3C502.89 575.06 502.79 574.82 502.75 574.58C444.32 615.23 369 591.1 337.36 577.8C337.85 597.04 338.83 614.27 339.45 627.74C340.07 641.39 338.36 651.41 335.25 658.74C402.5 701.78 455.32 692.95 485.08 680.63Z" fill="#7A7176"/>
<path d="M288.89 674.25L304.21 715.82C318.248 719.994 332.528 723.307 346.97 725.74C330.44 708.13 323.24 687.85 320.13 674.66C305.84 680.85 288.89 674.25 288.89 674.25Z" fill="#7A7176"/>
<path d="M346.97 725.74C357.905 727.28 368.928 728.108 379.97 728.22C390.948 728.346 401.912 727.411 412.71 725.43C423.434 723.462 433.838 720.034 443.63 715.24C453.314 710.41 462.106 703.968 469.63 696.19C473.359 692.314 476.761 688.137 479.8 683.7C480.58 682.6 481.31 681.47 482.02 680.33C482.73 679.19 483.4 678.02 484.02 676.85L486.02 673.34C486.7 672.18 487.2 670.92 487.81 669.72C492.443 659.978 495.865 649.704 498 639.13C500.212 628.53 501.371 617.738 501.46 606.91C501.671 596.132 500.763 585.361 498.75 574.77C496.59 564.37 492.85 554.14 488.75 544.06C484.65 533.98 479.94 524.06 475.23 514.06C470.52 504.06 465.72 494.12 461.13 484C456.54 473.88 452.13 463.62 448.38 453C444.471 442.337 441.565 431.333 439.7 420.13C438.813 414.404 438.391 408.614 438.44 402.82C438.496 399.881 438.707 396.947 439.07 394.03C439.26 392.56 439.5 391.1 439.78 389.64C439.93 388.91 440.08 388.18 440.25 387.45L440.51 386.36L440.73 385.36L441.59 381.51L442.24 377.68C442.41 376.41 442.52 375.15 442.66 373.89C442.8 372.63 442.78 371.41 442.77 370.2C442.76 367.97 442.423 365.753 441.77 363.62C441.265 361.979 440.205 360.564 438.77 359.62C437.143 358.684 435.297 358.197 433.42 358.21C431.082 358.172 428.749 358.441 426.48 359.01C424.022 359.591 421.609 360.35 419.26 361.28C418.07 361.76 416.88 362.28 415.71 362.8C414.54 363.32 413.33 363.94 412.35 364.47L412.16 364.57L411.97 364.66C405.203 367.766 398.872 371.747 393.14 376.5C387.4 381.329 382.248 386.817 377.79 392.85C368.79 404.95 362.26 418.97 357.27 433.5C352.384 448.193 348.784 463.283 346.51 478.6C344.172 494.014 342.62 509.538 341.86 525.11C341 540.71 340.77 556.37 340.93 572.05L341.02 577.93L341.21 583.82L341.59 595.59L342.3 619.16C342.4 623.16 342.56 626.95 342.61 631.03C342.651 635.086 342.437 639.141 341.97 643.17C341.512 647.242 340.665 651.26 339.44 655.17C338.197 659.196 336.331 663.002 333.91 666.45C331.432 669.967 328.218 672.902 324.49 675.05C320.782 677.123 316.707 678.457 312.49 678.98C308.392 679.486 304.245 679.435 300.16 678.83C298.141 678.553 296.138 678.169 294.16 677.68C292.161 677.192 290.194 676.581 288.27 675.85L290.63 673.54L297.93 694.46L305.18 715.4L304.53 714.79C318.469 719.228 332.653 722.857 347.01 725.66C332.502 723.568 318.14 720.562 304.01 716.66L303.55 716.54L303.36 716.05L295.29 695.42L287.29 674.76L285.89 671.15L289.65 672.45C291.426 673.06 293.24 673.554 295.08 673.93C296.935 674.334 298.812 674.634 300.7 674.83C304.427 675.258 308.193 675.184 311.9 674.61C315.505 674.043 318.967 672.79 322.1 670.92C325.156 669.021 327.771 666.492 329.77 663.5C333.84 657.5 335.64 649.99 336.35 642.5C336.681 638.7 336.781 634.882 336.65 631.07C336.51 627.29 336.25 623.27 336.05 619.36L334.79 595.76L334.19 583.95L333.89 578.05L333.7 572.13C333.25 556.34 333.18 540.52 333.76 524.68C334.317 508.804 335.709 492.969 337.93 477.24C340.12 461.384 343.673 445.746 348.55 430.5C351.048 422.817 354.076 415.315 357.61 408.05C361.172 400.709 365.393 393.707 370.22 387.13C375.103 380.492 380.748 374.45 387.04 369.13C393.429 363.801 400.49 359.333 408.04 355.84L407.66 356.03C409.1 355.24 410.35 354.63 411.66 354.03C412.97 353.43 414.35 352.83 415.72 352.28C418.504 351.165 421.365 350.253 424.28 349.55C427.376 348.779 430.56 348.416 433.75 348.47C437.42 348.499 441.011 349.537 444.13 351.47C444.945 352.026 445.72 352.637 446.45 353.3C447.14 353.99 447.77 354.74 448.39 355.49C449.01 356.24 449.39 357.1 449.88 357.91C450.37 358.72 450.6 359.57 450.94 360.4C451.961 363.536 452.487 366.812 452.5 370.11C452.5 371.67 452.43 373.18 452.35 374.7C452.27 376.22 452.04 377.7 451.84 379.14L451.09 383.47L450.09 387.7L449.62 389.7C449.48 390.32 449.35 390.94 449.22 391.57C448.97 392.82 448.76 394.08 448.6 395.35C448.261 397.91 448.067 400.488 448.02 403.07C447.952 408.324 448.316 413.575 449.11 418.77C450.861 429.377 453.593 439.798 457.27 449.9C464.52 470.38 473.97 490.28 483.21 510.36C487.82 520.42 492.41 530.53 496.56 540.92C500.71 551.31 504.41 561.98 506.56 573.28C508.478 584.438 509.232 595.766 508.81 607.08C508.502 618.354 507.088 629.571 504.59 640.57C502.066 651.598 498.197 662.275 493.07 672.36C492.41 673.61 491.84 674.91 491.07 676.12L488.89 679.76C488.16 680.98 487.46 682.21 486.65 683.37C485.84 684.53 485.07 685.72 484.22 686.86C480.898 691.453 477.198 695.762 473.16 699.74C465.062 707.659 455.657 714.121 445.36 718.84C435.134 723.464 424.313 726.638 413.21 728.27C402.195 729.85 391.054 730.366 379.94 729.81C368.874 729.169 357.86 727.81 346.97 725.74Z" fill="#231F20"/>
<path d="M276.95 735.13C243.43 735.13 212.04 717.49 188.54 685.46C165.39 653.92 152.65 612.07 152.65 567.62C152.65 523.17 165.39 481.32 188.54 449.77C212.04 417.77 243.43 400.11 276.95 400.11C310.47 400.11 341.85 417.75 365.35 449.77C388.5 481.32 401.24 523.17 401.24 567.62C401.24 612.07 388.5 653.92 365.35 685.46C341.85 717.51 310.46 735.13 276.95 735.13ZM276.95 410.56C214.17 410.56 163.1 481.01 163.1 567.62C163.1 654.23 214.17 724.68 276.95 724.68C339.73 724.68 390.79 654.22 390.79 567.62C390.79 481.02 339.7 410.58 276.95 410.58V410.56Z" fill="#231F20"/>
<path d="M276.94 729.93C342.701 729.93 396.01 657.27 396.01 567.64C396.01 478.01 342.701 405.35 276.94 405.35C211.18 405.35 157.87 478.01 157.87 567.64C157.87 657.27 211.18 729.93 276.94 729.93Z" fill="#C9C3C7"/>
<path d="M276.95 735.13C243.43 735.13 212.04 717.49 188.54 685.46C165.39 653.92 152.65 612.07 152.65 567.62C152.65 523.17 165.39 481.32 188.54 449.77C212.04 417.77 243.43 400.11 276.95 400.11C310.47 400.11 341.85 417.75 365.35 449.77C388.5 481.32 401.24 523.17 401.24 567.62C401.24 612.07 388.5 653.92 365.35 685.46C341.85 717.51 310.46 735.13 276.95 735.13ZM276.95 410.56C214.17 410.56 163.1 481.01 163.1 567.62C163.1 654.23 214.17 724.68 276.95 724.68C339.73 724.68 390.79 654.22 390.79 567.62C390.79 481.02 339.7 410.58 276.95 410.58V410.56Z" fill="#231F20"/>
<path d="M276.94 729.93C342.701 729.93 396.01 657.27 396.01 567.64C396.01 478.01 342.701 405.35 276.94 405.35C211.18 405.35 157.87 478.01 157.87 567.64C157.87 657.27 211.18 729.93 276.94 729.93Z" fill="#C9C3C7"/>
<path d="M276.95 735.13C243.43 735.13 212.04 717.49 188.54 685.46C165.39 653.92 152.65 612.07 152.65 567.62C152.65 523.17 165.39 481.32 188.54 449.77C212.04 417.77 243.43 400.11 276.95 400.11C310.47 400.11 341.85 417.75 365.35 449.77C388.5 481.32 401.24 523.17 401.24 567.62C401.24 612.07 388.5 653.92 365.35 685.46C341.85 717.51 310.46 735.13 276.95 735.13ZM276.95 410.56C214.17 410.56 163.1 481.01 163.1 567.62C163.1 654.23 214.17 724.68 276.95 724.68C339.73 724.68 390.79 654.22 390.79 567.62C390.79 481.02 339.7 410.58 276.95 410.58V410.56Z" fill="#231F20"/>
<path d="M202.98 471.13C202.98 471.13 23.2299 536.01 115.85 631.91C115.85 631.91 95.2999 636.91 96.2399 652.61C97.0599 666.43 105.24 678.99 130.05 677.96C156.2 676.87 184.49 652.96 164.88 622.27C147.71 595.42 128.3 578.96 171.88 560.61" fill="#C9C3C7"/>
<path d="M202.98 471.13C185.756 478.657 169.163 487.553 153.36 497.73C145.533 502.797 138 508.306 130.8 514.23C123.689 520.104 117.126 526.611 111.19 533.67C105.344 540.559 100.666 548.359 97.3398 556.76C95.7747 560.875 94.6712 565.151 94.0498 569.51C93.4517 573.82 93.4047 578.188 93.9097 582.51C95.0583 591.273 98.0323 599.698 102.64 607.24C107.292 614.999 112.873 622.162 119.26 628.57L124.75 634.21L116.97 636.47L116.31 636.67L115.54 636.91C115.02 637.09 114.54 637.27 113.98 637.47C112.98 637.87 111.98 638.32 110.98 638.81C109.081 639.741 107.304 640.903 105.69 642.27C104.242 643.482 103.046 644.967 102.17 646.64C101.389 648.211 100.998 649.946 101.03 651.7C101.03 651.93 101.03 652.13 101.03 652.4L101.09 653.22C101.09 653.76 101.19 654.3 101.27 654.83C101.413 655.888 101.62 656.937 101.89 657.97C102.391 659.946 103.183 661.836 104.24 663.58C106.403 666.998 109.623 669.617 113.41 671.04C117.6 672.589 122.033 673.378 126.5 673.37C127.65 673.37 128.83 673.37 129.99 673.37C131.15 673.37 132.25 673.25 133.38 673.13C135.651 672.867 137.9 672.439 140.11 671.85C148.93 669.47 157.27 664.44 162.53 657.27C165.182 653.756 166.902 649.627 167.53 645.27C168.094 640.822 167.591 636.304 166.06 632.09C165.285 629.899 164.339 627.772 163.23 625.73C162.13 623.73 160.76 621.54 159.46 619.45C156.82 615.23 154.04 611.05 151.38 606.7C148.539 602.338 146.261 597.634 144.6 592.7C143.773 590.077 143.434 587.325 143.6 584.58C143.83 581.802 144.74 579.123 146.25 576.78C147.723 574.57 149.536 572.606 151.62 570.96C153.629 569.364 155.766 567.936 158.01 566.69C162.452 564.285 167.085 562.248 171.86 560.6C167.354 562.77 163.01 565.259 158.86 568.05C154.86 570.85 150.97 574.16 148.79 578.27C147.717 580.259 147.144 582.48 147.12 584.74C147.153 587.027 147.607 589.288 148.46 591.41C150.14 595.78 152.87 599.88 155.65 603.95C158.43 608.02 161.49 612.03 164.42 616.15C165.89 618.24 167.33 620.23 168.77 622.54C170.195 624.832 171.41 627.249 172.4 629.76C174.502 634.949 175.348 640.562 174.87 646.14C174.292 651.8 172.297 657.224 169.07 661.91C165.894 666.463 161.883 670.372 157.25 673.43C150.411 677.997 142.626 680.954 134.48 682.08C133.12 682.27 131.75 682.41 130.37 682.48C128.99 682.55 127.7 682.61 126.37 682.59C120.773 682.653 115.211 681.708 109.95 679.8C107.166 678.732 104.554 677.26 102.2 675.43C99.8294 673.519 97.8005 671.22 96.1998 668.63C94.6309 666.09 93.4512 663.329 92.6998 660.44C92.3269 659.045 92.0397 657.63 91.8398 656.2C91.7298 655.49 91.6598 654.79 91.5898 654.08L91.5098 653.02C91.5098 652.66 91.5098 652.23 91.5098 651.84C91.4438 648.553 92.1891 645.3 93.6798 642.37C95.1181 639.576 97.1003 637.097 99.5098 635.08C101.729 633.197 104.175 631.598 106.79 630.32C108.06 629.69 109.34 629.13 110.66 628.63C111.31 628.38 111.97 628.15 112.66 627.92L113.66 627.6C114.03 627.5 114.31 627.41 114.81 627.29L112.52 635.19C105.661 628.162 99.6927 620.316 94.7498 611.83C89.6977 603.118 86.5294 593.443 85.4498 583.43C84.5157 573.334 86.0996 563.164 90.0598 553.83C93.9833 544.79 99.365 536.456 105.99 529.16C112.435 521.992 119.584 515.489 127.33 509.75C134.947 504.02 142.935 498.798 151.24 494.12C159.51 489.45 167.96 485.12 176.62 481.34C185.217 477.467 194.017 474.058 202.98 471.13Z" fill="#221F1F"/>
<path d="M350.91 471.13C350.91 471.13 530.67 536.01 438.04 631.91C438.04 631.91 458.59 636.91 457.65 652.61C456.83 666.43 448.65 678.99 423.84 677.96C397.69 676.87 369.4 652.96 389.02 622.27C406.18 595.42 425.59 578.96 382.02 560.61" fill="#C9C3C7"/>
<path d="M350.91 471.13C359.897 474.059 368.72 477.471 377.34 481.35C386.001 485.184 394.465 489.45 402.7 494.13C411.007 498.806 418.994 504.027 426.61 509.76C434.358 515.496 441.507 521.999 447.95 529.17C454.575 536.466 459.957 544.8 463.88 553.84C467.84 563.174 469.424 573.344 468.49 583.44C467.411 593.453 464.242 603.128 459.19 611.84C454.247 620.323 448.283 628.169 441.43 635.2L439.13 627.3C439.63 627.42 439.91 627.51 440.28 627.61L441.28 627.93C441.95 628.16 442.61 628.39 443.28 628.64C444.59 629.14 445.87 629.7 447.14 630.33C449.755 631.608 452.201 633.207 454.42 635.09C456.83 637.109 458.815 639.587 460.26 642.38C461.743 645.313 462.485 648.564 462.42 651.85C462.42 652.24 462.42 652.67 462.42 653.03L462.34 654.09C462.27 654.8 462.2 655.5 462.09 656.21C461.89 657.64 461.603 659.055 461.23 660.45C460.479 663.339 459.299 666.1 457.73 668.64C456.129 671.23 454.101 673.529 451.73 675.44C449.376 677.27 446.764 678.742 443.98 679.81C438.719 681.718 433.157 682.663 427.56 682.6C426.21 682.6 424.88 682.55 423.56 682.49C422.24 682.43 420.81 682.28 419.45 682.09C411.304 680.964 403.519 678.007 396.68 673.44C392.047 670.382 388.036 666.473 384.86 661.92C381.633 657.234 379.638 651.81 379.06 646.15C378.582 640.572 379.428 634.959 381.53 629.77C382.52 627.259 383.735 624.842 385.16 622.55C386.6 620.24 388.04 618.25 389.51 616.16C392.45 612.04 395.51 608.02 398.28 603.96C401.05 599.9 403.79 595.79 405.47 591.42C406.327 589.299 406.782 587.037 406.81 584.75C406.786 582.49 406.213 580.269 405.14 578.28C402.96 574.17 399.14 570.86 395.07 568.06C390.922 565.267 386.577 562.777 382.07 560.61C386.845 562.258 391.478 564.295 395.92 566.7C398.165 567.943 400.303 569.372 402.31 570.97C404.394 572.616 406.207 574.58 407.68 576.79C409.19 579.133 410.1 581.812 410.33 584.59C410.501 587.335 410.162 590.088 409.33 592.71C407.669 597.644 405.391 602.348 402.55 606.71C399.89 611.06 397.11 615.24 394.47 619.46C393.17 621.55 391.8 623.72 390.7 625.74C389.591 627.782 388.645 629.909 387.87 632.1C386.339 636.314 385.835 640.832 386.4 645.28C387.028 649.637 388.748 653.766 391.4 657.28C396.66 664.45 405 669.48 413.82 671.86C416.03 672.449 418.279 672.877 420.55 673.14C421.68 673.26 422.81 673.35 423.94 673.38C425.07 673.41 426.28 673.38 427.43 673.38C431.897 673.388 436.33 672.599 440.52 671.05C444.307 669.627 447.527 667.008 449.69 663.59C450.747 661.846 451.539 659.956 452.04 657.98C452.315 656.948 452.522 655.899 452.66 654.84C452.74 654.31 452.79 653.77 452.84 653.23L452.9 652.41C452.9 652.14 452.9 651.94 452.9 651.71C452.932 649.956 452.541 648.221 451.76 646.65C450.884 644.977 449.688 643.492 448.24 642.28C446.626 640.913 444.849 639.751 442.95 638.82C441.95 638.33 440.95 637.88 439.95 637.48C439.43 637.28 438.95 637.1 438.4 636.92L437.62 636.68L436.96 636.48L429.18 634.22L434.67 628.58C441.057 622.172 446.638 615.009 451.29 607.25C455.903 599.71 458.877 591.284 460.02 582.52C460.53 578.198 460.483 573.829 459.88 569.52C459.259 565.161 458.155 560.885 456.59 556.77C453.272 548.365 448.593 540.564 442.74 533.68C436.804 526.621 430.241 520.114 423.13 514.24C415.93 508.316 408.397 502.807 400.57 497.74C384.756 487.555 368.149 478.657 350.91 471.13Z" fill="#221F1F"/>
<path d="M186.18 632.13C203.89 616.3 134.78 660.73 151.9 836.13C151.9 836.13 120.65 849.7 123.26 866.88C125.87 884.06 179.26 897.79 202.04 873.75C224.82 849.71 231.59 809.17 231.04 775.25C257.19 764.25 283.04 688.99 267.7 652.74C267.7 652.74 240.87 590.93 186.18 632.13Z" fill="#C9C3C7"/>
<path d="M177.58 645.13C175.511 648.615 173.754 652.275 172.33 656.07C170.87 659.836 169.536 663.653 168.33 667.52C167.16 671.39 166.16 675.3 165.21 679.22C164.72 681.22 164.31 683.15 163.86 685.12L162.65 691.04C159.724 706.907 157.757 722.936 156.76 739.04C156.13 747.04 155.82 755.15 155.55 763.21C155.47 767.21 155.38 771.28 155.34 775.32C155.3 779.36 155.34 783.39 155.34 787.43C155.44 803.58 156 819.72 156.9 835.86C156.957 836.864 156.71 837.862 156.191 838.724C155.671 839.586 154.904 840.271 153.99 840.69H153.88C152.95 841.11 151.88 841.69 150.81 842.2C149.74 842.71 148.73 843.3 147.7 843.88C145.7 845.05 143.7 846.29 141.7 847.61C137.956 850.069 134.588 853.056 131.7 856.48C130.466 857.978 129.483 859.667 128.79 861.48C128.223 862.971 128.054 864.584 128.3 866.16C128.682 867.597 129.458 868.899 130.54 869.92C131.97 871.36 133.576 872.613 135.32 873.65C139.205 875.934 143.379 877.687 147.73 878.86C152.195 880.116 156.774 880.927 161.4 881.28C170.62 882 180.08 881 188.14 877.38C192.123 875.636 195.717 873.113 198.71 869.96C201.924 866.566 204.82 862.884 207.36 858.96C212.457 850.872 216.491 842.16 219.36 833.04C222.33 823.771 224.488 814.262 225.81 804.62C227.22 794.901 227.995 785.1 228.13 775.28V775.13C228.14 774.642 228.284 774.166 228.547 773.755C228.81 773.344 229.181 773.013 229.62 772.8C230.02 772.62 230.62 772.29 231.08 772C231.54 771.71 232.08 771.37 232.61 771C233.61 770.34 234.61 769.63 235.61 768.88C237.582 767.381 239.459 765.761 241.23 764.03C244.81 760.51 248.03 756.641 250.84 752.48C253.709 748.288 256.196 743.847 258.27 739.21C260.396 734.542 262.191 729.73 263.64 724.81C262.782 729.902 261.521 734.917 259.87 739.81C258.242 744.757 256.177 749.549 253.7 754.13C251.117 758.738 248.057 763.062 244.57 767.03C242.816 769.041 240.935 770.938 238.94 772.71C237.94 773.6 236.94 774.47 235.82 775.29C235.28 775.7 234.72 776.09 234.16 776.48C233.6 776.87 233.04 777.23 232.3 777.65L233.79 775.16C234.266 785.259 234.052 795.38 233.15 805.45C232.191 815.59 230.354 825.628 227.66 835.45C226.284 840.418 224.588 845.292 222.58 850.04C220.571 854.848 218.208 859.501 215.51 863.96C212.736 868.458 209.556 872.692 206.01 876.61C204.117 878.71 202.001 880.598 199.7 882.24C197.428 883.882 195 885.296 192.45 886.46C187.465 888.722 182.181 890.254 176.76 891.01C171.461 891.763 166.097 891.944 160.76 891.55C155.446 891.16 150.184 890.246 145.05 888.82C139.788 887.403 134.742 885.281 130.05 882.51C127.507 881.008 125.179 879.167 123.13 877.04C121.979 875.852 120.972 874.533 120.13 873.11C119.188 871.506 118.535 869.749 118.2 867.92C117.656 864.556 118.001 861.109 119.2 857.92C120.273 855.099 121.793 852.469 123.7 850.13C127.231 845.911 131.374 842.244 135.99 839.25C138.2 837.76 140.45 836.4 142.74 835.13C143.89 834.49 145.04 833.88 146.22 833.28C147.4 832.68 148.53 832.14 149.88 831.55L146.88 836.42C146.2 820.1 145.97 803.75 146.37 787.42C146.77 771.09 147.87 754.73 149.7 738.42C150.66 730.287 151.863 722.187 153.31 714.12C154.756 706.053 156.51 698.053 158.57 690.12L160.22 684.2C160.82 682.2 161.38 680.27 162.01 678.33C163.277 674.43 164.663 670.576 166.17 666.77C167.69 662.97 169.31 659.2 171.17 655.57C172.962 651.89 175.109 648.393 177.58 645.13Z" fill="#231F20"/>
<path d="M362.83 632.13C345.13 616.3 414.24 660.73 397.11 836.13C397.11 836.13 428.36 849.7 425.76 866.88C423.16 884.06 369.76 897.79 346.97 873.75C324.18 849.71 317.42 809.17 317.97 775.25C291.81 764.25 265.97 688.99 281.3 652.74C281.31 652.74 308.15 590.93 362.83 632.13Z" fill="#C9C3C7"/>
<path d="M373.7 649.51C376.128 652.675 378.216 656.087 379.93 659.69C381.707 663.271 383.296 666.943 384.69 670.69C386.14 674.42 387.4 678.21 388.6 682.03C389.8 685.85 390.8 689.71 391.77 693.59C393.7 701.34 395.33 709.18 396.59 717.07C397.85 724.96 398.99 732.86 399.83 740.8C401.46 756.69 402.38 772.64 402.7 788.58C403.02 804.52 402.76 820.48 402.1 836.39L399.1 831.52C400.45 832.11 401.56 832.65 402.76 833.25C403.96 833.85 405.09 834.46 406.23 835.1C408.53 836.37 410.78 837.73 412.98 839.22C417.601 842.211 421.748 845.878 425.28 850.1C427.214 852.468 428.754 855.132 429.84 857.99C431.039 861.179 431.384 864.626 430.84 867.99C430.505 869.82 429.852 871.576 428.91 873.18C428.061 874.598 427.055 875.917 425.91 877.11C423.858 879.238 421.527 881.078 418.98 882.58C414.289 885.352 409.243 887.475 403.98 888.89C398.85 890.315 393.591 891.229 388.28 891.62C382.943 892.014 377.579 891.832 372.28 891.08C366.859 890.323 361.575 888.791 356.59 886.53C354.041 885.363 351.613 883.95 349.34 882.31C347.041 880.665 344.925 878.778 343.03 876.68C339.484 872.765 336.307 868.53 333.54 864.03C330.839 859.571 328.472 854.919 326.46 850.11C324.456 845.362 322.762 840.488 321.39 835.52C318.688 825.699 316.848 815.661 315.89 805.52C314.988 795.449 314.774 785.329 315.25 775.23L316.75 777.72C316.117 777.366 315.502 776.979 314.91 776.56C314.35 776.18 313.8 775.78 313.26 775.37C312.19 774.56 311.18 773.7 310.19 772.81C308.242 771.034 306.408 769.137 304.7 767.13C301.309 763.176 298.34 758.88 295.84 754.31C293.381 749.772 291.327 745.028 289.7 740.13C288.098 735.285 286.874 730.324 286.04 725.29C287.472 730.139 289.229 734.887 291.3 739.5C293.326 744.081 295.745 748.477 298.53 752.64C301.257 756.77 304.397 760.613 307.9 764.11C309.624 765.833 311.458 767.443 313.39 768.93C314.39 769.68 315.34 770.37 316.33 771.03C316.83 771.37 317.33 771.68 317.83 772.03C318.33 772.38 318.88 772.64 319.25 772.82C319.695 773.026 320.072 773.355 320.338 773.767C320.603 774.18 320.746 774.659 320.75 775.15V775.31C320.885 785.13 321.66 794.931 323.07 804.65C324.397 814.292 326.555 823.8 329.52 833.07C332.394 842.188 336.427 850.899 341.52 858.99C344.06 862.912 346.952 866.593 350.16 869.99C353.153 873.143 356.747 875.666 360.73 877.41C368.79 881.03 378.25 882.03 387.47 881.31C392.096 880.958 396.675 880.147 401.14 878.89C405.492 877.718 409.666 875.966 413.55 873.68C415.297 872.643 416.907 871.39 418.34 869.95C419.418 868.928 420.19 867.626 420.57 866.19C420.821 864.614 420.652 863 420.08 861.51C419.391 859.697 418.411 858.008 417.18 856.51C414.289 853.089 410.921 850.102 407.18 847.64C405.27 846.32 403.28 845.08 401.18 843.91C400.18 843.33 399.12 842.77 398.08 842.23C397.04 841.69 395.93 841.14 395 840.72H394.91C393.992 840.304 393.221 839.62 392.698 838.758C392.175 837.896 391.925 836.897 391.98 835.89C392.86 820.14 393.45 804.38 393.63 788.62C393.81 772.86 393.63 757.1 392.63 741.39C391.848 725.665 390.152 709.998 387.55 694.47C386.215 686.722 384.493 679.046 382.39 671.47C381.31 667.68 380.09 663.93 378.7 660.24C377.38 656.512 375.706 652.918 373.7 649.51Z" fill="#231F20"/>
<path d="M194.62 684.88C206.2 696.39 218.72 706.49 232.62 713.59C246.244 720.887 261.46 724.705 276.915 724.705C292.37 724.705 307.586 720.887 321.21 713.59C335.13 706.48 347.65 696.39 359.21 684.89C350.92 699.363 339.286 711.642 325.28 720.7C318.124 725.303 310.368 728.897 302.23 731.38C300.23 732.03 298.1 732.47 296.03 733.01C293.96 733.55 291.82 733.81 289.71 734.21C287.6 734.61 285.45 734.67 283.32 734.9L276.89 735.16L270.45 734.9C268.32 734.67 266.18 734.48 264.06 734.2C261.94 733.92 259.84 733.46 257.74 733.01C255.64 732.56 253.58 732.01 251.54 731.37C243.419 728.883 235.68 725.29 228.54 720.69C214.543 711.625 202.914 699.348 194.62 684.88Z" fill="#231F20"/>
<path d="M276.94 690.74C326.071 690.74 365.9 627.084 365.9 548.56C365.9 470.036 326.071 406.38 276.94 406.38C227.809 406.38 187.98 470.036 187.98 548.56C187.98 627.084 227.809 690.74 276.94 690.74Z" fill="white"/>
<path d="M272.79 152.54C65.09 154.9 71.07 344.83 71.07 344.83C95.22 480.49 272.79 465.15 272.79 465.15C272.79 465.15 450.36 480.49 474.51 344.83C474.51 344.83 480.48 154.9 272.79 152.54Z" fill="#C9C3C7"/>
<path d="M423.7 316.37C423.7 316.37 496.9 328.73 522.5 266.5C522.5 266.5 577.98 339.99 493.83 378.5C493.83 378.5 508.22 390.04 523.05 380.5C523.05 380.5 553.38 446.74 398.62 442.6L423.7 316.37Z" fill="white"/>
<path d="M493.82 378.46C495.976 379.902 498.304 381.068 500.75 381.93C503.158 382.792 505.677 383.311 508.23 383.47C508.86 383.47 509.49 383.57 510.12 383.47L512.01 383.36C512.63 383.29 513.25 383.16 513.86 383.06C514.17 383 514.48 382.97 514.78 382.89L515.68 382.62C518.071 381.923 520.338 380.857 522.4 379.46L523.56 378.74L524.11 379.96C526.955 386.493 527.757 393.733 526.41 400.73C525.718 404.225 524.504 407.596 522.81 410.73C522.4 411.53 521.89 412.26 521.43 413.03L520.72 414.17C520.47 414.54 520.18 414.88 519.91 415.24L518.28 417.36C517.7 418.04 517.07 418.67 516.47 419.36C511.504 424.378 505.704 428.496 499.33 431.53C493.098 434.595 486.589 437.06 479.89 438.89C466.628 442.454 453.057 444.747 439.36 445.74C425.74 446.91 412.1 447.07 398.49 446.93L393.32 446.87L394.32 441.68L400.32 410.07L406.49 378.49L412.66 346.91L419.03 315.38L419.94 310.85L424.52 311.59C425.52 311.75 426.76 311.9 427.91 312.02C429.06 312.14 430.27 312.24 431.46 312.32C433.83 312.49 436.23 312.54 438.62 312.57C443.409 312.584 448.194 312.307 452.95 311.74C462.415 310.721 471.674 308.291 480.42 304.53C489.082 300.787 496.927 295.381 503.51 288.62C504.37 287.82 505.12 286.91 505.9 286.03C506.68 285.15 507.5 284.3 508.2 283.34L510.34 280.52L510.88 279.82L511.37 279.08L512.37 277.59C514.972 273.602 517.236 269.405 519.14 265.04L521.86 259.16L525.49 264.22C526.49 265.55 527.2 266.73 528 268C528.8 269.27 529.52 270.53 530.25 271.8C531.69 274.36 533.02 276.97 534.25 279.62C536.735 284.938 538.743 290.467 540.25 296.14C541.794 301.833 542.709 307.678 542.98 313.57C543.261 319.495 542.688 325.429 541.28 331.19C539.782 336.908 537.421 342.364 534.28 347.37L533.09 349.22L532.5 350.14C532.29 350.44 532.06 350.72 531.84 351.01L529.14 354.46C528.2 355.57 527.14 356.59 526.14 357.66C525.64 358.18 525.14 358.72 524.64 359.23L523.02 360.67C514.386 368.251 504.485 374.253 493.77 378.4C503.89 373.23 513.43 366.86 521.22 358.83C529.072 350.992 534.472 341.037 536.76 330.18C538.81 319.45 537.6 308.29 534.29 297.85C532.616 292.609 530.519 287.512 528.02 282.61C526.76 280.15 525.43 277.74 524.02 275.39C523.3 274.22 522.57 273.06 521.81 271.92C521.05 270.78 520.25 269.62 519.51 268.66L525.86 267.84C523.917 272.676 521.576 277.342 518.86 281.79C516.151 286.283 512.988 290.485 509.42 294.33C502.207 302.024 493.558 308.231 483.96 312.6C474.452 316.938 464.334 319.788 453.96 321.05C448.825 321.698 443.655 322.032 438.48 322.05C435.89 322.05 433.3 322.05 430.71 321.83C429.41 321.75 428.12 321.65 426.82 321.53C425.52 321.41 424.27 321.27 422.82 321.04L428.31 317.25L422.14 348.83L415.77 380.37L409.39 411.9L402.84 443.4L398.65 438.16C412.03 438.58 425.41 438.56 438.73 437.91C452.004 437.355 465.197 435.567 478.14 432.57C484.548 431.123 490.803 429.067 496.82 426.43C502.773 423.903 508.255 420.382 513.03 416.02C513.6 415.46 514.21 414.93 514.76 414.35L516.31 412.55C516.57 412.24 516.85 411.95 517.08 411.64L517.77 410.64C518.21 409.99 518.71 409.36 519.11 408.64C522.473 403.152 524.082 396.767 523.72 390.34C523.578 387.116 522.958 383.931 521.88 380.89L523.6 381.39C521.253 382.781 518.702 383.793 516.04 384.39L515.04 384.61C514.71 384.67 514.37 384.69 514.04 384.73C513.36 384.79 512.69 384.88 512.04 384.91H510.04C509.37 384.875 508.702 384.805 508.04 384.7C505.414 384.335 502.855 383.594 500.44 382.5C498.069 381.444 495.844 380.086 493.82 378.46Z" fill="#231F20"/>
<path d="M121.07 316.37C121.07 316.37 47.8798 328.73 22.2698 266.5C22.2698 266.5 -33.2102 339.99 50.9398 378.5C50.9398 378.5 36.5599 390.04 21.7299 380.5C21.7299 380.5 -8.6002 446.74 146.16 442.6" fill="white"/>
<path d="M121.07 316.37C116.179 317.539 111.198 318.295 106.18 318.63C101.127 318.995 96.0556 319.015 91.0002 318.69C85.8976 318.358 80.8269 317.646 75.8301 316.56C70.7717 315.484 65.8213 313.951 61.0401 311.98C51.2804 308.036 42.432 302.134 35.0401 294.64C34.0914 293.72 33.1903 292.752 32.3401 291.74C31.4901 290.74 30.5502 289.74 29.7602 288.74C28.1171 286.673 26.5849 284.519 25.1701 282.29C24.4701 281.17 23.6801 280.11 23.0701 278.94L21.1701 275.48C20.5001 274.34 19.9901 273.13 19.4401 271.94L17.8101 268.36L26.1801 269.44C25.8701 269.86 25.4601 270.44 25.1001 270.99L24.0002 272.67C23.2702 273.8 22.5801 274.97 21.8901 276.13C20.5167 278.483 19.2267 280.876 18.0201 283.31C15.6269 288.164 13.6206 293.2 12.0201 298.37C8.90006 308.66 7.69016 319.48 9.62016 329.88C10.651 335.092 12.44 340.126 14.9301 344.82L15.9301 346.6L16.4001 347.49C16.5701 347.78 16.7701 348.05 16.9501 348.33L19.1801 351.72C19.9801 352.82 20.8701 353.85 21.7001 354.93L22.9902 356.53L24.4101 358.02C31.8501 366.14 41.1602 372.72 51.0002 378.47C39.9843 374.824 29.7673 369.104 20.9001 361.62C11.649 353.797 5.01789 343.327 1.90006 331.62C0.43486 325.704 -0.171281 319.608 0.100138 313.52C0.390346 307.503 1.35985 301.539 2.99015 295.74C4.58839 289.997 6.70365 284.411 9.3101 279.05C10.6001 276.38 11.9801 273.75 13.4801 271.19C14.2401 269.91 15.0101 268.64 15.8301 267.39L17.0701 265.51C17.5201 264.87 17.9101 264.29 18.4501 263.58L23.5201 256.78L26.8101 264.65C30.3259 273.373 35.3303 281.42 41.6001 288.43C47.9908 295.399 55.6289 301.11 64.1202 305.27C68.4185 307.417 72.8748 309.232 77.4501 310.7C82.0882 312.167 86.8143 313.339 91.6001 314.21C101.314 316.012 111.197 316.736 121.07 316.37Z" fill="#231F20"/>
<path d="M50.9401 378.46C50.0138 379.387 49.0102 380.234 47.9401 380.99C46.8537 381.774 45.7105 382.476 44.52 383.09C42.0956 384.368 39.4934 385.274 36.8001 385.78C36.1165 385.921 35.4254 386.021 34.7301 386.08L32.6101 386.21C31.9001 386.21 31.1901 386.14 30.4801 386.1C30.1201 386.1 29.76 386.1 29.4 386.02L28.3501 385.83C25.4993 385.31 22.7507 384.334 20.2101 382.94L24.4 381.71C24.33 381.94 24.1901 382.34 24.1001 382.71C24.0101 383.08 23.9101 383.44 23.8201 383.81C23.6501 384.55 23.4901 385.3 23.3801 386.06L23.2101 387.2L23.1101 388.35C23.0001 389.11 23.0101 389.87 22.9701 390.63C22.8864 393.643 23.2434 396.651 24.03 399.56C24.8193 402.41 26.0078 405.133 27.5601 407.65C27.9401 408.28 28.4201 408.86 28.8301 409.47L29.4701 410.38C29.6901 410.68 29.9501 410.95 30.1901 411.23L31.65 412.93C32.16 413.48 32.74 413.93 33.27 414.51C37.8625 418.703 43.0993 422.13 48.78 424.66C54.6467 427.35 60.7321 429.535 66.9701 431.19C79.7744 434.566 92.8095 436.996 105.97 438.46C119.25 440.09 132.67 441.19 146.21 442.62C132.731 444.615 119.115 445.528 105.49 445.35C91.6799 445.281 77.9232 443.627 64.4901 440.42C62.8001 439.98 61.1 439.62 59.42 439.09L54.42 437.47C52.74 436.98 51.11 436.23 49.42 435.6L46.9501 434.6C46.1401 434.24 45.34 433.83 44.54 433.44C37.8853 430.418 31.8367 426.209 26.6901 421.02C26.0501 420.34 25.39 419.68 24.78 419.02L23.04 416.79C22.76 416.42 22.4601 416.06 22.1901 415.67L21.4301 414.46C20.9501 413.65 20.4301 412.87 19.9801 412.03C18.1795 408.673 16.911 405.056 16.2201 401.31C15.2317 395.778 15.5224 390.093 17.0701 384.69C17.3201 383.8 17.6101 382.93 17.9301 382.05C18.0901 381.62 18.2501 381.19 18.4401 380.75C18.6301 380.31 18.8001 379.91 19.0701 379.37L20.5701 376.31L23.2601 378.14C25.1267 379.523 27.1939 380.612 29.39 381.37L30.2201 381.67C30.5001 381.76 30.7901 381.8 31.0701 381.87C31.6501 381.99 32.2201 382.15 32.8101 382.25L34.5901 382.45C35.192 382.502 35.7962 382.519 36.4 382.5C38.8909 382.506 41.3707 382.169 43.77 381.5C46.269 380.766 48.6749 379.746 50.9401 378.46Z" fill="#231F20"/>
<path d="M471.55 313.56C444.89 280.78 391.87 222.77 350.55 222.9C292.95 223.07 271.18 264.01 271.18 264.01C271.18 264.01 249.41 223.07 191.81 222.9C152 222.78 101.34 276.6 73.81 309.85C70.19 330.57 70.6301 344.85 70.6301 344.85C94.7801 480.51 272.35 465.17 272.35 465.17C272.35 465.17 449.92 480.51 474.07 344.85C474.115 334.368 473.272 323.9 471.55 313.56Z" fill="white"/>
<path d="M470.8 359.21C451.31 322.21 411.05 266.11 350.42 278.06C261.42 295.6 305.92 359.84 325.36 389.56C334.06 402.85 344.43 432.21 350.5 459.22C398.02 448.96 452.88 423.04 470.8 359.21Z" fill="#7A7176"/>
<path d="M192.7 278.06C133.19 266.33 93.3099 320.19 73.4199 357.13C90.5199 421.76 145.04 448.25 192.69 458.86C198.78 431.95 209.1 402.79 217.75 389.56C237.14 359.84 281.59 295.6 192.7 278.06Z" fill="#7A7176"/>
<path d="M296.16 359.95C292.49 349.43 289.04 328.88 289.04 288.77C289.04 235.07 318.04 188.38 339.51 161.08C320.17 155.92 298.07 152.83 272.79 152.54C247.21 152.84 224.89 155.98 205.39 161.25C226.9 188.58 255.73 235.19 255.73 288.77C255.73 328.88 252.27 349.43 248.61 359.95C246.01 367.39 249.97 375.28 258.34 379.17L262.34 381.01C265.492 382.498 268.935 383.27 272.42 383.27C275.906 383.27 279.348 382.498 282.5 381.01L286.5 379.17C294.8 375.28 298.76 367.39 296.16 359.95Z" fill="#7A7176"/>
<path d="M298.94 368.47C298.94 376.83 273.6 385.39 273.6 385.39C273.6 385.39 245.83 376.83 245.83 368.47C245.83 360.11 257.72 353.33 272.38 353.33C287.04 353.33 298.94 360.13 298.94 368.47Z" fill="#231F20"/>
<path d="M185.05 374.61C207.103 374.61 224.98 356.733 224.98 334.68C224.98 312.627 207.103 294.75 185.05 294.75C162.997 294.75 145.12 312.627 145.12 334.68C145.12 356.733 162.997 374.61 185.05 374.61Z" fill="#F7F8E2"/>
<path d="M224.97 334.68C225.394 339.993 224.679 345.336 222.87 350.35C221.018 355.446 218.142 360.108 214.42 364.05C210.649 368.026 206.111 371.196 201.08 373.37C196.015 375.508 190.578 376.626 185.08 376.66C179.58 376.635 174.141 375.513 169.08 373.36C164.045 371.195 159.505 368.023 155.74 364.04C152.007 360.107 149.13 355.442 147.29 350.34C145.48 345.33 144.757 339.991 145.17 334.68C145.952 344.988 150.522 354.642 158 361.78C165.326 368.696 175.02 372.549 185.095 372.549C195.17 372.549 204.864 368.696 212.19 361.78C219.647 354.632 224.199 344.981 224.97 334.68Z" fill="#231F20"/>
<path d="M224.97 334.68C224.187 324.375 219.617 314.724 212.14 307.59C204.816 300.669 195.121 296.813 185.045 296.813C174.968 296.813 165.274 300.669 157.95 307.59C150.472 314.728 145.902 324.382 145.12 334.69C144.707 329.379 145.429 324.04 147.24 319.03C149.082 313.929 151.959 309.265 155.69 305.33C159.458 301.35 163.997 298.179 169.03 296.01C174.091 293.857 179.53 292.736 185.03 292.71C190.527 292.744 195.965 293.862 201.03 296C206.06 298.174 210.598 301.344 214.37 305.32C218.092 309.262 220.968 313.924 222.82 319.02C224.644 324.027 225.377 329.366 224.97 334.68Z" fill="#231F20"/>
<path d="M186.93 361.56C201.395 361.56 213.12 349.835 213.12 335.37C213.12 320.906 201.395 309.18 186.93 309.18C172.466 309.18 160.74 320.906 160.74 335.37C160.74 349.835 172.466 361.56 186.93 361.56Z" fill="#040809"/>
<path d="M355.17 374.61C377.223 374.61 395.1 356.733 395.1 334.68C395.1 312.627 377.223 294.75 355.17 294.75C333.118 294.75 315.24 312.627 315.24 334.68C315.24 356.733 333.118 374.61 355.17 374.61Z" fill="#F7F8E2"/>
<path d="M395.1 334.68C395.521 339.994 394.801 345.337 392.99 350.35C391.146 355.449 388.269 360.113 384.54 364.05C380.772 368.03 376.233 371.201 371.2 373.37C366.144 375.537 360.701 376.654 355.2 376.654C349.699 376.654 344.256 375.537 339.2 373.37C334.168 371.2 329.629 368.029 325.86 364.05C322.133 360.111 319.257 355.448 317.41 350.35C315.603 345.339 314.883 340.001 315.3 334.69C316.082 344.998 320.652 354.652 328.13 361.79C335.456 368.706 345.15 372.559 355.225 372.559C365.3 372.559 374.994 368.706 382.32 361.79C389.779 354.64 394.331 344.984 395.1 334.68Z" fill="#231F20"/>
<path d="M395.1 334.68C394.318 324.375 389.747 314.724 382.27 307.59C374.946 300.669 365.252 296.813 355.175 296.813C345.099 296.813 335.404 300.669 328.08 307.59C320.602 314.728 316.032 324.382 315.25 334.69C314.834 329.379 315.553 324.041 317.36 319.03C319.209 313.933 322.085 309.27 325.81 305.33C329.582 301.354 334.12 298.184 339.15 296.01C344.206 293.843 349.649 292.726 355.15 292.726C360.651 292.726 366.094 293.843 371.15 296.01C376.183 298.179 380.722 301.35 384.49 305.33C388.219 309.267 391.096 313.93 392.94 319.03C394.766 324.033 395.502 329.369 395.1 334.68Z" fill="#231F20"/>
<path d="M357.06 361.56C371.524 361.56 383.25 349.835 383.25 335.37C383.25 320.906 371.524 309.18 357.06 309.18C342.596 309.18 330.87 320.906 330.87 335.37C330.87 349.835 342.596 361.56 357.06 361.56Z" fill="#040809"/>
<path d="M474.51 344.83C474.278 338.307 473.694 331.8 472.76 325.34C471.873 318.893 470.717 312.493 469.29 306.14C466.488 293.493 462.593 281.114 457.65 269.14C447.85 245.26 433.34 223.38 414.57 206.06C395.64 188.804 373.089 176.001 348.57 168.59C324.21 160.92 298.39 157.67 272.77 157.46C247.15 157.69 221.32 160.91 196.97 168.61L192.41 170.08C190.89 170.58 189.41 171.16 187.9 171.69C184.9 172.69 181.97 174.02 179 175.2C173.149 177.728 167.428 180.548 161.86 183.65C156.329 186.81 150.965 190.255 145.79 193.97C130.228 205.241 116.79 219.184 106.1 235.15C98.8752 245.821 92.7822 257.216 87.9199 269.15C82.9694 281.121 79.0746 293.501 76.2799 306.15C74.8399 312.49 73.6799 318.89 72.7999 325.35C71.8609 331.81 71.2767 338.316 71.0499 344.84C70.5719 331.72 71.4331 318.585 73.62 305.64C75.7263 292.619 79.0131 279.816 83.44 267.39C87.9347 254.901 93.7299 242.918 100.73 231.64C104.245 225.978 108.106 220.537 112.29 215.35C116.457 210.129 120.949 205.175 125.74 200.52C130.536 195.849 135.598 191.458 140.9 187.37C146.251 183.342 151.823 179.616 157.59 176.21C163.378 172.849 169.332 169.781 175.43 167.02C178.51 165.72 181.55 164.33 184.69 163.18C186.26 162.59 187.8 161.96 189.38 161.41L194.12 159.78C195.69 159.21 197.3 158.78 198.89 158.26C200.48 157.74 202.09 157.26 203.7 156.85L208.54 155.6L210.96 154.97L213.4 154.43L218.28 153.34C219.91 153 221.55 152.72 223.19 152.4C224.83 152.08 226.45 151.76 228.1 151.52L233.03 150.76C259.359 146.633 286.171 146.633 312.5 150.76L317.44 151.51C319.08 151.75 320.71 152.11 322.35 152.4C323.99 152.69 325.62 152.99 327.25 153.34L332.13 154.42L334.57 154.97L336.99 155.59L341.84 156.85C343.45 157.29 345.04 157.79 346.64 158.27C348.24 158.75 349.84 159.27 351.41 159.78L356.15 161.41C357.73 161.96 359.27 162.59 360.84 163.18C363.98 164.33 367.02 165.72 370.1 167.02C376.198 169.781 382.152 172.849 387.94 176.21C393.703 179.622 399.275 183.347 404.63 187.37C409.927 191.461 414.985 195.851 419.78 200.52C424.574 205.175 429.07 210.128 433.24 215.35C437.415 220.541 441.276 225.977 444.8 231.63C451.795 242.913 457.587 254.898 462.08 267.39C466.516 279.81 469.806 292.61 471.91 305.63C474.102 318.575 474.973 331.709 474.51 344.83Z" fill="#231F20"/>
<path d="M71.0698 344.83C72.3698 350.06 73.6598 355.28 75.4598 360.34C76.2498 362.9 77.2698 365.34 78.1898 367.89C78.6898 369.13 79.1899 370.35 79.7599 371.58L80.5398 373.42L81.3998 375.22C85.8746 384.858 91.5678 393.882 98.3398 402.07C101.686 406.15 105.293 410.008 109.14 413.62C112.966 417.24 117.017 420.613 121.27 423.72C125.52 426.82 129.9 429.72 134.44 432.41C138.98 435.1 143.66 437.49 148.44 439.71C153.22 441.93 158.1 443.92 163.07 445.71C168.04 447.5 173.07 449.16 178.12 450.61C188.303 453.476 198.657 455.697 209.12 457.26C219.599 458.857 230.153 459.915 240.74 460.43C246.03 460.69 251.34 460.83 256.63 460.83C259.297 460.83 261.94 460.787 264.56 460.7C267.17 460.61 269.88 460.49 272.35 460.29H272.76H273.19C275.66 460.48 278.37 460.61 280.98 460.69C283.59 460.77 286.26 460.82 288.91 460.82C294.196 460.82 299.49 460.687 304.79 460.42C315.381 459.91 325.938 458.852 336.42 457.25C346.883 455.688 357.237 453.466 367.42 450.6C372.5 449.14 377.5 447.504 382.42 445.69C387.42 443.91 392.27 441.93 397.05 439.69C401.83 437.45 406.5 435.05 411.05 432.4C415.6 429.75 419.96 426.8 424.22 423.71C428.467 420.601 432.515 417.227 436.34 413.61C440.194 410.006 443.802 406.147 447.14 402.06C453.915 393.878 459.609 384.857 464.08 375.22L464.95 373.42L465.73 371.58C466.25 370.35 466.79 369.12 467.29 367.88C468.22 365.38 469.24 362.88 470.03 360.34C471.83 355.28 473.12 350.06 474.43 344.83C473.07 355.588 470.434 366.145 466.58 376.28C462.664 386.51 457.401 396.172 450.93 405.01C447.678 409.444 444.123 413.647 440.29 417.59C436.481 421.571 432.423 425.305 428.14 428.77C423.857 432.24 419.38 435.462 414.73 438.42C410.08 441.36 405.28 444.07 400.37 446.56C390.554 451.515 380.325 455.607 369.8 458.79C359.305 461.993 348.617 464.525 337.8 466.37C327.012 468.195 316.133 469.423 305.21 470.05C299.75 470.37 294.28 470.51 288.81 470.53C286.07 470.53 283.33 470.53 280.59 470.43C277.85 470.33 275.14 470.24 272.25 470.02H273.09C270.19 470.24 267.52 470.34 264.75 470.43C261.98 470.52 259.26 470.54 256.53 470.53C251.05 470.53 245.53 470.37 240.13 470.04C229.207 469.42 218.326 468.191 207.54 466.36C196.723 464.515 186.035 461.983 175.54 458.78C165.018 455.592 154.793 451.497 144.98 446.54C135.109 441.632 125.798 435.67 117.21 428.76C112.929 425.295 108.871 421.565 105.06 417.59C101.227 413.646 97.6754 409.439 94.4298 405C87.9557 396.166 82.6892 386.507 78.7698 376.28C74.9663 366.139 72.3816 355.581 71.0698 344.83Z" fill="#231F20"/>
<path d="M315.34 390.72H278.27C277.214 385.184 276.592 379.573 276.41 373.94C276.416 373.904 276.416 373.867 276.41 373.83C276.421 373.727 276.421 373.623 276.41 373.52C276.398 373.432 276.382 373.346 276.36 373.26C276.36 373.16 276.3 373.06 276.26 372.96C276.231 372.888 276.198 372.818 276.16 372.75C276.112 372.646 276.055 372.545 275.99 372.45C275.99 372.4 275.92 372.34 275.88 372.3C275.801 372.188 275.711 372.084 275.61 371.99C275.586 371.961 275.559 371.934 275.53 371.91C275.414 371.805 275.29 371.708 275.16 371.62H275.1C274.962 371.54 274.818 371.47 274.67 371.41H274.59C274.457 371.36 274.32 371.319 274.18 371.29H274H273.85H273.39L273.07 371.34H272.83L272.53 371.44L272.3 371.54C272.21 371.54 272.13 371.64 272.04 371.69L271.83 371.83C271.752 371.891 271.679 371.958 271.61 372.03L271.43 372.21C271.365 372.282 271.305 372.359 271.25 372.44L271.1 372.66C271.1 372.74 271.01 372.83 270.97 372.91C270.93 372.99 270.9 373.09 270.87 373.18C270.838 373.265 270.811 373.352 270.79 373.44L270.73 373.74C270.734 373.777 270.734 373.814 270.73 373.85C270.19 379.588 269.187 385.274 267.73 390.85H230.64C230.64 390.85 223.88 445.98 271.05 445.98C318.22 445.98 315.34 390.72 315.34 390.72Z" fill="#231F20"/>
<path d="M238.33 429.85C244.19 438.85 254.15 445.85 270.96 445.85C288.58 445.85 299.23 438.15 305.66 428.51C298.55 421.1 286.41 416.21 272.6 416.21C257.97 416.21 245.22 421.69 238.33 429.85Z" fill="#F16B6C"/>
<path d="M550.52 237.13C550.52 269.74 428.03 257.24 276.95 257.24C125.87 257.24 3.37012 269.74 3.37012 237.13C3.37012 204.52 125.86 129.39 276.95 129.39C428.04 129.39 550.52 204.54 550.52 237.13Z" fill="#EECA6C"/>
<path d="M3.36984 237.13C3.3518 235.522 3.53994 233.919 3.92977 232.36C4.35875 230.8 4.92433 229.281 5.61984 227.82C7.02303 224.909 8.71834 222.148 10.6798 219.58C14.6463 214.479 19.0824 209.762 23.9298 205.49C33.6552 197.024 44.1129 189.437 55.1798 182.82C77.3409 169.622 100.797 158.732 125.18 150.32C137.32 146.006 149.653 142.253 162.18 139.06C174.706 135.866 187.31 133.157 199.99 130.93C250.976 122.083 303.104 122.083 354.09 130.93C366.756 133.143 379.356 135.853 391.89 139.06C398.13 140.66 404.337 142.393 410.51 144.26C416.683 146.126 422.8 148.146 428.86 150.32C453.243 158.73 476.7 169.62 498.86 182.82C509.924 189.44 520.379 197.03 530.1 205.5C534.952 209.763 539.389 214.477 543.35 219.58C545.311 222.154 547.009 224.917 548.42 227.83C549.112 229.291 549.674 230.81 550.1 232.37C550.495 233.928 550.683 235.532 550.66 237.14C550.352 233.97 549.326 230.913 547.66 228.2C546.069 225.469 544.207 222.906 542.1 220.55C537.888 215.83 533.245 211.515 528.23 207.66C518.184 199.943 507.506 193.085 496.31 187.16C485.168 181.131 473.712 175.704 461.99 170.9C456.13 168.51 450.24 166.18 444.29 164C438.34 161.82 432.35 159.79 426.29 157.87C420.23 155.95 414.19 154.14 408.09 152.49C401.99 150.84 395.87 149.19 389.71 147.74C377.403 144.833 364.996 142.41 352.49 140.47C302.469 132.533 251.51 132.533 201.49 140.47C189.003 142.403 176.596 144.83 164.27 147.75C158.11 149.19 151.99 150.82 145.89 152.49C139.79 154.16 133.71 155.95 127.68 157.87C121.65 159.79 115.68 161.87 109.68 164.01C103.68 166.15 97.8498 168.51 91.9898 170.91C80.2782 175.7 68.8317 181.114 57.6998 187.13C46.5008 193.055 35.8228 199.916 25.7797 207.64C20.7678 211.495 16.1276 215.81 11.9198 220.53C9.81304 222.886 7.95027 225.449 6.35983 228.18C4.69519 230.897 3.67257 233.958 3.36984 237.13Z" fill="#221F1F"/>
<path d="M550.52 237.13C550.566 238.617 550.36 240.101 549.91 241.52C549.373 242.926 548.617 244.24 547.67 245.41C545.659 247.664 543.244 249.523 540.55 250.89C535.178 253.501 529.501 255.429 523.65 256.63C517.86 257.906 512.009 258.891 506.12 259.58C500.25 260.31 494.37 260.87 488.48 261.33C464.92 262.97 441.35 263.26 417.83 263.33H400.19L382.57 263.18L347.33 262.84C323.86 262.58 300.4 262.29 276.95 262.39C253.49 262.31 230.03 262.57 206.56 262.85L171.33 263.19L153.7 263.34H136.06C112.54 263.34 88.98 263.03 65.41 261.34C59.53 260.88 53.64 260.34 47.77 259.59C41.881 258.901 36.0304 257.916 30.2401 256.64C24.3874 255.43 18.7074 253.498 13.3301 250.89C10.6384 249.524 8.22677 247.665 6.22008 245.41C5.27286 244.24 4.51686 242.926 3.98008 241.52C3.53021 240.101 3.32397 238.617 3.3701 237.13C3.46648 238.586 3.80443 240.015 4.3701 241.36C4.99357 242.654 5.81694 243.842 6.81004 244.88C8.89964 246.852 11.3378 248.419 14.0001 249.5C19.3897 251.637 25.022 253.101 30.77 253.86C42.3317 255.43 53.9824 256.255 65.65 256.33C77.34 256.59 89.05 256.49 100.77 256.24C112.49 255.99 124.21 255.73 135.94 255.33L153.54 254.73L171.14 254.2L206.38 253.14C229.88 252.56 253.403 252.227 276.95 252.14C300.483 252.24 324.003 252.573 347.51 253.14L382.75 254.2L417.95 255.34C429.68 255.73 441.4 255.99 453.12 256.25C464.84 256.51 476.55 256.59 488.24 256.34C499.911 256.257 511.565 255.428 523.13 253.86C528.874 253.095 534.502 251.631 539.89 249.5C542.553 248.415 544.991 246.845 547.08 244.87C548.073 243.832 548.897 242.644 549.52 241.35C550.089 240.01 550.427 238.583 550.52 237.13Z" fill="#221F1F"/>
<path d="M118.49 188.84C118.49 188.84 124.16 78.6502 158 44.2402C158 44.2402 226.86 4.52002 279.51 4.52002C332.16 4.52002 401.83 44.2402 401.83 44.2402C401.83 44.2402 446.83 150.75 439.83 188.84C439.83 188.84 337.83 224.51 276.98 224.51C216.13 224.51 118.49 188.84 118.49 188.84Z" fill="#EECA6C"/>
<path d="M439.8 188.84C441.54 179.41 440.09 165.84 436.92 150.65C436.92 150.65 331.41 175.59 276.92 175.59C222.43 175.59 122.24 150.65 122.24 150.65C119.3 172.6 118.46 188.84 118.46 188.84C118.46 188.84 216.02 224.51 276.92 224.51C337.82 224.51 439.8 188.84 439.8 188.84Z" fill="#6874B5"/>
<path d="M401.83 44.2402C407.29 55.5702 412.3 67.11 417.08 78.76C421.86 90.41 426.31 102.21 430.32 114.18C432.32 120.18 434.23 126.204 436.05 132.25C437.83 138.33 439.41 144.48 440.83 150.69C442.285 156.96 443.407 163.302 444.19 169.69C444.42 171.29 444.52 172.93 444.66 174.56C444.8 176.19 444.83 177.85 444.87 179.5C444.91 181.15 444.81 182.85 444.75 184.5C444.718 185.357 444.638 186.212 444.51 187.06L444.19 189.65L443.88 192.12L441.27 193.05C434.7 195.41 428.18 197.6 421.59 199.76C418.31 200.84 415.02 201.91 411.72 202.94C408.42 203.97 405.12 205.01 401.8 205.94C395.18 207.94 388.52 209.81 381.85 211.68L371.85 214.32C368.51 215.22 365.13 216 361.77 216.84C348.3 220.1 334.77 223.02 320.97 225.19C307.17 227.36 293.33 229.13 279.16 229.05C278.28 229.05 277.4 229.12 276.52 229.05L273.87 228.93L268.59 228.69C265.05 228.61 261.59 228.17 258.1 227.83L252.87 227.29C251.14 227.1 249.42 226.8 247.69 226.54L242.53 225.73C240.81 225.46 239.08 225.22 237.38 224.86L227.14 222.86C223.74 222.18 220.37 221.36 216.98 220.62C215.29 220.24 213.6 219.88 211.91 219.47L206.91 218.2C203.56 217.31 200.19 216.52 196.91 215.55L186.91 212.75L176.99 209.75C173.67 208.75 170.41 207.65 167.12 206.6C163.83 205.55 160.56 204.44 157.3 203.32L152.4 201.66L147.52 199.91C144.28 198.75 141.043 197.56 137.81 196.34C131.35 193.94 124.943 191.4 118.59 188.72C145.02 196.52 171.59 203.54 198.39 209.43C211.81 212.21 225.22 214.94 238.72 216.79C252.22 218.64 265.72 219.96 279.11 219.67C282.47 219.5 285.82 219.39 289.17 219.17L299.25 218.17C300.93 218.04 302.61 217.77 304.25 217.54L309.25 216.84C310.92 216.59 312.61 216.38 314.25 216.12L319.25 215.23L324.25 214.35C325.93 214.07 327.61 213.78 329.25 213.43L339.25 211.43C342.59 210.74 345.92 209.95 349.25 209.22L354.25 208.1L359.25 206.9C372.55 203.73 385.78 200.19 398.95 196.44C412.12 192.69 425.31 188.82 438.23 184.53L435.32 187.94C436.32 182.48 436.18 176.4 435.74 170.38C435.237 164.26 434.406 158.171 433.25 152.14C432.11 146.06 430.77 139.99 429.32 133.93C427.87 127.87 426.32 121.83 424.64 115.81C421.25 103.81 417.64 91.8101 413.78 79.8101C409.92 67.8101 406 56.1302 401.83 44.2402Z" fill="#221F1F"/>
<path d="M118.49 188.84C118.49 185.66 118.49 182.48 118.59 179.31C118.69 176.14 118.79 172.95 118.95 169.77C119.27 163.42 119.69 157.07 120.3 150.77C121.434 138.103 123.16 125.466 125.48 112.86C126.634 106.56 128.017 100.296 129.63 94.0697C131.25 87.8497 133.01 81.6397 135.2 75.5297C137.363 69.3541 139.959 63.3391 142.97 57.5297C146.041 51.4782 149.949 45.89 154.58 40.9298L154.99 40.4899L155.6 40.1298C160.43 37.3098 165.19 34.7897 170.07 32.2997C174.95 29.8097 179.82 27.4198 184.78 25.1398C194.7 20.5998 204.78 16.3997 215.12 12.7597C220.29 10.9597 225.48 9.20984 230.77 7.69984C236.06 6.18984 241.37 4.79984 246.77 3.69984C257.641 1.26654 268.751 0.0622324 279.89 0.109751C290.987 0.48311 302.01 2.07261 312.76 4.84974C318.09 6.15974 323.34 7.7298 328.53 9.4098C333.72 11.0898 338.84 12.9999 343.91 14.9799C354.05 18.9099 363.91 23.4597 373.6 28.3197C383.27 33.1741 392.689 38.5143 401.82 44.3197C382.381 35.1234 362.377 27.1707 341.93 20.5097C336.84 18.8997 331.72 17.3597 326.56 16.0397C321.4 14.7197 316.25 13.4098 311.06 12.4198C300.8 10.2599 290.345 9.15748 279.86 9.12977C274.671 9.24506 269.492 9.65907 264.35 10.3698C259.17 11.0698 254.03 12.1297 248.89 13.2697C238.601 15.712 228.461 18.7438 218.52 22.3497C208.52 25.9597 198.66 29.9597 188.96 34.3497C184.11 36.5497 179.28 38.7898 174.5 41.1598C169.72 43.5298 164.95 45.9799 160.39 48.4699L161.39 47.6798C157.278 51.9353 153.763 56.729 150.94 61.9298C147.961 67.2908 145.332 72.839 143.07 78.5397C138.53 90.1865 134.794 102.131 131.89 114.29C130.33 120.38 128.96 126.54 127.7 132.71C126.44 138.88 125.19 145.09 124.12 151.32C122 163.71 120.05 176.23 118.49 188.84Z" fill="#221F1F"/>
<path d="M122.27 150.65C148.66 154.41 174.89 158.65 201.13 162.47C207.68 163.47 214.24 164.33 220.79 165.28C227.34 166.23 233.9 167.05 240.45 167.75C243.73 168.13 247 168.53 250.27 168.82L255.17 169.3L257.62 169.54L260.06 169.7C266.517 170.264 272.999 170.501 279.48 170.41C285.9 170.33 292.48 169.83 298.96 169.25L308.78 168.3L318.61 167.16C331.72 165.57 344.84 163.78 357.97 161.91C384.23 158.16 410.49 154.15 436.97 150.65C411.43 158.31 385.5 164.5 359.38 169.82L349.56 171.75L339.72 173.54C336.44 174.14 333.15 174.71 329.84 175.21C326.53 175.71 323.25 176.3 319.94 176.76C306.61 178.854 293.165 180.144 279.68 180.62C265.91 180.8 252.53 179.17 239.26 177.33C225.99 175.49 212.85 173.05 199.79 170.33C186.73 167.61 173.73 164.68 160.79 161.4C147.85 158.12 134.99 154.68 122.27 150.65Z" fill="#221F1F"/>
<path d="M408.28 305.28C407.715 305.281 407.162 305.119 406.687 304.814C406.211 304.509 405.834 304.074 405.6 303.56C405.04 302.33 391.5 273.49 360.03 276.99C359.254 277.076 358.476 276.851 357.866 276.363C357.257 275.875 356.866 275.166 356.78 274.39C356.694 273.614 356.919 272.836 357.407 272.226C357.894 271.617 358.604 271.226 359.38 271.14C395.17 267.14 410.81 300.78 410.96 301.14C411.164 301.588 411.253 302.081 411.217 302.572C411.182 303.063 411.023 303.538 410.756 303.952C410.49 304.366 410.123 304.707 409.69 304.942C409.257 305.178 408.772 305.301 408.28 305.3V305.28Z" fill="#231F20"/>
<path d="M136.48 305.28C136.062 305.282 135.649 305.194 135.27 305.02C134.567 304.687 134.021 304.095 133.747 303.367C133.473 302.64 133.492 301.834 133.8 301.12C133.96 300.78 149.61 267.17 185.38 271.12C185.764 271.163 186.136 271.281 186.475 271.467C186.813 271.653 187.111 271.905 187.353 272.206C187.594 272.508 187.774 272.855 187.882 273.226C187.989 273.597 188.023 273.986 187.98 274.37C187.937 274.754 187.819 275.126 187.633 275.465C187.446 275.803 187.195 276.102 186.893 276.343C186.592 276.585 186.245 276.764 185.874 276.872C185.503 276.979 185.114 277.013 184.73 276.97C153.26 273.47 139.73 302.31 139.16 303.54C138.928 304.058 138.552 304.497 138.077 304.806C137.601 305.115 137.047 305.279 136.48 305.28Z" fill="#231F20"/>
<path d="M182.2 395.93C167.673 395.928 153.473 391.618 141.396 383.546C129.318 375.474 119.906 364.002 114.348 350.581C108.79 337.16 107.337 322.392 110.172 308.144C113.008 293.897 120.004 280.81 130.276 270.539C140.549 260.268 153.636 253.274 167.884 250.44C182.132 247.607 196.9 249.062 210.32 254.622C223.741 260.181 235.212 269.596 243.282 281.674C251.352 293.753 255.66 307.953 255.66 322.48C255.639 341.955 247.892 360.627 234.12 374.397C220.348 388.167 201.675 395.911 182.2 395.93ZM182.2 263.76C170.584 263.76 159.228 267.205 149.57 273.658C139.912 280.112 132.384 289.285 127.939 300.017C123.495 310.749 122.332 322.558 124.599 333.951C126.866 345.344 132.46 355.809 140.675 364.022C148.889 372.235 159.355 377.828 170.748 380.093C182.141 382.357 193.95 381.193 204.682 376.746C215.413 372.3 224.585 364.771 231.037 355.111C237.489 345.452 240.932 334.096 240.93 322.48C240.914 306.91 234.721 291.982 223.71 280.973C212.699 269.964 197.77 263.773 182.2 263.76Z" fill="#221E57"/>
<path opacity="0.37" d="M236.452 344.961C248.863 314.999 234.635 280.65 204.673 268.239C174.712 255.829 140.362 270.057 127.952 300.018C115.541 329.98 129.769 364.329 159.731 376.74C189.692 389.15 224.042 374.922 236.452 344.961Z" fill="#69A9DC"/>
<path opacity="0.44" d="M154.38 374.18L234.52 349.11C238.762 340.811 240.959 331.619 240.93 322.299C240.9 312.979 238.644 303.801 234.35 295.53L124.42 332.88C125.997 341.57 129.509 349.794 134.695 356.943C139.881 364.092 146.609 369.983 154.38 374.18Z" fill="white"/>
<path d="M361.79 395.93C347.263 395.93 333.062 391.622 320.983 383.551C308.904 375.48 299.49 364.009 293.931 350.588C288.372 337.167 286.917 322.398 289.751 308.15C292.585 293.902 299.581 280.815 309.853 270.543C320.125 260.271 333.213 253.275 347.461 250.441C361.708 247.607 376.477 249.062 389.898 254.621C403.319 260.18 414.791 269.595 422.861 281.673C430.932 293.752 435.24 307.953 435.24 322.48C435.219 341.954 427.474 360.624 413.704 374.394C399.934 388.163 381.264 395.909 361.79 395.93ZM361.79 263.76C350.173 263.758 338.817 267.201 329.158 273.654C319.498 280.106 311.969 289.278 307.522 300.01C303.076 310.742 301.912 322.552 304.178 333.945C306.444 345.338 312.037 355.804 320.252 364.018C328.466 372.232 338.931 377.826 350.325 380.092C361.718 382.358 373.528 381.194 384.259 376.747C394.991 372.301 404.164 364.772 410.616 355.112C417.069 345.453 420.512 334.097 420.51 322.48C420.494 306.911 414.302 291.985 403.294 280.976C392.285 269.967 377.359 263.776 361.79 263.76Z" fill="#221E57"/>
<path opacity="0.37" d="M416.038 344.951C428.449 314.989 414.221 280.64 384.259 268.23C354.298 255.819 319.948 270.047 307.538 300.009C295.127 329.97 309.355 364.32 339.317 376.73C369.278 389.141 403.628 374.913 416.038 344.951Z" fill="#69A9DC"/>
<path opacity="0.44" d="M333.97 374.18L414.1 349.13C418.342 340.831 420.54 331.639 420.51 322.319C420.48 312.999 418.225 303.821 413.93 295.55L304.01 332.9C305.588 341.587 309.1 349.808 314.286 356.954C319.473 364.099 326.2 369.987 333.97 374.18Z" fill="white"/>
<path d="M303.06 327.56H292.24C292.123 322.268 289.938 317.233 286.154 313.533C282.37 309.832 277.288 307.76 271.995 307.76C266.703 307.76 261.62 309.832 257.836 313.533C254.052 317.233 251.868 322.268 251.75 327.56H240.93C241.076 319.417 244.413 311.658 250.223 305.951C256.033 300.245 263.851 297.047 271.995 297.047C280.139 297.047 287.957 300.245 293.767 305.951C299.577 311.658 302.914 319.417 303.06 327.56Z" fill="#221E57"/>
</g>
<defs>
<clipPath id="clip0_4352_380">
<rect width="550.52" height="903.76" fill="white"/>
</clipPath>
</defs>
</svg>
