<svg width="349" height="454" viewBox="0 0 349 454" fill="none" xmlns="http://www.w3.org/2000/svg">
<g clip-path="url(#clip0_4865_371)">
<path d="M174.5 453.319C270.874 453.319 349 436.939 349 416.733C349 396.527 270.874 380.146 174.5 380.146C78.1263 380.146 0 396.527 0 416.733C0 436.939 78.1263 453.319 174.5 453.319Z" fill="#A7A9AC"/>
<path d="M312.194 246.731C312.042 246.01 311.884 245.294 311.72 244.578C311.405 243.158 311.061 241.726 310.712 240.317C310.537 239.612 310.356 238.908 310.148 238.214C309.793 236.839 309.409 235.441 309.021 234.049C308.632 232.657 308.231 231.31 307.82 229.957C307.409 228.604 306.986 227.268 306.552 225.944C306.118 224.619 305.678 223.306 305.227 221.998C304.1 218.819 302.928 215.635 301.671 212.523C301.282 211.554 300.887 210.601 300.487 209.649C300.273 209.136 300.053 208.628 299.839 208.127C299.275 206.876 298.751 205.63 298.199 204.418C291.486 189.65 283.64 177.104 276.092 169.083C275.506 168.455 274.924 167.841 274.345 167.24L273.838 166.715C273.421 166.276 273.003 165.848 272.592 165.425L272.028 164.861L270.721 163.537L270.315 163.125C269.751 162.562 269.188 161.998 268.624 161.434L266.933 159.783L265.242 158.142L263.269 156.249L261.505 154.558L259.177 152.376L257.216 150.556C255.885 149.321 254.566 148.109 253.27 146.892C249.646 143.555 246.219 140.399 242.724 137.045L241.129 135.506L241.022 135.405C239.331 133.748 237.747 132.175 236.203 130.597L236.034 130.422L234.568 128.906L234.422 128.754C233.294 127.627 232.223 126.437 231.169 125.293L231.085 125.197C230.583 124.634 230.082 124.07 229.597 123.557L229.343 123.275C228.847 122.712 228.351 122.148 227.833 121.584L227.737 121.477C226.638 120.22 225.522 118.924 224.434 117.616L224.203 117.34C223.724 116.776 223.25 116.213 222.765 115.604L222.501 115.277C221.952 114.604 221.403 113.922 220.855 113.231C208.962 98.2831 197.001 79.3274 184.291 55.2878C173.542 34.957 160.617 19.9639 145.963 10.7595C134.577 3.61247 122.363 -0.0117188 109.647 -0.0117188C98.8022 -0.0117188 90.9561 2.67687 88.1886 3.78163C64.5154 8.80937 47.1719 24.9186 37.9957 50.4293C30.6683 70.7771 28.8702 96.4062 32.9228 122.576C37.4659 151.999 31.7505 187.96 26.7227 219.715C24.3554 234.63 22.1177 248.721 21.0862 261.053C19.8124 276.588 25.0318 305.909 39.5514 336.408C51.2358 360.932 72.6827 393.996 108.519 412.224L109.151 412.54C109.827 412.878 110.504 413.21 111.197 413.543L111.963 413.904C112.674 414.236 113.384 414.563 114.105 414.884L114.669 415.144C115.621 415.561 116.557 415.955 117.436 416.316L117.791 416.457C118.599 416.784 119.413 417.103 120.232 417.415L121.032 417.714C121.731 417.973 122.436 418.227 123.146 418.475L123.947 418.757C124.826 419.055 125.716 419.349 126.607 419.631L126.821 419.698C127.757 419.991 128.726 420.262 129.78 420.577L130.502 420.78C131.257 420.989 132.012 421.192 132.756 421.383L133.669 421.615C134.436 421.806 135.203 421.987 135.98 422.178L136.713 422.347C137.795 422.584 138.804 422.793 139.791 422.979L140.157 423.046C141.065 423.221 141.978 423.379 142.896 423.531L143.826 423.677C144.578 423.798 145.345 423.91 146.126 424.016L147.079 424.145C147.986 424.264 148.899 424.371 149.812 424.466L150.275 424.517C151.3 424.624 152.394 424.72 153.521 424.805L154.339 424.861C155.161 424.917 155.984 424.968 156.819 425.007C157.168 425.007 157.517 425.041 157.867 425.058C158.684 425.092 159.502 425.115 160.324 425.137H161.232C161.942 425.137 162.652 425.137 163.368 425.137H164.935C165.95 425.137 166.97 425.098 167.996 425.058L169.05 425.019C169.867 424.979 170.69 424.94 171.513 424.889H171.581L172.623 424.822C173.559 424.76 174.5 424.681 175.441 424.596L176.118 424.54C177.245 424.433 178.429 424.303 179.641 424.162L180.537 424.044C181.433 423.937 182.329 423.813 183.231 423.683L184.409 423.508C185.272 423.379 186.14 423.238 187.008 423.091L188.079 422.911C189.392 422.68 190.581 422.454 191.708 422.229L191.973 422.172C193.101 421.941 194.228 421.693 195.406 421.434L196.567 421.169C197.441 420.966 198.32 420.752 199.205 420.532L200.451 420.222C201.42 419.974 202.39 419.715 203.37 419.444L204.244 419.208C205.478 418.858 206.752 418.486 208.037 418.08L208.995 417.782C209.959 417.483 210.929 417.178 211.91 416.857L213.212 416.423C214.119 416.119 215.038 415.803 215.951 415.482L217.185 415.048C218.572 414.552 219.823 414.09 221.007 413.645L221.108 413.605C247.459 403.566 268.737 389.656 284.355 372.256C298.246 356.81 307.97 338.078 312.611 317.83C312.791 317.052 312.966 316.268 313.135 315.491C314.773 307.806 315.778 299.999 316.139 292.15C316.179 291.333 316.213 290.51 316.241 289.692C316.269 288.875 316.286 288.137 316.297 287.359C316.477 273.704 315.1 260.074 312.194 246.731Z" fill="#231F20"/>
<path d="M90.7191 11.903C90.7191 11.903 139.937 -10.5809 176.867 59.2495C216.548 134.311 238.829 141.756 269.965 174.854C301.101 207.951 357.263 352.73 218.109 405.73C78.9557 458.73 25.9503 304.983 29.5013 261.757C32.6521 223.463 48.1749 166.084 41.2645 121.296C34.3542 76.5085 44.2181 21.2032 90.7191 11.903Z" fill="#3E3031"/>
<path d="M156.142 398.882C129.487 397.028 106.05 384.537 86.4919 361.755C56.2127 326.498 45.943 285.352 47.0365 263.223C47.6001 251.849 50.1365 238.248 52.4249 223.835C57.7627 190.208 63.8163 152.094 58.6251 118.631C54.0426 88.9544 56.3705 36.7155 94.1011 29.1738C94.1011 29.1738 103.92 25.5721 112.318 26.1583C130.699 27.4377 147.614 41.7376 161.237 67.5019C192.277 126.217 214.294 146.492 235.588 166.095C242.487 172.448 249.617 179.014 257.069 186.95C274.052 204.987 298.677 262.079 287.303 311.517C279.108 347.173 253.704 373.343 211.774 389.3C192.041 396.859 173.294 400.077 156.142 398.882Z" fill="#DCDDAD"/>
<path d="M141.087 176.766C152.253 172.527 213.408 182.639 230.284 252.368C247.16 322.097 189.431 334.819 189.431 334.819C189.431 334.819 129.453 355.719 108.299 287.365C87.1455 219.012 129.926 180.999 141.087 176.766Z" fill="#A86145"/>
<path d="M123.783 317.26C149.975 348.531 189.431 334.79 189.431 334.79C189.431 334.79 247.16 322.096 230.284 252.367C221.925 217.816 202.665 197.908 184.065 187.125C184.065 187.125 216.92 302.594 123.783 317.26Z" fill="#79412D"/>
<path d="M145.342 333.296C167.403 342.461 189.431 334.79 189.431 334.79C189.431 334.79 247.16 322.096 230.284 252.367C224.93 230.227 215.099 214.101 203.832 202.535C255.214 307.763 145.342 333.296 145.342 333.296Z" fill="#502314"/>
<path d="M192.678 234.658C199.845 230.443 200.471 218.212 194.077 207.339C187.683 196.466 176.689 191.069 169.522 195.284C162.355 199.499 161.728 211.73 168.122 222.603C174.517 233.476 185.51 238.873 192.678 234.658Z" fill="#F6FAFE"/>
<path d="M201.91 249.561C204.905 249.561 207.332 247.134 207.332 244.139C207.332 241.144 204.905 238.717 201.91 238.717C198.915 238.717 196.488 241.144 196.488 244.139C196.488 247.134 198.915 249.561 201.91 249.561Z" fill="#F6FAFE"/>
<g style="mix-blend-mode:multiply">
<path d="M295.927 340.127C125.953 428.879 54.8146 273.441 35.5548 218.074C33.0352 233.992 30.5889 248.957 29.5349 261.78C25.9839 305.006 79.0177 458.752 218.143 405.752C259.171 390.122 283.211 366.505 295.927 340.127Z" fill="#AAC974"/>
</g>
</g>
<defs>
<clipPath id="clip0_4865_371">
<rect width="349" height="453.32" fill="white"/>
</clipPath>
</defs>
</svg>
