<svg width="623" height="964" viewBox="0 0 623 964" fill="none" xmlns="http://www.w3.org/2000/svg">
<g clip-path="url(#clip0_4342_750)">
<path d="M84.2805 629.75C72.9405 622.75 67.7504 610.84 77.9404 588.75C88.5304 565.75 104.55 576.24 104.55 576.24C95.9404 566.58 98.4004 555 112.97 534.73C127.54 514.46 137.41 526.34 137.41 526.34C133.55 513.54 140.34 503.48 161.3 490.69C180.02 479.28 186.18 500.14 187.3 504.69C186.65 501.15 185.44 487.2 202.75 473.26C222.75 457.12 254.54 469.26 254.54 469.26L275.72 481.5L300.16 482.81C300.16 482.81 333.43 489.81 341.5 514.25C348.5 535.36 339.88 546.41 337.42 549.03C340.83 545.78 357.32 531.6 366.85 551.35C377.51 573.46 377.75 585.6 367.56 594.26C367.56 594.26 382.3 589.62 383.56 614.56C384.82 639.5 380.56 650.56 368.11 654C368.11 654 387.23 653.92 383.67 679C380.24 703.07 369.42 710.26 356.09 710C358.93 710.31 364.68 711.9 365.97 719.58C367.71 729.88 365.97 740.89 337.23 758.74C270.29 800.32 192.23 764.74 192.23 764.74C192.23 764.74 104.56 756.29 73.6804 681.02C60.8404 649.72 63.7404 640.24 70.7903 632.53C76.0403 626.68 81.7205 628.47 84.2805 629.75Z" fill="#7D5A53"/>
<path d="M187.27 504.73C187.479 501.03 188.396 497.405 189.97 494.05C191.443 490.845 193.384 487.876 195.73 485.24C198.053 482.607 200.636 480.215 203.44 478.1C204.14 477.57 204.84 477.01 205.54 476.51C206.24 476.01 206.9 475.57 207.62 475.17C208.34 474.77 209.04 474.33 209.79 473.98C210.54 473.63 211.29 473.29 212.04 472.98C218.435 470.524 225.265 469.401 232.11 469.68C233.87 469.68 235.64 469.81 237.41 469.94C239.18 470.07 240.97 470.3 242.75 470.53C244.53 470.76 246.31 471.08 248.09 471.41C248.98 471.58 249.86 471.76 250.74 471.96C251.62 472.16 252.53 472.36 253.28 472.55L252.81 472.33C254.66 473.2 256.55 474.02 258.42 474.85C260.29 475.68 262.19 476.47 264.1 477.25C267.91 478.8 271.77 480.25 275.75 481.53C272.65 478.74 269.42 476.16 266.16 473.65C264.52 472.4 262.87 471.18 261.22 469.96C259.57 468.74 257.89 467.56 256.22 466.41L255.78 466.21C253.941 465.368 252.058 464.623 250.14 463.98C248.26 463.33 246.36 462.77 244.42 462.29C240.531 461.309 236.562 460.68 232.56 460.41C228.467 460.123 224.356 460.291 220.3 460.91C218.236 461.25 216.196 461.717 214.19 462.31C213.19 462.6 212.19 463 211.19 463.31C210.19 463.62 209.19 464.1 208.27 464.59C207.305 465.047 206.367 465.558 205.46 466.12C204.53 466.65 203.66 467.26 202.78 467.88C201.91 468.504 201.072 469.172 200.27 469.88C199.5 470.57 198.79 471.27 198.05 471.97C195.113 474.809 192.564 478.023 190.47 481.53C188.374 485.058 186.95 488.944 186.27 492.99C185.564 496.923 185.909 500.973 187.27 504.73Z" fill="#221E20"/>
<path d="M137.411 526.35C137.297 523.02 137.865 519.703 139.081 516.6C140.297 513.823 142.039 511.306 144.211 509.19C148.541 504.83 154.001 501.19 159.531 497.5C160.901 496.56 162.341 495.68 163.731 494.76C164.923 493.973 166.177 493.284 167.481 492.7C168.641 492.174 169.865 491.797 171.121 491.58C172.267 491.395 173.439 491.435 174.571 491.7C176.891 492.2 179.301 494 181.421 496.37C183.638 498.96 185.597 501.76 187.271 504.73C187.45 501.044 186.829 497.363 185.451 493.94C184.71 492.097 183.699 490.375 182.451 488.83C181.093 487.125 179.389 485.728 177.451 484.73C175.383 483.694 173.103 483.15 170.791 483.14C168.6 483.118 166.421 483.456 164.341 484.14C162.426 484.79 160.581 485.628 158.831 486.64C157.311 487.58 155.831 488.48 154.291 489.46C151.261 491.445 148.38 493.647 145.671 496.05C142.851 498.557 140.37 501.422 138.291 504.57C136.091 507.866 134.788 511.678 134.511 515.63C134.302 519.422 135.318 523.181 137.411 526.35Z" fill="#221E20"/>
<path d="M104.55 576.25C103.214 573.498 102.464 570.497 102.35 567.44C102.361 564.695 102.905 561.978 103.95 559.44C104.41 558.14 105.06 556.85 105.64 555.56C106.22 554.27 106.95 552.99 107.73 551.72C109.17 549.15 110.79 546.6 112.43 544.04C113.28 542.76 114.05 541.46 114.94 540.19C115.83 538.92 116.62 537.53 117.45 536.4L118.67 534.59C118.865 534.287 119.078 533.996 119.31 533.72L119.96 532.88C120.4 532.33 120.81 531.71 121.28 531.22L122.66 529.67C124.41 527.723 126.596 526.219 129.04 525.28C130.337 524.898 131.695 524.772 133.04 524.91C134.578 525.114 136.064 525.606 137.42 526.36C136.671 524.773 135.507 523.418 134.05 522.44C132.453 521.399 130.628 520.761 128.73 520.58C125.837 520.459 122.963 521.093 120.39 522.42C119.56 522.824 118.755 523.278 117.98 523.78L115.78 525.36C115.04 525.91 114.46 526.53 113.78 527.12C112.501 528.293 111.308 529.556 110.21 530.9C109.03 532.22 108.21 533.51 107.15 534.82C106.09 536.13 105.3 537.52 104.37 538.87C103.44 540.22 102.65 541.7 101.83 543.14C101.01 544.58 100.25 546.14 99.61 547.69C98.1396 550.864 97.1294 554.231 96.61 557.69C96.0267 561.334 96.42 565.068 97.75 568.51C99.0954 571.773 101.488 574.496 104.55 576.25Z" fill="#221E20"/>
<path d="M84.2799 629.75C82.0676 627.349 80.1935 624.658 78.7098 621.75C77.445 619.143 76.7269 616.305 76.5999 613.41C76.2899 607.79 77.9398 601.96 80.0698 596.16C82.1998 590.36 84.5498 584.57 88.2898 580.57C90.1147 578.513 92.4871 577.019 95.1299 576.26C98.2218 575.483 101.458 575.483 104.55 576.26C101.998 573.554 98.5363 571.887 94.8298 571.58C92.8403 571.409 90.8362 571.609 88.9198 572.17C86.9832 572.735 85.1523 573.613 83.4999 574.77C81.8816 575.877 80.407 577.18 79.1099 578.65C77.8469 580.052 76.7124 581.565 75.7198 583.17C75.2166 583.946 74.7527 584.747 74.3298 585.57L73.6898 586.78L73.1299 587.98C72.4099 589.59 71.6698 591.18 71.0798 592.87C69.7939 596.277 68.9178 599.826 68.4698 603.44L68.2399 606.23C68.2399 607.23 68.2399 608.13 68.2399 609.07C68.3386 610.998 68.647 612.909 69.1598 614.77C70.1671 618.499 72.1562 621.891 74.9198 624.59C77.5442 627.086 80.7681 628.863 84.2799 629.75Z" fill="#221E20"/>
<path d="M192.221 764.64C183.399 762.637 174.744 759.963 166.331 756.64C158.005 753.397 149.918 749.571 142.131 745.19C126.681 736.573 112.728 725.514 100.811 712.44C94.9077 705.893 89.5562 698.869 84.8107 691.44C82.4107 687.74 80.1707 683.937 78.0907 680.03C75.9607 676.14 73.9807 672.17 72.2007 668.16C70.4107 664.217 68.9589 660.129 67.8607 655.94C66.7218 651.937 66.4357 647.74 67.0208 643.62C67.3844 641.598 68.0591 639.645 69.0208 637.83C69.5098 636.878 70.0609 635.959 70.6707 635.08C71.3007 634.2 71.9507 633.28 72.6707 632.51C74.0156 630.912 75.827 629.776 77.8507 629.26C80.0181 628.776 82.2803 628.947 84.3507 629.75C82.3808 628.4 80.0381 627.701 77.6508 627.75C75.1488 627.936 72.766 628.893 70.8307 630.49C69.8985 631.256 69.0135 632.077 68.1807 632.95C67.3371 633.82 66.552 634.746 65.8307 635.72C64.3328 637.735 63.1743 639.981 62.4008 642.37C61.6481 644.769 61.2209 647.257 61.1307 649.77C61.0573 652.22 61.1911 654.672 61.5308 657.1C62.2531 661.817 63.4353 666.453 65.0607 670.94C66.6132 675.368 68.4059 679.707 70.4307 683.94C72.4307 688.15 74.6407 692.28 77.0507 696.29C91.5649 720.555 113.056 739.883 138.721 751.75C147.141 755.643 155.91 758.733 164.911 760.98C169.38 762.102 173.907 762.983 178.471 763.62C183.022 764.305 187.618 764.646 192.221 764.64Z" fill="#221E20"/>
<path d="M356.09 709.95C358.266 710.402 360.259 711.488 361.82 713.07C363.241 714.601 364.146 716.538 364.41 718.61C364.56 719.61 364.61 720.75 364.67 721.85C364.725 722.929 364.725 724.011 364.67 725.09C364.59 727.175 364.216 729.239 363.56 731.22C362.922 733.153 362.017 734.988 360.87 736.67C359.709 738.384 358.368 739.97 356.87 741.4C353.78 744.325 350.36 746.883 346.68 749.02C342.912 751.242 339.018 753.245 335.02 755.02C330.94 756.84 326.84 758.58 322.69 760.18C318.54 761.78 314.37 763.31 310.15 764.68C305.93 766.05 301.68 767.31 297.4 768.43C280.252 772.981 262.548 775.092 244.81 774.7C235.895 774.495 227.011 773.586 218.24 771.98C209.351 770.428 200.64 767.986 192.24 764.69C196.024 767.309 200.041 769.576 204.24 771.46C208.434 773.388 212.742 775.058 217.14 776.46C225.997 779.282 235.122 781.178 244.37 782.12C262.974 783.948 281.755 782.441 299.83 777.67C308.836 775.334 317.654 772.325 326.21 768.67C330.46 766.81 334.67 764.87 338.78 762.74C342.996 760.608 347.053 758.175 350.92 755.46C354.911 752.701 358.525 749.434 361.67 745.74C364.953 741.923 367.208 737.332 368.22 732.4C368.658 729.962 368.749 727.474 368.49 725.01C368.366 723.821 368.179 722.639 367.93 721.47C367.703 720.293 367.405 719.131 367.04 717.99C366.284 715.598 364.802 713.501 362.8 711.99C360.832 710.624 358.485 709.91 356.09 709.95Z" fill="#221E20"/>
<path d="M368.11 654C371.13 655.024 373.849 656.784 376.02 659.12C377.828 661.191 379.01 663.733 379.43 666.45C380.43 671.84 379.19 677.85 377.86 684.02C376.53 690.19 374.71 695.82 371.4 700.38C369.72 702.735 367.58 704.725 365.11 706.23C362.291 707.865 359.264 709.11 356.11 709.93C359.531 711.085 363.194 711.333 366.74 710.65C370.533 709.893 374.051 708.124 376.92 705.53C378.359 704.248 379.653 702.813 380.78 701.25C381.32 700.47 381.86 699.69 382.37 698.88L383.69 696.41C385.273 693.133 386.458 689.679 387.22 686.12C387.63 684.38 387.89 682.64 388.15 680.9L388.32 679.59L388.44 678.22C388.537 677.3 388.584 676.375 388.58 675.45C388.58 674.54 388.58 673.58 388.51 672.65C388.449 671.698 388.339 670.75 388.18 669.81C387.884 667.873 387.354 665.979 386.6 664.17C385.836 662.307 384.779 660.579 383.47 659.05C382.158 657.548 380.586 656.295 378.83 655.35C375.543 653.6 371.728 653.119 368.11 654Z" fill="#221E20"/>
<path d="M367.591 594.26C369.14 594.357 370.657 594.747 372.061 595.41C373.264 596.021 374.337 596.86 375.221 597.88C376.776 599.994 377.805 602.448 378.221 605.04L378.551 607.04C378.661 607.72 378.681 608.46 378.751 609.16C378.911 610.55 378.921 612.02 378.951 613.48C378.981 614.94 378.951 616.48 378.951 618.03C378.951 619.58 378.951 621.09 378.951 622.62C378.951 625.62 378.951 628.69 378.731 631.62C378.731 632.35 378.731 633.1 378.591 633.82C378.451 634.54 378.451 635.25 378.391 635.98C378.181 637.38 378.021 638.81 377.711 640.16C377.203 642.855 376.185 645.428 374.711 647.74C372.956 650.247 370.702 652.365 368.091 653.96C371.606 654.144 375.082 653.151 377.971 651.14C380.96 648.972 383.321 646.049 384.811 642.67C386.259 639.492 387.249 636.126 387.751 632.67C388.081 630.99 388.161 629.33 388.351 627.67C388.541 626.01 388.511 624.35 388.531 622.67C388.551 620.99 388.531 619.38 388.391 617.76L388.211 615.32C388.211 614.53 388.071 613.67 387.941 612.81L387.571 610.26C387.429 609.396 387.235 608.541 386.991 607.7C386.751 606.84 386.601 606 386.281 605.15L385.281 602.63C385.112 602.2 384.908 601.786 384.671 601.39L383.991 600.17C383.529 599.345 382.986 598.568 382.371 597.85C381.17 596.328 379.682 595.058 377.991 594.11C376.302 593.231 374.425 592.774 372.521 592.78C370.773 592.813 369.067 593.325 367.591 594.26Z" fill="#221E20"/>
<path d="M337.451 549.03C340.465 547.443 343.626 546.153 346.891 545.18C349.971 544.33 352.971 544.18 355.191 544.97C356.298 545.356 357.317 545.958 358.191 546.74C359.129 547.604 359.952 548.586 360.641 549.66C361.402 550.864 362.071 552.124 362.641 553.43C363.301 554.97 364.031 556.43 364.641 558.01C367.291 564.1 369.881 570.14 371.141 576.15C371.824 579.102 371.926 582.159 371.441 585.15C370.78 588.419 369.46 591.518 367.561 594.26C371.037 592.745 373.936 590.155 375.831 586.87C377.739 583.395 378.711 579.484 378.651 575.52C378.611 571.748 378.083 567.997 377.081 564.36C376.101 560.874 374.875 557.462 373.411 554.15C372.671 552.52 371.891 550.93 371.111 549.33C370.191 547.526 369.096 545.818 367.841 544.23C366.476 542.519 364.837 541.045 362.991 539.87C361.045 538.623 358.838 537.843 356.541 537.59C354.361 537.362 352.159 537.604 350.081 538.3C348.204 538.929 346.428 539.829 344.811 540.97C341.809 543.1 339.3 545.848 337.451 549.03Z" fill="#221E20"/>
<path d="M275.721 481.5C279.721 482.6 283.781 483.5 287.831 484.21C289.831 484.6 291.831 484.94 293.901 485.28C295.971 485.62 297.901 485.94 299.981 486.21L299.461 486.14C300.201 486.39 301.101 486.7 301.921 487.02C302.741 487.34 303.611 487.66 304.451 488.02C306.121 488.71 307.771 489.42 309.451 490.18C311.131 490.94 312.671 491.76 314.251 492.59C315.831 493.42 317.351 494.33 318.851 495.25C324.851 498.97 330.141 503.46 333.851 508.92C334.311 509.61 334.781 510.29 335.181 511.01C335.613 511.715 336.007 512.443 336.361 513.19C336.558 513.552 336.732 513.926 336.881 514.31L337.381 515.44C337.701 516.24 337.981 517.09 338.291 517.91C339.488 521.209 340.355 524.619 340.881 528.09C341.421 531.578 341.441 535.126 340.941 538.62C340.449 542.291 339.254 545.832 337.421 549.05C340.623 546.643 343.131 543.431 344.691 539.74C346.317 535.97 347.232 531.932 347.391 527.83C347.536 523.746 347.139 519.66 346.211 515.68C345.961 514.68 345.751 513.68 345.481 512.68C345.211 511.68 344.881 510.68 344.481 509.68C344.081 508.68 343.671 507.68 343.181 506.75C342.722 505.789 342.211 504.855 341.651 503.95C339.448 500.353 336.725 497.101 333.571 494.3C330.507 491.584 327.153 489.213 323.571 487.23C320.059 485.283 316.377 483.66 312.571 482.38C310.691 481.713 308.784 481.15 306.851 480.69C304.893 480.193 302.91 479.799 300.911 479.51L300.441 479.44H300.391C298.391 479.44 296.301 479.61 294.251 479.71C292.201 479.81 290.151 479.95 288.101 480.12C283.981 480.43 279.871 480.84 275.721 481.5Z" fill="#221E20"/>
<path d="M277.24 963.75C147.293 963.75 41.9503 950.717 41.9503 934.64C41.9503 918.563 147.293 905.53 277.24 905.53C407.187 905.53 512.53 918.563 512.53 934.64C512.53 950.717 407.187 963.75 277.24 963.75Z" fill="#D0D2D3"/>
<path d="M175.99 753.95C175.99 753.95 170.04 779.06 193.1 817.14C193.338 817.538 193.693 817.854 194.116 818.046C194.539 818.237 195.01 818.295 195.467 818.211C195.923 818.127 196.344 817.906 196.671 817.577C196.999 817.248 197.218 816.827 197.3 816.37C199.74 802.78 206.42 769.44 215.09 758.56L175.99 753.95Z" fill="#49BEA2"/>
<path d="M176.72 749.01C176.72 749.01 170.78 774.12 193.83 812.2C194.071 812.597 194.426 812.912 194.85 813.102C195.273 813.292 195.744 813.349 196.201 813.266C196.657 813.182 197.078 812.962 197.406 812.634C197.735 812.306 197.956 811.887 198.04 811.43C200.47 797.84 207.15 764.5 215.82 753.62L176.72 749.01Z" stroke="#231F20" stroke-width="6" stroke-miterlimit="10"/>
<path d="M195.081 765.897C130.457 746.828 94.7727 674.76 115.378 604.929C135.984 535.098 205.076 493.947 269.7 513.016C334.324 532.085 370.008 604.153 349.403 673.984C328.797 743.815 259.705 784.966 195.081 765.897Z" fill="#F5E099"/>
<path d="M201.51 518.86C173.29 535.07 148.75 560.72 138.94 593.97C118.33 663.8 165.57 739.28 218.65 754.97C239.17 760.97 263.81 759.08 287.51 750.41C257.43 767.93 222.61 774.12 195.16 766.02C142.08 750.36 94.8398 674.89 115.44 605.02C127.91 562.77 164.16 532.8 201.51 518.86Z" fill="#F0CC6D"/>
<path d="M369.26 431.61C340.34 477.61 329.7 463.99 301.1 549.61C301.1 549.61 295.35 563.55 256.74 552.17C218.13 540.79 220.88 525.95 220.88 525.95C243.33 438.51 227.02 444.14 227.67 389.84L298.47 410.73L369.26 431.61Z" fill="#49BEA2"/>
<path d="M232.58 447.53C231.58 430.15 227.33 418.12 227.67 389.84L298.47 410.73L369.26 431.61C354.18 455.61 344.07 463.36 333.79 477.45C313.48 478.62 294.28 477.62 279.79 473.34C265.3 469.06 248.85 459.5 232.58 447.53Z" fill="#3D9480"/>
<path d="M227.67 389.84C238.859 395.131 250.315 399.841 261.99 403.95C273.576 408.123 285.273 411.94 297.08 415.4C308.886 418.86 320.786 422.007 332.78 424.84C344.813 427.726 356.99 429.979 369.26 431.59C358.077 426.286 346.625 421.57 334.95 417.46C323.363 413.287 311.663 409.47 299.85 406.01C288.036 402.55 276.14 399.407 264.16 396.58C252.119 393.713 239.94 391.463 227.67 389.84Z" fill="#231F20"/>
<path d="M369.26 431.61C364.62 437.77 360.04 443.93 354.96 449.61C353.74 451.07 352.43 452.47 351.15 453.89C349.87 455.31 348.6 456.73 347.28 458.13C344.68 460.93 341.99 463.69 339.37 466.55C334.041 472.312 329.194 478.503 324.88 485.06C322.88 488.4 320.71 491.74 318.95 495.22C318.03 496.95 317.08 498.67 316.2 500.41L313.67 505.68C311.92 509.18 310.43 512.77 308.86 516.33C307.29 519.89 305.86 523.5 304.47 527.11L302.34 532.52C301.64 534.33 301.02 536.12 300.34 537.93L298.39 543.33L297.39 546.04L296.9 547.39L296.78 547.73L296.72 547.89C296.72 547.89 296.72 547.97 296.72 547.89C296.742 547.822 296.769 547.755 296.8 547.69V547.61C296.804 547.633 296.804 547.657 296.8 547.68C296.479 548.054 296.117 548.389 295.72 548.68C295.188 549.058 294.626 549.393 294.04 549.68C293.392 549.999 292.724 550.277 292.04 550.51C291.32 550.74 290.54 550.9 289.79 551.12C286.426 551.697 283.003 551.858 279.6 551.6C265.003 550.115 250.811 545.924 237.75 539.24C234.746 537.618 231.957 535.626 229.45 533.31C228.94 532.73 228.38 532.16 227.89 531.58C227.439 531.012 227.029 530.414 226.66 529.79C226.02 528.822 225.61 527.721 225.46 526.57C225.458 526.54 225.458 526.51 225.46 526.48C225.46 526.48 225.46 526.48 225.46 526.58V526.78C225.46 526.89 225.46 526.85 225.46 526.78V526.61L225.54 526.26L225.87 524.86L226.52 522.06L227.82 516.46C228.24 514.59 228.7 512.75 229.09 510.85L230.24 505.15C231.01 501.35 231.82 497.56 232.41 493.71C233 489.86 233.72 486.05 234.15 482.17L234.88 476.36C235.09 474.42 235.22 472.46 235.39 470.51C235.8 466.62 235.83 462.67 235.93 458.75C235.861 450.902 235.149 443.072 233.8 435.34C233.15 431.52 232.39 427.74 231.73 423.97C231.37 422.09 231.06 420.2 230.73 418.32C230.4 416.44 230.09 414.54 229.86 412.65C228.7 405.08 228.2 397.42 227.63 389.73L227.29 395.5C227.19 397.43 227.05 399.36 227.05 401.29V407.09C227.05 409.02 227.15 410.95 227.2 412.89C227.47 420.63 228.39 428.36 229.04 435.96C229.803 443.465 229.964 451.019 229.52 458.55C229.13 462.3 228.96 466.05 228.37 469.79C228.11 471.66 227.9 473.53 227.6 475.4L226.6 481C226 484.73 225.13 488.44 224.34 492.16C223.55 495.88 222.69 499.59 221.81 503.3L220.48 508.86L219.04 514.45L217.59 520.06L216.87 522.86L216.5 524.26L216.41 524.61V524.78C216.41 524.78 216.33 525.16 216.3 525.37C216.294 525.463 216.294 525.557 216.3 525.65V525.82V526.17C216.285 526.38 216.285 526.59 216.3 526.8C216.421 529.499 217.215 532.126 218.61 534.44C219.205 535.486 219.873 536.488 220.61 537.44C221.33 538.34 222.1 539.16 222.86 540.02C225.941 542.993 229.388 545.561 233.12 547.66C247.408 555.219 263.066 559.837 279.17 561.24C283.445 561.503 287.737 561.217 291.94 560.39C293.04 560.08 294.14 559.81 295.23 559.45C296.36 559.053 297.459 558.575 298.52 558.02C300.946 556.831 303.036 555.053 304.6 552.85C304.723 552.68 304.837 552.503 304.94 552.32L305.11 552.02L305.2 551.87C305.246 551.79 305.286 551.706 305.32 551.62C305.42 551.43 305.57 551.05 305.56 551.07V550.9L305.68 550.56L306.13 549.18L307.05 546.44L308.87 540.94L310.69 535.46L312.6 530.07C313.86 526.48 315.12 522.87 316.51 519.34C317.9 515.81 319.16 512.2 320.68 508.74L322.89 503.5C323.65 501.77 324.49 500.08 325.28 498.37C326.83 494.91 328.7 491.67 330.41 488.31C334.134 481.746 338.371 475.487 343.08 469.59C347.75 463.59 352.72 457.59 357.15 451.22C358.24 449.62 359.37 448.04 360.43 446.43L363.54 441.53C364.54 439.91 365.54 438.22 366.48 436.53L369.26 431.61Z" fill="#231F20"/>
<path d="M285.15 455.11C324.73 466.79 399.15 454.11 436.02 439.44C492.16 417.31 495.95 395.11 495.95 395.11C545.39 203.95 373.46 155.74 373.46 155.74C373.46 155.74 202.91 102.89 140.67 290.3C140.67 290.3 132 313.07 166.94 360.06C190.61 391.95 245.57 443.44 285.15 455.11Z" fill="#49BEA2"/>
<path d="M140.67 290.3C139.891 292.591 139.446 294.982 139.35 297.4C139.224 299.824 139.277 302.254 139.51 304.67C139.65 305.87 139.74 307.09 139.95 308.29L140.61 311.87C140.83 313.07 141.18 314.23 141.46 315.42C141.74 316.61 142.02 317.79 142.46 318.94C145.429 328.208 149.382 337.133 154.25 345.56L158.01 351.81C158.62 352.86 159.3 353.86 160.01 354.87L162.01 357.87C164.66 361.94 167.54 365.87 170.51 369.72C173.48 373.57 176.57 377.31 179.75 380.96C182.93 384.61 186.16 388.22 189.48 391.74C196.087 398.82 202.98 405.62 210.16 412.14C217.33 418.66 224.73 424.95 232.43 430.9C236.277 433.88 240.22 436.747 244.26 439.5C248.3 442.253 252.427 444.893 256.64 447.42C260.874 449.933 265.247 452.243 269.76 454.35C278.837 458.745 288.573 461.623 298.58 462.87C303.5 463.57 308.43 464.02 313.34 464.23C318.25 464.44 323.15 464.49 328.03 464.37C332.91 464.25 337.79 464.04 342.64 463.64C352.34 462.87 361.98 461.64 371.55 460.09C381.12 458.54 390.62 456.58 400.01 454.2C404.72 453.04 409.39 451.74 414.01 450.37C418.63 449 423.29 447.51 427.85 445.82C432.41 444.13 436.96 442.29 441.34 440.26C443.55 439.26 445.78 438.31 447.95 437.26L454.45 433.98C463.075 429.494 471.232 424.161 478.8 418.06C480.72 416.57 482.43 414.82 484.23 413.19C486.03 411.56 487.63 409.72 489.12 407.79L490.27 406.37L491.27 404.88C491.61 404.37 491.98 403.88 492.27 403.37L493.2 401.81C494.455 399.74 495.367 397.481 495.9 395.12C495.108 397.371 493.979 399.488 492.55 401.4L491.49 402.83C491.14 403.3 490.73 403.74 490.35 404.19L489.19 405.54L487.94 406.81C486.29 408.504 484.554 410.112 482.74 411.63C480.85 413.07 479.07 414.63 477.07 415.91C469.252 421.259 460.949 425.862 452.27 429.66L445.74 432.49C443.57 433.43 441.32 434.22 439.12 435.09C434.7 436.86 430.26 438.38 425.73 439.76C416.73 442.52 407.49 444.85 398.2 446.76C379.648 450.674 360.835 453.224 341.91 454.39C332.528 454.994 323.119 455.055 313.73 454.57C309.06 454.34 304.43 453.91 299.86 453.24C295.344 452.604 290.877 451.659 286.49 450.41C282.133 449.085 277.875 447.451 273.75 445.52C269.56 443.6 265.45 441.42 261.41 439.08C253.285 434.343 245.436 429.148 237.9 423.52C222.703 412.172 208.311 399.782 194.83 386.44C188.064 379.773 181.574 372.856 175.36 365.69C172.26 362.1 169.27 358.46 166.47 354.63L164.34 351.79C163.62 350.85 162.9 349.9 162.25 348.91L158.25 343.05C152.979 335.187 148.516 326.811 144.93 318.05C144.45 316.96 144.1 315.84 143.71 314.72C143.32 313.6 142.91 312.49 142.59 311.35L141.66 307.93C141.35 306.78 141.18 305.61 140.92 304.45C140.11 299.83 139.63 295 140.67 290.3Z" fill="#231F20"/>
<path d="M495.95 395.11L498.54 386.11C499.29 383.11 500.09 380.04 500.82 376.99C502.18 370.87 503.42 364.71 504.37 358.49L505.08 353.83C505.32 352.27 505.45 350.7 505.64 349.14C505.83 347.58 506.01 346.01 506.14 344.44L506.51 339.73L506.7 337.37L506.8 335.01L507.02 330.28L507.08 325.54C507.08 323.96 507.08 322.38 507.08 320.8L506.95 316.05C506.89 314.47 506.76 312.89 506.66 311.31C506.51 308.14 506.11 304.99 505.81 301.83C505.01 295.54 504 289.25 502.58 283.04C501.163 276.821 499.394 270.688 497.28 264.67C495.13 258.646 492.653 252.744 489.86 246.99C478.71 223.91 461.86 203.79 442 187.65C432.053 179.611 421.396 172.491 410.16 166.38C404.553 163.313 398.82 160.49 392.96 157.91C387.067 155.278 381.023 152.997 374.86 151.08C371.67 150.08 368.55 149.42 365.4 148.74C362.25 148.06 359.11 147.49 355.95 146.98C349.63 145.973 343.297 145.233 336.95 144.76C324.192 143.803 311.373 143.997 298.65 145.34C285.908 146.727 273.34 149.407 261.14 153.34C248.928 157.257 237.216 162.586 226.24 169.22C220.761 172.509 215.464 176.091 210.37 179.95C205.33 183.861 200.512 188.05 195.94 192.5C191.38 196.95 187.12 201.69 183.03 206.5C181.03 208.99 179.03 211.42 177.17 213.99C176.23 215.27 175.27 216.53 174.36 217.82L171.67 221.74C170.76 223.03 169.93 224.38 169.09 225.74L166.57 229.74L164.18 233.83L162.99 235.83L161.86 237.91L159.62 242.07C158.87 243.46 158.2 244.89 157.49 246.29C156.78 247.69 156.06 249.1 155.42 250.53L153.48 254.84C150.9 260.57 148.6 266.42 146.48 272.3C145.48 275.3 144.48 278.24 143.48 281.2L140.75 290.2L144.19 281.47C145.43 278.6 146.62 275.72 147.88 272.86C149.14 270 150.42 267.17 151.8 264.37C153.18 261.57 154.5 258.76 156 256.03C161.698 245.003 168.28 234.455 175.68 224.49C179.34 219.49 183.29 214.77 187.37 210.15C191.45 205.53 195.84 201.22 200.37 197.15C204.9 193.08 209.69 189.15 214.64 185.57C219.608 182.005 224.762 178.707 230.08 175.69C235.398 172.702 240.888 170.031 246.52 167.69C252.131 165.302 257.866 163.215 263.7 161.44C275.393 157.911 287.415 155.585 299.58 154.5C311.76 153.358 324.015 153.271 336.21 154.24C342.31 154.72 348.377 155.463 354.41 156.47C366.397 158.281 378.079 161.726 389.13 166.71C394.73 169.13 400.227 171.797 405.62 174.71C416.384 180.521 426.631 187.242 436.25 194.8C445.877 202.319 454.712 210.8 462.62 220.11C466.541 224.773 470.212 229.64 473.62 234.69C477.075 239.724 480.228 244.96 483.06 250.37C485.893 255.785 488.43 261.35 490.66 267.04C492.86 272.76 494.72 278.6 496.37 284.51C498.02 290.42 499.22 296.51 500.25 302.51C501.28 308.51 501.91 314.73 502.25 320.9C503.97 345.67 501.14 370.65 495.95 395.11Z" fill="#231F20"/>
<path d="M453.221 398.33C453.221 398.33 429.481 402.19 432.601 383.79" stroke="#231F20" stroke-width="5.89" stroke-miterlimit="10" stroke-linecap="round"/>
<path d="M202.01 324.22C214.47 350.06 237.5 350.52 258.57 358.48C279.64 366.44 300.51 400.77 305.2 402.15C309.89 403.53 346.05 386.04 368.07 390.79C390.09 395.54 409.69 407.65 434.17 392.71" stroke="#231F20" stroke-width="5.89" stroke-miterlimit="10" stroke-linecap="round"/>
<path d="M182.961 318.6C182.961 318.6 200.801 334.73 208.181 317.6" stroke="#231F20" stroke-width="5.89" stroke-miterlimit="10" stroke-linecap="round"/>
<path d="M306.02 399.37C306.02 399.37 334.45 340.16 332.29 295.37" stroke="#231F20" stroke-width="5.89" stroke-miterlimit="10" stroke-linecap="round"/>
<path d="M330.28 362.43C330.537 362.502 330.803 362.543 331.07 362.55H331.35C331.463 362.557 331.577 362.557 331.69 362.55C331.828 362.532 331.965 362.505 332.1 362.47L332.69 362.3C333.04 362.18 333.34 362.06 333.63 361.94C334.2 361.7 334.72 361.45 335.23 361.2C336.23 360.69 337.23 360.2 338.17 359.62C340.08 358.55 341.92 357.42 343.75 356.29C344.233 355.989 344.583 355.515 344.728 354.965C344.873 354.414 344.802 353.829 344.53 353.33C344.258 352.83 343.805 352.453 343.264 352.277C342.723 352.1 342.135 352.137 341.62 352.38C339.72 353.28 337.8 354.17 335.89 354.98C334.94 355.39 333.98 355.77 333.04 356.11C332.58 356.28 332.11 356.45 331.69 356.57L331.1 356.71C331.041 356.72 330.98 356.72 330.92 356.71H331.06H331.24C331.475 356.706 331.708 356.743 331.93 356.82C331.181 356.6 330.375 356.686 329.689 357.06C329.004 357.434 328.495 358.066 328.275 358.815C328.055 359.564 328.141 360.37 328.516 361.055C328.89 361.741 329.521 362.25 330.27 362.47L330.28 362.43Z" fill="#231F20"/>
<path d="M307.1 349.45C307.326 349.51 307.542 349.604 307.74 349.73L307.89 349.83L307.99 349.92C307.935 349.891 307.887 349.85 307.85 349.8C307.704 349.663 307.567 349.516 307.44 349.36C307.15 349.03 306.84 348.64 306.54 348.24C305.94 347.45 305.35 346.61 304.77 345.75C303.6 344.03 302.48 342.24 301.37 340.45C301.066 339.977 300.594 339.636 300.049 339.495C299.503 339.355 298.926 339.427 298.431 339.695C297.936 339.963 297.561 340.409 297.381 340.942C297.201 341.475 297.229 342.057 297.46 342.57C298.38 344.52 299.32 346.47 300.34 348.41C300.85 349.41 301.34 350.35 301.96 351.33C302.25 351.82 302.54 352.33 302.9 352.82C303.082 353.097 303.279 353.365 303.49 353.62C303.613 353.785 303.747 353.942 303.89 354.09L304.19 354.39L304.46 354.6L304.53 354.66L304.69 354.76C304.917 354.904 305.162 355.015 305.42 355.09C305.798 355.224 306.198 355.28 306.598 355.253C306.998 355.227 307.388 355.12 307.745 354.938C308.102 354.756 308.418 354.503 308.674 354.195C308.93 353.887 309.121 353.53 309.235 353.146C309.348 352.762 309.382 352.358 309.335 351.961C309.287 351.563 309.159 351.179 308.959 350.832C308.758 350.485 308.489 350.183 308.168 349.944C307.846 349.705 307.48 349.533 307.09 349.44L307.1 349.45Z" fill="#231F20"/>
<path d="M307.781 188.199C304.65 182.446 309.681 173.662 319.019 168.579C328.357 163.497 338.465 164.04 341.597 169.793C344.728 175.546 339.697 184.33 330.359 189.413C321.021 194.496 310.913 193.952 307.781 188.199Z" fill="#3D9480"/>
<path d="M304.683 217.552C301.615 213.614 304.136 206.519 310.314 201.707C316.492 196.894 323.987 196.185 327.056 200.124C330.124 204.062 327.603 211.156 321.425 215.969C315.247 220.782 307.752 221.491 304.683 217.552Z" fill="#3D9480"/>
<path d="M476.098 288.778C473.854 281.275 475.912 274.033 480.696 272.602C485.479 271.172 491.176 276.095 493.42 283.598C495.663 291.101 493.605 298.343 488.821 299.773C484.038 301.204 478.341 296.281 476.098 288.778Z" fill="#3D9480"/>
<path d="M281.787 203.809C280.152 200.154 283.466 195.116 289.189 192.558C294.911 189.999 300.875 190.888 302.51 194.544C304.144 198.199 300.83 203.236 295.107 205.795C289.385 208.353 283.421 207.464 281.787 203.809Z" fill="#3D9480"/>
<path d="M96.4298 155.82C87.1998 187.1 208.22 209.77 353.13 252.52C498.04 295.27 611.99 341.95 621.21 310.64C630.43 279.33 534.21 172.64 389.31 129.9C244.41 87.1601 105.66 124.55 96.4298 155.82Z" fill="#EFCB6C"/>
<path d="M621.21 310.64C621.694 309.104 621.97 307.51 622.03 305.9C622.061 304.287 621.95 302.674 621.7 301.08C621.174 297.886 620.326 294.754 619.17 291.73C616.815 285.718 613.895 279.942 610.45 274.48C603.516 263.61 595.635 253.374 586.9 243.89C569.389 224.961 549.988 207.872 529 192.89C518.574 185.33 507.817 178.247 496.73 171.64C485.644 165.033 474.31 158.867 462.73 153.14C416.333 130.224 366.336 115.472 314.93 109.53C302.124 108.05 289.27 107.083 276.37 106.63C269.93 106.39 263.49 106.31 257.05 106.35C250.61 106.39 244.16 106.63 237.73 106.96C211.979 108.142 186.416 111.955 161.44 118.34C148.956 121.566 136.782 125.889 125.06 131.26C119.202 133.98 113.613 137.248 108.37 141.02C105.759 142.933 103.346 145.104 101.17 147.5C100.096 148.704 99.1296 149.999 98.2803 151.37C97.4587 152.754 96.8232 154.24 96.3903 155.79C97.5641 152.836 99.3974 150.188 101.75 148.05C104.047 145.884 106.557 143.954 109.24 142.29C114.634 138.958 120.325 136.132 126.24 133.85C138.06 129.291 150.243 125.735 162.66 123.22C175.052 120.586 187.577 118.623 200.18 117.34C206.48 116.7 212.79 116.13 219.1 115.73C225.41 115.33 231.75 115.06 238.1 114.93C244.45 114.8 250.75 114.78 257.1 114.93C263.45 115.08 269.75 115.23 276.1 115.59C288.727 116.257 301.314 117.44 313.86 119.14C364.072 125.673 412.938 140.083 458.66 161.84C470.034 167.247 481.22 173.09 492.22 179.37C497.73 182.49 503.13 185.79 508.51 189.11C513.89 192.43 519.21 195.87 524.45 199.42C529.69 202.97 534.86 206.62 539.95 210.42C545.04 214.22 550.03 218.08 554.95 222.04C564.836 229.964 574.29 238.413 583.27 247.35C592.331 256.204 600.63 265.805 608.08 276.05C611.8 281.166 615.031 286.62 617.73 292.34C619.082 295.193 620.144 298.175 620.9 301.24C621.72 304.309 621.826 307.524 621.21 310.64Z" fill="#221F1F"/>
<path d="M96.4301 155.82C95.9648 157.232 95.7417 158.713 95.7702 160.2C95.8685 161.7 96.2061 163.176 96.7702 164.57C98.0563 167.302 99.8439 169.768 102.04 171.84C106.37 176.02 111.48 179.18 116.63 182.13C121.83 184.993 127.17 187.593 132.63 189.92C138.05 192.28 143.54 194.48 149.06 196.58C171.19 204.83 193.71 211.78 216.26 218.45L233.18 223.45L250.18 228.29L284.05 237.95C306.64 244.34 329.22 250.7 351.69 257.43C374.2 263.99 396.63 270.88 419.07 277.79L452.72 288.06L469.58 293.2L486.5 298.2C509.06 304.84 531.74 311.2 554.81 316.31C560.59 317.54 566.39 318.67 572.23 319.63C578.07 320.59 583.95 321.38 589.88 321.76C595.81 322.14 601.81 322.19 607.72 321.03C610.687 320.479 613.525 319.38 616.09 317.79C617.335 316.936 618.433 315.886 619.34 314.68C620.172 313.461 620.788 312.108 621.16 310.68C620.661 312.049 619.934 313.323 619.01 314.45C618.047 315.518 616.919 316.426 615.67 317.14C613.11 318.442 610.329 319.256 607.47 319.54C601.699 320.059 595.885 319.868 590.16 318.97C578.624 317.209 567.213 314.704 556 311.47C544.72 308.41 533.51 305 522.34 301.47C511.17 297.94 500 294.34 488.86 290.65L472.16 285.09L455.42 279.59L421.92 268.59C399.54 261.39 377.077 254.413 354.53 247.66C331.917 241.1 309.25 234.766 286.53 228.66L252.43 219.66L218.34 210.8C206.98 207.85 195.66 204.8 184.34 201.72C173.02 198.64 161.78 195.41 150.63 191.86C139.464 188.482 128.525 184.393 117.88 179.62C112.585 177.258 107.599 174.259 103.03 170.69C100.783 168.897 98.8873 166.704 97.4401 164.22C96.7831 162.942 96.3309 161.568 96.1002 160.15C95.9666 158.698 96.0781 157.234 96.4301 155.82Z" fill="#221F1F"/>
<path d="M524.48 231.73C524.48 231.73 550.21 124.44 527.48 81.8498C527.48 81.8498 472.67 24.2798 422.17 9.37976C371.67 -5.52024 293.62 12.8597 293.62 12.8597C293.62 12.8597 220.33 102.3 216.29 140.86C216.29 140.86 303.98 203.92 362.39 221.16C420.8 238.4 524.48 231.73 524.48 231.73Z" fill="#EFCB6C"/>
<path d="M216.3 140.81C217.3 131.28 222.54 118.63 229.86 105C229.86 105 324 158.78 376.24 174.19C428.48 189.6 531.65 194.03 531.65 194.03C528.27 215.91 524.48 231.73 524.48 231.73C524.48 231.73 420.81 238.34 362.4 221.11C303.99 203.88 216.3 140.81 216.3 140.81Z" fill="#A873AC"/>
<path d="M293.63 12.8599C285.18 22.1899 277.11 31.8599 269.23 41.6599C261.35 51.4599 253.74 61.5399 246.51 71.8899C242.884 77.0499 239.347 82.2866 235.9 87.5999C232.47 92.9299 229.22 98.3799 226.1 103.94C222.933 109.527 220.065 115.278 217.51 121.17C216.84 122.64 216.28 124.17 215.69 125.7C215.1 127.23 214.59 128.81 214.09 130.39C213.59 131.97 213.19 133.62 212.77 135.25C212.561 136.081 212.394 136.922 212.27 137.77L211.85 140.35L211.45 142.81L213.72 144.44C219.36 148.56 224.99 152.51 230.72 156.44C233.57 158.44 236.42 160.36 239.3 162.28C242.18 164.2 245.04 166.14 247.95 168.01C253.73 171.8 259.59 175.48 265.46 179.15L274.34 184.53C277.34 186.34 280.34 188.04 283.34 189.8C295.34 196.74 307.53 203.38 320.11 209.35C332.69 215.32 345.5 220.95 359.11 224.88C359.95 225.14 360.78 225.45 361.64 225.65L364.21 226.29L369.34 227.55C372.76 228.48 376.21 229.03 379.65 229.69L384.81 230.69C386.53 231 388.26 231.2 389.99 231.43L395.18 232.12C396.9 232.35 398.63 232.61 400.36 232.75L410.74 233.75C414.19 234.06 417.66 234.23 421.11 234.48C422.84 234.59 424.57 234.73 426.3 234.81L431.49 235.01C434.95 235.11 438.41 235.3 441.87 235.32L452.24 235.46H462.6C466.06 235.46 469.51 235.3 472.96 235.22C476.41 235.14 479.86 235.01 483.31 234.86L488.48 234.65L493.64 234.36C497.09 234.16 500.53 233.94 503.97 233.68C510.85 233.213 517.717 232.59 524.57 231.81C497.01 231.81 469.51 231.02 442.16 229.09C428.51 227.96 414.87 226.79 401.4 224.75C387.93 222.71 374.6 220.14 361.84 216.07C358.67 214.96 355.49 213.91 352.34 212.75L342.96 208.92C341.38 208.32 339.85 207.58 338.3 206.92L333.67 204.82C332.13 204.11 330.58 203.43 329.04 202.7L324.47 200.43L319.9 198.17C318.37 197.43 316.85 196.67 315.34 195.86L306.34 191.1C303.34 189.49 300.34 187.79 297.34 186.1L292.72 183.55L288.28 180.98C276.42 174.18 264.73 167.04 253.16 159.73C241.59 152.42 230.04 144.95 218.85 137.19L220.72 141.28C221.29 135.76 223.15 129.97 225.27 124.28C227.493 118.554 230.016 112.949 232.83 107.49C235.64 101.97 238.64 96.4899 241.75 91.1399C244.86 85.7899 248.06 80.3799 251.37 75.0799C258.037 64.4932 264.9 54.0166 271.96 43.6499C279.02 33.2832 286.244 23.0199 293.63 12.8599Z" fill="#221F1F"/>
<path d="M524.481 231.73C525.411 228.73 526.251 225.63 527.081 222.56C527.911 219.49 528.681 216.4 529.421 213.31C530.921 207.13 532.311 200.92 533.521 194.67C536.027 182.177 537.947 169.563 539.281 156.83C539.947 150.47 540.391 144.077 540.611 137.65C540.811 131.22 540.891 124.77 540.521 118.28C540.193 111.739 539.404 105.23 538.161 98.8C536.926 92.1262 534.758 85.6595 531.721 79.59L531.44 79.05L530.961 78.54C527.131 74.47 523.271 70.71 519.301 66.93C515.331 63.15 511.301 59.49 507.221 55.93C498.991 48.77 490.501 41.88 481.621 35.47C477.171 32.28 472.681 29.13 468.041 26.19C463.401 23.25 458.691 20.41 453.831 17.78C444.096 12.3665 433.785 8.06291 423.091 4.94999C412.342 2.16047 401.319 0.564154 390.221 0.189981C384.741 -0.060019 379.221 -0.0399849 373.801 0.100015C368.381 0.240015 362.901 0.630015 357.481 1.10002C346.641 2.00002 335.891 3.57997 325.231 5.48997C314.571 7.39997 304.001 9.82997 293.631 12.87C314.875 9.54809 336.307 7.57084 357.801 6.94999C363.151 6.84999 368.491 6.83 373.801 7.02C379.111 7.21 384.431 7.40997 389.701 7.92997C400.15 8.76173 410.488 10.6617 420.551 13.6C425.495 15.1851 430.346 17.048 435.081 19.18C439.841 21.32 444.481 23.79 449.081 26.34C458.259 31.5913 467.127 37.3676 475.641 43.64C484.194 49.9267 492.527 56.5533 500.641 63.52C504.641 67 508.641 70.52 512.641 74.14C516.641 77.76 520.441 81.47 524.101 85.14L523.341 84.09C526.083 89.3333 528.101 94.9242 529.341 100.71C530.651 106.724 531.566 112.817 532.081 118.95C533.143 131.408 533.351 143.924 532.701 156.41C532.461 162.69 532.041 168.98 531.501 175.26C530.961 181.54 530.411 187.84 529.671 194.12C528.211 206.63 526.541 219.2 524.481 231.73Z" fill="#221F1F"/>
<path d="M531.65 194.03C505.27 190.16 478.92 186.81 452.65 183.03C446.08 182.13 439.54 181.11 433 180.16C426.46 179.21 419.92 178.16 413.44 176.97C410.19 176.41 406.94 175.87 403.72 175.22L398.89 174.29L396.47 173.83L394.08 173.29C387.729 172.008 381.448 170.402 375.26 168.48C369.12 166.59 362.99 164.25 356.9 161.85L347.75 158.17L338.64 154.29C326.52 149.06 314.44 143.63 302.38 138.12C278.25 127.12 254.19 115.82 229.84 104.98C252.17 119.56 275.28 132.83 298.84 145.32L307.72 149.95L316.66 154.45C319.64 155.957 322.64 157.423 325.66 158.85C328.66 160.28 331.66 161.76 334.72 163.14C346.912 168.92 359.442 173.959 372.24 178.23C385.4 182.3 398.7 184.52 411.94 186.51C425.18 188.5 438.48 189.88 451.77 190.98C465.06 192.08 478.36 192.98 491.68 193.45C505 193.92 518.31 194.3 531.65 194.03Z" fill="#221F1F"/>
<path d="M475.07 298.15C475.07 298.15 470.22 263.29 436.48 257.28" stroke="#231F20" stroke-width="5.89" stroke-miterlimit="10" stroke-linecap="round"/>
<path d="M211.52 220.4C211.52 220.4 234.52 193.76 266.11 207.03" stroke="#231F20" stroke-width="5.89" stroke-miterlimit="10" stroke-linecap="round"/>
<path d="M241.189 604.554C218.655 597.905 201.212 589.723 202.228 586.28C203.244 582.837 222.334 585.436 244.868 592.085C267.402 598.734 284.845 606.916 283.829 610.359C282.813 613.802 263.723 611.203 241.189 604.554Z" fill="#F7A33F"/>
<path d="M212.254 702.626C189.721 695.977 172.277 687.796 173.293 684.353C174.309 680.91 193.4 683.509 215.934 690.158C238.467 696.807 255.911 704.988 254.895 708.432C253.879 711.875 234.788 709.276 212.254 702.626Z" fill="#F7A33F"/>
<path d="M225.715 657.011C194.542 647.813 170.094 637.565 171.11 634.122C172.126 630.679 198.221 635.344 229.394 644.543C260.567 653.741 285.014 663.989 283.998 667.432C282.982 670.875 256.888 666.209 225.715 657.011Z" fill="#F7A33F"/>
<path d="M411.09 369.57C388.988 369.57 371.07 351.652 371.07 329.55C371.07 307.447 388.988 289.53 411.09 289.53C433.193 289.53 451.11 307.447 451.11 329.55C451.11 351.652 433.193 369.57 411.09 369.57Z" fill="#F7F7E2"/>
<path d="M372.72 318.23C370.808 323.218 369.983 328.557 370.3 333.89C370.63 339.316 372.073 344.616 374.54 349.46C377.035 354.353 380.498 358.687 384.72 362.2C388.971 365.726 393.894 368.349 399.191 369.91C404.488 371.471 410.048 371.937 415.53 371.28C420.984 370.623 426.247 368.864 431 366.11C435.699 363.38 439.785 359.71 443 355.33C446.162 351.028 448.371 346.102 449.48 340.88C445.804 350.56 438.682 358.541 429.48 363.29C420.476 367.869 410.062 368.831 400.372 365.979C390.681 363.126 382.449 356.676 377.36 347.95C372.198 338.956 370.545 328.37 372.72 318.23Z" fill="#231F20"/>
<path d="M372.72 318.23C376.396 308.55 383.519 300.569 392.72 295.82C401.725 291.247 412.138 290.292 421.825 293.15C431.512 296.007 439.739 302.462 444.82 311.19C449.979 320.175 451.635 330.749 449.47 340.88C451.373 335.89 452.194 330.552 451.88 325.22C451.547 319.795 450.104 314.495 447.64 309.65C445.141 304.771 441.678 300.451 437.46 296.95C433.212 293.42 428.289 290.794 422.992 289.231C417.694 287.668 412.134 287.202 406.65 287.86C401.197 288.519 395.934 290.278 391.18 293.03C386.484 295.763 382.399 299.432 379.18 303.81C376.03 308.105 373.828 313.02 372.72 318.23Z" fill="#231F20"/>
<path d="M409.771 361.01C395.273 361.01 383.521 349.257 383.521 334.76C383.521 320.262 395.273 308.51 409.771 308.51C424.268 308.51 436.021 320.262 436.021 334.76C436.021 349.257 424.268 361.01 409.771 361.01Z" fill="#080C0D"/>
<path d="M247.541 321.33C225.438 321.33 207.521 303.412 207.521 281.31C207.521 259.208 225.438 241.29 247.541 241.29C269.643 241.29 287.561 259.208 287.561 281.31C287.561 303.412 269.643 321.33 247.541 321.33Z" fill="#F7F7E2"/>
<path d="M209.16 269.95C207.248 274.938 206.423 280.277 206.74 285.61C207.073 291.036 208.516 296.335 210.98 301.18C213.475 306.084 216.942 310.429 221.17 313.95C225.415 317.482 230.336 320.109 235.633 321.671C240.929 323.232 246.489 323.695 251.97 323.03C257.425 322.378 262.689 320.618 267.44 317.86C272.134 315.128 276.218 311.462 279.44 307.09C282.601 302.785 284.806 297.856 285.91 292.63C282.241 302.315 275.117 310.298 265.91 315.04C256.905 319.613 246.492 320.568 236.805 317.711C227.118 314.853 218.891 308.398 213.81 299.67C208.644 290.677 206.988 280.091 209.16 269.95Z" fill="#231F20"/>
<path d="M209.16 269.95C212.837 260.27 219.959 252.289 229.16 247.54C238.165 242.967 248.578 242.012 258.265 244.87C267.952 247.727 276.179 254.182 281.26 262.91C286.416 271.896 288.068 282.47 285.9 292.6C287.809 287.611 288.631 282.272 288.31 276.94C287.985 271.518 286.545 266.221 284.08 261.38C281.585 256.485 278.118 252.15 273.89 248.64C269.644 245.111 264.722 242.484 259.427 240.919C254.132 239.355 248.573 238.885 243.09 239.54C237.635 240.196 232.371 241.959 227.62 244.72C222.924 247.45 218.84 251.116 215.62 255.49C212.463 259.796 210.261 264.726 209.16 269.95Z" fill="#231F20"/>
<path d="M246.221 312.77C231.723 312.77 219.971 301.017 219.971 286.52C219.971 272.023 231.723 260.27 246.221 260.27C260.718 260.27 272.471 272.023 272.471 286.52C272.471 301.017 260.718 312.77 246.221 312.77Z" fill="#080C0D"/>
<path d="M269.83 365C269.83 365 256.35 413.29 295.78 424.92C335.21 436.55 351.38 390.52 351.38 390.52L302.72 401.41L269.83 365Z" fill="#231F20"/>
<path d="M273.19 407.58C277.474 404.873 282.29 403.119 287.311 402.437C292.332 401.754 297.442 402.159 302.293 403.625C307.144 405.09 311.623 407.581 315.427 410.929C319.231 414.277 322.271 418.404 324.34 423.03C316.65 426.81 307.19 428.29 295.78 424.92C284.37 421.55 277.34 415.07 273.19 407.58Z" fill="#F16C6C"/>
<path d="M284.471 740.95C283.02 739.855 281.353 739.082 279.581 738.68C277.795 738.265 275.963 738.084 274.131 738.14C270.461 738.252 266.85 739.095 263.511 740.62C260.076 742.118 257.079 744.465 254.801 747.44C253.671 748.952 252.849 750.671 252.381 752.5C251.915 754.283 251.915 756.156 252.381 757.94C253.051 754.695 254.719 751.741 257.151 749.49C259.511 747.318 262.214 745.551 265.151 744.26C268.123 742.909 271.24 741.902 274.441 741.26C277.733 740.51 281.139 740.405 284.471 740.95Z" fill="#231F20"/>
<path d="M252.41 757.95C252.32 762.2 264.94 792.3 256.29 813.79C247.64 835.28 229.49 859.54 224.81 876.66C220.69 891.78 224.56 921.66 261.61 932.56C298.66 943.46 315.61 925.56 319.61 918.29C323.61 911.02 323.42 904.5 315.26 895.49C307.1 886.48 295.46 877.02 303.26 858.88C311.06 840.74 315.26 830.55 308.58 802.14C301.9 773.73 294.58 745.72 284.58 740.96C274.58 736.2 251.97 743.83 252.41 757.95Z" fill="#49BEA2"/>
<path d="M252.41 757.95C252.476 759.146 252.646 760.334 252.92 761.5L253.68 765.01C254.21 767.34 254.68 769.67 255.17 772.01C256.13 776.65 256.825 781.341 257.25 786.06L257.4 787.82L257.48 789.58C257.48 790.75 257.63 791.92 257.59 793.09V796.58L257.31 800.05C256.873 804.582 255.743 809.02 253.96 813.21C249.958 821.757 245.44 830.052 240.43 838.05C237.96 842.11 235.49 846.21 233.07 850.36C230.65 854.51 228.26 858.73 226.07 863.13C223.732 867.634 221.862 872.365 220.49 877.25C219.321 882.377 219.024 887.664 219.61 892.89C220.174 898.116 221.571 903.217 223.75 908C224.863 910.389 226.157 912.689 227.62 914.88C229.113 917.05 230.764 919.105 232.56 921.03C236.175 924.808 240.318 928.042 244.86 930.63C249.296 933.163 253.989 935.214 258.86 936.75C260.06 937.18 261.27 937.48 262.49 937.75L266.14 938.69C267.34 939.04 268.6 939.21 269.85 939.45L273.58 940.11C274.84 940.29 276.12 940.37 277.39 940.5C278.661 940.66 279.94 940.75 281.22 940.77H285.09C285.738 940.788 286.386 940.761 287.03 940.69L288.97 940.54C299.3 939.74 309.87 935.74 317.74 928.2C319.757 926.274 321.533 924.112 323.03 921.76C323.41 921.12 323.82 920.47 324.11 919.86C324.4 919.25 324.73 918.61 325.01 917.94C325.602 916.564 326.061 915.134 326.38 913.67C327.057 910.557 326.934 907.322 326.02 904.27C325.151 901.491 323.815 898.881 322.07 896.55C320.522 894.466 318.831 892.491 317.01 890.64C315.33 888.89 313.71 887.22 312.2 885.54C310.757 883.93 309.42 882.226 308.2 880.44C307.122 878.765 306.259 876.961 305.63 875.07C304.548 871.248 304.618 867.192 305.83 863.41L306.83 860.41L308.17 857.07C309.06 854.83 309.94 852.56 310.77 850.25C312.52 845.535 313.78 840.653 314.53 835.68C315.216 830.684 315.283 825.623 314.73 820.61C314.186 815.733 313.341 810.893 312.2 806.12C311.06 801.37 309.83 796.79 308.55 792.12C305.93 782.91 303.26 773.68 299.84 764.67C298.165 760.147 296.191 755.741 293.93 751.48C292.775 749.348 291.436 747.321 289.93 745.42C288.481 743.471 286.58 741.902 284.39 740.85C286.397 742.111 288.082 743.823 289.31 745.85C290.579 747.839 291.673 749.933 292.58 752.11C294.424 756.472 295.984 760.948 297.25 765.51C299.85 774.63 301.94 783.91 303.86 793.24C304.86 797.89 305.86 802.6 306.67 807.24C307.495 811.813 308.043 816.431 308.31 821.07C308.557 825.582 308.292 830.108 307.52 834.56C306.669 839.017 305.358 843.373 303.61 847.56C302.74 849.7 301.8 851.85 300.84 854.01L299.38 857.26C298.89 858.49 298.38 859.72 297.93 860.97C297.48 862.22 297.16 863.56 296.93 864.97C296.662 866.339 296.495 867.726 296.43 869.12C296.43 869.82 296.37 870.53 296.43 871.24L296.6 873.37C296.656 874.081 296.766 874.786 296.93 875.48C297.09 876.17 297.19 876.89 297.41 877.56C300.66 888.76 309.94 895.31 314.49 901.96C315.578 903.485 316.419 905.173 316.98 906.96C317.435 908.506 317.476 910.143 317.1 911.71C316.895 912.576 316.607 913.419 316.24 914.23C315.866 915.107 315.418 915.95 314.9 916.75C313.798 918.402 312.51 919.922 311.06 921.28C305.06 926.96 296.74 930.28 288.06 930.85L286.44 930.99C285.896 931.057 285.348 931.084 284.8 931.07H281.51C280.404 931.057 279.299 930.983 278.2 930.85C277.09 930.74 275.99 930.68 274.88 930.53L271.57 929.95C270.47 929.74 269.36 929.61 268.26 929.29L264.97 928.45C263.88 928.17 262.77 927.92 261.71 927.56C257.463 926.281 253.363 924.555 249.48 922.41C245.695 920.3 242.216 917.683 239.14 914.63C237.642 913.097 236.259 911.456 235 909.72C233.768 907.973 232.671 906.135 231.72 904.22C229.843 900.336 228.597 896.177 228.03 891.9C227.461 887.628 227.586 883.292 228.4 879.06C229.465 874.705 230.962 870.467 232.87 866.41C236.68 857.95 241.46 849.68 245.87 841.22C250.28 832.76 254.87 824.16 258.28 815.03C259.922 810.289 260.826 805.325 260.96 800.31V796.62L260.74 792.96C260.74 791.74 260.49 790.54 260.35 789.33L260.12 787.52L259.81 785.73C258.976 780.982 257.864 776.288 256.48 771.67C255.77 769.38 255.05 767.1 254.3 764.83L253.19 761.42C252.831 760.288 252.57 759.127 252.41 757.95Z" fill="#231F20"/>
<path d="M321.13 914.84C320.707 916.038 320.185 917.199 319.57 918.31C317.506 921.824 314.755 924.885 311.48 927.31C308.48 922.6 305.11 915.24 308.35 909.98C311.59 904.72 317.35 910.15 321.13 914.84Z" fill="#131429"/>
<path d="M291.12 935.51C290.78 927.67 291.12 914.08 297.03 912.61C303.23 911.07 306.77 923.14 308.19 929.61C302.971 932.738 297.158 934.747 291.12 935.51Z" fill="#131429"/>
<path d="M279.95 917.03C286.44 916.49 288.34 928.38 288.9 935.76C282.741 936.3 276.536 935.963 270.47 934.76C271.9 926.69 274.72 917.46 279.95 917.03Z" fill="#131429"/>
<path d="M261.61 932.58C258.698 931.723 255.843 930.684 253.06 929.47C254.79 924.73 257.75 919.67 262.64 918.72C269.64 917.36 268.43 928.18 267.27 934.05C265.43 933.63 263.55 933.16 261.61 932.58Z" fill="#131429"/>
<path d="M276.87 821.82C276.87 821.82 272.65 835.62 285.01 841.32C297.37 847.02 302.3 834.69 300.15 830.08C298 825.47 292.05 825.34 288.86 828.25" stroke="#1F705F" stroke-width="3" stroke-miterlimit="10" stroke-linecap="round"/>
<path d="M130.55 695.57C133.638 696.918 136.436 698.85 138.79 701.26C141.131 703.534 143.202 706.071 144.96 708.82C146.728 711.499 148.039 714.452 148.84 717.56C149.661 720.768 149.458 724.153 148.26 727.24C149.632 726.008 150.665 724.445 151.26 722.7C151.86 720.908 152.101 719.015 151.97 717.13C151.667 713.398 150.425 709.803 148.36 706.68C146.383 703.581 143.806 700.908 140.78 698.82C139.277 697.779 137.643 696.941 135.92 696.33C134.205 695.695 132.374 695.436 130.55 695.57Z" fill="#231F20"/>
<path d="M148.26 727.24C146.03 730.86 119.1 749.24 114.7 772.04C110.3 794.84 112.37 825.04 107 841.93C102.26 856.87 82.8102 879.83 45.7602 868.93C8.71016 858.03 4.2001 833.7 4.8201 825.47C5.44009 817.24 9.11009 811.83 20.8201 808.69C32.5301 805.55 47.4601 803.93 50.8201 784.47C54.1801 765.01 56.1502 754.19 77.1502 733.94C98.1502 713.69 119.54 694.15 130.53 695.59C141.52 697.03 156.31 715.61 148.26 727.24Z" fill="#49BEA2"/>
<path d="M148.261 727.24C147.458 728.123 146.578 728.933 145.631 729.66L142.851 731.92C140.991 733.41 139.141 734.92 137.311 736.48C133.643 739.609 130.161 742.948 126.881 746.48L125.641 747.82L124.471 749.21C123.701 750.15 122.871 751.05 122.171 752.05L120.001 755.05L118.001 758.17C115.392 762.451 113.459 767.109 112.271 771.98C110.211 781.53 109.271 791.17 108.471 800.71C107.671 810.25 107.161 819.78 105.761 828.96C105.156 833.385 104.114 837.74 102.651 841.96C101.042 845.964 98.793 849.679 95.9907 852.96C93.1932 856.244 89.888 859.06 86.2007 861.3C84.3638 862.397 82.4447 863.35 80.4607 864.15C78.4642 864.918 76.4157 865.543 74.3307 866.02C70.0859 866.913 65.7391 867.222 61.4106 866.94C56.9879 866.634 52.6101 865.86 48.3507 864.63C47.2607 864.36 46.1907 863.97 45.1207 863.63L41.9008 862.55C40.8108 862.22 39.8108 861.73 38.7708 861.3L35.6707 859.99C34.6707 859.52 33.6707 858.99 32.6707 858.46C31.6744 857.979 30.7062 857.441 29.7708 856.85L27.0007 855.08C26.5337 854.798 26.089 854.48 25.6707 854.13L24.3807 853.13C17.4607 847.91 12.2607 840.67 10.2906 832.63C9.80647 830.703 9.54817 828.727 9.52075 826.74C9.52219 825.788 9.60583 824.838 9.77075 823.9C9.89407 823.017 10.1084 822.149 10.4106 821.31C10.9464 819.792 11.8704 818.44 13.0907 817.39C14.5338 816.192 16.1572 815.231 17.9008 814.54C25.3308 811.43 36.6807 810.96 45.4807 803.32C46.0307 802.87 46.4807 802.32 47.0107 801.83C47.5339 801.34 48.0123 800.805 48.4407 800.23L49.7407 798.54C50.1307 797.95 50.4807 797.34 50.8507 796.73C51.5654 795.517 52.1904 794.254 52.7207 792.95C53.2407 791.67 53.5907 790.37 54.0007 789.07C54.4107 787.77 54.5306 786.47 54.7906 785.17L55.3307 781.64C55.7007 779.31 56.0807 777 56.5107 774.72C57.3144 770.27 58.571 765.914 60.2607 761.72C62.0264 757.56 64.2608 753.614 66.9207 749.96C69.6609 746.21 72.6263 742.63 75.8007 739.24C79.0007 735.83 82.4007 732.43 85.7407 729.05C92.4107 722.26 99.2107 715.6 106.341 709.35C109.877 706.2 113.615 703.284 117.531 700.62C119.479 699.289 121.536 698.125 123.681 697.14C125.813 696.099 128.158 695.569 130.531 695.59C128.125 695.291 125.683 695.575 123.411 696.42C121.119 697.209 118.898 698.189 116.771 699.35C112.557 701.705 108.505 704.338 104.641 707.23C96.8907 712.94 89.6407 719.23 82.4307 725.56C78.8507 728.75 75.3307 731.93 71.7906 735.29C68.241 738.683 64.9014 742.29 61.7906 746.09C58.6116 750 55.9248 754.285 53.7906 758.85C51.7223 763.435 50.1306 768.22 49.0406 773.13C48.4807 775.53 48.0407 777.91 47.5208 780.28L46.8407 783.81L46.0807 786.9C45.0402 790.732 42.8984 794.174 39.9207 796.8C38.3638 798.045 36.6572 799.089 34.8407 799.91C32.8538 800.753 30.8126 801.461 28.7307 802.03C26.5507 802.62 24.2807 803.15 21.9307 803.7C19.3929 804.269 16.8971 805.01 14.4607 805.92C11.7337 806.933 9.19792 808.401 6.96069 810.26C4.53375 812.327 2.67206 814.976 1.55066 817.96C1.03323 819.365 0.64505 820.814 0.390747 822.29C0.260742 823 0.170715 823.7 0.110718 824.39C0.030426 825.114 -0.01297 825.842 -0.0192871 826.57C-0.0371246 829.361 0.278381 832.144 0.920654 834.86C3.45065 845.46 10.1507 854.55 18.3907 860.86L19.9407 862.05C20.4453 862.458 20.9766 862.832 21.5308 863.17L24.7906 865.24C25.8788 865.913 27.0003 866.53 28.1508 867.09C29.2908 867.67 30.4107 868.29 31.5607 868.83L35.0607 870.3C36.2307 870.78 37.3907 871.3 38.5907 871.68L42.1606 872.87C43.3506 873.27 44.5408 873.67 45.7808 873.97C50.715 875.33 55.7804 876.158 60.8907 876.44C68.754 876.955 76.629 875.63 83.8907 872.57C86.3134 871.525 88.6534 870.298 90.8907 868.9C95.3127 866.061 99.2524 862.533 102.561 858.45C105.889 854.38 108.509 849.779 110.311 844.84C111.815 839.992 112.82 835.003 113.311 829.95C113.851 825.06 114.141 820.23 114.311 815.42C114.481 810.61 114.681 805.84 114.811 801.08C114.945 791.646 115.653 782.228 116.931 772.88C117.702 768.392 119.162 764.051 121.261 760.01L122.911 756.95L124.781 753.95C125.381 752.95 126.121 752.04 126.781 751.07L127.781 749.63L128.861 748.24C131.778 744.504 134.906 740.938 138.231 737.56C139.891 735.86 141.574 734.17 143.281 732.49L145.831 729.96C146.723 729.131 147.537 728.22 148.261 727.24Z" fill="#231F20"/>
<path d="M5.40028 821.7C5.11357 822.934 4.91962 824.188 4.82021 825.45C4.64519 829.539 5.29831 833.62 6.74025 837.45C11.7402 835.1 18.6402 830.77 18.7402 824.6C18.8402 818.43 11.1203 819.81 5.40028 821.7Z" fill="#131429"/>
<path d="M19.3907 855.35C23.9207 848.95 31.0506 837.35 26.8506 832.91C22.4706 828.25 12.9507 836.47 8.27067 841.09C10.9423 846.567 14.7301 851.424 19.3907 855.35Z" fill="#131429"/>
<path d="M38.8 845.89C33.63 841.89 25.5901 850.89 21.1101 856.76C25.9865 860.542 31.3731 863.616 37.1101 865.89C40.3101 858.37 42.99 849.11 38.8 845.89Z" fill="#131429"/>
<path d="M45.7204 868.95C48.6329 869.799 51.5953 870.467 54.5904 870.95C55.7104 866.04 55.9705 860.18 52.3805 856.73C47.2105 851.73 42.3804 861.52 40.1704 867.09C41.9804 867.71 43.8104 868.33 45.7204 868.95Z" fill="#131429"/>
<path d="M93.0498 767.6C93.0498 767.6 89.1199 781.48 75.6399 779.55C62.1599 777.62 64.7099 764.6 69.0299 761.9C73.3499 759.2 78.3999 762.31 79.4999 766.49" stroke="#1F705F" stroke-width="3" stroke-miterlimit="10" stroke-linecap="round"/>
<path d="M37.2203 514.67C37.2203 514.67 37.4203 505.24 50.2203 511.38C63.0203 517.52 73.6104 523.48 73.6104 523.48L63.2903 535.61C63.2903 535.61 38.5103 524.85 37.2203 514.67Z" fill="#131429"/>
<path d="M22.7201 541.22C22.7201 541.22 19.5901 532.31 33.7201 533.56C47.8501 534.81 59.8701 536.66 59.8701 536.66L54.4701 551.66C54.4701 551.66 27.4701 550.29 22.7201 541.22Z" fill="#131429"/>
<path d="M35.7206 575.48C35.7206 575.48 28.2806 569.67 40.8706 563.1C53.4606 556.53 64.5706 551.62 64.5706 551.62L68.1006 567.15C68.1006 567.15 44.7206 580.55 35.7206 575.48Z" fill="#131429"/>
<path d="M76.9602 497.05C76.9602 497.05 85.2802 492.57 86.2402 506.73C87.2002 520.89 87.2402 533.05 87.2402 533.05L71.6002 530.05C71.6002 530.05 68.7202 503.18 76.9602 497.05Z" fill="#131429"/>
<path d="M44.3005 540.67C44.3005 540.67 52.3006 509.2 84.5906 510.82C116.881 512.44 162.961 522.23 173.511 529.98C184.061 537.73 188.891 554.31 187.511 560.8C186.131 567.29 187.431 583.43 156.001 584.14C124.571 584.85 78.6806 585.34 63.5006 576.92C48.3206 568.5 41.9705 551.72 44.3005 540.67Z" fill="#49BEA2"/>
<path d="M63.4598 576.95C56.8148 572.399 51.6101 566.042 48.4598 558.63C46.9557 555.051 46.0438 551.252 45.7599 547.38C45.6502 545.511 45.7541 543.635 46.0698 541.79L46.1698 541.14L46.3599 540.51C46.4999 540.06 46.6598 539.6 46.8298 539.14C47.1498 538.23 47.5298 537.33 47.9198 536.43C50.9192 529.168 55.8171 522.847 62.0999 518.13C68.4299 513.49 76.3698 511.26 84.5498 510.85C80.4408 510.207 76.2532 510.254 72.1598 510.99C70.0845 511.379 68.0469 511.948 66.0698 512.69C64.0898 513.466 62.1824 514.417 60.3699 515.53C56.745 517.792 53.5211 520.641 50.8298 523.96C48.1705 527.283 45.9583 530.941 44.2499 534.84C43.8399 535.84 43.4499 536.84 43.0999 537.84C42.9299 538.35 42.7599 538.84 42.5999 539.38L42.3699 540.23L42.2299 541.09C42.1499 541.64 42.0499 542.21 41.9899 542.76L41.8999 544.41C41.8648 545.504 41.8948 546.599 41.9899 547.69C42.4796 551.969 43.7435 556.123 45.7198 559.95C49.4628 567.517 55.7402 573.532 63.4598 576.95Z" fill="#231F20"/>
<path d="M84.5904 510.82C95.5504 512.08 106.417 513.763 117.19 515.87C122.58 516.94 127.95 518.02 133.28 519.29C138.61 520.56 143.93 521.86 149.18 523.34C151.8 524.11 154.42 524.86 156.98 525.74L158.92 526.36L160.82 527.04C162.08 527.5 163.36 527.93 164.57 528.46C165.797 528.931 166.999 529.465 168.17 530.06L169.9 530.92L171.4 531.92C173.414 533.374 175.206 535.112 176.72 537.08C179.826 541.175 182.139 545.815 183.54 550.76C184.255 553.145 184.658 555.612 184.74 558.1C184.713 559.313 184.559 560.519 184.28 561.7C184.05 563.1 183.88 564.43 183.61 565.7C183.202 568.032 182.332 570.259 181.05 572.25C180.89 572.49 180.75 572.73 180.58 572.96L180.02 573.6C179.67 574.055 179.267 574.468 178.82 574.83C178.37 575.2 177.96 575.61 177.49 575.96L175.99 576.96C175.482 577.291 174.943 577.572 174.38 577.8C173.82 578.06 173.29 578.35 172.71 578.58L170.92 579.18C170.326 579.402 169.718 579.586 169.1 579.73C167.84 580 166.61 580.34 165.32 580.55L161.43 581.1C156.22 581.57 150.62 581.68 145.15 581.85L128.67 582.28C123.18 582.41 117.67 582.43 112.2 582.44C106.73 582.45 101.2 582.36 95.7605 582.13C90.3205 581.9 84.7605 581.55 79.3805 580.9C76.6629 580.585 73.9628 580.135 71.2904 579.55C68.5937 579.018 65.9666 578.179 63.4604 577.05C68.2204 579.91 73.7004 581.36 79.1004 582.54C84.5004 583.72 90.0404 584.44 95.5404 585.07C106.54 586.22 117.62 586.75 128.67 586.96C134.19 587.1 139.67 587.15 145.23 587.11C150.79 587.07 156.23 587.11 161.97 586.76L166.27 586.23C167.7 586.01 169.14 585.63 170.57 585.34C171.291 585.168 172.002 584.958 172.7 584.71L174.83 584.01C175.53 583.73 176.22 583.38 176.92 583.07C177.614 582.77 178.283 582.416 178.92 582.01L180.92 580.76C181.56 580.29 182.15 579.76 182.76 579.24C183.375 578.72 183.941 578.144 184.45 577.52L185.25 576.61C185.49 576.29 185.71 575.95 185.94 575.61C187.679 572.98 188.873 570.029 189.45 566.93C189.76 565.45 189.93 564.04 190.14 562.72C190.25 562.11 190.34 561.65 190.48 560.65C190.591 559.814 190.644 558.973 190.64 558.13C190.53 555.107 190.026 552.112 189.14 549.22C188.322 546.402 187.233 543.669 185.89 541.06C184.574 538.412 182.971 535.917 181.11 533.62C179.2 531.267 176.956 529.205 174.45 527.5L172.45 526.29L170.45 525.35C169.12 524.69 167.79 524.22 166.45 523.7C161.178 521.791 155.794 520.201 150.33 518.94C139.534 516.416 128.612 514.463 117.61 513.09C106.661 511.656 95.6333 510.898 84.5904 510.82Z" fill="#231F20"/>
<path d="M498.72 624.46C498.72 624.46 504.16 616.75 490.21 614.09C476.26 611.43 464.21 609.95 464.21 609.95L465.32 625.84C465.32 625.84 491.64 631.89 498.72 624.46Z" fill="#131429"/>
<path d="M466.86 636.54C466.86 636.54 470.93 604.33 440.26 594.04C409.59 583.75 363.13 576.04 350.47 579.42C337.81 582.8 327.28 596.42 326.23 603.02C325.18 609.62 318.05 624.12 347.05 636.25C376.05 648.38 418.59 665.6 435.79 663.25C452.99 660.9 465 647.68 466.86 636.54Z" fill="#49BEA2"/>
<path d="M435.79 663.29C444.24 662.938 452.298 659.633 458.56 653.95C461.776 651.094 464.443 647.674 466.43 643.86C466.916 642.886 467.343 641.884 467.71 640.86L468.23 639.29C468.38 638.75 468.5 638.19 468.62 637.64L468.81 636.79L468.9 635.92C468.94 635.38 468.97 634.84 468.99 634.3C469.04 633.24 468.99 632.17 468.99 631.11C468.821 626.858 468.098 622.646 466.84 618.58C465.548 614.503 463.584 610.671 461.03 607.24C459.754 605.54 458.325 603.96 456.76 602.52C455.207 601.111 453.534 599.84 451.76 598.72C448.227 596.532 444.349 594.957 440.29 594.06C447.75 597.43 454.29 602.4 458.52 609.06C462.653 615.746 464.908 623.421 465.05 631.28C465.05 632.28 465.1 633.28 465.05 634.2C465.05 634.69 465.05 635.2 464.99 635.65V636.3L464.85 636.94C464.465 638.774 463.875 640.558 463.09 642.26C461.415 645.763 459.179 648.968 456.47 651.75C450.817 657.488 443.642 661.492 435.79 663.29Z" fill="#231F20"/>
<path d="M440.26 594.04C429.964 590.032 419.43 586.662 408.72 583.95C397.975 581.21 387.094 579.04 376.12 577.45C370.574 576.627 364.984 576.143 359.38 576C357.939 575.952 356.497 575.979 355.06 576.08L352.86 576.22L350.55 576.62C347.594 577.294 344.751 578.392 342.11 579.88C339.546 581.347 337.145 583.083 334.95 585.06C332.751 587.005 330.742 589.155 328.95 591.48C327.068 593.847 325.508 596.453 324.31 599.23C323.995 600.007 323.738 600.806 323.54 601.62C323.3 602.62 323.22 603.07 323.1 603.68C322.81 604.99 322.45 606.35 322.2 607.85C321.602 610.945 321.64 614.13 322.31 617.21C322.4 617.6 322.48 618 322.58 618.39L322.99 619.53C323.242 620.293 323.56 621.032 323.94 621.74C324.32 622.44 324.68 623.16 325.1 623.83L326.49 625.72C326.948 626.338 327.456 626.916 328.01 627.45C328.54 628 329.01 628.57 329.61 629.09L331.34 630.52C331.893 631.011 332.478 631.465 333.09 631.88C334.32 632.68 335.52 633.55 336.77 634.28L340.58 636.34C345.82 638.8 350.89 640.72 356.03 642.78C361.17 644.84 366.32 646.78 371.51 648.69C381.87 652.52 392.36 656.07 403.04 659.02C408.4 660.44 413.79 661.76 419.27 662.66C424.75 663.56 430.36 664.18 435.83 663.26C433.089 663.394 430.341 663.216 427.64 662.73C424.946 662.302 422.275 661.734 419.64 661.03C414.34 659.66 409.11 658.03 403.94 656.2C398.77 654.37 393.62 652.5 388.52 650.49C383.42 648.48 378.31 646.49 373.24 644.33L358.06 637.92C353.06 635.75 347.85 633.61 343.18 631.28L339.75 629.34C338.63 628.68 337.61 627.91 336.53 627.2C336.01 626.837 335.512 626.443 335.04 626.02L333.6 624.81C333.14 624.38 332.75 623.92 332.32 623.48C331.88 623.059 331.482 622.597 331.13 622.1L330.13 620.66C329.82 620.16 329.58 619.66 329.3 619.13C329.018 618.628 328.796 618.094 328.64 617.54L328.34 616.74C328.27 616.47 328.23 616.18 328.17 615.91C327.7 613.6 327.7 611.22 328.17 608.91C328.36 607.69 328.68 606.38 328.98 605C329.153 603.799 329.452 602.619 329.87 601.48C330.851 599.192 332.125 597.041 333.66 595.08C336.776 590.99 340.624 587.514 345.01 584.83C347.099 583.557 349.358 582.587 351.72 581.95L353.48 581.6L355.39 581.43C356.66 581.28 358 581.29 359.33 581.26C360.66 581.23 362 581.26 363.33 581.26L365.33 581.32L367.33 581.44C370.04 581.57 372.75 581.82 375.47 582.05C380.896 582.603 386.32 583.27 391.74 584.05C397.17 584.8 402.57 585.76 407.98 586.73C418.833 588.783 429.593 591.22 440.26 594.04Z" fill="#231F20"/>
<path d="M477.72 645.4C477.72 645.4 482.87 638.24 466.23 631.84C449.59 625.44 444.78 633.84 444.23 635.79C443.68 637.74 445.66 642.69 456.57 646.35C467.48 650.01 476.32 647.76 477.72 645.4Z" fill="#131429"/>
<path d="M436.981 609.84C436.981 609.84 439.981 596.17 452.441 597.84C471.121 600.42 464.851 627.84 455.001 627.71C445.151 627.58 448.721 615.95 448.721 615.95C448.721 615.95 437.161 620.62 436.981 609.84Z" fill="#131429"/>
<path d="M466.25 661.31C466.25 661.31 472.4 656.22 460.11 647.31C447.82 638.4 441.63 644.61 440.64 646.17C439.65 647.73 440.06 652.38 448.25 657.77C456.44 663.16 464.48 663.05 466.25 661.31Z" fill="#131429"/>
</g>
<defs>
<clipPath id="clip0_4342_750">
<rect width="622.03" height="963.75" fill="white" transform="matrix(-1 0 0 1 622.03 0)"/>
</clipPath>
</defs>
</svg>
