<svg width="486" height="503" viewBox="0 0 486 503" fill="none" xmlns="http://www.w3.org/2000/svg">
<g clip-path="url(#clip0_2076_334)">
<path d="M247.427 304.472C255.189 280.414 252.986 256.007 246.753 235.054C241.074 216.001 238.742 187.513 258.521 179.221L258.112 178.524C251.925 158.449 239.431 106.244 238.295 85.8734C236.932 61.5426 244.103 47.4046 259.543 47.4803C267.419 47.4803 271.72 54.1366 274.833 63.6932C277.438 63.7765 280.133 63.9431 282.405 64.246C290.046 65.2532 292.5 84.9723 292.5 84.9723C310.129 83.9651 312.294 114.46 314.46 128.03C316.081 138.049 326.66 178.857 332.089 199.546C357.412 232.108 390.822 271.705 391.155 360.449C391.224 376.616 415.524 411.708 426.429 427.784C428.266 430.482 429.328 433.632 429.499 436.891C429.67 440.15 428.943 443.394 427.398 446.269C422.763 454.803 413.722 467.427 396.653 480.346C378.479 494.075 358.434 498.323 345.265 499.52C337.019 500.277 332.188 493.56 326.122 487.918C319.307 481.61 274.34 443.672 253.864 400.197C234.652 359.237 243.58 316.399 247.427 304.472Z" fill="#69A9DC"/>
<path d="M303.139 108.894C303.139 108.894 294.196 104.933 293.484 89.5762C293.484 89.5762 292.174 84.9115 296.77 85.2068C301.367 85.5021 306.335 92.5901 307.948 97.323C309.026 100.643 309.931 104.018 310.659 107.432C310.659 107.432 306.539 110.355 303.139 108.894Z" fill="#293B90"/>
<path d="M288.289 70.5541C288.289 70.5541 284.291 62.0803 279.603 63.7917C274.916 65.5031 275.878 64.8973 275.878 64.8973L279.831 85.3434C279.831 85.3434 283.2 91.6665 288.16 90.4019C293.12 89.1373 290.773 77.536 288.289 70.5541Z" fill="#293B90"/>
<path d="M344.675 320.291C340.389 315.467 336.345 310.447 332.392 305.32C330.423 302.765 328.497 300.173 326.614 297.543C324.736 294.915 322.828 292.287 321.071 289.584C317.474 284.207 313.998 278.732 310.833 273.068C307.598 267.419 304.712 261.577 302.192 255.575C300.973 252.546 299.784 249.472 298.853 246.299C298.595 245.542 298.391 244.709 298.179 243.914C297.967 243.119 297.732 242.301 297.566 241.521L296.46 236.795C295.021 230.503 293.666 224.21 292.189 217.97C290.776 211.769 289.044 205.645 287.002 199.621C285.98 196.68 284.756 193.813 283.337 191.042C282.009 188.363 280.271 185.908 278.187 183.764L277.43 183.007L276.605 182.356L276.188 182.023L275.756 181.743L274.878 181.182L273.962 180.728L273.5 180.501L273.015 180.334L272.061 179.993L271.062 179.781C268.388 179.175 265.511 179.622 262.61 180.38C259.79 181.124 257.141 182.41 254.811 184.166C252.522 185.941 250.635 188.181 249.275 190.739C247.848 193.361 246.827 196.185 246.246 199.114C245.64 202.119 245.316 205.174 245.277 208.239C245.23 214.484 245.911 220.713 247.306 226.8C247.639 228.314 248.003 229.829 248.412 231.343C248.821 232.858 249.268 234.334 249.707 235.947L250.381 238.31L250.987 240.695C251.403 242.278 251.744 243.891 252.1 245.489C253.498 251.915 254.399 258.439 254.796 265.003C255.668 278.209 254.152 291.464 250.32 304.131L249.639 306.403C249.419 307.16 249.192 307.917 249.01 308.675L248.427 310.946L247.92 313.218C247.246 316.293 246.7 319.413 246.254 322.54C245.377 328.815 244.872 335.137 244.739 341.472C244.656 354.103 245.852 366.802 249.192 378.971L250.456 383.515C250.911 385.029 251.471 386.498 251.971 387.99L252.728 390.216L253.114 391.33C253.243 391.701 253.417 392.087 253.569 392.42L255.424 396.759L256.348 398.932L257.423 401.045L259.574 405.278C259.945 405.975 260.263 406.702 260.672 407.376L261.868 409.436L264.254 413.548C270.903 424.419 278.419 434.737 286.729 444.398C295.041 454.121 303.844 463.412 313.105 472.235C317.739 476.68 322.449 480.929 327.288 485.275C329.772 487.502 331.998 489.925 334.24 491.985C336.481 494.044 338.783 495.771 341.275 496.46C342.506 496.799 343.787 496.922 345.061 496.824L347.401 496.581L349.741 496.286C352.856 495.862 355.948 495.307 359.017 494.62C362.087 493.933 365.116 493.103 368.104 492.129C371.073 491.121 374.026 490.069 376.889 488.781C382.635 486.299 388.099 483.207 393.185 479.558C398.306 475.871 403.145 471.808 407.664 467.404C412.2 463.057 416.337 458.31 420.022 453.221C421.832 450.681 423.498 448.041 425.013 445.315C426.381 442.904 427.062 440.164 426.981 437.394C426.894 434.627 426.062 431.935 424.573 429.602L419.204 421.635C415.607 416.281 412.048 410.875 408.603 405.384C405.157 399.894 401.84 394.313 398.758 388.566C395.557 382.8 392.852 376.774 390.671 370.55C389.507 367.261 388.851 363.814 388.725 360.327C388.657 357.132 388.656 353.928 388.543 350.733C388.429 347.537 388.338 344.349 388.089 341.161L387.771 336.383C387.642 334.793 387.483 333.202 387.339 331.612C386.174 318.905 384.017 306.309 380.887 293.938C377.747 281.599 373.436 269.587 368.014 258.067C362.513 246.562 356.022 235.558 348.613 225.179C344.94 219.946 341.085 214.835 337.155 209.746L331.233 202.12L328.273 198.334L326.796 196.403L325.357 194.427C317.707 183.899 310.945 172.754 305.138 161.107C299.324 149.471 294.149 137.527 289.637 125.327C285.2 113.157 281.201 100.784 278.437 88.0467C277.036 81.7311 275.802 75.4232 274.189 69.2969C273.416 66.2665 272.455 63.2872 271.311 60.3764C270.264 57.5995 268.725 55.0343 266.768 52.8038C265.879 51.8087 264.794 51.0089 263.58 50.4549C262.367 49.9009 261.052 49.6049 259.718 49.5854C256.839 49.4768 253.978 50.0802 251.388 51.3423C248.849 52.6793 246.719 54.6784 245.224 57.1277C243.645 59.6847 242.482 62.4758 241.778 65.397C241.029 68.4053 240.547 71.4741 240.339 74.5675C240.113 77.7023 240.065 80.8475 240.196 83.9878C240.569 90.3384 241.328 96.6605 242.467 102.919C243.512 109.235 244.739 115.543 246.026 121.851C247.314 128.159 248.715 134.414 250.161 140.676C251.607 146.939 253.137 153.186 254.705 159.411C256.272 165.636 257.953 171.845 259.801 177.964C259.94 178.42 259.891 178.912 259.667 179.332C259.443 179.753 259.06 180.067 258.605 180.205C258.149 180.344 257.656 180.296 257.236 180.071C256.816 179.847 256.502 179.465 256.363 179.009C254.462 172.799 252.759 166.567 251.13 160.32C249.502 154.072 247.935 147.81 246.466 141.524C244.997 135.239 243.55 128.946 242.225 122.593C240.9 116.24 239.628 109.939 238.537 103.548C236.356 90.8561 234.622 77.5208 237.78 64.3444C238.591 61.0091 239.922 57.8223 241.725 54.9014C243.607 51.8176 246.286 49.2983 249.48 47.609C252.696 46.0033 256.261 45.2226 259.854 45.3372C261.761 45.356 263.644 45.7712 265.382 46.5564C267.091 47.3535 268.633 48.4689 269.926 49.8429C272.478 52.5009 274.03 55.6435 275.348 58.7331C276.576 61.8143 277.605 64.971 278.43 68.1837C280.111 74.5144 281.36 80.8527 282.761 87.1153C285.487 99.5646 289.455 111.764 293.863 123.782C298.325 135.777 303.439 147.519 309.182 158.957C314.892 170.364 321.538 181.279 329.052 191.587L330.461 193.51L331.93 195.419L334.883 199.205L340.828 206.823C344.788 211.927 348.696 217.099 352.444 222.4C360.027 232.993 366.681 244.222 372.33 255.962C377.92 267.752 382.375 280.047 385.635 292.681C388.855 305.295 391.081 318.143 392.291 331.105C392.443 332.718 392.617 334.338 392.746 335.959L393.079 340.813C393.344 344.054 393.405 347.302 393.564 350.544C393.723 353.785 393.692 357.026 393.76 360.274C393.898 363.234 394.478 366.156 395.479 368.945C397.581 374.876 400.18 380.619 403.249 386.112C406.278 391.716 409.564 397.198 412.965 402.613C416.365 408.027 419.916 413.389 423.506 418.712L428.958 426.762C430.972 429.878 432.097 433.485 432.212 437.193C432.327 440.902 431.427 444.571 429.609 447.806C428.002 450.715 426.232 453.532 424.308 456.242C420.478 461.613 416.169 466.626 411.435 471.221C406.73 475.819 401.688 480.059 396.35 483.905C390.961 487.773 385.173 491.053 379.085 493.689C376.056 495.044 372.951 496.165 369.823 497.225C366.696 498.285 363.493 499.118 360.274 499.853C357.056 500.587 353.807 501.163 350.536 501.609L348.082 501.92L345.621 502.177C343.686 502.355 341.735 502.189 339.859 501.685C338.043 501.16 336.323 500.35 334.762 499.285C333.314 498.3 331.944 497.203 330.665 496.006C328.167 493.734 326.031 491.379 323.706 489.304C318.966 485.048 314.097 480.671 309.432 476.196C300.02 467.238 291.078 457.8 282.64 447.92C274.132 438.046 266.436 427.501 259.627 416.387L257.166 412.147L255.931 410.057C255.515 409.36 255.174 408.61 254.796 407.883L252.562 403.499L251.448 401.31L250.479 399.039L248.533 394.495C248.374 394.116 248.192 393.738 248.056 393.352L247.647 392.193L246.829 389.861C246.299 388.301 245.716 386.756 245.231 385.188L243.914 380.433C240.43 367.726 239.143 354.527 239.279 341.426C239.429 334.87 239.971 328.328 240.9 321.836C241.369 318.595 241.937 315.361 242.649 312.143L243.187 309.735L243.815 307.327C244.005 306.532 244.247 305.729 244.497 304.926L245.193 302.586C248.869 290.54 250.341 277.929 249.54 265.359C249.177 259.056 248.326 252.79 246.996 246.617C246.655 245.103 246.337 243.527 245.936 241.998L245.36 239.726L244.716 237.454C244.307 235.94 243.808 234.349 243.406 232.752C243.005 231.154 242.596 229.548 242.255 227.935C240.823 221.445 240.15 214.81 240.249 208.163C240.317 204.754 240.707 201.359 241.415 198.024C242.107 194.626 243.309 191.353 244.981 188.316C246.686 185.184 249.032 182.446 251.865 180.281C254.703 178.161 257.929 176.617 261.361 175.737C263.055 175.277 264.785 174.965 266.533 174.806C266.986 174.759 267.441 174.739 267.896 174.745C268.35 174.745 268.805 174.745 269.259 174.745L270.637 174.889L271.327 174.965L272.008 175.117L273.364 175.435L274.681 175.897L275.332 176.139L275.961 176.442L277.203 177.07L278.354 177.828C278.551 177.949 278.748 178.07 278.929 178.206L279.46 178.63L280.52 179.486L281.481 180.417C283.887 182.93 285.883 185.805 287.396 188.937C288.897 191.91 290.19 194.984 291.265 198.137C293.321 204.316 295.055 210.597 296.46 216.955C297.914 223.263 299.232 229.579 300.617 235.849L301.678 240.544C301.852 241.301 302.056 242.058 302.238 242.816C302.42 243.573 302.609 244.33 302.851 245.087C303.684 248.116 304.782 251.077 305.88 254.038C310.583 265.821 316.747 277.104 323.373 288.115C329.999 299.126 337.193 309.788 344.675 320.291Z" fill="#231F20"/>
<path d="M273.56 64.8213C274.096 64.336 274.677 63.9024 275.295 63.5264C275.907 63.151 276.557 62.839 277.233 62.595C278.67 62.0632 280.219 61.9119 281.731 62.1558C283.264 62.4211 284.704 63.0755 285.911 64.0565C287.041 64.948 288.029 66.0049 288.842 67.1916C290.33 69.4201 291.51 71.8401 292.348 74.3856C293.161 76.8096 293.829 79.2802 294.347 81.784C295.483 86.6305 296.377 91.4996 297.376 96.3613L299.989 110.939L302.51 125.516C302.904 127.954 303.343 130.37 303.76 132.801L304.419 136.436L305.047 140.078C305.509 142.494 305.941 144.917 306.425 147.325L307.13 150.952L307.887 154.557L308.258 156.359L308.697 158.154C308.993 159.343 309.258 160.554 309.583 161.736L310.583 165.295L311.779 168.801L309.947 165.545L308.387 162.152C307.857 161.016 307.455 159.842 306.993 158.684L306.312 156.935L305.691 155.178C304.04 150.475 302.662 145.697 301.359 140.896C300.057 136.095 298.944 131.271 297.815 126.44C296.687 121.608 295.748 116.754 294.786 111.908L292.022 97.3457L289.357 82.8139C288.969 80.4627 288.463 78.1325 287.842 75.8319C287.269 73.6359 286.413 71.5233 285.298 69.5466C284.215 67.6686 282.761 66.1844 281.035 65.6998C280.111 65.4478 279.139 65.4348 278.21 65.6619C277.691 65.7706 277.183 65.9304 276.695 66.139C276.224 66.3538 275.77 66.6071 275.34 66.8962L275.219 66.9795C274.935 67.1844 274.582 67.2706 274.236 67.2199C273.889 67.1693 273.576 66.9858 273.362 66.7082C273.149 66.4307 273.051 66.0809 273.091 65.7329C273.131 65.385 273.305 65.0662 273.576 64.8441L273.56 64.8213Z" fill="#231F20"/>
<path d="M292.038 83.7836C293.588 83.2837 295.232 83.1388 296.846 83.3595C298.471 83.6105 300.021 84.2126 301.39 85.1239C303.841 86.8472 305.885 89.0854 307.38 91.6818C308.806 94.0907 310.007 96.6255 310.969 99.2544C311.921 101.82 312.738 104.433 313.415 107.084C314.104 109.712 314.68 112.385 315.164 115.013C315.397 116.341 315.621 117.668 315.838 118.996L316.444 122.934C317.201 128.053 318.262 133.225 319.344 138.367C320.427 143.509 321.571 148.666 322.775 153.807C323.979 158.949 325.19 164.091 326.379 169.24L330.014 184.681L333.634 200.144C333.695 200.421 333.648 200.71 333.503 200.953C333.358 201.196 333.126 201.375 332.854 201.453C332.582 201.531 332.29 201.502 332.039 201.373C331.787 201.244 331.594 201.024 331.498 200.758C328.111 190.691 324.973 180.556 322.086 170.354C319.178 160.146 316.497 149.908 314.119 139.495C312.991 134.285 311.848 129.083 311.09 123.729L310.515 119.806C310.318 118.519 310.106 117.239 309.886 115.96C309.432 113.4 308.924 110.863 308.326 108.387C307.728 105.911 307.016 103.412 306.198 101.004C305.411 98.6309 304.415 96.3324 303.222 94.1353C302.18 92.0642 300.706 90.241 298.898 88.789C298.084 88.1636 297.138 87.7305 296.132 87.522C295.126 87.3135 294.086 87.335 293.09 87.585C292.588 87.7226 292.052 87.6551 291.6 87.3973C291.147 87.1396 290.816 86.7127 290.678 86.2106C290.541 85.7085 290.608 85.1723 290.866 84.72C291.124 84.2677 291.551 83.9363 292.053 83.7987L292.038 83.7836Z" fill="#231F20"/>
<path d="M278.225 191.39C278.225 191.39 288.229 212.381 276.711 218.076C265.193 223.771 258.536 222.294 250.472 201.333C243.315 182.674 269.888 168.12 278.225 191.39Z" fill="#2866B1"/>
<path d="M260.013 180.061C261.893 179.201 263.953 178.806 266.018 178.91C267.082 178.967 268.134 179.153 269.153 179.463C269.653 179.645 270.16 179.834 270.668 180.046C271.175 180.258 271.637 180.523 272.091 180.804C273.945 181.938 275.556 183.428 276.832 185.188C278.089 186.921 279.141 188.794 279.967 190.769L279.899 190.595C280.806 192.4 281.61 194.256 282.307 196.153C283.021 198.058 283.595 200.011 284.026 201.999C284.483 204.058 284.709 206.161 284.7 208.269C284.715 210.565 284.232 212.836 283.284 214.926C282.753 216.037 282.053 217.059 281.209 217.955C280.352 218.852 279.358 219.606 278.263 220.189L277.869 220.416L277.528 220.582L276.839 220.916C276.37 221.128 275.908 221.34 275.431 221.544C274.463 221.968 273.475 222.342 272.47 222.665C271.407 222.996 270.321 223.249 269.221 223.422C268.046 223.582 266.856 223.597 265.677 223.468C264.455 223.337 263.261 223.012 262.141 222.506C261.058 222.01 260.04 221.382 259.112 220.635C257.439 219.222 255.993 217.559 254.826 215.706C253.718 213.988 252.738 212.191 251.895 210.329C251.032 208.512 250.32 206.656 249.623 204.801C249.275 203.877 248.965 202.946 248.647 202.014C248.322 201.001 248.069 199.966 247.889 198.917C247.14 194.711 248.023 190.378 250.358 186.801C252.562 183.371 256.032 180.951 260.013 180.069C256.588 181.671 253.835 184.427 252.236 187.854C250.729 191.081 250.444 194.746 251.433 198.168C251.66 199.008 251.941 199.832 252.274 200.636C252.668 201.507 253.031 202.385 253.448 203.241C254.205 204.968 255.098 206.649 255.969 208.292C256.833 209.899 257.794 211.452 258.847 212.942C259.811 214.326 260.966 215.568 262.277 216.63C263.415 217.543 264.793 218.109 266.245 218.258C267.819 218.371 269.399 218.16 270.887 217.637C271.705 217.372 272.531 217.076 273.356 216.72C273.772 216.554 274.189 216.357 274.598 216.175L275.219 215.88L275.537 215.728L275.772 215.592L276.241 215.335C276.393 215.244 276.521 215.13 276.665 215.032C276.948 214.835 277.214 214.615 277.46 214.373C277.949 213.873 278.357 213.301 278.672 212.677C279.345 211.252 279.723 209.707 279.785 208.133C279.859 206.361 279.76 204.585 279.49 202.832C278.91 199.186 277.93 195.616 276.567 192.185L276.491 192.011C275.955 190.223 275.231 188.497 274.333 186.862L273.576 185.688L272.735 184.59C272.455 184.226 272.129 183.908 271.826 183.552C271.523 183.196 271.145 182.931 270.812 182.613C269.368 181.411 267.665 180.561 265.836 180.13C263.921 179.7 261.937 179.676 260.013 180.061Z" fill="#231F20"/>
<path d="M251.305 51.5389C251.305 51.5389 254.856 77.8083 268.32 78.611C281.784 79.4137 272.864 60.6033 272.864 60.6033C272.864 60.6033 266.624 41.634 251.305 51.5389Z" fill="#293B90"/>
<path d="M251.176 49.1538C252.986 53.9018 254.689 58.5287 256.674 62.9208C257.632 65.071 258.728 67.1577 259.952 69.1682C261.06 71.034 262.461 72.7088 264.102 74.1283C264.825 74.7462 265.647 75.2378 266.533 75.5822C266.741 75.6734 266.956 75.7468 267.177 75.8018C267.39 75.877 267.611 75.9303 267.836 75.9608L268.51 76.0669L269.267 76.1123C270.12 76.164 270.975 76.043 271.781 75.7564C272.452 75.4742 272.993 74.9498 273.295 74.2873C273.715 73.3802 273.954 72.4003 274 71.4021C274.094 70.248 274.094 69.088 274 67.9339C273.773 65.4706 273.402 63.0229 272.886 60.6036C273.664 61.6198 274.355 62.6989 274.954 63.8295C275.575 64.9676 276.107 66.1526 276.544 67.3735C277.008 68.637 277.333 69.9472 277.513 71.281C277.743 72.768 277.648 74.2872 277.233 75.7337C277.116 76.1407 276.961 76.5362 276.771 76.915C276.575 77.3128 276.344 77.6928 276.082 78.0509C275.802 78.4091 275.493 78.7434 275.158 79.0505C274.819 79.3469 274.454 79.613 274.068 79.8456C272.635 80.6542 271.025 81.0988 269.38 81.1405H268.267C267.881 81.1405 267.51 81.0648 267.093 81.0269C266.699 80.9881 266.309 80.9146 265.927 80.8073C265.539 80.729 265.157 80.6227 264.784 80.4893C263.337 79.9638 261.99 79.1956 260.801 78.2175C259.693 77.297 258.695 76.2527 257.825 75.1051C257.01 74.0022 256.279 72.8404 255.636 71.6293C254.433 69.2933 253.481 66.8361 252.796 64.299C251.425 59.3744 250.878 54.257 251.176 49.1538Z" fill="#231F20"/>
<path d="M292.757 92.166C292.545 92.2568 292.416 92.3023 292.288 92.3477L291.886 92.4764C291.629 92.5446 291.379 92.6203 291.129 92.6658C290.63 92.7765 290.124 92.8549 289.614 92.9005C288.56 92.9875 287.498 92.916 286.464 92.6885C283.915 92.063 281.685 90.5246 280.194 88.3645L279.437 87.1453C279.202 86.7458 278.999 86.328 278.831 85.8958C278.649 85.4718 278.437 85.0553 278.293 84.6312C278.043 83.7831 277.741 82.935 277.536 82.0868L277.029 79.55C276.942 79.0748 277.04 78.5846 277.303 78.1795C277.566 77.7745 277.974 77.4852 278.444 77.371C278.913 77.2569 279.408 77.3264 279.828 77.5653C280.248 77.8043 280.56 78.1946 280.701 78.6564L280.747 78.8382L281.36 81.0191C281.587 81.7233 281.898 82.3822 282.118 83.0713C282.261 83.4045 282.451 83.6922 282.61 84.0027C282.76 84.3124 282.932 84.611 283.125 84.8963L283.715 85.699C283.911 85.9435 284.129 86.1691 284.367 86.3729C285.166 87.1751 286.206 87.6938 287.327 87.8496C287.882 87.9327 288.446 87.9327 289.001 87.8496C289.287 87.7967 289.57 87.7284 289.849 87.6451C289.985 87.6072 290.114 87.5542 290.243 87.5088C290.304 87.491 290.362 87.4655 290.417 87.4331L290.516 87.3876C291.153 87.0864 291.884 87.0508 292.548 87.2887C293.212 87.5265 293.754 88.0184 294.056 88.6561C294.357 89.2937 294.393 90.0249 294.155 90.6889C293.917 91.3528 293.425 91.895 292.787 92.1963L292.757 92.166Z" fill="#231F20"/>
<path d="M310.621 106.781C310.621 107.251 298.065 114.467 294.991 98.5195" stroke="#231F20" stroke-width="7.01" stroke-miterlimit="10" stroke-linecap="round"/>
<path d="M234.304 304.472C226.542 280.414 228.746 256.007 234.978 235.054C240.65 216.001 242.99 187.513 223.21 179.221L223.619 178.524C229.806 158.449 242.293 106.244 243.437 85.8734C244.8 61.5426 237.629 47.4046 222.18 47.4803C214.312 47.4803 210.011 54.1366 206.899 63.6932C204.286 63.7765 201.598 63.9431 199.326 64.246C191.678 65.2532 189.232 84.9723 189.232 84.9723C171.603 83.9651 169.43 114.46 167.234 128.03C165.605 138.049 155.027 178.857 149.605 199.546C124.274 232.108 90.8714 271.705 90.5382 360.449C90.4776 376.616 66.1695 411.708 55.2725 427.784C53.4325 430.481 52.369 433.631 52.198 436.891C52.0271 440.151 52.7553 443.395 54.3033 446.269C58.9377 454.803 67.9718 467.427 85.048 480.346C103.184 494.075 123.259 498.323 136.428 499.52C144.675 500.277 149.514 493.56 155.579 487.918C162.395 481.61 207.353 443.672 227.83 400.197C247.079 359.237 238.151 316.399 234.304 304.472Z" fill="#69A9DC"/>
<path d="M178.562 108.894C178.562 108.894 187.513 104.933 188.225 89.5762C188.225 89.5762 189.535 84.9115 184.931 85.2068C180.326 85.5021 175.374 92.5901 173.761 97.323C172.678 100.642 171.773 104.017 171.05 107.432C171.05 107.432 175.177 110.355 178.562 108.894Z" fill="#293B90"/>
<path d="M193.442 70.5541C193.442 70.5541 197.433 62.0803 202.128 63.7917C206.823 65.5031 205.823 64.8973 205.823 64.8973L201.878 85.3434C201.878 85.3434 198.508 91.6665 193.548 90.4019C188.588 89.1373 190.958 77.536 193.442 70.5541Z" fill="#293B90"/>
<path d="M137.057 320.291C144.538 309.788 151.679 299.088 158.32 288.092C164.962 277.097 171.118 265.837 175.821 254.016C176.949 251.055 178.047 248.086 178.85 245.065C179.085 244.308 179.266 243.55 179.456 242.793C179.645 242.036 179.842 241.279 180.016 240.521L181.076 235.826C182.469 229.556 183.787 223.241 185.233 216.933C186.64 210.564 188.377 204.273 190.436 198.084C191.505 194.93 192.796 191.856 194.298 188.884C195.826 185.773 197.829 182.92 200.235 180.425L201.197 179.494L202.249 178.638L202.779 178.214C202.969 178.078 203.165 177.956 203.355 177.835L204.513 177.078L205.755 176.45L206.376 176.147L207.035 175.904L208.353 175.442L209.708 175.124L210.39 174.973L211.079 174.897L212.449 174.753C212.911 174.753 213.366 174.753 213.82 174.753C214.273 174.747 214.725 174.767 215.176 174.814C216.924 174.972 218.654 175.284 220.348 175.745C223.779 176.625 227.006 178.168 229.844 180.289C232.679 182.452 235.025 185.19 236.727 188.323C238.415 191.355 239.63 194.626 240.332 198.024C241.027 201.333 241.409 204.7 241.475 208.08C241.578 214.727 240.904 221.362 239.469 227.852C239.128 229.465 238.749 231.078 238.325 232.669C237.901 234.259 237.424 235.872 237.015 237.371L236.371 239.643L235.796 241.915C235.394 243.429 235.039 244.997 234.736 246.534C233.402 252.706 232.551 258.972 232.191 265.276C231.39 277.846 232.862 290.456 236.538 302.503L237.235 304.843C237.477 305.646 237.719 306.448 237.916 307.244L238.537 309.652L239.075 312.06C239.787 315.278 240.354 318.512 240.832 321.753C241.753 328.246 242.294 334.787 242.452 341.343C242.588 354.444 241.301 367.643 237.818 380.35L236.492 385.105C236.008 386.673 235.425 388.217 234.895 389.777L234.084 392.11L233.675 393.268C233.532 393.655 233.357 394.026 233.198 394.412L231.252 398.955L230.275 401.227L229.17 403.416L226.898 407.8C226.512 408.558 226.141 409.277 225.755 409.974L224.528 412.102L222.059 416.342C215.267 427.47 207.586 438.03 199.091 447.92C190.655 457.784 181.715 467.207 172.307 476.151C167.642 480.626 162.781 485.003 158.033 489.259C155.715 491.334 153.58 493.666 151.081 495.961C149.801 497.156 148.431 498.253 146.984 499.24C145.423 500.303 143.703 501.113 141.888 501.64C140.016 502.157 138.068 502.339 136.133 502.178L133.672 501.92L131.211 501.61C127.944 501.165 124.701 500.58 121.48 499.853C118.261 499.096 115.073 498.232 111.931 497.225C108.788 496.218 105.683 495.044 102.662 493.689C96.5817 491.061 90.8011 487.788 85.419 483.928C80.0807 480.08 75.0361 475.84 70.3268 471.244C65.5753 466.645 61.2489 461.627 57.4003 456.25C55.474 453.541 53.7042 450.725 52.0995 447.814C51.2073 446.206 50.5301 444.487 50.0852 442.702C49.4294 440.009 49.3282 437.21 49.7878 434.477C50.2473 431.743 51.258 429.131 52.7583 426.8L58.203 418.75C61.8 413.449 65.3364 408.073 68.7441 402.651C72.1518 397.229 75.4458 391.754 78.4673 386.15C81.5329 380.655 84.1319 374.913 86.2368 368.983C87.2361 366.194 87.8129 363.272 87.9482 360.312C88.0164 357.064 88.0315 353.823 88.1527 350.582C88.2738 347.341 88.3723 344.092 88.6297 340.851L88.9705 335.997C89.0992 334.376 89.2658 332.756 89.4173 331.143C90.6349 318.168 92.8655 305.308 96.0888 292.681C99.3495 280.05 103.805 267.757 109.394 255.969C115.037 244.227 121.691 232.998 129.28 222.408C133.02 217.107 136.935 211.935 140.888 206.831L146.84 199.213L149.794 195.426L151.255 193.518L152.664 191.595C160.168 181.285 166.804 170.371 172.504 158.964C178.259 147.535 183.385 135.8 187.861 123.812C192.268 111.795 196.236 99.5799 198.963 87.1457C200.364 80.8832 201.613 74.5449 203.294 68.2142C204.12 65.0026 205.146 61.8461 206.369 58.7636C207.686 55.674 209.239 52.5313 211.791 49.8734C213.083 48.4999 214.625 47.3847 216.334 46.5869C218.072 45.8011 219.955 45.3859 221.862 45.3677C225.455 45.2547 229.02 46.0353 232.237 47.6394C235.43 49.3204 238.114 51.8285 240.006 54.9016C241.807 57.8424 243.131 61.0501 243.929 64.4052C247.079 77.5815 245.337 90.9093 243.172 103.609C242.081 110 240.824 116.338 239.484 122.654C238.143 128.969 236.727 135.27 235.243 141.585C233.759 147.901 232.214 154.133 230.571 160.38C228.927 166.628 227.246 172.86 225.338 179.07C225.189 179.513 224.873 179.882 224.457 180.096C224.041 180.31 223.557 180.353 223.11 180.215C222.662 180.078 222.286 179.771 222.062 179.361C221.837 178.95 221.782 178.468 221.908 178.017C223.755 171.898 225.414 165.689 227.004 159.464C228.594 153.239 230.124 147 231.548 140.73C232.971 134.459 234.387 128.197 235.675 121.904C236.962 115.611 238.189 109.303 239.241 102.972C240.377 96.7132 241.136 90.3913 241.513 84.041C241.638 80.8901 241.58 77.7345 241.339 74.5904C241.135 71.4966 240.653 68.4275 239.9 65.4199C239.196 62.5069 238.036 59.7236 236.462 57.1734C234.963 54.7274 232.834 52.7292 230.298 51.3879C227.708 50.1261 224.847 49.5227 221.968 49.631C220.636 49.6511 219.322 49.9474 218.109 50.5014C216.897 51.0554 215.813 51.8549 214.926 52.8494C212.965 55.0779 211.426 57.6437 210.382 60.422C209.235 63.3316 208.274 66.3111 207.505 69.3425C205.884 75.4688 204.65 81.7767 203.256 88.0923C200.523 100.814 196.532 113.211 192.094 125.327C187.594 137.493 182.434 149.404 176.639 161.009C170.829 172.654 164.067 183.798 156.42 194.328L154.981 196.305L153.504 198.236L150.543 202.022L144.622 209.648C140.699 214.827 136.837 219.939 133.126 225.172C125.723 235.554 119.232 246.558 113.725 258.059C108.296 269.581 103.973 281.592 100.814 293.931C97.6826 306.301 95.5279 318.897 94.3698 331.605C94.2259 333.195 94.0593 334.785 93.9381 336.375L93.6201 341.154C93.3626 344.342 93.3096 347.537 93.1582 350.726C93.0067 353.914 93.0446 357.124 92.984 360.32C92.8544 363.806 92.1983 367.253 91.0378 370.543C88.8536 376.765 86.1481 382.791 82.9503 388.558C79.8607 394.306 76.5211 399.879 73.1059 405.377C69.6906 410.875 66.1088 416.274 62.5042 421.628L57.1428 429.594C55.648 431.925 54.8156 434.619 54.7348 437.386C54.6515 440.157 55.3326 442.898 56.7036 445.307C58.2173 448.04 59.8886 450.682 61.7091 453.221C65.3857 458.329 69.5197 463.091 74.06 467.45C78.5777 471.852 83.4146 475.915 88.5313 479.604C93.609 483.245 99.0621 486.332 104.797 488.812C107.652 490.099 110.613 491.152 113.581 492.159C116.55 493.166 119.594 493.946 122.669 494.651C125.743 495.355 128.825 495.892 131.937 496.316L134.277 496.612L136.625 496.854C137.899 496.953 139.18 496.83 140.411 496.491C142.88 495.824 145.205 494.075 147.446 492.015C149.688 489.955 151.922 487.532 154.398 485.306C159.237 480.959 163.954 476.711 168.581 472.266C177.844 463.445 186.647 454.153 194.957 444.429C203.269 434.767 210.788 424.45 217.44 413.578L219.825 409.466L221.022 407.406C221.431 406.733 221.779 406.006 222.12 405.309L224.27 401.076L225.338 398.963L226.269 396.805L228.125 392.466C228.276 392.102 228.443 391.746 228.579 391.375L228.965 390.262L229.723 388.036C230.23 386.521 230.79 385.067 231.237 383.56L232.494 379.017C235.841 366.848 237.038 354.148 236.947 341.517C236.818 335.182 236.312 328.861 235.432 322.586C234.986 319.458 234.448 316.338 233.774 313.264L233.267 310.992L232.683 308.72C232.494 307.963 232.275 307.206 232.055 306.448L231.373 304.177C227.539 291.51 226.021 278.255 226.89 265.049C227.289 258.484 228.193 251.96 229.594 245.534C229.95 243.937 230.283 242.324 230.707 240.741L231.313 238.356L231.979 235.993C232.426 234.38 232.888 232.918 233.282 231.389C233.675 229.859 234.039 228.36 234.387 226.845C235.777 220.752 236.455 214.519 236.409 208.27C236.368 205.204 236.041 202.149 235.432 199.145C234.852 196.216 233.83 193.392 232.403 190.769C231.042 188.21 229.153 185.97 226.86 184.196C224.534 182.439 221.887 181.153 219.068 180.41C216.16 179.653 213.29 179.206 210.617 179.812L209.617 180.024L208.656 180.365L208.171 180.531L207.717 180.758L206.793 181.213L205.922 181.773L205.483 182.053L205.074 182.386L204.248 183.038L203.491 183.795C201.405 185.936 199.667 188.392 198.342 191.072C196.919 193.842 195.695 196.709 194.677 199.652C192.627 205.673 190.896 211.798 189.489 218C188.013 224.24 186.65 230.533 185.211 236.826L184.113 241.551C183.939 242.308 183.704 243.141 183.499 243.944C183.295 244.747 183.075 245.542 182.818 246.33C181.886 249.502 180.698 252.562 179.486 255.606C176.967 261.616 174.081 267.465 170.846 273.121C167.673 278.786 164.204 284.261 160.607 289.637C158.82 292.341 156.942 294.938 155.064 297.596C153.186 300.254 151.278 302.821 149.286 305.373C145.409 310.447 141.343 315.467 137.057 320.291Z" fill="#231F20"/>
<path d="M206.399 66.8735C205.971 66.5812 205.517 66.3278 205.044 66.1162C204.556 65.9054 204.049 65.7455 203.529 65.6392C202.602 65.412 201.632 65.4251 200.712 65.677C198.985 66.1617 197.531 67.6459 196.449 69.5239C195.33 71.499 194.475 73.6121 193.904 75.8092C193.268 78.1089 192.747 80.4392 192.344 82.7911L189.686 97.3229L186.922 111.885C185.93 116.732 184.931 121.586 183.855 126.417C182.78 131.248 181.629 136.087 180.319 140.873C179.009 145.659 177.638 150.452 175.98 155.155L175.359 156.912L174.685 158.661C174.215 159.82 173.814 160.993 173.284 162.129L171.747 165.552L169.922 168.808L171.118 165.302L172.118 161.743C172.443 160.562 172.701 159.35 173.004 158.161L173.435 156.367L173.814 154.564L174.571 150.96L175.276 147.332C175.76 144.924 176.192 142.501 176.646 140.085L177.282 136.443L177.941 132.808C178.358 130.377 178.797 127.962 179.191 125.523L181.735 110.939L184.385 96.3537C185.347 91.492 186.241 86.6229 187.414 81.7764C187.926 79.2718 188.592 76.8011 189.406 74.378C190.247 71.8338 191.427 69.4142 192.912 67.184C193.728 65.9971 194.719 64.9402 195.85 64.0489C197.056 63.0691 198.492 62.4147 200.023 62.1482C201.535 61.904 203.085 62.0553 204.521 62.5874C205.197 62.8314 205.847 63.1434 206.46 63.5188C207.08 63.8946 207.663 64.3282 208.201 64.8137C208.448 65.0443 208.6 65.3585 208.627 65.695C208.654 66.0315 208.555 66.3661 208.348 66.6332C208.142 66.9003 207.843 67.0807 207.511 67.1391C207.178 67.1976 206.836 67.1299 206.55 66.9492L206.399 66.8735Z" fill="#231F20"/>
<path d="M188.634 87.5546C187.639 87.3059 186.6 87.2849 185.596 87.4934C184.591 87.7019 183.647 88.1344 182.833 88.7587C181.023 90.2103 179.546 92.0335 178.502 94.1049C177.308 96.3007 176.314 98.5994 175.533 100.973C174.715 103.381 174.006 105.842 173.405 108.357C172.807 110.863 172.3 113.4 171.838 115.929C171.618 117.209 171.406 118.489 171.217 119.776L170.641 123.699C169.846 129.053 168.71 134.255 167.612 139.465C165.242 149.847 162.554 160.115 159.646 170.323C156.738 180.531 153.588 190.663 150.241 200.727C150.194 200.866 150.121 200.994 150.025 201.104C149.929 201.214 149.813 201.305 149.682 201.369C149.551 201.434 149.408 201.472 149.262 201.482C149.116 201.491 148.97 201.471 148.832 201.424C148.567 201.34 148.342 201.16 148.202 200.919C148.062 200.678 148.017 200.394 148.075 200.121L151.694 184.658L155.367 169.248C156.556 164.099 157.813 158.964 158.972 153.815C160.13 148.666 161.319 143.524 162.402 138.374C163.485 133.225 164.545 128.061 165.302 122.941L165.908 119.004C166.11 117.671 166.335 116.343 166.582 115.02C167.057 112.365 167.64 109.722 168.332 107.092C169.009 104.441 169.825 101.827 170.777 99.2619C171.739 96.633 172.941 94.0981 174.367 91.6893C175.859 89.0908 177.904 86.852 180.357 85.1314C181.725 84.2193 183.275 83.6171 184.9 83.367C186.515 83.146 188.158 83.2909 189.709 83.791C189.956 83.8661 190.185 83.9894 190.383 84.1538C190.582 84.3182 190.746 84.5204 190.866 84.7486C190.985 84.9769 191.059 85.2267 191.081 85.4835C191.104 85.7403 191.075 85.999 190.996 86.2446C190.847 86.7161 190.526 87.1143 190.097 87.3598C189.667 87.6054 189.161 87.6803 188.679 87.5698L188.634 87.5546Z" fill="#231F20"/>
<path d="M203.499 191.39C203.499 191.39 193.503 212.381 205.013 218.076C216.524 223.771 223.188 222.294 231.252 201.333C238.386 182.674 211.882 168.12 203.499 191.39Z" fill="#2866B1"/>
<path d="M221.726 180.061C219.797 179.672 217.808 179.692 215.887 180.122C214.059 180.553 212.356 181.403 210.912 182.606C210.571 182.924 210.216 183.211 209.898 183.545C209.579 183.878 209.269 184.219 208.981 184.582L208.148 185.68L207.391 186.854C206.493 188.491 205.767 190.217 205.225 192.003L205.157 192.177C203.79 195.607 202.81 199.178 202.234 202.825C201.959 204.577 201.86 206.353 201.939 208.125C201.997 209.7 202.376 211.246 203.052 212.669C203.361 213.296 203.77 213.869 204.263 214.365C204.509 214.607 204.775 214.827 205.059 215.024C205.202 215.122 205.331 215.236 205.483 215.327L205.952 215.584L206.187 215.721L206.497 215.872L207.118 216.167C207.535 216.349 207.951 216.546 208.36 216.713C209.193 217.069 210.019 217.364 210.837 217.629C212.322 218.151 213.9 218.363 215.471 218.25C216.925 218.099 218.305 217.534 219.447 216.622C220.756 215.56 221.908 214.318 222.869 212.934C223.927 211.447 224.889 209.894 225.747 208.284C226.625 206.641 227.489 204.96 228.276 203.233C228.685 202.378 229.033 201.499 229.442 200.628C229.782 199.827 230.063 199.002 230.283 198.16C231.29 194.744 231.021 191.078 229.526 187.846C227.921 184.415 225.16 181.659 221.726 180.061C225.704 180.944 229.173 183.364 231.373 186.793C233.708 190.371 234.593 194.703 233.85 198.909C233.67 199.958 233.417 200.993 233.092 202.007C232.767 202.938 232.464 203.87 232.116 204.793C231.434 206.649 230.73 208.504 229.844 210.321C228.998 212.184 228.016 213.981 226.906 215.698C225.74 217.553 224.294 219.216 222.619 220.628C221.693 221.376 220.675 222.005 219.59 222.498C218.47 223.004 217.276 223.329 216.054 223.46C214.873 223.589 213.68 223.574 212.502 223.414C211.403 223.241 210.317 222.988 209.254 222.657C208.232 222.324 207.24 221.953 206.293 221.536C205.816 221.332 205.354 221.12 204.892 220.908L204.203 220.575L203.862 220.408L203.461 220.181C202.368 219.598 201.376 218.844 200.523 217.947C199.678 217.051 198.978 216.029 198.448 214.918C197.501 212.827 197.015 210.557 197.024 208.262C197.017 206.153 197.246 204.05 197.706 201.992C198.136 200.004 198.71 198.05 199.425 196.145C200.121 194.248 200.925 192.393 201.833 190.587L201.765 190.761C202.588 188.785 203.64 186.912 204.9 185.18C206.174 183.423 207.783 181.933 209.632 180.796C210.094 180.516 210.594 180.288 211.064 180.039C211.533 179.789 212.063 179.637 212.578 179.455C213.597 179.146 214.65 178.96 215.713 178.903C217.781 178.801 219.844 179.199 221.726 180.061Z" fill="#231F20"/>
<path d="M230.419 51.5389C230.419 51.5389 226.868 77.8083 213.411 78.611C199.955 79.4137 208.868 60.6033 208.868 60.6033C208.868 60.6033 215.1 41.634 230.419 51.5389Z" fill="#293B90"/>
<path d="M230.548 49.1538C230.862 54.255 230.327 59.3729 228.965 64.299C228.281 66.8361 227.329 69.2933 226.126 71.6293C225.488 72.8419 224.759 74.0039 223.945 75.1051C223.074 76.2546 222.073 77.2991 220.961 78.2175C219.774 79.1987 218.427 79.9672 216.978 80.4893C216.607 80.6227 216.228 80.7289 215.842 80.8073C215.46 80.914 215.07 80.9874 214.676 81.0269C214.282 81.0648 213.881 81.1178 213.502 81.1405H212.389C210.744 81.0998 209.134 80.6551 207.701 79.8456C207.314 79.6148 206.949 79.3487 206.611 79.0505C206.274 78.7454 205.965 78.4109 205.687 78.0509C205.42 77.6964 205.189 77.3159 204.998 76.915C204.806 76.5363 204.649 76.1409 204.529 75.7337C204.12 74.2861 204.025 72.7683 204.248 71.281C204.436 69.9486 204.761 68.6391 205.218 67.3735C205.66 66.1537 206.194 64.969 206.815 63.8295C207.414 62.6989 208.106 61.6198 208.883 60.6036C208.365 63.0228 207.991 65.4705 207.762 67.9339C207.671 69.0882 207.671 70.2478 207.762 71.4021C207.81 72.4008 208.052 73.3807 208.474 74.2873C208.774 74.9511 209.316 75.4761 209.988 75.7564C210.791 76.043 211.644 76.164 212.495 76.1123L213.252 76.0669L213.934 75.9608C214.156 75.9311 214.374 75.8778 214.585 75.8018C214.806 75.7481 215.021 75.6746 215.229 75.5822C216.117 75.2379 216.942 74.7464 217.667 74.1283C219.304 72.7065 220.702 71.032 221.809 69.1682C223.039 67.1595 224.137 65.0726 225.096 62.9208C227.027 58.5287 228.746 53.9018 230.548 49.1538Z" fill="#231F20"/>
<path d="M191.216 87.3577L191.307 87.4031L191.481 87.4788C191.617 87.5243 191.738 87.5773 191.882 87.6152C192.159 87.6984 192.439 87.7667 192.723 87.8196C193.278 87.9026 193.842 87.9026 194.396 87.8196C195.52 87.6638 196.563 87.1453 197.365 86.3429C197.598 86.137 197.814 85.9116 198.009 85.669L198.599 84.8663C198.795 84.5828 198.967 84.284 199.114 83.9727C199.295 83.6712 199.459 83.3603 199.606 83.0413C199.864 82.3522 200.167 81.6934 200.364 80.9891L200.977 78.8082L201.03 78.634C201.173 78.1754 201.485 77.7883 201.903 77.5514C202.321 77.3144 202.814 77.2453 203.281 77.358C203.748 77.4707 204.155 77.7567 204.419 78.1582C204.683 78.5597 204.784 79.0465 204.703 79.52L204.195 82.0568C203.991 82.905 203.696 83.7531 203.438 84.6013C203.302 85.0253 203.082 85.4418 202.908 85.8659C202.734 86.2953 202.531 86.7127 202.302 87.1154L201.545 88.3345C201.261 88.7414 200.95 89.1285 200.613 89.4932C199.212 91.0886 197.34 92.1971 195.267 92.6585C194.234 92.887 193.172 92.9585 192.117 92.8706C191.608 92.8253 191.102 92.7468 190.603 92.6358C190.345 92.5903 190.088 92.5146 189.845 92.4465L189.451 92.3177C189.323 92.2723 189.186 92.2269 188.982 92.136C188.666 91.9868 188.383 91.7769 188.148 91.5183C187.914 91.2596 187.732 90.9573 187.615 90.6286C187.497 90.2999 187.445 89.9511 187.462 89.6023C187.479 89.2536 187.564 88.9115 187.714 88.5958C187.863 88.2801 188.073 87.9968 188.331 87.7622C188.59 87.5276 188.892 87.3462 189.221 87.2284C189.55 87.1106 189.898 87.0587 190.247 87.0757C190.596 87.0927 190.938 87.1782 191.254 87.3274L191.216 87.3577Z" fill="#231F20"/>
<path d="M171.111 106.781C171.111 107.251 183.658 114.467 186.74 98.5195" stroke="#231F20" stroke-width="7.01" stroke-miterlimit="10" stroke-linecap="round"/>
<path d="M96.619 115.573L81.3904 112.385L78.1948 97.1565C78.145 97.005 78.0486 96.8731 77.9195 96.7796C77.7903 96.6861 77.6349 96.6357 77.4754 96.6357C77.3159 96.6357 77.1605 96.6861 77.0313 96.7796C76.9021 96.8731 76.8058 97.005 76.756 97.1565L73.5679 112.385L58.3394 115.573C58.1879 115.623 58.056 115.719 57.9625 115.848C57.869 115.978 57.8186 116.133 57.8186 116.293C57.8186 116.452 57.869 116.607 57.9625 116.737C58.056 116.866 58.1879 116.962 58.3394 117.012L73.5679 120.208L76.756 135.436C76.8058 135.588 76.9021 135.72 77.0313 135.813C77.1605 135.907 77.3159 135.957 77.4754 135.957C77.6349 135.957 77.7903 135.907 77.9195 135.813C78.0486 135.72 78.145 135.588 78.1948 135.436L81.3904 120.208L96.619 116.997C96.7651 116.944 96.8915 116.847 96.9807 116.72C97.07 116.592 97.1178 116.44 97.1178 116.285C97.1178 116.129 97.07 115.978 96.9807 115.85C96.8915 115.723 96.7651 115.626 96.619 115.573Z" fill="#F26B6C"/>
<path d="M484.647 376.23L469.418 373.042L466.223 357.806C466.173 357.654 466.077 357.523 465.947 357.429C465.818 357.336 465.663 357.285 465.503 357.285C465.344 357.285 465.188 357.336 465.059 357.429C464.93 357.523 464.834 357.654 464.784 357.806L461.596 373.034L446.367 376.223C446.213 376.27 446.078 376.367 445.982 376.497C445.886 376.627 445.835 376.784 445.835 376.946C445.835 377.107 445.886 377.265 445.982 377.395C446.078 377.525 446.213 377.621 446.367 377.669L461.596 380.857L464.807 396.093C464.856 396.245 464.953 396.376 465.082 396.47C465.211 396.563 465.367 396.614 465.526 396.614C465.686 396.614 465.841 396.563 465.97 396.47C466.099 396.376 466.196 396.245 466.245 396.093L469.441 380.865L484.67 377.676C484.823 377.626 484.957 377.528 485.051 377.396C485.144 377.265 485.194 377.107 485.191 376.945C485.189 376.783 485.134 376.627 485.036 376.498C484.939 376.369 484.802 376.276 484.647 376.23Z" fill="#F26B6C"/>
<path d="M61.3912 353.3L37.333 348.264L32.2973 324.206C32.2376 323.949 32.0929 323.72 31.8866 323.557C31.6804 323.393 31.4248 323.304 31.1614 323.304C30.898 323.304 30.6424 323.393 30.4361 323.557C30.2298 323.72 30.0851 323.949 30.0255 324.206L24.9897 348.264L0.931516 353.3C0.669112 353.353 0.433071 353.494 0.263482 353.702C0.093893 353.909 0.0012207 354.168 0.0012207 354.436C0.0012207 354.703 0.093893 354.963 0.263482 355.17C0.433071 355.377 0.669112 355.519 0.931516 355.572L24.9897 360.615L30.0255 384.673C30.0851 384.93 30.2298 385.158 30.4361 385.322C30.6424 385.486 30.898 385.575 31.1614 385.575C31.4248 385.575 31.6804 385.486 31.8866 385.322C32.0929 385.158 32.2376 384.93 32.2973 384.673L37.333 360.615L61.3912 355.572C61.6536 355.519 61.8897 355.377 62.0593 355.17C62.2289 354.963 62.3215 354.703 62.3215 354.436C62.3215 354.168 62.2289 353.909 62.0593 353.702C61.8897 353.494 61.6536 353.353 61.3912 353.3Z" fill="#F26B6C"/>
<path d="M127.439 178.244L103.381 173.208L98.3379 149.15C98.2852 148.888 98.1432 148.652 97.9362 148.482C97.7291 148.312 97.4697 148.22 97.202 148.22C96.9344 148.22 96.675 148.312 96.4679 148.482C96.2609 148.652 96.1189 148.888 96.0661 149.15L91.0304 173.208L66.9646 178.244C66.7081 178.304 66.4793 178.448 66.3155 178.655C66.1517 178.861 66.0625 179.116 66.0625 179.38C66.0625 179.643 66.1517 179.899 66.3155 180.105C66.4793 180.311 66.7081 180.456 66.9646 180.516L91.0304 185.552L96.0661 209.61C96.1189 209.872 96.2609 210.108 96.4679 210.278C96.675 210.447 96.9344 210.54 97.202 210.54C97.4697 210.54 97.7291 210.447 97.9362 210.278C98.1432 210.108 98.2852 209.872 98.3379 209.61L103.381 185.552L127.439 180.516C127.696 180.456 127.925 180.311 128.089 180.105C128.252 179.899 128.342 179.643 128.342 179.38C128.342 179.116 128.252 178.861 128.089 178.655C127.925 178.448 127.696 178.304 127.439 178.244Z" fill="#F26B6C"/>
<path d="M464.58 251.35L440.521 246.314L435.486 222.256C435.426 222 435.281 221.771 435.075 221.607C434.869 221.443 434.613 221.354 434.35 221.354C434.086 221.354 433.831 221.443 433.624 221.607C433.418 221.771 433.273 222 433.214 222.256L428.178 246.322L404.12 251.358C403.857 251.41 403.621 251.552 403.452 251.759C403.282 251.966 403.189 252.226 403.189 252.494C403.189 252.761 403.282 253.021 403.452 253.228C403.621 253.435 403.857 253.577 404.12 253.629L428.178 258.673L433.214 282.731C433.273 282.987 433.418 283.216 433.624 283.38C433.831 283.544 434.086 283.633 434.35 283.633C434.613 283.633 434.869 283.544 435.075 283.38C435.281 283.216 435.426 282.987 435.486 282.731L440.521 258.673L464.58 253.629C464.846 253.581 465.087 253.44 465.261 253.232C465.434 253.023 465.53 252.761 465.53 252.49C465.53 252.219 465.434 251.956 465.261 251.748C465.087 251.54 464.846 251.399 464.58 251.35Z" fill="#F26B6C"/>
<path d="M409.299 208.754L394.071 205.596L390.875 190.36C390.825 190.209 390.729 190.077 390.6 189.983C390.471 189.89 390.315 189.839 390.156 189.839C389.996 189.839 389.841 189.89 389.712 189.983C389.583 190.077 389.486 190.209 389.436 190.36L386.248 205.596L371.02 208.784C370.868 208.834 370.736 208.93 370.643 209.06C370.549 209.189 370.499 209.344 370.499 209.504C370.499 209.663 370.549 209.819 370.643 209.948C370.736 210.077 370.868 210.173 371.02 210.223L386.248 213.411L389.436 228.647C389.486 228.799 389.583 228.931 389.712 229.024C389.841 229.118 389.996 229.168 390.156 229.168C390.315 229.168 390.471 229.118 390.6 229.024C390.729 228.931 390.825 228.799 390.875 228.647L394.071 213.411L409.299 210.223C409.463 210.182 409.609 210.088 409.712 209.954C409.816 209.821 409.873 209.657 409.873 209.489C409.873 209.32 409.816 209.156 409.712 209.023C409.609 208.89 409.463 208.795 409.299 208.754Z" fill="#F26B6C"/>
<path d="M313.309 18.9999L298.081 15.8118L294.885 0.583313C294.835 0.431809 294.739 0.299889 294.61 0.20637C294.48 0.112851 294.325 0.0625 294.165 0.0625C294.006 0.0625 293.851 0.112851 293.721 0.20637C293.592 0.299889 293.496 0.431809 293.446 0.583313L290.258 15.8118L275.03 18.9999C274.875 19.0478 274.74 19.1439 274.644 19.274C274.549 19.4041 274.497 19.5615 274.497 19.7231C274.497 19.8847 274.549 20.042 274.644 20.1722C274.74 20.3023 274.875 20.3983 275.03 20.4463L290.258 23.6343L293.446 38.8628C293.496 39.0144 293.592 39.1463 293.721 39.2398C293.851 39.3333 294.006 39.3836 294.165 39.3836C294.325 39.3836 294.48 39.3333 294.61 39.2398C294.739 39.1463 294.835 39.0144 294.885 38.8628L298.081 23.6343L313.309 20.4463C313.463 20.3983 313.598 20.3023 313.694 20.1722C313.79 20.042 313.842 19.8847 313.842 19.7231C313.842 19.5615 313.79 19.4041 313.694 19.274C313.598 19.1439 313.463 19.0478 313.309 18.9999Z" fill="#F26B6C"/>
</g>
<defs>
<clipPath id="clip0_2076_334">
<rect width="485.23" height="502.261" fill="white"/>
</clipPath>
</defs>
</svg>
