<svg width="429" height="438" viewBox="0 0 429 438" fill="none" xmlns="http://www.w3.org/2000/svg">
<g clip-path="url(#clip0_4970_736)">
<path d="M323.831 102.311C324.231 103.02 324.573 103.76 324.855 104.524C328.729 115.778 330.315 127.694 329.519 139.569C336.586 142.634 343.107 146.826 348.829 151.983C350.067 153.092 351.117 154.396 351.935 155.843C352.963 157.637 353.604 159.627 353.817 161.683C354.03 163.74 353.811 165.818 353.174 167.785C352.298 170.531 350.64 172.962 348.403 174.779C346.166 176.596 343.447 177.72 340.579 178.013C336.388 178.751 332.405 180.385 328.903 182.802C325.178 185.499 320.414 190.52 322.075 202.843C323.555 213.832 327.062 222.109 330.777 230.877C338.362 248.785 346.962 269.095 334.217 307.373C330.492 318.874 324.943 329.703 317.782 339.444L317.606 339.681C316.803 340.758 315.977 341.754 315.196 342.771L314.99 343.015C313.36 345.007 311.617 346.961 309.828 348.813L309.517 349.138C308.629 350.044 307.717 350.952 306.826 351.813C306.791 351.838 306.753 351.859 306.713 351.877C305.803 352.726 304.859 353.594 303.886 354.433L303.71 354.59C302.793 355.385 301.819 356.202 300.822 356.997L300.547 357.222C298.525 358.827 296.458 360.331 294.364 361.748L294.069 361.915C292.991 362.63 291.938 363.307 290.879 363.953L290.496 364.17C288.416 365.429 286.175 366.687 283.928 367.834L283.493 368.08C282.368 368.649 281.249 369.191 280.113 369.72C280.052 369.755 279.947 369.814 279.869 369.858C278.767 370.368 277.672 370.85 276.559 371.32L276.324 371.453C275.092 371.956 273.938 372.414 272.766 372.86L272.252 373.048C269.919 373.922 267.468 374.748 265.043 375.478L264.491 375.641C263.314 375.998 262.105 376.338 260.894 376.656L260.382 376.786C259.193 377.103 257.99 377.394 256.774 377.681L256.57 377.727C255.34 378.011 254.078 378.278 252.819 378.531L252.128 378.67C250.9 378.918 249.64 379.149 248.357 379.359L248.042 379.411C246.803 379.618 245.591 379.811 244.363 379.978L243.804 380.065C242.554 380.233 241.249 380.364 239.982 380.542L239.292 380.622C236.676 380.955 233.967 381.145 231.271 381.316L230.517 381.364C229.218 381.445 227.909 381.509 226.582 381.56L225.885 381.587C224.633 381.63 223.363 381.66 222.088 381.681L221.726 381.691C220.311 381.711 218.955 381.71 217.599 381.731L216.743 381.722C215.376 381.703 214.009 381.684 212.633 381.648L212.022 381.626C211.395 381.614 210.762 381.593 210.12 381.555L207.548 381.438C206.426 381.384 205.343 381.32 204.26 381.255L202.471 381.119C201.021 381.022 199.575 380.91 198.132 380.785C193.481 380.386 188.821 379.809 184.286 379.068C172.621 377.229 161.212 374.026 150.294 369.526L149.355 369.127C126.678 359.392 109.566 344.548 98.5527 325.112C97.897 323.955 97.2315 322.78 96.6503 321.593C88.2293 305.17 84.3694 286.208 85.1646 265.218L85.1739 265.052C85.2043 264.172 85.2484 263.297 85.3024 262.439L85.3642 261.473L85.4898 259.666L85.5817 258.591L85.7171 256.802L85.8149 255.838L86.1345 253.197L86.2134 252.647L86.5211 250.553L86.6519 249.709L86.975 247.825L87.0965 247.147C87.4115 245.451 87.7673 243.767 88.1478 242.126L88.2763 241.582L88.7485 239.636L88.8856 239.087L89.4752 236.902L89.533 236.72C89.7641 235.911 90.004 235.097 90.2537 234.301L90.2951 234.151L90.9813 232.015L91.1217 231.613C91.3424 230.948 91.5718 230.278 91.8148 229.611L91.8812 229.424C92.4323 227.963 92.9885 226.429 93.6126 224.995L94.603 222.767C99.8186 210.755 106.24 201.599 111.405 194.224C115.22 188.786 118.818 183.656 119.589 180.391L119.663 180.096C119.803 179.431 119.806 178.625 118.815 176.876L118.362 176.075C112.138 166.43 107.472 164.362 106.176 164.246C103.426 165.595 100.33 166.071 97.302 165.608C94.2743 165.146 91.4607 163.768 89.2394 161.659C88.175 160.649 87.2678 159.486 86.5479 158.207C85.2721 155.952 84.6027 153.404 84.6046 150.812C84.6066 148.221 85.2799 145.674 86.5591 143.42C87.8397 141.177 97.1465 125.593 113.513 114.963L113.123 114.276C109.953 108.681 108.696 105.854 108.118 103.089C107.429 99.8011 107.797 96.379 109.171 93.313C110.545 90.2469 112.854 87.6941 115.767 86.02C122.265 82.1537 134.058 82.0114 150.805 85.6019C159.829 87.4763 168.598 90.4214 176.925 94.3749C186.053 85.8803 200.773 73.4592 214.829 67.1494C226.952 61.5669 239.373 66.0224 246.374 78.3768C248.818 82.9046 250.585 87.766 251.62 92.8062C258.888 97.3058 265.248 103.129 270.37 109.973C286.027 103.871 297.738 99.0626 304.656 96.0165C306.525 95.1733 308.547 94.7222 310.597 94.6912C312.647 94.6602 314.682 95.0499 316.576 95.8362C319.646 97.129 322.199 99.407 323.831 102.311Z" fill="#231F20"/>
<path d="M232.594 99.84C193.327 110.827 193.391 149.64 193.391 149.64C170.661 121.556 150.655 117.203 134.937 121.535C128.731 111.535 123.194 102.19 122.731 99.9931C121.675 94.8443 162.756 99.6339 178.924 113.299C178.924 113.299 201.688 89.4348 220.913 80.7472C230.803 76.2928 236.144 87.9094 238.012 102.322C236.25 101.402 234.442 100.573 232.594 99.84Z" fill="#B6BCCC"/>
<path d="M312.409 149.678C287.786 143.77 263.212 151.499 263.212 151.499C265.953 142.705 265.539 135.158 263.392 128.754C280.046 122.363 299.839 114.595 310.781 109.706C310.781 109.706 318.482 130.64 312.409 149.678Z" fill="#B6BCCC"/>
<path d="M338.78 163.115C338.78 163.115 302.212 167.446 307.249 204.832C312.285 242.218 336.815 252.202 320.026 302.634C303.237 353.066 259.813 371.017 199.509 365.811C139.204 360.605 97.9286 326.202 100.269 265.728C102.609 205.255 148.029 194.253 131.055 167.93C114.082 141.606 99.6456 150.775 99.6456 150.775C99.6456 150.775 138.92 82.1539 193.496 149.604C193.496 149.604 193.418 110.765 232.7 99.8039C232.7 99.8039 274.693 115.088 263.298 151.429C263.212 151.5 309.616 136.78 338.78 163.115Z" fill="#E9E7E9"/>
<path d="M199.465 365.836C139.073 360.679 97.8851 326.227 100.226 265.753C101.987 218.802 129.825 201.66 134.175 184.023C134.175 184.023 133.761 366.436 307.756 327.736C286.259 358.986 248.456 370.062 199.465 365.836Z" fill="#D6CDD7"/>
<g style="mix-blend-mode:multiply" opacity="0.58">
<path d="M199.465 365.834C139.073 360.677 97.8851 326.226 100.226 265.752C100.572 253.498 103.138 241.409 107.799 230.071C107.768 231.881 105.587 359.067 276.511 354.865C255.946 365.185 229.85 368.443 199.465 365.834Z" fill="#B6BCCC"/>
</g>
</g>
<defs>
<clipPath id="clip0_4970_736">
<rect width="328.31" height="305.8" fill="white" transform="translate(162.057 437.1) rotate(-119.538)"/>
</clipPath>
</defs>
</svg>
