<svg width="370" height="362" viewBox="0 0 370 362" fill="none" xmlns="http://www.w3.org/2000/svg">
<g clip-path="url(#clip0_5015_359)">
<path d="M302.31 361.369C300.735 361.37 299.169 361.123 297.67 360.639C295.1 359.814 292.482 359.146 289.83 358.639L288.97 358.469C287.36 358.159 285.61 357.869 283.82 357.619L283.22 357.529C280.69 357.179 277.94 356.879 275.06 356.619L274.31 356.559C272.95 356.449 271.54 356.339 270.12 356.249C264.72 355.899 258.76 355.719 252.42 355.699H251.14H247.24H244.64C242.9 355.699 241.17 355.759 239.44 355.809L234.25 355.979C231.67 356.079 229.113 356.196 226.58 356.329L221.58 356.609C196.3 358.149 175.58 361.009 175.38 361.039C174.694 361.13 174.002 361.177 173.31 361.179C171.109 361.179 168.935 360.694 166.942 359.759C164.95 358.824 163.187 357.462 161.78 355.769C159.094 357.326 155.992 358.01 152.9 357.729C149.809 357.448 146.881 356.215 144.52 354.199L97.73 314.199C96.233 312.918 95.0029 311.355 94.11 309.599C93.4705 309.687 92.8256 309.731 92.18 309.729C88.5342 309.732 85.0131 308.402 82.28 305.989L53.95 281.049C52.6078 279.867 51.4869 278.455 50.64 276.879C45.4195 267.17 42.2955 256.472 41.47 245.479C40.8077 245.575 40.1392 245.622 39.47 245.619C36.5299 245.621 33.6541 244.759 31.2 243.139C29.68 242.139 16.02 232.599 3.87 206.829C-2.99999 192.249 -0.759989 172.429 10.72 146.239C15.0456 136.481 19.9959 127.011 25.54 117.889C26.66 106.199 31.75 75.3292 54.54 59.8892C65.68 52.3592 77.38 48.5392 89.33 48.5392C93.6255 48.5411 97.9066 49.0343 102.09 50.0092C104.25 36.2492 111.62 21.3092 128.98 9.57922C138.44 3.18922 150.25 -0.0507812 164.07 -0.0507812C174.053 0.0418899 183.976 1.50555 193.56 4.29919C205.998 2.22305 218.58 1.12635 231.19 1.0192C256.65 1.0192 273.99 6.3692 284.19 17.3692C303.57 38.2492 307.32 54.4892 307.69 56.2692C308.426 59.8459 307.854 63.5678 306.08 66.7592C315.952 71.5975 324.695 78.4595 331.74 86.8992C332.89 88.2705 333.781 89.8393 334.37 91.5292L346.95 127.119C347.661 129.132 347.934 131.272 347.751 133.399C347.568 135.525 346.934 137.588 345.89 139.449C347.183 140.932 348.172 142.655 348.8 144.519L368.49 202.859C369.482 205.806 369.534 208.988 368.638 211.966C367.742 214.943 365.943 217.569 363.49 219.479C364.699 221.724 365.316 224.239 365.283 226.789C365.25 229.338 364.567 231.837 363.3 234.049C363.24 234.149 357.3 244.589 349.7 259.519L348.7 261.519C347.38 264.149 346 266.909 344.61 269.789L343.52 272.029L342.66 273.819C327.36 305.959 318.31 332.089 317.31 347.379C317.056 351.182 315.364 354.745 312.578 357.345C309.792 359.945 306.121 361.388 302.31 361.379V361.369Z" fill="black"/>
<path d="M119.53 75.8291C119.53 75.8291 94.91 50.7791 62.97 72.3591C41.63 86.7791 40.24 122.689 40.24 122.689C40.24 122.689 5.77 175.689 17.45 200.439C28.16 223.149 39.45 230.629 39.45 230.629C39.45 230.629 37.06 181.829 85.69 139.089C86.9845 137.903 88.6516 137.204 90.4052 137.113C92.1587 137.021 93.8894 137.543 95.3 138.589C97.36 140.109 98.64 142.589 96.62 146.449C92.03 155.359 36.44 218.679 63.85 269.799L92.18 294.799C92.18 294.799 77.44 221.359 116.49 178.029C116.49 178.029 125.49 170.799 125.57 183.869C125.65 196.939 90.5 258.769 107.47 302.869L154.26 342.869C154.26 342.869 130.31 279.689 150.98 227.789C151.598 226.136 152.811 224.773 154.382 223.967C155.952 223.16 157.766 222.969 159.47 223.429C162.65 224.269 165.52 226.799 164.28 233.539C161.82 247.019 153.07 307.889 173.28 346.239C173.28 346.239 263.37 333.699 302.28 346.369L119.53 75.8291Z" fill="#66BE64"/>
<path d="M119.53 75.8289C119.53 75.8289 105.46 43.6889 137.41 22.0589C158.75 7.63893 192.59 19.7589 192.59 19.7589C192.59 19.7589 254.59 7.52893 273.23 27.6189C290.31 46.0189 293.02 59.3189 293.02 59.3189C293.02 59.3189 248.63 38.8989 190.84 68.0689C189.263 68.8325 188.001 70.1216 187.271 71.7148C186.541 73.308 186.388 75.1057 186.84 76.7989C187.48 79.2789 189.27 81.3789 193.64 80.9589C203.64 80.0189 283.11 52.0689 320.31 96.5689L332.88 132.159C332.88 132.159 270.25 91.0889 215.48 111.159C215.48 111.159 205.48 116.779 217.48 121.769C229.48 126.759 300.06 117.179 334.64 149.369L354.31 207.689C354.31 207.689 304.68 161.899 248.79 161.689C247.025 161.649 245.309 162.269 243.976 163.426C242.642 164.583 241.788 166.196 241.58 167.949C241.17 171.209 242.44 174.809 249.16 176.189C262.58 178.939 322.31 193.529 350.31 226.689C350.31 226.689 305.06 305.589 302.31 346.419L119.53 75.8289Z" fill="#4CA84E"/>
<g style="mix-blend-mode:multiply">
<path d="M248.78 161.688C304.67 161.908 354.3 207.688 354.3 207.688L334.62 149.338C300.04 117.148 229.53 126.728 217.46 121.738C223.01 184.198 179.7 213.638 160.19 223.638C163.06 224.638 165.42 227.288 164.28 233.518C161.82 246.998 153.07 307.868 173.28 346.218C173.28 346.218 263.37 333.678 302.28 346.348C305.09 305.538 350.31 226.688 350.31 226.688C322.31 193.578 262.55 178.988 249.12 176.248C242.4 174.868 241.12 171.248 241.54 168.008C241.735 166.239 242.587 164.608 243.928 163.437C245.269 162.267 247.001 161.642 248.78 161.688Z" fill="#4CA84E"/>
</g>
<path d="M314.779 241.107C321.467 231.295 317.3 216.805 305.471 208.742C293.643 200.679 278.632 202.097 271.944 211.908C265.256 221.72 269.423 236.21 281.252 244.273C293.081 252.336 308.091 250.918 314.779 241.107Z" fill="white"/>
<path d="M264.72 204.99C269.089 204.99 272.63 201.448 272.63 197.08C272.63 192.711 269.089 189.17 264.72 189.17C260.351 189.17 256.81 192.711 256.81 197.08C256.81 201.448 260.351 204.99 264.72 204.99Z" fill="white"/>
<path d="M135.86 71.5095C140.229 71.5095 143.77 67.968 143.77 63.5995C143.77 59.2309 140.229 55.6895 135.86 55.6895C131.491 55.6895 127.95 59.2309 127.95 63.5995C127.95 67.968 131.491 71.5095 135.86 71.5095Z" fill="white"/>
<path d="M166.12 51.9986C178.469 51.9986 188.48 46.3037 188.48 39.2786C188.48 32.2535 178.469 26.5586 166.12 26.5586C153.771 26.5586 143.76 32.2535 143.76 39.2786C143.76 46.3037 153.771 51.9986 166.12 51.9986Z" fill="white"/>
</g>
<defs>
<clipPath id="clip0_5015_359">
<rect width="369.3" height="361.38" fill="white"/>
</clipPath>
</defs>
</svg>
