<svg width="42" height="46" viewBox="0 0 42 46" fill="none" xmlns="http://www.w3.org/2000/svg">
<path d="M17 35.2278C17 35.403 17 35.5835 17 35.7587C17 36.1127 17 36.4843 17 36.8736C17 40.1175 16.8206 43.1756 16.5552 46C15.8377 45.9735 15.1776 45.9363 14.4888 45.8779C13.3281 45.7983 12.1738 45.6743 11.0305 45.5063C10.5569 43.7489 10.1193 41.8748 9.72465 39.8998C9.58115 39.1672 9.43766 38.4239 9.30851 37.6647L9.07173 36.2578C9.07173 36.1675 9.07173 36.0826 9.02868 35.9923C7.9663 29.1196 7.72621 22.1908 8.31119 15.2868C8.41882 14.0763 8.54079 12.9083 8.69864 11.7509C9.18653 7.87529 9.9112 4.28103 10.7507 1C12.8671 6.8377 14.4492 12.7744 15.4861 18.7696C15.6726 19.7996 15.8233 20.8083 15.9596 21.8117C16.6341 26.5527 16.957 31.0389 17 35.2278Z" fill="#3A7867"/>
<path d="M16.9996 35.142C16.9996 36.9297 16.9996 38.7121 16.9642 40.4946C16.9289 42.277 16.8441 44.0699 16.7239 45.8523V46H16.526L15.1477 45.9367L14.4833 45.8787L13.7765 45.8102L11.041 45.5201H10.8643L10.8149 45.3514C10.1504 42.5828 9.40121 39.8196 9.00538 37.0246C8.60956 34.2297 8.29856 31.4243 8.15719 28.6188C8.01582 25.8134 7.96635 22.9974 8.02289 20.1814C8.02289 18.7786 8.11478 17.3706 8.1996 15.9626C8.28442 14.5546 8.45406 13.1572 8.58129 11.7439C8.97575 8.1594 9.61033 4.59187 10.4826 1.05468L10.7512 0L11.14 1.05468C12.3628 4.44549 13.4443 7.87321 14.2854 11.3326C14.7142 13.0622 15.0935 14.7972 15.4234 16.5374C15.7485 18.2777 15.9818 20.0284 16.2221 21.7792C16.4836 23.9993 16.6674 26.2247 16.7946 28.4501C16.9218 30.6755 17.0067 32.9167 16.9996 35.142ZM16.9289 35.142C16.8724 32.9167 16.7946 30.6913 16.5614 28.4712C16.3281 26.2511 16.0454 24.0362 15.6778 21.8319C15.3739 20.097 15.1053 18.3568 14.7307 16.6271C14.3561 14.8974 14.0238 13.1677 13.5715 11.4486C12.695 8.01032 11.6772 4.59314 10.4897 1.20234H11.1471C10.2423 4.69334 9.5355 8.24235 9.00538 11.8177C8.84988 13.2152 8.6449 14.6074 8.51767 16.0365C8.39044 17.4655 8.29856 18.8366 8.25615 20.2552C8.15012 23.0554 8.25615 25.8661 8.46819 28.661C8.68024 31.4559 9.0902 34.2508 9.59205 37.0246C9.83944 38.4168 10.0939 39.8037 10.4402 41.1801L11.3591 45.325L11.14 45.1668L13.8259 45.499L14.4974 45.5834L15.2042 45.6309L16.5614 45.7311L16.3493 45.8682C16.5614 44.091 16.7169 42.3139 16.8299 40.5315C16.943 38.7491 16.9148 36.9139 16.9289 35.142Z" fill="#231F20"/>
<path d="M11.6499 8C10.455 20.0054 10.9093 32.1171 13 44Z" fill="#3A7867"/>
<path d="M11.4734 10C10.5079 20.6814 11.0204 31.4253 13 42" stroke="white" stroke-miterlimit="10" stroke-linecap="round" stroke-dasharray="0.96 4.79"/>
<path d="M29.6339 36.2147V36.5251C29.6339 37.088 29.6339 37.6772 29.6736 38.2769C29.7333 39.913 29.8922 41.6858 30.1969 43.5638C29.2959 43.9172 28.3666 44.223 27.415 44.4792C26.8917 44.6212 26.3485 44.758 25.7988 44.879C25.7259 44.879 25.6464 44.9106 25.5736 44.9263L25.2358 45C25.1099 44.7054 24.9774 44.3898 24.845 44.0583C24.2822 42.5921 23.8397 41.0985 23.5202 39.5868V39.5868C23.3811 38.8871 23.2486 38.1506 23.1559 37.3931C23.1559 37.2932 23.1559 37.1985 23.1228 37.0985C23.0764 36.6724 23.0367 36.2463 23.0168 35.8097C23.0168 35.736 23.0168 35.6624 23.0168 35.5835C23.0168 35.5098 23.0168 35.4362 23.0168 35.3678C22.9648 34.0189 23.0334 32.6688 23.2222 31.3276C23.5142 29.2712 24.126 27.2515 25.0437 25.3147V25.3147C25.3417 24.6834 25.706 24.0469 26.0703 23.4156C26.4082 22.8632 26.7725 22.3109 27.1831 21.7532L27.2229 21.7006C27.2384 21.6861 27.2517 21.6702 27.2626 21.6533C30.3166 17.5707 34.7223 14.2318 40 12C37.541 13.9337 35.4721 16.157 33.8665 18.5916C30.9057 23.0894 30.4089 27.056 29.8922 31.3749C29.7598 32.7638 29.6405 34.3893 29.6339 36.2147Z" fill="#3A7867"/>
<path d="M29.2551 36.0367C29.2551 37.2495 29.3105 38.4675 29.4282 39.6803C29.5459 40.8931 29.7328 42.1007 29.9612 43.3239V43.402L29.8574 43.4437C29.0327 43.7642 28.1844 44.0492 27.3167 44.2973C26.8806 44.4222 26.4375 44.5263 26.0014 44.6408L25.3437 44.8074L24.6514 44.9479L24.4091 45L24.3261 44.823L23.9107 43.8861V43.8497V43.9069C23.6061 43.1834 23.3292 42.4495 23.0869 41.7051C22.8446 40.9608 22.6507 40.2165 22.4915 39.4617L22.1246 37.2808L22.0554 36.3751L22 35.4798C22 34.6261 22 33.7465 22.0761 32.8772C22.1523 32.008 22.2908 31.1439 22.4846 30.2746C22.8491 28.5603 23.4405 26.8776 24.2499 25.2517V25.2517V25.3089V25.2673L25.316 23.383V23.4195L26.5067 21.6289L26.5691 21.5456V21.6081V21.5716V21.5404C28.1297 19.4938 30.0742 17.6268 32.3427 15.9969C34.6195 14.3569 37.1811 12.9561 39.9578 11.8328L42 11L40.297 12.2596C38.2818 13.7899 36.5071 15.4893 35.008 17.3242C33.5292 19.1637 32.3662 21.1365 31.5466 23.1957C30.7516 25.2724 30.198 27.3971 29.892 29.5459C29.5035 31.6977 29.2908 33.8654 29.2551 36.0367V36.0367ZM29.1859 36.0367C29.1859 33.8662 29.3659 31.6904 29.5874 29.5251C29.7709 27.3441 30.2299 25.1812 30.9581 23.0655C31.7335 20.9467 32.8986 18.9197 34.4195 17.0432C35.9227 15.1596 37.7422 13.4294 39.8332 11.8953L40.2347 12.3065C37.508 13.3905 34.9768 14.7321 32.7027 16.2988C31.5623 17.0799 30.4959 17.92 29.5112 18.8129C28.5259 19.714 27.6217 20.6634 26.8044 21.6549V21.5925V21.6289V21.6705L25.6206 23.2998V23.2581L24.5476 25.1216V25.0903C23.7361 26.7035 23.1649 28.3794 22.8446 30.0873C22.689 30.9401 22.592 31.7983 22.5538 32.6586C22.5123 33.5175 22.5538 34.3711 22.5538 35.2612L22.6507 36.2606L22.7546 37.1454L23.1215 39.3264C23.2876 40.0707 23.5022 40.8047 23.7238 41.5386C23.9453 42.2725 24.2015 43.0012 24.4853 43.7247V43.7872V43.7195L24.8799 44.6565L24.5476 44.5315L25.2399 44.4014L25.8975 44.2609C26.3406 44.1568 26.7837 44.0735 27.2198 43.959C28.0855 43.7427 28.9338 43.4889 29.7605 43.199L29.6774 43.3187C29.5043 42.1111 29.3936 40.8931 29.3174 39.6751C29.2413 38.4571 29.1928 37.2443 29.1859 36.0367Z" fill="#231F20"/>
<path d="M28.9839 21.3352C28.9839 21.4105 28.9839 21.4805 28.9839 21.5504C29.0271 23.8308 28.9839 26.0359 28.8471 28.1764V28.2087C28.6888 30.8118 28.4224 33.318 28.0769 35.6899C28.0769 35.8136 28.0769 35.9319 28.0193 36.0502C27.9473 36.5504 27.8753 37.0452 27.7961 37.5346C27.7241 37.9272 27.6666 38.3198 27.5874 38.7017C27.2418 40.6379 26.8675 42.4665 26.4284 44.2359C26.342 44.6124 26.2484 44.9781 26.1476 45.3116C25.6365 45.403 25.0966 45.4944 24.5567 45.5697C23.4266 45.7365 22.2748 45.8655 21.1302 45.9516L20.4103 46C20.1584 43.1388 20 40.0463 20 36.7655C20 36.3998 20 36.0287 20 35.6522C20 35.4586 20 35.2757 20 35.0821C20 32.6135 20.1584 30.0534 20.4031 27.3966C20.5975 25.1377 20.8782 22.8412 21.267 20.4532V20.4801C21.3317 19.9907 21.4109 19.4959 21.4973 19.0011C21.6701 18.0222 21.8501 17.0649 22.0372 16.1183C23.0535 11.0238 24.4547 5.9763 26.234 1C27.455 5.78303 28.2725 10.6187 28.6816 15.4783C28.8471 17.4736 28.9479 19.4313 28.9839 21.3352Z" fill="#3A7867"/>
<path d="M29 21.8992V22.113L28.9499 26.2845V28.3702C28.9499 29.0689 28.8424 29.7625 28.7923 30.456L28.4557 34.6275L28.3626 35.6703C28.3626 36.0197 28.2623 36.3691 28.2193 36.7132C28.1262 37.4015 28.0116 38.095 27.8899 38.799C27.5318 40.5927 27.1092 42.3812 26.7225 44.175V44.1333V44.175L26.436 45.2178V45.3534L26.2569 45.3847L24.8245 45.5933C24.3447 45.6611 23.8577 45.6976 23.3921 45.7445L21.9597 45.8905C21.4799 45.9426 20.9928 45.9791 20.5273 46H20.3053V45.8436C20.162 43.7578 20.0833 41.7034 20.0331 39.6385C19.983 37.5736 19.9758 35.493 20.1119 33.4282C20.248 31.3633 20.2408 29.2932 20.4055 27.2283L21.1217 21.0284C21.3366 19.4224 21.6517 17.8372 21.9669 16.2468C22.282 14.6564 22.6831 13.0713 23.0555 11.4913C23.7144 8.35226 24.7386 5.22364 25.906 2.14195L26.2927 1L26.6222 2.14195C27.457 5.40018 28.0571 8.68799 28.4199 11.9919C28.5989 13.6396 28.7708 15.2926 28.8209 16.9455L29 21.8992ZM28.9284 21.8992L28.6204 16.9455C28.4915 15.2978 28.2551 13.6553 27.9902 12.0127C27.7252 10.3702 27.3957 8.73812 27.0519 7.11124C26.7081 5.48436 26.2927 3.85747 25.906 2.23581H26.6222C25.4405 5.34357 24.4736 8.47219 23.6356 11.6112C23.2131 13.1755 22.8335 14.7399 22.4897 16.3407C22.1459 17.9415 21.8165 19.5058 21.5586 21.091V21.1222L20.6849 27.2804C20.5345 28.3233 20.5201 29.3662 20.4342 30.3777L20.2337 33.4751C20.0689 35.5608 20.0833 37.6049 20.162 39.675C20.2408 41.7451 20.3912 43.8047 20.6132 45.8644L20.3769 45.7184C20.8568 45.6871 21.3366 45.6454 21.8093 45.5828L23.2417 45.4108C23.7144 45.3534 24.1943 45.3065 24.6741 45.2387L26.1065 44.9988L25.8845 45.1657L26.1495 44.1228V44.1593V44.1228C26.5363 42.3343 26.8657 40.5458 27.3026 38.7677C27.4387 38.0846 27.5676 37.4015 27.675 36.6819C27.7252 36.3326 27.7968 35.9936 27.8397 35.639L27.9687 34.5962L28.4987 30.4247C28.5846 29.7312 28.6992 29.0429 28.7493 28.3389L28.8353 26.2532L28.957 22.0817L28.9284 21.8992Z" fill="#231F20"/>
<path d="M25.3421 8C25.9301 14.0122 26.1242 20.0577 25.9234 26.0962C25.7179 32.4356 25.0752 38.7525 24 45" fill="#3A7867"/>
<path d="M26 8C26 8.34 26 8.66 26 9" stroke="white" stroke-miterlimit="10" stroke-linecap="round"/>
<path d="M25.5302 11C25.9783 15.9792 26.106 20.9762 25.9127 25.9678C25.6965 31.675 25.0576 37.3642 24 43" stroke="white" stroke-miterlimit="10" stroke-linecap="round" stroke-dasharray="0.96 4.79"/>
<path d="M24 44V45" stroke="white" stroke-miterlimit="10" stroke-linecap="round"/>
<path d="M11 45C9.08668 44.7141 7.21696 44.284 5.41943 43.7164C4.33801 42.3312 3.37799 40.8949 2.54544 39.4166C2.22455 38.827 1.93855 38.2582 1.68742 37.7051L1.56884 37.4494C-0.237875 33.3324 -0.237875 30.0658 0.348085 27.5664C0.982875 24.8425 2.26641 23.1571 3.83594 18.1112C5.08531 14.1319 5.87876 10.0802 6.20768 6C7.39396 7.8976 8.37148 9.86437 9.13051 11.8808V11.8808C9.9366 14.0528 10.4668 16.2769 10.714 18.5234V18.5234C10.7977 19.3374 10.8465 20.1775 10.8605 21.0385C10.8605 22.0822 10.8186 22.917 10.7349 23.7311C10.5884 25.0304 10.3652 26.194 10.1769 27.6133C9.82333 30.271 9.70216 32.9432 9.81413 35.6127C9.81413 35.7066 9.81413 35.8005 9.81413 35.8944C9.81413 36.3484 9.86993 36.8128 9.89784 37.2824C9.96062 38.0025 10.0234 38.7435 10.1141 39.5106C10.2885 41.2482 10.5815 43.0745 11 45Z" fill="#3A7867"/>
<path d="M10.8392 45C10.3301 44.9474 9.90137 44.8632 9.43914 44.7844C8.97691 44.7055 8.52808 44.6108 8.09935 44.5108C7.18979 44.3141 6.29516 44.077 5.41976 43.8008H5.37287V43.764C4.29075 42.354 3.33063 40.8885 2.49902 39.3774C1.68454 37.8472 1.0456 36.263 0.589811 34.6437C-0.365733 31.3946 -0.157057 28.0013 1.19272 24.8396C1.86261 23.2617 2.53251 21.7364 3.10862 20.1637C3.68473 18.5911 4.15366 17.0079 4.5556 15.3879C5.35112 12.1751 5.85037 8.92142 6.04947 5.6522L6.08966 5L6.41791 5.61012C7.57405 7.52382 8.53067 9.50797 9.27837 11.5431V11.5746V11.6062V11.5483C10.0761 13.748 10.6055 16.0023 10.8593 18.2807V18.2807C10.9062 19.1644 10.9732 20.0427 11 20.9106L10.8727 23.5404C10.6383 25.3813 10.3636 27.1749 10.1559 28.9421C9.94826 30.7094 9.86788 32.503 9.86118 34.286C9.85448 36.069 9.96836 37.8521 10.1358 39.6404C10.3033 41.4287 10.5914 43.2485 10.8392 45ZM10.7923 44.9632L9.80089 39.6614C9.57982 37.8836 9.40565 36.0796 9.36545 34.2913C9.32526 32.503 9.36545 30.6989 9.50613 28.9001C9.64681 27.1012 9.96166 25.3392 10.176 23.5562L10.2832 20.9264C10.2832 20.4951 10.2363 20.0585 10.2229 19.6272L10.1626 18.3228C9.93949 16.0721 9.44832 13.8428 8.69556 11.664V11.6325V11.6009V11.664C8.0066 9.63655 7.1105 7.65599 6.01597 5.74162L6.41791 5.68376C6.101 8.95671 5.53053 12.2115 4.70967 15.43C3.89204 18.6468 2.84536 21.8252 1.57456 24.95C0.974761 26.5047 0.630327 28.1132 0.549618 29.7364C0.493832 31.3566 0.673633 32.9765 1.08553 34.5648C1.99904 37.7473 3.52134 40.8028 5.60064 43.6272L5.52695 43.5746C6.36843 43.8787 7.23184 44.1439 8.11275 44.3688C8.55488 44.4846 9.00371 44.5897 9.45254 44.6897C9.90137 44.7896 10.3971 44.8632 10.7923 44.9632V44.9632Z" fill="#231F20"/>
<path d="M6.49994 12C8.334 19.0356 7.24411 23.6872 5.85538 26.6786C5.20496 28.0655 4.51938 29.0373 4.17952 30.7683C3.3123 35.1972 5.7499 39.2516 8 42" fill="#3A7867"/>
<path d="M7.59049 14C8.62719 19.7062 7.52951 23.6915 6.14724 26.3677C5.39513 27.8141 4.60236 28.8276 4.20936 30.6328C3.34883 34.576 5.27994 38.2287 7.46852 41" stroke="white" stroke-miterlimit="10" stroke-linecap="round" stroke-dasharray="1.03 5.15"/>
<path d="M23.6393 35.3091L23.5801 35.7826C23.5144 36.2082 23.4553 36.6179 23.3896 37.0275C22.8752 40.0315 22.0554 42.9961 20.9388 45.8909L20.2817 45.9388L19.4998 45.9761C18.5799 46.008 17.6535 46.008 16.7204 45.9761C16.0634 45.9495 15.4589 45.9122 14.8281 45.8537C14.2683 42.9425 13.9915 40.0003 14.0002 37.0541C14.0002 36.6232 14.0002 36.2135 14.0002 35.8198C14.0002 35.6709 14.0002 35.5325 14.0002 35.3889C14.0002 34.6653 14.079 33.995 14.1316 33.3725C14.5324 28.7653 15.4983 26.1797 16.1422 21.732C16.2671 20.9074 16.3788 20.0082 16.4707 19.024C16.9138 14.3508 16.7905 9.65374 16.1028 5C18.5295 8.57891 20.4262 12.3772 21.7535 16.316C22.1915 17.6035 22.577 18.9513 22.9099 20.3594C24.053 25.2871 24.2988 30.3237 23.6393 35.3091V35.3091Z" fill="#3A7867"/>
<path d="M23.587 35.287C23.4788 36.1722 23.3578 37.0627 23.1923 37.9215C23.0268 38.7804 22.8358 39.6814 22.6449 40.556C22.2205 42.3123 21.7133 44.0528 21.1234 45.7775V45.8776H20.9898C20.4869 45.9251 19.9903 45.9672 19.4938 45.9883H17.9915C17.495 45.9883 16.9921 46.0146 16.4892 45.9883L14.9805 45.9409H14.7768V45.767C14.3899 43.7803 14.1455 41.7763 14.0447 39.7657C13.9512 37.7556 14.0044 35.7427 14.2039 33.738C14.3885 31.7305 14.7195 29.7388 15.1397 27.763C15.5598 25.7871 15.9608 23.8165 16.2346 21.8301C16.3682 20.4549 16.5465 19.085 16.6038 17.7045C16.6611 16.3241 16.7056 14.9436 16.6865 13.5632C16.6194 10.802 16.3729 8.04591 15.9481 5.3067L15.7508 4L16.5274 5.1539C18.0591 7.43198 19.3703 9.80693 20.4487 12.2565C20.9898 13.4788 21.4672 14.7223 21.8937 15.9763C22.3202 17.2303 22.6194 18.4791 22.9504 19.7647C23.565 22.3185 23.9079 24.912 23.9753 27.5153C24.0592 30.1102 23.9294 32.7068 23.587 35.287ZM23.5233 35.287C23.8404 32.712 23.9 30.1196 23.7016 27.5364C23.5033 24.9562 23.0606 22.3929 22.3775 19.8701L21.8237 17.9943C21.6391 17.3673 21.499 16.7351 21.2699 16.1133C20.8434 14.8751 20.3659 13.6475 19.8248 12.4251C18.7542 10.0052 17.4779 7.65108 16.0054 5.38047L16.5847 5.22767C16.9759 7.98341 17.1545 10.757 17.1194 13.5315C17.1194 14.9155 17.0579 16.3013 16.9348 17.6887C16.8329 19.0692 16.6229 20.4444 16.4446 21.8249C16.1645 23.8218 15.7062 25.7924 15.3179 27.7683C14.8936 29.7491 14.6194 31.7499 14.4967 33.7591C14.363 35.7545 14.363 37.7545 14.4967 39.7499C14.6177 41.7415 14.8978 43.7279 15.2288 45.7038L14.9932 45.5141L16.4637 45.6247C16.9539 45.6722 17.4504 45.6247 17.9406 45.6564H19.4174C19.914 45.6564 20.4041 45.6247 20.8943 45.5931L20.7288 45.7038C21.4035 44.0177 22.0019 42.2948 22.4603 40.556C22.9319 38.8137 23.2868 37.0512 23.5233 35.2765V35.287Z" fill="#231F20"/>
<path d="M18.1362 13C19.4739 15.0271 20.3645 17.211 20.7716 19.4626C21.5167 23.6755 20.2611 26.8591 19.5436 29.2043C18.0185 34.3833 17.6199 39.7208 18.3639 45" fill="#3A7867"/>
<path d="M18 13C18.3182 13.3333 18.6818 13.6444 19 14" stroke="white" stroke-miterlimit="10" stroke-linecap="round"/>
<path d="M19.64 16C20.1701 17.1796 20.5494 18.3948 20.7727 19.629C21.5142 23.7454 20.2647 26.856 19.5507 29.1475C18.1709 33.6863 17.708 38.3566 18.1776 43" stroke="white" stroke-miterlimit="10" stroke-linecap="round" stroke-dasharray="1.02 5.11"/>
</svg>
