<svg width="187" height="190" viewBox="0 0 187 190" fill="none" xmlns="http://www.w3.org/2000/svg">
<g clip-path="url(#clip0_3905_354)">
<path d="M96.0509 187.45C145.254 187.45 185.141 147.563 185.141 98.36C185.141 49.157 145.254 9.27002 96.0509 9.27002C46.8479 9.27002 6.96094 49.157 6.96094 98.36C6.96094 147.563 46.8479 187.45 96.0509 187.45Z" fill="#E2A840"/>
<path d="M168.141 45.99C168.111 45.9558 168.084 45.919 168.061 45.88L167.971 45.76L167.891 45.64C167.861 45.6058 167.834 45.569 167.811 45.53L167.721 45.41L167.641 45.29C167.611 45.2558 167.584 45.219 167.561 45.18L167.471 45.0601L167.391 44.94C167.361 44.9058 167.334 44.869 167.311 44.83L167.221 44.71L167.141 44.59L167.061 44.48L167.001 44.35L166.921 44.23C166.891 44.1958 166.864 44.159 166.841 44.12L166.751 44L166.671 43.88C166.641 43.8458 166.614 43.809 166.591 43.77L166.501 43.65L166.421 43.53C166.391 43.4958 166.364 43.459 166.341 43.4201L166.251 43.3L166.171 43.18L166.091 43.07L166.001 42.9501L165.921 42.83C165.891 42.7958 165.864 42.759 165.841 42.72L165.751 42.6L165.671 42.48C165.641 42.4458 165.614 42.409 165.591 42.37L165.501 42.25L165.421 42.13C165.391 42.0958 165.364 42.059 165.341 42.02L165.251 41.9L165.171 41.78L165.081 41.6701C165.058 41.6278 165.031 41.5876 165.001 41.55L164.921 41.43L164.841 41.32L164.751 41.2001L164.671 41.08C164.641 41.0458 164.614 41.009 164.591 40.97L164.501 40.85L164.421 40.73C164.391 40.6958 164.364 40.659 164.341 40.62L164.251 40.5L164.171 40.38L164.081 40.27C164.058 40.2278 164.031 40.1876 164.001 40.15L163.921 40.03C163.891 39.9958 163.864 39.959 163.841 39.9201L163.751 39.8L163.671 39.68L163.591 39.57L163.501 39.4501L163.421 39.33C163.391 39.2958 163.364 39.259 163.341 39.22L163.251 39.1C160.565 35.3988 157.6 31.9086 154.381 28.66C146.148 20.3459 136.358 13.735 125.57 9.2047C114.782 4.67442 103.208 2.31355 91.5072 2.2569C79.8067 2.20026 68.2098 4.44894 57.3785 8.87456C46.5472 13.3002 36.6937 19.816 28.3808 28.05C13.2569 43.0326 3.99658 62.9345 2.27602 84.1536C0.555453 105.373 6.48835 126.507 19.0008 143.73C19.0249 143.768 19.0517 143.805 19.0808 143.84L19.1708 143.96C19.194 144.002 19.2207 144.042 19.2508 144.08L19.3308 144.19L19.4208 144.31C19.444 144.352 19.4707 144.392 19.5008 144.43C19.5249 144.468 19.5517 144.505 19.5808 144.54L19.6708 144.66C19.694 144.702 19.7207 144.742 19.7508 144.78C19.7749 144.818 19.8017 144.855 19.8308 144.89L19.9208 145.01C19.944 145.052 19.9707 145.092 20.0008 145.13C20.0249 145.168 20.0517 145.205 20.0808 145.24C20.1109 145.278 20.1377 145.318 20.1608 145.36L20.2508 145.48C20.2749 145.518 20.3017 145.555 20.3308 145.59L20.4208 145.71C20.444 145.752 20.4707 145.792 20.5008 145.83C20.5249 145.868 20.5517 145.905 20.5808 145.94L20.6708 146.06C20.694 146.102 20.7207 146.142 20.7508 146.18C20.7749 146.218 20.8017 146.255 20.8308 146.29L20.9208 146.41C20.944 146.452 20.9707 146.492 21.0008 146.53C21.0249 146.568 21.0517 146.605 21.0808 146.64L21.1708 146.76C21.194 146.802 21.2207 146.842 21.2508 146.88C21.2749 146.918 21.3017 146.955 21.3308 146.99L21.4208 147.11C21.444 147.152 21.4707 147.192 21.5008 147.23L21.5808 147.34L21.6708 147.46C21.694 147.502 21.7207 147.542 21.7508 147.58L21.8308 147.69L21.9208 147.81C21.944 147.852 21.9707 147.892 22.0008 147.93C22.0249 147.968 22.0517 148.005 22.0808 148.04L22.1708 148.16C22.194 148.202 22.2207 148.242 22.2508 148.28C22.2749 148.318 22.3017 148.355 22.3308 148.39L22.4208 148.51C22.444 148.552 22.4707 148.592 22.5008 148.63C22.5249 148.668 22.5517 148.705 22.5808 148.74L22.6708 148.86C22.694 148.902 22.7207 148.942 22.7508 148.98C22.7749 149.018 22.8017 149.055 22.8308 149.09L22.9208 149.21C22.9429 149.259 22.9697 149.306 23.0008 149.35C23.0249 149.388 23.0517 149.425 23.0808 149.46L23.1708 149.58C23.194 149.622 23.2207 149.662 23.2508 149.7C23.2749 149.738 23.3017 149.775 23.3308 149.81L23.4208 149.93C23.444 149.972 23.4707 150.012 23.5008 150.05C23.5249 150.088 23.5517 150.125 23.5808 150.16L23.6708 150.28C23.694 150.322 23.7207 150.362 23.7508 150.4C23.7749 150.438 23.8017 150.475 23.8308 150.51L23.9208 150.63C26.6037 154.334 29.5693 157.824 32.7908 161.07C41.0236 169.384 50.8135 175.995 61.6014 180.525C72.3894 185.056 83.9641 187.417 95.6645 187.473C107.365 187.53 118.962 185.281 129.793 180.856C140.624 176.43 150.478 169.914 158.791 161.68C173.913 146.693 183.169 126.787 184.884 105.566C186.599 84.3448 180.66 63.2109 168.141 45.99Z" fill="#E5BA4E"/>
<path d="M91.0509 180.45C140.254 180.45 180.141 140.563 180.141 91.36C180.141 42.157 140.254 2.27002 91.0509 2.27002C41.8479 2.27002 1.96094 42.157 1.96094 91.36C1.96094 140.563 41.8479 180.45 91.0509 180.45Z" fill="#FAF28C"/>
<path d="M144.129 144.96C129.904 159.019 110.682 166.861 90.6816 166.763C70.6813 166.666 51.5367 158.637 37.4492 144.44C23.3963 130.21 15.562 110.986 15.6651 90.9863C15.7682 70.9868 23.8003 51.8448 37.9991 37.76C52.2274 23.7026 71.4505 15.8626 91.4517 15.9601C111.453 16.0576 130.599 24.0845 144.689 38.28C158.743 52.5105 166.577 71.7355 166.472 91.7358C166.367 111.736 158.332 130.878 144.129 144.96ZM43.6891 43.54C31.0252 56.1107 23.8647 73.1914 23.7785 91.0349C23.6922 108.878 30.6873 126.028 43.2292 138.72C55.7999 151.384 72.8805 158.544 90.724 158.631C108.568 158.717 125.717 151.722 138.409 139.18C151.071 126.608 158.229 109.528 158.316 91.6851C158.402 73.8424 151.409 56.6938 138.869 44C126.298 31.3361 109.218 24.1756 91.3743 24.0893C73.5308 24.0031 56.3817 30.9982 43.6891 43.54Z" fill="#D19205"/>
<path d="M54.3602 82.92L54.2902 83.02C54.4969 82.64 54.7169 82.26 54.9502 81.88L55.1502 81.58C55.3902 81.19 55.6502 80.81 55.9202 80.44C55.9802 80.36 56.0302 80.28 56.0902 80.21C56.3502 79.86 56.6102 79.52 56.8902 79.21L56.8002 79.35C58.6385 77.1292 60.8396 75.2357 63.3102 73.75C82.8802 61.75 110.06 72.66 118.76 53.09L114 47.53C105.3 67.1 78.1102 56.22 58.5402 68.18C38.9702 80.14 46.4702 106.05 58.2802 116.86C51.8102 107.47 48.5302 93.56 54.3602 82.92Z" fill="#E5BA4E"/>
<path d="M63.309 122.65C51.309 112 43.739 85.6499 63.309 73.7299C82.879 61.8099 110.059 72.6399 118.759 53.0699C118.759 53.0699 146.099 95.2299 120.959 122.65C101.409 143.98 76.089 134.05 63.309 122.65Z" fill="#D19205"/>
<path d="M32.7402 161.05C40.4674 168.07 49.2905 173.778 58.8602 177.95C68.3487 182.017 78.4594 184.441 88.7603 185.12C93.8733 185.435 99.0035 185.335 104.1 184.82C109.177 184.281 114.196 183.297 119.1 181.88C128.938 179.105 138.213 174.624 146.5 168.64C150.632 165.661 154.506 162.339 158.08 158.71C161.655 155.066 164.911 151.122 167.81 146.92C173.633 138.484 177.956 129.106 180.59 119.2C185.864 98.9677 184.137 77.5462 175.69 58.42C180.913 67.6519 184.35 77.7854 185.82 88.29C186.559 93.5892 186.827 98.9435 186.62 104.29C186.408 109.647 185.701 114.973 184.51 120.2C182.112 130.718 177.826 140.713 171.86 149.7C168.867 154.185 165.47 158.385 161.71 162.25C157.957 166.131 153.879 169.684 149.52 172.87C140.714 179.152 130.856 183.809 120.41 186.62C109.988 189.413 99.1425 190.274 88.4102 189.16C77.7486 188.086 67.3721 185.077 57.7903 180.28C48.3283 175.466 39.836 168.947 32.7402 161.05Z" fill="#231F20"/>
<path d="M175.691 58.42C175.111 57.3533 174.501 56.3033 173.861 55.27C173.231 54.27 172.611 53.2 171.921 52.2C171.231 51.2 170.581 50.2 169.861 49.2L167.711 46.35V46.27V46.35L162.231 39.19C161.231 38.04 160.381 36.85 159.401 35.74C158.421 34.63 157.401 33.51 156.401 32.43L153.271 29.3C152.161 28.23 151.081 27.3 149.951 26.3C147.711 24.3593 145.375 22.5336 142.951 20.83C133.287 14.0325 122.363 9.23205 110.821 6.71C99.339 4.20234 87.4751 3.98823 75.9106 6.08C70.1679 7.1633 64.5423 8.79408 59.1106 10.95C57.7706 11.53 56.3806 11.95 55.1106 12.66L51.1706 14.57C48.5826 15.9231 46.066 17.4084 43.6306 19.02C38.7584 22.234 34.2132 25.9183 30.0606 30.02C25.897 34.1341 22.1581 38.6569 18.9006 43.52C15.6427 48.3767 12.8694 53.5415 10.6206 58.94C8.39194 64.3606 6.71677 69.9926 5.62057 75.75C3.36339 87.3307 3.42797 99.2444 5.81057 110.8C6.98592 116.603 8.75523 122.269 11.0906 127.71C13.4054 133.186 16.2595 138.419 19.6106 143.33L19.0006 142.95C18.9787 142.94 18.959 142.926 18.9429 142.909C18.9268 142.891 18.9146 142.87 18.907 142.848C18.8995 142.825 18.8968 142.801 18.8991 142.777C18.9015 142.754 18.9088 142.731 18.9206 142.71C18.9299 142.687 18.9442 142.666 18.9625 142.649C18.9809 142.631 19.0028 142.619 19.0267 142.611C19.0506 142.603 19.0759 142.601 19.1008 142.604C19.1256 142.608 19.1495 142.616 19.1706 142.63C19.1972 142.642 19.2186 142.663 19.2306 142.69L19.6206 143.27L22.7006 147.88L24.2406 150.19L25.8406 152.44C26.8406 153.96 28.0406 155.39 29.1806 156.84C30.3206 158.29 31.5806 159.64 32.7806 161.05C31.4806 159.74 30.1106 158.49 28.8606 157.12C27.6106 155.75 26.3206 154.41 25.1706 152.95L23.4206 150.79L21.7406 148.59L18.3706 144.18L19.0006 144.5L18.3706 144.18C10.9111 134.482 5.54779 123.34 2.62057 111.46C-0.3029 99.4899 -0.748689 87.0486 1.31057 74.9C3.40215 62.6952 7.99498 51.0548 14.8006 40.71C18.1922 35.5473 22.0916 30.7367 26.4406 26.35C30.8127 21.9602 35.6285 18.0359 40.8106 14.64C43.3957 12.9508 46.0659 11.3954 48.8106 9.98001L53.0006 7.98001C54.3806 7.29001 55.8506 6.79 57.2706 6.19C63.0289 3.93304 68.9986 2.25803 75.0906 1.19C81.1812 0.201457 87.3538 -0.190398 93.5206 0.0200011C99.685 0.198078 105.811 1.04982 111.791 2.56001C117.751 4.06036 123.552 6.13679 129.111 8.76001C134.636 11.4124 139.868 14.6367 144.721 18.38C147.156 20.2363 149.493 22.219 151.721 24.32C152.811 25.32 153.921 26.47 154.931 27.54C155.941 28.61 156.981 29.81 158.001 30.95C159.021 32.09 159.931 33.3 160.871 34.49C161.811 35.68 162.671 36.93 163.571 38.15L168.571 45.65V45.57L170.571 48.65C171.231 49.65 171.811 50.75 172.411 51.8C173.011 52.85 173.581 53.94 174.131 55.02C174.681 56.1 175.191 57.35 175.691 58.42Z" fill="#231F20"/>
<path d="M83.4509 73.25L86.4509 77.25C86.4509 77.25 85.5109 94.51 90.1509 97.58L85.6909 103.1C85.6909 103.1 75.6409 90.7 83.4509 73.25Z" fill="#E5BA4E"/>
<path d="M56.6992 116.86C58.4864 119.403 60.56 121.731 62.8792 123.8C63.0292 123.94 107.759 104.14 116.699 59.8C116.699 59.8 99.4192 99.8501 56.6992 116.86Z" fill="#FAF28C"/>
<path d="M116.7 59.8C116.174 62.2089 115.442 64.5677 114.51 66.8501C103 98.9401 73.9995 117.35 63.7695 123.05C66.0655 125.026 68.528 126.799 71.1295 128.35C109.13 112.21 119.89 66.64 119.89 66.64L116.7 59.8Z" fill="#E5BA4E"/>
<path d="M125.74 97.5699L127.83 101.83C127.83 101.83 121.33 112.6 98.2604 108.12L94.1504 99.2499C94.1504 99.2499 115.47 106.86 125.74 97.5699Z" fill="#E5BA4E"/>
<path d="M95.4706 93.63C95.4706 93.63 105.281 101.95 125.741 97.57C125.741 97.57 113.991 109.27 92.1406 98.57L95.4706 93.63Z" fill="#FAF28C"/>
<path d="M87.3895 103.51C87.3895 103.51 79.0695 93.7 83.4495 73.25C83.4495 73.25 71.7495 85 82.3995 106.85L87.3895 103.51Z" fill="#FAF28C"/>
</g>
<defs>
<clipPath id="clip0_3905_354">
<rect width="186.69" height="189.6" fill="white"/>
</clipPath>
</defs>
</svg>
