<svg width="77" height="70" viewBox="0 0 77 70" fill="none" xmlns="http://www.w3.org/2000/svg">
<g clip-path="url(#clip0)">
<path d="M16.721 53.4768C11.8035 49.8484 11.8595 41.1031 11.9248 32.4229C11.9901 22.4681 12.0554 12.8296 17.906 7.34978C22.2356 3.29342 25.6321 5.36812 47.3549 5.34021C64.1228 5.3309 67.9672 4.09353 71.2797 7.86147C73.9484 10.8944 74.0137 17.4441 74.0417 30.4226C74.0697 42.9731 74.0324 49.2902 71.5503 51.6999C65.0092 58.0542 51.7405 47.9598 46.8883 53.9885C43.1279 58.6682 47.5415 69.1719 46.4311 69.5348C45.3393 69.8883 44.1356 58.6868 37.2306 54.4909C29.7658 49.9601 22.7395 57.9239 16.721 53.4768Z" fill="#3E9581" stroke="black" stroke-miterlimit="10"/>
<path d="M3.26623 58.4822C0.401591 57.2169 0.438915 54.1747 0.476239 51.1603C0.513564 47.6994 0.550888 44.3408 3.95673 42.4429C6.47612 41.0287 8.45431 41.7544 21.0886 41.7451C30.8395 41.7358 33.079 41.3079 35.0012 42.6197C36.5502 43.671 36.5875 45.9503 36.6061 50.4719C36.6248 54.8352 36.5968 57.0402 35.1598 57.8775C31.3528 60.0917 23.636 56.575 20.818 58.6776C18.6345 60.3057 21.2006 63.962 20.5474 64.083C19.9129 64.2039 19.213 60.3057 15.1913 58.8544C10.8524 57.2635 6.76538 60.0266 3.26623 58.4822Z" fill="#1E6F5D" stroke="black" stroke-miterlimit="10"/>
<path d="M9.65794 52.8163C11.1318 52.8163 12.3266 51.625 12.3266 50.1554C12.3266 48.6859 11.1318 47.4946 9.65794 47.4946C8.18407 47.4946 6.98926 48.6859 6.98926 50.1554C6.98926 51.625 8.18407 52.8163 9.65794 52.8163Z" fill="#3E9581" stroke="black" stroke-miterlimit="10"/>
<path d="M28.115 52.8163C29.5888 52.8163 30.7837 51.625 30.7837 50.1554C30.7837 48.6859 29.5888 47.4946 28.115 47.4946C26.6411 47.4946 25.4463 48.6859 25.4463 50.1554C25.4463 51.625 26.6411 52.8163 28.115 52.8163Z" fill="#3E9581" stroke="black" stroke-miterlimit="10"/>
<path d="M19.2126 52.8163C20.6865 52.8163 21.8813 51.625 21.8813 50.1554C21.8813 48.6859 20.6865 47.4946 19.2126 47.4946C17.7388 47.4946 16.5439 48.6859 16.5439 50.1554C16.5439 51.625 17.7388 52.8163 19.2126 52.8163Z" fill="#3E9581" stroke="black" stroke-miterlimit="10"/>
<path d="M53.9615 11.2947C54.2321 11.6389 56.089 13.9276 59.3269 14.0951C62.854 14.2812 65.0375 11.8064 65.2801 11.518C65.6907 11.8994 67.4636 13.4624 70.2162 13.4997C73.1089 13.5462 74.9844 11.8715 75.367 11.518C77.0093 10.0573 77.0746 7.51747 75.6096 6.0289C74.2379 4.63336 71.8865 4.54033 70.3469 5.90795C70.4775 4.04724 69.5537 2.30747 68.0234 1.51667C66.1012 0.530491 63.5165 1.20035 62.1542 3.22852C61.501 1.78647 60.5866 1.3306 60.26 1.19104C58.3565 0.390937 55.4918 1.61901 53.7096 4.56824C53.2897 4.4752 51.5261 4.14027 49.7905 5.18227C48.6895 5.84282 48.1203 6.76388 47.8777 7.21975C46.8326 10.1969 48.4002 12.8856 50.2104 13.2578C51.4701 13.509 52.9724 12.6809 53.9615 11.2947Z" fill="white"/>
<path d="M53.9521 11.2016C54.1854 11.3504 54.1947 11.4156 54.316 11.5086C54.4187 11.6016 54.5213 11.6854 54.6239 11.7691C54.8292 11.9273 55.0345 12.0947 55.2585 12.2436C55.6877 12.5413 56.1542 12.7832 56.6301 12.9786C57.5819 13.36 58.5803 13.5647 59.5787 13.5089C60.5678 13.4903 61.5289 13.2112 62.3967 12.7832C63.2552 12.3459 64.067 11.704 64.6642 11.0062L65.196 10.3922L65.8212 10.9411C67.0996 12.0668 68.7978 12.7088 70.5054 12.7088C72.1943 12.7274 73.9952 12.0854 75.2829 10.8946C75.8801 10.3084 76.272 9.48043 76.2907 8.60589C76.328 7.73136 76.0014 6.84752 75.3762 6.21488C74.7697 5.57293 73.8646 5.238 72.9782 5.238C72.0917 5.238 71.2146 5.58223 70.6081 6.19627L69.9362 6.86613L69.9549 5.87995C69.9736 4.9682 69.7123 4.05645 69.2084 3.33077C68.7045 2.6144 67.9674 2.08409 67.1649 1.90733C66.3531 1.70265 65.4946 1.81429 64.7295 2.13061C63.9643 2.45624 63.3205 3.02375 62.8726 3.71222L62.0328 4.98681L61.361 3.58197C61.0344 2.8935 60.5398 2.31668 59.9893 2.07479C59.4388 1.8329 58.7296 1.8422 58.0391 2.08409C57.3486 2.32599 56.6768 2.71674 56.0889 3.24704C55.5011 3.76804 54.9972 4.40068 54.5586 5.07984L54.1574 5.67527L53.4949 5.51711C52.5804 5.30313 51.5727 5.36825 50.7142 5.73109C49.8371 6.07532 49.0906 6.74518 48.6054 7.5825L48.6521 7.47086C48.3535 8.26166 48.1948 9.11759 48.3161 9.9456C48.4001 10.7829 48.764 11.6016 49.3332 12.1971C49.9117 12.8018 50.7236 13.0158 51.5913 12.7739C52.0206 12.6529 52.4405 12.4483 52.823 12.1785C53.019 12.0482 53.1963 11.8994 53.3736 11.7412C53.4669 11.6668 53.5415 11.5737 53.6348 11.4993C53.7188 11.4063 53.8588 11.276 53.9521 11.2016ZM53.9614 11.3877C53.9148 11.4993 53.9054 11.5737 53.8401 11.6668C53.7655 11.7691 53.7002 11.8714 53.6255 11.9738C53.4762 12.1785 53.3083 12.3645 53.1216 12.5413C52.7577 12.8948 52.3285 13.2019 51.8433 13.4251C51.3581 13.6391 50.7982 13.7787 50.2103 13.6949C49.6225 13.6205 49.0906 13.3507 48.6521 13.0065C47.7749 12.2994 47.2057 11.2853 46.9631 10.2061C46.7112 9.12689 46.8138 7.99186 47.1218 6.94055L47.1311 6.91264L47.1684 6.82891C47.7469 5.64736 48.736 4.63327 49.9677 4.05645C51.2088 3.47032 52.5991 3.34938 53.9241 3.60988L52.8697 4.06575C53.3642 3.20983 54.0081 2.41902 54.7732 1.74917C55.5384 1.07931 56.4342 0.521096 57.4699 0.223382C58.4963 -0.0743324 59.7 -0.111547 60.8011 0.42806C61.8835 0.986274 62.5367 1.93524 62.9473 2.8749L61.4356 2.74465C62.1075 1.79568 63.0592 1.03279 64.1603 0.651345C65.252 0.251292 66.4837 0.223382 67.5755 0.614131C68.6859 0.995577 69.5816 1.82359 70.1135 2.79116C70.6547 3.76804 70.86 4.87516 70.7387 5.94507L70.0949 5.62875C71.7278 4.26113 74.3032 4.31695 75.7868 5.81482C77.2891 7.27548 77.4384 9.87118 76.0387 11.5644C75.3482 12.3738 74.5178 12.9879 73.594 13.4717C72.6702 13.9368 71.6252 14.2625 70.5614 14.2997C68.4153 14.4392 66.2784 13.574 64.7388 12.1133L65.8959 12.0482C65.0747 12.9693 64.095 13.6112 63.0126 14.095C61.9302 14.5695 60.7265 14.7742 59.5601 14.6904C58.3937 14.616 57.246 14.2625 56.2849 13.6577C55.7997 13.36 55.3518 13.0158 54.9505 12.6343C54.7452 12.439 54.5493 12.2436 54.3813 12.0296C54.2973 11.918 54.2134 11.8156 54.1294 11.704C54.0641 11.5923 53.8961 11.4435 53.9614 11.3877Z" fill="black"/>
<path d="M53.9615 45.3362C54.2321 45.6805 56.089 47.9691 59.3269 48.1366C62.854 48.3227 65.0375 45.8479 65.2801 45.5595C65.6907 45.941 67.4636 47.504 70.2162 47.5412C73.1089 47.5877 74.9844 45.913 75.367 45.5595C77.0093 44.0988 77.0746 41.559 75.6096 40.0704C74.2379 38.6749 71.8865 38.5818 70.3469 39.9495C70.4775 38.0887 69.5537 36.349 68.0234 35.5582C66.1012 34.572 63.5165 35.2419 62.1542 37.27C61.501 35.828 60.5866 35.3721 60.26 35.2325C58.3565 34.4324 55.4918 35.6605 53.7096 38.6097C53.2897 38.5167 51.5261 38.1818 49.7905 39.2238C48.6895 39.8843 48.1203 40.8054 47.8777 41.2613C46.8326 44.2384 48.4002 46.9271 50.2104 47.2993C51.4701 47.5505 52.9724 46.7225 53.9615 45.3362Z" fill="white"/>
<path d="M53.9521 45.2431C54.1854 45.3919 54.1947 45.4571 54.316 45.5501C54.4187 45.6431 54.5213 45.7269 54.6239 45.8106C54.8292 45.9688 55.0345 46.1362 55.2585 46.2851C55.6877 46.5828 56.1542 46.8247 56.6301 47.0201C57.5819 47.4015 58.5803 47.6062 59.5787 47.5504C60.5678 47.5318 61.5289 47.2527 62.3967 46.8247C63.2552 46.3874 64.067 45.7455 64.6642 45.0477L65.196 44.4337L65.8212 44.9826C67.0996 46.1083 68.7978 46.7503 70.5054 46.7503C72.1943 46.7689 73.9952 46.1269 75.2829 44.9361C75.8801 44.3499 76.272 43.5219 76.2907 42.6474C76.328 41.7729 76.0014 40.889 75.3762 40.2564C74.7697 39.6144 73.8646 39.2795 72.9782 39.2795C72.0917 39.2888 71.2146 39.633 70.5987 40.2471L69.9269 40.9169L69.9456 39.9308C69.9642 39.019 69.703 38.1073 69.1991 37.3816C68.6952 36.6652 67.958 36.1349 67.1556 35.9581C66.3438 35.7535 65.4853 35.8651 64.7202 36.1814C63.955 36.507 63.3112 37.0746 62.8633 37.763L62.0235 39.0376L61.3516 37.6328C61.0251 36.9443 60.5305 36.3675 59.98 36.1256C59.4294 35.8837 58.7203 35.893 58.0298 36.1349C57.3393 36.3768 56.6674 36.7675 56.0796 37.2978C55.4917 37.8188 54.9878 38.4515 54.5493 39.1306L54.1574 39.7447L53.4949 39.5865C52.5804 39.3725 51.5727 39.4377 50.7142 39.8005C49.8371 40.1447 49.0906 40.8146 48.6054 41.6519L48.6521 41.5403C48.3535 42.3311 48.1948 43.187 48.3161 44.015C48.4001 44.8523 48.764 45.671 49.3332 46.2665C49.9117 46.8712 50.7236 47.0852 51.5913 46.8433C52.0206 46.7224 52.4405 46.5177 52.823 46.2479C53.019 46.1176 53.1963 45.9688 53.3736 45.8106C53.4669 45.7362 53.5415 45.6431 53.6348 45.5687C53.7188 45.4478 53.8588 45.3175 53.9521 45.2431ZM53.9614 45.4292C53.9148 45.5408 53.9054 45.6152 53.8401 45.7083C53.7655 45.8106 53.7002 45.9129 53.6255 46.0153C53.4762 46.22 53.3083 46.406 53.1216 46.5828C52.7577 46.9363 52.3285 47.2434 51.8433 47.4666C51.3581 47.6806 50.7982 47.8202 50.2103 47.7364C49.6225 47.662 49.0906 47.3922 48.6521 47.048C47.7749 46.3409 47.2057 45.3268 46.9631 44.2476C46.7112 43.1684 46.8138 42.0334 47.1218 40.9821L47.1311 40.9541L47.1684 40.8704C47.7469 39.6889 48.736 38.6748 49.9677 38.098C51.2088 37.5118 52.5991 37.3909 53.9241 37.6514L52.8697 38.1073C53.3642 37.2513 54.0081 36.4605 54.7732 35.7907C55.5384 35.1208 56.4342 34.5626 57.4699 34.2649C58.4963 33.9672 59.7 33.93 60.8011 34.4696C61.8835 35.0278 62.5367 35.9767 62.9473 36.9164L61.4356 36.7862C62.1075 35.8372 63.0592 35.0743 64.1603 34.6928C65.252 34.2928 66.4837 34.2649 67.5755 34.6556C68.6859 35.0371 69.5816 35.8651 70.1135 36.8327C70.6547 37.8095 70.86 38.9167 70.7387 39.9866L70.0949 39.6703C71.7278 38.3026 74.3032 38.3585 75.7868 39.8563C77.2891 41.317 77.4384 43.9127 76.0387 45.6059C75.3482 46.4153 74.5178 47.0294 73.594 47.5132C72.6702 47.9783 71.6252 48.304 70.5614 48.3412C68.4153 48.4807 66.2784 47.6155 64.7388 46.1548L65.8959 46.0897C65.0747 47.0108 64.095 47.6527 63.0126 48.1365C61.9302 48.611 60.7265 48.8157 59.5601 48.7319C58.3937 48.6575 57.246 48.304 56.2849 47.6992C55.7997 47.4015 55.3518 47.0573 54.9505 46.6758C54.7452 46.4805 54.5493 46.2851 54.3813 46.0711C54.2973 45.9595 54.2134 45.8571 54.1294 45.7455C54.0641 45.6245 53.8961 45.485 53.9614 45.4292Z" fill="black"/>
<path d="M20.2857 29.846C20.5563 30.1902 22.4132 32.4789 25.6511 32.6464C29.1782 32.8324 31.3617 30.3577 31.6043 30.0693C32.0149 30.4507 33.7878 32.0137 36.5405 32.0509C39.4331 32.0974 41.3086 30.4228 41.6912 30.0693C43.3335 28.6086 43.3988 26.0687 41.9338 24.5802C40.5622 23.1846 38.2107 23.0916 36.6711 24.4592C36.8017 22.5985 35.878 20.8587 34.3477 20.0679C32.4255 19.0818 29.8408 19.7516 28.4784 21.7798C27.8252 20.3377 26.9108 19.8819 26.5842 19.7423C24.6807 18.9422 21.816 20.1703 20.0338 23.1195C19.6139 23.0265 17.8503 22.6915 16.1147 23.7335C15.0137 24.3941 14.4445 25.3151 14.2019 25.771C13.1568 28.7482 14.7244 31.4369 16.5346 31.809C17.8037 32.0509 19.306 31.2322 20.2857 29.846Z" fill="white"/>
<path d="M20.2861 29.7529C20.5194 29.9017 20.5287 29.9668 20.65 30.0599C20.7526 30.1529 20.8553 30.2366 20.9579 30.3204C21.1632 30.4785 21.3685 30.646 21.5924 30.7949C22.0217 31.0926 22.4882 31.3345 22.9641 31.5298C23.9159 31.9113 24.9143 32.116 25.9127 32.0601C26.9018 32.0415 27.8629 31.7624 28.7307 31.3345C29.5892 30.8972 30.401 30.2552 30.9982 29.5575L31.53 28.9434L32.1552 29.4924C33.4336 30.6181 35.1318 31.26 36.8394 31.26C38.5283 31.2786 40.3292 30.6367 41.6169 29.4458C42.2141 28.8597 42.606 28.0317 42.6247 27.1572C42.662 26.2826 42.3354 25.3988 41.7102 24.7661C41.1037 24.1242 40.1986 23.7893 39.3121 23.7893C38.4257 23.7986 37.5486 24.1428 36.9327 24.7568L36.2609 25.4267L36.2795 24.4405C36.2982 23.5288 36.0369 22.617 35.5331 21.8913C35.0292 21.175 34.292 20.6447 33.4895 20.4679C32.6777 20.2632 31.8193 20.3749 31.0541 20.6912C30.289 21.0168 29.6451 21.5843 29.1973 22.2728L28.3575 23.5474L27.6856 22.1425C27.359 21.4541 26.8645 20.8773 26.314 20.6354C25.7634 20.3935 25.0543 20.4028 24.3638 20.6447C23.6733 20.8866 23.0014 21.2773 22.4136 21.8076C21.8257 22.3286 21.3218 22.9613 20.8833 23.6404L20.4914 24.2544L19.8289 24.0963C18.9144 23.8823 17.9067 23.9474 17.0482 24.3103C16.1711 24.6545 15.4246 25.3244 14.9394 26.1617L14.986 26.05C14.6874 26.8408 14.5288 27.6968 14.6501 28.5248C14.7341 29.3621 15.098 30.1808 15.6672 30.7762C16.2457 31.381 17.0575 31.595 17.9253 31.3531C18.3546 31.2321 18.7745 31.0274 19.157 30.7576C19.353 30.6274 19.5303 30.4785 19.7076 30.3204C19.8009 30.2459 19.8755 30.1529 19.9688 30.0785C20.0528 29.9575 20.1928 29.8273 20.2861 29.7529ZM20.2954 29.9389C20.2488 30.0506 20.2394 30.125 20.1741 30.218C20.0995 30.3204 20.0341 30.4227 19.9595 30.5251C19.8102 30.7297 19.6422 30.9158 19.4556 31.0926C19.0917 31.4461 18.6625 31.7531 18.1773 31.9764C17.692 32.1904 17.1322 32.3299 16.5443 32.2462C15.9565 32.1718 15.4246 31.902 14.986 31.5577C14.1089 30.8507 13.5397 29.8366 13.2971 28.7574C13.0452 27.6782 13.1478 26.5431 13.4557 25.4918L13.4651 25.4639L13.5024 25.3802C14.0809 24.1986 15.07 23.1845 16.3017 22.6077C17.5427 22.0216 18.9331 21.9006 20.2581 22.1611L19.2037 22.617C19.6982 21.7611 20.3421 20.9703 21.1072 20.3004C21.8724 19.6306 22.7682 19.0724 23.8039 18.7747C24.8303 18.4769 26.034 18.4397 27.1351 18.9793C28.2175 19.5375 28.8707 20.4865 29.2812 21.4262L27.7696 21.2959C28.4414 20.347 29.3932 19.5841 30.4943 19.2026C31.586 18.8026 32.8177 18.7747 33.9094 19.1654C35.0198 19.5468 35.9156 20.3749 36.4475 21.3424C36.9887 22.3193 37.194 23.4264 37.0727 24.4963L36.4288 24.18C38.0618 22.8124 40.6371 22.8682 42.1208 24.3661C43.6231 25.8268 43.7724 28.4224 42.3727 30.1157C41.6822 30.9251 40.8518 31.5391 39.928 32.0229C39.0042 32.4881 37.9591 32.8137 36.8954 32.8509C34.7492 32.9905 32.6124 32.1253 31.0728 30.6646L32.2299 30.5995C31.4087 31.5205 30.429 32.1625 29.3466 32.6463C28.2642 33.1207 27.0604 33.3254 25.8941 33.2417C24.7277 33.1673 23.58 32.8137 22.6189 32.209C22.1336 31.9113 21.6857 31.5671 21.2845 31.1856C21.0792 30.9902 20.8833 30.7949 20.7153 30.5809C20.6313 30.4692 20.5474 30.3669 20.4634 30.2552C20.3981 30.1343 20.2301 29.9947 20.2954 29.9389Z" fill="black"/>
</g>
<defs>
<clipPath id="clip0">
<rect width="77" height="70" fill="white"/>
</clipPath>
</defs>
</svg>
