<svg width="297" height="496" viewBox="0 0 297 496" fill="none" xmlns="http://www.w3.org/2000/svg">
<g clip-path="url(#clip0_4884_1090)">
<path d="M119.774 495.763C184.023 495.763 236.107 481.773 236.107 464.516C236.107 447.259 184.023 433.27 119.774 433.27C55.5251 433.27 3.44092 447.259 3.44092 464.516C3.44092 481.773 55.5251 495.763 119.774 495.763Z" fill="#A7A9AC"/>
<g style="mix-blend-mode:multiply">
<path d="M247.018 332.719C247.018 332.34 247.018 331.96 246.974 331.581C246.942 330.771 246.904 329.968 246.86 329.164C246.86 328.753 246.81 328.342 246.778 327.937C246.721 327.102 246.658 326.274 246.582 325.451C246.582 325.116 246.525 324.775 246.493 324.446C246.38 323.288 246.253 322.143 246.108 320.999C246.108 320.866 246.063 320.733 246.051 320.594C245.918 319.582 245.766 318.57 245.608 317.564C245.557 317.229 245.5 316.893 245.443 316.558C245.304 315.73 245.159 314.895 245.001 314.072L244.817 313.06C244.634 312.118 244.431 311.163 244.229 310.246C244.185 310.069 244.147 309.885 244.109 309.708C243.843 308.548 243.563 307.397 243.268 306.254C243.268 306.179 243.23 306.109 243.204 306.033C242.932 304.989 242.641 303.946 242.344 302.915C242.274 302.693 242.211 302.466 242.142 302.244C241.863 301.308 241.572 300.378 241.275 299.455C241.212 299.271 241.155 299.088 241.098 298.905C239.972 295.51 238.707 292.183 237.303 288.923L237.221 288.727C227.974 267.533 212.744 249.498 193.398 236.833C174.052 224.167 151.43 217.422 128.307 217.423H127.674C111.944 134.076 82.1329 93.6454 80.4441 91.4062L50.8611 113.646C51.2153 114.126 76.8703 149.655 91.0451 223.394C68.2093 230.95 48.2041 245.259 33.6741 264.428C19.1441 283.596 10.7734 306.724 9.66845 330.752C8.56352 354.78 14.7764 378.577 27.4858 398.999C40.1953 419.421 58.8029 435.504 80.8489 445.124L81.0449 445.207C84.2961 446.623 87.621 447.888 91.0198 449.002L91.5827 449.185C92.5062 449.482 93.4297 449.773 94.3532 450.052L95.0426 450.254C96.061 450.551 97.092 450.836 98.123 451.108L98.3823 451.178C99.5209 451.477 100.666 451.757 101.817 452.019L102.405 452.145L102.835 452.24L103.468 452.373L105.093 452.708L105.302 452.746L106.213 452.923C106.921 453.056 107.636 453.183 108.351 453.303L108.857 453.391L109.698 453.531L110.9 453.708L112.513 453.935H112.646L113.133 454.005L113.436 454.043C114.252 454.144 115.081 454.239 115.903 454.321L116.536 454.391L117.168 454.448C117.693 454.498 118.224 454.543 118.756 454.581C118.99 454.581 119.23 454.625 119.471 454.637L120.369 454.701L121.001 454.745L122.14 454.808H122.57C123.158 454.808 123.746 454.865 124.341 454.884H124.784H124.936H125.568C126.492 454.884 127.421 454.922 128.351 454.922C193.956 454.922 247.145 401.733 247.145 336.128V336.008C247.09 334.946 247.048 333.849 247.018 332.719Z" fill="#231F20"/>
</g>
<g style="mix-blend-mode:multiply">
<path d="M291.744 11.4613C291.4 9.62849 290.523 7.93769 289.224 6.60012C287.925 5.26255 286.26 4.33751 284.438 3.9406C283.698 3.77614 266.057 0 242.009 0C218.694 0 185.031 3.71922 157.074 21.4361C126.359 40.8988 108.895 72.4489 105.081 115.258C96.0545 96.6428 88.8122 86.8451 87.9583 85.7129C86.4438 83.7047 84.1939 82.3801 81.7031 82.0302C79.2123 81.6803 76.6845 82.3337 74.6754 83.8469L45.0924 106.093C43.0874 107.583 41.7551 109.807 41.3876 112.278C41.02 114.749 41.6472 117.265 43.1316 119.274C43.3719 119.603 66.1933 151.691 80.0708 217.315C56.6672 226.808 36.5854 242.997 22.3412 263.852C8.09703 284.708 0.323918 309.303 -0.00429624 334.557C-0.33251 359.81 6.79876 384.599 20.4961 405.818C34.1934 427.037 53.8478 443.741 76.9967 453.84L77.1928 453.928C80.7159 455.459 84.3466 456.844 87.9456 458.04L88.5781 458.242C89.5712 458.565 90.5642 458.875 91.57 459.172L92.31 459.393C93.4739 459.735 94.5618 460.026 95.6434 460.317L95.9217 460.393C97.1361 460.709 98.3822 461.025 99.6346 461.297L101.393 461.683L103.202 462.056L104.359 462.278C105.125 462.423 105.897 462.556 106.662 462.689H106.807L108.129 462.904L109.394 463.1C109.976 463.188 110.558 463.271 111.102 463.34L111.792 463.435L112.133 463.479C113.019 463.593 113.911 463.688 114.796 463.783L115.498 463.853L116.131 463.916C116.7 463.973 117.269 464.017 117.851 464.068L118.617 464.125L119.584 464.194L120.52 464.251L121.501 464.308H121.969C122.601 464.308 123.234 464.365 123.866 464.384L125.207 464.422C126.2 464.422 127.2 464.46 128.206 464.46C198.94 464.46 256.487 406.9 256.487 336.178V336.027C256.487 334.875 256.487 333.686 256.424 332.383C256.424 332.086 256.424 331.782 256.424 331.485V331.156C256.392 330.283 256.348 329.417 256.297 328.55C256.297 328.107 256.247 327.665 256.215 327.222C256.152 326.324 256.082 325.432 256 324.54C256 324.54 255.924 323.705 255.905 323.458C255.772 322.143 255.633 320.928 255.481 319.733L255.424 319.303C255.285 318.227 255.121 317.127 254.95 316.033L254.773 314.945C254.621 314.04 254.463 313.148 254.292 312.25L254.09 311.181C253.887 310.163 253.672 309.151 253.457 308.139L253.331 307.563C253.046 306.298 252.743 305.033 252.426 303.844L252.363 303.591C252.072 302.503 251.768 301.396 251.427 300.22L251.212 299.498C250.908 298.486 250.579 297.481 250.269 296.475L250.08 295.893C248.878 292.256 247.493 288.632 245.956 285.096L245.867 284.894C236.371 263.127 221.02 244.424 201.524 230.864C182.028 217.305 159.152 209.422 135.442 208.093C133.692 199.529 131.746 191.171 129.603 183.02L131.374 183.317L132.715 183.532L134.303 183.773C135.967 184.026 137.681 184.26 139.363 184.481L140.862 184.671L142.355 184.854L144.12 185.05C146.65 185.335 149.243 185.575 151.83 185.784L153.506 185.91L155.404 186.037C158.295 186.227 161.204 186.366 164.057 186.442H164.095L165.803 186.48H165.929H167.688H167.757C168.643 186.48 169.534 186.48 170.433 186.48C173.298 186.48 176.182 186.423 178.991 186.309L180.888 186.22H180.945C185.626 185.98 190.256 185.588 194.709 185.031H194.74C218.144 182.109 238.062 174.816 253.799 163.386L253.9 163.317C258.162 160.22 262.162 156.778 265.861 153.026L265.918 152.962C266.437 152.437 266.949 151.906 267.468 151.356L267.537 151.28C270.768 147.87 273.745 144.227 276.443 140.382L276.519 140.274C276.943 139.642 277.36 139.009 277.784 138.376L277.923 138.155C278.341 137.523 278.752 136.89 279.15 136.258L279.214 136.144C281.406 132.584 283.379 128.894 285.121 125.094L285.191 124.954C285.52 124.24 285.823 123.512 286.152 122.791L286.304 122.437C286.608 121.722 286.937 121.001 287.202 120.274L287.335 119.939C287.639 119.18 287.968 118.42 288.227 117.642V117.586C289.492 114.252 290.605 110.748 291.592 107.168L291.636 107.01C291.858 106.207 292.073 105.384 292.269 104.556L292.389 104.075C292.591 103.284 292.781 102.481 292.965 101.678L293.091 101.115C293.274 100.305 293.458 99.4892 293.629 98.6606L293.717 98.2178C294.495 94.4227 295.134 90.4631 295.615 86.4719V86.3833C298.322 64.7891 297.006 39.5831 291.744 11.4613Z" fill="#231F20"/>
</g>
<g style="mix-blend-mode:multiply">
<path d="M260.63 144.904C263.521 141.813 266.178 138.513 268.581 135.03L268.669 134.904C269.055 134.347 269.435 133.778 269.808 133.208C269.846 133.141 269.889 133.075 269.935 133.012C270.308 132.437 270.681 131.855 271.041 131.26L271.105 131.165C273.085 127.939 274.868 124.595 276.443 121.153C276.47 121.102 276.493 121.049 276.513 120.994C276.81 120.362 277.107 119.685 277.392 119.021C277.436 118.913 277.487 118.812 277.531 118.705C277.809 118.072 278.088 117.389 278.353 116.719C278.398 116.617 278.436 116.516 278.474 116.415C278.752 115.719 279.03 115.017 279.296 114.309V114.271C280.447 111.209 281.484 108.002 282.408 104.65C282.42 104.599 282.434 104.548 282.452 104.498C282.655 103.752 282.851 102.993 283.047 102.228L283.161 101.772C283.344 101.038 283.521 100.298 283.698 99.5457L283.812 99.0207C283.983 98.268 284.154 97.5026 284.312 96.7373C284.312 96.5981 284.369 96.459 284.394 96.3261C285.115 92.7882 285.716 89.1028 286.197 85.2697V85.2191C288.626 65.5287 287.721 41.7902 282.402 13.2066C282.402 13.2066 122.374 -21.6326 114.082 121.861C113.93 124.459 113.831 127.117 113.784 129.837C113.784 130.046 113.784 130.255 113.784 130.47C113.784 131.305 113.784 132.139 113.784 133V133.183C113.784 134.783 113.784 136.409 113.828 138.054V139.116C113.828 139.825 113.866 140.546 113.892 141.267C113.892 141.76 113.892 142.26 113.942 142.759C113.942 143.392 113.993 144.088 114.025 144.765C114.075 145.827 114.132 146.902 114.202 147.984C114.202 148.522 114.271 149.059 114.303 149.603C114.353 150.343 114.404 151.09 114.461 151.842C114.505 152.38 114.543 152.918 114.587 153.455C114.657 154.354 114.739 155.258 114.822 156.169C114.822 156.542 114.885 156.915 114.923 157.295C115.043 158.56 115.169 159.825 115.315 161.141C115.353 161.526 115.397 161.919 115.441 162.304C115.555 163.316 115.675 164.335 115.802 165.359C115.846 165.758 115.897 166.156 115.947 166.555C116.116 167.925 116.3 169.311 116.498 170.711C116.498 170.711 117.295 170.919 118.775 171.267H118.857L119.319 171.375L119.483 171.413L119.939 171.52L120.141 171.564L120.603 171.666L120.843 171.723L121.349 171.83L121.596 171.887L122.374 172.051L122.545 172.089L123.177 172.229L123.569 172.305L124.056 172.406L124.518 172.501L124.986 172.589L125.486 172.69L125.967 172.785L126.51 172.886L126.947 172.969L127.579 173.089L127.896 173.146L130.521 173.614L130.856 173.671L131.659 173.804L132.058 173.873L132.88 174.006L133.291 174.076L134.164 174.208L134.525 174.265L135.486 174.417L135.701 174.449C137.265 174.685 138.899 174.913 140.603 175.132L140.862 175.163L141.995 175.309L142.317 175.347L143.475 175.486L143.778 175.518L145.005 175.657H145.183C147.544 175.923 150.007 176.157 152.57 176.359H152.754L154.177 176.466H154.405L155.859 176.568H156.005C158.693 176.738 161.47 176.871 164.316 176.954C164.867 176.954 165.423 176.985 165.98 176.991H166.113H167.764H167.858C171.363 177.038 174.947 176.989 178.611 176.846L180.427 176.764H180.477C184.778 176.549 189.155 176.182 193.564 175.638C212.495 173.279 231.977 167.529 248.258 155.707L248.309 155.669C252.139 152.885 255.735 149.792 259.062 146.422L259.144 146.34C259.605 145.865 260.067 145.391 260.523 144.904H260.63Z" fill="#231F20"/>
</g>
<path d="M100.153 321.492C99.3373 180.864 51.2657 114.329 50.804 113.671L80.3616 91.4316C82.645 94.4551 136.264 167.176 137.137 321.283L100.153 321.492Z" fill="#66BE64"/>
<path d="M128.281 455.029C193.889 455.029 247.075 401.843 247.075 336.235C247.075 270.627 193.889 217.441 128.281 217.441C62.6735 217.441 9.48779 270.627 9.48779 336.235C9.48779 401.843 62.6735 455.029 128.281 455.029Z" fill="#293995"/>
<path d="M193.621 237.037C206.435 256.417 213.255 279.143 213.229 302.376C213.229 367.981 160.04 421.17 94.4353 421.17C71.202 421.196 48.4759 414.376 29.0959 401.562C39.9048 417.996 54.6294 431.485 71.9451 440.815C89.2608 450.146 108.624 455.026 128.294 455.016C193.899 455.016 247.088 401.828 247.088 336.223C247.094 316.554 242.211 297.192 232.878 279.879C223.545 262.565 210.055 247.843 193.621 237.037Z" fill="#2D307E"/>
<path d="M169.421 322.332C160.73 313.926 148.206 312.984 137.263 314.388C135.22 303.547 130.451 291.927 119.774 286.26C109.097 291.952 104.328 303.547 102.285 314.388C91.3422 312.984 78.8183 313.926 70.1274 322.332C72.2148 334.236 81.7974 342.364 91.475 347.633C86.7564 357.608 83.7836 369.809 89.0904 380.67C101.058 382.365 111.747 375.761 119.774 368.196C127.801 375.787 138.49 382.365 150.458 380.67C155.764 369.809 152.792 357.608 148.073 347.633C157.751 342.364 167.333 334.236 169.421 322.332Z" fill="#4A62AD"/>
<path d="M118.661 359.292C129.099 359.292 137.561 350.83 137.561 340.392C137.561 329.954 129.099 321.492 118.661 321.492C108.223 321.492 99.7612 329.954 99.7612 340.392C99.7612 350.83 108.223 359.292 118.661 359.292Z" fill="#2A2762"/>
<path d="M65.624 437.155C84.4233 448.864 106.134 455.058 128.282 455.03C193.887 455.03 247.075 401.841 247.075 336.236C247.075 333.94 246.993 331.663 246.866 329.398C246.658 330.069 205.101 465.89 65.624 437.155Z" fill="#2A2762"/>
<path d="M214.832 318.322C225.272 313.136 227.668 296.719 220.184 281.656C212.7 266.592 198.17 258.586 187.73 263.772C177.29 268.959 174.894 285.375 182.378 300.439C189.863 315.503 204.393 323.509 214.832 318.322Z" fill="white"/>
<path d="M211.319 350.43C216.863 350.43 221.357 345.936 221.357 340.392C221.357 334.848 216.863 330.354 211.319 330.354C205.775 330.354 201.281 334.848 201.281 340.392C201.281 345.936 205.775 350.43 211.319 350.43Z" fill="white"/>
<path d="M116.498 170.693L282.42 13.1953C322.193 225.773 116.498 170.693 116.498 170.693Z" fill="#4CA84E"/>
<path d="M282.42 13.2072L116.498 170.705C88.6414 -28.9946 282.42 13.2072 282.42 13.2072Z" fill="#66BE64"/>
<g style="mix-blend-mode:multiply">
<path d="M114.1 121.861C113.265 136.269 113.955 152.468 116.498 170.691C116.498 170.691 270.586 211.944 286.241 85.2188C265.286 106.484 189.959 171.678 114.1 121.861Z" fill="#4CA84E"/>
</g>
<path d="M100.153 321.492C99.3373 180.864 51.2657 114.329 50.804 113.671L80.3616 91.4316C82.645 94.4551 136.264 167.176 137.137 321.283L100.153 321.492Z" fill="#66BE64"/>
<path d="M128.281 455.029C193.889 455.029 247.075 401.843 247.075 336.235C247.075 270.627 193.889 217.441 128.281 217.441C62.6735 217.441 9.48779 270.627 9.48779 336.235C9.48779 401.843 62.6735 455.029 128.281 455.029Z" fill="#293995"/>
<path d="M193.621 237.037C206.435 256.417 213.255 279.143 213.229 302.376C213.229 367.981 160.04 421.17 94.4353 421.17C71.202 421.196 48.4759 414.376 29.0959 401.562C39.9048 417.996 54.6294 431.485 71.9451 440.815C89.2608 450.146 108.624 455.026 128.294 455.016C193.899 455.016 247.088 401.828 247.088 336.223C247.094 316.554 242.211 297.192 232.878 279.879C223.545 262.565 210.055 247.843 193.621 237.037Z" fill="#2D307E"/>
<path d="M169.421 322.332C160.73 313.926 148.206 312.984 137.263 314.388C135.22 303.547 130.451 291.927 119.774 286.26C109.097 291.952 104.328 303.547 102.285 314.388C91.3422 312.984 78.8183 313.926 70.1274 322.332C72.2148 334.236 81.7974 342.364 91.475 347.633C86.7564 357.608 83.7836 369.809 89.0904 380.67C101.058 382.365 111.747 375.761 119.774 368.196C127.801 375.787 138.49 382.365 150.458 380.67C155.764 369.809 152.792 357.608 148.073 347.633C157.751 342.364 167.333 334.236 169.421 322.332Z" fill="#4A62AD"/>
<path d="M118.661 359.292C129.099 359.292 137.561 350.83 137.561 340.392C137.561 329.954 129.099 321.492 118.661 321.492C108.223 321.492 99.7612 329.954 99.7612 340.392C99.7612 350.83 108.223 359.292 118.661 359.292Z" fill="#2A2762"/>
<path d="M65.624 437.155C84.4233 448.864 106.134 455.058 128.282 455.03C193.887 455.03 247.075 401.841 247.075 336.236C247.075 333.94 246.993 331.663 246.866 329.398C246.658 330.069 205.101 465.89 65.624 437.155Z" fill="#2A2762"/>
<path d="M214.832 318.322C225.272 313.136 227.668 296.719 220.184 281.656C212.7 266.592 198.17 258.586 187.73 263.772C177.29 268.959 174.894 285.375 182.378 300.439C189.863 315.503 204.393 323.509 214.832 318.322Z" fill="white"/>
<path d="M211.319 350.43C216.863 350.43 221.357 345.936 221.357 340.392C221.357 334.848 216.863 330.354 211.319 330.354C205.775 330.354 201.281 334.848 201.281 340.392C201.281 345.936 205.775 350.43 211.319 350.43Z" fill="white"/>
<path d="M116.498 170.693L282.42 13.1953C322.193 225.773 116.498 170.693 116.498 170.693Z" fill="#4CA84E"/>
<path d="M282.42 13.2072L116.498 170.705C88.6414 -28.9946 282.42 13.2072 282.42 13.2072Z" fill="#66BE64"/>
<g style="mix-blend-mode:multiply">
<path d="M114.1 121.861C113.265 136.269 113.955 152.468 116.498 170.691C116.498 170.691 270.586 211.944 286.241 85.2188C265.286 106.484 189.959 171.678 114.1 121.861Z" fill="#4CA84E"/>
</g>
</g>
<defs>
<clipPath id="clip0_4884_1090">
<rect width="297" height="495.763" fill="white"/>
</clipPath>
</defs>
</svg>
