<svg width="30" height="33" viewBox="0 0 30 33" fill="none" xmlns="http://www.w3.org/2000/svg">
<g clip-path="url(#clip0_3951_309)">
<path d="M24.0881 10.8884C23.5403 9.32618 22.4628 7.80162 20.9119 7.47506C20.159 7.31696 19.3741 7.46094 18.6533 7.73292C17.2193 8.25496 16.0434 9.31245 15.3726 10.6832C15.0524 10.1071 14.6661 9.5702 14.2217 9.08338C12.508 7.22661 9.95856 6.41539 7.69336 7.20873C6.97321 7.46063 6.3152 7.86349 5.76338 8.39032C5.21155 8.91715 4.77865 9.5558 4.49366 10.2635C3.86219 11.8634 4.03253 13.7211 4.32709 15.4338C4.81551 18.2844 5.44039 20.9863 7.44962 22.876C8.67303 24.025 10.2908 24.6537 11.8511 24.3422C13.322 24.0476 14.6424 22.9362 15.4903 21.4813C15.5533 21.374 15.6089 21.2611 15.6663 21.15C15.8828 21.5858 16.1834 21.9744 16.5509 22.2934C17.4647 23.0463 18.7634 23.1602 19.8654 22.7696C20.9674 22.3791 21.8869 21.5462 22.6105 20.5901C24.6339 17.9117 25.2145 14.0994 24.0881 10.8884Z" fill="#2866B1"/>
<path d="M15.6644 21.1462C15.9778 21.6949 16.3975 22.1937 16.9462 22.4901C17.4944 22.7827 18.1146 22.9133 18.7342 22.8666C19.0406 22.848 19.3434 22.7914 19.6358 22.6981C19.9276 22.6028 20.2084 22.4766 20.4734 22.3217C21.0042 22.0072 21.4837 21.6133 21.8953 21.1538C22.3102 20.6927 22.6764 20.19 22.9879 19.6537L23.1075 19.4542C23.1461 19.3874 23.179 19.3168 23.2147 19.2481C23.2844 19.1097 23.3587 18.9733 23.4246 18.8331L23.6128 18.4067L23.6589 18.3004L23.6994 18.1903L23.7785 17.972L23.8585 17.7536C23.8839 17.6812 23.9036 17.6059 23.9272 17.5315C23.9714 17.3838 24.0213 17.236 24.0608 17.0864L24.17 16.6347L24.1972 16.5217L24.218 16.4069L24.2584 16.1782C24.2867 16.0258 24.3158 15.8733 24.3309 15.719L24.3845 15.2569C24.4015 14.9473 24.4297 14.6386 24.4222 14.3281C24.4325 14.0184 24.4062 13.7088 24.3921 13.3992C24.3553 13.0924 24.3318 12.7828 24.2697 12.4788C24.2255 12.172 24.1436 11.8737 24.073 11.5716C23.9789 11.2771 23.897 10.9778 23.786 10.6908C23.6771 10.4041 23.5514 10.1241 23.4096 9.85225C23.264 9.5827 23.0998 9.32359 22.9183 9.07679C22.5494 8.59402 22.1043 8.163 21.5707 7.89102C21.5029 7.85997 21.4389 7.8195 21.3683 7.79691L21.1594 7.71598C21.0172 7.67128 20.8723 7.63545 20.7256 7.6087C20.427 7.5616 20.1234 7.55495 19.8231 7.58894C19.2088 7.66631 18.6119 7.8467 18.0576 8.12253C17.4925 8.39 16.9745 8.74722 16.5236 9.18032C16.0726 9.62186 15.6881 10.1265 15.3821 10.6785C15.516 10.3903 15.6697 10.1117 15.8423 9.84472C16.0179 9.57849 16.2146 9.32673 16.4305 9.09185C16.8697 8.61985 17.3838 8.22365 17.9522 7.91926C18.5226 7.60567 19.1422 7.39149 19.7845 7.2859C20.113 7.23585 20.4469 7.23236 20.7764 7.27555C20.942 7.30032 21.1057 7.33585 21.2667 7.38189L21.5039 7.46565C21.5838 7.492 21.6563 7.53341 21.7335 7.56635C22.034 7.7116 22.3143 7.89541 22.5673 8.11312C22.8152 8.3309 23.0424 8.57129 23.2458 8.83117C23.4442 9.09188 23.6247 9.36573 23.786 9.65086C23.9431 9.9363 24.0832 10.2307 24.2057 10.5327C24.2641 10.6851 24.3243 10.8366 24.3695 10.9919C24.4146 11.1472 24.4692 11.3006 24.5153 11.4559C24.5916 11.7702 24.6781 12.0836 24.728 12.4035C24.7939 12.7207 24.8221 13.0435 24.8607 13.3653C24.8767 13.6881 24.9068 14.0109 24.8974 14.3347C24.9031 14.6584 24.8729 14.9812 24.8522 15.304L24.793 15.7849C24.777 15.9467 24.745 16.1048 24.7158 16.2639L24.6716 16.502L24.649 16.6215L24.6198 16.7391L24.5031 17.2097C24.4598 17.365 24.409 17.5184 24.3619 17.6727C24.3365 17.7499 24.3158 17.828 24.2866 17.9042L24.2001 18.1301L24.1126 18.3569L24.0693 18.4698L24.0194 18.5799L23.818 19.0213C23.7474 19.1671 23.6665 19.3036 23.5921 19.4504C23.5526 19.5219 23.5168 19.5944 23.4754 19.6631L23.3474 19.8692C23.0135 20.4246 22.6183 20.9407 22.1692 21.4079C21.7216 21.8823 21.2016 22.2829 20.6286 22.5946C20.3393 22.7478 20.0345 22.8702 19.7196 22.9597C19.4038 23.0464 19.0785 23.0932 18.7512 23.099C18.0935 23.1185 17.4443 22.9469 16.8822 22.6049C16.6095 22.4318 16.3675 22.2146 16.166 21.9622C15.9684 21.7101 15.8001 21.4364 15.6644 21.1462V21.1462Z" fill="#231F20"/>
<path d="M15.3707 10.6823C15.1719 10.3513 14.9518 10.0335 14.712 9.73085C14.4751 9.42805 14.2142 9.14481 13.9318 8.88387C13.3757 8.3581 12.7357 7.92872 12.0383 7.6134C11.9536 7.57105 11.8633 7.53906 11.7758 7.50329C11.6883 7.46753 11.5998 7.43177 11.5104 7.40072C11.3288 7.34707 11.1509 7.27837 10.9655 7.24073C10.8714 7.21908 10.7773 7.19556 10.6888 7.17579L10.4065 7.13062C10.3594 7.1231 10.3124 7.11462 10.2663 7.10804L10.1261 7.0958L9.84373 7.07134H9.5614H9.42024L9.27908 7.0798L8.99675 7.09769L8.71442 7.13815L8.57514 7.15791L8.43868 7.18897L8.16483 7.25108L7.89662 7.33578C7.80688 7.36248 7.71861 7.3939 7.63217 7.42989C6.93673 7.70392 6.30645 8.12069 5.78199 8.6533C5.25994 9.18617 4.86406 9.82935 4.62351 10.5355C4.38993 11.2484 4.27516 11.995 4.28378 12.7452C4.29011 13.5069 4.35745 14.2669 4.48517 15.0179C4.73456 16.5349 5.0103 18.0576 5.53355 19.4852C5.78899 20.1984 6.12861 20.8786 6.54522 21.5114C6.96128 22.1402 7.47388 22.6995 8.06413 23.1686C8.65684 23.6366 9.34193 23.9736 10.0743 24.1577C10.8049 24.3446 11.5728 24.3274 12.2943 24.1078C13.0219 23.8733 13.6887 23.4809 14.2471 22.9588C14.5316 22.6994 14.7932 22.416 15.0291 22.1118C15.2678 21.8085 15.4803 21.4855 15.6644 21.1462C15.3347 21.8531 14.8848 22.4973 14.3346 23.0501C13.782 23.6171 13.1088 24.0523 12.3649 24.3234C11.6051 24.5826 10.7886 24.6282 10.0047 24.4551C9.22243 24.2802 8.48687 23.9393 7.84768 23.4557C7.21111 22.9771 6.65786 22.3968 6.21019 21.7382C5.76638 21.0844 5.40182 20.3803 5.12417 19.6405C4.85147 18.9042 4.63133 18.1494 4.46541 17.3819C4.29413 16.6196 4.15391 15.8573 4.02781 15.0875C3.89887 14.3115 3.8331 13.5262 3.83112 12.7395C3.82369 11.9397 3.95094 11.1443 4.20755 10.3868C4.47901 9.62353 4.91905 8.93129 5.49496 8.36157C6.06522 7.7938 6.75207 7.35677 7.50795 7.08075C7.60043 7.0447 7.69466 7.01329 7.79028 6.98664L8.07825 6.90382L8.37187 6.84359L8.51868 6.81442L8.66643 6.79654L8.96381 6.76078L9.26214 6.74948L9.41177 6.74384L9.56046 6.74948L9.85879 6.76266L10.1543 6.79748L10.302 6.81536C10.351 6.82383 10.3961 6.83418 10.4479 6.84359L10.7396 6.901C10.8338 6.92453 10.9279 6.95276 11.022 6.97817C11.2102 7.02428 11.3984 7.10051 11.5866 7.16639C11.6807 7.20121 11.7683 7.24355 11.8595 7.28214C11.9508 7.31875 12.04 7.36021 12.1268 7.40636L12.3884 7.54282C12.4769 7.58705 12.5578 7.64352 12.6425 7.69339C12.7272 7.74327 12.8119 7.7875 12.891 7.85056L13.131 8.01995C13.2128 8.07453 13.2872 8.13853 13.3634 8.1997L13.5911 8.38792L13.8057 8.58743C13.8785 8.65253 13.9479 8.72132 14.0137 8.79353C14.5563 9.3531 15.0135 9.98951 15.3707 10.6823V10.6823Z" fill="#231F20"/>
<path d="M2.4148 6.35892C3.40388 5.35102 4.94821 5.01505 6.34384 5.26915C7.76959 5.5223 9.01277 6.43798 9.88516 7.56446C10.7772 8.69317 11.3711 10.0281 11.6121 11.4464C11.827 12.8288 11.8447 14.2347 11.6648 15.6221C11.6642 15.6276 11.6625 15.633 11.6598 15.638C11.6571 15.6429 11.6535 15.6472 11.6491 15.6507C11.6447 15.6542 11.6397 15.6568 11.6343 15.6584C11.6289 15.6599 11.6233 15.6604 11.6177 15.6597C11.6088 15.6585 11.6005 15.6547 11.594 15.6486C11.5874 15.6425 11.5829 15.6346 11.581 15.6258C11.2855 14.2659 11.1105 12.9098 10.7895 11.6158C10.4686 10.3218 10.1007 9.05232 9.34686 7.96254C8.61092 6.88499 7.54561 5.98626 6.2582 5.67852C4.99621 5.34255 3.51776 5.52136 2.47597 6.42009C2.46763 6.42599 2.45743 6.42868 2.44726 6.42765C2.43709 6.42662 2.42764 6.42195 2.42065 6.41449C2.41365 6.40704 2.40959 6.39731 2.40921 6.3871C2.40883 6.37689 2.41215 6.36688 2.41857 6.35892H2.4148Z" fill="#9CC6E2"/>
<path d="M2.4722 6.4201C2.46429 6.42786 2.45364 6.4322 2.44256 6.4322C2.43147 6.4322 2.42083 6.42786 2.41292 6.4201C2.40503 6.41187 2.40063 6.40091 2.40063 6.38952C2.40063 6.37812 2.40503 6.36716 2.41292 6.35893L2.50702 6.26482L2.60113 6.17071L2.69995 6.08696L2.7997 6.00226L2.90511 5.92509L3.01051 5.84792L3.12061 5.77828C3.41772 5.59472 3.73675 5.44928 4.07017 5.34538C4.74197 5.13916 5.4499 5.07789 6.14715 5.16563C6.84651 5.25708 7.51938 5.49227 8.12344 5.85639C8.72706 6.22014 9.26926 6.67721 9.72987 7.21062C10.191 7.74084 10.5861 8.32515 10.9062 8.95069C11.2305 9.57648 11.4752 10.2404 11.6346 10.927C11.9152 12.3008 11.9891 13.7088 11.8539 15.1045C11.8379 15.2776 11.8191 15.4517 11.7984 15.6249V15.6418C11.7956 15.6649 11.7886 15.6872 11.7777 15.7077C11.7544 15.7484 11.7168 15.7789 11.6723 15.7933C11.6275 15.807 11.5791 15.8028 11.5373 15.7818C11.4954 15.7608 11.4632 15.7245 11.4474 15.6804C11.4435 15.6696 11.4404 15.6586 11.4379 15.6475V15.6315L11.4304 15.5995L11.4172 15.5355L11.3655 15.2795C11.2968 14.9379 11.2347 14.5963 11.1773 14.2547C11.0568 13.5724 10.9429 12.8901 10.8008 12.2163C10.4931 10.8771 10.1552 9.5191 9.46355 8.33992C9.11721 7.75045 8.67804 7.22071 8.16296 6.77113C7.64876 6.31953 7.04344 5.98382 6.38807 5.78675C5.72903 5.58088 5.03262 5.52336 4.34873 5.61829C3.66145 5.71062 3.01252 5.98919 2.4722 6.42386C2.73196 6.19207 3.0243 5.99961 3.33989 5.85262C3.65772 5.7074 3.99303 5.60397 4.33744 5.54489C5.03105 5.42817 5.74187 5.46609 6.41913 5.65594C7.09953 5.84583 7.73094 6.18032 8.27024 6.63655C8.80955 7.09054 9.2725 7.62815 9.64141 8.22887C10.0049 8.83047 10.2934 9.47424 10.5006 10.1459C10.6088 10.4781 10.7048 10.8131 10.7942 11.1491C10.8836 11.485 10.9693 11.8229 11.0446 12.1636C11.1951 12.844 11.3137 13.5281 11.4379 14.2085C11.501 14.5492 11.565 14.889 11.6337 15.2268L11.6873 15.479L11.7015 15.543L11.708 15.5741V15.5901C11.708 15.5901 11.7127 15.607 11.708 15.5901C11.7042 15.5782 11.6981 15.5673 11.69 15.5578C11.6819 15.5483 11.672 15.5406 11.6609 15.535C11.6497 15.5294 11.6376 15.5261 11.6252 15.5252C11.6128 15.5243 11.6003 15.5259 11.5885 15.5298C11.5765 15.5334 11.5653 15.5393 11.5556 15.5472C11.5459 15.5551 11.5379 15.5649 11.5321 15.5759C11.526 15.5867 11.5222 15.5985 11.5208 15.6108V15.5957C11.5405 15.4244 11.5565 15.2541 11.5725 15.0828C11.7136 13.7158 11.6501 12.3355 11.3843 10.9872C11.0707 9.65135 10.448 8.40776 9.56612 7.35648C9.12959 6.83062 8.61324 6.37651 8.03591 6.01073C7.45585 5.64717 6.80715 5.40691 6.13021 5.30491C5.4506 5.19841 4.75611 5.23754 4.09276 5.41973C3.76048 5.51203 3.44114 5.64577 3.14226 5.8178L3.03027 5.8818L2.92299 5.95426L2.8157 6.02673L2.71312 6.10578L2.61148 6.18577L2.51737 6.27235L2.42327 6.35987C2.41528 6.36711 2.4105 6.37722 2.40997 6.38799C2.40944 6.39875 2.4132 6.40929 2.42044 6.41728C2.42768 6.42526 2.4378 6.43005 2.44856 6.43058C2.45933 6.43111 2.46986 6.42734 2.47785 6.4201H2.4722Z" fill="#231F20"/>
<path d="M8.6862 1.50762C9.38992 2.04679 10.021 2.67468 10.5637 3.37568C11.1067 4.08754 11.5658 4.85962 11.932 5.67664C12.2972 6.49727 12.635 7.34613 12.7498 8.23169C12.8807 9.11299 12.8977 10.0074 12.8006 10.8931C12.8001 10.8988 12.7983 10.9043 12.7956 10.9093C12.7929 10.9144 12.7892 10.9188 12.7847 10.9224C12.7802 10.926 12.7751 10.9287 12.7696 10.9303C12.7641 10.9318 12.7583 10.9323 12.7526 10.9317C12.745 10.9309 12.7377 10.928 12.7316 10.9233C12.7254 10.9187 12.7207 10.9125 12.7178 10.9053C12.3649 10.0734 12.1532 9.22642 11.9273 8.39827C11.7014 7.57011 11.5866 6.72783 11.3081 5.92414C10.7467 4.29399 9.83249 2.80781 8.63068 1.57161C8.62387 1.56388 8.62012 1.55393 8.62012 1.54363C8.62012 1.53333 8.62387 1.52338 8.63068 1.51564C8.63749 1.50791 8.64689 1.50293 8.65711 1.50162C8.66732 1.50032 8.67767 1.50278 8.6862 1.50856V1.50762Z" fill="#9CC6E2"/>
<path d="M8.63068 1.57161C8.62387 1.56388 8.62012 1.55393 8.62012 1.54363C8.62012 1.53333 8.62387 1.52338 8.63068 1.51564C8.63749 1.50791 8.64689 1.50293 8.65711 1.50162C8.66733 1.50032 8.67767 1.50278 8.6862 1.50856" stroke="#231F20" stroke-width="3" stroke-linecap="round" stroke-linejoin="round"/>
<path d="M8.6862 1.50761C9.40556 2.02484 10.0528 2.63565 10.6107 3.32391C11.1639 4.01967 11.6338 4.77768 12.0111 5.58252C12.3875 6.38339 12.7253 7.21719 12.8675 8.11123C13.0081 8.99403 13.0375 9.89098 12.955 10.7811L12.9456 10.8648V10.9063C12.9416 10.9346 12.9313 10.9617 12.9153 10.9854C12.8994 11.0092 12.8782 11.029 12.8534 11.0433C12.8286 11.0577 12.8009 11.0662 12.7724 11.0682C12.7438 11.0702 12.7152 11.0657 12.6886 11.0549C12.6616 11.0435 12.638 11.0253 12.6199 11.0022C12.6107 10.991 12.6028 10.9787 12.5964 10.9655L12.5898 10.9505L12.5578 10.8724C12.5155 10.7689 12.475 10.6653 12.4364 10.5609C12.3583 10.351 12.2877 10.1402 12.2209 9.92753C12.0892 9.5031 11.9744 9.07584 11.8624 8.64953C11.6177 7.79596 11.5038 6.91228 11.2507 6.08412C10.9891 5.24874 10.6333 4.44584 10.1901 3.69094C9.97455 3.30862 9.73569 2.93996 9.47483 2.58704C9.21321 2.23508 8.93339 1.89566 8.63538 1.56878C9.27556 2.18071 9.83758 2.86948 10.3086 3.61942C10.7887 4.36841 11.1752 5.17339 11.4596 6.01637C11.5968 6.43985 11.7105 6.87058 11.8003 7.3066C11.8483 7.52116 11.8944 7.73573 11.9489 7.94748C12.0035 8.15922 12.06 8.36814 12.1193 8.58177C12.2369 9.00714 12.3508 9.42875 12.4835 9.84659C12.5494 10.0546 12.6199 10.2616 12.6962 10.4649C12.7348 10.5665 12.7743 10.6672 12.8166 10.7679L12.8477 10.8423V10.847C12.8477 10.847 12.8477 10.8517 12.8477 10.847C12.8442 10.8401 12.8397 10.8338 12.8345 10.8281C12.8251 10.8159 12.8128 10.8063 12.7987 10.7999C12.7838 10.793 12.7674 10.7899 12.751 10.7909C12.7346 10.7919 12.7186 10.7969 12.7046 10.8056C12.6915 10.8137 12.6802 10.8246 12.6717 10.8376C12.6649 10.8495 12.6605 10.8626 12.6585 10.8761V10.8357L12.667 10.7547C12.7506 9.88811 12.7272 9.01449 12.5974 8.15358C12.4769 7.29907 12.1503 6.48032 11.805 5.67663C11.4522 4.87546 11.0129 4.11525 10.495 3.40955C9.97305 2.70318 9.36548 2.06432 8.6862 1.50761V1.50761Z" fill="#231F20"/>
<path d="M8.65892 2.96725C9.4479 2.96725 10.0875 2.32766 10.0875 1.53868C10.0875 0.749701 9.4479 0.110107 8.65892 0.110107C7.86994 0.110107 7.23035 0.749701 7.23035 1.53868C7.23035 2.32766 7.86994 2.96725 8.65892 2.96725Z" fill="#C2DFEF"/>
<path d="M7.23033 1.53962C7.21638 1.34725 7.24199 1.15405 7.30561 0.97196C7.36922 0.789868 7.46947 0.622743 7.60018 0.480901C7.73564 0.334236 7.89912 0.2162 8.08096 0.133766C8.2628 0.0513315 8.45932 0.00616926 8.6589 0.000945731C8.8625 -0.003685 9.06497 0.0322948 9.25451 0.106784C9.44404 0.181272 9.61684 0.292779 9.7628 0.434789C9.91018 0.578487 10.0273 0.750227 10.1073 0.939894C10.1872 1.12956 10.2284 1.33332 10.2284 1.53915C10.2284 1.74499 10.1872 1.94875 10.1073 2.13841C10.0273 2.32808 9.91018 2.49982 9.7628 2.64352C9.61693 2.78566 9.44415 2.89725 9.2546 2.97175C9.06504 3.04624 8.86252 3.08215 8.6589 3.07736C8.45775 3.07219 8.25967 3.02675 8.07637 2.94373C7.89639 2.86029 7.73434 2.74267 7.59924 2.59741C7.4687 2.45549 7.36862 2.28833 7.30517 2.10624C7.24172 1.92415 7.21625 1.73099 7.23033 1.53868C7.2587 1.90731 7.42707 2.2511 7.70087 2.49953C7.96281 2.73858 8.30723 2.86677 8.66173 2.85715C9.00757 2.8464 9.33578 2.70203 9.57741 2.45436C9.81488 2.20869 9.94762 1.88037 9.94762 1.53868C9.94762 1.197 9.81488 0.86868 9.57741 0.623006C9.3363 0.374595 9.00777 0.230082 8.66173 0.220221C8.30717 0.210881 7.96267 0.338634 7.69993 0.576891C7.42635 0.826173 7.25836 1.17057 7.23033 1.53962V1.53962Z" fill="#231F20"/>
<path d="M2.44395 7.64728C3.23293 7.64728 3.87252 7.00769 3.87252 6.21871C3.87252 5.42973 3.23293 4.79014 2.44395 4.79014C1.65497 4.79014 1.01538 5.42973 1.01538 6.21871C1.01538 7.00769 1.65497 7.64728 2.44395 7.64728Z" fill="#C2DFEF"/>
<path d="M1.01549 6.21965C1.00153 6.02727 1.02715 5.83407 1.09076 5.65198C1.15437 5.46989 1.25463 5.30277 1.38533 5.16092C1.52066 5.01409 1.68412 4.89594 1.86599 4.81349C2.04786 4.73105 2.24444 4.68598 2.44406 4.68097C2.64765 4.67634 2.85013 4.71232 3.03966 4.78681C3.2292 4.8613 3.40199 4.9728 3.54796 5.11481C3.6951 5.25864 3.81202 5.43043 3.89184 5.62007C3.97166 5.80972 4.01278 6.01341 4.01278 6.21918C4.01278 6.42494 3.97166 6.62863 3.89184 6.81828C3.81202 7.00792 3.6951 7.17971 3.54796 7.32354C3.40216 7.46585 3.22942 7.57761 3.03986 7.65227C2.8503 7.72693 2.64774 7.76299 2.44406 7.75832C2.2429 7.75315 2.04482 7.70771 1.86153 7.62469C1.68155 7.54125 1.5195 7.42363 1.38439 7.27837C1.25385 7.13645 1.15377 6.96929 1.09032 6.7872C1.02688 6.60512 1.00141 6.41196 1.01549 6.21965C1.04386 6.58827 1.21222 6.93207 1.48603 7.1805C1.74786 7.41963 2.09244 7.54755 2.44688 7.53717C2.79248 7.52741 3.12065 7.38325 3.36162 7.13532C3.60019 6.89022 3.73368 6.56169 3.73368 6.21965C3.73368 5.87761 3.60019 5.54907 3.36162 5.30397C3.12032 5.05571 2.79198 4.91094 2.44594 4.90024C2.09119 4.89077 1.74653 5.01892 1.48415 5.25786C1.21113 5.50706 1.04351 5.85106 1.01549 6.21965V6.21965Z" fill="#231F20"/>
<path d="M26.2705 6.35892C25.2814 5.35102 23.7371 5.01505 22.3415 5.26915C20.9157 5.5223 19.6725 6.43798 18.8011 7.56446C17.9097 8.69327 17.3168 10.0283 17.077 11.4464C16.8625 12.8289 16.8448 14.2347 17.0243 15.6221C17.0258 15.6321 17.0309 15.6412 17.0386 15.6479C17.0462 15.6545 17.0561 15.6581 17.0662 15.6581C17.0763 15.6581 17.0861 15.6545 17.0938 15.6479C17.1015 15.6412 17.1066 15.6321 17.1081 15.6221C17.4045 14.2622 17.5786 12.9061 17.8995 11.6121C18.2204 10.3181 18.5884 9.04855 19.3422 7.95877C20.0781 6.88123 21.1435 5.98249 22.4309 5.67475C23.6929 5.33879 25.1713 5.51759 26.2131 6.41633C26.2214 6.42223 26.2316 6.42491 26.2418 6.42388C26.252 6.42285 26.2614 6.41818 26.2684 6.41073C26.2754 6.40328 26.2795 6.39355 26.2799 6.38333C26.2802 6.37312 26.2769 6.36311 26.2705 6.35516V6.35892Z" fill="#9CC6E2"/>
<path d="M26.2131 6.42009C26.2168 6.42388 26.2213 6.42688 26.2262 6.42893C26.2312 6.43098 26.2364 6.43204 26.2418 6.43204C26.2471 6.43204 26.2524 6.43098 26.2573 6.42893C26.2622 6.42688 26.2667 6.42388 26.2705 6.42009C26.2742 6.4165 26.2772 6.41218 26.2792 6.40742C26.2812 6.40265 26.2823 6.39752 26.2823 6.39233C26.2823 6.38715 26.2812 6.38202 26.2792 6.37725C26.2772 6.37248 26.2742 6.36817 26.2705 6.36457L26.1764 6.27705L26.0823 6.19047L25.9797 6.11048L25.8771 6.03143L25.7698 5.95896L25.6625 5.8865L25.5505 5.82251C25.2517 5.64861 24.932 5.51327 24.5991 5.41972C23.9358 5.23748 23.2413 5.19835 22.5617 5.30491C21.8847 5.40691 21.236 5.64716 20.6559 6.01072C20.0768 6.374 19.5585 6.82625 19.1201 7.35083C18.2361 8.40173 17.6117 9.64577 17.2972 10.9825C17.0314 12.3308 16.968 13.7111 17.109 15.0781C17.125 15.2494 17.1419 15.4197 17.1617 15.591V15.6061C17.1608 15.5937 17.1569 15.5818 17.1504 15.5712C17.1446 15.5603 17.1368 15.5506 17.1272 15.5426C17.1177 15.5347 17.1067 15.5288 17.0949 15.5251C17.083 15.521 17.0705 15.5193 17.0579 15.5201C17.0454 15.5209 17.0332 15.5243 17.022 15.5299C17.0107 15.5355 17.0007 15.5433 16.9926 15.5528C16.9844 15.5623 16.9782 15.5734 16.9744 15.5854C16.9688 15.6042 16.9744 15.591 16.9744 15.5854V15.5694L16.9819 15.5383L16.9951 15.4743L17.0488 15.2221C17.1184 14.8842 17.1824 14.5445 17.2445 14.2038C17.3697 13.5234 17.4882 12.8393 17.6388 12.1589C17.7132 11.8182 17.7988 11.4803 17.8882 11.1444C17.9776 10.8084 18.0764 10.4734 18.1818 10.1412C18.3909 9.4696 18.6813 8.82613 19.0467 8.2251C19.4156 7.62438 19.8785 7.08677 20.4179 6.63278C20.9574 6.17635 21.5891 5.84185 22.2699 5.65217C22.9468 5.4623 23.6574 5.42438 24.3507 5.54112C24.6951 5.6002 25.0304 5.70364 25.3482 5.84886C25.6638 5.99584 25.9561 6.1883 26.2159 6.42009C25.6745 5.98614 25.0245 5.70883 24.3365 5.61829C23.655 5.52511 22.9613 5.58327 22.3047 5.78863C21.6494 5.98569 21.0441 6.32141 20.5298 6.773C20.0153 7.22311 19.5762 7.75276 19.2293 8.3418C18.5376 9.52098 18.1997 10.8827 17.892 12.2181C17.748 12.892 17.6341 13.5742 17.5155 14.2565C17.4553 14.5982 17.3932 14.9398 17.3273 15.2814L17.2756 15.5374L17.2586 15.5938L17.252 15.6258V15.6418C17.2503 15.6531 17.2475 15.6641 17.2436 15.6748C17.2319 15.7078 17.211 15.7367 17.1832 15.7581C17.1555 15.7795 17.1222 15.7925 17.0872 15.7953C17.0523 15.7982 17.0173 15.791 16.9865 15.7744C16.9556 15.7578 16.9302 15.7327 16.9132 15.702C16.902 15.6816 16.8947 15.6593 16.8916 15.6362V15.6192C16.8709 15.4461 16.8511 15.272 16.8361 15.0988C16.7006 13.7032 16.7742 12.2952 17.0544 10.9213C17.2142 10.2349 17.4589 9.57101 17.7828 8.94504C18.102 8.3222 18.4947 7.7399 18.9526 7.21061C19.4141 6.67781 19.9573 6.22166 20.5618 5.85921C21.1658 5.49498 21.8387 5.25979 22.5381 5.16845C23.2354 5.08068 23.9433 5.14195 24.6151 5.3482C24.9485 5.4521 25.2676 5.59754 25.5647 5.7811L25.6757 5.85074L25.7811 5.92791L25.8856 6.00507L25.9853 6.08977L26.0851 6.17353L26.1792 6.26764L26.2733 6.36175C26.2812 6.36998 26.2856 6.38094 26.2856 6.39233C26.2856 6.40373 26.2812 6.41469 26.2733 6.42292C26.2692 6.42672 26.2643 6.42967 26.2591 6.43159C26.2538 6.43351 26.2482 6.43436 26.2426 6.4341C26.237 6.43384 26.2315 6.43246 26.2264 6.43006C26.2214 6.42766 26.2168 6.42427 26.2131 6.42009V6.42009Z" fill="#231F20"/>
<path d="M19.9991 1.50762C19.2954 2.04656 18.6647 2.67448 18.1225 3.37568C17.5792 4.08751 17.1198 4.85959 16.7533 5.67664C16.3881 6.49727 16.0512 7.34613 15.9354 8.23169C15.8056 9.11307 15.7885 10.0074 15.8846 10.8931C15.8852 10.8988 15.8869 10.9043 15.8897 10.9093C15.8924 10.9144 15.8961 10.9188 15.9006 10.9224C15.905 10.926 15.9102 10.9287 15.9157 10.9303C15.9212 10.9318 15.9269 10.9323 15.9326 10.9317C15.9403 10.9309 15.9476 10.928 15.9537 10.9233C15.9598 10.9187 15.9646 10.9125 15.9674 10.9053C16.3204 10.0734 16.5321 9.22642 16.758 8.39827C16.9838 7.57011 17.0986 6.72783 17.3772 5.92414C17.9396 4.29446 18.8536 2.80848 20.0546 1.57161C20.0614 1.56388 20.0652 1.55393 20.0652 1.54363C20.0651 1.53333 20.0614 1.52338 20.0546 1.51564C20.0478 1.50791 20.0384 1.50293 20.0282 1.50162C20.0179 1.50032 20.0076 1.50278 19.9991 1.50856V1.50762Z" fill="#9CC6E2"/>
<path d="M20.0546 1.57161C20.0614 1.56388 20.0651 1.55393 20.0651 1.54363C20.0651 1.53333 20.0614 1.52338 20.0545 1.51564C20.0477 1.50791 20.0383 1.50293 20.0281 1.50162C20.0179 1.50032 20.0076 1.50278 19.999 1.50856" stroke="#231F20" stroke-width="3" stroke-linecap="round" stroke-linejoin="round"/>
<path d="M19.9991 1.50761C19.3178 2.06387 18.708 2.7024 18.1837 3.40861C17.6661 4.11433 17.2271 4.87454 16.8747 5.67569C16.5293 6.47938 16.2018 7.29813 16.0813 8.15264C15.9515 9.01355 15.9281 9.88718 16.0117 10.7538L16.0202 10.8347V10.8752C16.0178 10.8616 16.013 10.8485 16.006 10.8366C15.9975 10.8237 15.9863 10.8128 15.9731 10.8046C15.9597 10.7968 15.9446 10.7922 15.9291 10.7912C15.9136 10.7902 15.898 10.7929 15.8837 10.799C15.8697 10.8053 15.8574 10.815 15.8479 10.8272C15.843 10.8329 15.8389 10.8392 15.8357 10.846C15.8357 10.8517 15.8357 10.846 15.8357 10.846V10.8413L15.8668 10.767C15.9091 10.6663 15.9486 10.5656 15.9872 10.4639C16.0635 10.2607 16.134 10.0536 16.2009 9.84565C16.3335 9.42969 16.4465 9.0062 16.5641 8.58083C16.6234 8.36721 16.6836 8.15922 16.7345 7.94654C16.7853 7.73385 16.8351 7.52022 16.8831 7.30566C16.9733 6.87025 17.0873 6.44015 17.2248 6.01731C17.509 5.17413 17.8959 4.36911 18.3767 3.62036C18.8489 2.87057 19.4126 2.18238 20.0546 1.57161C19.7572 1.89785 19.4774 2.23727 19.2152 2.58987C18.9546 2.94301 18.7158 3.31165 18.4999 3.69376C18.0566 4.44926 17.7008 5.25279 17.4393 6.08883C17.1862 6.91699 17.0723 7.80067 16.8286 8.65424C16.7166 9.08055 16.6018 9.5078 16.4691 9.93223C16.4032 10.1449 16.3317 10.356 16.2545 10.5656C16.2159 10.67 16.1754 10.7736 16.1322 10.8771L16.1002 10.9552L16.0936 10.9703C16.0875 10.9833 16.0799 10.9956 16.071 11.007C16.0426 11.0409 16.0032 11.0637 15.9596 11.0714C15.9161 11.0792 15.8712 11.0713 15.8329 11.0493C15.8078 11.0342 15.7869 11.0132 15.7717 10.9881C15.7571 10.9647 15.7478 10.9384 15.7444 10.911V10.8696L15.736 10.7858C15.6531 9.89572 15.6822 8.99877 15.8225 8.11593C15.9646 7.2219 16.3072 6.3881 16.6789 5.58723C17.0561 4.78239 17.5261 4.02438 18.0793 3.32862C18.6355 2.63901 19.2811 2.02662 19.9991 1.50761V1.50761Z" fill="#231F20"/>
<path d="M20.0273 2.96725C20.8163 2.96725 21.4559 2.32766 21.4559 1.53868C21.4559 0.749701 20.8163 0.110107 20.0273 0.110107C19.2383 0.110107 18.5988 0.749701 18.5988 1.53868C18.5988 2.32766 19.2383 2.96725 20.0273 2.96725Z" fill="#C2DFEF"/>
<path d="M21.455 1.53962C21.4265 1.17077 21.2582 0.826728 20.9844 0.577831C20.7218 0.339405 20.3772 0.211623 20.0226 0.221158C19.6766 0.231019 19.3481 0.375532 19.107 0.623944C18.8695 0.869618 18.7368 1.19794 18.7368 1.53962C18.7368 1.88131 18.8695 2.20963 19.107 2.4553C19.3481 2.70308 19.6761 2.84749 20.0217 2.85809C20.3765 2.86756 20.7211 2.73941 20.9835 2.50047C21.257 2.25181 21.4253 1.90815 21.454 1.53962C21.4681 1.73193 21.4427 1.92509 21.3792 2.10718C21.3158 2.28927 21.2157 2.45643 21.0851 2.59835C20.9478 2.74647 20.782 2.86543 20.5978 2.94817C20.4135 3.0309 20.2144 3.07571 20.0125 3.07992C19.8105 3.08414 19.6098 3.04767 19.4222 2.9727C19.2346 2.89773 19.064 2.78578 18.9206 2.64352C18.7735 2.49969 18.6566 2.3279 18.5767 2.13825C18.4969 1.9486 18.4558 1.74492 18.4558 1.53915C18.4558 1.33339 18.4969 1.1297 18.5767 0.94005C18.6566 0.750401 18.7735 0.578617 18.9206 0.434787C19.0667 0.292863 19.2395 0.181411 19.429 0.106928C19.6185 0.032445 19.821 -0.00358192 20.0245 0.000943737C20.2241 0.00606142 20.4207 0.0511764 20.6025 0.133617C20.7844 0.216058 20.9479 0.33415 21.0833 0.480899C21.2143 0.622587 21.3149 0.789641 21.3788 0.971739C21.4428 1.15384 21.4687 1.34711 21.455 1.53962V1.53962Z" fill="#231F20"/>
<path d="M26.2423 7.64728C27.0313 7.64728 27.6709 7.00769 27.6709 6.21871C27.6709 5.42973 27.0313 4.79014 26.2423 4.79014C25.4533 4.79014 24.8137 5.42973 24.8137 6.21871C24.8137 7.00769 25.4533 7.64728 26.2423 7.64728Z" fill="#C2DFEF"/>
<path d="M27.6698 6.21965C27.6413 5.85079 27.473 5.50676 27.1993 5.25786C26.9372 5.01898 26.5929 4.89082 26.2384 4.90024C25.8921 4.9107 25.5633 5.05549 25.3218 5.30397C25.0843 5.54965 24.9516 5.87797 24.9516 6.21965C24.9516 6.56133 25.0843 6.88965 25.3218 7.13533C25.5632 7.38323 25.8916 7.52736 26.2375 7.53717C26.5919 7.54735 26.9364 7.41947 27.1983 7.1805C27.4718 6.93184 27.6401 6.58817 27.6689 6.21965C27.683 6.41196 27.6575 6.60512 27.594 6.78721C27.5306 6.9693 27.4305 7.13646 27.3 7.27837C27.1626 7.42649 26.9969 7.54546 26.8126 7.62819C26.6283 7.71093 26.4293 7.75574 26.2273 7.75995C26.0253 7.76416 25.8246 7.7277 25.637 7.65273C25.4495 7.57775 25.2789 7.4658 25.1355 7.32355C24.9883 7.17971 24.8714 7.00793 24.7916 6.81828C24.7118 6.62863 24.6707 6.42494 24.6707 6.21918C24.6707 6.01342 24.7118 5.80973 24.7916 5.62008C24.8714 5.43043 24.9883 5.25864 25.1355 5.11481C25.2815 4.97187 25.4547 4.85953 25.6447 4.78438C25.8347 4.70924 26.0379 4.6728 26.2422 4.67721C26.4418 4.68222 26.6384 4.72729 26.8203 4.80973C27.0021 4.89218 27.1656 5.01033 27.3009 5.15716C27.4319 5.29953 27.5323 5.4673 27.5957 5.65008C27.6592 5.83285 27.6844 6.02672 27.6698 6.21965V6.21965Z" fill="#231F20"/>
<path d="M20.4546 1.75701C20.7966 1.75701 21.0738 1.47977 21.0738 1.13778C21.0738 0.795781 20.7966 0.518539 20.4546 0.518539C20.1126 0.518539 19.8353 0.795781 19.8353 1.13778C19.8353 1.47977 20.1126 1.75701 20.4546 1.75701Z" fill="white"/>
<path d="M26.8614 6.83418C27.2034 6.83418 27.4807 6.55693 27.4807 6.21494C27.4807 5.87294 27.2034 5.5957 26.8614 5.5957C26.5194 5.5957 26.2422 5.87294 26.2422 6.21494C26.2422 6.55693 26.5194 6.83418 26.8614 6.83418Z" fill="white"/>
<path d="M12.0035 7.0638C12.9042 6.09825 14.0815 5.52418 15.4705 6.08884C17.2699 6.82006 17.9945 9.24524 18.5987 10.8987C19.4457 13.2025 20.3745 15.6776 19.9219 18.1724C19.4381 20.8385 16.3363 22.7837 13.7182 22.2031C11.7796 21.7702 10.5401 19.8391 10.0611 18.0745C9.12099 14.6057 9.39861 9.85319 12.0035 7.0638Z" fill="#69A9DC"/>
<path d="M13.7182 22.2003L13.3917 22.1278C13.2844 22.1005 13.1799 22.061 13.0726 22.0271C12.8621 21.9488 12.6587 21.8525 12.4647 21.7391C12.0757 21.5079 11.7215 21.2228 11.4126 20.8921C11.1042 20.5598 10.8322 20.1954 10.6013 19.8052C10.3722 19.4138 10.1797 19.002 10.0263 18.5752C9.8758 18.1494 9.75413 17.7139 9.66214 17.2718C9.56803 16.8323 9.49274 16.3881 9.43816 15.942C9.33278 15.0476 9.3101 14.1454 9.3704 13.2468C9.43099 12.3456 9.58876 11.4536 9.84094 10.5863C10.0933 9.71513 10.4709 8.88521 10.9618 8.12253C11.209 7.74314 11.4896 7.38662 11.8003 7.05722C12.1099 6.72107 12.4668 6.43193 12.86 6.19895C13.0604 6.08797 13.2713 5.99688 13.4895 5.92697C13.5432 5.90815 13.6006 5.8978 13.6552 5.88274C13.7103 5.86758 13.7662 5.85564 13.8227 5.84698C13.8792 5.83851 13.9356 5.82816 13.9921 5.82063L14.1624 5.81028C14.6146 5.79575 15.0635 5.89135 15.4705 6.08884C15.2616 6.01784 15.0459 5.96864 14.8268 5.94203C14.611 5.9138 14.3924 5.9138 14.1765 5.94203C13.9629 5.96963 13.7534 6.02304 13.5526 6.10107C13.3551 6.1814 13.1659 6.28101 12.9879 6.39846C12.631 6.64003 12.3108 6.93196 12.0374 7.2652C11.7559 7.5953 11.5022 7.94816 11.2789 8.32016C10.8391 9.06917 10.5017 9.87375 10.2757 10.7124C10.1591 11.1312 10.0648 11.5559 9.9934 11.9848C9.92282 12.4139 9.87388 12.8477 9.84471 13.2825C9.78149 14.1531 9.79503 15.0277 9.88518 15.8959C9.92784 16.3307 9.99058 16.763 10.0734 17.1927C10.1531 17.6205 10.2558 18.0437 10.3811 18.4604C10.6365 19.2914 11.0482 20.066 11.5942 20.7425C12.1379 21.4327 12.8787 21.9412 13.7182 22.2003V22.2003Z" fill="#231F20"/>
<path d="M15.4705 6.08884L15.783 6.21965C15.8837 6.26953 15.9796 6.32976 16.0794 6.38434C16.1792 6.43892 16.2676 6.51703 16.357 6.58291C16.4034 6.61652 16.4475 6.65331 16.4888 6.69302L16.6158 6.80783C16.9424 7.12778 17.227 7.48797 17.4628 7.87973C17.9418 8.65801 18.2768 9.50969 18.5921 10.3491C18.9074 11.1886 19.2405 12.0252 19.5332 12.8835C19.6772 13.3136 19.8061 13.7493 19.9162 14.1916C19.9746 14.4118 20.0197 14.6367 20.0687 14.8598C20.1176 15.0828 20.1553 15.3087 20.1825 15.5374C20.3153 16.4538 20.2952 17.3858 20.1233 18.2957C20.0739 18.5269 20.0062 18.7538 19.9209 18.9742C19.8348 19.1931 19.7329 19.4054 19.616 19.6094C19.3833 20.0131 19.0968 20.3832 18.7643 20.7096C18.1037 21.3608 17.2971 21.8448 16.4116 22.1212C15.5408 22.4055 14.6066 22.4339 13.7201 22.2031C14.6034 22.3358 15.5061 22.2323 16.3363 21.9029C17.1572 21.5893 17.897 21.0949 18.5008 20.4564C19.0871 19.8193 19.536 19.0448 19.6894 18.2072C19.8406 17.3457 19.8508 16.4652 19.7195 15.6004C19.696 15.3821 19.6508 15.1666 19.6151 14.9492C19.5793 14.7318 19.5285 14.5163 19.473 14.3017C19.3713 13.8716 19.2433 13.4453 19.1125 13.0199C18.8528 12.1673 18.5366 11.326 18.2543 10.4724C18.1122 10.0461 17.9653 9.62544 17.8082 9.20854C17.6549 8.79203 17.4741 8.38616 17.2671 7.9936C17.0644 7.60021 16.8154 7.23246 16.5255 6.89817C16.2316 6.56043 15.8728 6.28521 15.4705 6.08884V6.08884Z" fill="#231F20"/>
<g style="mix-blend-mode:multiply" opacity="0.5">
<path d="M18.5987 10.8959C18.4378 10.4555 18.2674 9.96047 18.0717 9.45699C16.229 10.6465 14.3318 13.0199 13.8631 14.0834C13.0039 12.5776 11.134 11.4483 9.99432 10.8677C9.36191 13.243 9.47484 15.9072 10.0611 18.0717C10.5401 19.8362 11.7796 21.7674 13.7182 22.2003C16.3363 22.7847 19.4381 20.8357 19.9218 18.1696C20.3745 15.6748 19.4428 13.1997 18.5987 10.8959Z" fill="#69A9DC"/>
</g>
<path opacity="0.47" d="M14.3929 6.39375L16.2732 7.21344L17.779 9.65556L18.1018 12.3772L16.2732 14.313L14.3929 6.39375Z" fill="#C2DFEF"/>
<path opacity="0.47" d="M12.6529 6.90476L14.393 6.39375L12.8637 10.1816V16.1971L9.67346 13.643L11.1209 9.15961L12.6529 6.90476Z" fill="#C2DFEF"/>
<path opacity="0.79" d="M12.8638 16.4239L14.1869 20.255L16.2733 14.313L14.393 6.39375L12.8638 10.1816V16.4239Z" fill="#C2DFEF"/>
<path d="M26.1472 16.3683C25.8555 13.8999 24.5925 11.2479 22.2106 10.5336C20.0377 9.88237 17.6548 11.1331 16.2978 12.9513C14.9407 14.7694 14.3874 17.0469 13.8792 19.2565C14.4805 16.6328 11.3138 12.2454 8.80954 11.9104C7.45155 11.7288 5.9571 11.9104 4.93225 12.8233C1.8596 15.5524 3.17148 20.799 4.79485 23.6458C5.40939 24.7243 6.10673 25.7717 7.01582 26.6159C9.13515 28.5827 12.4591 29.3638 14.9125 29.2377C18.771 29.0401 22.5494 26.6027 24.7139 23.0077C25.9691 21.035 26.4775 18.6784 26.1472 16.3636V16.3683Z" fill="#69A9DC"/>
<path d="M14.9124 29.2396C15.7416 29.1665 16.56 29.0014 17.3527 28.7474C18.1425 28.4975 18.9032 28.1634 19.6216 27.7508C20.3387 27.343 21.0169 26.8705 21.6478 26.3392C22.2758 25.803 22.8541 25.2111 23.3756 24.5709L23.5638 24.3299C23.6288 24.2509 23.6937 24.1709 23.7521 24.0853L24.1097 23.5827C24.328 23.2355 24.5576 22.8938 24.7524 22.5325C25.1493 21.8184 25.4613 21.0604 25.6822 20.2738C25.8952 19.4873 26.0025 18.6758 26.0013 17.8609C26.0054 17.0437 25.9195 16.2285 25.7453 15.4301C25.5737 14.6354 25.2885 13.8696 24.8983 13.1564C24.7057 12.8023 24.4794 12.4676 24.2226 12.157C24.0928 12.0056 23.9546 11.8617 23.8085 11.7259L23.6994 11.6234L23.6448 11.5726L23.5855 11.5274L23.3502 11.3392C23.3116 11.3083 23.2707 11.2803 23.2279 11.2554L23.1027 11.1754C23.0207 11.1199 22.9348 11.0702 22.8458 11.0267L22.5795 10.895C22.4854 10.8564 22.3913 10.8263 22.3018 10.7905L22.1626 10.7387C22.1155 10.7237 22.0685 10.7143 22.0195 10.702C21.9254 10.6785 21.8313 10.6503 21.7316 10.6324L21.437 10.5891L21.3636 10.5788H21.2892L21.1405 10.5722L20.9919 10.5646C20.942 10.5646 20.8921 10.5646 20.8422 10.5703C20.7434 10.5759 20.6436 10.5759 20.5439 10.5872L20.2475 10.6277C20.1477 10.6381 20.0517 10.6682 19.9529 10.687L19.8061 10.719C19.7571 10.7312 19.712 10.7472 19.6612 10.7613C19.567 10.7914 19.4729 10.8169 19.3732 10.8554L19.0909 10.9637C18.9967 10.9975 18.9026 11.0474 18.8151 11.0888C18.6269 11.1688 18.4566 11.2771 18.2787 11.3712C18.1093 11.4831 17.9343 11.5867 17.7743 11.7128C17.6143 11.8389 17.4543 11.964 17.2981 12.0949C17.2219 12.1617 17.1503 12.2351 17.076 12.3038L16.964 12.4092L16.8605 12.5212C16.5784 12.8175 16.323 13.138 16.0973 13.4792C15.867 13.8209 15.6589 14.1771 15.4743 14.5454C15.1051 15.2879 14.7973 16.0594 14.5539 16.8521C14.3026 17.6454 14.089 18.4519 13.8782 19.2594C13.96 18.85 14.0429 18.4416 14.1323 18.0359C14.2217 17.6303 14.3205 17.2228 14.4287 16.8182C14.6405 16.0058 14.9207 15.2127 15.2663 14.4476C15.4438 14.0641 15.6459 13.6925 15.8714 13.3352C16.096 12.9742 16.3514 12.6332 16.6346 12.316L16.74 12.1956L16.852 12.0826C16.9282 12.0073 17.0016 11.9292 17.0807 11.8577C17.2407 11.7165 17.3978 11.5754 17.5701 11.4455C17.7423 11.3156 17.9173 11.1961 18.0933 11.0747C18.2815 10.9674 18.4594 10.8507 18.658 10.7604C18.7521 10.7152 18.8462 10.6597 18.9497 10.6221L19.248 10.4988C19.3487 10.4602 19.4522 10.4301 19.5548 10.3962C19.6056 10.3793 19.6574 10.3614 19.7091 10.3463L19.8663 10.3087C19.9727 10.2851 20.0762 10.2531 20.1844 10.239L20.5063 10.191C20.6145 10.1779 20.7236 10.176 20.8319 10.1685C20.8864 10.1685 20.941 10.16 20.9956 10.16L21.1594 10.1656L21.3231 10.1713H21.405L21.4859 10.1816L21.8115 10.2249C21.9198 10.2437 22.0252 10.2729 22.1324 10.2974C22.1851 10.3106 22.2388 10.3209 22.2915 10.3369L22.4468 10.3915C22.5494 10.4291 22.6538 10.4621 22.7554 10.5035L23.0519 10.6456C23.1498 10.6923 23.2441 10.7461 23.3342 10.8065L23.4744 10.8921C23.5216 10.9206 23.5668 10.9521 23.61 10.9863L23.8716 11.1848L23.9365 11.2347L23.9967 11.2902L24.1163 11.4003C24.2765 11.5482 24.4279 11.7053 24.5699 11.8709C24.8481 12.2013 25.094 12.5577 25.3039 12.9352C25.7187 13.6861 26.0224 14.4932 26.2055 15.3313C26.3838 16.1647 26.47 17.0152 26.4624 17.8675C26.4611 18.7215 26.343 19.5713 26.1114 20.3934C25.8716 21.2108 25.5368 21.9972 25.1138 22.7367C24.9068 23.1065 24.6677 23.4566 24.4353 23.8095L24.0589 24.3186C23.9977 24.4052 23.929 24.4852 23.8612 24.5662L23.658 24.8052C23.5893 24.8861 23.5234 24.968 23.4528 25.047L23.2363 25.2776C23.0895 25.4301 22.954 25.5891 22.794 25.7312C22.6341 25.8733 22.4891 26.023 22.332 26.1641L21.8473 26.5707C21.1875 27.0956 20.4805 27.5584 19.7355 27.9531C18.9908 28.3443 18.2052 28.6523 17.3931 28.8716C16.5838 29.0926 15.751 29.2162 14.9124 29.2396Z" fill="#231F20"/>
<path d="M13.8792 19.2584C13.9469 18.8733 13.9498 18.4795 13.8877 18.0934C13.8296 17.7079 13.7318 17.3294 13.5959 16.9641C13.3239 16.2361 12.9558 15.5477 12.5014 14.9172C12.06 14.2839 11.5398 13.7093 10.9533 13.2072C10.6631 12.9602 10.3513 12.7398 10.0217 12.5485C9.70033 12.357 9.35105 12.217 8.98647 12.1335C8.80201 12.0996 8.61563 12.0773 8.42841 12.0666C8.33367 12.0591 8.23956 12.0544 8.14608 12.0525C8.05197 12.0478 7.95786 12.0525 7.86375 12.0525C7.48551 12.0551 7.10857 12.0973 6.73915 12.1786C6.37543 12.2595 6.02435 12.3893 5.69549 12.5645C5.61455 12.6087 5.53738 12.6586 5.45833 12.7066C5.37928 12.7546 5.30682 12.8101 5.23623 12.8684C5.09318 12.9869 4.95623 13.1125 4.82592 13.2449C4.56876 13.5178 4.34072 13.8168 4.14551 14.137C3.95168 14.4591 3.79388 14.8015 3.67497 15.1581C3.55148 15.5159 3.46199 15.8846 3.4077 16.2592C3.35168 16.6356 3.32244 17.0155 3.32018 17.396C3.31768 17.7788 3.3359 18.1614 3.37476 18.5423C3.41711 18.9234 3.47828 19.3036 3.55451 19.681C3.71334 20.4355 3.93366 21.1758 4.21327 21.8944C4.35255 22.2548 4.50407 22.6096 4.67441 22.955C4.84474 23.3004 5.03014 23.6382 5.22682 23.9733C5.61248 24.6426 6.05485 25.2777 6.54905 25.8715C7.54472 27.0431 8.88766 27.8873 10.3398 28.4321C11.0683 28.7065 11.8206 28.9128 12.5871 29.0486C12.7753 29.0815 12.971 29.1173 13.1658 29.1427L13.4557 29.1803L13.7474 29.2067C14.1373 29.2416 14.5287 29.2564 14.92 29.2509C14.1355 29.3086 13.3471 29.2853 12.5673 29.1813C11.7836 29.0796 11.0115 28.9028 10.2616 28.6533C9.50472 28.3984 8.7792 28.0584 8.09903 27.6398C7.93151 27.5325 7.75929 27.4308 7.60119 27.3075L7.36027 27.1306C7.27934 27.0704 7.20593 27.0026 7.12876 26.9424L6.89914 26.7485C6.82667 26.6798 6.75139 26.613 6.68081 26.5424C6.53682 26.4032 6.39848 26.2601 6.26579 26.1095C5.7399 25.5121 5.27137 24.8665 4.86639 24.1813C4.66123 23.8443 4.46172 23.499 4.28197 23.1461C4.10222 22.7931 3.94036 22.4271 3.79166 22.0582C3.49551 21.3183 3.26316 20.5545 3.09714 19.7751C3.01495 19.3848 2.95221 18.9905 2.90892 18.5921C2.86574 18.1936 2.8447 17.7931 2.84587 17.3922C2.85014 16.9889 2.88316 16.5863 2.94468 16.1877C3.00541 15.7864 3.10307 15.3917 3.23642 15.0085C3.36673 14.6215 3.53871 14.2497 3.74932 13.8999C3.96371 13.5508 4.21622 13.2267 4.50219 12.9334C4.64826 12.7883 4.80187 12.651 4.96238 12.5221C5.04425 12.4572 5.13271 12.4017 5.21741 12.3414C5.30211 12.2812 5.39528 12.2332 5.48656 12.1852C5.85271 11.9957 6.24314 11.8573 6.64692 11.774C7.04461 11.6913 7.45006 11.6518 7.85622 11.6563C7.95692 11.6563 8.05762 11.6563 8.15831 11.6657C8.25901 11.6751 8.35971 11.677 8.45946 11.6874C8.66309 11.7045 8.86548 11.7341 9.06552 11.7758C9.4647 11.8759 9.84574 12.0379 10.1948 12.2558C10.5382 12.4652 10.8606 12.7073 11.1576 12.9785C11.7454 13.5158 12.2619 14.1262 12.6944 14.7948C13.1323 15.4558 13.4777 16.1736 13.7211 16.9283C13.8409 17.3054 13.921 17.694 13.9601 18.0877C13.9985 18.4797 13.9712 18.8754 13.8792 19.2584V19.2584Z" fill="#231F20"/>
<path d="M21.9565 13.3522C22.1215 14.6745 22.1804 16.0078 22.1325 17.3395C22.0824 18.6777 21.9142 20.0089 21.6299 21.3175C21.4839 21.9754 21.3039 22.6253 21.0907 23.2646C20.8653 23.905 20.5818 24.5233 20.2437 25.112C19.8953 25.6954 19.4906 26.2432 19.0354 26.7476C18.5745 27.2414 18.0538 27.6757 17.4854 28.0407C17.4788 28.045 17.4707 28.0465 17.4629 28.0449C17.4552 28.0433 17.4484 28.0387 17.444 28.0322C17.4399 28.0268 17.4376 28.0202 17.4376 28.0134C17.4376 28.0066 17.4399 27.9999 17.444 27.9945C17.8962 27.5174 18.3183 27.0127 18.7079 26.4832C19.0805 25.9522 19.4191 25.398 19.7214 24.824C20.3039 23.6712 20.8244 22.4713 21.1632 21.2036C21.4989 19.9314 21.7222 18.6321 21.8304 17.3207C21.9562 16.0038 21.9766 14.6789 21.8916 13.3587C21.891 13.3548 21.8913 13.3509 21.8924 13.3471C21.8934 13.3433 21.8952 13.3397 21.8977 13.3366C21.9002 13.3336 21.9032 13.331 21.9067 13.3292C21.9102 13.3273 21.914 13.3262 21.9179 13.3258C21.9222 13.3247 21.9267 13.3245 21.931 13.3253C21.9354 13.3261 21.9395 13.3277 21.9432 13.3302C21.9468 13.3327 21.9499 13.336 21.9522 13.3398C21.9545 13.3435 21.956 13.3478 21.9565 13.3522V13.3522Z" fill="#2866B1"/>
<path d="M24.6856 16.8238C24.6888 17.7161 24.6135 18.607 24.4607 19.4862C24.3009 20.3687 24.0674 21.2363 23.7624 22.0798C23.4622 22.9268 23.0971 23.7738 22.5625 24.5059L22.1466 25.0452C21.9913 25.2108 21.836 25.3764 21.676 25.5355C21.5951 25.6155 21.5179 25.6964 21.4351 25.7736L21.1688 25.9853C20.9853 26.1199 20.8102 26.2601 20.623 26.3843C20.6171 26.3883 20.6101 26.39 20.6031 26.3893C20.5961 26.3886 20.5896 26.3854 20.5846 26.3804C20.5797 26.3754 20.5767 26.3688 20.5761 26.3617C20.5756 26.3547 20.5775 26.3477 20.5816 26.342V26.342C21.0991 25.6042 21.6393 24.9304 22.0685 24.1775C22.5032 23.4359 22.9823 22.7094 23.322 21.9038C23.6732 21.1024 23.9566 20.2729 24.169 19.4241C24.3963 18.5726 24.5484 17.7028 24.6235 16.8248V16.8248C24.6242 16.8169 24.628 16.8097 24.634 16.8046C24.6399 16.7995 24.6477 16.797 24.6555 16.7975C24.6628 16.7976 24.6699 16.8003 24.6754 16.8052C24.6809 16.81 24.6845 16.8166 24.6856 16.8238V16.8238Z" fill="#2866B1"/>
<path d="M17.9174 17.0055C18.1261 17.8728 18.2587 18.7567 18.3136 19.6471C18.3617 20.543 18.3349 21.4415 18.2336 22.333C18.1395 23.2261 17.9767 24.1304 17.6256 24.968L17.3433 25.5882C17.2304 25.7858 17.1184 25.9834 16.9979 26.1754C16.9377 26.2695 16.8812 26.3636 16.8182 26.4577L16.6083 26.725C16.4606 26.8982 16.326 27.076 16.1688 27.2389C16.1632 27.2444 16.1556 27.2476 16.1477 27.2476C16.1397 27.2476 16.1321 27.2444 16.1265 27.2389C16.1222 27.2347 16.1192 27.2293 16.1178 27.2235C16.1165 27.2177 16.1169 27.2115 16.119 27.2059V27.2059C16.4521 26.3683 16.8229 25.5919 17.0657 24.7591C17.3085 23.9262 17.6153 23.1188 17.7602 22.2567C17.9163 21.3976 18.0004 20.5269 18.0115 19.6537C18.0363 18.7724 17.9837 17.8907 17.8543 17.0186C17.8535 17.0108 17.8556 17.003 17.8604 16.9967C17.8651 16.9904 17.872 16.9861 17.8797 16.9848C17.8836 16.9835 17.8876 16.983 17.8916 16.9833C17.8957 16.9837 17.8996 16.9849 17.9031 16.9868C17.9066 16.9888 17.9097 16.9914 17.9122 16.9947C17.9146 16.9979 17.9164 17.0015 17.9174 17.0055V17.0055Z" fill="#2866B1"/>
<path d="M7.65952 13.3522C7.49448 14.6745 7.43563 16.0078 7.48353 17.3395C7.53411 18.6777 7.70227 20.0088 7.98608 21.3175C8.13255 21.9753 8.31253 22.6252 8.52532 23.2646C8.75067 23.905 9.03418 24.5233 9.3723 25.112C9.71953 25.6952 10.123 26.243 10.5769 26.7476C11.0374 27.2414 11.5578 27.6757 12.1259 28.0407C12.1326 28.045 12.1406 28.0465 12.1484 28.0449C12.1561 28.0433 12.1629 28.0387 12.1673 28.0322C12.1715 28.0268 12.1737 28.0202 12.1737 28.0134C12.1737 28.0066 12.1715 28 12.1673 27.9945C11.7151 27.5174 11.293 27.0127 10.9034 26.4832C10.5308 25.9522 10.1922 25.398 9.8899 24.824C9.30736 23.6712 8.78694 22.4713 8.44909 21.2037C8.11288 19.9315 7.8896 18.6321 7.78186 17.3207C7.6553 16.0038 7.63453 14.6789 7.71975 13.3587C7.72028 13.3549 7.72003 13.351 7.71904 13.3473C7.71804 13.3435 7.71631 13.34 7.71394 13.337C7.71158 13.3339 7.70863 13.3313 7.70526 13.3294C7.7019 13.3275 7.69818 13.3263 7.69434 13.3258C7.68628 13.325 7.6782 13.3272 7.67174 13.3321C7.66527 13.337 7.6609 13.3442 7.65952 13.3522V13.3522Z" fill="#2866B1"/>
<path d="M4.93041 16.8238C4.92697 17.7161 5.00192 18.607 5.15439 19.4862C5.31404 20.3689 5.54795 21.2365 5.85362 22.0798C6.15288 22.9268 6.51803 23.7738 7.05351 24.5059L7.46853 25.0452C7.6238 25.2108 7.77908 25.3764 7.93907 25.5355C8.02 25.6155 8.09717 25.6964 8.17999 25.7736L8.44631 25.9853C8.63453 26.1199 8.80487 26.2601 8.99215 26.3843C8.99799 26.3883 9.00502 26.39 9.01202 26.3893C9.01903 26.3886 9.02555 26.3854 9.03047 26.3804C9.03539 26.3754 9.0384 26.3688 9.03896 26.3618C9.03952 26.3547 9.03761 26.3477 9.03356 26.342C8.51596 25.6042 7.97577 24.9304 7.54758 24.1775C7.11185 23.4359 6.63284 22.7094 6.29405 21.9038C5.94281 21.1024 5.65949 20.2729 5.44707 19.4241C5.21978 18.5726 5.06768 17.7028 4.99252 16.8248V16.8248C4.99158 16.817 4.98777 16.8099 4.98185 16.8049C4.97592 16.7998 4.96831 16.7972 4.96053 16.7975C4.95309 16.7972 4.94584 16.7998 4.94024 16.8047C4.93464 16.8096 4.93113 16.8164 4.93041 16.8238V16.8238Z" fill="#2866B1"/>
<path d="M11.6996 17.0055C11.4908 17.8728 11.3582 18.7567 11.3034 19.6471C11.2551 20.5431 11.2822 21.4415 11.3843 22.333C11.4784 23.226 11.6403 24.1304 11.9913 24.968L12.2736 25.5882C12.3865 25.7858 12.4995 25.9834 12.619 26.1754C12.6792 26.2695 12.7366 26.3636 12.7987 26.4577L13.0095 26.725C13.1573 26.8982 13.2919 27.076 13.4481 27.2388C13.4537 27.2444 13.4613 27.2475 13.4693 27.2475C13.4772 27.2475 13.4848 27.2444 13.4904 27.2388C13.495 27.2348 13.4981 27.2295 13.4995 27.2236C13.5008 27.2177 13.5003 27.2115 13.498 27.2059V27.2059C13.1648 26.3683 12.794 25.5919 12.5569 24.7591C12.3197 23.9262 12.0063 23.1188 11.8614 22.2567C11.7044 21.3958 11.6197 20.5231 11.6083 19.648C11.5833 18.7667 11.6362 17.885 11.7664 17.013V17.013C11.7675 17.0051 11.7654 16.9972 11.7606 16.9908C11.7559 16.9845 11.7488 16.9803 11.741 16.9791C11.7365 16.9771 11.7316 16.9762 11.7268 16.9765C11.7219 16.9768 11.7172 16.9784 11.7131 16.981C11.7089 16.9836 11.7055 16.9872 11.7032 16.9915C11.7008 16.9958 11.6996 17.0006 11.6996 17.0055V17.0055Z" fill="#2866B1"/>
<g style="mix-blend-mode:multiply" opacity="0.5">
<path d="M24.714 23.0124C25.3402 22.0001 25.7902 20.8889 26.0447 19.7261C26.2144 18.8616 26.2701 17.9786 26.2103 17.0996C23.7531 20.3717 18.5254 22.7348 17.7603 22.2643C16.8935 20.6475 14.3582 20.1844 14.3582 20.1844C12.9777 19.7478 11.6771 21.0135 10.0876 22.3057C7.13821 22.5438 4.89654 21.3825 3.44067 20.2353C3.73923 21.4282 4.19461 22.5763 4.7949 23.6495C5.40943 24.728 6.10678 25.7755 7.01587 26.6196C9.1352 28.5865 12.4591 29.3676 14.9125 29.2415C18.7691 29.0448 22.5495 26.6046 24.714 23.0124Z" fill="#69A9DC"/>
</g>
<path opacity="0.79" d="M20.9232 10.9317L23.4359 12.1109L23.9187 16.9829L22.6303 23.2345L20.7688 25.9298H18.1018L20.2014 19.8071L20.9232 10.9317Z" fill="#C2DFEF"/>
<path opacity="0.47" d="M23.4359 12.1109L24.3723 12.6501L25.7633 16.9829L25.5073 19.8071L24.473 25.1637L22.6304 23.2345L23.9187 16.9829L23.4359 12.1109Z" fill="#C2DFEF"/>
<path opacity="0.47" d="M19.265 11.2949L16.2733 14.313L14.569 19.1671L13.8735 20.8225V24.9849L18.1018 25.9298L20.2014 19.8071L20.9232 10.9317L19.265 11.2949Z" fill="#C2DFEF"/>
<path d="M20.0733 23.1225C21.7485 22.4873 23.545 22.2577 25.2842 21.8314C27.0233 21.405 28.7822 20.7331 29.9999 19.4193C29.7807 22.0544 28.2119 24.4532 26.1415 26.0917C24.0711 27.7301 21.5236 28.6749 18.9525 29.2716C17.9606 29.5012 16.6939 29.5756 16.1556 28.7069C14.6866 26.3523 18.3521 23.7813 20.0733 23.1225Z" fill="#48BEA2"/>
<path d="M16.1519 28.7107C16.102 28.6298 16.0456 28.5507 16.0004 28.4651C15.9542 28.3797 15.9137 28.2913 15.879 28.2006L15.8301 28.0623C15.8169 28.0152 15.8075 27.9682 15.7962 27.9192C15.774 27.8229 15.7589 27.7251 15.751 27.6266C15.7302 27.2286 15.8004 26.8311 15.9562 26.4643C16.2696 25.7312 16.7928 25.1176 17.3678 24.5897C17.6567 24.3255 17.9629 24.0809 18.2844 23.8575C18.6054 23.6323 18.9391 23.4259 19.2839 23.2392C19.457 23.1451 19.6358 23.0604 19.8184 22.9814C20.001 22.9023 20.1864 22.8383 20.3708 22.7724C20.7388 22.6435 21.1124 22.5343 21.4879 22.4337C22.2408 22.2454 22.9936 22.0911 23.7465 21.9433C24.4994 21.7956 25.2447 21.646 25.9778 21.4549C26.3448 21.3608 26.7072 21.246 27.0638 21.1208C27.4214 20.997 27.7718 20.8531 28.1131 20.6898C28.8019 20.3652 29.4367 19.9367 29.9953 19.4193C29.4957 20.0136 28.8932 20.5131 28.2167 20.894C27.5391 21.2729 26.8229 21.5783 26.0804 21.805C25.3416 22.0431 24.585 22.2078 23.8368 22.3762C23.0887 22.5447 22.3377 22.6906 21.6055 22.8863C21.2385 22.9804 20.8752 23.083 20.5186 23.2044C20.3416 23.2656 20.161 23.3286 19.9934 23.3973C19.8259 23.466 19.6546 23.5479 19.4871 23.6307C18.8167 23.9715 18.1856 24.3846 17.605 24.8626C17.3165 25.1019 17.0466 25.3627 16.7975 25.6428C16.5481 25.9192 16.335 26.2263 16.1632 26.5566C15.9917 26.8862 15.8953 27.2496 15.8809 27.6209C15.878 28.0012 15.9713 28.3761 16.1519 28.7107Z" fill="#231F20"/>
<path d="M30 19.4193C29.9761 20.2143 29.8301 21.0008 29.5671 21.7514C29.302 22.5071 28.9388 23.2247 28.4867 23.8858C28.0385 24.5517 27.5152 25.164 26.9273 25.7105C26.3374 26.254 25.6974 26.7405 25.016 27.1636C24.3331 27.5781 23.6203 27.9411 22.8835 28.2496C22.6999 28.3258 22.5136 28.3964 22.3282 28.4688C22.1428 28.5413 21.9518 28.6072 21.7636 28.6693C21.3871 28.7982 21.0107 28.9159 20.6249 29.0184C20.239 29.121 19.8569 29.2189 19.4711 29.3008C19.0834 29.3935 18.6901 29.4614 18.2938 29.504C18.0928 29.5215 17.8909 29.5243 17.6896 29.5125C17.4871 29.5047 17.2862 29.4731 17.0911 29.4184C16.8946 29.3659 16.7094 29.2783 16.5443 29.1596C16.3835 29.0402 16.2498 28.8882 16.1519 28.7135C16.3863 29.0263 16.7346 29.2339 17.1212 29.2914C17.3099 29.3254 17.5017 29.3393 17.6934 29.3328C17.8855 29.3283 18.0771 29.3098 18.2665 29.2772C18.6482 29.2113 19.0254 29.1214 19.3958 29.0081C19.7722 28.898 20.1487 28.7916 20.5194 28.6693C21.262 28.4319 21.9917 28.1561 22.7056 27.843C23.4168 27.5331 24.1052 27.1734 24.7656 26.7664C25.4267 26.3618 26.0497 25.8981 26.6271 25.3811C26.7758 25.2569 26.9094 25.1167 27.0506 24.9859C27.1918 24.8551 27.3197 24.7036 27.4524 24.568C27.7075 24.2782 27.9606 23.9855 28.1884 23.6731L28.3606 23.4387L28.5206 23.1978C28.6316 23.0388 28.7248 22.8694 28.8283 22.7047C28.9318 22.54 29.0165 22.365 29.1106 22.1946C29.2047 22.0243 29.281 21.8464 29.3553 21.6667C29.6654 20.9482 29.882 20.1929 30 19.4193Z" fill="#231F20"/>
<path opacity="0.79" d="M6.77771 12.6501H9.0382L10.1562 17.2755L10.9223 21.9857L11.2799 25.5195L8.21757 25.0329L6.77771 18.5234V12.6501Z" fill="#C2DFEF"/>
<path opacity="0.47" d="M3.6665 18.3766L3.85566 14.92L6.14815 12.8769L6.77774 12.6501V18.5234L8.01151 24.1031H4.98497L3.6665 18.3766Z" fill="#C2DFEF"/>
<path d="M9.9266 24.2208C8.25146 23.5855 6.45492 23.3559 4.71579 22.9296C2.97666 22.5033 1.21777 21.8314 0 20.5176C0.219273 23.1526 1.78807 25.5515 3.85846 27.1899C5.92885 28.8283 8.47638 29.7741 11.0474 30.3689C12.0393 30.5985 13.306 30.6738 13.8443 29.8043C15.3134 27.4515 11.6478 24.8748 9.9266 24.2208Z" fill="#48BEA2"/>
<path d="M13.8481 29.8099C14.0285 29.4758 14.1217 29.1016 14.1191 28.722C14.1047 28.3507 14.0083 27.9872 13.8368 27.6576C13.665 27.3273 13.4519 27.0203 13.2025 26.7438C12.9534 26.4638 12.6835 26.203 12.3951 25.9637C11.8145 25.4857 11.1833 25.0726 10.5129 24.7318C10.3454 24.649 10.1769 24.5699 10.0066 24.4984C9.83625 24.4269 9.65838 24.3666 9.48146 24.3102C9.12479 24.1888 8.76153 24.0862 8.3945 23.9921C7.66234 23.7963 6.91417 23.6448 6.16319 23.482C5.4122 23.3192 4.65745 23.1489 3.91963 22.9108C3.17525 22.6823 2.45749 22.3747 1.77866 21.9932C1.10213 21.6123 0.499645 21.1128 0 20.5185C0.560066 21.0363 1.19648 21.4648 1.88688 21.789C2.22828 21.9523 2.5786 22.0962 2.93619 22.22C3.29318 22.3455 3.65519 22.4569 4.02221 22.5541C4.75532 22.7423 5.50066 22.8995 6.25353 23.0425C7.0064 23.1856 7.75927 23.3399 8.51214 23.5328C8.88857 23.6335 9.26501 23.7427 9.62921 23.8716C9.81743 23.9375 9.99529 24.0024 10.1816 24.0806C10.368 24.1587 10.543 24.2443 10.7162 24.3384C11.061 24.525 11.3947 24.7315 11.7156 24.9567C12.037 25.1803 12.3432 25.4249 12.6322 25.6889C13.2063 26.2168 13.7295 26.8304 14.0439 27.5635C14.1988 27.9302 14.2683 28.3273 14.2471 28.7248C14.2393 28.8234 14.2242 28.9212 14.202 29.0175C14.1907 29.0655 14.1813 29.1116 14.1681 29.1605L14.1191 29.2989C14.0845 29.3896 14.0439 29.4779 13.9977 29.5633C13.9544 29.649 13.898 29.728 13.8481 29.8099Z" fill="#231F20"/>
<path d="M0 20.5176C0.118389 21.2919 0.335676 22.0478 0.64653 22.7668C0.720876 22.9465 0.810277 23.1188 0.891211 23.2947C0.972144 23.4707 1.0719 23.6392 1.17354 23.8048C1.27517 23.9704 1.37023 24.1389 1.48127 24.2979L1.64126 24.5389L1.81348 24.7732C2.04122 25.0856 2.29438 25.3783 2.54941 25.6682C2.6821 25.8084 2.8148 25.9505 2.95125 26.086C3.08771 26.2215 3.22605 26.357 3.37474 26.4813C3.95127 26.9967 4.57337 27.4588 5.23339 27.8618C5.89386 28.2688 6.58225 28.6285 7.29343 28.9384C8.00736 29.2515 8.73706 29.5273 9.47958 29.7647C9.85037 29.8871 10.2268 29.9934 10.6032 30.1035C10.9737 30.2168 11.3508 30.3067 11.7325 30.3727C11.9223 30.4052 12.1142 30.4238 12.3066 30.4282C12.498 30.4347 12.6894 30.4208 12.8779 30.3868C13.2642 30.3293 13.6124 30.122 13.8472 29.8099C13.7489 29.9841 13.6152 30.1357 13.4547 30.255C13.2896 30.3737 13.1044 30.4614 12.908 30.5138C12.7128 30.5685 12.5119 30.6001 12.3094 30.6079C12.1081 30.6197 11.9062 30.6169 11.7053 30.5995C11.308 30.5582 10.9138 30.4916 10.5251 30.4C10.1393 30.3146 9.75469 30.2205 9.37136 30.1176C8.98833 30.0151 8.60908 29.8974 8.23264 29.7685C8.04442 29.7064 7.8562 29.6348 7.66799 29.568C7.47977 29.5012 7.29626 29.425 7.11275 29.3488C6.37588 29.0403 5.66306 28.6773 4.98024 28.2627C4.29876 27.8397 3.65879 27.3532 3.06889 26.8097C2.48053 26.2636 1.95726 25.6512 1.50951 24.9849C1.05745 24.3239 0.694216 23.6063 0.429139 22.8505C0.16731 22.0995 0.0225692 21.3126 0 20.5176V20.5176Z" fill="#231F20"/>
<g style="mix-blend-mode:multiply" opacity="0.5">
<path d="M22.6303 25.5195C21.8295 24.2848 20.2042 23.7954 19.0834 23.6015C17.2718 24.6302 14.9304 26.7457 16.1519 28.7107C16.6893 29.5756 17.9569 29.5012 18.9488 29.2754C21.5236 28.6797 24.0664 27.7339 26.1406 26.0954C27.3153 25.1757 28.2889 24.0249 29.0015 22.7141C26.5961 25.0903 23.1941 26.262 22.6303 25.5195Z" fill="#3D9581"/>
</g>
<g style="mix-blend-mode:multiply" opacity="0.5">
<path d="M13.8481 29.8099C15.3134 27.4506 11.6479 24.8748 9.92663 24.2208C9.81464 24.1784 9.70077 24.1427 9.58784 24.1031C8.76532 24.2434 7.59838 24.5614 6.9829 25.2776C6.04182 26.3175 5.93453 26.9415 5.93453 26.9415C5.93453 26.9415 3.67592 26.2093 1.83704 25.1205C2.41906 25.8949 3.09883 26.5908 3.85943 27.1908C5.92983 28.8293 8.47641 29.7751 11.0512 30.3708C11.5528 30.4865 12.1241 30.559 12.637 30.4988C12.9589 30.3387 13.2902 30.1979 13.6289 30.0772C13.7133 29.998 13.787 29.9082 13.8481 29.8099Z" fill="#3D9581"/>
</g>
<path opacity="0.47" d="M9.03821 12.6501L11.7165 14.8061L13.2486 17.7574L13.8735 20.8225V24.568L11.2799 25.5195L10.8583 21.5914L10.1129 17.0977L9.03821 12.6501Z" fill="#C2DFEF"/>
<path d="M8.82077 25.287C9.62823 25.128 10.4837 25.4828 11.0436 26.086C10.9665 25.1797 11.4577 24.3281 11.9847 23.5865C12.3611 23.0623 12.7818 22.5372 13.3719 22.2812C14.3751 21.8464 15.5863 22.3405 16.3109 23.1592C17.0355 23.978 17.3828 25.0546 17.7122 26.0973C18.1055 24.9369 19.7487 24.5389 20.7707 25.2127C21.7927 25.8865 22.1428 27.3113 21.7993 28.4867C21.4558 29.6622 20.5448 30.6023 19.5172 31.2629C16.7278 33.051 12.9729 32.8346 10.1948 31.1265C8.65797 30.1807 5.55332 25.9317 8.82077 25.287Z" fill="#48BEA2"/>
<path d="M17.7122 26.0982C17.8097 25.7861 17.9969 25.5095 18.2505 25.303C18.5072 25.0961 18.8074 24.9498 19.1285 24.8748C19.4527 24.7963 19.7898 24.7877 20.1176 24.8494C20.451 24.9108 20.7643 25.0526 21.0304 25.2626C21.565 25.6832 21.8972 26.3175 22.0261 26.9744C22.0908 27.3057 22.1064 27.6446 22.0722 27.9804C22.0364 28.3166 21.9534 28.6461 21.8257 28.9592C21.5679 29.5785 21.1832 30.137 20.6964 30.5985C20.4586 30.83 20.2042 31.0435 19.935 31.2375C19.6696 31.4361 19.3798 31.5951 19.0965 31.7664C18.5109 32.0739 17.8916 32.3123 17.251 32.4769L16.7682 32.5852C16.6064 32.6162 16.4426 32.636 16.2789 32.6614C16.1151 32.6868 15.9523 32.7 15.7876 32.7131C15.6229 32.7263 15.4592 32.7414 15.2936 32.7386C14.635 32.753 13.9767 32.6959 13.3305 32.5682L13.0877 32.5212L12.9672 32.4967L12.8477 32.4647L12.3649 32.3386C12.0534 32.2341 11.7381 32.1381 11.4379 32.0036L11.2102 31.9095C11.1349 31.8765 11.0624 31.8379 10.9881 31.8022C10.8422 31.7269 10.6916 31.661 10.5486 31.5782L10.1223 31.3307C10.0517 31.2912 9.97924 31.2366 9.90866 31.1905C9.83808 31.1444 9.7722 31.0898 9.70915 31.0352C9.20586 30.6082 8.75817 30.1197 8.37657 29.5812C8.18397 29.3149 8.00736 29.0375 7.84768 28.7502C7.68514 28.4621 7.54786 28.1605 7.43736 27.8487C7.32334 27.5318 7.25983 27.199 7.24915 26.8624V26.7335L7.26232 26.6046C7.27139 26.5184 7.28744 26.4331 7.31032 26.3495C7.32043 26.3067 7.33429 26.2648 7.35172 26.2244C7.36772 26.1839 7.38278 26.1425 7.40066 26.102L7.46559 25.9881C7.48587 25.9491 7.51049 25.9125 7.539 25.879C7.75477 25.6096 8.04765 25.4126 8.37845 25.3143L8.49703 25.2748C8.53655 25.2635 8.57796 25.2569 8.61749 25.2475C8.69936 25.2315 8.77747 25.207 8.86123 25.1986C9.02574 25.174 9.19272 25.1705 9.35812 25.1882C10.0154 25.2609 10.6198 25.5825 11.0474 26.087C10.8202 25.8614 10.5552 25.6776 10.2644 25.5439C9.97873 25.4094 9.66895 25.3335 9.35342 25.3209C9.19852 25.3144 9.04339 25.3264 8.89134 25.3567C8.81511 25.3689 8.73983 25.3962 8.66454 25.415C8.6269 25.4254 8.58925 25.4338 8.55255 25.4461L8.44433 25.4884C8.15888 25.5872 7.91015 25.7704 7.73098 26.0135C7.5693 26.2624 7.49635 26.5585 7.52394 26.8539C7.54705 27.1596 7.61819 27.4597 7.73474 27.7433C7.97369 28.3227 8.29029 28.8669 8.67583 29.361C8.86749 29.6105 9.07199 29.8498 9.28848 30.0781C9.50115 30.3055 9.72945 30.5178 9.97171 30.7133C10.031 30.7632 10.0941 30.8074 10.1543 30.8498C10.2145 30.8921 10.2757 30.9326 10.3425 30.9703L10.7538 31.1999C10.8902 31.2761 11.0361 31.3363 11.1772 31.406C11.2478 31.4389 11.3175 31.4747 11.3899 31.5048L11.612 31.5923C11.9009 31.7147 12.2011 31.8059 12.4985 31.9038L12.954 32.0214L13.0679 32.0516L13.1836 32.0732L13.4142 32.1174C14.0297 32.2345 14.656 32.2853 15.2823 32.269C15.4385 32.269 15.5947 32.2577 15.7528 32.2464C15.9109 32.2351 16.0653 32.2275 16.2187 32.2012C16.3721 32.1748 16.5292 32.1598 16.6826 32.1316L17.14 32.0318C17.7451 31.8776 18.3312 31.6566 18.8876 31.373C19.1567 31.2159 19.4344 31.071 19.6875 30.8884C19.9429 30.7108 20.1848 30.5145 20.4112 30.3011C20.8668 29.8838 21.2339 29.3791 21.4906 28.817C21.7403 28.2563 21.8221 27.6352 21.7259 27.029C21.643 26.4175 21.3463 25.855 20.8883 25.4414C20.4319 25.0329 19.7713 24.8927 19.1586 25.0028C18.8481 25.0552 18.5534 25.1771 18.2966 25.3595C18.0334 25.5429 17.8301 25.7999 17.7122 26.0982Z" fill="#231F20"/>
<path d="M11.0475 26.087C10.9534 25.6221 11.0475 25.1289 11.2084 24.6753C11.3848 24.2314 11.6112 23.8089 11.8832 23.4161C12.1396 22.997 12.4677 22.6262 12.8525 22.3207C12.9558 22.2443 13.0654 22.1766 13.18 22.1184C13.2377 22.0885 13.2971 22.0618 13.3578 22.0384C13.4193 22.0131 13.4821 21.9915 13.5461 21.9735C13.7958 21.8989 14.0568 21.8696 14.3168 21.8869C14.8239 21.9233 15.3127 22.0913 15.735 22.3744C15.9439 22.5094 16.137 22.6672 16.311 22.8449C16.4801 23.0232 16.6317 23.2173 16.7636 23.4246C17.0207 23.83 17.2244 24.2668 17.3697 24.7243C17.5137 25.1723 17.6306 25.6286 17.7198 26.0907C17.3433 25.2324 17.0074 24.3525 16.4625 23.6354C16.3283 23.4591 16.1804 23.2935 16.0202 23.1404C15.8597 22.9927 15.6847 22.8615 15.4979 22.7489C15.1334 22.5212 14.719 22.3856 14.2905 22.3537C14.0832 22.3381 13.8748 22.3594 13.675 22.4167C13.6252 22.429 13.5765 22.4451 13.5291 22.4647C13.4802 22.481 13.4324 22.5005 13.3861 22.5231C13.2918 22.5692 13.2009 22.622 13.1141 22.6812C12.7621 22.9211 12.4676 23.2665 12.1834 23.627C11.896 23.983 11.6412 24.3641 11.422 24.7657C11.1956 25.1708 11.0673 25.6233 11.0475 26.087V26.087Z" fill="#231F20"/>
<g style="mix-blend-mode:multiply" opacity="0.5">
<path d="M19.5172 31.2629C20.5477 30.6042 21.4596 29.6631 21.8022 28.4877C21.8669 28.2643 21.9072 28.0346 21.9227 27.8026C20.4028 29.2067 17.6219 29.7261 17.0168 29.3299C15.272 30.959 12.7819 29.9689 11.7862 29.2556C10.479 30.1741 9.13328 29.6461 8.21948 29.025C8.81896 29.9482 9.61794 30.7717 10.1958 31.1265C12.9701 32.8345 16.725 33.0529 19.5172 31.2629Z" fill="#3D9581"/>
</g>
<path opacity="0.79" d="M23.9187 16.9829L20.2014 19.8071L20.9232 10.9317L23.4359 12.1109L23.9187 16.9829Z" fill="#C2DFEF"/>
<path opacity="0.37" d="M16.2733 14.313L20.2014 19.8071L20.9232 10.9317L19.265 11.2949L16.2733 14.313Z" fill="#C2DFEF"/>
<path opacity="0.37" d="M25.7632 16.9829H23.9187L23.4359 12.1109L24.3723 12.6501L25.7632 16.9829Z" fill="#C2DFEF"/>
<path opacity="0.37" d="M14.3929 6.39375L16.2732 7.21344L17.779 9.65556L17.8976 10.6578L15.6324 11.614L14.3929 6.39375Z" fill="#C2DFEF"/>
<path opacity="0.47" d="M14.393 6.39375L12.8638 10.1816V13.3239L15.6324 11.614L14.393 6.39375Z" fill="#C2DFEF"/>
<path opacity="0.56" d="M14.393 6.39375L12.6529 6.90476L11.0709 9.31395L12.8637 10.1816L14.393 6.39375Z" fill="#C2DFEF"/>
<path opacity="0.37" d="M9.03821 12.6501L10.1562 17.2755L13.2486 17.7574L11.7165 14.8061L9.03821 12.6501Z" fill="#C2DFEF"/>
<path opacity="0.74" d="M6.77771 18.5234L10.1562 17.2755L9.0382 12.6501H6.77771V18.5234Z" fill="#C2DFEF"/>
<path opacity="0.52" d="M6.14815 12.8769L6.77774 12.6501V18.5234L3.6665 18.3766L3.85566 14.92L6.14815 12.8769Z" fill="#C2DFEF"/>
<path d="M8.23166 1.75701C8.57366 1.75701 8.8509 1.47977 8.8509 1.13778C8.8509 0.795781 8.57366 0.518539 8.23166 0.518539C7.88967 0.518539 7.61243 0.795781 7.61243 1.13778C7.61243 1.47977 7.88967 1.75701 8.23166 1.75701Z" fill="white"/>
<path d="M1.8248 6.83418C2.1668 6.83418 2.44404 6.55693 2.44404 6.21494C2.44404 5.87294 2.1668 5.5957 1.8248 5.5957C1.48281 5.5957 1.20557 5.87294 1.20557 6.21494C1.20557 6.55693 1.48281 6.83418 1.8248 6.83418Z" fill="white"/>
<path d="M26.3824 7.10145C26.7244 7.10145 27.0017 6.82421 27.0017 6.48221C27.0017 6.14022 26.7244 5.86298 26.3824 5.86298C26.0404 5.86298 25.7632 6.14022 25.7632 6.48221C25.7632 6.82421 26.0404 7.10145 26.3824 7.10145Z" fill="white"/>
<path d="M13.8867 9.3977C13.5092 9.64931 13.2297 10.0231 13.0952 10.4564C13.0754 10.4822 13.0463 10.4993 13.0141 10.5038C12.9819 10.5084 12.9492 10.5002 12.923 10.4809C12.6661 10.1086 12.2947 9.83041 11.8652 9.6885C11.8523 9.67893 11.8414 9.6669 11.8331 9.65311C11.8248 9.63932 11.8194 9.62404 11.817 9.60813C11.8146 9.59222 11.8154 9.576 11.8194 9.5604C11.8233 9.54481 11.8302 9.53013 11.8398 9.51722C12.1936 9.2413 12.4672 8.87576 12.6322 8.4585C12.6518 8.43248 12.681 8.4153 12.7133 8.41071C12.7455 8.40613 12.7783 8.41451 12.8044 8.43403C13.0614 8.80604 13.4328 9.08395 13.8622 9.22548C13.8752 9.23513 13.8861 9.24726 13.8944 9.26116C13.9027 9.27507 13.9081 9.29047 13.9104 9.30649C13.9127 9.3225 13.9117 9.33881 13.9077 9.35447C13.9036 9.37013 13.8965 9.38482 13.8867 9.3977Z" fill="white"/>
<path d="M24.6339 18.195C24.247 18.1255 23.848 18.192 23.5046 18.3832C23.4908 18.3855 23.4768 18.385 23.4633 18.3819C23.4497 18.3787 23.4369 18.3729 23.4256 18.3647C23.4143 18.3566 23.4048 18.3463 23.3975 18.3345C23.3902 18.3226 23.3853 18.3094 23.3832 18.2957C23.4452 17.9088 23.3791 17.5122 23.1949 17.1664C23.1903 17.1387 23.1968 17.1103 23.213 17.0874C23.2292 17.0645 23.2539 17.0489 23.2815 17.044C23.668 17.0833 24.058 17.0183 24.4108 16.8558C24.4385 16.8515 24.4668 16.8582 24.4895 16.8746C24.5123 16.891 24.5276 16.9157 24.5322 16.9433C24.4701 17.3302 24.5362 17.7268 24.7204 18.0727C24.7251 18.1003 24.7186 18.1288 24.7024 18.1517C24.6862 18.1746 24.6615 18.1902 24.6339 18.195V18.195Z" fill="white"/>
<path d="M22.9155 11.2206L21.3307 10.8884L20.9985 9.30359C20.9951 9.28624 20.9858 9.2706 20.9721 9.25936C20.9585 9.24811 20.9414 9.24197 20.9237 9.24197C20.906 9.24197 20.8889 9.24811 20.8752 9.25936C20.8616 9.2706 20.8523 9.28624 20.8489 9.30359L20.5167 10.8884L18.9319 11.2206C18.9145 11.224 18.8989 11.2333 18.8876 11.2469C18.8764 11.2606 18.8702 11.2777 18.8702 11.2954C18.8702 11.3131 18.8764 11.3302 18.8876 11.3439C18.8989 11.3575 18.9145 11.3668 18.9319 11.3702L20.5167 11.7024L20.8489 13.2872C20.8523 13.3046 20.8616 13.3202 20.8752 13.3315C20.8889 13.3427 20.906 13.3488 20.9237 13.3488C20.9414 13.3488 20.9585 13.3427 20.9721 13.3315C20.9858 13.3202 20.9951 13.3046 20.9985 13.2872L21.3307 11.7024L22.9155 11.3702C22.9328 11.3668 22.9485 11.3575 22.9597 11.3439C22.971 11.3302 22.9771 11.3131 22.9771 11.2954C22.9771 11.2777 22.971 11.2606 22.9597 11.2469C22.9485 11.2333 22.9328 11.224 22.9155 11.2206V11.2206Z" fill="white"/>
<path d="M8.42747 15.9524L7.10995 15.6776L6.83421 14.3648C6.83118 14.3507 6.8234 14.338 6.81219 14.329C6.80097 14.3199 6.78699 14.315 6.77257 14.315C6.75815 14.315 6.74417 14.3199 6.73295 14.329C6.72173 14.338 6.71396 14.3507 6.71093 14.3648L6.43613 15.6776L5.11861 15.9524C5.10399 15.9549 5.09074 15.9626 5.08119 15.9739C5.07164 15.9853 5.06641 15.9997 5.06641 16.0145C5.06641 16.0293 5.07164 16.0437 5.08119 16.0551C5.09074 16.0664 5.10399 16.0741 5.11861 16.0766L6.43613 16.3523L6.71846 17.6642C6.72149 17.6783 6.72926 17.6909 6.74048 17.7C6.75169 17.7091 6.76568 17.714 6.7801 17.714C6.79452 17.714 6.8085 17.7091 6.81972 17.7C6.83093 17.6909 6.8387 17.6783 6.84174 17.6642L7.11748 16.3514L8.435 16.0757C8.44901 16.0719 8.46128 16.0634 8.46975 16.0516C8.47822 16.0398 8.48236 16.0254 8.48147 16.011C8.48059 15.9965 8.47473 15.9827 8.46489 15.9721C8.45506 15.9614 8.44184 15.9544 8.42747 15.9524V15.9524Z" fill="white"/>
<path d="M5.96554 14.1126L5.21926 13.9563L5.06304 13.211C5.06166 13.2026 5.05736 13.195 5.0509 13.1895C5.04443 13.184 5.03623 13.181 5.02775 13.181C5.01926 13.181 5.01106 13.184 5.00459 13.1895C4.99813 13.195 4.99383 13.2026 4.99245 13.211L4.83623 13.9563L4.09089 14.1126C4.08252 14.1139 4.07491 14.1182 4.06942 14.1247C4.06393 14.1312 4.06091 14.1394 4.06091 14.1478C4.06091 14.1563 4.06393 14.1645 4.06942 14.171C4.07491 14.1775 4.08252 14.1818 4.09089 14.1831L4.83623 14.3394L4.99245 15.0856C4.99383 15.094 4.99813 15.1016 5.00459 15.1071C5.01106 15.1126 5.01926 15.1156 5.02775 15.1156C5.03623 15.1156 5.04443 15.1126 5.0509 15.1071C5.05736 15.1016 5.06166 15.094 5.06304 15.0856L5.21926 14.3394L5.96554 14.1822C5.97339 14.1804 5.9804 14.1759 5.98541 14.1696C5.99042 14.1633 5.99315 14.1554 5.99315 14.1474C5.99315 14.1393 5.99042 14.1315 5.98541 14.1252C5.9804 14.1188 5.97339 14.1144 5.96554 14.1126V14.1126Z" fill="white"/>
</g>
<defs>
<clipPath id="clip0_3951_309">
<rect width="30" height="32.7414" fill="white"/>
</clipPath>
</defs>
</svg>
