<svg width="895" height="345" viewBox="0 0 895 345" fill="none" xmlns="http://www.w3.org/2000/svg">
<g clip-path="url(#clip0_4858_486)">
<path d="M722.292 0H591.891C580.378 7.49128 569.399 16.3203 559.224 26.487C544.765 40.9345 532.85 57.121 523.746 74.2439C521.336 78.6584 519.194 83.2067 517.185 87.7549C504.868 115.58 499.111 145.411 499.915 175.242C500.048 178.988 500.182 182.734 500.584 186.479C503.396 220.591 514.775 254.168 534.858 283.732C538.339 288.815 542.087 293.765 545.97 298.581C550.12 303.664 554.672 308.614 559.358 313.43C571.943 326.004 585.599 336.439 600.192 345H722.292C769.954 345 813.198 325.737 844.393 294.434C875.587 263.265 895 220.056 895 172.433C895 77.1869 817.616 0 722.292 0ZM577.834 261.793C533.117 201.06 538.205 115.312 593.096 60.3315C593.23 60.1977 593.498 59.9302 593.766 59.7964C595.105 58.4587 596.577 57.121 597.916 55.7832C599.255 54.5793 600.594 53.3753 602.066 52.1714C602.736 51.5025 603.539 50.9674 604.209 50.2986C618.4 38.6603 634.064 29.8313 650.532 23.9453C652.138 23.4102 653.611 22.8751 655.217 22.3401C655.485 22.2063 655.753 22.2063 656.155 22.0725C656.422 21.9387 656.69 21.9387 656.958 21.805C703.013 7.62505 754.424 15.3839 794.722 44.9477L733.137 106.483L731.53 108.088L730.057 109.56L709.707 129.893L708.101 131.499L700.068 139.525L699.399 140.194L698.729 140.863L683.6 155.979L683.333 156.247L683.065 156.514L650.933 188.62L637.679 201.863L617.195 222.33L586.268 253.232L585.465 254.035L584.662 254.837L577.834 261.793ZM812.663 279.451C811.859 280.254 811.056 281.057 810.253 281.859C809.449 282.662 808.512 283.465 807.709 284.267C793.919 296.842 778.523 306.607 762.055 313.296C760.984 313.697 760.047 314.098 758.976 314.5C758.039 314.901 756.968 315.302 756.031 315.57C708.101 333.094 653.343 326.138 610.903 294.969L691.901 214.036L694.98 210.96L697.926 208.017L719.347 186.613L725.505 180.459L731.664 174.306L738.492 167.35L738.76 167.216L751.746 154.24L752.55 153.437L753.353 152.635L762.858 143.003L764.733 141.13L776.113 129.76L777.184 128.689L778.389 127.485L828.059 77.8558C844.66 100.463 854.434 126.415 857.245 153.17C857.915 159.457 858.182 165.744 858.049 172.032C858.049 172.701 858.049 173.37 858.049 174.038V174.306C858.049 174.573 858.049 174.975 858.049 175.242C858.049 175.644 858.049 176.045 858.049 176.313C857.915 180.995 857.513 185.543 856.844 190.225C856.844 190.76 856.71 191.295 856.576 191.964C856.442 192.499 856.442 193.168 856.308 193.703C851.22 225.14 836.761 255.238 812.663 279.451Z" fill="#D84C53"/>
<path d="M796.329 314.366C780.665 329.616 731.53 304.734 730.593 294.032C729.79 283.331 773.167 257.646 762.858 190.091C760.582 174.841 826.051 205.074 826.051 205.074C826.051 205.074 811.993 299.116 796.329 314.366Z" fill="#F68620"/>
<path d="M855.505 183.402C859.387 165.878 856.977 150.494 850.283 149.023H850.149C847.07 148.488 843.857 148.22 840.51 147.953L787.626 136.314L773.97 198.653L830.603 211.093C832.477 211.762 834.351 212.297 836.226 212.832C836.226 212.832 836.226 212.699 836.226 212.565H836.359C836.895 212.699 837.431 212.699 837.966 212.699C844.392 211.896 852.024 199.589 855.505 183.402Z" fill="#F8A33E"/>
<path d="M871.035 177.249H870.901L857.111 174.172L853.363 191.429L867.152 194.506H867.286C870.098 195.174 873.177 191.696 874.248 187.014C875.185 182.198 873.846 177.918 871.035 177.249Z" fill="#F8F9E3"/>
<path d="M797.935 133.907C797.801 133.907 797.801 133.907 797.667 133.907C751.88 126.415 693.775 91.2331 659.501 42.406L612.509 241.861C699.934 203.87 736.216 197.449 780.932 209.89C780.932 209.89 780.932 209.756 780.932 209.622C781.066 209.622 781.066 209.622 781.2 209.622C789.367 211.361 799.274 198.251 803.96 176.58C808.913 154.775 806.102 135.646 797.935 133.907Z" fill="#F8F9E3"/>
<path d="M663.344 145.85C678.053 78.9583 669.779 20.2977 644.864 14.8278C619.949 9.3579 587.827 59.1501 573.118 126.042C558.408 192.933 566.682 251.594 591.597 257.064C616.512 262.534 648.634 212.742 663.344 145.85Z" fill="#61388A"/>
<path d="M656.073 144.143C670.243 79.7051 663.932 23.5603 641.978 18.7405C620.024 13.9206 590.739 62.2508 576.569 126.689C562.4 191.127 568.71 247.272 590.664 252.092C612.619 256.912 641.903 208.582 656.073 144.143Z" fill="#F68620"/>
<path d="M656.021 144.073C653.745 154.374 651.067 164.273 648.122 173.637L614.785 161.865L627.102 105.547L661.778 108.757C660.707 120.128 658.698 131.9 656.021 144.073Z" fill="#E5E5BE"/>
<path d="M635.403 136.716C631.922 152.367 623.621 163.871 616.793 162.266C609.965 160.795 607.154 146.882 610.635 131.231C614.116 115.579 622.416 104.075 629.244 105.68C636.072 107.152 638.884 121.064 635.403 136.716Z" fill="#F8F9E3"/>
<path d="M668.605 54.178C677.442 63.6758 686.813 72.5048 696.587 80.665C706.494 88.8251 716.803 96.3164 727.647 103.139C738.492 109.961 749.738 115.981 761.386 121.198C773.033 126.415 785.217 130.562 797.801 133.371L798.337 133.505L798.203 134.04L797.801 133.371C799.408 133.773 800.747 134.709 801.684 135.913C802.621 137.117 803.291 138.455 803.826 139.793C803.157 138.455 802.353 137.251 801.282 136.314C800.211 135.378 799.006 134.575 797.668 134.442H797.132L797.266 133.907L797.668 134.575C784.815 133.104 772.096 129.492 760.047 124.81C747.997 119.994 736.35 113.974 725.371 107.018C714.393 100.062 703.95 92.1694 694.445 83.3404C684.805 74.3777 676.103 64.746 668.605 54.178Z" fill="#231F20"/>
<path d="M626.299 235.841C621.747 242.129 616.659 248.149 610.233 252.831C607.02 255.105 603.539 256.978 599.522 257.914C597.514 258.449 595.506 258.449 593.498 258.449C592.427 258.315 591.489 258.181 590.418 257.914L588.946 257.513C588.41 257.379 588.008 257.111 587.473 256.978C583.724 255.372 580.511 252.563 578.101 249.352C575.691 246.142 573.683 242.664 572.076 239.052C570.47 235.44 569.265 231.694 568.194 227.815C567.257 223.936 566.453 220.19 565.784 216.311C564.445 208.552 563.91 200.659 563.776 192.9C563.642 185.008 563.776 177.249 564.311 169.49C565.516 153.839 567.926 138.455 571.407 123.205C574.888 107.955 579.44 92.9721 585.197 78.3909C588.142 71.1671 591.355 63.9434 594.97 57.121C596.711 53.6429 598.719 50.2986 600.727 46.8205C602.869 43.4762 605.011 40.1319 607.287 37.0551C608.492 35.4498 609.697 33.9783 610.902 32.373C612.241 30.9015 613.446 29.2963 614.785 27.9585C617.462 25.0155 620.408 22.3401 623.621 20.0659C626.834 17.7918 630.449 15.7852 634.332 14.5812C638.214 13.5111 642.632 13.3773 646.515 14.8488C650.397 16.1865 653.611 18.862 656.154 21.9388C658.698 25.0155 660.572 28.4936 662.179 32.1055C663.786 35.7173 664.857 39.463 665.928 43.2086C666.865 46.9543 667.534 50.8337 668.07 54.7131C666.597 47.088 664.455 39.5968 661.242 32.6406C659.635 29.1625 657.627 25.8182 655.083 23.0089C652.539 20.1997 649.46 17.9256 645.979 16.8554C642.498 15.7852 638.75 15.919 635.135 16.9892C631.654 18.0593 628.307 20.0659 625.361 22.3401C622.416 24.6142 619.605 27.2897 617.061 30.0989C615.722 31.4366 614.651 33.0419 613.312 34.5134C612.107 35.9849 611.036 37.5902 609.965 39.0617C605.547 45.349 601.664 52.0376 598.183 58.86C594.703 65.6825 591.623 72.7724 588.812 79.9961C583.189 94.3098 578.771 109.159 575.424 124.275C571.943 139.257 569.533 154.641 568.194 169.891C566.989 185.275 566.855 200.793 568.863 215.909C569.399 219.655 570.068 223.534 571.005 227.146C571.943 230.892 573.014 234.504 574.352 237.982C575.691 241.46 577.432 244.938 579.708 247.881C581.85 250.958 584.661 253.499 588.008 255.105L589.213 255.64L590.552 256.041C591.355 256.309 592.293 256.442 593.23 256.576C595.104 256.71 596.979 256.71 598.719 256.309C602.468 255.64 605.949 253.901 609.162 251.894C612.375 249.754 615.32 247.346 618.132 244.537C621.345 241.727 623.889 238.784 626.299 235.841Z" fill="#231F20"/>
<path d="M764.331 205.876C752.415 204.806 740.5 204.806 728.852 206.278C725.907 206.679 722.961 206.946 720.15 207.615L715.732 208.418L711.448 209.354C709.975 209.622 708.502 209.889 707.163 210.291L702.879 211.361C699.934 212.03 697.122 212.832 694.311 213.635C691.499 214.304 688.554 215.24 685.742 216.043L681.458 217.381L677.174 218.718C671.551 220.457 665.928 222.464 660.305 224.337C649.059 228.216 637.813 232.229 626.433 235.975C637.143 230.624 647.988 225.541 659.1 221.126C661.911 219.922 664.723 218.986 667.4 217.916C670.212 216.846 673.023 215.909 675.835 214.839L680.119 213.368L684.403 212.03C687.215 211.093 690.16 210.291 692.972 209.488C695.917 208.685 698.729 207.883 701.674 207.348L706.092 206.278C707.565 206.01 709.038 205.742 710.51 205.475L714.929 204.672L719.347 204.003C722.292 203.468 725.371 203.335 728.317 203.067C740.5 201.997 752.683 203.067 764.331 205.876Z" fill="#231F20"/>
<path d="M825.247 209.756C822.302 233.032 818.553 256.175 812.796 278.916C811.323 284.668 809.717 290.287 807.843 295.905C805.834 301.524 803.826 307.142 800.479 312.359C800.077 313.028 799.542 313.697 799.14 314.232C798.605 314.901 798.069 315.57 797.4 316.105C796.195 317.175 794.722 318.245 793.249 318.914C790.304 320.386 787.091 320.921 784.012 321.188C780.932 321.456 777.853 321.188 774.774 320.787C771.828 320.386 768.749 319.717 765.937 318.914C760.181 317.309 754.557 315.035 749.202 312.359C746.525 311.022 743.847 309.55 741.303 307.945C738.759 306.34 736.216 304.601 733.94 302.46C732.869 301.39 731.664 300.32 730.727 298.982C730.459 298.715 730.191 298.313 730.057 297.912C729.789 297.511 729.655 297.243 729.388 296.842C729.254 296.44 728.986 296.039 728.852 295.504C728.718 294.969 728.584 294.434 728.584 293.899C728.584 292.829 728.718 291.892 729.12 290.956C729.254 290.554 729.388 290.153 729.656 289.752L730.191 288.682C730.994 287.344 731.798 286.006 732.735 284.802C736.35 279.986 739.964 275.572 743.311 270.89C745.052 268.482 746.658 266.074 748.131 263.666C749.604 261.258 751.077 258.716 752.415 256.175C755.093 251.091 757.369 245.74 759.11 240.122C760.85 234.637 762.189 228.885 762.992 223.133C763.26 221.661 763.394 220.19 763.528 218.852C763.661 217.381 763.795 215.909 763.929 214.438C764.063 212.966 764.197 211.495 764.197 210.023L764.331 205.609C765.268 217.247 764.197 229.153 761.118 240.657C758.038 252.162 752.683 262.863 746.123 272.763C744.516 275.17 742.776 277.578 741.035 279.986C739.295 282.394 737.555 284.668 735.814 286.943C735.011 288.146 734.208 289.35 733.538 290.421C732.869 291.625 732.467 292.828 732.601 293.497C732.601 294.166 733.27 295.37 734.074 296.307C734.877 297.377 735.814 298.313 736.885 299.116C741.035 302.728 746.123 305.671 751.21 308.212C756.298 310.754 761.787 312.894 767.276 314.366C769.954 315.169 772.765 315.704 775.577 316.105C778.388 316.506 781.2 316.774 783.878 316.506C786.555 316.373 789.233 315.837 791.643 314.633C794.053 313.563 795.793 311.824 797.266 309.55C800.345 305.002 802.487 299.517 804.495 294.166C806.37 288.682 808.11 283.197 809.717 277.578C812.93 266.341 815.608 254.971 818.151 243.6C820.695 232.765 822.971 221.26 825.247 209.756Z" fill="#231F20"/>
<path d="M803.692 139.792C806.772 140.328 809.851 140.729 813.064 141.264C816.143 141.799 819.223 142.334 822.302 142.869C825.381 143.404 828.461 143.939 831.54 144.608C834.619 145.143 837.698 145.812 840.778 146.347H840.51C843.723 146.481 847.07 146.749 850.283 147.284L852.158 147.551L851.756 149.424L850.283 147.284C851.89 147.551 853.229 148.488 854.3 149.424C855.237 150.494 856.04 151.698 856.576 152.768C857.647 155.176 858.316 157.584 858.718 159.992C859.521 164.808 859.387 169.758 858.986 174.44L854.835 173.771L855.237 171.764L857.379 172.165L864.341 173.637L871.303 175.242L873.445 175.644L873.043 177.65L871.303 175.108C872.909 175.376 874.248 176.446 875.051 177.516C875.855 178.587 876.256 179.791 876.524 180.861C877.06 183.135 876.926 185.275 876.39 187.416C875.855 189.556 875.051 191.563 873.713 193.302C873.043 194.238 872.106 195.041 871.035 195.71C869.964 196.378 868.357 196.78 866.751 196.245L869.161 194.773L868.759 196.646L866.885 196.245C862.333 195.174 857.781 194.104 853.229 192.9L855.103 191.83C854.3 193.97 853.496 196.111 852.425 198.251C851.488 200.392 850.283 202.398 849.078 204.271C847.74 206.278 846.401 208.15 844.66 209.756C843.857 210.558 842.786 211.361 841.849 211.896C840.778 212.431 839.573 212.966 838.368 213.1H838.234H838.1H838.368C837.698 213.1 836.895 213.1 836.226 212.832L837.029 212.297V212.565L836.895 213.234L836.226 212.966L830.737 210.96L825.515 209.488L830.87 210.291L836.493 211.762L835.69 212.297V212.03L835.824 211.361L836.493 211.495C837.029 211.628 837.564 211.628 838.1 211.495H838.234H838.368H838.1C839.037 211.361 839.974 210.826 840.912 210.291C841.715 209.622 842.518 208.953 843.188 208.15C844.66 206.545 845.865 204.672 846.936 202.799C849.078 198.92 850.685 194.773 852.024 190.626L852.425 189.288L853.898 189.556C858.45 190.492 863.136 191.295 867.688 192.365L865.412 193.837L865.814 191.83L867.822 192.365C868.09 192.499 868.491 192.365 869.027 192.098C869.562 191.83 870.098 191.295 870.499 190.626C871.437 189.422 871.972 187.817 872.374 186.212C872.642 184.606 872.775 183.001 872.374 181.53C872.24 180.861 871.972 180.192 871.57 179.657C871.169 179.255 870.901 178.988 870.633 178.988L868.357 178.72L868.893 176.312L870.499 178.854L863.538 177.383L856.576 175.777L859.119 174.172L854.969 173.503C855.237 171.229 855.371 168.955 855.371 166.681C855.371 164.407 855.237 162.133 854.969 159.992C854.701 157.852 854.166 155.711 853.363 153.839C852.961 152.902 852.425 152.1 851.89 151.431C851.22 150.762 850.685 150.361 849.882 150.227L848.007 149.692L848.409 148.086L849.882 150.227C846.802 149.692 843.589 149.29 840.376 148.889H840.242H840.108C837.029 148.086 833.95 147.418 831.004 146.615C827.925 145.812 824.846 145.143 821.9 144.207C818.821 143.404 815.876 142.602 812.796 141.799C809.717 141.398 806.772 140.595 803.692 139.792Z" fill="#231F20"/>
<path d="M449.709 14.4473L492.953 61.134L474.477 73.7086L552.129 99.393L509.153 61.2677L524.147 48.6931L449.709 14.4473Z" fill="#A073B2"/>
<path d="M455.198 317.71L516.784 301.657L519.194 323.998L578.503 267.679L524.549 287.611L520.666 268.348L455.198 317.71Z" fill="#A073B2"/>
<path d="M362.418 151.163L441.14 174.975L429.894 197.716L530.841 181.797L458.411 166.547L465.909 145.946L362.418 151.163Z" fill="#A073B2"/>
<path d="M774.908 151.966C774.506 151.966 774.105 151.698 773.971 151.431C773.703 150.896 766.339 138.455 751.077 144.073C750.541 144.341 749.872 143.94 749.604 143.405C749.337 142.869 749.738 142.201 750.274 141.933C767.411 135.512 775.979 150.093 775.979 150.227C776.247 150.762 776.113 151.431 775.577 151.832C775.31 151.966 775.176 151.966 774.908 151.966Z" fill="#231F20"/>
<path d="M712.385 135.111C712.117 135.111 711.716 134.977 711.582 134.709C700.603 122.67 688.286 130.562 687.751 130.83C687.215 131.231 686.546 131.097 686.144 130.562C685.743 130.027 685.876 129.358 686.412 128.957C686.546 128.823 700.737 119.727 713.188 133.104C713.59 133.639 713.59 134.308 713.054 134.709C712.921 134.977 712.653 135.111 712.385 135.111Z" fill="#231F20"/>
<path d="M753.621 183.135C761.828 183.135 768.482 176.487 768.482 168.286C768.482 160.086 761.828 153.438 753.621 153.438C745.413 153.438 738.76 160.086 738.76 168.286C738.76 176.487 745.413 183.135 753.621 183.135Z" fill="#F7F8E2"/>
<path d="M698.06 169.891C706.267 169.891 712.921 163.243 712.921 155.043C712.921 146.842 706.267 140.194 698.06 140.194C689.852 140.194 683.199 146.842 683.199 155.043C683.199 163.243 689.852 169.891 698.06 169.891Z" fill="#F7F8E2"/>
<path d="M768.08 171.764C768.749 167.885 767.812 164.006 765.804 160.795C763.796 157.718 760.582 155.444 756.968 154.508C753.353 153.571 749.47 154.24 746.257 156.113C743.044 157.986 740.5 161.063 739.295 164.808C739.563 162.935 740.366 161.063 741.437 159.324C742.508 157.718 743.981 156.247 745.721 155.043C747.462 153.973 749.336 153.17 751.345 152.769C753.353 152.367 755.495 152.501 757.503 152.902C759.511 153.438 761.386 154.24 762.992 155.444C764.599 156.648 766.072 158.253 767.009 159.992C768.08 161.731 768.615 163.738 768.883 165.745C768.883 167.885 768.749 169.892 768.08 171.764Z" fill="#231F20"/>
<path d="M739.161 164.808C738.492 168.688 739.429 172.567 741.437 175.777C743.446 178.854 746.659 181.128 750.274 182.065C753.888 183.001 757.771 182.332 760.984 180.46C764.197 178.587 766.741 175.51 767.946 171.764C767.678 173.637 766.875 175.51 765.804 177.249C764.733 178.854 763.26 180.326 761.52 181.53C759.779 182.6 757.905 183.403 755.897 183.804C753.888 184.205 751.746 184.071 749.738 183.67C747.73 183.135 745.856 182.332 744.249 181.128C742.642 179.924 741.17 178.319 740.233 176.58C739.161 174.841 738.626 172.834 738.358 170.828C738.358 168.688 738.492 166.681 739.161 164.808Z" fill="#231F20"/>
<path d="M748.265 176.848C753.663 176.848 758.039 172.476 758.039 167.082C758.039 161.689 753.663 157.317 748.265 157.317C742.868 157.317 738.492 161.689 738.492 167.082C738.492 172.476 742.868 176.848 748.265 176.848Z" fill="#040809"/>
<path d="M712.519 158.521C713.188 154.641 712.251 150.762 710.243 147.551C708.235 144.475 705.022 142.2 701.407 141.264C697.792 140.328 693.909 140.997 690.696 142.869C687.483 144.742 684.939 147.819 683.734 151.565C684.002 149.692 684.805 147.819 685.876 146.08C686.948 144.475 688.42 143.003 690.161 141.799C691.901 140.729 693.776 139.926 695.784 139.525C697.792 139.124 699.934 139.257 701.942 139.659C703.95 140.194 705.825 140.997 707.431 142.2C709.038 143.404 710.511 145.01 711.448 146.749C712.519 148.488 713.054 150.494 713.322 152.501C713.322 154.641 713.188 156.648 712.519 158.521Z" fill="#231F20"/>
<path d="M683.6 151.698C682.931 155.578 683.868 159.457 685.876 162.668C687.885 165.745 691.098 168.019 694.713 168.955C698.327 169.892 702.21 169.223 705.423 167.35C708.636 165.477 711.18 162.4 712.385 158.655C712.117 160.527 711.314 162.4 710.243 164.139C709.172 165.745 707.699 167.216 705.959 168.42C704.218 169.49 702.344 170.293 700.336 170.694C698.327 171.096 696.185 170.962 694.177 170.56C692.169 170.025 690.295 169.223 688.688 168.019C687.081 166.815 685.609 165.21 684.671 163.47C683.6 161.731 683.065 159.725 682.797 157.718C682.797 155.444 682.931 153.438 683.6 151.698Z" fill="#231F20"/>
<path d="M693.106 163.604C698.504 163.604 702.88 159.232 702.88 153.839C702.88 148.445 698.504 144.073 693.106 144.073C687.708 144.073 683.333 148.445 683.333 153.839C683.333 159.232 687.708 163.604 693.106 163.604Z" fill="#040809"/>
<path d="M712.385 169.758C712.385 169.758 708.235 183.938 720.552 186.881C732.869 189.824 734.476 175.109 734.476 175.109L712.385 169.758Z" fill="#231F20"/>
<path d="M729.923 184.74C727.781 186.747 724.836 187.951 720.418 186.881C715.866 185.81 713.59 183.135 712.519 180.192C714.795 178.721 718.276 178.185 721.891 178.988C725.773 179.924 728.718 182.199 729.923 184.74Z" fill="#F16B6C"/>
<g clip-path="url(#clip1_4858_486)">
<path d="M175.767 165.476C178.659 165.476 181.005 163.131 181.005 160.238C181.005 157.345 178.659 155 175.767 155C172.874 155 170.528 157.345 170.528 160.238C170.528 163.131 172.874 165.476 175.767 165.476Z" fill="#221E57"/>
<path d="M266.204 165.476C269.096 165.476 271.442 163.131 271.442 160.238C271.442 157.345 269.096 155 266.204 155C263.311 155 260.965 157.345 260.965 160.238C260.965 163.131 263.311 165.476 266.204 165.476Z" fill="#221E57"/>
<path d="M229.749 156.678H212.248C211.684 156.678 211.125 156.789 210.604 157.005C210.083 157.221 209.609 157.538 209.21 157.937C208.811 158.336 208.494 158.81 208.278 159.331C208.062 159.852 207.951 160.411 207.951 160.975V164.32C207.951 164.884 208.062 165.443 208.278 165.964C208.494 166.486 208.811 166.959 209.21 167.358C209.609 167.757 210.083 168.074 210.604 168.29C211.125 168.506 211.684 168.617 212.248 168.617H217.043V178.557H224.954V168.617H229.749C230.889 168.617 231.982 168.164 232.789 167.359C233.595 166.553 234.048 165.46 234.049 164.32V160.975C234.048 159.835 233.595 158.742 232.789 157.937C231.982 157.131 230.889 156.678 229.749 156.678Z" fill="#221E57"/>
<path d="M186.341 171.737L179.181 175.038L185.609 188.982L192.769 185.682L186.341 171.737Z" fill="#221E57"/>
<path d="M206.375 170.954C206.234 170.601 206.075 170.247 205.919 169.896C204.67 167.186 202.899 164.748 200.707 162.722C198.516 160.696 195.946 159.122 193.146 158.089C190.346 157.056 187.37 156.584 184.388 156.701C181.406 156.818 178.476 157.522 175.765 158.771C173.055 160.021 170.617 161.792 168.591 163.983C166.565 166.175 164.991 168.744 163.958 171.544C162.925 174.344 162.453 177.32 162.57 180.303C162.687 183.285 163.391 186.215 164.64 188.925C164.802 189.276 164.973 189.621 165.15 189.962L206.375 170.954Z" fill="#FAF28C"/>
<path d="M205.922 169.887C203.397 164.415 198.801 160.169 193.146 158.085C187.491 156 181.24 156.246 175.767 158.77C175.065 159.093 174.391 159.447 173.738 159.831C173.738 159.831 184.124 156.714 197.343 175.114L206.375 170.954C206.237 170.601 206.075 170.247 205.922 169.887Z" fill="#FFFACA"/>
<path d="M249.233 185.682L256.393 188.983L262.821 175.039L255.661 171.738L249.233 185.682Z" fill="#221E57"/>
<path d="M235.625 170.954C235.769 170.601 235.925 170.247 236.084 169.896C237.333 167.186 239.105 164.748 241.296 162.722C243.488 160.696 246.057 159.122 248.857 158.089C251.657 157.056 254.633 156.584 257.615 156.701C260.598 156.818 263.528 157.522 266.238 158.771C268.948 160.021 271.386 161.792 273.412 163.983C275.438 166.175 277.013 168.744 278.046 171.544C279.079 174.344 279.55 177.32 279.433 180.303C279.316 183.285 278.613 186.215 277.363 188.925C277.198 189.276 277.031 189.621 276.851 189.962L235.625 170.954Z" fill="#FAF28C"/>
<path d="M236.084 169.887C237.415 167.003 239.336 164.429 241.723 162.332C244.109 160.235 246.909 158.662 249.941 157.714C252.973 156.765 256.17 156.463 259.327 156.826C262.483 157.189 265.528 158.21 268.265 159.822V159.822C268.265 159.822 257.882 156.705 244.663 175.105L235.625 170.936C235.769 170.601 235.922 170.247 236.084 169.887Z" fill="#FFFACA"/>
<path d="M189.557 178.71C190.942 178.026 192.32 177.331 193.708 176.657L197.873 174.628L202.035 172.584L206.21 170.58L206.006 171.095C204.141 166.643 200.894 162.908 196.743 160.442C193.315 158.406 189.402 157.327 185.415 157.319C181.427 157.311 177.51 158.374 174.073 160.397L173.738 159.15C173.885 159.149 174.029 159.196 174.147 159.285C174.264 159.374 174.349 159.5 174.387 159.642C174.425 159.785 174.415 159.936 174.359 160.072C174.302 160.208 174.202 160.321 174.073 160.394C171.652 161.811 169.524 163.68 167.807 165.899C164.327 170.383 162.676 176.02 163.187 181.673C163.453 184.492 164.243 187.236 165.515 189.764L164.979 189.582L169.321 187.661L173.678 185.77L178.029 183.879C179.479 183.241 180.942 182.632 182.395 182.009C180.978 182.71 179.563 183.426 178.14 184.107L173.873 186.186L169.605 188.266L165.32 190.334C165.227 190.379 165.12 190.386 165.021 190.354C164.922 190.322 164.839 190.254 164.79 190.163V190.163C161.937 184.923 161.242 178.776 162.854 173.031C164.453 167.243 168.238 162.304 173.411 159.255L173.75 160.499C173.604 160.498 173.463 160.45 173.347 160.361C173.231 160.273 173.147 160.149 173.109 160.008C173.07 159.868 173.078 159.718 173.132 159.583C173.187 159.447 173.283 159.334 173.408 159.258C176.305 157.536 179.544 156.471 182.897 156.138C186.25 155.804 189.636 156.211 192.815 157.328C194.396 157.881 195.914 158.598 197.346 159.468C201.637 162.119 204.943 166.101 206.758 170.807V170.822C206.794 170.917 206.793 171.022 206.754 171.115C206.715 171.208 206.641 171.283 206.548 171.323L202.311 173.184L198.062 175.03L193.816 176.879C192.401 177.505 190.975 178.101 189.557 178.71Z" fill="#231F20"/>
<path d="M182.401 182.012C182.758 182.552 183.091 183.103 183.417 183.657C183.744 184.212 184.065 184.769 184.373 185.329C184.682 185.89 184.987 186.456 185.272 187.023C185.557 187.589 185.872 188.158 186.156 188.731L185.35 188.431C187.701 187.254 190.088 186.156 192.509 185.135L192.209 185.941C191.96 185.341 191.718 184.748 191.484 184.161C191.248 183.561 191.011 182.962 190.789 182.363C190.567 181.763 190.346 181.164 190.136 180.55C189.926 179.935 189.728 179.33 189.536 178.707C189.89 179.249 190.226 179.798 190.552 180.352C190.879 180.906 191.2 181.464 191.508 182.027C191.817 182.59 192.123 183.151 192.407 183.717C192.692 184.284 193.007 184.853 193.291 185.425C193.358 185.565 193.368 185.725 193.319 185.872C193.271 186.019 193.167 186.141 193.031 186.213L192.992 186.231C190.642 187.41 188.256 188.509 185.833 189.528L185.794 189.543C185.652 189.6 185.493 189.601 185.35 189.546C185.208 189.49 185.092 189.382 185.026 189.243C184.778 188.644 184.535 188.062 184.301 187.466C184.068 186.87 183.828 186.267 183.606 185.668C183.384 185.069 183.163 184.469 182.953 183.87C182.743 183.271 182.578 182.632 182.401 182.012Z" fill="#231F20"/>
<path d="M259.608 182.012C261.064 182.635 262.524 183.247 263.974 183.882L268.328 185.77L272.682 187.664L277.024 189.582L276.488 189.764C279.065 184.681 279.601 178.805 277.986 173.34C277.193 170.645 275.903 168.124 274.181 165.905C272.464 163.686 270.338 161.818 267.918 160.4C267.791 160.327 267.692 160.214 267.637 160.078C267.581 159.943 267.571 159.794 267.609 159.652C267.647 159.511 267.73 159.386 267.846 159.297C267.962 159.208 268.104 159.16 268.25 159.159L267.951 160.412C266.573 159.61 265.117 158.953 263.605 158.449C262.102 157.948 260.549 157.613 258.973 157.448C255.807 157.118 252.608 157.468 249.59 158.476C246.556 159.49 243.773 161.141 241.429 163.318C239.085 165.496 237.234 168.149 236 171.101L235.796 170.583L239.971 172.59L244.133 174.625L248.295 176.657C249.686 177.328 251.064 178.026 252.449 178.71C251.028 178.11 249.605 177.511 248.19 176.888L243.941 175.042L239.695 173.184L235.458 171.314C235.365 171.273 235.291 171.198 235.252 171.104C235.213 171.01 235.212 170.905 235.248 170.81V170.795C236.448 167.675 238.313 164.854 240.714 162.528C241.913 161.361 243.238 160.331 244.663 159.456C247.532 157.695 250.749 156.58 254.092 156.186C257.435 155.793 260.823 156.132 264.022 157.179C265.611 157.698 267.139 158.387 268.58 159.234H268.604C268.729 159.31 268.825 159.424 268.88 159.559C268.934 159.694 268.942 159.844 268.903 159.984C268.865 160.125 268.781 160.249 268.665 160.337C268.549 160.426 268.408 160.474 268.262 160.475V160.475L268.601 159.231C271.802 161.13 274.502 163.769 276.472 166.927C278.443 170.085 279.628 173.669 279.928 177.379C280.282 181.812 279.338 186.251 277.213 190.157C277.164 190.247 277.081 190.315 276.983 190.347C276.885 190.379 276.779 190.372 276.686 190.328L272.407 188.272L268.139 186.192L263.872 184.11C262.44 183.426 261.028 182.713 259.608 182.012Z" fill="#231F20"/>
<path d="M252.448 178.71C252.266 179.333 252.065 179.944 251.849 180.553C251.633 181.161 251.424 181.766 251.196 182.351C250.968 182.935 250.737 183.549 250.501 184.149C250.264 184.748 250.024 185.347 249.775 185.929L249.476 185.123C251.897 186.143 254.284 187.242 256.638 188.419L255.829 188.719C256.128 188.146 256.41 187.577 256.713 187.011C257.015 186.444 257.312 185.878 257.612 185.317C257.911 184.757 258.241 184.2 258.568 183.645C258.894 183.091 259.23 182.539 259.584 182C259.404 182.62 259.203 183.232 258.984 183.843C258.765 184.454 258.559 185.042 258.331 185.641C258.103 186.24 257.872 186.84 257.636 187.439C257.399 188.038 257.159 188.638 256.911 189.219C256.848 189.36 256.733 189.472 256.59 189.53C256.447 189.589 256.287 189.59 256.143 189.534V189.534L256.107 189.519C253.682 188.494 251.295 187.395 248.945 186.222L248.909 186.204C248.773 186.132 248.67 186.01 248.622 185.864C248.573 185.718 248.583 185.559 248.649 185.419C248.936 184.846 249.236 184.278 249.548 183.714C249.847 183.145 250.147 182.578 250.447 182.021C250.746 181.464 251.076 180.9 251.403 180.346C251.729 179.792 252.092 179.252 252.448 178.71Z" fill="#231F20"/>
<path d="M182.935 295.817C180.37 293.977 179.98 289.844 182.003 285.928L188.994 272.353L203.231 282.562L192.611 293.524C189.54 296.707 185.503 297.66 182.935 295.817Z" fill="#221E57"/>
<path d="M258.43 295.817C260.995 293.977 261.385 289.844 259.362 285.928L252.377 272.362L238.14 282.562L248.76 293.524C251.825 296.707 255.865 297.66 258.43 295.817Z" fill="#221E57"/>
<path d="M221.001 291.07C253.284 291.07 279.455 264.9 279.455 232.617C279.455 200.334 253.284 174.164 221.001 174.164C188.719 174.164 162.548 200.334 162.548 232.617C162.548 264.9 188.719 291.07 221.001 291.07Z" fill="#D84C53"/>
<path d="M279.455 232.617C279.584 240.316 278.176 247.964 275.313 255.113C270.941 265.936 263.435 275.206 253.758 281.733C244.081 288.261 232.674 291.748 221.001 291.748C209.329 291.748 197.922 288.261 188.245 281.733C178.568 275.206 171.062 265.936 166.69 255.113C163.828 247.964 162.421 240.316 162.551 232.617L162.674 235.482C162.749 236.435 162.848 237.388 162.935 238.338C163.022 239.288 163.193 240.228 163.321 241.175C163.45 242.122 163.672 243.051 163.846 243.986C164.634 247.717 165.79 251.359 167.298 254.861C170.279 261.872 174.607 268.229 180.037 273.572C182.745 276.227 185.698 278.62 188.856 280.72C196.783 285.963 205.873 289.189 215.332 290.116C224.792 291.043 234.334 289.643 243.129 286.039C257.34 280.198 268.681 268.998 274.699 254.861C276.205 251.359 277.362 247.716 278.151 243.986C278.325 243.051 278.529 242.116 278.675 241.175C278.822 240.234 278.951 239.285 279.062 238.338C279.173 237.391 279.248 236.435 279.323 235.482L279.455 232.617Z" fill="#231F20"/>
<path d="M162.551 232.617C162.421 224.917 163.828 217.27 166.69 210.121C171.061 199.297 178.567 190.026 188.245 183.498C197.922 176.969 209.329 173.481 221.003 173.481C232.676 173.481 244.084 176.969 253.761 183.498C263.438 190.026 270.944 199.297 275.316 210.121C278.178 217.269 279.585 224.917 279.454 232.617L279.332 229.752C279.257 228.799 279.158 227.846 279.071 226.896C278.984 225.946 278.81 225.005 278.684 224.061C278.558 223.117 278.331 222.185 278.16 221.247C275.762 210.016 270.138 199.729 261.978 191.649C259.27 188.996 256.317 186.604 253.159 184.505C245.229 179.264 236.139 176.04 226.68 175.115C217.22 174.189 207.678 175.59 198.883 179.195C184.671 185.031 173.326 196.226 167.304 210.36C165.799 213.863 164.643 217.506 163.852 221.235C163.681 222.173 163.477 223.105 163.33 224.046C163.184 224.987 163.052 225.937 162.944 226.884C162.836 227.831 162.758 228.787 162.683 229.74L162.551 232.617Z" fill="#231F20"/>
<path d="M221.001 277.965C246.047 277.965 266.35 257.662 266.35 232.617C266.35 207.571 246.047 187.268 221.001 187.268C195.956 187.268 175.653 207.571 175.653 232.617C175.653 257.662 195.956 277.965 221.001 277.965Z" fill="#F8F9E3"/>
<path d="M175.656 232.617C175.508 226.635 176.564 220.685 178.76 215.119C180.993 209.516 184.32 204.414 188.547 200.111C192.773 195.808 197.815 192.39 203.378 190.058C213.198 185.926 224.157 185.373 234.343 188.495C244.53 191.616 253.297 198.215 259.116 207.139C262.403 212.165 264.634 217.807 265.673 223.723C265.787 224.46 265.921 225.191 266.011 225.931C266.101 226.671 266.182 227.412 266.242 228.152C266.302 228.892 266.32 229.65 266.347 230.381V232.608L266.233 230.384C266.17 229.647 266.086 228.91 266.014 228.173C265.942 227.435 265.802 226.707 265.715 225.976C265.628 225.245 265.433 224.526 265.295 223.798C264.666 220.918 263.753 218.107 262.571 215.407C257.864 204.509 249.078 195.886 238.094 191.383C227.145 186.913 214.881 186.913 203.932 191.383C192.949 195.888 184.164 204.512 179.455 215.41C178.273 218.11 177.361 220.921 176.731 223.801C176.594 224.526 176.432 225.251 176.312 225.979C176.192 226.707 176.09 227.441 176.012 228.176C175.934 228.91 175.856 229.65 175.79 230.387L175.656 232.617Z" fill="#231F20"/>
<path d="M266.35 232.617C266.497 238.618 265.433 244.586 263.222 250.167C261.011 255.748 257.699 260.825 253.482 265.098C247.674 271.086 240.326 275.356 232.247 277.436C224.168 279.516 215.672 279.326 207.694 276.887C199.716 274.448 192.566 269.854 187.032 263.612C181.497 257.369 177.793 249.721 176.327 241.508C176.216 240.771 176.081 240.037 175.988 239.297C175.896 238.556 175.818 237.819 175.761 237.076C175.704 236.333 175.68 235.578 175.653 234.849V232.62L175.767 234.843C175.83 235.581 175.914 236.318 175.985 237.055C176.057 237.792 176.195 238.52 176.285 239.252C176.375 239.983 176.564 240.705 176.702 241.43C177.334 244.309 178.246 247.119 179.426 249.821C184.133 260.719 192.918 269.342 203.902 273.845C214.851 278.314 227.116 278.314 238.065 273.845C244.878 271.034 250.91 266.617 255.646 260.97C260.383 255.323 263.683 248.614 265.265 241.415C265.403 240.69 265.565 239.968 265.685 239.237C265.805 238.505 265.91 237.774 265.985 237.04C266.059 236.306 266.14 235.566 266.203 234.828L266.35 232.617Z" fill="#231F20"/>
<path d="M259.036 234.873C260.282 234.873 261.292 233.863 261.292 232.617C261.292 231.371 260.282 230.36 259.036 230.36H250.669C249.423 230.36 248.412 231.371 248.412 232.617C248.412 233.863 249.423 234.873 250.669 234.873H259.036Z" fill="#A073B2"/>
<path d="M191.334 234.873C192.581 234.873 193.591 233.863 193.591 232.617C193.591 231.371 192.581 230.36 191.334 230.36H182.968C181.721 230.36 180.711 231.371 180.711 232.617C180.711 233.863 181.721 234.873 182.968 234.873H191.334Z" fill="#A073B2"/>
<path d="M218.745 270.648C218.745 271.894 219.755 272.904 221.001 272.904C222.248 272.904 223.258 271.894 223.258 270.648V262.281C223.258 261.035 222.248 260.024 221.001 260.024C219.755 260.024 218.745 261.035 218.745 262.281V270.648Z" fill="#A073B2"/>
<path d="M218.745 202.947C218.745 204.193 219.755 205.203 221.001 205.203C222.248 205.203 223.258 204.193 223.258 202.947V194.58C223.258 193.334 222.248 192.324 221.001 192.324C219.755 192.324 218.745 193.334 218.745 194.58V202.947Z" fill="#A073B2"/>
<path d="M206.248 260.028L206.251 260.029C208.111 261.06 210.454 260.388 211.486 258.528L225.231 233.732C226.262 231.871 225.59 229.528 223.73 228.497L223.727 228.495C221.867 227.464 219.523 228.136 218.492 229.996L204.747 254.793C203.716 256.653 204.388 258.997 206.248 260.028Z" fill="#221E57"/>
<path d="M210.051 211.336L210.048 211.338C208.209 212.406 207.585 214.763 208.653 216.602L218.583 233.69C219.651 235.528 222.008 236.153 223.847 235.084L223.849 235.083C225.688 234.014 226.313 231.657 225.244 229.819L215.315 212.731C214.246 210.892 211.89 210.268 210.051 211.336Z" fill="#61388A"/>
<path d="M202.275 202.695C203.664 202.695 204.79 201.57 204.79 200.181C204.79 198.792 203.664 197.667 202.275 197.667C200.887 197.667 199.761 198.792 199.761 200.181C199.761 201.57 200.887 202.695 202.275 202.695Z" fill="#A073B2"/>
<path d="M188.565 216.405C189.954 216.405 191.08 215.279 191.08 213.891C191.08 212.502 189.954 211.376 188.565 211.376C187.177 211.376 186.051 212.502 186.051 213.891C186.051 215.279 187.177 216.405 188.565 216.405Z" fill="#A073B2"/>
<path d="M188.565 253.857C189.954 253.857 191.08 252.732 191.08 251.343C191.08 249.955 189.954 248.829 188.565 248.829C187.177 248.829 186.051 249.955 186.051 251.343C186.051 252.732 187.177 253.857 188.565 253.857Z" fill="#A073B2"/>
<path d="M202.275 267.567C203.664 267.567 204.79 266.441 204.79 265.053C204.79 263.664 203.664 262.539 202.275 262.539C200.887 262.539 199.761 263.664 199.761 265.053C199.761 266.441 200.887 267.567 202.275 267.567Z" fill="#A073B2"/>
<path d="M239.728 267.567C241.116 267.567 242.242 266.441 242.242 265.053C242.242 263.664 241.116 262.539 239.728 262.539C238.339 262.539 237.213 263.664 237.213 265.053C237.213 266.441 238.339 267.567 239.728 267.567Z" fill="#A073B2"/>
<path d="M253.438 253.857C254.826 253.857 255.952 252.732 255.952 251.343C255.952 249.955 254.826 248.829 253.438 248.829C252.049 248.829 250.923 249.955 250.923 251.343C250.923 252.732 252.049 253.857 253.438 253.857Z" fill="#A073B2"/>
<path d="M253.438 216.405C254.826 216.405 255.952 215.279 255.952 213.891C255.952 212.502 254.826 211.376 253.438 211.376C252.049 211.376 250.923 212.502 250.923 213.891C250.923 215.279 252.049 216.405 253.438 216.405Z" fill="#A073B2"/>
<path d="M239.728 202.695C241.116 202.695 242.242 201.57 242.242 200.181C242.242 198.792 241.116 197.667 239.728 197.667C238.339 197.667 237.213 198.792 237.213 200.181C237.213 201.57 238.339 202.695 239.728 202.695Z" fill="#A073B2"/>
</g>
<g clip-path="url(#clip2_4858_486)">
<path d="M278.128 110.297C275.172 108.176 274.723 103.414 277.054 98.8996L285.112 83.2539L301.521 95.021L289.281 107.655C285.741 111.323 281.088 112.421 278.128 110.297Z" fill="#221E57"/>
<path d="M365.14 110.297C368.096 108.177 368.545 103.414 366.214 98.8997L358.163 83.2644L341.754 95.0211L353.994 107.655C357.527 111.323 362.183 112.421 365.14 110.297Z" fill="#221E57"/>
<path d="M322.002 104.826C359.209 104.826 389.371 74.6638 389.371 37.4566C389.371 0.249355 359.209 -29.9131 322.002 -29.9131C284.794 -29.9131 254.632 0.249355 254.632 37.4566C254.632 74.6638 284.794 104.826 322.002 104.826Z" fill="#D84C53"/>
<path d="M389.372 37.4568C389.521 46.3308 387.898 55.1454 384.598 63.3844C379.559 75.8584 370.908 86.5424 359.755 94.0656C348.602 101.589 335.455 105.608 322.002 105.608C308.548 105.608 295.402 101.589 284.249 94.0656C273.096 86.5424 264.444 75.8584 259.405 63.3844C256.107 55.1452 254.485 46.3306 254.636 37.4568L254.777 40.7586C254.864 41.8569 254.977 42.9552 255.078 44.0501C255.178 45.1449 255.375 46.2294 255.523 47.3208C255.672 48.4122 255.927 49.4829 256.128 50.5605C257.036 54.8598 258.369 59.0583 260.106 63.0943C263.543 71.174 268.531 78.5009 274.788 84.6598C277.91 87.7192 281.313 90.4771 284.953 92.8971C294.09 98.9407 304.565 102.659 315.468 103.727C326.37 104.796 337.368 103.182 347.505 99.0275C363.884 92.2961 376.955 79.3878 383.89 63.0943C385.626 59.0577 386.959 54.8593 387.869 50.5605C388.069 49.4829 388.304 48.4053 388.474 47.3208C388.643 46.2363 388.791 45.1415 388.919 44.0501C389.047 42.9587 389.133 41.8569 389.22 40.7586L389.372 37.4568Z" fill="#231F20"/>
<path d="M254.636 37.4567C254.485 28.5829 256.107 19.7684 259.405 11.5291C264.444 -0.945992 273.095 -11.6311 284.248 -19.1552C295.402 -26.6793 308.549 -30.6992 322.003 -30.6992C335.458 -30.6992 348.605 -26.6793 359.759 -19.1552C370.912 -11.6311 379.563 -0.945992 384.602 11.5291C387.9 19.7683 389.522 28.5829 389.371 37.4567L389.23 34.1549C389.143 33.0566 389.03 31.9582 388.929 30.8634C388.829 29.7685 388.629 28.684 388.484 27.5961C388.339 26.5082 388.076 25.434 387.879 24.353C385.116 11.4087 378.634 -0.447296 369.229 -9.76012C366.107 -12.8185 362.704 -15.5754 359.064 -17.994C349.926 -24.0345 339.449 -27.7499 328.546 -28.8165C317.644 -29.8832 306.646 -28.2689 296.509 -24.1141C280.129 -17.3882 267.054 -4.48488 260.113 11.8054C258.379 15.8425 257.046 20.0407 256.134 24.3392C255.938 25.4202 255.703 26.4943 255.534 27.5788C255.364 28.6633 255.212 29.7582 255.088 30.8496C254.964 31.941 254.874 33.0427 254.787 34.141L254.636 37.4567Z" fill="#231F20"/>
<path d="M322.002 89.7229C350.867 89.7229 374.268 66.3225 374.268 37.4567C374.268 8.59083 350.867 -14.8096 322.002 -14.8096C293.136 -14.8096 269.735 8.59083 269.735 37.4567C269.735 66.3225 293.136 89.7229 322.002 89.7229Z" fill="#F8F9E3"/>
<path d="M269.739 37.4566C269.569 30.5626 270.786 23.7047 273.317 17.2899C275.89 10.832 279.725 4.95153 284.596 -0.00780688C289.468 -4.96715 295.279 -8.90596 301.69 -11.5941C313.008 -16.356 325.639 -16.9936 337.379 -13.3958C349.119 -9.79804 359.224 -2.19314 365.93 8.09249C369.719 13.8855 372.29 20.3883 373.487 27.2058C373.618 28.0554 373.774 28.8981 373.878 29.7512C373.981 30.6043 374.074 31.4574 374.143 32.3105C374.213 33.1636 374.233 34.0374 374.264 34.8801V37.4463L374.133 34.8836C374.061 34.0339 373.964 33.1843 373.881 32.3347C373.798 31.485 373.636 30.6458 373.536 29.803C373.435 28.9603 373.211 28.1314 373.052 27.2921C372.327 23.973 371.275 20.7337 369.913 17.6215C364.487 5.06104 354.361 -4.87737 341.702 -10.0675C329.083 -15.2184 314.948 -15.2184 302.329 -10.0675C289.67 -4.87468 279.545 5.06447 274.118 17.625C272.756 20.7372 271.704 23.9765 270.979 27.2956C270.82 28.1314 270.633 28.9672 270.495 29.8065C270.357 30.6458 270.24 31.4919 270.15 32.3381C270.06 33.1843 269.97 34.0374 269.894 34.887L269.739 37.4566Z" fill="#231F20"/>
<path d="M374.268 37.4568C374.437 44.3729 373.21 51.2521 370.662 57.6839C368.114 64.1157 364.297 69.9683 359.437 74.8924C352.743 81.7945 344.274 86.7152 334.963 89.1125C325.652 91.5099 315.859 91.2908 306.664 88.4796C297.47 85.6683 289.229 80.3739 282.85 73.1794C276.472 65.9849 272.202 57.1695 270.512 47.7042C270.385 46.8546 270.229 46.0084 270.122 45.1553C270.015 44.3022 269.925 43.4526 269.86 42.596C269.794 41.7395 269.766 40.8691 269.735 40.0299V37.4602L269.867 40.023C269.939 40.8726 270.036 41.7222 270.119 42.5719C270.202 43.4215 270.36 44.2607 270.464 45.1035C270.568 45.9462 270.785 46.7786 270.944 47.6144C271.673 50.9326 272.724 54.1716 274.084 57.285C279.509 69.8455 289.635 79.7839 302.294 84.9741C314.913 90.1249 329.048 90.1249 341.667 84.9741C349.52 81.7342 356.472 76.6429 361.931 70.1345C367.39 63.6261 371.194 55.8938 373.018 47.5971C373.176 46.7613 373.363 45.9289 373.501 45.0862C373.639 44.2435 373.76 43.4008 373.846 42.5546C373.933 41.7084 374.026 40.8553 374.099 40.0057L374.268 37.4568Z" fill="#231F20"/>
<path d="M365.837 40.0574C367.274 40.0574 368.438 38.893 368.438 37.4567C368.438 36.0203 367.274 34.856 365.837 34.856H356.194C354.758 34.856 353.594 36.0203 353.594 37.4567C353.594 38.893 354.758 40.0574 356.194 40.0574H365.837Z" fill="#A073B2"/>
<path d="M287.809 40.0574C289.245 40.0574 290.41 38.893 290.41 37.4567C290.41 36.0203 289.245 34.856 287.809 34.856H278.166C276.73 34.856 275.565 36.0203 275.565 37.4567C275.565 38.893 276.73 40.0574 278.166 40.0574H287.809Z" fill="#A073B2"/>
<path d="M319.401 81.2887C319.401 82.725 320.566 83.8894 322.002 83.8894C323.438 83.8894 324.603 82.725 324.603 81.2887V71.6457C324.603 70.2094 323.438 69.045 322.002 69.045C320.566 69.045 319.401 70.2094 319.401 71.6457V81.2887Z" fill="#A073B2"/>
<path d="M319.401 3.26062C319.401 4.69695 320.566 5.86133 322.002 5.86133C323.438 5.86133 324.603 4.69695 324.603 3.26062V-6.38236C324.603 -7.81869 323.438 -8.98307 322.002 -8.98307C320.566 -8.98307 319.401 -7.81869 319.401 -6.38236V3.26062Z" fill="#A073B2"/>
<path d="M304.998 69.0493L305.001 69.051C307.145 70.2393 309.846 69.4647 311.034 67.321L326.876 38.7416C328.065 36.5978 327.29 33.8966 325.146 32.7083L325.143 32.7066C322.999 31.5183 320.298 32.2928 319.11 34.4366L303.268 63.016C302.08 65.1598 302.854 67.861 304.998 69.0493Z" fill="#221E57"/>
<path d="M309.38 12.9301L309.377 12.9318C307.258 14.1633 306.538 16.8796 307.77 18.9989L319.214 38.6932C320.445 40.8125 323.162 41.5322 325.281 40.3007L325.284 40.299C327.403 39.0675 328.123 36.3511 326.891 34.2319L315.447 14.5376C314.216 12.4183 311.5 11.6986 309.38 12.9301Z" fill="#61388A"/>
<path d="M300.419 2.97051C302.02 2.97051 303.317 1.67315 303.317 0.0727808C303.317 -1.52759 302.02 -2.82495 300.419 -2.82495C298.819 -2.82495 297.521 -1.52759 297.521 0.0727808C297.521 1.67315 298.819 2.97051 300.419 2.97051Z" fill="#A073B2"/>
<path d="M284.618 18.7718C286.218 18.7718 287.516 17.4744 287.516 15.8741C287.516 14.2737 286.218 12.9763 284.618 12.9763C283.018 12.9763 281.72 14.2737 281.72 15.8741C281.72 17.4744 283.018 18.7718 284.618 18.7718Z" fill="#A073B2"/>
<path d="M284.618 61.9371C286.218 61.9371 287.516 60.6397 287.516 59.0393C287.516 57.439 286.218 56.1416 284.618 56.1416C283.018 56.1416 281.72 57.439 281.72 59.0393C281.72 60.6397 283.018 61.9371 284.618 61.9371Z" fill="#A073B2"/>
<path d="M300.419 77.7383C302.02 77.7383 303.317 76.441 303.317 74.8406C303.317 73.2402 302.02 71.9429 300.419 71.9429C298.819 71.9429 297.521 73.2402 297.521 74.8406C297.521 76.441 298.819 77.7383 300.419 77.7383Z" fill="#A073B2"/>
<path d="M343.584 77.7383C345.185 77.7383 346.482 76.441 346.482 74.8406C346.482 73.2402 345.185 71.9429 343.584 71.9429C341.984 71.9429 340.687 73.2402 340.687 74.8406C340.687 76.441 341.984 77.7383 343.584 77.7383Z" fill="#A073B2"/>
<path d="M359.386 61.9371C360.986 61.9371 362.283 60.6397 362.283 59.0393C362.283 57.439 360.986 56.1416 359.386 56.1416C357.785 56.1416 356.488 57.439 356.488 59.0393C356.488 60.6397 357.785 61.9371 359.386 61.9371Z" fill="#A073B2"/>
<path d="M359.386 18.7718C360.986 18.7718 362.283 17.4744 362.283 15.8741C362.283 14.2737 360.986 12.9763 359.386 12.9763C357.785 12.9763 356.488 14.2737 356.488 15.8741C356.488 17.4744 357.785 18.7718 359.386 18.7718Z" fill="#A073B2"/>
<path d="M343.584 2.97051C345.185 2.97051 346.482 1.67315 346.482 0.0727808C346.482 -1.52759 345.185 -2.82495 343.584 -2.82495C341.984 -2.82495 340.687 -1.52759 340.687 0.0727808C340.687 1.67315 341.984 2.97051 343.584 2.97051Z" fill="#A073B2"/>
</g>
<g clip-path="url(#clip3_4858_486)">
<path d="M354.208 259.051C356.984 259.051 359.234 256.801 359.234 254.026C359.234 251.25 356.984 249 354.208 249C351.433 249 349.183 251.25 349.183 254.026C349.183 256.801 351.433 259.051 354.208 259.051Z" fill="#221E57"/>
<path d="M440.977 259.051C443.753 259.051 446.003 256.801 446.003 254.026C446.003 251.25 443.753 249 440.977 249C438.202 249 435.952 251.25 435.952 254.026C435.952 256.801 438.202 259.051 440.977 259.051Z" fill="#221E57"/>
<path d="M406.001 250.61H389.21C388.669 250.61 388.133 250.717 387.633 250.924C387.132 251.131 386.678 251.435 386.295 251.818C385.912 252.201 385.608 252.655 385.401 253.155C385.194 253.655 385.087 254.192 385.087 254.733V257.942C385.087 258.483 385.194 259.019 385.401 259.52C385.608 260.02 385.912 260.474 386.295 260.857C386.678 261.24 387.132 261.544 387.633 261.751C388.133 261.958 388.669 262.065 389.21 262.065H393.811V271.602H401.401V262.065H406.001C407.095 262.065 408.144 261.63 408.918 260.857C409.691 260.084 410.126 259.035 410.127 257.942V254.733C410.126 253.639 409.691 252.591 408.918 251.818C408.144 251.044 407.095 250.61 406.001 250.61Z" fill="#221E57"/>
<path d="M364.354 265.058L357.484 268.225L363.652 281.604L370.522 278.437L364.354 265.058Z" fill="#221E57"/>
<path d="M383.575 264.307C383.44 263.968 383.288 263.629 383.138 263.292C381.939 260.692 380.24 258.353 378.137 256.409C376.035 254.465 373.57 252.955 370.883 251.963C368.197 250.972 365.341 250.52 362.48 250.632C359.619 250.745 356.808 251.419 354.207 252.618C351.607 253.817 349.268 255.516 347.324 257.619C345.38 259.722 343.869 262.187 342.878 264.873C341.887 267.56 341.435 270.415 341.547 273.276C341.659 276.138 342.334 278.949 343.533 281.549C343.688 281.886 343.852 282.216 344.022 282.544L383.575 264.307Z" fill="#FAF28C"/>
<path d="M383.141 263.284C380.718 258.033 376.309 253.96 370.883 251.96C365.457 249.959 359.46 250.196 354.208 252.617C353.535 252.928 352.888 253.267 352.262 253.635C352.262 253.635 362.227 250.645 374.909 268.298L383.575 264.307C383.443 263.968 383.287 263.629 383.141 263.284Z" fill="#FFFACA"/>
<path d="M424.695 278.438L431.564 281.605L437.732 268.226L430.863 265.059L424.695 278.438Z" fill="#221E57"/>
<path d="M411.639 264.307C411.777 263.968 411.927 263.629 412.079 263.292C413.278 260.692 414.977 258.353 417.08 256.409C419.183 254.465 421.647 252.955 424.334 251.963C427.02 250.972 429.876 250.52 432.737 250.632C435.599 250.745 438.41 251.419 441.01 252.618C443.611 253.817 445.95 255.516 447.893 257.619C449.837 259.722 451.348 262.187 452.339 264.873C453.33 267.56 453.782 270.415 453.67 273.276C453.558 276.138 452.883 278.949 451.684 281.549C451.526 281.886 451.365 282.216 451.193 282.544L411.639 264.307Z" fill="#FAF28C"/>
<path d="M412.079 263.284C413.356 260.516 415.199 258.047 417.489 256.035C419.779 254.023 422.465 252.513 425.374 251.604C428.283 250.694 431.351 250.403 434.379 250.752C437.407 251.1 440.329 252.079 442.955 253.626V253.626C442.955 253.626 432.993 250.636 420.311 268.289L411.639 264.29C411.777 263.968 411.924 263.629 412.079 263.284Z" fill="#FFFACA"/>
<path d="M367.44 271.748C368.768 271.093 370.091 270.426 371.422 269.779L375.418 267.832L379.412 265.871L383.417 263.948L383.221 264.442C381.432 260.17 378.316 256.587 374.334 254.221C371.045 252.268 367.291 251.233 363.465 251.225C359.639 251.218 355.881 252.237 352.584 254.178L352.262 252.982C352.403 252.981 352.541 253.026 352.654 253.112C352.767 253.197 352.848 253.317 352.885 253.454C352.922 253.591 352.912 253.736 352.858 253.866C352.803 253.997 352.707 254.105 352.584 254.175C350.26 255.535 348.219 257.328 346.572 259.457C343.233 263.76 341.649 269.168 342.139 274.592C342.394 277.296 343.152 279.928 344.373 282.355L343.858 282.179L348.024 280.336L352.204 278.522L356.379 276.708C357.771 276.095 359.174 275.512 360.568 274.914C359.208 275.586 357.851 276.274 356.485 276.926L352.391 278.922L348.297 280.917L344.186 282.901C344.096 282.944 343.993 282.951 343.898 282.921C343.804 282.89 343.724 282.824 343.677 282.737V282.737C340.94 277.709 340.273 271.812 341.819 266.3C343.353 260.747 346.985 256.008 351.949 253.083L352.273 254.276C352.134 254.275 351.998 254.229 351.887 254.144C351.776 254.059 351.696 253.94 351.658 253.805C351.621 253.67 351.629 253.527 351.681 253.397C351.733 253.267 351.826 253.158 351.946 253.086C354.725 251.434 357.833 250.412 361.05 250.092C364.267 249.772 367.515 250.162 370.565 251.234C372.082 251.764 373.539 252.452 374.912 253.287C379.03 255.83 382.201 259.651 383.943 264.166V264.181C383.978 264.271 383.976 264.372 383.939 264.461C383.901 264.551 383.831 264.622 383.742 264.661L379.676 266.446L375.599 268.218L371.525 269.991C370.168 270.592 368.8 271.165 367.44 271.748Z" fill="#231F20"/>
<path d="M360.574 274.917C360.916 275.434 361.235 275.963 361.548 276.495C361.862 277.027 362.169 277.562 362.466 278.099C362.762 278.637 363.055 279.18 363.328 279.724C363.601 280.267 363.903 280.814 364.176 281.363L363.403 281.075C365.659 279.946 367.948 278.892 370.272 277.913L369.984 278.686C369.744 278.111 369.513 277.542 369.288 276.978C369.061 276.403 368.834 275.828 368.621 275.253C368.408 274.678 368.196 274.103 367.994 273.514C367.793 272.924 367.603 272.343 367.419 271.745C367.759 272.266 368.081 272.792 368.394 273.324C368.708 273.856 369.015 274.39 369.311 274.931C369.607 275.472 369.901 276.009 370.174 276.553C370.447 277.096 370.749 277.642 371.022 278.191C371.086 278.325 371.096 278.479 371.049 278.62C371.002 278.761 370.903 278.878 370.772 278.948L370.734 278.965C368.48 280.096 366.191 281.15 363.866 282.128L363.828 282.142C363.692 282.197 363.54 282.198 363.403 282.145C363.266 282.091 363.155 281.987 363.092 281.854C362.854 281.279 362.621 280.722 362.397 280.149C362.172 279.577 361.942 278.999 361.73 278.424C361.517 277.849 361.304 277.274 361.103 276.699C360.901 276.124 360.743 275.512 360.574 274.917Z" fill="#231F20"/>
<path d="M434.649 274.916C436.046 275.514 437.447 276.101 438.838 276.711L443.016 278.522L447.193 280.339L451.359 282.179L450.845 282.354C453.317 277.477 453.831 271.84 452.282 266.596C451.522 264.011 450.283 261.591 448.631 259.463C446.984 257.334 444.944 255.541 442.622 254.181C442.501 254.111 442.406 254.002 442.352 253.872C442.299 253.743 442.289 253.599 442.326 253.464C442.362 253.328 442.442 253.208 442.553 253.123C442.664 253.037 442.801 252.991 442.941 252.991L442.654 254.192C441.332 253.423 439.935 252.792 438.485 252.309C437.042 251.829 435.552 251.507 434.04 251.349C431.003 251.032 427.934 251.368 425.038 252.335C422.126 253.308 419.457 254.892 417.208 256.981C414.959 259.07 413.183 261.616 411.999 264.448L411.803 263.951L415.808 265.877L419.802 267.829L423.795 269.779C425.13 270.423 426.452 271.093 427.78 271.748C426.418 271.173 425.052 270.598 423.695 270L419.618 268.229L415.544 266.446L411.478 264.652C411.389 264.613 411.319 264.541 411.281 264.451C411.244 264.361 411.242 264.26 411.277 264.169V264.155C412.428 261.161 414.218 258.454 416.521 256.222C417.672 255.103 418.943 254.115 420.311 253.275C423.063 251.586 426.15 250.515 429.357 250.138C432.564 249.761 435.815 250.086 438.884 251.09C440.409 251.588 441.875 252.25 443.257 253.063H443.28C443.4 253.135 443.493 253.244 443.545 253.374C443.597 253.504 443.605 253.647 443.568 253.782C443.53 253.917 443.45 254.036 443.339 254.121C443.228 254.206 443.092 254.252 442.953 254.253V254.253L443.277 253.06C446.349 254.882 448.939 257.414 450.83 260.443C452.721 263.473 453.858 266.912 454.145 270.471C454.484 274.724 453.579 278.984 451.541 282.731C451.493 282.818 451.414 282.883 451.32 282.913C451.226 282.944 451.124 282.937 451.035 282.895L446.929 280.923L442.835 278.927L438.74 276.929C437.366 276.274 436.012 275.589 434.649 274.916Z" fill="#231F20"/>
<path d="M427.78 271.748C427.605 272.346 427.412 272.933 427.205 273.516C426.998 274.1 426.797 274.681 426.579 275.241C426.36 275.802 426.139 276.391 425.911 276.966C425.684 277.541 425.454 278.116 425.216 278.674L424.928 277.901C427.251 278.88 429.542 279.935 431.8 281.064L431.023 281.351C431.311 280.802 431.581 280.256 431.872 279.712C432.162 279.169 432.447 278.625 432.734 278.088C433.022 277.55 433.338 277.015 433.651 276.483C433.965 275.952 434.287 275.422 434.626 274.905C434.454 275.5 434.261 276.087 434.051 276.673C433.841 277.26 433.643 277.823 433.424 278.398C433.206 278.973 432.984 279.548 432.757 280.123C432.53 280.698 432.3 281.273 432.061 281.831C432.001 281.967 431.891 282.074 431.754 282.13C431.617 282.186 431.463 282.187 431.325 282.133V282.133L431.291 282.119C428.964 281.135 426.673 280.081 424.419 278.956L424.385 278.939C424.254 278.869 424.155 278.752 424.109 278.612C424.062 278.472 424.072 278.319 424.135 278.185C424.411 277.635 424.698 277.09 424.997 276.55C425.285 276.003 425.572 275.46 425.86 274.925C426.147 274.39 426.464 273.85 426.777 273.318C427.09 272.786 427.438 272.268 427.78 271.748Z" fill="#231F20"/>
<path d="M397.609 379.552C428.582 379.552 453.691 354.443 453.691 323.469C453.691 292.495 428.582 267.386 397.609 267.386C366.635 267.386 341.526 292.495 341.526 323.469C341.526 354.443 366.635 379.552 397.609 379.552Z" fill="#D84C53"/>
<path d="M453.691 323.469C453.816 330.856 452.465 338.194 449.718 345.053C445.523 355.437 438.321 364.331 429.037 370.594C419.752 376.856 408.808 380.202 397.609 380.202C386.409 380.202 375.465 376.856 366.181 370.594C356.896 364.331 349.694 355.437 345.5 345.053C342.754 338.194 341.404 330.856 341.529 323.469L341.647 326.218C341.719 327.132 341.814 328.046 341.897 328.958C341.98 329.869 342.144 330.772 342.268 331.68C342.392 332.589 342.604 333.48 342.771 334.377C343.527 337.956 344.637 341.451 346.083 344.811C348.944 351.537 353.096 357.637 358.305 362.764C360.904 365.31 363.737 367.606 366.767 369.621C374.373 374.652 383.094 377.747 392.169 378.636C401.245 379.526 410.401 378.183 418.839 374.724C432.474 369.121 443.355 358.375 449.128 344.811C450.574 341.451 451.683 337.956 452.441 334.377C452.607 333.48 452.803 332.583 452.944 331.68C453.085 330.778 453.208 329.866 453.315 328.958C453.421 328.049 453.493 327.132 453.565 326.218L453.691 323.469Z" fill="#231F20"/>
<path d="M341.529 323.469C341.404 316.082 342.754 308.744 345.5 301.885C349.694 291.5 356.896 282.605 366.181 276.342C375.465 270.078 386.41 266.732 397.61 266.732C408.81 266.732 419.755 270.078 429.04 276.342C438.324 282.605 445.526 291.5 449.721 301.885C452.467 308.744 453.816 316.082 453.691 323.469L453.573 320.72C453.501 319.806 453.407 318.892 453.323 317.98C453.24 317.069 453.073 316.166 452.952 315.26C452.831 314.355 452.613 313.461 452.449 312.561C450.149 301.785 444.753 291.915 436.923 284.163C434.325 281.617 431.492 279.322 428.462 277.309C420.854 272.28 412.133 269.187 403.057 268.299C393.981 267.411 384.825 268.755 376.387 272.214C362.751 277.813 351.867 288.554 346.089 302.115C344.645 305.476 343.535 308.971 342.777 312.549C342.613 313.449 342.417 314.343 342.276 315.246C342.136 316.149 342.009 317.06 341.906 317.969C341.802 318.877 341.727 319.795 341.655 320.709L341.529 323.469Z" fill="#231F20"/>
<path d="M397.609 366.979C421.638 366.979 441.118 347.499 441.118 323.469C441.118 299.439 421.638 279.959 397.609 279.959C373.579 279.959 354.099 299.439 354.099 323.469C354.099 347.499 373.579 366.979 397.609 366.979Z" fill="#F8F9E3"/>
<path d="M354.102 323.469C353.96 317.73 354.973 312.021 357.081 306.681C359.223 301.305 362.415 296.41 366.47 292.281C370.525 288.153 375.363 284.874 380.7 282.636C390.122 278.672 400.636 278.141 410.409 281.136C420.183 284.131 428.594 290.462 434.177 299.025C437.331 303.847 439.471 309.26 440.468 314.936C440.578 315.643 440.707 316.344 440.793 317.055C440.879 317.765 440.957 318.475 441.015 319.185C441.072 319.895 441.089 320.623 441.115 321.324V323.46L441.006 321.327C440.946 320.62 440.865 319.913 440.796 319.205C440.727 318.498 440.592 317.799 440.509 317.098C440.425 316.396 440.238 315.706 440.106 315.008C439.502 312.244 438.627 309.548 437.493 306.957C432.976 296.501 424.547 288.228 414.008 283.907C403.503 279.619 391.737 279.619 381.232 283.907C370.694 288.23 362.265 296.504 357.748 306.96C356.613 309.551 355.738 312.247 355.134 315.01C355.002 315.706 354.847 316.402 354.732 317.101C354.617 317.799 354.519 318.504 354.444 319.208C354.369 319.913 354.295 320.623 354.231 321.33L354.102 323.469Z" fill="#231F20"/>
<path d="M441.118 323.469C441.259 329.226 440.238 334.953 438.117 340.307C435.996 345.662 432.818 350.534 428.772 354.633C423.2 360.378 416.15 364.475 408.398 366.47C400.647 368.466 392.495 368.284 384.841 365.943C377.187 363.603 370.327 359.196 365.017 353.207C359.707 347.218 356.153 339.879 354.746 332C354.64 331.292 354.51 330.588 354.421 329.878C354.332 329.168 354.257 328.46 354.203 327.747C354.148 327.034 354.125 326.31 354.099 325.611V323.472L354.208 325.605C354.269 326.313 354.349 327.02 354.418 327.727C354.487 328.434 354.62 329.133 354.706 329.835C354.792 330.536 354.973 331.229 355.105 331.925C355.712 334.687 356.587 337.383 357.719 339.975C362.235 350.431 370.665 358.705 381.203 363.025C391.708 367.313 403.475 367.313 413.98 363.025C420.517 360.328 426.304 356.09 430.849 350.672C435.393 345.254 438.559 338.817 440.077 331.91C440.21 331.215 440.365 330.522 440.48 329.82C440.595 329.119 440.696 328.417 440.767 327.713C440.839 327.008 440.917 326.298 440.977 325.591L441.118 323.469Z" fill="#231F20"/>
<path d="M434.1 325.634C435.296 325.634 436.265 324.665 436.265 323.469C436.265 322.274 435.296 321.304 434.1 321.304H426.073C424.877 321.304 423.908 322.274 423.908 323.469C423.908 324.665 424.877 325.634 426.073 325.634H434.1Z" fill="#A073B2"/>
<path d="M369.145 325.634C370.34 325.634 371.31 324.665 371.31 323.469C371.31 322.273 370.34 321.304 369.145 321.304H361.117C359.922 321.304 358.952 322.273 358.952 323.469C358.952 324.665 359.922 325.634 361.117 325.634H369.145Z" fill="#A073B2"/>
<path d="M395.443 295.002C395.443 296.198 396.413 297.167 397.608 297.167C398.804 297.167 399.773 296.198 399.773 295.002V286.975C399.773 285.779 398.804 284.81 397.608 284.81C396.413 284.81 395.443 285.779 395.443 286.975V295.002Z" fill="#A073B2"/>
<path d="M383.454 349.768L383.456 349.77C385.241 350.759 387.489 350.114 388.479 348.33L401.666 324.539C402.656 322.754 402.011 320.505 400.226 319.516L400.224 319.515C398.439 318.525 396.19 319.17 395.201 320.955L382.013 344.746C381.024 346.531 381.669 348.779 383.454 349.768Z" fill="#221E57"/>
<path d="M387.102 303.052L387.1 303.053C385.335 304.078 384.736 306.339 385.761 308.104L395.288 324.498C396.313 326.262 398.574 326.862 400.339 325.836L400.341 325.835C402.105 324.81 402.705 322.549 401.679 320.784L392.153 304.39C391.128 302.625 388.866 302.026 387.102 303.052Z" fill="#61388A"/>
<path d="M379.642 294.761C380.974 294.761 382.054 293.681 382.054 292.349C382.054 291.016 380.974 289.936 379.642 289.936C378.309 289.936 377.229 291.016 377.229 292.349C377.229 293.681 378.309 294.761 379.642 294.761Z" fill="#A073B2"/>
<path d="M366.488 307.915C367.82 307.915 368.9 306.835 368.9 305.502C368.9 304.17 367.82 303.09 366.488 303.09C365.156 303.09 364.076 304.17 364.076 305.502C364.076 306.835 365.156 307.915 366.488 307.915Z" fill="#A073B2"/>
<path d="M366.488 343.848C367.82 343.848 368.9 342.768 368.9 341.436C368.9 340.104 367.82 339.024 366.488 339.024C365.156 339.024 364.076 340.104 364.076 341.436C364.076 342.768 365.156 343.848 366.488 343.848Z" fill="#A073B2"/>
<path d="M428.729 343.848C430.061 343.848 431.141 342.768 431.141 341.436C431.141 340.104 430.061 339.024 428.729 339.024C427.397 339.024 426.317 340.104 426.317 341.436C426.317 342.768 427.397 343.848 428.729 343.848Z" fill="#A073B2"/>
<path d="M428.729 307.915C430.061 307.915 431.141 306.835 431.141 305.502C431.141 304.17 430.061 303.09 428.729 303.09C427.397 303.09 426.317 304.17 426.317 305.502C426.317 306.835 427.397 307.915 428.729 307.915Z" fill="#A073B2"/>
<path d="M415.575 294.761C416.908 294.761 417.988 293.681 417.988 292.349C417.988 291.016 416.908 289.936 415.575 289.936C414.243 289.936 413.163 291.016 413.163 292.349C413.163 293.681 414.243 294.761 415.575 294.761Z" fill="#A073B2"/>
</g>
</g>
<defs>
<clipPath id="clip0_4858_486">
<rect width="895" height="345" fill="white"/>
</clipPath>
<clipPath id="clip1_4858_486">
<rect width="118" height="141.749" fill="white" transform="translate(162 155)"/>
</clipPath>
<clipPath id="clip2_4858_486">
<rect width="136" height="163.371" fill="white" transform="translate(254 -52)"/>
</clipPath>
<clipPath id="clip3_4858_486">
<rect width="113.215" height="136" fill="white" transform="translate(341 249)"/>
</clipPath>
</defs>
</svg>
