<svg width="522" height="972" viewBox="0 0 522 972" fill="none" xmlns="http://www.w3.org/2000/svg">
<g clip-path="url(#clip0_4724_760)">
<path d="M270.75 971.88C383.317 971.88 474.57 949.763 474.57 922.48C474.57 895.197 383.317 873.08 270.75 873.08C158.183 873.08 66.9299 895.197 66.9299 922.48C66.9299 949.763 158.183 971.88 270.75 971.88Z" fill="#A7A9AC"/>
<path d="M269.06 924.28C267.49 924.28 265.83 924.28 264.06 924.21C262.29 924.14 260.73 924.28 259.27 924.28C258.012 924.282 256.758 924.124 255.54 923.81C253.77 923.69 252.08 923.56 250.43 923.4C247.43 923.11 244.34 922.75 241.36 922.32C238.38 921.89 235.42 921.4 232.51 920.84C231.06 920.56 229.61 920.26 228.18 919.94C198.89 913.52 175.51 900.68 161.94 883.66C152.627 877.471 144.377 869.815 137.51 860.99L126.11 845.94L123.61 842.62C121.61 839.93 119.61 837.26 117.61 834.62L114.96 831.02C112.87 828.19 110.86 825.42 108.87 822.66L108.75 822.48L106.75 819.62L106.63 819.45C104.52 816.45 102.51 813.56 100.63 810.81L100.56 810.72C97.84 806.72 95.26 802.72 92.9 798.97C92.8631 798.919 92.8297 798.866 92.8 798.81C90.32 794.81 87.98 790.92 85.85 787.12L85.8 787.04C83.54 783.04 81.43 779.04 79.55 775.13L79.5 775.02C71.81 759.18 67.21 744.55 65.39 730.2C58.92 679.31 2.24997 566.2 1.66997 565.1C0.279004 562.341 -0.225905 559.219 0.22426 556.162C0.674425 553.105 2.05769 550.262 4.18498 548.021C6.31228 545.78 9.07979 544.25 12.1092 543.642C15.1386 543.033 18.2821 543.375 21.11 544.62C37.42 551.8 54.11 561.91 70.34 574.38C68.34 563.46 66.42 549.59 64.82 531.87C62.16 502.21 61.66 476.07 61.64 474.97C61.5878 472.15 62.3316 469.373 63.786 466.957C65.2404 464.541 67.3465 462.583 69.8626 461.31C72.3788 460.036 75.2031 459.497 78.0114 459.756C80.8198 460.014 83.4984 461.059 85.74 462.77C89.88 465.93 187.44 540.69 211.13 588.77C216.48 599.61 223.75 617.43 231.64 639.33V374.53C173.559 355.772 124.371 316.368 93.39 263.78C92.26 261.86 91.11 259.86 90 257.85C89.58 257.11 89.18 256.36 88.78 255.61L87.89 253.95C87.53 253.28 87.16 252.61 86.81 251.95C86.11 250.61 85.44 249.26 84.76 247.95L84.36 247.14L83.82 246.07C82.99 244.37 82.2 242.68 81.42 240.99L81.01 240.13C80.2 238.35 79.39 236.51 78.53 234.49C78.53 234.49 78.39 234.17 78.37 234.13C77.56 232.22 76.73 230.21 75.92 228.13C74.36 224.13 72.87 220.13 71.49 216.02V215.9C54.3114 165.052 54.0273 110.013 70.68 58.9901C71.6444 55.9676 73.5424 53.3287 76.1011 51.4529C78.6598 49.577 81.7473 48.5607 84.92 48.5501C85.8729 48.5521 86.8237 48.6425 87.76 48.8201C125.311 56.0202 160.723 71.6948 191.3 94.6501C192.43 91.9901 193.6 89.3501 194.81 86.7501V86.6601C209.568 54.9485 230.82 26.6889 257.19 3.7101C259.945 1.3013 263.486 -0.0171003 267.146 0.00315977C270.806 0.0234198 274.332 1.38094 277.06 3.8201C302.327 26.3557 322.757 53.7863 337.11 84.4501V84.5401C338.05 86.5401 338.98 88.5401 339.86 90.6001V90.7101C340.16 91.4001 340.46 92.1101 340.76 92.8201C370.806 70.835 405.356 55.7932 441.92 48.7801C442.856 48.6016 443.807 48.5112 444.76 48.5101C447.935 48.5158 451.026 49.5287 453.588 51.4029C456.151 53.2772 458.053 55.9162 459.02 58.9401C476.883 114.233 475.017 174.009 453.74 228.08C453.745 228.096 453.745 228.114 453.74 228.13C452.93 230.13 452.11 232.19 451.3 234.13L451.12 234.54C450.28 236.54 449.47 238.35 448.66 240.11L448.26 240.96C447.47 242.68 446.68 244.37 445.85 246.06C445.68 246.42 445.49 246.78 445.31 247.14L444.92 247.78C444.22 249.17 443.53 250.57 442.81 251.95C442.46 252.61 442.11 253.27 441.75 253.95L440.83 255.65C440.43 256.4 440.03 257.15 439.61 257.9C438.5 259.9 437.36 261.9 436.22 263.82C405.261 316.378 356.111 355.766 298.07 374.53V646.98C302.98 634.25 307.36 623.98 310.77 617.11C332.1 573.82 415.77 509.22 425.23 502C427.408 500.339 429.999 499.307 432.723 499.014C435.446 498.722 438.198 499.18 440.679 500.341C443.16 501.501 445.276 503.318 446.797 505.596C448.319 507.873 449.188 510.524 449.31 513.26C449.36 514.39 450.52 541.26 449.51 571.94C447.73 626.33 440.51 646.12 436.26 654.13C456.06 639.97 478.47 627.66 501.78 620.53C504.733 619.628 507.892 619.659 510.827 620.62C513.761 621.58 516.328 623.422 518.177 625.895C520.025 628.368 521.065 631.352 521.156 634.438C521.246 637.524 520.381 640.563 518.68 643.14C518.07 644.06 457.57 736 446.84 779.14C439.6 808.24 420.02 833.52 392.84 862.54L392.76 862.62C390.18 865.37 387.34 868.38 384.05 871.81L383.87 872.01L375 881.24L370.44 885.98C361.92 894.86 350.55 902.29 336.65 908.08C331.464 910.229 326.158 912.079 320.76 913.62C318.76 914.19 316.68 914.74 314.56 915.26C303.549 919.104 292.146 921.717 280.56 923.05C278.08 923.34 275.56 923.59 273.01 923.78C271.721 924.122 270.393 924.29 269.06 924.28Z" fill="#231F20"/>
<path d="M283.07 228.89H246.57V873.07H283.07V228.89Z" fill="#4CA84E"/>
<path d="M345.755 192.111C346.3 94.5402 280.5 14.9987 267.083 14.9986C250.5 14.9986 186.983 93.6504 186.438 191.221C185.893 288.792 264.5 366.5 264.5 366.5C264.5 366.5 345.21 289.681 345.755 192.111Z" fill="#D91F26"/>
<path d="M286.23 138.62C277.381 153.569 270.202 169.444 264.82 185.96C253.44 151.051 234.12 119.255 208.38 93.0703C191.691 129.004 184.317 168.561 186.939 208.094C189.56 247.628 202.093 285.865 223.38 319.28C236.795 324.513 250.659 328.513 264.8 331.23C279.621 328.377 294.137 324.118 308.15 318.51C329.766 284.951 342.516 246.457 345.207 206.63C347.899 166.802 340.444 126.943 323.54 90.7803C309.097 105.055 296.557 121.135 286.23 138.62Z" fill="#951B1E"/>
<path d="M422.5 257.5C472.262 173.588 453 95 445.241 64.2738C433.5 64.2737 336.393 91.6713 286.631 175.583C236.869 259.495 227.201 345.709 265.037 368.146C295.5 358 372.738 341.412 422.5 257.5Z" fill="#F16465"/>
<path d="M423.34 256.16C440.387 227.419 451.114 195.375 454.806 162.163C458.498 128.951 455.07 95.3336 444.75 63.5503C444.75 63.5503 463.38 245.78 264.82 367.64C297.646 361.386 328.762 348.209 356.096 328.986C383.43 309.764 406.354 284.937 423.34 256.16Z" fill="#D91F26"/>
<path opacity="0.62" d="M254.11 276C368.99 319.83 442.86 212.72 444 211.07C430.675 250.698 407.064 286.075 375.582 313.584C344.1 341.094 305.876 359.748 264.82 367.64C255.276 338.091 251.637 306.954 254.11 276Z" fill="#7C131A"/>
<path d="M264.816 367.679C276 332.5 293.5 276 243.417 175.065C193.334 74.1308 113 72.5 84.8985 63.576C77 93 56.6148 172.214 106.298 256.19C155.981 340.166 243.417 363.5 264.816 367.679Z" fill="#F1594B"/>
<path d="M106.3 256.16C89.2579 227.417 78.5363 195.372 74.8498 162.16C71.1632 128.948 74.5962 95.3315 84.9201 63.5503C84.9201 63.5503 66.2701 245.78 264.82 367.64C231.995 361.385 200.879 348.207 173.545 328.985C146.212 309.762 123.288 284.936 106.3 256.16Z" fill="#D91F26"/>
<path d="M413.56 129.39C420.712 129.39 426.51 123.592 426.51 116.44C426.51 109.288 420.712 103.49 413.56 103.49C406.408 103.49 400.61 109.288 400.61 116.44C400.61 123.592 406.408 129.39 413.56 129.39Z" fill="#F6FAFE"/>
<path opacity="0.62" d="M275.54 276C160.65 319.83 86.7799 212.72 85.6499 211.07C98.9699 250.699 122.578 286.078 154.059 313.588C185.54 341.098 223.764 359.752 264.82 367.64C274.367 338.092 280 308 275.54 276Z" fill="#951B1E"/>
<path d="M378.871 153.434C392.665 142.653 397.716 126.068 390.152 116.39C382.588 106.712 365.274 107.607 351.48 118.388C337.686 129.169 332.635 145.754 340.199 155.432C347.763 165.109 365.077 164.215 378.871 153.434Z" fill="#F6FAFE"/>
<path d="M243 311.33C239.064 311.326 235.277 309.825 232.407 307.133C229.536 304.441 227.796 300.757 227.54 296.83C227.54 296.09 223.24 235.15 200.03 198.64C198.913 196.922 198.149 195 197.78 192.985C197.411 190.97 197.445 188.902 197.88 186.9C198.315 184.898 199.143 183.003 200.316 181.323C201.488 179.643 202.982 178.212 204.711 177.113C206.44 176.014 208.369 175.268 210.388 174.92C212.407 174.571 214.474 174.626 216.472 175.081C218.469 175.537 220.356 176.383 222.024 177.573C223.693 178.762 225.108 180.27 226.19 182.01C253.73 225.33 258.3 292.01 258.48 294.83C258.612 296.862 258.342 298.899 257.686 300.827C257.03 302.754 256 304.533 254.657 306.063C253.313 307.592 251.681 308.842 249.854 309.74C248.027 310.639 246.042 311.169 244.01 311.3L243 311.33Z" fill="#F16465"/>
<path d="M130.79 728.07C123.69 659.55 15 558.35 15 558.35C15 558.35 73.33 674.24 80.2 728.3C85.43 769.47 116.56 808.46 149.42 851.94C166.99 875.19 204.3 892.78 246.57 897.78C246.57 897.78 142.65 842.53 130.79 728.07Z" fill="#4CA84E"/>
<path d="M152.33 704.6C145.48 669.11 84.28 588.78 15 558.35C15 558.35 123.69 659.55 130.79 728.07C142.65 842.53 246.57 897.78 246.57 897.78C246.57 897.78 159.18 740.09 152.33 704.6Z" fill="#66BE64"/>
<path d="M130.79 728.07C123.69 659.55 15 558.35 15 558.35C15 558.35 73.33 674.24 80.2 728.3C85.43 769.47 116.56 808.46 149.42 851.94C166.99 875.19 204.3 892.78 246.57 897.78C246.57 897.78 142.65 842.53 130.79 728.07Z" fill="#4CA84E"/>
<path d="M152.33 704.6C145.48 669.11 84.28 588.78 15 558.35C15 558.35 123.69 659.55 130.79 728.07C142.65 842.53 246.57 897.78 246.57 897.78C246.57 897.78 159.18 740.09 152.33 704.6Z" fill="#66BE64"/>
<g style="mix-blend-mode:multiply">
<path d="M212.66 834.86C199.12 830.86 183.37 826.03 169.12 821.04C145.75 812.86 109.63 780.04 89.1201 760.04C101.74 790.04 125.12 819.74 149.44 851.93C166.99 875.19 204.3 892.78 246.57 897.78C246.57 897.78 231.1 869.86 212.66 834.86Z" fill="#4CA84E"/>
</g>
<path d="M388.46 770.12C401.62 711.46 506.16 634.87 506.16 634.87C506.16 634.87 443.76 729.34 432.28 775.5C423.54 810.64 392.57 841.25 359.64 875.57C342.03 893.92 307.9 905.37 270.75 905.37C270.75 905.37 366.47 868.11 388.46 770.12Z" fill="#4CA84E"/>
<path d="M372.19 747.58C381.76 717.58 443.01 654.19 506.19 634.87C506.19 634.87 401.65 711.46 388.49 770.12C366.49 868.12 270.78 905.37 270.78 905.37C270.78 905.37 362.62 777.64 372.19 747.58Z" fill="#66BE64"/>
<g style="mix-blend-mode:multiply">
<path d="M331.26 817.78C302.99 860.57 270.75 905.39 270.75 905.39C307.9 905.39 342.03 893.94 359.64 875.59C383.95 850.25 407.19 826.93 421.2 802.32C385.48 818.17 353.7 819.86 331.26 817.78Z" fill="#4CA84E"/>
</g>
<g style="mix-blend-mode:multiply">
<path d="M181.92 682.27C180.579 675.268 178.707 668.378 176.32 661.66C178.75 706.93 183.64 793.66 186.44 811.89C174.367 794.105 163.399 775.593 153.6 756.46C161.92 792.23 174.31 829.21 191.79 861.7C198.579 874.328 208.662 884.881 220.968 892.237C233.274 899.593 247.343 903.479 261.68 903.48C261.68 903.48 189.44 724.4 181.92 682.27Z" fill="#4CA84E"/>
</g>
<path d="M324.22 623.78C344.61 582.4 434.33 513.97 434.33 513.97C434.33 513.97 396.68 612.28 381.08 630.28C368.08 645.28 356.58 695.64 346.77 711.64C336.96 727.64 334.33 773.3 314.72 831.91C295.11 890.52 259.22 909.32 259.22 909.32C247.92 830.28 303.83 665.13 324.22 623.78Z" fill="#66BE64"/>
<path d="M346.77 711.6C356.58 695.6 368.06 645.28 381.08 630.24C396.68 612.24 434.33 513.93 434.33 513.93C434.33 513.93 439.11 622.1 421.54 649.58C400.54 682.34 392.1 711.43 385.3 770.37C381.56 802.78 365.07 841.49 350.97 869.78C339.34 893.17 301.92 909.28 259.22 909.28C259.22 909.28 295.11 890.49 314.72 831.87C334.33 773.25 336.97 727.61 346.77 711.6Z" fill="#4CA84E"/>
<g style="mix-blend-mode:multiply">
<path d="M350.97 869.78C365.07 841.45 381.56 802.71 385.3 770.33C385.88 765.25 386.48 760.41 387.1 755.75C339.26 837.66 261.67 846.96 261.67 846.96L260.25 848.16C257.47 871.16 256.77 892.16 259.25 909.24C301.92 909.28 339.34 893.17 350.97 869.78Z" fill="#4CA84E"/>
</g>
<path d="M197.61 595.41C175.2 549.92 76.6099 474.69 76.6099 474.69C76.6099 474.69 117.92 582.78 135.1 602.55C149.42 619.08 162.04 674.39 172.82 691.98C183.6 709.57 186.5 759.78 208.05 824.19C229.6 888.6 269.05 909.28 269.05 909.28C281.51 822.44 220.02 640.9 197.61 595.41Z" fill="#66BE64"/>
<path d="M172.82 691.98C162.04 674.39 149.42 619.08 135.1 602.55C117.92 582.78 76.5701 474.69 76.5701 474.69C76.5701 474.69 78.4501 580.14 95.9201 604.95C113.39 629.76 123 691.78 130.47 756.58C134.57 792.18 152.7 834.76 168.21 865.9C180.98 891.57 222.16 909.28 269.06 909.28C269.06 909.28 229.6 888.62 208.06 824.19C186.52 759.76 183.59 709.58 172.82 691.98Z" fill="#4CA84E"/>
<g style="mix-blend-mode:multiply">
<path d="M124.73 711.6C126.81 726.14 128.73 741.28 130.47 756.6C134.57 792.2 152.7 834.78 168.21 865.92C180.98 891.59 222.16 909.3 269.06 909.3C272.79 883.3 269.89 848.85 263.4 812.09C182.92 828.45 124.74 711.62 124.73 711.6Z" fill="#4CA84E"/>
</g>
</g>
<defs>
<clipPath id="clip0_4724_760">
<rect width="521.16" height="971.88" fill="white"/>
</clipPath>
</defs>
</svg>
