<svg width="837" height="541" viewBox="0 0 837 541" fill="none" xmlns="http://www.w3.org/2000/svg">
<g clip-path="url(#clip0_2097_270)">
<path d="M71.0401 348.18C95.0401 317.5 173.49 381.75 150.56 481.85C150.56 481.84 47.0201 378.84 71.0401 348.18Z" fill="#1D6F5E"/>
<path d="M71.04 348.18C72.2012 346.546 73.5883 345.085 75.16 343.84C76.7718 342.598 78.5665 341.613 80.48 340.92C84.3861 339.637 88.5451 339.322 92.6 340C96.6318 340.66 100.546 341.903 104.22 343.69C107.884 345.445 111.362 347.566 114.6 350.02C121.059 354.918 126.816 360.678 131.71 367.14C136.584 373.584 140.767 380.522 144.19 387.84C147.563 395.16 150.242 402.78 152.19 410.6C154.101 418.416 155.306 426.388 155.79 434.42C156.732 450.409 154.963 466.441 150.56 481.84C153.391 466.281 154.11 450.411 152.7 434.66C151.934 426.858 150.543 419.13 148.54 411.55C146.552 403.988 143.874 396.623 140.54 389.55C137.278 382.454 133.3 375.709 128.67 369.42C124.081 363.117 118.704 357.427 112.67 352.49C109.658 350.041 106.424 347.878 103.01 346.03C99.6286 344.153 95.9947 342.772 92.22 341.93C88.4557 341.045 84.5349 341.065 80.78 341.99C76.9957 343.052 73.6079 345.205 71.04 348.18Z" fill="#231F20"/>
<path d="M150.56 481.84C140.494 472.762 130.892 463.184 121.79 453.14C117.19 448.14 112.79 443.01 108.39 437.83C103.99 432.65 99.85 427.28 95.75 421.83C87.69 410.91 80.04 399.56 74.12 387.21C71.0466 381.072 68.7843 374.561 67.39 367.84C66.7109 364.439 66.5793 360.952 67 357.51C67.2232 355.791 67.6738 354.11 68.34 352.51C69.0226 350.945 69.9324 349.489 71.04 348.19C69.1988 350.993 68.1835 354.257 68.11 357.61C68.0041 360.922 68.4089 364.231 69.31 367.42C70.1531 370.636 71.243 373.782 72.57 376.83C73.9034 379.89 75.35 382.89 76.91 385.83C78.49 388.83 80.17 391.68 81.91 394.55C83.65 397.42 85.46 400.23 87.32 403.02C91.04 408.62 94.9267 414.103 98.98 419.47C102.98 424.89 107.12 430.19 111.34 435.47C115.56 440.75 119.85 445.92 124.15 451.12C132.803 461.447 141.607 471.687 150.56 481.84Z" fill="#231F20"/>
<path d="M82.72 348.52C85.1739 350.13 87.5313 351.883 89.78 353.77C92.05 355.64 94.22 357.62 96.36 359.64C100.607 363.738 104.614 368.079 108.36 372.64C115.852 381.773 122.38 391.655 127.84 402.13C129.22 404.73 130.47 407.41 131.76 410.06C133.05 412.71 134.19 415.44 135.24 418.2C137.427 423.646 139.336 429.2 140.96 434.84C144.207 446.139 146.13 457.777 146.69 469.52C143.34 458.3 139.84 447.31 135.74 436.58C133.62 431.24 131.51 425.92 129.12 420.72C126.73 415.52 124.3 410.34 121.62 405.29C116.324 395.15 110.427 385.336 103.96 375.9C100.727 371.16 97.3466 366.493 93.82 361.9C90.28 357.36 86.64 352.84 82.72 348.52Z" fill="#231F20"/>
<path d="M18.47 409.2C28.96 371.67 125.96 401.14 142.96 502.41C142.96 502.41 7.96002 446.72 18.47 409.2Z" fill="#1D6F5E"/>
<path d="M18.47 409.2C18.9176 407.244 19.6415 405.362 20.62 403.61C21.6339 401.849 22.9159 400.256 24.42 398.89C27.5398 396.212 31.2631 394.332 35.27 393.41C39.2501 392.489 43.3429 392.152 47.42 392.41C51.4731 392.637 55.4932 393.27 59.42 394.3C67.2593 396.366 74.7791 399.495 81.77 403.6C88.7326 407.699 95.2451 412.519 101.2 417.98C107.123 423.458 112.514 429.485 117.3 435.98C122.046 442.474 126.2 449.382 129.71 456.62C136.675 471.028 141.155 486.509 142.96 502.41C139.649 486.951 134.267 472.009 126.96 457.99C123.278 451.067 119.044 444.452 114.3 438.21C109.58 431.973 104.301 426.179 98.53 420.9C92.7967 415.591 86.5378 410.88 79.85 406.84C73.2056 402.765 66.0678 399.556 58.61 397.29C54.8927 396.175 51.0795 395.408 47.22 395C43.3772 394.559 39.4912 394.67 35.68 395.33C31.8617 395.943 28.2448 397.458 25.13 399.75C22.0281 402.176 19.7113 405.463 18.47 409.2Z" fill="#231F20"/>
<path d="M142.96 502.41C130.192 497.855 117.663 492.659 105.42 486.84C99.27 483.99 93.22 480.92 87.2 477.84C81.18 474.76 75.27 471.35 69.42 467.9C57.79 460.9 46.42 453.31 36.21 444.15C31.019 439.636 26.4373 434.466 22.58 428.77C20.6618 425.882 19.2106 422.71 18.28 419.37C17.8381 417.699 17.6129 415.978 17.61 414.25C17.6449 412.55 17.9348 410.864 18.47 409.25C17.8386 412.544 18.1399 415.948 19.34 419.08C20.5126 422.181 22.1514 425.084 24.2 427.69C26.2082 430.337 28.4145 432.827 30.8 435.14C33.18 437.473 35.6633 439.7 38.25 441.82C40.84 443.93 43.49 445.97 46.18 447.97C48.87 449.97 51.64 451.87 54.42 453.74C59.9867 457.493 65.6533 461.08 71.42 464.5C77.18 467.98 83.04 471.3 88.94 474.5C94.84 477.7 100.79 480.92 106.75 484.08C118.76 490.33 130.83 496.4 142.96 502.41Z" fill="#231F20"/>
<path d="M29.39 405.06C32.2734 405.611 35.1217 406.333 37.92 407.22C40.73 408.08 43.49 409.08 46.24 410.13C51.711 412.295 57.0532 414.772 62.24 417.55C72.6476 423.13 82.4499 429.772 91.49 437.37C93.77 439.25 95.94 441.25 98.15 443.21C100.36 445.17 102.44 447.21 104.47 449.4C108.587 453.622 112.482 458.055 116.14 462.68C123.455 471.881 129.673 481.901 134.67 492.54C127.3 483.45 119.87 474.63 111.98 466.27C107.98 462.14 103.98 458.03 99.81 454.14C95.64 450.25 91.4 446.38 87 442.73C78.232 435.368 69.0323 428.536 59.45 422.27C54.65 419.11 49.75 416.11 44.75 413.27C39.75 410.43 34.67 407.58 29.39 405.06Z" fill="#231F20"/>
<path d="M756.13 358.21C732.13 327.53 653.68 391.78 676.61 491.88C676.61 491.84 780.15 388.89 756.13 358.21Z" fill="#1D6F5E"/>
<path d="M756.13 358.21C753.555 355.226 750.156 353.069 746.36 352.01C742.605 351.084 738.683 351.066 734.92 351.96C731.144 352.798 727.51 354.179 724.13 356.06C720.714 357.904 717.479 360.067 714.47 362.52C708.439 367.46 703.062 373.149 698.47 379.45C693.84 385.736 689.863 392.477 686.6 399.57C683.272 406.646 680.594 414.009 678.6 421.57C676.597 429.152 675.209 436.884 674.45 444.69C673.043 460.432 673.77 476.292 676.61 491.84C672.204 476.441 670.429 460.409 671.36 444.42C671.844 436.391 673.049 428.423 674.96 420.61C676.904 412.785 679.582 405.161 682.96 397.84C686.377 390.518 690.56 383.58 695.44 377.14C700.33 370.678 706.084 364.918 712.54 360.02C715.79 357.574 719.282 355.466 722.96 353.73C726.632 351.937 730.547 350.69 734.58 350.03C738.636 349.355 742.795 349.674 746.7 350.96C748.613 351.649 750.408 352.631 752.02 353.87C753.586 355.118 754.969 356.578 756.13 358.21Z" fill="#231F20"/>
<path d="M676.61 491.84C685.54 481.65 694.37 471.44 703.05 461.1C707.35 455.9 711.68 450.73 715.86 445.44C720.04 440.15 724.22 434.88 728.22 429.44C732.22 424 736.16 418.58 739.87 412.99C741.73 410.197 743.533 407.37 745.28 404.51C747.01 401.64 748.68 398.74 750.28 395.8C751.88 392.86 753.28 389.8 754.62 386.8C755.946 383.75 757.039 380.605 757.89 377.39C758.781 374.202 759.186 370.898 759.09 367.59C759.009 364.234 757.99 360.968 756.15 358.16C757.263 359.461 758.176 360.92 758.86 362.49C759.519 364.092 759.966 365.772 760.19 367.49C760.609 370.932 760.481 374.418 759.81 377.82C758.413 384.554 756.147 391.079 753.07 397.23C747.15 409.59 739.51 420.93 731.44 431.86C727.34 437.28 723.15 442.62 718.8 447.86C714.45 453.1 710.01 458.19 705.41 463.18C696.23 473.18 686.72 482.84 676.61 491.84Z" fill="#231F20"/>
<path d="M744.45 358.56C740.53 362.9 736.89 367.4 733.36 371.96C729.83 376.52 726.46 381.19 723.23 385.96C716.766 395.408 710.868 405.232 705.57 415.38C702.89 420.44 700.41 425.59 698.08 430.81C695.75 436.03 693.57 441.34 691.46 446.68C687.35 457.41 683.85 468.39 680.46 479.62C681.011 467.877 682.931 456.238 686.18 444.94C687.82 439.265 689.75 433.678 691.96 428.2C692.96 425.44 694.27 422.77 695.44 420.06C696.61 417.35 697.98 414.73 699.37 412.12C704.827 401.649 711.351 391.769 718.84 382.64C722.589 378.081 726.595 373.741 730.84 369.64C732.98 367.64 735.15 365.64 737.42 363.78C739.659 361.904 742.007 360.161 744.45 358.56Z" fill="#231F20"/>
<path d="M817.67 442.32C820.2 403.43 718.91 399.1 669.32 489.02C669.32 489.02 815.15 481.2 817.67 442.32Z" fill="#1D6F5E"/>
<path d="M817.67 442.32C817.741 438.377 816.645 434.502 814.52 431.18C812.334 427.992 809.425 425.367 806.03 423.52C802.654 421.633 799.023 420.242 795.25 419.39C791.472 418.495 787.619 417.953 783.74 417.77C775.953 417.445 768.157 418.117 760.54 419.77C752.897 421.367 745.435 423.736 738.27 426.84C731.077 429.91 724.178 433.628 717.66 437.95C711.114 442.268 704.927 447.107 699.16 452.42C687.609 463.219 677.571 475.53 669.32 489.02C676.277 474.601 685.622 461.463 696.96 450.16C702.684 444.505 708.906 439.378 715.55 434.84C722.22 430.309 729.301 426.415 736.7 423.21C744.128 420.028 751.871 417.638 759.8 416.08C767.752 414.512 775.88 414.038 783.96 414.67C788.024 414.999 792.044 415.736 795.96 416.87C799.894 417.986 803.643 419.67 807.09 421.87C810.562 424.072 813.451 427.081 815.51 430.64C816.469 432.431 817.144 434.361 817.51 436.36C817.851 438.328 817.905 440.336 817.67 442.32Z" fill="#231F20"/>
<path d="M669.32 489.02C682.76 487.37 696.16 485.64 709.51 483.71C716.19 482.71 722.86 481.71 729.51 480.57C736.16 479.43 742.78 478.26 749.37 476.89C755.96 475.52 762.52 474.08 769.02 472.39C772.26 471.55 775.5 470.65 778.7 469.67C781.9 468.69 785.08 467.67 788.22 466.49C791.36 465.31 794.45 464.07 797.46 462.66C800.477 461.275 803.385 459.663 806.16 457.84C808.952 456.054 811.457 453.856 813.59 451.32C815.767 448.762 817.18 445.643 817.67 442.32C817.634 444.02 817.344 445.706 816.81 447.32C816.236 448.951 815.453 450.501 814.48 451.93C812.497 454.776 810.077 457.29 807.31 459.38C801.77 463.482 795.719 466.844 789.31 469.38C776.67 474.65 763.41 478.01 750.12 480.79C743.45 482.1 736.76 483.28 730.05 484.28C723.34 485.28 716.6 486.12 709.86 486.77C696.393 488.198 682.862 488.949 669.32 489.02Z" fill="#231F20"/>
<path d="M808.74 434.84C802.92 435.46 797.21 436.39 791.53 437.44C785.85 438.49 780.24 439.72 774.67 441.11C763.551 443.848 752.604 447.248 741.89 451.29C736.53 453.29 731.25 455.47 726.03 457.8C720.81 460.13 715.65 462.65 710.52 465.22C700.31 470.49 690.38 476.35 680.41 482.49C688.646 474.117 697.832 466.733 707.78 460.49C712.768 457.343 717.914 454.456 723.2 451.84C725.82 450.48 728.54 449.33 731.2 448.09C733.86 446.85 736.64 445.8 739.41 444.78C750.456 440.611 761.904 437.595 773.57 435.78C779.389 434.878 785.256 434.313 791.14 434.09C794.08 434.01 797.02 433.97 799.95 434.09C802.892 434.164 805.828 434.414 808.74 434.84Z" fill="#231F20"/>
<path d="M440.57 535.27C441.171 529.699 440.592 524.065 438.871 518.732C437.15 513.4 434.326 508.49 430.582 504.322C426.838 500.153 422.258 496.82 417.141 494.538C412.023 492.257 406.483 491.079 400.88 491.08C399.98 491.08 399.09 491.08 398.21 491.17C390.195 477.372 377.44 466.957 362.318 461.864C347.197 456.77 330.74 457.344 316.01 463.48C312.384 454.102 306.636 445.69 299.216 438.905C291.795 432.119 282.905 427.145 273.24 424.37C272.604 410.138 266.693 396.653 256.66 386.54C246.626 376.427 233.188 370.41 218.961 369.661C204.735 368.913 190.74 373.485 179.7 382.489C168.66 391.493 161.367 404.284 159.24 418.37C151.81 417.393 144.254 418.134 137.155 420.534C130.056 422.935 123.602 426.932 118.29 432.219C112.978 437.505 108.949 443.939 106.513 451.026C104.077 458.113 103.3 465.665 104.24 473.1H103.96C95.0935 473.092 86.3399 475.088 78.3536 478.939C70.3672 482.791 63.3546 488.397 57.84 495.34C51.7552 492.623 45.0873 491.471 38.4435 491.989C31.7997 492.507 25.3911 494.679 19.8012 498.307C14.2112 501.935 9.61765 506.903 6.43867 512.76C3.25968 518.617 1.5963 525.176 1.59998 531.84C1.59998 533 1.67999 534.14 1.77999 535.28L440.57 535.27Z" fill="#48BEA2"/>
<path d="M57.79 495.35C51.4161 492.684 44.4572 491.726 37.6 492.57C34.2209 493.005 30.911 493.869 27.75 495.14C26.1765 495.768 24.6436 496.492 23.16 497.31C22.42 497.71 21.72 498.2 21 498.64C20.2743 499.072 19.5794 499.553 18.92 500.08L16.92 501.63C16.28 502.18 15.69 502.78 15.07 503.35L14.15 504.21C13.85 504.51 13.59 504.84 13.31 505.15L11.65 507.05C11.15 507.72 10.65 508.41 10.18 509.05L9.43999 510.05C9.21999 510.41 9.02 510.77 8.81 511.14L7.53999 513.3L6.53999 515.58L6.00999 516.72L5.60998 517.91L4.78999 520.27L4.20999 522.7L3.92999 523.91C3.84999 524.32 3.80998 524.74 3.74998 525.15L3.42 527.62C3.35 528.44 3.35999 529.28 3.31999 530.1C3.26695 531.768 3.3204 533.438 3.47999 535.1L1.81999 533.57L56.66 532.72L111.51 532.05L166.36 531.5L221.21 531.02L330.91 530.45L440.61 530.26L435.61 534.71C436.127 529.651 435.542 524.54 433.896 519.729C432.249 514.918 429.579 510.521 426.07 506.84C422.562 503.131 418.266 500.257 413.5 498.43C408.719 496.61 403.608 495.816 398.5 496.1H398.44C397.542 496.136 396.652 495.929 395.861 495.501C395.071 495.074 394.411 494.441 393.95 493.67C390.253 487.343 385.462 481.722 379.8 477.07C378.44 475.86 376.89 474.87 375.44 473.76C373.88 472.76 372.44 471.76 370.75 470.91C367.558 469.127 364.211 467.638 360.75 466.46L358.14 465.64C357.27 465.34 356.37 465.19 355.48 464.96C353.72 464.47 351.9 464.22 350.1 463.9C346.475 463.377 342.812 463.153 339.15 463.23C331.802 463.438 324.552 464.973 317.75 467.76H317.7C317.142 467.991 316.544 468.109 315.94 468.108C315.336 468.107 314.739 467.987 314.181 467.755C313.624 467.523 313.118 467.183 312.692 466.755C312.266 466.327 311.929 465.819 311.7 465.26V465.14C308.366 456.387 303.051 448.523 296.173 442.165C289.294 435.807 281.038 431.127 272.05 428.49C271.195 428.239 270.439 427.727 269.889 427.026C269.339 426.325 269.021 425.47 268.98 424.58C268.681 418.063 267.208 411.653 264.63 405.66C260.715 396.581 254.357 388.768 246.263 383.09C238.17 377.411 228.659 374.092 218.79 373.5C205.381 372.68 192.143 376.852 181.627 385.213C171.112 393.574 164.063 405.531 161.84 418.78V418.84C161.734 419.502 161.371 420.097 160.83 420.493C160.289 420.89 159.614 421.058 158.95 420.96C151.905 419.95 144.722 420.563 137.95 422.75C131.094 424.938 124.836 428.677 119.66 433.677C114.485 438.677 110.533 444.804 108.11 451.58L107.61 452.84L107.25 454.15L106.52 456.76L106.34 457.41L106.23 458.08L106 459.42L105.53 462.1C105.42 463.9 105.25 465.71 105.18 467.53C105.17 469.35 105.26 471.17 105.45 472.98C105.467 473.127 105.454 473.276 105.412 473.419C105.371 473.561 105.302 473.693 105.209 473.809C105.116 473.924 105.001 474.02 104.871 474.09C104.74 474.161 104.597 474.205 104.45 474.22H104.3C95.4631 474.009 86.6926 475.796 78.6427 479.448C70.5929 483.099 63.4716 488.522 57.81 495.31C63.2518 488.176 70.2359 482.365 78.24 478.31C82.2577 476.26 86.5039 474.692 90.89 473.64C95.2895 472.577 99.7942 472.01 104.32 471.95L103.18 473.23C102.908 471.341 102.741 469.438 102.68 467.53C102.68 465.62 102.78 463.71 102.84 461.79L103.22 458.94L103.41 457.52L103.5 456.8L103.67 456.1L104.33 453.3L104.67 451.89L105.14 450.53C107.554 443.178 111.594 436.465 116.96 430.89C122.442 425.333 129.103 421.078 136.45 418.44C143.859 415.784 151.786 414.893 159.6 415.84L156.7 418.03C157.727 410.72 160.101 403.665 163.7 397.22C171.076 384.131 183.046 374.245 197.293 369.475C211.54 364.705 227.05 365.391 240.82 371.4C251.219 375.947 260.153 383.292 266.625 392.616C273.098 401.94 276.856 412.877 277.48 424.21L274.38 420.29C284.721 423.202 294.248 428.469 302.215 435.677C310.182 442.886 316.371 451.84 320.3 461.84L314.24 459.25C322.046 455.953 330.383 454.097 338.85 453.77C343.077 453.63 347.308 453.84 351.5 454.4C353.59 454.76 355.69 455.06 357.74 455.6C358.74 455.87 359.81 456.06 360.82 456.39L363.82 457.33C367.838 458.675 371.724 460.386 375.43 462.44C377.33 463.44 379.06 464.63 380.87 465.73C382.57 466.99 384.35 468.15 385.95 469.55C392.533 474.914 398.107 481.409 402.41 488.73L397.86 486.31C404.384 485.919 410.918 486.914 417.03 489.23C423.148 491.56 428.669 495.226 433.19 499.96C437.722 504.684 441.178 510.334 443.32 516.52C445.467 522.712 446.212 529.305 445.5 535.82C445.36 537.036 444.779 538.159 443.867 538.976C442.955 539.792 441.774 540.246 440.55 540.25L330.85 540.05L221.15 539.48L166.3 539L111.45 538.45L56.62 537.84L1.78 537H1.65999C1.25391 536.995 0.865575 536.833 0.576552 536.547C0.287529 536.262 0.120299 535.876 0.109984 535.47C-0.0150142 533.679 -0.0150142 531.881 0.109984 530.09C0.169984 529.19 0.199996 528.3 0.309996 527.41L0.769988 524.75C0.849988 524.31 0.909993 523.87 1.00999 523.43L1.35998 522.14L2.07999 519.55L3.07999 517.05L3.56999 515.81L4.17 514.61L5.37999 512.22L6.81 509.97C7.05 509.59 7.28 509.21 7.53 508.84L8.33999 507.79C8.88999 507.09 9.41999 506.38 9.98999 505.69L11.81 503.76C12.12 503.44 12.41 503.1 12.74 502.76L13.74 501.89C14.42 501.31 15.06 500.7 15.74 500.16L17.89 498.61C18.5988 498.085 19.344 497.61 20.12 497.19C20.89 496.76 21.63 496.28 22.42 495.89C23.9967 495.115 25.6237 494.447 27.29 493.89C30.6016 492.734 34.0452 491.998 37.54 491.7C44.4923 491.14 51.4708 492.398 57.79 495.35Z" fill="#231F20"/>
<path d="M834.43 535.27C835.031 529.699 834.452 524.065 832.731 518.732C831.01 513.4 828.186 508.49 824.442 504.322C820.698 500.153 816.118 496.82 811.001 494.538C805.883 492.257 800.343 491.079 794.74 491.08C793.84 491.08 792.95 491.08 792.07 491.17C784.055 477.372 771.3 466.957 756.178 461.864C741.057 456.77 724.599 457.344 709.87 463.48C706.244 454.102 700.496 445.69 693.076 438.905C685.655 432.119 676.765 427.145 667.1 424.37C666.464 410.138 660.553 396.653 650.52 386.54C640.486 376.427 627.048 370.41 612.821 369.661C598.595 368.913 584.6 373.485 573.56 382.489C562.52 391.493 555.227 404.284 553.1 418.37C545.67 417.393 538.114 418.134 531.015 420.534C523.916 422.935 517.462 426.932 512.15 432.219C506.838 437.505 502.809 443.939 500.373 451.026C497.937 458.113 497.16 465.665 498.1 473.1H497.72C488.854 473.092 480.1 475.088 472.114 478.939C464.127 482.791 457.115 488.397 451.6 495.34C445.52 492.645 438.863 491.51 432.233 492.039C425.603 492.568 419.21 494.744 413.634 498.369C408.058 501.994 403.475 506.954 400.302 512.799C397.128 518.644 395.464 525.189 395.46 531.84C395.46 533 395.54 534.14 395.64 535.28L834.43 535.27Z" fill="#48BEA2"/>
<path d="M794.74 491.08C793.705 491.147 792.676 490.885 791.8 490.33C791.351 490.048 790.955 489.689 790.63 489.27L789.71 488.05C789.1 487.25 788.51 486.44 787.89 485.66L785.89 483.38C783.238 480.405 780.334 477.665 777.21 475.19C771.003 470.313 763.971 466.587 756.45 464.19C752.735 463.007 748.913 462.187 745.04 461.74L743.6 461.54C743.12 461.49 742.6 461.47 742.15 461.43L739.25 461.23C737.31 461.23 735.38 461.16 733.45 461.29C725.757 461.724 718.208 463.553 711.17 466.69C710.344 467.057 709.406 467.081 708.562 466.757C707.718 466.432 707.038 465.786 706.67 464.96V464.88L706.61 464.73C703.014 455.968 697.435 448.16 690.31 441.92C686.778 438.844 682.922 436.162 678.81 433.92C674.694 431.687 670.331 429.941 665.81 428.72C664.918 428.477 664.125 427.96 663.542 427.243C662.959 426.525 662.615 425.643 662.56 424.72V424.59C661.942 414.897 658.685 405.557 653.142 397.581C647.599 389.606 639.98 383.298 631.11 379.34C622.254 375.434 612.497 374.028 602.898 375.274C593.299 376.52 584.225 380.372 576.66 386.41C571.61 390.444 567.326 395.352 564.01 400.9C560.688 406.481 558.436 412.633 557.37 419.04V419.14C557.185 420.244 556.577 421.232 555.676 421.895C554.774 422.558 553.649 422.843 552.54 422.69C549.17 422.194 545.751 422.106 542.36 422.43L541.08 422.51C540.65 422.51 540.24 422.64 539.81 422.69L537.29 423.09C536.44 423.2 535.63 423.49 534.8 423.68C533.97 423.87 533.12 424.05 532.32 424.35C530.69 424.879 529.09 425.5 527.53 426.21L525.19 427.29L522.96 428.57L521.83 429.21C521.47 429.45 521.13 429.7 520.77 429.95L518.65 431.43C517.96 431.95 517.32 432.53 516.65 433.08C515.969 433.616 515.321 434.194 514.71 434.81C509.629 439.609 505.701 445.496 503.22 452.03C500.742 458.667 499.772 465.772 500.38 472.83V472.99C500.43 473.572 500.248 474.15 499.873 474.597C499.498 475.045 498.961 475.327 498.38 475.38H498.1C493.806 475.209 489.507 475.514 485.28 476.29C472.244 478.701 460.393 485.412 451.62 495.35C459.6 484.208 471.235 476.217 484.5 472.77C488.97 471.619 493.556 470.971 498.17 470.84L495.9 473.39C495.262 469.524 495.107 465.594 495.44 461.69C495.577 459.728 495.844 457.777 496.24 455.85C496.44 454.85 496.59 453.91 496.84 452.95L497.68 450.11L498.11 448.69L498.66 447.31L499.77 444.55C500.18 443.65 500.65 442.78 501.1 441.89C501.525 440.993 502.003 440.121 502.53 439.28L504.12 436.76C504.63 435.9 505.29 435.15 505.88 434.34C506.47 433.53 507.05 432.73 507.75 432.01L509.75 429.81C510.43 429.076 511.151 428.382 511.91 427.73C512.65 427.07 513.37 426.37 514.14 425.73L516.53 423.92L517.73 423.02L519 422.21L521.55 420.61C522.44 420.14 523.34 419.69 524.23 419.23C526.031 418.328 527.88 417.527 529.77 416.83C530.7 416.44 531.69 416.22 532.65 415.91C533.61 415.6 534.57 415.29 535.57 415.1L538.57 414.51C539.07 414.42 539.57 414.29 540.07 414.24L541.57 414.08C545.594 413.575 549.666 413.575 553.69 414.08L548.85 417.72C551.039 402.471 558.852 388.593 570.753 378.812C582.654 369.031 597.783 364.056 613.167 364.863C628.551 365.67 643.076 372.201 653.889 383.174C664.701 394.146 671.019 408.766 671.6 424.16L668.35 420.05C678.633 423.092 688.051 428.519 695.84 435.89C703.558 443.214 709.476 452.226 713.13 462.22L708.54 460.22C716.447 457.135 724.862 455.558 733.35 455.57C741.754 455.549 750.086 457.127 757.9 460.22C765.63 463.241 772.713 467.707 778.77 473.38L780.98 475.52C781.69 476.27 782.37 477.04 783.07 477.79C783.77 478.54 784.41 479.33 785.07 480.13C785.73 480.93 786.37 481.7 786.93 482.55L788.68 485.06C789.24 485.91 789.75 486.79 790.28 487.65C790.72 488.534 791.308 489.335 792.02 490.02C792.795 490.647 793.745 491.018 794.74 491.08Z" fill="#231F20"/>
<path d="M451.65 495.35C442.044 491.529 431.324 491.615 421.78 495.59C420.234 496.226 418.731 496.961 417.28 497.79C416.55 498.19 415.87 498.69 415.17 499.14C414.469 499.571 413.801 500.052 413.17 500.58L411.23 502.13C410.6 502.68 410.02 503.28 409.42 503.84L408.53 504.7C408.24 505 407.98 505.33 407.71 505.64L406.1 507.51C405.61 508.18 405.1 508.86 404.67 509.51L403.96 510.51C403.75 510.86 403.55 511.22 403.35 511.58L402.13 513.72L401.13 515.96L400.63 517.08L400.24 518.24L399.47 520.56L398.93 522.94L398.66 524.13C398.59 524.53 398.56 524.93 398.5 525.33L398.2 527.75C398.14 528.55 398.15 529.37 398.12 530.18C398.078 531.796 398.142 533.413 398.31 535.02L395.67 532.58C413.95 532.18 432.23 531.74 450.52 531.5L477.94 531.07L505.36 530.79C523.65 530.62 541.93 530.4 560.21 530.39C578.49 530.38 596.78 530.23 615.06 530.26L669.91 530.44L724.76 530.93C743.04 531.1 761.33 531.48 779.61 531.74C788.75 531.88 797.89 532.13 807.03 532.32C816.17 532.51 825.32 532.69 834.46 532.97L832.2 534.97C832.936 529.701 832.54 524.335 831.04 519.23C828.676 511.342 823.912 504.386 817.412 499.33C810.912 494.274 802.998 491.37 794.77 491.02C800.42 490.778 806.057 491.749 811.3 493.87C816.647 496.059 821.473 499.349 825.464 503.528C829.454 507.706 832.519 512.678 834.46 518.12C836.429 523.672 837.199 529.579 836.72 535.45C836.665 535.984 836.419 536.48 836.028 536.847C835.637 537.215 835.126 537.429 834.59 537.45H834.46C825.32 537.73 816.18 537.89 807.03 538.11C797.88 538.33 788.75 538.54 779.61 538.68C761.33 538.94 743.04 539.32 724.76 539.49L669.91 539.98L615.06 540.16C596.78 540.16 578.5 540.07 560.21 540.03C541.92 539.99 523.65 539.8 505.36 539.63L477.96 539.44L450.54 539.01C432.25 538.77 413.97 538.33 395.69 537.93H395.47C394.83 537.92 394.22 537.662 393.767 537.211C393.313 536.759 393.053 536.15 393.04 535.51C392.915 533.675 392.915 531.835 393.04 530C393.11 529.08 393.14 528.16 393.26 527.26L393.75 524.55C393.83 524.1 393.9 523.65 394 523.2L394.38 521.88L395.14 519.25L396.14 516.7L396.65 515.43L397.28 514.22L398.53 511.79L400 509.5C400.25 509.13 400.49 508.74 400.75 508.37L401.59 507.3C402.15 506.59 402.7 505.87 403.28 505.18L405.15 503.18C405.47 502.86 405.77 502.52 406.15 502.18L407.15 501.3C407.84 500.72 408.5 500.11 409.21 499.56L411.42 498.01C412.147 497.489 412.909 497.018 413.7 496.6C414.49 496.18 415.25 495.7 416.06 495.32C420.866 492.996 426.067 491.598 431.39 491.2C438.391 490.773 445.381 492.205 451.65 495.35Z" fill="#231F20"/>
<path d="M103.51 266.22L138.66 58.8701H692.55L730.57 266.22H452.91H103.51Z" fill="#3F2C7B" stroke="#2A3593" stroke-width="2.11" stroke-miterlimit="10"/>
<path d="M299.02 76.0901L137.94 238.24H108.25L103.51 266.22H452.91H730.57L725.44 238.24H460.09L299.02 76.0901Z" fill="#221E57"/>
<path d="M688.24 535.27H142.97V266.22L299.43 110.46L455.24 266.22H688.24V535.27Z" fill="#F26B6C"/>
<path d="M140.22 266.22C137.16 266.58 134.1 266.93 131.04 267.22C127.98 267.51 124.92 267.81 121.86 268.04C115.74 268.54 109.623 268.96 103.51 269.3C103.128 269.323 102.746 269.271 102.385 269.146C102.024 269.021 101.69 268.827 101.404 268.573C101.118 268.32 100.885 268.012 100.718 267.669C100.551 267.325 100.453 266.952 100.43 266.57C100.415 266.404 100.415 266.236 100.43 266.07V265.73C104.6 230.88 110.01 196.25 116.22 161.73C119.38 144.47 122.777 127.267 126.41 110.12C130.09 92.9701 134.03 75.8601 138.66 58.8701C137.44 76.4401 135.52 93.8701 133.34 111.3C131.16 128.73 128.64 146.05 125.89 163.36C120.38 197.98 114.08 232.46 106.53 266.73L103.53 263.16C109.65 263.513 115.767 263.933 121.88 264.42C124.94 264.65 128 264.97 131.06 265.24C134.12 265.51 137.16 265.84 140.22 266.22Z" fill="#231F20"/>
<path d="M692.55 58.8401C694.597 67.4001 696.577 75.9668 698.49 84.5401C700.49 93.1101 702.3 101.7 704.18 110.29C706.06 118.88 707.88 127.47 709.69 136.07C711.5 144.67 713.35 153.26 715.07 161.87C718.56 179.09 722.07 196.3 725.43 213.55L730.43 239.42L735.36 265.3C735.6 266.574 735.326 267.892 734.597 268.964C733.868 270.036 732.743 270.775 731.47 271.02C731.182 271.069 730.892 271.099 730.6 271.11H730.52L695.82 271.2L661.11 271.11C637.97 271.03 614.83 270.66 591.69 270.42L556.99 269.76C545.42 269.56 533.85 269.17 522.28 268.89C499.14 268.2 476 267.45 452.86 266.2C476 264.96 499.14 264.2 522.28 263.51C533.85 263.23 545.42 262.84 556.99 262.64L591.69 261.98C614.83 261.74 637.97 261.37 661.11 261.29L695.82 261.2L730.52 261.29L725.69 267.09L721.11 241.14L716.66 215.14C713.66 197.84 710.85 180.49 708 163.14C706.55 154.48 705.25 145.79 703.88 137.14C702.51 128.49 701.15 119.78 699.88 111.08C698.61 102.38 697.27 93.7001 696.06 84.9901C694.85 76.2801 693.67 67.6001 692.55 58.8401Z" fill="#231F20"/>
<path d="M299.44 110.47C313.17 122.69 326.62 135.21 340.07 147.72C353.52 160.23 366.83 172.89 380.07 185.64C393.31 198.39 406.46 211.17 419.62 223.98C432.78 236.79 445.79 249.74 458.8 262.7L455.27 261.24C474.69 261.24 494.107 261.303 513.52 261.43L542.65 261.79C552.36 261.9 562.06 262.02 571.77 262.25L600.9 262.88L630.02 263.71C649.44 264.42 668.86 265.07 688.27 266.22C668.86 267.37 649.44 268.02 630.02 268.73L600.9 269.57L571.77 270.19C562.06 270.42 552.36 270.54 542.65 270.65L513.52 271.01C494.107 271.15 474.69 271.217 455.27 271.21C453.953 271.204 452.692 270.68 451.76 269.75C438.773 256.743 425.84 243.687 412.96 230.58C400.15 217.43 387.28 204.34 374.61 191.05C361.94 177.76 349.25 164.47 336.67 151.05C324.09 137.63 311.66 124.2 299.44 110.47Z" fill="#231F20"/>
<path d="M138.66 58.8401C184.82 56.7701 230.98 55.6901 277.14 54.9601L294.44 54.6701L311.75 54.4701L346.37 54.1201L415.61 53.8501L484.84 54.1101L519.46 54.4601L536.77 54.6501L554.08 54.9401C600.23 55.6701 646.39 56.7601 692.55 58.8401C646.39 60.9201 600.23 62.0101 554.08 62.7401L536.77 63.0401L519.46 63.2201L484.84 63.5801L415.61 63.8401L346.37 63.5601L311.75 63.2101L294.44 63.0201L277.14 62.7301C230.96 62.0201 184.82 60.9401 138.66 58.8401Z" fill="#231F20"/>
<path d="M142.96 266.22C154.54 251.77 166.82 238.03 179.31 224.51C191.8 210.99 204.63 197.78 217.67 184.8C230.71 171.82 243.98 159.08 257.54 146.62C271.1 134.16 284.92 121.97 299.43 110.47C287.86 124.92 275.58 138.67 263.08 152.19C250.58 165.71 237.76 178.91 224.72 191.89C211.68 204.87 198.4 217.6 184.84 230.06C171.28 242.52 157.47 254.71 142.96 266.22Z" fill="#231F20"/>
<path d="M615.06 13.6699H568.42V84.6999H615.06V13.6699Z" fill="#221E57"/>
<path d="M615.06 13.6699C615.54 19.5899 615.927 25.5099 616.22 31.4299C616.56 37.3499 616.78 43.2699 617.02 49.1899C617.26 55.1099 617.39 61.0299 617.57 66.9399L617.9 84.6999C617.913 85.4382 617.634 86.1517 617.122 86.6841C616.61 87.2164 615.908 87.5242 615.17 87.5399H615.06C611.18 87.6099 607.29 87.5999 603.4 87.6299L591.74 87.6999C583.97 87.6999 576.2 87.6999 568.43 87.5499H568.34C567.972 87.5447 567.609 87.4671 567.271 87.3215C566.934 87.176 566.628 86.9653 566.372 86.7016C566.115 86.4379 565.914 86.1263 565.778 85.7845C565.642 85.4428 565.575 85.0776 565.58 84.7099L565.9 66.9499L566.45 49.1999C566.7 43.2799 566.92 37.3599 567.26 31.4399C567.6 25.5199 567.95 19.5999 568.43 13.6799C568.903 19.5999 569.29 25.5199 569.59 31.4399C569.93 37.3599 570.15 43.2799 570.4 49.1999L570.96 66.9399L571.28 84.6999L568.43 81.8399C576.2 81.7299 583.97 81.6899 591.74 81.6799L603.4 81.7499C607.29 81.7499 611.18 81.7499 615.06 81.8399L612.22 84.6799L612.55 66.9199C612.74 61.0099 612.88 55.0899 613.1 49.1699C613.32 43.2499 613.56 37.3299 613.9 31.4099C614.24 25.4899 614.59 19.5899 615.06 13.6699Z" fill="#231F20"/>
<path d="M568.43 13.6701C572.233 12.5175 576.137 11.7306 580.09 11.3201C583.958 10.8892 587.848 10.6722 591.74 10.6701C595.636 10.6636 599.529 10.8773 603.4 11.3101C607.354 11.7193 611.258 12.5096 615.06 13.6701C611.26 14.8353 607.354 15.6257 603.4 16.0301C599.529 16.4678 595.636 16.6815 591.74 16.6701C587.848 16.6729 583.958 16.4559 580.09 16.0201C576.137 15.6143 572.232 14.8273 568.43 13.6701Z" fill="#231F20"/>
<path d="M690.24 266.22L691.36 535.22C691.366 536.029 691.055 536.807 690.495 537.39C689.934 537.973 689.168 538.314 688.36 538.34H688.29C665.57 538.71 642.85 538.88 620.13 539.16L551.98 539.67C529.26 539.88 506.54 539.89 483.82 539.98L415.66 540.22H347.5C324.78 540.22 302.06 540.22 279.34 540.11L211.13 539.84C188.41 539.62 165.69 539.51 142.97 539.2H142.88C142.375 539.195 141.876 539.09 141.411 538.892C140.947 538.693 140.526 538.405 140.173 538.044C139.82 537.682 139.542 537.255 139.354 536.786C139.167 536.317 139.073 535.815 139.08 535.31L141.68 266.31C141.68 265.968 141.816 265.64 142.058 265.398C142.3 265.156 142.628 265.02 142.97 265.02C143.312 265.02 143.64 265.156 143.882 265.398C144.124 265.64 144.26 265.968 144.26 266.31L146.86 535.31L142.96 531.38C165.68 531.08 188.4 530.96 211.12 530.75L279.28 530.42C302 530.27 324.72 530.35 347.44 530.31H415.6L483.76 530.54C506.48 530.63 529.2 530.64 551.92 530.85L620.07 531.36C642.79 531.64 665.51 531.82 688.23 532.18L685.12 535.3L686.24 266.3C686.24 265.77 686.451 265.261 686.826 264.886C687.201 264.511 687.71 264.3 688.24 264.3C688.77 264.3 689.279 264.511 689.654 264.886C690.029 265.261 690.24 265.77 690.24 266.3V266.22Z" fill="#231F20"/>
<path d="M659.05 302.81H552.51V409.35H659.05V302.81Z" fill="#3F2C7B"/>
<path d="M552.52 302.84C561.39 302.18 570.27 301.79 579.15 301.38C588.03 300.97 596.91 300.71 605.79 300.51C614.67 300.31 623.55 300.17 632.42 300.01L659.06 299.84C659.856 299.84 660.619 300.156 661.181 300.719C661.744 301.281 662.06 302.044 662.06 302.84C662.06 311.72 662.007 320.6 661.9 329.48C661.73 338.36 661.68 347.24 661.4 356.11C661.12 364.98 660.88 373.87 660.53 382.75C660.18 391.63 659.73 400.51 659.06 409.39C658.39 400.51 658 391.63 657.59 382.75C657.18 373.87 656.92 364.99 656.72 356.11C656.52 347.23 656.39 338.36 656.22 329.48C656.05 320.6 656.07 311.72 656.06 302.84L659.06 305.84L632.42 305.67C623.55 305.51 614.67 305.45 605.79 305.17C596.91 304.89 588.03 304.65 579.15 304.31C570.27 303.97 561.39 303.47 552.52 302.84Z" fill="#231F20"/>
<path d="M659.06 409.36C650.18 410.02 641.3 410.41 632.42 410.82C623.54 411.23 614.67 411.49 605.79 411.69C596.91 411.89 588.03 412.03 579.15 412.19L552.52 412.35C551.724 412.35 550.961 412.034 550.399 411.471C549.836 410.909 549.52 410.146 549.52 409.35C549.52 400.47 549.52 391.59 549.68 382.71C549.84 373.83 549.9 364.95 550.17 356.07C550.44 347.19 550.7 338.32 551.04 329.44C551.38 320.56 551.85 311.68 552.52 302.8C553.18 311.68 553.58 320.56 553.99 329.44C554.4 338.32 554.66 347.2 554.86 356.07C555.06 364.94 555.19 373.83 555.36 382.71C555.53 391.59 555.51 400.47 555.51 409.35L552.51 406.35L579.14 406.51C588.02 406.68 596.9 406.74 605.78 407.01C614.66 407.28 623.54 407.54 632.41 407.88C641.28 408.22 650.18 408.69 659.06 409.36Z" fill="#231F20"/>
<path d="M648.77 315.36H564.38V399.75H648.77V315.36Z" fill="#F8F9E3"/>
<path d="M560.17 309.84V402.39H652.72V309.84H560.17ZM644.47 318.09V351.55H611.01V318.06L644.47 318.09ZM601.88 318.09V351.55H568.42V318.06L601.88 318.09ZM568.42 394.09V360.65H601.88V394.11L568.42 394.09ZM611.01 394.09V360.65H644.47V394.11L611.01 394.09Z" fill="#221E57"/>
<path d="M531.24 302.81H424.7V409.35H531.24V302.81Z" fill="#3F2C7B"/>
<path d="M424.7 302.84C433.58 302.18 442.46 301.79 451.34 301.38C460.22 300.97 469.09 300.71 477.97 300.51C486.85 300.31 495.73 300.17 504.61 300.01L531.24 299.84C532.036 299.84 532.799 300.156 533.361 300.719C533.924 301.281 534.24 302.044 534.24 302.84C534.24 311.72 534.24 320.6 534.09 329.48C533.94 338.36 533.86 347.24 533.59 356.11C533.32 364.98 533.06 373.87 532.72 382.75C532.38 391.63 531.91 400.51 531.24 409.39C530.58 400.51 530.24 391.63 529.77 382.75C529.3 373.87 529.11 364.99 528.9 356.11C528.69 347.23 528.57 338.36 528.4 329.48C528.23 320.6 528.26 311.72 528.25 302.84L531.25 305.84L504.62 305.67C495.74 305.51 486.86 305.45 477.98 305.17C469.1 304.89 460.23 304.65 451.35 304.31C442.47 303.97 433.58 303.47 424.7 302.84Z" fill="#231F20"/>
<path d="M531.24 409.36C522.37 410.02 513.49 410.41 504.61 410.82C495.73 411.23 486.85 411.49 477.97 411.69C469.09 411.89 460.22 412.03 451.34 412.19L424.7 412.35C423.904 412.35 423.141 412.034 422.579 411.471C422.016 410.909 421.7 410.146 421.7 409.35C421.7 400.47 421.753 391.59 421.86 382.71C422.03 373.83 422.08 364.95 422.36 356.07C422.64 347.19 422.88 338.32 423.23 329.44C423.58 320.56 424.03 311.68 424.7 302.8C425.37 311.68 425.76 320.56 426.17 329.44C426.58 338.32 426.84 347.2 427.04 356.07C427.24 364.94 427.37 373.83 427.54 382.71C427.71 391.59 427.69 400.47 427.7 409.35L424.7 406.35L451.34 406.51C460.22 406.68 469.09 406.74 477.97 407.01C486.85 407.28 495.73 407.54 504.61 407.88C513.49 408.22 522.37 408.69 531.24 409.36Z" fill="#231F20"/>
<path d="M520.96 315.36H436.57V399.75H520.96V315.36Z" fill="#F8F9E3"/>
<path d="M432.35 309.84V402.39H524.96V309.84H432.35ZM516.66 318.09V351.55H483.2V318.06L516.66 318.09ZM474.06 318.09V351.55H440.6V318.06L474.06 318.09ZM440.6 394.09V360.65H474.06V394.11L440.6 394.09ZM483.2 394.09V360.65H516.66V394.11L483.2 394.09Z" fill="#221E57"/>
<path d="M672.46 409.35H411.3V421.19H672.46V409.35Z" fill="#D84C53"/>
<path d="M411.3 409.36C433.06 408.36 454.83 407.84 476.59 407.46C498.35 407.08 520.12 406.93 541.88 406.88C552.76 406.88 563.64 406.93 574.53 406.95C585.42 406.97 596.29 407.15 607.17 407.25C628.93 407.59 650.7 408.04 672.46 408.85C672.524 408.851 672.587 408.865 672.645 408.891C672.704 408.917 672.756 408.954 672.8 409.001C672.844 409.048 672.878 409.102 672.9 409.162C672.923 409.222 672.933 409.286 672.93 409.35C672.8 413.29 672.59 417.24 672.43 421.18C672.26 417.24 672.06 413.29 671.93 409.35L672.43 409.85C650.67 410.66 628.9 411.11 607.14 411.45C596.26 411.55 585.38 411.71 574.5 411.76C563.62 411.81 552.73 411.87 541.85 411.82C520.09 411.82 498.32 411.64 476.56 411.24C454.8 410.84 433.06 410.35 411.3 409.36Z" fill="#231F20"/>
<path d="M672.46 421.19C650.7 422.19 628.93 422.71 607.17 423.09C585.41 423.47 563.64 423.62 541.88 423.67C531 423.67 520.12 423.62 509.24 423.6C498.36 423.58 487.47 423.4 476.59 423.3C454.83 422.96 433.06 422.51 411.3 421.7C411.236 421.699 411.173 421.685 411.115 421.659C411.056 421.633 411.004 421.596 410.96 421.549C410.916 421.502 410.882 421.448 410.86 421.388C410.837 421.328 410.827 421.264 410.83 421.2C410.96 417.26 411.17 413.31 411.33 409.37C411.5 413.31 411.7 417.26 411.83 421.2L411.33 420.7C433.09 419.89 454.86 419.44 476.62 419.1C487.5 419 498.38 418.84 509.27 418.79C520.16 418.74 531.03 418.68 541.91 418.73C563.67 418.73 585.44 418.91 607.2 419.31C628.96 419.71 650.7 420.2 672.46 421.19Z" fill="#231F20"/>
<path d="M404.13 511.59H193.91V535.27H404.13V511.59Z" fill="#221E57"/>
<path d="M193.96 511.59C211.48 510.35 228.96 509.7 246.51 509.26C255.27 508.99 264.03 508.92 272.79 508.76L299.07 508.6C316.59 508.6 334.107 508.817 351.62 509.25C369.14 509.69 386.62 510.35 404.18 511.59C386.66 512.84 369.18 513.5 351.62 513.94C334.06 514.38 316.62 514.61 299.07 514.59L272.79 514.43C264.03 514.26 255.27 514.2 246.51 513.93C228.96 513.49 211.43 512.84 193.96 511.59Z" fill="#231F20"/>
<path d="M404.13 511.59C404.31 515.59 404.53 519.49 404.68 523.43L405.14 535.27C405.141 535.524 405.045 535.768 404.872 535.954C404.7 536.139 404.463 536.252 404.21 536.27H404.13C395.37 536.6 386.61 536.83 377.85 537.08L351.57 537.65L325.3 538.03L299.02 538.25H272.74C263.98 538.16 255.22 538.16 246.46 537.99C228.95 537.73 211.46 537.3 193.91 536.4H193.81C193.521 536.385 193.249 536.257 193.053 536.044C192.857 535.831 192.752 535.549 192.76 535.26L193.65 511.58C193.65 511.511 193.677 511.445 193.726 511.396C193.775 511.347 193.841 511.32 193.91 511.32C193.979 511.32 194.045 511.347 194.094 511.396C194.143 511.445 194.17 511.511 194.17 511.58L195.05 535.26L193.96 534.13C211.48 533.23 228.96 532.8 246.51 532.54C255.27 532.36 264.03 532.36 272.79 532.27H299.07L325.35 532.49L351.62 532.87L377.9 533.44C386.66 533.7 395.42 533.92 404.18 534.26L403.18 535.26L403.64 523.42C403.72 519.49 403.96 515.54 404.13 511.59Z" fill="#231F20"/>
<path d="M357.77 309.8H240.49V496.48H357.77V309.8Z" fill="#221E57"/>
<path d="M224.76 294.92V511.59H373.28V294.92H224.76ZM246.96 315.37H287.14V491.15H246.96V315.37ZM350.96 491.15H309.42V315.37H351.03L350.96 491.15Z" fill="#D84C53"/>
<path d="M224.76 294.92C225.17 312.98 225.41 331.03 225.69 349.09C225.97 367.15 226.18 385.2 226.38 403.26L226.84 457.43L227.11 511.59L224.76 509.24L299.02 509.1L373.28 509.23L370.96 511.59L371.23 457.43L371.69 403.26C371.89 385.2 372.07 367.14 372.38 349.09C372.69 331.04 372.9 312.98 373.32 294.92C373.73 312.98 373.97 331.03 374.25 349.09C374.53 367.15 374.74 385.2 374.95 403.26L375.4 457.43L375.68 511.59C375.681 511.899 375.622 512.204 375.505 512.49C375.388 512.776 375.216 513.035 374.999 513.255C374.781 513.474 374.523 513.648 374.239 513.767C373.954 513.887 373.649 513.949 373.34 513.95L299.08 514.09L224.82 513.95C224.513 513.949 224.209 513.887 223.925 513.768C223.642 513.649 223.385 513.476 223.168 513.257C222.952 513.039 222.781 512.781 222.664 512.496C222.548 512.212 222.489 511.907 222.49 511.6L222.76 457.44L223.22 403.27C223.42 385.21 223.6 367.15 223.91 349.1C224.22 331.05 224.35 312.98 224.76 294.92Z" fill="#231F20"/>
<path d="M373.28 294.92C360.9 295.92 348.52 296.5 336.15 296.86C323.78 297.22 311.39 297.41 299.02 297.42C286.65 297.43 274.27 297.27 261.89 296.87C249.51 296.47 237.14 295.96 224.76 294.92C237.14 293.92 249.51 293.33 261.89 292.97C274.27 292.61 286.64 292.42 299.02 292.42C311.4 292.42 323.77 292.58 336.15 292.98C348.53 293.38 360.9 293.84 373.28 294.92Z" fill="#231F20"/>
<path d="M246.96 315.37L266.85 314.88C273.55 314.7 280.33 314.53 287.14 314.41C287.267 314.402 287.394 314.42 287.514 314.462C287.633 314.504 287.743 314.57 287.837 314.656C287.93 314.742 288.005 314.846 288.057 314.962C288.109 315.078 288.138 315.203 288.14 315.33C288.44 329.98 288.63 344.62 288.86 359.27L289.32 403.22L289.58 447.16L289.68 491.11C289.68 491.771 289.418 492.404 288.951 492.871C288.484 493.338 287.85 493.6 287.19 493.6L246.96 493.56C246.643 493.561 246.329 493.5 246.036 493.379C245.743 493.259 245.477 493.081 245.253 492.857C245.029 492.633 244.851 492.367 244.731 492.074C244.61 491.781 244.549 491.467 244.55 491.15C244.55 476.35 244.73 461.57 244.83 446.79C244.93 432.01 245.19 417.29 245.36 402.59L246.11 358.73L246.96 315.37ZM246.96 315.37L247.82 359.89L248.56 403.89C248.74 418.49 248.99 433.06 249.09 447.58C249.19 462.1 249.37 476.58 249.38 491.12L246.96 488.73L287.14 488.65L284.64 491.15L284.74 447.2L285 403.26L285.46 359.31C285.69 344.66 285.88 330.02 286.18 315.37L287.18 316.37C280.6 316.26 273.98 316.08 267.29 315.91L246.96 315.37Z" fill="#231F20"/>
<path d="M351.03 315.37C351.463 330.037 351.797 344.683 352.03 359.31C352.33 373.96 352.5 388.61 352.73 403.26L353.16 447.2L353.41 491.15C353.413 491.465 353.353 491.777 353.235 492.068C353.116 492.36 352.942 492.625 352.721 492.849C352.499 493.073 352.236 493.251 351.946 493.373C351.656 493.495 351.345 493.559 351.03 493.56L309.42 493.64C309.093 493.641 308.769 493.578 308.466 493.454C308.164 493.33 307.889 493.148 307.656 492.918C307.424 492.687 307.24 492.414 307.113 492.112C306.987 491.81 306.921 491.487 306.92 491.16L307.01 447.21L307.27 403.27L307.72 359.32C307.95 344.67 308.13 330.03 308.44 315.38C308.453 315.123 308.564 314.882 308.75 314.705C308.936 314.528 309.183 314.43 309.44 314.43L330.25 314.87L351.05 315.42L330.25 315.96L309.44 316.4L310.44 315.4C310.74 330.05 310.92 344.69 311.15 359.34L311.6 403.29L311.86 447.23L311.95 491.18L309.45 488.68L351.06 488.77L348.66 491.18L348.91 447.23L349.34 403.29C349.57 388.64 349.74 373.99 350.04 359.34C350.34 344.69 350.61 330.02 351.03 315.37Z" fill="#231F20"/>
<path d="M108.25 238.24L123.1 237.77L137.95 237.32L137.29 237.59L156.9 216.84L176.59 196.13C189.72 182.32 202.96 168.63 216.13 154.87L255.88 113.82L265.82 103.56L275.82 93.35L295.82 72.93C296.234 72.5063 296.728 72.1684 297.273 71.9356C297.818 71.7027 298.403 71.5795 298.995 71.573C299.588 71.5665 300.176 71.6768 300.726 71.8977C301.276 72.1185 301.777 72.4455 302.2 72.86V72.91L322.49 93.03L342.68 113.23L383.05 153.67L423.24 194.29L443.32 214.61L463.32 235.01L460.05 233.65L493.22 233.9C504.28 233.967 515.337 234.073 526.39 234.22L559.56 234.63L576.14 234.84L592.73 235.13L625.9 235.7L659.06 236.41C681.18 236.89 703.293 237.507 725.4 238.26C703.293 239 681.18 239.613 659.06 240.1L625.96 240.84L592.79 241.41L576.2 241.7L559.62 241.9L526.45 242.32C515.39 242.48 504.34 242.56 493.28 242.64L460.11 242.89C459.515 242.896 458.924 242.783 458.373 242.558C457.822 242.333 457.321 242.001 456.9 241.58L456.84 241.53L436.57 221.39L416.39 201.17L376.03 160.72L335.85 120.04L315.78 99.71L295.78 79.29H302.23L281.96 99.41L271.81 109.47L261.62 119.47L220.83 159.47C207.16 172.74 193.56 186.07 179.83 199.28L159.26 219.14L138.6 238.89C138.52 238.969 138.424 239.031 138.319 239.072C138.215 239.113 138.103 239.133 137.99 239.13L123.14 238.68L108.25 238.24Z" fill="#231F20"/>
<path d="M619.98 1.73999H563.51C561.074 1.73999 559.1 3.71441 559.1 6.14999V18.32C559.1 20.7556 561.074 22.73 563.51 22.73H619.98C622.416 22.73 624.39 20.7556 624.39 18.32V6.14999C624.39 3.71441 622.416 1.73999 619.98 1.73999Z" fill="#3F2C7B" stroke="#2A3593" stroke-width="1.58" stroke-miterlimit="10"/>
<path d="M619.96 25.1199L609.65 25.4099C606.22 25.5299 602.78 25.6299 599.34 25.6799C592.47 25.8499 585.59 25.6799 578.72 25.5899L568.41 25.3699L565.83 25.3099H564.54H563.96C563.75 25.3099 563.56 25.3099 563.17 25.3099C561.827 25.2171 560.542 24.7301 559.475 23.9101C558.407 23.0901 557.606 21.9734 557.17 20.6999C556.95 20.0797 556.832 19.4279 556.82 18.7699C556.82 18.3999 556.82 18.2199 556.82 17.9999V17.3599L556.9 14.7799L557.06 9.61991L557.13 7.04992V6.39991V6.00991C557.13 5.85991 557.13 5.69992 557.13 5.54992C557.215 4.93989 557.383 4.34438 557.63 3.77991C558.13 2.66794 558.945 1.72681 559.974 1.07281C561.003 0.418803 562.201 0.0805716 563.42 0.099906C577.17 0.529906 590.92 0.749915 604.67 0.639915C608.11 0.639915 611.54 0.519913 614.98 0.419913L617.56 0.349906H618.85H619.49C619.7 0.349906 619.9 0.349906 620.22 0.349906C621.407 0.393305 622.555 0.782775 623.523 1.47037C624.492 2.15797 625.238 3.1137 625.67 4.21992C625.892 4.77924 626.027 5.3695 626.07 5.96992C626.07 6.30992 626.07 6.49991 626.07 6.70991V7.35992L626.17 9.93992L626.33 15.0899L626.4 17.6699V18.3099V18.7199C626.41 18.8798 626.41 19.0401 626.4 19.1999C626.334 19.8438 626.183 20.4761 625.95 21.0799C625.436 22.251 624.6 23.2522 623.54 23.9673C622.48 24.6824 621.238 25.0821 619.96 25.1199ZM619.96 20.3399C620.371 20.36 620.779 20.2601 621.134 20.0523C621.489 19.8446 621.776 19.538 621.96 19.1699C622.044 18.9771 622.108 18.776 622.15 18.5699V18.3999V17.5199L622.23 14.9399L622.39 9.78991L622.49 7.20991V6.55991V6.00991C622.496 5.75292 622.463 5.49653 622.39 5.24992C622.232 4.73156 621.925 4.27117 621.507 3.92618C621.089 3.5812 620.579 3.36687 620.04 3.30991C619.93 3.30991 619.7 3.30991 619.48 3.30991H618.84H617.55L614.97 3.23991C611.53 3.13991 608.1 3.0399 604.66 3.0199C590.91 2.8999 577.16 3.11991 563.41 3.55991C562.901 3.58387 562.409 3.75544 561.995 4.05372C561.582 4.352 561.264 4.76412 561.08 5.23991C561.005 5.47342 560.958 5.71516 560.94 5.95991V6.38991V7.03991L561.01 9.60992L561.17 14.7699L561.25 17.3499V17.9899C561.241 18.1631 561.241 18.3367 561.25 18.5099C561.271 18.7139 561.325 18.9131 561.41 19.0999C561.565 19.4561 561.821 19.7593 562.146 19.9724C562.471 20.1855 562.851 20.2993 563.24 20.2999L568.24 20.1699L578.55 19.9499C585.42 19.8499 592.3 19.6999 599.17 19.8699C602.61 19.9199 606.05 20.0199 609.48 20.1299L619.96 20.3399Z" fill="#231F20"/>
</g>
<defs>
<clipPath id="clip0_2097_270">
<rect width="836.82" height="540.26" fill="white"/>
</clipPath>
</defs>
</svg>
