<svg width="2588" height="570" viewBox="0 0 2588 570" fill="none" xmlns="http://www.w3.org/2000/svg">
<g clip-path="url(#clip0_5698_279)">
<path d="M195.48 555.92C192.38 555.92 189.32 555.85 186.4 555.75C184.04 555.67 181.66 555.57 179.33 555.44C177 555.31 174.43 555.13 172.07 554.93C169.71 554.73 167.07 554.48 164.65 554.2C147.45 552.2 132.37 548.62 118.54 543.14C116.83 542.46 115.1 541.74 113.42 541C111.74 540.26 109.99 539.44 108.34 538.63C106.69 537.82 104.95 536.93 103.34 536.04C101.73 535.15 99.9901 534.17 98.34 533.19C88.0591 527.017 78.7314 519.38 70.6501 510.52L69.9104 509.71L69.24 508.95L68.6403 508.26L67.9699 507.46L67.3303 506.67C66.8903 506.117 66.45 505.547 66.01 504.96C65.9742 504.919 65.9413 504.875 65.9104 504.83L65.24 503.9C65.2027 503.857 65.1696 503.81 65.1403 503.76C64.9403 503.47 64.73 503.18 64.53 502.87L64.4401 502.75C64.2501 502.47 64.03 502.14 63.82 501.75V501.69C62.82 500.2 61.92 498.6 61.03 496.93L60.4001 495.7V495.61C60.2001 495.22 60.0002 494.81 59.7902 494.39C59.7777 494.352 59.7607 494.315 59.74 494.28C53.21 480.76 44.87 455.4 28.26 362.28C18.7 308.74 13.4103 272.39 12.1003 251.18C10.9503 232.54 12.7802 225.39 15.5002 219.24C17.4102 203.32 30.0402 188.43 52.5002 175.47C51.8702 174.74 51.2401 174.01 50.6301 173.28L49.9499 172.45L49.6701 172.1C48.7168 170.96 47.7801 169.81 46.8601 168.65C46.6501 168.39 46.45 168.12 46.24 167.85L45.99 167.53C45.06 166.34 44.1302 165.15 43.2302 163.94C43.0602 163.72 42.91 163.51 42.76 163.3L42.6203 163.1C41.6203 161.8 40.68 160.48 39.74 159.1L39.2502 158.39C38.2502 157.01 37.3301 155.63 36.4001 154.24L36.0803 153.75C35.0803 152.25 34.1302 150.75 33.2102 149.31L32.9699 148.91C31.9699 147.31 31.0404 145.81 30.1804 144.34L30.01 144.06C29.07 142.46 28.14 140.83 27.26 139.25C27.2404 139.208 27.2171 139.168 27.1901 139.13C5.98945 100.917 -3.1119 57.1682 1.09005 13.6703C1.43282 10.0243 3.09741 6.62957 5.77023 4.12622C8.44305 1.62287 11.9397 0.183748 15.6003 0.0801971C17.6503 0.0801971 19.73 0.000241039 21.78 0.000241039C50.9238 -0.0432514 79.7756 5.80729 106.6 17.2002C134.416 28.9848 159.439 46.4947 180.04 68.5902C195.209 84.7368 207.797 103.126 217.36 123.11C226.928 103.127 239.519 84.7373 254.69 68.5902C275.291 46.4947 300.314 28.9848 328.13 17.2002C354.951 5.80729 383.8 -0.0432807 412.94 0.000241039C415 0.000241039 417.08 0.000197098 419.13 0.0801971C422.789 0.186147 426.283 1.62639 428.954 4.12951C431.625 6.63264 433.288 10.026 433.63 13.6703C437.838 57.1685 428.737 100.919 407.53 139.13C407.511 139.176 407.487 139.219 407.46 139.26C406.6 140.82 405.67 142.43 404.72 144.06L404.55 144.34C403.68 145.81 402.77 147.34 401.76 148.91L401.52 149.32C400.59 150.78 399.64 152.25 398.68 153.7L398.32 154.24C397.4 155.63 396.44 157.01 395.48 158.39C395.48 158.39 395.13 158.91 394.99 159.1C394.05 160.43 393.08 161.75 392.11 163.1L391.97 163.28C391.82 163.5 391.67 163.71 391.51 163.92C390.6 165.14 389.67 166.33 388.73 167.53L388.5 167.83C388.29 168.1 388.08 168.38 387.86 168.65C386.96 169.79 386.02 170.92 385.09 172.06L384.89 172.3C406 184.12 417.78 197.76 420.02 213C431.57 237.38 425.85 264.72 415.76 312.92C414.21 320.31 412.62 327.92 410.92 336.29C410.113 340.29 409.284 344.447 408.43 348.76L407.43 354.05L406.57 358.51L405.75 362.9L404.93 367.31C404.66 368.75 404.39 370.23 404.12 371.72C399.58 396.85 396.07 415.93 392.3 432.55C391.59 435.71 390.87 438.76 390.16 441.62C389.45 444.48 388.66 447.48 387.92 450.18C387.54 451.57 387.15 452.94 386.76 454.28C385.97 457 385.15 459.65 384.32 462.15C382.58 467.43 380.78 472.15 378.83 476.69C374.191 487.784 367.703 498.009 359.64 506.93C348.524 518.977 335.283 528.872 320.58 536.12C311.638 540.509 302.304 544.047 292.7 546.69C289.7 547.53 286.6 548.31 283.47 549.01C281.94 549.35 280.41 549.68 278.89 550.01C270.137 551.734 261.298 552.989 252.41 553.77C249.76 554.01 246.97 554.23 244.12 554.42C240.52 554.66 236.67 554.87 232.37 555.06L228.66 555.21L221.9 555.45L216.59 555.64L213.9 555.72L211.13 555.8C209.37 555.847 207.57 555.887 205.73 555.92H202.64C201.134 555.92 199.603 555.92 198.05 555.92H195.48Z" fill="black"/>
<path d="M30.1504 222.99C85.6805 169.31 179.881 159.56 216.101 159.76C263.641 160.02 308.501 163.76 405.271 217.2C419.891 244.63 405.271 280.26 389.271 368.98C376.761 438.17 370.04 473.29 348.51 496.71C311.17 537.29 257.221 539.13 221.001 540.38C183.841 541.69 121.301 543.8 81.7906 500.38C71.7906 489.53 63.7905 476.17 42.9605 359.56C20.8905 236.22 26.3504 231.3 30.1504 222.99Z" fill="#00B089"/>
<path d="M372.83 200.19L332.11 278.09C332.11 278.09 341.87 442.69 270.98 503.43C237.78 531.88 213.06 539.291 199.51 540.921C207.26 540.921 214.51 540.641 220.96 540.411C257.18 539.161 311.13 537.32 348.47 496.74C370 473.32 376.72 438.201 389.23 369.01C405.28 280.29 419.89 244.66 405.23 217.23C393.75 210.87 382.97 205.22 372.83 200.19Z" fill="#019385"/>
<path d="M30.1504 222.991C30.9004 184.321 141.481 149.13 233.521 151.83C306.571 153.93 403.461 180.96 405.271 217.2C407.081 253.44 313.601 295.731 230.771 300.011C135.751 304.841 29.4004 261.171 30.1504 222.991Z" fill="#48BD9E"/>
<path d="M69.7998 220.09C70.3598 192.6 154.74 167.54 224.94 169.45C280.7 170.96 354.56 190.17 355.94 215.95C357.32 241.73 286.06 271.79 222.83 274.88C150.38 278.36 69.2398 247.25 69.7998 220.09Z" fill="black"/>
<path opacity="0.62" d="M396.109 333.27C396.109 333.37 333.799 517.73 73.1094 487.76C75.2835 492.413 78.1904 496.687 81.7192 500.42C121.229 543.83 183.72 541.72 220.93 540.42C257.15 539.17 311.099 537.33 348.439 496.75C369.969 473.33 376.689 438.21 389.199 369.02C391.579 355.99 393.909 344.14 396.109 333.27Z" fill="#037759"/>
<path d="M135.359 343.18C135.359 343.18 155.689 321.391 182.549 339.541" stroke="#231F20" stroke-width="4.27" stroke-miterlimit="10" stroke-linecap="round"/>
<path d="M302.581 343.18C302.581 343.18 282.251 321.391 255.381 339.541" stroke="#231F20" stroke-width="4.27" stroke-miterlimit="10" stroke-linecap="round"/>
<path d="M243.421 403.689C243.421 403.689 245.021 435.359 217.921 435.359C190.821 435.359 194.691 403.689 194.691 403.689H243.421Z" fill="#19181C"/>
<path d="M199.17 426.17C202.54 431.34 208.26 435.36 217.92 435.36C228.04 435.36 234.16 430.94 237.85 425.36C233.77 421.1 226.79 418.29 218.85 418.29C210.46 418.33 203.13 421.48 199.17 426.17Z" fill="#F37270"/>
<path d="M166.03 407.48C180.958 407.48 193.06 395.378 193.06 380.45C193.06 365.522 180.958 353.42 166.03 353.42C151.102 353.42 139 365.522 139 380.45C139 395.378 151.102 407.48 166.03 407.48Z" fill="#F8F9E3"/>
<path d="M269.729 407.48C284.657 407.48 296.759 395.378 296.759 380.45C296.759 365.522 284.657 353.42 269.729 353.42C254.801 353.42 242.699 365.522 242.699 380.45C242.699 395.378 254.801 407.48 269.729 407.48Z" fill="#F8F9E3"/>
<path d="M139 380.449C138.713 376.852 139.197 373.235 140.42 369.839C141.674 366.386 143.624 363.227 146.15 360.559C148.692 357.869 151.754 355.723 155.15 354.25C158.584 352.797 162.272 352.039 166 352.02C169.73 352.037 173.418 352.799 176.85 354.26C180.25 355.725 183.313 357.873 185.85 360.569C188.376 363.232 190.323 366.388 191.57 369.839C192.799 373.234 193.29 376.851 193.01 380.449C192.48 373.469 189.384 366.932 184.32 362.099C179.354 357.423 172.791 354.816 165.97 354.809C159.151 354.816 152.592 357.423 147.63 362.099C142.588 366.942 139.514 373.478 139 380.449Z" fill="#231F20"/>
<path d="M193.07 380.45C193.348 384.048 192.861 387.664 191.641 391.06C190.386 394.508 188.44 397.663 185.921 400.33C183.378 403.021 180.317 405.167 176.921 406.64C173.487 408.096 169.8 408.857 166.07 408.88C162.341 408.856 158.654 408.095 155.22 406.64C151.822 405.171 148.76 403.024 146.22 400.33C143.696 397.663 141.749 394.504 140.501 391.05C139.275 387.659 138.787 384.045 139.07 380.45C139.594 387.43 142.687 393.968 147.751 398.8C152.717 403.477 159.279 406.084 166.101 406.09C172.924 406.084 179.488 403.473 184.45 398.79C189.484 393.947 192.553 387.416 193.07 380.45Z" fill="#231F20"/>
<path d="M164.609 408.08C174.407 408.08 182.349 400.137 182.349 390.34C182.349 380.542 174.407 372.6 164.609 372.6C154.812 372.6 146.869 380.542 146.869 390.34C146.869 400.137 154.812 408.08 164.609 408.08Z" fill="#040809"/>
<path d="M242.69 380.449C242.406 376.851 242.894 373.234 244.12 369.839C245.37 366.387 247.317 363.228 249.839 360.559C252.384 357.871 255.445 355.725 258.839 354.25C262.277 352.798 265.968 352.04 269.699 352.02C273.426 352.037 277.111 352.799 280.54 354.26C283.938 355.729 287 357.876 289.54 360.569C292.059 363.237 294.005 366.392 295.259 369.839C296.485 373.234 296.973 376.851 296.69 380.449C296.16 373.469 293.064 366.932 288 362.099C283.036 357.425 276.478 354.818 269.66 354.809C262.838 354.816 256.276 357.423 251.31 362.099C246.271 366.943 243.201 373.479 242.69 380.449Z" fill="#231F20"/>
<path d="M296.769 380.45C297.052 384.048 296.564 387.665 295.339 391.06C294.093 394.512 292.145 397.668 289.619 400.33C287.078 403.022 284.016 405.168 280.619 406.64C277.186 408.094 273.498 408.855 269.769 408.88C266.04 408.857 262.353 408.096 258.919 406.64C255.523 405.167 252.462 403.021 249.919 400.33C247.398 397.661 245.451 394.502 244.199 391.05C242.978 387.658 242.491 384.045 242.769 380.45C243.301 387.43 246.397 393.966 251.459 398.8C256.425 403.477 262.988 406.084 269.809 406.09C276.63 406.083 283.19 403.472 288.149 398.79C293.186 393.949 296.256 387.417 296.769 380.45Z" fill="#231F20"/>
<path d="M268.32 408.08C278.118 408.08 286.06 400.137 286.06 390.34C286.06 380.542 278.118 372.6 268.32 372.6C258.523 372.6 250.58 380.542 250.58 390.34C250.58 400.137 258.523 408.08 268.32 408.08Z" fill="#040809"/>
<path d="M384.41 314.095C387.461 297.854 385.834 283.919 380.775 282.968C375.716 282.018 369.142 294.413 366.091 310.653C363.04 326.893 364.667 340.829 369.726 341.779C374.785 342.73 381.359 330.335 384.41 314.095Z" fill="white"/>
<path d="M355.829 358.19C359.773 358.19 362.969 354.993 362.969 351.05C362.969 347.107 359.773 343.91 355.829 343.91C351.886 343.91 348.689 347.107 348.689 351.05C348.689 354.993 351.886 358.19 355.829 358.19Z" fill="white"/>
<path d="M69.4692 171.99C88.989 192.883 112.737 209.377 139.131 220.373C165.525 231.369 193.959 236.614 222.539 235.76L15.9193 15.0596C13.1836 43.5202 16.5445 72.2372 25.7782 99.297C35.012 126.357 49.9063 151.138 69.4692 171.99Z" fill="#019385"/>
<path d="M15.9199 15.0803L222.54 235.78C225.274 207.319 221.911 178.602 212.675 151.542C203.44 124.482 188.544 99.7015 168.98 78.8504C149.463 57.9564 125.717 41.4619 99.3242 30.4658C72.9317 19.4698 44.4987 14.2248 15.9199 15.0803Z" fill="#48BD9E"/>
<path opacity="0.62" d="M222.541 235.781C224.627 213.676 223.069 191.38 217.931 169.781C136.001 197.321 25.3302 97.7804 25.2402 97.6904C34.4187 125.373 49.5112 150.726 69.4702 171.99C88.9883 192.887 112.736 209.385 139.13 220.384C165.524 231.384 193.959 236.632 222.541 235.781Z" fill="#037759"/>
<path d="M139.27 87.6889C146.239 78.2463 141.136 62.6552 127.872 52.8653C114.608 43.0755 98.2056 42.794 91.2363 52.2366C84.267 61.6792 89.3699 77.2702 102.634 87.0601C115.898 96.85 132.301 97.1315 139.27 87.6889Z" fill="#F6FAFE"/>
<path d="M135.741 119.21C141.137 119.21 145.511 114.836 145.511 109.44C145.511 104.044 141.137 99.6699 135.741 99.6699C130.345 99.6699 125.971 104.044 125.971 109.44C125.971 114.836 130.345 119.21 135.741 119.21Z" fill="#F6FAFE"/>
<path d="M365.041 171.99C345.52 192.882 321.772 209.375 295.378 220.371C268.985 231.367 240.551 236.613 211.971 235.76L418.591 15.0596C421.327 43.5202 417.966 72.2372 408.732 99.297C399.498 126.357 384.604 151.138 365.041 171.99Z" fill="#019385"/>
<path d="M418.591 15.0803L211.971 235.78C209.237 207.319 212.6 178.602 221.835 151.542C231.071 124.482 245.967 99.7015 265.531 78.8504C285.048 57.9564 308.794 41.4619 335.187 30.4658C361.579 19.4698 390.012 14.2248 418.591 15.0803Z" fill="#48BD9E"/>
<path opacity="0.62" d="M211.969 235.781C209.883 213.676 211.441 191.38 216.58 169.781C298.51 197.321 409.18 97.7804 409.27 97.6904C400.091 125.373 384.999 150.726 365.04 171.99C345.521 192.886 321.774 209.383 295.38 220.383C268.986 231.382 240.551 236.631 211.969 235.781Z" fill="#037759"/>
</g>
<g clip-path="url(#clip1_5698_279)">
<path d="M725.691 569.93C722.631 569.93 719.601 569.93 716.691 569.82L714.371 569.75C711.161 569.64 707.971 569.49 704.901 569.29C703.301 569.19 701.68 569.07 700.05 568.93C697.57 568.73 695.051 568.48 692.631 568.2C680.489 566.878 668.501 564.4 656.831 560.8C655.091 560.25 653.35 559.67 651.66 559.07C630.53 551.58 612.66 539.96 598.66 524.52L597.481 523.21L596.651 522.21L595.961 521.4L595.3 520.59C594.89 520.08 594.451 519.5 594.001 518.9L593.941 518.81C593.701 518.5 593.471 518.17 593.231 517.81L593.14 517.68L592.55 516.83L592.461 516.7C592.251 516.37 592.031 516.05 591.811 515.7L591.751 515.6C590.801 514.13 589.881 512.6 589.001 510.9V510.82C588.791 510.43 588.581 510.02 588.371 509.61L588.3 509.47C588.13 509.14 587.93 508.73 587.72 508.31L587.671 508.2C581.141 494.68 572.801 469.32 556.191 376.2C546.631 322.66 541.34 286.31 540.03 265.1C538.88 246.47 540.71 239.31 543.43 233.16C545.34 217.24 557.97 202.35 580.43 189.39C579.81 188.67 579.181 187.94 578.571 187.21L577.8 186.28L577.231 185.58C576.411 184.58 575.591 183.58 574.791 182.58C574.571 182.31 574.361 182.03 574.151 181.75L573.89 181.42C572.97 180.25 572.05 179.07 571.16 177.88L570.64 177.17L570.47 176.93C569.52 175.65 568.581 174.37 567.671 173.08L567.171 172.35C566.211 171.016 565.264 169.64 564.331 168.22C564.231 168.07 564.111 167.89 564.001 167.71C563.001 166.23 562.07 164.77 561.14 163.29L560.91 162.91C559.91 161.26 558.961 159.76 558.091 158.29L557.97 158.09C534.735 118.779 524.598 73.0994 529.021 27.6498C529.363 24.0038 531.028 20.6091 533.701 18.1057C536.374 15.6024 539.87 14.1632 543.53 14.0597C545.58 14.0597 547.661 13.9797 549.711 13.9797C578.854 13.9362 607.706 19.7868 634.53 31.1797C662.347 42.9643 687.369 60.4742 707.97 82.5697C723.139 98.7163 735.728 117.106 745.291 137.09C754.858 117.106 767.45 98.7168 782.621 82.5697C803.222 60.4742 828.245 42.9643 856.061 31.1797C882.882 19.7868 911.73 13.9362 940.871 13.9797C942.931 13.9797 945.011 13.9797 947.061 14.0597C950.72 14.1656 954.213 15.6059 956.884 18.109C959.555 20.6121 961.218 24.0055 961.561 27.6498C965.769 71.148 956.667 114.899 935.461 153.11C935.441 153.155 935.417 153.199 935.39 153.24C934.53 154.8 933.601 156.41 932.651 158.04C932.588 158.133 932.531 158.23 932.481 158.33C931.611 159.79 930.691 161.33 929.671 162.92L929.47 163.25C928.52 164.76 927.571 166.25 926.611 167.68C926.471 167.9 926.361 168.06 926.251 168.22C925.331 169.61 924.37 170.99 923.41 172.37L922.921 173.08C921.981 174.41 921.011 175.73 920.041 177.08L919.901 177.26C919.751 177.48 919.601 177.69 919.441 177.9C918.531 179.12 917.6 180.31 916.66 181.51L916.43 181.81C916.22 182.08 916.011 182.36 915.791 182.63C914.881 183.78 913.93 184.93 912.99 186.07L912.82 186.28C933.93 198.1 945.71 211.74 947.95 226.97C959.5 251.35 953.781 278.7 943.691 326.9C942.141 334.28 940.551 341.9 938.851 350.27C938.037 354.27 937.207 358.426 936.361 362.74L935.361 368.04L934.51 372.51L933.691 376.88L932.871 381.27C932.601 382.74 932.331 384.21 932.061 385.71C927.521 410.83 924.06 429.9 920.24 446.53C919.53 449.69 918.811 452.74 918.101 455.6C917.391 458.46 916.601 461.48 915.861 464.16C915.481 465.55 915.09 466.92 914.7 468.26C913.91 470.98 913.09 473.62 912.26 476.13C910.52 481.42 908.721 486.18 906.771 490.67C902.132 501.763 895.643 511.989 887.581 520.91C878.842 530.406 868.758 538.57 857.651 545.14C856.151 546.03 854.651 546.89 853.111 547.72C817.401 567.08 778.221 568.43 749.611 569.42L744.53 569.6L741.841 569.68L739.07 569.76C737.304 569.806 735.504 569.846 733.671 569.88H730.581C729.067 569.88 727.537 569.88 725.99 569.88L725.691 569.93Z" fill="black"/>
<path d="M558.13 236.99C613.65 183.31 707.86 173.56 744.08 173.76C791.62 174.02 836.48 177.76 933.25 231.2C947.87 258.63 933.25 294.26 917.25 382.98C904.74 452.17 898.02 487.29 876.49 510.71C839.15 551.29 785.2 553.13 748.98 554.38C711.82 555.69 649.28 557.8 609.77 514.38C599.77 503.53 591.77 490.17 570.94 373.56C548.89 250.22 554.35 245.3 558.13 236.99Z" fill="#B8C6D2"/>
<path d="M900.83 214.19L860.11 292.09C860.11 292.09 869.87 456.69 798.98 517.43C765.78 545.88 741.05 553.291 727.51 554.921C735.26 554.921 742.51 554.641 748.96 554.411C785.18 553.161 839.13 551.32 876.47 510.74C898 487.32 904.72 452.201 917.23 383.01C933.23 294.29 947.89 258.66 933.23 231.23C921.75 224.87 910.97 219.22 900.83 214.19Z" fill="#A5B4BF"/>
<path d="M558.131 236.991C558.881 198.321 669.461 163.13 761.501 165.83C834.501 167.93 931.441 194.96 933.251 231.2C935.061 267.44 841.581 309.731 758.751 314.011C663.751 318.841 557.401 275.171 558.131 236.991Z" fill="#C2D7E6"/>
<path d="M597.8 234.09C598.36 206.6 682.74 181.54 752.94 183.45C808.7 184.96 882.56 204.17 883.94 229.95C885.32 255.73 814.06 285.79 750.83 288.88C678.38 292.36 597.24 261.25 597.8 234.09Z" fill="black"/>
<path opacity="0.62" d="M924.131 347.27C924.131 347.37 861.821 531.73 601.131 501.76C603.305 506.413 606.212 510.687 609.741 514.42C649.251 557.83 711.791 555.72 748.951 554.42C785.171 553.17 839.121 551.33 876.461 510.75C897.991 487.33 904.711 452.21 917.221 383.02C919.581 369.99 921.911 358.14 924.131 347.27Z" fill="#82939E"/>
<path d="M719.93 440.73L773.48 432.69" stroke="#19181C" stroke-width="4.18" stroke-miterlimit="10" stroke-linecap="round"/>
<path d="M669.43 356.68C669.43 356.68 689.37 335.31 715.72 353.12" stroke="#19181C" stroke-width="4.18" stroke-miterlimit="10" stroke-linecap="round"/>
<path d="M833.45 356.68C833.45 356.68 813.5 335.31 787.15 353.12" stroke="#19181C" stroke-width="4.18" stroke-miterlimit="10" stroke-linecap="round"/>
<path d="M699.751 423.56C714.679 423.56 726.781 411.458 726.781 396.53C726.781 381.602 714.679 369.5 699.751 369.5C684.822 369.5 672.721 381.602 672.721 396.53C672.721 411.458 684.822 423.56 699.751 423.56Z" fill="#F2F6DC"/>
<path d="M803.46 423.56C818.388 423.56 830.49 411.458 830.49 396.53C830.49 381.602 818.388 369.5 803.46 369.5C788.531 369.5 776.43 381.602 776.43 396.53C776.43 411.458 788.531 423.56 803.46 423.56Z" fill="#F2F6DC"/>
<path d="M672.721 396.53C672.434 392.932 672.918 389.315 674.14 385.92C675.395 382.472 677.342 379.317 679.861 376.65C682.4 373.956 685.463 371.809 688.861 370.34C692.292 368.879 695.981 368.118 699.711 368.1C703.44 368.123 707.128 368.884 710.561 370.34C713.959 371.809 717.021 373.956 719.561 376.65C722.087 379.312 724.034 382.468 725.281 385.92C726.51 389.313 726.998 392.931 726.711 396.53C726.187 389.55 723.094 383.012 718.031 378.18C713.065 373.503 706.502 370.896 699.68 370.89C692.859 370.896 686.297 373.503 681.331 378.18C676.301 383.028 673.235 389.562 672.721 396.53Z" fill="#19181C"/>
<path d="M726.78 396.53C727.066 400.128 726.582 403.745 725.36 407.14C724.103 410.592 722.153 413.751 719.63 416.42C717.087 419.111 714.026 421.257 710.63 422.73C707.196 424.183 703.508 424.941 699.78 424.96C696.05 424.942 692.361 424.181 688.93 422.72C685.53 421.254 682.467 419.107 679.93 416.41C677.404 413.748 675.456 410.592 674.21 407.14C672.979 403.747 672.492 400.129 672.78 396.53C673.303 403.51 676.396 410.048 681.46 414.88C686.426 419.557 692.988 422.164 699.81 422.17C706.631 422.164 713.194 419.557 718.16 414.88C723.193 410.033 726.263 403.499 726.78 396.53Z" fill="#19181C"/>
<path d="M700.32 414.27C710.118 414.27 718.06 406.328 718.06 396.53C718.06 386.732 710.118 378.79 700.32 378.79C690.523 378.79 682.58 386.732 682.58 396.53C682.58 406.328 690.523 414.27 700.32 414.27Z" fill="black"/>
<path d="M776.42 396.53C776.137 392.932 776.625 389.315 777.85 385.92C779.096 382.468 781.044 379.312 783.57 376.65C786.109 373.955 789.171 371.808 792.57 370.34C796.002 368.881 799.69 368.12 803.42 368.1C807.149 368.123 810.837 368.884 814.27 370.34C817.666 371.812 820.728 373.959 823.27 376.65C825.789 379.317 827.735 382.472 828.99 385.92C830.21 389.316 830.697 392.932 830.42 396.53C829.888 389.55 826.793 383.014 821.73 378.18C816.764 373.503 810.201 370.896 803.38 370.89C796.561 370.896 790.002 373.503 785.04 378.18C780.003 383.025 776.933 389.56 776.42 396.53Z" fill="#19181C"/>
<path d="M830.49 396.53C830.773 400.128 830.286 403.746 829.061 407.14C827.808 410.592 825.861 413.75 823.34 416.42C820.795 419.108 817.734 421.254 814.34 422.73C810.907 424.183 807.219 424.941 803.49 424.96C799.761 424.94 796.073 424.179 792.64 422.72C789.243 421.249 786.181 419.102 783.64 416.41C781.118 413.745 779.171 410.59 777.921 407.14C776.695 403.746 776.207 400.128 776.49 396.53C777.023 403.508 780.115 410.042 785.171 414.88C790.138 419.555 796.699 422.162 803.521 422.17C810.342 422.164 816.905 419.557 821.871 414.88C826.908 410.035 829.977 403.5 830.49 396.53Z" fill="#19181C"/>
<path d="M803.461 414.27C813.258 414.27 821.201 406.328 821.201 396.53C821.201 386.732 813.258 378.79 803.461 378.79C793.663 378.79 785.721 386.732 785.721 396.53C785.721 406.328 793.663 414.27 803.461 414.27Z" fill="black"/>
<path d="M912.445 328.095C915.496 311.854 913.869 297.919 908.81 296.968C903.751 296.018 897.177 308.413 894.126 324.653C891.075 340.893 892.703 354.829 897.761 355.779C902.82 356.73 909.394 344.335 912.445 328.095Z" fill="white"/>
<path d="M883.839 372.19C887.783 372.19 890.979 368.993 890.979 365.05C890.979 361.107 887.783 357.91 883.839 357.91C879.896 357.91 876.699 361.107 876.699 365.05C876.699 368.993 879.896 372.19 883.839 372.19Z" fill="white"/>
<path d="M597.469 185.99C616.989 206.883 640.737 223.377 667.131 234.373C693.525 245.369 721.959 250.614 750.539 249.76L543.919 29.0596C541.184 57.5202 544.544 86.2372 553.778 113.297C563.012 140.357 577.906 165.138 597.469 185.99Z" fill="#A5B4BF"/>
<path d="M543.92 29.0803L750.54 249.78C753.274 221.319 749.911 192.602 740.675 165.542C731.44 138.482 716.544 113.701 696.98 92.8504C677.463 71.9564 653.717 55.4619 627.324 44.4658C600.932 33.4698 572.499 28.2248 543.92 29.0803Z" fill="#B8C6D2"/>
<path opacity="0.62" d="M750.541 249.781C752.627 227.676 751.069 205.38 745.93 183.781C664 211.321 553.33 111.78 553.24 111.69C562.419 139.373 577.511 164.726 597.47 185.99C616.988 206.887 640.736 223.385 667.13 234.384C693.524 245.384 721.959 250.632 750.541 249.781Z" fill="#82939E"/>
<path d="M667.254 101.672C674.224 92.2297 669.121 76.6386 655.857 66.8487C642.592 57.0589 626.19 56.7774 619.221 66.22C612.251 75.6626 617.354 91.2536 630.618 101.043C643.882 110.833 660.285 111.115 667.254 101.672Z" fill="#F6FAFE"/>
<path d="M663.75 133.21C669.146 133.21 673.52 128.836 673.52 123.44C673.52 118.044 669.146 113.67 663.75 113.67C658.355 113.67 653.98 118.044 653.98 123.44C653.98 128.836 658.355 133.21 663.75 133.21Z" fill="#F6FAFE"/>
<path d="M893.041 185.99C873.52 206.881 849.772 223.374 823.378 234.37C796.984 245.366 768.551 250.612 739.971 249.76L946.591 29.0596C949.327 57.5202 945.966 86.2372 936.732 113.297C927.498 140.357 912.604 165.138 893.041 185.99Z" fill="#A5B4BF"/>
<path d="M946.59 29.0803L739.97 249.78C737.234 221.319 740.596 192.601 749.832 165.541C759.067 138.481 773.964 113.7 793.53 92.8504C813.047 71.9564 836.793 55.4619 863.186 44.4658C889.578 33.4698 918.011 28.2248 946.59 29.0803Z" fill="#B8C6D2"/>
<path opacity="0.62" d="M739.969 249.781C737.883 227.676 739.441 205.38 744.58 183.781C826.51 211.321 937.18 111.78 937.27 111.69C928.091 139.373 912.999 164.726 893.04 185.99C873.52 206.886 849.773 223.382 823.379 234.382C796.985 245.381 768.551 250.63 739.969 249.781Z" fill="#82939E"/>
</g>
<g clip-path="url(#clip2_5698_279)">
<path d="M1775.69 555.93C1772.63 555.93 1769.6 555.93 1766.69 555.82L1764.37 555.75C1761.16 555.64 1757.97 555.49 1754.91 555.29C1753.3 555.19 1751.68 555.07 1750.05 554.93C1747.57 554.73 1745.05 554.48 1742.63 554.2C1730.49 552.878 1718.5 550.4 1706.83 546.8C1705.09 546.25 1703.35 545.67 1701.66 545.07C1680.53 537.58 1662.66 525.96 1648.66 510.52L1647.48 509.21L1646.65 508.21L1645.96 507.4L1645.31 506.59C1644.9 506.08 1644.45 505.5 1644 504.9L1643.94 504.81C1643.7 504.5 1643.47 504.17 1643.24 503.81C1643.2 503.769 1643.17 503.725 1643.14 503.68C1642.95 503.4 1642.75 503.12 1642.56 502.83C1642.53 502.789 1642.5 502.746 1642.47 502.7C1642.25 502.37 1642.03 502.05 1641.82 501.7C1641.79 501.671 1641.77 501.637 1641.75 501.6C1640.81 500.13 1639.88 498.6 1639 496.9V496.82C1638.79 496.43 1638.58 496.02 1638.37 495.61L1638.3 495.47C1638.13 495.14 1637.93 494.73 1637.72 494.31L1637.67 494.2C1631.14 480.68 1622.8 455.32 1606.19 362.2C1596.63 308.66 1591.34 272.31 1590.03 251.1C1588.88 232.47 1590.71 225.31 1593.44 219.16C1595.34 203.24 1607.97 188.35 1630.44 175.39C1629.81 174.67 1629.18 173.94 1628.57 173.21L1627.81 172.28L1627.24 171.58C1626.41 170.58 1625.59 169.58 1624.79 168.58C1624.57 168.31 1624.36 168.03 1624.15 167.75L1623.89 167.42C1622.98 166.25 1622.06 165.07 1621.16 163.88L1620.65 163.17L1620.47 162.93C1619.52 161.65 1618.58 160.366 1617.67 159.08L1617.17 158.35C1616.22 156.99 1615.26 155.61 1614.33 154.22L1614 153.71C1613 152.23 1612.07 150.77 1611.14 149.29L1610.91 148.91C1609.91 147.26 1608.96 145.76 1608.09 144.29L1607.97 144.09C1584.72 104.784 1574.56 59.1048 1578.97 13.6498C1579.31 10.0038 1580.98 6.60906 1583.65 4.10571C1586.32 1.60236 1589.82 0.16324 1593.48 0.0596893C1595.53 0.0596893 1597.61 -0.0202668 1599.67 -0.0202668C1628.81 -0.0629617 1657.66 5.78757 1684.48 17.1797C1712.3 28.9643 1737.32 46.4742 1757.92 68.5697C1773.09 84.7185 1785.68 103.107 1795.25 123.09C1804.81 103.104 1817.4 84.7145 1832.57 68.5697C1853.17 46.4742 1878.19 28.9643 1906.01 17.1797C1932.83 5.78678 1961.68 -0.0637885 1990.82 -0.0202668C1992.88 -0.0202668 1994.96 -0.0203107 1997.01 0.0596893C2000.67 0.16324 2004.17 1.60236 2006.84 4.10571C2009.51 6.60906 2011.18 10.0038 2011.52 13.6498C2015.73 57.149 2006.62 100.9 1985.41 139.11C1985.39 139.155 1985.37 139.199 1985.34 139.24C1984.48 140.8 1983.55 142.41 1982.6 144.04C1982.54 144.133 1982.48 144.23 1982.43 144.33C1981.56 145.79 1980.64 147.33 1979.63 148.92L1979.43 149.25C1978.43 150.76 1977.52 152.25 1976.56 153.68L1976.2 154.22C1975.28 155.61 1974.32 156.99 1973.36 158.37C1973.36 158.37 1973.01 158.89 1972.87 159.08C1971.93 160.41 1970.96 161.73 1969.99 163.08L1969.86 163.26L1969.39 163.9C1968.48 165.12 1967.55 166.31 1966.61 167.51L1966.38 167.81C1966.17 168.08 1965.96 168.36 1965.74 168.63C1964.83 169.78 1963.89 170.93 1962.94 172.07L1962.77 172.28C1983.88 184.1 1995.66 197.74 1997.9 212.97C2009.45 237.35 2003.73 264.7 1993.64 312.9C1992.1 320.28 1990.5 327.9 1988.8 336.27C1987.99 340.27 1987.16 344.426 1986.31 348.74L1985.31 354.04L1984.45 358.51L1983.63 362.88L1982.81 367.27C1982.54 368.74 1982.27 370.21 1982 371.71C1977.46 396.83 1974 415.9 1970.18 432.53C1969.47 435.69 1968.75 438.74 1968.04 441.6C1967.33 444.46 1966.54 447.48 1965.8 450.16C1965.42 451.55 1965.03 452.92 1964.64 454.26C1963.85 456.98 1963.03 459.62 1962.2 462.13C1960.46 467.42 1958.66 472.18 1956.71 476.67C1952.07 487.763 1945.58 497.989 1937.52 506.91C1928.78 516.404 1918.7 524.567 1907.6 531.14C1906.09 532.03 1904.6 532.89 1903.05 533.72C1867.34 553.08 1828.16 554.43 1799.55 555.42L1794.47 555.6L1791.78 555.68L1789.01 555.76C1787.25 555.806 1785.45 555.846 1783.61 555.88H1780.52C1779.01 555.88 1777.48 555.88 1775.93 555.88L1775.69 555.93Z" fill="black"/>
<path d="M1608.12 222.99C1663.65 169.31 1757.86 159.55 1794.12 159.75C1841.66 160.01 1886.52 163.75 1983.29 217.2C1997.91 244.63 1983.29 280.26 1967.29 368.98C1954.78 438.17 1948.06 473.29 1926.53 496.71C1889.19 537.29 1835.24 539.13 1799.02 540.38C1761.86 541.69 1699.32 543.8 1659.81 500.38C1649.81 489.53 1641.76 476.17 1620.97 359.56C1598.89 236.22 1604.35 231.3 1608.12 222.99Z" fill="#F1594B"/>
<path d="M1950.83 200.19L1910.11 278.09C1910.11 278.09 1919.87 442.69 1848.98 503.43C1815.78 531.88 1791.05 539.291 1777.51 540.921C1785.26 540.921 1792.51 540.641 1798.96 540.411C1835.18 539.161 1889.13 537.32 1926.47 496.74C1948 473.32 1954.72 438.201 1967.23 369.01C1983.23 280.29 1997.89 244.66 1983.23 217.23C1971.75 210.87 1960.97 205.22 1950.83 200.19Z" fill="#D91F26"/>
<path d="M1608.12 222.991C1608.88 184.321 1719.46 149.13 1811.5 151.83C1884.5 153.93 1981.44 180.96 1983.25 217.2C1985.06 253.44 1891.58 295.731 1808.75 300.011C1713.75 304.841 1607.4 261.171 1608.12 222.991Z" fill="#F16465"/>
<path d="M1647.8 220.08C1648.36 192.59 1732.74 167.53 1802.94 169.44C1858.69 170.95 1932.56 190.16 1933.94 215.94C1935.32 241.72 1864.05 271.781 1800.83 274.871C1728.38 278.351 1647.24 247.24 1647.8 220.08Z" fill="black"/>
<path opacity="0.62" d="M1974.12 333.27C1974.12 333.37 1911.8 517.72 1651.12 487.76C1653.29 492.413 1656.2 496.687 1659.73 500.42C1699.24 543.83 1761.73 541.72 1798.94 540.42C1835.16 539.17 1889.11 537.33 1926.45 496.75C1947.98 473.33 1954.7 438.21 1967.21 369.02C1969.58 355.99 1971.91 344.14 1974.12 333.27Z" fill="#7C131A"/>
<path d="M1797.34 414.55C1797.34 414.55 1815.55 413.89 1828.13 408.55C1840.71 403.21 1860.57 404.55 1860.57 421.14C1860.57 437.73 1846.01 444.97 1833.1 439.67C1820.19 434.37 1815.88 428.42 1797.34 429.74C1778.8 431.06 1753.97 439.47 1743.05 439.34C1732.38 439.22 1725.17 433.05 1725.17 421.47C1725.17 409.89 1735.1 400.03 1755.63 405.78C1776.16 411.53 1788.38 415.33 1797.34 414.55Z" fill="#F2F6DC"/>
<path d="M1725.17 421.51C1724.95 418.181 1725.68 414.858 1727.28 411.93C1727.68 411.187 1728.15 410.481 1728.67 409.82C1729.21 409.164 1729.79 408.537 1730.4 407.94C1731.06 407.41 1731.72 406.86 1732.4 406.37C1733.08 405.88 1733.85 405.46 1734.63 405.1C1737.74 403.673 1741.11 402.926 1744.53 402.91C1745.38 402.86 1746.22 402.86 1747.07 402.91C1747.91 402.928 1748.76 403.001 1749.59 403.13L1752.09 403.47L1754.54 404C1757.81 404.72 1760.89 405.59 1764.06 406.42L1773.49 408.89C1779.76 410.47 1786.06 412.11 1792.29 412.6C1793.83 412.71 1795.38 412.71 1796.92 412.6C1798.56 412.54 1800.12 412.43 1801.74 412.3C1804.94 412.03 1808.13 411.63 1811.29 411.15C1814.45 410.683 1817.59 410.052 1820.69 409.26C1822.23 408.87 1823.75 408.4 1825.25 407.9L1827.47 407.1C1828.26 406.8 1829.07 406.51 1829.88 406.25C1836.36 404.112 1843.33 403.98 1849.88 405.87C1853.17 406.865 1856.05 408.879 1858.12 411.62C1859.09 413 1859.79 414.551 1860.18 416.19C1860.54 417.8 1860.67 419.453 1860.57 421.1C1860.47 417.878 1859.31 414.778 1857.29 412.27C1855.18 409.949 1852.41 408.342 1849.35 407.67C1846.29 406.942 1843.13 406.735 1840.01 407.06C1836.89 407.337 1833.81 408.009 1830.86 409.06C1830.12 409.33 1829.41 409.63 1828.69 409.94L1826.36 410.94C1824.79 411.52 1823.2 412.05 1821.6 412.51C1818.41 413.424 1815.18 414.168 1811.91 414.74C1808.65 415.32 1805.37 415.74 1802.08 416.04C1800.45 416.19 1798.77 416.32 1797.15 416.4C1795.44 416.52 1793.73 416.52 1792.02 416.4C1788.69 416.091 1785.39 415.553 1782.13 414.79C1778.9 414.06 1775.72 413.26 1772.57 412.37C1766.3 410.6 1760.01 408.67 1753.84 406.87L1751.55 406.27L1749.23 405.84C1748.46 405.685 1747.68 405.585 1746.89 405.54C1746.11 405.435 1745.33 405.375 1744.55 405.36C1741.43 405.167 1738.31 405.645 1735.4 406.76C1734.67 407.02 1734.01 407.42 1733.3 407.76C1732.59 408.1 1732 408.6 1731.36 409.04C1730.72 409.48 1730.16 410.04 1729.64 410.62C1729.11 411.197 1728.61 411.812 1728.17 412.46C1726.38 415.153 1725.34 418.279 1725.17 421.51Z" fill="#19181C"/>
<path d="M1860.57 421.18C1860.79 424.592 1860.24 428.01 1858.96 431.18C1857.59 434.426 1855.34 437.219 1852.45 439.24C1849.48 441.252 1846.03 442.424 1842.45 442.63C1838.88 442.832 1835.31 442.23 1832 440.87C1828.81 439.63 1825.72 438.13 1822.73 436.64C1819.85 435.126 1816.84 433.884 1813.73 432.93C1807.61 431.12 1800.98 431.28 1794.45 431.93C1787.84 432.714 1781.27 433.833 1774.77 435.28C1768.2 436.6 1761.66 438.17 1754.98 439.28C1751.61 439.926 1748.2 440.334 1744.78 440.5C1741.24 440.648 1737.72 439.988 1734.47 438.57C1731.22 437.12 1728.57 434.586 1726.98 431.4C1725.52 428.279 1724.9 424.833 1725.18 421.4C1725.28 423.07 1725.55 424.725 1725.99 426.34C1726.4 427.934 1727.05 429.458 1727.91 430.86C1729.58 433.635 1732.15 435.753 1735.2 436.86C1738.22 437.949 1741.45 438.346 1744.65 438.02C1747.93 437.672 1751.19 437.121 1754.4 436.37C1760.9 434.89 1767.4 433.26 1774 431.72C1780.6 430.16 1787.27 428.955 1794 428.11C1797.43 427.744 1800.89 427.614 1804.34 427.72C1807.86 427.815 1811.36 428.383 1814.73 429.41C1818.02 430.506 1821.2 431.909 1824.23 433.6C1827.23 435.16 1830.12 436.73 1833.14 438.07C1836.03 439.395 1839.16 440.078 1842.34 440.07C1845.53 440.078 1848.66 439.225 1851.41 437.6C1854.2 435.947 1856.47 433.547 1857.97 430.67C1859.49 427.722 1860.37 424.49 1860.57 421.18Z" fill="#19181C"/>
<path d="M1848.83 406.63L1836.31 440.77" stroke="#19181C" stroke-width="2.19" stroke-miterlimit="10"/>
<path d="M1738.57 403.93L1747.87 439.08" stroke="#19181C" stroke-width="2.19" stroke-miterlimit="10"/>
<path d="M1768.28 409.25L1771.5 434.16" stroke="#19181C" stroke-width="2.19" stroke-miterlimit="10"/>
<path d="M1794.7 414.09V429.32" stroke="#19181C" stroke-width="2.19" stroke-miterlimit="10"/>
<path d="M1823.54 409.26L1818.72 433.76" stroke="#19181C" stroke-width="2.19" stroke-miterlimit="10"/>
<path d="M1853.21 429.32C1843.01 427.67 1832.8 426.32 1822.58 425.18C1812.36 424.04 1802.09 423.18 1791.84 422.74C1781.59 422.3 1771.31 422.44 1761.02 422.68C1750.73 422.92 1740.42 423.4 1730.1 423.68C1740.33 422.24 1750.6 421.19 1760.92 420.53C1766.08 420.17 1771.25 419.98 1776.42 419.85C1781.59 419.72 1786.77 419.8 1791.96 420C1797.15 420.2 1802.3 420.64 1807.45 421.13C1812.6 421.62 1817.74 422.28 1822.85 423.06C1833.08 424.544 1843.22 426.634 1853.21 429.32Z" fill="#19181C"/>
<path d="M1719.12 349.55C1715.39 354.432 1713.37 360.406 1713.37 366.55C1713.37 374.021 1716.34 381.186 1721.62 386.469C1726.9 391.752 1734.07 394.72 1741.54 394.72C1748.69 394.714 1755.57 391.989 1760.78 387.097C1765.99 382.206 1769.15 375.514 1769.61 368.38L1719.12 349.55Z" fill="#F2F6DC"/>
<path d="M1769.52 367.99L1734.94 355.09C1731.29 358.837 1729.25 363.86 1729.25 369.09C1729.25 374.436 1731.38 379.562 1735.16 383.342C1738.94 387.122 1744.06 389.247 1749.41 389.25C1754.76 389.247 1759.88 387.122 1763.66 383.342C1767.44 379.562 1769.57 374.436 1769.57 369.09C1769.57 368.69 1769.54 368.32 1769.52 367.99Z" fill="black"/>
<path d="M1719.12 349.55C1716.73 353.165 1715.17 357.262 1714.54 361.55C1714.22 363.648 1714.16 365.778 1714.38 367.89C1714.43 368.42 1714.46 368.95 1714.53 369.47L1714.81 371.02C1715 372.055 1715.26 373.077 1715.58 374.08C1716.84 378.075 1719.01 381.726 1721.91 384.75C1722.62 385.506 1723.38 386.221 1724.17 386.89C1724.95 387.58 1725.82 388.15 1726.65 388.77C1728.39 389.903 1730.25 390.836 1732.2 391.55C1736.1 393.024 1740.28 393.578 1744.43 393.17C1748.6 392.752 1752.62 391.413 1756.2 389.25C1759.8 387.001 1762.88 383.995 1765.2 380.44C1767.52 376.78 1769.03 372.669 1769.63 368.38C1769.61 372.838 1768.51 377.225 1766.43 381.17C1764.26 385.163 1761.17 388.588 1757.43 391.17C1753.63 393.732 1749.27 395.363 1744.72 395.93C1740.14 396.45 1735.5 395.888 1731.18 394.29C1726.87 392.68 1723.01 390.064 1719.92 386.66C1716.83 383.255 1714.6 379.162 1713.41 374.72C1713.12 373.625 1712.9 372.512 1712.75 371.39L1712.54 369.7C1712.49 369.14 1712.54 368.57 1712.49 368.01C1712.45 366.882 1712.49 365.752 1712.61 364.63C1712.71 363.512 1712.9 362.403 1713.15 361.31C1714.13 356.954 1716.18 352.912 1719.12 349.55Z" fill="#19181C"/>
<path d="M1773.19 369.63L1709.9 346.52" stroke="#19181C" stroke-width="4.36" stroke-miterlimit="10" stroke-linecap="round"/>
<path d="M1872.36 349.55C1876.09 354.432 1878.11 360.406 1878.11 366.55C1878.11 374.021 1875.14 381.186 1869.86 386.469C1864.58 391.752 1857.41 394.72 1849.94 394.72C1842.79 394.717 1835.91 391.993 1830.69 387.101C1825.48 382.209 1822.32 375.515 1821.86 368.38L1872.36 349.55Z" fill="#F2F6DC"/>
<path d="M1872.26 349.55C1875.2 352.908 1877.26 356.946 1878.26 361.3C1878.51 362.394 1878.69 363.503 1878.8 364.62C1878.92 365.742 1878.96 366.872 1878.92 368C1878.92 368.56 1878.92 369.13 1878.87 369.69L1878.66 371.38C1878.51 372.502 1878.29 373.615 1878 374.71C1876.81 379.152 1874.58 383.245 1871.49 386.65C1868.4 390.054 1864.54 392.67 1860.23 394.28C1855.91 395.878 1851.27 396.44 1846.69 395.92C1842.14 395.351 1837.78 393.721 1833.97 391.16C1830.23 388.576 1827.15 385.151 1824.97 381.16C1822.89 377.217 1821.79 372.829 1821.77 368.37C1822.37 372.659 1823.88 376.77 1826.2 380.43C1828.52 383.985 1831.6 386.991 1835.2 389.24C1838.78 391.403 1842.8 392.742 1846.97 393.16C1851.12 393.568 1855.3 393.014 1859.2 391.54C1861.15 390.824 1863.01 389.891 1864.75 388.76C1865.58 388.14 1866.45 387.57 1867.23 386.88C1868.02 386.208 1868.78 385.494 1869.49 384.74C1872.39 381.716 1874.56 378.065 1875.82 374.07C1876.14 373.068 1876.4 372.046 1876.58 371.01L1876.87 369.46C1876.93 368.94 1876.96 368.46 1877.01 367.88C1877.23 365.769 1877.18 363.638 1876.86 361.54C1876.23 357.254 1874.66 353.16 1872.26 349.55Z" fill="#19181C"/>
<path d="M1821.92 367.99L1856.5 355.09C1860.14 358.84 1862.18 363.861 1862.19 369.09C1862.19 374.438 1860.06 379.565 1856.28 383.346C1852.5 387.126 1847.37 389.25 1842.02 389.25C1836.67 389.247 1831.55 387.122 1827.77 383.342C1823.99 379.562 1821.86 374.436 1821.86 369.09C1821.86 368.69 1821.9 368.32 1821.92 367.99Z" fill="black"/>
<path d="M1818.25 369.63L1881.53 346.52" stroke="#19181C" stroke-width="4.36" stroke-miterlimit="10" stroke-linecap="round"/>
<path d="M1962.48 314.099C1965.53 297.858 1963.91 283.922 1958.85 282.972C1953.79 282.022 1947.21 294.417 1944.16 310.657C1941.11 326.897 1942.74 340.833 1947.8 341.783C1952.86 342.734 1959.43 330.339 1962.48 314.099Z" fill="white"/>
<path d="M1933.84 358.19C1937.78 358.19 1940.98 354.993 1940.98 351.05C1940.98 347.107 1937.78 343.91 1933.84 343.91C1929.9 343.91 1926.7 347.107 1926.7 351.05C1926.7 354.993 1929.9 358.19 1933.84 358.19Z" fill="white"/>
<path d="M1647.47 171.99C1666.99 192.882 1690.73 209.375 1717.13 220.37C1743.52 231.364 1771.95 236.607 1800.53 235.75L1593.91 15.0596C1591.18 43.5207 1594.54 72.237 1603.78 99.2963C1613.01 126.355 1627.91 151.137 1647.47 171.99Z" fill="#D91F26"/>
<path d="M1593.91 15.0795L1800.53 235.77C1803.26 207.311 1799.9 178.595 1790.67 151.538C1781.44 124.48 1766.54 99.7 1746.98 78.8496C1727.46 57.9548 1703.71 41.4598 1677.32 30.4638C1650.93 19.4678 1622.49 14.2232 1593.91 15.0795Z" fill="#F16465"/>
<path opacity="0.62" d="M1800.53 235.77C1802.63 213.666 1801.07 191.369 1795.93 169.77C1714 197.31 1603.32 97.7697 1603.24 97.6797C1612.42 125.361 1627.51 150.714 1647.47 171.98C1666.99 192.878 1690.73 209.377 1717.12 220.376C1743.52 231.376 1771.95 236.623 1800.53 235.77Z" fill="#7C131A"/>
<path d="M1717.22 87.6557C1724.19 78.2131 1719.09 62.622 1705.82 52.8321C1692.56 43.0423 1676.15 42.7608 1669.19 52.2034C1662.22 61.646 1667.32 77.237 1680.58 87.0269C1693.85 96.8168 1710.25 97.0983 1717.22 87.6557Z" fill="#F6FAFE"/>
<path d="M1713.74 119.21C1719.14 119.21 1723.51 114.836 1723.51 109.44C1723.51 104.044 1719.14 99.6699 1713.74 99.6699C1708.34 99.6699 1703.97 104.044 1703.97 109.44C1703.97 114.836 1708.34 119.21 1713.74 119.21Z" fill="#F6FAFE"/>
<path d="M1943.03 171.99C1923.51 192.882 1899.77 209.375 1873.37 220.37C1846.98 231.364 1818.55 236.607 1789.97 235.75L1996.59 15.0596C1999.33 43.521 1995.96 72.2385 1986.73 99.2985C1977.49 126.358 1962.6 151.139 1943.03 171.99Z" fill="#D91F26"/>
<path d="M1996.59 15.0801L1789.97 235.77C1787.23 207.311 1790.6 178.596 1799.83 151.538C1809.06 124.48 1823.96 99.7006 1843.52 78.8501C1863.04 57.9569 1886.79 41.463 1913.18 30.4671C1939.57 19.4712 1968.01 14.2257 1996.59 15.0801Z" fill="#F16465"/>
<path opacity="0.62" d="M1789.97 235.77C1787.88 213.666 1789.43 191.368 1794.58 169.77C1876.51 197.31 1987.18 97.7697 1987.26 97.6797C1978.09 125.364 1962.99 150.719 1943.03 171.98C1923.51 192.878 1899.77 209.377 1873.38 220.376C1846.98 231.376 1818.55 236.623 1789.97 235.77Z" fill="#7C131A"/>
</g>
<g clip-path="url(#clip3_5698_279)">
<path d="M1253.7 555.93C1250.63 555.93 1247.61 555.93 1244.7 555.82L1242.38 555.75C1239.17 555.64 1235.98 555.49 1232.92 555.29C1231.31 555.19 1229.69 555.07 1228.06 554.93C1225.58 554.73 1223.06 554.48 1220.64 554.2C1208.5 552.878 1196.51 550.4 1184.84 546.8C1183.1 546.25 1181.36 545.67 1179.68 545.07C1158.54 537.58 1140.68 525.96 1126.68 510.52L1125.5 509.21L1124.67 508.21L1123.98 507.4L1123.33 506.59C1122.92 506.08 1122.47 505.5 1122.02 504.9L1121.96 504.81C1121.73 504.5 1121.49 504.17 1121.26 503.81L1121.16 503.68C1120.97 503.4 1120.77 503.12 1120.58 502.83C1120.55 502.789 1120.52 502.746 1120.49 502.7C1120.27 502.37 1120.05 502.05 1119.84 501.7C1119.81 501.671 1119.79 501.637 1119.77 501.6C1118.83 500.13 1117.9 498.6 1117.02 496.9V496.82C1116.81 496.43 1116.6 496.02 1116.39 495.61L1116.32 495.47C1116.15 495.14 1115.95 494.73 1115.75 494.31L1115.7 494.2C1109.16 480.68 1100.82 455.32 1084.21 362.2C1074.65 308.66 1069.37 272.31 1068.06 251.1C1066.9 232.47 1068.73 225.31 1071.46 219.16C1073.36 203.24 1085.99 188.35 1108.46 175.39C1107.83 174.67 1107.21 173.94 1106.59 173.21L1105.83 172.28L1105.26 171.58C1104.43 170.58 1103.61 169.58 1102.81 168.58L1102.17 167.75L1101.91 167.42C1101 166.25 1100.08 165.07 1099.18 163.88L1098.67 163.17L1098.49 162.93C1097.55 161.65 1096.61 160.37 1095.69 159.08L1095.19 158.35C1094.19 156.99 1093.28 155.61 1092.35 154.22L1092.02 153.71C1091.02 152.23 1090.09 150.77 1089.16 149.29L1088.93 148.91C1087.93 147.26 1086.98 145.76 1086.11 144.29L1086 144.09C1062.74 104.788 1052.58 59.1054 1057 13.6498C1057.34 10.0054 1059.01 6.61213 1061.68 4.10901C1064.35 1.60588 1067.84 0.165639 1071.5 0.059689C1073.55 0.059689 1075.63 -0.0202671 1077.69 -0.0202671C1106.83 -0.0629621 1135.68 5.78757 1162.5 17.1797C1190.32 28.9643 1215.34 46.4742 1235.94 68.5697C1251.11 84.7185 1263.7 103.107 1273.27 123.09C1282.83 103.104 1295.42 84.7145 1310.59 68.5697C1331.19 46.4742 1356.21 28.9643 1384.03 17.1797C1410.85 5.78678 1439.71 -0.0637596 1468.85 -0.0202671C1470.9 -0.0202671 1472.98 -0.020311 1475.03 0.059689C1478.69 0.16324 1482.19 1.60236 1484.86 4.10571C1487.53 6.60906 1489.2 10.0038 1489.54 13.6498C1493.74 57.149 1484.64 100.9 1463.43 139.11L1463.37 139.24C1462.5 140.8 1461.58 142.41 1460.62 144.04C1460.56 144.13 1460.51 144.23 1460.45 144.33C1459.58 145.79 1458.66 147.33 1457.65 148.92L1457.45 149.25C1456.45 150.76 1455.55 152.25 1454.58 153.68L1454.23 154.22C1453.3 155.61 1452.34 156.99 1451.38 158.37C1451.38 158.37 1451.03 158.89 1450.89 159.08C1449.95 160.41 1448.98 161.73 1448.01 163.08L1447.88 163.26L1447.41 163.9C1446.5 165.12 1445.57 166.31 1444.63 167.51L1444.4 167.81L1443.77 168.63C1442.85 169.783 1441.91 170.93 1440.96 172.07L1440.79 172.28C1461.9 184.1 1473.68 197.74 1475.92 212.97C1487.47 237.35 1481.75 264.7 1471.66 312.9C1470.12 320.28 1468.52 327.9 1466.83 336.27C1466.01 340.27 1465.18 344.426 1464.34 348.74L1463.34 354.04L1462.48 358.51L1461.66 362.88L1460.84 367.27C1460.57 368.74 1460.3 370.21 1460.03 371.71C1455.49 396.83 1452.03 415.9 1448.22 432.53C1447.5 435.69 1446.78 438.74 1446.07 441.6C1445.36 444.46 1444.57 447.48 1443.84 450.16C1443.45 451.55 1443.07 452.92 1442.67 454.26C1441.88 456.98 1441.06 459.62 1440.24 462.13C1438.49 467.42 1436.69 472.18 1434.75 476.67C1430.1 487.762 1423.61 497.987 1415.55 506.91C1406.81 516.404 1396.73 524.567 1385.63 531.14C1384.13 532.03 1382.63 532.89 1381.08 533.72C1345.38 553.08 1306.19 554.43 1277.58 555.42L1272.5 555.6L1269.82 555.68L1267.04 555.76C1265.28 555.806 1263.48 555.846 1261.64 555.88H1258.55C1257.04 555.88 1255.55 555.88 1253.97 555.88L1253.7 555.93Z" fill="black"/>
<path d="M1086.1 222.99C1141.63 169.31 1235.84 159.55 1272.1 159.75C1319.64 160.01 1364.5 163.75 1461.27 217.2C1475.89 244.63 1461.27 280.26 1445.27 368.98C1432.76 438.17 1426.04 473.29 1404.51 496.71C1367.17 537.29 1313.22 539.13 1277 540.38C1239.84 541.69 1177.3 543.8 1137.79 500.38C1127.79 489.53 1119.79 476.17 1098.96 359.56C1076.89 236.22 1082.35 231.3 1086.1 222.99Z" fill="#8270B3"/>
<path d="M1428.83 200.189L1388.11 278.089C1388.11 278.089 1397.87 442.689 1326.98 503.429C1293.78 531.879 1269.05 539.29 1255.51 540.92C1263.26 540.92 1270.51 540.64 1276.96 540.41C1313.18 539.16 1367.13 537.32 1404.47 496.74C1426 473.319 1432.72 438.2 1445.23 369.01C1461.23 280.29 1475.89 244.659 1461.23 217.229C1449.75 210.869 1438.97 205.219 1428.83 200.189Z" fill="#7463AB"/>
<path d="M1086.1 222.99C1086.86 184.32 1197.44 149.129 1289.48 151.829C1362.48 153.929 1459.42 180.959 1461.23 217.199C1463.04 253.439 1369.56 295.73 1286.73 300.01C1191.75 304.84 1085.4 261.17 1086.1 222.99Z" fill="#9C8EC4"/>
<path d="M1125.8 220.079C1126.36 192.589 1210.74 167.529 1280.94 169.439C1336.69 170.949 1410.56 190.159 1411.94 215.939C1413.32 241.719 1342.06 271.78 1278.83 274.87C1206.38 278.35 1125.24 247.239 1125.8 220.079Z" fill="black"/>
<g style="mix-blend-mode:multiply" opacity="0.5">
<path d="M1452.1 333.27C1452.1 333.37 1389.78 517.72 1129.1 487.76C1131.27 492.413 1134.18 496.687 1137.71 500.42C1177.22 543.83 1239.71 541.72 1276.92 540.42C1313.14 539.17 1367.09 537.33 1404.43 496.75C1425.96 473.33 1432.68 438.21 1445.19 369.02C1447.58 355.99 1449.91 344.14 1452.1 333.27Z" fill="#8270B3"/>
</g>
<path d="M1440.52 314.105C1443.57 297.864 1441.94 283.929 1436.88 282.978C1431.83 282.028 1425.25 294.423 1422.2 310.663C1419.15 326.903 1420.78 340.839 1425.84 341.789C1430.89 342.74 1437.47 330.345 1440.52 314.105Z" fill="white"/>
<path d="M1411.84 358.19C1415.78 358.19 1418.98 354.993 1418.98 351.05C1418.98 347.107 1415.78 343.91 1411.84 343.91C1407.9 343.91 1404.7 347.107 1404.7 351.05C1404.7 354.993 1407.9 358.19 1411.84 358.19Z" fill="white"/>
<path d="M1125.47 171.99C1144.99 192.883 1168.74 209.377 1195.13 220.371C1221.53 231.365 1249.96 236.608 1278.54 235.75L1071.92 15.0596C1069.19 43.5201 1072.55 72.2368 1081.78 99.2964C1091.02 126.356 1105.91 151.137 1125.47 171.99Z" fill="#7463AB"/>
<path d="M1071.92 15.0794L1278.54 235.769C1281.27 207.31 1277.91 178.594 1268.67 151.536C1259.44 124.478 1244.54 99.699 1224.98 78.8494C1205.46 57.9554 1181.72 41.4609 1155.32 30.4649C1128.93 19.4688 1100.5 14.2238 1071.92 15.0794Z" fill="#9C8EC4"/>
<g style="mix-blend-mode:multiply" opacity="0.5">
<path d="M1278.54 235.77C1280.63 213.666 1279.07 191.369 1273.93 169.77C1192 197.31 1081.33 97.7697 1081.24 97.6797C1090.42 125.361 1105.51 150.714 1125.47 171.98C1144.99 192.879 1168.73 209.378 1195.13 220.377C1221.52 231.377 1249.96 236.624 1278.54 235.77Z" fill="#8270B3"/>
</g>
<path d="M1195.2 87.6352C1202.17 78.1926 1197.07 62.6015 1183.81 52.8116C1170.54 43.0217 1154.14 42.7403 1147.17 52.1829C1140.2 61.6255 1145.3 77.2165 1158.57 87.0064C1171.83 96.7963 1188.23 97.0778 1195.2 87.6352Z" fill="#F6FAFE"/>
<path d="M1191.74 119.21C1197.14 119.21 1201.51 114.836 1201.51 109.44C1201.51 104.044 1197.14 99.6699 1191.74 99.6699C1186.34 99.6699 1181.97 104.044 1181.97 109.44C1181.97 114.836 1186.34 119.21 1191.74 119.21Z" fill="#F6FAFE"/>
<path d="M1421.04 171.99C1401.52 192.882 1377.77 209.374 1351.38 220.368C1324.98 231.362 1296.55 236.606 1267.97 235.75L1474.59 15.0596C1477.33 43.5201 1473.96 72.2368 1464.73 99.2964C1455.5 126.356 1440.6 151.137 1421.04 171.99Z" fill="#7463AB"/>
<path d="M1474.59 15.0794L1267.97 235.769C1265.23 207.31 1268.6 178.594 1277.83 151.535C1287.07 124.477 1301.96 99.6979 1321.53 78.8494C1341.05 57.9554 1364.79 41.4609 1391.19 30.4649C1417.58 19.4688 1446.01 14.2238 1474.59 15.0794Z" fill="#9C8EC4"/>
<g style="mix-blend-mode:multiply" opacity="0.5">
<path d="M1267.97 235.77C1265.88 213.666 1267.43 191.368 1272.58 169.77C1354.51 197.31 1465.18 97.7697 1465.27 97.6797C1456.09 125.361 1441 150.714 1421.04 171.98C1401.52 192.877 1377.77 209.375 1351.38 220.375C1324.99 231.374 1296.55 236.622 1267.97 235.77Z" fill="#8270B3"/>
</g>
<path d="M1220.6 410.98C1235.47 410.98 1247.53 398.923 1247.53 384.05C1247.53 369.177 1235.47 357.12 1220.6 357.12C1205.73 357.12 1193.67 369.177 1193.67 384.05C1193.67 398.923 1205.73 410.98 1220.6 410.98Z" fill="#F2F6DC"/>
<path d="M1247.52 384.05C1247.81 387.631 1247.32 391.231 1246.1 394.61C1244.86 398.049 1242.92 401.195 1240.4 403.85C1237.86 406.541 1234.8 408.682 1231.4 410.14C1227.98 411.583 1224.31 412.338 1220.6 412.36C1216.88 412.345 1213.21 411.587 1209.79 410.13C1206.39 408.668 1203.33 406.532 1200.79 403.85C1198.27 401.195 1196.33 398.049 1195.09 394.61C1193.87 391.23 1193.39 387.631 1193.67 384.05C1194.19 391 1197.28 397.509 1202.32 402.32C1207.26 406.985 1213.8 409.585 1220.6 409.59C1227.39 409.584 1233.93 406.983 1238.87 402.32C1243.91 397.509 1246.99 391 1247.52 384.05Z" fill="#19181C"/>
<path d="M1247.52 384.05C1247 377.096 1243.92 370.583 1238.87 365.77C1233.93 361.109 1227.39 358.512 1220.6 358.51C1213.8 358.505 1207.26 361.103 1202.32 365.77C1197.27 370.583 1194.19 377.096 1193.67 384.05C1193.39 380.465 1193.87 376.862 1195.09 373.479C1196.33 370.04 1198.27 366.894 1200.79 364.24C1203.33 361.558 1206.39 359.421 1209.79 357.959C1213.21 356.506 1216.88 355.748 1220.6 355.729C1224.31 355.751 1227.98 356.506 1231.4 357.949C1234.8 359.412 1237.86 361.553 1240.4 364.24C1242.92 366.894 1244.86 370.04 1246.1 373.479C1247.32 376.861 1247.81 380.465 1247.52 384.05Z" fill="#19181C"/>
<path d="M1220.6 412.3C1230.36 412.3 1238.27 404.389 1238.27 394.63C1238.27 384.871 1230.36 376.96 1220.6 376.96C1210.84 376.96 1202.93 384.871 1202.93 394.63C1202.93 404.389 1210.84 412.3 1220.6 412.3Z" fill="black"/>
<path d="M1325.91 410.98C1340.78 410.98 1352.84 398.923 1352.84 384.05C1352.84 369.177 1340.78 357.12 1325.91 357.12C1311.04 357.12 1298.98 369.177 1298.98 384.05C1298.98 398.923 1311.04 410.98 1325.91 410.98Z" fill="#F2F6DC"/>
<path d="M1352.84 384.05C1353.12 387.631 1352.64 391.23 1351.42 394.61C1350.18 398.049 1348.24 401.195 1345.72 403.85C1343.18 406.535 1340.12 408.675 1336.72 410.14C1333.3 411.583 1329.62 412.338 1325.91 412.36C1322.19 412.344 1318.52 411.586 1315.1 410.13C1311.7 408.669 1308.64 406.532 1306.1 403.85C1303.58 401.195 1301.64 398.049 1300.4 394.61C1299.18 391.231 1298.69 387.631 1298.97 384.05C1299.5 390.999 1302.58 397.506 1307.62 402.32C1312.57 406.981 1319.1 409.581 1325.9 409.59C1332.7 409.581 1339.23 406.981 1344.18 402.32C1349.22 397.505 1352.3 390.999 1352.84 384.05Z" fill="#19181C"/>
<path d="M1352.84 384.05C1352.31 377.098 1349.23 370.588 1344.19 365.77C1339.24 361.111 1332.71 358.514 1325.91 358.51C1319.11 358.509 1312.57 361.106 1307.63 365.77C1302.59 370.586 1299.51 377.097 1298.98 384.05C1298.7 380.465 1299.19 376.862 1300.41 373.479C1301.65 370.04 1303.59 366.894 1306.11 364.24C1308.65 361.557 1311.72 359.42 1315.11 357.959C1318.53 356.508 1322.2 355.75 1325.92 355.729C1329.63 355.751 1333.31 356.506 1336.73 357.949C1340.12 359.417 1343.19 361.557 1345.73 364.24C1348.25 366.894 1350.19 370.04 1351.43 373.479C1352.64 376.863 1353.13 380.466 1352.84 384.05Z" fill="#19181C"/>
<path d="M1325.91 412.3C1335.67 412.3 1343.58 404.389 1343.58 394.63C1343.58 384.871 1335.67 376.96 1325.91 376.96C1316.15 376.96 1308.24 384.871 1308.24 394.63C1308.24 404.389 1316.15 412.3 1325.91 412.3Z" fill="black"/>
<path d="M1348.97 354.86C1348.97 354.86 1327.14 364.03 1312.07 346.56" stroke="#19181C" stroke-width="3.96" stroke-miterlimit="10" stroke-linecap="round"/>
<path d="M1197.53 354.86C1197.53 354.86 1219.37 364.03 1234.44 346.56" stroke="#19181C" stroke-width="3.96" stroke-miterlimit="10" stroke-linecap="round"/>
<path d="M1251.6 441.369C1251.6 441.369 1250.24 414.569 1273.18 414.569C1296.12 414.569 1292.83 441.369 1292.83 441.369C1292.83 441.369 1283.58 434.679 1272.83 434.679C1262.08 434.679 1251.6 441.369 1251.6 441.369Z" fill="#19181C"/>
</g>
<g clip-path="url(#clip4_5698_279)">
<path d="M2350.7 569.93C2347.63 569.93 2344.61 569.93 2341.7 569.82L2339.38 569.75C2336.16 569.64 2332.97 569.49 2329.91 569.29C2328.3 569.19 2326.68 569.07 2325.06 568.93C2322.58 568.73 2320.06 568.48 2317.64 568.2C2305.5 566.878 2293.5 564.4 2281.83 560.8C2280.1 560.25 2278.36 559.67 2276.67 559.07C2255.54 551.58 2237.67 539.96 2223.67 524.52L2222.48 523.21L2221.66 522.21L2220.97 521.4L2220.31 520.59C2219.9 520.08 2219.46 519.5 2219.01 518.9L2218.95 518.81C2218.71 518.5 2218.48 518.17 2218.24 517.81L2218.15 517.68L2217.56 516.83L2217.47 516.7C2217.26 516.37 2217.04 516.05 2216.82 515.7L2216.76 515.6C2215.81 514.13 2214.89 512.6 2214.01 510.9V510.82L2213.39 509.61L2213.32 509.47C2213.15 509.14 2212.95 508.73 2212.74 508.31L2212.69 508.2C2206.15 494.68 2197.82 469.32 2181.21 376.2C2171.65 322.66 2166.36 286.31 2165.05 265.1C2163.9 246.47 2165.73 239.31 2168.45 233.16C2170.35 217.24 2182.99 202.35 2205.45 189.39C2204.82 188.67 2204.2 187.94 2203.59 187.21L2202.82 186.28L2202.25 185.58C2201.43 184.58 2200.61 183.58 2199.81 182.58C2199.59 182.31 2199.38 182.03 2199.16 181.75L2198.91 181.42C2197.99 180.25 2197.07 179.07 2196.18 177.88L2195.66 177.17L2195.49 176.93C2194.49 175.65 2193.6 174.37 2192.69 173.08L2192.19 172.35C2191.23 171.016 2190.28 169.64 2189.35 168.22L2189.02 167.71C2188.02 166.23 2187.08 164.77 2186.16 163.29L2185.92 162.91C2184.92 161.26 2183.97 159.76 2183.11 158.29L2182.99 158.09C2159.74 118.784 2149.58 73.1048 2153.99 27.6498C2154.33 24.0038 2156 20.6091 2158.67 18.1057C2161.34 15.6023 2164.84 14.1632 2168.5 14.0597C2170.5 14.0597 2172.63 13.9797 2174.68 13.9797C2203.82 13.9371 2232.68 19.7876 2259.5 31.1797C2287.32 42.9643 2312.34 60.4742 2332.94 82.5697C2348.11 98.7188 2360.69 117.108 2370.26 137.09C2379.83 117.112 2392.43 98.7296 2407.6 82.5897C2428.21 60.4987 2453.23 42.9896 2481.04 31.1997C2507.87 19.8076 2536.72 13.9571 2565.86 13.9997C2567.91 13.9997 2569.99 13.9997 2572.04 14.0797C2575.7 14.1833 2579.2 15.6224 2581.87 18.1257C2584.54 20.6291 2586.21 24.0238 2586.55 27.6698C2590.76 71.1681 2581.66 114.919 2560.45 153.13L2560.38 153.26C2559.51 154.82 2558.59 156.43 2557.63 158.06L2557.46 158.35C2556.6 159.81 2555.68 161.35 2554.66 162.94L2554.46 163.27C2553.46 164.78 2552.56 166.27 2551.6 167.7C2551.46 167.92 2551.35 168.08 2551.24 168.24C2550.32 169.63 2549.36 171.01 2548.39 172.39L2547.91 173.1C2546.97 174.43 2546 175.75 2545.02 177.1L2544.89 177.28C2544.74 177.5 2544.58 177.71 2544.43 177.92C2543.52 179.14 2542.58 180.33 2541.65 181.53L2541.42 181.83C2541.21 182.1 2541 182.38 2540.78 182.65C2539.87 183.8 2538.92 184.95 2537.98 186.09L2537.8 186.3C2558.92 198.12 2570.7 211.76 2572.93 226.99C2584.49 251.37 2578.76 278.72 2568.68 326.92C2567.13 334.3 2565.53 341.92 2563.84 350.29C2563.03 354.29 2562.19 358.46 2561.35 362.76L2560.35 368.06L2559.5 372.53L2558.67 376.9L2557.86 381.29C2557.59 382.76 2557.32 384.23 2557.05 385.73C2552.5 410.85 2549 429.92 2545.23 446.55C2544.52 449.71 2543.79 452.76 2543.08 455.62C2542.37 458.48 2541.59 461.5 2540.85 464.18C2540.47 465.57 2540.08 466.94 2539.69 468.28C2538.9 471 2538.08 473.64 2537.25 476.15C2535.51 481.44 2533.71 486.2 2531.76 490.69C2527.12 501.783 2520.63 512.009 2512.57 520.93C2503.83 530.424 2493.75 538.587 2482.64 545.16C2481.14 546.05 2479.64 546.91 2478.09 547.74C2442.39 567.1 2403.21 568.45 2374.6 569.44L2369.52 569.62L2366.83 569.7L2364.05 569.78C2362.29 569.78 2360.49 569.87 2358.66 569.9H2355.57C2354.06 569.9 2352.53 569.9 2350.98 569.9L2350.7 569.93Z" fill="black"/>
<path d="M2183.15 236.99C2238.68 183.31 2332.88 173.55 2369.1 173.75C2416.65 174.01 2461.5 177.75 2558.28 231.2C2572.9 258.63 2558.28 294.26 2542.28 382.98C2529.76 452.17 2523.04 487.29 2501.51 510.71C2464.17 551.29 2410.23 553.13 2374.01 554.38C2336.85 555.69 2274.31 557.8 2234.8 514.38C2224.8 503.53 2216.8 490.17 2195.96 373.56C2173.89 250.22 2179.36 245.3 2183.15 236.99Z" fill="#6CA2D4"/>
<path d="M2525.83 214.19L2485.12 292.09C2485.12 292.09 2494.88 456.69 2423.99 517.43C2390.78 545.88 2366.06 553.291 2352.52 554.921C2360.27 554.921 2367.52 554.641 2373.97 554.411C2410.19 553.161 2464.13 551.32 2501.47 510.74C2523 487.32 2529.72 452.201 2542.24 383.01C2558.29 294.29 2572.9 258.66 2558.24 231.23C2546.75 224.87 2535.98 219.22 2525.83 214.19Z" fill="#498BBD"/>
<path d="M2183.15 236.991C2183.9 198.321 2294.48 163.13 2386.52 165.83C2459.52 167.93 2556.46 194.96 2558.28 231.2C2560.1 267.44 2466.61 309.731 2383.78 314.011C2288.75 318.841 2182.41 275.171 2183.15 236.991Z" fill="#9CCBED"/>
<path d="M2222.8 234.08C2223.37 206.59 2307.74 181.53 2377.94 183.44C2433.7 184.95 2507.57 204.16 2508.94 229.94C2510.31 255.72 2439.06 285.781 2375.83 288.871C2303.39 292.351 2222.24 261.24 2222.8 234.08Z" fill="black"/>
<path opacity="0.62" d="M2549.12 347.27C2549.12 347.37 2486.8 531.72 2226.12 501.76C2228.3 506.412 2231.21 510.685 2234.74 514.42C2274.25 557.83 2336.79 555.72 2373.95 554.42C2410.17 553.17 2464.11 551.33 2501.45 510.75C2522.98 487.33 2529.7 452.21 2542.22 383.02C2544.6 369.99 2546.91 358.14 2549.12 347.27Z" fill="#2B709B"/>
<path d="M2537.56 328.117C2540.61 311.877 2538.98 297.941 2533.93 296.991C2528.87 296.041 2522.29 308.435 2519.24 324.676C2516.19 340.916 2517.82 354.852 2522.88 355.802C2527.94 356.752 2534.51 344.357 2537.56 328.117Z" fill="white"/>
<path d="M2508.84 372.19C2512.78 372.19 2515.98 368.993 2515.98 365.05C2515.98 361.107 2512.78 357.91 2508.84 357.91C2504.9 357.91 2501.7 361.107 2501.7 365.05C2501.7 368.993 2504.9 372.19 2508.84 372.19Z" fill="white"/>
<path d="M2222.48 185.99C2242 206.882 2265.74 223.375 2292.14 234.37C2318.53 245.364 2346.96 250.607 2375.54 249.75L2168.92 29.0596C2166.19 57.5208 2169.55 86.2377 2178.79 113.297C2188.02 140.357 2202.92 165.138 2222.48 185.99Z" fill="#498BBD"/>
<path d="M2168.92 29.0804L2375.54 249.77C2378.27 221.311 2374.91 192.596 2365.68 165.538C2356.45 138.48 2341.55 113.701 2321.99 92.8504C2302.47 71.9562 2278.72 55.4615 2252.33 44.4655C2225.93 33.4695 2197.5 28.2247 2168.92 29.0804Z" fill="#9CCBED"/>
<path opacity="0.62" d="M2375.54 249.77C2377.63 227.666 2376.07 205.368 2370.93 183.77C2289 211.31 2178.33 111.77 2178.25 111.68C2187.42 139.364 2202.52 164.719 2222.48 185.98C2241.99 206.878 2265.74 223.377 2292.13 234.376C2318.53 245.376 2346.96 250.623 2375.54 249.77Z" fill="#2B709B"/>
<path d="M2292.17 101.615C2299.14 92.1721 2294.04 76.581 2280.78 66.7911C2267.51 57.0012 2251.11 56.7198 2244.14 66.1624C2237.17 75.605 2242.27 91.196 2255.54 100.986C2268.8 110.776 2285.2 111.057 2292.17 101.615Z" fill="#F6FAFE"/>
<path d="M2288.74 133.21C2294.14 133.21 2298.51 128.836 2298.51 123.44C2298.51 118.044 2294.14 113.67 2288.74 113.67C2283.34 113.67 2278.97 118.044 2278.97 123.44C2278.97 128.836 2283.34 133.21 2288.74 133.21Z" fill="#F6FAFE"/>
<path d="M2518.04 185.99C2498.52 206.883 2474.78 223.376 2448.38 234.37C2421.99 245.364 2393.56 250.608 2364.98 249.75L2571.6 29.0801C2574.33 57.538 2570.96 86.2505 2561.73 113.306C2552.49 140.362 2537.6 165.139 2518.04 185.99Z" fill="#498BBD"/>
<path d="M2571.6 29.0795L2364.98 249.77C2362.24 221.311 2365.61 192.595 2374.84 165.538C2384.07 138.48 2398.97 113.7 2418.53 92.8496C2438.05 71.9548 2461.8 55.4598 2488.19 44.4638C2514.58 33.4678 2543.02 28.2232 2571.6 29.0795Z" fill="#9CCBED"/>
<path opacity="0.62" d="M2364.98 249.77C2362.89 227.666 2364.44 205.37 2369.58 183.77C2451.51 211.31 2562.19 111.77 2562.27 111.68C2553.09 139.361 2538 164.714 2518.04 185.98C2498.53 206.878 2474.78 223.377 2448.39 234.376C2422 245.376 2393.56 250.623 2364.98 249.77Z" fill="#2B709B"/>
<path d="M2318.62 426.36C2333.49 426.36 2345.55 414.303 2345.55 399.43C2345.55 384.557 2333.49 372.5 2318.62 372.5C2303.75 372.5 2291.69 384.557 2291.69 399.43C2291.69 414.303 2303.75 426.36 2318.62 426.36Z" fill="#F2F6DC"/>
<path d="M2345.6 399.43C2345.88 403.011 2345.39 406.611 2344.17 409.99C2342.93 413.427 2340.99 416.572 2338.48 419.23C2335.94 421.915 2332.88 424.056 2329.48 425.52C2326.06 426.967 2322.38 427.722 2318.67 427.74C2314.95 427.724 2311.28 426.97 2307.86 425.52C2304.47 424.052 2301.4 421.912 2298.86 419.23C2296.35 416.572 2294.41 413.427 2293.16 409.99C2291.94 406.61 2291.46 403.011 2291.74 399.43C2292.26 406.38 2295.35 412.889 2300.39 417.7C2305.31 422.356 2311.82 424.962 2318.6 424.99C2325.39 424.984 2331.93 422.383 2336.87 417.72C2341.94 412.913 2345.05 406.397 2345.6 399.43Z" fill="#19181C"/>
<path d="M2345.6 399.43C2345.07 392.477 2341.98 385.965 2336.94 381.15C2332 376.494 2325.46 373.898 2318.67 373.89C2311.87 373.886 2305.33 376.484 2300.39 381.15C2295.34 385.964 2292.26 392.477 2291.74 399.43C2291.46 395.846 2291.94 392.243 2293.16 388.86C2294.41 385.423 2296.35 382.278 2298.86 379.62C2301.41 376.941 2304.47 374.805 2307.86 373.34C2311.28 371.887 2314.95 371.129 2318.67 371.11C2322.38 371.133 2326.06 371.888 2329.48 373.33C2332.87 374.798 2335.94 376.938 2338.48 379.62C2340.99 382.278 2342.93 385.423 2344.17 388.86C2345.39 392.242 2345.88 395.845 2345.6 399.43Z" fill="#19181C"/>
<path d="M2318.62 427.68C2328.38 427.68 2336.29 419.769 2336.29 410.01C2336.29 400.251 2328.38 392.34 2318.62 392.34C2308.86 392.34 2300.95 400.251 2300.95 410.01C2300.95 419.769 2308.86 427.68 2318.62 427.68Z" fill="black"/>
<path d="M2423.94 426.36C2438.81 426.36 2450.87 414.303 2450.87 399.43C2450.87 384.557 2438.81 372.5 2423.94 372.5C2409.07 372.5 2397.01 384.557 2397.01 399.43C2397.01 414.303 2409.07 426.36 2423.94 426.36Z" fill="#F2F6DC"/>
<path d="M2450.87 399.43C2451.15 403.011 2450.67 406.61 2449.45 409.99C2448.21 413.429 2446.27 416.575 2443.75 419.23C2441.21 421.917 2438.15 424.058 2434.75 425.52C2431.33 426.968 2427.65 427.723 2423.94 427.74C2420.22 427.723 2416.55 426.968 2413.13 425.52C2409.73 424.056 2406.67 421.915 2404.13 419.23C2401.61 416.575 2399.67 413.429 2398.43 409.99C2397.21 406.611 2396.72 403.011 2397 399.43C2397.53 406.379 2400.61 412.886 2405.65 417.7C2410.6 422.361 2417.13 424.961 2423.93 424.97C2430.73 424.963 2437.26 422.363 2442.21 417.7C2447.25 412.885 2450.33 406.379 2450.87 399.43Z" fill="#19181C"/>
<path d="M2450.87 399.43C2450.34 392.479 2447.26 385.969 2442.22 381.15C2437.27 376.493 2430.73 373.897 2423.94 373.89C2417.14 373.89 2410.6 376.487 2405.66 381.15C2400.62 385.966 2397.54 392.478 2397.01 399.43C2396.73 395.845 2397.22 392.242 2398.44 388.86C2399.68 385.421 2401.62 382.275 2404.14 379.62C2406.68 376.938 2409.74 374.801 2413.14 373.34C2416.56 371.889 2420.23 371.131 2423.95 371.11C2427.66 371.132 2431.34 371.887 2434.76 373.33C2438.15 374.796 2441.22 376.936 2443.76 379.62C2446.28 382.275 2448.22 385.421 2449.46 388.86C2450.67 392.244 2451.15 395.847 2450.87 399.43Z" fill="#19181C"/>
<path d="M2423.94 427.68C2433.7 427.68 2441.61 419.769 2441.61 410.01C2441.61 400.251 2433.7 392.34 2423.94 392.34C2414.18 392.34 2406.27 400.251 2406.27 410.01C2406.27 419.769 2414.18 427.68 2423.94 427.68Z" fill="black"/>
<path d="M2267.95 381.1C2267.95 361.94 2304.95 332.9 2335 355.46" stroke="#19181C" stroke-width="4.36" stroke-miterlimit="10" stroke-linecap="round"/>
<path d="M2472.6 381.1C2472.6 361.94 2435.6 332.9 2405.6 355.46" stroke="#19181C" stroke-width="4.36" stroke-miterlimit="10" stroke-linecap="round"/>
<path d="M2351 440.45C2351 440.45 2369.6 415.89 2391.57 441.65" stroke="#19181C" stroke-width="3.96" stroke-miterlimit="10" stroke-linecap="round"/>
</g>
<defs>
<clipPath id="clip0_5698_279">
<rect width="434.5" height="555.93" fill="white"/>
</clipPath>
<clipPath id="clip1_5698_279">
<rect width="434.51" height="555.93" fill="white" transform="translate(528 14)"/>
</clipPath>
<clipPath id="clip2_5698_279">
<rect width="434.51" height="555.93" fill="white" transform="translate(1578)"/>
</clipPath>
<clipPath id="clip3_5698_279">
<rect width="434.51" height="555.93" fill="white" transform="translate(1056)"/>
</clipPath>
<clipPath id="clip4_5698_279">
<rect width="434.51" height="555.93" fill="white" transform="translate(2153 14)"/>
</clipPath>
</defs>
</svg>
