<svg width="1063" height="1197" viewBox="0 0 1063 1197" fill="none" xmlns="http://www.w3.org/2000/svg">
<g clip-path="url(#clip0_4358_968)">
<path d="M785.63 602.74C785.63 605.61 784.779 608.415 783.185 610.801C781.59 613.187 779.324 615.047 776.673 616.146C774.022 617.244 771.104 617.531 768.289 616.971C765.474 616.411 762.889 615.029 760.86 613C758.831 610.971 757.449 608.385 756.889 605.571C756.329 602.756 756.616 599.839 757.714 597.188C758.813 594.536 760.672 592.27 763.059 590.675C765.445 589.081 768.25 588.23 771.12 588.23C773.026 588.229 774.913 588.603 776.674 589.332C778.435 590.061 780.035 591.129 781.383 592.477C782.73 593.825 783.8 595.425 784.528 597.186C785.257 598.947 785.631 600.834 785.63 602.74Z" fill="#F26B6C"/>
<path d="M448.57 121.43C448.57 124.3 447.719 127.105 446.125 129.491C444.53 131.877 442.264 133.737 439.613 134.835C436.961 135.934 434.044 136.221 431.229 135.661C428.414 135.101 425.829 133.72 423.8 131.69C421.771 129.661 420.388 127.075 419.829 124.261C419.269 121.446 419.556 118.529 420.654 115.877C421.753 113.226 423.612 110.96 425.999 109.365C428.385 107.771 431.19 106.92 434.06 106.92C437.908 106.92 441.599 108.449 444.32 111.17C447.041 113.891 448.57 117.582 448.57 121.43Z" fill="#EDD946"/>
<path d="M759.11 1033.84C759.112 1036.71 758.262 1039.52 756.669 1041.9C755.076 1044.29 752.811 1046.15 750.16 1047.25C747.508 1048.35 744.591 1048.64 741.775 1048.08C738.96 1047.52 736.373 1046.14 734.343 1044.11C732.313 1042.08 730.93 1039.5 730.369 1036.68C729.809 1033.87 730.095 1030.95 731.193 1028.3C732.291 1025.65 734.151 1023.38 736.537 1021.79C738.924 1020.19 741.73 1019.34 744.6 1019.34C746.505 1019.34 748.391 1019.71 750.152 1020.44C751.912 1021.17 753.512 1022.24 754.859 1023.58C756.207 1024.93 757.276 1026.53 758.005 1028.29C758.735 1030.05 759.11 1031.94 759.11 1033.84Z" fill="#EDD946"/>
<path d="M896.83 348.66C896.83 351.53 895.979 354.335 894.385 356.721C892.79 359.107 890.524 360.967 887.873 362.065C885.221 363.164 882.304 363.451 879.489 362.891C876.675 362.331 874.089 360.95 872.06 358.92C870.031 356.891 868.649 354.305 868.089 351.491C867.529 348.676 867.816 345.759 868.915 343.107C870.013 340.456 871.873 338.19 874.259 336.596C876.645 335.001 879.45 334.15 882.32 334.15C886.168 334.15 889.859 335.679 892.58 338.4C895.301 341.121 896.83 344.812 896.83 348.66Z" fill="#EDD946"/>
<path d="M256.19 896.6C256.19 899.47 255.339 902.275 253.745 904.662C252.15 907.048 249.884 908.907 247.233 910.005C244.582 911.104 241.664 911.391 238.849 910.831C236.034 910.271 233.449 908.89 231.42 906.86C229.391 904.831 228.009 902.245 227.449 899.431C226.889 896.616 227.176 893.699 228.274 891.047C229.373 888.396 231.233 886.13 233.619 884.536C236.005 882.941 238.81 882.09 241.68 882.09C245.528 882.09 249.219 883.619 251.94 886.34C254.661 889.061 256.19 892.752 256.19 896.6Z" fill="#F26B6C"/>
<path d="M295.24 225.69C303.254 225.69 309.75 219.194 309.75 211.18C309.75 203.166 303.254 196.67 295.24 196.67C287.226 196.67 280.73 203.166 280.73 211.18C280.73 219.194 287.226 225.69 295.24 225.69Z" fill="#61388A"/>
<path d="M1048.11 288.69C1056.12 288.69 1062.62 282.194 1062.62 274.18C1062.62 266.166 1056.12 259.67 1048.11 259.67C1040.1 259.67 1033.6 266.166 1033.6 274.18C1033.6 282.194 1040.1 288.69 1048.11 288.69Z" fill="#61388A"/>
<path d="M27.5002 642.53C35.5139 642.53 42.0102 636.033 42.0102 628.02C42.0102 620.006 35.5139 613.51 27.5002 613.51C19.4866 613.51 12.9902 620.006 12.9902 628.02C12.9902 636.033 19.4866 642.53 27.5002 642.53Z" fill="#48BEA2"/>
<path d="M803.08 880.09L801.97 875.7C802.28 875.62 833.54 867.51 840.46 849.28C841.986 845.16 842.203 840.668 841.08 836.42C830.08 843.62 816.08 846.25 802.67 838.72C792.4 832.95 787.14 825.2 788.25 817.46C789.2 810.77 794.88 805.27 802.71 803.46C812.71 801.14 827.48 804.81 839.25 822.07C840.775 824.317 842.113 826.684 843.25 829.15C845.318 827.364 847.228 825.403 848.96 823.29C860.18 809.63 865.29 788.58 851.42 772.37L854.86 769.43C870.35 787.53 864.47 811.53 852.46 826.16C850.223 828.889 847.709 831.379 844.96 833.59C846.836 839.231 846.723 845.343 844.64 850.91C836.93 871.33 804.45 879.74 803.08 880.09ZM808.33 807.34C806.786 807.335 805.245 807.506 803.74 807.85C797.74 809.25 793.41 813.27 792.74 818.09C791.92 823.89 796.35 829.97 804.91 834.77C817.6 841.89 830.11 838.68 839.63 832.02C838.514 829.419 837.14 826.937 835.53 824.61C826.79 811.82 816.45 807.34 808.33 807.34Z" fill="#D84C53"/>
<path d="M219.51 770.71C204.51 770.71 190.74 761.81 182.51 750.93C180.376 748.126 178.537 745.11 177.02 741.93C171.079 742.465 165.135 740.935 160.19 737.6C142.1 725.33 141.42 691.79 141.4 690.37L145.92 690.31C145.92 690.63 146.59 722.92 162.73 733.86C166.397 736.275 170.71 737.523 175.1 737.44C170.64 725.06 171.32 710.84 181.74 699.54C189.74 690.88 198.47 687.54 205.74 690.42C212.03 692.9 216.07 699.69 216.03 707.74C215.98 717.96 208.98 731.53 189.47 738.98C186.932 739.964 184.316 740.733 181.65 741.28C182.918 743.7 184.383 746.01 186.03 748.19C196.74 762.26 216.03 772.09 235.03 762.35L237.1 766.35C231.672 769.194 225.638 770.69 219.51 770.71ZM200.4 693.94C195.69 693.94 190.29 696.94 185.07 702.61C175.21 713.31 175.45 726.23 179.73 737.03C182.519 736.545 185.253 735.781 187.89 734.75C205.26 728.11 211.49 716.44 211.53 707.75C211.53 701.59 208.65 696.46 204.12 694.67C202.937 694.195 201.675 693.947 200.4 693.94Z" fill="#F8A33E"/>
<path d="M649.86 121.43L649.76 116.899C650.08 116.899 681.3 116.059 691.96 100.169C695.62 94.7193 696.43 87.9695 694.39 80.0595C678.27 83.3695 659.14 79.4994 648.71 66.2494C641.14 56.6294 642.58 50.2495 644.1 47.3295C646.5 42.7195 652.17 40.2095 659.21 40.5995C671.06 41.2695 688.05 50.2295 696.95 73.3095C697.13 73.7595 697.29 74.2093 697.45 74.6493C699.931 73.9029 702.338 72.9291 704.64 71.7397C713.12 67.2997 718.4 60.6497 720.19 52.5497C712.53 51.8397 704.75 46.8997 697 37.7997C685 23.7097 680.19 11.6594 683.78 4.7294C685.52 1.3594 689.06 -0.340525 693.47 0.059475C703.23 0.939475 716.75 11.7195 723.38 33.3295C724.876 37.9978 725.553 42.8901 725.38 47.7895C743.63 44.1295 754.59 10.6195 754.7 10.2895L759 11.6693C758.53 13.1493 747.11 48.0594 726.26 52.2294C725.78 52.3294 725.31 52.4096 724.84 52.4696C722.98 62.3196 716.84 70.4697 706.78 75.7397C704.223 77.0664 701.544 78.1414 698.78 78.9496C701.16 88.1496 700.13 96.1196 695.71 102.7C683.74 120.54 651.19 121.4 649.86 121.43ZM657.75 45.0897C653.11 45.0897 649.55 46.6693 648.12 49.4193C646.35 52.8193 647.82 57.7993 652.27 63.4193C661.51 75.1693 678.55 78.5996 693.04 75.7196C692.94 75.4496 692.84 75.1796 692.73 74.9096C685.13 55.1896 670.29 45.7297 658.96 45.0897H657.75ZM692.21 4.52969C691.334 4.4506 690.454 4.62288 689.673 5.02676C688.892 5.43064 688.242 6.04912 687.8 6.80947C685.8 10.8095 687.99 20.2293 700.45 34.8593C707.45 43.0993 714.29 47.5197 720.82 48.0497C721.041 43.5129 720.441 38.9731 719.05 34.6493C712.63 13.7193 699.99 5.18948 693.05 4.55947C692.79 4.53947 692.51 4.52969 692.19 4.52969H692.21Z" fill="#48BEA2"/>
<path d="M0 396.13L4 394.06C4.14 394.34 18.5998 422.06 37.5498 424.64C44.0598 425.53 50.4799 423.3 56.6899 417.99C46.6399 404.99 41.6898 386.07 49.0498 370.89C54.3698 359.89 60.7198 358.36 64.0498 358.44C69.2398 358.58 73.9797 362.57 76.7197 369.07C81.3197 380 80.7199 399.21 63.8999 417.34L62.8999 418.34C64.6584 420.242 66.5901 421.976 68.6699 423.52C76.3799 429.19 84.67 431.02 92.73 429.07C90 421.87 91.0301 412.72 95.8101 401.76C103.2 384.76 111.92 375.18 119.72 375.36C123.51 375.45 126.6 377.89 128.17 382.02C131.66 391.18 127.9 408.02 111.4 423.5C107.857 426.886 103.753 429.63 99.27 431.61C110.56 446.4 145.48 441.54 145.84 441.49L146.48 445.97C144.94 446.19 108.56 451.25 95.6602 434.35C95.3702 433.96 95.0901 433.57 94.8301 433.17C85.1601 435.83 75.0997 433.87 65.9897 427.17C63.6831 425.467 61.5466 423.545 59.6099 421.43C52.3899 427.61 44.7802 430.18 36.9302 429.1C15.6702 426.19 0.63 397.36 0 396.13ZM72.0601 369.72C70.0601 365.55 67.0599 363.05 63.9399 362.97C60.1099 362.87 56.2799 366.38 53.1499 372.86C46.6499 386.32 51.05 403.13 60 414.86C60.2 414.65 60.3998 414.44 60.5898 414.22C74.9698 398.74 76.9598 381.22 72.5898 370.79C72.3998 370.44 72.1901 370.08 72.0601 369.72ZM123.63 382.89C123.323 382.058 122.783 381.332 122.073 380.799C121.364 380.267 120.515 379.951 119.63 379.89C115.16 379.78 107.63 385.95 99.9697 403.57C95.6397 413.48 94.6701 421.57 97.0601 427.66C101.233 425.87 105.048 423.339 108.32 420.19C124.32 405.19 126.43 390.13 123.95 383.64C123.87 383.41 123.76 383.15 123.63 382.89Z" fill="#69A9DC"/>
<path d="M415.86 1196.34C545.807 1196.34 651.15 1183.31 651.15 1167.23C651.15 1151.15 545.807 1138.12 415.86 1138.12C285.913 1138.12 180.57 1151.15 180.57 1167.23C180.57 1183.31 285.913 1196.34 415.86 1196.34Z" fill="#D0D2D3"/>
<path d="M674.19 675.53C665.72 659.85 651.01 643.12 634.97 625.72C620.22 643.03 580.6 676.67 499.47 669.33C504.78 690.39 511.29 710.76 517.66 729.04C551.86 732.05 630.94 732.06 674.19 675.53Z" fill="white"/>
<path d="M598.83 585.68C584.1 568.1 571.58 550.15 565.73 532.17C540.36 523.7 524.92 513.55 515.54 504.59C495.49 525.86 488.03 555.32 487.92 587.54C511.88 593.75 560.33 602.6 598.83 585.68Z" fill="white"/>
<path d="M540.34 806.74C539.49 815.94 535.71 822.24 530.8 826.53C537.8 838.14 550.8 855.26 571.94 866.99C648.06 855.69 679.84 820.28 689.71 781.91C665.13 802.72 617.51 827.24 540.34 806.74Z" fill="white"/>
<path d="M565.73 532.17C563.858 526.595 562.702 520.806 562.29 514.94C558.68 458.48 520.43 499.76 520.43 499.76C518.71 501.31 517.1 502.93 515.54 504.59C524.92 513.6 540.36 523.7 565.73 532.17Z" fill="#7A7176"/>
<path d="M634.98 625.72C622.98 612.72 610.24 599.3 598.83 585.72C560.33 602.59 511.83 593.79 487.92 587.58C487.82 614 492.64 642.25 499.48 669.37C580.61 676.67 620.19 643.03 634.98 625.72Z" fill="#7A7176"/>
<path d="M689.71 781.91C700 741.91 686.48 698.69 674.54 676.17C674.43 675.95 674.31 675.74 674.2 675.53C630.94 732.06 551.86 732.05 517.67 729.04C524.01 747.21 530.19 763.31 534.89 775.96C539.64 788.76 541.07 798.83 540.34 806.74C617.51 827.24 665.13 802.72 689.71 781.91Z" fill="#7A7176"/>
<path d="M500.92 835.67L528.19 870.6C542.833 870.292 557.443 869.089 571.94 867C550.83 855.27 537.78 838.15 530.8 826.54C519.08 836.79 500.92 835.67 500.92 835.67Z" fill="#7A7176"/>
<path d="M571.94 866.99C582.815 865.124 593.557 862.555 604.1 859.3C614.593 856.071 624.75 851.838 634.43 846.66C644.04 841.513 652.899 835.073 660.76 827.52C668.504 819.971 674.905 811.158 679.69 801.46C682.065 796.633 684.032 791.615 685.57 786.46C685.98 785.17 686.33 783.88 686.66 782.57C686.99 781.26 687.27 779.95 687.54 778.64L688.36 774.69C688.66 773.37 688.75 772.02 688.96 770.69C690.409 759.99 690.541 749.152 689.35 738.42C688.225 727.654 686.041 717.026 682.83 706.69C679.737 696.36 675.585 686.377 670.44 676.9C665.21 667.66 658.53 659.06 651.54 650.71C644.55 642.36 637.04 634.31 629.54 626.26C622.04 618.21 614.4 610.17 606.94 601.94C599.48 593.71 592.15 585.27 585.35 576.33C578.37 567.378 572.236 557.797 567.03 547.71C564.436 542.528 562.269 537.144 560.55 531.61C559.704 528.796 559.009 525.939 558.47 523.05C558.21 521.59 557.98 520.13 557.81 518.65C557.72 517.91 557.65 517.17 557.58 516.43L557.5 515.31L557.41 514.31L557.06 510.38L556.51 506.53C556.28 505.27 556 504.04 555.76 502.79C555.52 501.54 555.12 500.39 554.76 499.25C554.06 497.113 553.049 495.092 551.76 493.25C550.782 491.826 549.34 490.787 547.68 490.31C545.844 489.917 543.935 490.017 542.15 490.6C539.911 491.281 537.77 492.249 535.78 493.48C533.618 494.786 531.553 496.247 529.6 497.85C528.6 498.67 527.6 499.5 526.68 500.38C525.76 501.26 524.76 502.19 523.99 502.99L523.85 503.14L523.69 503.29C518.195 508.307 513.381 514.022 509.37 520.29C505.376 526.638 502.143 533.435 499.74 540.54C494.82 554.82 492.91 570.15 492.59 585.54C492.42 601.022 493.592 616.49 496.09 631.77C498.574 647.164 501.832 662.423 505.85 677.49C509.79 692.61 514.35 707.59 519.29 722.49L521.16 728.06L523.16 733.61L527.11 744.71L534.98 766.94C536.28 770.67 537.6 774.28 538.89 778.15C540.167 781.998 541.202 785.922 541.99 789.9C542.803 793.936 543.225 798.042 543.25 802.16C543.289 806.372 542.675 810.566 541.43 814.59C540.142 818.694 537.975 822.468 535.08 825.65C532.182 828.75 528.712 831.259 524.86 833.04C521.115 834.773 517.152 835.99 513.08 836.66C511.073 837.023 509.046 837.266 507.01 837.39C504.96 837.54 502.903 837.561 500.85 837.45L502.39 834.53L515.72 852.23L529.02 869.95L528.21 869.57C542.838 869.558 557.453 868.69 571.98 866.97C557.496 869.437 542.87 870.983 528.19 871.6H527.71L527.38 871.2L513.38 854.01L499.45 836.78L497.01 833.78L501.01 833.87C502.887 833.905 504.764 833.821 506.63 833.62C508.521 833.439 510.401 833.152 512.26 832.76C515.939 832.033 519.505 830.816 522.86 829.14C526.12 827.498 529.035 825.248 531.45 822.51C533.76 819.764 535.463 816.56 536.45 813.11C538.45 806.11 537.92 798.45 536.3 791.11C535.464 787.38 534.395 783.706 533.1 780.11C531.81 776.55 530.34 772.8 528.95 769.11L520.56 747.01L516.39 735.95L514.3 730.42L512.3 724.85C507.05 709.95 502.16 694.85 497.88 679.63C493.567 664.342 490.065 648.837 487.39 633.18C484.626 617.414 483.241 601.437 483.25 585.43C483.275 577.352 483.87 569.285 485.03 561.29C486.175 553.212 488.056 545.255 490.65 537.52C493.272 529.697 496.803 522.209 501.17 515.21C505.623 508.192 510.975 501.788 517.09 496.16L516.79 496.46C517.92 495.26 518.92 494.3 520.02 493.28C521.12 492.26 522.22 491.28 523.35 490.38C525.663 488.471 528.109 486.73 530.67 485.17C533.385 483.494 536.306 482.176 539.36 481.25C542.862 480.15 546.599 480.04 550.16 480.93C551.104 481.203 552.03 481.537 552.93 481.93C553.79 482.38 554.62 482.93 555.44 483.43C556.26 483.93 556.9 484.64 557.6 485.28C558.3 485.92 558.79 486.63 559.37 487.33C561.299 490.005 562.8 492.964 563.82 496.1C564.3 497.57 564.68 499.04 565.07 500.51C565.46 501.98 565.69 503.44 565.94 504.9L566.54 509.25L566.92 513.57L567.08 515.57C567.13 516.2 567.19 516.83 567.26 517.47C567.41 518.73 567.59 520 567.82 521.26C568.278 523.802 568.879 526.316 569.62 528.79C571.164 533.813 573.114 538.703 575.45 543.41C580.355 552.977 586.136 562.07 592.72 570.57C605.87 587.87 620.93 603.93 635.86 620.24C643.32 628.41 650.78 636.64 657.86 645.24C664.94 653.84 671.76 662.9 677.23 673.01C682.462 683.053 686.635 693.613 689.68 704.52C692.834 715.348 694.908 726.463 695.87 737.7C696.833 748.973 696.406 760.321 694.6 771.49C694.35 772.88 694.21 774.29 693.86 775.67L692.86 779.81C692.53 781.18 692.24 782.57 691.86 783.92C691.48 785.27 691.07 786.64 690.61 787.98C688.854 793.373 686.646 798.608 684.01 803.63C678.716 813.644 671.726 822.664 663.35 830.29C655.031 837.826 645.692 844.155 635.61 849.09C625.602 853.948 615.151 857.832 604.4 860.69C593.728 863.493 582.885 865.598 571.94 866.99Z" fill="#231F20"/>
<path d="M479.03 901.83C455.57 901.83 431.4 893.39 408.78 876.97C377.12 853.97 352.21 818.02 338.66 775.69C325.11 733.36 324.47 689.61 336.89 652.51C349.51 614.84 374.03 588.51 405.94 578.25C437.85 567.99 473.14 575.25 505.29 598.59C536.95 621.59 561.85 657.54 575.41 699.87C588.97 742.2 589.59 785.95 577.17 823.05C564.56 860.71 540.04 887.05 508.17 897.31C498.751 900.324 488.919 901.849 479.03 901.83ZM435.03 584.19C426.254 584.17 417.53 585.52 409.17 588.19C349.38 607.33 322.23 690.01 348.65 772.49C361.53 812.72 385.08 846.82 414.95 868.49C444.34 889.82 476.31 896.49 504.95 887.33C564.74 868.18 591.89 785.51 565.48 703.03C552.59 662.79 529.04 628.7 499.17 607.03C478.36 591.95 456.28 584.19 434.99 584.19H435.03Z" fill="#231F20"/>
<path d="M506.755 892.01C569.382 871.951 597.987 786.493 570.647 701.134C543.307 615.775 470.375 562.839 407.748 582.898C345.122 602.957 316.516 688.415 343.856 773.774C371.196 859.133 444.129 912.069 506.755 892.01Z" fill="#C9C3C7"/>
<path d="M479.03 901.83C455.57 901.83 431.4 893.39 408.78 876.97C377.12 853.97 352.21 818.02 338.66 775.69C325.11 733.36 324.47 689.61 336.89 652.51C349.51 614.84 374.03 588.51 405.94 578.25C437.85 567.99 473.14 575.25 505.29 598.59C536.95 621.59 561.85 657.54 575.41 699.87C588.97 742.2 589.59 785.95 577.17 823.05C564.56 860.71 540.04 887.05 508.17 897.31C498.751 900.324 488.919 901.849 479.03 901.83ZM435.03 584.19C426.254 584.17 417.53 585.52 409.17 588.19C349.38 607.33 322.23 690.01 348.65 772.49C361.53 812.72 385.08 846.82 414.95 868.49C444.34 889.82 476.31 896.49 504.95 887.33C564.74 868.18 591.89 785.51 565.48 703.03C552.59 662.79 529.04 628.7 499.17 607.03C478.36 591.95 456.28 584.19 434.99 584.19H435.03Z" fill="#231F20"/>
<path d="M506.755 892.01C569.382 871.951 597.987 786.493 570.647 701.134C543.307 615.775 470.375 562.839 407.748 582.898C345.122 602.957 316.516 688.415 343.856 773.774C371.196 859.133 444.129 912.069 506.755 892.01Z" fill="#C9C3C7"/>
<path d="M479.03 901.83C455.57 901.83 431.4 893.39 408.78 876.97C377.12 853.97 352.21 818.02 338.66 775.69C325.11 733.36 324.47 689.61 336.89 652.51C349.51 614.84 374.03 588.51 405.94 578.25C437.85 567.99 473.14 575.25 505.29 598.59C536.95 621.59 561.85 657.54 575.41 699.87C588.97 742.2 589.59 785.95 577.17 823.05C564.56 860.71 540.04 887.05 508.17 897.31C498.751 900.324 488.919 901.849 479.03 901.83ZM435.03 584.19C426.254 584.17 417.53 585.52 409.17 588.19C349.38 607.33 322.23 690.01 348.65 772.49C361.53 812.72 385.08 846.82 414.95 868.49C444.34 889.82 476.31 896.49 504.95 887.33C564.74 868.18 591.89 785.51 565.48 703.03C552.59 662.79 529.04 628.7 499.17 607.03C478.36 591.95 456.28 584.19 434.99 584.19H435.03Z" fill="#231F20"/>
<path d="M400.68 815.97C420.14 802.35 346.25 838.27 342.47 1014.44C342.47 1014.44 309.83 1024.21 310.38 1041.58C310.93 1058.95 362.38 1078.91 387.79 1057.74C413.2 1036.57 424.79 997.12 428.26 963.37C455.54 955.52 490.13 883.89 479.19 846.08C479.19 846.08 459.87 781.52 400.68 815.97Z" fill="#C9C3C7"/>
<path d="M390.61 827.84C388.139 831.053 385.961 834.48 384.1 838.08C382.2 841.653 380.44 845.29 378.82 848.99C377.2 852.69 375.73 856.45 374.33 860.23C373.61 862.12 372.97 864.03 372.33 865.93L370.42 871.67C365.636 887.091 361.782 902.786 358.88 918.67C357.31 926.58 356.04 934.55 354.82 942.53C354.26 946.53 353.69 950.53 353.18 954.53C352.67 958.53 352.18 962.53 351.73 966.53C349.9 982.53 348.55 998.67 347.53 1014.8C347.466 1015.81 347.102 1016.77 346.483 1017.56C345.864 1018.36 345.019 1018.94 344.06 1019.25H343.949C342.949 1019.56 341.8 1019.97 340.72 1020.38C339.64 1020.79 338.53 1021.23 337.44 1021.69C335.27 1022.6 333.14 1023.6 331.09 1024.69C327.095 1026.69 323.408 1029.26 320.14 1032.31C318.744 1033.65 317.572 1035.2 316.67 1036.91C315.938 1038.32 315.593 1039.9 315.67 1041.49C315.877 1042.96 316.49 1044.35 317.44 1045.49C318.689 1047.09 320.138 1048.53 321.75 1049.76C325.337 1052.5 329.275 1054.73 333.46 1056.42C337.745 1058.19 342.192 1059.53 346.74 1060.42C355.81 1062.22 365.32 1062.35 373.74 1059.71C377.902 1058.45 381.771 1056.37 385.12 1053.6C388.713 1050.6 392.023 1047.28 395.01 1043.68C401.033 1036.25 406.074 1028.08 410.01 1019.37C414.058 1010.52 417.331 1001.34 419.79 991.92C422.34 982.435 424.271 972.795 425.57 963.06V962.9C425.634 962.416 425.834 961.96 426.145 961.583C426.456 961.206 426.867 960.925 427.33 960.77C427.74 960.63 428.33 960.37 428.87 960.14C429.41 959.91 429.96 959.64 430.5 959.36C431.59 958.82 432.67 958.24 433.73 957.61C435.866 956.353 437.923 954.967 439.89 953.46C443.861 950.388 447.515 946.927 450.8 943.13C454.141 939.307 457.137 935.194 459.75 930.84C462.398 926.452 464.737 921.884 466.75 917.17C465.296 922.14 463.446 926.985 461.22 931.66C458.957 936.369 456.28 940.866 453.22 945.1C450.108 949.368 446.559 953.3 442.63 956.83C440.646 958.622 438.556 960.292 436.37 961.83C435.27 962.59 434.14 963.33 432.96 964.02C432.38 964.36 431.78 964.69 431.17 965.02C430.56 965.35 429.97 965.63 429.17 965.96L430.94 963.66C430.215 973.744 428.805 983.767 426.72 993.66C424.566 1003.62 421.555 1013.38 417.72 1022.83C415.765 1027.6 413.503 1032.23 410.949 1036.71C408.381 1041.25 405.48 1045.6 402.27 1049.71C398.986 1053.84 395.331 1057.67 391.35 1061.14C389.218 1063 386.891 1064.62 384.41 1065.98C381.961 1067.35 379.381 1068.46 376.71 1069.31C371.493 1070.97 366.063 1071.87 360.59 1071.97C355.223 1072.09 349.858 1071.64 344.59 1070.61C339.361 1069.6 334.245 1068.07 329.32 1066.04C324.247 1064.01 319.473 1061.3 315.13 1057.99C312.782 1056.19 310.686 1054.09 308.9 1051.73C307.91 1050.41 307.078 1048.99 306.42 1047.48C305.679 1045.78 305.239 1043.96 305.12 1042.1C304.968 1038.69 305.713 1035.31 307.28 1032.28C308.692 1029.57 310.536 1027.1 312.74 1024.98C316.746 1021.21 321.297 1018.05 326.24 1015.63C328.61 1014.42 331 1013.33 333.43 1012.34C334.65 1011.85 335.87 1011.34 337.1 1010.93C338.33 1010.52 339.53 1010.07 340.94 1009.64L337.36 1014.12C338.62 997.83 340.36 981.57 342.67 965.38C344.98 949.19 348.03 933.1 351.78 917.16C353.686 909.2 355.84 901.3 358.24 893.46C360.64 885.62 363.33 877.887 366.31 870.26L368.65 864.58C369.48 862.71 370.26 860.82 371.13 858.96C372.836 855.24 374.667 851.573 376.62 847.96C378.62 844.37 380.62 840.83 382.93 837.44C385.174 833.999 387.745 830.785 390.61 827.84Z" fill="#231F20"/>
<path d="M505.28 769.25C481.78 772.7 560.17 748.11 683.86 873.62C683.86 873.62 714.3 858.32 725.86 871.32C737.42 884.32 713.71 934.14 680.65 936.22C647.59 938.3 612.14 917.53 586.45 895.37C561.22 908.37 486.9 880.04 468.9 845.03C468.86 845.03 438.6 784.83 505.28 769.25Z" fill="#C9C3C7"/>
<path d="M567.39 786.85C578.58 791.703 589.431 797.302 599.87 803.61C610.4 809.81 620.52 816.67 630.5 823.71C640.48 830.75 650.09 838.3 659.5 846.02C668.91 853.74 678.15 861.76 687.23 869.92L681.55 869.12C682.86 868.46 683.99 867.95 685.22 867.42C686.45 866.89 687.64 866.42 688.86 865.93C691.31 864.98 693.8 864.13 696.35 863.39C701.606 861.757 707.077 860.925 712.58 860.92C715.644 860.945 718.684 861.469 721.58 862.47C724.794 863.605 727.658 865.555 729.89 868.13C731.079 869.56 732.006 871.188 732.63 872.94C733.188 874.491 733.564 876.102 733.75 877.74C734.063 880.678 733.986 883.643 733.52 886.56C732.629 891.949 731.014 897.193 728.72 902.15C726.521 907.009 723.84 911.635 720.72 915.96C717.606 920.312 714.033 924.315 710.06 927.9C706.005 931.581 701.441 934.659 696.51 937.04C693.981 938.245 691.342 939.202 688.63 939.9C685.892 940.609 683.086 941.025 680.26 941.14C674.979 941.349 669.691 941.075 664.46 940.32C654.209 938.701 644.225 935.7 634.78 931.4C625.493 927.203 616.601 922.183 608.21 916.4C599.904 910.637 591.999 904.315 584.55 897.48L587.42 897.93C586.62 898.23 586.03 898.4 585.35 898.6C584.67 898.8 584.04 898.95 583.35 899.1C582.04 899.4 580.73 899.63 579.42 899.81C576.808 900.177 574.177 900.38 571.54 900.42C566.332 900.497 561.13 900.028 556.02 899.02C550.973 897.993 546.025 896.531 541.23 894.65C536.485 892.78 531.894 890.54 527.5 887.95C532.139 889.964 536.91 891.658 541.78 893.02C546.593 894.404 551.519 895.365 556.5 895.89C561.415 896.443 566.374 896.497 571.3 896.05C573.731 895.827 576.146 895.45 578.53 894.92C579.72 894.66 580.88 894.35 582.02 894.01C582.6 893.84 583.16 893.66 583.71 893.47C584.26 893.28 584.85 893.05 585.23 892.87C585.675 892.665 586.169 892.59 586.655 892.651C587.141 892.713 587.6 892.911 587.98 893.22L588.1 893.32C595.72 899.506 603.737 905.185 612.1 910.32C620.382 915.454 629.079 919.886 638.1 923.57C646.944 927.216 656.226 929.693 665.71 930.94C670.354 931.507 675.04 931.651 679.71 931.37C684.046 931.087 688.282 929.942 692.17 928C700.12 924.13 706.95 917.51 712.3 910C714.993 906.237 717.307 902.218 719.21 898C721.091 893.901 722.416 889.57 723.15 885.12C723.477 883.117 723.544 881.08 723.35 879.06C723.264 877.578 722.761 876.15 721.9 874.94C720.849 873.738 719.501 872.835 717.99 872.32C716.167 871.68 714.252 871.342 712.32 871.32C707.847 871.353 703.402 872.026 699.12 873.32C696.88 873.94 694.65 874.68 692.45 875.5C691.34 875.91 690.25 876.35 689.16 876.8C688.07 877.25 686.96 877.8 686.04 878.2H685.94C685.032 878.637 684.014 878.789 683.019 878.638C682.023 878.486 681.096 878.037 680.36 877.35C671.54 869.11 662.66 860.93 653.63 852.91C644.6 844.89 635.42 837.05 626.07 829.42C616.72 821.79 607.19 814.36 597.46 807.19C595.03 805.39 592.56 803.65 590.08 801.91C587.6 800.17 585.08 798.47 582.62 796.74C577.65 793.35 572.57 790.04 567.39 786.85Z" fill="#231F20"/>
<path d="M414.39 874.6C428.93 882.02 443.93 887.82 459.39 890.34C474.588 893.136 490.24 892.134 504.957 887.423C519.674 882.713 533 874.441 543.75 863.34C554.84 852.34 563.69 838.9 571.22 824.41C567.742 840.723 560.408 855.964 549.83 868.86C544.424 875.428 538.134 881.217 531.14 886.06C529.39 887.3 527.53 888.36 525.73 889.51C523.93 890.66 521.96 891.51 520.07 892.57C518.18 893.63 516.16 894.32 514.2 895.19L508.2 897.39L502 899.11C499.9 899.53 497.8 900.01 495.69 900.39C493.58 900.77 491.44 900.97 489.32 901.18C487.2 901.39 485.05 901.5 482.91 901.51C474.406 901.626 465.926 900.569 457.71 898.37C441.582 894.012 426.73 885.862 414.39 874.6Z" fill="#231F20"/>
<path d="M494.806 854.689C541.596 839.703 560.109 766.931 536.157 692.149C512.205 617.368 454.857 568.895 408.068 583.881C361.278 598.868 342.764 671.639 366.716 746.42C390.668 821.202 448.016 869.676 494.806 854.689Z" fill="white"/>
<path d="M564.19 391.6C537.59 395.8 510.91 398.97 484.19 401.91C457.47 404.85 430.75 407.29 403.98 409.46C377.21 411.63 350.43 413.46 323.61 414.91C296.79 416.36 269.94 417.45 243.01 417.58C269.61 413.37 296.29 410.19 323.01 407.25C349.73 404.31 376.45 401.88 403.22 399.72C429.99 397.56 456.77 395.72 483.59 394.28C510.41 392.84 537.29 391.74 564.19 391.6Z" fill="#231F20"/>
<path d="M293.19 366.1C293.19 366.1 199.84 288.17 162.34 318.62C124.84 349.07 230.64 451.48 230.64 451.48L293.19 366.1Z" fill="#C6BFC3"/>
<path d="M280.99 374.81C280.99 374.81 196.94 313.31 178.78 331.04C160.62 348.77 234.31 435.79 234.31 435.79L280.99 374.81Z" fill="#7A7176"/>
<path d="M494.24 347.99C494.24 347.99 572.19 254.6 614.5 277.9C656.81 301.2 571.03 420.82 571.03 420.82L494.24 347.99Z" fill="#C6BFC3"/>
<path d="M293.19 366.1C282.77 358.59 272.04 351.58 261.13 344.93C255.67 341.62 250.13 338.49 244.52 335.46C238.91 332.43 233.24 329.601 227.46 327.031C221.732 324.444 215.87 322.164 209.9 320.2C204.05 318.266 198.019 316.926 191.9 316.2C185.9 315.53 179.9 315.65 174.53 317.27C171.892 318.05 169.388 319.223 167.1 320.75C164.923 322.152 163.071 324.003 161.67 326.18C159.06 330.37 158.51 335.871 159.41 341.551C160.494 347.427 162.325 353.14 164.86 358.551C167.457 364.188 170.396 369.661 173.66 374.94C176.91 380.29 180.44 385.52 184.12 390.65C191.46 400.93 199.43 410.83 207.67 420.51C215.91 430.19 224.53 439.65 233.31 448.74L227.5 449.23C232.75 442.41 237.99 435.57 243.32 428.75L259.53 408.21L293.19 366.1ZM293.19 366.1L278.93 387.531L264.28 409.41L249.19 431.6C244.11 439.01 238.92 446.4 233.74 453.81L231.23 457.4L227.93 454.301C223.16 449.831 218.6 445.3 214.1 440.65C209.6 436 205.18 431.29 200.87 426.46C192.24 416.83 183.98 406.821 176.28 396.321C168.58 385.821 161.48 374.75 156 362.52C153.114 356.295 151.096 349.704 150 342.93C149.456 339.309 149.433 335.628 149.93 332C150.457 328.142 151.822 324.445 153.93 321.17C156.07 317.975 158.865 315.273 162.13 313.24C165.209 311.251 168.584 309.762 172.13 308.83C178.943 307.179 186.023 306.945 192.93 308.14C199.523 309.227 205.989 310.975 212.23 313.36C218.37 315.645 224.359 318.317 230.16 321.36C241.64 327.386 252.668 334.234 263.16 341.85C268.41 345.59 273.53 349.52 278.53 353.56C283.53 357.6 288.44 361.73 293.19 366.1Z" fill="#231F20"/>
<path d="M494.24 347.99C498.09 342.85 502.16 337.86 506.38 332.99C510.6 328.12 514.91 323.34 519.38 318.72C528.335 309.354 537.954 300.645 548.16 292.66C553.329 288.638 558.743 284.941 564.37 281.59C570.088 278.133 576.138 275.259 582.43 273.01C589.016 270.61 596.024 269.589 603.02 270.01C606.685 270.287 610.284 271.145 613.68 272.55C617.258 273.966 620.492 276.127 623.17 278.89C625.836 281.73 627.847 285.12 629.06 288.82C630.199 292.302 630.832 295.929 630.94 299.59C631.074 306.453 630.259 313.3 628.52 319.94C625.32 332.94 620.22 345.07 614.61 356.81C609 368.55 602.61 379.81 595.79 390.87C592.42 396.39 588.91 401.82 585.32 407.19C581.73 412.56 578.04 417.84 574.15 423.1L571.45 426.73L568.34 423.65C561.93 417.28 555.5 410.94 549.17 404.56L530.39 385.46L512.06 366.55L494.24 347.99ZM494.24 347.99L534.85 383.38L554.47 400.7C560.94 406.45 567.31 412.25 573.69 418.02L567.89 418.57C574.89 408.06 581.68 397.19 588.08 386.22C594.48 375.25 600.53 364.05 605.91 352.63C608.62 346.92 611.15 341.15 613.4 335.31C615.665 329.531 617.579 323.62 619.13 317.61C620.657 311.83 621.433 305.878 621.44 299.9C621.32 294.15 619.8 288.83 616.44 285.17C614.671 283.279 612.516 281.792 610.12 280.81C607.6 279.708 604.925 279 602.19 278.71C596.62 278.07 590.69 279.03 584.91 280.71C579.019 282.536 573.324 284.945 567.91 287.9C562.39 290.906 557.029 294.198 551.85 297.76C546.63 301.32 541.54 305.12 536.58 309.1C531.62 313.08 526.71 317.16 521.93 321.4C512.45 329.92 503.19 338.74 494.24 347.99Z" fill="#231F20"/>
<path d="M507.76 354.39C507.76 354.39 579.47 278.86 600.5 293.06C621.53 307.26 564.58 406.06 564.58 406.06L507.76 354.39Z" fill="#7A7176"/>
<path d="M390.82 325.14C184.17 346.14 207.16 534.74 207.16 534.74C243.38 667.69 418.86 636.49 418.86 636.49C418.86 636.49 597.09 635.83 608.97 498.55C608.97 498.6 597.89 308.86 390.82 325.14Z" fill="#C9C3C7"/>
<path d="M555.81 474.77C555.81 474.77 629.81 480.51 649.74 416.24C649.74 416.24 711.59 484.45 631.23 530.32C631.23 530.32 646.59 540.52 660.51 529.73C660.51 529.73 696.66 592.98 542.15 602.73L555.81 474.77Z" fill="white"/>
<path d="M631.19 530.32C633.467 531.557 635.889 532.508 638.4 533.15C640.876 533.797 643.431 534.09 645.99 534.02C646.62 533.97 647.25 534.02 647.88 533.89L649.74 533.61C650.36 533.49 650.96 533.3 651.57 533.15C651.87 533.07 652.17 533.01 652.47 532.9L653.34 532.55C655.659 531.643 657.822 530.377 659.75 528.8L660.84 527.98L661.49 529.15C664.916 535.395 666.367 542.533 665.65 549.62C665.274 553.181 664.371 556.665 662.97 559.96C662.63 560.79 662.18 561.56 661.79 562.37L661.19 563.57C660.97 563.96 660.72 564.33 660.48 564.71L659.04 566.97C658.53 567.69 657.96 568.37 657.42 569.08C652.918 574.526 647.504 579.148 641.42 582.74C635.492 586.351 629.234 589.387 622.73 591.81C609.842 596.551 596.532 600.054 582.98 602.27C569.52 604.66 555.98 606.04 542.38 607.12L537.22 607.53L537.74 602.27L540.86 570.27L544.17 538.27L547.49 506.27L551 474.27L551.51 469.68L556.13 470.01C557.13 470.08 558.39 470.11 559.54 470.13C560.69 470.15 561.91 470.13 563.1 470.13C565.49 470.08 567.88 469.92 570.27 469.73C575.039 469.318 579.778 468.614 584.46 467.62C593.795 465.761 602.799 462.511 611.17 457.98C619.465 453.475 626.797 447.387 632.75 440.06C633.53 439.18 634.2 438.21 634.89 437.27C635.58 436.33 636.33 435.4 636.94 434.38L638.82 431.38L639.3 430.63L639.71 429.84L640.55 428.28C642.781 424.072 644.661 419.687 646.17 415.17L648.34 409.07L652.42 413.78C653.49 415.02 654.34 416.13 655.25 417.33C656.16 418.53 656.99 419.7 657.84 420.9C659.5 423.32 661.067 425.797 662.54 428.33C665.503 433.401 668.01 438.725 670.03 444.24C672.076 449.774 673.511 455.514 674.31 461.36C675.124 467.235 675.086 473.196 674.2 479.06C673.23 484.886 671.38 490.531 668.71 495.8L667.71 497.75L667.21 498.75C667.02 499.07 666.81 499.37 666.62 499.68L664.25 503.36C663.41 504.55 662.46 505.66 661.58 506.8C661.13 507.37 660.68 507.95 660.22 508.51L658.73 510.09C650.815 518.414 641.496 525.279 631.2 530.37C640.81 524.31 649.74 517.11 656.78 508.37C663.899 499.864 668.383 489.466 669.68 478.45C670.77 467.57 668.56 456.57 664.32 446.45C662.188 441.38 659.643 436.493 656.71 431.84C655.24 429.51 653.71 427.22 652.07 425.01C651.25 423.91 650.42 422.82 649.56 421.75C648.7 420.68 647.8 419.6 646.98 418.75L653.23 417.37C651.743 422.356 649.843 427.209 647.55 431.88C645.254 436.598 642.479 441.069 639.27 445.22C632.777 453.531 624.718 460.489 615.55 465.7C606.482 470.874 596.67 474.618 586.46 476.8C581.403 477.902 576.283 478.697 571.13 479.18C568.55 479.4 565.97 479.59 563.38 479.66C562.08 479.66 560.78 479.66 559.47 479.66C558.16 479.66 556.91 479.66 555.41 479.54L560.54 475.27L557.23 507.27L553.71 539.27L550.19 571.27L546.49 603.27L541.85 598.42C555.21 597.64 568.54 596.42 581.75 594.59C594.919 592.84 607.898 589.873 620.52 585.73C626.772 583.712 632.816 581.1 638.57 577.93C644.277 574.887 649.422 570.889 653.78 566.11C654.3 565.51 654.86 564.92 655.35 564.3L656.74 562.36C656.97 562.04 657.22 561.72 657.43 561.36L658.02 560.36C658.4 559.66 658.84 558.99 659.18 558.28C661.271 553.937 662.38 549.186 662.426 544.365C662.473 539.545 661.456 534.773 659.45 530.39L661.2 530.74C658.988 532.32 656.541 533.541 653.95 534.36L652.95 534.67C652.63 534.76 652.29 534.81 651.95 534.88C651.28 535 650.63 535.15 649.95 535.24L647.95 535.39C647.284 535.425 646.616 535.425 645.95 535.39C643.3 535.264 640.684 534.755 638.18 533.88C635.702 533.011 633.35 531.814 631.19 530.32Z" fill="#231F20"/>
<path d="M254.41 501.91C254.41 501.91 182.62 520.79 151.54 461.11C151.54 461.11 102.87 539.27 190.13 570.04C190.13 570.04 176.84 582.83 161.22 574.7C161.22 574.7 136.95 643.39 290.72 625.38" fill="white"/>
<path d="M254.41 501.91C249.644 503.519 244.75 504.72 239.78 505.5C234.779 506.32 229.727 506.794 224.66 506.92C219.552 507.05 214.441 506.797 209.37 506.16C204.232 505.546 199.16 504.461 194.22 502.92C184.136 499.872 174.784 494.791 166.74 487.99C165.74 487.18 164.74 486.25 163.8 485.34C162.86 484.43 161.8 483.56 160.96 482.57C159.134 480.664 157.411 478.662 155.8 476.57C155.01 475.52 154.13 474.52 153.42 473.42L151.21 470.14C150.44 469.07 149.83 467.91 149.21 466.77L147.27 463.35L155.7 463.67C155.43 464.13 155.07 464.75 154.76 465.32L153.82 467.09C153.19 468.28 152.61 469.5 152.03 470.73C150.87 473.18 149.8 475.73 148.82 478.22C146.876 483.27 145.337 488.466 144.22 493.76C142.02 504.28 141.8 515.17 144.65 525.36C146.138 530.461 148.372 535.314 151.28 539.76L152.38 541.44L152.93 542.29C153.13 542.56 153.35 542.82 153.56 543.08L156.08 546.26C156.97 547.26 157.95 548.26 158.88 549.26L160.3 550.73L161.85 552.09C169.99 559.51 179.85 565.23 190.17 570.09C178.875 567.443 168.189 562.66 158.69 556C148.777 549.037 141.233 539.206 137.07 527.83C135.08 522.072 133.935 516.056 133.67 509.97C133.41 503.941 133.84 497.902 134.95 491.97C136.027 486.108 137.631 480.355 139.74 474.78C140.79 472.01 141.93 469.27 143.18 466.58C143.83 465.24 144.49 463.9 145.18 462.58L146.25 460.58C146.63 459.9 146.98 459.29 147.45 458.53L151.89 451.31L155.89 458.86C160.177 467.228 165.881 474.79 172.75 481.21C179.74 487.578 187.86 492.58 196.69 495.96C201.161 497.716 205.762 499.123 210.45 500.17C215.202 501.211 220.015 501.956 224.86 502.4C234.698 503.327 244.609 503.163 254.41 501.91Z" fill="#231F20"/>
<path d="M190.13 570.05C189.277 571.058 188.337 571.988 187.32 572.83C186.313 573.711 185.24 574.513 184.11 575.23C181.812 576.721 179.305 577.861 176.67 578.61C176.012 578.806 175.344 578.97 174.67 579.1L172.57 579.41C171.86 579.47 171.15 579.47 170.44 579.5C170.08 579.5 169.72 579.5 169.36 579.5L168.29 579.4C165.405 579.145 162.581 578.419 159.93 577.25L163.98 575.65C163.98 575.89 163.84 576.3 163.78 576.65C163.72 577 163.65 577.39 163.6 577.76C163.49 578.52 163.41 579.28 163.36 580.05L163.3 581.2V582.35C163.3 583.12 163.3 583.88 163.37 584.64C163.563 587.648 164.19 590.611 165.23 593.44C166.277 596.201 167.704 598.803 169.47 601.17C169.91 601.77 170.47 602.31 170.9 602.88L171.62 603.72C171.86 604 172.15 604.25 172.41 604.51L174.02 606.07C174.58 606.57 175.19 607.02 175.78 607.5C180.727 611.263 186.247 614.204 192.13 616.21C198.213 618.366 204.469 619.999 210.83 621.09C223.884 623.301 237.083 624.551 250.32 624.83C263.69 625.26 277.15 625.16 290.77 625.36C277.527 628.564 264.046 630.695 250.46 631.73C236.715 632.902 222.881 632.49 209.23 630.5C207.51 630.21 205.78 630 204.07 629.63L198.93 628.46C197.21 628.12 195.52 627.52 193.82 627.05L191.27 626.28C190.43 625.99 189.6 625.65 188.76 625.34C181.867 622.914 175.469 619.266 169.87 614.57C169.17 613.94 168.46 613.35 167.79 612.69L165.86 610.63C165.54 610.28 165.21 609.95 164.91 609.63L164.05 608.5C163.49 607.73 162.88 607 162.38 606.2C160.284 603.018 158.695 599.53 157.67 595.86C156.659 592.244 156.23 588.491 156.4 584.74C156.469 582.89 156.679 581.048 157.03 579.23C157.2 578.33 157.41 577.43 157.65 576.53C157.77 576.08 157.89 575.64 158.05 575.19C158.21 574.74 158.33 574.32 158.54 573.76L159.77 570.58L162.6 572.16C164.587 573.364 166.745 574.261 169 574.82L169.85 575.05C170.14 575.11 170.43 575.13 170.72 575.17C171.31 575.24 171.89 575.34 172.49 575.39H174.28C174.88 575.39 175.48 575.31 176.09 575.28C178.57 575.05 181.007 574.478 183.33 573.58C185.723 572.665 188.005 571.481 190.13 570.05Z" fill="#231F20"/>
<path d="M603.19 467.67C573.7 437.42 515.69 384.4 474.53 388.23C417.19 393.6 399.19 436.3 399.19 436.3C399.19 436.3 373.83 397.48 316.45 402.47C276.79 405.92 231.16 464.07 206.76 499.65C205.02 520.65 206.76 534.78 206.76 534.78C242.98 667.72 418.46 636.52 418.46 636.52C418.46 636.52 596.69 635.87 608.57 498.59C608.57 498.6 607.83 486.03 603.19 467.67Z" fill="white"/>
<path d="M606.57 513.21C583.84 478.14 538.71 425.84 479.4 443.21C392.4 468.66 442.4 528.64 464.4 556.5C474.25 568.96 487.21 597.27 495.69 623.63C542.19 609.13 594.45 578.38 606.57 513.21Z" fill="#7A7176"/>
<path d="M322.26 457.341C261.94 450.991 227.05 508.21 210.56 546.79C233.39 609.62 290.06 631.11 338.47 637.41C342.12 610.06 349.78 580.09 357.21 566.14C373.91 534.79 412.42 466.831 322.26 457.341Z" fill="#7A7176"/>
<path d="M432.7 529.6C428.1 519.45 422.82 499.29 419.22 459.35C414.41 405.87 439.05 356.76 458.04 327.65C438.31 324.24 416.04 323.15 390.82 325.13C365.37 327.71 343.43 332.85 324.47 339.85C348.35 365.13 381.24 408.97 386.05 462.34C389.65 502.28 388.05 523.06 385.34 533.86C383.42 541.51 388.07 549.01 396.76 552.13L400.87 553.61C404.143 554.811 407.641 555.273 411.113 554.96C414.585 554.647 417.945 553.568 420.95 551.8L424.73 549.61C432.72 545 435.95 536.79 432.7 529.6Z" fill="#7A7176"/>
<path d="M608.97 498.6C608.158 492.125 606.994 485.698 605.48 479.35C604.02 473.01 602.293 466.74 600.3 460.54C596.38 448.183 591.391 436.191 585.39 424.7C573.49 401.79 557.08 381.3 536.82 365.7C516.428 350.216 492.833 339.488 467.76 334.3C442.76 328.85 416.76 327.93 391.26 330.01C365.76 332.54 340.33 338.07 316.76 347.92L312.36 349.79C310.89 350.42 309.46 351.14 308.01 351.79C305.1 353.1 302.31 354.64 299.46 356.08C293.859 359.137 288.415 362.475 283.15 366.08C277.924 369.719 272.89 373.628 268.07 377.79C263.269 381.986 258.711 386.454 254.42 391.17C245.84 400.676 238.393 411.146 232.23 422.37C225.997 433.648 220.95 445.541 217.17 457.86C213.315 470.238 210.548 482.93 208.9 495.79C208.04 502.23 207.46 508.707 207.16 515.22C206.805 521.735 206.805 528.265 207.16 534.78C205.497 521.758 205.162 508.6 206.16 495.51C207.09 482.344 209.219 469.29 212.52 456.51C215.872 443.664 220.564 431.206 226.52 419.34C229.526 413.392 232.886 407.628 236.58 402.08C240.264 396.499 244.295 391.155 248.65 386.08C253.007 380.999 257.652 376.171 262.56 371.62C267.536 367.135 272.754 362.925 278.19 359.01C283.651 355.139 289.305 351.548 295.13 348.25C298.13 346.69 300.99 345.03 304.01 343.6C305.52 342.88 307.01 342.1 308.52 341.41L313.1 339.41C314.61 338.71 316.17 338.1 317.71 337.47C319.25 336.84 320.81 336.22 322.37 335.63L327.08 333.95L329.44 333.11L331.82 332.35L336.58 330.83C338.17 330.34 339.78 329.92 341.38 329.46C342.98 329 344.58 328.52 346.2 328.13L351.04 326.94C363.978 323.853 377.107 321.631 390.34 320.29C403.598 319.256 416.91 319.095 430.19 319.81L435.19 320.12C436.85 320.22 438.51 320.42 440.19 320.57C441.87 320.72 443.5 320.86 445.19 321.06L450.14 321.7L452.62 322.03L455.09 322.43L460.03 323.25C461.67 323.54 463.3 323.9 464.93 324.25C466.56 324.6 468.21 324.91 469.82 325.33L474.69 326.53C476.31 326.93 477.91 327.43 479.52 327.87C482.75 328.73 485.91 329.87 489.09 330.87C495.409 333.077 501.614 335.6 507.68 338.43C513.729 341.304 519.611 344.516 525.3 348.05C530.946 351.642 536.378 355.558 541.57 359.78C546.761 363.989 551.684 368.518 556.31 373.34C560.945 378.138 565.286 383.21 569.31 388.53C577.292 399.137 584.136 410.553 589.73 422.59C595.261 434.565 599.686 447.02 602.95 459.8C606.275 472.494 608.292 485.495 608.97 498.6Z" fill="#231F20"/>
<path d="M207.19 534.74C208.96 539.84 210.71 544.92 212.96 549.8C213.96 552.27 215.21 554.65 216.36 557.07C216.97 558.26 217.62 559.43 218.24 560.6L219.19 562.37L220.19 564.09C225.513 573.286 231.992 581.762 239.47 589.31C246.886 596.816 255.211 603.366 264.25 608.81C268.76 611.52 273.39 614.03 278.14 616.29C282.89 618.55 287.78 620.52 292.74 622.29C297.7 624.06 302.74 625.61 307.85 626.94C312.96 628.27 318.09 629.48 323.28 630.47C333.685 632.414 344.203 633.7 354.77 634.32C365.351 634.969 375.958 635.072 386.55 634.63C391.84 634.42 397.14 634.08 402.41 633.63C405.04 633.4 407.67 633.11 410.29 632.8C412.91 632.49 415.57 632.11 418.01 631.7L418.42 631.63H418.85C421.33 631.63 424.04 631.48 426.65 631.33C429.26 631.18 431.92 630.98 434.55 630.75C439.83 630.27 445.09 629.67 450.34 628.92C460.84 627.463 471.258 625.461 481.55 622.92C491.835 620.43 501.952 617.29 511.84 613.52C516.77 611.62 521.62 609.52 526.39 607.29C531.16 605.06 535.87 602.65 540.39 600.01C544.91 597.37 549.39 594.53 553.68 591.49C557.97 588.45 562.05 585.11 566.01 581.65C569.967 578.175 573.698 574.451 577.18 570.5C580.694 566.564 583.941 562.399 586.9 558.03C592.918 549.275 597.781 539.78 601.37 529.78L602.07 527.91L602.68 526C603.09 524.73 603.52 523.47 603.91 522.19C604.6 519.61 605.39 517.04 605.91 514.42C607.25 509.22 608.07 503.91 608.91 498.58C608.52 509.407 606.841 520.15 603.91 530.58C600.926 541.112 596.554 551.201 590.91 560.58C588.067 565.289 584.903 569.796 581.44 574.07C578.003 578.375 574.296 582.457 570.34 586.29C566.39 590.129 562.223 593.738 557.86 597.1C553.48 600.433 548.953 603.564 544.28 606.49C534.95 612.306 525.133 617.301 514.94 621.42C504.784 625.55 494.377 629.03 483.78 631.84C473.199 634.624 462.473 636.824 451.65 638.43C446.24 639.23 440.81 639.86 435.36 640.38C432.633 640.633 429.9 640.844 427.16 641.01C424.4 641.18 421.72 641.32 418.82 641.35L419.66 641.28C416.79 641.75 414.14 642.1 411.39 642.43C408.64 642.76 405.93 643.03 403.21 643.27C397.75 643.74 392.29 644.09 386.83 644.27C375.895 644.63 364.948 644.38 354.04 643.52C343.115 642.65 332.256 641.087 321.53 638.84C310.763 636.607 300.21 633.445 289.99 629.39C279.717 625.391 269.91 620.288 260.74 614.17C256.163 611.117 251.784 607.777 247.63 604.17C243.457 600.589 239.541 596.72 235.91 592.59C228.671 584.374 222.563 575.226 217.75 565.39C213.023 555.63 209.478 545.341 207.19 534.74Z" fill="#231F20"/>
<path d="M364.26 538.33C362.898 533.369 360.747 528.658 357.89 524.38C355.158 520.329 351.736 516.789 347.78 513.92C340.113 508.319 330.671 505.7 321.215 506.55C311.759 507.4 302.935 511.662 296.39 518.54C293.008 522.072 290.273 526.171 288.31 530.65C286.261 535.367 284.991 540.386 284.55 545.51C283.132 540.227 282.981 534.683 284.11 529.33C285.265 523.79 287.609 518.566 290.98 514.02C294.425 509.382 298.815 505.527 303.86 502.71C305.15 502.05 306.44 501.37 307.77 500.79C309.1 500.21 310.48 499.79 311.86 499.28C313.24 498.77 314.68 498.54 316.09 498.22L320.41 497.59L324.77 497.44C326.22 497.5 327.68 497.62 329.13 497.72C330.58 497.82 332 498.22 333.42 498.47C334.84 498.72 336.23 499.24 337.61 499.66C343.082 501.525 348.094 504.535 352.31 508.49C356.441 512.361 359.683 517.083 361.81 522.33C363.877 527.395 364.717 532.878 364.26 538.33Z" fill="#231F20"/>
<path d="M534.08 523.04C532.723 518.078 530.576 513.368 527.72 509.09C524.984 505.042 521.563 501.502 517.61 498.63C509.946 493.024 500.503 490.4 491.046 491.249C481.589 492.097 472.763 496.36 466.22 503.24C462.839 506.773 460.104 510.872 458.14 515.35C456.092 520.071 454.822 525.093 454.38 530.22C452.957 524.937 452.806 519.392 453.94 514.04C455.094 508.501 457.434 503.278 460.8 498.73C464.243 494.083 468.638 490.225 473.69 487.41C474.98 486.75 476.27 486.08 477.59 485.49C478.91 484.9 480.31 484.44 481.69 483.99C483.07 483.54 484.5 483.25 485.92 482.93L490.24 482.29L494.6 482.14C496.05 482.2 497.5 482.32 498.95 482.42C500.4 482.52 501.82 482.92 503.25 483.18C504.68 483.44 506.05 483.94 507.44 484.36C512.908 486.232 517.919 489.242 522.14 493.19C526.27 497.06 529.508 501.783 531.63 507.03C533.702 512.098 534.542 517.585 534.08 523.04Z" fill="#231F20"/>
<path d="M436.36 538.46C437.11 546.79 412.64 557.59 412.64 557.59C412.64 557.59 384.21 551.59 383.46 543.23C382.71 534.87 393.94 527.08 408.55 525.77C423.16 524.46 435.61 530.13 436.36 538.46Z" fill="#231F20"/>
<path d="M452.85 560.27L415.85 563.27C414.364 557.833 413.294 552.29 412.65 546.69C412.655 546.653 412.655 546.617 412.65 546.58C412.65 546.48 412.65 546.38 412.58 546.28C412.563 546.195 412.539 546.112 412.51 546.03C412.472 545.931 412.429 545.834 412.38 545.74C412.347 545.668 412.311 545.598 412.27 545.53C412.21 545.43 412.14 545.34 412.07 545.24L411.96 545.1C411.867 544.996 411.767 544.899 411.66 544.81L411.57 544.74C411.45 544.642 411.319 544.558 411.18 544.49H411.12C410.978 544.42 410.831 544.36 410.68 544.31H410.59C410.452 544.274 410.312 544.247 410.17 544.23H409.99H409.84H409.64H409.49H409.38L409.07 544.3L408.83 544.37L408.54 544.5L408.32 544.61L408.07 544.79L407.87 544.95C407.798 545.015 407.731 545.085 407.67 545.16L407.5 545.35C407.441 545.43 407.387 545.513 407.34 545.6L407.21 545.83C407.172 545.915 407.139 546.002 407.11 546.09C407.071 546.177 407.041 546.267 407.02 546.36C406.998 546.449 406.981 546.539 406.97 546.63C406.97 546.73 406.97 546.83 406.97 546.93C406.97 547.03 406.97 547 406.97 547.04C406.882 552.795 406.334 558.533 405.33 564.2L368.33 567.2C368.33 567.2 366.02 622.69 413.05 618.89C460.08 615.09 452.85 560.27 452.85 560.27Z" fill="#231F20"/>
<path d="M379.24 605.46C385.8 613.96 396.29 620.13 413.04 618.78C430.61 617.37 440.61 608.84 446.24 598.71C438.56 591.9 426.06 588 412.29 589.11C397.72 590.29 385.44 596.78 379.24 605.46Z" fill="#F16B6C"/>
<path d="M543 476.68C542.48 476.682 541.97 476.545 541.52 476.285C541.071 476.025 540.698 475.651 540.44 475.2C539.77 474.02 523.62 446.58 492.6 452.97C492.222 453.049 491.832 453.051 491.452 452.979C491.073 452.906 490.712 452.76 490.389 452.548C489.737 452.119 489.283 451.449 489.125 450.685C488.967 449.921 489.119 449.126 489.548 448.474C489.976 447.823 490.646 447.368 491.41 447.21C526.66 439.93 545.41 471.95 545.55 472.28C545.802 472.728 545.933 473.233 545.93 473.747C545.928 474.261 545.791 474.765 545.533 475.21C545.275 475.654 544.906 476.023 544.462 476.281C544.017 476.539 543.514 476.677 543 476.68Z" fill="#231F20"/>
<path d="M272.37 501.92C272.03 501.926 271.692 501.872 271.37 501.76C271.004 501.635 270.666 501.439 270.376 501.184C270.086 500.928 269.849 500.617 269.679 500.27C269.509 499.923 269.409 499.545 269.385 499.159C269.362 498.773 269.414 498.386 269.54 498.02C269.66 497.67 281.9 463.36 317.15 463.36H318.15C318.902 463.411 319.605 463.747 320.116 464.3C320.628 464.853 320.909 465.58 320.901 466.333C320.893 467.087 320.598 467.808 320.075 468.351C319.553 468.893 318.842 469.215 318.09 469.25H318.04C286.28 468.7 275.25 499.62 275.14 499.93C274.943 500.509 274.57 501.011 274.073 501.368C273.577 501.724 272.982 501.917 272.37 501.92Z" fill="#231F20"/>
<path d="M323.32 581.24C308.852 582.542 294.323 579.524 281.569 572.569C268.816 565.614 258.412 555.034 251.671 542.165C244.931 529.297 242.158 514.719 243.703 500.275C245.248 485.831 251.041 472.169 260.35 461.017C269.658 449.866 282.065 441.724 296.001 437.623C309.937 433.522 324.775 433.646 338.641 437.978C352.506 442.31 364.776 450.656 373.898 461.961C383.02 473.266 388.586 487.022 389.89 501.49C391.618 520.889 385.579 540.181 373.098 555.133C360.618 570.084 342.715 579.473 323.32 581.24ZM311.47 449.6C299.903 450.642 288.905 455.09 279.866 462.382C270.827 469.674 264.154 479.482 260.689 490.567C257.225 501.652 257.126 513.516 260.404 524.657C263.682 535.799 270.19 545.717 279.105 553.16C288.02 560.603 298.943 565.235 310.49 566.47C322.038 567.705 333.693 565.489 343.98 560.1C354.268 554.712 362.728 546.394 368.288 536.199C373.849 526.003 376.261 514.387 375.22 502.82C373.808 487.315 366.303 473.003 354.352 463.025C342.4 453.048 326.978 448.219 311.47 449.6Z" fill="#221E57"/>
<path opacity="0.37" d="M351.872 560.237C361.601 529.428 344.512 496.566 313.704 486.837C282.895 477.108 250.033 494.196 240.304 525.005C230.575 555.814 247.663 588.676 278.472 598.405C309.28 608.134 342.143 591.046 351.872 560.237Z" fill="#69A9DC"/>
<path opacity="0.44" d="M293.66 562.07L371.22 529.91C374.697 521.263 376.058 511.909 375.188 502.629C374.319 493.349 371.244 484.411 366.22 476.56L260.12 523.6C262.465 532.119 266.697 540 272.503 546.66C278.31 553.319 285.541 558.586 293.66 562.07Z" fill="white"/>
<path d="M502.19 565.13C487.721 566.432 473.191 563.415 460.438 556.46C447.684 549.504 437.28 538.923 430.54 526.054C423.8 513.186 421.027 498.607 422.573 484.162C424.118 469.718 429.912 456.056 439.222 444.904C448.531 433.753 460.939 425.612 474.875 421.512C488.812 417.412 503.651 417.537 517.516 421.87C531.382 426.204 543.651 434.552 552.772 445.858C561.894 457.165 567.457 470.922 568.76 485.39C570.482 504.787 564.441 524.075 551.961 539.024C539.482 553.972 521.582 563.361 502.19 565.13ZM490.34 433.49C478.773 434.532 467.775 438.98 458.736 446.272C449.697 453.564 443.024 463.373 439.559 474.458C436.095 485.543 435.996 497.406 439.274 508.547C442.552 519.688 449.06 529.608 457.975 537.05C466.89 544.493 477.812 549.125 489.36 550.361C500.907 551.596 512.562 549.379 522.85 543.991C533.138 538.603 541.597 530.284 547.158 520.089C552.719 509.893 555.131 498.277 554.09 486.71C552.678 471.203 545.172 456.89 533.218 446.912C521.264 436.934 505.839 432.107 490.33 433.49H490.34Z" fill="#221E57"/>
<path opacity="0.37" d="M551.433 508.987C561.104 478.033 543.851 445.099 512.896 435.428C481.942 425.757 449.008 443.011 439.337 473.966C429.666 504.92 446.92 537.854 477.875 547.525C508.829 557.195 541.762 539.942 551.433 508.987Z" fill="#69A9DC"/>
<path opacity="0.44" d="M472.52 545.96L550.08 513.81C553.558 505.161 554.919 495.806 554.049 486.524C553.179 477.242 550.104 468.303 545.08 460.45L438.95 507.51C441.3 516.028 445.539 523.907 451.35 530.563C457.162 537.22 464.397 542.482 472.52 545.96Z" fill="white"/>
<path d="M437.56 502.3L426.78 503.3C426.542 500.653 425.784 498.078 424.551 495.723C423.318 493.369 421.632 491.28 419.592 489.577C417.551 487.873 415.195 486.588 412.658 485.795C410.121 485.002 407.453 484.717 404.805 484.955C402.158 485.194 399.583 485.951 397.228 487.184C394.873 488.417 392.785 490.103 391.081 492.143C389.378 494.184 388.093 496.54 387.3 499.077C386.507 501.614 386.222 504.283 386.46 506.93L375.68 507.93C375.24 503.829 375.621 499.682 376.8 495.73C377.98 491.777 379.935 488.1 382.551 484.911C385.167 481.722 388.391 479.086 392.036 477.156C395.681 475.226 399.675 474.042 403.782 473.671C407.89 473.301 412.03 473.752 415.962 474.999C419.894 476.245 423.538 478.262 426.682 480.931C429.826 483.601 432.407 486.87 434.275 490.547C436.143 494.224 437.259 498.237 437.56 502.35V502.3Z" fill="#221E57"/>
<path d="M346.98 665.03C346.98 665.03 343.2 671.52 312.48 644.12C283.94 618.66 277.43 588.84 251.9 597.01C230.42 603.89 248.7 645.66 272.9 678.65C300.33 716 347.99 745.09 347.99 745.09" fill="#C9C3C7"/>
<path d="M346.98 665.03C346.744 665.395 346.392 665.67 345.98 665.81C345.563 665.949 345.129 666.033 344.69 666.06C343.813 666.1 342.934 666.04 342.07 665.88C340.382 665.532 338.729 665.034 337.13 664.39C335.54 663.767 333.988 663.052 332.48 662.25C330.96 661.48 329.48 660.65 328.02 659.81C322.275 656.306 316.757 652.441 311.5 648.24C306.232 643.954 301.32 639.248 296.81 634.17C292.25 629.17 288.1 623.86 283.98 618.74C279.86 613.62 275.84 608.54 271.33 604.91C269.28 603.162 266.899 601.843 264.33 601.03C261.848 600.335 259.238 600.236 256.71 600.74C256.05 600.86 255.37 601.01 254.71 601.19C254.05 601.37 253.3 601.59 252.81 601.77C251.819 602.134 250.902 602.673 250.1 603.36C248.527 604.955 247.55 607.041 247.33 609.27C246.972 612.08 247.036 614.929 247.52 617.72C248.013 620.765 248.715 623.772 249.62 626.72C251.545 632.808 253.911 638.747 256.7 644.49C259.487 650.31 262.547 656.027 265.88 661.64C269.18 667.24 272.69 672.76 276.42 678.1C280.224 683.381 284.3 688.461 288.63 693.32C297.408 703.078 306.818 712.247 316.8 720.77C321.78 725.083 326.877 729.267 332.09 733.32C337.29 737.38 342.58 741.32 348.02 745.11C336.507 738.519 325.428 731.197 314.85 723.19C309.557 719.19 304.387 715.007 299.34 710.64C294.29 706.3 289.4 701.75 284.74 696.95C280.036 692.156 275.59 687.115 271.42 681.85C267.21 676.61 263.27 671.2 259.54 665.61C255.789 660.01 252.331 654.219 249.18 648.26C245.946 642.229 243.206 635.945 240.99 629.47C239.849 626.126 238.967 622.699 238.35 619.22C237.661 615.493 237.536 611.684 237.98 607.92C238.246 605.825 238.825 603.782 239.7 601.86C240.652 599.771 242.012 597.895 243.7 596.34C245.379 594.834 247.322 593.651 249.43 592.85C250.49 592.46 251.33 592.21 252.26 591.96C253.19 591.71 254.12 591.49 255.08 591.32C259.07 590.563 263.182 590.761 267.08 591.9C270.841 593.091 274.326 595.023 277.33 597.58C280.053 599.901 282.571 602.45 284.86 605.2C287.09 607.84 289.17 610.49 291.18 613.14C295.18 618.45 299.1 623.64 303.23 628.6C307.354 633.532 311.776 638.207 316.47 642.6C318.8 644.91 321.16 647.16 323.52 649.42C325.88 651.68 328.29 653.88 330.75 656C333.174 658.158 335.719 660.178 338.37 662.05C339.674 662.984 341.056 663.804 342.5 664.5C343.209 664.86 343.957 665.135 344.73 665.32C345.104 665.436 345.499 665.47 345.887 665.42C346.275 665.37 346.648 665.237 346.98 665.03Z" fill="#221F1F"/>
<path d="M598.19 551.2C568.5 537.71 630.58 431.39 693.12 293.85C755.66 156.31 795.01 39.5999 824.69 53.1399C854.37 66.6799 872.07 209.23 809.53 346.77C746.99 484.31 627.9 564.7 598.19 551.2Z" fill="#EECA6C"/>
<path d="M824.69 53.1396C826.168 53.779 827.553 54.613 828.81 55.6196C830.051 56.6538 831.198 57.795 832.24 59.0298C834.305 61.5097 836.117 64.1897 837.65 67.0298C840.652 72.7485 843.107 78.7382 844.98 84.9194C848.664 97.2731 851.244 109.93 852.69 122.74C855.534 148.361 855.745 174.206 853.32 199.87C852.22 212.71 850.537 225.48 848.27 238.18C846.003 250.88 843.253 263.473 840.02 275.959C826.968 326.035 805.397 373.491 776.25 416.25C768.97 426.916 761.286 437.25 753.2 447.25C749.16 452.27 745.013 457.203 740.76 462.05C736.506 466.896 732.137 471.63 727.65 476.25C709.899 494.94 690.283 511.768 669.11 526.47C658.501 533.799 647.264 540.173 635.53 545.52C629.636 548.168 623.506 550.254 617.22 551.75C614.069 552.473 610.852 552.876 607.62 552.95C606.003 552.979 604.386 552.861 602.79 552.6C601.207 552.321 599.669 551.826 598.22 551.129C601.222 552.177 604.425 552.519 607.58 552.129C610.722 551.81 613.824 551.177 616.84 550.24C622.876 548.356 628.725 545.915 634.31 542.95C645.495 537 656.16 530.119 666.19 522.379C676.289 514.732 685.97 506.547 695.19 497.859C699.8 493.519 704.36 489.119 708.8 484.609C713.24 480.099 717.58 475.49 721.8 470.79C726.02 466.09 730.2 461.32 734.24 456.45C738.28 451.58 742.3 446.69 746.16 441.68C753.913 431.68 761.247 421.39 768.16 410.81C796.096 368.577 817.192 322.2 830.67 273.39C834.077 261.21 837.003 248.91 839.45 236.49C840.69 230.28 841.73 224.04 842.74 217.8C843.75 211.56 844.63 205.28 845.38 199C846.13 192.72 846.75 186.41 847.23 180.1C847.71 173.79 848.03 167.46 848.23 161.1C848.715 148.432 848.518 135.747 847.64 123.1C846.88 110.452 845.054 97.8905 842.18 85.5498C840.748 79.3752 838.739 73.3488 836.18 67.5498C834.901 64.6629 833.34 61.9093 831.52 59.3296C829.733 56.783 827.4 54.6681 824.69 53.1396Z" fill="#221F1F"/>
<path d="M598.19 551.2C596.818 550.633 595.552 549.835 594.45 548.84C593.387 547.771 592.503 546.539 591.83 545.19C590.621 542.424 589.942 539.456 589.83 536.44C589.5 530.44 590.45 524.5 591.59 518.68C592.73 512.86 594.4 507.15 596.16 501.5C597.92 495.85 599.86 490.26 601.88 484.72C610.14 462.58 619.62 441.01 629.34 419.59L636.65 403.54L644.08 387.54L658.97 355.6C668.97 334.34 678.9 313.1 688.52 291.72C698.3 270.4 707.77 248.94 717.23 227.45L731.51 195.24L738.66 179.13L745.96 163.07C755.72 141.67 765.73 120.34 776.96 99.5702C779.81 94.4002 782.75 89.2699 785.85 84.2299C788.95 79.1899 792.2 74.2302 795.8 69.4902C799.315 64.6645 803.421 60.2973 808.02 56.4902C810.38 54.6032 813.074 53.1752 815.96 52.2802C817.417 51.8973 818.927 51.7519 820.43 51.85C821.906 52.0265 823.34 52.4561 824.67 53.12C823.309 52.5958 821.868 52.3118 820.41 52.2802C818.975 52.3052 817.553 52.5616 816.2 53.04C813.537 54.1244 811.099 55.6943 809.01 57.6698C804.838 61.6921 801.177 66.2128 798.11 71.1298C791.889 81.0019 786.314 91.2667 781.42 101.86C776.35 112.39 771.59 123.1 766.96 133.86C762.33 144.62 757.73 155.41 753.23 166.25L746.49 182.52L739.69 198.77L726.07 231.28C716.87 252.914 707.437 274.463 697.77 295.93C687.943 317.31 677.9 338.58 667.64 359.74L652.1 391.38L636.48 422.96C631.27 433.47 626.18 444.04 621.1 454.6C616.02 465.16 611.1 475.79 606.48 486.53C601.722 497.185 597.654 508.134 594.3 519.31C592.604 524.855 591.596 530.588 591.3 536.38C591.184 539.252 591.601 542.12 592.53 544.84C593.065 546.175 593.808 547.417 594.73 548.52C595.721 549.605 596.891 550.512 598.19 551.2Z" fill="#221F1F"/>
<path d="M821.03 177.92C821.03 177.92 918.98 228.7 936.3 273.75C936.3 273.75 943.95 352.87 922.16 400.8C900.37 448.73 835.38 495.7 835.38 495.7C835.38 495.7 719.79 492.57 688.03 470.41C688.03 470.41 697.76 362.84 722.96 307.41C748.16 251.98 821.03 177.92 821.03 177.92Z" fill="#EECA6C"/>
<path d="M688.03 470.41C695.88 475.9 708.88 480.21 723.98 483.61C723.98 483.61 744.98 377.23 767.49 327.61C790 277.99 854.19 197.17 854.19 197.17C835.43 185.41 821 177.92 821 177.92C821 177.92 748.14 251.97 722.93 307.4C697.72 362.83 688.03 470.41 688.03 470.41Z" fill="#6874B5"/>
<path d="M835.38 495.7C822.8 495.99 810.21 495.77 797.63 495.3C785.05 494.83 772.47 494 759.91 492.69C753.63 492.023 747.353 491.27 741.08 490.43C734.81 489.53 728.56 488.43 722.32 487.14C716.023 485.874 709.798 484.275 703.67 482.35C702.12 481.9 700.59 481.35 699.05 480.77C697.51 480.19 695.99 479.56 694.46 478.91C692.93 478.26 691.46 477.47 689.93 476.72C689.16 476.336 688.412 475.908 687.69 475.44L685.47 474.08L683.35 472.77L683.58 470.01C684.15 463.01 684.86 456.21 685.58 449.32C685.96 445.89 686.34 442.45 686.77 439.02C687.2 435.59 687.61 432.15 688.11 428.73C689.03 421.87 690.11 415.04 691.11 408.2L692.86 397.96C693.43 394.55 694.12 391.15 694.75 387.74C697.35 374.13 700.31 360.57 704.03 347.14C707.75 333.71 711.88 320.36 717.82 307.49C718.19 306.68 718.49 305.86 718.9 305.07L720.1 302.71L722.51 298C724.04 294.82 725.88 291.84 727.64 288.81L730.29 284.28C731.18 282.78 732.17 281.34 733.12 279.88L735.99 275.51C736.99 274.05 737.88 272.58 738.91 271.18L744.91 262.68C746.91 259.86 749.07 257.13 751.15 254.35C752.2 252.97 753.22 251.58 754.29 250.21L757.54 246.21C759.73 243.53 761.84 240.79 764.1 238.21L770.78 230.28L777.59 222.47C779.86 219.86 782.23 217.35 784.59 214.79C786.95 212.23 789.27 209.71 791.64 207.2L795.18 203.43L798.79 199.72C801.19 197.24 803.61 194.787 806.05 192.36C810.91 187.467 815.88 182.684 820.96 178.01C802.91 198.84 785.51 220.15 769.07 242.09C760.99 253.15 752.94 264.22 745.67 275.75C738.4 287.28 731.61 299.02 726.33 311.33C725.1 314.45 723.81 317.55 722.62 320.69L719.38 330.29C718.8 331.87 718.38 333.51 717.87 335.13L716.43 340.01C715.95 341.64 715.43 343.26 715 344.9L713.72 349.84L712.44 354.78C712 356.42 711.57 358.06 711.2 359.73L708.88 369.73C708.12 373.05 707.47 376.41 706.76 379.73L705.71 384.73L704.71 389.73C702.09 403.15 699.84 416.66 697.79 430.2C695.74 443.74 693.79 457.35 692.37 470.89L690.48 466.82C695.03 470 700.62 472.38 706.29 474.48C712.07 476.549 717.954 478.312 723.92 479.76C729.92 481.24 736.01 482.54 742.13 483.76C748.25 484.98 754.39 486.03 760.56 487C772.92 488.9 785.333 490.567 797.8 492C810.266 493.433 822.793 494.667 835.38 495.7Z" fill="#221F1F"/>
<path d="M821.03 177.92C823.93 179.2 826.8 180.57 829.66 181.92C832.52 183.27 835.36 184.73 838.19 186.2C843.837 189.107 849.427 192.14 854.96 195.3C866.04 201.58 876.83 208.387 887.33 215.72C892.59 219.374 897.717 223.223 902.71 227.27C907.71 231.32 912.63 235.49 917.29 240.01C922.022 244.541 926.43 249.4 930.48 254.55C934.711 259.852 938.181 265.719 940.79 271.98L941.01 272.55L941.09 273.25C941.65 278.81 941.97 284.19 942.23 289.66C942.49 295.13 942.63 300.56 942.65 306.01C942.65 316.92 942.33 327.85 941.36 338.75C940.87 344.21 940.31 349.66 939.49 355.09C938.67 360.52 937.74 365.95 936.55 371.34C932.258 393.275 922.501 413.771 908.18 430.93C904.78 435.25 901.18 439.37 897.5 443.41C893.82 447.45 889.97 451.3 886.07 455.1C878.29 462.71 870.07 469.8 861.64 476.61C853.21 483.42 844.46 489.81 835.38 495.66C851.795 481.777 867.309 466.864 881.83 451.01C885.41 447.01 888.93 443.01 892.27 438.86C895.61 434.71 898.92 430.57 901.98 426.25C908.19 417.816 913.522 408.769 917.89 399.25C919.932 394.471 921.701 389.579 923.19 384.6C924.69 379.6 925.86 374.48 926.94 369.34C928.981 358.962 930.42 348.475 931.25 337.93C932.09 327.35 932.54 316.7 932.56 306.05C932.56 300.72 932.56 295.39 932.34 290.05C932.12 284.71 931.91 279.36 931.53 274.18L931.82 275.44C929.647 269.938 926.741 264.754 923.18 260.03C919.529 255.113 915.564 250.437 911.31 246.03C902.586 237.072 893.261 228.719 883.4 221.03C878.49 217.1 873.46 213.3 868.4 209.59C863.34 205.88 858.17 202.19 852.94 198.59C842.44 191.52 831.85 184.6 821.03 177.92Z" fill="#221F1F"/>
<path d="M854.19 197.17C839.85 219.64 825.13 241.76 810.79 264.07C807.17 269.62 803.66 275.23 800.1 280.81C796.54 286.39 793.1 292 789.71 297.68C788.01 300.5 786.28 303.31 784.71 306.17L782.24 310.43L781.01 312.57L779.86 314.72C776.669 320.362 773.769 326.163 771.17 332.1C768.59 337.98 766.34 344.1 764.17 350.32L760.97 359.65L757.97 369.07C753.97 381.66 750.19 394.34 746.46 407.07C739 432.53 731.78 458.07 724.03 483.61C727.63 457.18 732.73 431.02 738.7 405.04L741 395.3L743.45 385.6C744.263 382.36 745.116 379.133 746.01 375.92C746.91 372.7 747.75 369.47 748.7 366.26C752.311 353.26 756.706 340.489 761.86 328.02C767.39 315.4 774.41 303.9 781.58 292.58C788.75 281.26 796.4 270.32 804.27 259.58C812.14 248.84 820.2 238.2 828.53 227.8C836.86 217.4 845.29 207.08 854.19 197.17Z" fill="#221F1F"/>
<path d="M531.19 638.3C531.19 638.3 537.07 642.96 555.69 606.3C572.99 572.19 568.18 542.05 594.93 540.35C617.44 538.92 615.65 584.49 605.12 624.03C593.19 668.81 559.42 713.26 559.42 713.26" fill="#C9C3C7"/>
<path d="M531.19 638.3C531.578 638.375 531.979 638.364 532.362 638.267C532.746 638.17 533.104 637.99 533.41 637.74C534.065 637.291 534.662 636.763 535.19 636.17C536.297 634.995 537.301 633.727 538.19 632.38C539.975 629.671 541.604 626.864 543.07 623.97C544.59 621.1 546.07 618.17 547.41 615.21C548.75 612.25 550.16 609.28 551.49 606.29C554.252 600.477 556.664 594.502 558.71 588.4C560.71 582.28 562.51 576.02 564.3 569.62C565.2 566.41 566.17 563.19 567.3 559.92C568.422 556.52 569.837 553.225 571.53 550.07C573.396 546.6 575.939 543.539 579.01 541.07C582.235 538.583 586.005 536.896 590.01 536.15C590.96 535.96 591.92 535.82 592.86 535.72C593.8 535.62 594.69 535.54 595.86 535.52C598.116 535.492 600.358 535.885 602.47 536.68C604.603 537.516 606.548 538.771 608.19 540.37C609.707 541.833 610.992 543.519 612 545.37C613.789 548.709 615.06 552.299 615.77 556.02C616.466 559.485 616.897 562.999 617.06 566.53C617.351 573.367 617.086 580.216 616.27 587.01C615.506 593.709 614.402 600.364 612.96 606.95C611.52 613.51 609.82 619.95 607.81 626.4C605.841 632.819 603.538 639.131 600.91 645.31C598.32 651.48 595.42 657.5 592.3 663.39C589.18 669.28 585.9 675.06 582.43 680.72C575.505 692.033 567.859 702.889 559.54 713.22C563.23 707.73 566.71 702.11 570.08 696.44C573.45 690.77 576.67 685.01 579.73 679.19C585.923 667.613 591.344 655.641 595.96 643.35C598.23 637.251 600.172 631.036 601.78 624.73C603.31 618.4 604.57 611.97 605.6 605.55C606.63 599.13 607.42 592.68 607.9 586.24C608.401 579.878 608.438 573.488 608.01 567.12C607.779 564.051 607.341 561.001 606.7 557.99C606.134 555.212 605.153 552.536 603.79 550.05C602.78 548.052 601.108 546.465 599.06 545.56C598.066 545.205 597.015 545.039 595.96 545.07C595.291 545.082 594.624 545.129 593.96 545.21C593.27 545.3 592.58 545.4 591.96 545.54C589.424 545.979 587.027 547.007 584.96 548.54C582.873 550.232 581.149 552.327 579.89 554.7C577.01 559.7 575.11 565.96 573.15 572.19C571.19 578.42 569.25 584.9 566.82 591.19C564.476 597.568 561.617 603.746 558.27 609.66C554.905 615.487 551.174 621.095 547.1 626.45C546.04 627.77 544.97 629.08 543.84 630.35C542.729 631.645 541.544 632.873 540.29 634.03C539.038 635.219 537.678 636.29 536.23 637.23C535.484 637.691 534.689 638.067 533.86 638.35C533.438 638.482 533.001 638.56 532.56 638.58C532.084 638.666 531.594 638.566 531.19 638.3Z" fill="#221F1F"/>
</g>
<defs>
<clipPath id="clip0_4358_968">
<rect width="1062.62" height="1196.34" fill="white"/>
</clipPath>
</defs>
</svg>
