<svg width="513" height="373" viewBox="0 0 513 373" fill="none" xmlns="http://www.w3.org/2000/svg">
<g clip-path="url(#clip0_5042_919)">
<path d="M461.4 372.82C459.33 372.82 457.19 372.721 455.04 372.521C452.89 372.32 450.42 371.98 448.04 371.521C445.66 371.061 443.26 370.52 440.83 369.87C438.4 369.22 435.89 368.44 433.39 367.56C421.39 363.38 410.93 359.871 401.33 356.841C397.69 355.691 394.13 354.591 390.72 353.581C389.57 353.241 388.45 352.901 387.33 352.581C385.09 351.921 382.9 351.29 380.74 350.69C377.53 349.79 374.35 348.941 371.29 348.151C369.29 347.631 367.24 347.151 365.29 346.641C363.34 346.13 361.29 345.701 359.4 345.26C357.51 344.82 355.55 344.41 353.65 344.01C349.9 343.23 346.12 342.5 342.43 341.86C332.66 340.14 322.6 338.86 311.69 337.86C306.08 337.36 300.17 336.92 293.6 336.54L287.18 336.19L283.88 336.031L277.08 335.73C271.76 335.51 265.95 335.311 258.8 335.081L250.9 334.841L236.65 334.42C229.91 334.23 222.81 334.03 215.3 333.8C206.05 333.52 196.65 333.021 187.36 332.32C182.58 331.97 177.75 331.551 173.01 331.081C159.71 329.771 146.74 328.081 134.45 325.951C131.26 325.401 128.05 324.83 124.92 324.23C115.18 322.36 105.81 320.23 97.08 317.91C92.52 316.7 88.0799 315.4 83.7799 314.07C79.4799 312.741 75.0799 311.22 71.0099 309.72C11.2199 287.6 -0.590074 255.94 0.00992605 233.27C0.25227 226.294 1.54001 219.394 3.82999 212.8C6.60859 204.64 11.2238 197.226 17.32 191.13C21.6474 186.772 26.5859 183.067 31.9801 180.13C33.0501 179.54 34.16 178.97 35.29 178.43C38.6899 176.816 42.2147 175.478 45.83 174.43L46.35 174.21L46.7101 174.04L47.08 173.86L47.4601 173.65L48.0199 173.34L48.4701 173.07L49.11 172.68L49.6 172.36L50.38 171.86L50.9701 171.45L51.8 170.87L52.4401 170.41L53.32 169.76L53.9701 169.27L54.9701 168.51L55.6801 167.95L56.6801 167.13L57.4201 166.53L59.2499 165.02L61.2001 163.35C61.6301 162.99 63.2001 161.64 63.2001 161.64L64.9001 160.12L65.2402 159.82C66.7202 158.5 68.1901 157.15 69.6901 155.75C84.9001 141.59 103.36 122.17 121.21 103.39C125.38 99.0105 129.51 94.6605 133.57 90.3905L137.04 86.7705L140.56 83.1105L143.62 79.9405L146.91 76.5605L150.26 73.1505L153.14 70.2305L155.95 67.4105L159.41 63.9905L162.06 61.4005C162.96 60.5205 163.83 59.6905 164.67 58.8905L164.87 58.7005L167.16 56.5405L169.7 54.1905L170.4 53.5505C171.19 52.8305 171.98 52.1105 172.75 51.4305L172.86 51.3405C173.62 50.6605 174.33 50.0405 175.02 49.4505L175.66 48.9005L177.33 47.4905L178 46.9405C178.72 46.3505 179.43 45.7805 180.12 45.2405L180.22 45.1605C181.553 44.1205 182.887 43.1005 184.22 42.1005L185.36 41.2405L188.27 39.0605L189.46 38.1905C190.46 37.4605 191.46 36.7405 192.46 36.0405L193.46 35.3505C194.65 34.5005 195.82 33.6905 196.98 32.8805L197.36 32.6205C229.29 10.6205 258.36 -0.0195312 286.29 -0.0195312C316.04 -0.0195312 345.45 11.9805 378.86 37.8605C407.56 60.0605 416.56 94.6205 423.31 128.13C423.315 128.17 423.315 128.211 423.31 128.25C423.59 129.63 423.87 131.02 424.14 132.41C424.14 132.41 424.14 132.46 424.14 132.49C424.67 135.18 425.19 137.89 425.71 140.6C426.64 145.4 427.6 150.36 428.59 155.21L428.9 156.72L429.71 160.57L430.12 162.46L430.55 164.41L430.97 166.29L431.49 168.55L431.85 170.03C432.01 170.75 432.18 171.43 432.35 172.11L432.76 173.76L433.45 176.45L433.88 178.04C434.14 179.04 434.4 179.99 434.68 180.95L435.09 182.36C435.3 183.11 435.51 183.83 435.73 184.55L436.19 186.07C436.4 186.74 436.62 187.43 436.84 188.07C437 188.57 437.17 189.07 437.34 189.59C437.55 190.25 437.78 190.92 438.01 191.59C438.18 192.06 438.35 192.59 438.52 193.05C438.77 193.74 439.01 194.41 439.26 195.05C439.264 195.09 439.264 195.131 439.26 195.17C439.65 196.17 440.05 197.24 440.45 198.27L440.55 198.52C440.97 199.52 441.37 200.52 441.77 201.52L441.98 202.01C442.39 203.01 442.79 203.86 443.19 204.75L443.51 205.44C443.9 206.28 444.3 207.11 444.7 207.93L445.11 208.75C445.5 209.53 445.89 210.29 446.29 211.05L446.82 212.05C447.19 212.74 447.59 213.45 447.99 214.16L448.6 215.16C448.99 215.82 449.38 216.48 449.79 217.16L450.49 218.28C450.88 218.89 451.28 219.51 451.69 220.12L452.37 221.12L452.49 221.3C452.883 221.874 453.283 222.444 453.69 223.01L454.44 224.01L454.6 224.22C454.99 224.74 455.36 225.22 455.74 225.73L456 226.05L456.65 226.85L456.92 227.18C457.24 227.57 457.56 227.97 457.92 228.36L458.38 228.9L459.21 229.85L459.38 230.03L460.13 230.88L460.76 231.56C461.04 231.86 461.33 232.15 461.62 232.45L462.5 233.36L463.24 234.1L464.31 235.1L465.31 236.1L465.78 236.53C466.28 236.99 466.78 237.44 467.34 237.9L468.48 238.9C469.48 239.75 470.48 240.5 471.35 241.2C473.29 242.68 475.24 244.28 477.14 245.95C481.864 250.122 486.214 254.7 490.14 259.63C490.75 260.4 491.35 261.18 491.94 261.96C493.09 263.49 494.09 264.89 495 266.23C495.62 267.14 496.22 268.06 496.81 268.99C499.69 273.542 502.214 278.31 504.36 283.25C504.767 284.224 505.167 285.194 505.56 286.16C509.707 296.453 511.911 307.425 512.06 318.52C512.114 325.217 511.153 331.882 509.21 338.29C508.92 339.2 508.62 340.1 508.3 340.98C507.318 343.655 506.124 346.246 504.73 348.73C503.788 350.405 502.747 352.021 501.61 353.57C498.136 358.368 493.761 362.444 488.73 365.57C487.87 366.1 486.99 366.57 486.1 367.07C484.3 368.025 482.44 368.86 480.53 369.57C479.53 369.93 478.53 370.271 477.58 370.57C473.505 371.782 469.304 372.517 465.06 372.76C463.98 372.82 462.87 372.86 461.77 372.86L461.4 372.82Z" fill="#231F20"/>
<path d="M18.04 217.62C22.67 203.95 34.62 193.3 50.04 188.86C74.8 181.73 156.38 82.9401 189.47 57.0301C263.78 -1.1799 312.53 5.5801 369.62 49.7401C426.71 93.9001 394.53 201.38 462.3 253.13C514.95 293.34 508.6 377.99 438.37 353.43C343.62 320.3 319.93 321.94 215.73 318.82C121.37 315.94 -6.37997 289.75 18.04 217.62Z" fill="#F1594B"/>
<path d="M215.73 318.819C319.93 321.979 343.6 320.299 438.36 353.429C508.59 377.989 514.94 293.339 462.29 253.129C443.68 238.919 432.62 220.509 425.17 200.359C364.17 341.959 18.04 217.619 18.04 217.619C-6.37997 289.749 121.37 315.939 215.73 318.819Z" fill="#951B1E"/>
<path d="M79.93 166.749C67.26 178.549 56.6299 186.959 50.0299 188.859C34.6199 193.299 22.6699 203.949 18.0299 217.619C-6.38012 289.749 121.37 315.939 215.73 318.819C319.93 321.979 343.6 320.299 438.36 353.429C508.59 377.989 514.94 293.339 462.29 253.129C423.29 223.369 417.4 175.129 408.55 131.189C285.62 249.099 79.93 166.749 79.93 166.749Z" fill="#D91F26"/>
<path d="M379.146 251.009C381.291 228.889 357.398 208.471 325.779 205.404C294.16 202.337 266.788 217.783 264.643 239.903C262.497 262.023 286.39 282.441 318.009 285.508C349.628 288.575 377 273.129 379.146 251.009Z" fill="#F6FAFE"/>
<path d="M257.264 183.966C259.528 160.62 231.253 138.774 194.109 135.171C156.966 131.569 125.019 147.574 122.755 170.92C120.49 194.266 148.766 216.112 185.909 219.715C223.053 223.317 254.999 207.312 257.264 183.966Z" fill="#F6FAFE"/>
<path d="M177.26 109.521C214.4 113.121 246.35 97.1207 248.61 73.7707C250.06 58.8407 239.01 44.5407 221.15 35.2207C210.107 41.7679 199.52 49.0545 189.46 57.0307C178.46 65.6007 162.25 82.1607 144.46 100.741C154.811 105.521 165.905 108.491 177.26 109.521Z" fill="#F6FAFE"/>
<path opacity="0.19" d="M79.93 166.749C67.26 178.549 56.6299 186.959 50.0299 188.859C34.6199 193.299 22.6699 203.949 18.0299 217.619C-6.38012 289.749 121.37 315.939 215.73 318.819C319.93 321.979 343.6 320.299 438.36 353.429C508.59 377.989 514.94 293.339 462.29 253.129C423.29 223.369 417.4 175.129 408.55 131.189C285.62 249.099 79.93 166.749 79.93 166.749Z" fill="#D91F26"/>
<path opacity="0.32" d="M215.73 318.819C319.93 321.979 343.6 320.299 438.36 353.429C508.59 377.989 514.94 293.339 462.29 253.129C443.68 238.919 432.62 220.509 425.17 200.359C364.17 341.959 18.04 217.619 18.04 217.619C-6.37997 289.749 121.37 315.939 215.73 318.819Z" fill="#951B1E"/>
<path d="M382.129 180.095C395.231 176.239 401.249 157.471 395.57 138.175C389.89 118.879 374.665 106.363 361.563 110.219C348.461 114.075 342.443 132.844 348.122 152.139C353.801 171.435 369.026 183.952 382.129 180.095Z" fill="#F6FAFE"/>
<path d="M344.679 112.479C345.344 105.629 339.55 99.4627 331.739 98.705C323.927 97.9474 317.057 102.886 316.392 109.735C315.728 116.584 321.522 122.751 329.333 123.509C337.144 124.266 344.015 119.328 344.679 112.479Z" fill="#F6FAFE"/>
</g>
<defs>
<clipPath id="clip0_5042_919">
<rect width="512.11" height="372.82" fill="white"/>
</clipPath>
</defs>
</svg>
