<svg width="93" height="139" viewBox="0 0 93 139" fill="none" xmlns="http://www.w3.org/2000/svg">
<g clip-path="url(#clip0)" filter="url(#filter0_d)">
<path d="M78.7897 66.8799C81.0497 83.2999 82.2397 98.5999 82.7497 112.53L17.9897 122.41C13.9097 109.68 9.95965 94.7299 7.02965 77.8299C6.54965 75.1499 6.10965 72.4199 5.69965 69.6399C5.19965 66.2699 4.75965 62.9499 4.38965 59.6899C2.61965 44.5299 2.04965 30.6899 2.14965 18.5299L66.8997 8.65991C70.2197 20.8599 73.3397 34.2599 75.9297 48.7699C76.3297 51.0199 76.7197 53.2899 77.0997 55.5999C77.7197 59.4099 78.2797 63.1699 78.7897 66.8799Z" fill="white" stroke="black" stroke-miterlimit="10" stroke-linecap="round"/>
<path d="M1.77039 18.1499C1.40039 15.8799 1.03039 13.6099 0.650391 11.3299C1.93039 12.0199 3.22039 12.7099 4.50039 13.3999C5.77039 12.2799 7.05039 11.1599 8.32039 10.0299C9.83039 10.5799 11.3404 11.1299 12.8504 11.6799C14.2004 10.7699 15.5504 9.84994 16.9004 8.93994C18.8604 9.34994 20.8204 9.74994 22.7804 10.1599C24.2804 9.17994 25.7804 8.18994 27.2804 7.20994C29.1704 7.75994 31.0504 8.29994 32.9404 8.84994C34.0604 7.78994 35.1904 6.72994 36.3104 5.66994C38.1104 6.38994 39.9004 7.10994 41.7004 7.82994C43.3304 6.49994 44.9504 5.17994 46.5804 3.84994C48.3804 4.66994 50.1804 5.48994 51.9704 6.30994C53.6004 5.07994 55.2304 3.84994 56.8504 2.61994C58.1704 3.43994 59.5004 4.25994 60.8204 5.08994C62.0804 3.85994 64.4604 2.15994 65.7204 0.939941C66.3704 3.15994 66.1804 6.00994 66.8304 8.22994C45.2404 11.5899 23.3704 14.7899 1.77039 18.1499Z" fill="#1E6F5D" stroke="black" stroke-miterlimit="10" stroke-linecap="round"/>
<path d="M6.27031 21.79C7.16031 25.31 7.89031 28.85 8.53031 32.41C9.17031 35.9699 9.77031 39.5299 10.1803 43.1199C10.5703 46.7099 10.8103 50.33 11.2703 53.91C11.7303 57.49 12.3803 61.0499 13.0903 64.5899C13.8103 68.1299 14.4803 71.68 15.0703 75.25C15.6703 78.81 16.2903 82.3699 16.7903 85.95C17.7703 93.11 18.5903 100.29 19.0203 107.52C19.0203 107.58 18.9803 107.62 18.9303 107.63C18.8803 107.63 18.8403 107.6 18.8303 107.55C17.1403 100.5 15.8303 93.3899 14.6803 86.2599C14.1203 82.6899 13.6703 79.1099 13.2103 75.5299C12.7403 71.95 12.3503 68.36 12.0003 64.76C11.6403 61.16 11.2303 57.57 10.6303 54.0099C10.0303 50.4499 9.21031 46.9199 8.53031 43.3699C7.89031 39.7999 7.42031 36.22 7.00031 32.63C6.58031 29.04 6.25031 25.4399 6.07031 21.8099C6.07031 21.7499 6.11031 21.71 6.17031 21.7C6.22031 21.71 6.26031 21.74 6.27031 21.79Z" fill="black"/>
<path d="M30.59 115.55C32.49 114.89 34.42 114.43 36.36 114.02C38.3 113.62 40.24 113.27 42.22 113.1C44.19 112.94 46.19 112.97 48.16 112.74C50.13 112.53 52.06 112.12 53.99 111.66C55.92 111.18 57.85 110.74 59.8 110.41C61.74 110.05 63.69 109.68 65.65 109.43C69.57 108.95 73.52 108.6 77.52 108.67C77.58 108.67 77.62 108.72 77.62 108.77C77.62 108.81 77.59 108.85 77.55 108.86C73.73 110.07 69.86 110.87 65.96 111.54C64.01 111.85 62.04 112.06 60.08 112.28C58.12 112.52 56.14 112.66 54.16 112.75C52.18 112.86 50.21 113.03 48.26 113.39C46.31 113.74 44.41 114.34 42.47 114.75C40.53 115.15 38.57 115.38 36.6 115.55C34.63 115.71 32.65 115.83 30.64 115.74C30.58 115.74 30.54 115.69 30.54 115.63C30.53 115.6 30.56 115.56 30.59 115.55Z" fill="black"/>
<path d="M78.7896 66.88L7.02965 77.82C6.54965 75.14 6.10965 72.41 5.69965 69.63C5.19965 66.26 4.75965 62.94 4.38965 59.68L75.9296 48.77C76.3297 51.02 76.7197 53.29 77.0996 55.6C77.7197 59.41 78.2796 63.17 78.7896 66.88Z" fill="#1E6F5D" stroke="black" stroke-miterlimit="10" stroke-linecap="round"/>
<path d="M50.8492 85.2999C65.2041 80.355 73.4084 66.3816 69.174 54.0893C64.9397 41.7971 49.8701 35.8409 35.5152 40.7858C21.1604 45.7306 12.9561 59.7041 17.1904 71.9963C21.4248 84.2886 36.4943 90.2448 50.8492 85.2999Z" fill="#FAF28A" stroke="black" stroke-miterlimit="10"/>
<path d="M17.8496 122.57C18.1696 124.85 18.4896 127.13 18.8196 129.41C19.8396 128.37 20.8596 127.33 21.8796 126.29C23.4296 126.98 24.9796 127.67 26.5296 128.36C27.8096 127.39 29.0796 126.41 30.3596 125.44C31.9196 125.91 33.4796 126.38 35.0396 126.85C36.7896 125.88 38.5396 124.91 40.2896 123.93C42.0196 124.42 43.7396 124.91 45.4696 125.41C47.1096 124.33 48.7396 123.24 50.3796 122.16C51.7696 122.84 53.1596 123.51 54.5496 124.19C56.0496 122.97 57.5496 121.74 59.0496 120.52C60.9996 121.3 62.9496 122.08 64.8996 122.87C66.3696 121.55 67.8396 120.23 69.3196 118.92C71.2396 119.61 73.1596 120.3 75.0796 120.99C76.0996 119.81 77.1196 118.63 78.1296 117.45C79.6996 118.25 82.4796 119.16 84.0496 119.96C84.0096 117.64 82.9796 114.98 82.9396 112.67C61.2996 115.88 39.4696 119.34 17.8496 122.57Z" fill="#1E6F5D" stroke="black" stroke-miterlimit="10" stroke-linecap="round"/>
<path d="M78.2498 61.5501L78.4799 63.0501L76.0398 63.8201L75.3398 64.0401L75.3898 65.7501L75.5598 72.3801L75.4298 72.0101L74.1998 68.3801L72.9398 64.6401L65.1398 64.3401L64.5898 64.3201L65.2498 64.1501L72.9598 62.1401L72.6498 53.3601L74.6298 61.6401L76.5598 61.6001L78.2498 61.5501Z" fill="white" stroke="black" stroke-width="0.5" stroke-miterlimit="10" stroke-linecap="round"/>
<path d="M65.1104 67.7L66.2504 72.5L71.4604 72.37L66.6604 73.89L66.7904 78.72L65.2704 74.24L60.4404 74.05L65.2804 72.79L65.1104 67.7Z" fill="white" stroke="black" stroke-width="0.5" stroke-miterlimit="10" stroke-linecap="round"/>
<path d="M37.4355 104.67C37.1552 104.51 36.837 104.389 36.4811 104.309C36.1251 104.228 35.8025 104.213 35.5134 104.262C35.3254 104.294 35.1333 104.345 34.9371 104.416C34.7481 104.486 34.5936 104.583 34.4735 104.707C34.3522 104.825 34.3076 104.977 34.3397 105.165C34.3693 105.339 34.462 105.468 34.6179 105.553C34.7725 105.631 34.9674 105.683 35.2026 105.71C35.445 105.735 35.7085 105.754 35.9931 105.765C36.2777 105.776 36.5569 105.799 36.8307 105.834C37.1105 105.86 37.3663 105.921 37.5981 106.015C37.836 106.101 38.0366 106.23 38.2001 106.403C38.3623 106.569 38.4681 106.797 38.5174 107.086C38.5816 107.462 38.5238 107.799 38.3442 108.097C38.1717 108.395 37.9165 108.643 37.5785 108.842C37.2478 109.04 36.8728 109.174 36.4535 109.246C35.9403 109.333 35.4394 109.341 34.9508 109.268C34.461 109.188 34.025 108.987 33.6428 108.666L34.287 107.864C34.5591 108.063 34.8592 108.209 35.1875 108.301C35.5218 108.386 35.895 108.393 36.307 108.322C36.4877 108.291 36.672 108.238 36.8597 108.161C37.0475 108.084 37.2014 107.984 37.3215 107.859C37.4403 107.727 37.4837 107.567 37.4516 107.379C37.4232 107.213 37.3317 107.091 37.1771 107.013C37.0225 106.935 36.8246 106.887 36.5834 106.869C36.341 106.843 36.0817 106.828 35.8056 106.823C35.4004 106.803 35.0145 106.765 34.6478 106.708C34.2798 106.645 33.9676 106.516 33.7113 106.322C33.4609 106.119 33.3 105.808 33.2284 105.389C33.1716 105.056 33.2271 104.749 33.3947 104.467C33.5696 104.185 33.8267 103.947 34.1659 103.755C34.5039 103.556 34.8898 103.42 35.3235 103.346C35.5982 103.299 35.8929 103.282 36.2076 103.295C36.5211 103.301 36.8269 103.35 37.1251 103.44C37.4292 103.522 37.6974 103.655 37.9296 103.838L37.4355 104.67ZM46.1793 106.704L46.1685 106.706C46.0124 106.881 45.8088 107.061 45.5576 107.245C45.3123 107.421 45.0338 107.576 44.7221 107.711C44.4104 107.846 44.0847 107.943 43.7449 108.001C43.0871 108.113 42.4842 108.09 41.9362 107.93C41.387 107.764 40.9344 107.488 40.5785 107.102C40.2213 106.709 39.9952 106.235 39.9001 105.678C39.7915 105.042 39.8472 104.474 40.067 103.976C40.2857 103.47 40.6204 103.055 41.0712 102.733C41.528 102.402 42.0492 102.186 42.6348 102.086C43.1769 101.994 43.6888 102.029 44.1705 102.193C44.651 102.349 45.0565 102.61 45.387 102.978C45.7248 103.344 45.9406 103.802 46.0344 104.352L46.1124 104.874L41.0704 105.735C41.2423 106.219 41.5662 106.569 42.042 106.785C42.5179 107.002 43.0775 107.055 43.7208 106.945C44.1907 106.865 44.5615 106.727 44.8332 106.532C45.1109 106.328 45.3356 106.141 45.5073 105.97L46.1793 106.704ZM42.8106 103.117C42.2974 103.204 41.8671 103.386 41.5197 103.661C41.1712 103.928 40.9816 104.322 40.9511 104.84L44.833 104.177L44.8126 104.058C44.7417 103.817 44.6035 103.618 44.3979 103.459C44.1924 103.301 43.9472 103.194 43.6625 103.139C43.3837 103.075 43.0998 103.067 42.8106 103.117ZM54.0258 105.364L54.0149 105.366C53.8589 105.542 53.6552 105.721 53.404 105.906C53.1588 106.081 52.8803 106.237 52.5685 106.372C52.2568 106.507 51.9311 106.603 51.5913 106.661C50.9335 106.774 50.3306 106.75 49.7827 106.591C49.2335 106.424 48.7809 106.148 48.4249 105.763C48.0677 105.37 47.8416 104.895 47.7466 104.338C47.638 103.702 47.6936 103.135 47.9135 102.636C48.1321 102.13 48.4668 101.716 48.9177 101.393C49.3745 101.062 49.8957 100.847 50.4812 100.747C51.0234 100.654 51.5353 100.69 52.0169 100.853C52.4974 101.009 52.9029 101.271 53.2335 101.639C53.5713 102.005 53.7871 102.463 53.8809 103.012L53.9589 103.534L48.9168 104.395C49.0887 104.879 49.4126 105.229 49.8885 105.446C50.3643 105.662 50.9239 105.715 51.5673 105.605C52.0372 105.525 52.4079 105.388 52.6796 105.192C52.9573 104.989 53.182 104.802 53.3538 104.631L54.0258 105.364ZM50.6571 101.777C50.1438 101.865 49.7135 102.046 49.3662 102.321C49.0176 102.589 48.8281 102.982 48.7976 103.501L52.6794 102.838L52.659 102.719C52.5882 102.478 52.4499 102.278 52.2444 102.12C52.0388 101.962 51.7936 101.855 51.5089 101.799C51.2302 101.735 50.9462 101.728 50.6571 101.777ZM60.9879 96.688L62.3578 104.712L61.2409 104.903L61.0891 104.013C60.9874 104.202 60.8374 104.391 60.6393 104.581C60.4483 104.77 60.2205 104.939 59.9559 105.088C59.69 105.231 59.3944 105.329 59.0691 105.385C58.4908 105.484 57.9524 105.445 57.4538 105.27C56.9624 105.094 56.5519 104.803 56.2224 104.398C55.8929 103.993 55.6794 103.505 55.5819 102.934C55.4832 102.355 55.5263 101.824 55.7113 101.338C55.895 100.846 56.1893 100.435 56.5943 100.105C57.0065 99.7743 57.4982 99.5602 58.0693 99.4627C58.5464 99.3813 58.9913 99.3946 59.404 99.5027C59.8168 99.6107 60.1483 99.7662 60.3987 99.9689L59.8711 96.8786L60.9879 96.688ZM59.0958 104.365C59.5007 104.296 59.8401 104.149 60.114 103.923C60.3953 103.697 60.5937 103.421 60.7094 103.096C60.8323 102.77 60.8616 102.419 60.7974 102.043C60.7333 101.668 60.5891 101.346 60.3651 101.079C60.1482 100.811 59.8702 100.621 59.5309 100.508C59.1977 100.386 58.8287 100.36 58.4239 100.429C58.0263 100.497 57.6869 100.644 57.4057 100.87C57.1305 101.089 56.9314 101.361 56.8085 101.687C56.6856 102.013 56.6563 102.364 56.7204 102.739C56.7846 103.115 56.9287 103.437 57.1528 103.703C57.3769 103.97 57.6556 104.164 57.9888 104.286C58.3292 104.406 58.6983 104.433 59.0958 104.365ZM68.0059 99.4514C67.7256 99.2909 67.4074 99.1704 67.0515 99.0898C66.6955 99.0093 66.3729 98.9937 66.0838 99.043C65.8959 99.0751 65.7038 99.1265 65.5075 99.1972C65.3185 99.2667 65.164 99.3637 65.0439 99.4884C64.9226 99.6058 64.878 99.7585 64.9101 99.9464C64.9397 100.12 65.0324 100.249 65.1883 100.334C65.3429 100.412 65.5378 100.464 65.773 100.491C66.0155 100.517 66.279 100.535 66.5635 100.546C66.8481 100.557 67.1273 100.58 67.4011 100.615C67.6809 100.641 67.9367 100.702 68.1686 100.796C68.4064 100.882 68.607 101.011 68.7705 101.184C68.9327 101.35 69.0385 101.578 69.0878 101.867C69.152 102.243 69.0943 102.58 68.9146 102.878C68.7422 103.176 68.4869 103.424 68.149 103.623C67.8182 103.821 67.4432 103.955 67.0239 104.027C66.5107 104.115 66.0098 104.122 65.5212 104.049C65.0314 103.969 64.5954 103.768 64.2132 103.447L64.8574 102.645C65.1295 102.844 65.4296 102.99 65.7579 103.082C66.0922 103.167 66.4654 103.174 66.8774 103.103C67.0581 103.073 67.2424 103.019 67.4301 102.942C67.6179 102.865 67.7718 102.765 67.8919 102.64C68.0107 102.508 68.0541 102.348 68.022 102.16C67.9936 101.994 67.9021 101.872 67.7475 101.794C67.5929 101.717 67.395 101.668 67.1538 101.65C66.9114 101.625 66.6521 101.609 66.376 101.604C65.9708 101.584 65.5849 101.546 65.2182 101.49C64.8502 101.426 64.5381 101.297 64.2817 101.103C64.0313 100.9 63.8704 100.589 63.7988 100.17C63.742 99.8371 63.7975 99.53 63.9652 99.2485C64.1401 98.9657 64.3971 98.7284 64.7364 98.5365C65.0743 98.3375 65.4602 98.2009 65.8939 98.1269C66.1686 98.08 66.4633 98.0632 66.778 98.0764C67.0915 98.0824 67.3973 98.1306 67.6955 98.2211C67.9996 98.3031 68.2678 98.4358 68.5 98.6194L68.0059 99.4514Z" fill="black"/>
</g>
<path d="M47.8098 78.0684C48.0774 77.2557 49.7451 72.3505 54.4465 68.734C55.693 67.7762 57.8047 66.4005 58.1405 66.7778C58.5617 67.2538 55.6247 69.9647 52.9837 74.0746C48.379 81.232 48.0034 87.4143 47.235 87.2691C46.5747 87.1472 46.3812 82.4569 47.8098 78.0684Z" fill="#1E6F5D"/>
<path d="M47.7533 78.0508C48.4249 76.1178 49.2389 74.2196 50.3431 72.4549C51.4302 70.6844 52.9215 69.1519 54.6347 67.9967C55.5056 67.4394 56.365 66.9054 57.3839 66.5281C57.5148 66.4874 57.6457 66.4468 57.8164 66.4294C57.8904 66.4178 58.0043 66.4236 58.1124 66.4468C58.2433 66.4816 58.4141 66.6151 58.4368 66.7893C58.471 67.097 58.3629 67.2014 58.3002 67.335C58.2262 67.4627 58.1523 67.5672 58.0726 67.6774C57.7595 68.1012 57.4237 68.4843 57.0993 68.8733C55.7845 70.4232 54.5721 72.0485 53.5362 73.79C52.5117 75.5315 51.618 77.3426 50.8269 79.1886C50.0357 81.0404 49.4267 82.956 48.8461 84.9006L48.3851 86.3751C48.2997 86.6305 48.22 86.8743 48.0891 87.1587C48.0493 87.2342 48.0265 87.298 47.9639 87.3909C47.9183 87.4664 47.8387 87.5767 47.7077 87.687C47.5996 87.7508 47.537 87.8089 47.3662 87.8321C47.2012 87.8553 47.0646 87.8263 46.945 87.7624C46.8198 87.6986 46.78 87.6463 46.706 87.5767C46.6605 87.5244 46.6263 87.4664 46.5922 87.4141C46.3986 87.0368 46.3759 86.764 46.3246 86.4796C46.2905 86.2009 46.2791 85.9281 46.2791 85.6611C46.2677 85.127 46.3133 84.5988 46.3702 84.0821C46.6092 81.9982 47.1329 80.0013 47.7533 78.0508ZM47.8614 78.0857C47.2353 80.0245 47.0418 82.0968 47.1158 84.1053C47.1329 84.6046 47.1784 85.1096 47.2353 85.5914C47.2638 85.8352 47.3036 86.0732 47.3549 86.2996C47.3947 86.5144 47.4744 86.7582 47.5256 86.8278C47.5256 86.822 47.5256 86.822 47.5199 86.8162C47.4972 86.7814 47.4915 86.7872 47.4288 86.7408C47.3719 86.7118 47.2922 86.6885 47.1898 86.7001C47.0873 86.7292 47.0703 86.7292 47.019 86.7698C46.945 86.8337 47.0247 86.7408 47.0475 86.6595C47.1272 86.4796 47.2012 86.2357 47.2695 86.0036L47.6793 84.5407C48.2371 82.5612 48.9656 80.605 49.8479 78.7358C50.713 76.855 51.7888 75.0787 53.0182 73.4359C54.2306 71.7815 55.5625 70.2374 56.809 68.6353C57.1163 68.2347 57.4237 67.8284 57.6798 67.4104C57.7367 67.3059 57.7994 67.2014 57.8449 67.097C57.8904 67.0099 57.9075 66.8706 57.8961 66.917C57.9018 66.9518 57.9473 67.0157 57.9644 67.0099C57.953 67.0215 57.9417 67.0099 57.8904 67.0273C57.8107 67.0447 57.7026 67.0853 57.6001 67.1318C56.7634 67.5439 55.9495 68.1767 55.1754 68.7804C53.6216 69.9994 52.21 71.3694 50.9066 72.8903C49.6316 74.4111 48.4989 76.1468 47.8614 78.0857Z" fill="black"/>
<path d="M50.6793 56.1836C49.4954 59.2892 48.0839 63.997 47.5545 70.1386C47.361 72.3851 47.3155 74.5329 47.361 76.5414C47.4407 79.827 47.7765 82.7469 48.1636 85.1501" stroke="#1E6F5D" stroke-width="3" stroke-miterlimit="10"/>
<path d="M29.2949 59.208C31.6001 62.2324 34.5769 66.8415 36.7057 72.9715C37.4855 75.2121 38.049 77.3716 38.4474 79.3975C39.1076 82.7063 39.3353 85.6784 39.3695 88.1281" stroke="#1E6F5D" stroke-width="3" stroke-miterlimit="10"/>
<path d="M45.7329 66.8124C45.1922 66.7601 43.3765 72.3619 43.7977 78.7647C43.957 81.1563 44.327 82.2012 44.2701 85.1617C44.1847 89.5792 43.274 91.5123 43.7294 91.7038C44.5661 92.0637 49.4212 86.3227 48.6243 80.5004C48.3568 78.5615 47.7193 78.4744 46.8599 75.2237C45.5166 70.1502 46.1427 66.853 45.7329 66.8124Z" fill="#3E9581"/>
<path d="M45.7271 66.8705C45.6645 66.8821 45.5678 67.0156 45.5052 67.1201C45.4369 67.2362 45.3799 67.3581 45.3287 67.48C45.2263 67.7296 45.1295 67.9792 45.0498 68.2405C44.8961 68.7629 44.7652 69.2911 44.6741 69.8252C44.4806 70.8933 44.3839 71.9788 44.3156 73.0585C44.2131 75.2238 44.196 77.3658 44.3269 79.5078C44.3782 80.5759 44.4977 81.673 44.5262 82.7876C44.5489 83.8963 44.4863 84.9992 44.418 86.0964C44.3497 87.1935 44.2416 88.2906 44.0936 89.3761C44.0196 89.9218 43.9342 90.4675 43.8773 90.9957C43.8659 91.1234 43.8545 91.2569 43.8602 91.3672C43.8602 91.4195 43.8716 91.4717 43.8773 91.4775C43.8773 91.4659 43.8773 91.4949 43.8716 91.4601C43.8602 91.4369 43.8261 91.4369 43.8261 91.4253C43.7919 91.4195 43.9114 91.4021 43.9968 91.3324C44.0879 91.2743 44.1846 91.1989 44.2757 91.1176C45.0157 90.4268 45.6019 89.5155 46.1369 88.6157C46.6606 87.6985 47.0989 86.7349 47.4347 85.7423C48.1063 83.7686 48.3283 81.5918 47.8274 79.6761C47.7022 79.2117 47.4802 78.7473 47.2639 78.2249C47.0476 77.7083 46.8484 77.1742 46.7004 76.6286C46.3817 75.5488 46.1825 74.4575 46.0516 73.3546C45.915 72.2516 45.8637 71.1429 45.841 70.0458C45.841 69.4943 45.8239 68.9487 45.8353 68.3972C45.841 68.1244 45.8353 67.8515 45.8296 67.5787C45.8239 67.4452 45.8239 67.3059 45.8125 67.1723C45.8068 67.0621 45.767 66.8821 45.7271 66.8705ZM45.7385 66.7544C45.8637 66.7892 45.8751 66.8937 45.9036 66.9576C45.9207 67.0272 45.932 67.0969 45.9434 67.1665C45.9605 67.3059 45.9662 67.4452 45.9776 67.5787L46.0174 68.3972C46.0573 68.9428 46.0914 69.4885 46.1654 70.0226C46.302 71.1023 46.5297 72.1646 46.7972 73.2095C47.0761 74.2485 47.4005 75.2818 47.7477 76.2803C47.9299 76.7795 48.1234 77.2613 48.3397 77.7431C48.5503 78.2191 48.8178 78.7299 48.9999 79.322C49.6374 81.644 49.2447 84.0182 48.4535 86.1196C48.0608 87.1819 47.5258 88.1745 46.911 89.1091C46.2906 90.0437 45.5848 90.9086 44.6741 91.6226C44.5603 91.7097 44.4351 91.7968 44.2928 91.8664C44.1505 91.9303 44.0025 92.0348 43.7065 91.9825C43.6382 91.9767 43.5529 91.9129 43.4902 91.849C43.4162 91.7852 43.4162 91.7271 43.3878 91.6575C43.3536 91.5356 43.3536 91.4543 43.3536 91.3672C43.3593 91.2047 43.3878 91.0654 43.4106 90.9261C43.5187 90.3746 43.6382 89.8521 43.7293 89.3123C43.9228 88.2442 44.031 87.1587 44.0651 86.0731C44.0936 84.9876 44.048 83.8963 43.9114 82.8282C43.7805 81.7601 43.5472 80.6978 43.3992 79.5949C43.126 77.389 43.2 75.1367 43.6268 72.9598C43.8261 71.8685 44.0993 70.8004 44.4066 69.7439C44.5717 69.2215 44.7197 68.6932 44.9189 68.1766C45.0157 67.9212 45.1067 67.66 45.2263 67.4104C45.2832 67.2826 45.3458 67.1607 45.4198 67.0388C45.4881 66.946 45.5279 66.795 45.7385 66.7544Z" fill="black"/>
<path d="M43.5977 90.8563C41.8902 85.1036 39.4826 82.0038 37.5246 80.2159C36.6537 79.4206 35.4983 78.5441 34.1152 76.7794C31.5254 73.4764 31.0359 70.7771 30.5919 70.8816C29.9715 71.0267 29.6186 76.6285 32.0775 81.5452C35.1625 87.6926 41.2869 90.0842 43.5977 90.8563Z" fill="#3E9581"/>
<path d="M43.5583 90.8158C43.4559 90.5487 43.325 90.3165 43.2282 90.1075L42.9265 89.4168C42.7216 88.9292 42.4883 88.459 42.2777 87.983C41.828 87.0426 41.3499 86.1196 40.8206 85.2256C40.2912 84.3375 39.722 83.4841 39.0903 82.6773C38.4528 81.882 37.7754 81.1215 37.0412 80.4191C36.2956 79.7051 35.5158 78.9505 34.8385 78.1204C34.1611 77.2903 33.5521 76.4196 32.9829 75.5198C32.408 74.6258 31.8958 73.6913 31.4234 72.7451C31.1843 72.2749 30.968 71.7814 30.7119 71.3461C30.655 71.2474 30.5696 71.1255 30.5468 71.1255C30.5241 71.1371 30.6834 71.1603 30.6948 71.1255C30.7005 71.1255 30.6777 71.1545 30.6663 71.1951C30.598 71.3809 30.5582 71.6363 30.5297 71.8859C30.4102 73.9176 30.7688 76.0132 31.3095 77.9811C31.8673 79.9606 32.7666 81.8065 33.9505 83.4493C35.1231 85.0979 36.5915 86.5317 38.2365 87.745C39.0618 88.3429 39.9213 88.9175 40.8206 89.4168C41.2759 89.6606 41.7256 89.9102 42.1923 90.1424C42.6704 90.3862 43.1542 90.5603 43.5583 90.8158ZM43.638 90.897C43.3933 90.8622 43.0404 90.7925 42.8184 90.7171C42.568 90.6474 42.3175 90.5661 42.0671 90.4907C41.5662 90.3281 41.071 90.154 40.5872 89.9508C39.6139 89.5387 38.6634 89.0743 37.7527 88.5112C35.9313 87.3967 34.2977 85.9338 32.9886 84.1865C32.3511 83.3042 31.7876 82.358 31.338 81.3595C30.8997 80.3553 30.5525 79.322 30.2907 78.2655C30.0232 77.2148 29.8638 76.1351 29.7898 75.0554C29.7101 73.9757 29.7386 72.8844 29.9264 71.793C29.9776 71.5202 30.0346 71.2474 30.1769 70.9513C30.2167 70.8759 30.2622 70.7888 30.3647 70.7017C30.433 70.6553 30.507 70.603 30.6265 70.6088C30.7347 70.6088 30.82 70.6611 30.8656 70.7017C31.0477 70.8643 31.0819 70.9862 31.1558 71.1139C31.3835 71.6189 31.5657 72.1007 31.7819 72.5825C32.2031 73.5403 32.7097 74.4575 33.296 75.3224C33.8879 76.1816 34.5709 76.971 35.3052 77.6908C36.0394 78.4223 36.842 79.0376 37.6673 79.7051C39.3236 81.0867 40.6214 82.8862 41.5947 84.7961C42.0842 85.7539 42.4997 86.7465 42.8412 87.7566C43.0119 88.2616 43.1656 88.7724 43.2965 89.2949C43.3648 89.5503 43.4388 89.7999 43.4957 90.1075C43.5583 90.3862 43.5868 90.659 43.638 90.897Z" fill="black"/>
<path d="M41.0196 64.8099C41.6913 64.9376 39.6536 69.953 41.9531 75.5315C42.8866 77.7897 44.1331 79.1828 43.968 81.7312C43.8656 83.3391 43.1825 85.5392 42.2605 85.6089C40.6611 85.7308 38.1054 79.4905 38.3786 73.3431C38.5892 68.6527 40.4163 64.6938 41.0196 64.8099Z" fill="#1E6F5D" stroke="black" stroke-width="2" stroke-miterlimit="10"/>
<path d="M43.422 90.1887C44.7254 83.8266 43.661 79.7631 42.3975 77.1974C41.003 74.3588 38.8287 72.2632 39.1986 68.9892C39.4946 66.377 41.2363 64.4904 41.2648 64.502C41.2989 64.5194 38.4189 67.9327 37.4114 72.0252C35.3794 80.2682 41.7087 88.1744 43.422 90.1887Z" fill="#3E9581"/>
<path d="M43.4046 90.1308C43.4445 89.8231 43.4388 89.5271 43.4558 89.2716L43.5241 88.4415C43.5754 87.8668 43.5867 87.2864 43.6209 86.7117C43.6607 85.5623 43.6323 84.4187 43.5184 83.2868C43.3022 81.0229 42.6988 78.8402 41.6743 76.8433C41.1791 75.8275 40.5815 74.8348 40.0521 73.7783C39.7903 73.2501 39.5512 72.6986 39.3748 72.1297C39.187 71.5667 39.0504 70.9746 39.0105 70.3767C38.8967 69.1808 39.1244 67.9792 39.5512 66.8763C39.7675 66.3248 40.0294 65.7908 40.3367 65.2799C40.4904 65.0245 40.6555 64.7807 40.8376 64.5369C40.8831 64.4789 40.9287 64.4208 40.9856 64.357L41.0311 64.3105C41.0425 64.2989 41.014 64.3221 41.0653 64.2815C41.1051 64.2467 41.1677 64.2176 41.236 64.2118C41.3043 64.206 41.3669 64.2234 41.4068 64.2409C41.4352 64.2583 41.4523 64.2815 41.4808 64.3163C41.5434 64.386 41.5605 64.5601 41.5149 64.6414C41.4637 64.7401 41.4637 64.7227 41.4637 64.7343L41.4295 64.7807L41.1848 65.1406C39.9212 67.0446 38.8625 69.0822 38.2023 71.2242C37.5762 73.372 37.4851 75.6301 37.838 77.836C38.1738 80.0534 38.965 82.1954 39.9269 84.2562C40.4335 85.2779 40.9514 86.2995 41.5605 87.2689C41.8621 87.7566 42.1638 88.25 42.4825 88.726C42.6419 88.9698 42.8013 89.2078 42.9663 89.44C43.1542 89.6954 43.2395 89.8637 43.4046 90.1308ZM43.4331 90.2469C43.2282 90.0727 42.9436 89.8057 42.7728 89.6025C42.5736 89.3877 42.3801 89.173 42.1923 88.9524C41.8052 88.517 41.4352 88.07 41.088 87.5998C40.3766 86.6768 39.7277 85.6958 39.1357 84.68C37.9746 82.6366 37.0582 80.4075 36.637 78.0333C36.4663 76.8433 36.3467 75.6301 36.4663 74.4169L36.546 73.5113L36.7224 72.6173C36.8305 72.0194 36.9842 71.4331 37.1834 70.8701C37.9632 68.5945 39.2211 66.557 40.6896 64.7459L40.9628 64.4092L40.997 64.3686C41.0027 64.3628 41.014 64.3337 40.9742 64.415C40.94 64.4789 40.9685 64.6356 41.0368 64.6936C41.071 64.7227 41.0994 64.7343 41.1222 64.7517C41.1563 64.7749 41.2076 64.7981 41.2702 64.7981C41.3328 64.7981 41.3897 64.7691 41.4182 64.7459C41.458 64.7111 41.4239 64.7401 41.4295 64.7343L41.4011 64.7633C41.3556 64.8039 41.31 64.8562 41.2645 64.9084C41.0823 65.1116 40.9059 65.3322 40.7465 65.5644C40.4164 66.0172 40.1375 66.5164 39.9155 67.033C39.4659 68.0663 39.2439 69.2215 39.3862 70.3418C39.5114 71.468 40.018 72.5012 40.6156 73.4649C41.2133 74.4285 41.9077 75.3573 42.511 76.3789C43.7234 78.4397 44.3153 80.8603 44.4064 83.2287C44.4519 84.4187 44.395 85.6029 44.2299 86.7697C44.1445 87.3502 44.0478 87.9307 43.9112 88.5054C43.8486 88.7898 43.7973 89.0685 43.7006 89.3935C43.6095 89.707 43.5071 89.9856 43.4331 90.2469Z" fill="black"/>
<path d="M29.2271 46.6869C28.9368 46.3038 28.4018 45.4853 28.362 44.365C28.2993 42.6757 29.3922 41.0155 30.0638 41.091C30.4167 41.1316 30.5248 41.6483 30.9517 41.6425C31.3729 41.6425 31.5266 41.1374 31.8397 41.0504C32.2552 40.9401 33.1829 41.5089 34.3156 44.1676C36.1882 48.5735 38.1462 57.606 36.5183 58.1342C35.7727 58.3838 33.9855 56.8687 29.2271 46.6869Z" fill="#1C75BC"/>
<path d="M29.1812 46.7217C28.6633 46.0425 28.2933 45.2066 28.2193 44.3069C28.151 43.4071 28.3274 42.4841 28.7771 41.654C28.8966 41.4509 29.0218 41.2419 29.2097 41.0503C29.3975 40.8704 29.6195 40.6498 30.0635 40.6324C30.2911 40.6266 30.5188 40.7543 30.6326 40.8588C30.7579 40.9632 30.8318 41.0503 30.8888 41.0909C31.0026 41.1838 30.94 41.12 30.9628 41.1316C30.9685 41.1374 31.0595 41.0387 31.2587 40.8297C31.3555 40.7368 31.5319 40.5801 31.7881 40.5395C32.0328 40.4988 32.2263 40.5511 32.3743 40.6149C32.9606 40.882 33.2224 41.2825 33.5013 41.6598C34.4917 43.2272 34.8901 44.928 35.4024 46.5766C35.8919 48.2368 36.4041 49.8854 36.8538 51.563C37.2921 53.2522 37.7076 54.9415 37.6507 56.799C37.6336 57.037 37.6165 57.275 37.5539 57.5305C37.5027 57.7801 37.4116 58.0703 37.1669 58.3664C37.0416 58.5115 36.8367 58.6508 36.6204 58.7031C36.3871 58.7611 36.1935 58.7263 36.0114 58.6856C35.687 58.5753 35.4536 58.4186 35.2601 58.2561C34.856 57.9368 34.5771 57.5827 34.2925 57.2286C34.0193 56.8687 33.7631 56.5088 33.5241 56.1373C32.5849 54.6512 31.7995 53.1071 31.1563 51.4934C30.5017 49.8912 29.9155 48.2658 29.1812 46.7217ZM29.278 46.6579C30.0122 48.2194 30.9001 49.6996 31.8222 51.1451C32.7614 52.5789 33.5981 54.0707 34.5315 55.4581C34.9812 56.1489 35.4878 56.8455 36.0057 57.3273C36.1309 57.4492 36.2619 57.5247 36.3358 57.5595C36.4098 57.5595 36.3017 57.5943 36.3358 57.5827C36.3643 57.5537 36.444 57.4318 36.4781 57.2576C36.5237 57.0951 36.5521 56.9035 36.5692 56.712C36.6375 55.9225 36.5863 55.075 36.518 54.2333C36.444 53.3916 36.3529 52.5382 36.2277 51.6907C35.9773 49.9957 35.6073 48.3065 35.0381 46.6869C34.7592 45.88 34.412 45.0905 34.0307 44.3301C33.6493 43.5755 33.2281 42.8382 32.7272 42.2287C32.4939 41.9327 32.1865 41.6482 31.9873 41.567C31.9418 41.5437 31.919 41.5553 31.9531 41.5495C31.9987 41.5379 31.9987 41.5263 31.9418 41.5786C31.8393 41.6656 31.6742 41.9327 31.2701 42.0894C31.0709 42.1591 30.8603 42.1649 30.6497 42.0952C30.4391 42.0255 30.2911 41.8978 30.1944 41.7991L30.0179 41.5844C29.9781 41.5437 30.0065 41.5553 30.0179 41.5553C30.035 41.5321 29.8813 41.5786 29.7561 41.6772C29.6195 41.7701 29.4943 41.9152 29.369 42.0604C28.9023 42.6757 28.5551 43.471 28.5096 44.3011C28.4584 45.137 28.7657 45.9729 29.278 46.6579Z" fill="black"/>
<path d="M32.7896 46.9946C33.0913 44.9049 33.6263 41.2245 35.1631 40.9401C36.8536 40.6324 39.3865 44.4927 40.0581 48.2021C41.2135 54.5817 37.0585 61.6927 34.8672 61.3618C32.6189 61.0251 31.9472 52.7879 32.7896 46.9946Z" fill="#1C75BC"/>
<path d="M32.7325 46.983C32.8634 46.0252 32.9886 45.0616 33.148 44.098C33.3358 43.1401 33.4724 42.1475 34.0928 41.2303C34.1725 41.1142 34.2806 41.0097 34.3774 40.9053C34.4969 40.8124 34.6164 40.7079 34.7587 40.6382C35.049 40.4931 35.4076 40.4525 35.7093 40.5163C36.324 40.6324 36.7907 40.9575 37.1778 41.3058C37.9632 42.0082 38.504 42.8731 38.965 43.7613C39.8415 45.5608 40.3083 47.5287 40.405 49.4965C40.5018 51.4586 40.2912 53.4265 39.8017 55.3421C39.3008 57.2461 38.5438 59.1269 37.1835 60.6884C36.8306 61.0715 36.4492 61.443 35.9199 61.7217C35.6637 61.861 35.3393 61.9655 34.975 61.9655C34.6051 61.9713 34.2237 61.8088 33.9733 61.6056C33.4439 61.1876 33.1992 60.6768 32.9772 60.195C32.7666 59.7074 32.6129 59.214 32.4934 58.7205C31.5542 54.7616 32.2259 50.8084 32.7325 46.983ZM32.8463 47.0004C32.5731 48.916 32.6357 50.8723 32.8235 52.7821C33.0398 54.6919 33.2163 56.6075 33.6773 58.4013C33.7968 58.8482 33.922 59.2836 34.0985 59.6842C34.2692 60.0731 34.4855 60.4562 34.7075 60.6362C34.8214 60.7406 34.9067 60.7697 35.0149 60.7755C35.123 60.7813 35.2767 60.7581 35.4418 60.671C35.7719 60.5259 36.1134 60.2356 36.4151 59.928C37.0298 59.2894 37.5477 58.5058 38.0145 57.6989C38.4755 56.8862 38.8853 56.0271 39.2154 55.1389C39.5285 54.2449 39.8017 53.322 39.944 52.3758C40.0863 51.4296 40.1261 50.466 40.0408 49.5139C39.9611 48.5619 39.7106 47.6332 39.3748 46.7508C39.0447 45.8627 38.6235 45.0151 38.1397 44.2257C37.6616 43.4304 37.1265 42.6641 36.5118 42.0546C36.2045 41.7528 35.8573 41.509 35.5385 41.4103C35.3792 41.3522 35.2425 41.3696 35.0946 41.3987C35.0206 41.4219 34.9466 41.4683 34.8669 41.5032C34.7986 41.567 34.7189 41.6193 34.6449 41.6889C34.3603 41.985 34.1269 42.3913 33.9334 42.8151C33.7399 43.2446 33.5692 43.6916 33.4382 44.156C33.1536 45.0848 32.9886 46.0426 32.8463 47.0004Z" fill="black"/>
<path d="M20.0283 45.4792C22.5669 55.365 26.4829 62.0813 30.2622 61.971C30.3647 61.9652 32.0608 61.8955 32.6357 60.7578C34.0758 57.925 27.0862 51.2842 20.0283 45.4792Z" fill="#1C75BC"/>
<path d="M20.0626 45.526C20.222 46.0136 20.4269 46.4374 20.5863 46.8089C20.7342 47.163 20.905 47.6041 21.0644 48.0337L22.032 50.5821C22.6979 52.2713 23.4151 53.9257 24.1721 55.5569C24.3542 55.969 24.5421 56.3754 24.747 56.7759C24.9405 57.1823 25.1625 57.5712 25.3845 57.9601C25.5951 58.3606 25.8569 58.7206 26.1016 59.0979C26.3635 59.4636 26.6537 59.8061 26.9497 60.1311C27.5644 60.7697 28.2987 61.3037 29.1183 61.5708C29.3289 61.6114 29.5281 61.7101 29.7387 61.7043C29.9493 61.7043 30.1599 61.7333 30.3591 61.7101C30.7746 61.652 31.1901 61.5301 31.5487 61.3386C31.9016 61.1412 32.1805 60.8684 32.3057 60.5433C32.4253 60.2182 32.4139 59.8467 32.3228 59.4636C32.1293 58.6915 31.6796 57.9253 31.1844 57.2113C30.177 55.7717 28.9305 54.4714 27.6897 53.1769C26.4488 51.8766 25.1625 50.6169 23.8704 49.3456L21.9295 47.4416C21.5994 47.1281 21.2807 46.8031 20.9562 46.4838C20.8025 46.3271 20.6147 46.1471 20.4952 46.0194C20.3757 45.8859 20.2447 45.7001 20.0626 45.526ZM20 45.4331C20.1708 45.5492 20.387 45.6537 20.609 45.7988L21.1896 46.2052C21.5596 46.4664 21.9352 46.7276 22.2938 47.0004C23.0167 47.5461 23.7509 48.0918 24.4567 48.6664C25.8797 49.8042 27.24 51.0232 28.5434 52.3119C29.8355 53.618 31.0478 55.017 32.0667 56.6076C32.5619 57.4086 33.04 58.262 33.2107 59.2952C33.2904 59.8061 33.2677 60.3924 32.9944 60.9032C32.7269 61.414 32.2602 61.7449 31.7992 61.9249C31.3381 62.1106 30.8657 62.1977 30.3876 62.2151C29.8981 62.1919 29.4257 62.128 28.9817 61.9481C28.1052 61.6056 27.3481 61.0425 26.6822 60.404C25.3503 59.1211 24.2461 57.606 23.3183 56.0039C22.4133 54.3843 21.7417 52.6486 21.1896 50.8897C20.9278 50.0016 20.6659 49.1192 20.4724 48.2195C20.37 47.7725 20.2675 47.3371 20.1878 46.8031C20.1138 46.2864 20.0797 45.8278 20 45.4331Z" fill="black"/>
<path d="M50.8493 39.779C50.9631 39.483 51.4925 38.1595 52.221 38.1421C52.6536 38.1304 52.7788 38.5948 53.4448 38.7632C54.2929 38.9838 54.7653 38.4091 55.2036 38.6065C56.0858 39.007 55.5849 41.8804 55.5849 41.8804C55.4426 42.7047 52.5512 59.2255 49.8532 58.7901C47.2236 58.3606 49.728 42.5944 50.8493 39.779Z" fill="#1C75BC"/>
<path d="M50.7926 39.7558C50.9691 39.2972 51.1797 38.8502 51.5041 38.4613C51.6635 38.2697 51.8684 38.084 52.153 38.0433C52.4489 37.9795 52.7165 38.1885 52.8929 38.3162C53.2572 38.589 53.7068 38.6587 54.1053 38.5368C54.3102 38.4787 54.4923 38.3684 54.7826 38.2872C54.9249 38.2465 55.1298 38.2233 55.3233 38.3046C55.4087 38.3452 55.4941 38.3974 55.5738 38.4555C55.6421 38.5193 55.6933 38.5832 55.7559 38.6529C56.1088 39.2217 56.1429 39.7558 56.1714 40.2782C56.1999 40.8007 56.1657 41.3057 56.0974 41.8165C55.9551 42.815 55.7502 43.7554 55.5282 44.719C55.0672 46.623 54.4866 48.5038 53.9687 50.3904C53.445 52.277 52.9954 54.181 52.3636 56.056C52.2042 56.5262 52.0277 56.9906 51.8171 57.455C51.6009 57.9136 51.3675 58.378 50.9634 58.8017C50.7585 59.0049 50.4909 59.2371 50.0811 59.2893C49.9844 59.3067 49.8762 59.2951 49.7738 59.2893C49.677 59.2661 49.5746 59.2313 49.4778 59.1965C49.29 59.121 49.1477 58.9817 49.0168 58.8598C48.5842 58.3199 48.4704 57.7859 48.3508 57.2692C47.9865 55.2201 48.0776 53.2406 48.2313 51.2669C48.55 47.308 49.6372 43.4942 50.7926 39.7558ZM50.9008 39.8022C50.2747 41.6424 50.121 43.6219 49.9388 45.5549C49.7965 47.4995 49.586 49.4326 49.4493 51.3598C49.3697 52.3234 49.3241 53.2871 49.29 54.2449C49.2615 55.1969 49.2729 56.1605 49.4095 57.0602C49.4778 57.4956 49.6144 57.9426 49.7795 58.1748C49.8705 58.2561 49.9047 58.3141 49.9844 58.3025C50.0527 58.3083 50.2007 58.2386 50.343 58.1167C50.6332 57.8613 50.9008 57.4724 51.1398 57.0777C51.3789 56.6771 51.5952 56.2476 51.7944 55.8122C52.5912 54.0591 53.1832 52.1841 53.6215 50.2917C54.054 48.3877 54.3102 46.4489 54.6118 44.5216C54.7655 43.5638 54.9363 42.5886 55.1184 41.6598C55.1924 41.2012 55.2493 40.731 55.2778 40.2724C55.3005 39.8255 55.2948 39.3378 55.1639 39.0476C55.0843 38.9141 55.0843 38.8793 54.9078 38.8851C54.7314 38.9025 54.4695 38.9954 54.202 39.0302C53.6556 39.1056 53.0864 38.9025 52.7165 38.5426C52.5286 38.3684 52.3863 38.2233 52.1814 38.2523C51.9822 38.2639 51.783 38.3974 51.6236 38.56C51.2992 38.9141 51.0829 39.3553 50.9008 39.8022Z" fill="black"/>
<path d="M56.8267 41.5552C57.0088 41.294 57.817 40.1272 58.5285 40.284C58.9554 40.3768 58.9725 40.8528 59.5815 41.1721C60.3556 41.5843 60.9475 41.1373 61.3289 41.4275C62.103 42.0254 60.9703 44.7015 60.9703 44.7015C60.6459 45.4735 54.1401 60.8856 51.6129 59.8349C49.1484 58.8074 55.1134 44.0339 56.8267 41.5552Z" fill="#1C75BC"/>
<path d="M56.7809 41.5204C57.0541 41.114 57.3615 40.7251 57.7599 40.4232C57.9591 40.2723 58.2039 40.1388 58.4885 40.1678C58.7901 40.1736 59.0064 40.4406 59.1487 40.6032C59.4447 40.9573 59.8659 41.1256 60.2757 41.1024C60.492 41.0966 60.6912 41.0327 60.9929 41.0153C61.1408 41.0095 61.3458 41.0386 61.5165 41.1547C61.5905 41.2127 61.6588 41.2882 61.7271 41.3636C61.7783 41.4391 61.8182 41.5204 61.858 41.6016C62.0743 42.2344 61.9889 42.7684 61.9036 43.2792C61.8125 43.7959 61.6645 44.2777 61.488 44.7595C61.1238 45.6999 60.7196 46.5706 60.2871 47.453C59.4105 49.2003 58.4258 50.8953 57.5038 52.6136C56.5703 54.326 55.7108 56.0791 54.6749 57.7567C54.4131 58.1747 54.1399 58.5926 53.8268 58.9932C53.5138 59.3937 53.1837 59.7826 52.6942 60.1077C52.4494 60.2586 52.1364 60.4212 51.7209 60.3805C51.6184 60.3747 51.5217 60.3399 51.4249 60.3109C51.3338 60.2644 51.2428 60.2064 51.1574 60.1483C50.9866 60.0322 50.8842 59.8639 50.7874 59.713C50.4857 59.0918 50.4971 58.5404 50.4971 58.0121C50.5996 55.9282 51.1289 54.0241 51.7266 52.1375C52.9105 48.3527 54.8172 44.893 56.7809 41.5204ZM56.872 41.59C55.8531 43.2328 55.2612 45.1252 54.6522 46.9712C54.0773 48.8346 53.4398 50.6631 52.8763 52.5091C52.586 53.4262 52.3242 54.355 52.0795 55.278C51.8404 56.201 51.6298 57.1414 51.5672 58.0469C51.533 58.4881 51.5672 58.9525 51.681 59.2195C51.7493 59.3182 51.7721 59.3879 51.8461 59.3937C51.9144 59.4169 52.0738 59.3821 52.2388 59.295C52.5803 59.1151 52.9218 58.7958 53.2463 58.4649C53.5707 58.1282 53.8724 57.7625 54.1684 57.3852C55.3352 55.8643 56.3256 54.1751 57.1793 52.4336C58.0274 50.6805 58.7104 48.852 59.4333 47.0466C59.7976 46.1527 60.1846 45.2413 60.566 44.3764C60.7367 43.9468 60.9018 43.5056 61.0327 43.0645C61.1522 42.6349 61.2604 42.1589 61.1978 41.8512C61.1465 41.7061 61.1579 41.6713 60.9815 41.6365C60.805 41.6132 60.5318 41.6423 60.2643 41.6132C59.7065 41.5552 59.1999 41.2243 58.921 40.7889C58.7787 40.58 58.6706 40.4 58.4657 40.3826C58.2665 40.342 58.0445 40.429 57.851 40.5567C57.4582 40.818 57.1509 41.2011 56.872 41.59Z" fill="black"/>
<path d="M24.1832 43.2099C23.4205 46.0311 22.5212 51.1162 24.4792 56.3696C25.1223 58.0937 25.9704 60.2705 28.1902 61.5128C29.6815 62.3487 32.1973 62.9814 33.9731 61.8146C36.8361 59.9338 36.0279 54.5527 35.3107 52.132C34.0073 47.7435 30.1937 43.6569 25.8167 43.2041C25.1565 43.1402 24.5987 43.1692 24.1832 43.2099Z" fill="#1C75BC"/>
<path d="M24.2232 43.2563C23.8988 45.3402 23.6654 47.5229 23.7451 49.6359C23.8191 51.7604 24.1663 53.8502 24.8095 55.8587C25.1168 56.8804 25.447 57.8962 25.9308 58.8192C26.4089 59.7422 27.0805 60.5723 27.9457 61.1528C28.8108 61.7275 29.8297 62.0874 30.8542 62.2035C31.8787 62.3312 32.9431 62.1454 33.7456 61.5882C34.5596 61.0251 35.0035 60.0963 35.254 59.1269C35.4816 58.14 35.4987 57.0952 35.4361 56.0561C35.3678 55.017 35.1857 53.9721 34.9182 52.9621C34.6506 51.9578 34.3034 50.9884 33.8196 50.0712C32.8862 48.2311 31.5657 46.5767 29.9435 45.3112C29.1296 44.6843 28.2359 44.1502 27.2626 43.8019L26.5227 43.5697L25.76 43.3956C25.2591 43.2969 24.6899 43.2795 24.2232 43.2563ZM24.1492 43.1634C26.3406 42.699 28.5831 43.3549 30.4501 44.5566C32.3227 45.7698 33.8253 47.5113 34.8954 49.4965C35.419 50.4892 35.8232 51.5689 36.0679 52.6718C36.3183 53.7689 36.472 54.8777 36.5062 56.0038C36.546 57.1242 36.4606 58.2736 36.1248 59.3823C35.7947 60.4794 35.0946 61.5591 34.0701 62.1338C33.0512 62.7259 31.8673 62.7608 30.7973 62.5982C29.7215 62.4183 28.6799 62.0468 27.7465 61.4721C26.813 60.8974 26.0048 60.0847 25.3843 59.1559C24.7639 58.2213 24.3143 57.2055 23.9102 56.1838C23.506 55.1505 23.2271 54.0592 23.0621 52.9621C22.8913 51.8591 22.823 50.7504 22.8572 49.6417C22.9255 47.4068 23.3524 45.2648 24.1492 43.1634Z" fill="black"/>
<path d="M45.0392 52.2478C44.1512 47.6445 45.0335 45.0149 46.1092 43.4418C47.2305 41.799 49.5926 39.7789 49.0121 38.1419C48.8811 37.7704 48.6079 37.4569 48.6307 37.4395C48.6819 37.4046 50.2244 39.1461 51.3059 41.2591C51.7498 42.124 53.3037 45.1542 52.985 48.8171C52.5922 53.2985 49.456 57.9192 47.4866 57.5419C46.8776 57.4258 45.762 56.7176 45.0392 52.2478Z" fill="#1C75BC"/>
<path d="M44.9875 52.2537C44.6574 50.3729 44.3045 48.4515 44.5264 46.4662C44.6346 45.4794 44.9078 44.4809 45.4257 43.5928C45.9323 42.6872 46.6096 41.9906 47.2187 41.2824C47.8334 40.5858 48.4709 39.8834 48.7384 39.0824C48.8693 38.6818 48.8579 38.2929 48.6473 37.904C48.5961 37.7995 48.5392 37.7182 48.4709 37.6021L48.4538 37.5731L48.4367 37.5383C48.4595 37.5383 48.3684 37.5325 48.4709 37.3061C48.6302 37.1319 48.8579 37.3293 48.8067 37.3003C48.8352 37.3235 48.8636 37.3583 48.8864 37.3757L49.0116 37.515C49.171 37.7008 49.3133 37.8924 49.4613 38.0839C50.6167 39.6164 51.664 41.236 52.4381 43.0297C53.2235 44.8118 53.6618 46.8087 53.5252 48.823C53.3715 50.8257 52.8024 52.7762 51.829 54.5176C51.3282 55.3768 50.7647 56.2127 50.0134 56.9151C49.8255 57.0892 49.6206 57.2517 49.4157 57.4143C49.1824 57.5536 48.9718 57.7045 48.7042 57.8032C48.4595 57.9193 48.1578 57.9832 47.8618 58.0006C47.7082 57.989 47.5488 57.9774 47.4008 57.9483C47.2471 57.9077 47.1048 57.8438 46.9739 57.7626C46.4617 57.4317 46.1998 56.9499 45.9949 56.4971C45.7957 56.0327 45.6534 55.5683 45.5339 55.0923C45.2948 54.1461 45.1355 53.1999 44.9875 52.2537ZM45.0956 52.2363C45.2607 53.1767 45.4713 54.1171 45.8185 54.9936C45.9892 55.4348 46.1941 55.8586 46.4389 56.2359C46.6836 56.6132 46.991 56.9557 47.3097 57.0776C47.6171 57.2111 47.9472 57.095 48.2887 56.9093C48.6246 56.7235 48.9433 56.4216 49.2393 56.114C49.8255 55.4638 50.3378 54.715 50.759 53.9081C51.203 53.1128 51.5502 52.2595 51.8461 51.3946C52.1364 50.5297 52.347 49.6299 52.4495 48.7243C52.6202 46.9132 52.3982 45.044 51.8461 43.2503C51.2883 41.4624 50.3663 39.7615 49.1653 38.3161C49.0173 38.1304 48.8579 37.962 48.6985 37.7937L48.579 37.6776C48.5563 37.6544 48.5449 37.6486 48.5278 37.6311C48.4595 37.5789 48.653 37.7647 48.7953 37.5847C48.8978 37.3641 48.8124 37.3641 48.8352 37.3699C48.8352 37.3641 48.8238 37.3467 48.8295 37.3525L48.8352 37.3583L49.0457 37.6544C49.1994 37.8633 49.2962 38.1304 49.3645 38.4032C49.4043 38.6818 49.4043 38.9663 49.3474 39.2333C49.1141 40.3014 48.4993 41.1141 47.9415 41.8919C47.361 42.664 46.7406 43.3664 46.2795 44.1094C45.8185 44.8641 45.4713 45.7 45.2265 46.5939C44.7427 48.3934 44.7313 50.3613 45.0956 52.2363Z" fill="black"/>
<path d="M48.533 43.0937C50.6674 39.0883 54.3671 36.1394 54.8737 36.5457C55.0729 36.7025 54.7314 37.3236 54.3386 38.4149C53.058 42.0082 53.6955 43.8425 53.1946 46.2051C52.301 50.4079 48.2768 53.9605 47.0076 53.3742C45.6871 52.7705 46.3132 47.2616 48.533 43.0937Z" fill="#1C75BC"/>
<path d="M48.482 43.0646C49.2902 41.5959 50.144 40.1331 51.1913 38.7864C51.7149 38.113 52.2898 37.4744 52.9671 36.9288C53.3029 36.6502 53.6558 36.3947 54.0884 36.18C54.2023 36.1277 54.3161 36.0755 54.4755 36.0348C54.5495 36.0116 54.6519 36 54.7657 36C54.8454 36.0058 54.9023 36.0116 54.9934 36.0464C55.0959 36.0929 55.1812 36.1335 55.2666 36.238C55.426 36.4354 55.426 36.6385 55.4203 36.7314C55.4146 36.8475 55.3975 36.9172 55.3805 36.9868C55.3463 37.1262 55.3008 37.2306 55.2609 37.3409C54.9023 38.142 54.5608 38.8502 54.2933 39.6397C54.0144 40.4117 53.8095 41.2186 53.7184 42.0487C53.5192 43.6915 53.7469 45.4214 53.2802 47.128C52.8647 48.8231 52.0109 50.3904 50.8782 51.7139C50.309 52.3757 49.6773 52.9852 48.9202 53.496C48.5275 53.7398 48.1234 53.9778 47.5371 54.0591C47.3891 54.0765 47.2241 54.0765 47.0476 54.0475C46.8655 54.0126 46.6663 53.9256 46.5126 53.8037C46.2109 53.5541 46.0686 53.2696 45.9776 53.0142C45.8068 52.5034 45.767 52.039 45.7499 51.5804C45.7385 51.1276 45.7613 50.6806 45.8239 50.2453C45.9263 49.3745 46.1483 48.5328 46.4215 47.7201C46.9679 46.0773 47.7022 44.5506 48.482 43.0646ZM48.5844 43.1226C47.7989 44.5971 47.3778 46.2515 47.1444 47.8885C47.0249 48.707 46.9566 49.5254 46.911 50.3323C46.8826 51.116 46.8826 51.9751 47.1045 52.5614C47.1558 52.7007 47.2241 52.7936 47.2468 52.811C47.2468 52.8168 47.2696 52.8284 47.3948 52.8226C47.6339 52.7994 47.9811 52.6369 48.2941 52.4569C48.9316 52.0738 49.5406 51.5456 50.0814 50.9709C51.1571 49.7983 52.0849 48.4457 52.6768 46.9307C52.9557 46.1702 53.1436 45.3691 53.2005 44.539C53.2688 43.7089 53.2688 42.8614 53.3371 42.0139C53.394 41.1664 53.4965 40.3131 53.6672 39.4655C53.838 38.6296 54.1112 37.7763 54.3559 37.0101C54.3844 36.9172 54.4129 36.8243 54.4242 36.7604C54.4299 36.7256 54.4356 36.6966 54.4299 36.7082C54.4299 36.6966 54.4129 36.7837 54.5039 36.9056C54.5608 36.9636 54.595 36.9926 54.6519 37.0101C54.6974 37.0217 54.6974 37.0275 54.7259 37.0275C54.7373 37.0333 54.7373 37.0275 54.7088 37.0391C54.669 37.0507 54.5893 37.0855 54.5153 37.1203C54.225 37.2655 53.9006 37.5035 53.5818 37.7357C52.9557 38.2175 52.324 38.7399 51.7149 39.2856C50.5026 40.3827 49.3585 41.6366 48.5844 43.1226Z" fill="black"/>
<path d="M49.2447 61.4372C46.5639 60.4098 45.6361 57.3041 45.4255 56.6075C43.8432 51.3367 47.651 46.6289 52.3753 40.7892C52.4322 40.7195 53.7925 39.0651 54.5154 39.3844C54.8853 39.5527 54.9138 40.1564 55.3578 40.2435C55.7733 40.3248 55.9782 39.843 56.3481 39.93C56.8433 40.0519 56.8946 41.0155 57.1905 41.0214C57.4694 41.0214 57.5434 40.1796 57.7256 40.1622C58.2037 40.1216 59.9966 45.6479 59.103 52.0042C58.6932 54.9183 58.3289 57.4899 56.2002 59.4868C56.018 59.6609 52.6257 62.7375 49.2447 61.4372Z" fill="#1C75BC"/>
<path d="M49.2217 61.4953C48.0492 61.0483 47.0929 60.1543 46.3644 59.1152C45.6301 58.0704 45.135 56.8803 44.8219 55.6091C44.5259 54.332 44.5544 52.962 44.8845 51.6908C45.1976 50.4137 45.7611 49.2353 46.4156 48.1381C47.7475 45.9555 49.4323 44.1037 51.0089 42.1823L52.1871 40.7369C52.5913 40.2435 53.0238 39.7849 53.5646 39.4076C53.7012 39.3147 53.8548 39.2334 54.0256 39.1812C54.1963 39.1231 54.4183 39.1115 54.6232 39.2102C55.0217 39.4482 55.0957 39.8313 55.2607 39.9358C55.4144 40.0345 55.4998 40.0055 55.7901 39.7907C55.8641 39.7442 55.9551 39.6862 56.0747 39.6514C56.1942 39.6165 56.3422 39.6223 56.4617 39.663C56.7178 39.75 56.8658 39.9416 56.9626 40.0983C57.0593 40.2609 57.1276 40.4176 57.1959 40.5453C57.2301 40.6092 57.2586 40.673 57.2813 40.7021C57.2927 40.7195 57.2984 40.7195 57.287 40.7079C57.2699 40.6904 57.2187 40.6614 57.1561 40.6614C57.0138 40.6846 57.0252 40.7311 57.0423 40.6846C57.0593 40.6556 57.0821 40.586 57.1049 40.5279C57.1561 40.3828 57.1618 40.2609 57.3041 40.0055C57.3325 39.9648 57.435 39.7791 57.7082 39.7617C57.7993 39.7559 57.9586 39.8197 57.9757 39.8371C58.0156 39.8661 58.0611 39.901 58.0953 39.93C58.192 40.0287 58.2489 40.1158 58.3002 40.197C58.3969 40.3596 58.4709 40.5105 58.5392 40.6614C58.6758 40.9691 58.784 41.2767 58.8807 41.5844C59.2735 42.815 59.5296 44.0689 59.689 45.3402C59.8483 46.6115 59.9223 47.8885 59.9053 49.1714C59.8939 50.4485 59.7402 51.7546 59.5467 52.9852C59.3361 54.2275 59.1198 55.5162 58.6189 56.7468C58.1351 57.9833 57.3098 59.092 56.2739 59.8989C55.238 60.6651 54.0996 61.2573 52.8872 61.5881C52.2782 61.7391 51.6521 61.8377 51.0317 61.8319C50.4227 61.8377 49.808 61.7042 49.2217 61.4953ZM49.2615 61.385C49.8421 61.5707 50.4397 61.6984 51.0488 61.6694C51.6521 61.6288 52.2497 61.5185 52.8132 61.2921C53.9345 60.8451 54.9591 60.1485 55.8128 59.3242C56.6381 58.4883 57.2358 57.4608 57.6171 56.3521C57.9985 55.2376 58.2034 54.0359 58.3685 52.8053C58.7555 50.3614 58.8807 47.9234 58.6417 45.4679C58.5164 44.2489 58.3343 43.0298 58.0326 41.8572C57.953 41.567 57.8676 41.2767 57.7651 41.0039C57.7139 40.8704 57.6627 40.7369 57.6058 40.6208L57.5431 40.5047C57.5488 40.5221 57.5659 40.5279 57.5773 40.5337H57.5887C57.6001 40.5395 57.6171 40.5511 57.6342 40.5569C57.6684 40.5685 57.7025 40.5743 57.7367 40.5685C57.9302 40.5569 57.9757 40.4292 57.9643 40.4582C57.9416 40.4699 57.8733 40.6556 57.8107 40.8065C57.7765 40.8878 57.7424 40.9691 57.6741 41.0736C57.6114 41.1548 57.5147 41.3464 57.213 41.3812C57.1447 41.387 57.0764 41.3696 57.0138 41.3464C56.9569 41.3232 56.917 41.2942 56.8715 41.2593C56.8089 41.2013 56.7577 41.1374 56.7349 41.0852C56.6723 40.9807 56.6438 40.8994 56.6097 40.824C56.5528 40.673 56.5015 40.5337 56.4446 40.4234C56.3877 40.3073 56.3308 40.2493 56.2909 40.2319C56.2511 40.2086 56.2226 40.2028 56.0974 40.2725C55.9836 40.3305 55.8299 40.4582 55.5965 40.5047C55.3632 40.5511 55.1127 40.4699 54.9534 40.3131C54.6631 39.9997 54.6062 39.6746 54.4411 39.5991C54.2988 39.5178 54.0142 39.5991 53.7752 39.75C52.7791 40.3828 52.0847 41.4683 51.2992 42.4261C50.5365 43.4071 49.8136 44.423 49.1306 45.4505C48.4362 46.4779 47.8044 47.5402 47.2409 48.62C46.1026 50.762 45.2602 53.0781 45.5277 55.4872C45.6757 56.6714 46.0229 57.8846 46.6148 58.9527C47.2011 60.0266 48.1232 60.938 49.2615 61.385Z" fill="black"/>
<defs>
<filter id="filter0_d" x="0" y="0" width="92.54" height="138.49" filterUnits="userSpaceOnUse" color-interpolation-filters="sRGB">
<feFlood flood-opacity="0" result="BackgroundImageFix"/>
<feColorMatrix in="SourceAlpha" type="matrix" values="0 0 0 0 0 0 0 0 0 0 0 0 0 0 0 0 0 0 127 0"/>
<feOffset dx="4" dy="4"/>
<feGaussianBlur stdDeviation="2"/>
<feColorMatrix type="matrix" values="0 0 0 0 0 0 0 0 0 0 0 0 0 0 0 0 0 0 0.25 0"/>
<feBlend mode="normal" in2="BackgroundImageFix" result="effect1_dropShadow"/>
<feBlend mode="normal" in="SourceGraphic" in2="effect1_dropShadow" result="shape"/>
</filter>
<clipPath id="clip0">
<rect width="84.54" height="130.49" fill="white"/>
</clipPath>
</defs>
</svg>
