<svg width="37" height="31" viewBox="0 0 37 31" fill="none" xmlns="http://www.w3.org/2000/svg">
<path d="M23.0285 13.9215C23.3471 12.9833 25.3497 7.30945 30.9934 3.13223C32.4954 2.03767 35.0214 0.429331 35.431 0.876092C35.9316 1.43454 32.4043 4.56187 29.2411 9.31987C23.7112 17.585 23.2561 24.7331 22.3458 24.5768C21.5266 24.3981 21.299 18.9922 23.0285 13.9215Z" fill="#1E6F5D"/>
<path d="M22.9149 13.8768C23.7341 11.643 24.5761 9.38685 25.8505 7.26473C27.0794 5.12028 28.8999 3.28856 31.0163 1.97061C32.1086 1.34515 33.1554 0.76436 34.4526 0.339937C34.6346 0.295261 34.7939 0.250585 35.0215 0.228247C35.1125 0.205909 35.2946 0.228247 35.4539 0.250585C35.6815 0.317599 35.9318 0.518641 36.0001 0.786698C36.0683 1.2558 35.8863 1.41216 35.818 1.56853C35.727 1.74723 35.6132 1.83659 35.5222 1.99295C35.1353 2.48439 34.7029 2.90881 34.316 3.35557C32.7003 5.12028 31.2894 7.04135 30.1288 9.09645C27.8076 13.1843 26.0781 17.4509 24.7582 21.9408L24.1893 23.6385C24.0755 23.9289 23.9844 24.2193 23.8024 24.5991C23.6431 24.8001 23.6203 25.0011 23.188 25.3809C23.0059 25.4926 22.8694 25.5819 22.5735 25.6266C22.2549 25.6713 22.0274 25.6043 21.8681 25.5373C21.686 25.4479 21.504 25.3362 21.3674 25.2022L21.2081 24.9788C20.8668 24.3757 20.8895 24.0853 20.8212 23.7055C20.7985 23.3705 20.7757 23.0354 20.7985 22.7227C20.7985 22.0749 20.8895 21.4717 20.9805 20.8686C21.3902 18.4114 22.1639 16.1329 22.9149 13.8768ZM23.1197 13.9438C22.3687 16.1776 22.2777 18.6125 22.4825 20.8909C22.528 21.4717 22.619 22.0302 22.7101 22.5663C22.7556 22.8344 22.8238 23.1024 22.8694 23.3481C22.9149 23.5492 23.0514 23.8619 23.0287 23.7502C23.0287 23.7279 23.0059 23.7279 22.9831 23.7055C22.9149 23.6162 22.8011 23.5268 22.6873 23.4822C22.5963 23.4598 22.4142 23.4151 22.1867 23.4375C21.9591 23.4822 21.9136 23.5045 21.777 23.5938C21.5722 23.7725 21.6632 23.6832 21.686 23.6162C21.7543 23.4375 21.8453 23.1694 21.9136 22.9014L22.3915 21.2037C23.7569 16.602 25.9415 12.0897 29.0592 8.3593C30.5839 6.4829 32.2224 4.71819 33.7016 2.86414C34.0885 2.46205 34.4526 1.97061 34.7257 1.50152C34.7712 1.38983 34.8622 1.2558 34.885 1.16644C34.9305 1.07709 34.9077 0.920726 34.9077 1.12177C34.9305 1.2558 35.067 1.36749 35.1581 1.36749C35.1808 1.38983 35.2036 1.38983 35.1581 1.38983C35.0898 1.41216 34.976 1.45684 34.8622 1.52385C33.9292 2.01529 32.9734 2.77478 32.0859 3.4896C30.2881 4.91924 28.6268 6.43822 26.9656 8.09124C25.3726 9.76659 23.8707 11.71 23.1197 13.9438Z" fill="black"/>
<path d="M20.526 0.898424C19.8888 0.853748 17.7042 7.30944 18.2048 14.7257C18.3869 17.4956 18.842 18.6795 18.7737 22.1196C18.6827 27.235 17.5676 29.4464 18.1138 29.6922C19.1151 30.1166 24.9408 23.4599 23.985 16.7361C23.6664 14.5023 22.8927 14.3906 21.8687 10.6378C20.2757 4.76291 21.0267 0.9431 20.526 0.898424Z" fill="#3E9581"/>
<path d="M20.5255 1.01C20.2297 1.27806 19.9566 2.01521 19.7746 2.57366C19.6153 3.19913 19.456 3.80226 19.3877 4.42772C19.2057 5.65632 19.1146 6.90725 19.1146 8.15818C19.1146 10.66 19.1374 13.0949 19.2284 15.5521C19.2512 16.7807 19.365 18.0539 19.3422 19.3495C19.3194 20.6451 19.2057 21.9408 19.0919 23.214C19.0008 24.4873 18.8643 25.7606 18.705 27.0115C18.6367 27.637 18.5229 28.2848 18.4774 28.8879C18.4774 29.0443 18.4547 29.1783 18.4774 29.29C18.4774 29.3346 18.5002 29.3793 18.5002 29.357C18.5229 29.3346 18.3637 29.1783 18.3181 29.1559C18.2954 29.0889 18.1816 29.1336 18.2271 29.1336L18.3409 29.0666C18.4092 29.0219 18.5457 28.9102 18.6367 28.8209C21.7317 25.3361 23.6887 20.1537 22.5964 15.9318C22.3461 14.9936 21.5951 13.698 21.2993 12.4024C20.9124 11.1291 20.7304 9.83353 20.6166 8.53792C20.5255 7.21998 20.48 5.94671 20.5255 4.6511L20.5711 2.75237C20.5938 2.17158 20.6166 1.34507 20.5255 1.01ZM20.5255 0.786621C20.8441 0.965325 20.7531 1.14403 20.8214 1.3004L20.8669 1.79183L20.9352 2.73003C20.9807 3.37783 21.0262 4.0033 21.1627 4.60643C21.3903 5.83502 21.6861 7.06361 22.0958 8.24753C22.4826 9.43145 22.9378 10.593 23.3702 11.7099C23.8025 12.8715 24.3715 13.7427 24.9176 15.217C25.7141 18.0539 25.2135 20.8685 24.1894 23.3481C23.1426 25.8276 21.6634 28.0614 19.4105 29.7591C19.2284 29.8708 19.1374 29.9601 18.9098 30.0495L18.5912 30.1835C18.4774 30.2282 18.2044 30.2282 18.0223 30.1835C17.954 30.1835 17.772 30.0718 17.6809 29.9825C17.5672 29.8708 17.5672 29.7814 17.5216 29.6921C17.4761 29.5134 17.4761 29.4017 17.4761 29.29C17.4989 29.0889 17.5216 28.9102 17.5672 28.7539C17.7265 28.1061 17.863 27.5029 17.9995 26.8998C18.2499 25.6712 18.3864 24.4203 18.4092 23.1693C18.5002 20.6228 17.863 18.2997 17.3851 15.7308C16.9527 13.1396 17.0665 10.5037 17.7037 8.00181C17.9995 6.75088 18.3637 5.49995 18.8188 4.29369C19.0464 3.69057 19.2512 3.08744 19.5015 2.48431C19.638 2.19392 19.7291 1.88119 19.8884 1.59079C20.0249 1.32273 20.0477 0.987664 20.5255 0.786621Z" fill="black"/>
<path d="M17.9763 28.687C15.9282 22.0303 13.0381 18.4562 10.6941 16.3788C9.64733 15.4629 8.25916 14.4577 6.59791 12.4026C3.48023 8.60512 2.88855 5.47779 2.34238 5.61182C1.61417 5.76819 1.18179 12.2462 4.14017 17.9424C7.82678 25.0459 15.1772 27.8158 17.9763 28.687Z" fill="#3E9581"/>
<path d="M17.8853 28.6199C16.7019 26.6318 15.6323 24.3087 14.3352 22.3653C13.0381 20.3548 11.5361 18.5455 9.8521 16.9148C8.98734 16.0659 8.05431 15.1501 7.28058 14.1449C6.48409 13.162 5.77863 12.1121 5.09592 11.0622C4.43598 10.0123 3.79878 8.9401 3.20711 7.84554C2.93403 7.30943 2.63819 6.72864 2.34235 6.25954C2.27408 6.14785 2.13754 5.99148 2.20581 6.08083C2.18305 6.0585 2.27408 6.14785 2.38786 6.12551C2.50165 6.10317 2.5244 6.12551 2.56992 6.10317C2.6837 5.99148 2.63819 6.0585 2.63819 6.10317C2.59267 6.2372 2.54716 6.54993 2.5244 6.81799C2.54716 11.4643 4.02635 16.2 6.77993 19.8634C9.44248 23.6385 13.6525 26.3861 17.8853 28.6199ZM18.0446 28.7763C15.3137 28.4189 13.0608 27.503 10.7396 26.2744C8.50945 25.0012 6.43858 23.3481 4.82284 21.2707C3.22986 19.1933 2.16029 16.7361 1.56862 14.2566C0.976938 11.7547 0.772127 9.20816 1.29553 6.63929C1.38656 6.30421 1.43207 5.99148 1.65964 5.5894C1.63689 5.50005 2.22856 4.80757 2.77473 5.23199C3.09332 5.50005 3.09332 5.63407 3.18435 5.79044L3.91257 7.51047C4.39046 8.62737 5.0049 9.67726 5.71036 10.6601C7.16679 12.6482 9.05561 14.1002 11.081 15.5298C13.1518 17.1158 14.7221 19.2603 15.8599 21.5164C16.9977 23.8172 17.7715 26.0957 18.0446 28.7763Z" fill="black"/>
</svg>
