<svg width="1281" height="564" viewBox="0 0 1281 564" fill="none" xmlns="http://www.w3.org/2000/svg">
<g clip-path="url(#clip0_5541_340)">
<path d="M480.57 562.57C484.216 562.225 487.609 560.558 490.111 557.883C492.612 555.208 494.049 551.711 494.15 548.05C494.21 546.05 494.24 543.97 494.24 541.93C494.255 493.566 478.088 446.586 448.314 408.472C418.54 370.359 376.87 343.302 329.94 331.61C395.265 311.062 462.315 296.466 530.27 288L530.37 289.46C530.57 292.09 530.84 294.75 531.17 297.38C531.968 303.79 533.127 310.151 534.64 316.43C535.29 319.14 535.94 321.61 536.64 323.98C545.19 353.39 561.489 379.961 583.83 400.91C583.89 400.97 583.98 401.05 584.03 401.11C585.196 402.19 586.37 403.257 587.55 404.31L588.19 404.86L588.37 405.01C589.29 405.82 590.22 406.63 591.14 407.4C591.35 407.58 591.57 407.75 591.79 407.93L591.96 408.07C592.91 408.86 593.86 409.64 594.79 410.37L595.6 411C596.6 411.76 597.55 412.52 598.52 413.25L599.1 413.67C600.16 414.46 601.23 415.24 602.36 416.04L602.85 416.38C603.94 417.14 605.04 417.9 606.12 418.62C606.28 418.73 606.43 418.83 606.62 418.94C607.75 419.69 608.89 420.44 609.97 421.11L610.35 421.35C611.54 422.1 612.75 422.83 613.96 423.55L614.23 423.7C645.233 441.988 681.246 449.952 717.07 446.44C720.714 446.095 724.107 444.429 726.608 441.757C729.109 439.084 730.547 435.589 730.65 431.93C730.7 430.33 730.72 428.7 730.72 427.1C730.721 397.229 722.902 367.878 708.041 341.966C693.179 316.054 671.793 294.483 646.01 279.4C699.107 278.135 752.229 280.473 805.01 286.4C804.75 288.09 804.52 289.79 804.32 291.48C804.17 292.74 804.04 294 803.92 295.27C803.69 297.78 803.52 300.34 803.42 302.88C803.34 304.83 803.3 306.82 803.3 308.78L803.3 310.52C803.362 315.634 803.696 320.741 804.3 325.82C804.44 327.1 804.61 328.37 804.79 329.65C806.84 343.899 810.988 357.766 817.1 370.8C818.23 373.22 819.44 375.63 820.7 377.97C821.65 379.75 822.7 381.63 823.96 383.71C825.04 385.53 825.96 387.04 826.9 388.47C827.65 389.62 828.4 390.75 829.18 391.88C829.34 392.12 829.51 392.36 829.69 392.6L829.95 392.98C830.47 393.73 830.95 394.47 831.53 395.21C831.67 395.41 832.05 395.9 832.05 395.9C832.68 396.76 833.31 397.61 833.96 398.45L834.49 399.12C835.14 399.96 835.8 400.79 836.49 401.62L836.92 402.13C837.63 402.99 838.34 403.84 839.08 404.71L839.42 405.09C840.18 405.96 840.94 406.83 841.7 407.66L842 407.98C842.81 408.86 843.62 409.73 844.45 410.6L844.61 410.76C845.47 411.65 846.34 412.54 847.27 413.45L847.36 413.54C848.26 414.41 849.16 415.28 850.07 416.14L850.21 416.26C871.867 436.432 899.135 449.557 928.41 453.9C932.029 454.445 935.723 453.648 938.795 451.658C941.867 449.669 944.106 446.626 945.09 443.1C951.888 418.772 952.3 393.102 946.285 368.568C940.269 344.034 928.031 321.465 910.75 303.04C942.81 309.53 974.57 317.28 1005.75 326.25C1005.42 327.3 1005.11 328.35 1004.81 329.4C1003.55 333.804 1002.52 338.27 1001.72 342.78C1001.32 345.04 1000.98 347.33 1000.72 349.59C1000.15 354.173 999.813 358.783 999.72 363.4C999.72 364.18 999.72 364.96 999.72 365.74C999.72 368.44 999.8 371.16 999.97 373.85C1000.33 379.714 1001.09 385.547 1002.23 391.31C1004.12 400.781 1007.03 410.019 1010.91 418.86L1011.18 419.45C1011.59 420.38 1012.01 421.3 1012.44 422.22L1012.77 422.89C1013.19 423.76 1013.61 424.64 1014.06 425.53L1014.53 426.42L1015.75 428.76L1016.14 429.45C1016.59 430.27 1017.04 431.09 1017.52 431.92L1017.9 432.56L1019.36 435.01L1019.64 435.45C1020.18 436.32 1020.73 437.19 1021.25 437.99L1021.5 438.37C1022.08 439.26 1022.67 440.14 1023.28 441.01L1023.47 441.29C1024.09 442.18 1024.72 443.06 1025.35 443.92L1025.47 444.09C1026.11 444.96 1026.76 445.82 1027.47 446.71L1027.53 446.79C1043.88 467.897 1066.26 483.534 1091.7 491.63C1095.19 492.746 1098.96 492.548 1102.31 491.075C1105.66 489.601 1108.36 486.953 1109.89 483.63C1117.93 466.195 1122.11 447.229 1122.14 428.03C1122.15 409.74 1118.34 391.651 1110.95 374.92C1108.52 369.403 1105.72 364.058 1102.56 358.92C1104.14 359.54 1105.72 360.17 1107.28 360.79C1108.65 363.41 1110.09 365.974 1111.62 368.48C1127.59 394.602 1152.06 414.429 1180.93 424.628C1209.79 434.826 1241.29 434.774 1270.12 424.48C1273.04 423.448 1275.57 421.536 1277.36 419.008C1279.15 416.479 1280.12 413.458 1280.12 410.36C1280.12 409.257 1280 408.158 1279.76 407.08C1273.71 379.669 1259.11 354.889 1238.06 336.32L1237.94 336.22C1237.13 335.5 1236.3 334.79 1235.45 334.08L1235.2 333.86C1234.38 333.18 1233.55 332.51 1232.77 331.86L1232.4 331.56C1231.58 330.91 1230.75 330.28 1229.95 329.68L1229.53 329.36C1228.7 328.74 1227.86 328.13 1226.99 327.51L1226.58 327.22C1225.8 326.67 1225 326.13 1224.21 325.59C1224.21 325.59 1223.75 325.27 1223.54 325.14C1222.79 324.64 1222.02 324.14 1221.24 323.66L1220.47 323.16C1219.61 322.62 1218.74 322.1 1217.82 321.55L1217.31 321.24C1216.24 320.61 1215.17 320 1214.08 319.4C1211.49 317.97 1208.84 316.63 1205.96 315.28C1204.74 314.71 1203.51 314.16 1202.29 313.64C1201.35 313.23 1200.41 312.84 1199.48 312.47C1198.08 311.9 1196.68 311.36 1195.31 310.86C1193.54 310.21 1192.05 309.7 1190.66 309.25C1186.13 307.779 1181.53 306.557 1176.87 305.59C1174.57 305.11 1172.23 304.69 1169.87 304.33C1168.41 304.11 1166.95 303.91 1165.48 303.74C1201.28 283.577 1227.75 250.191 1239.22 210.74C1239.61 209.378 1239.82 207.968 1239.82 206.55C1239.82 203.616 1238.96 200.747 1237.34 198.297C1235.73 195.848 1233.43 193.926 1230.73 192.77C1200.39 179.643 1166.66 176.508 1134.42 183.82L1134.27 183.82C1133.01 184.11 1131.75 184.41 1130.48 184.73L1130.14 184.82C1128.91 185.13 1127.69 185.46 1126.42 185.82L1126.5 185.82L1126.04 185.94C1124.86 186.28 1123.68 186.64 1122.42 187.03L1122.49 187.03L1121.95 187.2C1120.85 187.54 1119.75 187.91 1118.62 188.29L1117.87 188.54C1116.74 188.93 1115.62 189.34 1114.54 189.74C1114.54 189.74 1114.04 189.92 1113.83 189.99C1112.72 190.41 1111.61 190.85 1110.52 191.29C1110.52 191.29 1109.97 191.5 1109.8 191.57C1108.62 192.05 1107.46 192.57 1106.26 193.07C1106.1 193.13 1105.95 193.2 1105.79 193.27C1104.46 193.85 1103.14 194.45 1101.79 195.08C1095.28 198.16 1088.99 201.675 1082.95 205.6C1081.76 206.38 1080.58 207.17 1079.41 207.98C1065.68 217.48 1053.56 229.125 1043.52 242.47C1041.07 245.72 1038.72 249.12 1036.52 252.56C1035.07 254.85 1033.65 257.2 1032.32 259.56C1030.32 263.08 1028.45 266.74 1026.73 270.42C1025.4 273.3 1024.13 276.224 1022.94 279.19C1003.72 273.61 984.346 268.487 964.82 263.82C991.08 251.853 1013.53 232.874 1029.7 208.971C1045.87 185.068 1055.13 157.167 1056.46 128.34L1056.46 127.64C1056.46 124.099 1055.2 120.672 1052.92 117.967C1050.63 115.262 1047.46 113.453 1043.97 112.86C1012.78 107.475 980.699 111.699 951.97 124.97L951.88 124.97C950.7 125.52 949.53 126.08 948.4 126.63C948.31 126.68 948.2 126.73 948.13 126.76C946.95 127.35 945.78 127.95 944.6 128.57L944.36 128.69C943.24 129.29 942.12 129.9 940.97 130.54L940.64 130.73C939.57 131.33 938.51 131.95 937.44 132.59L936.94 132.88C935.94 133.48 934.94 134.1 933.94 134.72L933.26 135.14C932.26 135.78 931.26 136.44 930.26 137.08L929.62 137.51C928.62 138.16 927.7 138.83 926.75 139.51L926.07 139.99C925.12 140.67 924.17 141.37 923.25 142.07L923.14 142.15L922.57 142.57C921.416 143.45 920.27 144.35 919.13 145.27C914.629 148.893 910.33 152.759 906.25 156.85C905.25 157.85 904.25 158.85 903.25 159.91C902.25 160.97 901.31 162 900.37 163.05C894.77 169.325 889.684 176.04 885.16 183.13C884.42 184.3 883.69 185.48 882.98 186.66C872.517 204.154 865.548 223.512 862.46 243.66C845.88 241.1 829.263 238.86 812.61 236.94C788.317 234.167 764.06 232.11 739.84 230.77C768.009 212.449 790.27 186.362 803.935 155.662C817.599 124.962 822.081 90.9625 816.84 57.7703C816.273 54.1524 814.403 50.8669 811.581 48.533C808.759 46.1991 805.18 44.9781 801.52 45.1004C764.842 46.2156 729.469 58.9707 700.52 81.5203L700.41 81.6004C699.29 82.4804 698.177 83.3703 697.07 84.2703L696.74 84.5403C695.66 85.4303 694.6 86.3303 693.53 87.2503L693.13 87.5901C692.13 88.4901 691.08 89.4104 690.03 90.3704L689.6 90.7503C688.6 91.6403 687.66 92.5603 686.7 93.4803L686.14 94.0203C685.22 94.9103 684.31 95.8303 683.4 96.7503L682.76 97.3904C681.99 98.1804 681.23 98.9901 680.47 99.8001L680.09 100.2C679.87 100.42 679.66 100.65 679.46 100.87C678.46 101.87 677.55 102.97 676.61 104.03L676.23 104.46C675.18 105.66 674.12 106.91 673.09 108.16C670.03 111.86 667.09 115.73 664.34 119.66C660.723 124.846 657.385 130.22 654.34 135.76C646.218 150.639 640.325 166.629 636.85 183.22C636.23 186.17 635.69 189.22 635.22 192.16C634.53 196.6 634.01 201.16 633.66 205.65C633.43 208.65 633.28 211.65 633.21 214.65C633.21 216.08 633.15 217.51 633.15 218.93C633.15 222.41 633.256 225.897 633.47 229.39C587.601 230.848 541.855 234.955 496.46 241.69C527.63 212.542 548.67 174.195 556.512 132.246C564.353 90.2973 558.585 46.9404 540.05 8.50028C538.463 5.20307 535.727 2.59947 532.354 1.17948C528.982 -0.240505 525.207 -0.378904 521.74 0.790323C481.701 14.1763 446.955 39.9439 422.52 74.3704L422.38 74.5701C421.42 75.9034 420.476 77.2702 419.55 78.6702L419.3 79.0301C418.4 80.3701 417.52 81.7401 416.65 83.1101L416.34 83.5804C415.52 84.8804 414.72 86.2003 413.94 87.5003L413.5 88.2303C412.733 89.5303 411.977 90.8471 411.23 92.1805L410.77 92.9803C410.05 94.2803 409.34 95.6002 408.64 96.9202L408.16 97.8201C407.52 99.0501 406.9 100.3 406.28 101.54L406.11 101.88L405.67 102.76C405.08 103.96 404.52 105.17 403.96 106.39L403.73 106.88L403.3 107.79C402.53 109.49 401.78 111.22 401.07 112.91C399.5 116.62 397.99 120.56 396.57 124.61C394.88 129.45 393.38 134.29 392.12 139C391.64 140.76 391.19 142.53 390.78 144.27C389.107 151.255 387.815 158.325 386.91 165.45C386.68 167.22 386.48 169.01 386.31 170.75C385.65 177.31 385.31 183.98 385.31 190.58C385.31 194.51 385.43 198.5 385.66 202.44C386.184 211.141 387.269 219.799 388.91 228.36C389.57 231.76 390.32 235.18 391.15 238.54C391.56 240.2 392 241.9 392.46 243.54C394.027 249.28 395.857 254.947 397.95 260.54C358.631 269.864 319.819 281.213 281.67 294.54C302.91 265.181 316.449 230.964 321.05 195.02C322.222 185.823 322.814 176.562 322.82 167.29C322.774 114.793 303.655 64.1011 269.02 24.6502C266.607 21.8953 263.27 20.1183 259.637 19.6541C256.005 19.1899 252.328 20.0706 249.3 22.1302C211.492 47.6864 182.778 84.5906 167.3 127.52L167.2 127.81C166.61 129.44 166.03 131.14 165.44 132.9L165.29 133.34C164.74 135 164.22 136.67 163.71 138.34L163.53 138.91C163.04 140.55 162.53 142.2 162.13 143.82L161.91 144.59C161.48 146.16 161.08 147.76 160.69 149.35L160.44 150.35C160.07 151.88 159.73 153.42 159.39 154.98L159.32 155.29L159.13 156.15C158.81 157.63 158.53 159.15 158.24 160.6L158.16 161L157.96 162C157.69 163.49 157.44 165 157.2 166.48L157.13 166.9L156.96 167.9C156.65 169.9 156.36 171.9 156.11 173.9C154.932 183.097 154.341 192.359 154.34 201.63L154.34 203.63C154.39 209.47 154.69 215.37 155.22 221.17C155.39 223.08 155.59 225.02 155.82 226.96C156.29 230.96 156.91 235.11 157.65 239.29C158.21 242.4 158.84 245.55 159.54 248.67C161.272 256.424 163.431 264.076 166.01 271.59C167.84 276.93 169.91 282.26 172.16 287.43C178.141 301.211 185.533 314.334 194.22 326.59C194.63 327.18 195.06 327.77 195.49 328.36C131.433 356.523 69.8342 389.972 11.3301 428.36C7.85252 430.632 4.9973 433.736 3.02391 437.391C1.05052 441.046 0.0213428 445.137 0.0297655 449.29C0.0330612 453.796 1.25389 458.216 3.56297 462.085C5.87205 465.953 9.18394 469.126 13.1479 471.267C17.1119 473.409 21.5812 474.439 26.0825 474.25C30.5838 474.06 34.9499 472.657 38.7197 470.19C103.45 427.675 172.172 391.574 243.91 362.4L243.91 362.97C244.05 364.81 244.21 366.69 244.4 368.57C244.59 370.45 244.84 372.57 245.14 374.84C245.6 378.41 246.14 381.93 246.75 385.27C249.085 398.253 252.599 410.996 257.25 423.34C259.25 428.65 261.5 433.94 263.91 439.07C264.72 440.79 265.56 442.52 266.41 444.22C277.834 466.889 293.165 487.366 311.7 504.71C311.79 504.81 311.89 504.9 311.94 504.95C313.41 506.32 314.94 507.69 316.42 509.02C316.63 509.21 317.29 509.77 317.29 509.77C318.51 510.837 319.733 511.894 320.96 512.94C321.21 513.15 321.47 513.35 321.72 513.55L322 513.78C323.2 514.78 324.39 515.78 325.6 516.72L326.34 517.29L326.64 517.52C327.86 518.47 329.08 519.42 330.33 520.36L331.18 520.98C332.48 521.98 333.79 522.9 335.08 523.81L335.76 524.28C337.15 525.28 338.55 526.22 340 527.19L340.54 527.54C341.99 528.54 343.44 529.44 344.92 530.37L345.2 530.54C346.83 531.54 348.36 532.54 349.86 533.39L350.11 533.53C351.71 534.47 353.33 535.4 354.89 536.27L355.11 536.39C393.314 557.62 437.064 566.749 480.57 562.57Z" fill="black"/>
<path d="M15.0099 449.44C15.0073 447.778 15.4194 446.141 16.2086 444.677C16.9978 443.214 18.1393 441.971 19.5299 441.06C152.23 354.2 295.1 295.28 444.17 265.92C563.42 242.44 686.86 237.73 811.05 251.92C898.729 261.947 985.106 281.191 1068.75 309.33C1130.25 330.21 1165.15 347.9 1166.6 348.65C1167.77 349.25 1168.81 350.074 1169.66 351.076C1170.51 352.077 1171.15 353.237 1171.55 354.487C1171.95 355.737 1172.1 357.055 1172 358.363C1171.89 359.672 1171.53 360.947 1170.92 362.115C1170.32 363.283 1169.5 364.322 1168.5 365.171C1167.5 366.021 1166.34 366.664 1165.09 367.066C1163.84 367.468 1162.52 367.619 1161.21 367.512C1159.9 367.404 1158.63 367.04 1157.46 366.44C1156.97 366.19 1121.86 348.44 1061.57 328.01C979.236 300.378 894.221 281.497 807.93 271.68C616.21 249.89 325.7 264.49 30.4303 457.76C28.9232 458.745 27.1778 459.305 25.379 459.38C23.5802 459.455 21.7944 459.044 20.2101 458.189C18.6257 457.333 17.3016 456.067 16.3776 454.522C15.4535 452.976 14.9639 451.211 14.9601 449.41L15.0099 449.44Z" fill="#48BD9E"/>
<path d="M1108.29 208.69C1090.1 217.259 1073.94 229.607 1060.9 244.91C1047.86 260.214 1038.23 278.122 1032.65 297.44L1224.88 206.62C1206.41 198.663 1186.47 194.732 1166.36 195.089C1146.26 195.446 1126.46 200.083 1108.29 208.69Z" fill="#019385"/>
<path d="M1224.88 206.62L1032.65 297.44C1051.12 305.377 1071.07 309.297 1091.17 308.94C1111.27 308.584 1131.06 303.958 1149.24 295.37C1167.42 286.782 1183.56 274.428 1196.6 259.127C1209.64 243.827 1219.28 225.929 1224.88 206.62Z" fill="#48BD9E"/>
<path opacity="0.62" d="M1032.65 297.44C1046.99 303.594 1062.25 307.351 1077.81 308.56C1077.01 247.78 1167.49 195.12 1167.56 195.08C1137.06 195.38 1107.47 205.498 1083.17 223.935C1058.87 242.372 1041.15 268.146 1032.65 297.44Z" fill="#01553F"/>
<path d="M1117.46 235.328C1122.28 242.03 1133.82 241.974 1143.23 235.202C1152.63 228.431 1156.35 217.509 1151.53 210.807C1146.71 204.105 1135.17 204.162 1125.76 210.933C1116.35 217.705 1112.63 228.626 1117.46 235.328Z" fill="#F6FAFE"/>
<path d="M1092.73 229.54C1092.73 233.334 1095.81 236.41 1099.6 236.41C1103.39 236.41 1106.47 233.334 1106.47 229.54C1106.47 225.746 1103.39 222.67 1099.6 222.67C1095.81 222.67 1092.73 225.746 1092.73 229.54Z" fill="#F6FAFE"/>
<path d="M170.96 175.88C167.306 204.233 169.736 233.039 178.086 260.38C186.437 287.72 200.518 312.968 219.391 334.44L257.73 34.5605C234.057 50.5989 214.073 71.4985 199.111 95.8667C184.149 120.235 174.552 147.512 170.96 175.88Z" fill="#019385"/>
<path d="M257.73 34.5903L219.391 334.44C243.042 318.383 263.01 297.482 277.971 273.122C292.931 248.762 302.543 221.5 306.168 193.144C309.794 164.788 307.35 135.985 298.999 108.645C290.648 81.3043 276.581 56.0517 257.73 34.5605L257.73 34.5903Z" fill="#48BD9E"/>
<path opacity="0.62" d="M219.39 334.44C237.745 321.96 253.927 306.552 267.29 288.83C193.85 243.26 200.01 94.5302 200.01 94.4102C177.034 131.19 166.513 174.39 170.003 217.615C173.494 260.841 190.811 301.794 219.39 334.41L219.39 334.44Z" fill="#01553F"/>
<path d="M257.334 134.892C258.246 151.352 268.484 164.17 280.202 163.521C291.92 162.872 300.68 149.002 299.769 132.542C298.857 116.081 288.619 103.263 276.901 103.912C265.183 104.561 256.422 118.431 257.334 134.892Z" fill="#F6FAFE"/>
<path d="M265.971 89.2602C265.971 94.6561 270.345 99.0302 275.741 99.0302C281.137 99.0302 285.511 94.6561 285.511 89.2602C285.511 83.8644 281.137 79.4902 275.741 79.4902C270.345 79.4902 265.971 83.8644 265.971 89.2602Z" fill="#F6FAFE"/>
<path d="M322.21 494.12C301.317 474.613 284.82 450.878 273.817 424.497C262.814 398.115 257.559 369.692 258.4 341.12L479.16 547.67C450.696 550.409 421.976 547.049 394.912 537.815C367.849 528.582 343.064 513.686 322.21 494.12Z" fill="#019385"/>
<path d="M479.161 547.63L258.4 341.08C286.858 338.37 315.566 341.74 342.622 350.965C369.679 360.191 394.466 375.062 415.34 394.592C436.214 414.123 452.699 437.867 463.702 464.251C474.704 490.635 479.974 519.055 479.161 547.63Z" fill="#48BD9E"/>
<path opacity="0.62" d="M258.4 341.081C280.503 338.983 302.8 340.534 324.4 345.67C296.88 427.61 396.47 538.251 396.54 538.331C355.382 524.653 319.724 498.083 294.847 462.556C269.97 427.029 257.197 384.434 258.42 341.081L258.4 341.081Z" fill="#01553F"/>
<path d="M594.27 390.15C578.106 375.059 565.343 356.696 556.832 336.286C548.321 315.875 544.257 293.885 544.91 271.78L715.66 431.541C693.647 433.66 671.436 431.064 650.504 423.927C629.573 416.79 610.403 405.276 594.27 390.15Z" fill="#019385"/>
<path d="M715.661 431.54L544.911 271.78C566.922 269.68 589.129 272.284 610.058 279.418C630.987 286.553 650.16 298.055 666.306 313.162C682.452 328.269 695.203 346.635 703.711 367.044C712.22 387.453 716.294 409.438 715.661 431.54Z" fill="#48BD9E"/>
<path opacity="0.62" d="M544.91 271.78C561.99 270.159 579.22 271.358 595.91 275.33C574.62 338.7 651.65 424.28 651.71 424.33C619.874 413.755 592.292 393.206 573.048 365.727C553.805 338.249 543.924 305.303 544.87 271.77L544.91 271.78Z" fill="#01553F"/>
<path d="M839.53 380.37C829.355 364.684 822.638 347.011 819.826 328.527C817.013 310.043 818.17 291.172 823.22 273.17L930.67 439.17C912.172 436.408 894.476 429.735 878.761 419.596C863.045 409.457 849.671 396.085 839.53 380.37Z" fill="#019385"/>
<path d="M930.67 439.12L823.22 273.12C841.713 275.894 859.404 282.568 875.121 292.7C890.838 302.832 904.22 316.19 914.382 331.888C924.543 347.586 931.25 365.265 934.058 383.752C936.866 402.239 935.711 421.113 930.67 439.12Z" fill="#48BD9E"/>
<path opacity="0.62" d="M823.22 273.17C837.574 275.336 851.475 279.842 864.37 286.51C833.96 334.16 879.67 420.1 879.7 420.16C855.742 404.978 837.311 382.482 827.138 356.005C816.965 329.528 815.591 300.479 823.22 273.16L823.22 273.17Z" fill="#01553F"/>
<path d="M1024.7 412.88C1018 397.669 1014.62 381.204 1014.78 364.584C1014.94 347.963 1018.65 331.568 1025.64 316.49L1096.32 477.44C1080.48 472.386 1065.9 464.014 1053.55 452.881C1041.2 441.749 1031.37 428.112 1024.7 412.88Z" fill="#019385"/>
<path d="M1096.32 477.44L1025.64 316.53C1041.47 321.595 1056.04 329.967 1068.39 341.09C1080.73 352.213 1090.58 365.834 1097.26 381.05C1103.94 396.265 1107.32 412.728 1107.15 429.346C1106.99 445.964 1103.3 462.358 1096.32 477.44Z" fill="#48BD9E"/>
<path opacity="0.62" d="M1025.64 316.49C1037.93 320.428 1049.49 326.361 1059.85 334.05C1026.39 371.53 1054.27 453.45 1054.29 453.51C1035.43 436.783 1022.46 414.425 1017.3 389.75C1012.14 365.075 1015.06 339.394 1025.64 316.51L1025.64 316.49Z" fill="#01553F"/>
<path d="M414.88 118.73C404.661 142.939 399.715 169.047 400.374 195.316C401.033 221.586 407.28 247.414 418.701 271.08L526.521 15C501.61 23.3659 478.769 36.9442 459.519 54.8306C440.269 72.717 425.051 94.5007 414.88 118.73Z" fill="#019385"/>
<path d="M526.52 15L418.7 271.08C443.597 262.688 466.426 249.1 485.673 231.216C504.92 213.332 520.145 191.562 530.341 167.347C540.536 143.133 545.468 117.028 544.809 90.7627C544.15 64.4977 537.916 38.6729 526.52 15Z" fill="#48BD9E"/>
<path opacity="0.62" d="M418.7 271.081C438.025 264.552 456.146 254.894 472.34 242.49C418.54 184.05 460.64 53.8803 460.67 53.7803C431.251 80.6806 411.28 116.342 403.715 155.481C396.15 194.62 401.394 235.155 418.67 271.081L418.7 271.081Z" fill="#01553F"/>
<path d="M514.957 130.093C525.492 132.405 536.667 122.28 539.916 107.478C543.165 92.6756 537.258 78.8013 526.723 76.4888C516.188 74.1764 505.014 84.3013 501.764 99.1036C498.515 113.906 504.422 127.78 514.957 130.093Z" fill="#F6FAFE"/>
<path d="M684.81 117.8C670.427 135.162 659.909 155.389 653.955 177.134C648.001 198.879 646.748 221.644 650.28 243.911L802.17 60.1904C779.638 60.9031 757.516 66.4099 737.279 76.3437C717.043 86.2776 699.156 100.41 684.81 117.8Z" fill="#019385"/>
<path d="M802.171 60.1904L650.28 243.911C672.811 243.179 694.929 237.664 715.166 227.732C735.403 217.801 753.297 203.68 767.66 186.307C782.024 168.933 792.529 148.703 798.479 126.96C804.429 105.217 805.687 82.457 802.171 60.1904Z" fill="#48BD9E"/>
<path opacity="0.62" d="M650.28 243.91C667.771 243.326 685.048 239.873 701.42 233.69C671.67 172.37 738.42 75.8398 738.48 75.7598C707.666 90.5943 682.449 114.959 666.563 145.244C650.678 175.53 644.968 210.126 650.28 243.91Z" fill="#01553F"/>
<path d="M766.274 143.973C774.36 148.479 786.045 142.926 792.374 131.569C798.703 120.213 797.278 107.354 789.193 102.848C781.107 98.3421 769.422 103.896 763.094 115.252C756.765 126.608 758.189 139.467 766.274 143.973Z" fill="#F6FAFE"/>
<path d="M763.18 161.25C763.18 165.502 766.628 168.95 770.88 168.95C775.133 168.95 778.58 165.502 778.58 161.25C778.58 156.997 775.133 153.55 770.88 153.55C766.628 153.55 763.18 156.997 763.18 161.25Z" fill="#F6FAFE"/>
<path d="M928.65 156.99C912.976 169.583 900.167 185.373 891.074 203.306C881.982 221.239 876.816 240.903 875.92 260.99L1041.46 127.64C1021.65 124.242 1001.34 125.102 981.894 130.162C962.442 135.223 944.292 144.368 928.65 156.99Z" fill="#019385"/>
<path d="M1041.46 127.641L875.87 261C895.687 264.383 915.996 263.515 935.453 258.454C954.909 253.393 973.067 244.255 988.725 231.645C1004.38 219.035 1017.18 203.242 1026.27 185.312C1035.36 167.381 1040.54 147.723 1041.46 127.641Z" fill="#48BD9E"/>
<path opacity="0.62" d="M875.92 261C891.307 263.619 907.02 263.693 922.431 261.22C907.431 202.32 983.01 129.92 983.07 129.86C953.495 137.313 927.105 154.091 907.807 177.709C888.509 201.328 877.328 230.533 875.92 261Z" fill="#01553F"/>
<path d="M945.298 180.449C951.558 185.834 962.76 183.073 970.32 174.285C977.879 165.496 978.933 154.007 972.673 148.623C966.413 143.239 955.211 145.998 947.651 154.787C940.092 163.576 939.038 175.065 945.298 180.449Z" fill="#F6FAFE"/>
<path d="M977.68 148.17C977.68 151.964 980.756 155.04 984.55 155.04C988.344 155.04 991.42 151.964 991.42 148.17C991.42 144.376 988.344 141.3 984.55 141.3C980.756 141.3 977.68 144.376 977.68 148.17Z" fill="#F6FAFE"/>
<path d="M1206.86 332.611C1192.19 324.501 1175.96 319.609 1159.26 318.26C1142.55 316.912 1125.75 319.138 1109.97 324.791L1265.15 410.441C1261.52 394.071 1254.45 378.663 1244.4 365.242C1234.34 351.822 1221.55 340.697 1206.86 332.611Z" fill="#019385"/>
<path d="M1265.15 410.44L1109.97 324.83C1113.62 341.187 1120.7 356.581 1130.75 369.993C1140.8 383.404 1153.59 394.526 1168.26 402.621C1182.93 410.716 1199.16 415.6 1215.86 416.948C1232.57 418.296 1249.37 416.077 1265.15 410.44Z" fill="#48BD9E"/>
<path opacity="0.62" d="M1109.97 324.79C1112.8 337.486 1117.7 349.63 1124.46 360.74C1165.15 330.55 1244.88 366 1244.94 366.03C1229.86 345.562 1208.58 330.499 1184.26 323.071C1159.95 315.643 1133.89 316.246 1109.94 324.79L1109.97 324.79Z" fill="#01553F"/>
</g>
<defs>
<clipPath id="clip0_5541_340">
<rect width="563.56" height="1280.15" fill="white" transform="translate(1280.15) rotate(90)"/>
</clipPath>
</defs>
</svg>
