<svg width="708" height="637" viewBox="0 0 708 637" fill="none" xmlns="http://www.w3.org/2000/svg">
<g clip-path="url(#clip0_2387_329)">
<path d="M293.08 452.44C293.08 457.83 289.59 462.19 285.25 462.19H212.08C207.74 462.19 204.24 457.83 204.24 452.44V89.97C204.24 84.59 207.74 80.22 212.08 80.22H285.25C289.59 80.22 293.08 84.59 293.08 89.97V452.44Z" fill="#A073B2"/>
<path d="M283.96 79.97C288.96 79.97 293.08 84.34 293.08 89.73V452.73C293.08 458.13 289 462.5 283.96 462.5H265.29V79.97H283.96Z" fill="#3F2C7B"/>
<path d="M293.08 165.7H204.23V246.64H293.08V165.7Z" fill="#F8A33E"/>
<path d="M293.08 165.7H265.24V246.64H293.08V165.7Z" fill="#F68620"/>
<path d="M293.08 334.38H204.23V345.73H293.08V334.38Z" fill="#F8A33E"/>
<path d="M293.08 334.38H265.29V345.73H293.08V334.38Z" fill="#F68620"/>
<path d="M204.24 452.44C204.31 454.276 204.817 456.069 205.72 457.67C206.58 459.235 207.939 460.467 209.58 461.17C210.37 461.491 211.218 461.644 212.07 461.62L214.84 461.51L220.39 461.32C227.77 461.06 235.157 460.827 242.55 460.62C249.94 460.42 257.33 460.18 264.72 460.04L275.8 459.96H281.34H284.06C284.701 459.929 285.332 459.794 285.93 459.56V459.56L286.14 459.5C287.354 459.082 288.372 458.231 289 457.11C289.189 456.79 289.353 456.456 289.49 456.11C289.56 455.95 289.63 455.75 289.7 455.58L289.88 455.04C290.082 454.358 290.186 453.651 290.19 452.94L290.01 441.3L289.65 417.87L289.25 370.97L289.09 324.09L289.23 277.21C289.23 269.4 289.31 261.58 289.39 253.77L289.62 230.33C289.76 214.71 290.09 199.08 290.32 183.45C290.97 152.2 291.72 120.95 293.08 89.7C294.45 120.95 295.19 152.2 295.85 183.45C296.07 199.08 296.41 214.71 296.55 230.33L296.78 253.77C296.86 261.58 296.94 269.4 296.94 277.21L297.07 324.09L296.92 370.97L296.49 417.85L296.13 441.28L295.94 453.08C295.886 454.326 295.657 455.558 295.26 456.74C295.17 457 295.07 457.3 294.95 457.59C294.83 457.88 294.73 458.12 294.6 458.4C294.334 458.963 294.03 459.508 293.69 460.03C292.264 462.283 290.032 463.906 287.45 464.57L287.68 464.49C286.533 464.875 285.33 465.071 284.12 465.07L281.3 464.97L275.76 464.76L264.69 464.34C257.3 464.2 249.92 463.96 242.54 463.76C235.16 463.56 227.77 463.32 220.38 463.06L214.86 462.87L212.09 462.76C211.091 462.714 210.113 462.459 209.22 462.01C207.5 461.104 206.131 459.651 205.33 457.88C204.535 456.181 204.161 454.315 204.24 452.44Z" fill="#231F20"/>
<path d="M293.08 89.6999C292.978 87.7117 292.335 85.7891 291.22 84.1399C290.183 82.5194 288.56 81.3622 286.69 80.9099H286.64C285.834 80.6595 284.993 80.5413 284.15 80.5599L281.47 80.6499L276.08 80.8399L265.29 81.2099L266.55 79.9499V80.2399V81.4799H265.24L238.39 82.2399L211.75 82.8599C211.041 82.976 210.366 83.2479 209.775 83.656C209.184 84.0641 208.69 84.5982 208.33 85.2199C207.444 86.6564 207.002 88.323 207.06 90.0099L207.27 103.43C207.41 112.38 207.58 121.33 207.65 130.28C207.8 148.18 208.06 166.07 208.06 183.97C208.06 201.87 208.24 219.76 208.13 237.66C208.02 255.56 208.08 273.45 207.85 291.35L207.59 318.2L207.17 345.04C206.56 380.83 205.74 416.63 204.17 452.42C202.61 416.63 201.79 380.83 201.17 345.04L200.86 318.22L200.6 291.37C200.37 273.47 200.39 255.58 200.32 237.68C200.25 219.78 200.32 201.89 200.39 183.99C200.46 166.09 200.66 148.2 200.8 130.3C200.87 121.35 201.04 112.4 201.18 103.45L201.39 90.0299C201.406 87.2121 202.259 84.4626 203.84 82.1299C204.687 80.9064 205.772 79.8657 207.03 79.0699C208.355 78.2357 209.868 77.7474 211.43 77.6499H212.02H212.47H213.31H214.99L218.34 77.7199L225.05 77.8699L238.47 78.1699L265.32 78.9199L264.05 80.1899V79.9699V78.6599H265.27L276.06 79.0299L281.45 79.2099L284.16 79.3099C285.117 79.372 286.059 79.5846 286.95 79.9399C288.972 80.5865 290.662 81.9965 291.66 83.8699C292.66 85.6458 293.151 87.663 293.08 89.6999Z" fill="#231F20"/>
<path d="M207.09 450.97C207.107 452.34 206.854 453.699 206.346 454.971C205.838 456.244 205.084 457.403 204.127 458.384C203.171 459.364 202.031 460.147 200.772 460.687C199.513 461.227 198.16 461.513 196.79 461.53H100.66C99.2902 461.513 97.9373 461.227 96.6783 460.687C95.4194 460.147 94.2791 459.364 93.3227 458.384C92.3662 457.403 91.6123 456.244 91.1039 454.971C90.5956 453.699 90.3428 452.34 90.36 450.97V58.4201C90.3428 57.0504 90.5956 55.6907 91.1039 54.4187C91.6123 53.1467 92.3662 51.9873 93.3227 51.0067C94.2791 50.026 95.4194 49.2434 96.6783 48.7036C97.9373 48.1637 99.2902 47.8771 100.66 47.8601H196.79C198.16 47.8771 199.513 48.1637 200.772 48.7036C202.031 49.2434 203.171 50.026 204.127 51.0067C205.084 51.9873 205.838 53.1467 206.346 54.4187C206.854 55.6907 207.107 57.0504 207.09 58.4201V450.97Z" fill="#62323F"/>
<path d="M207.09 450.97C207.107 452.34 206.854 453.699 206.346 454.971C205.838 456.244 205.084 457.403 204.127 458.384C203.171 459.364 202.031 460.147 200.772 460.687C199.513 461.227 198.16 461.513 196.79 461.53H100.66C99.2902 461.513 97.9373 461.227 96.6783 460.687C95.4194 460.147 94.2791 459.364 93.3227 458.384C92.3662 457.403 91.6123 456.244 91.1039 454.971C90.5956 453.699 90.3428 452.34 90.36 450.97V58.4201C90.3428 57.0504 90.5956 55.6907 91.1039 54.4187C91.6123 53.1467 92.3662 51.9873 93.3227 51.0067C94.2791 50.026 95.4194 49.2434 96.6783 48.7036C97.9373 48.1637 99.2902 47.8771 100.66 47.8601H196.79C198.16 47.8771 199.513 48.1637 200.772 48.7036C202.031 49.2434 203.171 50.026 204.127 51.0067C205.084 51.9873 205.838 53.1467 206.346 54.4187C206.854 55.6907 207.107 57.0504 207.09 58.4201V450.97Z" fill="#48BEA2"/>
<path d="M196.79 48.55C198.16 48.567 199.513 48.8536 200.772 49.3935C202.031 49.9334 203.171 50.716 204.127 51.6966C205.084 52.6772 205.838 53.8366 206.346 55.1086C206.854 56.3806 207.107 57.7404 207.09 59.1101V451.64C207.122 454.405 206.055 457.069 204.124 459.047C202.192 461.025 199.554 462.156 196.79 462.19H175.7V48.55H196.79Z" fill="#3D9581"/>
<path d="M207.09 377.32H90.3501V392.74H207.09V377.32Z" fill="#F26B6C"/>
<path d="M207.09 401.52H90.3501V416.94H207.09V401.52Z" fill="#F26B6C"/>
<path d="M207.09 377.32H175.7V392.27H207.09V377.32Z" fill="#D84C53"/>
<path d="M207.09 401.52H175.7V416.94H207.09V401.52Z" fill="#D84C53"/>
<path d="M207.09 84.55H90.3501V206.42H207.09V84.55Z" fill="#F26B6C"/>
<path d="M207.09 84.55H175.7V206.42H207.09V84.55Z" fill="#D84C53"/>
<path d="M90.36 450.97C90.4493 453.681 91.5812 456.253 93.52 458.15C94.4492 459.064 95.5535 459.782 96.7666 460.26C97.9797 460.737 99.2767 460.965 100.58 460.93L116.87 460.54L149.46 459.93L182.05 459.51L190.2 459.41H194.27H196.86H197.22C197.462 459.408 197.703 459.381 197.94 459.33C198.897 459.159 199.81 458.798 200.626 458.269C201.441 457.74 202.143 457.054 202.69 456.25C203.246 455.45 203.644 454.55 203.86 453.6C203.92 453.367 203.96 453.13 203.98 452.89C204.02 452.649 204.04 452.405 204.04 452.16V451.3V450.3C203.68 428.57 203.59 406.84 203.38 385.12L203.16 319.94L203.37 254.76L203.65 222.18L203.8 205.88L204.03 189.59C204.62 146.14 205.49 102.69 207.15 59.23C208.82 102.69 209.69 146.14 210.28 189.59L210.51 205.88L210.66 222.18L210.94 254.76L211.15 319.94L210.86 384.97C210.64 406.69 210.56 428.42 210.19 450.15V451.69V452.34C210.179 452.776 210.132 453.211 210.05 453.64C209.99 454.072 209.9 454.5 209.78 454.92C209.345 456.615 208.588 458.211 207.55 459.62C206.514 461.031 205.208 462.222 203.708 463.124C202.207 464.025 200.542 464.619 198.81 464.87C198.381 464.945 197.946 464.985 197.51 464.99H196.85H196.34H194.34L190.27 464.9L182.12 464.69L149.54 463.8L116.86 462.72L100.56 462.1C99.1373 462.038 97.7418 461.69 96.4566 461.076C95.1715 460.463 94.0231 459.597 93.08 458.53C91.2393 456.451 90.2659 453.745 90.36 450.97V450.97Z" fill="#231F20"/>
<path d="M207.09 59.11C207.142 56.3989 206.171 53.7676 204.37 51.74C203.499 50.7691 202.442 49.9823 201.263 49.4258C200.083 48.8694 198.803 48.5546 197.5 48.5C192.16 48.6 186.65 48.82 181.23 48.97L148.6 49.82L115.97 50.47L107.81 50.62L103.73 50.68H101.73H100.73L100 50.73C99.0344 50.8467 98.102 51.1564 97.2584 51.6409C96.4149 52.1253 95.6775 52.7746 95.0901 53.55C94.4929 54.3246 94.0514 55.2075 93.7901 56.15L93.6301 56.86L93.5401 57.58V58.32V59.32C93.9001 81.08 93.9901 102.83 94.2001 124.58L94.4201 189.85L94.2101 255.11L93.8601 287.78L93.7101 304.1L93.4801 320.41C92.8901 363.92 92.0201 407.41 90.3601 450.94C88.6901 407.43 87.8201 363.94 87.2301 320.41L87.0001 304.1L86.8601 287.78L86.5801 255.15L86.3701 189.89L86.5901 124.62C86.8101 102.87 86.8901 81.12 87.2601 59.36V58.36L87.3401 57.05L87.5401 55.76L87.8701 54.49C88.3944 52.817 89.2327 51.2592 90.3401 49.9C91.4448 48.5399 92.8099 47.4139 94.3553 46.5879C95.9007 45.762 97.5954 45.2527 99.3401 45.09L100.64 45.04H101.64H103.64L107.72 45.09L115.88 45.24L148.51 45.9L181.14 46.75L189.3 47L193.38 47.12L195.38 47.19C196.06 47.19 196.73 47.19 197.46 47.29C198.876 47.4475 200.246 47.887 201.49 48.5826C202.733 49.2782 203.825 50.2158 204.7 51.34C206.45 53.5351 207.304 56.3111 207.09 59.11V59.11Z" fill="#231F20"/>
<path d="M382.15 453.85C382.15 458.57 378.65 462.4 374.33 462.4H301.15C296.82 462.4 293.3 458.57 293.3 453.85V135.67C293.3 130.94 296.82 127.11 301.15 127.11H374.33C378.65 127.11 382.15 130.94 382.15 135.67V453.85Z" fill="#48BEA2"/>
<path d="M377.62 461.6C379.013 460.848 380.173 459.727 380.972 458.36C381.771 456.994 382.178 455.433 382.15 453.85V135.67C382.15 130.94 378.65 127.11 374.33 127.11H365.72V461.6H377.62Z" fill="#3D9581"/>
<path d="M382.14 153.06H293.29V316.44H382.14V153.06Z" fill="#3D9581"/>
<path d="M382.15 153.06H365.72V315.88H382.15V153.06Z" fill="#1D6F5E"/>
<path d="M382.14 410.13H293.6V425.55H382.14V410.13Z" fill="#3D9581"/>
<path d="M382.14 385.46H293.6V400.88H382.14V385.46Z" fill="#3D9581"/>
<path d="M382.15 410.13H365.72V425.55H382.15V410.13Z" fill="#1D6F5E"/>
<path d="M382.15 385.46H365.72V400.88H382.15V385.46Z" fill="#1D6F5E"/>
<path d="M293.3 453.85C293.39 455.696 294.047 457.47 295.18 458.93C296.261 460.356 297.826 461.338 299.58 461.69C300.461 461.82 301.354 461.843 302.24 461.76L305.04 461.66L310.63 461.44C318.09 461.14 325.55 460.92 333 460.68C340.45 460.44 347.92 460.25 355.37 460.07L366.56 459.79L372.15 459.66H373.55H374.25H374.7C375.272 459.594 375.826 459.417 376.33 459.14L376.9 458.83H377.62L376.32 459.14C376.066 459.271 375.833 459.44 375.63 459.64L376.33 459.13C376.806 458.87 377.236 458.532 377.6 458.13C377.795 457.921 377.969 457.693 378.12 457.45L378.34 457.11C378.411 456.984 378.475 456.854 378.53 456.72C378.66 456.468 378.764 456.203 378.84 455.93C378.937 455.662 379.004 455.383 379.04 455.1C379.097 454.814 379.124 454.522 379.12 454.23C379.12 454 379.12 453.53 379.12 453.11L378.94 442.87C378.8 436.04 378.72 429.22 378.65 422.39L378.43 401.92L378.32 391.68V381.44L378.19 340.49L378.34 299.49L378.76 258.54L379.47 217.54C380.12 190.24 380.85 162.94 382.18 135.64C383.51 162.94 384.24 190.24 384.9 217.54L385.6 258.54L386.02 299.49L386.17 340.49L386.05 381.44V391.68L385.86 401.86L385.64 422.33C385.57 429.16 385.49 435.98 385.35 442.81L385.17 453.05C385.17 453.47 385.17 453.86 385.11 454.48C385.087 455.042 385.013 455.601 384.89 456.15C384.787 456.71 384.633 457.259 384.43 457.79C384.252 458.332 384.021 458.854 383.74 459.35C383.617 459.604 383.481 459.851 383.33 460.09L382.83 460.81C382.502 461.275 382.134 461.71 381.73 462.11C380.9 462.924 379.944 463.6 378.9 464.11L379.6 463.6C379.395 463.806 379.159 463.978 378.9 464.11L378.29 464.42H377.61L378.9 464.11C377.735 464.678 376.472 465.017 375.18 465.11C374.87 465.11 374.5 465.11 374.24 465.11H373.54H372.14L366.56 464.97L355.37 464.7C347.92 464.52 340.46 464.34 333 464.08C325.54 463.82 318.09 463.63 310.63 463.32L305.04 463.11L302.24 463C301.263 463.012 300.288 462.897 299.34 462.66C297.44 462.104 295.806 460.878 294.74 459.21C293.707 457.62 293.203 455.744 293.3 453.85Z" fill="#231F20"/>
<path d="M382.15 135.67C382.092 133.5 381.242 131.426 379.76 129.84C379.049 129.076 378.179 128.476 377.212 128.082C376.245 127.688 375.203 127.51 374.16 127.56L361.16 127.94L335.09 128.58L309.02 129.07L302.5 129.18H301.69C301.447 129.168 301.203 129.168 300.96 129.18C300.576 129.196 300.196 129.263 299.83 129.38C299.091 129.606 298.409 129.988 297.83 130.5C296.605 131.592 295.837 133.106 295.68 134.74C295.66 134.943 295.66 135.147 295.68 135.35V136.08V137.71V140.97C295.96 158.35 296.02 175.73 296.18 193.11L296.35 245.25L296.19 297.39C296.02 314.77 295.97 332.15 295.69 349.53C295.25 384.29 294.6 419.05 293.35 453.81C292.1 419.05 291.45 384.29 291.01 349.53C290.73 332.15 290.67 314.77 290.51 297.39L290.35 245.25L290.51 193.11C290.68 175.73 290.74 158.35 291.01 140.97V137.71V136.08V135.67V135.18C291.021 134.845 291.051 134.511 291.1 134.18C291.449 131.443 292.826 128.941 294.95 127.18C296.023 126.287 297.279 125.642 298.63 125.29C299.308 125.101 300.007 125 300.71 124.99C301.09 124.99 301.34 124.99 301.61 124.99H302.42L308.94 125.1L335.01 125.6L361.08 126.23L374.08 126.61C375.22 126.632 376.341 126.901 377.366 127.398C378.392 127.895 379.297 128.609 380.02 129.49C381.468 131.217 382.226 133.418 382.15 135.67V135.67Z" fill="#231F20"/>
<path d="M660.26 400.18C661.61 402.592 661.947 405.442 661.197 408.103C660.447 410.764 658.671 413.018 656.26 414.37L571.8 460.29C569.357 461.586 566.5 461.859 563.856 461.049C561.212 460.239 558.997 458.412 557.7 455.97L370.23 111.08C368.88 108.666 368.542 105.815 369.292 103.153C370.042 100.49 371.818 98.2342 374.23 96.88L458.7 50.97C461.147 49.6827 464.005 49.4187 466.647 50.2361C469.288 51.0535 471.498 52.8855 472.79 55.33L660.26 400.18Z" fill="#62323F"/>
<path d="M660.26 400.18C661.61 402.592 661.947 405.442 661.197 408.103C660.447 410.764 658.671 413.018 656.26 414.37L571.8 460.29C569.357 461.586 566.5 461.859 563.856 461.049C561.212 460.239 558.997 458.412 557.7 455.97L370.23 111.08C368.88 108.666 368.542 105.815 369.292 103.153C370.042 100.49 371.818 98.2342 374.23 96.88L458.7 50.97C461.147 49.6827 464.005 49.4187 466.647 50.2361C469.288 51.0535 471.498 52.8855 472.79 55.33L660.26 400.18Z" fill="#F8A33E"/>
<path d="M459.03 51.5699C460.244 50.9313 461.571 50.5385 462.937 50.4141C464.303 50.2896 465.679 50.436 466.988 50.8448C468.297 51.2535 469.513 51.9167 470.565 52.7962C471.617 53.6756 472.485 54.7542 473.12 55.9699L660.59 400.79C661.94 403.202 662.277 406.052 661.527 408.713C660.777 411.374 659.001 413.628 656.59 414.98L638.06 425.05L440.5 61.6399L459.03 51.5699Z" fill="#F68620"/>
<path d="M625.107 335.466L522.543 391.223L529.908 404.771L632.472 349.014L625.107 335.466Z" fill="#F26B6C"/>
<path d="M636.657 356.733L534.093 412.49L541.458 426.038L644.022 370.281L636.657 356.733Z" fill="#F26B6C"/>
<path d="M625.096 335.47L597.518 350.462L604.658 363.597L632.236 348.605L625.096 335.47Z" fill="#D84C53"/>
<path d="M636.653 356.737L609.075 371.729L616.44 385.277L644.018 370.285L636.653 356.737Z" fill="#D84C53"/>
<path d="M487.956 83.192L385.392 138.949L392.757 152.497L495.321 96.7395L487.956 83.192Z" fill="#F26B6C"/>
<path d="M499.517 104.459L396.953 160.216L404.318 173.764L506.881 118.007L499.517 104.459Z" fill="#F26B6C"/>
<path d="M487.95 83.2046L460.372 98.197L467.512 111.332L495.091 96.3391L487.95 83.2046Z" fill="#D84C53"/>
<path d="M499.513 104.463L471.935 119.455L479.3 133.003L506.878 118.01L499.513 104.463Z" fill="#D84C53"/>
<path d="M570.417 234.865L467.853 290.622L493.645 338.065L596.209 282.308L570.417 234.865Z" fill="#FEC23C"/>
<path d="M487.36 250.51C512.859 250.51 533.53 229.839 533.53 204.34C533.53 178.841 512.859 158.17 487.36 158.17C461.861 158.17 441.19 178.841 441.19 204.34C441.19 229.839 461.861 250.51 487.36 250.51Z" fill="#F26B6C"/>
<path d="M370.23 111.08C390.86 145.75 410.86 180.78 430.67 215.97C450.48 251.16 469.95 286.43 489.28 321.82C494.14 330.65 498.92 339.53 503.71 348.41L518.07 374.97C527.64 392.72 537.07 410.56 546.53 428.35L560.53 454.97C561.491 456.566 562.986 457.771 564.75 458.37C566.516 458.955 568.436 458.865 570.14 458.12C570.5 457.98 571.14 457.61 571.7 457.34L573.38 456.48L576.74 454.74L583.46 451.26C592.407 446.593 601.373 441.983 610.36 437.43L623.86 430.55L637.37 423.75L638.11 423.38L638.45 424.07L638.76 424.68L637.76 424.37C644.04 421.2 650.36 418.12 656.66 414.98C650.61 418.56 644.58 422.2 638.5 425.74L637.85 426.11L637.45 425.43L637.1 424.83L638.18 425.15L625.12 432.79L612.03 440.36C603.25 445.433 594.473 450.453 585.7 455.42L579.13 459.16L575.86 461.04L574.22 461.98C573.64 462.3 573.22 462.58 572.43 462.98C569.527 464.411 566.19 464.689 563.09 463.76C559.998 462.822 557.34 460.816 555.59 458.1C555.12 457.37 554.86 456.86 554.54 456.31L553.62 454.66L551.76 451.37L548.05 444.78L540.63 431.6C530.86 413.97 521 396.33 511.3 378.65L496.78 352.12C491.93 343.28 487.08 334.44 482.31 325.56C463.117 290.087 444.117 254.507 425.31 218.82C406.62 183.1 388.1 147.27 370.23 111.08Z" fill="#231F20"/>
<path d="M656.58 414.97C657.485 414.423 658.306 413.75 659.02 412.97C660.042 411.79 660.779 410.391 661.174 408.881C661.569 407.37 661.613 405.79 661.3 404.26C661.104 403.26 660.749 402.298 660.25 401.41C659.77 400.52 659.19 399.58 658.67 398.67L655.45 393.14C651.15 385.807 646.877 378.433 642.63 371.02C634.1 356.27 625.7 341.44 617.28 326.63L592.22 282.07L567.43 237.36C551.05 207.49 534.65 177.62 518.52 147.6L506.38 125.11L494.38 102.56L482.38 80.0001L470.47 57.3901L473.15 58.9801L470.47 57.3801C470.225 56.8878 469.951 56.4103 469.65 55.9501C469.371 55.5524 469.06 55.1779 468.72 54.8301C468.025 54.1461 467.208 53.5998 466.31 53.2201C465.414 52.8439 464.452 52.6501 463.48 52.6501C462.508 52.6501 461.546 52.8439 460.65 53.2201L446.48 60.5601L417.71 75.4701C408.09 80.3801 398.5 85.3401 388.85 90.2101L374.4 97.5201C373.249 98.1185 372.23 98.942 371.404 99.9418C370.578 100.942 369.961 102.097 369.59 103.34C368.813 105.924 369.053 108.707 370.26 111.12C368.855 108.73 368.415 105.894 369.03 103.19C369.34 101.812 369.923 100.511 370.746 99.3634C371.569 98.2158 372.614 97.2455 373.82 96.5101L387.82 88.3301C397.15 82.8801 406.53 77.5301 415.88 72.1201L444.04 56.1201L451.04 52.1201L454.57 50.1201L456.33 49.1201L457.21 48.6201C457.52 48.4501 457.96 48.2401 458.34 48.0601C459.924 47.3535 461.632 46.9685 463.366 46.9273C465.1 46.8861 466.824 47.1896 468.44 47.8201C470.056 48.4455 471.536 49.3757 472.8 50.5601C473.433 51.1514 474.009 51.8009 474.52 52.5001C474.982 53.1392 475.403 53.8072 475.78 54.5001L473.1 52.9101L475.78 54.5001L488.29 76.7901L500.69 99.1401L513.08 121.49L525.35 143.91C541.77 173.77 557.92 203.77 574.08 233.77L598.08 278.88L621.86 324.11C629.71 339.23 637.59 354.34 645.33 369.52C649.23 377.1 653.093 384.697 656.92 392.31L659.86 397.97C660.34 398.97 660.86 399.85 661.29 400.86C661.986 402.371 662.331 404.019 662.298 405.682C662.265 407.345 661.855 408.978 661.1 410.46C660.603 411.425 659.962 412.308 659.2 413.08C658.424 413.835 657.541 414.471 656.58 414.97V414.97Z" fill="#231F20"/>
<path d="M587.51 485.9C587.51 485.9 545.88 533.9 590.05 571.28H78.86L76.29 479.97L587.51 485.9Z" fill="#E8E5E5"/>
<path d="M83.11 516.97V505.04C83.11 483.93 101.89 485.64 101.89 485.64H597.76V461.39H96.7599C86.2499 461.39 78.94 464.16 73.86 468.19C73.41 468.56 72.99 468.91 72.59 469.27L72.46 469.39C72.23 469.6 71.9899 469.8 71.7899 470.02C62.2999 478.73 25.61 518.31 67.84 574.25C72.48 581.54 81.06 587.73 96.78 587.73H597.78V563.48H101.86C101.86 563.48 83.08 565.19 83.08 544.09V516.97H83.11Z" fill="#F26B6C"/>
<path d="M101.86 563.48C101.86 563.48 83.08 565.19 83.08 544.09V505.09C83.08 483.98 101.86 485.69 101.86 485.69H188.27V461.39H96.77C86.26 461.39 78.95 464.16 73.87 468.19C73.42 468.56 73 468.91 72.6 469.27L72.47 469.39C72.24 469.6 72 469.8 71.8 470.02C62.31 478.73 25.62 518.31 67.85 574.25C72.49 581.54 81.07 587.73 96.79 587.73H188.32V563.48H101.86Z" fill="#D84C53"/>
<path d="M96.49 526.62C115.09 523.39 138.41 524.92 138.41 524.92C130.316 530.216 123.741 537.528 119.332 546.138C114.924 554.748 112.835 564.357 113.27 574.02L93.09 550.97L65.28 567.54C65.28 567.54 74.03 533.88 96.49 526.62Z" fill="#221E57"/>
<path d="M597.76 461.39C563.64 463.05 529.51 463.91 495.39 464.5C478.33 464.87 461.27 464.95 444.21 465.17L393.03 465.39L341.86 465.18L316.27 464.89L303.48 464.75L290.68 464.51C256.56 463.93 222.44 463.05 188.32 461.39C222.44 459.72 256.56 458.85 290.68 458.27L303.48 458.03L316.27 457.89L341.86 457.6L393.05 457.39L444.23 457.61C461.29 457.83 478.35 457.91 495.41 458.28C529.51 458.87 563.64 459.73 597.76 461.39Z" fill="#231F20"/>
<path d="M597.76 587.73C597.22 583.73 596.83 579.64 596.45 575.6L595.95 569.54C595.76 567.54 595.64 565.54 595.51 563.48L597.76 565.72L589.96 566.23L582.16 566.62C581.74 566.639 581.321 566.565 580.934 566.402C580.547 566.24 580.2 565.993 579.92 565.68L579.78 565.52C577.222 562.754 574.947 559.739 572.99 556.52C571.989 554.908 571.084 553.238 570.28 551.52C569.88 550.66 569.55 549.76 569.18 548.88L568.65 547.55L568.2 546.19C567.008 542.553 566.255 538.786 565.96 534.97C565.643 531.173 565.746 527.353 566.27 523.58C567.305 516.161 569.565 508.967 572.96 502.29C574.595 498.988 576.446 495.798 578.5 492.74C579.5 491.23 580.6 489.74 581.73 488.29C582.86 486.84 583.99 485.45 585.33 484L585.48 483.84C585.734 483.565 586.044 483.347 586.389 483.202C586.734 483.057 587.106 482.988 587.48 483C590.9 483.07 594.32 483.25 597.74 483.37L595.54 485.63C595.68 483.63 595.79 481.63 595.98 479.56L596.48 473.5C596.87 469.5 597.26 465.42 597.8 461.38C598.33 465.38 598.73 469.46 599.11 473.5L599.62 479.56C599.8 481.56 599.92 483.56 600.05 485.63C600.086 486.177 599.906 486.717 599.55 487.134C599.193 487.551 598.687 487.811 598.14 487.86H597.85C594.45 488.16 591.04 488.51 587.63 488.75L589.73 487.75C588.8 489 587.82 490.48 586.9 491.89C585.98 493.3 585.1 494.79 584.26 496.27C582.581 499.224 581.059 502.265 579.7 505.38C579.02 506.93 578.41 508.5 577.83 510.08L576.99 512.45L576.25 514.85C575.345 518.04 574.676 521.292 574.25 524.58C574.17 525.39 574.04 526.21 573.99 527.03L573.83 529.48C573.83 531.11 573.83 532.74 573.93 534.36C574.109 537.605 574.66 540.82 575.57 543.94L575.89 545.12L576.29 546.27C576.58 547.03 576.82 547.81 577.13 548.57C577.81 550.05 578.4 551.57 579.22 553.02C580.779 555.959 582.582 558.763 584.61 561.4L582.23 560.3L590.03 560.69L597.83 561.19H598.12C598.395 561.208 598.663 561.28 598.91 561.401C599.157 561.523 599.377 561.693 599.558 561.9C599.739 562.107 599.878 562.348 599.966 562.609C600.054 562.87 600.089 563.145 600.07 563.42V563.42C599.94 565.42 599.82 567.42 599.64 569.48L599.14 575.54C598.68 579.64 598.29 583.68 597.76 587.73Z" fill="#231F20"/>
<path d="M188.3 461.39L159.3 462.1L130.3 462.69L101.3 463.19C98.8899 463.19 96.4399 463.19 94.1499 463.37C91.8414 463.53 89.5482 463.865 87.2899 464.37C82.8967 465.269 78.776 467.187 75.2599 469.97C74.9383 470.237 74.5478 470.406 74.1336 470.46C73.7193 470.514 73.2984 470.449 72.9195 470.273C72.5406 470.097 72.2193 469.818 71.9929 469.467C71.7664 469.116 71.644 468.708 71.6399 468.29V468.22L74.8499 470.22L75.28 469.95L74.5999 470.54L74.2599 470.84L74.0699 471.01L73.9499 471.13L73.4799 471.57L73.3299 471.72C69.9548 474.952 66.8913 478.494 64.1799 482.3C61.45 486.084 59.086 490.119 57.1199 494.35C53.1619 502.732 51.0606 511.871 50.9599 521.14C50.9363 525.749 51.3955 530.347 52.3299 534.86C53.333 539.378 54.7042 543.806 56.4299 548.1C60.1372 556.688 64.9006 564.78 70.6099 572.19L70.7299 572.35V572.42C72.055 574.453 73.6762 576.276 75.5399 577.83C77.4325 579.368 79.5419 580.618 81.7999 581.54C84.1254 582.481 86.5513 583.153 89.0299 583.54C91.5857 583.919 94.1663 584.106 96.75 584.1L130.15 583.92L196.94 583.79C219.21 583.7 241.48 583.79 263.74 583.85L297.14 583.92L330.54 584.09C375.067 584.31 419.6 584.707 464.14 585.28L497.54 585.73L530.94 586.3C553.2 586.68 575.467 587.167 597.74 587.76C575.473 588.34 553.207 588.823 530.94 589.21L497.54 589.78L464.14 590.23C419.613 590.81 375.08 591.207 330.54 591.42L297.14 591.59L263.74 591.66C241.48 591.66 219.21 591.81 196.94 591.72L130.15 591.59L96.75 591.41C93.7614 591.39 90.7789 591.135 87.8299 590.65C84.8104 590.146 81.8602 589.291 79.0399 588.1C76.1461 586.879 73.4499 585.234 71.0399 583.22C68.642 581.183 66.5682 578.792 64.8899 576.13L65.0499 576.36C59.0453 568.422 54.1128 559.727 50.3799 550.5C48.5931 545.81 47.1983 540.98 46.2099 536.06C45.2922 531.115 44.89 526.088 45.0099 521.06C45.2864 510.976 47.7751 501.076 52.2999 492.06C54.5133 487.596 57.1522 483.357 60.1799 479.4C63.1638 475.43 66.5117 471.748 70.1799 468.4L70.03 468.55L70.9199 467.73L70.7999 467.85C71.0899 467.57 71.1699 467.52 71.2899 467.41L71.6599 467.11L72.3799 466.51C72.5115 466.41 72.6522 466.323 72.7999 466.25V466.25H72.8599C73.3904 466.001 73.9981 465.972 74.5495 466.171C75.1008 466.37 75.5506 466.78 75.7999 467.31C75.946 467.623 76.0179 467.965 76.0099 468.31L72.3999 466.56C76.5459 463.45 81.366 461.36 86.4699 460.46C88.9434 459.986 91.452 459.718 93.9699 459.66C96.4999 459.59 98.8799 459.66 101.3 459.66L130.3 460.16L159.3 460.75L188.3 461.39Z" fill="#231F20"/>
</g>
<defs>
<clipPath id="clip0_2387_329">
<rect width="617.29" height="546.72" fill="white" transform="translate(45 45)"/>
</clipPath>
</defs>
</svg>
