<svg width="223" height="296" viewBox="0 0 223 296" fill="none" xmlns="http://www.w3.org/2000/svg">
<g clip-path="url(#clip0_2244_362)">
<path d="M197.97 111.55V113.55H199.97H212.97C214.972 113.55 216.893 114.346 218.309 115.761C219.725 117.177 220.52 119.098 220.52 121.1V269.1C220.52 275.606 217.936 281.845 213.335 286.445C208.735 291.046 202.496 293.63 195.99 293.63H26.56C23.3392 293.63 20.15 292.996 17.1745 291.763C14.199 290.53 11.4955 288.723 9.2185 286.445C6.94149 284.167 5.13556 281.463 3.90386 278.487C2.67216 275.511 2.03883 272.322 2.04004 269.101V269.1L2.04005 121.1L2.04004 121.098C2.039 120.107 2.23325 119.126 2.6117 118.21C2.99015 117.294 3.54538 116.462 4.24565 115.761C4.94592 115.06 5.77748 114.504 6.69277 114.125C7.60804 113.745 8.58915 113.55 9.58002 113.55H22.58H24.58V111.55V88.7008C24.8252 65.8711 34.0656 44.0593 50.2952 28.0011C66.5274 11.9404 88.4402 2.93188 111.275 2.93188C134.11 2.93188 156.023 11.9404 172.255 28.0011C188.485 44.0595 197.725 65.8714 197.97 88.7013V111.55ZM128.984 236.876L126.725 207.647C130.989 204.573 134.241 200.285 136.047 195.331C137.983 190.019 138.153 184.224 136.534 178.808C134.914 173.392 131.59 168.642 127.055 165.266C122.521 161.889 117.018 160.065 111.365 160.065C105.712 160.065 100.209 161.889 95.6747 165.266C91.1404 168.642 87.8164 173.392 86.1965 178.808C84.5766 184.224 84.7473 190.019 86.6831 195.331C88.4823 200.267 91.7168 204.542 95.9577 207.613L93.7062 236.873C93.7062 236.874 93.7062 236.874 93.7061 236.874C93.6185 237.992 93.7628 239.115 94.1301 240.174C94.4975 241.234 95.08 242.205 95.8411 243.029C96.6021 243.852 97.5252 244.509 98.5524 244.958C99.5795 245.408 100.688 245.64 101.81 245.64H101.81H120.87H120.871C121.992 245.64 123.101 245.408 124.128 244.959C125.156 244.51 126.079 243.853 126.841 243.03C127.603 242.208 128.186 241.236 128.555 240.177C128.924 239.119 129.07 237.995 128.984 236.877L128.984 236.876ZM165.95 113.55H167.95V111.55V88.6901V88.6766L167.95 88.6631C167.748 73.7594 161.686 59.5345 151.076 49.0666C140.466 38.5987 126.16 32.7297 111.255 32.7297C96.3501 32.7297 82.0445 38.5987 71.434 49.0666C60.8236 59.5345 54.7617 73.7594 54.5602 88.6631L54.56 88.6766V88.6901V111.55V113.55H56.56H165.95Z" fill="#A5A4A4" stroke="black" stroke-width="4"/>
</g>
<defs>
<clipPath id="clip0_2244_362">
<rect width="222.52" height="295.63" fill="white"/>
</clipPath>
</defs>
</svg>
