<svg width="384" height="581" viewBox="0 0 384 581" fill="none" xmlns="http://www.w3.org/2000/svg">
<g clip-path="url(#clip0_3768_640)">
<path d="M54.5195 269.85C66.1495 235.72 129.63 182.25 204.43 182.58C264.66 182.84 320.18 217.9 348.67 273.14L54.5195 269.85Z" fill="#603914"/>
<path d="M3.73963 248.35C36.5996 176.86 158.88 177.58 195.1 177.78C242.64 178.04 340.03 178.57 373.57 241.57C388.19 269 380.17 313.4 364.12 402.12C351.6 471.31 344.86 506.43 323.36 529.85C286.01 570.43 232.07 572.27 195.85 573.52C158.69 574.83 96.1496 576.94 56.6396 533.52C46.6396 522.67 38.6396 509.31 17.7996 392.7C-4.23038 269.33 -0.050374 256.63 3.73963 248.35Z" fill="#EE7C7B"/>
<path d="M3.18016 248.02C9.00826 235.613 17.5525 224.677 28.1802 216.02C38.4502 207.21 50.3901 200.83 62.5301 195.3C87.0401 184.65 113.25 179.06 139.44 175.7C165.63 172.34 192.22 171.89 218.54 172.35C231.812 172.501 245.065 173.379 258.24 174.98C271.562 176.435 284.739 179.008 297.63 182.67C310.761 186.214 323.374 191.455 335.15 198.26C346.98 205.17 358.24 213.78 366.71 225.16C368.984 227.879 370.993 230.809 372.71 233.91C374.51 237 376.51 239.83 377.81 243.31C380.568 249.986 382.311 257.038 382.98 264.23C384.41 278.44 383.22 292.44 381.73 306.23C378.43 333.85 373.52 361.08 368.92 388.37C363.92 415.6 360.2 443.03 354.17 470.19C351.12 483.81 347.5 497.42 341.54 510.44C338.523 516.945 334.836 523.118 330.54 528.86C328.344 531.673 325.972 534.345 323.44 536.86C321.048 539.432 318.493 541.847 315.79 544.09C294.57 562.57 267.79 572.31 241.3 576.25C228.125 578.204 214.851 579.412 201.54 579.87C188.4 580.46 175.21 581.05 161.84 580.73C135.2 580.07 107.64 575.66 82.8401 562.31C70.322 555.44 59.1436 546.372 49.8401 535.54C44.8401 529.54 41.6202 522.32 39.1302 515.61C36.7169 508.912 34.6804 502.085 33.0301 495.16C26.1901 467.93 21.7701 440.57 17.4801 413.21C13.1901 385.85 9.25013 358.42 5.90013 330.87C4.28013 317.12 2.47015 303.37 1.36015 289.49C0.61015 282.59 0.0501451 275.68 -0.0198549 268.71C-0.0898549 261.74 0.0701573 254.46 3.18016 248.02ZM4.30015 248.61C1.43015 254.73 1.43016 261.83 1.50016 268.61C1.57016 275.39 2.19015 282.35 2.99015 289.26C4.68015 302.94 6.60013 316.68 9.09013 330.26C13.9501 357.43 19.4901 384.52 25.3401 411.55C31.1901 438.58 37.1501 465.49 44.3401 491.73C46.2001 498.24 48.2002 504.73 50.5602 510.73C52.9202 516.73 55.5601 522.37 59.2701 526.73C67.6138 536.104 77.5588 543.919 88.6402 549.81C110.8 561.81 136.44 565.93 161.95 566.98C174.77 567.57 187.78 567.18 200.84 566.78C213.747 566.57 226.631 565.625 239.43 563.95C264.69 560.47 289.52 552.25 309.43 535.87C311.97 533.896 314.363 531.74 316.59 529.42C318.951 527.243 321.156 524.904 323.19 522.42C327.303 517.436 330.848 512.009 333.76 506.24C339.76 494.54 343.85 481.52 347.33 468.3C354.05 441.79 359.33 414.56 364.39 387.4C369.45 360.24 374.71 333.07 377.52 305.64C378.76 291.96 379.52 278.15 377.71 264.8C376.838 258.26 374.966 251.892 372.16 245.92C370.91 242.92 368.87 240.33 367.16 237.57C365.489 234.766 363.528 232.145 361.31 229.75C353.1 219.62 342.31 212.12 331.01 206.2C325.41 203.04 319.37 200.87 313.46 198.44C307.29 196.53 301.26 194.44 294.98 193.05C269.98 186.73 244.14 184.69 218.19 183.71C192.11 183.05 166.03 182.06 140.08 183.71C114.13 185.36 88.1801 189.3 63.6001 198.31C51.1948 202.792 39.565 209.182 29.1302 217.25C18.6718 225.774 10.1982 236.476 4.30015 248.61Z" fill="black"/>
<path d="M5.02923 242.56C5.77923 203.89 116.369 168.7 208.399 171.4C281.459 173.5 378.399 200.53 380.159 236.77C381.919 273.01 288.489 315.3 205.659 319.58C110.629 324.38 4.28923 280.7 5.02923 242.56Z" fill="#EE7C7B"/>
<path d="M3.12098 242.5C3.29818 237.729 4.80477 233.101 7.47095 229.14C9.96646 225.27 12.9964 221.772 16.471 218.75C23.131 212.5 30.841 207.75 38.561 203.16C54.181 194.22 70.861 187.64 87.781 181.99C121.709 170.881 157.222 165.378 192.921 165.7C228.641 166.3 263.611 173.07 297.781 182.34C314.831 187.08 331.781 192.67 347.871 200.56C355.871 204.56 363.741 209.24 370.771 215.62C374.436 218.926 377.436 222.9 379.611 227.33C381.94 232.2 382.662 237.684 381.671 242.99C379.481 253.64 372.881 261.4 366.291 267.99C359.562 274.391 352.155 280.037 344.201 284.83C328.732 294.203 312.305 301.897 295.201 307.78C261.351 319.62 225.821 326.86 189.851 326.78C154.001 326.45 118.351 320.26 84.851 307.5C68.101 301.19 51.741 293.69 36.561 283.83C29.091 278.83 21.6209 273.57 15.3309 266.93C12.0864 263.655 9.26449 259.986 6.93097 256.01C4.3859 251.968 3.06285 247.277 3.12098 242.5ZM4.37098 242.56C4.43098 251.7 10.281 259.56 16.561 265.65C23.0561 271.652 30.3399 276.739 38.2109 280.77C53.7809 288.99 70.3309 294.85 87.2109 299.32C120.941 307.94 155.421 313.07 189.831 312.8C224.399 312.433 258.709 306.802 291.581 296.1C308.001 290.64 324.241 284.26 339.431 275.84C346.962 271.663 354.103 266.82 360.771 261.37C367.181 255.85 373.091 249.2 375.091 241.57C377.091 233.94 373.161 225.99 367.181 219.87C361.201 213.75 353.811 208.75 346.081 204.68C330.591 196.46 313.791 190.86 296.861 186.59C279.872 182.418 262.583 179.583 245.151 178.11C227.839 176.469 210.436 176.004 193.061 176.72C158.336 178.099 123.802 182.546 89.861 190.01C72.861 193.89 56.0009 198.89 40.0809 206.26C31.9995 209.849 24.4409 214.514 17.611 220.13C10.961 225.79 4.74098 233.35 4.37098 242.56Z" fill="black"/>
<path d="M44.6904 240.98C45.2504 213.49 129.63 188.43 199.83 190.34C255.58 191.85 329.45 211.06 330.83 236.84C332.21 262.62 260.94 292.68 197.72 295.77C125.27 299.25 44.1304 268.14 44.6904 240.98Z" fill="black" stroke="black" stroke-width="2.85" stroke-miterlimit="10"/>
<path d="M345.501 20.78C349.051 104.9 325.851 144.78 307.111 164.95C302.201 170.28 297.841 173.95 253.841 209.67L188.631 262.67C188.791 242.677 190.874 222.745 194.851 203.15C201.191 172.15 206.921 143.15 227.031 118.57C244.031 97.7201 255.521 99.43 288.571 75.03C309.69 59.3377 328.809 41.1189 345.501 20.78Z" fill="#EE7C7B"/>
<path d="M345.5 20.7C347.25 47.01 346.19 73.18 340.71 98.84C335.23 124.29 324.53 149.35 306.23 167.63C296.9 176.44 286.88 183.94 277.11 191.97L247.61 215.58C227.89 231.23 208.61 247.58 189.12 263.46L187.75 264.58V262.7C187.57 236.59 191.36 210.48 197.08 185.23C199.83 172.53 203.08 159.84 207.97 147.67C212.772 135.567 219.615 124.378 228.2 114.59C236.6 104.53 248.05 98.1499 258.88 92.2899C269.792 86.2889 280.292 79.5673 290.31 72.1699C310.533 57.0821 329.04 39.8223 345.5 20.7ZM345.44 21.0299C329.83 40.9609 311.741 58.8185 291.61 74.1699C281.674 81.86 271.216 88.8502 260.31 95.09C249.42 101.27 238.6 107.19 230.57 116.92C222.29 126.26 215.88 137.38 210.96 149.08C206.04 160.78 202.81 173.35 199.96 185.98C197.11 198.61 194.36 211.24 192.56 224.06C190.709 236.895 189.667 249.834 189.44 262.8L188.07 262.08C207.68 246.23 227.52 230.77 246.88 214.66L276 190.52C285.59 182.36 295.6 174.6 304.57 165.92C321.86 147.64 332.75 123.5 338.57 98.4399C344.44 73.0699 345.57 46.7 345.44 20.98V21.0299Z" fill="black"/>
<path d="M345.5 20.78C321.61 63.2 295.04 107.2 265.67 152.13C239.77 191.72 213.95 228.48 188.67 262.68C206.09 249 230.67 229.34 259.8 204.87C306.72 165.48 313.68 156.99 318.11 151.07C331.38 132.85 352.28 94.18 345.5 20.78Z" fill="#E94C5B"/>
<path d="M345.441 20.98C334.441 42.16 322.171 63.2 309.911 83.86C297.651 104.52 285.021 125.16 271.761 145.22C258.501 165.28 244.861 185.08 231.061 204.7C217.061 224.16 203.431 243.96 189.241 263.23L188.131 262.05L246.491 213.77C266.031 197.86 285.201 181.28 303.741 164.18C308.387 159.977 312.656 155.377 316.501 150.43C320.262 145.346 323.654 139.999 326.651 134.43C332.64 123.06 337.217 111 340.281 98.5199C346.501 73.2699 346.861 46.63 345.441 20.98ZM345.501 20.6499C348.501 46.8899 348.241 73.27 342.451 98.98C336.601 124.3 325.341 149.49 305.861 166.73C287.321 184.16 267.911 200.33 248.241 216.12L189.061 263.34L184.141 267.22L187.941 262.16C202.251 242.95 216.561 223.75 230.001 203.82C243.441 183.89 256.701 163.9 269.581 143.57C282.461 123.24 295.471 103.06 308.101 82.5699L345.501 20.6499Z" fill="black"/>
<path d="M64.9795 0.130127C50.4695 82.9401 68.2095 125.82 84.1495 148.51C88.3095 154.51 92.1496 158.77 131 200.6C154.59 225.99 174.31 247.23 188.63 262.6C191.08 242.724 191.623 222.659 190.25 202.68C188 171.05 186.2 141.45 169.46 114.22C155.33 91.1401 143.76 91.1401 114.2 62.0701C95.3427 43.495 78.8147 22.6957 64.9795 0.130127Z" fill="#EE7C7B"/>
<path d="M64.9791 0.329956C61.4891 25.78 59.1291 52.09 61.5591 77.87C63.9891 103.65 71.6291 129.11 86.4491 149.69C94.1591 159.62 103.059 168.83 111.529 178.24L137.219 206.39C154.339 225.2 171.949 243.39 189.219 261.96L187.789 262.49C189.29 249.61 189.958 236.646 189.789 223.68C189.729 210.68 188.479 197.84 187.419 184.88C186.359 171.92 184.619 159.16 181.329 146.73C178.039 134.3 173.109 122.46 166.139 112.01C159.489 101.22 149.529 93.72 139.569 86.01C129.593 78.2265 120.161 69.77 111.339 60.7C93.3913 42.6213 77.8132 22.3356 64.9791 0.329956ZM64.9091 0C78.7387 21.3631 94.8135 41.1858 112.859 59.13C121.763 67.9529 131.254 76.1617 141.269 83.7C151.269 91.07 161.739 99.0899 168.709 110.27C175.879 121.223 181.181 133.291 184.399 145.98C187.629 158.68 189.189 171.77 190.309 184.72C192.669 210.57 193.039 237.01 189.429 262.79L189.189 264.63L187.999 263.32C170.769 244.64 153.839 225.7 136.349 207.32L110.209 179.63C101.569 170.29 92.6691 161.34 84.5791 151.28C68.8391 130.5 61.4891 104.12 59.4391 78.1399C57.3791 51.8899 59.7391 25.78 64.9091 0Z" fill="black"/>
<path d="M64.9802 0.130127C83.0902 45.6401 103.62 93.0601 126.84 141.93C147.25 184.93 168.03 225.13 188.63 262.69C173.2 246.57 151.35 223.49 125.78 195.01C84.4502 149.1 78.6702 139.7 75.1202 133.18C64.2302 113.19 48.6102 71.8201 64.9802 0.130127Z" fill="#E94C5B"/>
<path d="M64.97 0L93.91 66.8199C103.68 88.9899 113.91 110.89 124.03 132.82C134.15 154.75 144.5 176.63 155.33 198.27C165.97 219.97 177.61 241.08 189.33 262.19L192.45 267.78L188.09 263.18L135.7 207.74C118.27 189.19 101.15 170.31 85.1 150.32C68.1 130.46 60.27 103.89 57.78 77.9099C55.33 51.6999 58.5 25.52 64.97 0ZM64.97 0.329956C60.18 25.58 57.06 51.96 59.97 77.74C61.3292 90.5712 64.275 103.184 68.74 115.29C70.9589 121.279 73.5988 127.104 76.64 132.72C79.64 138.25 83.55 143.25 87.47 148.25C103.58 167.91 120.39 187.12 137.69 205.73L189.15 262.09L187.91 263.09C176.4 241.91 165.44 220.34 154.12 198.96C143.04 177.52 132.12 155.96 121.63 134.11C111.14 112.26 101.41 90.05 91.95 67.75C82.49 45.45 73.13 22.89 64.97 0.329956Z" fill="black"/>
<path d="M192.6 441.56C192.6 441.56 210.81 440.89 223.39 435.56C235.97 430.23 255.83 431.56 255.83 448.14C255.83 464.72 241.27 471.97 228.35 466.68C215.43 461.39 211.14 455.42 192.6 456.74C174.06 458.06 149.23 466.47 138.31 466.34C127.64 466.23 120.43 460.05 120.43 448.47C120.43 436.89 130.36 427.03 150.89 432.78C171.42 438.53 183.63 442.33 192.6 441.56Z" fill="#F7F8E2"/>
<path d="M120.431 448.51C120.211 445.181 120.943 441.858 122.541 438.93C122.942 438.188 123.407 437.482 123.931 436.82C124.476 436.168 125.053 435.544 125.661 434.95C126.321 434.41 126.981 433.86 127.661 433.37C128.341 432.88 129.111 432.46 129.881 432.1C132.99 430.672 136.369 429.925 139.791 429.91C140.637 429.86 141.485 429.86 142.331 429.91C143.171 429.933 144.009 430.006 144.841 430.13L147.351 430.47L149.801 431C153.071 431.72 156.151 432.59 159.311 433.42L168.751 435.89C175.021 437.47 181.321 439.12 187.551 439.6C189.092 439.71 190.639 439.71 192.181 439.6C193.821 439.54 195.381 439.43 196.991 439.3C200.191 439.03 203.381 438.63 206.551 438.15C209.715 437.683 212.852 437.052 215.951 436.26C217.491 435.87 219.001 435.4 220.511 434.91L222.731 434.1C223.521 433.8 224.331 433.51 225.141 433.26C231.615 431.114 238.588 430.978 245.141 432.87C248.427 433.866 251.312 435.879 253.381 438.62C254.348 440.001 255.047 441.551 255.441 443.19C255.799 444.8 255.93 446.453 255.831 448.1C255.724 444.877 254.569 441.777 252.541 439.27C250.443 436.947 247.67 435.342 244.611 434.68C241.555 433.944 238.397 433.734 235.271 434.06C232.146 434.343 229.069 435.015 226.111 436.06C225.381 436.33 224.671 436.63 223.951 436.94L221.621 437.94C220.051 438.52 218.461 439.05 216.861 439.51C213.67 440.426 210.432 441.17 207.161 441.74C203.911 442.32 200.631 442.74 197.341 443.04C195.711 443.19 194.021 443.32 192.411 443.4C190.703 443.525 188.989 443.525 187.281 443.4C183.951 443.092 180.646 442.554 177.391 441.79C174.161 441.06 170.981 440.26 167.831 439.37C161.551 437.6 155.271 435.67 149.101 433.87L146.811 433.27L144.481 432.84C143.712 432.685 142.934 432.585 142.151 432.54C141.375 432.435 140.594 432.375 139.811 432.36C136.696 432.172 133.577 432.65 130.661 433.76C129.931 434.02 129.261 434.42 128.561 434.76C127.861 435.1 127.261 435.6 126.561 436.04C125.861 436.48 125.361 437.04 124.851 437.62C124.312 438.192 123.82 438.808 123.381 439.46C121.605 442.158 120.587 445.284 120.431 448.51Z" fill="#231F20"/>
<path d="M255.859 448.18C256.079 451.593 255.526 455.011 254.239 458.18C252.881 461.432 250.622 464.228 247.729 466.24C244.765 468.256 241.308 469.427 237.729 469.63C234.158 469.833 230.587 469.232 227.279 467.87C224.089 466.63 220.999 465.13 217.999 463.64C215.119 462.13 212.107 460.888 208.999 459.93C202.879 458.12 196.249 458.28 189.719 458.93C183.107 459.714 176.538 460.832 170.039 462.28C163.469 463.6 156.929 465.17 150.239 466.28C146.872 466.927 143.464 467.335 140.039 467.5C136.504 467.647 132.982 466.987 129.739 465.57C126.485 464.123 123.837 461.588 122.249 458.4C120.792 455.279 120.172 451.833 120.449 448.4C120.546 450.07 120.817 451.726 121.259 453.34C121.665 454.936 122.313 456.46 123.179 457.86C124.848 460.638 127.422 462.756 130.469 463.86C133.493 464.95 136.722 465.346 139.919 465.02C143.2 464.672 146.456 464.121 149.669 463.37C156.169 461.89 162.669 460.26 169.269 458.72C175.867 457.16 182.543 455.955 189.269 455.11C192.703 454.744 196.158 454.614 199.609 454.72C203.129 454.815 206.621 455.383 209.989 456.41C213.283 457.506 216.467 458.909 219.499 460.6C222.499 462.16 225.389 463.73 228.409 465.07C231.295 466.395 234.434 467.078 237.609 467.07C240.801 467.074 243.934 466.217 246.679 464.59C249.472 462.951 251.75 460.565 253.259 457.7C254.776 454.741 255.661 451.499 255.859 448.18Z" fill="#231F20"/>
<path d="M244.081 433.63L231.561 467.77" stroke="#231F20" stroke-width="2.19" stroke-miterlimit="10"/>
<path d="M133.83 430.93L143.12 466.08" stroke="#231F20" stroke-width="2.19" stroke-miterlimit="10"/>
<path d="M163.529 436.25L166.749 461.16" stroke="#231F20" stroke-width="2.19" stroke-miterlimit="10"/>
<path d="M189.961 441.09V456.32" stroke="#231F20" stroke-width="2.19" stroke-miterlimit="10"/>
<path d="M218.791 436.25L213.971 460.76" stroke="#231F20" stroke-width="2.19" stroke-miterlimit="10"/>
<path d="M248.469 456.32C238.269 454.68 228.059 453.32 217.829 452.18C207.599 451.04 197.349 450.18 187.099 449.75C176.849 449.32 166.569 449.44 156.269 449.68C145.969 449.92 135.679 450.4 125.359 450.68C135.593 449.24 145.866 448.19 156.179 447.53C161.339 447.17 166.499 446.99 171.679 446.85C176.859 446.71 182.029 446.85 187.219 447C192.409 447.15 197.559 447.64 202.709 448.13C207.859 448.62 212.989 449.28 218.109 450.06C228.344 451.544 238.482 453.635 248.469 456.32Z" fill="#231F20"/>
<path d="M114.33 376.55C110.6 381.432 108.58 387.406 108.58 393.55C108.585 401.018 111.556 408.178 116.838 413.456C122.12 418.735 129.282 421.7 136.75 421.7C143.899 421.705 150.783 418.99 156.003 414.106C161.224 409.222 164.39 402.534 164.86 395.4L114.33 376.55Z" fill="#F7F8E2"/>
<path d="M164.77 394.95L130.19 382.05C126.549 385.801 124.512 390.823 124.51 396.05C124.51 401.397 126.634 406.525 130.414 410.305C134.195 414.086 139.323 416.21 144.67 416.21C150.017 416.215 155.148 414.097 158.934 410.32C162.72 406.543 164.852 401.418 164.86 396.07C164.86 395.7 164.79 395.33 164.77 394.95Z" fill="#06080A"/>
<path d="M114.331 376.55C111.948 380.168 110.388 384.264 109.761 388.55C109.438 390.648 109.384 392.779 109.601 394.89C109.601 395.42 109.681 395.95 109.751 396.47L110.031 398.03C110.225 399.045 110.482 400.047 110.801 401.03C112.064 405.025 114.23 408.676 117.131 411.7C117.842 412.457 118.597 413.171 119.391 413.84C120.171 414.53 121.041 415.1 121.871 415.72C123.607 416.852 125.466 417.784 127.411 418.5C131.308 419.977 135.493 420.535 139.641 420.13C143.81 419.706 147.833 418.364 151.421 416.2C155.022 413.953 158.093 410.95 160.421 407.4C162.731 403.758 164.244 399.668 164.861 395.4C164.836 399.855 163.738 404.239 161.661 408.18C159.489 412.175 156.405 415.601 152.661 418.18C148.859 420.747 144.504 422.378 139.951 422.94C135.371 423.465 130.733 422.903 126.411 421.3C122.097 419.692 118.231 417.072 115.137 413.662C112.044 410.252 109.813 406.15 108.631 401.7C108.338 400.602 108.117 399.487 107.971 398.36L107.761 396.67C107.761 396.11 107.761 395.54 107.761 394.98C107.712 393.852 107.749 392.722 107.871 391.6C107.98 390.483 108.16 389.374 108.411 388.28C109.388 383.942 111.422 379.913 114.331 376.55Z" fill="#231F20"/>
<path d="M168.44 396.63L105.16 373.51" stroke="#231F20" stroke-width="4.36" stroke-miterlimit="10" stroke-linecap="round"/>
<path d="M267.619 376.55C271.349 381.432 273.37 387.406 273.369 393.55C273.364 401.018 270.394 408.178 265.111 413.456C259.829 418.735 252.667 421.7 245.199 421.7C238.05 421.697 231.17 418.975 225.955 414.085C220.74 409.195 217.581 402.504 217.119 395.37L267.619 376.55Z" fill="#F7F8E2"/>
<path d="M267.521 376.55C270.461 379.91 272.523 383.947 273.521 388.3C273.771 389.394 273.951 390.503 274.061 391.62C274.182 392.742 274.219 393.872 274.171 395C274.171 395.56 274.171 396.13 274.171 396.69L273.951 398.38C273.809 399.507 273.588 400.624 273.291 401.72C272.104 406.16 269.873 410.252 266.784 413.655C263.694 417.058 259.836 419.672 255.531 421.28C251.209 422.882 246.57 423.444 241.991 422.92C237.435 422.356 233.077 420.725 229.271 418.16C225.525 415.581 222.442 412.155 220.271 408.16C218.19 404.219 217.089 399.836 217.061 395.38C217.67 399.669 219.184 403.78 221.501 407.44C223.823 410.995 226.895 413.998 230.501 416.24C234.086 418.402 238.105 419.744 242.271 420.17C246.418 420.575 250.604 420.018 254.501 418.54C256.448 417.822 258.309 416.89 260.051 415.76C260.871 415.14 261.741 414.57 262.531 413.88C263.321 413.211 264.073 412.496 264.781 411.74C267.685 408.719 269.851 405.067 271.111 401.07C271.434 400.088 271.691 399.086 271.881 398.07L272.161 396.51C272.231 395.99 272.261 395.51 272.311 394.93C272.527 392.819 272.473 390.688 272.151 388.59C271.516 384.284 269.934 380.172 267.521 376.55Z" fill="#231F20"/>
<path d="M217.179 394.95L251.759 382.05C255.4 385.801 257.437 390.823 257.439 396.05C257.439 401.397 255.315 406.525 251.534 410.305C247.754 414.086 242.626 416.21 237.279 416.21C231.933 416.207 226.807 414.083 223.027 410.302C219.247 406.522 217.122 401.396 217.119 396.05C217.119 395.7 217.159 395.33 217.179 394.95Z" fill="#06080A"/>
<path d="M213.5 396.63L276.79 373.51" stroke="#231F20" stroke-width="4.36" stroke-miterlimit="10" stroke-linecap="round"/>
</g>
<defs>
<clipPath id="clip0_3768_640">
<rect width="383.61" height="580.78" fill="white"/>
</clipPath>
</defs>
</svg>
