<svg width="241" height="302" viewBox="0 0 241 302" fill="none" xmlns="http://www.w3.org/2000/svg">
<g clip-path="url(#clip0_4970_375)">
<path d="M119.562 301.47C106.23 301.47 94.2443 298.502 86.2585 293.367L85.8075 293.404L84.3529 293.491L82.5347 293.571L81.1673 293.615H79.3927H77.2908H75.5016H74.1052L72.4833 293.557L70.956 293.484L69.3922 293.389L68.8904 293.353L67.8867 293.273L66.4976 293.157L64.752 292.982L63.5156 292.837L62.7229 292.742L60.9701 292.502L59.7846 292.327L58.6645 292.146L57.6536 291.971L56.7008 291.797L55.2462 291.52L53.8497 291.222L52.8097 290.989L52.3297 290.88L51.9587 290.793L50.8387 290.516L49.5659 290.189L48.9331 290.015L47.9367 289.731L47.2094 289.513L46.9767 289.44L46.293 289.229L45.1803 288.887L44.0529 288.509L43.3256 288.262L41.9583 287.767L40.831 287.331L39.7327 286.895L39.4491 286.778L39.0054 286.589L37.9727 286.153L36.7362 285.593L36.2344 285.36L35.4125 284.967L34.5761 284.553L34.4234 284.473L33.8997 284.203L32.867 283.658L31.8487 283.091L31.216 282.727L30.5978 282.363L29.8268 281.898L29.7541 281.854L29.0268 281.382L28.0522 280.749L27.2231 280.174C26.9831 280.014 26.7503 279.847 26.4958 279.68L25.2666 278.778L25.0339 278.596L24.4593 278.138L24.3429 278.05L23.6156 277.447L22.9392 276.872L22.161 276.196L21.7246 275.796L21.1937 275.309L20.7719 274.901C20.6628 274.807 20.1682 274.312 20.1682 274.312L19.6664 273.81L19.3755 273.505L18.9173 273.01C18.6748 272.758 18.4324 272.516 18.1899 272.283L17.419 271.388C17.2735 271.221 17.1281 271.047 16.9899 270.872C16.8517 270.697 16.7208 270.537 16.5971 270.385L16.008 269.657L15.8335 269.417C15.6953 269.236 15.5862 269.083 15.4771 268.923L15.3462 268.748C15.1352 268.457 14.9243 268.166 14.728 267.875L14.2698 267.148C14.0734 266.857 13.877 266.559 13.6952 266.261L13.4261 265.817L12.9897 265.09C12.5824 264.363 12.2624 263.737 11.9206 263.126C11.9206 263.126 11.7897 262.864 11.7387 262.748C11.3315 261.941 10.9387 261.126 10.5605 260.311L10.4005 259.991L10.1605 259.453C9.84772 258.777 9.54229 258.086 9.2441 257.395C9.2441 257.395 9.08405 257.053 9.02587 256.908L8.94588 256.726C8.56768 255.846 8.21859 254.988 7.87676 254.129L7.76764 253.853C7.70946 253.715 7.54218 253.278 7.54218 253.278C7.2949 252.638 7.05246 251.998 6.81488 251.358L6.60397 250.806L6.4803 250.435C6.1821 249.606 5.89118 248.769 5.6148 247.925L5.37482 247.198C5.16391 246.551 4.96024 245.904 4.76387 245.249L4.6184 244.754L4.46569 244.245C4.27659 243.576 4.09476 242.922 3.91293 242.26L3.72383 241.532L3.65111 241.242C3.46929 240.514 3.28019 239.787 3.10563 239.06L2.85833 238.005C2.73469 237.43 2.60377 236.856 2.4874 236.274L2.26921 235.256C2.10921 234.47 1.96376 233.678 1.82557 232.892L1.65102 231.859C1.55647 231.299 1.46193 230.747 1.38192 230.194L1.20733 229.037C1.12006 228.412 1.0328 227.772 0.952793 227.139L0.86552 226.463L0.792762 225.823C0.727305 225.241 0.66912 224.666 0.610936 224.099L0.494587 222.884C0.450948 222.368 0.407322 221.844 0.370957 221.313L0.290964 220.237V219.99C0.247326 219.342 0.210936 218.688 0.17457 218.033L0.123654 216.811L0.0800171 215.357V214.128C0.0800171 213.495 0.0800171 212.869 0.0800171 212.244V210.789C0.0800171 210.324 0.0800171 209.858 0.0800171 209.386V208.076C0.0800171 207.589 0.0800224 207.109 0.130934 206.622L0.181851 205.465V204.934C0.181851 204.44 0.232751 203.953 0.261844 203.48L0.356397 202.12C0.356397 201.698 0.414585 201.276 0.45095 200.847L0.57458 199.341C0.625491 198.774 0.676418 198.236 0.72733 197.69L0.88008 196.236L1.01099 195.021L1.17826 193.639C1.22917 193.239 1.42556 191.763 1.42556 191.763L1.6219 190.367C1.67281 189.996 1.72375 189.639 1.78193 189.261L2.00011 187.806L2.29829 185.988L2.53103 184.606L2.76378 183.304L2.98924 182.075C2.98924 182.075 3.50565 179.421 3.51292 179.399L3.82566 177.842L4.3275 175.486L4.48021 174.824C4.61112 174.206 4.74931 173.602 4.8875 172.998L5.6148 169.966L6.19668 167.587C6.19668 167.587 6.70578 165.573 6.86579 164.954L6.9967 164.431L7.58582 162.183L8.44403 159.02L9.2441 156.11L9.9714 153.63L10.7569 150.917L11.8115 147.317C12.4466 145.155 13.0843 143.004 13.7243 140.866C15.3825 135.309 16.9463 130.058 18.3791 124.865L18.4227 124.705C18.8397 123.207 19.2397 121.721 19.6227 120.247V120.145C19.7973 119.476 19.9718 118.785 20.1464 118.094L20.19 117.905C20.5488 116.499 20.8858 115.098 21.201 113.701L21.2592 113.461C21.5792 112.007 21.8774 110.661 22.1392 109.352L22.1828 109.156C22.3065 108.53 22.4229 107.919 22.5392 107.308V107.134C22.7865 105.795 23.0071 104.489 23.2011 103.213L23.2447 102.923C23.4338 101.657 23.6011 100.392 23.7393 99.1842V98.9369C23.7975 98.3841 23.8556 97.8314 23.8993 97.2786V97.1041C23.9502 96.4786 24.0011 95.8677 24.0375 95.264C25.2375 77.0305 19.6009 64.8044 5.18572 54.3676C3.60805 53.2263 2.36463 51.6835 1.58448 49.8994C0.804334 48.1153 0.515878 46.1549 0.749126 44.2217C0.982606 42.2907 1.72814 40.4572 2.90845 38.9111C4.08876 37.3651 5.66096 36.1627 7.46219 35.4286C8.60406 34.9631 14.7862 32.6576 25.0484 32.6576C28.4844 32.6606 31.9159 32.9036 35.318 33.3849C34.1136 31.5639 32.7842 29.8288 31.3396 28.1919C30.0139 26.6983 29.1237 24.8694 28.7659 22.9047C28.4081 20.9399 28.5964 18.9146 29.3104 17.0496C30.0241 15.1853 31.2355 13.5525 32.8129 12.3291C34.3903 11.1057 36.2731 10.3385 38.2563 10.1111C40.9919 9.83776 43.7403 9.71394 46.4894 9.74014C54.8004 9.75769 63.0874 10.6351 71.2178 12.3584L71.5451 11.9875C71.7415 11.7693 71.9378 11.5511 72.1415 11.3402C72.3451 11.1293 72.5706 10.9038 72.7815 10.7002C72.9924 10.4965 73.2397 10.2493 73.4652 10.0456L73.9743 9.60195L74.0325 9.54377C74.5416 9.10738 75.0653 8.67827 75.6035 8.27098L76.0762 7.9146C76.3307 7.7255 76.6508 7.50732 76.9708 7.28913L77.4872 6.94729C77.7708 6.75819 78.0981 6.55454 78.4326 6.3509L78.8909 6.07452C79.24 5.87087 79.6182 5.66723 79.9527 5.47813L80.1418 5.37631C86.6876 1.86342 95.0661 0.00878906 104.267 0.00878906C110.616 0.031169 116.938 0.854676 123.082 2.45981C133.541 5.15084 142.923 9.73287 150.218 15.784L150.29 15.8422C151.192 16.5695 152.072 17.3768 152.901 18.1623C166.863 12.6315 181.741 9.77447 196.758 9.74014C199.507 9.71854 202.255 9.83992 204.991 10.1038C206.975 10.3318 208.859 11.1001 210.436 12.3249C212.013 13.5496 213.224 15.1839 213.937 17.0496C214.65 18.9153 214.837 20.9409 214.478 22.9057C214.119 24.8705 213.227 26.699 211.901 28.1919C210.458 29.8332 209.129 31.5706 207.922 33.3921C210.535 33.1035 213.163 32.9579 215.792 32.9557C226.047 32.9557 232.236 35.2613 233.371 35.7268C235.187 36.4478 236.777 37.6437 237.973 39.1892C239.169 40.7348 239.928 42.5733 240.171 44.5126C240.411 46.4516 240.126 48.4195 239.345 50.2106C238.565 52.0018 237.318 53.5505 235.734 54.6949C221.312 65.1317 215.675 77.3578 216.875 95.5913C216.875 96.195 216.963 96.8059 217.021 97.4168V97.5987C217.072 98.1587 217.13 98.7114 217.188 99.2715V99.5188C217.319 100.719 217.486 101.977 217.675 103.257L217.726 103.555C217.915 104.806 218.134 106.115 218.381 107.432C218.381 107.432 218.381 107.635 218.424 107.65C218.534 108.254 218.65 108.865 218.774 109.476C218.774 109.476 218.817 109.665 218.817 109.686C219.079 110.988 219.377 112.363 219.697 113.767L219.755 114.036C220.075 115.425 220.417 116.821 220.766 118.232L220.817 118.443C220.985 119.105 221.166 119.796 221.341 120.494L221.377 120.625C221.748 122.08 222.148 123.534 222.563 125.025V125.12V125.229C224.017 130.393 225.559 135.637 227.21 141.23C227.85 143.375 228.498 145.535 229.138 147.71L229.749 149.79L230.541 152.51L231.232 154.925L231.872 157.194C232.076 157.921 232.6 159.805 232.6 159.805L233.327 162.533C233.516 163.26 233.712 163.987 233.909 164.765C233.909 164.765 234.36 166.525 234.52 167.136L234.716 167.944C234.818 168.244 234.905 168.542 234.978 168.838C237.371 178.333 239.097 187.984 240.142 197.72L240.2 198.381C240.273 199.109 240.331 199.785 240.389 200.491L240.527 202.207L240.629 203.756C240.629 204.12 240.738 205.836 240.738 205.836L240.782 206.942C240.782 207.415 240.818 207.88 240.833 208.353V209.691V211.095V212.513C240.833 213.16 240.833 213.786 240.833 214.411V215.648C240.833 216.12 240.833 216.586 240.782 217.051L240.731 218.302C240.731 218.855 240.673 219.393 240.644 219.931C240.644 220.259 240.6 220.601 240.578 220.942L240.527 221.612C240.491 222.077 240.455 222.528 240.418 222.979C240.418 223.313 240.353 223.706 240.324 224.019C240.324 224.019 240.215 225.095 240.171 225.474C240.113 226.004 240.055 226.565 239.982 227.125C239.829 228.405 239.647 229.706 239.422 231.103V231.205C237.654 242.358 234.188 253.175 229.145 263.279C219.734 282.189 195.827 293.644 165.208 294.015H163.258H162.582H161.498H160.48H159.411H158.385L157.236 293.964L156.225 293.913L155.076 293.848L154.087 293.775L152.923 293.688H152.545C144.661 298.553 132.755 301.47 119.562 301.47Z" fill="#231F20"/>
<path d="M153.092 44.9083C156.221 32.7479 141.618 18.4797 120.476 13.0394C99.333 7.59914 79.6569 13.0469 76.5279 25.2072C73.3988 37.3676 88.0017 51.6358 109.144 57.0761C130.287 62.5164 149.963 57.0687 153.092 44.9083Z" fill="#F1594B"/>
<path d="M143.597 44.7392C145.56 37.1107 136.404 28.1612 123.146 24.7499C109.889 21.3386 97.5503 24.7572 95.5874 32.3857C93.6245 40.0141 102.781 48.9637 116.038 52.375C129.295 55.7863 141.634 52.3676 143.597 44.7392Z" fill="#7C131A"/>
<path opacity="0.62" d="M153.061 44.9131C154.836 38.0256 150.923 30.4616 143.359 24.214C133.828 28.1785 125.715 34.9293 120.085 43.5822C118.464 33.3563 87.4076 14.1918 87.2548 14.1045C81.6691 16.5482 77.7635 20.3375 76.5125 25.2032C73.3851 37.371 87.9821 51.6407 109.125 57.081C130.268 62.5212 149.912 57.0737 153.061 44.9131Z" fill="#951B1E"/>
<path d="M64.5048 91.9108C64.5048 91.9108 60.1409 44.1632 39.5727 20.9622C39.5727 20.9622 157.68 7.3688 148.581 163.47C141.105 291.556 31.696 230.921 46.4385 184.562C64.5047 127.694 64.5048 91.9108 64.5048 91.9108Z" fill="#D91F26"/>
<path opacity="0.62" d="M148.61 131.687C146.856 125.993 144.65 120.448 142.014 115.105L146.378 111.846C142.014 85.6269 132.77 66.8915 121.431 53.5236C114.711 54.2509 106.23 61.3276 101.248 66.0696C75.3562 45.7414 51.435 40.1484 51.435 40.1484C61.9519 63.7277 64.5265 91.889 64.5265 91.889C64.5265 91.889 64.5266 127.672 46.4603 184.511C31.7178 230.899 141.126 291.534 148.603 163.419C149.244 152.852 149.246 142.255 148.61 131.687Z" fill="#951B1E"/>
<path d="M178.903 91.9108C178.903 91.9108 183.23 44.1632 203.835 20.9622C203.835 20.9622 85.7203 7.3688 94.8261 163.47C102.296 291.556 211.704 230.921 196.962 184.562C178.903 127.694 178.903 91.9108 178.903 91.9108Z" fill="#D91F26"/>
<path opacity="0.62" d="M191.972 40.1484C191.972 40.1484 146.327 50.7598 112.856 96.2528C104.882 106.955 98.7739 118.928 94.7898 131.665C94.1497 142.25 94.1497 152.864 94.7898 163.449C102.259 291.534 211.668 230.899 196.925 184.54C178.866 127.701 178.866 91.918 178.866 91.918C178.866 91.918 181.419 63.7568 191.958 40.1775L191.972 40.1484Z" fill="#951B1E"/>
<path d="M229.341 45.8434C229.341 45.8434 165.986 20.0386 86.964 155.477C14.6916 279.359 192.663 311.63 219.414 258.34C260.848 175.82 163.637 93.3946 229.341 45.8434Z" fill="#F1594B"/>
<path d="M205.995 96.2754C209.006 142.147 248.6 200.222 219.414 258.348C205.864 285.346 153.505 290.35 114.529 272.669C206.468 264.159 206.766 123.062 205.995 96.2754Z" fill="#D91F26"/>
<path opacity="0.62" d="M224.49 171.377C231.305 199.291 234.214 228.834 219.486 258.348C200.613 296.168 105.968 290.881 78.389 240.238C179.732 283.069 224.49 171.377 224.49 171.377Z" fill="#7C131A"/>
<path opacity="0.62" d="M182.059 194.265C170.96 140.481 120.675 105.686 120.616 105.643C109.838 119.17 98.5717 135.586 86.9639 155.478C40.4746 235.168 97.539 276.938 151.287 282.429C168.044 261.671 188.983 227.794 182.059 194.265Z" fill="#951B1E"/>
<path d="M11.6515 45.5456C11.6515 45.5456 74.9998 19.7408 154.029 155.18C226.279 279.062 48.3368 311.332 21.5792 258.05C-19.8554 175.522 77.3635 93.0968 11.6515 45.5456Z" fill="#F1594B"/>
<path d="M34.9979 95.9766C31.9869 141.848 -7.60039 199.923 21.5791 258.049C35.1361 285.04 87.4948 290.051 126.464 272.37C34.5252 263.882 34.227 122.734 34.9979 95.9766Z" fill="#D91F26"/>
<path opacity="0.62" d="M16.5462 171.063C9.68041 198.977 6.74936 228.521 21.5791 258.035C40.5836 295.855 135.853 290.567 163.586 239.925C61.5809 282.756 16.5462 171.063 16.5462 171.063Z" fill="#951B1E"/>
<path d="M156.458 215.706C154.302 216.072 152.087 215.605 150.262 214.399C148.438 213.193 147.14 211.338 146.632 209.211C146.538 208.818 138.479 175.835 122.34 158.016C121.58 157.178 120.993 156.198 120.613 155.132C120.232 154.067 120.065 152.937 120.121 151.807C120.177 150.677 120.455 149.569 120.939 148.547C121.424 147.524 122.105 146.607 122.944 145.848C123.782 145.089 124.762 144.502 125.827 144.121C126.893 143.74 128.023 143.573 129.153 143.629C130.283 143.685 131.391 143.963 132.413 144.447C133.436 144.932 134.353 145.613 135.112 146.452C154.262 167.595 163.026 203.691 163.389 205.218C163.916 207.44 163.539 209.781 162.342 211.725C161.145 213.67 159.225 215.06 157.003 215.59L156.458 215.706Z" fill="#F16465"/>
<path d="M178.372 126.051C182.348 126.051 185.572 122.827 185.572 118.851C185.572 114.874 182.348 111.65 178.372 111.65C174.395 111.65 171.171 114.874 171.171 118.851C171.171 122.827 174.395 126.051 178.372 126.051Z" fill="#F6FAFE"/>
<path d="M201.568 158.666C208.329 157.71 212.705 149.127 211.343 139.496C209.981 129.864 203.396 122.832 196.636 123.788C189.876 124.744 185.5 133.326 186.862 142.958C188.224 152.589 194.808 159.622 201.568 158.666Z" fill="#F6FAFE"/>
</g>
<defs>
<clipPath id="clip0_4970_375">
<rect width="241" height="301.446" fill="white" transform="translate(0 0.0234375)"/>
</clipPath>
</defs>
</svg>
