<svg width="22" height="22" viewBox="0 0 22 22" fill="none" xmlns="http://www.w3.org/2000/svg">
<path d="M12.1487 1.80267C12.2487 1.36267 8.99871 -0.697335 6.99871 0.522665C5.86871 1.18267 5.55871 2.52267 4.99871 4.88267C4.28871 7.88267 4.87871 8.37267 4.20871 11.0227C3.53871 13.6727 2.62871 14.2627 2.91871 15.7527C3.25871 17.4627 4.91871 19.1727 6.04871 18.9227C7.87871 18.5227 8.95871 13.0127 8.65871 8.57267C8.46871 5.57267 7.65871 3.50267 8.82871 2.41267C9.99871 1.32267 12.0687 2.16267 12.1487 1.80267Z" fill="#D22434"/>
<path d="M12.1195 1.80266C12.1195 1.59266 11.8395 1.43266 11.6595 1.28266C11.4487 1.14059 11.2282 1.0136 10.9995 0.902658C10.5898 0.677614 10.1529 0.506208 9.6995 0.392658C9.2509 0.259456 8.77968 0.220014 8.31517 0.276787C7.85067 0.33356 7.40282 0.485332 6.9995 0.722658C6.27798 1.33764 5.80518 2.19437 5.6695 3.13266C5.4395 4.13266 5.1595 5.07266 4.9895 6.03266C4.82601 7.02529 4.72581 8.02731 4.6895 9.03266C4.56738 10.0447 4.33603 11.0405 3.9995 12.0027C3.8395 12.4827 3.6495 13.0027 3.4595 13.4127C3.24581 13.8577 3.07827 14.3235 2.9595 14.8027C2.88282 15.2817 2.93814 15.7727 3.1195 16.2227C3.28695 16.676 3.52303 17.101 3.8195 17.4827C4.09079 17.8727 4.42942 18.2114 4.8195 18.4827C4.98799 18.6118 5.18294 18.702 5.3904 18.747C5.59785 18.7919 5.81268 18.7904 6.0195 18.7427C6.41481 18.5595 6.73081 18.24 6.9095 17.8427C7.14184 17.4222 7.33274 16.9801 7.4795 16.5227C8.025 14.6227 8.31752 12.6591 8.3495 10.6827C8.37224 9.68158 8.33885 8.68 8.2495 7.68266C8.1695 6.68266 8.0095 5.68266 7.9795 4.68266C7.95148 4.16141 8.01926 3.63945 8.1795 3.14266C8.27555 2.88774 8.42266 2.65513 8.61182 2.4591C8.80097 2.26307 9.02818 2.10775 9.2795 2.00266C9.74617 1.8309 10.2429 1.75605 10.7395 1.78266C10.9795 1.78266 11.2195 1.78266 11.4695 1.85266H11.8295C11.9295 1.87266 12.0795 1.87266 12.1195 1.80266ZM12.1795 1.80266C12.0895 1.95266 11.9295 1.91266 11.8195 1.92266H11.4495C11.2095 1.92266 10.9695 1.92266 10.7295 1.92266C10.255 1.89244 9.78048 1.98184 9.3495 2.18266C9.1437 2.28246 8.95987 2.4223 8.80876 2.59401C8.65766 2.76572 8.54232 2.96584 8.4695 3.18266C8.35553 3.65055 8.33177 4.13587 8.3995 4.61266C8.5095 5.61266 8.6995 6.61266 8.8295 7.61266C8.95254 8.60767 9.00268 9.61034 8.9795 10.6127C8.96894 12.6493 8.64861 14.6724 8.0295 16.6127C7.86444 17.0967 7.64998 17.5625 7.3895 18.0027C7.13765 18.4993 6.70984 18.8843 6.1895 19.0827C5.92343 19.1472 5.6458 19.1473 5.37969 19.083C5.11358 19.0186 4.86667 18.8916 4.6595 18.7127C4.24209 18.4104 3.88009 18.0383 3.5895 17.6127C2.95986 16.7774 2.67686 15.7314 2.7995 14.6927C2.92019 14.2003 3.09806 13.7237 3.3295 13.2727C3.52794 12.8157 3.70153 12.3484 3.8495 11.8727C4.15365 10.9436 4.33519 9.97875 4.3895 9.00266C4.37171 8.00042 4.42183 6.99812 4.5395 6.00266C4.70942 4.99147 4.93307 3.99005 5.2095 3.00266C5.33996 2.49945 5.52786 2.01292 5.7695 1.55266C6.00406 1.0664 6.37608 0.659614 6.8395 0.382658C7.29185 0.159209 7.78513 0.0306348 8.289 0.00483934C8.79287 -0.0209561 9.29669 0.0565718 9.7695 0.232658C10.2368 0.37867 10.6889 0.56956 11.1195 0.802658C11.3358 0.924092 11.5431 1.06112 11.7395 1.21266C11.8895 1.38266 12.1195 1.52266 12.1795 1.81266V1.80266Z" fill="#010101"/>
<path d="M7.22976 2.00267C6.43976 0.492669 3.69976 -0.207331 1.86976 1.00267C0.0397624 2.21267 0.679761 5.00267 1.05976 7.64267C1.42451 9.71927 2.06693 11.7374 2.96976 13.6427C3.29213 14.4559 3.67314 15.2446 4.10976 16.0027C4.79976 17.1127 6.71976 20.4027 7.99976 20.0027C9.27976 19.6027 9.88976 16.7327 9.44976 14.3527C8.84976 11.0427 6.56976 10.7627 6.24976 7.83267C5.92976 4.90267 8.09976 3.58267 7.22976 2.00267Z" fill="#D22434"/>
<path d="M7.19903 2.00268C6.93423 1.59737 6.58399 1.25489 6.17286 0.999229C5.76173 0.743567 5.29966 0.580917 4.81903 0.522678C3.88349 0.377479 2.92677 0.568823 2.11903 1.06268C1.75443 1.33753 1.46201 1.69681 1.26692 2.10963C1.07183 2.52246 0.979902 2.97648 0.999033 3.43268C0.971447 4.41574 1.02832 5.39935 1.16903 6.37268C1.32173 8.35064 1.76656 10.2951 2.48903 12.1427C2.84903 13.0627 3.24903 13.9827 3.68903 14.8627C4.14625 15.7325 4.66071 16.571 5.22903 17.3727C5.75576 18.1801 6.4033 18.9018 7.14903 19.5127C7.51903 19.7827 7.91903 19.9027 8.21903 19.6827C8.56335 19.4128 8.82069 19.0477 8.95903 18.6327C9.27482 17.7239 9.41729 16.764 9.37903 15.8027C9.35957 14.8386 9.15238 13.8875 8.76903 13.0027C8.32965 12.1446 7.78914 11.3422 7.15903 10.6127C6.51249 9.78678 6.13859 8.78037 6.08903 7.73268C6.04771 6.69486 6.26778 5.66328 6.72903 4.73268C6.94625 4.2844 7.13659 3.82358 7.29903 3.35268C7.42363 2.90473 7.38827 2.42737 7.19903 2.00268ZM7.25903 2.00268C7.49079 2.46102 7.53734 2.99095 7.38903 3.48268C7.25903 3.97268 7.03903 4.42268 6.87903 4.88268C6.50459 5.78998 6.36695 6.77757 6.47903 7.75268C6.5838 8.69805 6.97056 9.59004 7.58903 10.3127C8.27765 11.0568 8.8568 11.8952 9.30903 12.8027C9.72213 13.7487 9.93329 14.7704 9.92903 15.8027C9.94665 16.8265 9.77021 17.8445 9.40903 18.8027C9.22034 19.3302 8.8705 19.785 8.40903 20.1027C8.28151 20.1848 8.138 20.2388 7.98801 20.2612C7.83802 20.2836 7.68498 20.2739 7.53903 20.2327C7.27379 20.1584 7.02575 20.0327 6.80903 19.8627C6.05467 19.1931 5.41311 18.4064 4.90903 17.5327C4.39038 16.7138 3.91312 15.8694 3.47903 15.0027C3.04903 14.1027 2.66903 13.1827 2.27903 12.2627C1.88903 11.3427 1.55903 10.4127 1.27903 9.44268C1.02061 8.47214 0.820255 7.48706 0.679033 6.49268C0.506473 5.50262 0.446092 4.49626 0.499033 3.49268C0.53988 2.96401 0.671822 2.44639 0.889032 1.96268C1.10526 1.44138 1.49828 1.01296 1.99903 0.752678C2.89179 0.291124 3.91898 0.160068 4.89903 0.382678C5.38331 0.474101 5.84324 0.665355 6.24955 0.944265C6.65587 1.22317 6.99966 1.58363 7.25903 2.00268Z" fill="#010101"/>
<path d="M7.92868 3.75263C7.79233 3.52496 7.70266 3.27242 7.66489 3.00975C7.62712 2.74707 7.642 2.4795 7.70868 2.22263C8.13868 1.22263 9.96868 1.22263 11.2787 1.17263C12.6817 1.13459 14.0775 1.38651 15.3787 1.91263C16.3003 2.18735 17.1232 2.72205 17.7487 3.45263C18.3796 4.52141 18.6 5.78327 18.3687 7.00263C18.2787 7.95263 17.8087 12.9426 13.8987 14.7626C13.2587 15.0626 10.7887 16.2026 9.35868 15.0726C7.12868 13.2526 9.80868 7.74263 7.92868 3.75263Z" fill="#D22434"/>
<path d="M7.90956 3.75267C7.6812 3.36268 7.57334 2.91384 7.59956 2.46267C7.63792 2.23642 7.73831 2.02525 7.88956 1.85267C8.04818 1.69092 8.23444 1.55884 8.43956 1.46267C9.25996 1.16279 10.1261 1.00716 10.9996 1.00267C12.7562 0.855767 14.519 1.20209 16.0896 2.00267C16.9463 2.33991 17.6552 2.97083 18.0896 3.78267C18.4588 4.62456 18.5969 5.54966 18.4896 6.46267C18.3962 8.256 17.9688 10.0161 17.2296 11.6527C16.4763 13.306 15.1156 14.6059 13.4296 15.2827C12.6116 15.6542 11.7276 15.8582 10.8296 15.8827C10.347 15.8878 9.87138 15.7671 9.44956 15.5327C9.012 15.2764 8.66311 14.8926 8.44956 14.4327C8.12165 13.552 8.00519 12.6066 8.10956 11.6727C8.16956 10.7627 8.27956 9.89267 8.36956 9.01267C8.46777 8.13633 8.50119 7.25393 8.46956 6.37267C8.4348 5.47365 8.24536 4.58735 7.90956 3.75267ZM7.95956 3.75267C8.62519 5.41863 8.90881 7.21263 8.78956 9.00267C8.78956 9.90267 8.70956 10.7927 8.69956 11.6627C8.63436 12.4945 8.73636 13.3309 8.99956 14.1227C9.16864 14.4571 9.42414 14.7403 9.73956 14.9427C10.0771 15.1264 10.4553 15.2227 10.8396 15.2227C11.6628 15.2184 12.4763 15.0448 13.2296 14.7127C14.8487 14.1287 16.1926 12.963 16.9996 11.4427C17.8216 9.90049 18.2767 8.18945 18.3296 6.44267C18.4294 5.57984 18.2619 4.70717 17.8496 3.94267C17.4108 3.20937 16.7162 2.66437 15.8996 2.41267C14.358 1.72826 12.6861 1.38705 10.9996 1.41267C10.1587 1.35139 9.31345 1.43253 8.49956 1.65267C8.29778 1.71152 8.11539 1.82319 7.97123 1.97614C7.82706 2.12909 7.72637 2.31777 7.67956 2.52267C7.65947 2.94929 7.7712 3.37176 7.99956 3.73267L7.95956 3.75267Z" fill="#010101"/>
<path d="M9.29831 10.2527C9.04831 9.10268 8.56831 7.40268 9.40831 6.18268C9.90831 5.48268 10.4083 5.51268 11.3083 4.37268C12.0083 3.44268 12.0783 2.84268 12.5983 2.73268C13.1183 2.62268 13.9383 3.37268 14.1583 3.62268C14.6995 4.30597 15.0265 5.13402 15.0983 6.00268C15.2999 7.75386 15.1365 9.52781 14.6183 11.2127C13.3283 15.0027 10.4683 20.0027 9.34831 19.5527C8.38831 19.1727 10.4483 15.6727 9.29831 10.2527Z" fill="#EC2428"/>
<path d="M9.26858 10.2527C9.05602 9.47429 8.91872 8.6773 8.85858 7.87267C8.81886 7.45311 8.8747 7.03001 9.02192 6.63512C9.16913 6.24024 9.40389 5.88383 9.70857 5.59267C10.0286 5.31267 10.3286 5.10267 10.5886 4.83267C10.8523 4.55505 11.09 4.25379 11.2986 3.93267C11.5086 3.60267 11.6686 3.27267 11.9186 2.93267C12.0612 2.71388 12.2837 2.55955 12.5386 2.50267C12.7789 2.45911 13.0267 2.49053 13.2486 2.59267C13.6407 2.78516 13.983 3.06582 14.2486 3.41267C14.5165 3.73369 14.7325 4.09474 14.8886 4.48267C15.154 5.26187 15.2891 6.0795 15.2886 6.90267C15.3405 8.52842 15.1174 10.1513 14.6286 11.7027C14.1315 13.239 13.499 14.7282 12.7386 16.1527C12.3585 16.8694 11.9378 17.5639 11.4786 18.2327C11.253 18.5889 10.9953 18.9236 10.7086 19.2327C10.5628 19.3911 10.4021 19.5351 10.2286 19.6627C10.0302 19.8203 9.79068 19.9175 9.53858 19.9427C9.45353 19.9487 9.36814 19.9376 9.28743 19.9101C9.20672 19.8826 9.13231 19.8393 9.06857 19.7827C8.94355 19.671 8.86207 19.5187 8.83857 19.3527C8.7986 19.1244 8.7986 18.8909 8.83857 18.6627C8.86691 18.2366 8.92034 17.8125 8.99857 17.3927C9.15857 16.6027 9.28857 15.8327 9.38857 15.0327C9.61847 13.444 9.5779 11.8278 9.26858 10.2527ZM9.32857 10.2527C9.67579 11.835 9.83356 13.4531 9.79857 15.0727C9.76418 15.8865 9.68406 16.6978 9.55857 17.5027C9.55857 17.9027 9.42857 18.2927 9.38857 18.6727C9.37339 18.839 9.37339 19.0063 9.38857 19.1727C9.38857 19.3027 9.38857 19.2627 9.49857 19.2827C9.79855 19.1795 10.0624 18.992 10.2586 18.7427C10.5172 18.4616 10.7577 18.1643 10.9786 17.8527C11.4351 17.2097 11.8558 16.5421 12.2386 15.8527C13.0185 14.4678 13.7099 13.035 14.3086 11.5627C14.898 10.0795 15.1606 8.48659 15.0786 6.89267C15.0633 6.10075 14.8935 5.31945 14.5786 4.59267C14.4158 4.25077 14.1998 3.93687 13.9386 3.66267C13.6999 3.38638 13.4072 3.16179 13.0786 3.00267C12.9537 2.92919 12.8049 2.90793 12.6645 2.9435C12.5241 2.97907 12.4034 3.06861 12.3286 3.19267C12.1386 3.48267 11.9486 3.87267 11.7086 4.19267C11.4722 4.5306 11.2044 4.84534 10.9086 5.13267C10.5952 5.39329 10.2607 5.62743 9.90857 5.83267C9.61263 6.0742 9.37522 6.37961 9.21415 6.72599C9.05309 7.07237 8.97255 7.45072 8.97857 7.83267C8.98728 8.6513 9.10499 9.46512 9.32857 10.2527Z" fill="#010101"/>
<path d="M8.23861 7.09268C8.39861 6.99268 9.92861 6.09268 10.4886 6.60268C11.7686 7.85268 7.19861 16.2827 5.95861 15.8427C4.99861 15.5027 4.83861 9.15268 8.23861 7.09268Z" fill="#D22434"/>
<path d="M8.22911 7.06267C8.63325 6.8124 9.0622 6.60463 9.50911 6.44267C9.74712 6.34829 10.0047 6.31395 10.2591 6.34267C10.4022 6.37857 10.5323 6.4538 10.6348 6.55984C10.7373 6.66587 10.8081 6.79849 10.8391 6.94267C10.9536 7.45191 10.9364 7.98193 10.7891 8.48267C10.6763 8.96941 10.519 9.44474 10.3191 9.90267C9.90482 10.7863 9.44418 11.6475 8.93911 12.4827C8.45911 13.3227 7.93911 14.1627 7.41911 14.9527C7.14295 15.3797 6.77372 15.7386 6.33911 16.0027C6.26353 16.0391 6.18243 16.0627 6.09911 16.0727C5.99657 16.08 5.89375 16.0628 5.79911 16.0227C5.65132 15.9374 5.53015 15.8128 5.44911 15.6627C5.32403 15.4232 5.23315 15.1674 5.17911 14.9027C5.0054 13.9102 5.0054 12.8951 5.17911 11.9027C5.31116 10.9245 5.65183 9.98619 6.17804 9.15115C6.70425 8.31612 7.40372 7.60388 8.22911 7.06267ZM8.22911 7.11267C7.43565 7.63976 6.82718 8.4021 6.48911 9.29267C6.14495 10.1644 5.90658 11.0742 5.77911 12.0027C5.62273 12.9283 5.60588 13.8721 5.72911 14.8027C5.76187 15.0152 5.81891 15.2232 5.89911 15.4227C5.89911 15.5027 5.98911 15.5827 6.01911 15.5827C6.04911 15.5827 6.01911 15.5827 6.01911 15.5827C6.01911 15.5827 6.07911 15.5827 6.11911 15.5827C6.50019 15.3608 6.83879 15.073 7.11911 14.7327C7.73798 14.0039 8.27455 13.2091 8.71911 12.3627C9.14789 11.503 9.51547 10.6141 9.81911 9.70267C9.96911 9.24267 10.1091 8.79267 10.2391 8.34267C10.3985 7.9136 10.4831 7.46035 10.4891 7.00267C10.48 6.91261 10.4475 6.82648 10.3949 6.75282C10.3423 6.67916 10.2714 6.62051 10.1891 6.58267C9.976 6.52719 9.75223 6.52719 9.53911 6.58267C9.08264 6.68639 8.64666 6.86551 8.24911 7.11267H8.22911Z" fill="#010101"/>
<path d="M8.14876 10.7427C7.90876 9.58267 7.41876 7.88267 8.26876 6.67267C8.75876 5.97267 9.26876 5.99267 10.1588 4.85267C10.8588 3.92267 10.9288 3.33267 11.4588 3.22267C11.9888 3.11267 12.7988 3.86267 13.0088 4.10267C13.564 4.7708 13.9085 5.58864 13.9988 6.45267C14.2016 8.19988 14.0416 9.97015 13.5288 11.6527C12.2288 15.5227 9.36876 20.4827 8.24876 20.0327C7.23876 19.6627 9.29876 16.1527 8.14876 10.7427Z" fill="#D22434"/>
<path d="M8.11877 10.7527C7.91188 9.96966 7.77468 9.16988 7.70877 8.36268C7.67105 7.9424 7.72881 7.51903 7.87773 7.12421C8.02665 6.7294 8.26288 6.37335 8.56877 6.08268C8.88877 5.80268 9.17877 5.59268 9.43877 5.32268C9.70716 5.04912 9.94521 4.74737 10.1488 4.42268C10.3588 4.10268 10.5188 3.76268 10.7788 3.42268C10.9268 3.21123 11.1475 3.06171 11.3988 3.00268C11.6391 2.9604 11.8866 2.99177 12.1088 3.09268C12.4978 3.29006 12.839 3.56989 13.1088 3.91268C13.3715 4.23946 13.5776 4.60787 13.7188 5.00268C13.9826 5.78257 14.121 6.5994 14.1288 7.42268C14.1716 9.05195 13.9452 10.6771 13.4588 12.2327C12.9598 13.7651 12.3274 15.2508 11.5688 16.6727C11.1907 17.3885 10.7734 18.0829 10.3188 18.7527C10.0896 19.1089 9.82849 19.4436 9.53877 19.7527C9.39536 19.9135 9.23435 20.0578 9.05877 20.1827C8.8604 20.3403 8.62087 20.4375 8.36877 20.4627C8.28521 20.469 8.20125 20.4581 8.1221 20.4306C8.04296 20.403 7.97034 20.3595 7.90877 20.3027C7.77999 20.1968 7.69458 20.0474 7.66877 19.8827C7.63906 19.6503 7.63906 19.4151 7.66877 19.1827C7.71676 18.7758 7.78686 18.3719 7.87877 17.9727C8.03877 17.1927 8.16877 16.4127 8.27877 15.6127C8.50093 13.9953 8.44683 12.3519 8.11877 10.7527ZM8.16877 10.7527C8.52635 12.3368 8.68424 13.9594 8.63877 15.5827C8.61381 16.3939 8.53363 17.2024 8.39877 18.0027C8.39877 18.4027 8.26877 18.8027 8.23877 19.1827C8.21367 19.3484 8.21367 19.517 8.23877 19.6827C8.23877 19.8127 8.23877 19.7727 8.33877 19.7827C8.64062 19.6777 8.90725 19.4907 9.10877 19.2427C9.36442 18.959 9.60476 18.6619 9.82877 18.3527C10.2876 17.7113 10.7083 17.0434 11.0888 16.3527C11.8666 14.9668 12.558 13.534 13.1588 12.0627C13.7409 10.5776 14 8.98565 13.9188 7.39268C13.9075 6.60352 13.7374 5.82472 13.4188 5.10268C13.2596 4.7587 13.0432 4.44424 12.7788 4.17268C12.5432 3.89557 12.2496 3.67366 11.9188 3.52268C11.7916 3.45512 11.6436 3.43819 11.5045 3.47529C11.3653 3.51239 11.2454 3.60077 11.1688 3.72268C10.9788 4.00268 10.7988 4.40268 10.5488 4.72268C10.3211 5.06718 10.0524 5.38282 9.74877 5.66268C9.43497 5.92572 9.10056 6.16315 8.74877 6.37268C8.45169 6.61322 8.21348 6.91844 8.05231 7.26505C7.89114 7.61166 7.81126 7.9905 7.81877 8.37268C7.83664 9.17085 7.95422 9.96367 8.16877 10.7327V10.7527Z" fill="#010101"/>
<path d="M10.1288 4.55267C10.4988 4.47267 11.4588 6.05266 11.0388 7.20266C10.8388 7.76266 10.5188 7.63267 10.2288 8.27267C9.93884 8.91267 10.1688 9.40267 9.99884 11.1327C9.99884 11.5727 9.89884 11.8327 9.73884 11.8927C9.57884 11.9527 9.11884 11.5227 8.93884 11.1627C8.79063 10.851 8.72192 10.5074 8.73884 10.1627C8.80526 9.61801 9.02749 9.10411 9.37884 8.68267C10.5188 7.00267 9.66884 4.64267 10.1288 4.55267Z" fill="#EC2428"/>
<path d="M10.1194 4.52264C10.3194 4.52264 10.4394 4.68264 10.5494 4.79264C10.6669 4.92158 10.7708 5.06233 10.8594 5.21264C11.0534 5.52182 11.1984 5.85914 11.2894 6.21264C11.396 6.57836 11.396 6.96693 11.2894 7.33264C11.2136 7.53316 11.094 7.71423 10.9394 7.86264C10.818 7.95311 10.7042 8.05346 10.5994 8.16264C10.2511 8.71009 10.0897 9.3557 10.1394 10.0026L10.0794 11.0026V11.5126C10.0725 11.6075 10.0557 11.7013 10.0294 11.7926C10.0129 11.857 9.9818 11.9167 9.93842 11.967C9.89505 12.0173 9.8406 12.0569 9.77936 12.0826C9.66744 12.0988 9.55328 12.0871 9.44691 12.0488C9.34054 12.0104 9.24523 11.9465 9.16936 11.8626C9.02866 11.7418 8.90726 11.6002 8.80936 11.4426C8.59848 11.1203 8.47764 10.7474 8.45936 10.3626C8.44281 9.97493 8.51462 9.58852 8.66936 9.23264C8.83013 8.91942 9.01397 8.61859 9.21936 8.33264C9.53701 7.78398 9.74741 7.17992 9.83936 6.55264C9.89346 6.22172 9.92686 5.88773 9.93936 5.55264C9.93936 5.38264 9.93936 5.21264 9.93936 5.03264C9.93936 4.85264 9.91936 4.62264 10.1194 4.52264ZM10.1194 4.58264C9.99936 4.64264 9.99936 4.85264 9.99936 5.00264C10.0066 5.17344 10.0233 5.3437 10.0494 5.51264C10.0994 5.85264 10.1394 6.19264 10.1594 6.51264C10.2184 7.24086 10.0545 7.96981 9.68936 8.60264C9.47936 8.94264 9.29936 9.14264 9.15936 9.42264C9.03013 9.68797 8.95856 9.97766 8.94936 10.2726C8.94042 10.5686 9.00938 10.8617 9.14936 11.1226C9.21975 11.2551 9.29997 11.3822 9.38936 11.5026C9.45733 11.5865 9.5426 11.6547 9.63936 11.7026C9.63936 11.7026 9.74936 11.5526 9.77936 11.4026C9.80936 11.2526 9.84936 11.0726 9.87936 10.9126C9.92185 10.5809 9.94522 10.247 9.94936 9.91264C9.94936 9.57264 9.94936 9.23264 9.94936 8.91264C9.94246 8.52802 10.0466 8.14957 10.2494 7.82264C10.358 7.67325 10.4857 7.53877 10.6294 7.42264C10.7215 7.3362 10.7933 7.2303 10.8394 7.11264C10.9406 6.83082 10.9848 6.53169 10.9694 6.23264C10.9627 5.89007 10.895 5.55143 10.7694 5.23264C10.6094 5.00264 10.4194 4.63264 10.1294 4.58264H10.1194Z" fill="#010101"/>
<path d="M11.0689 5.64266C11.3689 5.01266 9.06894 2.72266 8.06894 3.22266C6.75894 3.84266 7.83894 8.80266 7.97894 9.47266C9.07894 14.3927 11.7789 17.7627 12.0289 17.6227C12.4289 17.3927 6.75894 7.55266 8.70894 5.91266C9.43894 5.32266 10.8589 6.11266 11.0689 5.64266Z" fill="#D22434"/>
<path d="M10.9984 5.64263C11.0007 5.46618 10.9673 5.29107 10.9003 5.12782C10.8333 4.96457 10.734 4.81655 10.6084 4.69263C10.3881 4.43589 10.1399 4.20447 9.86836 4.00263C9.59432 3.78781 9.29133 3.61275 8.96836 3.48263C8.83547 3.40818 8.68569 3.36908 8.53336 3.36908C8.38103 3.36908 8.23125 3.40818 8.09836 3.48263C7.87377 3.70111 7.74441 3.99936 7.73836 4.31263C7.69941 4.64456 7.67938 4.97843 7.67836 5.31263C7.69524 6.03521 7.75199 6.75631 7.84836 7.47263C7.99489 8.92559 8.28976 10.3597 8.72836 11.7526C9.18398 13.1319 9.82304 14.4437 10.6284 15.6526C11.0076 16.249 11.4465 16.8052 11.9384 17.3126C11.9384 17.3626 12.1084 17.4226 12.0284 17.4026C11.9834 17.3848 11.9333 17.3848 11.8884 17.4026C11.86 17.4244 11.8362 17.4516 11.8184 17.4826C11.8184 17.5326 11.8184 17.4826 11.8184 17.4826V17.3826L11.6184 16.9026L11.1684 15.9026C10.5484 14.5926 9.90836 13.2726 9.36836 11.9026C8.77194 10.5364 8.37456 9.09169 8.18836 7.61263C8.15511 7.22747 8.1821 6.83948 8.26836 6.46263C8.31627 6.28249 8.40799 6.11701 8.53536 5.98091C8.66273 5.84482 8.82179 5.74235 8.99836 5.68263C9.35495 5.61254 9.72177 5.61254 10.0784 5.68263C10.2536 5.71577 10.4305 5.73914 10.6084 5.75263C10.7584 5.78263 10.9984 5.78263 10.9984 5.64263ZM11.0584 5.64263C10.9384 5.84263 10.7084 5.82263 10.5484 5.81263C10.3884 5.80263 10.1984 5.81263 10.0184 5.81263C9.68463 5.75956 9.34335 5.78004 9.01836 5.87263C8.86688 5.93699 8.73621 6.0421 8.64088 6.17627C8.54555 6.31043 8.48929 6.46841 8.47836 6.63263C8.42241 6.96362 8.42241 7.30164 8.47836 7.63263C8.80965 9.0348 9.26822 10.4038 9.84836 11.7226C10.3984 13.0626 10.9884 14.4026 11.5784 15.7226C11.7284 16.0526 11.8784 16.3926 12.0084 16.7226C12.0784 16.9026 12.1384 17.0726 12.1984 17.2726C12.2052 17.3291 12.2052 17.3862 12.1984 17.4426C12.2086 17.4955 12.2086 17.5498 12.1984 17.6026C12.1935 17.6257 12.1935 17.6495 12.1984 17.6726C12.1795 17.7145 12.1481 17.7495 12.1084 17.7726C12.081 17.7959 12.0491 17.8133 12.0146 17.8236C11.9802 17.8339 11.944 17.837 11.9084 17.8326C11.7712 17.7929 11.6492 17.7127 11.5584 17.6026C11.0693 17.041 10.6434 16.4273 10.2884 15.7726C8.8476 13.1893 7.8345 10.3897 7.28836 7.48263C7.15919 6.74587 7.08565 6.00043 7.06836 5.25263C7.06869 4.8695 7.10891 4.48744 7.18836 4.11263C7.21119 3.90361 7.27829 3.70186 7.3852 3.52081C7.4921 3.33976 7.63636 3.18356 7.80836 3.06263C7.99288 2.97748 8.19587 2.94018 8.3986 2.95416C8.60133 2.96814 8.79728 3.03296 8.96836 3.14263C9.29957 3.30827 9.60317 3.52415 9.86836 3.78263C10.1379 4.03078 10.3855 4.30179 10.6084 4.59263C10.9084 4.93263 11.1884 5.25263 11.0984 5.66263L11.0584 5.64263Z" fill="#010101"/>
<path d="M8.15829 3.00264C7.44829 1.68264 4.9883 1.05264 3.3483 2.14264C1.3483 3.47264 1.4783 6.75264 2.6183 8.14264C3.6183 9.31264 5.5383 9.22264 5.6183 9.99264C5.6183 10.3526 5.23829 10.4726 4.90829 10.9926C3.90829 12.4626 5.08829 14.9926 5.40829 15.6326C6.01829 16.9426 7.66829 19.6326 8.9283 19.2926C10.1883 18.9526 10.6283 16.3626 10.2283 14.2126C9.69829 11.2126 7.6383 10.9826 7.3583 8.36264C7.0783 5.74264 8.93829 4.45264 8.15829 3.00264Z" fill="#EC2428"/>
<path d="M8.13914 3.00268C7.88455 2.6268 7.54797 2.3136 7.15477 2.08668C6.76156 1.85976 6.32198 1.72504 5.86915 1.69268C4.98782 1.57933 4.09658 1.8084 3.37914 2.33268C2.6926 2.89449 2.24276 3.69421 2.11915 4.57268C1.96836 5.4568 2.05817 6.3652 2.37914 7.20268C2.5369 7.58814 2.78362 7.93081 3.09915 8.20268C3.43811 8.48449 3.82398 8.70451 4.23915 8.85268C4.69225 9.00093 5.12041 9.21669 5.50915 9.49268C5.61056 9.59717 5.66727 9.73706 5.66727 9.88268C5.66727 10.0283 5.61056 10.1682 5.50915 10.2727C5.33915 10.4727 5.15915 10.6027 5.01915 10.7627C4.76448 11.1416 4.59968 11.5737 4.53729 12.026C4.4749 12.4783 4.51658 12.9389 4.65915 13.3727C4.90147 14.2979 5.27528 15.1836 5.76915 16.0027C6.20896 16.8002 6.74277 17.5422 7.35915 18.2127C7.63313 18.5283 7.975 18.7779 8.35915 18.9427C8.52651 19.0032 8.70993 19.0022 8.87663 18.9399C9.04334 18.8776 9.18246 18.7581 9.26915 18.6027C9.73075 17.8455 9.98269 16.9793 9.99915 16.0927C10.0652 15.1925 9.96698 14.2877 9.70914 13.4227C9.39706 12.5817 8.93264 11.8054 8.33915 11.1327C7.68192 10.3922 7.26976 9.46657 7.15915 8.48268C7.06124 7.5145 7.23435 6.53817 7.65915 5.66268C7.84915 5.23268 8.04915 4.80268 8.19915 4.37268C8.3607 3.92598 8.33913 3.43354 8.13914 3.00268ZM8.18915 3.00268C8.30064 3.21485 8.36788 3.44746 8.38679 3.68639C8.40569 3.92532 8.37588 4.16561 8.29914 4.39268C8.16914 4.85268 7.94914 5.27268 7.80914 5.72268C7.46862 6.57964 7.37172 7.51408 7.52915 8.42268C7.70521 9.30487 8.13233 10.1174 8.75915 10.7627C9.42432 11.4698 9.93514 12.3075 10.2591 13.2227C10.567 14.1633 10.6793 15.157 10.5891 16.1427C10.5597 17.1424 10.2552 18.1147 9.70914 18.9527C9.54201 19.1795 9.31279 19.3532 9.04914 19.4527C8.77898 19.5576 8.47931 19.5576 8.20914 19.4527C7.74664 19.2562 7.3409 18.9468 7.02915 18.5527C6.41033 17.8287 5.88612 17.029 5.46914 16.1727C5.03089 15.3256 4.69519 14.4293 4.46914 13.5027C4.33325 13.0354 4.29953 12.5444 4.37027 12.063C4.44102 11.5816 4.61457 11.1211 4.87914 10.7127C5.02914 10.5227 5.21915 10.3727 5.34915 10.2127C5.37726 10.1788 5.3983 10.1396 5.41103 10.0974C5.42376 10.0552 5.42792 10.0109 5.42326 9.96713C5.4186 9.92333 5.40522 9.8809 5.3839 9.84235C5.36259 9.80381 5.33377 9.76991 5.29914 9.74268C4.91708 9.52137 4.50664 9.35315 4.07915 9.24268C3.62474 9.10222 3.19591 8.88949 2.80914 8.61268C2.4114 8.30214 2.09841 7.89628 1.89914 7.43268C1.51223 6.51052 1.40782 5.49425 1.59915 4.51268C1.67158 4.00921 1.84761 3.52622 2.11612 3.0942C2.38462 2.66219 2.73977 2.29052 3.15915 2.00268C3.97036 1.49901 4.94316 1.32376 5.87914 1.51268C6.34946 1.57783 6.79987 1.74493 7.19887 2.0023C7.59787 2.25966 7.93584 2.60108 8.18915 3.00268Z" fill="#010101"/>
<path d="M17.0984 5.33264C17.8884 4.98264 20.6184 8.33264 20.3884 10.3326C20.3198 10.6744 20.3766 11.0294 20.5484 11.3326C20.9084 11.7926 21.5484 11.6126 21.7184 11.9626C21.8884 12.3126 21.1384 13.2126 21.0684 13.2926C19.9984 14.3926 18.7784 13.5126 16.3884 14.3726C15.7538 14.5771 15.1634 14.8994 14.6484 15.3226C14.1221 15.8017 13.6853 16.3706 13.3584 17.0026C12.5678 18.3172 11.3281 19.3012 9.86836 19.7726C7.48836 20.2426 4.70836 18.7726 4.49836 17.0026C4.26836 15.0026 7.39835 13.2126 8.63835 12.4726C11.3984 10.8426 12.7784 11.3426 14.6384 9.55264C15.6786 8.70366 16.4384 7.56048 16.8184 6.27264C16.8984 5.72264 16.8784 5.42264 17.0984 5.33264Z" fill="#D22434"/>
<path d="M17.079 5.30267C17.2094 5.28568 17.3418 5.2965 17.4676 5.33442C17.5935 5.37234 17.7098 5.4365 17.809 5.52266C18.018 5.66654 18.2123 5.83067 18.389 6.01267C18.7543 6.37777 19.0888 6.77244 19.389 7.19266C20.0485 8.02654 20.4639 9.02692 20.589 10.0827C20.589 10.3727 20.589 10.6227 20.589 10.8327C20.5972 10.9301 20.6254 11.0248 20.6718 11.1109C20.7183 11.1969 20.782 11.2724 20.859 11.3327C21.0591 11.4362 21.2757 11.5039 21.499 11.5327C21.5943 11.5532 21.6838 11.5943 21.7616 11.653C21.8393 11.7117 21.9033 11.7867 21.949 11.8727C22.0181 12.0564 22.0181 12.2589 21.949 12.4427C21.8488 12.712 21.7034 12.9622 21.519 13.1827C21.3496 13.4053 21.1473 13.6009 20.919 13.7627C20.4585 14.0602 19.9168 14.207 19.369 14.1827C18.3856 14.135 17.4012 14.2568 16.459 14.5427C15.9895 14.6871 15.5395 14.8886 15.119 15.1427C14.7025 15.4129 14.334 15.7509 14.029 16.1427C13.719 16.5327 13.479 16.9927 13.169 17.4127C12.8762 17.8324 12.5411 18.2211 12.169 18.5727C11.4471 19.3338 10.4948 19.8363 9.45904 20.0027C8.43212 20.1139 7.39439 19.9409 6.45904 19.5027C5.97398 19.2876 5.52793 18.9936 5.13904 18.6327C4.71096 18.2527 4.41062 17.7498 4.27904 17.1927C4.18251 16.6112 4.29973 16.0144 4.60904 15.5127C4.87818 15.0485 5.21524 14.6271 5.60904 14.2627C6.37692 13.5693 7.21863 12.9623 8.11904 12.4527C8.98575 11.9077 9.91603 11.4711 10.889 11.1527C11.8497 10.9207 12.7771 10.5679 13.649 10.1027C14.0655 9.83605 14.4512 9.52415 14.799 9.17267C15.1572 8.8329 15.4913 8.46869 15.799 8.08266C16.1245 7.69376 16.3784 7.25023 16.549 6.77266C16.6505 6.5232 16.7308 6.26562 16.789 6.00266L16.869 5.62266C16.899 5.52266 16.939 5.36267 17.079 5.30267ZM17.079 5.36267C16.879 5.48267 16.909 5.79267 16.849 6.03267C16.8011 6.28959 16.7376 6.54339 16.659 6.79266C16.4988 7.27894 16.277 7.74271 15.999 8.17267C15.6933 8.5917 15.3592 8.9893 14.999 9.36266C14.6569 9.75112 14.2786 10.1061 13.869 10.4227C13.0082 10.979 12.0673 11.4006 11.079 11.6727C10.1462 12.0243 9.25164 12.4699 8.40904 13.0027C7.55085 13.4911 6.74352 14.064 5.99904 14.7127C5.61929 14.9767 5.3103 15.33 5.09929 15.7415C4.88829 16.1531 4.78174 16.6102 4.78904 17.0727C4.93262 17.5194 5.17152 17.9296 5.48921 18.2749C5.80691 18.6202 6.19581 18.8924 6.62904 19.0727C7.49154 19.5205 8.45876 19.7278 9.42904 19.6727C10.4072 19.5606 11.3158 19.1115 11.999 18.4027C12.3682 18.0666 12.7032 17.6948 12.999 17.2927C13.309 16.8927 13.529 16.4227 13.849 16.0027C14.4869 15.1827 15.3481 14.5646 16.329 14.2227C17.2909 13.8739 18.3059 13.6946 19.329 13.6927C19.7892 13.7097 20.2433 13.584 20.629 13.3327C20.9862 13.0546 21.271 12.6944 21.459 12.2827C21.4763 12.2239 21.4763 12.1614 21.459 12.1027C21.459 12.1027 21.459 12.0427 21.309 12.0127C21.0368 11.9585 20.7762 11.857 20.539 11.7127C20.4141 11.612 20.3121 11.486 20.2397 11.3429C20.1673 11.1998 20.1261 11.0429 20.119 10.8827C20.119 10.5827 20.179 10.3027 20.169 10.0927C20.0986 9.08533 19.7526 8.11673 19.169 7.29266C18.9043 6.85953 18.5924 6.45708 18.239 6.09267C18.0671 5.91021 17.8797 5.74292 17.679 5.59267C17.6024 5.51789 17.5116 5.45906 17.4121 5.41958C17.3125 5.3801 17.2061 5.36075 17.099 5.36267H17.079Z" fill="#010101"/>
<path d="M7.64824 10.6127C7.34824 10.3727 7.86824 8.61265 8.97824 8.16265C9.52824 7.95265 9.63824 8.29265 10.2882 8.09265C10.9382 7.89265 11.1482 7.39265 12.5382 6.41265C12.8882 6.16265 13.1182 6.02265 13.2582 6.11265C13.3982 6.20265 13.3982 6.84265 13.2582 7.22265C13.1355 7.55584 12.9205 7.84719 12.6382 8.06265C12.203 8.37251 11.6825 8.54017 11.1482 8.54265C9.15824 8.71265 7.99824 10.9027 7.64824 10.6127Z" fill="#D22434"/>
<path d="M7.6292 10.6427C7.57867 10.5671 7.54456 10.4818 7.52905 10.3922C7.51355 10.3026 7.51701 10.2108 7.5392 10.1227C7.56286 9.9476 7.59624 9.774 7.6392 9.60265C7.72512 9.2491 7.8669 8.91152 8.0592 8.60265C8.25193 8.27785 8.54245 8.02233 8.8892 7.87265C9.08015 7.78627 9.29243 7.75843 9.4992 7.79265C9.64274 7.83433 9.79018 7.86114 9.9392 7.87265C10.5092 7.87265 11.0292 7.44265 11.5592 7.02265L12.3392 6.39265L12.7492 6.08265C12.8298 6.0481 12.9135 6.02132 12.9992 6.00265C13.0536 5.97004 13.1158 5.95282 13.1792 5.95282C13.2426 5.95282 13.3048 5.97004 13.3592 6.00265C13.4486 6.07753 13.5181 6.17326 13.5617 6.28139C13.6053 6.38952 13.6216 6.50673 13.6092 6.62265C13.6115 6.80835 13.588 6.99346 13.5392 7.17265C13.4474 7.55089 13.2537 7.89675 12.9792 8.17265C12.713 8.43627 12.3871 8.6318 12.0292 8.74265C11.7007 8.82269 11.3663 8.8762 11.0292 8.90265C10.4224 9.01773 9.84454 9.25227 9.3292 9.59265C9.04455 9.76093 8.7737 9.95152 8.5192 10.1627C8.3892 10.2627 8.2692 10.3727 8.1292 10.4727C7.9892 10.5727 7.8392 10.7227 7.6292 10.6427ZM7.6292 10.5927C7.7492 10.6427 7.8992 10.4927 8.0092 10.3927C8.1192 10.2927 8.2392 10.1527 8.3492 10.0227C8.55979 9.75223 8.78689 9.49507 9.0292 9.25265C9.51947 8.73069 10.1645 8.38012 10.8692 8.25265C11.1813 8.22611 11.4918 8.18272 11.7992 8.12265C12.0796 8.05407 12.34 7.92047 12.5592 7.73265C12.7956 7.53887 12.9781 7.28746 13.0892 7.00265C13.1399 6.85645 13.1768 6.70578 13.1992 6.55265C13.2175 6.44677 13.2175 6.33854 13.1992 6.23265C13.1992 6.23265 13.0092 6.23265 12.8792 6.32265C12.7367 6.39984 12.5998 6.48671 12.4692 6.58265C12.1901 6.76031 11.9289 6.9646 11.6892 7.19265C11.4392 7.41265 11.2292 7.66265 10.9692 7.90265C10.6955 8.16508 10.3452 8.33325 9.9692 8.38265C9.79326 8.40525 9.61515 8.40525 9.4392 8.38265C9.32103 8.35302 9.19737 8.35302 9.0792 8.38265C8.80439 8.48398 8.55518 8.64442 8.3492 8.85265C8.12601 9.08809 7.93745 9.35409 7.7892 9.64265C7.6975 9.78112 7.63897 9.93886 7.61816 10.1036C7.59735 10.2684 7.61481 10.4357 7.6692 10.5927H7.6292Z" fill="#010101"/>
<path d="M4.85944 8.94269C6.53944 8.05269 10.2594 9.61269 12.4394 11.1927C13.0094 11.6027 13.8994 12.3327 14.4394 12.0227C15.2994 11.5527 14.6994 9.19269 15.2294 9.02269C15.5694 8.92269 16.2294 9.72269 16.3494 10.6327C16.5194 11.8527 15.5894 12.8327 14.8494 13.7327C11.4494 17.8427 12.1894 19.6227 10.2294 20.2927C8.26944 20.9627 6.13944 19.8227 4.90944 18.5027C2.14944 15.5827 2.83944 10.0027 4.85944 8.94269Z" fill="#EC2428"/>
<path d="M4.85975 8.94263C5.70965 8.61186 6.64543 8.57316 7.51975 8.83264C8.39792 9.05033 9.25216 9.35517 10.0697 9.74264C10.8971 10.1276 11.69 10.5825 12.4397 11.1026C12.7941 11.3768 13.1685 11.6242 13.5597 11.8426C13.9397 12.0626 14.4397 12.1226 14.6697 11.7226C14.8503 11.3103 14.9358 10.8625 14.9197 10.4126V9.71264C14.9197 9.48264 14.9197 9.21264 15.1697 9.02264C15.2312 8.99878 15.2979 8.99177 15.3629 9.00231C15.428 9.01286 15.489 9.04059 15.5397 9.08264C15.64 9.14654 15.728 9.22782 15.7997 9.32263C15.956 9.49861 16.0841 9.69761 16.1797 9.91264C16.3847 10.3453 16.4544 10.8297 16.3797 11.3026C16.1233 12.1977 15.6491 13.0154 14.9997 13.6826C14.4142 14.3883 13.8732 15.1298 13.3797 15.9026C12.8922 16.686 12.4643 17.505 12.0997 18.3526C11.9219 18.7871 11.7008 19.2025 11.4397 19.5926C11.1606 19.9735 10.7688 20.2568 10.3197 20.4026C9.44049 20.6976 8.489 20.6976 7.60975 20.4026C6.73229 20.1095 5.92764 19.6322 5.24974 19.0026C4.55004 18.3781 4.00271 17.6016 3.64974 16.7326C3.29593 15.8599 3.09304 14.9334 3.04974 13.9926C2.9992 13.0559 3.10051 12.1171 3.34975 11.2126C3.54953 10.2929 4.08872 9.48236 4.85975 8.94263ZM4.85975 8.94263C4.10974 9.48714 3.5921 10.2939 3.40974 11.2026C3.17793 12.1167 3.1002 13.063 3.17975 14.0026C3.2612 15.8481 4.04884 17.5916 5.37974 18.8726C6.04835 19.4748 6.83506 19.9312 7.68975 20.2126C8.52919 20.4999 9.4403 20.4999 10.2797 20.2126C10.6846 20.0759 11.0351 19.8131 11.2797 19.4626C11.5388 19.0854 11.7598 18.6834 11.9397 18.2626C12.3202 17.4185 12.7614 16.603 13.2597 15.8226C13.7925 15.0468 14.3737 14.3053 14.9997 13.6026C15.6626 12.9639 16.1425 12.1594 16.3897 11.2726C16.4528 10.8173 16.3761 10.3535 16.1697 9.94263C16.0737 9.73624 15.9492 9.54437 15.7997 9.37264C15.6697 9.22264 15.4497 9.03263 15.2897 9.11263C15.1297 9.19263 15.1297 9.48264 15.1197 9.70264V10.4026C15.1424 10.8799 15.0534 11.3558 14.8597 11.7926C14.8003 11.906 14.7112 12.0011 14.6021 12.068C14.4929 12.1349 14.3677 12.1711 14.2397 12.1726C14.0004 12.1698 13.7659 12.1043 13.5597 11.9826C13.1535 11.7657 12.7685 11.5113 12.4097 11.2226C11.6471 10.6921 10.8409 10.2271 9.99974 9.83264C9.18807 9.43991 8.34094 9.12516 7.46974 8.89264C6.6143 8.64452 5.70117 8.68315 4.86975 9.00264L4.85975 8.94263Z" fill="#010101"/>
<path d="M5.24963 9.35268C6.91963 8.45268 10.6396 10.0227 12.8196 11.6027C13.3896 12.0127 14.2796 12.7327 14.8196 12.4227C15.6796 11.9527 15.0796 9.60268 15.6096 9.42268C15.9496 9.33268 16.6096 10.1327 16.7396 11.0327C16.8996 12.2627 15.9696 13.2427 15.2296 14.1427C11.8296 18.2527 12.5796 20.0327 10.6196 20.6927C8.65963 21.3527 6.51963 20.2227 5.28963 18.9127C2.53963 16.0027 3.22963 10.4427 5.24963 9.35268Z" fill="#D22434"/>
<path d="M5.22841 9.33267C6.08412 9.00037 7.02456 8.95475 7.90841 9.20267C8.80049 9.3877 9.67159 9.66243 10.5084 10.0227C11.3541 10.3884 12.1614 10.8373 12.9184 11.3627C13.2701 11.6278 13.6375 11.8716 14.0184 12.0927C14.3984 12.2927 14.7484 12.3327 14.9184 12.0327C15.082 11.6393 15.1702 11.2186 15.1784 10.7927V10.0927C15.1784 9.97267 15.1784 9.84267 15.2384 9.72267C15.2509 9.64137 15.2806 9.56366 15.3254 9.4947C15.3702 9.42574 15.4292 9.36709 15.4984 9.32267C15.5759 9.29152 15.6603 9.28159 15.7429 9.2939C15.8255 9.3062 15.9034 9.34029 15.9684 9.39267C16.0709 9.46892 16.1648 9.5561 16.2484 9.65267C16.4066 9.84198 16.5347 10.0545 16.6284 10.2827C16.8349 10.7291 16.9044 11.2267 16.8284 11.7127C16.5584 12.6167 16.0708 13.4408 15.4084 14.1127C14.8292 14.8209 14.3012 15.5694 13.8284 16.3527C13.3629 17.1437 12.9519 17.9656 12.5984 18.8127C12.4376 19.2566 12.2368 19.6851 11.9984 20.0927C11.7033 20.5095 11.2829 20.8212 10.7984 20.9827C9.89191 21.2926 8.90925 21.2996 7.99841 21.0027C7.09482 20.705 6.26363 20.2212 5.55841 19.5827C4.84211 18.9347 4.28441 18.1306 3.92841 17.2327C3.57027 16.3385 3.38042 15.3858 3.36841 14.4227C3.3429 13.4749 3.47123 12.5293 3.74841 11.6227C3.936 10.7003 4.46449 9.88257 5.22841 9.33267ZM5.22841 9.38267C4.4882 9.93108 3.98132 10.7378 3.80841 11.6427C3.60541 12.5377 3.55135 13.4601 3.64841 14.3727C3.77549 16.1653 4.56294 17.8471 5.85841 19.0927C6.50464 19.6669 7.25955 20.1055 8.07841 20.3827C8.87211 20.6746 9.73945 20.6991 10.5484 20.4527C11.3684 20.2327 11.7884 19.4527 12.1784 18.6127C12.5773 17.7663 13.0386 16.9507 13.5584 16.1727C14.0684 15.4027 14.6684 14.6927 15.2484 13.9827C15.9033 13.3529 16.3765 12.5584 16.6184 11.6827C16.6846 11.2413 16.6112 10.7902 16.4084 10.3927C16.3146 10.1971 16.1897 10.0181 16.0384 9.86267C15.9184 9.71267 15.6684 9.57267 15.6384 9.63267C15.6084 9.69267 15.5384 9.92267 15.5384 10.1327V10.8227C15.5699 11.3287 15.4843 11.8351 15.2884 12.3027C15.214 12.4378 15.1057 12.5512 14.9742 12.6318C14.8427 12.7125 14.6926 12.7576 14.5384 12.7627C14.272 12.7633 14.01 12.6944 13.7784 12.5627C13.3621 12.3484 12.9699 12.0902 12.6084 11.7927C11.8839 11.2646 11.1219 10.79 10.3284 10.3727C9.53729 9.95718 8.70646 9.62216 7.84841 9.37267C7.00915 9.08086 6.0954 9.08439 5.25841 9.38267H5.22841Z" fill="#010101"/>
<path d="M7.51897 1.61269C7.42897 1.05269 5.59897 0.712686 5.26897 1.23269C4.93897 1.75269 5.77897 2.23269 5.77897 3.44269C5.73336 3.91522 5.63611 4.38133 5.48897 4.83269C5.33897 5.72269 5.55897 6.32269 6.07897 7.98269C7.07897 11.1827 6.88897 10.9227 7.12897 11.4027C7.89897 12.8527 8.37897 12.6827 9.40897 14.2927C10.179 15.5127 10.959 16.7427 10.679 18.1327C10.5252 18.7082 10.2491 19.2438 9.86943 19.7029C9.48975 20.162 9.01547 20.5337 8.47897 20.7927C7.16245 20.499 5.91802 19.9447 4.81897 19.1627C3.81897 18.4627 1.33897 16.6927 1.26897 14.3227C1.20897 12.2227 3.09897 12.1227 3.89897 8.95269C4.52897 6.44269 3.61897 5.36269 4.68897 3.84269C5.75897 2.32269 7.59897 2.18269 7.51897 1.61269Z" fill="#D22434"/>
<path d="M7.48816 1.62268C7.41816 1.39268 7.16816 1.27268 6.93816 1.18268C6.70693 1.09188 6.46492 1.03138 6.21816 1.00268C5.97855 0.983465 5.73749 1.01063 5.50816 1.08268C5.40816 1.08268 5.30816 1.20268 5.28816 1.30268C5.27845 1.41398 5.30287 1.5256 5.35816 1.62268C5.61881 2.08178 5.79811 2.58249 5.88816 3.10268C5.93293 3.37418 5.93293 3.65118 5.88816 3.92268C5.83816 4.19268 5.74816 4.42268 5.70816 4.66268C5.63698 5.65537 5.81936 6.64985 6.23816 7.55268C6.56816 8.55268 6.84816 9.55268 7.11816 10.5527C7.16578 10.7857 7.23612 11.0134 7.32816 11.2327C7.43016 11.4556 7.55058 11.6697 7.68816 11.8727C7.98705 12.2785 8.32172 12.6567 8.68816 13.0027C9.02905 13.3919 9.33053 13.814 9.58816 14.2627C9.84816 14.7127 10.1282 15.1427 10.3482 15.6027C10.6137 16.0616 10.7794 16.5713 10.8345 17.0986C10.8897 17.6258 10.833 18.1588 10.6682 18.6627C10.2489 19.6261 9.51579 20.4192 8.58816 20.9127H8.52816C7.47803 20.7111 6.46584 20.3467 5.52816 19.8327C4.59398 19.3247 3.72154 18.7107 2.92816 18.0027C2.09064 17.2657 1.46278 16.3204 1.10816 15.2627C0.942776 14.6934 0.922151 14.0919 1.04816 13.5127C1.2148 12.9542 1.50149 12.4388 1.88816 12.0027C2.5885 11.2524 3.1294 10.3679 3.47816 9.40268C3.80701 8.41689 3.96264 7.38159 3.93816 6.34268C3.91588 5.79399 3.97314 5.24496 4.10816 4.71268C4.29085 4.18844 4.59596 3.71535 4.99816 3.33268C5.38379 2.97088 5.81797 2.6646 6.28816 2.42268L6.98816 2.08268C7.10352 2.02914 7.21394 1.96556 7.31816 1.89268C7.39816 1.83268 7.50816 1.74268 7.48816 1.62268ZM7.53816 1.62268C7.54389 1.69453 7.52907 1.76652 7.49543 1.83027C7.46179 1.89401 7.41071 1.94687 7.34816 1.98268C7.24107 2.06523 7.12735 2.13882 7.00816 2.20268L6.31816 2.56268C5.85947 2.7974 5.44901 3.11627 5.10816 3.50268C4.75918 3.87537 4.50832 4.32897 4.37816 4.82268C4.28602 5.33415 4.26917 5.85634 4.32816 6.37268C4.42063 7.46051 4.3087 8.55603 3.99816 9.60268C3.6478 10.6453 3.08225 11.6027 2.33816 12.4127C2.01251 12.7721 1.77009 13.1989 1.62816 13.6627C1.53539 14.1336 1.5525 14.6195 1.67816 15.0827C1.98479 16.0411 2.5363 16.9028 3.27816 17.5827C4.01936 18.2923 4.83012 18.9255 5.69816 19.4727C6.56745 20.0011 7.51137 20.3955 8.49816 20.6427H8.39816C9.27845 20.2308 9.98625 19.523 10.3982 18.6427C10.5797 18.1753 10.6382 17.6692 10.5682 17.1727C10.4852 16.6753 10.3196 16.1954 10.0782 15.7527C9.61337 14.8594 9.03158 14.0322 8.34816 13.2927C7.50757 12.645 6.89188 11.7495 6.58816 10.7327C6.31816 9.73268 5.97816 8.78268 5.69816 7.79268C5.54816 7.29268 5.39816 6.79268 5.28816 6.28268C5.15313 5.74774 5.15313 5.18762 5.28816 4.65268C5.34816 4.38268 5.46816 4.14268 5.52816 3.91268C5.58566 3.67727 5.60257 3.43378 5.57816 3.19268C5.52842 2.69208 5.38957 2.2044 5.16816 1.75268C5.11099 1.62053 5.09361 1.47456 5.11816 1.33268C5.14581 1.2653 5.18657 1.20409 5.23807 1.15259C5.28957 1.10109 5.35078 1.06033 5.41816 1.03268C5.66352 0.954982 5.92274 0.931106 6.17816 0.962679C6.45724 0.965034 6.73411 1.01231 6.99816 1.10268C7.19816 1.21268 7.45816 1.32268 7.53816 1.60268V1.62268Z" fill="#010101"/>
</svg>
