<svg width="411" height="432" viewBox="0 0 411 432" fill="none" xmlns="http://www.w3.org/2000/svg">
<g clip-path="url(#clip0_4970_617)">
<path d="M238.65 431.4C236.541 431.404 234.455 430.961 232.53 430.1C230.36 429.1 181.59 406.77 162.3 349.24C142.25 361.05 119.3 367.04 93.87 367.04C76.5874 367.093 59.4108 364.341 43.0101 358.89C40.3876 357.917 38.0895 356.23 36.3754 354.019C34.6614 351.808 33.5997 349.163 33.3101 346.38C33.0601 344.01 28.04 290.6 68.22 245.13C12.22 213.41 0.690025 149.41 0.220025 146.64C-0.247444 143.88 0.0667913 141.045 1.12713 138.454C2.18747 135.863 3.9516 133.621 6.22003 131.98C7.52003 130.98 38.6601 108.83 83.8801 108.83C93.1089 108.837 102.314 109.761 111.36 111.59C110.8 47.2003 160.49 5.25031 162.65 3.45031C164.804 1.66395 167.415 0.515896 170.188 0.135953C172.961 -0.24399 175.785 0.159338 178.34 1.30032C180.51 2.30032 229.28 24.6403 248.57 82.1603C268.57 70.3503 291.57 64.3703 317.01 64.3703C334.282 64.3023 351.449 67.0448 367.84 72.4903C370.464 73.4622 372.765 75.1488 374.481 77.3595C376.196 79.5702 377.26 82.2169 377.55 85.0003C377.79 87.3703 382.81 140.78 342.64 186.25C398.64 217.96 410.17 281.97 410.64 284.74C411.108 287.5 410.793 290.336 409.733 292.927C408.673 295.518 406.909 297.76 404.64 299.4C403.33 300.34 372.2 322.54 326.99 322.54C317.758 322.539 308.548 321.615 299.5 319.78C300.06 384.18 250.37 426.13 248.21 427.92C245.526 430.159 242.145 431.389 238.65 431.4Z" fill="#231F20"/>
<path d="M15 144.121C15 144.121 62.8101 109.451 124.7 130.741C189.7 153.071 205.43 215.741 205.43 215.741C205.43 215.741 144.7 268.111 79.03 233.971C25.55 206.131 15 144.121 15 144.121Z" fill="#FAF28C"/>
<path d="M150.14 242.651C182.75 235.231 205.44 215.701 205.44 215.701C205.44 215.701 189.66 153.071 124.71 130.701C62.82 109.411 15.01 144.081 15.01 144.081C15.01 144.081 147.96 138.951 150.14 242.651Z" fill="#EDD946"/>
<g style="mix-blend-mode:multiply">
<path d="M205.43 215.7C205.43 215.7 189.65 153.07 124.7 130.7C115.317 127.453 105.583 125.328 95.7001 124.37C182.81 172.49 185.14 229.14 185.14 229.14C192.313 225.312 199.107 220.812 205.43 215.7Z" fill="#EFCC6B"/>
</g>
<path d="M48.2299 344.82C48.2299 344.82 42.0999 286.09 91.4799 243.13C143.3 198.05 205.48 215.7 205.48 215.7C205.48 215.7 220.48 294.48 158.06 334.28C107.2 366.69 48.2299 344.82 48.2299 344.82Z" fill="#FAF28C"/>
<path d="M201.14 277.07C211.02 245.07 205.46 215.7 205.46 215.7C205.46 215.7 143.33 198.05 91.4599 243.13C42.0799 286.13 48.2099 344.82 48.2099 344.82C48.2099 344.82 110.22 227.09 201.14 277.07Z" fill="#EDD946"/>
<g style="mix-blend-mode:multiply">
<path d="M205.43 215.7C205.43 215.7 143.3 198.05 91.4301 243.13C83.9191 249.649 77.2058 257.034 71.4301 265.13C156.61 213.73 206.86 240.01 206.86 240.01C207.15 231.88 206.671 223.74 205.43 215.7Z" fill="#EFCC6B"/>
</g>
<path d="M238.65 416.4C238.65 416.4 184.72 392.34 172.21 328.1C159.07 260.68 205.43 215.7 205.43 215.7C205.43 215.7 281.14 242.11 284.43 316.05C287.07 376.26 238.65 416.4 238.65 416.4Z" fill="#FAF28C"/>
<path d="M256.41 250.12C233.68 225.59 205.41 215.7 205.41 215.7C205.41 215.7 159.05 260.7 172.19 328.1C184.7 392.34 238.63 416.4 238.63 416.4C238.63 416.4 167.69 303.85 256.41 250.12Z" fill="#EDD946"/>
<g style="mix-blend-mode:multiply">
<path d="M205.43 215.7C205.43 215.7 159.07 260.7 172.21 328.1C174.088 337.845 177.109 347.334 181.21 356.37C179.28 256.9 227.21 226.52 227.21 226.52C220.307 222.236 213.015 218.613 205.43 215.7Z" fill="#EFCC6B"/>
</g>
<path d="M395.85 287.281C395.85 287.281 348.05 321.951 286.15 300.671C221.15 278.331 205.43 215.671 205.43 215.671C205.43 215.671 266.14 163.341 331.83 197.491C385.3 225.281 395.85 287.281 395.85 287.281Z" fill="#FAF28C"/>
<path d="M260.73 188.761C228.11 196.181 205.43 215.701 205.43 215.701C205.43 215.701 221.2 278.341 286.15 300.701C348.05 321.981 395.85 287.311 395.85 287.311C395.85 287.311 262.89 292.491 260.73 188.761Z" fill="#EDD946"/>
<g style="mix-blend-mode:multiply">
<path d="M205.43 215.7C205.43 215.7 221.2 278.34 286.15 300.7C295.535 303.938 305.269 306.059 315.15 307.02C228.04 258.95 225.67 202.29 225.67 202.29C218.517 206.115 211.741 210.605 205.43 215.7Z" fill="#EFCC6B"/>
</g>
<path d="M362.63 86.5808C362.63 86.5808 368.75 145.321 319.37 188.281C267.56 233.361 205.43 215.701 205.43 215.701C205.43 215.701 190.43 136.931 252.84 97.1308C303.65 64.7108 362.63 86.5808 362.63 86.5808Z" fill="#FAF28C"/>
<path d="M209.74 154.34C199.86 186.29 205.43 215.7 205.43 215.7C205.43 215.7 267.56 233.36 319.37 188.28C368.75 145.28 362.63 86.5801 362.63 86.5801C362.63 86.5801 300.63 204.31 209.74 154.34Z" fill="#EDD946"/>
<g style="mix-blend-mode:multiply">
<path d="M205.43 215.7C205.43 215.7 267.56 233.36 319.37 188.28C326.88 181.76 333.593 174.376 339.37 166.28C254.14 217.73 203.91 191.49 203.91 191.49C203.65 199.59 204.159 207.697 205.43 215.7Z" fill="#EFCC6B"/>
</g>
<path d="M172.21 15C172.21 15 226.13 39.07 238.65 103.31C251.78 170.72 205.43 215.7 205.43 215.7C205.43 215.7 129.71 189.29 126.43 115.35C123.78 55.14 172.21 15 172.21 15Z" fill="#FAF28C"/>
<path d="M154.44 181.28C177.18 205.82 205.44 215.7 205.44 215.7C205.44 215.7 251.79 170.7 238.66 103.31C226.14 39.07 172.22 15 172.22 15C172.22 15 243.14 127.56 154.44 181.28Z" fill="#EDD946"/>
<g style="mix-blend-mode:multiply">
<path d="M205.43 215.7C205.43 215.7 251.78 170.7 238.65 103.31C236.774 93.5622 233.753 84.0698 229.65 75.0303C231.58 174.51 183.65 204.89 183.65 204.89C190.551 209.176 197.844 212.795 205.43 215.7Z" fill="#EFCC6B"/>
</g>
<path d="M222.34 86.5799C225.019 86.5799 227.19 84.4085 227.19 81.7299C227.19 79.0513 225.019 76.8799 222.34 76.8799C219.661 76.8799 217.49 79.0513 217.49 81.7299C217.49 84.4085 219.661 86.5799 222.34 86.5799Z" fill="white"/>
<path d="M361.2 244.201C364.243 244.201 366.71 241.734 366.71 238.691C366.71 235.648 364.243 233.181 361.2 233.181C358.157 233.181 355.69 235.648 355.69 238.691C355.69 241.734 358.157 244.201 361.2 244.201Z" fill="white"/>
<path d="M362.87 287.02C365.549 287.02 367.72 284.849 367.72 282.17C367.72 279.492 365.549 277.32 362.87 277.32C360.191 277.32 358.02 279.492 358.02 282.17C358.02 284.849 360.191 287.02 362.87 287.02Z" fill="white"/>
<path d="M310.3 115.35C312.979 115.35 315.15 113.179 315.15 110.5C315.15 107.822 312.979 105.65 310.3 105.65C307.621 105.65 305.45 107.822 305.45 110.5C305.45 113.179 307.621 115.35 310.3 115.35Z" fill="white"/>
<path d="M273.93 206.49C273.93 206.49 230.76 270.8 180.17 247.75C136.59 227.91 158.17 149.66 158.17 149.66L273.93 206.49Z" fill="#F8A33E"/>
<path d="M171.64 184.57C166 192.27 157.77 205.8 162.5 214C168.92 225.12 195.8 220.47 199.5 219.78C203.35 228.51 210.95 242.41 220.41 242.41C233.26 242.41 242.67 216.81 243.91 213.28C253.4 214.28 269.23 214.68 273.91 206.49C280.34 195.37 262.91 174.41 260.44 171.57C266.08 163.88 274.31 150.34 269.58 142.15C263.16 131.03 236.28 135.67 232.58 136.37C228.74 127.63 221.13 113.73 211.68 113.73C198.83 113.73 189.42 139.33 188.18 142.87C178.69 141.87 162.85 141.46 158.12 149.66C151.74 160.78 169.2 181.73 171.64 184.57Z" fill="#F68620"/>
<path d="M216.05 200.98C228.957 200.98 239.42 190.517 239.42 177.61C239.42 164.703 228.957 154.24 216.05 154.24C203.143 154.24 192.68 164.703 192.68 177.61C192.68 190.517 203.143 200.98 216.05 200.98Z" fill="#95281E"/>
<path d="M209.51 192.46C213.122 192.46 216.05 189.532 216.05 185.92C216.05 182.308 213.122 179.38 209.51 179.38C205.898 179.38 202.97 182.308 202.97 185.92C202.97 189.532 205.898 192.46 209.51 192.46Z" fill="white"/>
<path d="M224.14 172.831C226.885 172.831 229.11 170.605 229.11 167.861C229.11 165.116 226.885 162.891 224.14 162.891C221.395 162.891 219.17 165.116 219.17 167.861C219.17 170.605 221.395 172.831 224.14 172.831Z" fill="white"/>
<path d="M226.5 186.821C229.438 186.821 231.82 184.439 231.82 181.501C231.82 178.563 229.438 176.181 226.5 176.181C223.562 176.181 221.18 178.563 221.18 181.501C221.18 184.439 223.562 186.821 226.5 186.821Z" fill="white"/>
<path d="M206.64 173.06C209.319 173.06 211.49 170.889 211.49 168.21C211.49 165.532 209.319 163.36 206.64 163.36C203.961 163.36 201.79 165.532 201.79 168.21C201.79 170.889 203.961 173.06 206.64 173.06Z" fill="white"/>
<path d="M216.05 178.12C217.884 178.12 219.37 176.634 219.37 174.8C219.37 172.967 217.884 171.48 216.05 171.48C214.216 171.48 212.73 172.967 212.73 174.8C212.73 176.634 214.216 178.12 216.05 178.12Z" fill="white"/>
<path d="M211.175 80.0125C216.008 78.8272 218.059 70.2569 215.757 60.8701C213.455 51.4833 207.671 44.8346 202.838 46.0199C198.005 47.2052 195.954 55.7755 198.256 65.1623C200.558 74.5491 206.342 81.1978 211.175 80.0125Z" fill="white"/>
<path d="M325.03 103.72C334.695 103.72 342.53 99.6863 342.53 94.7102C342.53 89.7341 334.695 85.7002 325.03 85.7002C315.365 85.7002 307.53 89.7341 307.53 94.7102C307.53 99.6863 315.365 103.72 325.03 103.72Z" fill="white"/>
<path d="M380.445 278.704C385.826 275.598 386.27 266.294 381.438 257.924C376.605 249.554 368.326 245.287 362.945 248.394C357.564 251.5 357.12 260.804 361.952 269.174C366.785 277.544 375.064 281.811 380.445 278.704Z" fill="white"/>
</g>
<defs>
<clipPath id="clip0_4970_617">
<rect width="410.85" height="431.4" fill="white"/>
</clipPath>
</defs>
</svg>
