<svg width="892" height="345" viewBox="0 0 892 345" fill="none" xmlns="http://www.w3.org/2000/svg">
<g clip-path="url(#clip0_4858_609)">
<path d="M647.151 54.376C647.151 54.1092 647.151 53.7091 647.151 53.4423C647.151 53.3089 647.151 53.1755 647.151 53.0421C647.151 52.5086 647.151 51.9751 647.017 51.4415C647.017 51.3081 647.017 51.0414 647.017 50.908C646.884 49.9743 646.75 49.174 646.617 48.3737C646.484 47.3066 646.217 46.3729 645.95 45.5726C645.016 42.7715 643.548 40.7707 641.547 39.5702C639.412 38.3698 637.544 37.7029 635.809 37.4361C634.074 37.1693 631.406 37.0359 628.07 37.0359H590.175C608.055 20.763 621.265 8.75831 629.671 1.02197H581.101C579.367 2.62259 576.832 4.75675 573.763 7.55784C567.224 13.2934 560.019 19.6959 552.013 26.7653C544.007 33.8347 538.136 39.3035 534.266 42.9049C530.397 46.773 528.529 51.3081 528.529 56.6435C528.529 56.9103 528.529 57.3105 528.529 57.5772C528.796 62.5125 530.664 66.7808 534.266 70.3822C538.136 74.2504 542.539 76.1178 547.743 76.1178H627.803C631.139 76.1178 633.807 75.9844 635.409 75.7176C636.743 75.5842 638.478 75.0507 640.212 74.2504C640.613 74.117 640.879 73.9836 641.28 73.7168C642.214 73.1833 643.014 72.6497 643.682 71.8494C644.616 70.7824 645.416 69.4485 645.816 67.8479C646.75 65.0468 647.151 61.312 647.151 56.7769C647.151 55.8432 647.151 55.0429 647.151 54.376Z" fill="#F26B6C"/>
<path d="M647.151 63.6343C647.151 63.4811 647.151 63.2514 647.151 63.0982C647.151 63.0216 647.151 62.945 647.151 62.8684C647.151 62.5621 647.151 62.2557 647.017 61.9494C647.017 61.8728 647.017 61.7196 647.017 61.6431C646.884 61.107 646.75 60.6474 646.617 60.1879C646.484 59.5752 646.217 59.0391 645.95 58.5796C645.016 56.9713 643.548 55.8225 641.547 55.1333C639.412 54.444 637.544 54.0611 635.809 53.9079C634.074 53.7547 631.406 53.6781 628.07 53.6781H590.175C608.055 44.3347 621.265 37.442 629.671 33H581.101C579.367 33.919 576.832 35.1444 573.763 36.7527C567.224 40.0459 560.019 43.722 552.013 47.781C544.007 51.8401 538.136 54.9801 534.266 57.0479C530.397 59.2689 528.529 61.8728 528.529 64.9362C528.529 65.0894 528.529 65.3192 528.529 65.4723C528.796 68.306 530.664 70.7568 534.266 72.8246C538.136 75.0456 542.539 76.1178 547.743 76.1178H627.803C631.139 76.1178 633.807 76.0412 635.409 75.888C636.743 75.8114 638.478 75.5051 640.212 75.0456C640.613 74.969 640.879 74.8924 641.28 74.7392C642.214 74.4329 643.014 74.1265 643.682 73.667C644.616 73.0543 645.416 72.2885 645.816 71.3694C646.75 69.7611 647.151 67.6167 647.151 65.0128C647.151 64.4767 647.151 64.0172 647.151 63.6343Z" fill="#F26B6C"/>
<path d="M882.793 117.467H881.326L841.696 116.934H839.027H836.359L655.69 114.933H653.022H650.62L638.611 114.799C639.278 112.932 640.079 110.931 641.146 108.93C641.279 108.53 641.546 108.264 641.68 107.863C641.813 107.463 642.08 107.196 642.347 106.796C651.687 89.9898 673.037 69.982 700.924 56.6435C701.191 56.5102 701.324 56.5102 701.591 56.3768C701.725 56.2434 701.858 56.2434 702.125 56.11C702.125 56.11 702.125 56.11 702.258 56.11C702.392 55.9766 702.659 55.9766 702.792 55.8432C703.059 55.7099 703.192 55.7099 703.459 55.5765C705.194 54.7762 706.795 54.1092 708.53 53.3089C710.131 52.642 711.732 51.9751 713.467 51.3081C715.201 50.6412 717.069 49.9743 718.938 49.4408C719.071 49.4408 719.071 49.4408 719.204 49.3074C719.338 49.3074 719.605 49.174 719.738 49.174C719.872 49.0406 720.138 49.0406 720.405 49.0406C729.879 45.9727 739.887 43.7052 750.161 42.6381C750.561 42.6381 750.961 42.5047 751.362 42.5047C751.762 42.5047 752.162 42.3713 752.563 42.3713C753.096 42.3713 753.497 42.238 753.897 42.238C755.498 42.1046 757.099 41.9712 758.701 41.9712C759.101 41.9712 759.635 41.9712 760.035 41.9712C760.435 41.9712 760.969 41.9712 761.369 41.9712C762.437 41.9712 763.371 41.9712 764.438 41.9712C770.042 41.9712 775.647 42.3713 781.117 43.1717C785.921 43.8386 790.591 44.6389 795.261 45.8394C795.528 45.8394 795.795 45.9727 795.928 45.9727C796.195 45.9727 796.462 46.1061 796.729 46.1061C803.801 47.9735 810.739 50.3744 817.411 53.3089C817.678 53.4423 817.945 53.5757 818.212 53.7091C818.345 53.7091 818.612 53.8425 818.745 53.9758C818.745 53.9758 818.879 53.9758 818.879 54.1092C819.146 54.2426 819.413 54.376 819.546 54.5094C819.68 54.5094 819.813 54.6428 819.946 54.7762C821.414 55.4431 822.882 56.2434 824.35 56.9103C825.951 57.7106 827.552 58.6443 829.02 59.4446C830.488 60.2449 832.089 61.1786 833.557 62.1123C846.5 70.1154 858.242 80.2527 868.249 92.3907C868.516 92.7909 868.783 93.0577 869.183 93.4578C869.45 93.858 869.717 94.1247 869.984 94.5249C872.919 98.2597 875.721 102.128 878.257 106.129C879.724 109.731 881.192 113.466 882.527 117.2C882.66 116.934 882.793 117.2 882.793 117.467Z" fill="#603914"/>
<path d="M885.195 124.937C884.795 123.603 884.394 122.269 883.994 120.935C883.594 119.735 883.327 118.668 882.927 117.6C882.793 117.334 882.793 117.067 882.66 116.8C881.325 113.065 879.991 109.331 878.39 105.729C876.255 100.661 873.853 95.7253 871.185 90.9234C870.918 90.3899 870.517 89.723 870.251 89.1894C869.85 88.5225 869.45 87.8556 869.05 87.1886C866.781 83.1871 864.38 79.4523 861.844 75.7175C861.044 74.6504 860.376 73.5834 859.576 72.5163C858.909 71.5826 858.242 70.7823 857.574 69.8486C852.504 63.046 846.9 56.6435 840.895 50.7745C838.76 48.6404 836.492 46.5062 834.224 44.5054C833.556 44.372 832.889 44.2387 832.356 44.1053C831.955 43.9719 831.688 43.9719 831.288 43.8385C831.021 43.8385 830.754 43.7051 830.621 43.7051C830.487 43.7051 830.354 43.7051 830.221 43.5717C829.687 43.4384 829.287 43.4384 828.886 43.305C819.679 41.4376 810.339 40.2371 801.266 39.4368C800.999 39.4368 800.732 39.4368 800.332 39.3034C800.065 39.3034 799.798 39.3034 799.398 39.3034C785.654 38.1029 772.844 37.9696 762.17 37.8362C761.769 37.8362 761.236 37.8362 760.835 37.8362H759.501C758.434 37.8362 757.5 37.8362 756.432 37.8362C755.098 37.8362 753.497 37.8362 751.895 37.8362H749.36C745.624 37.8362 741.354 37.8362 736.684 37.9696C730.279 38.1029 722.94 38.5031 715.201 39.0366C714.934 39.0366 714.668 39.0366 714.401 39.17C714.134 39.17 713.867 39.17 713.6 39.17C706.261 39.837 698.522 40.6373 690.65 41.8377C690.383 41.8377 689.982 41.9711 689.716 41.9711C689.582 41.9711 689.315 41.9711 689.048 42.1045C688.915 42.1045 688.915 42.1045 688.782 42.1045C688.515 42.1045 688.114 42.2379 687.848 42.2379C687.714 42.2379 687.581 42.2379 687.447 42.2379C673.837 44.5054 659.827 47.9734 646.884 53.1755C645.149 53.8424 643.414 54.6427 641.68 55.3096C629.804 60.5116 618.996 67.3143 610.189 76.1177C604.719 81.5865 600.049 87.9889 596.446 95.1917C596.312 95.4585 596.179 95.7253 596.046 95.9921C595.912 96.2588 595.779 96.5256 595.645 96.7924C593.644 101.194 591.509 107.33 594.978 138.275C596.179 148.279 597.914 160.817 600.449 176.69C601.917 185.76 603.651 196.031 605.653 207.502C606.187 210.837 606.854 214.305 607.521 217.773C608.722 224.442 609.923 230.844 610.99 236.713C611.39 238.847 611.791 240.982 612.191 243.116C613.659 251.119 615.127 258.455 616.461 265.124C617.261 268.859 617.929 272.46 618.729 275.795C624.2 301.405 628.336 315.144 632.073 323.414C634.875 329.816 637.41 332.884 640.212 335.952C643.281 339.286 646.483 342.354 649.819 345.022H719.871C767.374 345.022 810.473 325.814 841.562 294.602C872.652 263.524 892 220.44 892 172.955C892 156.282 889.598 140.143 885.195 124.937Z" fill="#00A780"/>
<path d="M834.09 44.2385C833.69 43.8384 833.29 43.5716 832.889 43.1715C833.023 43.1715 833.023 43.0381 833.156 42.9047C833.156 42.9047 833.156 42.9047 833.023 42.9047L832.356 42.7713C832.222 42.7713 832.222 42.6379 832.089 42.6379C831.955 42.5045 831.822 42.3711 831.555 42.2378C831.555 42.1044 831.422 42.1044 831.422 42.1044C831.155 41.8376 830.888 41.5708 830.488 41.3041C829.954 40.9039 829.554 40.5038 829.02 40.1036C828.086 39.3033 827.152 38.503 826.084 37.7027C820.48 36.6356 814.742 35.7019 809.005 35.035C807.27 34.7682 805.669 34.6348 803.934 34.5014C803.668 34.5014 803.267 34.368 803 34.368C802.733 34.368 802.333 34.368 802.066 34.2347C795.662 33.5677 789.123 33.1676 782.719 32.9008H782.585C780.317 32.7674 777.915 32.7674 775.647 32.7674C771.377 32.7674 767.107 32.634 762.837 32.634C762.437 32.634 761.903 32.634 761.503 32.634H760.168C757.099 32.634 754.03 32.634 750.828 32.7674C750.428 32.7674 750.027 32.7674 749.627 32.7674C749.227 32.7674 748.827 32.7674 748.293 32.7674C736.551 33.0342 724.675 33.7011 712.933 35.1684C712.666 35.1684 712.399 35.1683 712.132 35.3017C711.866 35.3017 711.599 35.3017 711.332 35.4351C710.531 35.5685 709.864 35.5685 709.197 35.7019C706.795 35.9687 704.26 36.3688 701.858 36.769H701.591C697.055 37.4359 692.518 38.2362 688.115 39.1699C687.848 39.1699 687.447 39.3033 687.18 39.3033C687.047 39.3033 686.78 39.3033 686.647 39.4367C686.513 39.4367 686.38 39.4367 686.246 39.4367C685.98 39.4367 685.579 39.5701 685.312 39.5701C685.179 39.5701 685.179 39.5701 685.046 39.5701C676.372 41.4374 667.699 43.5716 659.293 46.5061H659.16C654.89 47.9733 650.62 49.4405 646.483 51.3079C645.95 51.5747 645.283 51.8415 644.749 52.1083C640.079 54.2424 635.408 56.51 630.872 59.1777C625.668 62.1121 620.597 65.5801 615.927 69.5817C613.525 71.5825 611.124 73.7166 608.989 75.9842C603.918 81.3196 599.515 87.3219 596.046 93.9912C595.912 94.2579 595.779 94.6581 595.645 94.9248C595.512 95.1916 595.379 95.5918 595.245 95.8585C595.112 95.9919 595.112 96.2587 594.978 96.3921C592.443 101.727 592.31 107.863 592.31 113.732C592.31 119.601 592.843 125.337 593.51 131.206C593.644 133.473 593.911 135.874 594.178 138.142C595.112 147.479 596.313 156.682 597.38 165.886C597.914 170.287 598.447 174.689 599.115 178.957C600.449 188.695 601.783 198.432 603.118 208.169C604.452 217.106 605.786 225.909 607.121 234.846L607.388 236.847C607.788 239.247 608.188 241.648 608.588 244.049C609.656 250.719 610.723 257.388 611.924 264.057C612.725 268.726 613.525 273.261 614.459 277.929C616.194 286.466 618.062 295.002 620.197 303.539C621.665 309.275 623.133 315.01 625.268 320.746C625.401 321.146 625.534 321.546 625.801 322.08C627.803 327.282 630.338 332.75 634.341 337.419C636.609 340.087 639.011 342.487 641.413 344.888H659.293C653.022 340.753 647.284 335.685 642.214 330.083C640.879 328.482 639.678 326.615 638.611 324.747C637.277 322.213 636.076 319.545 635.008 316.744C633.007 311.676 631.405 306.207 629.804 300.738C627.269 291.668 625.001 282.598 622.866 273.394C622.332 270.993 621.665 268.459 621.131 266.058C619.263 258.055 617.528 249.918 615.66 241.915C615.26 240.448 614.993 238.847 614.593 237.38C614.326 236.18 614.059 234.846 613.792 233.645C611.791 224.708 609.923 215.772 608.055 206.835C605.786 196.031 603.651 185.227 601.65 174.422C601.116 171.488 600.582 168.553 600.049 165.486C598.448 156.549 597.113 147.612 595.912 138.542C595.512 136.007 595.245 133.607 594.978 131.072C594.311 125.203 593.911 119.468 593.777 113.732C593.777 108.263 593.777 102.528 595.912 97.5925C596.046 97.4592 596.046 97.1924 596.179 97.059C596.179 96.9256 596.313 96.9256 596.313 96.7922C596.446 96.5255 596.579 96.2587 596.713 95.9919C600.449 88.5224 605.386 81.8531 611.124 76.1176C612.992 74.2502 614.993 72.3828 616.995 70.7822C625.801 63.8461 635.675 58.6441 645.95 54.9093C646.35 54.776 646.617 54.6426 647.017 54.5092C660.761 49.5739 675.171 46.5061 689.582 44.6387C689.716 44.6387 689.849 44.6387 690.116 44.6387C690.383 44.6387 690.783 44.5053 691.05 44.5053H691.183C691.45 44.5053 691.584 44.5053 691.851 44.3719C692.118 44.3719 692.384 44.2385 692.651 44.2385C698.389 43.5716 704.26 43.0381 709.998 42.6379C711.732 42.5045 713.333 42.5045 715.068 42.3711C715.335 42.3711 715.602 42.3711 715.735 42.3711C716.002 42.3711 716.269 42.3711 716.536 42.3711C727.477 41.8376 738.552 41.8376 749.494 42.1044C749.894 42.1044 750.294 42.1044 750.695 42.1044C751.095 42.1044 751.495 42.1044 751.896 42.1044C752.429 42.1044 752.83 42.1044 753.23 42.1044C754.831 42.1044 756.432 42.1044 758.033 42.2378C758.434 42.2378 758.834 42.2378 759.368 42.2378C759.768 42.2378 760.168 42.2378 760.569 42.2378C765.506 42.3711 770.443 42.5045 775.38 42.6379C777.114 42.7713 778.849 42.7713 780.584 42.9047C785.788 43.1715 790.858 43.4382 795.928 43.8384C796.195 43.8384 796.462 43.8384 796.729 43.8384C796.996 43.8384 797.263 43.8384 797.53 43.9718C806.336 44.6387 815.143 45.7058 823.682 47.173C824.083 47.173 824.483 47.3064 824.883 47.4398C825.017 47.4398 825.284 47.4398 825.417 47.5732C825.551 47.5732 825.817 47.5732 825.951 47.7065C826.351 47.7065 826.618 47.8399 826.885 47.8399C827.018 47.8399 827.018 47.8399 827.152 47.8399C831.288 48.6402 835.558 49.5739 839.694 50.5076C839.961 50.5076 840.095 50.641 840.362 50.641C838.627 48.3735 836.359 46.2393 834.09 44.2385Z" fill="black"/>
<path d="M883.994 120.802C855.306 139.209 808.071 154.148 764.171 156.415C688.515 160.284 604.185 127.337 596.446 96.6589C596.446 96.3921 596.312 96.1253 596.312 95.8585C596.179 95.5918 596.179 95.1916 596.179 94.9249C596.046 93.8578 595.912 92.7907 595.912 91.857C596.312 74.5169 622.999 57.9772 659.56 46.7729H659.693C667.833 44.2385 676.639 41.971 685.579 40.1036C685.713 40.1036 685.713 40.1036 685.846 40.1036C686.113 39.9702 686.513 39.9702 686.78 39.8368C686.913 39.8368 687.047 39.8368 687.047 39.8368C687.18 39.8368 687.447 39.7034 687.581 39.7034C687.847 39.5701 688.248 39.5701 688.515 39.5701C692.918 38.6364 697.455 37.8361 701.858 37.0357H702.125C705.327 36.5022 708.396 35.9687 711.599 35.5685C711.865 35.5685 712.132 35.5685 712.399 35.4351C712.666 35.4351 712.933 35.4351 713.2 35.3017C724.942 33.7011 736.817 32.7674 748.56 32.3673C748.96 32.3673 749.36 32.3673 749.894 32.3673C750.294 32.3673 750.694 32.3673 751.095 32.3673C754.297 32.2339 757.499 32.2339 760.702 32.2339C761.102 32.2339 761.636 32.2339 762.036 32.2339C762.437 32.2339 762.97 32.2339 763.371 32.2339C764.438 32.2339 765.372 32.2339 766.306 32.2339C771.643 32.3673 777.248 32.7674 782.852 33.1676C782.852 33.1676 782.852 33.1676 782.985 33.1676C789.123 33.7011 795.395 34.368 801.799 35.3017C802.066 35.3017 802.466 35.4351 802.733 35.4351C803 35.4351 803.4 35.5685 803.667 35.5685C812.341 36.769 820.88 38.3696 829.287 40.237C829.82 40.6371 830.221 41.0373 830.754 41.4375C831.021 41.7042 831.288 41.971 831.688 42.2378C831.822 42.2378 831.822 42.3712 831.822 42.3712C831.955 42.5045 832.089 42.6379 832.355 42.7713C832.355 42.7713 832.489 42.9047 832.622 42.9047L833.29 43.0381C833.29 43.0381 833.289 43.0381 833.423 43.0381C833.289 43.1715 833.29 43.1715 833.156 43.3048C833.556 43.705 833.957 43.9718 834.357 44.3719C836.625 46.3727 838.894 48.5069 841.029 50.641C847.033 56.6433 852.637 63.0458 857.708 69.7151C858.375 70.5154 859.042 71.4491 859.709 72.3828C860.51 73.4499 861.31 74.5169 861.978 75.584C864.513 79.3188 867.048 83.187 869.183 87.0551C869.583 87.7221 869.984 88.389 870.384 89.0559C870.651 89.5895 871.051 90.123 871.318 90.7899C873.987 95.5918 876.388 100.527 878.523 105.596C879.991 109.197 881.459 112.932 882.793 116.667C882.927 116.933 882.927 117.2 883.06 117.467C883.193 118.667 883.594 119.734 883.994 120.802Z" fill="#00A780"/>
<path d="M883.994 120.802C883.594 119.601 883.327 118.534 882.927 117.467C882.793 117.2 882.793 116.933 882.66 116.667C882.259 116.933 881.859 117.2 881.459 117.467C880.124 118.267 878.79 119.068 877.456 119.735C864.78 126.804 851.036 132.139 837.292 136.674C809.672 145.611 780.717 150.547 751.895 150.68C723.074 150.947 694.119 146.678 665.831 139.342C651.687 135.607 637.81 130.672 624.734 123.736C618.195 120.268 612.057 116.133 606.587 111.065C602.317 106.93 598.18 101.728 596.846 95.7253C596.846 95.4585 596.713 95.1917 596.713 94.9249C596.713 94.6582 596.579 94.258 596.579 93.9913C596.446 93.3243 596.446 92.524 596.446 91.8571C596.713 85.588 600.182 80.386 604.318 75.9843C605.386 74.9172 606.453 73.9835 607.521 73.0498C613.258 68.2479 619.663 64.5132 626.335 61.4453C627.936 60.645 629.537 59.9781 631.272 59.3111C634.741 57.8439 638.21 56.5101 641.813 55.3096C643.548 54.6427 645.282 54.1091 647.017 53.5756C653.955 51.4414 661.027 49.574 667.966 47.9734C674.904 46.5062 681.843 45.0389 688.915 43.8385C689.048 43.8385 689.182 43.8385 689.315 43.7051C689.582 43.7051 689.849 43.5717 690.249 43.5717C690.383 43.5717 690.383 43.5717 690.516 43.5717C690.783 43.5717 690.916 43.4383 691.183 43.4383C691.45 43.3049 691.717 43.3049 691.984 43.3049C699.323 42.1045 706.661 41.0374 714.134 40.1037C714.401 40.1037 714.667 40.1037 714.801 39.9703C715.068 39.9703 715.335 39.8369 715.601 39.8369C722.673 39.0366 729.612 38.3697 736.684 37.8362C740.82 37.5694 745.09 37.3026 749.227 37.0358C749.627 37.0358 750.027 37.0358 750.561 37.0358C750.961 37.0358 751.362 37.0358 751.762 37.0358C752.696 37.0358 753.763 36.9025 754.697 36.9025C756.432 36.7691 758.033 36.7691 759.768 36.7691C760.168 36.7691 760.702 36.7691 761.102 36.7691C761.502 36.7691 762.036 36.7691 762.437 36.7691C774.445 36.6357 786.454 37.0358 798.463 38.2363C798.997 38.2363 799.531 38.3697 800.198 38.3697C800.465 38.3697 800.865 38.3697 801.132 38.5031C801.399 38.5031 801.799 38.5031 802.066 38.6365C811.406 39.5702 820.613 40.904 829.82 42.638C830.354 42.7714 830.754 42.7714 831.288 42.9048C831.421 42.9048 831.555 42.9048 831.688 43.0382C831.955 43.0382 832.222 43.1716 832.489 43.1716C832.622 43.1716 832.756 43.1716 832.889 43.1716C832.756 43.1716 832.756 43.0382 832.622 43.0382C832.489 42.9048 832.355 42.7714 832.089 42.638C832.089 42.5046 831.955 42.5046 831.955 42.5046C831.688 42.2379 831.421 41.9711 831.021 41.7043C830.487 41.3042 830.087 40.904 829.553 40.5039C828.619 39.7035 827.685 38.9032 826.618 38.1029C826.217 37.8362 825.951 37.5694 825.55 37.3026C819.012 35.702 812.34 34.3681 805.669 33.1677C805.402 33.1677 805.002 33.0343 804.735 33.0343C804.468 33.0343 804.068 32.9009 803.801 32.9009C790.991 30.5 777.915 28.8994 764.838 28.2324C764.438 28.2324 763.904 28.2324 763.504 28.099C763.104 28.099 762.57 28.099 762.17 28.099C759.634 27.9657 757.233 27.9657 754.697 27.8323C753.363 27.8323 752.029 27.8323 750.694 27.8323H749.493C749.093 27.8323 748.559 27.8323 748.159 27.8323C735.75 27.9657 723.474 29.0327 711.198 30.9001C710.931 30.9001 710.664 31.0335 710.398 31.0335C710.131 31.0335 709.864 31.1669 709.597 31.1669C701.458 32.3674 693.452 34.1014 685.579 35.9688C685.179 36.1021 684.912 36.1021 684.512 36.2355C684.378 36.2355 684.245 36.3689 684.111 36.3689C683.978 36.3689 683.844 36.3689 683.711 36.5023C683.444 36.6357 683.044 36.6357 682.777 36.7691C682.777 36.7691 682.777 36.7691 682.644 36.7691C677.306 38.2363 671.835 39.8369 666.632 41.5709C659.96 43.8385 653.288 46.2394 646.75 48.9071C639.411 51.975 632.206 55.3096 625.267 59.3111C618.729 63.1793 612.324 67.1809 606.72 72.3829C605.252 73.7167 603.918 75.0506 602.584 76.5178C601.383 77.985 600.182 79.4523 599.114 81.1863C596.979 84.3875 595.512 88.2557 595.512 92.3906C595.512 93.7245 595.645 95.1917 595.912 96.3922C595.912 96.659 596.045 97.0591 596.045 97.3259C596.045 97.5927 596.179 97.8594 596.312 98.1262C596.846 100.127 597.78 101.994 598.714 103.728C600.716 107.063 603.117 110.131 605.786 112.932C610.99 118.534 617.261 122.936 623.533 127.071C636.209 135.341 649.952 141.61 664.096 146.945C692.117 157.616 722.14 162.818 752.162 163.085C782.318 163.218 812.074 157.082 840.495 147.212C854.639 142.143 868.516 136.008 881.592 128.004C882.793 127.204 884.127 126.404 885.328 125.604C884.795 123.603 884.394 122.135 883.994 120.802Z" fill="black"/>
<path d="M870.117 88.9226C869.983 90.2564 869.583 91.4569 869.049 92.7908C865.58 101.061 854.372 109.597 838.894 116.933C817.011 127.204 786.855 135.074 758.567 136.408C719.738 138.275 677.84 128.271 652.754 114.799C648.485 112.532 644.748 110.131 641.546 107.597C634.341 101.994 630.071 96.1254 630.204 90.3898C630.471 75.3173 660.76 61.1785 698.122 53.5756C698.389 53.5756 698.655 53.4422 698.789 53.4422C699.056 53.4422 699.189 53.3088 699.456 53.3088C699.723 53.3088 699.99 53.1754 700.123 53.1754C700.39 53.1754 700.657 53.042 700.79 53.042C704.793 52.2417 708.796 51.5748 712.799 51.0412C714.934 50.7745 716.936 50.5077 719.071 50.2409C719.338 50.2409 719.471 50.2409 719.738 50.1076C720.005 50.1076 720.138 50.1075 720.405 49.9742C730.279 48.7737 740.286 48.1068 750.027 47.9734C750.427 47.9734 750.828 47.9734 751.228 47.9734C751.628 47.9734 752.029 47.9734 752.429 47.9734C753.897 47.9734 755.364 47.9734 756.832 47.9734C757.233 47.9734 757.633 47.9734 758.167 47.9734C758.567 47.9734 758.967 47.9734 759.367 47.9734C759.634 47.9734 759.768 47.9734 760.035 47.9734C769.909 48.2402 780.583 49.1739 791.125 50.6411C791.391 50.6411 791.658 50.6411 791.792 50.7745C792.059 50.7745 792.325 50.7745 792.459 50.9079C799.798 51.9749 807.136 53.3088 814.208 55.0428C814.475 55.0428 814.876 55.1762 815.142 55.3096C815.409 55.3096 815.543 55.443 815.81 55.443H815.943C816.21 55.443 816.477 55.5763 816.744 55.5763C817.01 55.5763 817.144 55.7097 817.411 55.7097C821.28 56.6434 825.017 57.7105 828.619 58.7776C840.895 62.5124 851.57 67.0475 859.042 72.1161C859.843 73.1832 860.643 74.2502 861.31 75.3173C863.846 79.0521 866.381 82.9203 868.516 86.7884C869.316 87.5887 869.717 88.2557 870.117 88.9226Z" fill="black"/>
<path d="M870.117 88.9226C869.717 88.2557 869.316 87.5888 868.916 86.9218V87.0552C869.05 88.5225 868.783 90.1231 868.116 91.7237C867.315 94.1246 865.714 96.3922 863.445 98.9265C857.708 105.329 847.967 111.465 836.092 116.8C814.475 126.537 785.254 133.873 758.3 135.074C755.098 135.207 751.895 135.341 748.826 135.341C713.467 135.341 677.973 126.27 655.423 114.799C650.219 112.132 645.683 109.331 642.08 106.529C640.612 105.329 639.278 104.262 638.077 103.061C633.674 98.7931 631.405 94.5248 631.405 90.6566V90.5232C631.405 86.9218 633.54 83.1871 637.41 79.4523C648.218 69.1816 671.836 60.1115 699.056 54.7761C699.323 54.7761 699.59 54.6427 699.723 54.6427C699.99 54.6427 700.123 54.5093 700.39 54.5093C700.39 54.5093 700.39 54.5093 700.524 54.5093C700.791 54.5093 700.924 54.3759 701.191 54.3759C701.458 54.3759 701.725 54.2425 701.991 54.2425C703.993 53.8424 706.128 53.4422 708.129 53.1754C711.999 52.5085 716.002 51.975 720.005 51.4414C720.272 51.4414 720.405 51.4414 720.672 51.308C720.939 51.308 721.072 51.308 721.339 51.1747C731.08 49.9742 740.82 49.3073 750.561 49.1739C750.961 49.1739 751.362 49.1739 751.762 49.1739C752.162 49.1739 752.563 49.1739 752.963 49.1739C753.363 49.1739 753.63 49.1739 754.03 49.1739C754.964 49.1739 756.032 49.1739 756.966 49.1739C757.366 49.1739 757.766 49.1739 758.3 49.1739C758.7 49.1739 759.101 49.1739 759.501 49.1739C759.768 49.1739 760.168 49.1739 760.435 49.1739C770.443 49.4406 780.717 50.3743 790.858 51.7082C791.125 51.7082 791.392 51.8416 791.525 51.8416C791.792 51.8416 792.059 51.8416 792.192 51.975C799.531 53.042 806.736 54.3759 813.541 55.9765C813.808 56.1099 814.209 56.1099 814.475 56.2433C814.742 56.2433 814.876 56.3767 815.143 56.3767H815.276C815.543 56.3767 815.81 56.5101 816.077 56.5101C816.343 56.5101 816.477 56.6434 816.744 56.6434C822.615 58.1107 828.353 59.7113 833.556 61.4453C845.565 65.4469 855.439 70.1153 861.711 75.3173C860.91 74.2503 860.243 73.1832 859.442 72.1161C858.775 71.1824 858.108 70.3821 857.441 69.4484C849.035 64.2464 837.293 59.7113 824.349 56.2433C822.615 55.7097 820.88 55.3096 819.012 54.9094C818.879 54.776 818.612 54.7761 818.478 54.7761C818.212 54.6427 817.945 54.6427 817.678 54.5093H817.544C817.278 54.5093 817.144 54.3759 816.877 54.3759C816.61 54.2425 816.21 54.2425 815.943 54.1091C808.738 52.3751 801.266 51.0413 793.793 49.8408C793.527 49.8408 793.26 49.7074 793.126 49.7074C792.859 49.7074 792.592 49.574 792.326 49.574C781.384 47.9734 770.443 47.0397 760.569 46.7729C760.435 46.7729 760.302 46.7729 760.168 46.7729C759.768 46.7729 759.368 46.7729 758.967 46.7729C758.567 46.7729 758.167 46.7729 757.633 46.7729C756.032 46.7729 754.564 46.7729 752.963 46.7729C752.563 46.7729 752.162 46.7729 751.762 46.7729C751.362 46.7729 750.961 46.7729 750.561 46.7729C740.687 46.9063 730.413 47.7066 720.539 48.9071C720.272 48.9071 720.138 48.9071 719.871 49.0405C719.605 49.0405 719.471 49.0405 719.204 49.1739C719.071 49.1739 719.071 49.1739 718.937 49.1739C712.666 49.9742 706.528 51.0413 700.524 52.1084C700.257 52.1084 699.99 52.2417 699.723 52.2417C699.456 52.2417 699.189 52.3751 699.056 52.3751C698.789 52.3751 698.522 52.5085 698.389 52.5085C698.122 52.5085 697.988 52.6419 697.722 52.6419C675.972 57.177 656.491 63.8462 644.081 71.7159C642.881 72.5163 641.68 73.3166 640.612 74.1169C639.011 75.3173 637.543 76.5178 636.209 77.7183C634.074 79.8524 632.339 81.9866 631.272 84.1208C630.204 86.2549 629.537 88.3891 629.537 90.5232C629.404 95.1917 631.939 99.9936 636.876 104.929C638.21 106.263 639.678 107.597 641.413 108.797C644.081 110.798 647.284 112.932 650.753 114.799C673.303 127.471 711.599 137.875 749.36 137.875C752.562 137.875 755.765 137.742 758.967 137.608C788.056 136.141 819.546 127.871 841.963 116.933C852.237 111.865 860.51 106.263 865.714 100.527C867.715 98.2596 869.316 95.992 870.251 93.8579C870.784 92.7908 871.051 91.7237 871.318 90.6566C870.784 90.1231 870.384 89.5895 870.117 88.9226Z" fill="black"/>
<path d="M832.222 42.6379L832.089 42.7713C831.688 43.0381 831.422 43.3049 831.021 43.5716C829.553 44.7721 828.086 45.9726 826.351 47.4398C824.083 49.3072 821.548 51.4414 818.612 53.7089C818.212 53.9757 817.811 54.3758 817.411 54.6426C817.011 54.9094 816.61 55.3095 816.344 55.5763C815.943 55.8431 815.543 56.2432 815.276 56.51C813.808 57.7105 812.207 58.9109 810.739 60.2448C810.739 60.2448 810.739 60.2448 810.606 60.2448C809.005 61.5786 807.404 62.9125 805.669 64.2463C784.32 81.5864 766.44 96.1253 752.963 107.063C752.563 107.463 752.162 107.73 751.629 108.13C751.629 108.13 751.629 108.13 751.495 108.13L751.362 108.263C751.228 108.397 751.095 108.397 751.095 108.53L750.961 108.664V108.263C750.961 108.13 750.961 107.997 750.961 107.73V107.33C750.961 104.795 751.095 101.728 751.228 98.3929V98.2595V98.1261C751.362 95.8586 751.495 93.4576 751.629 90.9233C751.895 87.1885 752.296 83.0536 752.83 78.7853C753.096 76.5177 753.363 74.2502 753.764 71.9826C754.431 67.8477 755.098 63.446 756.032 58.9109C756.699 55.7097 757.366 52.5084 758.033 49.3072C758.167 48.907 758.167 48.5069 758.3 48.1067C758.434 47.7066 758.434 47.3064 758.567 46.9063C758.967 45.3056 759.234 43.705 759.635 42.1044C759.635 41.971 759.635 41.8376 759.768 41.7042C760.035 40.3704 760.435 39.0365 760.702 37.7027C760.835 37.3025 760.835 36.9024 760.969 36.5022C761.236 35.3018 761.636 34.1013 761.903 32.9008C762.036 32.6341 762.036 32.3673 762.036 32.2339C762.437 30.7667 762.837 29.2994 763.237 27.8322C765.105 21.163 767.374 14.7605 770.309 8.62476C770.71 8.75814 771.243 8.89153 771.644 9.02491C784.587 13.0265 796.862 18.6286 808.204 25.5647C808.471 25.698 808.738 25.8314 809.005 26.0982C809.272 26.2316 809.539 26.4983 809.805 26.6317C815.143 29.9664 820.347 33.4344 825.284 37.3025C825.684 37.5693 825.951 37.8361 826.351 38.1028C827.285 38.9032 828.353 39.7035 829.287 40.5038C829.82 40.9039 830.221 41.3041 830.754 41.7042C831.021 41.971 831.288 42.2378 831.688 42.5046C831.822 42.5046 831.822 42.6379 831.822 42.6379C831.955 42.3712 832.089 42.5046 832.222 42.6379Z" fill="#00A780"/>
<path d="M751.896 107.063C751.762 107.063 751.762 107.196 751.762 107.196L751.896 107.063L752.563 106.53C752.296 106.663 752.029 106.93 751.896 107.063ZM751.629 102.928C751.629 103.328 751.495 103.728 751.495 104.129C751.362 105.196 751.228 106.263 751.095 107.196C751.095 107.33 751.095 107.33 751.095 107.463V107.597C751.228 107.463 751.495 107.33 751.629 107.196C751.629 106.93 751.629 106.796 751.629 106.53C751.762 103.728 751.762 100.927 752.029 98.1263C751.895 99.8603 751.762 101.461 751.629 102.928ZM751.896 107.063C751.762 107.063 751.762 107.196 751.762 107.196L751.896 107.063L752.563 106.53C752.296 106.663 752.029 106.93 751.896 107.063ZM751.629 102.928C751.629 103.328 751.495 103.728 751.495 104.129C751.362 105.196 751.228 106.263 751.095 107.196C751.095 107.33 751.095 107.33 751.095 107.463V107.597C751.228 107.463 751.495 107.33 751.629 107.196C751.629 106.93 751.629 106.796 751.629 106.53C751.762 103.728 751.762 100.927 752.029 98.1263C751.895 99.8603 751.762 101.461 751.629 102.928ZM751.629 102.928C751.629 103.328 751.495 103.728 751.495 104.129C751.362 105.196 751.228 106.263 751.095 107.196C751.095 107.33 751.095 107.33 751.095 107.463V107.597C751.228 107.463 751.495 107.33 751.629 107.196C751.629 106.93 751.629 106.796 751.629 106.53C751.762 103.728 751.762 100.927 752.029 98.1263C751.895 99.8603 751.762 101.461 751.629 102.928ZM751.896 107.063C751.762 107.063 751.762 107.196 751.762 107.196L751.896 107.063L752.563 106.53C752.296 106.663 752.029 106.93 751.896 107.063ZM833.023 42.9049L832.356 42.7715C832.222 42.7715 832.222 42.6381 832.089 42.6381C831.955 42.5047 831.822 42.3713 831.555 42.238C831.555 42.1046 831.422 42.1046 831.422 42.1046C831.288 42.238 831.021 42.3713 830.888 42.5047C830.488 42.7715 830.221 43.0383 829.82 43.305C828.219 44.6389 826.751 45.8393 825.15 47.1732C824.75 47.44 824.35 47.8401 823.949 48.1069L817.811 53.3089L816.477 54.376L815.41 55.3097L814.342 56.2434L799.665 68.3814C784.853 80.7862 769.642 92.6575 754.431 104.796C753.764 105.329 753.096 105.863 752.429 106.396L752.296 106.53C752.029 106.663 751.895 106.93 751.629 107.063C751.495 107.063 751.495 107.196 751.495 107.196C751.495 107.33 751.495 107.597 751.495 107.73C751.495 107.863 751.495 107.997 751.495 108.13C751.495 108.264 751.495 108.397 751.495 108.53V108.797L751.095 108.53H750.961L750.828 108.397H750.695L750.561 108.264C750.561 108.264 750.561 108.264 750.695 108.13C750.828 107.997 750.962 107.997 751.095 107.863C751.095 107.863 751.095 107.863 751.228 107.863C751.362 107.73 751.629 107.597 751.762 107.463C751.762 107.196 751.762 107.063 751.762 106.796C751.896 103.995 751.896 101.194 752.162 98.393C752.162 98.2597 752.162 98.2597 752.162 98.1263C752.296 96.1255 752.429 94.1247 752.563 92.124C752.563 91.9906 752.563 91.9906 752.563 91.8572C752.963 87.7222 753.363 83.5873 753.897 79.5858C754.03 78.6521 754.164 77.7184 754.297 76.6513C755.632 67.5811 757.5 58.6443 759.501 49.5741C759.635 49.174 759.635 48.7738 759.768 48.3737C759.902 47.9735 759.901 47.5734 760.035 47.1732C760.168 46.3729 760.435 45.5726 760.569 44.6389C760.702 43.8386 760.969 43.1716 761.102 42.3713C761.102 42.238 761.236 41.9712 761.236 41.8378C761.503 40.5039 761.903 39.1701 762.17 37.8362C762.303 37.4361 762.303 37.0359 762.437 36.6358C762.704 35.4353 763.104 34.2348 763.371 33.0344C763.371 32.7676 763.504 32.5008 763.504 32.3675C763.904 30.9002 764.305 29.433 764.705 27.9658C766.173 23.1639 767.774 18.2286 769.642 13.6936C770.309 12.0929 770.976 10.6257 771.644 9.15846C771.243 9.02508 770.71 8.89169 770.309 8.75831C769.909 8.62492 769.375 8.49154 768.975 8.35815C768.308 9.82539 767.774 11.1592 767.107 12.6265C765.105 17.6951 763.371 22.7637 761.903 27.9658C761.503 29.433 761.102 30.9002 760.702 32.3675C760.702 32.6342 760.569 32.901 760.569 33.1678C760.302 34.3682 759.901 35.5687 759.635 36.7692C759.501 37.1693 759.501 37.5695 759.368 37.8362C758.967 39.1701 758.701 40.5039 758.434 41.9712C758.434 42.1046 758.434 42.238 758.3 42.3713C758.167 42.9049 758.033 43.4384 757.9 44.1053C757.633 45.1724 757.5 46.1061 757.233 47.1732C757.099 47.5734 757.099 47.9735 756.966 48.3737C756.833 48.7738 756.832 49.174 756.699 49.5741C755.498 55.0429 754.431 60.6451 753.63 66.2473C753.363 68.1146 752.963 69.982 752.83 71.8494C752.429 74.2504 752.162 76.5179 751.896 78.9188C750.828 87.989 750.161 97.1926 750.161 106.396C750.161 106.663 750.161 106.93 750.161 107.196V110.264L750.828 109.731H750.961L751.362 109.331L751.495 109.197L751.762 108.93C753.363 107.73 754.831 106.396 756.432 105.062C770.976 93.0576 785.521 80.9196 800.332 69.1817L816.077 56.6435L817.278 55.7098L818.479 54.7761L819.546 53.9758L825.284 49.4407C826.084 48.7738 826.751 48.2403 827.552 47.5734C829.02 46.3729 830.488 45.1724 831.955 44.1053C832.089 43.972 832.089 43.972 832.222 43.8386C832.489 43.5718 832.756 43.4384 833.023 43.1716C833.023 43.0383 833.023 43.0383 833.023 42.9049C833.156 42.9049 833.156 42.9049 833.023 42.9049ZM751.095 107.33C751.095 107.33 751.095 107.196 751.095 107.33V107.33Z" fill="black"/>
<path d="M831.822 42.238C831.689 42.3714 831.555 42.5047 831.422 42.6381C831.155 42.9049 830.755 43.1717 830.488 43.4384C829.02 44.6389 827.552 45.9728 825.951 47.3066C823.683 49.3074 821.281 51.3082 818.612 53.5757C818.212 53.8425 817.811 54.2426 817.411 54.6428C817.011 54.9096 816.744 55.3097 816.344 55.5765C815.943 55.8433 815.677 56.2434 815.276 56.5102C813.808 57.7106 812.341 59.0445 810.739 60.245C810.739 60.245 810.74 60.245 810.606 60.245C787.255 79.8526 767.374 95.7254 752.963 107.196C752.563 107.463 752.162 107.863 751.762 108.13C751.762 108.13 751.762 108.13 751.629 108.13L751.495 108.264C751.362 108.397 751.228 108.397 751.228 108.53L751.095 108.664L751.228 108.53C751.228 108.53 751.228 108.397 751.362 108.397C751.362 108.264 751.495 108.264 751.495 108.13C751.495 107.997 751.629 107.997 751.762 107.863L751.896 107.73C752.162 107.33 752.429 106.93 752.83 106.53C765.639 89.1895 778.582 71.0491 791.659 52.1085C791.925 51.7083 792.192 51.4415 792.326 51.0414C792.593 50.6412 792.86 50.3745 793.126 49.9743C794.06 48.5071 794.994 47.1732 796.062 45.706C796.462 45.0391 796.862 44.5055 797.396 43.8386C798.464 42.3714 799.398 40.7707 800.465 39.3035C800.732 38.9034 800.999 38.6366 801.132 38.2364C801.8 37.3027 802.333 36.369 803 35.5687C803.134 35.302 803.401 35.0352 803.534 34.7684C803.934 34.1015 804.335 33.568 804.735 32.901C806.203 30.6335 807.804 28.3659 809.272 26.0984C809.539 26.2318 809.805 26.4985 810.072 26.6319C815.41 29.9666 820.614 33.4346 825.551 37.3027C825.951 37.5695 826.218 37.8363 826.618 38.103C827.552 38.9034 828.62 39.7037 829.554 40.504C830.087 40.9041 830.488 41.3043 831.021 41.7044C831.288 41.9712 831.555 42.238 831.955 42.5047C831.689 42.1046 831.689 42.1046 831.822 42.238Z" fill="#188169"/>
<path d="M751.896 107.063C751.762 107.063 751.762 107.196 751.762 107.196L751.896 107.063L752.563 106.529C752.296 106.663 752.029 106.929 751.896 107.063ZM797.129 43.705C796.729 44.3719 796.329 44.9055 795.795 45.5724C794.861 47.0396 793.927 48.3735 792.86 49.8407C792.593 50.2409 792.326 50.5076 792.059 50.9078C791.792 51.3079 791.525 51.5747 791.392 51.9749C778.315 70.9155 765.372 89.0559 752.563 106.396L754.564 104.662C765.372 89.9896 775.78 74.9171 786.455 59.978C788.323 57.3103 790.191 54.6426 792.059 51.9749C792.326 51.5747 792.593 51.3079 792.86 50.9078C793.126 50.5076 793.393 50.2409 793.66 49.8407C794.594 48.5069 795.662 47.0396 796.596 45.7058C797.129 45.0388 797.53 44.3719 797.93 43.705C797.663 43.705 797.396 43.705 797.129 43.705ZM751.896 107.063C751.762 107.063 751.762 107.196 751.762 107.196L751.896 107.063L752.563 106.529C752.296 106.663 752.029 106.929 751.896 107.063ZM797.129 43.705C796.729 44.3719 796.329 44.9055 795.795 45.5724C794.861 47.0396 793.927 48.3735 792.86 49.8407C792.593 50.2409 792.326 50.5076 792.059 50.9078C791.792 51.3079 791.525 51.5747 791.392 51.9749C778.315 70.9155 765.372 89.0559 752.563 106.396L754.564 104.662C765.372 89.9896 775.78 74.9171 786.455 59.978C788.323 57.3103 790.191 54.6426 792.059 51.9749C792.326 51.5747 792.593 51.3079 792.86 50.9078C793.126 50.5076 793.393 50.2409 793.66 49.8407C794.594 48.5069 795.662 47.0396 796.596 45.7058C797.129 45.0388 797.53 44.3719 797.93 43.705C797.663 43.705 797.396 43.705 797.129 43.705ZM751.896 107.063C751.762 107.063 751.762 107.196 751.762 107.196L751.896 107.063L752.563 106.529C752.296 106.663 752.029 106.929 751.896 107.063ZM797.129 43.705C796.729 44.3719 796.329 44.9055 795.795 45.5724C794.861 47.0396 793.927 48.3735 792.86 49.8407C792.593 50.2409 792.326 50.5076 792.059 50.9078C791.792 51.3079 791.525 51.5747 791.392 51.9749C778.315 70.9155 765.372 89.0559 752.563 106.396L754.564 104.662C765.372 89.9896 775.78 74.9171 786.455 59.978C788.323 57.3103 790.191 54.6426 792.059 51.9749C792.326 51.5747 792.593 51.3079 792.86 50.9078C793.126 50.5076 793.393 50.2409 793.66 49.8407C794.594 48.5069 795.662 47.0396 796.596 45.7058C797.129 45.0388 797.53 44.3719 797.93 43.705C797.663 43.705 797.396 43.705 797.129 43.705ZM751.896 107.063C751.762 107.063 751.762 107.196 751.762 107.196L751.896 107.063L752.563 106.529C752.296 106.663 752.029 106.929 751.896 107.063ZM797.129 43.705C796.729 44.3719 796.329 44.9055 795.795 45.5724C794.861 47.0396 793.927 48.3735 792.86 49.8407C792.593 50.2409 792.326 50.5076 792.059 50.9078C791.792 51.3079 791.525 51.5747 791.392 51.9749C778.315 70.9155 765.372 89.0559 752.563 106.396L754.564 104.662C765.372 89.9896 775.78 74.9171 786.455 59.978C788.323 57.3103 790.191 54.6426 792.059 51.9749C792.326 51.5747 792.593 51.3079 792.86 50.9078C793.126 50.5076 793.393 50.2409 793.66 49.8407C794.594 48.5069 795.662 47.0396 796.596 45.7058C797.129 45.0388 797.53 44.3719 797.93 43.705C797.663 43.705 797.396 43.705 797.129 43.705ZM751.896 107.063C751.762 107.063 751.762 107.196 751.762 107.196L751.896 107.063L752.563 106.529C752.296 106.663 752.029 106.929 751.896 107.063ZM797.129 43.705C796.729 44.3719 796.329 44.9055 795.795 45.5724C794.861 47.0396 793.927 48.3735 792.86 49.8407C792.593 50.2409 792.326 50.5076 792.059 50.9078C791.792 51.3079 791.525 51.5747 791.392 51.9749C778.315 70.9155 765.372 89.0559 752.563 106.396L754.564 104.662C765.372 89.9896 775.78 74.9171 786.455 59.978C788.323 57.3103 790.191 54.6426 792.059 51.9749C792.326 51.5747 792.593 51.3079 792.86 50.9078C793.126 50.5076 793.393 50.2409 793.66 49.8407C794.594 48.5069 795.662 47.0396 796.596 45.7058C797.129 45.0388 797.53 44.3719 797.93 43.705C797.663 43.705 797.396 43.705 797.129 43.705ZM751.896 107.063C751.762 107.063 751.762 107.196 751.762 107.196L751.896 107.063L752.563 106.529C752.296 106.663 752.029 106.929 751.896 107.063ZM797.129 43.705C796.729 44.3719 796.329 44.9055 795.795 45.5724C794.861 47.0396 793.927 48.3735 792.86 49.8407C792.593 50.2409 792.326 50.5076 792.059 50.9078C791.792 51.3079 791.525 51.5747 791.392 51.9749C778.315 70.9155 765.372 89.0559 752.563 106.396L754.564 104.662C765.372 89.9896 775.78 74.9171 786.455 59.978C788.323 57.3103 790.191 54.6426 792.059 51.9749C792.326 51.5747 792.593 51.3079 792.86 50.9078C793.126 50.5076 793.393 50.2409 793.66 49.8407C794.594 48.5069 795.662 47.0396 796.596 45.7058C797.129 45.0388 797.53 44.3719 797.93 43.705C797.663 43.705 797.396 43.705 797.129 43.705ZM797.129 43.705C796.729 44.3719 796.329 44.9055 795.795 45.5724C794.861 47.0396 793.927 48.3735 792.86 49.8407C792.593 50.2409 792.326 50.5076 792.059 50.9078C791.792 51.3079 791.525 51.5747 791.392 51.9749C778.315 70.9155 765.372 89.0559 752.563 106.396L754.564 104.662C765.372 89.9896 775.78 74.9171 786.455 59.978C788.323 57.3103 790.191 54.6426 792.059 51.9749C792.326 51.5747 792.593 51.3079 792.86 50.9078C793.126 50.5076 793.393 50.2409 793.66 49.8407C794.594 48.5069 795.662 47.0396 796.596 45.7058C797.129 45.0388 797.53 44.3719 797.93 43.705C797.663 43.705 797.396 43.705 797.129 43.705ZM751.896 107.063C751.762 107.063 751.762 107.196 751.762 107.196L751.896 107.063L752.563 106.529C752.296 106.663 752.029 106.929 751.896 107.063ZM797.129 43.705C796.729 44.3719 796.329 44.9055 795.795 45.5724C794.861 47.0396 793.927 48.3735 792.86 49.8407C792.593 50.2409 792.326 50.5076 792.059 50.9078C791.792 51.3079 791.525 51.5747 791.392 51.9749C778.315 70.9155 765.372 89.0559 752.563 106.396L754.564 104.662C765.372 89.9896 775.78 74.9171 786.455 59.978C788.323 57.3103 790.191 54.6426 792.059 51.9749C792.326 51.5747 792.593 51.3079 792.86 50.9078C793.126 50.5076 793.393 50.2409 793.66 49.8407C794.594 48.5069 795.662 47.0396 796.596 45.7058C797.129 45.0388 797.53 44.3719 797.93 43.705C797.663 43.705 797.396 43.705 797.129 43.705ZM751.896 107.063C751.762 107.063 751.762 107.196 751.762 107.196L751.896 107.063L752.563 106.529C752.296 106.663 752.029 106.929 751.896 107.063ZM797.129 43.705C796.729 44.3719 796.329 44.9055 795.795 45.5724C794.861 47.0396 793.927 48.3735 792.86 49.8407C792.593 50.2409 792.326 50.5076 792.059 50.9078C791.792 51.3079 791.525 51.5747 791.392 51.9749C778.315 70.9155 765.372 89.0559 752.563 106.396L754.564 104.662C765.372 89.9896 775.78 74.9171 786.455 59.978C788.323 57.3103 790.191 54.6426 792.059 51.9749C792.326 51.5747 792.593 51.3079 792.86 50.9078C793.126 50.5076 793.393 50.2409 793.66 49.8407C794.594 48.5069 795.662 47.0396 796.596 45.7058C797.129 45.0388 797.53 44.3719 797.93 43.705C797.663 43.705 797.396 43.705 797.129 43.705ZM751.896 107.063C751.762 107.063 751.762 107.196 751.762 107.196L751.896 107.063L752.563 106.529C752.296 106.663 752.029 106.929 751.896 107.063ZM797.129 43.705C796.729 44.3719 796.329 44.9055 795.795 45.5724C794.861 47.0396 793.927 48.3735 792.86 49.8407C792.593 50.2409 792.326 50.5076 792.059 50.9078C791.792 51.3079 791.525 51.5747 791.392 51.9749C778.315 70.9155 765.372 89.0559 752.563 106.396L754.564 104.662C765.372 89.9896 775.78 74.9171 786.455 59.978C788.323 57.3103 790.191 54.6426 792.059 51.9749C792.326 51.5747 792.593 51.3079 792.86 50.9078C793.126 50.5076 793.393 50.2409 793.66 49.8407C794.594 48.5069 795.662 47.0396 796.596 45.7058C797.129 45.0388 797.53 44.3719 797.93 43.705C797.663 43.705 797.396 43.705 797.129 43.705ZM751.896 107.063C751.762 107.063 751.762 107.196 751.762 107.196L751.896 107.063L752.563 106.529C752.296 106.663 752.029 106.929 751.896 107.063ZM797.129 43.705C796.729 44.3719 796.329 44.9055 795.795 45.5724C794.861 47.0396 793.927 48.3735 792.86 49.8407C792.593 50.2409 792.326 50.5076 792.059 50.9078C791.792 51.3079 791.525 51.5747 791.392 51.9749C778.315 70.9155 765.372 89.0559 752.563 106.396L754.564 104.662C765.372 89.9896 775.78 74.9171 786.455 59.978C788.323 57.3103 790.191 54.6426 792.059 51.9749C792.326 51.5747 792.593 51.3079 792.86 50.9078C793.126 50.5076 793.393 50.2409 793.66 49.8407C794.594 48.5069 795.662 47.0396 796.596 45.7058C797.129 45.0388 797.53 44.3719 797.93 43.705C797.663 43.705 797.396 43.705 797.129 43.705ZM751.896 107.063C751.762 107.063 751.762 107.196 751.762 107.196L751.896 107.063L752.563 106.529C752.296 106.663 752.029 106.929 751.896 107.063ZM797.129 43.705C796.729 44.3719 796.329 44.9055 795.795 45.5724C794.861 47.0396 793.927 48.3735 792.86 49.8407C792.593 50.2409 792.326 50.5076 792.059 50.9078C791.792 51.3079 791.525 51.5747 791.392 51.9749C778.315 70.9155 765.372 89.0559 752.563 106.396L754.564 104.662C765.372 89.9896 775.78 74.9171 786.455 59.978C788.323 57.3103 790.191 54.6426 792.059 51.9749C792.326 51.5747 792.593 51.3079 792.86 50.9078C793.126 50.5076 793.393 50.2409 793.66 49.8407C794.594 48.5069 795.662 47.0396 796.596 45.7058C797.129 45.0388 797.53 44.3719 797.93 43.705C797.663 43.705 797.396 43.705 797.129 43.705ZM751.896 107.063C751.762 107.063 751.762 107.196 751.762 107.196L751.896 107.063L752.563 106.529C752.296 106.663 752.029 106.929 751.896 107.063ZM809.138 25.8314C808.872 25.698 808.605 25.4312 808.338 25.2979C806.737 27.6988 805.269 30.0997 803.668 32.5006C803.267 33.1676 802.867 33.8345 802.333 34.5014C802.2 34.7682 801.933 35.035 801.8 35.3017C801.266 36.2354 800.599 37.1691 799.931 38.1028C799.665 38.503 799.398 38.7697 799.264 39.1699C798.197 40.6371 797.263 42.2378 796.195 43.705C795.795 44.2385 795.395 44.9055 794.994 45.439C794.06 46.9062 793.126 48.3735 792.059 49.7073C791.792 50.1075 791.659 50.3742 791.392 50.7744C791.125 51.1746 790.858 51.4413 790.725 51.8415C788.99 54.3758 787.389 56.9101 785.654 59.311C774.846 75.3172 763.371 90.6565 751.896 106.129C751.762 106.263 751.762 106.396 751.629 106.529C751.495 106.796 751.228 107.063 751.095 107.196C751.095 107.196 751.095 107.33 750.962 107.33C750.962 107.33 750.962 107.33 750.828 107.463C750.695 107.596 750.695 107.73 750.561 107.863C750.561 107.863 750.561 107.997 750.428 107.997V108.13L750.294 108.263L750.161 108.397L750.028 108.53L749.894 108.664L747.092 112.398L750.161 109.997L750.828 109.464L751.228 109.064L751.362 108.93L750.962 108.397L750.695 108.13L750.561 107.997L750.695 107.863L751.095 107.596L751.228 107.463L751.762 107.063L751.896 106.929L752.563 106.396L752.696 106.263L754.698 104.529C765.506 89.8562 775.914 74.7837 786.588 59.8446C788.456 57.1769 790.324 54.5092 792.192 51.8415C792.459 51.4413 792.726 51.1746 792.993 50.7744C793.26 50.3742 793.527 50.1075 793.794 49.7073C794.728 48.3735 795.795 46.9062 796.729 45.5724C797.263 44.9055 797.663 44.2385 798.063 43.5716C799.131 42.1044 800.198 40.5037 801.132 39.0365C801.399 38.6364 801.666 38.3696 801.933 37.9694C802.6 37.0357 803.134 36.2354 803.801 35.3017C803.935 35.035 804.201 34.7682 804.468 34.368C804.869 33.7011 805.269 33.1676 805.669 32.5006C807.137 30.3665 808.605 28.2323 810.072 25.9648C809.672 26.0982 809.405 25.9648 809.138 25.8314ZM751.896 107.063C751.762 107.063 751.762 107.196 751.762 107.196L751.896 107.063L752.563 106.529C752.296 106.663 752.029 106.929 751.896 107.063ZM797.129 43.705C796.729 44.3719 796.329 44.9055 795.795 45.5724C794.861 47.0396 793.927 48.3735 792.86 49.8407C792.593 50.2409 792.326 50.5076 792.059 50.9078C791.792 51.3079 791.525 51.5747 791.392 51.9749C778.315 70.9155 765.372 89.0559 752.563 106.396L754.564 104.662C765.372 89.9896 775.78 74.9171 786.455 59.978C788.323 57.3103 790.191 54.6426 792.059 51.9749C792.326 51.5747 792.593 51.3079 792.86 50.9078C793.126 50.5076 793.393 50.2409 793.66 49.8407C794.594 48.5069 795.662 47.0396 796.596 45.7058C797.129 45.0388 797.53 44.3719 797.93 43.705C797.663 43.705 797.396 43.705 797.129 43.705ZM751.896 107.063C751.762 107.063 751.762 107.196 751.762 107.196L751.896 107.063L752.563 106.529C752.296 106.663 752.029 106.929 751.896 107.063ZM797.129 43.705C796.729 44.3719 796.329 44.9055 795.795 45.5724C794.861 47.0396 793.927 48.3735 792.86 49.8407C792.593 50.2409 792.326 50.5076 792.059 50.9078C791.792 51.3079 791.525 51.5747 791.392 51.9749C778.315 70.9155 765.372 89.0559 752.563 106.396L754.564 104.662C765.372 89.9896 775.78 74.9171 786.455 59.978C788.323 57.3103 790.191 54.6426 792.059 51.9749C792.326 51.5747 792.593 51.3079 792.86 50.9078C793.126 50.5076 793.393 50.2409 793.66 49.8407C794.594 48.5069 795.662 47.0396 796.596 45.7058C797.129 45.0388 797.53 44.3719 797.93 43.705C797.663 43.705 797.396 43.705 797.129 43.705ZM797.129 43.705C796.729 44.3719 796.329 44.9055 795.795 45.5724C794.861 47.0396 793.927 48.3735 792.86 49.8407C792.593 50.2409 792.326 50.5076 792.059 50.9078C791.792 51.3079 791.525 51.5747 791.392 51.9749C791.125 51.9749 790.858 51.8415 790.725 51.8415C788.99 54.3758 787.389 56.9101 785.654 59.311C774.846 75.3172 763.371 90.6565 751.896 106.129C751.762 106.263 751.762 106.396 751.629 106.529C751.629 106.796 751.629 106.929 751.629 107.196L751.762 107.063L752.429 106.529L752.563 106.396L754.564 104.662C765.372 89.9896 775.78 74.9171 786.455 59.978C788.323 57.3103 790.191 54.6426 792.059 51.9749C792.326 51.5747 792.593 51.3079 792.86 50.9078C793.126 50.5076 793.393 50.2409 793.66 49.8407C794.594 48.5069 795.662 47.0396 796.596 45.7058C797.129 45.0388 797.53 44.3719 797.93 43.705C797.663 43.705 797.396 43.705 797.129 43.705ZM832.489 42.7713C832.356 42.7713 832.356 42.6379 832.222 42.6379C832.089 42.5045 831.955 42.3711 831.689 42.2378C831.689 42.1044 831.555 42.1044 831.555 42.1044C831.288 41.8376 831.021 41.5708 830.621 41.3041C830.221 41.5708 829.954 41.971 829.554 42.2378C829.287 42.5045 828.886 42.7713 828.62 43.0381C827.152 44.3719 825.684 45.7058 824.083 46.9062C821.814 48.907 819.413 50.9078 817.144 52.9086C816.611 53.3087 816.21 53.7089 815.677 54.109C815.276 54.3758 814.876 54.7759 814.609 55.0427C814.209 55.3095 813.942 55.7096 813.542 55.9764C808.872 59.978 804.201 63.8461 799.531 67.7143L754.698 104.795C754.698 104.795 754.698 104.929 754.564 104.929C754.031 105.729 753.497 106.396 752.963 107.196C752.963 107.196 752.963 107.196 752.83 107.33C752.429 107.863 752.029 108.397 751.629 108.93C751.629 108.93 751.495 109.064 751.495 109.197L751.362 109.33L751.495 109.197L751.762 109.064L756.432 105.329L800.866 69.8485C806.203 65.5801 811.407 61.3118 816.744 56.9101C817.144 56.6433 817.545 56.3766 817.812 55.9764C818.212 55.7096 818.612 55.3095 818.879 55.0427C819.146 54.7759 819.546 54.5092 819.813 54.2424C822.482 52.1082 825.017 49.8407 827.552 47.7065C828.886 46.5061 830.354 45.3056 831.689 44.1051C831.822 43.9718 831.822 43.9718 831.955 43.8384C832.222 43.705 832.489 43.4382 832.623 43.1714C832.756 43.1714 832.756 43.0381 832.889 43.0381L832.489 42.7713ZM792.192 52.1082C792.459 51.7081 792.726 51.4413 792.993 51.0412C793.26 50.641 793.527 50.3742 793.794 49.9741C794.728 48.6402 795.795 47.173 796.729 45.8391C797.263 45.1722 797.663 44.5053 798.063 43.8384C797.797 43.8384 797.53 43.8384 797.263 43.705C796.863 44.3719 796.462 44.9055 795.929 45.5724C794.994 47.0396 794.06 48.3735 792.993 49.8407C792.726 50.2409 792.459 50.5076 792.192 50.9078C791.926 51.3079 791.659 51.5747 791.525 51.9749C791.258 51.9749 790.992 51.8415 790.858 51.8415C789.123 54.3758 787.522 56.9101 785.788 59.311C774.98 75.3172 763.504 90.6565 752.029 106.129C751.896 106.263 751.896 106.396 751.762 106.529C751.762 106.796 751.762 106.929 751.762 107.196L751.896 107.063L752.563 106.529L752.696 106.396L754.698 104.662C765.506 89.9896 775.914 74.9171 786.588 59.978C788.456 57.4436 790.324 54.7759 792.192 52.1082ZM797.129 43.705C796.729 44.3719 796.329 44.9055 795.795 45.5724C794.861 47.0396 793.927 48.3735 792.86 49.8407C792.593 50.2409 792.326 50.5076 792.059 50.9078C791.792 51.3079 791.525 51.5747 791.392 51.9749C778.315 70.9155 765.372 89.0559 752.563 106.396L754.564 104.662C765.372 89.9896 775.78 74.9171 786.455 59.978C788.323 57.3103 790.191 54.6426 792.059 51.9749C792.326 51.5747 792.593 51.3079 792.86 50.9078C793.126 50.5076 793.393 50.2409 793.66 49.8407C794.594 48.5069 795.662 47.0396 796.596 45.7058C797.129 45.0388 797.53 44.3719 797.93 43.705C797.663 43.705 797.396 43.705 797.129 43.705ZM751.896 107.063C751.762 107.063 751.762 107.196 751.762 107.196L751.896 107.063L752.563 106.529C752.296 106.663 752.029 106.929 751.896 107.063ZM797.129 43.705C796.729 44.3719 796.329 44.9055 795.795 45.5724C794.861 47.0396 793.927 48.3735 792.86 49.8407C792.593 50.2409 792.326 50.5076 792.059 50.9078C791.792 51.3079 791.525 51.5747 791.392 51.9749C778.315 70.9155 765.372 89.0559 752.563 106.396L754.564 104.662C765.372 89.9896 775.78 74.9171 786.455 59.978C788.323 57.3103 790.191 54.6426 792.059 51.9749C792.326 51.5747 792.593 51.3079 792.86 50.9078C793.126 50.5076 793.393 50.2409 793.66 49.8407C794.594 48.5069 795.662 47.0396 796.596 45.7058C797.129 45.0388 797.53 44.3719 797.93 43.705C797.663 43.705 797.396 43.705 797.129 43.705ZM751.896 107.063C751.762 107.063 751.762 107.196 751.762 107.196L751.896 107.063L752.563 106.529C752.296 106.663 752.029 106.929 751.896 107.063Z" fill="black"/>
<path d="M752.963 78.7853C752.963 83.3204 752.83 87.5887 752.563 91.5903C752.563 91.7236 752.563 91.7236 752.563 91.857C752.429 93.9912 752.296 95.992 752.163 97.8593C752.163 97.9927 752.163 97.9927 752.163 98.1261C752.029 99.8601 751.896 101.461 751.762 102.928C751.762 103.328 751.629 103.728 751.629 104.128C751.495 105.196 751.362 106.263 751.229 107.196C751.229 107.33 751.229 107.33 751.229 107.463V107.596C751.229 107.596 751.229 107.596 751.229 107.73C751.229 107.863 751.229 107.997 751.229 108.13V108.263V108.397C751.229 108.263 751.095 108.263 751.095 108.263L750.962 108.13L750.828 107.997L750.695 107.863C750.295 107.463 749.894 107.063 749.627 106.663C737.752 93.9912 721.873 76.9179 703.193 56.6434C702.926 56.3766 702.659 56.1098 702.392 55.8431C701.992 55.3095 701.458 54.9094 701.058 54.3758C700.791 53.9757 700.391 53.7089 700.124 53.3087C699.857 52.9086 699.457 52.6418 699.19 52.2417C698.789 51.8415 698.389 51.308 697.989 50.9078C695.72 48.5069 693.586 46.2393 691.717 44.1052C691.451 43.8384 691.184 43.5716 690.917 43.3049C690.383 42.7713 689.983 42.2378 689.449 41.7042C688.782 40.9039 688.115 40.237 687.448 39.4367L687.314 39.3033C686.113 38.1029 685.179 36.9024 684.112 35.8353C668.5 19.6957 665.965 16.7612 663.296 13.0265C660.894 9.55846 658.359 5.5569 656.091 0.888428H719.872C727.344 0.888428 734.683 1.42197 741.888 2.22228C742.422 2.22228 742.956 2.35566 743.489 2.48905C746.292 10.6255 748.16 18.8954 749.36 27.432C749.627 29.0327 749.761 30.6333 750.028 32.2339C750.028 32.5007 750.028 32.7675 750.161 33.0342C750.295 34.3681 750.428 35.5685 750.561 36.9024C750.561 37.1692 750.561 37.3025 750.561 37.5693C750.695 39.0365 750.828 40.5038 750.962 41.971C750.962 42.1044 750.962 42.1044 750.962 42.2378C751.095 43.705 751.229 45.3056 751.362 46.9063C751.362 47.3064 751.362 47.7066 751.495 48.1067C751.495 48.5069 751.629 48.907 751.629 49.3072C751.896 52.3751 752.029 55.4429 752.296 58.5108C752.563 63.0459 752.83 67.4476 752.83 71.5825C752.963 73.9834 752.963 76.3844 752.963 78.7853Z" fill="#00A780"/>
<path d="M750.161 106.796C749.894 106.529 749.627 106.263 749.36 105.996C749.36 106.129 749.494 106.129 749.494 106.263L750.161 106.93L750.428 107.196V107.063C750.428 106.93 750.294 106.93 750.161 106.796ZM751.095 107.73C751.095 107.596 751.095 107.596 751.095 107.73C751.095 107.863 751.228 107.863 751.228 107.997C751.228 107.863 751.228 107.73 751.095 107.73ZM750.428 106.529C750.428 106.663 750.428 106.93 750.428 107.063C750.561 107.196 750.828 107.463 750.962 107.596V107.33C750.828 107.063 750.695 106.796 750.428 106.529ZM753.764 65.8469C753.63 60.2448 753.363 54.6426 752.83 49.1738C752.83 48.7737 752.83 48.3735 752.696 47.9733C752.696 47.5732 752.696 47.173 752.563 46.7729C752.429 45.5724 752.429 44.5053 752.296 43.3049C752.296 42.9047 752.162 42.5046 752.162 42.1044V41.971C752.029 40.5038 751.896 39.0365 751.762 37.5693C751.762 37.3025 751.762 37.0358 751.629 36.9024C751.495 35.5685 751.362 34.3681 751.228 33.0342C751.228 32.7674 751.228 32.5007 751.095 32.2339C750.962 30.6333 750.695 29.0327 750.428 27.432C749.627 21.8299 748.56 16.3611 747.225 10.8923C746.558 8.2246 745.624 5.42352 744.69 2.75582C744.156 2.62243 743.756 2.62243 743.222 2.62243C742.689 2.48905 742.155 2.48905 741.621 2.35566C742.689 5.42352 743.756 8.49137 744.557 11.5592C745.891 16.7612 746.959 22.0966 747.759 27.432C748.026 29.0327 748.16 30.6333 748.426 32.2339C748.426 32.5007 748.426 32.7674 748.56 33.0342C748.693 34.3681 748.827 35.5685 748.96 36.9024C748.96 37.0358 748.96 37.3025 748.96 37.5693C749.093 39.0365 749.227 40.5038 749.36 41.971C749.36 42.1044 749.36 42.2378 749.36 42.3712C749.36 42.7713 749.494 43.1715 749.494 43.5716C749.627 44.6387 749.627 45.8392 749.761 46.9063C749.761 47.3064 749.894 47.7066 749.894 48.1067C749.894 48.5069 749.894 48.907 750.028 49.3072C750.828 58.244 751.495 67.1808 751.495 76.1176C751.495 76.9179 751.495 77.8516 751.495 78.6519C751.495 82.7868 751.495 86.9218 751.228 91.0567C751.095 93.4576 750.962 95.8586 750.828 98.2595V98.2595V98.3929C750.561 101.061 750.428 103.728 750.028 106.529C750.028 106.663 750.028 106.93 750.028 107.063C750.161 107.196 750.428 107.463 750.561 107.596C750.561 107.596 750.695 107.596 750.695 107.73C750.695 107.73 750.828 107.863 750.828 107.997L750.962 108.13L750.561 108.263H750.428L750.028 108.397V108.263C750.028 108.13 750.028 107.997 750.028 107.863C750.028 107.73 750.028 107.596 750.028 107.463C750.028 107.33 750.028 107.196 750.028 106.93V106.796C750.028 106.663 749.894 106.663 749.761 106.529C749.494 106.263 749.227 105.996 748.96 105.729C748.426 105.062 747.759 104.529 747.225 103.862C746.425 103.061 745.758 102.261 744.957 101.461C732.414 88.1222 719.738 74.9171 707.329 61.3118L701.858 55.4429L700.657 54.1091L698.789 52.1083L691.317 43.9718L690.516 43.1715L689.049 41.5709L687.047 39.3033L686.914 39.1699L685.579 37.7027C684.912 37.0358 684.245 36.2355 683.711 35.5685C680.109 31.7004 676.506 27.6988 672.903 23.6973C672.77 23.5639 672.77 23.4305 672.636 23.2971C669.834 20.0959 667.166 16.8946 664.497 13.56C664.097 13.1599 663.83 12.6263 663.563 12.2262C661.695 8.89153 659.293 4.88998 657.292 0.888428H654.756C655.023 1.42197 655.29 1.95551 655.557 2.62243C657.825 7.02414 660.494 11.4258 663.563 15.4274C668.9 22.0966 674.638 28.099 680.375 34.2347C681.043 34.9016 681.71 35.7019 682.377 36.3688C683.178 37.3025 684.112 38.2362 685.046 39.1699L685.579 39.8369L685.713 39.9702L687.714 42.1044L689.182 43.5716L689.983 44.3719L697.722 52.5084L698.656 53.5755L699.59 54.6426L701.058 56.2432L706.795 62.3789C720.139 76.3844 733.082 90.7899 746.158 105.062C747.359 106.396 748.426 107.596 749.627 108.797C749.761 108.93 749.761 108.93 749.894 109.064C750.028 109.197 750.028 109.197 750.161 109.33L750.561 109.731L751.095 110.398V110.264L751.228 109.197V109.064V108.93V108.664V108.53C751.228 108.397 751.228 108.263 751.228 108.13C751.228 107.997 751.228 107.73 751.228 107.596C751.228 107.463 751.228 107.196 751.228 107.063C751.228 106.796 751.362 106.396 751.362 106.129C752.563 97.1924 753.096 88.2556 753.23 79.1854C753.23 76.7845 753.23 74.2502 753.23 71.8493C753.897 69.8485 753.764 67.8477 753.764 65.8469ZM750.428 106.529C750.428 106.663 750.428 106.93 750.428 107.063C750.561 107.196 750.828 107.463 750.962 107.596V107.33C750.828 107.063 750.695 106.796 750.428 106.529ZM751.095 107.73C751.095 107.596 751.095 107.596 751.095 107.73C751.095 107.863 751.228 107.863 751.228 107.997C751.228 107.863 751.228 107.73 751.095 107.73ZM750.161 106.796C749.894 106.529 749.627 106.263 749.36 105.996C749.36 106.129 749.494 106.129 749.494 106.263L750.161 106.93L750.428 107.196V107.063C750.428 106.93 750.294 106.93 750.161 106.796ZM750.161 106.796C749.894 106.529 749.627 106.263 749.36 105.996C749.36 106.129 749.494 106.129 749.494 106.263L750.161 106.93L750.428 107.196V107.063C750.428 106.93 750.294 106.93 750.161 106.796Z" fill="black"/>
<path d="M750.962 108.664C750.828 108.53 750.695 108.397 750.695 108.397C750.695 108.263 750.561 108.263 750.428 108.13L750.295 107.997L750.161 107.863C749.894 107.597 749.494 107.196 749.227 106.93C737.085 94.258 720.806 76.918 701.725 55.9765C701.325 55.443 700.791 55.0428 700.391 54.5093C700.124 54.1091 699.857 53.8424 699.457 53.4422C699.056 53.0421 698.789 52.7753 698.523 52.3751C698.389 52.2417 698.256 52.1084 698.122 51.975C697.855 51.7082 697.588 51.308 697.322 51.0413C695.187 48.6403 693.185 46.3728 691.184 44.2386C690.917 43.9719 690.65 43.7051 690.383 43.4383C689.849 42.9048 689.449 42.3713 689.049 41.8377C688.382 41.0374 687.714 40.3705 687.047 39.5702L686.914 39.4368C685.846 38.2363 684.779 37.0359 683.845 35.9688C679.842 31.4337 676.373 27.4321 673.571 23.9641C673.437 23.8307 673.437 23.6974 673.304 23.564C669.434 19.0289 666.499 15.4275 664.23 12.493C659.427 6.3573 657.559 3.28944 656.091 0.755127H695.987C697.055 2.88929 698.122 5.15683 699.056 7.29099C702.792 15.1607 706.528 22.7637 710.265 30.3666C711.065 31.9672 711.732 33.4345 712.533 35.0351C712.533 35.1685 712.533 35.1685 712.666 35.1685C713.2 36.3689 713.867 37.436 714.401 38.6365C714.535 39.0366 714.801 39.3034 714.935 39.7036C715.335 40.5039 715.735 41.3042 716.136 42.1045C717.203 44.372 718.404 46.6396 719.472 48.7737C719.472 48.7737 719.471 48.9071 719.605 48.9071C719.738 49.3073 720.005 49.7074 720.139 50.1076C720.272 50.5077 720.539 50.9079 720.672 51.1747C730.28 70.1153 739.887 88.2557 749.494 105.863C749.494 105.996 749.627 105.996 749.627 106.129C749.761 106.529 750.028 106.93 750.295 107.196C750.295 107.33 750.428 107.33 750.428 107.463C750.428 107.597 750.561 107.73 750.561 107.863C750.561 107.997 750.561 107.997 750.695 108.13C750.695 108.13 750.695 108.13 750.695 108.263C750.828 108.53 750.828 108.53 750.962 108.664C750.962 108.664 750.828 108.664 750.962 108.664Z" fill="#188169"/>
<path d="M749.36 105.996C748.827 105.329 748.16 104.795 747.626 104.128C747.626 104.128 747.626 104.262 747.759 104.262L749.627 106.263C749.494 106.129 749.494 105.996 749.36 105.996ZM751.896 108.93L751.762 108.797L751.629 108.664L751.495 108.53C751.495 108.53 751.495 108.397 751.362 108.397C751.362 108.263 751.362 108.263 751.229 108.263C751.229 108.13 751.095 108.13 751.095 107.997C751.095 107.997 751.095 107.997 751.095 107.863C751.095 107.863 751.095 107.73 750.962 107.73C750.828 107.463 750.695 107.196 750.428 106.93C750.295 106.796 750.295 106.529 750.161 106.396C740.821 89.4561 731.48 72.5162 722.941 55.1761C722.407 53.9757 721.74 52.7752 721.206 51.7081C721.073 51.308 720.806 50.9078 720.672 50.641C720.539 50.2409 720.272 49.8407 720.139 49.574C720.139 49.4406 720.005 49.4406 720.005 49.3072C718.938 47.173 717.87 44.9055 716.803 42.7713C716.403 41.971 716.002 41.1707 715.602 40.3704C715.468 39.9702 715.335 39.7035 715.068 39.4367C714.535 38.2362 714.001 37.1692 713.334 35.9687C713.334 35.9687 713.334 35.8353 713.2 35.8353C712.4 34.2347 711.732 32.7675 710.932 31.1668C706.262 21.2963 701.592 11.4258 697.055 1.55535H694.52C699.323 11.5592 704.26 21.4297 709.197 31.3002C709.998 32.9008 710.798 34.3681 711.599 35.9687C711.599 35.9687 711.599 36.1021 711.732 36.1021C712.266 37.3025 712.933 38.3696 713.467 39.4367C713.6 39.8369 713.867 40.1036 714.001 40.5038C714.401 41.3041 714.801 41.971 715.202 42.7713C716.403 45.0389 717.603 47.3064 718.671 49.574C718.804 49.9741 719.071 50.3743 719.205 50.641C719.338 51.0412 719.605 51.4414 719.738 51.7081C720.406 53.042 721.073 54.3758 721.74 55.5763C730.413 71.8493 738.686 88.2556 747.359 104.395C747.359 104.395 747.359 104.529 747.492 104.529L749.36 106.529L750.028 107.196L750.295 107.463L750.695 107.997L750.828 108.13L751.095 108.397L750.828 108.53L750.695 108.664L750.561 108.797L750.028 109.197L750.161 109.33L750.561 109.731L750.695 109.864L751.229 110.398L753.897 113.199L751.896 108.93ZM750.962 107.596C750.828 107.33 750.561 107.196 750.428 107.063C750.428 106.93 750.295 106.93 750.161 106.796C749.894 106.529 749.627 106.263 749.36 105.996C739.753 88.5224 730.146 70.2486 720.539 51.308C720.272 51.308 720.139 51.308 719.872 51.4414C720.539 52.7752 721.206 54.1091 721.873 55.3095C730.546 71.5825 738.819 87.9889 747.492 104.128C747.492 104.128 747.492 104.262 747.626 104.262L749.494 106.263L750.161 106.93L750.428 107.196L750.962 107.596V107.73C750.962 107.73 751.095 107.73 750.962 107.596C750.962 107.596 751.095 107.596 750.962 107.596ZM750.962 107.596C750.828 107.33 750.561 107.196 750.428 107.063C750.428 106.93 750.295 106.93 750.161 106.796C749.894 106.529 749.627 106.263 749.36 105.996C739.753 88.5224 730.146 70.2486 720.539 51.308C720.272 51.308 720.139 51.308 719.872 51.4414C720.539 52.7752 721.206 54.1091 721.873 55.3095C730.546 71.5825 738.819 87.9889 747.492 104.128C747.492 104.128 747.492 104.262 747.626 104.262L749.494 106.263L750.161 106.93L750.428 107.196L750.962 107.596V107.73C750.962 107.73 751.095 107.73 750.962 107.596C750.962 107.596 751.095 107.596 750.962 107.596ZM750.962 107.596C750.828 107.33 750.561 107.196 750.428 107.063C750.428 106.93 750.295 106.93 750.161 106.796C749.894 106.529 749.627 106.263 749.36 105.996C739.753 88.5224 730.146 70.2486 720.539 51.308C720.272 51.308 720.139 51.308 719.872 51.4414C720.539 52.7752 721.206 54.1091 721.873 55.3095C730.546 71.5825 738.819 87.9889 747.492 104.128C747.492 104.128 747.492 104.262 747.626 104.262L749.494 106.263L750.161 106.93L750.428 107.196L750.962 107.596V107.73C750.962 107.73 751.095 107.73 750.962 107.596C750.962 107.596 751.095 107.596 750.962 107.596ZM750.962 107.596C750.828 107.33 750.561 107.196 750.428 107.063C750.428 106.93 750.295 106.93 750.161 106.796C749.894 106.529 749.627 106.263 749.36 105.996C739.753 88.5224 730.146 70.2486 720.539 51.308C720.272 51.308 720.139 51.308 719.872 51.4414C720.539 52.7752 721.206 54.1091 721.873 55.3095C730.546 71.5825 738.819 87.9889 747.492 104.128C747.492 104.128 747.492 104.262 747.626 104.262L749.494 106.263L750.161 106.93L750.428 107.196L750.962 107.596V107.73C750.962 107.73 751.095 107.73 750.962 107.596C750.962 107.596 751.095 107.596 750.962 107.596ZM750.962 107.596C750.828 107.33 750.561 107.196 750.428 107.063C750.428 106.93 750.295 106.93 750.161 106.796C749.894 106.529 749.627 106.263 749.36 105.996C739.753 88.5224 730.146 70.2486 720.539 51.308C720.272 51.308 720.139 51.308 719.872 51.4414C720.539 52.7752 721.206 54.1091 721.873 55.3095C730.546 71.5825 738.819 87.9889 747.492 104.128C747.492 104.128 747.492 104.262 747.626 104.262L749.494 106.263L750.161 106.93L750.428 107.196L750.962 107.596V107.73C750.962 107.73 751.095 107.73 750.962 107.596C750.962 107.596 751.095 107.596 750.962 107.596ZM750.962 107.596C750.828 107.33 750.561 107.196 750.428 107.063C750.428 106.93 750.295 106.93 750.161 106.796C749.894 106.529 749.627 106.263 749.36 105.996C739.753 88.5224 730.146 70.2486 720.539 51.308C720.272 51.308 720.139 51.308 719.872 51.4414C720.539 52.7752 721.206 54.1091 721.873 55.3095C730.546 71.5825 738.819 87.9889 747.492 104.128C747.492 104.128 747.492 104.262 747.626 104.262L749.494 106.263L750.161 106.93L750.428 107.196L750.962 107.596V107.73C750.962 107.73 751.095 107.73 750.962 107.596C750.962 107.596 751.095 107.596 750.962 107.596ZM750.962 107.596C750.828 107.33 750.561 107.196 750.428 107.063C750.428 106.93 750.295 106.93 750.161 106.796C749.894 106.529 749.627 106.263 749.36 105.996C739.753 88.5224 730.146 70.2486 720.539 51.308C720.272 51.308 720.139 51.308 719.872 51.4414C720.539 52.7752 721.206 54.1091 721.873 55.3095C730.546 71.5825 738.819 87.9889 747.492 104.128C747.492 104.128 747.492 104.262 747.626 104.262L749.494 106.263L750.161 106.93L750.428 107.196L750.962 107.596V107.73C750.962 107.73 751.095 107.73 750.962 107.596C750.962 107.596 751.095 107.596 750.962 107.596ZM750.962 107.596C750.828 107.33 750.561 107.196 750.428 107.063C750.428 106.93 750.295 106.93 750.161 106.796C749.894 106.529 749.627 106.263 749.36 105.996C739.753 88.5224 730.146 70.2486 720.539 51.308C720.406 50.9078 720.139 50.5077 720.005 50.2409C719.738 50.2409 719.605 50.2409 719.338 50.3743C719.471 50.7744 719.738 51.1746 719.872 51.4414C720.539 52.7752 721.206 54.1091 721.873 55.3095C730.546 71.5825 738.819 87.9889 747.492 104.128C747.492 104.128 747.492 104.262 747.626 104.262L749.494 106.263L750.161 106.93L750.428 107.196L750.962 107.596V107.73C750.962 107.73 751.095 107.73 750.962 107.596C750.962 107.596 751.095 107.596 750.962 107.596ZM708.263 60.9117C706.528 59.0443 704.794 57.1769 703.059 55.3095C702.659 54.9094 702.392 54.5092 701.992 54.1091C701.725 53.7089 701.325 53.4421 701.058 53.042C700.791 52.6418 700.391 52.3751 700.124 51.9749C697.722 49.3072 695.32 46.6395 692.785 43.8384C692.518 43.5716 692.251 43.1715 691.984 42.9047C691.584 42.3712 691.05 41.8376 690.65 41.4375C689.983 40.6372 689.316 39.9702 688.648 39.1699L688.515 39.0365C687.448 37.8361 686.38 36.6356 685.313 35.4352C678.774 27.9656 672.37 20.3626 666.098 12.6263C663.163 8.89153 660.094 5.02336 657.692 0.888428H654.623C654.89 1.42197 655.29 1.95551 655.557 2.62243C657.959 6.89075 660.761 10.8923 663.963 14.6271C669.301 21.2963 674.771 27.8322 680.376 34.2347C681.043 35.035 681.71 35.7019 682.377 36.5022C683.445 37.7027 684.379 38.7698 685.446 39.9702L685.579 40.1036C686.247 40.7706 686.914 41.5709 687.581 42.2378C687.981 42.7713 688.515 43.3049 688.915 43.8384C689.182 44.1052 689.449 44.3719 689.582 44.6387C692.118 47.4398 694.653 50.2409 697.188 52.9086C697.455 53.3087 697.855 53.5755 698.122 53.9757C698.389 54.3758 698.789 54.6426 699.056 55.0428C699.59 55.5763 700.124 56.2432 700.657 56.7768C702.659 58.9109 704.527 60.9117 706.528 63.0459L746.558 105.329L750.028 109.064L750.428 109.464C750.428 109.33 750.295 109.33 750.295 109.197C750.295 109.197 750.295 109.064 750.161 109.064C749.894 108.53 749.494 107.997 749.36 107.463C749.36 107.33 749.227 107.33 749.227 107.196C748.827 106.396 748.293 105.596 747.893 104.795L745.624 102.261L708.263 60.9117ZM750.962 107.596C750.828 107.33 750.561 107.196 750.428 107.063C750.428 106.93 750.295 106.93 750.161 106.796C749.894 106.529 749.627 106.263 749.36 105.996C739.753 88.5224 730.146 70.2486 720.539 51.308C720.406 50.9078 720.139 50.5077 720.005 50.2409C719.738 50.2409 719.605 50.2409 719.338 50.3743C719.471 50.7744 719.738 51.1746 719.872 51.4414C720.539 52.7752 721.206 54.1091 721.873 55.3095C730.546 71.5825 738.819 87.9889 747.492 104.128C747.492 104.128 747.492 104.262 747.626 104.262L749.494 106.263L750.161 106.93L750.428 107.196L750.962 107.596V107.73C750.962 107.73 751.095 107.73 750.962 107.596C750.962 107.596 751.095 107.596 750.962 107.596ZM750.962 107.596C750.828 107.33 750.561 107.196 750.428 107.063C750.428 106.93 750.295 106.93 750.161 106.796C749.894 106.529 749.627 106.263 749.36 105.996C739.753 88.5224 730.146 70.2486 720.539 51.308C720.272 51.308 720.139 51.308 719.872 51.4414C720.539 52.7752 721.206 54.1091 721.873 55.3095C730.546 71.5825 738.819 87.9889 747.492 104.128C747.492 104.128 747.492 104.262 747.626 104.262L749.494 106.263L750.161 106.93L750.428 107.196L750.962 107.596V107.73C750.962 107.73 751.095 107.73 750.962 107.596C750.962 107.596 751.095 107.596 750.962 107.596ZM750.962 107.596C750.828 107.33 750.561 107.196 750.428 107.063C750.428 106.93 750.295 106.93 750.161 106.796C749.894 106.529 749.627 106.263 749.36 105.996C739.753 88.5224 730.146 70.2486 720.539 51.308C720.272 51.308 720.139 51.308 719.872 51.4414C720.539 52.7752 721.206 54.1091 721.873 55.3095C730.546 71.5825 738.819 87.9889 747.492 104.128C747.492 104.128 747.492 104.262 747.626 104.262L749.494 106.263L750.161 106.93L750.428 107.196L750.962 107.596V107.73C750.962 107.73 751.095 107.73 750.962 107.596C750.962 107.596 751.095 107.596 750.962 107.596ZM750.962 107.596C750.828 107.33 750.561 107.196 750.428 107.063C750.428 106.93 750.295 106.93 750.161 106.796C749.894 106.529 749.627 106.263 749.36 105.996C739.753 88.5224 730.146 70.2486 720.539 51.308C720.272 51.308 720.139 51.308 719.872 51.4414C720.539 52.7752 721.206 54.1091 721.873 55.3095C730.546 71.5825 738.819 87.9889 747.492 104.128C747.492 104.128 747.492 104.262 747.626 104.262L749.494 106.263L750.161 106.93L750.428 107.196L750.962 107.596V107.73C750.962 107.73 751.095 107.73 750.962 107.596C750.962 107.596 751.095 107.596 750.962 107.596ZM750.962 107.596C750.828 107.33 750.561 107.196 750.428 107.063C750.428 106.93 750.295 106.93 750.161 106.796C749.894 106.529 749.627 106.263 749.36 105.996C739.753 88.5224 730.146 70.2486 720.539 51.308C720.272 51.308 720.139 51.308 719.872 51.4414C720.539 52.7752 721.206 54.1091 721.873 55.3095C730.546 71.5825 738.819 87.9889 747.492 104.128C747.492 104.128 747.492 104.262 747.626 104.262L749.494 106.263L750.161 106.93L750.428 107.196L750.962 107.596V107.73C750.962 107.73 751.095 107.73 750.962 107.596C750.962 107.596 751.095 107.596 750.962 107.596ZM750.962 107.596C750.828 107.33 750.561 107.196 750.428 107.063C750.428 106.93 750.295 106.93 750.161 106.796C749.894 106.529 749.627 106.263 749.36 105.996C739.753 88.5224 730.146 70.2486 720.539 51.308C720.272 51.308 720.139 51.308 719.872 51.4414C720.539 52.7752 721.206 54.1091 721.873 55.3095C730.546 71.5825 738.819 87.9889 747.492 104.128C747.492 104.128 747.492 104.262 747.626 104.262L749.494 106.263L750.161 106.93L750.428 107.196L750.962 107.596V107.73C750.962 107.73 751.095 107.73 750.962 107.596C750.962 107.596 751.095 107.596 750.962 107.596ZM750.962 107.596C750.828 107.33 750.561 107.196 750.428 107.063C750.428 106.93 750.295 106.93 750.161 106.796C749.894 106.529 749.627 106.263 749.36 105.996C739.753 88.5224 730.146 70.2486 720.539 51.308C720.272 51.308 720.139 51.308 719.872 51.4414C720.539 52.7752 721.206 54.1091 721.873 55.3095C730.546 71.5825 738.819 87.9889 747.492 104.128C747.492 104.128 747.492 104.262 747.626 104.262L749.494 106.263L750.161 106.93L750.428 107.196L750.962 107.596V107.73C750.962 107.73 751.095 107.73 750.962 107.596C750.962 107.596 751.095 107.596 750.962 107.596ZM750.962 107.596C750.828 107.33 750.561 107.196 750.428 107.063C750.428 106.93 750.295 106.93 750.161 106.796C749.894 106.529 749.627 106.263 749.36 105.996C739.753 88.5224 730.146 70.2486 720.539 51.308C720.272 51.308 720.139 51.308 719.872 51.4414C720.539 52.7752 721.206 54.1091 721.873 55.3095C730.546 71.5825 738.819 87.9889 747.492 104.128C747.492 104.128 747.492 104.262 747.626 104.262L749.494 106.263L750.161 106.93L750.428 107.196L750.962 107.596V107.73C750.962 107.73 751.095 107.73 750.962 107.596C750.962 107.596 751.095 107.596 750.962 107.596Z" fill="black"/>
<path d="M727.744 234.045C728.945 240.181 726.81 247.117 722.407 252.052C718.003 257.121 711.198 260.189 704.393 260.055C697.588 260.055 690.783 256.988 686.38 252.052C681.977 247.117 679.842 240.181 680.909 234.045C681.977 240.181 684.912 245.517 689.182 249.118C693.452 252.853 698.789 254.853 704.26 254.853C709.731 254.853 715.068 252.853 719.338 249.118C723.741 245.517 726.677 240.181 727.744 234.045Z" fill="#231F20"/>
<path d="M827.685 234.045C828.886 240.181 826.751 247.117 822.348 252.052C817.945 257.121 811.14 260.189 804.335 260.055C797.53 260.055 790.724 256.988 786.321 252.052C781.918 247.117 779.783 240.181 780.984 234.045C782.051 240.181 784.987 245.517 789.257 249.118C793.527 252.853 798.864 254.853 804.335 254.853C809.805 254.853 815.143 252.853 819.413 249.118C823.549 245.517 826.618 240.181 827.685 234.045Z" fill="#231F20"/>
<path d="M686.647 221.641C686.246 221.641 685.846 221.508 685.446 221.241C684.779 220.574 684.779 219.507 685.312 218.84C685.446 218.706 703.059 200.299 725.743 215.639C726.543 216.172 726.677 217.239 726.143 218.039C725.609 218.84 724.542 218.973 723.741 218.44C703.593 204.834 688.381 220.44 687.847 221.107C687.581 221.508 687.18 221.641 686.647 221.641Z" fill="#231F20"/>
<path d="M821.814 221.641C821.414 221.641 820.88 221.507 820.613 221.107C819.946 220.44 804.868 204.834 784.72 218.439C783.919 218.973 782.852 218.706 782.318 218.039C781.784 217.239 782.051 216.172 782.718 215.638C805.402 200.299 822.882 218.573 823.149 218.84C823.816 219.507 823.816 220.574 823.015 221.241C822.748 221.507 822.348 221.641 821.814 221.641Z" fill="#231F20"/>
<path d="M754.297 305.673C764.32 305.673 772.444 297.552 772.444 287.533C772.444 277.514 764.32 269.393 754.297 269.393C744.275 269.393 736.15 277.514 736.15 287.533C736.15 297.552 744.275 305.673 754.297 305.673Z" fill="black"/>
<path d="M572.028 75.9844C571.627 74.7839 571.094 73.7168 570.427 72.6497C568.025 68.7816 564.556 66.2473 560.152 65.1802L528.395 57.4438L498.906 50.241C496.505 49.7075 494.77 49.3073 493.436 49.0406C492.235 48.7738 490.767 48.7738 488.899 48.9072C487.031 49.0406 485.563 49.5741 484.496 50.3744C483.295 51.1747 482.227 52.642 481.026 54.7761C479.826 56.7769 478.891 59.4446 478.091 62.5125C477.29 65.7137 477.023 68.5148 477.023 70.9157C477.157 73.1833 477.424 75.0507 478.091 76.3845C478.758 77.7184 479.826 78.9188 481.293 79.8525C482.895 80.9196 484.229 81.4531 485.43 81.8533C486.631 82.2535 488.365 82.6536 490.767 83.1872L517.32 89.723C516.653 90.1232 513.05 91.9906 506.379 95.592C499.707 99.06 492.235 103.062 483.962 107.33C475.689 111.732 469.551 115.066 465.548 117.467C461.545 120.001 458.877 123.469 457.809 128.005C456.742 132.54 457.409 136.808 459.811 140.943C462.212 144.944 465.682 147.612 470.085 148.679L520.523 160.951L538.136 165.219C541.071 165.886 543.206 166.419 544.674 166.553C546.142 166.686 547.876 166.553 550.011 166.153C552.146 165.619 553.881 164.285 555.215 162.151C556.55 159.884 557.75 156.949 558.684 152.948C559.085 151.08 559.485 149.48 559.618 147.879C559.885 146.145 559.885 144.544 559.752 143.21C559.618 140.676 558.684 138.675 557.217 137.208C555.749 135.741 554.148 134.674 552.813 134.14C551.346 133.473 549.211 132.806 546.275 132.139L514.118 124.27C542.539 108.797 559.352 99.4601 564.822 96.3923C568.692 94.1247 571.227 90.5233 572.428 85.7215C573.362 82.1201 573.095 78.9188 572.028 75.9844Z" fill="#61388A"/>
<path d="M436.711 74.1648C436.311 72.9643 435.777 71.8972 435.11 70.8302C432.708 66.962 429.239 64.4277 424.836 63.3606L393.079 55.6243L363.59 48.4215C361.188 47.8879 359.454 47.4878 358.119 47.221C356.918 46.9542 355.451 46.9542 353.583 47.0876C351.714 47.221 350.247 47.7545 349.179 48.5548C347.978 49.3552 346.911 50.8224 345.71 52.9566C344.509 54.9573 343.575 57.625 342.774 60.6929C341.974 63.8941 341.707 66.6952 341.707 69.0961C341.84 71.3637 342.107 73.2311 342.774 74.5649C343.442 75.8988 344.509 77.0992 345.977 78.0329C347.578 79.1 348.912 79.6336 350.113 80.0337C351.314 80.4339 353.049 80.834 355.451 81.3676L382.004 87.9034C381.337 88.3036 377.734 90.171 371.062 93.7724C364.391 97.2404 356.918 101.242 348.646 105.51C340.373 109.912 334.235 113.247 330.232 115.648C326.229 118.182 323.56 121.65 322.493 126.185C321.425 130.72 322.092 134.988 324.494 139.123C326.896 143.125 330.365 145.793 334.768 146.86L385.206 159.131L402.819 163.399C405.755 164.066 407.89 164.6 409.358 164.733C410.825 164.867 412.56 164.733 414.695 164.333C416.83 163.8 418.564 162.466 419.899 160.332C421.233 158.064 422.434 155.13 423.368 151.128C423.768 149.261 424.169 147.66 424.302 146.059C424.569 144.325 424.569 142.725 424.436 141.391C424.302 138.857 423.368 136.856 421.9 135.389C420.433 133.921 418.831 132.854 417.497 132.321C416.029 131.654 413.894 130.987 410.959 130.32L378.801 122.45C407.223 106.977 424.035 97.6405 429.506 94.5727C433.376 92.3051 435.911 88.7037 437.112 83.9019C438.046 80.3005 437.779 77.0992 436.711 74.1648Z" fill="#61388A"/>
<path d="M633.807 217.239C632.473 213.238 631.005 210.17 629.404 208.035C627.803 205.901 625.935 204.567 623.8 204.167C621.665 203.767 619.797 203.634 618.195 203.901C616.594 204.167 614.192 204.701 611.257 205.768L608.321 206.702L605.786 207.502L603.384 208.302L578.299 216.706C587.372 200.699 594.311 188.161 599.381 179.091C599.782 178.291 600.315 177.49 600.716 176.69C601.116 175.89 601.65 175.089 602.05 174.289C604.852 169.22 606.72 165.752 607.921 163.618C610.056 159.483 610.323 154.815 608.722 149.88C607.12 145.211 604.185 141.877 599.782 139.742C598.714 139.209 597.513 138.809 596.446 138.408C596.179 138.275 595.779 138.275 595.512 138.142C595.245 138.142 594.978 138.008 594.711 138.008C591.909 137.608 589.24 137.742 586.438 138.675L559.885 147.479L523.858 159.483C522.657 159.883 521.723 160.284 520.789 160.55C519.855 160.951 519.055 161.217 518.388 161.484C517.187 161.884 515.852 162.685 514.251 163.885C512.783 165.086 511.716 166.286 511.182 167.753C510.648 169.22 510.382 171.088 510.515 173.489C510.648 176.023 511.182 178.824 512.25 182.025C513.317 185.36 514.651 188.028 515.986 190.029C517.32 192.029 518.654 193.363 519.989 194.297C521.323 195.097 522.924 195.497 524.792 195.497C526.794 195.497 528.262 195.364 529.596 194.964C530.797 194.564 532.665 194.03 535.2 193.23L562.42 184.16C562.02 184.826 559.885 188.561 555.882 195.364C551.879 202.167 547.476 209.903 542.539 218.306C537.602 226.709 533.999 233.245 531.864 237.514C529.596 242.049 529.329 246.584 530.797 251.119C532.265 255.787 535.334 259.122 539.87 261.39C544.274 263.657 548.81 264.057 553.214 262.59L600.849 246.717L609.389 243.916L612.858 242.849L616.327 241.649L622.866 239.514C623.399 239.381 623.933 239.114 624.333 238.981C626.468 238.181 628.203 237.514 629.404 236.98C630.738 236.313 632.339 235.113 633.941 233.512C635.542 231.911 636.342 229.777 636.342 226.976C635.809 224.575 635.141 221.241 633.807 217.239Z" fill="#69A9DC"/>
<path d="M507.326 289.443C505.992 285.442 504.524 282.374 502.923 280.24C501.322 278.106 499.454 276.772 497.319 276.372C495.184 275.972 493.316 275.838 491.714 276.105C490.113 276.372 487.711 276.905 484.776 277.972L481.84 278.906L479.305 279.706L476.903 280.507L451.818 288.91C460.891 272.904 467.83 260.365 472.9 251.295C473.301 250.495 473.834 249.695 474.235 248.894C474.635 248.094 475.169 247.294 475.569 246.493C478.371 241.425 480.239 237.957 481.44 235.823C483.575 231.688 483.842 227.019 482.241 222.084C480.64 217.415 477.704 214.081 473.301 211.947C472.233 211.413 471.032 211.013 469.965 210.613C469.698 210.479 469.298 210.479 469.031 210.346C468.764 210.346 468.497 210.213 468.23 210.213C465.428 209.813 462.759 209.946 459.957 210.88L433.404 219.683L397.377 231.688C396.176 232.088 395.242 232.488 394.308 232.755C393.374 233.155 392.574 233.422 391.907 233.688C390.706 234.089 389.371 234.889 387.77 236.089C386.302 237.29 385.235 238.49 384.701 239.958C384.167 241.425 383.901 243.292 384.034 245.693C384.167 248.227 384.701 251.029 385.769 254.23C386.836 257.564 388.17 260.232 389.505 262.233C390.839 264.234 392.173 265.567 393.508 266.501C394.842 267.301 396.443 267.702 398.311 267.702C400.313 267.702 401.781 267.568 403.115 267.168C404.316 266.768 406.184 266.234 408.719 265.434L435.939 256.364C435.539 257.031 433.404 260.766 429.401 267.568C425.398 274.371 420.995 282.107 416.058 290.51C411.121 298.914 407.518 305.45 405.383 309.718C403.115 314.253 402.848 318.788 404.316 323.323C405.784 327.992 408.853 331.326 413.389 333.594C417.793 335.861 422.329 336.262 426.733 334.794L474.368 318.921L482.908 316.12L486.377 315.053L489.846 313.853L496.385 311.719C496.918 311.585 497.452 311.319 497.852 311.185C499.987 310.385 501.722 309.718 502.923 309.184C504.257 308.517 505.858 307.317 507.46 305.716C509.061 304.116 509.861 301.982 509.861 299.181C509.328 296.78 508.66 293.445 507.326 289.443Z" fill="#69A9DC"/>
<path d="M337.326 250.443C335.992 246.442 334.524 243.374 332.923 241.24C331.322 239.106 329.454 237.772 327.319 237.372C325.184 236.972 323.316 236.838 321.714 237.105C320.113 237.372 317.711 237.905 314.776 238.972L311.84 239.906L309.305 240.706L306.903 241.507L281.818 249.91C290.891 233.904 297.83 221.365 302.9 212.295C303.301 211.495 303.834 210.695 304.235 209.894C304.635 209.094 305.169 208.294 305.569 207.493C308.371 202.425 310.239 198.957 311.44 196.823C313.575 192.688 313.842 188.019 312.241 183.084C310.64 178.415 307.704 175.081 303.301 172.947C302.233 172.413 301.032 172.013 299.965 171.613C299.698 171.479 299.298 171.479 299.031 171.346C298.764 171.346 298.497 171.213 298.23 171.213C295.428 170.813 292.759 170.946 289.957 171.88L263.404 180.683L227.377 192.688C226.176 193.088 225.242 193.488 224.308 193.755C223.374 194.155 222.574 194.422 221.907 194.688C220.706 195.089 219.371 195.889 217.77 197.089C216.302 198.29 215.235 199.49 214.701 200.958C214.167 202.425 213.901 204.292 214.034 206.693C214.167 209.227 214.701 212.029 215.769 215.23C216.836 218.564 218.17 221.232 219.505 223.233C220.839 225.234 222.173 226.567 223.508 227.501C224.842 228.301 226.443 228.702 228.311 228.702C230.313 228.702 231.781 228.568 233.115 228.168C234.316 227.768 236.184 227.234 238.719 226.434L265.939 217.364C265.539 218.031 263.404 221.766 259.401 228.568C255.398 235.371 250.995 243.107 246.058 251.51C241.121 259.914 237.518 266.45 235.383 270.718C233.115 275.253 232.848 279.788 234.316 284.323C235.784 288.992 238.853 292.326 243.389 294.594C247.793 296.861 252.329 297.262 256.733 295.794L304.368 279.921L312.908 277.12L316.377 276.053L319.846 274.853L326.385 272.719C326.918 272.585 327.452 272.319 327.852 272.185C329.987 271.385 331.722 270.718 332.923 270.184C334.257 269.517 335.858 268.317 337.46 266.716C339.061 265.116 339.861 262.982 339.861 260.181C339.328 257.78 338.66 254.445 337.326 250.443Z" fill="#F26B6C"/>
<path d="M673.304 253.386C671.302 250.319 668.5 248.451 664.897 247.651L623.8 239.114L616.194 237.514C615.661 237.38 615.26 237.38 614.727 237.247C613.526 236.98 612.592 236.847 611.791 236.713C611.524 236.713 611.257 236.58 610.99 236.58C610.19 236.58 609.256 236.58 608.188 236.713C608.055 236.713 607.788 236.713 607.655 236.847C606.454 236.98 605.52 237.38 604.853 238.047C603.919 238.714 603.118 239.914 602.184 241.648C601.383 243.116 600.716 244.85 600.316 246.984C600.182 247.251 600.182 247.517 600.182 247.784C599.649 250.452 599.515 252.586 599.649 254.453C599.782 256.321 600.182 257.655 600.583 258.722C601.116 259.789 602.05 260.589 603.251 261.389C604.586 262.19 605.653 262.59 606.587 262.857C607.521 263.123 608.989 263.39 610.857 263.79L612.325 264.057L616.728 264.991L621.398 265.925L632.073 268.192C631.539 268.459 628.737 270.059 623.533 273.127C623.4 273.261 623.266 273.261 623.133 273.394C621.799 274.194 620.464 274.861 618.996 275.795C617.662 276.462 616.328 277.262 614.993 278.063C612.191 279.663 609.256 281.397 606.187 283.131C599.782 286.866 594.979 289.667 591.91 291.534C588.707 293.535 586.839 296.47 586.039 300.071C585.371 303.673 585.905 307.007 588.04 310.208C590.041 313.41 592.844 315.277 596.313 316.077L626.202 322.346L632.206 323.547L638.878 324.881L650.353 327.282C652.622 327.815 654.356 328.082 655.557 328.082C656.758 328.215 658.092 327.949 659.827 327.548C661.428 327.148 662.762 325.948 663.83 324.214C664.764 322.48 665.698 319.945 666.365 316.878C667.032 313.81 667.166 311.275 667.032 309.141C666.765 307.141 666.098 305.54 664.897 304.473C663.697 303.406 662.496 302.605 661.295 302.205C660.094 301.805 658.359 301.272 656.091 300.738L630.472 295.403C652.488 282.464 665.565 274.595 669.834 271.927C672.77 270.059 674.771 267.125 675.572 263.257C676.106 259.655 675.439 256.454 673.304 253.386Z" fill="#F8A33E"/>
<path d="M471.535 128.807C469.534 125.739 466.732 123.871 463.129 123.071L422.031 114.534L414.426 112.934C413.892 112.8 413.492 112.8 412.958 112.667C411.757 112.4 410.823 112.267 410.023 112.133C409.756 112.133 409.489 112 409.222 112C408.421 112 407.487 112 406.42 112.133C406.286 112.133 406.02 112.133 405.886 112.267C404.685 112.4 403.751 112.8 403.084 113.467C402.15 114.134 401.349 115.335 400.415 117.069C399.615 118.536 398.948 120.27 398.547 122.404C398.414 122.671 398.414 122.938 398.414 123.204C397.88 125.872 397.747 128.006 397.88 129.874C398.014 131.741 398.414 133.075 398.814 134.142C399.348 135.209 400.282 136.009 401.483 136.81C402.817 137.61 403.885 138.01 404.819 138.277C405.753 138.544 407.22 138.81 409.088 139.211L410.556 139.477L414.96 140.411L419.63 141.345L430.304 143.612C429.771 143.879 426.968 145.48 421.765 148.548C421.631 148.681 421.498 148.681 421.364 148.814C420.03 149.615 418.696 150.282 417.228 151.215C415.894 151.882 414.559 152.682 413.225 153.483C410.423 155.083 407.487 156.817 404.418 158.551C398.014 162.286 393.21 165.087 390.141 166.955C386.939 168.955 385.071 171.89 384.27 175.491C383.603 179.093 384.137 182.427 386.271 185.629C388.273 188.83 391.075 190.697 394.544 191.497L424.433 197.767L430.438 198.967L437.109 200.301L448.585 202.702C450.853 203.235 452.588 203.502 453.789 203.502C454.989 203.636 456.324 203.369 458.058 202.969C459.66 202.568 460.994 201.368 462.061 199.634C462.995 197.9 463.929 195.366 464.597 192.298C465.264 189.23 465.397 186.696 465.264 184.561C464.997 182.561 464.33 180.96 463.129 179.893C461.928 178.826 460.727 178.026 459.526 177.625C458.325 177.225 456.591 176.692 454.322 176.158L428.703 170.823C450.72 157.884 463.796 150.015 468.066 147.347C471.001 145.48 473.003 142.545 473.804 138.677C474.337 135.076 473.67 131.874 471.535 128.807Z" fill="#F8A33E"/>
</g>
<defs>
<clipPath id="clip0_4858_609">
<rect width="892" height="344" fill="white" transform="translate(0 0.888428)"/>
</clipPath>
</defs>
</svg>
