<svg width="89" height="133" viewBox="0 0 89 133" fill="none" xmlns="http://www.w3.org/2000/svg">
<path d="M81.3313 67.19C83.6962 82.3897 85.2915 97.6993 86.1113 113.06L21.1112 124.13C16.1344 109.531 12.1717 94.6053 9.25125 79.46C8.72458 76.7934 8.23125 74.0533 7.77125 71.24C7.21125 67.8467 6.71458 64.5133 6.28125 61.24C4.42083 47.5159 3.41889 33.689 3.28125 19.84L68.3512 8.76001C71.9112 20.99 75.2812 34.43 78.1413 49C78.5813 51.26 79.0113 53.54 79.4313 55.86C80.1312 59.6933 80.7646 63.47 81.3313 67.19Z" fill="white" stroke="#010101" stroke-miterlimit="10" stroke-linecap="round"/>
<path d="M2.9109 19.46C2.50423 17.1933 2.0909 14.9133 1.6709 12.62C2.9809 13.28 4.2909 13.96 5.5809 14.62L9.3809 11.16C10.9109 11.69 12.3809 12.22 13.9709 12.74L17.9709 9.91L23.9409 11.06L28.4309 8L34.1509 9.55L37.4909 6.29L43.0009 8.37L47.8509 4.28C49.6809 5.07 51.5009 5.87 53.3309 6.65L58.1909 2.85L62.1909 5.27C63.4409 4.06 65.8109 2.26 67.0509 1C67.7509 3.22 67.6009 6.1 68.3009 8.32C46.5809 12.06 24.6009 15.7 2.9109 19.46Z" fill="#1F705E" stroke="#010101" stroke-miterlimit="10" stroke-linecap="round"/>
<path d="M7.48117 23.06C8.38117 26.6 9.15117 30.16 9.84117 33.73C10.5312 37.3 11.1812 40.88 11.6812 44.49C12.1812 48.1 12.5212 51.72 13.0512 55.32C13.5812 58.92 14.2912 62.47 15.0012 66.06C15.7112 69.65 16.4712 73.19 17.1212 76.77C17.7712 80.35 18.4412 83.93 19.0212 87.52C20.1512 94.71 21.1312 101.92 21.7912 109.18C21.7943 109.192 21.7946 109.205 21.792 109.217C21.7894 109.229 21.784 109.24 21.7762 109.25C21.7684 109.26 21.7585 109.267 21.7472 109.273C21.7359 109.278 21.7236 109.28 21.7112 109.28C21.6904 109.28 21.6701 109.274 21.6537 109.261C21.6373 109.248 21.6258 109.23 21.6212 109.21C19.9012 102.13 18.4912 94.99 17.2212 87.82C16.6012 84.23 16.0812 80.63 15.5312 77.03C14.9812 73.43 14.5312 69.83 14.0712 66.21C13.6112 62.59 13.1312 58.99 12.4712 55.42C11.8112 51.85 11.0012 48.26 10.2912 44.69C9.58117 41.12 9.05117 37.53 8.54117 33.92C8.03117 30.31 7.61117 26.7 7.31117 23.06C7.30975 23.0487 7.31076 23.0372 7.31414 23.0263C7.31751 23.0154 7.32318 23.0053 7.33075 22.9968C7.33833 22.9883 7.34764 22.9815 7.35806 22.9769C7.36848 22.9722 7.37977 22.9699 7.39117 22.97C7.44117 22.98 7.48117 23.06 7.48117 23.06Z" fill="#010101"/>
<path d="M33.6407 117.06C35.5409 116.441 37.4738 115.926 39.4307 115.52C41.3725 115.087 43.335 114.754 45.3107 114.52C47.3107 114.3 49.3107 114.24 51.3107 113.98C53.2833 113.698 55.2395 113.311 57.1707 112.82C59.1107 112.34 61.0507 111.89 63.0107 111.53C64.9706 111.17 66.9106 110.75 68.8806 110.45C72.8282 109.84 76.8086 109.466 80.8007 109.33C80.8229 109.33 80.8444 109.338 80.861 109.353C80.8776 109.367 80.8882 109.388 80.8907 109.41C80.8903 109.429 80.8845 109.448 80.8739 109.464C80.8632 109.48 80.8482 109.492 80.8307 109.5C77.0036 110.64 73.1138 111.559 69.1807 112.25C67.1807 112.59 65.2507 112.85 63.2707 113.11C61.2907 113.37 59.2707 113.58 57.2707 113.75C55.2844 113.9 53.3079 114.16 51.3507 114.53C49.3507 114.91 47.4806 115.53 45.5307 115.93C43.5807 116.33 41.6107 116.62 39.6307 116.85C37.6391 117.089 35.6363 117.223 33.6307 117.25C33.6184 117.252 33.606 117.25 33.5943 117.247C33.5827 117.243 33.5721 117.236 33.5634 117.227C33.5547 117.219 33.5481 117.208 33.5441 117.196C33.5402 117.185 33.539 117.172 33.5407 117.16C33.5364 117.146 33.536 117.131 33.5395 117.117C33.543 117.103 33.5503 117.09 33.5605 117.08C33.5708 117.07 33.5837 117.062 33.5978 117.059C33.6119 117.055 33.6268 117.056 33.6407 117.06Z" fill="#010101"/>
<path d="M81.3313 67.19L9.25125 79.46C8.72458 76.7933 8.23125 74.0533 7.77125 71.24C7.21125 67.8467 6.71458 64.5133 6.28125 61.24L78.1413 49C78.5813 51.26 79.0212 53.54 79.4313 55.86C80.1312 59.6933 80.7646 63.47 81.3313 67.19Z" fill="#1F705E" stroke="#010101" stroke-miterlimit="10" stroke-linecap="round"/>
<path d="M53.5206 86.23C67.8806 81 75.9006 66.78 71.4206 54.47C66.9406 42.16 51.6606 36.47 37.2906 41.65C22.9206 46.83 14.9106 61.06 19.3906 73.41C23.8706 85.76 39.1506 91.46 53.5206 86.23Z" fill="#FAF28C" stroke="#010101" stroke-miterlimit="10"/>
<path d="M20.9209 124.35C21.2809 126.64 21.6509 128.93 22.0109 131.23C23.0309 130.17 24.0309 129.103 25.0109 128.03L29.7309 130.03L33.5409 127.03L38.2809 128.37L43.5209 125.37L48.7609 126.77L53.6509 123.41L57.8809 125.41L62.3509 121.63L68.2909 123.89C69.7509 122.53 71.2009 121.18 72.6709 119.83C74.6109 120.5 76.5609 121.15 78.5109 121.83C79.5109 120.62 80.5109 119.42 81.5109 118.22C83.1009 118.99 85.9209 119.86 87.5109 120.63C87.4409 118.3 86.3409 115.63 86.2709 113.31C64.5709 116.85 42.6409 120.72 20.9209 124.35Z" fill="#1F705E" stroke="#010101" stroke-miterlimit="10" stroke-linecap="round"/>
<path d="M80.691 61.84L80.951 63.34L78.511 64.16L77.811 64.39L77.891 66.12L78.171 72.79L78.001 72.42L76.701 68.78L75.401 65.06L67.541 64.89H67.001L67.661 64.71L75.391 62.55L74.931 53.71L77.061 62.02L79.061 61.94L80.691 61.84Z" fill="white" stroke="#010101" stroke-width="0.5" stroke-miterlimit="10" stroke-linecap="round"/>
<path d="M67.571 68.26L68.801 73.06L74.001 72.86L69.201 74.47L69.411 79.33L67.801 74.84L63.001 74.74L67.861 73.38L67.571 68.26Z" fill="white" stroke="#010101" stroke-width="0.5" stroke-miterlimit="10" stroke-linecap="round"/>
<path d="M39.7812 106.06C39.4681 105.892 39.1307 105.774 38.7812 105.71C38.452 105.635 38.1103 105.635 37.7812 105.71C37.5824 105.741 37.3878 105.795 37.2012 105.87C37.0284 105.932 36.8713 106.031 36.7412 106.16C36.6828 106.22 36.6403 106.293 36.6176 106.373C36.5949 106.454 36.5927 106.539 36.6112 106.62C36.6249 106.703 36.6584 106.782 36.7088 106.85C36.7593 106.918 36.8252 106.973 36.9012 107.01C37.0859 107.089 37.2814 107.139 37.4812 107.16H38.2712C38.5578 107.16 38.8378 107.18 39.1112 107.22C39.3749 107.238 39.6345 107.295 39.8812 107.39C40.1098 107.471 40.318 107.6 40.4912 107.77C40.664 107.959 40.7755 108.196 40.8112 108.45C40.8825 108.792 40.8256 109.148 40.6512 109.45C40.4705 109.761 40.212 110.019 39.9012 110.2C39.5554 110.405 39.1763 110.547 38.7812 110.62C38.2806 110.694 37.7717 110.694 37.2712 110.62C36.8057 110.549 36.3675 110.356 36.0012 110.06L36.6312 109.25C36.914 109.462 37.2387 109.61 37.5836 109.686C37.9285 109.762 38.2857 109.763 38.6312 109.69C38.8193 109.65 39.0034 109.593 39.1812 109.52C39.3552 109.451 39.5121 109.345 39.6412 109.21C39.698 109.145 39.7385 109.068 39.7594 108.985C39.7802 108.901 39.7808 108.814 39.7612 108.73C39.7508 108.65 39.7194 108.575 39.6701 108.512C39.6209 108.449 39.5557 108.4 39.4812 108.37C39.2972 108.28 39.0957 108.233 38.8912 108.23C38.6412 108.23 38.3812 108.23 38.1112 108.23C37.7384 108.193 37.3678 108.137 37.0012 108.06C36.6628 108.013 36.3405 107.887 36.0612 107.69C35.7873 107.451 35.6096 107.12 35.5612 106.76C35.5015 106.444 35.5584 106.117 35.7212 105.84C35.9097 105.537 36.1709 105.286 36.4812 105.11C36.8368 104.904 37.2261 104.761 37.6312 104.69C37.9249 104.639 38.2232 104.619 38.5212 104.63C38.8322 104.633 39.1414 104.677 39.4412 104.76C39.7338 104.836 40.0089 104.969 40.2512 105.15L39.7812 106.06ZM48.5512 107.99C48.3685 108.195 48.1639 108.379 47.9412 108.54C47.6883 108.73 47.4129 108.888 47.1212 109.01C46.8 109.149 46.4647 109.253 46.1212 109.32C45.5257 109.458 44.9066 109.458 44.3112 109.32C43.7876 109.178 43.3134 108.894 42.9412 108.5C42.5776 108.108 42.3376 107.618 42.2512 107.09C42.1255 106.518 42.1779 105.921 42.4012 105.38C42.6151 104.88 42.9608 104.448 43.4012 104.13C43.8633 103.791 44.3969 103.561 44.9612 103.46C45.4741 103.364 46.0029 103.394 46.5012 103.55C46.9693 103.693 47.3906 103.959 47.7212 104.32C48.0759 104.7 48.3092 105.177 48.3912 105.69L48.4712 106.21L43.4712 107.13C43.5612 107.356 43.6963 107.561 43.8682 107.733C44.0401 107.905 44.2453 108.04 44.4712 108.13C45.0038 108.347 45.59 108.396 46.1512 108.27C46.5485 108.211 46.9276 108.064 47.2612 107.84C47.5023 107.672 47.7266 107.481 47.9312 107.27L48.5512 107.99ZM45.1412 104.44C44.672 104.519 44.2291 104.711 43.8512 105C43.6765 105.145 43.5364 105.327 43.4413 105.533C43.3461 105.739 43.2982 105.963 43.3012 106.19L47.1712 105.48V105.36C47.1032 105.121 46.9549 104.912 46.7512 104.77C46.5322 104.608 46.279 104.499 46.0112 104.45C45.7267 104.379 45.4309 104.365 45.1412 104.41V104.44ZM56.3812 106.56C56.198 106.762 55.9935 106.943 55.7712 107.1C55.5128 107.29 55.2344 107.451 54.9412 107.58C54.6224 107.723 54.2862 107.824 53.9412 107.88C53.3422 108.005 52.7223 107.988 52.1312 107.83C51.6099 107.688 51.1366 107.408 50.7612 107.02C50.3995 106.627 50.1598 106.137 50.0712 105.61C49.9437 105.054 49.983 104.473 50.1839 103.94C50.3849 103.406 50.7387 102.944 51.2012 102.61C51.6633 102.271 52.1969 102.041 52.7612 101.94C53.2738 101.838 53.8038 101.869 54.3012 102.03C54.7693 102.173 55.1906 102.439 55.5212 102.8C55.878 103.178 56.1116 103.656 56.1912 104.17L56.2712 104.69L51.2712 105.61C51.3612 105.836 51.4963 106.041 51.6682 106.213C51.8401 106.385 52.0453 106.52 52.2712 106.61C52.8049 106.822 53.3896 106.871 53.9512 106.75C54.3484 106.691 54.7276 106.544 55.0612 106.32C55.2976 106.146 55.5214 105.955 55.7312 105.75L56.3812 106.56ZM53.0012 102.98C52.5306 103.054 52.0867 103.247 51.7112 103.54C51.5373 103.683 51.3976 103.863 51.3025 104.068C51.2073 104.272 51.159 104.495 51.1612 104.72L55.0012 104.06V103.94C54.931 103.699 54.7833 103.488 54.5812 103.34C54.3616 103.181 54.1084 103.075 53.8412 103.03C53.5669 102.96 53.2818 102.943 53.0012 102.98ZM63.2712 97.77L64.7312 105.77L63.6212 105.98L63.4612 105.09C63.343 105.303 63.191 105.496 63.0112 105.66C62.8116 105.862 62.5864 106.037 62.3412 106.18C62.0619 106.328 61.7618 106.432 61.4512 106.49C60.9147 106.594 60.3606 106.559 59.8412 106.39C59.353 106.224 58.9204 105.927 58.5912 105.53C58.2506 105.112 58.0264 104.612 57.9412 104.08C57.8319 103.547 57.87 102.993 58.0512 102.48C58.2174 101.992 58.5192 101.562 58.9212 101.24C59.339 100.892 59.8437 100.664 60.3812 100.58C60.8227 100.485 61.2796 100.485 61.7212 100.58C62.083 100.656 62.4241 100.81 62.7212 101.03L62.1512 97.95L63.2712 97.77ZM61.4712 105.47C61.8382 105.404 62.1824 105.246 62.4712 105.01C62.7386 104.791 62.9423 104.504 63.0612 104.18C63.1754 103.839 63.1995 103.473 63.1312 103.12C63.0801 102.752 62.9278 102.406 62.6912 102.12C62.4732 101.852 62.1811 101.653 61.8512 101.55C61.4926 101.434 61.1101 101.413 60.7412 101.49C60.3736 101.548 60.0282 101.703 59.7412 101.94C59.4718 102.153 59.2675 102.437 59.1512 102.76C59.0294 103.1 59.0017 103.466 59.0712 103.82C59.1251 104.189 59.2809 104.535 59.5212 104.82C59.7475 105.079 60.0368 105.275 60.3612 105.39C60.7086 105.508 61.0802 105.535 61.4412 105.47H61.4712ZM70.3212 100.47C70.0101 100.297 69.672 100.179 69.3212 100.12C68.9912 100.052 68.6511 100.052 68.3212 100.12C68.1263 100.154 67.9354 100.208 67.7512 100.28C67.5758 100.341 67.418 100.444 67.2912 100.58C67.2303 100.638 67.1862 100.711 67.1633 100.792C67.1404 100.873 67.1397 100.959 67.1612 101.04C67.1729 101.121 67.2046 101.199 67.2535 101.265C67.3023 101.331 67.3668 101.385 67.4412 101.42C67.6263 101.508 67.8267 101.558 68.0312 101.57H68.8212C69.1022 101.57 69.3829 101.59 69.6612 101.63C69.9247 101.649 70.1841 101.706 70.4312 101.8C70.6597 101.875 70.866 102.005 71.0312 102.18C71.2127 102.364 71.3287 102.603 71.3612 102.86C71.4297 103.202 71.3729 103.557 71.2011 103.86C71.0169 104.174 70.7553 104.436 70.4412 104.62C70.0975 104.827 69.7173 104.966 69.3212 105.03C68.8247 105.115 68.3176 105.115 67.8212 105.03C67.3369 104.959 66.8807 104.759 66.5012 104.45L67.1412 103.64C67.4144 103.831 67.719 103.974 68.0412 104.06C68.4102 104.14 68.7922 104.14 69.1612 104.06C69.3508 104.026 69.5356 103.969 69.7112 103.89C69.8827 103.821 70.039 103.719 70.1712 103.59C70.2292 103.524 70.2711 103.445 70.2936 103.36C70.3162 103.275 70.3188 103.186 70.3012 103.1C70.2856 103.022 70.2522 102.949 70.2036 102.887C70.155 102.824 70.0926 102.774 70.0211 102.74C69.8302 102.661 69.6275 102.614 69.4212 102.6C69.1811 102.6 68.9212 102.6 68.6412 102.6C68.2411 102.6 67.8512 102.6 67.4911 102.5C67.1315 102.458 66.7879 102.327 66.4911 102.12C66.2203 101.88 66.0461 101.549 66.0012 101.19C65.9367 100.874 65.9939 100.546 66.1612 100.27C66.3503 99.9702 66.6116 99.7227 66.9212 99.55C67.2761 99.342 67.6657 99.1997 68.0712 99.13C68.3775 99.0718 68.6895 99.0483 69.0012 99.06C69.3126 99.0576 69.6226 99.1014 69.9212 99.19C70.2153 99.2623 70.4912 99.3951 70.7312 99.58L70.3212 100.47Z" fill="#010101"/>
<path d="M57.5905 44.23C54.3705 48.17 50.4705 54.44 50.6705 62.45C50.7122 63.6586 50.8224 64.8639 51.0005 66.06C51.6405 71 52.6605 78.06 54.3005 87.18" stroke="#1E6F5D" stroke-width="2" stroke-miterlimit="10" stroke-linecap="round"/>
<path d="M37.5312 53.12C42.0012 55.76 48.0013 60.37 50.4713 68C50.83 69.1519 51.1205 70.3239 51.3413 71.51C52.3413 76.39 53.7313 83.44 55.1613 92.51" stroke="#1E6F5D" stroke-width="2" stroke-miterlimit="10" stroke-linecap="round"/>
<path d="M44.1312 31.38C43.1312 30.87 39.7012 34.13 38.0112 38.29C35.0112 45.62 37.8112 54.9 40.4912 55.19C41.6012 55.32 42.6012 53.85 42.8712 53.45C44.7612 50.67 42.9912 47.68 42.6612 42.93C42.1712 36.06 45.1912 31.93 44.1312 31.38Z" fill="white"/>
<path d="M44.1107 31.42C43.5907 31.27 43.1107 31.65 42.6407 31.96C42.2073 32.3068 41.8057 32.6917 41.4407 33.11C40.7194 33.9483 40.0829 34.8561 39.5407 35.82C38.4517 37.7321 37.6943 39.8149 37.3007 41.98C36.8708 44.1543 36.81 46.3855 37.1207 48.58C37.2733 49.6805 37.5484 50.7605 37.9407 51.8C38.2852 52.839 38.8713 53.7815 39.6507 54.55C39.8168 54.7215 40.0269 54.8439 40.258 54.9039C40.4891 54.9639 40.7322 54.9591 40.9607 54.89C41.4252 54.678 41.8279 54.3511 42.1307 53.94C42.8313 53.1339 43.2553 52.1246 43.3407 51.06C43.3724 49.9862 43.258 48.913 43.0007 47.87C42.7807 46.78 42.5707 45.67 42.4207 44.55C42.0933 42.2981 42.1678 40.0059 42.6407 37.78C42.883 36.6805 43.1868 35.5954 43.5507 34.53C43.7307 34 43.9007 33.47 44.0707 32.94C44.1482 32.6735 44.2117 32.4031 44.2607 32.13C44.3207 31.88 44.3507 31.55 44.1107 31.42ZM44.1107 31.35C44.4107 31.51 44.3707 31.89 44.3507 32.15C44.3061 32.4265 44.246 32.7002 44.1707 32.97C44.0307 33.52 43.8607 34.05 43.7307 34.59C43.4549 35.6657 43.2478 36.7579 43.1107 37.86C42.8473 40.0465 42.8641 42.2577 43.1607 44.44C43.3107 45.54 43.5507 46.61 43.7507 47.72C43.9904 48.8465 44.0746 50.0006 44.0007 51.15C43.8732 52.3357 43.3644 53.4481 42.5507 54.32C42.1683 54.8003 41.6591 55.164 41.0807 55.37C40.7568 55.482 40.4047 55.482 40.0807 55.37C39.7898 55.2575 39.5245 55.0874 39.3007 54.87C38.527 54.0057 37.9534 52.9813 37.6207 51.87C37.254 50.8048 36.9764 49.7111 36.7907 48.6C36.394 46.3748 36.3367 44.1024 36.6207 41.86C36.9394 39.5988 37.7781 37.4424 39.0707 35.56C39.7017 34.62 40.4253 33.7456 41.2307 32.95C41.6316 32.5574 42.0593 32.1932 42.5107 31.86C43.0007 31.59 43.5407 31.17 44.1507 31.35H44.1107Z" fill="#231F20"/>
<path d="M40.1211 55.26C39.8311 53.2 34.1211 52.66 28.1211 52.08C23.9111 51.68 22.3111 51.98 21.3011 53.08C19.8611 54.65 20.0911 57.29 20.1211 57.59C20.1199 58.0605 20.3029 58.5128 20.6311 58.85C20.8956 59.0054 21.1894 59.1043 21.4941 59.1404C21.7987 59.1766 22.1076 59.1492 22.4011 59.06C23.8679 58.9918 25.3377 59.0186 26.8011 59.14C31.1911 58.98 31.7211 60.14 34.2511 59.67C37.1711 59.13 40.3611 56.87 40.1211 55.26Z" fill="white"/>
<path d="M40.0905 55.26C40.0269 55.0247 39.9136 54.8056 39.7584 54.6176C39.6032 54.4297 39.4095 54.277 39.1905 54.17C38.7588 53.9296 38.2985 53.7448 37.8205 53.62C36.8597 53.3845 35.8842 53.2142 34.9005 53.11L29.0005 52.48C28.0005 52.36 27.0005 52.22 26.0005 52.14C25.0213 52.0363 24.0326 52.0632 23.0605 52.22C22.5848 52.3077 22.1341 52.4988 21.7405 52.78C21.3637 53.0818 21.051 53.4558 20.8205 53.88C20.3946 54.7571 20.1919 55.7258 20.2305 56.7C20.2248 57.1754 20.282 57.6495 20.4005 58.11C20.4541 58.2993 20.5624 58.4687 20.7119 58.5967C20.8613 58.7248 21.0452 58.806 21.2405 58.83C21.7115 58.8526 22.1833 58.8055 22.6405 58.69C23.156 58.6402 23.675 58.6402 24.1905 58.69C25.1877 58.7809 26.1896 58.811 27.1905 58.78C28.1944 58.7413 29.1996 58.8049 30.1905 58.97C31.1437 59.1882 32.1086 59.3518 33.0805 59.46C34.0389 59.4554 34.9894 59.2863 35.8905 58.96C36.824 58.6558 37.707 58.2143 38.5105 57.65C38.9108 57.3667 39.2708 57.0303 39.5805 56.65C39.9221 56.269 40.1046 55.7715 40.0905 55.26ZM40.1605 55.26C40.1962 55.775 40.0313 56.2838 39.7005 56.68C39.4112 57.0844 39.0756 57.4536 38.7005 57.78C37.9283 58.4359 37.0662 58.9781 36.1405 59.39C35.1988 59.8327 34.1798 60.0875 33.1405 60.14C32.1291 60.0863 31.1248 59.939 30.1405 59.7C29.1764 59.5681 28.2034 59.5113 27.2305 59.53C26.228 59.5339 25.2262 59.4772 24.2305 59.36C23.7513 59.32 23.2697 59.32 22.7905 59.36C22.2736 59.4615 21.7444 59.4851 21.2205 59.43C20.9198 59.3799 20.641 59.2405 20.4205 59.03C20.2083 58.8184 20.0594 58.5517 19.9905 58.26C19.8867 57.7469 19.8564 57.2216 19.9005 56.7C19.9334 55.6747 20.1966 54.6699 20.6705 53.76C20.9081 53.3122 21.239 52.9207 21.641 52.6118C22.043 52.303 22.5066 52.0841 23.0005 51.97C24.9878 51.6796 27.0039 51.6426 29.0005 51.86C30.9987 51.9906 32.9862 52.2512 34.9505 52.64C35.9341 52.8408 36.903 53.1081 37.8505 53.44C38.3253 53.6043 38.7812 53.8189 39.2105 54.08C39.4448 54.1937 39.6513 54.3573 39.8154 54.5595C39.9796 54.7616 40.0974 54.9974 40.1605 55.25V55.26Z" fill="#231F20"/>
<path d="M52.8208 49.14C52.6808 47.14 55.3408 43.51 55.3408 43.51C55.3408 43.51 58.6208 39.06 62.1008 37.17C62.1894 37.1065 62.291 37.0637 62.3983 37.0447C62.5056 37.0257 62.6158 37.0309 62.7208 37.06C63.2508 37.33 62.9408 38.94 62.8308 39.5C62.2408 42.5 56.4108 48.02 54.2308 50C54.0661 50.0819 53.8847 50.1245 53.7008 50.1245C53.5169 50.1245 53.3354 50.0819 53.1708 50C53.0533 49.8908 52.961 49.7573 52.9006 49.6087C52.8401 49.4602 52.8129 49.3002 52.8208 49.14Z" fill="#8DC63F"/>
<path d="M52.7809 49.14C52.7857 48.4549 52.9179 47.7767 53.1709 47.14C53.4014 46.4907 53.6788 45.8591 54.0009 45.25C54.5909 44.0067 55.3664 42.8603 56.3009 41.85C57.2317 40.8452 58.2344 39.9094 59.3009 39.05C59.8309 38.62 60.3709 38.2 60.9209 37.8C61.2009 37.6 61.4809 37.41 61.7709 37.23C62.0609 37.05 62.0609 37.05 62.2309 36.97C62.3271 36.9216 62.4333 36.8965 62.5409 36.8965C62.6486 36.8965 62.7548 36.9216 62.8509 36.97C63.2809 37.27 63.2309 37.7 63.2709 38.04C63.2959 38.3896 63.2959 38.7405 63.2709 39.09C63.1979 39.7884 62.9943 40.4668 62.6709 41.09C62.0192 42.3072 61.238 43.4505 60.3409 44.5C59.4588 45.5529 58.5173 46.5545 57.5209 47.5C56.5209 48.43 55.4509 49.27 54.4009 50.13C54.2346 50.1996 54.0562 50.2354 53.8759 50.2354C53.6957 50.2354 53.5172 50.1996 53.3509 50.13C53.1729 50.0348 53.0251 49.8915 52.9243 49.7165C52.8236 49.5416 52.7739 49.3418 52.7809 49.14ZM52.8609 49.14C52.8498 49.3023 52.8819 49.4645 52.9539 49.6103C53.026 49.7561 53.1353 49.8802 53.2709 49.97C53.4212 50.0274 53.582 50.0517 53.7425 50.0413C53.9029 50.031 54.0593 49.9862 54.2009 49.91C55.1509 48.91 56.0409 47.91 56.9509 46.91C57.8609 45.91 58.7909 44.91 59.6609 43.91C60.5411 42.9418 61.3248 41.8902 62.0009 40.77C62.3326 40.2151 62.5628 39.6056 62.6809 38.97C62.7528 38.6407 62.7996 38.3064 62.8209 37.97C62.8209 37.66 62.8209 37.29 62.6509 37.18C62.4809 37.07 62.1409 37.27 61.8709 37.43C61.6009 37.59 61.3009 37.78 61.0109 37.96C60.4576 38.3444 59.936 38.7724 59.4509 39.24C58.4977 40.1849 57.6027 41.1867 56.7709 42.24C55.9106 43.265 55.1028 44.333 54.3509 45.44C53.5059 46.5027 52.9883 47.7883 52.8609 49.14Z" fill="#231F20"/>
<path d="M54.2808 48.22C54.2808 46.22 56.4208 42.99 56.4208 42.99C56.4208 42.99 59.1108 38.99 61.8708 37.42C61.9808 37.36 62.2008 37.25 62.3608 37.42C62.7608 37.73 62.4708 39.25 62.3608 39.79C61.8108 42.67 57.1008 47.49 55.3608 49.23C55.2264 49.2879 55.0786 49.3074 54.9338 49.2862C54.789 49.265 54.6529 49.204 54.5408 49.11C54.3442 48.8572 54.2512 48.5389 54.2808 48.22Z" fill="#8DC63F"/>
<path d="M54.2414 48.23C54.3362 47.0328 54.6408 45.8616 55.1414 44.77C55.5946 43.6484 56.2223 42.6055 57.0014 41.68C57.765 40.7582 58.601 39.8988 59.5014 39.11C59.9414 38.7 60.4114 38.33 60.8714 37.96C61.1114 37.78 61.3514 37.6 61.6114 37.44C61.7408 37.3511 61.8781 37.2741 62.0214 37.21C62.1207 37.1655 62.2323 37.1562 62.3377 37.1834C62.443 37.2107 62.536 37.2729 62.6014 37.36C62.7533 37.6705 62.8222 38.015 62.8014 38.36C62.7967 38.6641 62.7766 38.9679 62.7414 39.27C62.6766 39.886 62.5216 40.4891 62.2814 41.06C61.7685 42.1592 61.1418 43.2016 60.4114 44.17C59.6909 45.1231 58.9093 46.0283 58.0714 46.88C57.2314 47.73 56.3114 48.49 55.4214 49.27C55.2695 49.3269 55.1047 49.3401 54.9457 49.3083C54.7867 49.2765 54.6397 49.2009 54.5214 49.09C54.3231 48.8488 54.2231 48.5417 54.2414 48.23ZM54.3214 48.23C54.3039 48.5167 54.389 48.8003 54.5614 49.03C54.6677 49.114 54.7961 49.1653 54.931 49.1777C55.0659 49.1901 55.2015 49.1631 55.3214 49.1C56.1014 48.21 56.8314 47.28 57.5814 46.37C58.3314 45.46 59.0914 44.57 59.8014 43.65C60.5325 42.7526 61.1724 41.7844 61.7114 40.76C61.9549 40.2477 62.133 39.7068 62.2414 39.15C62.4046 38.6289 62.4321 38.0747 62.3214 37.54C62.3214 37.37 61.9914 37.49 61.7514 37.66C61.4951 37.8047 61.248 37.965 61.0114 38.14C60.5381 38.4832 60.0993 38.8717 59.7014 39.3C58.9033 40.1691 58.165 41.0912 57.4914 42.06C56.7814 43 56.1614 43.95 55.4914 44.96C54.8261 45.9273 54.423 47.0505 54.3214 48.22V48.23Z" fill="#231F20"/>
<path d="M53.5612 49.66C53.8712 47.58 56.5612 45.09 58.7212 42.28C59.8474 40.5804 61.3408 39.1554 63.0912 38.11C63.2912 38 63.5812 37.87 63.7212 37.98C64.2112 38.39 62.3812 41.62 60.4712 44.06C57.8012 47.48 54.1412 50.43 53.6112 49.98C53.5792 49.9339 53.558 49.8812 53.5494 49.8258C53.5407 49.7703 53.5448 49.7136 53.5612 49.66Z" fill="#8DC63F"/>
<path d="M53.5206 49.65C53.889 48.3448 54.5109 47.1249 55.3506 46.06C56.1306 44.94 57.0106 43.92 57.8806 42.9C58.7378 41.8532 59.649 40.8518 60.6106 39.9C61.1035 39.422 61.6281 38.9776 62.1806 38.57C62.4606 38.38 62.7506 38.2 63.0506 38.02C63.2231 37.9144 63.4188 37.8526 63.6206 37.84C63.6992 37.8412 63.7757 37.8655 63.8406 37.91C63.9001 37.953 63.9539 38.0034 64.0006 38.06C64.0189 38.1692 64.0189 38.2808 64.0006 38.39C63.8809 39.0912 63.6443 39.7672 63.3006 40.39C62.9986 41.0036 62.6648 41.6011 62.3006 42.18C61.5848 43.3495 60.7719 44.4567 59.8706 45.49C58.9656 46.5232 57.9608 47.4645 56.8706 48.3C56.3206 48.71 55.7706 49.11 55.1806 49.47C54.893 49.6581 54.5922 49.8252 54.2806 49.97C54.1226 50.0434 53.9537 50.0907 53.7806 50.11C53.7299 50.1137 53.6793 50.1011 53.6361 50.0741C53.593 50.0472 53.5596 50.0072 53.5406 49.96C53.5012 49.8614 53.4942 49.7528 53.5206 49.65ZM53.5906 49.65C53.5906 49.82 53.5906 49.99 53.7706 49.97C53.9332 49.9484 54.0897 49.894 54.2306 49.81C54.5235 49.6537 54.7984 49.4659 55.0506 49.25C55.5723 48.8249 56.0666 48.3673 56.5306 47.88C57.4506 46.88 58.3806 45.94 59.2406 44.88C60.1128 43.8665 60.9274 42.8048 61.6806 41.7C62.0606 41.1533 62.4206 40.5933 62.7606 40.02C63.1115 39.4749 63.3905 38.8867 63.5906 38.27C63.5951 38.2101 63.5951 38.1499 63.5906 38.09C63.4547 38.1012 63.3223 38.1386 63.2006 38.2C62.8958 38.3381 62.6017 38.4985 62.3206 38.68C61.7652 39.0534 61.2492 39.4822 60.7806 39.96C59.903 40.9827 59.0977 42.0653 58.3706 43.2C57.5493 44.2785 56.6644 45.307 55.7206 46.28C54.7121 47.1884 53.9749 48.3583 53.5906 49.66V49.65Z" fill="#231F20"/>
<path d="M54.0004 49.19C54.5726 48.3581 55.2442 47.5991 56.0004 46.93C56.3904 46.6 56.8204 46.32 57.1704 45.93C57.5293 45.5741 57.8418 45.1743 58.1004 44.74C58.6404 43.88 59.2104 43.06 59.7904 42.25C60.4027 41.4283 61.071 40.6498 61.7904 39.92C61.4634 40.8939 61.0059 41.819 60.4304 42.67C59.8506 43.5081 59.1799 44.2794 58.4304 44.97C58.0491 45.3047 57.6916 45.6656 57.3604 46.05C57.0504 46.45 56.7704 46.89 56.4604 47.29C55.7797 48.1012 54.9432 48.7677 54.0004 49.25H53.9404C53.9404 49.2341 53.9468 49.2188 53.958 49.2076C53.9693 49.1963 53.9845 49.19 54.0004 49.19Z" fill="#231F20"/>
<path d="M55.4307 45.37L61.0807 38.47L55.4307 45.37Z" fill="#8DC63F"/>
<path d="M55.4111 45.35C55.7479 44.6813 56.1753 44.0621 56.6811 43.51C56.9411 43.25 57.2311 43.01 57.4811 42.73C57.7297 42.4497 57.9539 42.1486 58.1511 41.83C58.9288 40.5511 59.912 39.4091 61.0611 38.45C60.3501 39.7677 59.424 40.9574 58.3211 41.97C58.0527 42.2294 57.8021 42.5067 57.5711 42.8C57.3511 43.1 57.1711 43.44 56.9611 43.75C56.5209 44.3554 55.9994 44.8972 55.4111 45.36V45.35Z" fill="#231F20"/>
<path d="M30.0005 40C29.268 40.387 28.6366 40.9406 28.1572 41.6163C27.6778 42.2919 27.3638 43.0708 27.2405 43.89C26.7405 47.19 30.0905 50.03 32.5705 52.14C33.9405 53.3 38.7005 57.34 40.6505 55.98C42.1805 54.91 41.1905 51.09 40.7005 49.2C40.1905 47.06 39.3805 43.96 37.0005 42.85C36.0106 42.5826 35.0783 42.1351 34.2505 41.53C33.3605 40.74 33.2505 40.07 32.3905 39.76C31.5933 39.5223 30.7345 39.6085 30.0005 40Z" fill="white"/>
<path d="M30.0611 40.06C29.2015 40.5117 28.4966 41.21 28.0369 42.0654C27.5772 42.9207 27.3836 43.8939 27.4811 44.86C27.6059 45.7931 27.9484 46.6838 28.4811 47.46C29.023 48.2567 29.6355 49.0031 30.3111 49.69C30.9711 50.4 31.6911 51.07 32.4211 51.69C33.1511 52.31 33.9011 53.06 34.6811 53.64C35.4506 54.2452 36.2702 54.7838 37.1311 55.25C37.9527 55.7476 38.8908 56.02 39.8511 56.04C40.0562 56.0188 40.2535 55.9499 40.4271 55.8388C40.6008 55.7276 40.746 55.5774 40.8511 55.4C41.0541 55.0002 41.1603 54.5584 41.1611 54.11C41.1729 53.1537 41.0654 52.1997 40.8411 51.27C40.6311 50.27 40.3611 49.37 40.1011 48.43C39.8494 47.4954 39.5147 46.5851 39.1011 45.71C38.7123 44.869 38.1379 44.1271 37.4211 43.54C37.0527 43.2605 36.6405 43.0442 36.2011 42.9C35.7142 42.7465 35.2475 42.535 34.8111 42.27C34.3764 42.0009 33.988 41.6632 33.6611 41.27C33.4025 40.845 33.1116 40.4405 32.7911 40.06C32.38 39.8091 31.9077 39.6763 31.4261 39.6763C30.9445 39.6763 30.4722 39.8091 30.0611 40.06ZM30.0611 39.99C30.498 39.7293 30.9973 39.5916 31.5061 39.5916C32.0149 39.5916 32.5142 39.7293 32.9511 39.99C33.3261 40.3213 33.677 40.6789 34.0011 41.06C34.3303 41.3961 34.712 41.6764 35.1311 41.89C35.5664 42.0836 36.0182 42.2375 36.4811 42.35C36.9904 42.4911 37.4733 42.714 37.9111 43.01C38.7706 43.6315 39.4587 44.4607 39.9111 45.42C40.7119 47.2638 41.2861 49.1979 41.6211 51.18C41.8313 52.1653 41.9086 53.1742 41.8511 54.18C41.8223 54.7191 41.6572 55.2421 41.3711 55.7C41.2088 55.9328 40.9937 56.1239 40.7435 56.2577C40.4932 56.3915 40.2149 56.4643 39.9311 56.47C38.9074 56.3751 37.9222 56.0318 37.0611 55.47C36.2011 54.97 35.3911 54.4 34.5811 53.82C33.0111 52.62 31.4211 51.45 29.9511 50.09C29.2097 49.4021 28.5549 48.6263 28.0011 47.78C27.4092 46.9191 27.0634 45.9129 27.0011 44.87C26.9935 43.8408 27.2891 42.8322 27.8511 41.97C28.3594 41.1095 29.1062 40.4149 30.0011 39.97L30.0611 39.99Z" fill="#231F20"/>
<path d="M42.5612 53.72C41.6312 52.6903 40.9473 51.4627 40.5612 50.13C40.4012 49.45 40.3412 48.76 40.2112 48.13C40.0812 47.5 39.8912 46.82 39.6812 46.13C39.3031 44.8085 39.1576 43.4313 39.2512 42.06C39.3423 40.6515 39.7563 39.2829 40.4612 38.06C40.4714 38.0527 40.4836 38.0487 40.4962 38.0487C40.5087 38.0487 40.521 38.0527 40.5312 38.06C40.5365 38.0762 40.5365 38.0938 40.5312 38.11C40.4212 39.49 40.3212 40.79 40.2912 42.11C40.2912 42.76 40.2212 43.41 40.2312 44.11V46.11C40.2328 46.7878 40.3339 47.4616 40.5312 48.11C40.7591 48.7426 41.0332 49.3575 41.3512 49.95C41.8785 51.1854 42.3 52.4633 42.6112 53.77V53.83C42.6112 53.83 42.5812 53.73 42.5612 53.72Z" fill="#231F20"/>
<path d="M40.081 55.8C38.8019 55.2701 37.6624 54.4522 36.751 53.41C36.321 52.88 35.961 52.28 35.551 51.74C35.1351 51.2004 34.6912 50.683 34.221 50.19C33.2846 49.1639 32.5334 47.9831 32.001 46.7C31.4872 45.4012 31.2752 44.0027 31.381 42.61C31.381 42.61 31.381 42.61 31.431 42.61C31.4386 42.6056 31.4472 42.6033 31.456 42.6033C31.4648 42.6033 31.4734 42.6056 31.481 42.61C31.981 43.89 32.481 45.11 32.991 46.3C33.261 46.9 33.501 47.51 33.791 48.1L34.671 49.88C34.963 50.4864 35.3439 51.0459 35.801 51.54C36.284 52.0081 36.7985 52.4424 37.341 52.84C38.3511 53.7258 39.2875 54.6924 40.141 55.73C40.1483 55.7402 40.1522 55.7524 40.1522 55.765C40.1522 55.7776 40.1483 55.7898 40.141 55.8C40.141 55.8 40.091 55.81 40.081 55.8Z" fill="#231F20"/>
<path d="M38.751 54.15C40.631 48.91 41.571 46.3 43.521 44.5C45.0328 43.0233 46.9334 42.0071 49.001 41.57C50.081 41.35 53.461 40.67 55.281 42.67C55.5882 42.9216 55.8368 43.2371 56.0095 43.5946C56.1822 43.9521 56.2749 44.343 56.281 44.74C55.981 46.8 51.721 46.26 47.921 49.87C47.921 49.87 47.921 49.87 45.171 52.93C43.521 54.77 43.171 55.47 42.101 56.35C41.031 57.23 38.921 58.5 38.201 57.9C37.671 57.53 37.891 56.55 38.751 54.15Z" fill="white"/>
<path d="M38.7105 54.14C39.4905 52.06 40.0805 49.92 40.9405 47.85C41.3564 46.7891 41.9368 45.8003 42.6605 44.92C43.4171 44.0607 44.3006 43.3222 45.2805 42.73C47.2566 41.6065 49.5093 41.0624 51.7805 41.16C52.9184 41.1563 54.0294 41.5057 54.9605 42.16C55.3965 42.5342 55.777 42.9685 56.0905 43.45C56.2604 43.7077 56.3623 44.0043 56.3868 44.312C56.4112 44.6197 56.3575 44.9286 56.2305 45.21C55.9144 45.7289 55.4366 46.1294 54.8705 46.35C54.3505 46.61 53.8705 46.79 53.3105 47C52.2731 47.3739 51.2695 47.8356 50.3105 48.38C49.3849 48.9225 48.5429 49.5961 47.8105 50.38L45.5805 52.85C44.8205 53.66 44.1605 54.51 43.4205 55.37C42.6624 56.2303 41.7457 56.9364 40.7205 57.45C40.2164 57.7229 39.683 57.9376 39.1305 58.09C38.8331 58.1748 38.5179 58.1748 38.2205 58.09C38.0655 58.0313 37.9344 57.9229 37.8476 57.7818C37.7607 57.6407 37.7231 57.4748 37.7405 57.31C37.9213 56.2149 38.2475 55.1488 38.7105 54.14ZM38.7805 54.14C38.6105 54.67 38.4305 55.14 38.2805 55.72C38.0982 56.2443 38.0036 56.795 38.0005 57.35C37.9932 57.4645 38.0248 57.5782 38.0901 57.6725C38.1555 57.7669 38.2507 57.8365 38.3605 57.87C38.6056 57.915 38.8584 57.8908 39.0905 57.8C39.5982 57.6187 40.0792 57.3698 40.5205 57.06C41.4342 56.4938 42.2484 55.7809 42.9305 54.95C43.5805 54.08 44.3105 53.2 45.0605 52.37C45.8105 51.54 46.5205 50.71 47.2805 49.9C48.0793 49.076 48.996 48.3751 50.0005 47.82C50.9933 47.2805 52.0345 46.8352 53.1105 46.49C53.6305 46.3 54.1105 46.14 54.6605 45.94C55.1442 45.7771 55.5664 45.47 55.8705 45.06C55.9798 44.8367 56.0308 44.5893 56.0186 44.341C56.0063 44.0926 55.9313 43.8515 55.8005 43.64C55.5473 43.168 55.2081 42.7474 54.8005 42.4C53.946 41.7302 52.886 41.3768 51.8005 41.4C49.6097 41.3862 47.4648 42.0269 45.6405 43.24C44.7389 43.8345 43.9128 44.5363 43.1805 45.33C42.4602 46.159 41.8487 47.0764 41.3605 48.06C40.3741 50.0376 39.5125 52.0749 38.7805 54.16V54.14Z" fill="#231F20"/>
<path d="M41.4708 57.93C41.4708 58.79 37.4708 58.26 33.4008 60.78C30.9973 62.0901 29.0977 64.1621 28.0008 66.67C26.8308 69.67 27.5908 72.67 26.5208 72.94C25.8808 73.12 25.1008 72.19 24.9608 72.01C22.7408 69.34 24.7508 64.43 24.9608 64.01C26.9008 59.45 31.8308 56.08 36.6608 56.23C39.0708 56.29 41.5008 57.25 41.4708 57.93Z" fill="white"/>
<path d="M41.5012 57.93C41.4312 58.27 41.0612 58.33 40.8212 58.41L39.9912 58.59C39.4412 58.71 38.8912 58.81 38.3512 58.96C37.2731 59.219 36.2243 59.5876 35.2212 60.06C33.2518 61.0381 31.4817 62.3742 30.0012 64C29.2689 64.8148 28.6744 65.7437 28.2412 66.75C27.823 67.7811 27.5667 68.8706 27.4812 69.98L27.3112 71.66C27.2884 71.9491 27.2314 72.2344 27.1412 72.51C27.0929 72.6694 26.9971 72.8103 26.8667 72.9139C26.7363 73.0175 26.5774 73.0789 26.4112 73.09C26.0989 73.07 25.8011 72.9509 25.5612 72.75C25.3248 72.58 25.1098 72.3819 24.9212 72.16C24.5208 71.7202 24.2085 71.2076 24.0012 70.65C23.6513 69.5386 23.5623 68.3614 23.7412 67.21C23.8904 66.0647 24.1827 64.9426 24.6112 63.87C25.5109 61.7257 26.9722 59.8636 28.8412 58.48C30.6827 57.0686 32.8971 56.2274 35.2112 56.06C36.351 55.9901 37.4947 56.098 38.6012 56.38C39.1522 56.5171 39.6934 56.6908 40.2212 56.9C40.4821 57.0079 40.7331 57.1384 40.9712 57.29C41.2012 57.42 41.4712 57.6 41.5012 57.93ZM41.4312 57.93C41.4312 57.67 41.1412 57.49 40.9212 57.35C40.6813 57.2101 40.4305 57.0897 40.1712 56.99C39.6495 56.7934 39.1105 56.646 38.5612 56.55C37.4686 56.3702 36.3539 56.3702 35.2612 56.55C33.0982 56.9089 31.0559 57.7919 29.3127 59.1219C27.5696 60.4519 26.1786 62.1885 25.2612 64.18C24.8324 65.1878 24.5204 66.2413 24.3312 67.32C24.119 68.3889 24.1429 69.4913 24.4012 70.55C24.5408 71.0709 24.7859 71.5576 25.1212 71.98C25.4026 72.4252 25.8482 72.7414 26.3612 72.86C26.8512 72.86 26.9612 72.17 27.0312 71.66C27.1012 71.15 27.1212 70.55 27.1712 69.98C27.2425 68.8449 27.4541 67.7231 27.8012 66.64C28.1808 65.5512 28.7458 64.5363 29.4712 63.64C30.9599 61.8819 32.8593 60.5182 35.0012 59.67C36.0617 59.2589 37.1605 58.954 38.2812 58.76L40.0012 58.49C40.2812 58.49 40.5512 58.39 40.8212 58.33C41.0912 58.27 41.3712 58.18 41.4312 57.93Z" fill="#231F20"/>
<path d="M33.001 50.26L39.001 56.79L33.001 50.26Z" fill="white"/>
<path d="M33.001 50.26L39.001 56.79" stroke="#231F20" stroke-width="0.75" stroke-miterlimit="10"/>
<path d="M30.3114 47.39C29.9514 47.68 30.7114 49.33 31.9414 50.39C32.4614 50.8 33.3314 51.33 33.5914 51.12C33.8514 50.91 33.4314 50.03 33.1514 49.57C32.3014 48.14 30.6714 47.06 30.3114 47.39Z" fill="#380000" stroke="#231F20" stroke-width="0.75" stroke-miterlimit="10"/>
<path d="M33.001 53.88L38.441 57.51L33.001 53.88Z" fill="white"/>
<path d="M33.001 53.88L38.441 57.51" stroke="#231F20" stroke-width="0.75" stroke-miterlimit="10"/>
<path d="M29.5613 51.06C29.2513 51.41 30.2813 52.91 31.6713 53.69C32.2513 54.01 33.2013 54.38 33.4213 54.13C33.6413 53.88 33.0713 53.08 32.7213 52.67C31.6513 51.49 29.8713 50.74 29.5613 51.06Z" fill="#380000" stroke="#231F20" stroke-width="0.75" stroke-miterlimit="10"/>
<path d="M36.2607 50.97L40.1807 56.2L36.2607 50.97Z" fill="white"/>
<path d="M36.2607 50.97L40.1807 56.2" stroke="#231F20" stroke-width="0.75" stroke-miterlimit="10"/>
<path d="M40.3906 55.51C39.2606 56.24 35.8506 58.45 36.2606 61.86C36.5806 64.6 39.1306 66.06 39.7706 66.39C41.3406 67.21 44.0406 67.83 44.9506 66.71C45.4006 66.16 45.0306 65.71 43.9506 60.55C43.5898 59.2458 43.3884 57.9027 43.3506 56.55C43.4106 55.55 43.6106 54.94 43.2506 54.64C42.6106 54.06 40.6706 55.33 40.3906 55.51Z" fill="white"/>
<path d="M40.411 55.54C39.1898 56.2912 38.1622 57.3188 37.411 58.54C36.6801 59.7148 36.4395 61.1296 36.741 62.48C37.1074 63.8512 37.9605 65.0421 39.141 65.83C40.3217 66.6338 41.7129 67.072 43.141 67.09C43.4539 67.118 43.7688 67.0688 44.0582 66.9468C44.3477 66.8248 44.6027 66.6336 44.801 66.39C44.8476 66.0919 44.8236 65.7871 44.731 65.5L44.481 64.5C44.131 63.09 43.791 61.66 43.481 60.23C43.351 59.51 43.211 58.79 43.121 58.06C43.0633 57.6828 43.0366 57.3016 43.041 56.92C43.0638 56.5435 43.1139 56.1692 43.191 55.8C43.241 55.45 43.331 55.07 43.191 54.86C43.051 54.65 42.671 54.63 42.331 54.69C41.6471 54.8614 40.9977 55.1489 40.411 55.54ZM40.411 55.48C41.0315 55.0613 41.7038 54.7251 42.411 54.48C42.6041 54.391 42.8186 54.3587 43.0293 54.3871C43.24 54.4154 43.4383 54.5031 43.601 54.64C43.7974 55.0073 43.8677 55.4289 43.801 55.84C43.801 56.2 43.801 56.57 43.801 56.9C43.801 57.23 43.901 57.58 43.961 57.9L44.301 60.06L45.171 64.34C45.241 64.69 45.321 65.05 45.381 65.42C45.4877 65.8359 45.4703 66.2739 45.331 66.68C45.2233 66.8669 45.0794 67.0304 44.9077 67.1609C44.736 67.2914 44.5399 67.3863 44.331 67.44C43.9534 67.542 43.5606 67.5759 43.171 67.54C41.6834 67.384 40.2542 66.8767 39.001 66.06C37.677 65.2963 36.6617 64.0935 36.131 62.66C35.9094 61.9158 35.8728 61.1287 36.0244 60.3672C36.176 59.6056 36.5113 58.8926 37.001 58.29C37.957 57.1692 39.0966 56.219 40.371 55.48H40.411Z" fill="#231F20"/>
<path d="M33.9112 47.19C33.5112 47.41 33.9812 49.19 35.0312 50.36C35.4712 50.86 36.2412 51.53 36.5412 51.36C36.8412 51.19 36.5412 50.26 36.3612 49.76C35.7512 48.26 34.3212 46.96 33.9112 47.19Z" fill="#380000" stroke="#231F20" stroke-width="0.75" stroke-miterlimit="10"/>
<path d="M60.7108 57.94C60.2808 61.94 58.8308 63.68 57.7108 64.5C57.4308 64.71 57.1808 64.85 54.7108 66.22L51.0508 68.22C51.2065 67.2715 51.4543 66.3404 51.7908 65.44C52.1947 64.0083 52.963 62.7059 54.0208 61.66C55.0208 60.8 55.5908 60.97 57.4208 60.06C58.6027 59.4953 59.7082 58.7829 60.7108 57.94Z" fill="#3E9581"/>
<path d="M60.7306 57.91C60.7693 59.1997 60.5658 60.4853 60.1306 61.7C59.7146 62.9551 58.9088 64.0446 57.8306 64.81C56.7006 65.39 55.5506 65.94 54.4406 66.53C53.3306 67.12 52.2606 67.76 51.1906 68.42L50.8506 68.63V68.21C50.9874 66.9427 51.3004 65.7008 51.7806 64.52C52.1892 63.2413 52.9604 62.1087 54.0006 61.26C54.54 60.863 55.1513 60.5743 55.8006 60.41C56.3859 60.2318 56.9574 60.0113 57.5106 59.75C58.6333 59.2274 59.7104 58.6119 60.7306 57.91ZM60.7306 57.98C59.8573 58.8991 58.8449 59.6752 57.7306 60.28C57.1699 60.574 56.5922 60.8345 56.0006 61.06C55.4411 61.2292 54.9162 61.4967 54.4506 61.85C53.5476 62.6304 52.8591 63.6287 52.4506 64.75C51.9491 65.8729 51.5573 67.0417 51.2806 68.24L51.0006 68.06C52.1306 67.51 53.2506 66.94 54.3306 66.32C55.4106 65.7 56.4206 64.96 57.4706 64.32C58.4151 63.5761 59.1521 62.6015 59.6106 61.49C60.0655 60.3514 60.4267 59.1775 60.6906 57.98H60.7306Z" fill="#231F20"/>
<path d="M60.7108 57.94C59.2108 59.78 57.5442 61.66 55.7108 63.58C54.1575 65.2333 52.6175 66.7867 51.0908 68.24C52.0908 67.72 53.4408 66.98 55.0908 66.04C56.269 65.4521 57.3818 64.7415 58.4108 63.92C59.2008 63.16 60.5208 61.48 60.7108 57.94Z" fill="#1E6F5D"/>
<path d="M60.701 57.98C59.051 59.98 57.791 61.82 56.271 63.47C55.481 64.28 54.531 65.04 53.681 65.84C52.831 66.64 52.001 67.49 51.221 68.37L51.001 68.06C52.061 67.39 53.121 66.73 54.211 66.06C55.301 65.39 56.361 64.77 57.401 64.06C58.3965 63.4071 59.1815 62.4797 59.661 61.39C60.1381 60.2973 60.4871 59.153 60.701 57.98ZM60.701 57.91C60.7984 59.2049 60.6247 60.506 60.191 61.73C59.759 62.9962 58.9273 64.0877 57.821 64.84C56.751 65.54 55.641 66.13 54.531 66.72C53.421 67.31 52.281 67.85 51.151 68.4L50.001 68.97L51.001 68.11C51.8743 67.33 52.7143 66.51 53.521 65.65C54.321 64.78 55.081 63.93 55.871 63C57.431 61.12 59.271 59.41 60.731 57.91H60.701Z" fill="#231F20"/>
<path d="M40.1709 70.88C41.8909 74.54 43.8309 75.69 45.1209 76.11C45.4609 76.21 45.7409 76.27 48.5109 76.75L52.6309 77.46C52.1728 76.6053 51.6265 75.801 51.0009 75.06C50.15 73.8447 48.9995 72.8698 47.6609 72.23C46.4309 71.75 45.9509 72.09 43.9209 71.83C42.6365 71.6693 41.3769 71.3502 40.1709 70.88Z" fill="#3E9581"/>
<path d="M40.1906 70.91C40.8428 71.9646 41.5749 72.9675 42.3806 73.91C43.1728 74.8224 44.1897 75.5119 45.3306 75.91C46.5306 76.19 47.7206 76.53 48.9506 76.78C50.1806 77.03 51.4206 77.19 52.6706 77.34L52.4506 77.64C51.7956 76.5944 51.0385 75.6163 50.1906 74.72C49.4462 73.7965 48.4792 73.0773 47.3806 72.63C46.8247 72.4547 46.2433 72.3736 45.6606 72.39C45.02 72.3684 44.3818 72.3016 43.7506 72.19C42.5032 71.9564 41.3012 71.5242 40.1906 70.91ZM40.1906 70.91C41.4 71.2351 42.6342 71.4592 43.8806 71.58C44.4887 71.6399 45.1 71.6599 45.7106 71.64C46.3846 71.5757 47.0647 71.6471 47.7106 71.85C48.9453 72.3345 50.0169 73.1599 50.8006 74.23C51.638 75.1885 52.338 76.2587 52.8806 77.41L53.0606 77.8L52.6706 77.71C51.4406 77.44 50.2206 77.18 48.9806 76.99C47.7406 76.8 46.4706 76.66 45.2106 76.47C43.9243 76.1002 42.796 75.3164 42.0006 74.24C41.1735 73.2404 40.5424 72.0937 40.1406 70.86L40.1906 70.91Z" fill="#231F20"/>
<path d="M40.1709 70.88C42.1709 72.12 44.3709 73.36 46.7009 74.58C48.7009 75.65 50.7009 76.58 52.6309 77.46C51.5409 77.29 50.0009 77.03 48.1409 76.68C46.8374 76.521 45.556 76.2158 44.3209 75.77C43.3109 75.32 41.5009 74.16 40.1709 70.88Z" fill="#1E6F5D"/>
<path d="M40.1406 70.86C42.0106 71.79 44.3106 72.86 46.4306 74.07C47.4306 74.68 48.4306 75.23 49.5206 75.8C50.6106 76.37 51.6206 76.8 52.7106 77.29L53.8906 77.79L52.6006 77.64C51.3606 77.49 50.1006 77.35 48.8606 77.16C47.6206 76.97 46.3806 76.77 45.1306 76.46C43.8379 76.1139 42.6933 75.3555 41.8706 74.3C41.0605 73.2864 40.4713 72.1147 40.1406 70.86ZM40.1406 70.86C40.7276 71.9419 41.4428 72.9491 42.2706 73.86C43.0723 74.7373 44.1164 75.3569 45.2706 75.64C46.4706 75.93 47.7006 76.21 48.9206 76.44C50.1406 76.67 51.3806 76.96 52.6006 77.24L52.5006 77.59C51.5006 77.01 50.4106 76.49 49.3406 76C48.2706 75.51 47.1306 75.12 46.1106 74.61C44.2006 73.59 42.4206 72.29 40.1906 70.91L40.1406 70.86Z" fill="#231F20"/>
<path d="M38.8809 55.86C39.1241 54.5188 39.6942 53.2583 40.5409 52.19C40.9809 51.67 41.5409 51.19 41.9509 50.73C42.3609 50.27 42.8109 49.73 43.2309 49.18C43.6311 48.6282 44.0905 48.1219 44.6009 47.67C45.0969 47.2058 45.6285 46.7812 46.1909 46.4C47.3498 45.6541 48.6445 45.1444 50.0009 44.9C50.0095 44.8935 50.02 44.89 50.0309 44.89C50.0417 44.89 50.0522 44.8935 50.0609 44.9C48.9709 45.71 47.8909 46.44 46.8509 47.2C45.8109 47.96 44.7409 48.69 43.6809 49.47C43.1457 49.8618 42.6678 50.3263 42.2609 50.85C41.8868 51.3987 41.5526 51.9735 41.2609 52.57C40.5905 53.7341 39.8351 54.8471 39.0009 55.9C38.9899 55.9099 38.9756 55.9153 38.9609 55.9153C38.9461 55.9153 38.9319 55.9099 38.9209 55.9L38.8809 55.86Z" fill="#231F20"/>
<path d="M38.9213 56.59C39.3705 57.2358 39.6804 57.968 39.8313 58.74C39.8576 59.1305 39.9144 59.5184 40.0013 59.9C40.1163 60.2666 40.3033 60.6065 40.5513 60.9C41.0289 61.4982 41.4729 62.1225 41.8813 62.77C42.3037 63.4311 42.6398 64.1435 42.8813 64.89V64.95C42.1512 64.5603 41.5108 64.0221 41.0013 63.37C40.5285 62.7011 40.189 61.9473 40.0013 61.15C39.9348 60.7749 39.8241 60.409 39.6713 60.06C39.5013 59.71 39.2113 59.39 39.0413 59.06C38.7132 58.3112 38.636 57.4763 38.8213 56.68C38.8315 56.6727 38.8437 56.6687 38.8563 56.6687C38.8688 56.6687 38.8811 56.6727 38.8913 56.68L38.9213 56.59Z" fill="#231F20"/>
</svg>
