<svg width="102" height="152" viewBox="0 0 102 152" fill="none" xmlns="http://www.w3.org/2000/svg">
<g clip-path="url(#clip0_1213_205)">
<path d="M51.7256 150.031C74.2065 150.031 92.4309 147.777 92.4309 144.995C92.4309 142.214 74.2065 139.959 51.7256 139.959C29.2446 139.959 11.0203 142.214 11.0203 144.995C11.0203 147.777 29.2446 150.031 51.7256 150.031Z" fill="#D0D2D3"/>
<path d="M42.1565 152.001H42.0129H41.9939C41.2353 151.99 40.4819 151.873 39.7553 151.655C39.4741 151.569 39.1979 151.466 38.9283 151.349C36.2849 150.197 34.3853 147.619 33.2799 143.69C33.2799 143.69 33.1155 143.195 31.6347 142.277C30.3596 141.486 28.6487 140.702 26.8374 139.874C23.6836 138.427 20.4225 136.933 18.0662 134.841C14.0232 131.25 14.4868 127.416 15.5889 124.831L15.5975 124.812C15.6667 124.651 15.7428 124.489 15.838 124.307C15.8605 124.262 15.8864 124.212 15.9141 124.163C16.0006 124.003 16.0871 123.861 16.1701 123.726C16.2013 123.676 16.2359 123.624 16.2705 123.574L16.2826 123.554C16.3518 123.452 16.4244 123.35 16.4988 123.252C16.5507 123.183 16.6061 123.108 16.6718 123.037C16.7375 122.966 16.7652 122.927 16.8119 122.864L16.8275 122.847C16.9469 122.709 17.0749 122.572 17.2047 122.444L17.3015 122.35C18.4036 121.302 19.8152 120.62 21.5158 120.299C21.2072 119.617 21.0037 118.893 20.9121 118.15C19.817 118.825 18.8257 119.146 17.8707 119.146C17.6052 119.146 17.3403 119.12 17.0801 119.067C16.9561 119.041 16.8342 119.006 16.7151 118.963C16.1605 118.76 15.6649 118.423 15.2725 117.981C14.8801 117.54 14.603 117.008 14.466 116.434C14.3344 115.847 14.3553 115.236 14.5266 114.659C13.3831 114.501 12.4887 114.1 11.8157 113.448C11.7243 113.359 11.6399 113.264 11.5631 113.162C11.2053 112.692 10.9694 112.141 10.8765 111.557C10.7835 110.974 10.8363 110.376 11.0303 109.818C11.309 109.067 11.827 108.429 12.5042 108.002C12.4104 107.856 12.326 107.705 12.2517 107.548C12.198 107.434 12.1529 107.315 12.1167 107.194C11.9603 106.664 11.9271 106.106 12.0198 105.562C12.1125 105.018 12.3285 104.502 12.6513 104.054C13.1547 103.376 14.1356 102.568 15.9469 102.568C16.2688 102.569 16.5902 102.592 16.9088 102.637L17.3032 102.691C17.3032 101.578 17.5576 100.665 18.0817 99.9227C18.1549 99.8181 18.2353 99.7186 18.3222 99.6251C19.0005 98.9283 19.9277 98.5294 20.8999 98.5161C21.6507 98.5161 22.9085 98.7652 23.924 100.192C25.1592 99.9261 26.4809 99.6874 27.8373 99.4832C27.9099 99.44 27.9826 99.4002 28.057 99.3621C28.3563 96.4868 30.6987 94.1531 31.8907 92.9611C33.0827 91.7691 34.3992 91.1654 35.7901 91.1654C35.995 91.1653 36.1995 91.1791 36.4025 91.2068C36.7954 90.2781 37.3097 89.4055 37.9319 88.6118C38.653 87.6819 39.5537 86.9066 40.5805 86.3317C40.5252 86.1674 40.4698 86.0048 40.4075 85.8421C40.0615 84.8975 39.6964 84.0793 39.2639 83.1312C39.2518 83.1087 39.2414 83.0845 39.2311 83.0603C38.5875 82.7921 37.9457 82.5136 37.316 82.2281C33.0775 80.3026 28.9013 77.8616 26.1454 75.6991C22.841 73.1214 20.4155 70.58 18.9467 68.1494C18.6264 67.6216 18.3416 67.0731 18.0939 66.5075C17.959 66.1927 17.8396 65.8779 17.7479 65.5717C17.7168 65.4731 17.6874 65.3762 17.6614 65.2845C17.6458 65.2308 17.6302 65.1754 17.6164 65.1235C17.5904 65.0232 17.5662 64.9229 17.5437 64.8277C17.4372 64.374 17.3827 63.9097 17.3811 63.4437C17.3811 63.3659 17.3811 63.2915 17.3897 63.2205C17.5627 58.2035 18.3707 53.6156 19.7911 49.538C9.66879 49.3771 3.91647 48.6626 1.39758 46.0953C0.950142 45.6523 0.596907 45.1234 0.359069 44.5404C0.121231 43.9574 0.0037013 43.3323 0.0135748 42.7027C0.0533649 40.0385 2.26258 37.139 6.5876 34.0821C10.1774 31.5407 15.0006 29.1066 20.2858 27.1621L20.3134 27.0444C20.3463 26.8991 20.3792 26.7538 20.4156 26.6068L20.4536 26.4442C20.4864 26.3092 20.5176 26.1777 20.5505 26.0462L20.6958 25.4805C20.6958 25.4805 20.8117 25.0376 20.8463 24.9096C20.8463 24.9096 20.9674 24.4632 21.0037 24.3352C21.0037 24.3352 21.1283 23.8889 21.1664 23.7592L21.3861 23.0066L21.5591 22.434C21.604 22.2904 21.7321 21.8683 21.7321 21.8683C21.7822 21.7074 21.9051 21.2991 21.9051 21.2991C22.303 20.0466 22.7545 18.7144 23.2441 17.346C23.4984 16.6367 23.7631 15.9118 24.0347 15.1904V15.2025L24.1922 14.7839C24.3732 14.3029 24.5503 13.8416 24.7233 13.3998C24.7233 13.3998 24.8582 13.0538 24.8616 13.0538C25.0346 12.6162 25.1973 12.1993 25.3547 11.8083C25.5519 11.3152 25.7371 10.8637 25.9049 10.4571L25.9153 10.4312C26.0433 10.1181 26.1626 9.83256 26.2699 9.57998C26.2699 9.5696 26.7041 8.5541 26.7058 8.55237C26.7993 8.33266 26.8511 8.21507 26.8511 8.21507C27.082 7.69197 27.4783 7.25917 27.9791 6.98329L28.4514 6.7324L28.5189 6.69608C28.6504 6.62688 28.8113 6.54385 28.9964 6.45043L29.5828 6.15292L29.7714 6.05949C33.4045 4.26374 40.4403 1.13757 47.0991 0.248344H47.1182L47.561 0.193015C48.5478 0.073305 49.5409 0.0115261 50.535 0.00793457H50.8463C59.979 0.142875 71.0649 6.32066 73.1946 7.55762L73.3676 7.66321C73.5101 7.74729 73.6439 7.84521 73.7672 7.95557C73.826 8.00747 73.8831 8.06278 73.9402 8.11987C74.0734 8.26 74.2118 8.4157 74.364 8.59562C74.4004 8.63714 74.4401 8.68563 74.4799 8.73407C74.5941 8.87247 74.71 9.01779 74.8259 9.16311C74.8571 9.20117 74.883 9.23575 74.909 9.27208C75.0266 9.43124 75.1564 9.61809 75.2827 9.80147C75.3069 9.83607 75.3709 9.93637 75.3709 9.93637C75.466 10.0782 75.563 10.2323 75.6598 10.388C75.6598 10.388 75.7221 10.4883 75.7463 10.5298C75.8657 10.7287 75.9764 10.9208 76.0819 11.1145L76.1165 11.1769C76.2151 11.3585 76.312 11.5436 76.4089 11.7322L76.4816 11.8792C76.5785 12.0729 76.6736 12.2685 76.767 12.4709L76.7774 12.4934C76.8812 12.7183 76.9781 12.9397 77.0749 13.1629L77.1269 13.2874C77.2099 13.4846 77.2912 13.6836 77.3708 13.8843L77.4019 13.9621C77.4953 14.1974 77.5835 14.4309 77.67 14.668L77.6857 14.7112C77.7687 14.943 77.8465 15.1627 77.9226 15.3859L77.9538 15.4811C78.1129 15.9517 78.2686 16.4464 78.4191 16.9516L78.4399 17.0208C78.587 17.5259 78.7288 18.0397 78.862 18.557V18.5778C78.9278 18.8315 78.9918 19.0875 79.054 19.3459V19.3563C79.7042 22.1078 80.2004 24.8934 80.5402 27.7001C89.3753 31.1238 96.6292 35.7429 99.6861 39.9347L99.738 40.0056C99.8349 40.1405 99.9266 40.2738 100.013 40.4052L100.086 40.5177C100.164 40.6405 100.233 40.753 100.297 40.8637C100.328 40.9156 100.361 40.9709 100.392 41.0263C100.423 41.0817 100.468 41.1648 100.504 41.2322C100.558 41.3343 100.608 41.4363 100.657 41.5367C100.686 41.599 100.712 41.6578 100.74 41.7097C100.785 41.8123 100.828 41.9161 100.869 42.021C100.89 42.0729 100.911 42.1266 100.93 42.1785C100.97 42.2858 101.008 42.3982 101.041 42.509C101.053 42.5453 101.065 42.5868 101.077 42.6265C101.115 42.758 101.15 42.8982 101.181 43.047C101.181 43.0816 101.196 43.1179 101.203 43.1525C101.233 43.3116 101.257 43.4656 101.273 43.6161C101.273 43.6542 101.272 43.6819 101.281 43.7096C101.297 43.8826 101.302 44.0556 101.3 44.2165C101.297 44.39 101.285 44.5633 101.264 44.7355L101.248 44.8496C101.223 45.0204 101.189 45.1897 101.145 45.3565C101.145 45.3842 101.127 45.4205 101.117 45.4517C101.078 45.589 101.032 45.7242 100.978 45.8565C100.963 45.8963 100.947 45.9378 100.928 45.9794C100.865 46.1283 100.794 46.2738 100.715 46.4153C100.689 46.4603 100.669 46.4966 100.646 46.5312C100.581 46.6402 100.511 46.7492 100.435 46.853C100.416 46.8824 100.392 46.9153 100.366 46.9499C100.271 47.0779 100.172 47.1955 100.07 47.308C100.039 47.3426 100.004 47.3789 99.9699 47.4135C99.892 47.4966 99.8107 47.5761 99.7294 47.6505L99.6152 47.7543C99.5287 47.8304 99.4214 47.917 99.3003 48.0087L99.1757 48.1003C99.0823 48.1678 99.0028 48.2249 98.9111 48.2733L98.7294 48.3875C98.6446 48.4377 98.5565 48.4913 98.463 48.5415L98.29 48.6297L98.0478 48.7508L97.7779 48.8737L97.5773 48.9602L97.3696 49.0432L97.1499 49.1245C97.0409 49.1642 96.925 49.204 96.8039 49.2438L96.6396 49.2958C96.3784 49.3788 96.0894 49.4601 95.7884 49.5363L95.669 49.5657C95.3611 49.64 95.041 49.7092 94.7141 49.7732L94.6536 49.7836C92.2627 50.2369 89.0431 50.4566 84.5451 50.4756C85.7769 54.3266 86.481 58.6153 86.6401 63.2569C86.6972 64.3727 86.3963 69.3016 77.8327 75.7389C74.4402 78.2907 69.4958 81.0396 64.7262 83.043L64.6829 83.1382C64.2522 84.0827 63.8802 84.8975 63.5429 85.8369C63.4443 86.1154 63.3508 86.394 63.2626 86.6794C64.9528 87.5046 66.2866 88.6655 67.181 90.1084C67.7193 90.9602 68.1418 91.88 68.4371 92.8434H68.5858C69.6619 92.8434 71.257 93.2257 72.7482 95.0492C74.0838 96.6823 74.9661 98.0906 75.4522 99.3933C77.0092 99.6147 78.5818 99.8897 80.0263 100.199C81.0418 98.7721 82.2996 98.523 83.0521 98.523C83.5333 98.5296 84.0084 98.631 84.4504 98.8212C84.8924 99.0115 85.2926 99.287 85.6281 99.632C85.7154 99.7238 85.7963 99.8215 85.8703 99.9244C86.3893 100.667 86.6523 101.58 86.6471 102.692L87.0415 102.639C87.3602 102.594 87.6815 102.571 88.0034 102.57C89.8147 102.57 90.7956 103.377 91.2991 104.056C91.6224 104.503 91.8389 105.019 91.9319 105.563C92.0248 106.108 91.9918 106.666 91.8354 107.196C91.7983 107.317 91.7526 107.435 91.6987 107.55C91.625 107.707 91.5411 107.858 91.4478 108.004C92.1253 108.43 92.6429 109.069 92.9201 109.82C93.1145 110.378 93.1676 110.976 93.0746 111.559C92.9816 112.143 92.7455 112.694 92.3872 113.164C92.311 113.266 92.2265 113.361 92.1347 113.45C91.4617 114.105 90.569 114.507 89.4255 114.661C89.6818 115.522 89.5972 116.449 89.1893 117.251C88.7813 118.052 88.0812 118.665 87.2336 118.965C87.1145 119.008 86.9925 119.043 86.8686 119.069C86.6083 119.121 86.3434 119.148 86.0779 119.148C84.9603 119.148 83.7943 118.707 82.4691 117.776C82.3826 117.797 82.2961 117.814 82.2062 117.832C81.9277 117.885 81.6464 117.922 81.3636 117.942C81.3636 118.01 81.3637 118.076 81.3723 118.143C81.403 118.825 81.3775 119.508 81.2961 120.186C83.1991 120.411 84.77 121.051 85.9932 122.101C86.0866 122.183 86.1783 122.264 86.2665 122.349C86.2994 122.378 86.3357 122.414 86.372 122.453C86.4966 122.575 86.6228 122.71 86.7439 122.849L86.8979 123.03C86.9568 123.103 87.0121 123.174 87.0709 123.247C87.1298 123.319 87.218 123.447 87.2872 123.553L87.2958 123.565C87.3321 123.618 87.3685 123.672 87.4048 123.738C87.4861 123.864 87.5692 124.008 87.6557 124.165L87.7301 124.307C87.827 124.496 87.9031 124.667 87.9792 124.826C88.3136 125.589 88.5462 126.393 88.6712 127.217C88.7006 127.416 88.7213 127.618 88.7351 127.817C88.762 128.21 88.7586 128.605 88.7248 128.997C88.7093 129.191 88.685 129.385 88.6539 129.575C87.7975 134.8 81.9225 137.491 76.7376 139.868C74.3312 140.97 71.8417 142.117 70.7033 143.183C70.6195 143.26 70.5409 143.342 70.468 143.429C70.4206 143.483 70.3778 143.541 70.3401 143.602C70.3219 143.628 70.3067 143.657 70.295 143.687C69.1913 147.615 67.2918 150.193 64.6501 151.345C64.3797 151.463 64.1031 151.565 63.8214 151.652C63.1646 151.852 62.485 151.968 61.799 151.998C61.7402 151.998 61.6796 151.998 61.626 151.998H61.4322H61.1935H61.1745H61.0395L60.825 151.984H60.7731C60.6606 151.984 60.5482 151.966 60.4375 151.954H60.3925C60.2836 151.942 60.1814 151.928 60.0776 151.913H60.0292L59.7438 151.866L59.6451 151.849C59.5448 151.831 59.4324 151.809 59.3199 151.785C59.2075 151.761 59.0483 151.722 58.8926 151.679L58.768 151.645C58.6072 151.598 58.4653 151.553 58.3286 151.506L58.2715 151.485C58.1446 151.44 58.0184 151.392 57.8926 151.34L57.8079 151.304L57.6349 151.231L57.6038 151.217C57.5276 151.183 57.455 151.152 57.384 151.117L57.3079 151.079C57.2024 151.029 57.0848 150.968 56.9619 150.906L56.8806 150.863C56.7474 150.788 56.6193 150.716 56.4913 150.639L56.4325 150.603C56.3062 150.527 56.1938 150.456 56.0865 150.382L56.0156 150.337C55.8945 150.255 55.7734 150.164 55.654 150.084L55.5796 150.03C55.4689 149.951 55.36 149.868 55.2492 149.783C55.2371 149.774 55.0952 149.662 55.0935 149.659C55.0139 149.596 54.9361 149.531 54.8565 149.465L54.7838 149.404C54.6748 149.313 54.5676 149.217 54.4603 149.122L54.4378 149.102C54.3236 148.999 54.2112 148.892 54.0918 148.785L54.0295 148.724C53.8081 148.512 53.5884 148.285 53.3739 148.051L53.3255 147.999L53.168 147.826L53.0054 147.641L52.9881 147.621C52.886 147.503 52.7909 147.387 52.6957 147.275L52.6577 147.23C52.5574 147.105 52.457 146.979 52.3584 146.851L52.3393 146.825C52.2459 146.704 52.1525 146.577 52.0608 146.451L52.0296 146.408C51.9501 146.299 51.8653 146.178 51.7823 146.062C51.6993 146.185 51.6093 146.306 51.5245 146.427L51.5037 146.458C51.412 146.584 51.3169 146.711 51.2217 146.835L51.2113 146.849C51.1075 146.984 51.0072 147.11 50.9069 147.237L50.8637 147.287C50.7702 147.403 50.6699 147.522 50.5695 147.633L50.5557 147.647L50.3983 147.82L50.2131 148.025L50.1959 148.044C49.9762 148.283 49.7547 148.51 49.535 148.723L49.471 148.785C49.3602 148.89 49.2478 148.998 49.1337 149.1L49.1112 149.119C49.0039 149.216 48.8949 149.311 48.7859 149.403L48.715 149.463C48.6372 149.527 48.561 149.591 48.4849 149.652L48.3638 149.749L48.3154 149.785C48.2029 149.873 48.0974 149.958 47.9918 150.029L47.9123 150.088C47.7946 150.171 47.6718 150.261 47.5472 150.338C47.5266 150.355 47.5045 150.369 47.4814 150.382C47.3725 150.454 47.2601 150.525 47.1476 150.593L47.0663 150.643C46.9486 150.714 46.8207 150.787 46.6926 150.857L46.6061 150.904C46.4885 150.966 46.3708 151.027 46.2514 151.077L46.1909 151.107C46.1165 151.143 46.0456 151.174 45.9729 151.207L45.947 151.219L45.774 151.295L45.703 151.325C45.5646 151.38 45.44 151.428 45.3155 151.473L45.2446 151.498C45.1149 151.542 44.973 151.589 44.819 151.633L44.684 151.671C44.5318 151.712 44.3969 151.745 44.2654 151.774C44.1339 151.804 44.037 151.821 43.9194 151.842L43.8329 151.856L43.5665 151.899L43.4938 151.909C43.3969 151.923 43.2932 151.937 43.1894 151.947H43.1427C43.0319 151.959 42.9177 151.97 42.8053 151.977H42.7534L42.5268 151.991H42.4056H42.3434H42.16L42.1565 152.001Z" fill="#231F20"/>
<path d="M51.7255 141.665C64.4177 141.665 74.7069 130.547 74.7069 116.832C74.7069 103.118 64.4177 91.9999 51.7255 91.9999C39.0332 91.9999 28.7441 103.118 28.7441 116.832C28.7441 130.547 39.0332 141.665 51.7255 141.665Z" fill="#7D5A53"/>
<path d="M75.3468 123.802C77.5958 123.308 79.1304 121.663 78.7325 117.474C78.319 113.121 75.0995 113.907 75.0995 113.907C77.0578 112.824 77.319 110.793 76.1028 106.641C74.8867 102.489 72.5944 103.873 72.5944 103.873C73.9577 102.004 73.4266 99.9717 70.7381 96.6846C68.3369 93.7436 66.1363 96.8006 65.6934 97.4857C66.0031 96.9442 67.0013 94.7384 64.9737 91.4687C62.6278 87.6869 56.7476 87.8548 56.7476 87.8548L52.5834 88.6229L48.5197 87.436C48.5197 87.436 42.6878 86.6731 39.97 90.2041C37.6206 93.2506 38.3905 95.5481 38.6431 96.1156C38.2729 95.3907 36.3941 92.1365 33.7056 94.8077C30.6972 97.8058 29.9619 99.7745 31.1296 101.771C31.1296 101.771 28.9897 100.169 27.3583 104.17C25.7269 108.172 25.7821 110.217 27.6211 111.494C27.6211 111.494 24.5072 110.385 23.6508 114.675C22.8308 118.799 24.1854 120.593 26.3773 121.313C25.8963 121.201 24.867 121.13 24.2148 122.31C23.3498 123.891 23.0038 125.789 26.6628 130.349C35.2056 140.971 49.9902 139.634 49.9902 139.634C49.9902 139.634 64.7851 143.279 74.1393 132.762C78.0301 128.39 78.0993 126.676 77.39 125.012C76.8675 123.773 75.8381 123.738 75.3468 123.802Z" fill="#7D5A53"/>
<path d="M49.997 139.634C49.997 139.634 64.792 143.279 74.1461 132.762C78.0369 128.391 78.1061 126.676 77.3968 125.014C76.8674 123.773 75.8398 123.739 75.3467 123.803C77.5957 123.308 79.1303 121.663 78.7324 117.474C78.3189 113.122 75.0994 113.907 75.0994 113.907C77.0578 112.824 77.319 110.793 76.1028 106.641C74.8866 102.489 72.5944 103.873 72.5944 103.873C72.9339 103.439 73.1637 102.929 73.2643 102.387C73.3649 101.845 73.3333 101.286 73.1722 100.759C69.7883 106.411 58.2543 119.998 25.1023 121.415C24.72 121.608 24.409 121.918 24.2147 122.299C23.3497 123.88 23.0038 125.778 26.6627 130.339C35.2124 140.971 49.997 139.634 49.997 139.634Z" fill="#70453F"/>
<path d="M51.7253 140.187C63.6618 140.187 73.3382 129.731 73.3382 116.832C73.3382 103.934 63.6618 93.4772 51.7253 93.4772C39.7888 93.4772 30.1123 103.934 30.1123 116.832C30.1123 129.731 39.7888 140.187 51.7253 140.187Z" fill="#3C2415"/>
<path d="M51.7254 139.639C63.382 139.639 72.8315 129.428 72.8315 116.832C72.8315 104.237 63.382 94.0258 51.7254 94.0258C40.0689 94.0258 30.6194 104.237 30.6194 116.832C30.6194 129.428 40.0689 139.639 51.7254 139.639Z" fill="#F5E099"/>
<path d="M62.768 98.3231C66.6571 102.394 69.4753 107.85 69.4753 113.85C69.4753 126.444 57.9413 136.657 48.3692 136.657C44.6687 136.657 40.6759 135.129 37.1674 132.529C41.3004 136.909 46.7759 139.639 51.7272 139.639C61.301 139.639 72.8332 129.432 72.8332 116.832C72.8315 109.212 68.285 102.465 62.768 98.3231Z" fill="#F0CC6D"/>
<path d="M39.2036 75.6341C41.7536 84.6768 44.1842 82.9434 44.7396 98.5497C44.7396 98.5497 45.0111 101.145 51.9744 101.145C58.9377 101.145 59.2094 98.5497 59.2094 98.5497C59.7647 82.9434 62.1953 84.6768 64.7454 75.6341H39.2036Z" fill="#49BEA2"/>
<path d="M61.1037 84.9657C62.1192 82.1303 63.4149 80.3432 64.7367 75.6341H39.2036C40.5339 80.3484 41.8297 82.1355 42.8452 84.9761C46.1581 86.1646 49.3932 86.9379 52.0142 86.9379C54.6352 86.9379 57.8184 86.156 61.1037 84.9657Z" fill="#3D9480"/>
<path d="M64.7419 75.6343C62.6268 75.9651 60.4961 76.1868 58.3582 76.2986C56.2303 76.4231 54.1006 76.4802 51.9727 76.4819C49.8448 76.4837 47.7169 76.4249 45.589 76.3089C43.4504 76.1983 41.319 75.976 39.2036 75.6429C41.319 75.3098 43.4504 75.0874 45.589 74.9768C47.7169 74.8523 49.8448 74.7946 51.9727 74.8038C54.1006 74.8038 56.2303 74.8626 58.3582 74.9872C60.4958 75.0932 62.6265 75.3092 64.7419 75.6343Z" fill="#231F20"/>
<path d="M52.0108 83.6509C44.8711 83.6509 33.1451 77.9038 27.7423 73.6653C19.5126 67.2453 19.9693 63.3752 19.9693 63.3752C21.125 29.2319 52.0108 29.6522 52.0108 29.6522C52.0108 29.6522 82.8966 29.2319 84.0523 63.3752C84.0523 63.3752 84.3757 67.5774 76.2793 73.6653C70.7917 77.7914 59.1488 83.6509 52.0108 83.6509Z" fill="#49BEA2"/>
<path opacity="0.49" d="M81.4661 49.5283C73.8177 29.3581 52.0041 29.6522 52.0041 29.6522C52.0041 29.6522 21.1183 29.2319 19.9627 63.3752C19.9627 63.3752 19.5059 67.2453 27.7355 73.6653C33.1384 77.9038 44.8626 83.6509 52.0041 83.6509C52.9874 83.6415 53.9681 83.5507 54.9364 83.3793C34.1764 70.4786 36.7506 49.5283 36.7506 49.5283H81.4661Z" fill="#3D9480"/>
<path d="M26.9034 66.0013C26.9034 66.0013 30.6523 67.804 31.0364 64.5983" stroke="#231F20" stroke-width="1.79834" stroke-miterlimit="10" stroke-linecap="round"/>
<path d="M72.2123 66.0014C68.882 69.6794 65.0379 68.6275 61.1506 68.9182C57.2633 69.2088 52.1218 73.8816 51.2758 73.8816C50.4298 73.8816 45.2883 69.2105 41.4009 68.9182C37.5136 68.6258 33.6696 69.6794 30.3393 66.0014" stroke="#231F20" stroke-width="1.79834" stroke-miterlimit="10" stroke-linecap="round"/>
<path d="M75.648 66.0013C75.648 66.0013 71.8991 67.804 71.515 64.5983" stroke="#231F20" stroke-width="1.79834" stroke-miterlimit="10" stroke-linecap="round"/>
<path d="M51.2757 73.3798C51.2757 73.3798 49.4557 62.1641 52.0092 54.8289" stroke="#231F20" stroke-width="1.79834" stroke-miterlimit="10" stroke-linecap="round"/>
<path d="M49.0595 66.062C49.0132 66.0636 48.9669 66.0572 48.9228 66.043L48.8917 66.0343H48.8761L48.8225 66.0118L48.7568 65.9772C48.7222 65.9564 48.691 65.9375 48.6668 65.9202C48.6149 65.8839 48.5716 65.8492 48.5301 65.8146C48.4471 65.7471 48.3727 65.6797 48.3 65.614C48.1564 65.479 48.0215 65.3441 47.89 65.2074C47.6253 64.9358 47.371 64.6589 47.127 64.3804C47.055 64.3084 47.0146 64.2107 47.0146 64.1088C47.0146 64.007 47.055 63.9093 47.127 63.8372C47.1991 63.7652 47.2968 63.7247 47.3987 63.7247C47.5006 63.7247 47.5982 63.7652 47.6703 63.8372C47.9436 64.0812 48.217 64.3216 48.4938 64.5499C48.6322 64.6641 48.7723 64.7749 48.9107 64.8769C48.9799 64.9271 49.0491 64.9773 49.1148 65.0189C49.146 65.0396 49.1789 65.0586 49.2048 65.0724L49.2325 65.0846L49.2117 65.0759L49.1806 65.0656C49.1419 65.0537 49.1016 65.0484 49.0612 65.0499C49.1912 65.0575 49.3134 65.1145 49.4027 65.2093C49.4921 65.304 49.5418 65.4293 49.5418 65.5595C49.5418 65.6897 49.4921 65.8149 49.4027 65.9096C49.3134 66.0043 49.1912 66.0614 49.0612 66.0689L49.0595 66.062Z" fill="#231F20"/>
<path d="M53.542 65.043C53.501 65.0416 53.4602 65.047 53.4209 65.0586L53.3915 65.0689L53.369 65.0776L53.3984 65.0656L53.4883 65.0119C53.5524 64.9704 53.6234 64.9202 53.6908 64.87C53.8292 64.7679 53.9693 64.6573 54.1077 64.5431C54.3845 64.3147 54.6596 64.0742 54.9312 63.8303C55.0049 63.7666 55.0998 63.7332 55.1971 63.7366C55.2944 63.7401 55.3868 63.7802 55.4558 63.849C55.5248 63.9177 55.5652 64.0099 55.569 64.1072C55.5728 64.2045 55.5396 64.2997 55.4762 64.3736C55.227 64.6521 54.9762 64.9289 54.7132 65.2005C54.5817 65.3371 54.4468 65.4721 54.3015 65.607C54.2288 65.6728 54.1562 65.7402 54.0732 65.8077C54.0289 65.8452 53.9826 65.8805 53.9347 65.9132L53.8465 65.9704L53.7808 66.0049L53.7254 66.0274H53.7115L53.6804 66.0361C53.6363 66.05 53.5901 66.0564 53.5438 66.0551C53.4744 66.0591 53.4048 66.0489 53.3395 66.0252C53.2742 66.0014 53.2144 65.9645 53.1638 65.9168C53.1132 65.8691 53.073 65.8116 53.0455 65.7478C53.0179 65.6839 53.0037 65.6151 53.0037 65.5456C53.0037 65.4761 53.0179 65.4073 53.0455 65.3435C53.073 65.2796 53.1132 65.2221 53.1638 65.1744C53.2144 65.1267 53.2742 65.0898 53.3395 65.066C53.4048 65.0422 53.4744 65.032 53.5438 65.0361L53.542 65.043Z" fill="#231F20"/>
<path d="M61.3178 38.2674C62.1191 37.4662 61.7143 35.7623 60.4138 34.4618C59.1132 33.1612 57.4094 32.7565 56.6081 33.5577C55.8068 34.359 56.2115 36.0629 57.5121 37.3635C58.8126 38.664 60.5165 39.0687 61.3178 38.2674Z" fill="#3D9480"/>
<path d="M60.3956 43.2793C61.0976 42.776 61.0266 41.4754 60.2372 40.3743C59.4477 39.2733 58.2388 38.7887 57.5368 39.292C56.8349 39.7953 56.9058 41.0959 57.6952 42.1969C58.4847 43.298 59.6937 43.7826 60.3956 43.2793Z" fill="#3D9480"/>
<path d="M28.4595 46.6382C29.1989 45.503 29.2117 44.2006 28.488 43.7292C27.7642 43.2577 26.5781 43.7958 25.8386 44.931C25.0991 46.0663 25.0863 47.3687 25.8101 47.8402C26.5338 48.3116 27.72 47.7735 28.4595 46.6382Z" fill="#3D9480"/>
<path d="M64.8649 42.0273C65.315 41.5007 65.0115 40.5026 64.1872 39.798C63.3628 39.0935 62.3297 38.9492 61.8796 39.4757C61.4295 40.0023 61.733 41.0004 62.5574 41.705C63.3817 42.4095 64.4149 42.5538 64.8649 42.0273Z" fill="#3D9480"/>
<path d="M14.591 106.445C14.591 106.445 14.1205 104.888 16.5546 105.208C18.9887 105.529 21.0526 105.951 21.0526 105.951L20.0008 108.499C20.0008 108.499 15.3453 108.051 14.591 106.445Z" fill="#58595B"/>
<path d="M13.6151 111.589C13.6151 111.589 12.6256 110.291 15.0182 109.741C17.4108 109.191 19.4885 108.855 19.4885 108.855L19.3986 111.61C19.3986 111.61 14.8867 112.828 13.6151 111.589Z" fill="#58595B"/>
<path d="M17.596 116.53C17.596 116.53 16.0614 115.969 17.781 114.217C19.5007 112.464 21.068 111.063 21.068 111.063L22.478 113.431C22.478 113.431 19.3346 116.888 17.596 116.53Z" fill="#58595B"/>
<path d="M20.189 101.423C20.189 101.423 21.317 100.244 22.2322 102.522C23.1473 104.8 23.803 106.799 23.803 106.799L21.0679 107.145C21.0679 107.145 19.1631 102.871 20.189 101.423Z" fill="#58595B"/>
<path d="M17.1426 110.35C17.1426 110.35 16.7741 104.747 22.1786 103.287C27.5831 101.826 35.683 100.982 37.8351 101.693C39.9873 102.404 41.6637 104.876 41.7761 106.018C41.8886 107.16 42.9716 109.746 37.8369 111.54C32.7023 113.334 25.1784 115.865 22.2322 115.291C19.286 114.717 17.3502 112.29 17.1426 110.35Z" fill="#49BEA2"/>
<path opacity="0.49" d="M22.2324 115.287C25.1734 115.864 32.7041 113.333 37.837 111.537C39.9338 110.805 40.9926 109.94 41.5064 109.096C22.7773 115.497 18.3537 110.174 17.3883 108.16C17.2042 108.873 17.1215 109.609 17.1427 110.345C17.3503 112.289 19.2844 114.711 22.2324 115.287Z" fill="#3D9480"/>
<path d="M51.9728 110.61C56.0373 110.61 59.3322 110.106 59.3322 109.485C59.3322 108.864 56.0373 108.361 51.9728 108.361C47.9083 108.361 44.6133 108.864 44.6133 109.485C44.6133 110.106 47.9083 110.61 51.9728 110.61Z" fill="#F7A33F"/>
<path d="M51.9728 128.301C56.0373 128.301 59.3322 127.797 59.3322 127.176C59.3322 126.555 56.0373 126.052 51.9728 126.052C47.9083 126.052 44.6133 126.555 44.6133 127.176C44.6133 127.797 47.9083 128.301 51.9728 128.301Z" fill="#F7A33F"/>
<path d="M51.9727 120.073C57.5956 120.073 62.1538 119.569 62.1538 118.948C62.1538 118.327 57.5956 117.824 51.9727 117.824C46.3499 117.824 41.7916 118.327 41.7916 118.948C41.7916 119.569 46.3499 120.073 51.9727 120.073Z" fill="#F7A33F"/>
<path d="M44.1844 54.215C44.3478 55.1475 44.2885 56.1054 44.0114 57.0107C43.7274 57.948 43.2428 58.8122 42.5911 59.5433C41.9251 60.2892 41.1084 60.8854 40.195 61.2924C39.9632 61.3859 39.7297 61.481 39.4909 61.5623C39.2522 61.6436 39.0083 61.7007 38.7626 61.7578C38.517 61.8149 38.2661 61.8408 38.017 61.8737L37.2627 61.9152L36.5101 61.8737C36.261 61.8408 36.0119 61.7993 35.7627 61.756C35.5136 61.7128 35.2766 61.6263 35.0344 61.5606C34.7922 61.4948 34.5638 61.3876 34.332 61.2907C33.4183 60.8842 32.6016 60.2881 31.936 59.5417C31.2859 58.8101 30.8015 57.9467 30.5157 57.0107C30.2387 56.1054 30.1794 55.1475 30.3427 54.215C30.4985 55.0914 30.7952 55.9368 31.2215 56.7183C31.6293 57.459 32.164 58.1223 32.801 58.6783C34.0351 59.7626 35.6217 60.3605 37.2644 60.3605C38.9071 60.3605 40.4937 59.7626 41.7278 58.6783C42.3643 58.1225 42.8989 57.4598 43.3073 56.72C43.7316 55.9372 44.0277 55.0915 44.1844 54.215Z" fill="#231F20"/>
<path d="M73.6808 54.215C73.8442 55.1475 73.7849 56.1054 73.5078 57.0107C73.2226 57.9478 72.7373 58.8119 72.0857 59.5433C71.42 60.2896 70.6034 60.8858 69.6898 61.2924C69.4579 61.3859 69.2244 61.481 68.9874 61.5623C68.7503 61.6436 68.503 61.7007 68.259 61.7578C68.0151 61.8149 67.7607 61.8408 67.5116 61.8737L66.7591 61.9152L66.0048 61.8737C65.7557 61.8408 65.5065 61.7993 65.2591 61.756C65.0118 61.7128 64.773 61.6263 64.5308 61.5606C64.2886 61.4948 64.0603 61.3876 63.8267 61.2907C62.9138 60.8838 62.0977 60.2876 61.4324 59.5417C60.781 58.811 60.2963 57.9474 60.0121 57.0107C59.7352 56.1054 59.6759 55.1475 59.8391 54.215C59.9957 55.0912 60.2924 55.9365 60.7179 56.7183C61.1257 57.459 61.6604 58.1223 62.2974 58.6783C63.5315 59.7626 65.1181 60.3605 66.7608 60.3605C68.4036 60.3605 69.9901 59.7626 71.2242 58.6783C71.8612 58.123 72.3959 57.4602 72.8038 56.72C73.2288 55.9375 73.5249 55.0917 73.6808 54.215Z" fill="#231F20"/>
<path d="M43.482 132.882C48.6356 135.805 49.4072 133.207 51.35 136.558C53.4502 140.179 48.4384 148.222 43.7224 149.228C41.0669 149.794 37.5567 149.311 35.7765 142.985C34.2368 137.483 13.8228 135.608 17.9748 125.846C21.7687 116.945 43.7224 129.698 43.7224 129.698C44.5528 130.937 44.2137 131.942 43.482 132.882Z" fill="#49BEA2"/>
<path d="M43.603 145.609C42.8937 146.246 44.0683 147.858 44.9056 148.834C45.8509 148.392 46.7194 147.801 47.4782 147.085C46.2879 146.232 44.3088 144.978 43.603 145.609Z" fill="#58595B"/>
<path d="M43.7225 149.229C43.9321 149.183 44.1389 149.125 44.3419 149.056C43.8592 148.163 43.0132 147.014 42.1257 146.98C41.2382 146.945 41.2452 148.332 41.4545 149.369C42.2131 149.446 42.9792 149.399 43.7225 149.229Z" fill="#58595B"/>
<path d="M45.8986 143.597C45.3087 144.326 46.8294 145.73 47.9349 146.642C48.6596 145.905 49.3076 145.097 49.8689 144.229C48.5022 143.661 46.4073 142.968 45.8986 143.597Z" fill="#58595B"/>
<path d="M48.3468 141.836C47.5908 142.587 49.0111 143.483 50.0301 143.978C50.4661 143.281 50.8405 142.547 51.1494 141.784C50.2446 141.563 48.8796 141.303 48.3468 141.836Z" fill="#58595B"/>
<path d="M25.8203 128.342C25.8203 128.342 25.8462 130.839 23.5159 131.178C21.1855 131.517 20.9711 129.231 21.5541 128.572C22.1371 127.913 23.1301 128.181 23.5159 128.821" stroke="#1F705F" stroke-width="0.91596" stroke-miterlimit="10" stroke-linecap="round"/>
<path d="M31.5328 127.206C31.4307 127.193 31.3321 127.183 31.2369 127.176C31.2785 127.179 31.3788 127.188 31.5328 127.206Z" fill="#3D9480"/>
<path d="M31.5328 127.206C35.6139 127.695 43.482 132.882 43.482 132.882C43.892 132.363 44.174 131.809 44.2051 131.214C39.1293 128.152 32.9791 127.356 31.5328 127.206Z" fill="#3D9480"/>
<path opacity="0.49" d="M51.7618 139.611C45.0978 150.628 38.5481 144.144 37.6485 141.514C36.7489 138.885 34.5345 137.397 25.8204 134.12C16.4369 130.591 19.1686 124.259 19.2568 124.067C18.6975 124.55 18.2585 125.157 17.9748 125.839C13.8142 135.598 34.2369 137.477 35.7766 142.978C37.5568 149.305 41.067 149.787 43.7225 149.222C47.3555 148.453 51.165 143.5 51.7618 139.611Z" fill="#3D9480"/>
<path d="M43.603 145.609C42.8937 146.246 44.0683 147.858 44.9056 148.834C45.8509 148.392 46.7194 147.801 47.4782 147.085C46.2879 146.232 44.3088 144.978 43.603 145.609Z" fill="#58595B"/>
<path d="M43.7225 149.229C43.9321 149.183 44.1389 149.125 44.3419 149.056C43.8592 148.163 43.0132 147.014 42.1257 146.98C41.2382 146.945 41.2452 148.332 41.4545 149.369C42.2131 149.446 42.9792 149.399 43.7225 149.229Z" fill="#58595B"/>
<path d="M45.8986 143.597C45.3087 144.326 46.8294 145.73 47.9349 146.642C48.6596 145.905 49.3076 145.097 49.8689 144.229C48.5022 143.661 46.4073 142.968 45.8986 143.597Z" fill="#58595B"/>
<path d="M48.3468 141.836C47.5908 142.587 49.0111 143.483 50.0301 143.978C50.4661 143.281 50.8405 142.547 51.1494 141.784C50.2446 141.563 48.8796 141.303 48.3468 141.836Z" fill="#58595B"/>
<path d="M25.8203 128.342C25.8203 128.342 25.8462 130.839 23.5159 131.178C21.1855 131.517 20.9711 129.231 21.5541 128.572C22.1371 127.913 23.1301 128.181 23.5159 128.821" stroke="#1F705F" stroke-width="0.91596" stroke-miterlimit="10" stroke-linecap="round"/>
<path d="M60.0848 132.882C54.9329 135.805 54.1613 133.207 52.2168 136.558C50.1165 140.179 55.13 148.222 59.846 149.228C62.4998 149.794 66.0118 149.311 67.7903 142.985C69.3369 137.483 89.7526 135.605 85.5937 125.846C81.7981 116.945 59.846 129.698 59.846 129.698C59.0156 130.937 59.353 131.942 60.0848 132.882Z" fill="#49BEA2"/>
<path d="M59.9638 145.609C60.6749 146.246 59.5002 147.858 58.6612 148.834C57.7167 148.391 56.8488 147.801 56.0903 147.085C57.2806 146.232 59.2597 144.978 59.9638 145.609Z" fill="#58595B"/>
<path d="M59.8409 149.229C59.6312 149.183 59.4244 149.125 59.2215 149.056C59.7024 148.163 60.5484 147.014 61.4376 146.98C62.3269 146.945 62.3165 148.332 62.1072 149.369C61.3492 149.446 60.5836 149.399 59.8409 149.229Z" fill="#58595B"/>
<path d="M57.6697 143.597C58.2579 144.326 56.7389 145.73 55.6317 146.642C54.908 145.905 54.2606 145.096 53.6993 144.229C55.0643 143.661 57.1594 142.968 57.6697 143.597Z" fill="#58595B"/>
<path d="M55.2217 141.836C55.976 142.587 54.5574 143.483 53.5367 143.978C53.1019 143.28 52.728 142.546 52.4191 141.784C53.3222 141.563 54.6888 141.303 55.2217 141.836Z" fill="#58595B"/>
<path d="M77.7481 128.342C77.7481 128.342 77.7222 130.839 80.0525 131.178C82.3828 131.517 82.5973 129.231 82.0143 128.572C81.4313 127.913 80.4383 128.181 80.0525 128.821" stroke="#1F705F" stroke-width="0.91596" stroke-miterlimit="10" stroke-linecap="round"/>
<path d="M72.0357 127.206C72.136 127.193 72.2346 127.183 72.3298 127.176C72.2969 127.179 72.1897 127.188 72.0357 127.206Z" fill="#3D9480"/>
<path d="M72.0358 127.206C67.9529 127.695 60.0849 132.882 60.0849 132.882C59.6766 132.363 59.3929 131.809 59.3635 131.214C64.4393 128.152 70.5895 127.356 72.0358 127.206Z" fill="#3D9480"/>
<path opacity="0.49" d="M51.8068 139.611C58.4691 150.628 65.0206 144.144 65.9202 141.514C66.8198 138.885 69.0342 137.397 77.7482 134.12C87.1318 130.591 84.4001 124.259 84.3101 124.067C84.87 124.55 85.3096 125.156 85.5938 125.839C89.7458 135.598 69.3318 137.477 67.7904 142.978C66.0119 149.305 62.4999 149.787 59.8461 149.222C56.2079 148.453 52.4019 143.5 51.8068 139.611Z" fill="#3D9480"/>
<path d="M59.9638 145.609C60.6749 146.246 59.5002 147.858 58.6612 148.834C57.7167 148.391 56.8488 147.801 56.0903 147.085C57.2806 146.232 59.2597 144.978 59.9638 145.609Z" fill="#58595B"/>
<path d="M59.8409 149.229C59.6312 149.183 59.4244 149.125 59.2215 149.056C59.7024 148.163 60.5484 147.014 61.4376 146.98C62.3269 146.945 62.3165 148.332 62.1072 149.369C61.3492 149.446 60.5836 149.399 59.8409 149.229Z" fill="#58595B"/>
<path d="M57.6697 143.597C58.2579 144.326 56.7389 145.73 55.6317 146.642C54.908 145.905 54.2606 145.096 53.6993 144.229C55.0643 143.661 57.1594 142.968 57.6697 143.597Z" fill="#58595B"/>
<path d="M55.2217 141.836C55.976 142.587 54.5574 143.483 53.5367 143.978C53.1019 143.28 52.728 142.546 52.4191 141.784C53.3222 141.563 54.6888 141.303 55.2217 141.836Z" fill="#58595B"/>
<path d="M77.7481 128.342C77.7481 128.342 77.7222 130.839 80.0525 131.178C82.3828 131.517 82.5973 129.231 82.0143 128.572C81.4313 127.913 80.4383 128.181 80.0525 128.821" stroke="#1F705F" stroke-width="0.91596" stroke-miterlimit="10" stroke-linecap="round"/>
<path d="M2.59498 42.7537C2.51021 48.4817 24.0574 46.6047 50.5957 46.9956C77.134 47.3866 98.6155 49.9038 98.7002 44.1758C98.785 38.4477 77.4661 24.9329 50.9278 24.5402C24.3896 24.1475 2.67975 37.0256 2.59498 42.7537Z" fill="#EFCB6C"/>
<path d="M6.99775 42.4318C7.04446 39.2434 13.8019 33.8353 24.3618 29.7369L23.2322 30.9289C23.2322 30.9289 34.209 31.8372 35.1138 34.3665C36.0186 36.8957 58.6782 38.9424 58.6782 38.9424C58.6782 38.9424 74.7205 48.5733 97.4407 41.264C98.2746 42.3557 98.7123 43.34 98.7002 44.1756C98.6725 46.0216 96.4183 47.0111 92.4912 47.492C83.6768 47.8156 70.1637 46.8986 54.9968 46.6754C28.4585 46.2827 6.91298 48.1598 6.99775 42.4318Z" fill="#E2B654"/>
<path d="M78.6062 35.3908C78.6062 35.3908 77.8952 16.0147 72.0408 9.88872C72.0408 9.88872 60.0484 2.73343 50.8016 2.59676C41.5547 2.46009 29.2197 9.25559 29.2197 9.25559C29.2197 9.25559 21.0402 27.8479 22.1751 34.5551C22.1751 34.5551 39.9942 41.0859 50.6874 41.2434C61.3805 41.4008 78.6062 35.3908 78.6062 35.3908Z" fill="#EFCB6C"/>
<path d="M22.1685 34.5551C21.5612 30.9601 23.6285 23.9519 25.6786 18.2204C32.1609 23.637 49.3261 35.1208 78.6064 35.3907C78.6064 35.3907 61.3772 41.4025 50.6806 41.2433C39.984 41.0842 22.1685 34.5551 22.1685 34.5551Z" fill="#E2B654"/>
<path d="M22.1683 34.5553C21.888 32.8962 22.1786 30.5088 22.772 27.855C22.772 27.855 41.2416 32.5104 50.8085 32.6523C60.3754 32.7941 78.0405 28.6733 78.0405 28.6733C78.5007 32.5364 78.6062 35.3909 78.6062 35.3909C78.6062 35.3909 61.377 41.4027 50.6804 41.2435C39.9838 41.0844 22.1683 34.5553 22.1683 34.5553Z" fill="#A873AC"/>
<path d="M38.5081 15.3728C34.5128 15.9018 30.4852 16.1475 26.4552 16.1081C27.9326 12.1723 29.2128 9.26068 29.2128 9.26068C29.2128 9.26068 39.1344 3.79736 47.8519 2.76801C47.2447 7.89055 45.1583 14.4836 38.5081 15.3728Z" fill="#CB9B3B"/>
<path d="M57.3688 12.6793C55.3084 10.6033 55.2167 6.15543 55.4278 3.15387C63.6055 4.85793 72.0358 9.88873 72.0358 9.88873C74.1118 12.0651 75.5425 15.9075 76.5234 19.9609C70.9667 18.9817 59.8825 15.1999 57.3688 12.6793Z" fill="#CB9B3B"/>
<path d="M32.8439 16.6368C33.9371 14.6975 33.8477 12.5754 32.6442 11.8969C31.4406 11.2185 29.5787 12.2407 28.4856 14.18C27.3924 16.1193 27.4818 18.2414 28.6854 18.9198C29.8889 19.5983 31.7508 18.5761 32.8439 16.6368Z" fill="white"/>
<path d="M87.5485 36.4894C88.0501 36.4894 88.4568 36.0827 88.4568 35.5811C88.4568 35.0795 88.0501 34.6729 87.5485 34.6729C87.0469 34.6729 86.6403 35.0795 86.6403 35.5811C86.6403 36.0827 87.0469 36.4894 87.5485 36.4894Z" fill="white"/>
<path d="M28.1819 49.5284C28.1819 49.5284 30.6921 43.982 36.5845 44.6359" stroke="#231F20" stroke-width="1.79834" stroke-miterlimit="10" stroke-linecap="round"/>
<path d="M75.7656 49.5284C75.7656 49.5284 73.2555 43.982 67.3613 44.6359" stroke="#231F20" stroke-width="1.79834" stroke-miterlimit="10" stroke-linecap="round"/>
<path d="M89.3564 106.445C89.3564 106.445 89.827 104.888 87.3929 105.208C84.9587 105.529 82.8948 105.951 82.8948 105.951L83.945 108.499C83.945 108.499 88.6004 108.051 89.3564 106.445Z" fill="#58595B"/>
<path d="M90.3305 111.589C90.3305 111.589 91.3217 110.291 88.9274 109.741C86.5331 109.191 84.4588 108.855 84.4588 108.855L84.5471 111.61C84.5471 111.61 89.059 112.828 90.3305 111.589Z" fill="#58595B"/>
<path d="M86.3498 116.53C86.3498 116.53 87.8843 115.969 86.1647 114.217C84.4451 112.464 82.8777 111.063 82.8777 111.063L81.4677 113.431C81.4677 113.431 84.6128 116.888 86.3498 116.53Z" fill="#58595B"/>
<path d="M83.7566 101.423C83.7566 101.423 82.6286 100.244 81.7135 102.522C80.7983 104.8 80.1443 106.799 80.1443 106.799L82.8794 107.145C82.8794 107.145 84.7825 102.871 83.7566 101.423Z" fill="#58595B"/>
<path d="M86.803 110.35C86.803 110.35 87.1715 104.747 81.767 103.287C76.3624 101.826 68.2625 100.982 66.1121 101.693C63.9617 102.404 62.2819 104.876 62.1694 106.018C62.057 107.16 60.9757 109.746 66.1086 111.54C71.2416 113.334 78.7688 115.865 81.715 115.291C84.6612 114.717 86.5971 112.29 86.803 110.35Z" fill="#49BEA2"/>
<path opacity="0.49" d="M81.715 115.287C78.774 115.864 71.2433 113.333 66.1086 111.537C64.0136 110.805 62.9531 109.94 62.441 109.096C81.1683 115.497 85.592 110.174 86.5573 108.16C86.7414 108.873 86.8241 109.609 86.803 110.345C86.5971 112.289 84.6612 114.711 81.715 115.287Z" fill="#3D9480"/>
<path d="M79.1189 103.844C79.1927 103.279 77.7719 102.628 75.9453 102.389C74.1188 102.15 72.5781 102.414 72.5043 102.979C72.4305 103.543 73.8514 104.195 75.6779 104.434C77.5045 104.672 79.0451 104.408 79.1189 103.844Z" fill="white"/>
<path d="M28.4014 104.464C30.2285 104.229 31.6507 103.58 31.578 103.016C31.5053 102.451 29.9654 102.184 28.1383 102.419C26.3112 102.654 24.889 103.302 24.9617 103.867C25.0343 104.432 26.5743 104.699 28.4014 104.464Z" fill="white"/>
<path d="M71.1431 104.046C71.7173 104.046 72.1828 103.799 72.1828 103.494C72.1828 103.189 71.7173 102.942 71.1431 102.942C70.5688 102.942 70.1033 103.189 70.1033 103.494C70.1033 103.799 70.5688 104.046 71.1431 104.046Z" fill="white"/>
<path d="M22.9285 124.85C23.9075 124.798 24.6812 124.383 24.6568 123.924C24.6323 123.465 23.8189 123.136 22.84 123.188C21.8611 123.24 21.0874 123.654 21.1118 124.113C21.1363 124.572 21.9496 124.902 22.9285 124.85Z" fill="white"/>
<path d="M49.8177 135.705C49.8843 135.404 49.4156 135.044 48.771 134.901C48.1263 134.759 47.5497 134.888 47.4831 135.189C47.4165 135.49 47.8852 135.85 48.5299 135.993C49.1745 136.135 49.7511 136.006 49.8177 135.705Z" fill="white"/>
<path d="M80.3725 124.512C81.4522 124.512 82.3274 124.191 82.3274 123.796C82.3274 123.4 81.4522 123.08 80.3725 123.08C79.2928 123.08 78.4176 123.4 78.4176 123.796C78.4176 124.191 79.2928 124.512 80.3725 124.512Z" fill="white"/>
<path d="M77.2396 124.559C77.6686 124.559 78.0164 124.342 78.0164 124.074C78.0164 123.807 77.6686 123.59 77.2396 123.59C76.8106 123.59 76.4628 123.807 76.4628 124.074C76.4628 124.342 76.8106 124.559 77.2396 124.559Z" fill="white"/>
<path d="M81.7361 62.9533C82.5198 62.8457 82.9063 60.9467 82.5994 58.7119C82.2925 56.477 81.4083 54.7525 80.6246 54.8601C79.8408 54.9678 79.4542 56.8668 79.7611 59.1017C80.0681 61.3365 80.9523 63.0609 81.7361 62.9533Z" fill="white"/>
</g>
<defs>
<clipPath id="clip0_1213_205">
<rect width="101.295" height="152" fill="white"/>
</clipPath>
</defs>
</svg>
