<svg width="534" height="645" viewBox="0 0 534 645" fill="none" xmlns="http://www.w3.org/2000/svg">
<g clip-path="url(#clip0_3717_283)">
<path fill-rule="evenodd" clip-rule="evenodd" d="M266.094 121.6C206.454 121.6 154.546 157.032 130.585 207.744C117.329 235.779 104.551 332.317 97.4486 368.538C81.8332 450.593 41.4355 433.423 41.4355 477.519C41.4355 501.433 61.7938 515.478 85.1412 520.986C205.689 549.498 326.555 548.088 447.254 520.986C470.609 515.789 490.808 501.464 490.808 477.519C490.808 433.423 450.57 450.593 434.795 368.538C427.852 332.317 415.066 235.779 401.818 207.744C377.65 157.032 325.925 121.6 266.094 121.6Z" fill="#EFCC6B"/>
<path fill-rule="evenodd" clip-rule="evenodd" d="M369.392 256.679C377.203 336.598 382.09 458.42 425.189 525.657C432.549 524.195 439.907 522.638 447.261 520.986C470.617 515.789 490.816 501.464 490.816 477.519C490.816 433.423 450.578 450.593 434.803 368.538C427.86 332.317 415.074 235.779 401.826 207.744C377.65 157.032 325.925 121.6 266.094 121.6C266.094 121.6 359.922 159.838 369.392 256.679Z" fill="#FAF28C"/>
<path fill-rule="evenodd" clip-rule="evenodd" d="M441.235 393.583C324.474 418.939 207.681 420.199 90.9602 393.735C81.4905 421.929 68.2345 432.953 57.8242 442.558C65.3968 448.385 74.8665 452.322 85.1173 454.69C205.665 483.195 326.531 481.792 447.23 454.69C457.489 452.482 466.958 448.385 474.531 442.733C464.113 432.969 450.865 421.945 441.235 393.599V393.583Z" fill="#F68620"/>
<path fill-rule="evenodd" clip-rule="evenodd" d="M326.21 539.415C326.345 540.205 326.398 541.006 326.37 541.806C326.008 557.528 319.508 572.483 308.262 583.474C297.015 594.465 281.913 600.619 266.188 600.619C250.462 600.619 235.361 594.465 224.114 583.474C212.867 572.483 206.368 557.528 206.006 541.806V539.75C246.031 542.713 286.225 542.606 326.234 539.431L326.21 539.415Z" fill="#F68620"/>
<path d="M205.982 539.75C216.058 539.511 226.078 539.543 236.089 539.535L266.093 539.463L296.096 539.264L311.122 539.168C313.633 539.12 316.143 539.168 318.654 539.168C321.165 539.168 323.676 539.168 326.195 539.216C326.245 539.219 326.293 539.238 326.33 539.271C326.368 539.305 326.393 539.35 326.402 539.399C326.465 540.196 326.441 540.998 326.331 541.79C326.271 541.01 326.14 540.236 325.94 539.479L326.187 539.662C323.708 540.085 321.221 540.459 318.726 540.818C316.231 541.177 313.744 541.495 311.241 541.774L303.74 542.572L296.224 543.193C291.202 543.568 286.18 543.799 281.158 544.038L273.609 544.245L266.069 544.317C256.009 544.317 245.958 543.969 235.914 543.273C225.884 542.6 215.894 541.424 205.982 539.75Z" fill="#231F20"/>
<path d="M326.371 541.774C326.872 549.849 325.649 557.938 322.784 565.504C319.876 573.175 315.411 580.161 309.672 586.022C303.883 591.956 296.942 596.644 289.275 599.796C281.608 602.949 273.378 604.501 265.089 604.356C260.943 604.286 256.815 603.803 252.766 602.913C244.696 601.112 237.08 597.677 230.387 592.822C223.695 587.966 218.067 581.792 213.851 574.679C211.785 571.157 210.076 567.437 208.749 563.575C207.468 559.72 206.589 555.743 206.127 551.706C205.903 549.708 205.779 547.702 205.752 545.688C205.752 543.687 205.84 541.703 205.983 539.702C206.164 543.664 206.657 547.606 207.458 551.491C209.914 562.999 215.618 573.561 223.894 581.925C229.33 587.382 235.769 591.737 242.858 594.751C257.119 600.782 273.164 601.045 287.615 595.484C294.805 592.708 301.392 588.573 307.017 583.304C312.692 577.982 317.292 571.62 320.568 564.564C323.9 557.394 325.868 549.665 326.371 541.774Z" fill="#231F20"/>
<path fill-rule="evenodd" clip-rule="evenodd" d="M441.554 508.702C320.847 535.804 200.029 537.207 79.4418 508.702C64.2966 505.083 50.403 497.997 42.5195 486.814C47.095 505.083 64.9264 516.267 85.1172 520.986C124.852 530.395 165.266 536.669 205.983 539.75C246.009 542.713 286.203 542.606 326.212 539.431C366.936 536.159 407.377 530 447.23 521.002C470.585 515.805 490.784 501.48 490.784 477.535C490.784 466.041 488.097 458.644 483.841 452.657C484.707 456.747 485.13 460.919 485.1 465.1C485.1 489.189 464.901 503.521 441.554 508.718V508.702Z" fill="#EDB36E"/>
<path d="M402.343 207.744C389.346 182.7 369.861 161.607 345.923 146.67C322.148 131.879 294.707 124.04 266.706 124.04C238.706 124.04 211.264 131.879 187.489 146.67C163.543 161.591 144.065 182.696 131.109 207.76C142.545 181.478 161.438 159.127 185.449 143.473C197.442 135.598 210.516 129.506 224.26 125.387C251.951 117.102 281.461 117.102 309.152 125.387C329.718 131.557 348.701 142.115 364.79 156.334C380.879 170.553 393.691 188.093 402.343 207.744Z" fill="#231F20"/>
<path d="M131.11 207.744C128.904 212.919 127.079 218.247 125.65 223.687C124.151 229.099 122.844 234.567 121.616 240.051C119.169 251.02 117.057 262.06 115.072 273.124C111.087 295.251 107.723 317.483 104.231 339.706C103.355 345.265 102.451 350.818 101.521 356.366C100.573 361.946 99.64 367.462 98.4762 373.002C97.3124 378.542 95.9732 384.042 94.4268 389.502C92.7964 394.949 90.8617 400.301 88.6318 405.532C86.3501 410.774 83.6387 415.818 80.5252 420.613C77.3806 425.401 73.8082 429.894 69.8519 434.037C65.9221 438.174 61.6575 441.952 57.672 445.802C53.6864 449.652 50.0675 453.773 47.724 458.556C45.4459 463.428 44.1873 468.715 44.0254 474.092C44.0254 475.447 43.9218 476.826 43.9617 478.173C43.9859 479.505 44.0817 480.836 44.2486 482.158C44.579 484.787 45.2129 487.368 46.1378 489.85C48.0369 494.843 51.0051 499.359 54.8343 503.083C58.7319 506.845 63.1837 509.988 68.0345 512.401C72.9303 514.855 78.0707 516.786 83.3709 518.164C86.0014 518.881 88.7753 519.431 91.5094 520.037L99.7277 521.831L107.946 523.624C110.688 524.19 113.454 524.668 116.204 525.218C121.72 526.239 127.22 527.331 132.744 528.279C154.867 531.999 177.103 534.829 199.454 536.769C221.805 538.538 244.204 539.426 266.651 539.431C289.076 539.261 311.47 538.262 333.832 536.434C356.151 534.388 378.396 531.555 400.566 527.937C406.098 527.012 411.606 525.952 417.13 524.971C419.888 524.461 422.646 523.983 425.404 523.449L433.638 521.735L441.872 520.013C444.614 519.431 447.404 518.905 450.035 518.236C455.356 516.906 460.516 514.995 465.419 512.536C470.266 510.128 474.704 506.972 478.571 503.186C482.382 499.438 485.328 494.903 487.204 489.898C488.123 487.401 488.752 484.807 489.077 482.166C489.249 480.844 489.344 479.514 489.364 478.181C489.364 476.842 489.316 475.463 489.301 474.108C489.154 468.73 487.906 463.44 485.634 458.564C483.306 453.781 479.711 449.676 475.718 445.81C471.724 441.944 467.484 438.174 463.554 434.037C459.599 429.89 456.027 425.394 452.88 420.605C449.739 415.819 447 410.78 444.694 405.54C442.455 400.312 440.51 394.963 438.867 389.518C437.321 384.058 435.886 378.574 434.794 373.018L433.997 368.865L433.2 364.704L431.813 356.414C430.893 350.855 430.003 345.299 429.142 339.746C425.683 317.523 422.303 295.291 418.365 273.155C416.389 262.092 414.276 251.052 411.837 240.083C410.61 234.599 409.302 229.131 407.804 223.719C406.374 218.279 404.549 212.95 402.344 207.776C404.661 212.905 406.604 218.196 408.154 223.607C409.749 228.995 411.207 234.44 412.547 239.908C415.185 250.844 417.473 261.868 419.633 272.908C423.929 295.004 427.684 317.188 431.494 339.356L434.371 355.967L435.886 364.249L436.683 368.379L437.56 372.476C438.7 377.944 440.174 383.332 441.761 388.673C443.43 393.967 445.391 399.164 447.635 404.241C449.902 409.283 452.568 414.137 455.607 418.756C458.668 423.344 462.136 427.647 465.969 431.613C469.819 435.599 474.012 439.258 478.141 443.195C482.27 447.133 486.256 451.525 488.918 456.866C491.46 462.194 492.889 467.985 493.119 473.884C493.119 475.335 493.254 476.77 493.222 478.237C493.205 479.712 493.112 481.186 492.943 482.653C492.599 485.6 491.92 488.499 490.919 491.293C488.876 496.876 485.629 501.941 481.409 506.128C477.251 510.25 472.471 513.693 467.244 516.331C462.082 518.949 456.648 520.991 451.039 522.421C448.225 523.154 445.459 523.68 442.725 524.286L434.459 526.047L426.273 527.793C423.507 528.351 420.733 528.837 417.967 529.387C412.387 530.408 406.887 531.5 401.331 532.456L384.592 535.111L380.415 535.764L376.222 536.322L367.837 537.414L359.443 538.506C358.048 538.706 356.645 538.865 355.242 538.992L351.041 539.431L334.206 541.145C311.728 543.042 289.199 544.083 266.619 544.269C244.061 544.2 221.526 543.27 199.016 541.479L182.181 539.806L177.972 539.383L175.868 539.168L173.771 538.897L165.378 537.805L156.992 536.713L152.799 536.155L148.623 535.485L131.923 532.783C126.343 531.803 120.843 530.671 115.303 529.595C112.537 529.052 109.723 528.55 106.997 528L98.7472 526.151L90.4891 524.31C87.7391 523.68 84.997 523.122 82.1991 522.357C76.6214 520.863 71.2144 518.793 66.0656 516.179C60.8401 513.55 56.0537 510.127 51.877 506.032C47.6379 501.868 44.3715 496.819 42.3116 491.245C41.3022 488.453 40.6201 485.554 40.279 482.605C40.1103 481.138 40.0172 479.665 40 478.189C40 476.722 40.0797 475.287 40.1116 473.836C40.3506 467.945 41.7909 462.165 44.3443 456.85C47.0146 451.517 51.032 447.093 55.1451 443.203C59.2582 439.314 63.475 435.615 67.325 431.629C71.1738 427.669 74.6555 423.369 77.7273 418.78C80.7692 414.163 83.4348 409.309 85.6985 404.265C87.9457 399.167 89.907 393.949 91.5732 388.633C93.1674 383.285 94.6182 377.896 95.7421 372.42C96.866 366.944 97.9581 361.428 98.9305 355.912L101.848 339.308C105.698 317.148 109.46 294.964 113.805 272.876C115.973 261.836 118.261 250.812 120.899 239.876C122.246 234.408 123.673 228.964 125.291 223.575C126.844 218.164 128.789 212.873 131.11 207.744Z" fill="#231F20"/>
<path fill-rule="evenodd" clip-rule="evenodd" d="M266.093 41.5942C275.823 41.5958 285.334 44.4815 293.424 49.8866C301.514 55.2917 307.821 62.9737 311.547 71.9618C315.273 80.95 316.251 90.8409 314.358 100.385C312.464 109.929 307.784 118.697 300.909 125.582C294.034 132.467 285.273 137.16 275.732 139.067C266.191 140.974 256.298 140.01 247.305 136.298C238.311 132.585 230.62 126.289 225.203 118.207C219.786 110.124 216.887 100.617 216.871 90.8877C216.875 77.828 222.06 65.3033 231.288 56.0619C240.516 46.8206 253.033 41.6175 266.093 41.5942ZM266.093 63.4829C271.511 63.4924 276.805 65.1077 281.305 68.1247C285.805 71.1417 289.31 75.4251 291.377 80.4334C293.444 85.4418 293.98 90.9505 292.917 96.2633C291.854 101.576 289.241 106.455 285.406 110.283C281.572 114.11 276.689 116.716 271.374 117.769C266.059 118.823 260.551 118.277 255.547 116.202C250.542 114.126 246.265 110.614 243.255 106.108C240.246 101.602 238.64 96.3058 238.64 90.8877C238.661 83.6177 241.562 76.6522 246.707 71.516C251.852 66.3798 258.823 63.4913 266.093 63.4829Z" fill="#F68620"/>
<path d="M216.872 90.8877C216.55 84.3708 217.579 77.8577 219.893 71.757C222.252 65.579 225.837 59.942 230.431 55.185C235.051 50.3851 240.589 46.563 246.716 43.9458C252.87 41.3417 259.484 39.9999 266.166 39.9999C272.847 39.9999 279.461 41.3417 285.615 43.9458C291.742 46.5524 297.285 50.3605 301.916 55.1452C306.513 59.8965 310.098 65.5316 312.454 71.7092C314.774 77.8083 315.806 84.3222 315.483 90.8399C315.159 84.4275 313.642 78.1317 311.011 72.2751C308.408 66.4939 304.723 61.2639 300.154 56.867C291.029 48.0672 278.846 43.15 266.169 43.15C253.492 43.15 241.31 48.0672 232.185 56.867C227.622 61.2701 223.94 66.5021 221.336 72.2831C218.701 78.152 217.187 84.4621 216.872 90.8877Z" fill="#231F20"/>
<path d="M315.481 90.8877C315.806 97.4076 314.766 103.923 312.428 110.018C310.058 116.178 306.466 121.793 301.867 126.527C297.233 131.294 291.694 135.089 285.574 137.686C279.417 140.26 272.813 141.595 266.14 141.616C259.472 141.609 252.871 140.276 246.723 137.694C240.604 135.102 235.069 131.307 230.445 126.535C225.856 121.795 222.272 116.178 219.908 110.018C217.575 103.922 216.54 97.4065 216.871 90.8877C217.188 97.29 218.71 103.575 221.358 109.413C223.97 115.177 227.658 120.39 232.223 124.773C241.35 133.538 253.514 138.433 266.168 138.433C278.822 138.433 290.986 133.538 300.113 124.773C304.689 120.399 308.383 115.187 310.994 109.421C313.643 103.58 315.165 97.2927 315.481 90.8877Z" fill="#231F20"/>
<path d="M238.641 90.8877C238.319 87.2269 238.792 83.5398 240.028 80.0788C241.29 76.5528 243.271 73.3279 245.847 70.6091C248.453 67.8535 251.594 65.6591 255.077 64.1605C258.582 62.6615 262.354 61.8887 266.165 61.8887C269.977 61.8887 273.749 62.6615 277.253 64.1605C280.737 65.656 283.88 67.8446 286.492 70.5932C289.072 73.3112 291.059 76.536 292.326 80.0629C293.564 83.5232 294.035 87.2114 293.705 90.8717C293.101 83.8072 289.908 77.2152 284.738 72.3627C279.688 67.6802 273.056 65.0784 266.169 65.0784C259.283 65.0784 252.65 67.6802 247.6 72.3627C242.434 77.2232 239.243 83.8198 238.641 90.8877Z" fill="#231F20"/>
<path d="M293.705 90.8877C294.032 94.5486 293.558 98.2367 292.318 101.697C291.053 105.225 289.066 108.45 286.483 111.166C283.873 113.913 280.733 116.101 277.253 117.599C273.748 119.098 269.976 119.871 266.165 119.871C262.353 119.871 258.581 119.098 255.077 117.599C251.594 116.103 248.452 113.911 245.846 111.158C243.27 108.436 241.286 105.209 240.02 101.681C238.787 98.219 238.316 94.5319 238.641 90.8717C239.248 97.9381 242.438 104.533 247.6 109.397C252.652 114.078 259.285 116.679 266.173 116.679C273.06 116.679 279.694 114.078 284.746 109.397C289.916 104.546 293.108 97.9523 293.705 90.8877Z" fill="#231F20"/>
<path d="M236.505 285.208C237.119 288.734 236.893 292.355 235.843 295.778C234.769 299.319 232.936 302.583 230.47 305.343C227.956 308.166 224.869 310.422 221.415 311.959C220.538 312.31 219.654 312.676 218.753 312.979C217.852 313.282 216.928 313.505 215.995 313.721C215.062 313.936 214.122 314.039 213.181 314.159L210.327 314.318C206.508 314.301 202.734 313.486 199.248 311.927C195.793 310.39 192.704 308.138 190.184 305.319C187.726 302.556 185.896 299.292 184.82 295.754C183.772 292.331 183.542 288.711 184.15 285.184C185.23 291.707 188.513 297.663 193.453 302.059C198.118 306.159 204.116 308.42 210.327 308.42C216.538 308.42 222.537 306.159 227.202 302.059C232.132 297.665 235.414 291.72 236.505 285.208Z" fill="#231F20"/>
<path d="M348.037 285.208C348.654 288.733 348.43 292.355 347.383 295.778C346.306 299.317 344.473 302.581 342.011 305.343C339.494 308.167 336.404 310.422 332.947 311.959C332.071 312.31 331.194 312.676 330.293 312.979C329.392 313.282 328.46 313.505 327.535 313.721C326.61 313.936 325.654 314.039 324.713 314.159L321.868 314.318C318.046 314.301 314.269 313.486 310.78 311.927C307.329 310.388 304.243 308.136 301.725 305.319C299.267 302.554 297.434 299.291 296.352 295.754C295.306 292.331 295.08 288.71 295.69 285.184C296.763 291.708 300.044 297.665 304.985 302.059C309.65 306.159 315.649 308.42 321.86 308.42C328.071 308.42 334.069 306.159 338.735 302.059C343.669 297.67 346.952 291.723 348.037 285.208Z" fill="#231F20"/>
<path d="M190.605 269.377C190.605 269.377 208.939 249.704 233.219 266.093" stroke="#231F20" stroke-width="4.83" stroke-miterlimit="10" stroke-linecap="round"/>
<path d="M341.588 269.377C341.588 269.377 323.255 249.704 298.975 266.093" stroke="#231F20" stroke-width="4.83" stroke-miterlimit="10" stroke-linecap="round"/>
<path d="M295.587 324.681C295.587 324.681 297.667 365.676 262.578 365.676C227.489 365.676 232.519 324.681 232.519 324.681H295.587Z" fill="#231F20"/>
<path d="M238.314 353.775C242.675 360.471 250.08 365.676 262.579 365.676C275.683 365.676 283.606 359.953 288.389 352.779C283.096 347.271 274.041 343.636 263.798 343.636C252.926 343.66 243.432 347.717 238.314 353.775Z" fill="#F16B6C"/>
</g>
<defs>
<clipPath id="clip0_3717_283">
<rect width="453.31" height="564.348" fill="white" transform="translate(40 40)"/>
</clipPath>
</defs>
</svg>
