<svg width="375" height="360" viewBox="0 0 375 360" fill="none" xmlns="http://www.w3.org/2000/svg">
<g clip-path="url(#clip0_2272_280)">
<path d="M219.793 26.3456L239.823 88.0156C242.064 94.9152 246.431 100.928 252.299 105.192C258.166 109.456 265.232 111.753 272.484 111.752H337.302C370.545 111.752 384.399 154.337 357.486 173.896L305.048 212.007C299.181 216.27 294.813 222.283 292.573 229.182C290.332 236.082 290.333 243.514 292.575 250.413L312.614 312.083C322.891 343.73 286.68 370.048 259.768 350.489L207.329 312.373C201.462 308.11 194.397 305.815 187.145 305.815C179.894 305.815 172.828 308.11 166.961 312.373L114.522 350.489C87.61 370.048 51.3993 343.73 61.6763 312.083L81.6966 250.413C83.9387 243.514 83.9394 236.082 81.6987 229.182C79.458 222.283 75.091 216.27 69.2237 212.007L16.7851 173.896C-10.1272 154.337 3.70352 111.752 36.9693 111.752H101.787C109.039 111.753 116.106 109.456 121.973 105.192C127.84 100.928 132.208 94.9152 134.449 88.0156L154.479 26.3456C164.756 -5.30204 209.516 -5.30204 219.793 26.3456Z" fill="#FAF28C"/>
<path d="M219.793 26.3456L239.823 88.0156C242.064 94.9152 246.431 100.928 252.299 105.192C258.166 109.456 265.232 111.753 272.484 111.752H337.302C370.545 111.752 384.399 154.337 357.486 173.896L305.048 212.007C299.181 216.27 294.813 222.283 292.573 229.182C290.332 236.082 290.333 243.514 292.575 250.413L312.614 312.083C322.891 343.73 286.68 370.048 259.768 350.489L207.329 312.373C201.462 308.11 194.397 305.815 187.145 305.815C179.894 305.815 172.828 308.11 166.961 312.373L114.522 350.489C87.61 370.048 51.3993 343.73 61.6763 312.083L81.6966 250.413C83.9387 243.514 83.9394 236.082 81.6987 229.182C79.458 222.283 75.091 216.27 69.2237 212.007L16.7851 173.896C-10.1272 154.337 3.70352 111.752 36.9693 111.752H101.787C109.039 111.753 116.106 109.456 121.973 105.192C127.84 100.928 132.208 94.9152 134.449 88.0156L154.479 26.3456C164.756 -5.30204 209.516 -5.30204 219.793 26.3456Z" fill="#FAF28C"/>
<path d="M98.2053 307.825C86.7358 307.833 75.2853 306.893 63.9704 305.015L61.6575 312.083C51.3804 343.73 87.5912 370.048 114.503 350.489L166.942 312.373C172.809 308.11 179.875 305.815 187.126 305.815C194.378 305.815 201.443 308.11 207.31 312.373L259.749 350.489C286.661 370.048 322.872 343.73 312.595 312.083L292.575 250.413C290.333 243.514 290.332 236.082 292.573 229.182C294.813 222.283 299.18 216.27 305.048 212.007L357.486 173.896C384.399 154.336 370.568 111.752 337.302 111.752H304.973C299.228 221.004 208.856 307.825 98.2053 307.825Z" fill="#EDD946"/>
<path d="M363.962 121.39L363.962 121.39C363.653 121.021 363.314 120.697 362.952 120.351C362.795 120.202 362.635 120.049 362.471 119.886C362.47 119.885 362.468 119.884 362.467 119.883L361.692 119.144C361.54 119.006 361.386 118.878 361.223 118.742C361.114 118.651 361.002 118.557 360.884 118.456C356.521 114.762 351.312 112.207 345.721 111.021L343.629 110.627L341.517 110.4L341.514 110.4L340.473 110.294L339.427 110.267L339.424 110.267L337.302 110.225C319.308 110.541 301.32 110.987 283.331 111.752C301.323 112.515 319.314 112.965 337.312 113.304C342.469 113.399 347.539 114.66 352.141 116.993L352.141 116.993C354.425 118.151 356.549 119.603 358.458 121.311C358.514 121.36 358.577 121.412 358.643 121.467C358.819 121.613 359.02 121.779 359.192 121.955C359.192 121.955 359.192 121.955 359.192 121.955L359.846 122.619C360.31 123.063 360.751 123.53 361.167 124.018L361.168 124.019L362.386 125.452L362.398 125.466L362.409 125.481L363.518 127.003L363.523 127.009C369.406 135.338 371.253 146.46 368.113 156.095C367.358 158.512 366.296 160.821 364.952 162.966L363.962 121.39ZM363.962 121.39L363.971 121.4L365.397 123.012L363.962 121.39Z" fill="#231F20" stroke="black"/>
<path d="M101.787 111.753C106.455 111.57 111.035 110.432 115.246 108.409C119.457 106.387 123.209 103.522 126.269 99.9921C128.268 97.6872 129.948 95.1242 131.265 92.3718L132.169 90.2735C132.445 89.5709 132.67 88.8684 132.923 88.133L133.11 87.5944L133.278 87.0324L133.62 85.8989L134.299 83.6367L137.038 74.5878C138.845 68.5506 140.727 62.532 142.568 56.5041L145.344 47.4693L148.153 38.4439L150.962 29.4278L151.674 27.1702C151.918 26.4115 152.119 25.6902 152.423 24.8846L153.275 22.5147L154.319 20.2197C155.809 17.1732 157.714 14.3484 159.98 11.8265C162.254 9.29663 164.89 7.1184 167.804 5.36303C173.642 1.85576 180.323 0.00292969 187.133 0.00292969C193.943 0.00292969 200.625 1.85576 206.463 5.36303C209.377 7.11784 212.015 9.29434 214.291 11.8218C216.55 14.3466 218.45 17.1709 219.938 20.215L220.982 22.5147L221.839 24.8565C222.138 25.6621 222.34 26.3881 222.588 27.1468L223.295 29.3997L226.104 38.4204L228.913 47.4412L231.69 56.4807C233.53 62.5086 235.407 68.5225 237.219 74.5644L239.94 83.618L240.618 85.8849L240.955 87.0136L241.129 87.5804L241.311 88.1143C241.564 88.8262 241.78 89.5522 242.065 90.2594L242.969 92.3437C244.293 95.1075 245.986 97.6789 248.002 99.9874C250.023 102.312 252.342 104.359 254.899 106.076C260.154 109.497 266.222 111.462 272.484 111.772C266.074 112.022 259.721 110.478 254.14 107.313C248.495 104.039 243.855 99.2797 240.726 93.552L239.64 91.3507C239.307 90.6013 239.031 89.8285 238.703 89.0698L238.479 88.4984L238.282 87.941L237.893 86.8216L237.112 84.5922L233.989 75.6651C231.905 69.7168 229.892 63.7451 227.836 57.7875L224.774 48.8416L221.783 39.8583L218.777 30.8938L218.037 28.655C217.784 27.9196 217.545 27.1281 217.274 26.4677L216.487 24.4022L215.551 22.4163C214.206 19.8128 212.523 17.3985 210.546 15.2362C208.579 13.0906 206.303 11.25 203.794 9.77506C198.744 6.79591 192.987 5.22465 187.124 5.22465C181.261 5.22465 175.504 6.79591 170.454 9.77506C167.954 11.2534 165.687 13.0937 163.726 15.2362C161.766 17.4018 160.098 19.814 158.763 22.4116L157.826 24.3975L157.04 26.463C156.768 27.1281 156.529 27.9149 156.276 28.6503L155.523 30.8938L152.489 39.8537L149.469 48.8135L146.402 57.7594C144.347 63.717 142.338 69.6934 140.25 75.6417L137.132 84.5688L136.35 86.7982L135.961 87.9129L135.765 88.4702L135.54 89.0463C135.231 89.8051 134.955 90.5779 134.603 91.3226L133.517 93.5239C130.391 99.2552 125.751 104.017 120.103 107.289C117.312 108.863 114.319 110.048 111.207 110.811C108.125 111.554 104.955 111.871 101.787 111.753V111.753Z" fill="#231F20"/>
<path d="M101.787 111.752C80.1843 112.83 58.5768 113.396 36.9692 113.78C31.8849 113.882 26.8894 115.132 22.3566 117.438C20.1197 118.57 18.0391 119.987 16.167 121.654C15.9329 121.86 15.6988 122.047 15.46 122.272L14.7999 122.942C14.3465 123.376 13.9152 123.832 13.5076 124.309L12.2903 125.743L11.1807 127.274C5.38433 135.48 3.5677 146.44 6.65783 155.92C7.40049 158.296 8.44533 160.568 9.7667 162.678C11.0861 164.804 12.6582 166.762 14.4487 168.509L15.8159 169.802C16.0432 170.02 16.284 170.223 16.5369 170.411L17.272 171.001C18.2084 171.783 19.3461 172.589 20.4277 173.39L26.945 178.204L39.947 187.881L46.4456 192.724L52.9115 197.609C57.2143 200.888 61.5405 204.11 65.8292 207.403C67.9736 209.07 70.1039 210.616 72.2857 212.494C74.366 214.388 76.2313 216.505 77.848 218.807C79.3976 221.134 80.6911 223.621 81.7059 226.226C82.6628 228.83 83.3286 231.532 83.6911 234.282C83.9757 237.012 83.9663 239.765 83.663 242.493C83.2994 245.191 82.6383 247.841 81.6919 250.394C82.3594 247.788 82.7563 245.12 82.8765 242.432C82.9479 239.784 82.7408 237.135 82.2584 234.53C81.7026 231.958 80.8901 229.447 79.8331 227.037C77.6473 222.287 74.3985 218.104 70.338 214.812C68.3388 213.262 66.0212 211.74 63.8113 210.208C59.3587 207.145 54.9482 204.03 50.5096 200.944L43.8659 196.269L37.2548 191.586L24.0375 182.218L17.4452 177.502C16.3496 176.71 15.2681 175.966 14.1116 175.038L13.2642 174.373C12.9739 174.158 12.6957 173.926 12.4308 173.68L10.8342 172.209C8.74719 170.182 6.91545 167.908 5.37964 165.437C3.82048 162.968 2.58522 160.31 1.70426 157.526C1.59657 157.179 1.46079 156.838 1.37652 156.486L1.10964 155.423C0.945767 154.716 0.735076 154.018 0.641435 153.292L0.285604 151.138L0.0936399 148.969C-0.0857557 146.07 0.0618797 143.16 0.533751 140.295C1.03488 137.44 1.83524 134.645 2.92158 131.958C4.04847 129.291 5.47303 126.76 7.16817 124.412L8.48851 122.689L9.92588 121.064C10.3941 120.511 10.9372 120.033 11.4522 119.523L12.2388 118.773C12.4963 118.52 12.7913 118.305 13.0628 118.071C17.4902 114.321 22.7779 111.729 28.4526 110.525L30.5689 110.127L32.6992 109.898L33.7667 109.79L34.8342 109.762L36.9692 109.72C58.5768 110.104 80.1843 110.671 101.787 111.752Z" fill="#231F20"/>
<path d="M292.575 250.413C299.242 269.082 305.684 287.822 312.146 306.556L313.354 310.069C313.55 310.659 313.756 311.235 313.943 311.84L314.487 313.685L314.758 314.622C314.842 314.931 314.899 315.249 314.964 315.558L315.362 317.432C315.489 318.064 315.535 318.711 315.624 319.347C315.719 319.986 315.782 320.628 315.812 321.272L315.891 323.216C315.91 323.539 315.91 323.863 315.891 324.186L315.849 325.155C315.795 326.452 315.668 327.746 315.47 329.029C315.381 329.67 315.212 330.303 315.091 330.94L314.885 331.876C314.819 332.199 314.707 332.504 314.622 332.813L314.061 334.687L313.358 336.508C309.449 346.194 301.124 353.876 291.226 357.313L289.353 357.913C288.731 358.105 288.085 358.231 287.448 358.381L286.511 358.611C286.188 358.676 285.865 358.718 285.538 358.77C284.892 358.873 284.241 358.985 283.59 359.074C282.28 359.213 280.965 359.283 279.648 359.285H278.655C278.325 359.293 277.996 359.282 277.667 359.252L275.696 359.088C273.068 358.796 270.483 358.197 267.994 357.304C266.748 356.873 265.528 356.372 264.337 355.805L263.869 355.599L263.438 355.365L262.572 354.897C262.001 354.569 261.402 354.283 260.854 353.922L259.211 352.84L258.391 352.297L257.637 351.754L254.618 349.59L248.582 345.258L236.493 336.635C228.445 330.865 220.439 325.033 212.409 319.23L206.393 314.879C205.878 314.495 205.405 314.191 204.927 313.877C204.45 313.563 203.991 313.226 203.49 312.94C202.501 312.362 201.484 311.833 200.442 311.357C198.366 310.389 196.188 309.658 193.948 309.179L192.262 308.851C191.701 308.748 191.129 308.711 190.558 308.641L189.706 308.542C189.425 308.509 189.135 308.514 188.849 308.5L187.136 308.439L185.422 308.505C185.136 308.505 184.846 308.505 184.565 308.542L183.713 308.641C183.142 308.716 182.571 308.753 182.009 308.856L180.323 309.179C178.085 309.658 175.907 310.383 173.829 311.343C172.786 311.816 171.768 312.344 170.781 312.926C170.29 313.212 169.845 313.554 169.344 313.863C168.843 314.172 168.408 314.481 167.883 314.865L161.853 319.226L137.778 336.635L125.708 345.29L119.668 349.623L116.652 351.787L115.899 352.33L115.079 352.873L113.431 353.965C112.883 354.325 112.289 354.611 111.718 354.939L110.851 355.407L110.416 355.641L109.948 355.847C108.758 356.416 107.537 356.918 106.291 357.351C103.806 358.231 101.228 358.823 98.608 359.117L96.6322 359.276C96.304 359.309 95.974 359.322 95.6443 359.313H94.6517C93.3347 359.312 92.0187 359.24 90.7094 359.098C90.0586 359.014 89.4078 358.901 88.757 358.798C88.434 358.742 88.1062 358.7 87.7878 358.634L86.828 358.409C86.1913 358.245 85.5451 358.124 84.9177 357.941L83.0449 357.341C73.1471 353.904 64.8272 346.222 60.9083 336.537L60.206 334.715L59.6489 332.841C59.5599 332.527 59.4476 332.223 59.382 331.904L59.1807 330.968C59.0543 330.331 58.8857 329.703 58.8014 329.057C58.601 327.774 58.4729 326.481 58.4175 325.183L58.3754 324.214C58.3566 323.891 58.3566 323.567 58.3754 323.244L58.4503 321.301C58.4816 320.656 58.5456 320.014 58.6423 319.376C58.7312 318.734 58.778 318.088 58.9044 317.46L59.2977 315.586C59.368 315.273 59.4241 314.954 59.5037 314.65L59.78 313.713L60.3231 311.868C60.5151 311.268 60.7211 310.692 60.9177 310.102L62.121 306.584C68.5822 287.85 75.0293 269.115 81.7012 250.446C76.1343 269.471 70.3379 288.421 64.5603 307.381L63.4647 310.931C63.2868 311.521 63.0902 312.116 62.9263 312.701L62.4581 314.43L62.2287 315.296C62.1585 315.586 62.121 315.882 62.0648 316.172L61.7511 317.9C61.6528 318.486 61.6294 319.081 61.5638 319.671C61.4914 320.258 61.4492 320.849 61.4374 321.441V323.216C61.4296 323.512 61.4406 323.807 61.4702 324.101L61.5357 324.987C61.6182 326.162 61.7667 327.331 61.9805 328.49C62.0742 329.071 62.2474 329.638 62.3738 330.209L62.5798 331.071C62.6454 331.356 62.7578 331.628 62.8467 331.909L63.3992 333.586L64.0781 335.211C64.1951 335.478 64.2981 335.754 64.4292 336.017L64.8366 336.799C65.1128 337.319 65.3516 337.853 65.6606 338.354L66.597 339.853L66.8264 340.227L67.0839 340.583L67.599 341.3C68.2544 342.274 69.0598 343.136 69.7995 344.045L71.0215 345.3C71.2275 345.506 71.4195 345.731 71.6395 345.923L72.2997 346.508C74.0377 348.082 75.9402 349.464 77.9743 350.63L79.51 351.482L81.0972 352.222C81.6244 352.474 82.1653 352.696 82.7172 352.887L83.5366 353.201L83.9439 353.356L84.3606 353.482L86.004 353.965C86.5611 354.128 87.137 354.222 87.7036 354.353L88.5557 354.541C88.8413 354.592 89.1316 354.625 89.4172 354.667C89.9931 354.742 90.569 354.831 91.1448 354.897C92.2986 354.994 93.4565 355.033 94.6142 355.014H95.4804C95.7698 355.015 96.059 354.999 96.3466 354.967L98.0695 354.789C101.524 354.324 104.88 353.304 108.009 351.768L108.403 351.585L108.782 351.374L109.54 350.944C110.041 350.648 110.561 350.4 111.043 350.068L112.49 349.093L113.211 348.602L113.96 348.049L116.952 345.848L122.936 341.445L134.898 332.635L158.866 315.09L164.868 310.711C165.336 310.345 165.907 309.975 166.465 309.601C167.022 309.226 167.56 308.847 168.131 308.509C169.274 307.823 170.453 307.198 171.662 306.636C174.075 305.505 176.606 304.644 179.209 304.069L181.171 303.685C181.826 303.563 182.491 303.512 183.151 303.428L184.144 303.311C184.472 303.278 184.809 303.278 185.141 303.259L187.136 303.184L189.13 303.264C189.463 303.264 189.8 303.264 190.127 303.315L191.12 303.432C191.78 303.517 192.445 303.568 193.101 303.685L195.062 304.074C197.658 304.655 200.181 305.522 202.586 306.659C203.796 307.22 204.974 307.846 206.117 308.533C206.692 308.87 207.231 309.259 207.788 309.624C208.345 309.989 208.907 310.369 209.385 310.73L215.401 315.09C223.398 320.94 231.418 326.752 239.392 332.63L251.359 341.44L257.338 345.843L260.33 348.044L261.079 348.597L261.804 349.089L263.247 350.068C263.715 350.396 264.253 350.644 264.749 350.939L265.508 351.37L265.887 351.581L266.28 351.763C267.319 352.276 268.385 352.729 269.474 353.121C271.643 353.922 273.895 354.48 276.188 354.784L277.911 354.957C278.198 354.993 278.487 355.011 278.777 355.009H279.643C280.802 355.034 281.962 354.998 283.117 354.901C283.693 354.836 284.264 354.747 284.84 354.667C285.126 354.625 285.416 354.597 285.702 354.545L286.554 354.358C287.12 354.227 287.696 354.133 288.258 353.969L289.929 353.468L290.351 353.346L290.758 353.187L291.577 352.878C292.121 352.667 292.673 352.475 293.197 352.213L294.785 351.468L296.316 350.616C298.352 349.451 300.256 348.069 301.995 346.494L302.655 345.909C302.875 345.717 303.067 345.492 303.273 345.286L304.504 344.026C305.244 343.117 306.05 342.255 306.705 341.276L307.22 340.565L307.478 340.209L307.707 339.834L308.643 338.335C308.952 337.834 309.191 337.3 309.472 336.78L309.879 335.998C310.011 335.736 310.109 335.459 310.226 335.188L310.909 333.562L311.462 331.89C311.546 331.609 311.663 331.333 311.724 331.047L311.935 330.19C312.061 329.614 312.235 329.052 312.328 328.467C312.55 327.309 312.706 326.139 312.796 324.963L312.857 324.078C312.889 323.784 312.9 323.488 312.89 323.193V321.418C312.881 320.826 312.838 320.235 312.764 319.647C312.698 319.057 312.675 318.462 312.576 317.877L312.258 316.12C312.206 315.83 312.164 315.535 312.094 315.245L311.865 314.378L311.396 312.65C311.233 312.064 311.036 311.465 310.858 310.875L309.767 307.324C303.943 288.393 298.146 269.438 292.575 250.413Z" fill="#231F20"/>
</g>
<defs>
<clipPath id="clip0_2272_280">
<rect width="374.271" height="359.332" fill="white"/>
</clipPath>
</defs>
</svg>
