<svg width="895" height="345" viewBox="0 0 895 345" fill="none" xmlns="http://www.w3.org/2000/svg">
<g clip-path="url(#clip0_4858_486)">
<path d="M722.292 0H591.891C580.378 7.49128 569.399 16.3203 559.224 26.487C544.765 40.9345 532.85 57.121 523.746 74.2439C521.336 78.6584 519.194 83.2067 517.185 87.7549C504.868 115.58 499.111 145.411 499.915 175.242C500.048 178.988 500.182 182.734 500.584 186.479C503.396 220.591 514.775 254.168 534.858 283.732C538.339 288.815 542.087 293.765 545.97 298.581C550.12 303.664 554.672 308.614 559.358 313.43C571.943 326.004 585.599 336.439 600.192 345H722.292C769.954 345 813.198 325.737 844.393 294.434C875.587 263.265 895 220.056 895 172.433C895 77.1869 817.616 0 722.292 0ZM577.834 261.793C533.117 201.06 538.205 115.312 593.096 60.3315C593.23 60.1977 593.498 59.9302 593.766 59.7964C595.105 58.4587 596.577 57.121 597.916 55.7832C599.255 54.5793 600.594 53.3753 602.066 52.1714C602.736 51.5025 603.539 50.9674 604.209 50.2986C618.4 38.6603 634.064 29.8313 650.532 23.9453C652.138 23.4102 653.611 22.8751 655.217 22.3401C655.485 22.2063 655.753 22.2063 656.155 22.0725C656.422 21.9387 656.69 21.9387 656.958 21.805C703.013 7.62505 754.424 15.3839 794.722 44.9477L733.137 106.483L731.53 108.088L730.057 109.56L709.707 129.893L708.101 131.499L700.068 139.525L699.399 140.194L698.729 140.863L683.6 155.979L683.333 156.247L683.065 156.514L650.933 188.62L637.679 201.863L617.195 222.33L586.268 253.232L585.465 254.035L584.662 254.837L577.834 261.793ZM812.663 279.451C811.859 280.254 811.056 281.057 810.253 281.859C809.449 282.662 808.512 283.465 807.709 284.267C793.919 296.842 778.523 306.607 762.055 313.296C760.984 313.697 760.047 314.098 758.976 314.5C758.039 314.901 756.968 315.302 756.031 315.57C708.101 333.094 653.343 326.138 610.903 294.969L691.901 214.036L694.98 210.96L697.926 208.017L719.347 186.613L725.505 180.459L731.664 174.306L738.492 167.35L738.76 167.216L751.746 154.24L752.55 153.437L753.353 152.635L762.858 143.003L764.733 141.13L776.113 129.76L777.184 128.689L778.389 127.485L828.059 77.8558C844.66 100.463 854.434 126.415 857.245 153.17C857.915 159.457 858.182 165.744 858.049 172.032C858.049 172.701 858.049 173.37 858.049 174.038V174.306C858.049 174.573 858.049 174.975 858.049 175.242C858.049 175.644 858.049 176.045 858.049 176.313C857.915 180.995 857.513 185.543 856.844 190.225C856.844 190.76 856.71 191.295 856.576 191.964C856.442 192.499 856.442 193.168 856.308 193.703C851.22 225.14 836.761 255.238 812.663 279.451Z" fill="#D84C53"/>
<path d="M796.329 314.366C780.665 329.616 731.53 304.734 730.593 294.032C729.79 283.331 773.167 257.646 762.858 190.091C760.582 174.841 826.051 205.074 826.051 205.074C826.051 205.074 811.993 299.116 796.329 314.366Z" fill="#F68620"/>
<path d="M855.505 183.402C859.387 165.878 856.977 150.494 850.283 149.023H850.149C847.07 148.488 843.857 148.22 840.51 147.953L787.626 136.314L773.97 198.653L830.603 211.093C832.477 211.762 834.351 212.297 836.226 212.832C836.226 212.832 836.226 212.699 836.226 212.565H836.359C836.895 212.699 837.431 212.699 837.966 212.699C844.392 211.896 852.024 199.589 855.505 183.402Z" fill="#F8A33E"/>
<path d="M871.035 177.249H870.901L857.111 174.172L853.363 191.429L867.152 194.506H867.286C870.098 195.174 873.177 191.696 874.248 187.014C875.185 182.198 873.846 177.918 871.035 177.249Z" fill="#F8F9E3"/>
<path d="M797.935 133.907C797.801 133.907 797.801 133.907 797.667 133.907C751.88 126.415 693.775 91.2331 659.501 42.406L612.509 241.861C699.934 203.87 736.216 197.449 780.932 209.89C780.932 209.89 780.932 209.756 780.932 209.622C781.066 209.622 781.066 209.622 781.2 209.622C789.367 211.361 799.274 198.251 803.96 176.58C808.913 154.775 806.102 135.646 797.935 133.907Z" fill="#F8F9E3"/>
<path d="M663.344 145.85C678.053 78.9583 669.779 20.2977 644.864 14.8278C619.949 9.3579 587.827 59.1501 573.118 126.042C558.408 192.933 566.682 251.594 591.597 257.064C616.512 262.534 648.634 212.742 663.344 145.85Z" fill="#61388A"/>
<path d="M656.073 144.143C670.243 79.7051 663.932 23.5603 641.978 18.7405C620.024 13.9206 590.739 62.2508 576.569 126.689C562.4 191.127 568.71 247.272 590.664 252.092C612.619 256.912 641.903 208.582 656.073 144.143Z" fill="#F68620"/>
<path d="M656.021 144.073C653.745 154.374 651.067 164.273 648.122 173.637L614.785 161.865L627.102 105.547L661.778 108.757C660.707 120.128 658.698 131.9 656.021 144.073Z" fill="#E5E5BE"/>
<path d="M635.403 136.716C631.922 152.367 623.621 163.871 616.793 162.266C609.965 160.795 607.154 146.882 610.635 131.231C614.116 115.579 622.416 104.075 629.244 105.68C636.072 107.152 638.884 121.064 635.403 136.716Z" fill="#F8F9E3"/>
<path d="M668.605 54.178C677.442 63.6758 686.813 72.5048 696.587 80.665C706.494 88.8251 716.803 96.3164 727.647 103.139C738.492 109.961 749.738 115.981 761.386 121.198C773.033 126.415 785.217 130.562 797.801 133.371L798.337 133.505L798.203 134.04L797.801 133.371C799.408 133.773 800.747 134.709 801.684 135.913C802.621 137.117 803.291 138.455 803.826 139.793C803.157 138.455 802.353 137.251 801.282 136.314C800.211 135.378 799.006 134.575 797.668 134.442H797.132L797.266 133.907L797.668 134.575C784.815 133.104 772.096 129.492 760.047 124.81C747.997 119.994 736.35 113.974 725.371 107.018C714.393 100.062 703.95 92.1694 694.445 83.3404C684.805 74.3777 676.103 64.746 668.605 54.178Z" fill="#231F20"/>
<path d="M626.299 235.841C621.747 242.129 616.659 248.149 610.233 252.831C607.02 255.105 603.539 256.978 599.522 257.914C597.514 258.449 595.506 258.449 593.498 258.449C592.427 258.315 591.489 258.181 590.418 257.914L588.946 257.513C588.41 257.379 588.008 257.111 587.473 256.978C583.724 255.372 580.511 252.563 578.101 249.352C575.691 246.142 573.683 242.664 572.076 239.052C570.47 235.44 569.265 231.694 568.194 227.815C567.257 223.936 566.453 220.19 565.784 216.311C564.445 208.552 563.91 200.659 563.776 192.9C563.642 185.008 563.776 177.249 564.311 169.49C565.516 153.839 567.926 138.455 571.407 123.205C574.888 107.955 579.44 92.9721 585.197 78.3909C588.142 71.1671 591.355 63.9434 594.97 57.121C596.711 53.6429 598.719 50.2986 600.727 46.8205C602.869 43.4762 605.011 40.1319 607.287 37.0551C608.492 35.4498 609.697 33.9783 610.902 32.373C612.241 30.9015 613.446 29.2963 614.785 27.9585C617.462 25.0155 620.408 22.3401 623.621 20.0659C626.834 17.7918 630.449 15.7852 634.332 14.5812C638.214 13.5111 642.632 13.3773 646.515 14.8488C650.397 16.1865 653.611 18.862 656.154 21.9388C658.698 25.0155 660.572 28.4936 662.179 32.1055C663.786 35.7173 664.857 39.463 665.928 43.2086C666.865 46.9543 667.534 50.8337 668.07 54.7131C666.597 47.088 664.455 39.5968 661.242 32.6406C659.635 29.1625 657.627 25.8182 655.083 23.0089C652.539 20.1997 649.46 17.9256 645.979 16.8554C642.498 15.7852 638.75 15.919 635.135 16.9892C631.654 18.0593 628.307 20.0659 625.361 22.3401C622.416 24.6142 619.605 27.2897 617.061 30.0989C615.722 31.4366 614.651 33.0419 613.312 34.5134C612.107 35.9849 611.036 37.5902 609.965 39.0617C605.547 45.349 601.664 52.0376 598.183 58.86C594.703 65.6825 591.623 72.7724 588.812 79.9961C583.189 94.3098 578.771 109.159 575.424 124.275C571.943 139.257 569.533 154.641 568.194 169.891C566.989 185.275 566.855 200.793 568.863 215.909C569.399 219.655 570.068 223.534 571.005 227.146C571.943 230.892 573.014 234.504 574.352 237.982C575.691 241.46 577.432 244.938 579.708 247.881C581.85 250.958 584.661 253.499 588.008 255.105L589.213 255.64L590.552 256.041C591.355 256.309 592.293 256.442 593.23 256.576C595.104 256.71 596.979 256.71 598.719 256.309C602.468 255.64 605.949 253.901 609.162 251.894C612.375 249.754 615.32 247.346 618.132 244.537C621.345 241.727 623.889 238.784 626.299 235.841Z" fill="#231F20"/>
<path d="M764.331 205.876C752.415 204.806 740.5 204.806 728.852 206.278C725.907 206.679 722.961 206.946 720.15 207.615L715.732 208.418L711.448 209.354C709.975 209.622 708.502 209.889 707.163 210.291L702.879 211.361C699.934 212.03 697.122 212.832 694.311 213.635C691.499 214.304 688.554 215.24 685.742 216.043L681.458 217.381L677.174 218.718C671.551 220.457 665.928 222.464 660.305 224.337C649.059 228.216 637.813 232.229 626.433 235.975C637.143 230.624 647.988 225.541 659.1 221.126C661.911 219.922 664.723 218.986 667.4 217.916C670.212 216.846 673.023 215.909 675.835 214.839L680.119 213.368L684.403 212.03C687.215 211.093 690.16 210.291 692.972 209.488C695.917 208.685 698.729 207.883 701.674 207.348L706.092 206.278C707.565 206.01 709.038 205.742 710.51 205.475L714.929 204.672L719.347 204.003C722.292 203.468 725.371 203.335 728.317 203.067C740.5 201.997 752.683 203.067 764.331 205.876Z" fill="#231F20"/>
<path d="M825.247 209.756C822.302 233.032 818.553 256.175 812.796 278.916C811.323 284.668 809.717 290.287 807.843 295.905C805.834 301.524 803.826 307.142 800.479 312.359C800.077 313.028 799.542 313.697 799.14 314.232C798.605 314.901 798.069 315.57 797.4 316.105C796.195 317.175 794.722 318.245 793.249 318.914C790.304 320.386 787.091 320.921 784.012 321.188C780.932 321.456 777.853 321.188 774.774 320.787C771.828 320.386 768.749 319.717 765.937 318.914C760.181 317.309 754.557 315.035 749.202 312.359C746.525 311.022 743.847 309.55 741.303 307.945C738.759 306.34 736.216 304.601 733.94 302.46C732.869 301.39 731.664 300.32 730.727 298.982C730.459 298.715 730.191 298.313 730.057 297.912C729.789 297.511 729.655 297.243 729.388 296.842C729.254 296.44 728.986 296.039 728.852 295.504C728.718 294.969 728.584 294.434 728.584 293.899C728.584 292.829 728.718 291.892 729.12 290.956C729.254 290.554 729.388 290.153 729.656 289.752L730.191 288.682C730.994 287.344 731.798 286.006 732.735 284.802C736.35 279.986 739.964 275.572 743.311 270.89C745.052 268.482 746.658 266.074 748.131 263.666C749.604 261.258 751.077 258.716 752.415 256.175C755.093 251.091 757.369 245.74 759.11 240.122C760.85 234.637 762.189 228.885 762.992 223.133C763.26 221.661 763.394 220.19 763.528 218.852C763.661 217.381 763.795 215.909 763.929 214.438C764.063 212.966 764.197 211.495 764.197 210.023L764.331 205.609C765.268 217.247 764.197 229.153 761.118 240.657C758.038 252.162 752.683 262.863 746.123 272.763C744.516 275.17 742.776 277.578 741.035 279.986C739.295 282.394 737.555 284.668 735.814 286.943C735.011 288.146 734.208 289.35 733.538 290.421C732.869 291.625 732.467 292.828 732.601 293.497C732.601 294.166 733.27 295.37 734.074 296.307C734.877 297.377 735.814 298.313 736.885 299.116C741.035 302.728 746.123 305.671 751.21 308.212C756.298 310.754 761.787 312.894 767.276 314.366C769.954 315.169 772.765 315.704 775.577 316.105C778.388 316.506 781.2 316.774 783.878 316.506C786.555 316.373 789.233 315.837 791.643 314.633C794.053 313.563 795.793 311.824 797.266 309.55C800.345 305.002 802.487 299.517 804.495 294.166C806.37 288.682 808.11 283.197 809.717 277.578C812.93 266.341 815.608 254.971 818.151 243.6C820.695 232.765 822.971 221.26 825.247 209.756Z" fill="#231F20"/>
<path d="M803.692 139.792C806.772 140.328 809.851 140.729 813.064 141.264C816.143 141.799 819.223 142.334 822.302 142.869C825.381 143.404 828.461 143.939 831.54 144.608C834.619 145.143 837.698 145.812 840.778 146.347H840.51C843.723 146.481 847.07 146.749 850.283 147.284L852.158 147.551L851.756 149.424L850.283 147.284C851.89 147.551 853.229 148.488 854.3 149.424C855.237 150.494 856.04 151.698 856.576 152.768C857.647 155.176 858.316 157.584 858.718 159.992C859.521 164.808 859.387 169.758 858.986 174.44L854.835 173.771L855.237 171.764L857.379 172.165L864.341 173.637L871.303 175.242L873.445 175.644L873.043 177.65L871.303 175.108C872.909 175.376 874.248 176.446 875.051 177.516C875.855 178.587 876.256 179.791 876.524 180.861C877.06 183.135 876.926 185.275 876.39 187.416C875.855 189.556 875.051 191.563 873.713 193.302C873.043 194.238 872.106 195.041 871.035 195.71C869.964 196.378 868.357 196.78 866.751 196.245L869.161 194.773L868.759 196.646L866.885 196.245C862.333 195.174 857.781 194.104 853.229 192.9L855.103 191.83C854.3 193.97 853.496 196.111 852.425 198.251C851.488 200.392 850.283 202.398 849.078 204.271C847.74 206.278 846.401 208.15 844.66 209.756C843.857 210.558 842.786 211.361 841.849 211.896C840.778 212.431 839.573 212.966 838.368 213.1H838.234H838.1H838.368C837.698 213.1 836.895 213.1 836.226 212.832L837.029 212.297V212.565L836.895 213.234L836.226 212.966L830.737 210.96L825.515 209.488L830.87 210.291L836.493 211.762L835.69 212.297V212.03L835.824 211.361L836.493 211.495C837.029 211.628 837.564 211.628 838.1 211.495H838.234H838.368H838.1C839.037 211.361 839.974 210.826 840.912 210.291C841.715 209.622 842.518 208.953 843.188 208.15C844.66 206.545 845.865 204.672 846.936 202.799C849.078 198.92 850.685 194.773 852.024 190.626L852.425 189.288L853.898 189.556C858.45 190.492 863.136 191.295 867.688 192.365L865.412 193.837L865.814 191.83L867.822 192.365C868.09 192.499 868.491 192.365 869.027 192.098C869.562 191.83 870.098 191.295 870.499 190.626C871.437 189.422 871.972 187.817 872.374 186.212C872.642 184.606 872.775 183.001 872.374 181.53C872.24 180.861 871.972 180.192 871.57 179.657C871.169 179.255 870.901 178.988 870.633 178.988L868.357 178.72L868.893 176.312L870.499 178.854L863.538 177.383L856.576 175.777L859.119 174.172L854.969 173.503C855.237 171.229 855.371 168.955 855.371 166.681C855.371 164.407 855.237 162.133 854.969 159.992C854.701 157.852 854.166 155.711 853.363 153.839C852.961 152.902 852.425 152.1 851.89 151.431C851.22 150.762 850.685 150.361 849.882 150.227L848.007 149.692L848.409 148.086L849.882 150.227C846.802 149.692 843.589 149.29 840.376 148.889H840.242H840.108C837.029 148.086 833.95 147.418 831.004 146.615C827.925 145.812 824.846 145.143 821.9 144.207C818.821 143.404 815.876 142.602 812.796 141.799C809.717 141.398 806.772 140.595 803.692 139.792Z" fill="#231F20"/>
<path d="M449.709 14.4473L492.953 61.134L474.477 73.7086L552.129 99.393L509.153 61.2677L524.147 48.6931L449.709 14.4473Z" fill="#A073B2"/>
<path d="M455.198 317.71L516.784 301.657L519.194 323.998L578.503 267.679L524.549 287.611L520.666 268.348L455.198 317.71Z" fill="#A073B2"/>
<path d="M362.418 151.163L441.14 174.975L429.894 197.716L530.841 181.797L458.411 166.547L465.909 145.946L362.418 151.163Z" fill="#A073B2"/>
<path d="M774.908 151.966C774.506 151.966 774.105 151.698 773.971 151.431C773.703 150.896 766.339 138.455 751.077 144.073C750.541 144.341 749.872 143.94 749.604 143.405C749.337 142.869 749.738 142.201 750.274 141.933C767.411 135.512 775.979 150.093 775.979 150.227C776.247 150.762 776.113 151.431 775.577 151.832C775.31 151.966 775.176 151.966 774.908 151.966Z" fill="#231F20"/>
<path d="M712.385 135.111C712.117 135.111 711.716 134.977 711.582 134.709C700.603 122.67 688.286 130.562 687.751 130.83C687.215 131.231 686.546 131.097 686.144 130.562C685.743 130.027 685.876 129.358 686.412 128.957C686.546 128.823 700.737 119.727 713.188 133.104C713.59 133.639 713.59 134.308 713.054 134.709C712.921 134.977 712.653 135.111 712.385 135.111Z" fill="#231F20"/>
<path d="M753.621 183.135C761.828 183.135 768.482 176.487 768.482 168.286C768.482 160.086 761.828 153.438 753.621 153.438C745.413 153.438 738.76 160.086 738.76 168.286C738.76 176.487 745.413 183.135 753.621 183.135Z" fill="#F7F8E2"/>
<path d="M698.06 169.891C706.267 169.891 712.921 163.243 712.921 155.043C712.921 146.842 706.267 140.194 698.06 140.194C689.852 140.194 683.199 146.842 683.199 155.043C683.199 163.243 689.852 169.891 698.06 169.891Z" fill="#F7F8E2"/>
<path d="M768.08 171.764C768.749 167.885 767.812 164.006 765.804 160.795C763.796 157.718 760.582 155.444 756.968 154.508C753.353 153.571 749.47 154.24 746.257 156.113C743.044 157.986 740.5 161.063 739.295 164.808C739.563 162.935 740.366 161.063 741.437 159.324C742.508 157.718 743.981 156.247 745.721 155.043C747.462 153.973 749.336 153.17 751.345 152.769C753.353 152.367 755.495 152.501 757.503 152.902C759.511 153.438 761.386 154.24 762.992 155.444C764.599 156.648 766.072 158.253 767.009 159.992C768.08 161.731 768.615 163.738 768.883 165.745C768.883 167.885 768.749 169.892 768.08 171.764Z" fill="#231F20"/>
<path d="M739.161 164.808C738.492 168.688 739.429 172.567 741.437 175.777C743.446 178.854 746.659 181.128 750.274 182.065C753.888 183.001 757.771 182.332 760.984 180.46C764.197 178.587 766.741 175.51 767.946 171.764C767.678 173.637 766.875 175.51 765.804 177.249C764.733 178.854 763.26 180.326 761.52 181.53C759.779 182.6 757.905 183.403 755.897 183.804C753.888 184.205 751.746 184.071 749.738 183.67C747.73 183.135 745.856 182.332 744.249 181.128C742.642 179.924 741.17 178.319 740.233 176.58C739.161 174.841 738.626 172.834 738.358 170.828C738.358 168.688 738.492 166.681 739.161 164.808Z" fill="#231F20"/>
<path d="M748.265 176.848C753.663 176.848 758.039 172.476 758.039 167.082C758.039 161.689 753.663 157.317 748.265 157.317C742.868 157.317 738.492 161.689 738.492 167.082C738.492 172.476 742.868 176.848 748.265 176.848Z" fill="#040809"/>
<path d="M712.519 158.521C713.188 154.641 712.251 150.762 710.243 147.551C708.235 144.475 705.022 142.2 701.407 141.264C697.792 140.328 693.909 140.997 690.696 142.869C687.483 144.742 684.939 147.819 683.734 151.565C684.002 149.692 684.805 147.819 685.876 146.08C686.948 144.475 688.42 143.003 690.161 141.799C691.901 140.729 693.776 139.926 695.784 139.525C697.792 139.124 699.934 139.257 701.942 139.659C703.95 140.194 705.825 140.997 707.431 142.2C709.038 143.404 710.511 145.01 711.448 146.749C712.519 148.488 713.054 150.494 713.322 152.501C713.322 154.641 713.188 156.648 712.519 158.521Z" fill="#231F20"/>
<path d="M683.6 151.698C682.931 155.578 683.868 159.457 685.876 162.668C687.885 165.745 691.098 168.019 694.713 168.955C698.327 169.892 702.21 169.223 705.423 167.35C708.636 165.477 711.18 162.4 712.385 158.655C712.117 160.527 711.314 162.4 710.243 164.139C709.172 165.745 707.699 167.216 705.959 168.42C704.218 169.49 702.344 170.293 700.336 170.694C698.327 171.096 696.185 170.962 694.177 170.56C692.169 170.025 690.295 169.223 688.688 168.019C687.081 166.815 685.609 165.21 684.671 163.47C683.6 161.731 683.065 159.725 682.797 157.718C682.797 155.444 682.931 153.438 683.6 151.698Z" fill="#231F20"/>
<path d="M693.106 163.604C698.504 163.604 702.88 159.232 702.88 153.839C702.88 148.445 698.504 144.073 693.106 144.073C687.708 144.073 683.333 148.445 683.333 153.839C683.333 159.232 687.708 163.604 693.106 163.604Z" fill="#040809"/>
<path d="M712.385 169.758C712.385 169.758 708.235 183.938 720.552 186.881C732.869 189.824 734.476 175.109 734.476 175.109L712.385 169.758Z" fill="#231F20"/>
<path d="M729.923 184.74C727.781 186.747 724.836 187.951 720.418 186.881C715.866 185.81 713.59 183.135 712.519 180.192C714.795 178.721 718.276 178.185 721.891 178.988C725.773 179.924 728.718 182.199 729.923 184.74Z" fill="#F16B6C"/>
<g clip-path="url(#clip1_4858_486)">
<path d="M73.4832 121.827C77.5775 121.827 80.8966 118.508 80.8966 114.413C80.8966 110.319 77.5775 107 73.4832 107C69.3889 107 66.0698 110.319 66.0698 114.413C66.0698 118.508 69.3889 121.827 73.4832 121.827Z" fill="#221E57"/>
<path d="M201.474 121.827C205.569 121.827 208.888 118.508 208.888 114.413C208.888 110.319 205.569 107 201.474 107C197.38 107 194.061 110.319 194.061 114.413C194.061 118.508 197.38 121.827 201.474 121.827Z" fill="#221E57"/>
<path d="M149.882 109.375H125.114C124.315 109.375 123.524 109.532 122.787 109.838C122.049 110.144 121.378 110.592 120.814 111.156C120.249 111.721 119.801 112.391 119.495 113.129C119.19 113.867 119.032 114.658 119.032 115.457V120.19C119.032 120.988 119.19 121.779 119.495 122.517C119.801 123.255 120.249 123.925 120.814 124.49C121.378 125.055 122.049 125.503 122.787 125.808C123.524 126.114 124.315 126.271 125.114 126.271H131.9V140.339H143.096V126.271H149.882C151.495 126.271 153.042 125.631 154.184 124.49C155.325 123.35 155.966 121.803 155.968 120.19V115.457C155.966 113.843 155.325 112.296 154.184 111.156C153.042 110.016 151.495 109.375 149.882 109.375Z" fill="#221E57"/>
<path d="M88.4487 130.687L78.3154 135.359L87.4134 155.094L97.5467 150.422L88.4487 130.687Z" fill="#221E57"/>
<path d="M116.802 129.579C116.602 129.079 116.378 128.578 116.157 128.082C114.389 124.246 111.882 120.796 108.781 117.929C105.679 115.062 102.043 112.833 98.0801 111.371C94.1173 109.909 89.9053 109.242 85.6847 109.408C81.464 109.574 77.3173 110.569 73.4814 112.337C69.6454 114.106 66.1953 116.612 63.3281 119.714C60.4608 122.815 58.2326 126.451 56.7705 130.414C55.3085 134.377 54.6413 138.589 54.807 142.81C54.9727 147.03 55.9682 151.177 57.7365 155.013C57.9655 155.509 58.2072 155.997 58.4574 156.48L116.802 129.579Z" fill="#FAF28C"/>
<path d="M116.161 128.07C112.587 120.325 106.084 114.316 98.0803 111.366C90.0771 108.415 81.2296 108.764 73.4835 112.335C72.4911 112.793 71.5369 113.294 70.6123 113.837C70.6123 113.837 85.3118 109.426 104.019 135.466L116.802 129.579C116.607 129.079 116.378 128.579 116.161 128.07Z" fill="#FFFACA"/>
<path d="M177.456 150.423L187.589 155.095L196.687 135.36L186.554 130.688L177.456 150.423Z" fill="#221E57"/>
<path d="M158.198 129.579C158.402 129.079 158.622 128.578 158.847 128.082C160.615 124.246 163.122 120.796 166.224 117.929C169.325 115.062 172.961 112.833 176.924 111.371C180.887 109.909 185.099 109.242 189.319 109.408C193.54 109.574 197.687 110.569 201.523 112.337C205.359 114.106 208.809 116.612 211.676 119.714C214.543 122.815 216.772 126.451 218.234 130.414C219.696 134.377 220.363 138.589 220.197 142.81C220.031 147.03 219.036 151.177 217.268 155.013C217.034 155.509 216.797 155.997 216.542 156.48L158.198 129.579Z" fill="#FAF28C"/>
<path d="M158.847 128.069C160.731 123.987 163.449 120.344 166.827 117.377C170.205 114.409 174.167 112.183 178.458 110.84C182.75 109.498 187.274 109.07 191.741 109.584C196.208 110.098 200.517 111.542 204.392 113.824V113.824C204.392 113.824 189.697 109.413 170.989 135.453L158.198 129.554C158.402 129.079 158.618 128.578 158.847 128.069Z" fill="#FFFACA"/>
<path d="M93.0008 140.555C94.9601 139.588 96.911 138.604 98.8746 137.65L104.77 134.779L110.661 131.887L116.568 129.049L116.28 129.779C113.64 123.477 109.044 118.191 103.171 114.702C98.3185 111.82 92.7814 110.294 87.1377 110.282C81.4941 110.271 75.951 111.775 71.0872 114.638L70.6122 112.874C70.8209 112.872 71.0243 112.939 71.1906 113.065C71.357 113.191 71.4767 113.369 71.5311 113.57C71.5854 113.771 71.5713 113.985 71.491 114.178C71.4107 114.37 71.2686 114.531 71.0872 114.634C67.6596 116.639 64.649 119.284 62.2192 122.425C57.294 128.771 54.9572 136.749 55.6795 144.75C56.0567 148.738 57.1742 152.622 58.9748 156.201L58.2156 155.942L64.3609 153.223L70.5274 150.547L76.6854 147.871C78.7381 146.968 80.8077 146.107 82.8646 145.225C80.8586 146.217 78.8568 147.231 76.8423 148.193L70.8031 151.137L64.7638 154.08L58.6991 157.006C58.5668 157.07 58.4152 157.08 58.2755 157.035C58.1358 156.99 58.0188 156.893 57.9485 156.765V156.765C53.9111 149.348 52.9281 140.649 55.2087 132.518C57.4715 124.328 62.8291 117.337 70.15 113.022L70.6292 114.782C70.4229 114.781 70.2226 114.713 70.0589 114.588C69.8951 114.462 69.7768 114.287 69.722 114.088C69.6673 113.889 69.679 113.678 69.7555 113.486C69.832 113.294 69.969 113.133 70.1457 113.027C74.2451 110.59 78.8293 109.082 83.5749 108.61C88.3205 108.138 93.1118 108.714 97.6108 110.295C99.8485 111.077 101.998 112.092 104.023 113.323C110.097 117.075 114.775 122.711 117.344 129.372V129.393C117.396 129.526 117.393 129.675 117.338 129.806C117.283 129.938 117.179 130.044 117.048 130.101L111.051 132.735L105.037 135.347L99.0273 137.964C97.0255 138.85 95.0068 139.694 93.0008 140.555Z" fill="#231F20"/>
<path d="M82.873 145.229C83.3777 145.992 83.8485 146.773 84.3108 147.557C84.773 148.342 85.2268 149.131 85.6637 149.924C86.1005 150.717 86.5331 151.518 86.936 152.32C87.3389 153.122 87.7842 153.927 88.1871 154.737L87.0462 154.313C90.3741 152.648 93.7514 151.093 97.1781 149.648L96.754 150.789C96.4006 149.941 96.0585 149.101 95.7277 148.27C95.3926 147.422 95.0576 146.573 94.7438 145.725C94.4299 144.877 94.1161 144.029 93.8192 143.159C93.5223 142.29 93.2424 141.433 92.971 140.551C93.4714 141.319 93.9464 142.095 94.4087 142.879C94.871 143.664 95.3248 144.453 95.7616 145.25C96.1984 146.047 96.631 146.841 97.0339 147.642C97.4368 148.444 97.8821 149.249 98.285 150.059C98.3794 150.257 98.3937 150.483 98.3249 150.691C98.2562 150.899 98.1097 151.073 97.9161 151.175L97.8609 151.2C94.5359 152.868 91.1587 154.424 87.7291 155.865L87.6739 155.887C87.473 155.968 87.2486 155.97 87.0467 155.891C86.8448 155.812 86.6807 155.659 86.5882 155.463C86.2362 154.614 85.8927 153.792 85.5619 152.948C85.2311 152.104 84.8918 151.251 84.5779 150.403C84.2641 149.555 83.9503 148.707 83.6534 147.858C83.3565 147.01 83.1233 146.107 82.873 145.229Z" fill="#231F20"/>
<path d="M192.14 145.229C194.201 146.111 196.266 146.976 198.319 147.875L204.481 150.547L210.643 153.227L216.789 155.942L216.029 156.2C219.676 149.006 220.435 140.69 218.15 132.955C217.028 129.142 215.201 125.573 212.764 122.433C210.334 119.293 207.325 116.649 203.9 114.642C203.721 114.538 203.581 114.379 203.502 114.187C203.423 113.996 203.41 113.784 203.463 113.584C203.517 113.384 203.635 113.208 203.799 113.082C203.963 112.955 204.164 112.887 204.371 112.887L203.947 114.659C201.998 113.525 199.937 112.594 197.797 111.881C195.669 111.173 193.471 110.698 191.24 110.465C186.761 109.997 182.234 110.493 177.962 111.92C173.667 113.354 169.729 115.691 166.412 118.773C163.095 121.854 160.475 125.61 158.729 129.787L158.44 129.053L164.348 131.895L170.239 134.775L176.13 137.65C178.097 138.6 180.048 139.588 182.008 140.555C179.997 139.707 177.983 138.859 175.981 137.977L169.967 135.364L163.958 132.735L157.961 130.088C157.829 130.03 157.725 129.924 157.67 129.791C157.615 129.659 157.613 129.51 157.664 129.376V129.355C159.362 124.939 162.002 120.946 165.4 117.653C167.097 116.003 168.972 114.545 170.989 113.306C175.049 110.814 179.602 109.235 184.333 108.679C189.064 108.122 193.859 108.601 198.387 110.083C200.635 110.818 202.798 111.794 204.837 112.993H204.871C205.048 113.099 205.185 113.26 205.261 113.452C205.338 113.643 205.35 113.855 205.295 114.054C205.24 114.253 205.122 114.428 204.958 114.553C204.794 114.679 204.594 114.747 204.388 114.748V114.748L204.867 112.988C209.398 115.676 213.218 119.411 216.007 123.88C218.797 128.349 220.474 133.421 220.898 138.672C221.398 144.945 220.063 151.228 217.056 156.756C216.985 156.884 216.869 156.98 216.73 157.025C216.592 157.07 216.441 157.06 216.309 156.998L210.253 154.088L204.214 151.145L198.175 148.198C196.147 147.231 194.15 146.221 192.14 145.229Z" fill="#231F20"/>
<path d="M182.008 140.555C181.749 141.437 181.465 142.302 181.159 143.163C180.854 144.024 180.557 144.881 180.235 145.708C179.913 146.535 179.586 147.404 179.251 148.253C178.916 149.101 178.577 149.949 178.225 150.772L177.801 149.631C181.227 151.076 184.606 152.631 187.937 154.296L186.792 154.72C187.216 153.91 187.614 153.104 188.043 152.303C188.471 151.501 188.891 150.7 189.315 149.907C189.739 149.114 190.206 148.325 190.668 147.54C191.13 146.756 191.605 145.975 192.106 145.212C191.851 146.09 191.567 146.955 191.257 147.82C190.948 148.685 190.655 149.517 190.333 150.365C190.011 151.213 189.684 152.061 189.349 152.909C189.014 153.758 188.675 154.606 188.323 155.429C188.234 155.628 188.071 155.786 187.869 155.869C187.667 155.952 187.44 155.954 187.237 155.874V155.874L187.186 155.853C183.754 154.402 180.375 152.847 177.05 151.188L176.999 151.162C176.806 151.06 176.661 150.887 176.592 150.68C176.523 150.473 176.537 150.248 176.63 150.051C177.037 149.239 177.461 148.435 177.902 147.638C178.326 146.832 178.751 146.03 179.175 145.242C179.599 144.453 180.065 143.655 180.528 142.871C180.99 142.086 181.503 141.323 182.008 140.555Z" fill="#231F20"/>
<path d="M83.6282 306.291C79.9978 303.687 79.4465 297.839 82.3092 292.296L92.2036 273.084L112.353 287.533L97.3225 303.047C92.9754 307.551 87.2627 308.9 83.6282 306.291Z" fill="#221E57"/>
<path d="M190.473 306.291C194.103 303.687 194.655 297.839 191.792 292.296L181.906 273.097L161.757 287.533L176.787 303.047C181.126 307.551 186.843 308.9 190.473 306.291Z" fill="#221E57"/>
<path d="M137.502 299.574C183.19 299.574 220.228 262.536 220.228 216.848C220.228 171.159 183.19 134.122 137.502 134.122C91.8136 134.122 54.7759 171.159 54.7759 216.848C54.7759 262.536 91.8136 299.574 137.502 299.574Z" fill="#D84C53"/>
<path d="M220.228 216.848C220.412 227.744 218.419 238.568 214.367 248.685C208.179 264.003 197.556 277.122 183.861 286.36C170.165 295.598 154.022 300.534 137.502 300.534C120.982 300.534 104.839 295.598 91.1435 286.36C77.448 277.122 66.825 264.003 60.6372 248.685C56.5867 238.568 54.5955 227.744 54.7803 216.848L54.9542 220.902C55.0603 222.251 55.2002 223.599 55.3232 224.944C55.4462 226.288 55.6879 227.62 55.8703 228.96C56.0526 230.3 56.3665 231.615 56.6125 232.938C57.7277 238.218 59.3643 243.373 61.4982 248.329C65.7176 258.25 71.8429 267.247 79.5269 274.81C83.3599 278.567 87.5389 281.954 92.0083 284.925C103.228 292.346 116.091 296.912 129.479 298.224C142.866 299.536 156.371 297.555 168.818 292.453C188.931 284.187 204.981 268.336 213.498 248.329C215.629 243.372 217.266 238.217 218.383 232.938C218.629 231.615 218.918 230.292 219.125 228.96C219.333 227.628 219.516 226.284 219.673 224.944C219.829 223.604 219.936 222.251 220.042 220.902L220.228 216.848Z" fill="#231F20"/>
<path d="M54.7803 216.847C54.5959 205.951 56.587 195.127 60.6372 185.01C66.8243 169.691 77.4473 156.571 91.1432 147.331C104.839 138.092 120.983 133.156 137.504 133.156C154.025 133.156 170.169 138.092 183.865 147.331C197.561 156.571 208.184 169.691 214.371 185.01C218.422 195.127 220.413 205.951 220.228 216.847L220.054 212.793C219.948 211.444 219.808 210.096 219.685 208.751C219.562 207.407 219.316 206.075 219.138 204.739C218.96 203.403 218.638 202.084 218.396 200.757C215.003 184.862 207.043 170.304 195.494 158.868C191.661 155.112 187.482 151.727 183.013 148.757C171.791 141.34 158.926 136.778 145.538 135.468C132.151 134.158 118.646 136.14 106.199 141.242C86.0848 149.501 70.03 165.346 61.5066 185.349C59.3765 190.306 57.74 195.462 56.6209 200.74C56.3792 202.067 56.0908 203.386 55.8829 204.718C55.6751 206.05 55.4885 207.394 55.3359 208.734C55.1832 210.074 55.0729 211.427 54.9669 212.776L54.7803 216.847Z" fill="#231F20"/>
<path d="M137.502 281.027C172.948 281.027 201.682 252.293 201.682 216.848C201.682 181.402 172.948 152.668 137.502 152.668C102.057 152.668 73.3223 181.402 73.3223 216.848C73.3223 252.293 102.057 281.027 137.502 281.027Z" fill="#F8F9E3"/>
<path d="M73.3263 216.848C73.1178 208.382 74.6119 199.961 77.72 192.084C80.8799 184.154 85.5883 176.933 91.5703 170.843C97.5524 164.754 104.688 159.917 112.56 156.616C126.458 150.769 141.968 149.986 156.384 154.404C170.8 158.822 183.208 168.16 191.444 180.79C196.096 187.904 199.253 195.889 200.723 204.26C200.885 205.303 201.075 206.338 201.203 207.386C201.33 208.433 201.444 209.481 201.529 210.528C201.614 211.576 201.639 212.649 201.678 213.684V216.835L201.516 213.688C201.427 212.645 201.309 211.601 201.207 210.558C201.105 209.515 200.906 208.484 200.783 207.449C200.66 206.415 200.384 205.397 200.189 204.366C199.298 200.291 198.007 196.313 196.334 192.491C189.672 177.068 177.238 164.864 161.693 158.491C146.197 152.166 128.84 152.166 113.345 158.491C97.8005 164.867 85.3675 177.072 78.704 192.495C77.0309 196.317 75.7395 200.295 74.8488 204.37C74.6538 205.397 74.4247 206.423 74.2551 207.454C74.0855 208.484 73.9413 209.523 73.831 210.562C73.7207 211.601 73.6105 212.649 73.5172 213.692L73.3263 216.848Z" fill="#231F20"/>
<path d="M201.682 216.848C201.889 225.34 200.384 233.787 197.255 241.685C194.126 249.583 189.438 256.77 183.471 262.816C175.251 271.292 164.852 277.334 153.418 280.278C141.984 283.222 129.96 282.953 118.669 279.501C107.378 276.049 97.2592 269.547 89.4266 260.713C81.5939 251.879 76.3514 241.054 74.2765 229.431C74.1196 228.388 73.9287 227.348 73.7973 226.301C73.6658 225.253 73.5555 224.21 73.4749 223.158C73.3944 222.107 73.3604 221.038 73.3223 220.007V216.852L73.4834 219.999C73.5725 221.042 73.6912 222.085 73.793 223.129C73.8948 224.172 74.0899 225.203 74.2171 226.237C74.3444 227.272 74.6115 228.294 74.8066 229.321C75.7012 233.395 76.9924 237.372 78.6618 241.196C85.3239 256.619 97.7576 268.823 113.303 275.196C128.798 281.521 146.155 281.521 161.651 275.196C171.293 271.218 179.83 264.966 186.534 256.974C193.237 248.982 197.907 239.487 200.147 229.299C200.342 228.273 200.571 227.251 200.74 226.216C200.91 225.181 201.059 224.147 201.165 223.107C201.271 222.068 201.385 221.021 201.474 219.978L201.682 216.848Z" fill="#231F20"/>
<path d="M191.329 220.041C193.093 220.041 194.523 218.611 194.523 216.848C194.523 215.084 193.093 213.654 191.329 213.654H179.488C177.725 213.654 176.295 215.084 176.295 216.848C176.295 218.611 177.725 220.041 179.488 220.041H191.329Z" fill="#A073B2"/>
<path d="M95.5155 220.041C97.2792 220.041 98.709 218.611 98.709 216.848C98.709 215.084 97.2792 213.654 95.5155 213.654H83.6745C81.9107 213.654 80.4809 215.084 80.4809 216.848C80.4809 218.611 81.9107 220.041 83.6745 220.041H95.5155Z" fill="#A073B2"/>
<path d="M134.309 270.671C134.309 272.434 135.739 273.864 137.502 273.864C139.266 273.864 140.696 272.434 140.696 270.671V258.83C140.696 257.066 139.266 255.636 137.502 255.636C135.739 255.636 134.309 257.066 134.309 258.83V270.671Z" fill="#A073B2"/>
<path d="M134.309 174.857C134.309 176.621 135.739 178.05 137.502 178.05C139.266 178.05 140.696 176.621 140.696 174.857V163.016C140.696 161.252 139.266 159.822 137.502 159.822C135.739 159.822 134.309 161.252 134.309 163.016V174.857Z" fill="#A073B2"/>
<path d="M116.622 255.641L116.626 255.643C119.259 257.102 122.575 256.151 124.035 253.519L143.487 218.425C144.947 215.793 143.996 212.476 141.363 211.017L141.359 211.015C138.727 209.555 135.41 210.506 133.951 213.139L114.498 248.233C113.039 250.865 113.99 254.182 116.622 255.641Z" fill="#221E57"/>
<path d="M122.004 186.73L122 186.732C119.398 188.245 118.514 191.58 120.026 194.182L134.079 218.366C135.591 220.968 138.926 221.852 141.529 220.34L141.532 220.338C144.135 218.825 145.018 215.49 143.506 212.888L129.454 188.704C127.942 186.102 124.606 185.218 122.004 186.73Z" fill="#61388A"/>
<path d="M111 174.501C112.965 174.501 114.558 172.907 114.558 170.942C114.558 168.977 112.965 167.384 111 167.384C109.034 167.384 107.441 168.977 107.441 170.942C107.441 172.907 109.034 174.501 111 174.501Z" fill="#A073B2"/>
<path d="M91.5968 193.903C93.562 193.903 95.1551 192.31 95.1551 190.345C95.1551 188.38 93.562 186.787 91.5968 186.787C89.6317 186.787 88.0386 188.38 88.0386 190.345C88.0386 192.31 89.6317 193.903 91.5968 193.903Z" fill="#A073B2"/>
<path d="M91.5968 246.908C93.562 246.908 95.1551 245.315 95.1551 243.35C95.1551 241.385 93.562 239.792 91.5968 239.792C89.6317 239.792 88.0386 241.385 88.0386 243.35C88.0386 245.315 89.6317 246.908 91.5968 246.908Z" fill="#A073B2"/>
<path d="M111 266.311C112.965 266.311 114.558 264.718 114.558 262.753C114.558 260.788 112.965 259.195 111 259.195C109.034 259.195 107.441 260.788 107.441 262.753C107.441 264.718 109.034 266.311 111 266.311Z" fill="#A073B2"/>
<path d="M164.005 266.311C165.97 266.311 167.563 264.718 167.563 262.753C167.563 260.788 165.97 259.195 164.005 259.195C162.039 259.195 160.446 260.788 160.446 262.753C160.446 264.718 162.039 266.311 164.005 266.311Z" fill="#A073B2"/>
<path d="M183.407 246.908C185.373 246.908 186.966 245.315 186.966 243.35C186.966 241.385 185.373 239.792 183.407 239.792C181.442 239.792 179.849 241.385 179.849 243.35C179.849 245.315 181.442 246.908 183.407 246.908Z" fill="#A073B2"/>
<path d="M183.407 193.903C185.373 193.903 186.966 192.31 186.966 190.345C186.966 188.38 185.373 186.787 183.407 186.787C181.442 186.787 179.849 188.38 179.849 190.345C179.849 192.31 181.442 193.903 183.407 193.903Z" fill="#A073B2"/>
<path d="M164.005 174.501C165.97 174.501 167.563 172.907 167.563 170.942C167.563 168.977 165.97 167.384 164.005 167.384C162.039 167.384 160.446 168.977 160.446 170.942C160.446 172.907 162.039 174.501 164.005 174.501Z" fill="#A073B2"/>
</g>
<g clip-path="url(#clip2_4858_486)">
<path d="M283.628 147.291C279.998 144.687 279.446 138.839 282.309 133.296L292.204 114.084L312.353 128.533L297.323 144.047C292.975 148.551 287.263 149.9 283.628 147.291Z" fill="#221E57"/>
<path d="M390.473 147.291C394.103 144.687 394.655 138.839 391.792 133.296L381.906 114.097L361.757 128.533L376.787 144.047C381.126 148.551 386.843 149.9 390.473 147.291Z" fill="#221E57"/>
<path d="M337.502 140.574C383.19 140.574 420.228 103.536 420.228 57.8476C420.228 12.1593 383.19 -24.8784 337.502 -24.8784C291.814 -24.8784 254.776 12.1593 254.776 57.8476C254.776 103.536 291.814 140.574 337.502 140.574Z" fill="#D84C53"/>
<path d="M420.228 57.8477C420.412 68.7444 418.419 79.5682 414.367 89.6853C408.179 105.003 397.556 118.122 383.861 127.36C370.165 136.598 354.022 141.534 337.502 141.534C320.982 141.534 304.839 136.598 291.143 127.36C277.448 118.122 266.825 105.003 260.637 89.6853C256.587 79.5679 254.595 68.7441 254.78 57.8477L254.954 61.9021C255.06 63.2508 255.2 64.5994 255.323 65.9438C255.446 67.2882 255.688 68.6199 255.87 69.9601C256.053 71.3003 256.366 72.615 256.612 73.9382C257.728 79.2175 259.364 84.3731 261.498 89.329C265.718 99.2504 271.843 108.247 279.527 115.81C283.36 119.567 287.539 122.954 292.008 125.925C303.228 133.346 316.091 137.912 329.479 139.224C342.866 140.536 356.371 138.555 368.818 133.453C388.931 125.187 404.981 109.336 413.498 89.329C415.629 84.3723 417.266 79.217 418.383 73.9382C418.629 72.615 418.918 71.2918 419.125 69.9601C419.333 68.6284 419.516 67.284 419.673 65.9438C419.829 64.6036 419.936 63.2508 420.042 61.9021L420.228 57.8477Z" fill="#231F20"/>
<path d="M254.78 57.8474C254.596 46.951 256.587 36.1273 260.637 26.0098C266.824 10.6912 277.447 -2.42941 291.143 -11.6686C304.839 -20.9077 320.983 -25.844 337.504 -25.844C354.025 -25.844 370.169 -20.9077 383.865 -11.6686C397.561 -2.42941 408.184 10.6912 414.371 26.0098C418.422 36.1272 420.413 46.951 420.228 57.8474L420.054 53.793C419.948 52.4443 419.808 51.0957 419.685 49.7513C419.562 48.4069 419.316 47.0752 419.138 45.7392C418.96 44.4033 418.638 43.0843 418.396 41.7569C415.003 25.8621 407.043 11.3036 395.494 -0.132018C391.661 -3.88758 387.482 -7.27283 383.013 -10.2427C371.791 -17.6601 358.926 -22.2223 345.538 -23.5321C332.151 -24.842 318.646 -22.8597 306.199 -17.7578C286.085 -9.49885 270.03 6.34567 261.507 26.3491C259.376 31.3065 257.74 36.4616 256.621 41.7399C256.379 43.0674 256.091 44.3863 255.883 45.718C255.675 47.0497 255.489 48.3941 255.336 49.7343C255.183 51.0745 255.073 52.4274 254.967 53.776L254.78 57.8474Z" fill="#231F20"/>
<path d="M337.502 122.027C372.948 122.027 401.682 93.2932 401.682 57.8476C401.682 22.402 372.948 -6.33228 337.502 -6.33228C302.057 -6.33228 273.322 22.402 273.322 57.8476C273.322 93.2932 302.057 122.027 337.502 122.027Z" fill="#F8F9E3"/>
<path d="M273.326 57.8476C273.118 49.3821 274.612 40.961 277.72 33.0841C280.88 25.154 285.588 17.9332 291.57 11.8434C297.552 5.75367 304.688 0.917037 312.56 -2.38388C326.458 -8.23115 341.968 -9.01413 356.384 -4.59626C370.8 -0.17838 383.208 9.15999 391.444 21.7901C396.096 28.9036 399.253 36.8887 400.723 45.2601C400.885 46.3034 401.075 47.3383 401.203 48.3858C401.33 49.4333 401.444 50.4809 401.529 51.5284C401.614 52.5759 401.639 53.6489 401.678 54.6838V57.8349L401.516 54.688C401.427 53.6447 401.309 52.6014 401.207 51.5581C401.105 50.5148 400.906 49.4842 400.783 48.4494C400.66 47.4146 400.384 46.3967 400.189 45.3662C399.298 41.2905 398.007 37.3129 396.334 33.4912C389.672 18.0677 377.238 5.8639 361.693 -0.509323C346.197 -6.83422 328.84 -6.83422 313.345 -0.509323C297.8 5.86721 285.367 18.0719 278.704 33.4954C277.031 37.3171 275.74 41.2947 274.849 45.3704C274.654 46.3967 274.425 47.4231 274.255 48.4536C274.085 49.4842 273.941 50.5233 273.831 51.5623C273.721 52.6014 273.61 53.6489 273.517 54.6922L273.326 57.8476Z" fill="#231F20"/>
<path d="M401.682 57.8477C401.889 66.3402 400.384 74.7875 397.255 82.6854C394.126 90.5833 389.438 97.7699 383.471 103.816C375.251 112.292 364.852 118.334 353.418 121.278C341.984 124.222 329.96 123.953 318.669 120.501C307.378 117.049 297.259 110.547 289.427 101.713C281.594 92.8785 276.351 82.0538 274.277 70.4309C274.12 69.3876 273.929 68.3485 273.797 67.301C273.666 66.2534 273.556 65.2101 273.475 64.1583C273.394 63.1066 273.36 62.0378 273.322 61.0072V57.8519L273.483 60.9988C273.572 62.0421 273.691 63.0854 273.793 64.1287C273.895 65.172 274.09 66.2025 274.217 67.2373C274.344 68.2721 274.612 69.2943 274.807 70.3206C275.701 74.3952 276.992 78.3725 278.662 82.1955C285.324 97.619 297.758 109.823 313.303 116.196C328.798 122.521 346.155 122.521 361.651 116.196C371.293 112.218 379.83 105.966 386.534 97.974C393.237 89.982 397.907 80.4872 400.147 70.2994C400.342 69.2731 400.571 68.2509 400.74 67.2161C400.91 66.1813 401.059 65.1465 401.165 64.1075C401.271 63.0684 401.385 62.0209 401.474 60.9776L401.682 57.8477Z" fill="#231F20"/>
<path d="M391.329 61.0411C393.093 61.0411 394.523 59.6113 394.523 57.8476C394.523 56.0839 393.093 54.6541 391.329 54.6541H379.488C377.725 54.6541 376.295 56.0839 376.295 57.8476C376.295 59.6113 377.725 61.0411 379.488 61.0411H391.329Z" fill="#A073B2"/>
<path d="M295.515 61.0411C297.279 61.0411 298.709 59.6113 298.709 57.8476C298.709 56.0838 297.279 54.6541 295.515 54.6541H283.674C281.911 54.6541 280.481 56.0838 280.481 57.8476C280.481 59.6113 281.911 61.0411 283.674 61.0411H295.515Z" fill="#A073B2"/>
<path d="M334.309 111.671C334.309 113.434 335.739 114.864 337.502 114.864C339.266 114.864 340.696 113.434 340.696 111.671V99.8297C340.696 98.066 339.266 96.6362 337.502 96.6362C335.739 96.6362 334.309 98.066 334.309 99.8297V111.671Z" fill="#A073B2"/>
<path d="M334.309 15.8568C334.309 17.6205 335.739 19.0503 337.502 19.0503C339.266 19.0503 340.696 17.6205 340.696 15.8568V4.01576C340.696 2.25203 339.266 0.822248 337.502 0.822248C335.739 0.822248 334.309 2.25203 334.309 4.01576V15.8568Z" fill="#A073B2"/>
<path d="M316.622 96.6412L316.626 96.6433C319.259 98.1025 322.575 97.1514 324.035 94.5189L343.487 59.4251C344.947 56.7927 343.996 53.4758 341.363 52.0166L341.359 52.0145C338.727 50.5553 335.41 51.5065 333.951 54.1389L314.498 89.2327C313.039 91.8651 313.99 95.1821 316.622 96.6412Z" fill="#221E57"/>
<path d="M322.004 27.7303L322 27.7324C319.398 29.2446 318.514 32.5801 320.026 35.1824L334.079 59.3658C335.591 61.9682 338.926 62.8519 341.529 61.3398L341.532 61.3376C344.135 59.8255 345.018 56.4899 343.506 53.8876L329.454 29.7042C327.942 27.1019 324.606 26.2181 322.004 27.7303Z" fill="#61388A"/>
<path d="M311 15.5005C312.965 15.5005 314.558 13.9074 314.558 11.9423C314.558 9.97711 312.965 8.38403 311 8.38403C309.034 8.38403 307.441 9.97711 307.441 11.9423C307.441 13.9074 309.034 15.5005 311 15.5005Z" fill="#A073B2"/>
<path d="M291.597 34.9034C293.562 34.9034 295.155 33.3103 295.155 31.3451C295.155 29.3799 293.562 27.7869 291.597 27.7869C289.632 27.7869 288.039 29.3799 288.039 31.3451C288.039 33.3103 289.632 34.9034 291.597 34.9034Z" fill="#A073B2"/>
<path d="M291.597 87.9082C293.562 87.9082 295.155 86.3152 295.155 84.35C295.155 82.3848 293.562 80.7917 291.597 80.7917C289.632 80.7917 288.039 82.3848 288.039 84.35C288.039 86.3152 289.632 87.9082 291.597 87.9082Z" fill="#A073B2"/>
<path d="M311 107.311C312.965 107.311 314.558 105.718 314.558 103.753C314.558 101.788 312.965 100.195 311 100.195C309.034 100.195 307.441 101.788 307.441 103.753C307.441 105.718 309.034 107.311 311 107.311Z" fill="#A073B2"/>
<path d="M364.005 107.311C365.97 107.311 367.563 105.718 367.563 103.753C367.563 101.788 365.97 100.195 364.005 100.195C362.039 100.195 360.446 101.788 360.446 103.753C360.446 105.718 362.039 107.311 364.005 107.311Z" fill="#A073B2"/>
<path d="M383.407 87.9082C385.373 87.9082 386.966 86.3152 386.966 84.35C386.966 82.3848 385.373 80.7917 383.407 80.7917C381.442 80.7917 379.849 82.3848 379.849 84.35C379.849 86.3152 381.442 87.9082 383.407 87.9082Z" fill="#A073B2"/>
<path d="M383.407 34.9034C385.373 34.9034 386.966 33.3103 386.966 31.3451C386.966 29.3799 385.373 27.7869 383.407 27.7869C381.442 27.7869 379.849 29.3799 379.849 31.3451C379.849 33.3103 381.442 34.9034 383.407 34.9034Z" fill="#A073B2"/>
<path d="M364.005 15.5005C365.97 15.5005 367.563 13.9074 367.563 11.9423C367.563 9.97711 365.97 8.38403 364.005 8.38403C362.039 8.38403 360.446 9.97711 360.446 11.9423C360.446 13.9074 362.039 15.5005 364.005 15.5005Z" fill="#A073B2"/>
</g>
<g clip-path="url(#clip3_4858_486)">
<path d="M317.483 247.827C321.577 247.827 324.897 244.508 324.897 240.413C324.897 236.319 321.577 233 317.483 233C313.389 233 310.07 236.319 310.07 240.413C310.07 244.508 313.389 247.827 317.483 247.827Z" fill="#221E57"/>
<path d="M445.474 247.827C449.569 247.827 452.888 244.508 452.888 240.413C452.888 236.319 449.569 233 445.474 233C441.38 233 438.061 236.319 438.061 240.413C438.061 244.508 441.38 247.827 445.474 247.827Z" fill="#221E57"/>
<path d="M393.882 235.375H369.114C368.315 235.375 367.524 235.532 366.787 235.838C366.049 236.144 365.378 236.592 364.814 237.156C364.249 237.721 363.801 238.391 363.495 239.129C363.19 239.867 363.032 240.658 363.032 241.457V246.19C363.032 246.988 363.19 247.779 363.495 248.517C363.801 249.255 364.249 249.925 364.814 250.49C365.378 251.055 366.049 251.503 366.787 251.808C367.524 252.114 368.315 252.271 369.114 252.271H375.9V266.339H387.096V252.271H393.882C395.495 252.271 397.042 251.631 398.184 250.49C399.325 249.35 399.966 247.803 399.968 246.19V241.457C399.966 239.843 399.325 238.296 398.184 237.156C397.042 236.016 395.495 235.375 393.882 235.375Z" fill="#221E57"/>
<path d="M332.449 256.687L322.315 261.359L331.413 281.094L341.547 276.422L332.449 256.687Z" fill="#221E57"/>
<path d="M360.802 255.579C360.602 255.079 360.378 254.578 360.157 254.082C358.389 250.246 355.882 246.796 352.781 243.929C349.679 241.062 346.043 238.833 342.08 237.371C338.117 235.909 333.905 235.242 329.685 235.408C325.464 235.574 321.317 236.569 317.481 238.337C313.645 240.106 310.195 242.612 307.328 245.714C304.461 248.815 302.233 252.451 300.771 256.414C299.308 260.377 298.641 264.589 298.807 268.81C298.973 273.03 299.968 277.177 301.736 281.013C301.965 281.509 302.207 281.997 302.457 282.48L360.802 255.579Z" fill="#FAF28C"/>
<path d="M360.161 254.07C356.587 246.325 350.084 240.316 342.08 237.366C334.077 234.415 325.23 234.764 317.483 238.335C316.491 238.793 315.537 239.294 314.612 239.837C314.612 239.837 329.312 235.426 348.019 261.466L360.802 255.579C360.607 255.079 360.378 254.579 360.161 254.07Z" fill="#FFFACA"/>
<path d="M421.456 276.423L431.589 281.095L440.687 261.36L430.554 256.688L421.456 276.423Z" fill="#221E57"/>
<path d="M402.198 255.579C402.402 255.079 402.622 254.578 402.847 254.082C404.615 250.246 407.122 246.796 410.224 243.929C413.325 241.062 416.961 238.833 420.924 237.371C424.887 235.909 429.099 235.242 433.319 235.408C437.54 235.574 441.687 236.569 445.523 238.337C449.359 240.106 452.809 242.612 455.676 245.714C458.543 248.815 460.772 252.451 462.234 256.414C463.696 260.377 464.363 264.589 464.197 268.81C464.031 273.03 463.036 277.177 461.268 281.013C461.034 281.509 460.797 281.997 460.542 282.48L402.198 255.579Z" fill="#FAF28C"/>
<path d="M402.847 254.069C404.731 249.987 407.449 246.344 410.827 243.377C414.205 240.409 418.167 238.183 422.458 236.84C426.75 235.498 431.274 235.07 435.741 235.584C440.208 236.098 444.517 237.542 448.392 239.824V239.824C448.392 239.824 433.697 235.413 414.989 261.453L402.198 255.554C402.402 255.079 402.618 254.578 402.847 254.069Z" fill="#FFFACA"/>
<path d="M337.001 266.555C338.96 265.588 340.911 264.604 342.875 263.65L348.77 260.779L354.661 257.887L360.568 255.049L360.28 255.779C357.64 249.477 353.044 244.191 347.171 240.702C342.318 237.82 336.781 236.294 331.138 236.282C325.494 236.271 319.951 237.775 315.087 240.638L314.612 238.874C314.821 238.872 315.024 238.939 315.191 239.065C315.357 239.191 315.477 239.369 315.531 239.57C315.585 239.771 315.571 239.985 315.491 240.178C315.411 240.37 315.269 240.531 315.087 240.634C311.66 242.639 308.649 245.284 306.219 248.425C301.294 254.771 298.957 262.749 299.679 270.75C300.057 274.738 301.174 278.622 302.975 282.201L302.216 281.942L308.361 279.223L314.527 276.547L320.685 273.871C322.738 272.968 324.808 272.107 326.865 271.225C324.859 272.217 322.857 273.231 320.842 274.193L314.803 277.137L308.764 280.08L302.699 283.006C302.567 283.07 302.415 283.08 302.276 283.035C302.136 282.99 302.019 282.893 301.948 282.765V282.765C297.911 275.348 296.928 266.649 299.209 258.518C301.472 250.328 306.829 243.337 314.15 239.022L314.629 240.782C314.423 240.781 314.223 240.713 314.059 240.588C313.895 240.462 313.777 240.287 313.722 240.088C313.667 239.889 313.679 239.678 313.756 239.486C313.832 239.294 313.969 239.133 314.146 239.027C318.245 236.59 322.829 235.082 327.575 234.61C332.32 234.138 337.112 234.714 341.611 236.295C343.848 237.077 345.998 238.092 348.023 239.323C354.097 243.075 358.775 248.711 361.344 255.372V255.393C361.396 255.526 361.393 255.675 361.338 255.806C361.283 255.938 361.179 256.044 361.048 256.101L355.051 258.735L349.037 261.347L343.027 263.964C341.026 264.85 339.007 265.694 337.001 266.555Z" fill="#231F20"/>
<path d="M326.873 271.229C327.378 271.992 327.848 272.773 328.311 273.557C328.773 274.342 329.227 275.131 329.664 275.924C330.1 276.717 330.533 277.518 330.936 278.32C331.339 279.122 331.784 279.927 332.187 280.737L331.046 280.313C334.374 278.648 337.751 277.093 341.178 275.648L340.754 276.789C340.401 275.941 340.058 275.101 339.728 274.27C339.393 273.422 339.058 272.573 338.744 271.725C338.43 270.877 338.116 270.029 337.819 269.159C337.522 268.29 337.242 267.433 336.971 266.551C337.471 267.319 337.946 268.095 338.409 268.879C338.871 269.664 339.325 270.453 339.762 271.25C340.198 272.047 340.631 272.841 341.034 273.642C341.437 274.444 341.882 275.249 342.285 276.059C342.379 276.257 342.394 276.483 342.325 276.691C342.256 276.899 342.11 277.073 341.916 277.175L341.861 277.2C338.536 278.868 335.159 280.424 331.729 281.865L331.674 281.887C331.473 281.968 331.249 281.97 331.047 281.891C330.845 281.812 330.681 281.659 330.588 281.463C330.236 280.614 329.893 279.792 329.562 278.948C329.231 278.104 328.892 277.251 328.578 276.403C328.264 275.555 327.95 274.707 327.653 273.858C327.357 273.01 327.123 272.107 326.873 271.229Z" fill="#231F20"/>
<path d="M436.14 271.229C438.201 272.111 440.266 272.976 442.319 273.875L448.481 276.547L454.643 279.227L460.789 281.942L460.029 282.2C463.676 275.006 464.435 266.69 462.15 258.955C461.028 255.142 459.201 251.573 456.764 248.433C454.334 245.293 451.325 242.649 447.9 240.642C447.721 240.538 447.581 240.379 447.502 240.187C447.423 239.996 447.41 239.784 447.463 239.584C447.517 239.384 447.635 239.208 447.799 239.082C447.963 238.955 448.164 238.887 448.371 238.887L447.947 240.659C445.998 239.525 443.937 238.594 441.797 237.881C439.669 237.173 437.471 236.698 435.24 236.465C430.761 235.997 426.234 236.493 421.962 237.92C417.667 239.354 413.729 241.691 410.412 244.773C407.095 247.854 404.475 251.61 402.729 255.787L402.44 255.053L408.348 257.895L414.239 260.775L420.13 263.65C422.097 264.6 424.048 265.588 426.008 266.555C423.997 265.707 421.983 264.859 419.981 263.977L413.967 261.364L407.958 258.735L401.961 256.088C401.829 256.03 401.725 255.924 401.67 255.791C401.615 255.659 401.613 255.51 401.664 255.376V255.355C403.362 250.939 406.002 246.946 409.4 243.653C411.097 242.003 412.972 240.545 414.989 239.306C419.049 236.814 423.602 235.235 428.333 234.679C433.064 234.122 437.859 234.601 442.387 236.083C444.635 236.818 446.798 237.794 448.837 238.993H448.871C449.048 239.099 449.185 239.26 449.261 239.452C449.338 239.643 449.35 239.855 449.295 240.054C449.24 240.253 449.122 240.428 448.958 240.553C448.794 240.679 448.594 240.747 448.388 240.748V240.748L448.867 238.988C453.398 241.676 457.218 245.411 460.007 249.88C462.797 254.349 464.474 259.421 464.898 264.672C465.398 270.945 464.063 277.228 461.056 282.756C460.985 282.884 460.869 282.98 460.73 283.025C460.592 283.07 460.441 283.06 460.309 282.998L454.253 280.088L448.214 277.145L442.175 274.198C440.147 273.231 438.15 272.221 436.14 271.229Z" fill="#231F20"/>
<path d="M426.008 266.555C425.749 267.437 425.465 268.302 425.159 269.163C424.854 270.024 424.557 270.881 424.235 271.708C423.913 272.535 423.586 273.404 423.251 274.253C422.916 275.101 422.577 275.949 422.225 276.772L421.801 275.631C425.227 277.076 428.606 278.631 431.937 280.296L430.792 280.72C431.216 279.91 431.614 279.104 432.043 278.303C432.471 277.501 432.891 276.7 433.315 275.907C433.739 275.114 434.206 274.325 434.668 273.54C435.13 272.756 435.605 271.975 436.106 271.212C435.851 272.09 435.567 272.955 435.257 273.82C434.948 274.685 434.655 275.517 434.333 276.365C434.011 277.213 433.684 278.061 433.349 278.909C433.014 279.758 432.675 280.606 432.323 281.429C432.234 281.628 432.071 281.786 431.869 281.869C431.667 281.952 431.44 281.954 431.237 281.874V281.874L431.186 281.853C427.754 280.402 424.375 278.847 421.05 277.188L420.999 277.162C420.806 277.06 420.661 276.887 420.592 276.68C420.523 276.473 420.537 276.248 420.63 276.051C421.037 275.239 421.461 274.435 421.902 273.638C422.326 272.832 422.751 272.03 423.175 271.242C423.599 270.453 424.065 269.655 424.528 268.871C424.99 268.086 425.503 267.323 426.008 266.555Z" fill="#231F20"/>
<path d="M381.502 425.574C427.19 425.574 464.228 388.536 464.228 342.848C464.228 297.159 427.19 260.122 381.502 260.122C335.814 260.122 298.776 297.159 298.776 342.848C298.776 388.536 335.814 425.574 381.502 425.574Z" fill="#D84C53"/>
<path d="M464.228 342.848C464.412 353.744 462.419 364.568 458.367 374.685C452.179 390.003 441.556 403.122 427.861 412.36C414.165 421.598 398.022 426.534 381.502 426.534C364.982 426.534 348.839 421.598 335.143 412.36C321.448 403.122 310.825 390.003 304.637 374.685C300.587 364.568 298.595 353.744 298.78 342.848L298.954 346.902C299.06 348.251 299.2 349.599 299.323 350.944C299.446 352.288 299.688 353.62 299.87 354.96C300.053 356.3 300.366 357.615 300.612 358.938C301.728 364.218 303.364 369.373 305.498 374.329C309.718 384.25 315.843 393.247 323.527 400.81C327.36 404.567 331.539 407.954 336.008 410.925C347.228 418.346 360.091 422.912 373.479 424.224C386.866 425.536 400.371 423.555 412.818 418.453C432.931 410.187 448.981 394.336 457.498 374.329C459.629 369.372 461.266 364.217 462.383 358.938C462.629 357.615 462.918 356.292 463.125 354.96C463.333 353.628 463.516 352.284 463.673 350.944C463.829 349.604 463.936 348.251 464.042 346.902L464.228 342.848Z" fill="#231F20"/>
<path d="M298.78 342.847C298.596 331.951 300.587 321.127 304.637 311.01C310.824 295.691 321.447 282.571 335.143 273.331C348.839 264.092 364.983 259.156 381.504 259.156C398.025 259.156 414.169 264.092 427.865 273.331C441.561 282.571 452.184 295.691 458.371 311.01C462.422 321.127 464.413 331.951 464.228 342.847L464.054 338.793C463.948 337.444 463.808 336.096 463.685 334.751C463.562 333.407 463.316 332.075 463.138 330.739C462.96 329.403 462.638 328.084 462.396 326.757C459.003 310.862 451.043 296.304 439.494 284.868C435.661 281.112 431.482 277.727 427.013 274.757C415.791 267.34 402.926 262.778 389.538 261.468C376.151 260.158 362.646 262.14 350.199 267.242C330.085 275.501 314.03 291.346 305.507 311.349C303.376 316.306 301.74 321.462 300.621 326.74C300.379 328.067 300.091 329.386 299.883 330.718C299.675 332.05 299.489 333.394 299.336 334.734C299.183 336.074 299.073 337.427 298.967 338.776L298.78 342.847Z" fill="#231F20"/>
<path d="M381.502 407.027C416.948 407.027 445.682 378.293 445.682 342.848C445.682 307.402 416.948 278.668 381.502 278.668C346.057 278.668 317.322 307.402 317.322 342.848C317.322 378.293 346.057 407.027 381.502 407.027Z" fill="#F8F9E3"/>
<path d="M317.326 342.848C317.118 334.382 318.612 325.961 321.72 318.084C324.88 310.154 329.588 302.933 335.57 296.843C341.552 290.754 348.688 285.917 356.56 282.616C370.458 276.769 385.968 275.986 400.384 280.404C414.8 284.822 427.208 294.16 435.444 306.79C440.096 313.904 443.253 321.889 444.723 330.26C444.885 331.303 445.075 332.338 445.203 333.386C445.33 334.433 445.444 335.481 445.529 336.528C445.614 337.576 445.639 338.649 445.678 339.684V342.835L445.516 339.688C445.427 338.645 445.309 337.601 445.207 336.558C445.105 335.515 444.906 334.484 444.783 333.449C444.66 332.415 444.384 331.397 444.189 330.366C443.298 326.291 442.007 322.313 440.334 318.491C433.672 303.068 421.238 290.864 405.693 284.491C390.197 278.166 372.84 278.166 357.345 284.491C341.8 290.867 329.367 303.072 322.704 318.495C321.031 322.317 319.74 326.295 318.849 330.37C318.654 331.397 318.425 332.423 318.255 333.454C318.085 334.484 317.941 335.523 317.831 336.562C317.721 337.601 317.61 338.649 317.517 339.692L317.326 342.848Z" fill="#231F20"/>
<path d="M445.682 342.848C445.889 351.34 444.384 359.787 441.255 367.685C438.126 375.583 433.438 382.77 427.471 388.816C419.251 397.292 408.852 403.334 397.418 406.278C385.984 409.222 373.96 408.953 362.669 405.501C351.378 402.049 341.259 395.547 333.427 386.713C325.594 377.879 320.351 367.054 318.277 355.431C318.12 354.388 317.929 353.348 317.797 352.301C317.666 351.253 317.556 350.21 317.475 349.158C317.394 348.107 317.36 347.038 317.322 346.007V342.852L317.483 345.999C317.572 347.042 317.691 348.085 317.793 349.129C317.895 350.172 318.09 351.203 318.217 352.237C318.344 353.272 318.612 354.294 318.807 355.321C319.701 359.395 320.992 363.372 322.662 367.196C329.324 382.619 341.758 394.823 357.303 401.196C372.798 407.521 390.155 407.521 405.651 401.196C415.293 397.218 423.83 390.966 430.534 382.974C437.237 374.982 441.907 365.487 444.147 355.299C444.342 354.273 444.571 353.251 444.74 352.216C444.91 351.181 445.059 350.147 445.165 349.107C445.271 348.068 445.385 347.021 445.474 345.978L445.682 342.848Z" fill="#231F20"/>
<path d="M435.329 346.041C437.093 346.041 438.523 344.611 438.523 342.848C438.523 341.084 437.093 339.654 435.329 339.654H423.488C421.725 339.654 420.295 341.084 420.295 342.848C420.295 344.611 421.725 346.041 423.488 346.041H435.329Z" fill="#A073B2"/>
<path d="M339.515 346.041C341.279 346.041 342.709 344.611 342.709 342.848C342.709 341.084 341.279 339.654 339.515 339.654H327.674C325.911 339.654 324.481 341.084 324.481 342.848C324.481 344.611 325.911 346.041 327.674 346.041H339.515Z" fill="#A073B2"/>
<path d="M378.309 300.857C378.309 302.621 379.739 304.05 381.502 304.05C383.266 304.05 384.696 302.621 384.696 300.857V289.016C384.696 287.252 383.266 285.822 381.502 285.822C379.739 285.822 378.309 287.252 378.309 289.016V300.857Z" fill="#A073B2"/>
<path d="M360.622 381.641L360.626 381.643C363.259 383.102 366.575 382.151 368.035 379.519L387.487 344.425C388.947 341.793 387.996 338.476 385.363 337.017L385.359 337.015C382.727 335.555 379.41 336.506 377.951 339.139L358.498 374.233C357.039 376.865 357.99 380.182 360.622 381.641Z" fill="#221E57"/>
<path d="M366.004 312.73L366 312.732C363.398 314.245 362.514 317.58 364.026 320.182L378.079 344.366C379.591 346.968 382.926 347.852 385.529 346.34L385.532 346.338C388.135 344.825 389.018 341.49 387.506 338.888L373.454 314.704C371.942 312.102 368.606 311.218 366.004 312.73Z" fill="#61388A"/>
<path d="M355 300.501C356.965 300.501 358.558 298.907 358.558 296.942C358.558 294.977 356.965 293.384 355 293.384C353.034 293.384 351.441 294.977 351.441 296.942C351.441 298.907 353.034 300.501 355 300.501Z" fill="#A073B2"/>
<path d="M335.597 319.903C337.562 319.903 339.155 318.31 339.155 316.345C339.155 314.38 337.562 312.787 335.597 312.787C333.632 312.787 332.039 314.38 332.039 316.345C332.039 318.31 333.632 319.903 335.597 319.903Z" fill="#A073B2"/>
<path d="M427.407 319.903C429.373 319.903 430.966 318.31 430.966 316.345C430.966 314.38 429.373 312.787 427.407 312.787C425.442 312.787 423.849 314.38 423.849 316.345C423.849 318.31 425.442 319.903 427.407 319.903Z" fill="#A073B2"/>
<path d="M408.005 300.501C409.97 300.501 411.563 298.907 411.563 296.942C411.563 294.977 409.97 293.384 408.005 293.384C406.039 293.384 404.446 294.977 404.446 296.942C404.446 298.907 406.039 300.501 408.005 300.501Z" fill="#A073B2"/>
</g>
</g>
<defs>
<clipPath id="clip0_4858_486">
<rect width="895" height="345" fill="white"/>
</clipPath>
<clipPath id="clip1_4858_486">
<rect width="167" height="200.61" fill="white" transform="translate(54 107)"/>
</clipPath>
<clipPath id="clip2_4858_486">
<rect width="167" height="200.61" fill="white" transform="translate(254 -52)"/>
</clipPath>
<clipPath id="clip3_4858_486">
<rect width="167" height="200.61" fill="white" transform="translate(298 233)"/>
</clipPath>
</defs>
</svg>
