<svg width="66" height="64" viewBox="0 0 66 64" fill="none" xmlns="http://www.w3.org/2000/svg">
<g clip-path="url(#clip0_1477:108)">
<path d="M29.9992 18.45C28.728 15.7411 28.4932 12.6603 29.3392 9.79002C30.3389 6.14004 32.4329 2.88395 35.3392 0.460022C37.0957 2.84572 38.3386 5.56972 38.9892 8.46002C39.6692 11.53 40.5092 15.33 37.7992 18.85C36.5157 20.4321 34.883 21.6952 33.0292 22.54C31.7777 21.3733 30.7508 19.9871 29.9992 18.45Z" fill="#F8C803"/>
<path d="M29.9391 18.49C29.1806 16.9449 28.6646 15.2922 28.4091 13.59C28.2857 12.7121 28.2623 11.8231 28.3391 10.94C28.4214 10.065 28.5923 9.20055 28.8491 8.36C29.3995 6.67598 30.2914 5.12363 31.4691 3.8C32.6205 2.52448 33.8602 1.33153 35.1791 0.23L35.4291 0L35.6291 0.28C36.9291 2.04858 38.0576 3.93713 38.9991 5.92C39.4539 6.93161 39.8154 7.98264 40.0791 9.06C40.3738 10.1407 40.5745 11.2448 40.6791 12.36C40.8049 13.5373 40.7305 14.7275 40.4591 15.88C40.1639 17.0515 39.6331 18.1505 38.8991 19.11C37.4864 20.9489 35.525 22.2903 33.2991 22.94L32.9191 23.06L32.7491 22.85C32.1972 22.1756 31.6831 21.4712 31.2091 20.74C30.7372 20.0185 30.3129 19.2669 29.9391 18.49ZM30.1191 18.4C30.4952 19.1525 30.9693 19.8519 31.5291 20.48C32.093 21.0976 32.7235 21.6509 33.4091 22.13L32.8491 22C34.5451 20.9082 36.0207 19.5072 37.1991 17.87C38.2568 16.262 38.7848 14.3632 38.7091 12.44C38.6628 11.4137 38.5492 10.3915 38.3691 9.38C38.1891 8.31 38.0391 7.32 37.7791 6.3C37.2669 4.25774 36.3673 2.33287 35.1291 0.63L35.5791 0.69C34.3423 1.78631 33.3008 3.08479 32.4991 4.53C31.7195 5.93092 31.0701 7.40041 30.5591 8.92C30.3191 9.65 30.0491 10.44 29.8491 11.21C29.6127 11.9837 29.4454 12.7768 29.3491 13.58C29.1224 15.2275 29.3904 16.9052 30.1191 18.4Z" fill="#231F20"/>
<path d="M30.3401 44.89C29.0704 47.5997 28.8391 50.6811 29.6901 53.55C30.6916 57.1992 32.7853 60.4548 35.6901 62.88C37.4497 60.4948 38.6959 57.7709 39.3501 54.88C40.0301 51.81 40.8601 48.02 38.1501 44.49C36.8631 42.9115 35.2313 41.6491 33.3801 40.8C32.1294 41.9697 31.0996 43.3552 30.3401 44.89Z" fill="#F8C803"/>
<path d="M30.4294 44.93C29.7064 46.4267 29.4387 48.1026 29.6594 49.75C29.7643 50.5518 29.9314 51.3442 30.1594 52.12C30.3694 52.9 30.6294 53.68 30.8694 54.42C31.384 55.9366 32.0367 57.4028 32.8194 58.8C33.6173 60.2479 34.6554 61.5498 35.8894 62.65L35.4494 62.7C36.6897 60.9886 37.5863 59.0529 38.0894 57C38.3378 55.9873 38.5348 54.9627 38.6794 53.93C38.8626 52.9161 38.9696 51.8899 38.9994 50.86C39.0862 48.9324 38.5573 47.0271 37.4894 45.42C36.3156 43.7824 34.8432 42.3811 33.1494 41.29L33.6994 41.21C33.0167 41.6889 32.3895 42.2423 31.8294 42.86C31.2769 43.4879 30.8064 44.1835 30.4294 44.93ZM30.2494 44.84C30.6263 44.0699 31.047 43.322 31.5094 42.6C31.9612 41.8629 32.4589 41.1548 32.9994 40.48L33.1794 40.27L33.5594 40.4C35.784 41.0471 37.7452 42.3849 39.1594 44.22C39.8904 45.1801 40.4178 46.2791 40.7094 47.45C41.0125 48.6074 41.1106 49.8088 40.9994 51C40.8957 52.1154 40.695 53.2196 40.3994 54.3C40.1438 55.3817 39.7855 56.4365 39.3294 57.45C38.3885 59.4311 37.2636 61.3194 35.9694 63.09L35.7794 63.36L35.5194 63.14C34.2037 62.0348 32.9673 60.8385 31.8194 59.56C30.6245 58.2438 29.7214 56.6898 29.1694 55C28.9075 54.1573 28.7365 53.2891 28.6594 52.41C28.5793 51.5273 28.5994 50.6383 28.7194 49.76C28.9744 48.0514 29.4905 46.392 30.2494 44.84Z" fill="#231F20"/>
<path d="M39.2195 44.36C40.3813 47.1234 42.5161 49.3649 45.2195 50.66C48.6008 52.3617 52.4224 52.9864 56.1695 52.45C55.5797 49.5752 54.4054 46.8522 52.7195 44.45C50.8895 41.88 48.6295 38.72 44.1995 38.37C42.167 38.2672 40.138 38.6333 38.2695 39.44C38.2877 41.1238 38.6096 42.7905 39.2195 44.36Z" fill="#F8C803"/>
<path d="M39.3098 44.33C39.9392 45.8698 41.0066 47.191 42.3798 48.13C43.0415 48.5938 43.7406 49.0018 44.4698 49.35C45.1898 49.72 45.9398 50.04 46.6498 50.35C48.1215 50.9838 49.6478 51.4825 51.2098 51.84C52.8206 52.22 54.4847 52.3215 56.1298 52.14L55.8698 52.5C55.4261 50.4323 54.5874 48.4697 53.3998 46.72C52.8141 45.8541 52.1832 45.0196 51.5098 44.22C50.9004 43.4054 50.2319 42.6366 49.5098 41.92C48.1507 40.5717 46.4011 39.6864 44.5098 39.39C42.4986 39.1668 40.4634 39.3228 38.5098 39.85L38.8098 39.38C38.7247 40.2112 38.7247 41.0488 38.8098 41.88C38.8768 42.7139 39.0447 43.5365 39.3098 44.33ZM39.1298 44.4C38.8036 43.618 38.5264 42.8164 38.2998 42C38.068 41.1584 37.8877 40.3035 37.7598 39.44V39.17L38.1098 38.97C40.085 37.7522 42.3967 37.1953 44.7098 37.38C45.9099 37.4727 47.0778 37.8132 48.1398 38.38C49.1791 38.9455 50.1128 39.6864 50.8998 40.57C51.6417 41.3974 52.3109 42.2874 52.8998 43.23C53.5257 44.1443 54.0647 45.1152 54.5098 46.13C55.3577 48.1558 56.0074 50.2589 56.4498 52.41L56.5298 52.73H56.1898C54.4871 52.9714 52.7695 53.0917 51.0498 53.09C49.2828 53.0852 47.536 52.7141 45.9198 52C45.1208 51.6273 44.3632 51.1714 43.6598 50.64C42.9514 50.1098 42.307 49.499 41.7398 48.82C40.6473 47.4899 39.7669 45.999 39.1298 44.4Z" fill="#231F20"/>
<path d="M44.8605 23.6C47.7208 22.7252 50.1613 20.8325 51.7205 18.28C53.7599 15.0874 54.7688 11.3451 54.6105 7.56C51.6763 7.85501 48.8341 8.75021 46.2605 10.19C43.5305 11.75 40.1605 13.67 39.3605 18.04C39.0552 20.0489 39.2126 22.1011 39.8205 24.04C41.5133 24.1984 43.2208 24.0493 44.8605 23.6Z" fill="#F8C803"/>
<path d="M44.8298 23.5C46.4284 23.036 47.8546 22.1107 48.9298 20.84C49.4559 20.2124 49.9308 19.5436 50.3498 18.84C50.7798 18.17 51.1898 17.45 51.5698 16.77C52.3715 15.3755 53.0411 13.9091 53.5698 12.39C54.1079 10.8268 54.3751 9.18317 54.3598 7.53001L54.6998 7.83001C52.5992 8.06056 50.5624 8.69197 48.6998 9.69001C47.7716 10.1998 46.8704 10.7572 45.9998 11.36C45.1246 11.8997 44.2892 12.5012 43.4998 13.16C42.0215 14.3895 40.9712 16.056 40.4998 17.92C40.0718 19.8926 40.0209 21.9285 40.3498 23.92L39.9098 23.56C40.7234 23.7469 41.555 23.8441 42.3898 23.85C43.2148 23.8395 44.035 23.7218 44.8298 23.5ZM44.8898 23.7C44.0667 23.9453 43.2282 24.1358 42.3798 24.27C41.5194 24.4143 40.6512 24.5078 39.7798 24.55H39.5098L39.3498 24.19C38.3314 22.1028 38.009 19.744 38.4298 17.46C38.648 16.2758 39.1076 15.1491 39.7798 14.15C40.4522 13.1748 41.2838 12.3195 42.2398 11.62C43.1424 10.9546 44.099 10.3659 45.0998 9.86001C46.0581 9.33353 47.0622 8.89506 48.0998 8.55001C50.1981 7.92 52.3509 7.48811 54.5298 7.26001H54.8698V7.60001C54.9373 9.31853 54.8804 11.0397 54.6998 12.75C54.5149 14.5115 53.9631 16.2148 53.0798 17.75C52.6282 18.5066 52.0987 19.2138 51.4998 19.86C50.9002 20.5099 50.2293 21.0902 49.4998 21.59C48.0767 22.5188 46.5229 23.2299 44.8898 23.7Z" fill="#231F20"/>
<path d="M41.4103 19.6C42.2957 18.9359 43.0338 18.0954 43.5777 17.1314C44.1216 16.1675 44.4596 15.1012 44.5703 14C44.8787 11.0626 44.2448 8.10331 42.7603 5.54999C40.7155 6.49949 38.9134 7.9015 37.4903 9.64999C36.0203 11.49 34.2103 13.76 35.2403 17.11C35.7767 18.6794 36.6545 20.1104 37.8103 21.3C39.1081 20.969 40.3302 20.3919 41.4103 19.6Z" fill="#A86F09"/>
<path d="M41.3495 19.52C42.3536 18.761 43.061 17.6751 43.3496 16.45C43.4971 15.8597 43.5908 15.2572 43.6296 14.65C43.6296 14.04 43.7096 13.43 43.7296 12.85C43.7681 11.6471 43.7079 10.443 43.5496 9.24998C43.4004 7.99588 43.0243 6.7794 42.4396 5.65998L42.8496 5.78998C41.3763 6.49168 40.0807 7.51722 39.0596 8.78998C38.5496 9.40998 38.1395 10.04 37.6695 10.73C37.224 11.3625 36.8326 12.0316 36.4996 12.73C35.9119 14.0053 35.7985 15.4485 36.1796 16.8C36.6555 18.2705 37.3283 19.6699 38.1796 20.96L37.6796 20.81C38.9996 20.7321 40.2712 20.2852 41.3495 19.52ZM41.4696 19.68C40.3698 20.4935 39.1865 21.1874 37.9395 21.75L37.7496 21.84L37.4396 21.61C35.9609 20.5564 34.8434 19.0722 34.2396 17.36C33.9132 16.4477 33.8003 15.4727 33.9096 14.51C34.0171 13.5551 34.32 12.6327 34.7996 11.8C35.2425 11.0305 35.7654 10.3098 36.3596 9.64998C36.9211 8.98548 37.5513 8.38214 38.2396 7.84998C39.6231 6.84941 41.0921 5.97269 42.6296 5.22998L42.8896 5.09998L43.0296 5.35998C43.6496 6.50998 44.3096 7.65998 44.8396 8.90998C45.3893 10.1688 45.6392 11.5381 45.5696 12.91C45.5189 13.5914 45.3811 14.2636 45.1596 14.91C44.9401 15.5707 44.6341 16.1995 44.2496 16.78C43.4964 17.8992 42.556 18.8802 41.4696 19.68Z" fill="#231F20"/>
<path d="M43.3802 43.69C44.2703 44.3585 45.0111 45.2054 45.5553 46.1766C46.0994 47.1477 46.4349 48.2218 46.5402 49.33C46.8486 52.2674 46.2147 55.2267 44.7302 57.78C42.6878 56.8266 40.8865 55.4253 39.4602 53.68C37.9902 51.84 36.1802 49.57 37.2002 46.22C37.7398 44.6409 38.6207 43.2001 39.7802 42C41.0765 42.3298 42.2983 42.9033 43.3802 43.69Z" fill="#A86F09"/>
<path d="M43.4391 43.61C44.5204 44.3918 45.4606 45.3522 46.2191 46.45C46.5997 47.0327 46.9055 47.661 47.1291 48.32C47.3456 48.9678 47.4833 49.6393 47.5391 50.32C47.6041 51.6916 47.3544 53.0598 46.8091 54.32C46.2791 55.57 45.6191 56.72 44.9991 57.86L44.8591 58.13L44.5891 57.99C43.0551 57.2507 41.5894 56.3773 40.2091 55.38C39.5208 54.8479 38.8907 54.2445 38.3291 53.58C37.7311 52.9233 37.2079 52.2022 36.7691 51.43C36.2861 50.5981 35.9797 49.6756 35.8691 48.72C35.7685 47.7533 35.8847 46.7762 36.2091 45.86C36.8124 44.1502 37.9302 42.669 39.4091 41.62L39.7091 41.39L39.9091 41.48C41.1575 42.0638 42.3407 42.7778 43.4391 43.61ZM43.3191 43.77C42.2364 43.019 40.9651 42.586 39.6491 42.52L40.1491 42.37C39.2982 43.6603 38.6255 45.0596 38.1491 46.53C37.7721 47.8828 37.889 49.3256 38.4791 50.6C38.8083 51.3004 39.1999 51.9698 39.6491 52.6C40.079 53.27 40.543 53.9175 41.0391 54.54C42.0565 55.8126 43.3488 56.8382 44.8191 57.54L44.4191 57.67C45.0271 56.5287 45.417 55.2842 45.5691 54C45.7223 52.8065 45.7825 51.6029 45.7491 50.4C45.7491 49.82 45.7491 49.21 45.6391 48.6C45.6088 47.9926 45.5183 47.3896 45.3691 46.8C45.0561 45.5836 44.3317 44.5131 43.3191 43.77Z" fill="#231F20"/>
<path d="M19.2192 40.64C16.9226 42.569 13.9972 43.5868 10.9992 43.5C7.2175 43.4729 3.53515 42.2861 0.449219 40.1C2.29337 37.7974 4.59085 35.8981 7.19922 34.52C9.99922 33.08 13.4392 31.29 17.5492 33C19.4057 33.8361 21.0447 35.0884 22.3392 36.66C21.5494 38.1651 20.4922 39.5137 19.2192 40.64Z" fill="#F8C803"/>
<path d="M19.28 40.71C17.981 41.8413 16.5176 42.7685 14.94 43.46C14.1239 43.8015 13.2718 44.0498 12.4 44.2C11.5321 44.3521 10.6502 44.4091 9.77 44.37C7.9996 44.273 6.26913 43.8063 4.69 43C3.16223 42.2166 1.68891 41.3313 0.28 40.35L0 40.17L0.22 39.91C1.5961 38.2034 3.1295 36.6298 4.8 35.21C5.66191 34.5137 6.58576 33.8978 7.56 33.37C8.51773 32.8065 9.52129 32.3248 10.56 31.93C11.6662 31.5065 12.836 31.2732 14.02 31.24C15.2268 31.2202 16.4249 31.4482 17.54 31.91C19.6774 32.8081 21.4763 34.3586 22.68 36.34L22.9 36.67L22.74 36.89C22.2326 37.5908 21.6816 38.2588 21.09 38.89C20.5273 39.5358 19.9226 40.1437 19.28 40.71ZM19.15 40.56C19.7804 40.0041 20.3321 39.3649 20.79 38.66C21.241 37.9598 21.6132 37.212 21.9 36.43L22 37C20.509 35.6442 18.7753 34.5822 16.89 33.87C15.0636 33.2546 13.0891 33.2336 11.25 33.81C10.2681 34.1151 9.30903 34.4894 8.38 34.93C7.38 35.37 6.48 35.77 5.56 36.29C3.70895 37.3021 2.0693 38.66 0.73 40.29L0.67 39.85C2.04738 40.7706 3.573 41.4472 5.18 41.85C6.73024 42.245 8.31362 42.4961 9.91 42.6C10.69 42.6 11.51 42.7 12.32 42.7C13.1254 42.7163 13.931 42.6729 14.73 42.57C16.3679 42.3457 17.9044 41.647 19.15 40.56Z" fill="#231F20"/>
<path d="M19.1709 29.58C16.3715 30.6419 13.2802 30.6419 10.4809 29.58C6.91532 28.309 3.82607 25.9737 1.63086 22.89C4.13198 21.3358 6.92694 20.3145 9.84086 19.89C12.9609 19.45 16.8409 18.89 20.1109 21.89C21.5851 23.281 22.7209 24.9915 23.4309 26.89C22.1852 28.0369 20.7418 28.9483 19.1709 29.58Z" fill="#F8C803"/>
<path d="M19.2097 29.67C17.6113 30.3075 15.9255 30.6986 14.2097 30.83C13.3272 30.8785 12.4421 30.8316 11.5697 30.69C10.6914 30.5499 9.83008 30.3186 8.99969 30C7.36397 29.311 5.88941 28.2894 4.66969 27C3.48711 25.7424 2.39126 24.406 1.38969 23L1.17969 22.73L1.47969 22.56C3.33843 21.4176 5.30446 20.4597 7.34969 19.7C8.39358 19.3197 9.47199 19.0417 10.5697 18.87C11.6706 18.6555 12.7882 18.5383 13.9097 18.52C15.092 18.4778 16.2727 18.6402 17.3997 19C18.5444 19.3788 19.5994 19.988 20.4997 20.79C22.2259 22.3358 23.4136 24.3923 23.8897 26.66L23.9897 27.05L23.7597 27.21C23.0482 27.7114 22.3069 28.1689 21.5397 28.58C20.7887 28.9959 20.0102 29.3601 19.2097 29.67ZM19.1297 29.48C19.9078 29.1604 20.6407 28.7401 21.3097 28.23C21.9654 27.7175 22.5624 27.134 23.0897 26.49L22.9997 27C22.0337 25.2326 20.7487 23.6594 19.2097 22.36C17.6867 21.1756 15.828 20.5036 13.8997 20.44C12.875 20.4028 11.849 20.4396 10.8297 20.55C9.78781 20.6145 8.74983 20.7313 7.71969 20.9C5.62894 21.2494 3.62549 21.9999 1.81969 23.11L1.90969 22.67C2.90769 23.9858 4.12562 25.1191 5.50969 26.02C6.83407 26.9144 8.23642 27.6876 9.69969 28.33C10.4197 28.62 11.1797 28.95 11.9397 29.21C12.6941 29.497 13.4698 29.7243 14.2597 29.89C15.888 30.2348 17.5819 30.0922 19.1297 29.48Z" fill="#231F20"/>
<path d="M22.3999 22.68C19.8369 21.1547 17.9173 18.748 16.9999 15.91C15.7639 12.3322 15.6557 8.46126 16.6899 4.82001C19.4747 5.78582 22.031 7.31416 24.1999 9.31001C26.4899 11.47 29.3299 14.12 29.0799 18.56C28.9137 20.5903 28.2806 22.5548 27.2299 24.3C25.5344 24.0599 23.8973 23.5109 22.3999 22.68Z" fill="#F8C803"/>
<path d="M22.3491 22.77C20.859 21.9238 19.5096 20.8509 18.3491 19.59C17.7477 18.9384 17.2273 18.2165 16.7991 17.44C16.3816 16.6708 16.0464 15.8596 15.7991 15.02C15.2967 13.3215 15.1536 11.5369 15.3791 9.78001C15.6006 8.09291 15.9347 6.42251 16.3791 4.78001L16.4591 4.45001L16.7791 4.57001C18.86 5.29885 20.8686 6.21947 22.7791 7.32001C23.7232 7.90678 24.6133 8.57606 25.4391 9.32001C26.2922 10.0483 27.0817 10.8478 27.7991 11.71C28.5658 12.6 29.1746 13.6147 29.5991 14.71C30.0235 15.8397 30.2108 17.0448 30.1491 18.25C30.0221 20.5677 29.1605 22.7848 27.6891 24.58L27.4491 24.89L27.1891 24.82C26.348 24.5792 25.523 24.2853 24.7191 23.94C23.9058 23.5993 23.1143 23.2085 22.3491 22.77ZM22.4491 22.6C23.1888 22.9983 23.9747 23.3039 24.7891 23.51C25.6025 23.6996 26.434 23.8002 27.2691 23.81L26.7591 24.05C27.5377 22.1922 27.9584 20.204 27.9991 18.19C27.9699 16.2612 27.3291 14.3914 26.1691 12.85C25.559 12.0266 24.8906 11.2479 24.1691 10.52C23.4832 9.75071 22.759 9.01644 21.9991 8.32001C20.4047 6.90348 18.5504 5.80992 16.5391 5.10001L16.9391 4.89001C16.5411 6.49435 16.4194 8.15478 16.5791 9.80001C16.7233 11.3968 17.0146 12.9768 17.4491 14.52C17.6691 15.26 17.8891 16.06 18.1591 16.82C18.4061 17.5881 18.7172 18.334 19.0891 19.05C19.835 20.5385 21.0039 21.7735 22.4491 22.6Z" fill="#231F20"/>
<path d="M21.2605 41.58C18.9143 43.426 17.3215 46.064 16.7805 49C16.0389 52.7002 16.4471 56.5387 17.9505 60C20.5829 58.6673 22.9116 56.805 24.7905 54.53C26.7905 52.09 29.2305 49.08 28.4005 44.72C27.9643 42.7288 27.0707 40.8664 25.7905 39.28C24.1529 39.764 22.6176 40.5435 21.2605 41.58Z" fill="#F8C803"/>
<path d="M21.3196 41.66C19.9947 42.6841 19.0001 44.0751 18.4596 45.66C18.1979 46.4236 17.994 47.2058 17.8496 48C17.6796 48.79 17.5696 49.6 17.4496 50.37C17.2217 51.9558 17.1447 53.5597 17.2196 55.16C17.2722 56.8123 17.6105 58.4431 18.2196 59.98L17.7996 59.83C19.6785 58.855 21.3522 57.5275 22.7296 55.92C23.4296 55.13 23.9996 54.31 24.6396 53.44C25.2596 52.6206 25.821 51.7585 26.3196 50.86C27.2579 49.1779 27.6428 47.2431 27.4196 45.33C27.1103 43.3386 26.4321 41.4224 25.4196 39.68L25.9496 39.85C25.1266 39.9762 24.319 40.1873 23.5396 40.48C22.7523 40.7771 22.0062 41.1736 21.3196 41.66ZM21.1996 41.5C21.8769 40.9734 22.5885 40.4923 23.3296 40.06C24.0796 39.6165 24.8542 39.2159 25.6496 38.86L25.8996 38.75L26.1896 39.03C27.887 40.6228 29.0354 42.7131 29.4696 45C29.6912 46.1856 29.6674 47.404 29.3996 48.58C29.1214 49.7227 28.6478 50.8087 27.9996 51.79C27.4106 52.7419 26.7415 53.6418 25.9996 54.48C25.2803 55.3224 24.4871 56.0989 23.6296 56.8C21.8968 58.1465 20.042 59.3283 18.0896 60.33L17.7896 60.49L17.6696 60.17C16.9956 58.5927 16.4374 56.9684 15.9996 55.31C15.5377 53.5994 15.4389 51.8111 15.7096 50.06C15.8556 49.1917 16.0901 48.3406 16.4096 47.52C16.7381 46.6992 17.1573 45.9176 17.6596 45.19C18.6431 43.7856 19.8371 42.541 21.1996 41.5Z" fill="#231F20"/>
<path d="M23.6204 42.52C23.3882 43.6091 22.9311 44.6377 22.2785 45.54C21.6258 46.4424 20.792 47.1985 19.8304 47.76C17.2942 49.2742 14.341 49.9398 11.4004 49.66C11.4001 47.4032 11.9166 45.1763 12.9104 43.15C13.9604 41.05 15.2704 38.45 18.7404 37.98C20.3899 37.8097 22.0567 38.0078 23.6204 38.56C23.873 39.8679 23.873 41.2121 23.6204 42.52Z" fill="#A86F09"/>
<path d="M23.7193 42.54C23.4643 43.8512 22.9875 45.1093 22.3093 46.26C21.943 46.8503 21.5028 47.3914 20.9993 47.87C20.4942 48.3429 19.9334 48.7526 19.3293 49.09C18.0929 49.7326 16.7226 50.0751 15.3293 50.09C13.9793 50.09 12.6593 50.02 11.3293 49.93H11.0293V49.64C11.0572 47.934 11.238 46.2338 11.5693 44.56C11.9864 42.8499 12.7116 41.2301 13.7093 39.78C14.2644 38.9932 14.9759 38.3293 15.7993 37.83C16.6561 37.3495 17.6092 37.0659 18.5893 37C20.3944 36.8338 22.2067 37.2284 23.7793 38.13L24.1193 38.31V38.52C24.1259 39.8703 23.9918 41.2175 23.7193 42.54ZM23.5293 42.54C23.7573 41.2437 23.6152 39.9093 23.1193 38.69L23.4693 39.08C21.9431 38.8705 20.3955 38.8705 18.8693 39.08C17.4827 39.3026 16.2207 40.0116 15.3093 41.08C14.8205 41.6474 14.3821 42.2564 13.9993 42.9C13.5694 43.5789 13.1755 44.2798 12.8193 45C12.0971 46.4553 11.7142 48.0554 11.6993 49.68L11.4193 49.37C12.6794 49.431 13.94 49.2616 15.1393 48.87C16.2915 48.5139 17.4121 48.0623 18.4893 47.52C19.0093 47.26 19.5493 46.98 20.0793 46.68C20.6131 46.3899 21.1215 46.0554 21.5993 45.68C22.5983 44.8815 23.2821 43.7548 23.5293 42.5V42.54Z" fill="#231F20"/>
<path d="M47.4292 34.2C50.2279 35.2656 53.3206 35.2656 56.1192 34.2C59.6968 32.9311 62.7971 30.5919 64.9992 27.5C62.4966 25.9489 59.7023 24.9278 56.7892 24.5C53.6692 24.06 49.7892 23.5 46.5192 26.5C45.0455 27.8914 43.9098 29.6018 43.1992 31.5C44.4366 32.6455 45.8692 33.5599 47.4292 34.2Z" fill="#F8C803"/>
<path d="M47.4691 34.11C49.0179 34.7189 50.7118 34.858 52.3391 34.51C53.1292 34.3491 53.905 34.125 54.6591 33.84C55.4191 33.57 56.1791 33.25 56.8991 32.95C58.3714 32.3222 59.7839 31.5625 61.1191 30.68C62.5013 29.7727 63.7188 28.6364 64.7191 27.32L64.8091 27.76C63.0056 26.6546 61.0057 25.9076 58.9191 25.56C57.9191 25.37 56.9191 25.3 55.8091 25.2C54.7862 25.0927 53.7569 25.0593 52.7291 25.1C50.806 25.1572 48.9505 25.8223 47.4291 27C45.8819 28.2978 44.5928 29.8753 43.6291 31.65L43.5091 31.1C44.0389 31.7447 44.6356 32.3313 45.2891 32.85C45.9613 33.3579 46.6935 33.7811 47.4691 34.11ZM47.3991 34.29C46.5956 33.9834 45.8138 33.6226 45.0591 33.21C44.2898 32.8026 43.5482 32.345 42.8391 31.84L42.6191 31.69L42.7091 31.3C43.1865 29.0299 44.3738 26.9706 46.0991 25.42C47.0022 24.6218 48.0564 24.0131 49.1991 23.63C50.3257 23.2676 51.5063 23.1018 52.6891 23.14C53.8106 23.1579 54.9283 23.275 56.0291 23.49C57.1254 23.6687 58.2031 23.9465 59.2491 24.32C61.2972 25.1049 63.266 26.0827 65.1291 27.24L65.4191 27.41L65.2091 27.68C64.2158 29.0923 63.1195 30.4292 61.9291 31.68C60.7057 32.9742 59.2236 33.9963 57.5791 34.68C56.7607 35.0059 55.9089 35.2406 55.0391 35.38C54.1678 35.5315 53.2816 35.5785 52.3991 35.52C50.678 35.3763 48.9905 34.9612 47.3991 34.29Z" fill="#231F20"/>
<path d="M19.3095 24.92C18.1964 24.8477 17.1108 24.5435 16.1223 24.0269C15.1338 23.5102 14.2642 22.7926 13.5695 21.92C11.7018 19.6309 10.6062 16.8096 10.4395 13.86C12.6709 13.5275 14.9487 13.7087 17.0995 14.39C19.3395 15.12 22.0995 16.03 23.0995 19.39C23.5075 20.9995 23.5587 22.6787 23.2495 24.31C21.9866 24.761 20.6496 24.968 19.3095 24.92Z" fill="#A86F09"/>
<path d="M19.3006 25C17.9676 24.9453 16.6544 24.6576 15.4206 24.15C14.7798 23.8772 14.1779 23.5208 13.6306 23.09C13.084 22.6667 12.5964 22.1724 12.1806 21.62C11.3611 20.5039 10.8101 19.2138 10.5706 17.85C10.3306 16.51 10.2506 15.19 10.1406 13.85V13.55H10.4306C12.1245 13.3304 13.8341 13.2568 15.5406 13.33C16.4046 13.3978 17.2592 13.5553 18.0906 13.8C18.9514 14.0249 19.786 14.34 20.5806 14.74C21.4388 15.1775 22.2006 15.7828 22.8206 16.52C23.4321 17.2715 23.8693 18.1492 24.1006 19.09C24.5398 20.8492 24.421 22.7014 23.7606 24.39L23.6306 24.75H23.4206C22.06 24.9788 20.6789 25.0626 19.3006 25ZM19.3006 24.8C20.6229 24.8254 21.9257 24.4789 23.0606 23.8L22.7206 24.19C22.7096 22.651 22.4909 21.1206 22.0706 19.64C21.6448 18.3046 20.7589 17.1635 19.5706 16.42C18.9108 16.0275 18.2182 15.6929 17.5006 15.42C16.7206 15.1 16.0406 14.8 15.2706 14.56C13.721 14.0684 12.0812 13.9283 10.4706 14.15L10.7406 13.82C10.8521 15.0741 11.1909 16.2974 11.7406 17.43C12.2679 18.5132 12.8798 19.5531 13.5706 20.54C13.9106 21.02 14.2706 21.54 14.6506 21.99C15.0136 22.4746 15.4185 22.9264 15.8606 23.34C16.7956 24.2316 18.0202 24.7569 19.3106 24.82L19.3006 24.8Z" fill="#231F20"/>
<path d="M44.6895 22.07C45.1805 21.0716 45.8729 20.1857 46.7231 19.468C47.5733 18.7504 48.5629 18.2165 49.6295 17.9C52.4598 17.0422 55.4897 17.1088 58.2795 18.09C57.7357 20.2722 56.7107 22.3052 55.2795 24.04C53.7495 25.83 51.8495 28.04 48.3695 27.66C46.7291 27.417 45.1602 26.8235 43.7695 25.92C43.8352 24.5908 44.1472 23.2853 44.6895 22.07Z" fill="#A86F09"/>
<path d="M44.5997 22C45.169 20.7912 45.9362 19.686 46.8697 18.73C47.8733 17.7694 49.1056 17.081 50.4497 16.73C51.7976 16.4102 53.2017 16.4102 54.5497 16.73C55.8797 17.01 57.1197 17.44 58.3697 17.83L58.6597 17.92L58.5697 18.21C58.1337 19.8553 57.5514 21.4584 56.8297 23C56.4341 23.7721 55.9617 24.5025 55.4197 25.18C54.8854 25.8909 54.2751 26.5414 53.5997 27.12C52.8754 27.7514 52.0273 28.2248 51.1097 28.51C50.1805 28.7925 49.2001 28.8643 48.2397 28.72C46.4472 28.4482 44.7818 27.6312 43.4697 26.38L43.1797 26.12V25.91C43.5125 24.5598 43.9885 23.249 44.5997 22ZM44.7797 22.08C44.2379 23.3108 44.0542 24.6695 44.2497 26L43.9997 25.49C45.4253 26.0676 46.922 26.451 48.4497 26.63C49.8508 26.746 51.2474 26.3596 52.3897 25.54C53.0133 25.0782 53.5955 24.5629 54.1297 24C54.7197 23.4 55.2597 22.89 55.7697 22.26C56.8248 21.0264 57.5872 19.57 57.9997 18L58.1997 18.37C56.9822 18.0217 55.7118 17.8964 54.4497 18C53.2453 18.0801 52.0486 18.2506 50.8697 18.51C50.3097 18.64 49.7197 18.78 49.1297 18.95C48.5386 19.0993 47.9628 19.3035 47.4097 19.56C46.266 20.0824 45.3372 20.983 44.7797 22.11V22.08Z" fill="#231F20"/>
<path d="M44.6895 39C45.1805 39.9984 45.8729 40.8843 46.7231 41.602C47.5733 42.3196 48.5629 42.8535 49.6295 43.17C52.4576 44.0342 55.4876 43.9747 58.2795 43C57.7427 40.8001 56.7173 38.7494 55.2795 37C53.7495 35.21 51.8495 33 48.3695 33.38C46.7291 33.623 45.1602 34.2165 43.7695 35.12C43.8315 36.4594 44.1436 37.7754 44.6895 39Z" fill="#A86F09"/>
<path d="M44.7805 39C45.3306 40.142 46.2602 41.0575 47.4105 41.59C47.9636 41.8465 48.5394 42.0507 49.1305 42.2C49.7205 42.37 50.3105 42.51 50.8705 42.64C52.0494 42.8994 53.2461 43.0699 54.4505 43.15C55.7089 43.235 56.9724 43.0927 58.1805 42.73L57.9805 43.1C57.5753 41.5282 56.8198 40.0684 55.7705 38.83C55.2553 38.2243 54.7078 37.6468 54.1305 37.1C53.6013 36.5387 53.0223 36.0266 52.4005 35.57C51.2552 34.7567 49.8609 34.3709 48.4605 34.48C46.9308 34.6485 45.4307 35.0218 44.0005 35.59L44.2405 35.13C44.0576 36.4451 44.2446 37.7852 44.7805 39ZM44.6005 39.08C44.0104 37.8481 43.5512 36.5577 43.2305 35.23V35.02L43.5205 34.76C44.8325 33.5088 46.4979 32.6918 48.2905 32.42C49.2509 32.2757 50.2313 32.3475 51.1605 32.63C52.0587 32.9155 52.8891 33.3817 53.6005 34C54.2759 34.5786 54.8861 35.2291 55.4205 35.94C55.9625 36.6175 56.4349 37.3478 56.8305 38.12C57.5527 39.6648 58.135 41.2712 58.5705 42.92L58.6605 43.21L58.3705 43.3C57.1205 43.69 55.8805 44.12 54.5505 44.4C53.2025 44.7198 51.7984 44.7198 50.4505 44.4C49.1063 44.049 47.8741 43.3605 46.8705 42.4C45.9296 41.4199 45.162 40.2871 44.6005 39.05V39.08Z" fill="#231F20"/>
<path d="M19.4909 34.23C18.6356 34.9404 17.6417 35.4646 16.5725 35.7694C15.5032 36.0742 14.3822 36.1527 13.2809 36C10.3473 35.6361 7.60701 34.343 5.46094 32.31C6.85344 30.5379 8.62738 29.1023 10.6509 28.11C12.7809 27.11 15.4109 25.86 18.4309 27.62C19.8358 28.5045 21.0304 29.6854 21.9309 31.08C21.3242 32.2749 20.4963 33.3439 19.4909 34.23Z" fill="#A86F09"/>
<path d="M19.55 34.31C18.5459 35.1903 17.3951 35.8876 16.15 36.37C14.8423 36.8466 13.4352 36.9842 12.06 36.77C10.698 36.523 9.41131 35.9652 8.3 35.14C7.25665 34.3353 6.25533 33.4775 5.3 32.57L5 32.37L5.19 32.15C6.26113 30.8198 7.4492 29.5882 8.74 28.47C9.43895 27.9152 10.1968 27.439 11 27.05C11.7793 26.6316 12.6005 26.2965 13.45 26.05C14.369 25.7701 15.3362 25.685 16.29 25.8C17.2534 25.9276 18.1759 26.2693 18.99 26.8C20.5211 27.7748 21.7124 29.2002 22.4 30.88L22.56 31.23L22.42 31.4C21.5715 32.471 20.6091 33.4467 19.55 34.31ZM19.43 34.16C20.4053 33.2747 21.1151 32.1356 21.48 30.87V31.39C20.4089 30.2835 19.1948 29.3251 17.87 28.54C16.6514 27.8682 15.2335 27.6519 13.87 27.93C13.1147 28.0955 12.3753 28.3263 11.66 28.62C10.89 28.92 10.18 29.17 9.46 29.53C7.99597 30.2328 6.7104 31.2586 5.7 32.53V32.1C6.64558 32.9232 7.73338 33.5671 8.91 34C10.0391 34.4225 11.1992 34.7568 12.38 35C12.95 35.11 13.55 35.22 14.16 35.31C14.7583 35.4074 15.3638 35.4542 15.97 35.45C17.2389 35.4391 18.4637 34.9825 19.43 34.16Z" fill="#231F20"/>
<path d="M32.8501 47C33.2867 48.0232 33.505 49.1261 33.4913 50.2384C33.4775 51.3507 33.2319 52.4479 32.7701 53.46C31.5834 56.1725 29.562 58.4356 27.0001 59.92C25.701 58.0774 24.8361 55.9646 24.4701 53.74C24.1201 51.41 23.6801 48.54 26.2401 46.15C27.4921 45.0564 28.9709 44.2538 30.5701 43.8C31.5179 44.7196 32.2905 45.8039 32.8501 47Z" fill="#A86F09"/>
<path d="M32.9407 47C33.4882 48.2179 33.8263 49.5195 33.9407 50.85C33.9838 51.5465 33.9368 52.2456 33.8007 52.93C33.6664 53.622 33.4446 54.294 33.1407 54.93C32.5013 56.1439 31.5912 57.1943 30.4807 58C29.4103 58.7823 28.2987 59.5067 27.1507 60.17L26.8907 60.33L26.7307 60.08C25.7721 58.6724 24.9389 57.1833 24.2407 55.63C23.9093 54.8284 23.6645 53.9937 23.5107 53.14C23.3205 52.2694 23.2232 51.3811 23.2207 50.49C23.223 49.5271 23.4203 48.5746 23.8007 47.69C24.1971 46.8057 24.7845 46.0202 25.5207 45.39C26.8946 44.2048 28.604 43.4777 30.4107 43.31H30.7907L30.9107 43.48C31.7081 44.5794 32.3885 45.7592 32.9407 47ZM32.7507 47.08C32.1894 45.8881 31.3062 44.8767 30.2007 44.16L30.7107 44.28C29.3395 44.9798 28.0709 45.8647 26.9407 46.91C25.936 47.8919 25.3153 49.2007 25.1907 50.6C25.121 51.3684 25.121 52.1416 25.1907 52.91C25.229 53.7037 25.3092 54.4948 25.4307 55.28C25.6854 56.8852 26.2971 58.4127 27.2207 59.75L26.8107 59.66C27.876 58.9818 28.8081 58.1141 29.5607 57.1C30.3054 56.1543 30.9742 55.1512 31.5607 54.1C31.8307 53.59 32.1107 53.04 32.3707 52.49C32.6405 51.9439 32.8613 51.375 33.0307 50.79C33.3816 49.5594 33.2823 48.244 32.7507 47.08Z" fill="#231F20"/>
<path d="M26.3604 18.44C25.4224 17.8415 24.6194 17.0539 24.003 16.1276C23.3866 15.2012 22.9702 14.1564 22.7804 13.06C22.2659 10.1463 22.6933 7.1444 24.0004 4.48999C26.1073 5.28691 28.0077 6.54812 29.5604 8.17999C31.1604 9.90999 33.1404 12.04 32.3704 15.46C31.9447 17.064 31.1734 18.5555 30.1104 19.83C28.7835 19.6088 27.5109 19.1371 26.3604 18.44Z" fill="#A86F09"/>
<path d="M26.2994 18.53C25.1587 17.8281 24.1445 16.939 23.2994 15.9C22.8716 15.3489 22.5186 14.7436 22.2494 14.1C21.9781 13.46 21.7899 12.7878 21.6894 12.1C21.5174 10.7169 21.6715 9.31282 22.1394 8C22.5895 6.75437 23.1035 5.53275 23.6794 4.34L23.7994 4.06L24.0694 4.18C25.6603 4.79627 27.1902 5.55958 28.6394 6.46C29.3639 6.93577 30.0346 7.48903 30.6394 8.11C31.2801 8.71555 31.8565 9.38579 32.3594 10.11C32.899 10.9027 33.27 11.7979 33.4494 12.74C33.6258 13.6969 33.5847 14.6811 33.3294 15.62C32.8518 17.3682 31.8502 18.9282 30.4594 20.09L30.1694 20.34L29.9694 20.27C28.6909 19.8143 27.4614 19.2314 26.2994 18.53ZM26.4094 18.36C27.5437 19.0317 28.8412 19.3777 30.1594 19.36L29.6694 19.54C30.4104 18.1921 30.9623 16.7485 31.3094 15.25C31.5844 13.8853 31.3646 12.4674 30.6894 11.25C30.3055 10.5794 29.8638 9.9437 29.3694 9.35C28.8494 8.7 28.3694 8.1 27.8394 7.52C26.7236 6.33836 25.3566 5.42248 23.8394 4.84L24.2394 4.68C23.7392 5.83878 23.4545 7.07907 23.3994 8.34C23.3335 9.54381 23.3636 10.751 23.4894 11.95C23.5494 12.52 23.6294 13.13 23.7294 13.74C23.8088 14.3409 23.9427 14.9333 24.1294 15.51C24.5392 16.6938 25.3444 17.7003 26.4094 18.36Z" fill="#231F20"/>
<path d="M46.7728 38.207C50.0382 30.3238 46.2946 21.286 38.4114 18.0206C30.5281 14.7553 21.4903 18.4988 18.225 26.3821C14.9596 34.2654 18.7032 43.3032 26.5864 46.5685C34.4697 49.8339 43.5075 46.0903 46.7728 38.207Z" fill="#8B5E3C"/>
<path d="M48.0503 32.3C48.0855 36.4722 46.5995 40.5142 43.8703 43.67C42.4504 45.272 40.6963 46.5429 38.7318 47.393C36.7672 48.2431 34.64 48.6517 32.5003 48.59C30.3774 48.5038 28.2931 47.9938 26.3703 47.09C23.5466 45.741 21.1392 43.6549 19.4021 41.0519C17.665 38.4488 16.6625 35.4253 16.5003 32.3C16.404 30.1693 16.7457 28.0415 17.5042 26.048C18.2627 24.0545 19.4219 22.2378 20.9103 20.71C22.4134 19.1583 24.2076 17.918 26.1903 17.06C28.1803 16.2021 30.3266 15.7662 32.4937 15.78C34.6607 15.7937 36.8013 16.2569 38.7803 17.14C40.7396 18.0066 42.4842 19.2937 43.8903 20.91C46.6193 24.0725 48.0987 28.1231 48.0503 32.3ZM47.8503 32.3C47.8309 30.3121 47.3883 28.3511 46.5521 26.5476C45.7158 24.744 44.505 23.1392 43.0003 21.84C40.0921 19.301 36.3609 17.9044 32.5003 17.91C28.683 17.9107 25.0111 19.3744 22.2403 22C19.4402 24.7195 17.778 28.4012 17.5903 32.3C17.5076 34.2738 17.8274 36.2438 18.5303 38.09C19.2592 39.9404 20.3739 41.6142 21.8003 43C23.2289 44.3388 24.9127 45.376 26.7512 46.0495C28.5896 46.723 30.5449 47.0191 32.5003 46.92C36.3712 46.7925 40.0798 45.3339 43.0003 42.79C44.4794 41.4822 45.6858 39.8952 46.5503 38.12C47.4143 36.302 47.8586 34.3129 47.8503 32.3Z" fill="#231F20"/>
<path d="M43.7978 36.9748C46.3827 30.7345 43.4193 23.5803 37.179 20.9955C30.9387 18.4107 23.7846 21.3741 21.1997 27.6143C18.6149 33.8546 21.5783 41.0088 27.8186 43.5936C34.0589 46.1784 41.213 43.2151 43.7978 36.9748Z" fill="#3C2415"/>
<path d="M44.7803 32.3C44.809 35.5832 43.5943 38.7556 41.3803 41.18C40.2503 42.4068 38.8771 43.3845 37.3481 44.0508C35.8192 44.7172 34.1681 45.0575 32.5003 45.05C30.8237 45.0595 29.1624 44.7305 27.6159 44.0827C26.0694 43.4349 24.6696 42.4816 23.5003 41.28C22.335 40.0957 21.4215 38.6878 20.8148 37.1411C20.2082 35.5943 19.9209 33.9408 19.9703 32.28C20.0731 28.9911 21.408 25.8609 23.7103 23.51C24.8639 22.3458 26.2192 21.4005 27.7103 20.72C29.2194 20.0298 30.8553 19.6601 32.5146 19.6343C34.1738 19.6085 35.8204 19.9271 37.3503 20.57C38.8698 21.2226 40.2332 22.1906 41.3503 23.41C43.5699 25.8372 44.7944 29.011 44.7803 32.3ZM44.6803 32.3C44.6711 30.7121 44.3332 29.1433 43.6878 27.6925C43.0424 26.2416 42.1035 24.9401 40.9303 23.87C38.6224 21.7582 35.6277 20.5539 32.5003 20.48C30.9358 20.4352 29.3782 20.7031 27.9186 21.2681C26.459 21.833 25.1269 22.6836 24.0003 23.77C22.8712 24.8784 21.9835 26.2084 21.3933 27.6763C20.803 29.1443 20.5228 30.7185 20.5703 32.3C20.6482 35.4183 21.9373 38.3836 24.1643 40.5677C26.3912 42.7517 29.3811 43.9828 32.5003 44C35.6194 43.9837 38.6207 42.8074 40.9203 40.7C42.0911 39.6339 43.0294 38.3375 43.6764 36.8922C44.3233 35.4468 44.6651 33.8835 44.6803 32.3Z" fill="#231F20"/>
<path d="M32.0209 28.89C32.6064 28.89 33.0809 28.4154 33.0809 27.83C33.0809 27.2446 32.6064 26.77 32.0209 26.77C31.4355 26.77 30.9609 27.2446 30.9609 27.83C30.9609 28.4154 31.4355 28.89 32.0209 28.89Z" fill="#3A331A"/>
<path d="M33.7103 31.23C34.2018 31.23 34.6003 30.8315 34.6003 30.34C34.6003 29.8485 34.2018 29.45 33.7103 29.45C33.2188 29.45 32.8203 29.8485 32.8203 30.34C32.8203 30.8315 33.2188 31.23 33.7103 31.23Z" fill="#3A331A"/>
<path d="M34.6108 29.25C35.1962 29.25 35.6708 28.7754 35.6708 28.19C35.6708 27.6046 35.1962 27.13 34.6108 27.13C34.0254 27.13 33.5508 27.6046 33.5508 28.19C33.5508 28.7754 34.0254 29.25 34.6108 29.25Z" fill="#3A331A"/>
<path d="M30.6693 33.01C31.1608 33.01 31.5593 32.6115 31.5593 32.12C31.5593 31.6284 31.1608 31.23 30.6693 31.23C30.1778 31.23 29.7793 31.6284 29.7793 32.12C29.7793 32.6115 30.1778 33.01 30.6693 33.01Z" fill="#3A331A"/>
<path d="M34.8198 36.07C35.4052 36.07 35.8798 35.5954 35.8798 35.01C35.8798 34.4246 35.4052 33.95 34.8198 33.95C34.2343 33.95 33.7598 34.4246 33.7598 35.01C33.7598 35.5954 34.2343 36.07 34.8198 36.07Z" fill="#3A331A"/>
<path d="M36.4995 33.69C37.0849 33.69 37.5595 33.2154 37.5595 32.63C37.5595 32.0446 37.0849 31.57 36.4995 31.57C35.914 31.57 35.4395 32.0446 35.4395 32.63C35.4395 33.2154 35.914 33.69 36.4995 33.69Z" fill="#3A331A"/>
<path d="M29.3491 29.95C29.9345 29.95 30.4091 29.4754 30.4091 28.89C30.4091 28.3046 29.9345 27.83 29.3491 27.83C28.7636 27.83 28.2891 28.3046 28.2891 28.89C28.2891 29.4754 28.7636 29.95 29.3491 29.95Z" fill="#3A331A"/>
<path d="M28.2807 32.54C28.8661 32.54 29.3407 32.0654 29.3407 31.48C29.3407 30.8946 28.8661 30.42 28.2807 30.42C27.6953 30.42 27.2207 30.8946 27.2207 31.48C27.2207 32.0654 27.6953 32.54 28.2807 32.54Z" fill="#3A331A"/>
<path d="M31.3998 31.01C31.8913 31.01 32.2898 30.6115 32.2898 30.12C32.2898 29.6284 31.8913 29.23 31.3998 29.23C30.9082 29.23 30.5098 29.6284 30.5098 30.12C30.5098 30.6115 30.9082 31.01 31.3998 31.01Z" fill="#3A331A"/>
<path d="M32.2592 36.97C32.8446 36.97 33.3192 36.4954 33.3192 35.91C33.3192 35.3246 32.8446 34.85 32.2592 34.85C31.6738 34.85 31.1992 35.3246 31.1992 35.91C31.1992 36.4954 31.6738 36.97 32.2592 36.97Z" fill="#3A331A"/>
<path d="M29.1909 35.7C29.7763 35.7 30.2509 35.2254 30.2509 34.64C30.2509 34.0546 29.7763 33.58 29.1909 33.58C28.6054 33.58 28.1309 34.0546 28.1309 34.64C28.1309 35.2254 28.6054 35.7 29.1909 35.7Z" fill="#3A331A"/>
<path d="M36.4995 31.06C37.0849 31.06 37.5595 30.5854 37.5595 30C37.5595 29.4146 37.0849 28.94 36.4995 28.94C35.914 28.94 35.4395 29.4146 35.4395 30C35.4395 30.5854 35.914 31.06 36.4995 31.06Z" fill="#3A331A"/>
<path d="M32.2904 34.41C32.7819 34.41 33.1804 34.0115 33.1804 33.52C33.1804 33.0285 32.7819 32.63 32.2904 32.63C31.7989 32.63 31.4004 33.0285 31.4004 33.52C31.4004 34.0115 31.7989 34.41 32.2904 34.41Z" fill="#3A331A"/>
<path d="M34.3099 33.27C34.8015 33.27 35.1999 32.8715 35.1999 32.38C35.1999 31.8885 34.8015 31.49 34.3099 31.49C33.8184 31.49 33.4199 31.8885 33.4199 32.38C33.4199 32.8715 33.8184 33.27 34.3099 33.27Z" fill="#3A331A"/>
<path d="M32.4995 31.96C32.7646 31.96 32.9795 31.7451 32.9795 31.48C32.9795 31.2149 32.7646 31 32.4995 31C32.2344 31 32.0195 31.2149 32.0195 31.48C32.0195 31.7451 32.2344 31.96 32.4995 31.96Z" fill="#3A331A"/>
<path d="M29.9292 31.12C30.1943 31.12 30.4092 30.9051 30.4092 30.64C30.4092 30.3749 30.1943 30.16 29.9292 30.16C29.6641 30.16 29.4492 30.3749 29.4492 30.64C29.4492 30.9051 29.6641 31.12 29.9292 31.12Z" fill="#3A331A"/>
<path d="M30.6695 34.18C30.9345 34.18 31.1495 33.9651 31.1495 33.7C31.1495 33.4349 30.9345 33.22 30.6695 33.22C30.4044 33.22 30.1895 33.4349 30.1895 33.7C30.1895 33.9651 30.4044 34.18 30.6695 34.18Z" fill="#3A331A"/>
<path d="M35.0796 31.49C35.3447 31.49 35.5596 31.2751 35.5596 31.01C35.5596 30.7449 35.3447 30.53 35.0796 30.53C34.8145 30.53 34.5996 30.7449 34.5996 31.01C34.5996 31.2751 34.8145 31.49 35.0796 31.49Z" fill="#3A331A"/>
</g>
<defs>
<clipPath id="clip0_1477:108">
<rect width="65.42" height="63.33" fill="white"/>
</clipPath>
</defs>
</svg>
