<svg width="502" height="502" viewBox="0 0 502 502" fill="none" xmlns="http://www.w3.org/2000/svg">
<g clip-path="url(#clip0_4970_579)">
<path d="M246.22 501.04C234.199 501.049 222.407 497.756 212.13 491.52C211.24 490.98 210.34 490.41 209.47 489.82C205.54 487.155 201.909 484.074 198.64 480.63C197.94 479.91 197.27 479.17 196.64 478.42C195.43 477.03 194.3 475.62 193.27 474.22C191.147 471.334 189.267 468.277 187.65 465.08C179.38 469.942 170.143 472.932 160.592 473.837C151.041 474.743 141.407 473.542 132.37 470.32L131.99 470.18C130.99 469.81 129.99 469.42 128.99 469L128.34 468.73C127.43 468.34 126.55 467.93 125.61 467.47H125.55L124.87 467.14C123.65 466.53 122.57 465.95 121.55 465.35C111.782 459.689 103.631 451.615 97.8792 441.9C92.1271 432.185 88.9665 421.156 88.7001 409.87C88.7001 408.27 88.7 406.62 88.79 404.94H88.4C78.8705 404.954 69.4522 402.892 60.8002 398.898C52.1481 394.903 44.4701 389.072 38.3 381.81L38.03 381.49C37.36 380.69 36.69 379.85 36.03 379L35.5801 378.41C35.0101 377.63 34.43 376.81 33.86 375.96L33.39 375.28C32.65 374.14 32.01 373.1 31.39 372.08C25.853 362.531 22.8202 351.737 22.5737 340.701C22.3272 329.665 24.8749 318.747 29.98 308.96C30.41 308.13 30.87 307.28 31.35 306.45C31.95 305.45 32.58 304.37 33.25 303.35C24.9162 298.604 17.7189 292.096 12.1608 284.28C6.60261 276.464 2.81762 267.53 1.07007 258.1L0.98999 257.69C0.80999 256.69 0.65002 255.61 0.52002 254.54L0.420044 253.8C0.320044 252.87 0.230024 251.89 0.150024 250.8C0.150024 250.47 0.149966 250.23 0.0899658 249.99C0.0199658 248.61 -0.0200195 247.39 -0.0200195 246.21C-0.0197472 236.767 2.0172 227.435 5.9519 218.852C9.88661 210.268 15.6265 202.634 22.78 196.47C24.5106 194.975 26.3163 193.57 28.1901 192.26C29.9501 191.04 31.78 189.89 33.64 188.85C34.45 188.4 35.2101 187.99 35.9501 187.61C31.1069 179.334 28.1287 170.1 27.2236 160.554C26.3186 151.007 27.5085 141.379 30.7101 132.34L30.85 131.95C31.21 130.95 31.61 129.95 32.02 128.95L32.29 128.31C32.69 127.4 33.1001 126.52 33.5601 125.58C33.6801 125.3 33.8 125.06 33.92 124.81C34.52 123.62 35.1101 122.54 35.7001 121.51C40.2932 113.581 46.4897 106.698 53.8938 101.3C61.2978 95.9018 69.7466 92.1076 78.7001 90.1597C82.8171 89.2694 87.009 88.7705 91.22 88.6698H92.64C93.81 88.6698 95.0001 88.6698 96.1901 88.7598C96.1344 79.1723 98.1716 69.6883 102.16 60.9695C106.148 52.2508 111.99 44.5073 119.28 38.2797L119.61 37.9997C120.44 37.3097 121.28 36.6397 122.11 35.9997L122.65 35.5897C123.49 34.9697 124.3 34.3997 125.12 33.8397L125.2 33.7897L125.82 33.3697C126.94 32.6397 127.99 31.9897 129.01 31.3697C138.564 25.8469 149.357 22.8225 160.389 22.576C171.422 22.3296 182.339 24.8691 192.13 29.9597C194.057 30.9597 195.93 32.0498 197.75 33.2298C202.495 24.8961 209.001 17.6982 216.815 12.1385C224.629 6.57873 233.562 2.79106 242.99 1.03975L243.41 0.969741C244.46 0.789741 245.52 0.619745 246.57 0.489745L247.27 0.409743C248.27 0.289743 249.27 0.199745 250.27 0.129745H250.37L251.1 0.0797417C252.46 0.00974166 253.68 -0.0302589 254.87 -0.0302589C266.891 -0.0382448 278.683 3.25483 288.96 9.48976C289.85 10.0298 290.75 10.6098 291.62 11.1998C294.235 12.9677 296.721 14.9193 299.06 17.0397C299.8 17.7197 300.57 18.4497 301.33 19.2097C306.209 24.1196 310.283 29.7692 313.4 35.9498C321.672 31.0957 330.907 28.1129 340.456 27.211C350.005 26.3092 359.635 27.5103 368.67 30.7298L369.06 30.8697C370.06 31.2297 371.06 31.6197 372.06 32.0397C372.06 32.0397 372.56 32.2398 372.75 32.3298C373.65 32.7198 374.55 33.1297 375.44 33.5697L376.19 33.9297C377.39 34.5397 378.47 35.1197 379.5 35.7097C392.708 43.3448 402.853 55.3315 408.2 69.6197C408.57 70.6197 408.92 71.6197 409.2 72.6197C411.15 78.628 412.228 84.8852 412.4 91.1998V91.2797C412.4 92.8797 412.4 94.4997 412.32 96.1297H412.71C422.24 96.1154 431.658 98.1771 440.31 102.172C448.962 106.166 456.64 111.997 462.81 119.26L463.1 119.61C463.75 120.38 464.42 121.23 465.1 122.09L465.53 122.65C466.11 123.43 466.67 124.23 467.26 125.11V125.16L467.68 125.78C468.44 126.94 469.08 127.98 469.68 129C475.735 139.514 478.766 151.498 478.438 163.627C478.109 175.756 474.435 187.558 467.82 197.73C476.153 202.475 483.349 208.981 488.907 216.795C494.465 224.609 498.251 233.542 500 242.97L500.07 243.36C500.26 244.41 500.42 245.48 500.55 246.55L500.63 247.2C500.75 248.2 500.84 249.2 500.91 250.2V250.25C500.91 250.51 500.91 250.76 500.96 251.01C501.04 252.38 501.08 253.6 501.08 254.78C501.091 264.473 498.952 274.047 494.818 282.814C490.683 291.581 484.656 299.322 477.17 305.48C473.871 308.195 470.318 310.586 466.56 312.62C466.08 312.88 465.56 313.14 465.1 313.38C469.942 321.656 472.921 330.889 473.828 340.435C474.734 349.981 473.547 359.61 470.35 368.65L470.19 369.08C469.84 370.08 469.44 371.08 469.03 372.08L468.77 372.7C468.38 373.6 467.97 374.49 467.53 375.39V375.47C467.42 375.71 467.3 375.95 467.18 376.2C466.58 377.39 466 378.47 465.39 379.51C460.798 387.439 454.602 394.323 447.197 399.721C439.793 405.119 431.344 408.913 422.39 410.86C421.39 411.09 420.32 411.29 419.29 411.46C416.175 411.981 413.027 412.279 409.87 412.35H408.48C407.31 412.35 406.11 412.35 404.89 412.25C404.948 421.837 402.911 431.322 398.923 440.041C394.935 448.76 389.091 456.503 381.8 462.73L381.51 462.98C380.68 463.68 379.83 464.35 378.98 464.98L378.43 465.39C377.6 466.01 376.79 466.58 375.97 467.14L375.27 467.61C374.14 468.35 373.09 469 372.07 469.61C363.679 474.46 354.319 477.392 344.66 478.194C335.002 478.996 325.286 477.649 316.21 474.25C314.21 473.52 312.3 472.68 310.42 471.77C307.978 470.581 305.611 469.245 303.33 467.77C298.584 476.099 292.078 483.292 284.266 488.848C276.455 494.404 267.525 498.189 258.1 499.94L257.74 500C256.63 500.2 255.57 500.36 254.51 500.49L253.82 500.58C252.82 500.69 251.82 500.78 250.82 500.85H250.76L250.01 500.9C248.63 501.01 247.4 501.04 246.22 501.04Z" fill="#231F20"/>
<path d="M279.66 163.29H230L204.12 65.71C204.12 52.2609 209.463 39.3626 218.973 29.8526C228.483 20.3427 241.381 15 254.83 15C268.279 15 281.177 20.3427 290.687 29.8526C300.197 39.3626 305.54 52.2609 305.54 65.71L279.66 163.29Z" fill="#FAF28C"/>
<path d="M254.83 15C250.815 15.0016 246.813 15.4783 242.91 16.42C253.968 19.0938 263.807 25.4078 270.844 34.3474C277.881 43.287 281.708 54.333 281.71 65.71L255.83 163.29H279.66L305.54 65.71C305.54 59.0507 304.228 52.4566 301.68 46.3041C299.132 40.1517 295.396 34.5615 290.687 29.8526C285.979 25.1438 280.388 21.4085 274.236 18.8601C268.084 16.3117 261.489 15 254.83 15Z" fill="#EFCC6B"/>
<path d="M254.83 15C250.815 15.0016 246.813 15.4783 242.91 16.42C253.968 19.0938 263.807 25.4078 270.844 34.3474C277.881 43.287 281.708 54.333 281.71 65.71L255.83 163.29H279.66L305.54 65.71C305.54 59.0507 304.228 52.4566 301.68 46.3041C299.132 40.1517 295.396 34.5615 290.687 29.8526C285.979 25.1438 280.388 21.4085 274.236 18.8601C268.084 16.3117 261.489 15 254.83 15Z" fill="#EFCC6B"/>
<g style="mix-blend-mode:multiply">
<path d="M302.05 78.8697L301.75 77.7197C301.75 77.7197 284.38 135.35 222.59 135.35L230 163.29H279.66L302.05 78.8697Z" fill="#EFCC6B"/>
</g>
<path d="M232.14 160.41L189.14 185.24L117.94 113.67C111.218 102.022 109.398 88.1822 112.878 75.1924C116.359 62.2027 124.855 51.1268 136.5 44.4001C148.149 37.6781 161.991 35.8571 174.982 39.3375C187.974 42.8178 199.051 51.3147 205.78 62.9601L232.14 160.41Z" fill="#F8A33E"/>
<path d="M136.49 44.4001C133.014 46.4089 129.788 48.8224 126.88 51.5902C137.795 48.376 149.473 48.9252 160.038 53.1493C170.602 57.3734 179.44 65.0271 185.13 74.8802L211.5 172.32L232.14 160.41L205.77 62.9601C199.041 51.3147 187.964 42.8178 174.972 39.3375C161.981 35.8571 148.139 37.6781 136.49 44.4001Z" fill="#EFCC6B"/>
<path d="M136.49 44.4001C133.014 46.4089 129.788 48.8224 126.88 51.5902C137.795 48.376 149.473 48.9252 160.038 53.1493C170.602 57.3734 179.44 65.0271 185.13 74.8802L211.5 172.32L232.14 160.41L205.77 62.9601C199.041 51.3147 187.964 42.8178 174.972 39.3375C161.981 35.8571 148.139 37.6781 136.49 44.4001Z" fill="#F68620"/>
<g style="mix-blend-mode:multiply">
<path d="M209.32 76.0998L208.49 75.2598C208.49 75.2598 222.26 133.85 168.75 164.75L189.13 185.24L232.13 160.41L209.32 76.0998Z" fill="#EFCC6B"/>
</g>
<path d="M189.55 181.669L164.71 224.669L67.27 198.289C61.5021 194.961 56.4465 190.528 52.3921 185.245C48.3376 179.962 45.3636 173.932 43.6401 167.499C41.9166 161.067 41.4772 154.357 42.3471 147.755C43.217 141.153 45.3792 134.786 48.7101 129.019C52.0389 123.252 56.4713 118.196 61.7544 114.142C67.0374 110.087 73.0675 107.113 79.5001 105.39C85.9327 103.666 92.6419 103.227 99.2444 104.097C105.847 104.966 112.213 107.129 117.98 110.459L189.55 181.669Z" fill="#FAF28C"/>
<path d="M48.7101 129.03C46.7019 132.496 45.1139 136.189 43.98 140.03C51.8258 131.79 62.2143 126.428 73.4755 124.805C84.7367 123.182 96.2166 125.392 106.07 131.08L177.63 202.28L189.55 181.64L117.98 110.44C112.212 107.111 105.844 104.95 99.2399 104.082C92.6362 103.215 85.9262 103.657 79.4934 105.383C73.0606 107.109 67.0308 110.086 61.7489 114.144C56.467 118.201 52.0364 123.26 48.7101 129.03Z" fill="#EFCC6B"/>
<path d="M48.7101 129.03C46.7019 132.496 45.1139 136.189 43.98 140.03C51.8258 131.79 62.2143 126.428 73.4755 124.805C84.7367 123.182 96.2166 125.392 106.07 131.08L177.63 202.28L189.55 181.64L117.98 110.44C112.212 107.111 105.844 104.95 99.2399 104.082C92.6362 103.215 85.9262 103.657 79.4934 105.383C73.0606 107.109 67.0308 110.086 61.7489 114.144C56.467 118.201 52.0364 123.26 48.7101 129.03Z" fill="#EFCC6B"/>
<g style="mix-blend-mode:multiply">
<path d="M127.63 120.07L126.49 119.76C126.49 119.76 167.71 163.62 136.82 217.13L164.71 224.68L189.55 181.68L127.63 120.07Z" fill="#EFCC6B"/>
</g>
<path d="M163.29 221.38V271.05L65.7101 296.93C59.0499 296.93 52.455 295.618 46.3019 293.069C40.1488 290.52 34.5581 286.784 29.8491 282.074C25.1401 277.364 21.405 271.772 18.8572 265.619C16.3094 259.465 14.9987 252.87 15 246.21C15 232.761 20.3427 219.863 29.8527 210.353C39.3626 200.843 52.261 195.5 65.7101 195.5L163.29 221.38Z" fill="#F8A33E"/>
<path d="M15 246.21C15.001 250.225 15.4777 254.227 16.42 258.13C19.0938 247.072 25.4079 237.233 34.3475 230.196C43.2871 223.159 54.3331 219.332 65.7101 219.33L163.29 245.21V221.38L65.7101 195.5C59.0508 195.5 52.4566 196.812 46.3042 199.36C40.1518 201.908 34.5615 205.644 29.8527 210.353C25.1438 215.061 21.4085 220.652 18.8601 226.804C16.3117 232.957 15 239.551 15 246.21Z" fill="#EFCC6B"/>
<path d="M15 246.21C15.001 250.225 15.4777 254.227 16.42 258.13C19.0938 247.072 25.4079 237.233 34.3475 230.196C43.2871 223.159 54.3331 219.332 65.7101 219.33L163.29 245.21V221.38L65.7101 195.5C59.0508 195.5 52.4566 196.812 46.3042 199.36C40.1518 201.908 34.5615 205.644 29.8527 210.353C25.1438 215.061 21.4085 220.652 18.8601 226.804C16.3117 232.957 15 239.551 15 246.21Z" fill="#F68620"/>
<g style="mix-blend-mode:multiply">
<path d="M78.87 198.99L77.73 199.3C77.73 199.3 135.4 216.66 135.4 278.46L163.34 271.05V221.38L78.87 198.99Z" fill="#EFCC6B"/>
</g>
<path d="M160.4 268.899L185.23 311.899L113.66 383.099C102.022 389.828 88.1875 391.659 75.1994 388.19C62.2113 384.721 51.1328 376.235 44.4 364.599C37.6784 352.952 35.8576 339.111 39.3381 326.122C42.8185 313.132 51.3153 302.056 62.96 295.329L160.4 268.899Z" fill="#FAF28C"/>
<path d="M44.4 364.599C46.4062 368.077 48.8199 371.303 51.5899 374.209C48.3765 363.296 48.9261 351.62 53.1502 341.057C57.3744 330.493 65.0277 321.658 74.88 315.969L172.32 289.589L160.4 268.899L62.95 295.279C57.1783 298.611 52.1198 303.047 48.0635 308.335C44.0071 313.622 41.0325 319.658 39.3098 326.095C37.5871 332.533 37.1499 339.247 38.0233 345.854C38.8967 352.461 41.0636 358.831 44.4 364.599Z" fill="#EFCC6B"/>
<path d="M44.4 364.599C46.4062 368.077 48.8199 371.303 51.5899 374.209C48.3765 363.296 48.9261 351.62 53.1502 341.057C57.3744 330.493 65.0277 321.658 74.88 315.969L172.32 289.589L160.4 268.899L62.95 295.279C57.1783 298.611 52.1198 303.047 48.0635 308.335C44.0071 313.622 41.0325 319.658 39.3098 326.095C37.5871 332.533 37.1499 339.247 38.0233 345.854C38.8967 352.461 41.0636 358.831 44.4 364.599Z" fill="#EFCC6B"/>
<g style="mix-blend-mode:multiply">
<path d="M76.1 291.72L75.26 292.56C75.26 292.56 133.85 278.79 164.75 332.3L185.24 311.91L160.41 268.91L76.1 291.72Z" fill="#EFCC6B"/>
</g>
<path d="M181.67 311.5L224.67 336.33L198.3 433.77C191.575 445.419 180.498 453.92 167.506 457.402C154.513 460.885 140.67 459.064 129.02 452.34C117.375 445.611 108.878 434.534 105.397 421.542C101.917 408.551 103.738 394.709 110.46 383.06L181.67 311.5Z" fill="#F8A33E"/>
<path d="M129.03 452.34C132.498 454.341 136.19 455.925 140.03 457.06C131.785 449.221 126.414 438.837 124.782 427.578C123.15 416.319 125.35 404.838 131.03 394.98L202.23 323.41L181.59 311.5L110.39 383.06C107.065 388.833 104.909 395.204 104.047 401.81C103.184 408.416 103.631 415.127 105.361 421.56C107.092 427.994 110.073 434.023 114.135 439.304C118.196 444.585 123.257 449.015 129.03 452.34Z" fill="#EFCC6B"/>
<path d="M129.03 452.34C132.498 454.341 136.19 455.925 140.03 457.06C131.785 449.221 126.414 438.837 124.782 427.578C123.15 416.319 125.35 404.838 131.03 394.98L202.23 323.41L181.59 311.5L110.39 383.06C107.065 388.833 104.909 395.204 104.047 401.81C103.184 408.416 103.631 415.127 105.361 421.56C107.092 427.994 110.073 434.023 114.135 439.304C118.196 444.585 123.257 449.015 129.03 452.34Z" fill="#F68620"/>
<g style="mix-blend-mode:multiply">
<path d="M120.07 373.41L119.76 374.56C119.76 374.56 163.62 333.33 217.13 364.23L224.68 336.33L181.68 311.5L120.07 373.41Z" fill="#EFCC6B"/>
</g>
<path d="M221.4 337.75H271.07L296.95 435.33C296.95 448.779 291.607 461.677 282.097 471.187C272.587 480.697 259.689 486.04 246.24 486.04C239.58 486.041 232.985 484.731 226.831 482.183C220.678 479.635 215.086 475.9 210.376 471.191C205.666 466.482 201.93 460.891 199.381 454.738C196.832 448.585 195.52 441.99 195.52 435.33L221.4 337.75Z" fill="#FAF28C"/>
<path d="M246.22 486.04C250.232 486.038 254.23 485.562 258.13 484.62C247.072 481.946 237.233 475.632 230.196 466.693C223.159 457.753 219.332 446.707 219.33 435.33L245.21 337.75H221.4L195.52 435.33C195.52 448.777 200.861 461.674 210.369 471.184C219.877 480.694 232.773 486.037 246.22 486.04Z" fill="#EFCC6B"/>
<path d="M246.22 486.04C250.232 486.038 254.23 485.562 258.13 484.62C247.072 481.946 237.233 475.632 230.196 466.693C223.159 457.753 219.332 446.707 219.33 435.33L245.21 337.75H221.4L195.52 435.33C195.52 448.777 200.861 461.674 210.369 471.184C219.877 480.694 232.773 486.037 246.22 486.04Z" fill="#EFCC6B"/>
<g style="mix-blend-mode:multiply">
<path d="M198.99 422.17L199.3 423.32C199.3 423.32 216.67 365.69 278.46 365.69L271.05 337.75H221.4L198.99 422.17Z" fill="#EFCC6B"/>
</g>
<path d="M268.9 340.6L311.9 315.77L383.11 387.33C389.834 398.977 391.657 412.818 388.176 425.808C384.695 438.799 376.197 449.875 364.55 456.6C358.783 459.93 352.417 462.093 345.814 462.962C339.212 463.832 332.503 463.393 326.07 461.669C319.638 459.946 313.607 456.972 308.324 452.917C303.041 448.863 298.609 443.807 295.28 438.04L268.9 340.6Z" fill="#F8A33E"/>
<path d="M364.55 456.6C368.025 454.594 371.251 452.184 374.16 449.42C363.247 452.629 351.571 452.078 341.009 447.854C330.447 443.631 321.611 435.979 315.92 426.13L289.54 328.68L268.9 340.6L295.28 438.04C298.609 443.808 303.041 448.863 308.324 452.918C313.607 456.972 319.638 459.946 326.07 461.67C332.503 463.393 339.212 463.832 345.814 462.963C352.417 462.093 358.783 459.931 364.55 456.6Z" fill="#EFCC6B"/>
<path d="M364.55 456.6C368.025 454.594 371.251 452.184 374.16 449.42C363.247 452.629 351.571 452.078 341.009 447.854C330.447 443.631 321.611 435.979 315.92 426.13L289.54 328.68L268.9 340.6L295.28 438.04C298.609 443.808 303.041 448.863 308.324 452.918C313.607 456.972 319.638 459.946 326.07 461.67C332.503 463.393 339.212 463.832 345.814 462.963C352.417 462.093 358.783 459.931 364.55 456.6Z" fill="#F68620"/>
<g style="mix-blend-mode:multiply">
<path d="M291.72 424.94L292.56 425.78C292.56 425.78 278.79 367.19 332.3 336.29L311.91 315.81L268.91 340.64L291.72 424.94Z" fill="#EFCC6B"/>
</g>
<path d="M311.5 319.37L336.33 276.37L433.78 302.75C445.425 309.477 453.922 320.553 457.402 333.542C460.882 346.532 459.062 360.372 452.34 372.02C445.617 383.671 434.54 392.174 421.548 395.658C408.555 399.143 394.711 397.323 383.06 390.6L311.5 319.37Z" fill="#FAF28C"/>
<path d="M452.34 372.009C454.343 368.542 455.927 364.85 457.06 361.009C449.222 369.256 438.838 374.628 427.578 376.26C416.319 377.893 404.837 375.691 394.98 370.009L323.4 298.729L311.49 319.37L383.06 390.599C388.83 393.928 395.198 396.088 401.803 396.955C408.407 397.822 415.117 397.38 421.55 395.653C427.983 393.927 434.014 390.951 439.297 386.894C444.58 382.837 449.012 377.779 452.34 372.009Z" fill="#EFCC6B"/>
<path d="M452.34 372.009C454.343 368.542 455.927 364.85 457.06 361.009C449.222 369.256 438.838 374.628 427.578 376.26C416.319 377.893 404.837 375.691 394.98 370.009L323.4 298.729L311.49 319.37L383.06 390.599C388.83 393.928 395.198 396.088 401.803 396.955C408.407 397.822 415.117 397.38 421.55 395.653C427.983 393.927 434.014 390.951 439.297 386.894C444.58 382.837 449.012 377.779 452.34 372.009Z" fill="#EFCC6B"/>
<g style="mix-blend-mode:multiply">
<path d="M373.4 380.969L374.55 381.279C374.55 381.279 333.32 337.429 364.22 283.909L336.32 276.359L311.49 319.359L373.4 380.969Z" fill="#EFCC6B"/>
</g>
<path d="M337.76 279.66V230L435.33 204.12C441.99 204.119 448.585 205.429 454.739 207.977C460.892 210.525 466.484 214.26 471.194 218.969C475.904 223.678 479.64 229.269 482.189 235.422C484.738 241.575 486.05 248.17 486.05 254.83C486.05 261.49 484.738 268.085 482.189 274.238C479.64 280.391 475.904 285.982 471.194 290.691C466.484 295.4 460.892 299.135 454.739 301.683C448.585 304.231 441.99 305.541 435.33 305.54L337.76 279.66Z" fill="#F8A33E"/>
<path d="M486.05 254.83C486.05 250.814 485.57 246.812 484.62 242.91C481.948 253.969 475.634 263.809 466.694 270.846C457.754 277.883 446.707 281.71 435.33 281.71L337.76 255.83V279.66L435.33 305.54C441.99 305.541 448.585 304.231 454.739 301.683C460.892 299.135 466.484 295.4 471.194 290.691C475.904 285.982 479.64 280.391 482.189 274.238C484.738 268.085 486.05 261.49 486.05 254.83Z" fill="#EFCC6B"/>
<path d="M486.05 254.83C486.05 250.814 485.57 246.812 484.62 242.91C481.948 253.969 475.634 263.809 466.694 270.846C457.754 277.883 446.707 281.71 435.33 281.71L337.76 255.83V279.66L435.33 305.54C441.99 305.541 448.585 304.231 454.739 301.683C460.892 299.135 466.484 295.4 471.194 290.691C475.904 285.982 479.64 280.391 482.189 274.238C484.738 268.085 486.05 261.49 486.05 254.83Z" fill="#F68620"/>
<g style="mix-blend-mode:multiply">
<path d="M422.17 302.05L423.32 301.75C423.32 301.75 365.69 284.38 365.69 222.59L337.76 230V279.66L422.17 302.05Z" fill="#EFCC6B"/>
</g>
<path d="M340.64 232.14L315.81 189.14L387.37 117.94C393.137 114.608 399.505 112.446 406.108 111.576C412.711 110.706 419.421 111.145 425.855 112.869C432.288 114.592 438.319 117.566 443.603 121.621C448.887 125.676 453.32 130.731 456.65 136.5C459.979 142.267 462.14 148.634 463.008 155.237C463.877 161.839 463.436 168.548 461.712 174.981C459.987 181.413 457.013 187.443 452.958 192.725C448.903 198.008 443.848 202.441 438.08 205.77L340.64 232.14Z" fill="#FAF28C"/>
<path d="M456.65 136.49C454.64 133.014 452.227 129.789 449.46 126.88C452.672 137.795 452.122 149.472 447.898 160.036C443.674 170.601 436.022 179.439 426.17 185.13L328.72 211.5L340.64 232.14L438.08 205.76C443.848 202.431 448.903 197.999 452.958 192.716C457.013 187.433 459.987 181.403 461.712 174.971C463.436 168.539 463.877 161.83 463.008 155.227C462.14 148.624 459.979 142.258 456.65 136.49Z" fill="#EFCC6B"/>
<path d="M456.65 136.49C454.64 133.014 452.227 129.789 449.46 126.88C452.672 137.795 452.122 149.472 447.898 160.036C443.674 170.601 436.022 179.439 426.17 185.13L328.72 211.5L340.64 232.14L438.08 205.76C443.848 202.431 448.903 197.999 452.958 192.716C457.013 187.433 459.987 181.403 461.712 174.971C463.436 168.539 463.877 161.83 463.008 155.227C462.14 148.624 459.979 142.258 456.65 136.49Z" fill="#EFCC6B"/>
<g style="mix-blend-mode:multiply">
<path d="M424.94 209.32L425.78 208.48C425.78 208.48 367.19 222.26 336.3 168.74L315.81 189.13L340.64 232.13L424.94 209.32Z" fill="#EFCC6B"/>
</g>
<path d="M319.4 189.539L276.4 164.709L302.78 67.2694C306.109 61.5016 310.541 56.446 315.824 52.3915C321.107 48.337 327.138 45.3631 333.57 43.6395C340.003 41.916 346.712 41.4766 353.314 42.3465C359.917 43.2164 366.283 45.3785 372.05 48.7094C377.818 52.0383 382.873 56.4708 386.928 61.7535C390.983 67.0363 393.957 73.066 395.682 79.4983C397.406 85.9307 397.847 92.6397 396.978 99.2423C396.11 105.845 393.949 112.212 390.62 117.979L319.4 189.539Z" fill="#F8A33E"/>
<path d="M372.01 48.7095C368.546 46.6979 364.853 45.1098 361.01 43.9795C369.258 51.8191 374.63 62.2045 376.262 73.466C377.894 84.7274 375.692 96.2107 370.01 106.069L298.74 177.599L319.4 189.539L390.61 117.979C393.938 112.21 396.097 105.842 396.963 99.2378C397.829 92.6339 397.386 85.9241 395.659 79.4916C393.932 73.0591 390.954 67.0298 386.896 61.7481C382.839 56.4665 377.78 52.0359 372.01 48.7095Z" fill="#EFCC6B"/>
<path d="M372.01 48.7095C368.546 46.6979 364.853 45.1098 361.01 43.9795C369.258 51.8191 374.63 62.2045 376.262 73.466C377.894 84.7274 375.692 96.2107 370.01 106.069L298.74 177.599L319.4 189.539L390.61 117.979C393.938 112.21 396.097 105.842 396.963 99.2378C397.829 92.6339 397.386 85.9241 395.659 79.4916C393.932 73.0591 390.954 67.0298 386.896 61.7481C382.839 56.4665 377.78 52.0359 372.01 48.7095Z" fill="#F68620"/>
<g style="mix-blend-mode:multiply">
<path d="M380.97 127.6L381.28 126.46C381.28 126.46 337.43 167.68 283.92 136.78L276.36 164.68L319.36 189.51L380.97 127.6Z" fill="#EFCC6B"/>
</g>
<path d="M250.52 350.12C305.528 350.12 350.12 305.527 350.12 250.52C350.12 195.512 305.528 150.92 250.52 150.92C195.512 150.92 150.92 195.512 150.92 250.52C150.92 305.527 195.512 350.12 250.52 350.12Z" fill="#C54827"/>
<path d="M250.52 308.82C282.718 308.82 308.82 282.718 308.82 250.52C308.82 218.322 282.718 192.22 250.52 192.22C218.322 192.22 192.22 218.322 192.22 250.52C192.22 282.718 218.322 308.82 250.52 308.82Z" fill="#4A2211"/>
<path d="M308.75 169.71C322.515 188.898 329.015 212.351 327.091 235.887C325.167 259.423 314.945 281.509 298.247 298.207C281.549 314.905 259.463 325.127 235.927 327.051C212.391 328.975 188.938 322.474 169.75 308.71C178.173 320.451 189.049 330.219 201.624 337.336C214.199 344.453 228.172 348.75 242.573 349.927C256.975 351.104 271.46 349.134 285.024 344.153C298.588 339.172 310.906 331.3 321.123 321.083C331.34 310.865 339.212 298.548 344.193 284.984C349.174 271.42 351.144 256.935 349.967 242.533C348.79 228.132 344.493 214.159 337.376 201.584C330.259 189.009 320.491 178.132 308.75 169.71Z" fill="#95281E"/>
<g style="mix-blend-mode:multiply">
<path d="M152.99 268.9L152.69 269.29C157.7 295.107 172.716 317.895 194.461 332.685C216.207 347.475 242.919 353.066 268.771 348.239C294.623 343.412 317.517 328.558 332.461 306.917C347.404 285.277 353.184 258.605 348.54 232.72C256.18 337.49 152.99 268.9 152.99 268.9Z" fill="#95281E"/>
</g>
<path d="M252.36 250.81C257.336 250.81 261.37 246.776 261.37 241.8C261.37 236.824 257.336 232.79 252.36 232.79C247.384 232.79 243.35 236.824 243.35 241.8C243.35 246.776 247.384 250.81 252.36 250.81Z" fill="#F6FAFE"/>
<path d="M264.25 294.8C268.497 294.8 271.94 291.357 271.94 287.11C271.94 282.863 268.497 279.42 264.25 279.42C260.003 279.42 256.56 282.863 256.56 287.11C256.56 291.357 260.003 294.8 264.25 294.8Z" fill="#F6FAFE"/>
<path d="M271.94 270.06C276.187 270.06 279.63 266.617 279.63 262.37C279.63 258.123 276.187 254.68 271.94 254.68C267.693 254.68 264.25 258.123 264.25 262.37C264.25 266.617 267.693 270.06 271.94 270.06Z" fill="#F6FAFE"/>
<path d="M254.47 218.09C257.822 218.09 260.54 215.373 260.54 212.02C260.54 208.668 257.822 205.95 254.47 205.95C251.118 205.95 248.4 208.668 248.4 212.02C248.4 215.373 251.118 218.09 254.47 218.09Z" fill="#F6FAFE"/>
<path d="M231.02 248.85C234.372 248.85 237.09 246.132 237.09 242.78C237.09 239.428 234.372 236.71 231.02 236.71C227.668 236.71 224.95 239.428 224.95 242.78C224.95 246.132 227.668 248.85 231.02 248.85Z" fill="#F6FAFE"/>
<path d="M210.32 259.72C214.33 259.72 217.58 256.47 217.58 252.46C217.58 248.451 214.33 245.2 210.32 245.2C206.31 245.2 203.06 248.451 203.06 252.46C203.06 256.47 206.31 259.72 210.32 259.72Z" fill="#F6FAFE"/>
<path d="M232.7 279.96C236.98 279.96 240.45 276.49 240.45 272.21C240.45 267.93 236.98 264.46 232.7 264.46C228.42 264.46 224.95 267.93 224.95 272.21C224.95 276.49 228.42 279.96 232.7 279.96Z" fill="#F6FAFE"/>
<path d="M274.36 233.35C278.077 233.35 281.09 230.337 281.09 226.62C281.09 222.903 278.077 219.89 274.36 219.89C270.643 219.89 267.63 222.903 267.63 226.62C267.63 230.337 270.643 233.35 274.36 233.35Z" fill="#F6FAFE"/>
<path d="M224.85 228.99C229.185 228.99 232.7 225.475 232.7 221.14C232.7 216.805 229.185 213.29 224.85 213.29C220.515 213.29 217 216.805 217 221.14C217 225.475 220.515 228.99 224.85 228.99Z" fill="#F6FAFE"/>
<path d="M287.48 251.29C291.815 251.29 295.33 247.775 295.33 243.44C295.33 239.104 291.815 235.59 287.48 235.59C283.145 235.59 279.63 239.104 279.63 243.44C279.63 247.775 283.145 251.29 287.48 251.29Z" fill="#F6FAFE"/>
</g>
<defs>
<clipPath id="clip0_4970_579">
<rect width="501.05" height="501.05" fill="white"/>
</clipPath>
</defs>
</svg>
